<?xml version="1.0" encoding="UTF-8"?>
<svg id="_Слой_2" data-name="Слой 2" xmlns="http://www.w3.org/2000/svg" viewBox="0 0 96.8 30.08">
  <defs>
    <style>
      .cls-1 {
        fill: #020202;
      }

      .cls-2 {
        fill: #ededed;
      }
    </style>
  </defs>
  <g id="_лягушки" data-name="лягушки">
    <g>
      <g>
        <path class="cls-2" d="M9.51,26.94c6.61,2.45,13.73,.92,17.75-3.72,3.13-3.61,4.9-9.69,2.6-14.45-.87-1.81-2.08-2.9-2.63-3.39-4.64-4.1-11.06-3.24-13.89-2.73-3.23,.58-6.59,1.59-8.81,3.72,0,0-1.88,1.97-2.61,4.51-1.5,5.22,2.43,12.27,9.73,17.54"/>
        <path class="cls-2" d="M4.43,23.87c-.98-1.2-1.82-2.53-2.61-3.9-.3-.52-.35-1.14-1-1.55-.35-.2-.03-.96-.22-1.47C.11,15.51-.06,13.93,.02,12.32c.02-.39,.03-.79,.11-1.18,.06-.4,.11-.8,.22-1.18,.19-.77,.47-1.5,.82-2.18,.35-.67,.81-1.28,1.29-1.86l.36-.44c.12-.14,.24-.3,.45-.51,.3-.3,.55-.56,.81-.85,.92-1,2.16-1.17,3.17-1.73,1.1-.58,2.3-1.03,3.47-1.11,.86-.06,1.69-.04,2.49-.28,.49-.15,.94-.49,1.51-.54,.54-.05,1.15,.12,1.59-.44,.04-.05,.29,.03,.41,.1,.6,.32,1.3,.29,1.81,.07,.49-.22,.93-.15,1.38-.13,1.26,.09,2.54,.33,3.76,.79,.92,.33,1.73,.93,2.55,1.44,.44,.26,.89,.54,1.33,.8,.41,.3,.84,.63,1.07,1.02,.51,.8,1.12,1.45,1.66,2.2,.31,.43,.41,1.06,1.09,1.19,.07,.01,.15,.2,.15,.3,0,.85,.32,1.49,.64,2.18,.31,.68,.64,1.4,.63,2.17-.02,1.57,0,3.13-.31,4.65-.09,.4-.34,.78-.07,1.25,.09,.17-.02,.59-.18,.76-.87,.9-1.04,2.09-1.7,3.07-.74,1.08-1.34,2.35-2.6,3.03-.51,.3-1.13,.7-1.35,1.53-.12,.36-.77,.6-1.16,.89-.32,.24-.53,.68-.89,.86-.3,.16-.7,.14-1.05,.21-.11,.01-.22,.06-.3,.13-.78,.65-1.74,.94-2.71,1.07-.48,.08-.97,.12-1.45,.15-.48,.05-.96,.09-1.43,.17-1.92,.33-3.91,.15-5.78-.32-.52-.12-1.02-.33-1.45-.6-.42-.3-.75-.72-.91-1.29-.14-.51,.04-.95,.51-1.09,.35-.1,.72-.18,1.04-.13,.53,.04,1.06,.09,1.56,.09,1.07,.06,2.1-.32,3.13-.04,.33,.07,.7-.2,.99,.23,.04,.06,.18,.09,.24,.05,1.34-.76,2.79-.61,4.12-1.16,1.12-.48,1.84-1.48,2.89-1.96,.1-.4,.29-.69,.52-.93,.24-.23,.53-.41,.79-.59,.97-.59,1.69-1.54,2.22-2.58,.53-1.04,.87-2.16,1.17-3.27,.62-2.26,.45-4.65-.43-6.62-.15-.35-.56-.46-.59-.95-.03-.47-.5-.8-.82-1.15-.3-.32-.72-.57-.98-.95-.48-.8-1.26-1.33-2.08-1.73-.84-.38-1.75-.59-2.66-.82-1.82-.43-3.81-.51-5.73-.14-1.17,.23-2.32,.74-3.5,.9-.51,.07-.94,.49-1.56,.16-.18-.09-.51,.42-.79,.55-.72,.31-1.43,.6-2.07,.98-.44,.26-.86,.54-1.24,.85l-.27,.24s-.07,.06-.07,.06l-.1,.12c-.16,.19-.32,.4-.46,.62-.35,.54-.51,1.18-.73,1.73-.22,.59-.46,1.14-.6,1.67-.23,.67-.43,1.43-.39,2.24,.01,.85,.51,1.66,.56,2.53,.15,1.67,1.21,3.06,2.16,4.43,.95,1.38,2.11,2.67,3.44,3.74,.37,.31,.67,.68,.96,1.05,.29,.38,.58,.75,.97,1.04,.35,.26,.1,1.66-.3,1.89-.08,.04-.19,.07-.27,.05-.51-.14-1.05-.23-1.58-.38-.51-.17-1.01-.4-1.45-.79-1.25-1.2-2.51-2.41-3.62-3.77Z"/>
      </g>
      <g>
        <path class="cls-1" d="M15.29,25.89c4.79-1.87,8.01-5.97,8.25-10.45,.29-5.52-3.95-11.44-7.82-11.16-3.05,.22-5.35,4.27-5.98,7.33-1.07,5.21,1.98,11.02,7.68,14.93"/>
        <path class="cls-1" d="M12.33,24.23c-.66-.75-1.26-1.55-1.84-2.38-.23-.3-.23-.74-.82-.86-.29-.07-.01-.64-.17-.95-.47-.83-.77-1.75-1.07-2.67-.31-.88-.66-1.8-.79-2.77-.1-.98,.16-1.96,.07-2.93-.11-.88,.51-1.48,.66-2.21,.17-.79,.44-1.6,1-2.2,.4-.44,.86-.81,1.12-1.33,.18-.32,.16-.77,.47-1.07,.27-.29,.75-.41,.65-1.05-.01-.06,.21-.1,.33-.1,.56-.02,.99-.32,1.23-.72,.26-.38,.6-.53,.99-.65,1.02-.37,2.29-.44,3.29-.11,.78,.22,1.36,.71,1.92,1.1,.58,.4,1.33,.67,1.6,1.28,.29,.6,.65,1.01,1.02,1.45,.2,.26,.23,.69,.83,.6,.06,0,.12,.1,.11,.17-.04,.59,.25,.93,.57,1.28,.34,.34,.7,.68,.81,1.15,.22,.96,.64,1.85,.88,2.83,.05,.26-.05,.56,.38,.74,.16,.06,.21,.35,.12,.5-.44,.8-.1,1.55-.23,2.34-.16,.86-.07,1.81-.72,2.54-.27,.31-.52,.72-.21,1.32,.13,.28-.25,.58-.34,.89-.08,.25,0,.59-.12,.82-.1,.2-.4,.28-.6,.42-.06,.04-.1,.11-.11,.18-.24,1.4-1.68,1.89-2.48,2.81-.83,.96-1.94,1.65-3.07,2.17-.63,.29-1.36,.44-2.13-.31-.34-.33-.5-.78-.38-1.14,.09-.26,.2-.52,.37-.65,.26-.21,.49-.47,.73-.68,.49-.47,.75-1.17,1.4-1.36,.21-.07,.23-.41,.64-.18,.06,.03,.14,0,.15-.05,.21-1.06,1.09-1.38,1.58-2.13,.41-.64,.28-1.48,.76-2.02-.33-.56-.12-.91,.14-1.23,.93-1.17,.58-2.64,.38-4-.18-1.42-.84-2.79-1.59-4-.13-.22-.49-.21-.48-.56,.02-.36-.34-.51-.54-.72-.18-.22-.47-.3-.57-.58-.21-.56-.63-.9-1.07-1.11-.45-.17-.89-.24-1.25-.24-.73-.08-1.65,.39-2.27,1.29-.38,.54-.51,1.25-.94,1.78-.18,.24-.06,.63-.64,.69-.17,.02,.07,.43,.02,.62-.14,.45-.31,.9-.43,1.34-.16,.62-.27,1.23-.24,1.87,.02,.39,.24,.76,.33,1.13,.09,.39,.15,.78,.2,1.18l.05,.79c0,.27,.04,.54,.12,.8,.14,.55,.61,.97,.65,1.55,.08,1.12,.9,1.87,1.51,2.7,.61,.84,1.36,1.61,2.21,2.22,.5,.33,.65,1.02,1.15,1.36,.22,.16-.18,1.42-.52,1.71-.07,.05-.16,.1-.21,.09-.74-.04-1.61,.1-2.17-.43-.83-.75-1.67-1.51-2.43-2.35Z"/>
      </g>
      <g>
        <path class="cls-2" d="M73.5,26.94c6.61,2.45,13.73,.92,17.75-3.72,3.13-3.61,4.9-9.69,2.6-14.45-.87-1.81-2.08-2.9-2.63-3.39-4.64-4.1-11.06-3.24-13.89-2.73-3.23,.58-6.59,1.59-8.81,3.72,0,0-1.88,1.97-2.61,4.51-1.5,5.22,2.43,12.27,9.73,17.54"/>
        <path class="cls-2" d="M68.43,23.87c-.98-1.2-1.82-2.53-2.61-3.9-.3-.52-.35-1.14-1-1.55-.35-.2-.03-.96-.22-1.47-.5-1.44-.66-3.02-.58-4.63,.02-.39,.03-.79,.11-1.18,.06-.4,.11-.8,.22-1.18,.19-.77,.47-1.5,.82-2.18,.35-.67,.81-1.28,1.29-1.86l.36-.44c.12-.14,.24-.3,.45-.51,.3-.3,.55-.56,.81-.85,.92-1,2.16-1.17,3.17-1.73,1.1-.58,2.3-1.03,3.47-1.11,.86-.06,1.69-.04,2.49-.28,.49-.15,.94-.49,1.51-.54,.54-.05,1.15,.12,1.59-.44,.04-.05,.29,.03,.41,.1,.6,.32,1.3,.29,1.81,.07,.49-.22,.93-.15,1.38-.13,1.26,.09,2.54,.33,3.76,.79,.92,.33,1.73,.93,2.55,1.44,.44,.26,.89,.54,1.33,.8,.41,.3,.84,.63,1.07,1.02,.51,.8,1.12,1.45,1.66,2.2,.31,.43,.41,1.06,1.09,1.19,.07,.01,.15,.2,.15,.3,0,.85,.32,1.49,.64,2.18,.31,.68,.64,1.4,.63,2.17-.02,1.57,0,3.13-.31,4.65-.09,.4-.34,.78-.07,1.25,.09,.17-.02,.59-.18,.76-.87,.9-1.04,2.09-1.7,3.07-.74,1.08-1.34,2.35-2.6,3.03-.51,.3-1.13,.7-1.35,1.53-.12,.36-.77,.6-1.16,.89-.32,.24-.53,.68-.89,.86-.3,.16-.7,.14-1.05,.21-.11,.01-.22,.06-.3,.13-.78,.65-1.74,.94-2.71,1.07-.48,.08-.97,.12-1.45,.15-.48,.05-.96,.09-1.43,.17-1.92,.33-3.91,.15-5.78-.32-.52-.12-1.02-.33-1.45-.6-.42-.3-.75-.72-.91-1.29-.14-.51,.04-.95,.51-1.09,.35-.1,.72-.18,1.04-.13,.53,.04,1.06,.09,1.56,.09,1.07,.06,2.1-.32,3.13-.04,.33,.07,.7-.2,.99,.23,.04,.06,.18,.09,.24,.05,1.34-.76,2.79-.61,4.12-1.16,1.12-.48,1.84-1.48,2.89-1.96,.1-.4,.29-.69,.52-.93,.24-.23,.53-.41,.79-.59,.97-.59,1.69-1.54,2.22-2.58,.53-1.04,.87-2.16,1.17-3.27,.62-2.26,.45-4.65-.43-6.62-.15-.35-.56-.46-.59-.95-.03-.47-.5-.8-.82-1.15-.3-.32-.72-.57-.98-.95-.48-.8-1.26-1.33-2.08-1.73-.84-.38-1.75-.59-2.66-.82-1.82-.43-3.81-.51-5.73-.14-1.17,.23-2.32,.74-3.5,.9-.51,.07-.94,.49-1.56,.16-.18-.09-.51,.42-.79,.55-.72,.31-1.43,.6-2.07,.98-.44,.26-.86,.54-1.24,.85l-.27,.24s-.07,.06-.07,.06l-.1,.12c-.16,.19-.32,.4-.46,.62-.35,.54-.51,1.18-.73,1.73-.22,.59-.46,1.14-.6,1.67-.23,.67-.43,1.43-.39,2.24,.01,.85,.51,1.66,.56,2.53,.15,1.67,1.21,3.06,2.16,4.43,.95,1.38,2.11,2.67,3.44,3.74,.37,.31,.67,.68,.96,1.05,.29,.38,.58,.75,.97,1.04,.35,.26,.1,1.66-.3,1.89-.08,.04-.19,.07-.27,.05-.51-.14-1.05-.23-1.58-.38-.51-.17-1.01-.4-1.45-.79-1.25-1.2-2.51-2.41-3.62-3.77Z"/>
      </g>
      <g>
        <path class="cls-1" d="M79.29,25.89c4.79-1.87,8.01-5.97,8.25-10.45,.29-5.52-3.95-11.44-7.82-11.16-3.05,.22-5.35,4.27-5.98,7.33-1.07,5.21,1.98,11.02,7.68,14.93"/>
        <path class="cls-1" d="M76.33,24.23c-.66-.75-1.26-1.55-1.84-2.38-.23-.3-.23-.74-.82-.86-.29-.07-.01-.64-.17-.95-.47-.83-.77-1.75-1.07-2.67-.31-.88-.66-1.8-.79-2.77-.1-.98,.16-1.96,.07-2.93-.11-.88,.51-1.48,.66-2.21,.17-.79,.44-1.6,1-2.2,.4-.44,.86-.81,1.12-1.33,.18-.32,.16-.77,.47-1.07,.27-.29,.75-.41,.65-1.05-.01-.06,.21-.1,.33-.1,.56-.02,.99-.32,1.23-.72,.26-.38,.6-.53,.99-.65,1.02-.37,2.29-.44,3.29-.11,.78,.22,1.36,.71,1.92,1.1,.58,.4,1.33,.67,1.6,1.28,.29,.6,.65,1.01,1.02,1.45,.2,.26,.23,.69,.83,.6,.06,0,.12,.1,.11,.17-.04,.59,.25,.93,.57,1.28,.34,.34,.7,.68,.81,1.15,.22,.96,.64,1.85,.88,2.83,.05,.26-.05,.56,.38,.74,.16,.06,.21,.35,.12,.5-.44,.8-.1,1.55-.23,2.34-.16,.86-.07,1.81-.72,2.54-.27,.31-.52,.72-.21,1.32,.13,.28-.25,.58-.34,.89-.08,.25,0,.59-.12,.82-.1,.2-.4,.28-.6,.42-.06,.04-.1,.11-.11,.18-.24,1.4-1.68,1.89-2.48,2.81-.83,.96-1.94,1.65-3.07,2.17-.63,.29-1.36,.44-2.13-.31-.34-.33-.5-.78-.38-1.14,.09-.26,.2-.52,.37-.65,.26-.21,.49-.47,.73-.68,.49-.47,.75-1.17,1.4-1.36,.21-.07,.23-.41,.64-.18,.06,.03,.14,0,.15-.05,.21-1.06,1.09-1.38,1.58-2.13,.41-.64,.28-1.48,.76-2.02-.33-.56-.12-.91,.14-1.23,.93-1.17,.58-2.64,.38-4-.18-1.42-.84-2.79-1.59-4-.13-.22-.49-.21-.48-.56,.02-.36-.34-.51-.54-.72-.18-.22-.47-.3-.57-.58-.21-.56-.63-.9-1.07-1.11-.45-.17-.89-.24-1.25-.24-.73-.08-1.65,.39-2.27,1.29-.38,.54-.51,1.25-.94,1.78-.18,.24-.06,.63-.64,.69-.17,.02,.07,.43,.02,.62-.14,.45-.31,.9-.43,1.34-.16,.62-.27,1.23-.24,1.87,.02,.39,.24,.76,.33,1.13,.09,.39,.15,.78,.2,1.18l.05,.79c0,.27,.04,.54,.12,.8,.14,.55,.61,.97,.65,1.55,.08,1.12,.9,1.87,1.51,2.7,.61,.84,1.36,1.61,2.21,2.22,.5,.33,.65,1.02,1.15,1.36,.22,.16-.18,1.42-.52,1.71-.07,.05-.16,.1-.21,.09-.74-.04-1.61,.1-2.17-.43-.83-.75-1.67-1.51-2.43-2.35Z"/>
      </g>
    </g>
  </g>
</svg>