<svg width="100" height="100" viewBox="0 0 100 100" fill="none" xmlns="http://www.w3.org/2000/svg">
<mask id="mask0_390_18863" style="mask-type:alpha" maskUnits="userSpaceOnUse" x="0" y="0" width="100" height="100">
<rect width="100" height="100" fill="#D9D9D9"/>
</mask>
<g mask="url(#mask0_390_18863)">
<path d="M11.1722 83.1063C-14.9995 149.785 27.9031 145.797 40.2906 148.711C43.579 149.484 46.9381 150.021 50.2737 149.673C52.7076 149.419 55.0943 148.694 57.4457 147.927C64.8181 145.514 108.976 135.869 88.9566 83.1063" fill="#37993A"/>
<path d="M94.4437 99.8836C94.591 100.662 94.6618 101.459 94.7325 102.255L94.9564 104.633C94.9918 105.429 95.0036 106.225 95.0271 107.022C95.0507 107.818 95.0861 108.615 95.0271 109.417C94.9918 110.013 94.9506 110.608 94.9152 111.216C94.8975 111.517 94.9034 111.824 94.8916 112.13C94.8798 112.437 94.8798 112.75 94.9093 113.068C94.9388 113.381 94.8326 113.818 94.703 114.313C94.5733 114.803 94.4437 115.351 94.3141 115.888L93.8544 118.089C93.6953 118.82 93.4359 119.528 93.2297 120.248L92.8997 121.321L92.4872 122.371C92.1984 123.062 91.9686 123.781 91.6385 124.454C90.4658 127.126 88.963 129.657 87.1656 131.97C86.7001 132.524 86.2639 133.114 85.7453 133.633C85.2326 134.158 84.7258 134.683 84.2131 135.202C83.6768 135.698 83.1464 136.187 82.6219 136.677C82.0974 137.167 81.5494 137.609 81.0367 138.087C79.2275 139.697 77.2886 140.724 75.332 141.916C73.2635 143.196 71.0182 144.364 68.7906 145.184C67.1582 145.768 65.5375 146.293 63.9346 146.889C62.9386 147.272 62.037 147.726 60.9232 148.063C59.8977 148.369 58.6661 148.582 57.9235 149.148C57.8646 149.195 57.3813 149.29 57.1338 149.325C55.961 149.49 54.588 149.909 53.6451 150.275C52.7257 150.635 51.8594 150.788 50.9401 150.918C48.3942 151.272 45.8248 151.113 43.3909 150.682C42.4774 150.523 41.5817 150.304 40.6977 150.068L40.0377 149.891L39.413 149.738C39.0063 149.632 38.5761 149.543 38.1459 149.467C36.3485 149.142 34.3389 149.054 32.6358 148.664C30.9267 148.269 29.2708 148.045 27.5794 147.715C26.6129 147.549 25.5286 147.142 24.6681 147.29C24.5856 147.308 24.232 147.207 24.0729 147.142C21.4622 146.063 18.6453 145.709 16.0641 144.322C13.4357 142.913 10.825 141.19 8.70347 138.948C8.16719 138.323 7.65448 137.621 7.00623 137.167C6.78818 136.996 6.28723 136.288 6.09865 135.904C5.969 135.651 5.83349 135.397 5.69795 135.137C5.58009 134.872 5.46223 134.606 5.33257 134.347C5.08506 133.822 4.80213 133.309 4.54283 132.79L3.86517 131.173L3.52922 130.365C3.44082 130.088 3.36423 129.81 3.28761 129.533C3.11671 128.896 2.93403 128.271 2.74545 127.64C2.59812 127.002 2.48613 126.359 2.35648 125.716C2.06182 124.436 2.02647 123.121 2.0029 121.811C1.97933 121.257 2.01467 120.608 1.9911 119.929C1.96753 119.251 1.89681 118.549 1.7318 117.888C1.57268 117.275 1.81429 116.024 1.82607 115.074C1.84965 114.295 1.7259 113.529 1.83787 112.773C1.91448 112.125 2.10896 111.487 2.2445 110.839C2.28576 110.644 2.31523 110.408 2.32112 110.213C2.32112 109.263 2.49202 108.343 2.64524 107.423C2.80436 106.503 2.99296 105.582 3.18744 104.668C3.68247 102.869 4.15983 101.064 4.59592 99.2347C5.07917 97.4178 5.54472 95.5713 6.12814 93.7662C6.73514 91.9669 7.33036 90.1676 7.97272 88.392C8.72116 86.4511 9.56385 84.469 10.5893 83.3599C11.0548 82.8585 11.3142 82.9588 11.161 83.8437C11.049 84.4926 10.8957 85.2241 10.6659 85.9261C10.3064 87.047 9.94695 88.1678 9.59925 89.2591C9.26334 90.4036 8.98631 91.5599 8.66808 92.7102C8.36163 93.8665 7.9786 95.0109 7.59555 96.179C7.34214 96.9046 7.24192 97.8071 6.8235 98.344C6.76457 98.4206 6.65852 98.7156 6.63495 98.8631C6.15171 102.119 5.14395 105.364 4.63125 108.65C4.20104 111.446 4.23053 114.183 3.98891 116.991C4.04195 117.381 4.095 117.782 4.14803 118.195C4.19518 118.608 4.22466 119.027 4.23645 119.445C4.26591 120.283 4.22463 121.127 4.28357 121.9C4.31303 122.584 4.34246 123.268 4.3896 123.952C4.46032 124.631 4.59588 125.303 4.70196 125.976L4.87879 126.985L5.15575 127.964L5.43861 128.943C5.5388 129.268 5.61544 129.604 5.76277 129.911C6.67621 132.471 8.12002 134.789 9.85852 136.819C11.6324 138.883 13.8423 140.565 16.2703 141.857C18.7042 143.16 21.3444 144.098 24.0494 144.812C24.9687 145.072 25.8173 145.06 26.884 145.437C27.8917 145.774 29.2648 145.915 30.4847 146.104C31.6044 146.275 32.7949 146.375 33.8556 146.594C36.0479 147.066 38.2932 147.325 40.5857 147.838C42.7544 148.34 44.9408 148.694 47.1036 148.812C49.2605 148.942 51.3821 148.7 53.5036 148.145C54.5644 147.88 55.6193 147.549 56.6742 147.201C57.7408 146.841 58.837 146.511 59.8859 146.175C62.4672 145.343 64.9364 144.305 67.4528 143.326C68.5254 142.901 69.5626 142.264 70.7118 142.022C70.8768 141.986 71.1773 141.804 71.5132 141.585C71.8491 141.355 72.2204 141.09 72.5445 140.913C74.1593 140.04 75.721 139.072 77.2473 138.052C79.3335 136.6 81.3077 134.978 83.0698 133.161C83.5825 132.589 84.1188 132.034 84.5726 131.415C85.0264 130.796 85.5037 130.2 85.9457 129.58C86.3995 128.92 86.8533 128.259 87.307 127.598C87.7196 126.908 88.138 126.224 88.5623 125.545C89.0161 124.637 89.5406 123.764 89.9649 122.843L90.5719 121.445L90.8724 120.743C90.9667 120.507 91.0315 120.26 91.114 120.018C91.4205 119.003 91.7682 117.977 91.9391 116.915C92.1513 115.865 92.3987 114.838 92.5637 113.829C92.9939 111.977 93.0941 110.066 93.159 108.166L93.0823 105.305C93.0529 104.355 92.9115 103.406 92.8408 102.45L92.717 101.028L92.493 99.6182C92.3398 98.6802 92.2043 97.7363 92.0275 96.7984L91.3793 94.014C91.2673 93.5479 91.1671 93.0878 91.0433 92.6276L90.6249 91.259C90.3067 90.2266 90.0651 89.2179 89.8353 88.2091C89.5524 87.218 89.2695 86.2329 88.9159 85.23C88.5859 84.2979 88.8393 82.77 89.2105 83.065C89.2813 83.124 89.3815 83.2596 89.4581 83.4071C89.9295 84.3569 90.3833 85.2713 90.8548 86.2152C91.0846 86.693 91.3144 87.1826 91.5207 87.6959C91.7093 88.2209 91.886 88.7695 92.051 89.3536L92.7877 91.9433C93.0234 92.8105 93.2002 93.6954 93.4065 94.5684C93.5951 95.4474 93.8485 96.3146 93.9781 97.2054L94.4201 99.8719L94.4437 99.8836Z" fill="#349039"/>
<path d="M86.1402 125.209C82.4511 119.145 79.422 112.673 77.1413 105.954C75.061 99.8424 71.2127 94.1437 68.1954 88.386C68.0127 88.0321 67.8183 87.6722 67.5 87.4363C67.0463 87.1 67.0639 78.0447 66.4981 78.0565C60.9762 78.1686 55.4779 79.1243 50.2447 80.894C48.7537 81.3955 47.2745 81.9677 45.7246 82.2332C42.3949 82.7995 39.0181 81.9146 35.7062 81.2657C32.4649 80.6286 29.1824 80.2039 25.8881 80.0033C25.4579 79.9797 24.3382 89.0114 24.02 89.3063C23.7783 89.5246 23.6899 89.855 23.6133 90.1735C22.5997 94.2912 21.7747 98.6153 21.6155 102.863C21.4859 106.42 20.3603 109.01 18.6984 112.213C16.954 115.57 14.9267 118.785 12.646 121.805C11.8799 122.826 5.55068 128.902 5.70979 129.645C7.50133 138.022 9.72892 146.305 12.375 154.451C13.1529 156.846 14.2373 159.519 16.6063 160.374C17.2074 160.593 17.8675 160.675 18.4273 160.988C19.6826 161.684 20.1009 163.359 19.7886 164.757C19.3054 166.916 16.9952 168.669 14.8678 168.067C12.7403 167.459 11.8799 164.138 13.7009 162.881C12.2748 160.734 8.55618 157.318 8.17901 157.554C7.8431 157.696 4.83169 168.179 6.05747 173.459C6.30499 174.526 6.67622 175.588 6.67622 176.686C6.67622 179.452 3.81805 181.912 1.11896 181.311C-1.58012 180.709 -3.09469 177.034 -1.46816 174.798C-0.542929 173.524 1.0718 172.869 1.94989 171.565C2.60993 170.586 2.77494 169.359 2.91048 168.179C3.34658 164.403 3.96537 157.631 3.21104 157.596C1.84971 157.619 -1.11458 161.979 -3.64866 164.557C-4.23208 165.147 -4.82141 165.748 -5.20447 166.486C-5.63467 167.318 -5.7761 168.267 -6.15327 169.123C-6.86635 170.751 -8.48696 173.919 -10.2608 173.824C-12.0347 173.73 -15.0108 173.512 -15.0049 169.176C-15.0049 167.825 -11.3452 166.273 -10.4671 165.253C-7.07851 161.3 -5.02178 157.012 -1.62729 153.059C-0.984931 152.31 -0.324899 151.52 -0.12453 150.558C0.052266 149.714 -0.148093 148.841 -0.372035 148.009C-1.93373 142.057 -4.39709 136.347 -7.65603 131.126C-8.30428 130.088 -8.99379 129.043 -9.28256 127.858C-9.86009 125.486 -8.75805 123.062 -7.68549 120.867C-4.7271 114.826 -1.7687 108.791 1.19558 102.751C3.23463 98.5917 5.29136 94.3796 6.28732 89.8549C8.58567 79.4074 5.07922 67.9984 9.02177 58.0523C10.8958 53.3329 11.656 50.1473 11.5617 45.0976C11.4792 40.7616 11.8564 36.1839 14.3964 32.5086C16.7831 29.0576 20.9378 26.9103 25.1338 26.9575C32.8539 27.0518 40.132 33.9775 47.4454 31.494C49.732 30.7153 51.6119 29.0989 53.6922 27.8718C59.332 24.5506 67.2289 24.5388 71.914 29.1107C75.4441 32.5499 76.7641 38.0185 77.0234 42.8028C77.3181 48.118 79.9995 51.982 81.5258 57.0848C83.0757 62.2879 83.3469 67.7801 84.5078 73.0835C86.7296 83.2537 94.4261 92.1262 99.5473 101.187C101.787 105.152 103.572 106.898 104.721 110.709C107.085 118.578 103.973 129.987 100.084 137.226C96.306 144.258 88.2618 148.293 84.773 155.478C82.2271 160.716 82.4983 166.84 83.1229 172.633C83.2997 174.249 83.5119 175.901 84.278 177.335C84.8378 178.379 85.6805 179.269 86.0872 180.378C86.9181 182.632 85.4566 185.44 83.1406 186.054C80.8245 186.667 78.1667 184.944 77.7719 182.579C77.4477 180.603 78.4968 178.697 79.0625 176.774C80.3826 172.267 79.0272 167.453 77.6776 162.958C77.2474 162.763 72.5623 167.329 71.3365 170.385C70.535 172.391 70.3877 174.633 69.4448 176.579C68.5077 178.526 66.2802 180.178 64.2706 179.393C62.5085 178.703 61.8307 176.426 62.2963 174.591C62.7619 172.757 64.9659 172.71 66.233 171.305C69.4801 167.701 71.8374 162.657 75.0846 159.053C75.0846 158.705 68.8142 158.056 65.9088 159.106C64.9954 159.436 64.1939 160.044 63.2628 160.327C60.6816 161.106 57.7291 158.563 58.118 155.891C58.507 153.218 62.0606 151.62 64.3118 153.101C64.8363 153.449 65.2901 153.92 65.8853 154.121C66.6161 154.375 67.4175 154.174 68.1601 153.974C69.8573 153.513 71.5605 153.059 73.2577 152.599C74.0179 152.393 74.7958 152.18 75.4264 151.714C76.2927 151.083 76.7818 150.062 77.2356 149.089C80.2883 142.541 83.3409 135.993 86.3936 129.445C86.706 128.778 87.0242 128.07 86.9888 127.333C86.9476 126.56 86.5292 125.87 86.1285 125.209H86.1402Z" fill="#37993A"/>
<path d="M72.6032 163.955C71.6897 165.33 70.7999 166.751 69.8511 168.149C69.3678 168.846 68.8846 169.548 68.3601 170.226C68.1067 170.568 67.8238 170.898 67.5527 171.235C67.2463 171.571 67.04 171.866 66.6216 172.261C65.8378 172.957 64.9656 173.305 64.3173 173.677C63.9932 173.86 63.7221 174.043 63.5512 174.237C63.3744 174.438 63.286 174.615 63.2153 174.904C62.9089 176.178 63.3568 177.771 64.3232 178.337C64.8006 178.638 65.3899 178.703 65.9792 178.544C66.5744 178.373 67.1697 177.989 67.6588 177.488C67.9122 177.24 68.1244 176.957 68.3189 176.662C68.5133 176.373 68.6547 176.06 68.808 175.7C69.0967 175.004 69.2971 174.237 69.4916 173.441C69.6861 172.645 69.8687 171.807 70.1339 170.963C70.2695 170.533 70.4109 170.126 70.6112 169.677C70.8057 169.253 71.0238 168.857 71.2596 168.474C72.1966 166.958 73.2986 165.648 74.4713 164.392C74.6894 164.156 74.9192 163.931 75.1491 163.701L75.6087 163.265C75.8032 163.082 76.0036 162.911 76.204 162.74C76.6047 162.409 77.0231 162.126 77.3884 162.05C77.5711 162.032 77.7244 162.026 77.9188 162.038C77.9483 162.038 77.9719 162.061 78.0013 162.038L78.0426 162.091L78.131 162.191L78.3019 162.398C78.4139 162.539 78.5317 162.663 78.6437 162.811L78.8676 163.578L79.2448 164.893C79.4157 165.507 79.5749 166.132 79.7281 166.763C80.3351 169.276 80.8006 171.931 80.6062 174.727C80.5708 175.423 80.3999 176.261 80.1347 177.187C79.8518 178.101 79.4452 179.01 79.127 179.93C78.8087 180.845 78.6201 181.783 78.8028 182.62C78.9737 183.44 79.5866 184.237 80.3822 184.703C81.4666 185.363 82.8102 185.393 83.7826 184.714C84.7786 184.042 85.4386 182.75 85.3679 181.552C85.3679 181.252 85.2853 180.968 85.2028 180.691C85.0968 180.408 84.9494 180.119 84.7608 179.818C84.3955 179.216 83.9005 178.591 83.4703 177.812C82.6157 176.225 82.3859 174.521 82.2091 172.963C81.8673 169.842 81.6198 166.669 81.8378 163.46C82.0559 160.268 82.7807 157 84.4014 154.127C85.9395 151.325 88.1023 149.018 90.2651 146.883C92.4338 144.741 94.6614 142.73 96.5414 140.482C97.4607 139.355 98.3329 138.193 99.0047 136.937C99.6942 135.657 100.337 134.317 100.885 132.949C102.022 130.217 102.894 127.374 103.519 124.489C104.144 121.634 104.474 118.69 104.379 115.794C104.273 112.897 103.613 110.083 102.205 107.6C101.503 106.349 100.655 105.11 99.8416 103.818C99.435 103.17 99.0401 102.515 98.6571 101.854C98.2858 101.217 97.9086 100.58 97.5373 99.9486C96.011 97.4355 94.3786 95.005 92.7639 92.604C89.9705 88.4451 87.3892 84.3333 85.5093 79.8676C84.5664 77.6436 83.818 75.3252 83.3229 72.9419C82.8397 70.5881 82.5156 68.2284 82.1443 65.8628C81.7553 63.3616 81.3487 60.8662 80.6946 58.4652C80.0699 56.0642 79.0739 53.7753 78.078 51.3744C77.082 48.9852 76.1627 46.3954 75.921 43.6818C75.8739 43.0447 75.8267 42.4075 75.7796 41.7704C75.7266 41.1628 75.6617 40.5552 75.5734 39.9594C75.4024 38.7618 75.1608 37.582 74.8308 36.4434C73.8938 33.1458 72.1259 30.031 69.2735 28.3202C66.4448 26.574 62.8676 26.1021 59.5321 26.7392C57.4459 27.1522 55.5188 27.925 53.7626 29.0812C52.8668 29.6593 51.9652 30.3318 50.9574 30.9867C49.9497 31.6297 48.8241 32.2904 47.4922 32.6679C45.0524 33.4171 42.2649 33.2166 39.9077 32.5382C37.5209 31.8951 35.3699 31.022 33.484 30.4557C33.1599 30.3495 31.3154 29.5827 30.3843 29.2287C28.1802 28.4146 25.6225 27.7893 23.2534 28.1963C20.8608 28.5444 18.7452 29.736 17.3779 30.9926C14.6847 33.4525 13.512 36.6322 13.0818 40.1186C12.9285 41.3221 12.8755 42.5491 12.8696 43.7939C12.8696 45.0091 12.9168 46.36 12.852 47.6873C12.7459 50.3538 12.2096 53.0615 11.3551 55.5628C11.1488 56.194 10.9249 56.8075 10.6951 57.4211C10.4652 58.0346 10.2118 58.6481 10.035 59.2026C9.84055 59.7749 9.61658 60.3353 9.48692 60.9311C9.33959 61.521 9.15692 62.0992 9.06263 62.7068C8.5735 65.1019 8.39672 67.5795 8.34368 70.0867C8.27296 73.8504 8.45567 77.6731 8.36137 81.5548C8.26119 85.4187 7.83095 89.4243 6.55802 93.188C5.28509 97.111 3.39928 100.863 1.63721 104.497C-0.136648 108.143 -1.88695 111.712 -3.5783 114.986C-4.42103 116.637 -5.25197 118.266 -6.07702 119.888C-6.89028 121.528 -7.75657 123.091 -8.19856 124.666C-8.4225 125.451 -8.52857 126.235 -8.45196 126.979C-8.38713 127.722 -8.12784 128.418 -7.72121 129.15C-7.32636 129.869 -6.81367 130.636 -6.34222 131.427C-5.87076 132.211 -5.41109 133.008 -4.97499 133.816C-3.97314 135.657 -3.02435 137.715 -2.18751 139.727C-1.34479 141.733 -0.625803 143.685 0.0342364 145.284C0.163887 145.579 0.59411 147.095 0.753226 147.803C0.912343 148.546 1.10679 149.408 0.983034 150.381C0.853383 151.39 0.340679 152.227 -0.15435 152.859C-0.407758 153.183 -0.667035 153.472 -0.902763 153.749C-1.1326 154.021 -1.36835 154.286 -1.59229 154.564C-2.04018 155.118 -2.47626 155.678 -2.90057 156.262C-4.59192 158.581 -6.07112 161.106 -7.80962 163.536C-8.24572 164.144 -8.69359 164.746 -9.16505 165.335C-9.42435 165.636 -9.56578 165.884 -10.0019 166.291C-10.3555 166.61 -10.6737 166.816 -10.9978 167.04C-11.6284 167.471 -12.2413 167.854 -12.7953 168.256C-13.0605 168.456 -13.3316 168.657 -13.5319 168.857C-13.6498 168.958 -13.7146 169.046 -13.7912 169.135C-13.8443 169.217 -13.8384 169.199 -13.8502 169.241C-13.8502 169.288 -13.856 169.241 -13.8502 169.406C-13.8384 169.565 -13.8384 169.725 -13.8207 169.878L-13.75 170.326C-13.7264 170.474 -13.6734 170.603 -13.6439 170.745C-13.473 171.276 -13.2255 171.701 -12.8424 171.972C-12.4711 172.261 -11.9584 172.45 -11.3337 172.544C-11.0273 172.597 -10.6973 172.627 -10.3378 172.645H-10.2023C-10.2023 172.645 -10.1787 172.645 -10.161 172.645C-10.1374 172.639 -10.1256 172.662 -10.0903 172.645C-10.0608 172.633 -10.0314 172.633 -9.99601 172.621C-9.95476 172.597 -9.91939 172.58 -9.87224 172.562C-9.50097 172.367 -9.0236 171.878 -8.64055 171.323C-8.2457 170.769 -7.88624 170.137 -7.56212 169.483C-7.403 169.17 -7.23209 168.798 -7.11423 168.515C-6.99636 168.22 -6.89028 167.878 -6.77831 167.5C-6.66044 167.123 -6.53669 166.71 -6.34222 166.273C-6.14774 165.831 -5.88255 165.412 -5.60557 165.058C-5.04571 164.339 -4.44461 163.796 -3.95548 163.271C-3.44866 162.722 -2.94774 162.144 -2.44682 161.56L-0.932258 159.773L-0.148452 158.87L0.26408 158.422L0.505686 158.174C0.629443 158.044 0.759102 157.914 0.88286 157.796C1.13627 157.56 1.40147 157.354 1.66077 157.136C1.79042 157.035 1.92595 156.976 2.0556 156.894C2.18525 156.829 2.32082 156.711 2.44457 156.693C2.9396 156.528 3.45229 156.398 3.90018 156.717C4.25966 156.976 4.48363 157.413 4.58971 158.062C4.64864 158.374 4.66633 158.722 4.67812 159.076C4.68401 159.253 4.68985 159.43 4.68985 159.607V160.079C4.65449 161.696 4.53663 163.265 4.40109 164.84L4.17124 167.194C4.08284 167.978 4.01801 168.739 3.87068 169.595C3.72335 170.432 3.46407 171.37 2.89832 172.22C2.32079 173.063 1.59006 173.618 0.977171 174.102C0.317132 174.609 -0.272209 175.069 -0.590442 175.559C-0.896889 176.025 -1.05599 176.621 -0.979378 177.252C-0.914552 177.871 -0.67884 178.508 -0.295782 178.992C0.0813835 179.482 0.570537 179.818 1.04789 179.954C1.36612 180.054 2.12632 180.196 2.93958 179.877C3.34621 179.73 3.74698 179.494 4.077 179.216C4.41291 178.939 4.66039 178.626 4.84897 178.379C5.09649 178.031 5.26739 177.647 5.36168 177.252C5.42061 177.051 5.42651 176.863 5.44419 176.65C5.44419 176.432 5.43243 176.202 5.39707 175.954C5.33225 175.464 5.20256 174.934 5.06112 174.355C4.91379 173.789 4.78417 173.093 4.71934 172.468C4.47772 169.919 4.76056 167.489 5.13184 165.082C5.32631 163.878 5.55618 162.687 5.82727 161.501C5.96281 160.905 6.11014 160.315 6.26336 159.725L6.38119 159.283L6.53442 158.758C6.69354 158.233 6.85857 157.702 7.07072 157.248L7.27107 156.976C7.34179 156.894 7.41257 156.835 7.47739 156.77C7.54811 156.705 7.60702 156.64 7.67774 156.581C7.7131 156.552 7.74254 156.516 7.79558 156.498H7.81327L7.81917 156.487C7.82507 156.504 7.8133 156.445 7.84277 156.522L7.88399 156.51L7.9606 156.493L8.23757 156.434C8.33186 156.434 8.42615 156.445 8.53223 156.469C8.7326 156.51 8.94479 156.605 9.16284 156.723C9.59894 156.976 10.0291 157.33 10.4416 157.684L10.8247 158.026L11.1665 158.339C12.0681 159.183 12.9109 160.056 13.7065 161.011L14.0188 161.395C14.1603 161.584 14.3135 161.772 14.4431 161.967L14.8439 162.545C14.9677 162.734 15.1327 162.946 15.2093 163.117L14.4785 163.737L14.2899 163.896C14.2251 163.955 14.1779 163.979 14.0719 164.12C14.0542 164.156 14.0365 164.191 14.0129 164.226C13.9658 164.291 13.954 164.386 13.9127 164.462C13.9009 164.557 13.8656 164.639 13.8597 164.74C13.8185 165.135 13.901 165.595 14.0896 165.99C14.508 166.81 15.168 167.188 16.0638 167.052C16.9301 166.94 17.814 166.285 18.309 165.453C18.5624 165.035 18.7098 164.592 18.751 164.126C18.7923 163.66 18.7157 163.176 18.5507 162.781C18.3798 162.38 18.1323 162.115 17.8199 161.955C17.484 161.772 16.8476 161.69 16.0756 161.383C15.3271 161.082 14.6553 160.61 14.1131 160.067C13.5709 159.519 13.1466 158.905 12.793 158.286C12.0917 157.035 11.6674 155.737 11.2844 154.493C10.9072 153.254 10.536 152.015 10.1883 150.764C8.92711 146.328 7.30647 140.258 5.76245 134.937C5.59744 134.371 5.41473 133.657 5.22025 132.837C5.12596 132.43 5.02577 131.993 4.92559 131.545C4.81362 131.032 4.70167 130.495 4.58381 129.946L4.56021 129.569C4.60736 129.51 4.57203 129.445 4.58971 129.38L4.63093 129.191C4.71343 128.949 4.84307 128.719 4.98451 128.501L5.17313 128.241L5.32046 128.047L5.61512 127.687C6.00996 127.215 6.41655 126.772 6.82318 126.336C7.63645 125.48 8.43792 124.637 9.17457 123.864C9.72853 123.274 10.2766 122.69 10.8247 122.106C11.0899 121.817 11.361 121.516 11.579 121.251C11.638 121.18 11.6674 121.139 11.7087 121.08L11.8796 120.838L12.2155 120.36C13.1112 119.08 13.954 117.77 14.7908 116.443C16.2052 114.183 17.6314 111.859 18.8218 109.44C19.1695 108.727 19.529 107.83 19.7411 107.098C20.0063 106.214 20.1949 105.323 20.3009 104.414C20.3599 103.96 20.3894 103.506 20.4071 103.046C20.4247 102.586 20.4365 102.043 20.4719 101.553C20.5897 99.5356 20.8431 97.5357 21.1908 95.5654C21.5444 93.5833 21.9629 91.6778 22.4638 89.6957C22.5522 89.4007 22.676 88.9524 23.0944 88.5041L23.1768 88.4274L23.2004 88.4097C24.8152 90.1853 23.6248 88.8757 23.9725 89.265C23.943 89.2414 23.9135 89.2355 23.8546 89.1943C23.7544 89.1353 23.6483 89.0999 23.4833 89.0232C23.3301 88.9583 23.1945 88.917 22.9824 88.8403C22.9176 88.8167 22.894 88.8108 22.9117 88.8167V88.799L22.9353 88.7459L23.006 88.4451C23.1003 88.0026 23.1886 87.5248 23.2711 87.0469L23.7662 84.1504C23.9312 83.1771 24.1021 82.2037 24.3084 81.2067C24.3437 81.0474 24.4557 80.487 24.5853 80.0682C24.7209 79.6316 24.9153 79.2777 25.2454 79.0594L25.8347 78.9532C26.035 78.9296 26.2119 78.8588 26.4535 78.9001L27.473 78.9827C29.459 79.1597 31.445 79.4134 33.4133 79.7437C37.3795 80.3513 41.1924 81.661 44.8167 81.2716C46.4256 81.1182 48.0108 80.5106 49.7317 79.9089C51.4584 79.3131 53.2263 78.8057 55.0119 78.3751C56.7976 77.9563 58.6127 77.62 60.4396 77.384C61.3531 77.2602 62.2724 77.1658 63.1917 77.0891L64.5707 76.9947L65.2602 76.9593L66.4271 76.9239L66.9104 77.0596C67.0695 77.1185 67.2463 77.1127 67.3642 77.2601C67.6058 77.4902 67.7531 77.8088 67.8415 78.1863C67.8886 78.3751 67.9181 78.5698 67.9476 78.7644L68.0124 79.2954L68.0713 79.962C68.142 80.841 68.1892 81.6963 68.2304 82.5576L68.3719 85.1179C68.419 85.8907 68.5192 87.0706 68.5663 86.8582C68.9376 87.2534 69.132 87.6782 69.2853 87.9554L69.7509 88.8344L70.7115 90.5924L72.6916 94.1083C74.0175 96.4621 75.3377 98.8513 76.4868 101.347C76.9642 102.367 77.3944 103.417 77.7951 104.479C78.1605 105.529 78.5199 106.573 78.8794 107.606C79.5984 109.647 80.3646 111.629 81.1425 113.517C82.6983 117.292 84.2953 120.673 85.5506 123.392C86.7056 125.828 86.4581 126.011 84.425 122.843C82.9517 120.507 81.4017 117.729 80.0699 114.856C79.0091 112.555 78.0308 110.219 77.1528 107.859C76.9347 107.269 76.7225 106.68 76.5103 106.096C76.2982 105.523 76.086 104.951 75.8503 104.391C75.3848 103.264 74.878 102.161 74.3299 101.081C73.2279 98.869 71.9785 96.7276 70.7115 94.5743C70.0809 93.4948 69.4503 92.4152 68.8139 91.3298L67.8828 89.6839C67.5763 89.153 67.258 88.4687 67.04 88.2622C66.9045 88.1442 66.7748 88.0262 66.6864 87.8787C66.6039 87.7254 66.5508 87.5602 66.5096 87.3832C66.4271 86.982 66.4153 86.8228 66.3859 86.5809C66.3328 86.1326 66.2974 85.7019 66.268 85.2713C66.2149 84.4159 66.156 83.5605 66.103 82.6992C66.05 81.8438 66.0028 80.9943 65.9321 80.1566L65.8732 79.5372L65.8437 79.2895C65.8319 79.2305 65.826 79.1656 65.7965 79.1125C65.7553 79.0712 65.6786 79.1066 65.6197 79.0948L64.6473 79.1361L63.2801 79.2246C62.3667 79.2895 61.4532 79.3838 60.5339 79.49C58.9309 79.6788 57.2102 80.021 55.5718 80.3985C53.9335 80.7761 52.3777 81.2008 51.0635 81.4899C50.6981 81.5607 49.4311 81.9854 48.8182 82.2155C47.9813 82.5223 47.1151 82.8113 46.1957 83.0119C45.2764 83.2066 44.3335 83.3068 43.4024 83.3127C41.5342 83.3363 39.7073 83.0414 37.9393 82.7051C36.1714 82.363 34.4564 82.009 32.7003 81.7494C30.95 81.4781 29.1879 81.2716 27.42 81.1182L26.6479 81.0592C26.6185 81.0592 26.5773 81.0415 26.5537 81.0651C26.536 81.0946 26.5242 81.1241 26.5183 81.1536C26.5006 81.2185 26.483 81.2775 26.4712 81.3424L26.3592 81.8969L26.2354 82.5517L26.0056 83.8732L25.5577 86.5396C25.3986 87.4422 25.2748 88.2976 25.0391 89.2768C25.0214 89.3476 25.0038 89.4125 24.9743 89.501C24.9625 89.5423 24.9389 89.6013 24.9095 89.6662C24.88 89.7311 24.8741 89.7488 24.8034 89.8491C24.7798 89.8786 24.7562 89.914 24.7326 89.9435C24.6855 89.9435 24.7327 90.0673 24.5971 89.967H24.603C24.6855 90.0496 24.6443 90.0143 24.6384 90.0496C24.603 90.1086 24.5558 90.2679 24.5028 90.4862L24.1905 91.7899C23.9843 92.6571 23.7956 93.5302 23.6188 94.3974C23.2711 96.1376 22.9765 97.8838 22.7879 99.6359C22.7113 100.361 22.6465 101.087 22.6052 101.807C22.5816 102.167 22.5699 102.527 22.5522 102.892C22.5345 103.276 22.5168 103.665 22.4815 104.054C22.3459 105.606 21.9865 107.14 21.462 108.585C20.9375 110.03 20.2833 111.387 19.6233 112.709C18.9515 114.036 18.2384 115.34 17.484 116.62C16.7297 117.9 15.9282 119.156 15.0855 120.389C14.6671 121.003 14.231 121.61 13.789 122.212C13.6711 122.366 13.5886 122.495 13.4177 122.702C13.2763 122.873 13.1466 123.009 13.0169 123.156L12.245 123.976C11.2255 125.038 10.2059 126.1 9.18637 127.168C8.68544 127.698 8.18451 128.235 7.70717 128.772C7.47144 129.038 7.2416 129.315 7.04713 129.569L6.92339 129.74C6.92339 129.74 6.8998 129.799 6.9057 129.828L6.95879 130.099L7.05303 130.554C8.78563 137.049 10.754 144.706 12.6988 151.225C13.0465 152.393 13.4059 153.602 13.7772 154.729C14.1485 155.844 14.5846 156.911 15.1798 157.767C15.4744 158.192 15.8103 158.563 16.1875 158.84C16.3761 158.982 16.5706 159.1 16.7768 159.194C16.9831 159.289 17.1835 159.365 17.4663 159.442C17.7433 159.525 18.0792 159.607 18.4564 159.749C18.8276 159.891 19.252 160.121 19.5879 160.416C20.2715 161.011 20.6841 161.802 20.8785 162.575C21.0671 163.353 21.0907 164.144 20.9257 164.923C20.7665 165.701 20.4247 166.421 19.971 167.034C19.5172 167.648 18.9515 168.179 18.2914 168.58C17.6314 168.981 16.8652 169.258 16.0402 169.306C15.6335 169.329 15.2092 169.306 14.8085 169.205C14.4019 169.123 13.9658 168.934 13.6063 168.704C12.8637 168.232 12.3628 167.542 12.0328 166.81C11.7146 166.073 11.5614 165.259 11.6675 164.415C11.7382 163.99 11.8501 163.56 12.0741 163.159L12.1566 163.011L12.1978 162.935C12.1978 162.935 12.239 162.864 12.2096 162.923C12.186 162.964 12.2214 162.917 12.2214 162.917C12.2391 162.893 12.2626 162.876 12.2862 162.858C12.3216 162.828 12.2568 162.787 12.2391 162.758L12.133 162.622C11.8678 162.297 11.5908 161.979 11.3021 161.66C10.7245 161.029 10.1116 160.416 9.48103 159.843L9.03904 159.448L8.9389 159.365C8.90354 159.342 8.86815 159.312 8.83279 159.289C8.80332 159.277 8.74443 159.224 8.72675 159.277C8.69139 159.354 8.66781 159.436 8.64424 159.519L8.3672 160.522C7.9311 162.209 7.57166 163.926 7.30647 165.642C7.04717 167.359 6.86443 169.093 6.8939 170.775C6.91158 171.612 6.98234 172.438 7.15324 173.193C7.33003 173.99 7.6365 174.88 7.76615 175.913C7.79562 176.172 7.81917 176.438 7.81917 176.709C7.7956 176.992 7.80738 177.281 7.74256 177.559C7.66005 178.119 7.46559 178.644 7.23575 179.146C6.74072 180.125 6.00408 180.951 5.10831 181.564C4.20665 182.154 3.12816 182.567 1.97309 182.549C1.40145 182.567 0.829834 182.437 0.269979 182.254C-0.266303 182.036 -0.784905 181.753 -1.20332 181.375C-2.07552 180.65 -2.65896 179.682 -2.98898 178.638C-3.31311 177.594 -3.34847 176.414 -2.95952 175.305C-2.78273 174.839 -2.52929 174.373 -2.22873 173.99C-1.92818 173.612 -1.59816 173.294 -1.27404 173.016C-0.625785 172.462 -0.00112857 172.043 0.470328 171.6C0.953571 171.158 1.21876 170.757 1.42502 170.161C1.62539 169.583 1.7256 168.893 1.814 168.144C1.99079 166.639 2.14399 165.123 2.26775 163.619C2.32668 162.864 2.38562 162.109 2.42098 161.365L2.46813 160.25V159.92V159.814C2.46813 159.743 2.46815 159.672 2.45047 159.601C2.45047 159.501 2.34438 159.537 2.29134 159.572C2.23241 159.607 2.17936 159.655 2.12632 159.708L2.0556 159.778L1.90827 159.932L1.71968 160.132C0.729626 161.218 -0.230954 162.415 -1.25048 163.589C-1.76319 164.179 -2.2818 164.763 -2.84165 165.341C-3.37793 165.884 -3.8494 166.38 -4.13816 166.881C-4.42104 167.353 -4.58605 168.02 -4.83946 168.816C-5.12233 169.677 -5.4818 170.362 -5.85307 171.087C-6.23613 171.801 -6.66633 172.509 -7.2085 173.193C-7.49727 173.53 -7.78606 173.872 -8.18679 174.178C-8.58164 174.479 -9.0413 174.786 -9.68366 174.91C-9.83688 174.939 -10.0078 174.945 -10.1728 174.951C-10.2612 174.951 -10.3378 174.951 -10.3732 174.951H-10.5205C-10.715 174.934 -10.9271 174.916 -11.1334 174.892C-11.5518 174.851 -11.9938 174.774 -12.4358 174.662C-13.3198 174.426 -14.2863 173.931 -14.9227 173.105C-15.5769 172.297 -15.8774 171.341 -16.0012 170.462C-16.0365 170.238 -16.066 170.014 -16.0719 169.801L-16.0837 169.477C-16.0837 169.382 -16.1132 169.188 -16.066 169.023C-16.0365 168.68 -15.9187 168.344 -15.736 168.049C-15.5356 167.742 -15.3883 167.583 -15.2056 167.394C-14.5161 166.734 -13.8443 166.303 -13.1842 165.872C-12.5478 165.459 -11.8583 165.041 -11.4222 164.675C-11.3043 164.592 -11.0155 164.215 -10.7857 163.949L-10.0903 163.076C-9.6424 162.48 -9.19453 161.884 -8.77022 161.265C-7.90981 160.032 -7.07886 158.758 -6.22435 157.472C-5.36983 156.192 -4.48586 154.906 -3.51349 153.667C-3.04792 153.059 -2.48807 152.416 -2.04018 151.879C-1.5923 151.337 -1.26815 150.818 -1.17386 150.351C-1.02653 149.714 -1.25637 148.841 -1.53924 147.88C-1.80443 146.936 -2.10498 146.01 -2.41732 145.066C-3.06557 143.184 -3.79044 141.237 -4.70389 139.025C-5.5584 136.943 -6.73116 134.636 -8.13374 132.353C-8.79378 131.226 -9.70134 130.07 -10.2082 128.489C-10.4498 127.698 -10.5382 126.861 -10.4969 126.064C-10.4557 125.268 -10.2906 124.519 -10.0785 123.817C-9.68954 122.531 -9.1238 121.357 -8.58163 120.236C-8.03945 119.121 -7.49727 118 -6.9551 116.885C-5.87075 114.661 -4.79818 112.473 -3.74919 110.42C-2.66484 108.29 -1.58637 106.155 -0.496131 104.019C0.576433 101.872 1.67255 99.7421 2.65672 97.583C3.63499 95.4238 4.50721 93.2293 5.11421 90.9699C5.70943 88.7164 6.05708 86.3921 6.17495 84.0265C6.44014 79.2954 6.05712 74.4875 6.14552 69.6088C6.19267 67.1725 6.38125 64.7007 6.87627 62.2643C6.97057 61.6508 7.15324 61.055 7.30647 60.4474C7.38897 60.1465 7.45375 59.8397 7.55394 59.5448L7.86039 58.6599L8.17275 57.775L8.49691 56.9432C8.70906 56.3887 8.91528 55.8342 9.10975 55.2796C9.88765 53.0733 10.4181 50.8257 10.6007 48.5191C10.695 47.3629 10.7127 46.2007 10.6951 45.0209C10.6774 43.8056 10.6951 42.5786 10.7835 41.3516C10.9603 38.9034 11.4199 36.3903 12.516 34.0837C13.5886 31.7772 15.3271 29.7301 17.4781 28.3556C19.6174 26.9634 22.1279 26.1316 24.6973 26.0726C27.2785 26.0077 29.7242 26.692 32.0166 27.4943C34.315 28.3025 36.5014 29.2818 38.7055 30.0192C40.8978 30.7566 43.1489 31.2875 45.3058 30.9985C45.9718 30.9572 46.5906 30.733 47.227 30.5737C47.8399 30.3554 48.4469 30.0605 49.0421 29.7242C50.2325 29.0399 51.3817 28.1786 52.6547 27.3704C53.9394 26.5622 55.342 25.8661 56.7976 25.3824C58.2591 24.9046 59.7796 24.6037 61.3177 24.4975C64.3822 24.2792 67.6057 24.8397 70.3461 26.4915C71.7074 27.3114 72.9391 28.3851 73.9174 29.6298C74.9133 30.8687 75.6618 32.2609 76.2511 33.6944C77.2529 36.1426 77.8423 38.7736 78.0957 41.4106C78.2135 42.7851 78.2489 43.9118 78.4728 45.1035C78.6791 46.2833 78.9914 47.4455 79.3332 48.6017C79.5218 49.2624 80.1112 50.6252 80.836 52.2238C81.555 53.8225 82.3446 55.7044 82.7866 57.3149C83.9181 61.2851 84.3483 65.3319 84.9789 69.2431C85.1321 70.2224 85.3089 71.1957 85.5034 72.1573C85.5977 72.641 85.7097 73.113 85.8334 73.579C85.9631 74.0451 86.0515 74.517 86.2047 74.9771C86.7469 76.8354 87.4953 78.6405 88.3204 80.4162C90.66 85.3362 93.8011 89.9081 96.8302 94.5921C97.5904 95.766 98.3447 96.94 99.0755 98.1434C99.8121 99.3291 100.513 100.597 101.197 101.742C101.892 102.91 102.664 104.037 103.425 105.246C104.185 106.444 104.904 107.759 105.422 109.145C106.077 110.821 106.43 112.614 106.619 114.366C106.819 116.13 106.796 117.888 106.672 119.628C106.424 123.115 105.688 126.513 104.65 129.834C104.091 131.562 103.448 133.273 102.712 134.949C102.329 135.78 101.945 136.612 101.515 137.426C101.321 137.833 101.067 138.246 100.826 138.659L100.46 139.273L100.06 139.857C97.9145 142.983 95.1624 145.432 92.6283 147.856C91.0136 149.396 89.446 150.93 88.1259 152.611C86.8058 154.292 85.7391 156.103 85.0673 158.097C83.706 162.103 83.7413 166.557 84.1303 170.957C84.3719 173.27 84.4662 175.6 85.5741 177.252C85.857 177.7 86.2165 178.178 86.5642 178.739C86.9119 179.293 87.2478 179.96 87.4011 180.732C87.7016 182.243 87.3067 183.765 86.4994 184.968C85.7038 186.172 84.3601 187.127 82.8161 187.31C81.2957 187.493 79.8282 186.98 78.7144 186.101C78.1545 185.658 77.6714 185.11 77.306 184.473C76.9406 183.847 76.7166 183.092 76.6577 182.39C76.5398 180.963 76.9464 179.706 77.3236 178.626C77.6949 177.612 78.0721 176.709 78.2842 175.789C78.5023 174.863 78.6143 173.901 78.632 172.928C78.6673 170.975 78.3373 168.987 77.8599 167.023C77.7421 166.527 77.6124 166.038 77.4768 165.542L77.2706 164.793L77.2058 164.563C77.2058 164.51 77.135 164.557 77.1115 164.563C77.0761 164.58 77.0467 164.604 77.0172 164.628C76.9524 164.675 76.8934 164.728 76.8345 164.781L76.6106 164.993C75.1903 166.386 73.8407 167.943 72.833 169.595C71.8311 171.152 71.6131 173.164 70.9943 175.264C70.8352 175.789 70.6466 176.32 70.4109 176.839C70.1693 177.37 69.8452 177.895 69.468 178.355C68.7137 179.269 67.7354 180.054 66.4684 180.402C65.8437 180.573 65.1365 180.603 64.4706 180.438C63.8105 180.284 63.18 179.918 62.7026 179.452C61.7361 178.497 61.3236 177.228 61.2764 176.013C61.2587 175.388 61.3118 174.804 61.5181 174.143C61.6241 173.801 61.8186 173.471 62.0367 173.181C62.2665 172.904 62.5258 172.662 62.7792 172.479C63.2978 172.102 63.8046 171.866 64.2407 171.636C64.6827 171.406 65.0658 171.182 65.3604 170.922C65.4371 170.863 65.496 170.786 65.5667 170.721C65.6374 170.645 65.7258 170.539 65.8024 170.45C65.9616 170.261 66.1324 170.084 66.2857 169.884C66.6039 169.5 66.9104 169.105 67.205 168.704C67.8002 167.896 68.3777 167.064 68.9376 166.214C70.0691 164.515 71.1593 162.752 72.391 161.047C72.5442 160.834 72.6975 160.622 72.8625 160.41L73.0982 160.103C73.2043 159.973 73.3104 159.843 73.4282 159.714C73.4871 159.678 73.4165 159.649 73.3811 159.643C73.3398 159.631 73.2986 159.619 73.2574 159.613C73.1749 159.596 73.0923 159.584 73.0039 159.572C72.7918 159.548 72.8212 159.542 72.1789 159.501C71.1829 159.442 70.1811 159.43 69.1969 159.483C68.2187 159.542 67.2286 159.649 66.3918 159.926C65.5962 160.162 64.7711 160.823 63.563 161.206C62.9324 161.389 62.2665 161.418 61.6359 161.324C60.9994 161.23 60.416 160.994 59.8797 160.693C58.819 160.073 57.9527 159.124 57.5166 157.926C57.0451 156.746 57.1689 155.271 57.8466 154.18C58.5066 153.071 59.5615 152.316 60.7166 151.915C61.3 151.726 61.9188 151.626 62.5494 151.632C63.18 151.655 63.8223 151.803 64.4117 152.086C65.0363 152.387 65.4547 152.794 65.7965 153.018C66.1501 153.26 66.3328 153.313 66.6982 153.319C67.0518 153.319 67.4879 153.213 67.9711 153.077L69.4562 152.67C70.5818 152.363 71.6956 152.068 72.7977 151.767C73.3575 151.62 73.8761 151.49 74.3063 151.307C74.7424 151.124 75.0547 150.918 75.3494 150.587C75.9387 149.944 76.3631 148.906 76.8581 147.897C77.3413 146.895 77.8246 145.892 78.3019 144.895C80.229 140.901 82.1443 136.937 84.0714 132.807C84.5193 131.846 85.0496 130.813 85.5859 129.84C86.1281 128.843 86.6879 128.023 86.6997 127.256C86.7174 126.483 86.3933 125.811 86.3167 125.457C86.2224 125.097 86.2872 125.02 86.5642 125.362C86.7646 125.628 87.2242 126.224 87.3834 127.026C87.5071 127.675 87.3598 128.324 87.1594 128.872C86.9532 129.427 86.7233 129.917 86.5112 130.424C86.0751 131.433 85.6448 132.441 85.2146 133.444C84.3483 135.45 83.4821 137.456 82.604 139.503C81.72 141.544 80.8065 143.62 79.8459 145.762C79.3627 146.83 78.8676 147.921 78.3608 149.036C78.1074 149.585 77.8599 150.163 77.5063 150.776C77.1645 151.378 76.699 152.021 76.0212 152.511C75.0017 153.23 73.9468 153.401 73.0746 153.655L70.3402 154.387L68.973 154.752C68.5192 154.87 68.0713 155.012 67.5173 155.112C66.981 155.207 66.321 155.254 65.6492 155.03C64.9774 154.8 64.5295 154.404 64.1759 154.139C63.9991 154.003 63.84 153.885 63.6985 153.814C63.5571 153.72 63.3921 153.667 63.233 153.608C62.903 153.519 62.5494 153.454 62.1781 153.49C61.4532 153.543 60.693 153.832 60.1273 154.31C59.5439 154.776 59.1726 155.425 59.0901 156.091C59.0429 156.428 59.096 156.77 59.1844 157.112C59.2963 157.448 59.4613 157.779 59.6794 158.079C60.1332 158.675 60.7756 159.159 61.4709 159.371C61.8186 159.483 62.1722 159.537 62.514 159.501C62.8499 159.478 63.1681 159.389 63.5512 159.212C63.9225 159.041 64.3233 158.811 64.777 158.581C65.2249 158.351 65.7788 158.133 66.2857 158.003C67.3111 157.749 68.3011 157.655 69.2853 157.602C70.2694 157.554 71.2419 157.566 72.2202 157.625L72.5855 157.649L73.0628 157.684C73.44 157.714 73.8525 157.767 74.2356 157.82C74.6069 157.885 74.9958 157.956 75.2728 158.085C75.5733 158.203 75.7089 158.392 75.8386 158.569C75.8739 158.616 75.9093 158.658 75.9387 158.734C75.9741 158.728 75.8739 158.77 76.0153 158.722V158.734V158.752V158.793L76.0035 158.876L75.9682 159.206L75.9328 159.537C75.9328 159.537 75.9093 159.596 75.8739 159.637L75.7737 159.755L75.5734 159.991L74.7778 160.941L74.2238 161.666C73.6757 162.409 73.1454 163.17 72.6326 163.955H72.6032Z" fill="#349039"/>
<path d="M38.5465 46.8792C38.5878 46.8851 38.6172 46.9086 38.6526 46.8792C38.6585 46.8792 38.6939 46.7258 38.6998 46.7258C38.7233 46.7435 38.7764 46.6019 38.7705 46.7789C38.7646 46.9736 38.7823 47.003 38.8353 46.8851C38.8825 46.773 38.9002 46.8142 38.9296 46.7847C38.9414 46.7729 38.9532 46.7435 38.9296 46.9205C38.9119 47.0443 38.9178 47.062 38.9708 46.8438C38.9826 46.8025 38.9708 46.8437 38.9708 46.8673C38.9708 46.8909 38.9531 46.9853 38.959 46.9558C39.0533 46.6196 39.0239 46.8851 39.0651 46.8084C39.0769 46.7907 39.0651 46.891 39.1182 46.6668C39.13 46.6078 39.1418 46.6019 39.13 46.655C39.1064 46.7966 39.1005 46.8261 39.1064 46.8202C39.1358 46.8202 39.1594 46.8261 39.183 46.8319C39.2655 46.5429 39.2478 46.6786 39.2596 46.6845C39.2714 46.6845 39.2596 46.7907 39.2537 46.8497C39.2537 46.9087 39.3067 46.7258 39.2537 46.9853C39.2478 47.0266 39.2655 46.9499 39.2714 46.944C39.2891 46.9263 39.3244 46.8378 39.3126 46.9322C39.3067 46.9794 39.3008 47.0325 39.3067 47.0325C39.3774 47.0561 39.4541 47.0797 39.5307 47.0915C39.5366 47.0915 39.5307 47.1269 39.5897 46.9618C39.6309 46.832 39.6485 46.832 39.6132 46.9618C39.5601 47.1741 39.5956 47.0915 39.5956 47.1033C39.6014 47.1269 39.6309 47.1033 39.6368 47.1269C39.6368 47.1446 39.6957 47.003 39.6132 47.2921C39.6132 47.3216 39.6073 47.3216 39.6132 47.2921C39.7075 47.0148 39.6486 47.2508 39.6427 47.2921C39.6427 47.3216 39.6486 47.3157 39.7016 47.1859C39.7487 47.0561 39.7664 47.0384 39.7311 47.1859C39.6839 47.3806 39.7075 47.3216 39.7193 47.3216C39.7664 47.3511 39.8136 47.3747 39.8666 47.3747C39.8902 47.3747 40.0021 47.1328 39.9904 47.239C39.9904 47.2626 40.0316 47.1623 39.9668 47.3629C39.955 47.4042 39.9668 47.3806 39.9845 47.3334C40.0493 47.1564 40.0375 47.2272 40.0375 47.239C40.0611 47.2862 40.0552 47.4042 40.1436 47.2508C40.2143 47.1328 40.2202 47.1977 40.2614 47.1682C40.2732 47.1564 40.232 47.2921 40.232 47.3275C40.232 47.357 40.2438 47.3511 40.2556 47.3393C40.2615 47.3393 40.2497 47.3924 40.3086 47.239C40.344 47.1564 40.3616 47.1328 40.338 47.2036C40.2614 47.4396 40.3027 47.3511 40.3145 47.3629C40.3381 47.3865 40.3734 47.3806 40.397 47.4042C40.397 47.4101 40.4559 47.298 40.3675 47.5399C40.3557 47.5753 40.3911 47.4986 40.4029 47.475C40.4147 47.4514 40.4441 47.3865 40.4323 47.416C40.3263 47.7345 40.4147 47.5635 40.4323 47.5812C40.4618 47.6284 40.5266 47.6048 40.5561 47.6638C40.562 47.6815 40.6622 47.4809 40.6681 47.4986C40.674 47.5163 40.6975 47.4986 40.7034 47.5221C40.7034 47.5398 40.7624 47.4337 40.6622 47.6814C40.6327 47.7463 40.6445 47.7463 40.674 47.6814C40.786 47.4514 40.7447 47.5753 40.7683 47.5458C40.7978 47.5045 40.7447 47.6637 40.8684 47.416C40.9038 47.3511 40.8507 47.4868 40.8507 47.4986C40.8507 47.5222 40.8508 47.534 40.8684 47.5281C40.8743 47.5281 40.9215 47.4396 40.9274 47.4337C40.9863 47.3865 41.0511 47.3334 41.0983 47.3216C41.1454 47.3098 41.169 47.3452 41.1985 47.3629C41.228 47.3806 41.2751 47.3747 41.2869 47.4219C41.2928 47.4396 41.3988 47.2626 41.2515 47.5871C41.3576 47.4042 41.3105 47.5222 41.2103 47.7405C41.1985 47.7699 41.2456 47.6815 41.2633 47.6579C41.3104 47.5812 41.4872 47.2626 41.3163 47.6166C41.2986 47.6696 41.4872 47.3216 41.387 47.5399C41.3222 47.6755 41.3635 47.6224 41.3635 47.6401C41.3635 47.6578 41.3635 47.6755 41.387 47.646C41.4106 47.6224 41.334 47.7876 41.4813 47.5281C41.5049 47.4868 41.4165 47.6697 41.4224 47.6638C41.4755 47.6107 41.3635 47.8584 41.5521 47.5576C41.5933 47.4868 41.5992 47.4986 41.5698 47.5634C41.4637 47.7935 41.5403 47.6873 41.6051 47.6107C41.6876 47.5163 41.7348 47.4868 41.5757 47.8171C41.5403 47.8879 41.5108 47.941 41.5816 47.8289C41.6287 47.7581 41.6228 47.7758 41.6287 47.7758C41.6758 47.7994 41.723 47.823 41.7642 47.8525C41.776 47.8584 41.6464 48.1121 41.7112 48.0236C41.7407 47.9882 41.67 48.118 41.7996 47.9115C41.8173 47.882 41.829 47.8702 41.8231 47.882C41.6935 48.1298 41.9116 47.7994 41.8703 47.9056C41.8585 47.9292 41.8349 47.9764 41.8231 48C41.8113 48.0295 41.776 48.0885 41.8055 48.0531C42.0059 47.7758 41.8938 48.0118 41.9646 47.9528C41.9881 47.9351 41.9175 48.0708 42.0766 47.8289C42.1001 47.7935 42.1001 47.7994 42.0825 47.8289C41.9116 48.1357 42.0706 47.9174 42.0353 48C42.0176 48.0413 42.1296 47.8879 41.9823 48.1357C41.9646 48.1652 41.9823 48.1416 41.9941 48.1298C42.0176 48.1003 42.0707 48.0236 42.0707 48.0295C42.0707 48.0472 41.994 48.1888 42.053 48.1121C42.1237 48.0177 42.106 48.0649 42.1178 48.0649C42.1237 48.0649 42.0589 48.177 42.0471 48.2065C42.0353 48.236 42.053 48.2183 42.0589 48.2183C42.0648 48.2183 42.1001 48.1829 42.0707 48.2419C42.0412 48.3009 42.2121 48.0531 42.106 48.2301C42.0235 48.3657 42.1826 48.1357 42.2062 48.118C42.218 48.1062 42.2062 48.1357 42.1885 48.1652C42.1767 48.1888 42.1296 48.2655 42.1355 48.2655C42.1473 48.2537 42.1237 48.3009 42.2003 48.2006C42.2533 48.1298 42.1709 48.2655 42.165 48.2891C42.1591 48.3068 42.1708 48.3009 42.1767 48.3009C42.1767 48.3009 42.1532 48.3539 42.2003 48.3009C42.3948 48.0649 42.3123 48.236 42.3535 48.2183C42.3653 48.2183 42.4302 48.1357 42.2887 48.3481C42.2651 48.3834 42.2651 48.3893 42.2828 48.3716C42.5068 48.0944 42.3653 48.3422 42.4478 48.2714C42.5068 48.2242 42.6011 48.1239 42.5952 48.1593C42.5952 48.1947 42.5657 48.2596 42.6541 48.1711C42.7248 48.1003 42.7955 48.0295 42.766 48.0944C42.7366 48.1534 43.0548 47.7522 42.8073 48.1062C42.8191 48.1121 42.8368 48.1062 42.8368 48.1357C42.8368 48.1534 42.9134 48.0767 42.7719 48.2832C42.7189 48.3599 42.7307 48.3599 42.7837 48.295C42.9546 48.0944 42.9252 48.1652 42.8544 48.2773C42.8368 48.3068 42.9193 48.2065 42.9252 48.2065C42.9428 48.2065 42.9664 48.1947 42.9547 48.2301C42.9193 48.3421 43.1314 48.1298 43.1609 48.1534C43.1609 48.1534 43.3024 48.0059 43.2729 48.0472C43.102 48.3245 43.3436 48.0885 43.2493 48.2596C43.1138 48.5132 43.2846 48.3894 43.2846 48.4779C43.2846 48.4897 43.1491 48.6548 43.1963 48.6135C43.3318 48.4719 43.2316 48.6076 43.3318 48.5014C43.5145 48.3127 43.4143 48.4601 43.4674 48.4188C43.5086 48.3893 43.4025 48.5309 43.6029 48.3127C43.6324 48.2832 43.6324 48.2891 43.6088 48.3127C43.4379 48.5309 43.7207 48.236 43.65 48.3421C43.8975 48.1121 43.7679 48.3068 43.8445 48.2773C43.8563 48.2773 43.9094 48.2242 43.9388 48.1947C43.9565 48.1829 43.986 48.1475 43.9742 48.1711C43.7561 48.4542 43.9683 48.2714 43.927 48.3599C43.9153 48.3894 43.8563 48.466 43.8386 48.5014C43.821 48.5368 43.8917 48.4778 43.7443 48.643C43.6972 48.6961 43.7266 48.6725 43.7443 48.6548C43.8622 48.5663 43.5499 48.9144 43.0372 49.4571C42.8486 49.6518 42.8367 49.6636 42.766 49.7344C42.6246 49.87 42.5363 49.9585 42.5422 49.9349C42.5422 49.9172 42.601 49.8523 42.4183 50.0352C42.3889 50.0647 42.3889 50.0588 42.4183 50.0352C42.5657 49.8582 42.4302 49.9821 42.5304 49.8583C42.607 49.7639 42.5775 49.7816 42.607 49.7403C42.6305 49.7049 42.5304 49.7993 42.6836 49.6223C42.7366 49.5633 42.5893 49.7108 42.5834 49.7108C42.5598 49.7226 42.5421 49.7226 42.5539 49.6872C42.5951 49.581 42.3123 49.8465 42.3535 49.7462C42.1119 49.9821 42.2946 49.7344 42.165 49.8406C42.0118 49.9704 42.0589 49.8701 41.9823 49.9173C41.9646 49.9291 41.9646 49.9172 42.0177 49.8464C42.053 49.7992 42.0884 49.7521 42.0825 49.7462C42.0825 49.7285 42.053 49.7403 42.0589 49.7049C42.0589 49.6872 41.9469 49.8111 42.1414 49.5633C42.1709 49.5279 42.165 49.5279 42.1414 49.5633C41.9351 49.7993 42.0412 49.64 42.0059 49.6636C41.9941 49.6695 41.9941 49.6636 42.0648 49.5692C42.1355 49.4689 42.1237 49.4748 42.0471 49.5574C41.9881 49.6223 41.9822 49.6223 41.9646 49.64C41.8821 49.7108 42.0647 49.4453 41.8172 49.7344C42.0176 49.463 41.941 49.5456 41.882 49.5987C41.664 49.817 41.776 49.6164 41.7112 49.64C41.6935 49.6459 41.776 49.5279 41.7819 49.4984C41.7937 49.4689 41.7819 49.4748 41.7583 49.4807C41.7465 49.4807 41.8113 49.3922 41.664 49.5869C41.6522 49.5987 41.6464 49.6105 41.6464 49.6046C41.6641 49.5692 41.7171 49.4925 41.6994 49.5043C41.6876 49.5161 41.5874 49.6459 41.558 49.6754C41.5226 49.7167 41.5167 49.7167 41.5049 49.7167C41.4991 49.7167 41.4578 49.758 41.5816 49.581C41.4224 49.7993 41.4931 49.6813 41.4755 49.699C41.4578 49.7108 41.4636 49.699 41.4578 49.6931L41.446 49.6813C41.446 49.6813 41.446 49.6577 41.4283 49.6754C41.3989 49.7049 41.334 49.7698 41.3163 49.7934C41.2928 49.8111 41.2868 49.8052 41.2927 49.7816C41.3045 49.7462 41.3458 49.6695 41.3635 49.6282C41.3694 49.6105 41.3281 49.6636 41.2692 49.7403C41.1926 49.8405 41.0275 50.0647 41.2279 49.758C41.2692 49.699 41.2515 49.7108 41.2279 49.7521C40.9981 50.0529 41.1572 49.7816 41.0747 49.8523C41.222 49.6105 41.116 49.7521 41.063 49.8052C40.9863 49.8878 40.945 49.9173 41.0158 49.7698C41.0924 49.6105 41.0217 49.6872 41.0453 49.6223C41.0453 49.6046 40.9922 49.6872 41.1219 49.4748C41.1513 49.4276 41.1396 49.4394 41.1219 49.4689C40.9686 49.6813 40.9922 49.6105 41.0689 49.4571C41.1101 49.3745 41.0453 49.4571 40.9863 49.5397C40.8979 49.6577 40.9391 49.5574 40.9274 49.5456C41.0806 49.2801 40.9156 49.5456 40.8449 49.6577C40.7506 49.8052 40.727 49.8347 40.7211 49.8347C40.7152 49.8347 40.7388 49.7875 40.6269 49.9527C40.5738 50.0411 40.5797 50.0117 40.6269 49.9173C40.6976 49.7934 40.6622 49.8465 40.6092 49.929C40.5443 50.0234 40.6917 49.7757 40.6799 49.7816C40.6681 49.7934 40.5797 49.9231 40.7388 49.64C40.7506 49.6164 40.7506 49.6164 40.7388 49.64C40.562 49.9172 40.7918 49.4984 40.7093 49.6164C40.8625 49.2801 40.6681 49.5279 40.6976 49.3981C40.7094 49.345 40.8095 49.1268 40.727 49.2447C40.5502 49.4984 40.6268 49.2919 40.5679 49.3214C40.5561 49.3273 40.4795 49.4512 40.621 49.174C40.6386 49.1327 40.6328 49.1386 40.621 49.174C40.4736 49.4217 40.509 49.3391 40.5915 49.1621C40.6091 49.1209 40.6032 49.1208 40.5679 49.1916C40.4618 49.3804 40.4972 49.3037 40.4972 49.2919C40.4972 49.286 40.5738 49.115 40.5208 49.2094C40.4088 49.4099 40.5208 49.1799 40.5385 49.1386C40.5502 49.115 40.5148 49.168 40.4972 49.1916C40.4854 49.2034 40.4441 49.2919 40.45 49.2683C40.562 49.0265 40.3734 49.3627 40.4146 49.2624C40.4205 49.2388 40.4206 49.2448 40.4323 49.2153C40.5679 48.8908 40.5679 48.8849 40.4559 49.0324C40.6151 48.6843 40.3558 49.1858 40.4795 48.9203C40.5208 48.8259 40.5031 48.8436 40.4677 48.9085C40.3027 49.2034 40.397 48.9557 40.338 49.0324C40.3262 49.0501 40.4323 48.8141 40.338 49.0029C40.3027 49.0736 40.3911 48.8672 40.3852 48.8731C40.3734 48.879 40.4265 48.7551 40.3145 48.9734C40.2674 49.0619 40.2968 48.9852 40.285 49.0029C40.2673 49.0265 40.3027 48.938 40.2084 49.1209C40.1554 49.2211 40.1495 49.2211 40.1849 49.1327C40.344 48.7551 40.1731 49.0855 40.1024 49.2094C40.0788 49.2447 40.0611 49.2801 40.0847 49.2211C40.1141 49.1385 40.1554 49.0324 40.1024 49.1386C40.0081 49.3332 40.0375 49.2447 40.0198 49.2565C39.9963 49.2742 40.0021 49.2271 39.9727 49.2507C39.9432 49.2742 39.9727 49.174 39.8725 49.3568C39.8195 49.4571 39.7723 49.5456 39.896 49.227C39.9078 49.1916 39.8312 49.3627 39.8312 49.3627C39.8077 49.3627 39.7841 49.3627 39.7782 49.3332C39.7782 49.3273 39.8961 49.0147 39.79 49.2624C39.678 49.5279 39.8843 49.0029 39.7546 49.3214C39.7369 49.3686 39.7311 49.3627 39.7429 49.3273C39.8549 48.9852 39.7252 49.233 39.7429 49.1386C39.7429 49.115 39.6898 49.2447 39.79 48.9734C39.6604 49.2683 39.8784 48.6489 39.6839 49.1209C39.7016 49.0383 39.5955 49.286 39.7075 48.9616C39.7252 48.9085 39.6957 48.9852 39.7075 48.938C39.7605 48.7787 39.572 49.2624 39.6604 49.0088C39.7075 48.8613 39.6722 48.9439 39.6663 48.9321C39.6663 48.9203 39.6545 48.9262 39.6486 48.9262H39.6309C39.6309 48.9262 39.625 48.8967 39.6073 48.9144C39.5778 48.9557 39.4954 49.1504 39.5071 49.0619C39.5071 49.0501 39.4953 49.0914 39.4776 49.1386C39.3244 49.5574 39.4011 49.3214 39.4423 49.1975C39.4718 49.0914 39.4894 49.0442 39.4835 49.0442C39.4718 49.0442 39.4541 49.056 39.4482 49.0265C39.4482 49.0088 39.3951 49.1445 39.4776 48.8731C39.5012 48.7905 39.4894 48.8082 39.4658 48.8672C39.3598 49.1386 39.4011 48.9734 39.3716 49.0088C39.3598 49.0265 39.3539 49.0088 39.3539 49.0088C39.3539 49.0029 39.2891 49.1798 39.3362 49.0088C39.2007 49.345 39.2478 49.109 39.2125 49.1444C39.1771 49.1739 39.1594 49.1445 39.1418 49.1268C39.1418 49.1268 39.0887 49.2565 39.1712 48.9675C39.1889 48.9144 39.183 48.9144 39.1653 48.9675C39.1181 49.1208 39.0887 49.1976 39.1477 48.9911C39.1594 48.9498 39.1418 48.9911 39.13 49.0383C39.0946 49.1503 39.0887 49.1386 39.1182 49.0324C39.1358 48.9498 39.1476 48.8967 39.1241 48.9557C39.0651 49.115 39.018 49.2506 39.0946 48.9439C39.1064 48.9085 39.0475 49.0973 39.0475 49.0855C39.0475 49.0442 38.9944 49.1975 39.0475 48.9675C39.071 48.8731 39.0475 48.9439 39.0475 48.9144C39.0475 48.8672 39.0003 49.0206 39.018 48.9321C39.0356 48.8377 39.0062 48.9085 38.9944 48.9026H38.9649L38.9354 48.8908H38.906L38.8765 48.879C38.8647 48.879 38.8589 48.879 38.8471 48.8731C38.8471 48.8731 38.847 48.8318 38.8647 48.7197C38.9178 48.4247 38.8883 48.4542 38.8058 48.6843C38.8058 48.702 38.7999 48.6843 38.7999 48.6843C38.7763 48.6784 38.741 48.7256 38.7292 48.643C38.7292 48.6076 38.741 48.4719 38.7292 48.4896C38.7174 48.5014 38.7233 48.4542 38.6762 48.6371C38.6349 48.7905 38.688 48.525 38.6232 48.7964C38.5996 48.8967 38.5937 48.8908 38.6055 48.8082C38.6526 48.5368 38.6055 48.6725 38.6055 48.6489C38.5996 48.6194 38.5819 48.6253 38.5642 48.643C38.5583 48.6489 38.5642 48.5604 38.5171 48.7787C38.4935 48.8908 38.4994 48.8082 38.5171 48.7138C38.5347 48.5663 38.5229 48.5899 38.5053 48.6548C38.464 48.7846 38.464 48.8082 38.4758 48.6371C38.4758 48.6194 38.4758 48.6135 38.4758 48.6135C38.4581 48.6135 38.4582 48.5014 38.4169 48.6371C38.3816 48.7492 38.3638 48.7551 38.352 48.761C38.3461 48.761 38.3167 48.8908 38.3638 48.6017C38.3697 48.5604 38.3638 48.5604 38.3638 48.6017C38.299 48.9144 38.3167 48.7492 38.299 48.7492C38.2872 48.7492 38.2342 49.0088 38.2342 48.9439C38.2342 48.879 38.2106 48.9262 38.2047 48.9262C38.1988 48.9262 38.1988 48.879 38.2165 48.7374C38.2342 48.5958 38.2696 48.3481 38.3285 47.9528C38.4228 47.2921 38.4523 47.1505 38.4876 47.0148C38.5701 46.7258 38.576 46.9558 38.6232 46.8732L38.5465 46.8792Z" fill="#349039"/>
<path d="M47.0386 48.3658C47.0739 48.3481 47.1093 48.354 47.1211 48.3009C47.1211 48.295 47.0622 48.1534 47.0681 48.1534C47.0975 48.1534 47.0563 48.0118 47.1506 48.1593C47.2567 48.3186 47.2921 48.3304 47.2567 48.2065C47.2272 48.0885 47.2566 48.1121 47.2684 48.0708C47.2684 48.059 47.2625 48.0236 47.3509 48.177C47.4158 48.2891 47.4334 48.295 47.3332 48.0885C47.3156 48.0472 47.3333 48.0885 47.3509 48.1062C47.3627 48.1239 47.4099 48.2124 47.3981 48.1829C47.2626 47.8644 47.3981 48.0885 47.3863 48.0001C47.3863 47.9765 47.4334 48.0649 47.3332 47.8584C47.3097 47.8053 47.3097 47.7936 47.3332 47.8408C47.404 47.9646 47.4216 47.9882 47.4216 47.9823C47.4393 47.9646 47.4629 47.9587 47.4806 47.9469C47.3509 47.6756 47.4276 47.7877 47.4393 47.7877C47.4511 47.7877 47.5042 47.8703 47.5396 47.9175C47.5749 47.9646 47.4982 47.7936 47.6279 48.0177C47.6515 48.0531 47.6162 47.9823 47.6162 47.9764C47.6162 47.9528 47.5808 47.8643 47.6397 47.941C47.6692 47.9823 47.6986 48.0236 47.7045 48.0236C47.7752 47.9941 47.8401 47.9587 47.899 47.9175C47.899 47.9175 47.9285 47.941 47.846 47.7877C47.7871 47.6697 47.7929 47.6579 47.8636 47.77C47.9756 47.9587 47.9403 47.8762 47.9521 47.8821C47.9756 47.8939 47.9697 47.8585 47.9992 47.8702C48.0168 47.8761 47.9462 47.7405 48.1053 48.0001C48.123 48.0236 48.123 48.0236 48.1053 48.0001C47.9697 47.7464 48.0994 47.9469 48.1289 47.9764C48.1466 47.9941 48.1524 47.9882 48.0876 47.8643C48.0228 47.7405 48.0228 47.7169 48.1053 47.8408C48.2114 48.0059 48.1878 47.9469 48.1937 47.9469C48.2467 47.9351 48.2939 47.9115 48.3292 47.8702C48.3469 47.8526 48.229 47.6107 48.3056 47.6874C48.3233 47.7051 48.2703 47.6048 48.3822 47.7817C48.4058 47.8171 48.394 47.7935 48.3704 47.7464C48.282 47.5812 48.3233 47.6402 48.3351 47.6461C48.3882 47.6638 48.4707 47.7405 48.4117 47.5694C48.3646 47.4396 48.4117 47.475 48.4117 47.4278C48.4117 47.4101 48.4942 47.5281 48.5178 47.5458C48.5413 47.5635 48.5414 47.5458 48.5414 47.534C48.5414 47.5222 48.5768 47.5753 48.4943 47.4278C48.4471 47.3511 48.4412 47.3216 48.4825 47.3865C48.6239 47.593 48.5826 47.5045 48.5944 47.5045C48.6297 47.5045 48.6415 47.4691 48.6769 47.4691C48.6828 47.4691 48.6239 47.357 48.7712 47.5753C48.7889 47.6048 48.7476 47.534 48.7417 47.5104C48.7299 47.4868 48.6946 47.4219 48.7123 47.4514C48.9068 47.7228 48.8243 47.5517 48.8478 47.5517C48.9068 47.5517 48.9185 47.4868 48.9834 47.4986C49.001 47.4986 48.8891 47.3098 48.9067 47.3157C48.9244 47.3157 48.9186 47.2921 48.9421 47.3039C48.9598 47.3098 48.9009 47.2095 49.0541 47.4219C49.0953 47.4809 49.1012 47.475 49.0659 47.416C48.9303 47.1977 49.0128 47.298 49.0011 47.2626C48.9834 47.2155 49.0895 47.3452 48.9421 47.1093C48.9009 47.0444 48.9893 47.1623 49.0011 47.1682C49.0187 47.18 49.0305 47.18 49.0305 47.1682C49.0305 47.1623 48.9775 47.0798 48.9775 47.068C48.9657 46.9972 48.948 46.9146 48.9598 46.8733C48.9716 46.832 49.0128 46.832 49.0364 46.8143C49.0658 46.7966 49.0776 46.7612 49.1248 46.7671C49.1425 46.7671 49.0305 46.596 49.2485 46.8792C49.1307 46.6963 49.2191 46.7966 49.3664 46.9913C49.39 47.0208 49.3311 46.9323 49.3134 46.9087C49.2663 46.8261 49.06 46.5311 49.2957 46.8438C49.337 46.8851 49.1071 46.5606 49.2544 46.7494C49.3487 46.8674 49.3193 46.8084 49.331 46.8143C49.3428 46.8143 49.3605 46.8261 49.3487 46.7966C49.337 46.7612 49.4489 46.9087 49.2839 46.6609C49.2545 46.6196 49.3841 46.7848 49.3782 46.7671C49.3488 46.6963 49.5255 46.9028 49.3369 46.6078C49.2957 46.5429 49.3016 46.5429 49.3487 46.596C49.5137 46.7907 49.4489 46.6727 49.4018 46.5901C49.3428 46.478 49.337 46.425 49.5727 46.7081C49.6257 46.7671 49.6611 46.8143 49.5845 46.7081C49.5373 46.6373 49.5491 46.6491 49.555 46.6491L49.6729 46.5547C49.6729 46.5547 49.8674 46.7612 49.8143 46.6727C49.7908 46.6373 49.885 46.7435 49.7436 46.5547C49.7259 46.5311 49.7141 46.5134 49.7259 46.5252C49.9086 46.7317 49.6788 46.4131 49.7613 46.4957C49.779 46.5134 49.8143 46.5547 49.832 46.5724C49.8556 46.596 49.8968 46.6432 49.8791 46.6137C49.6906 46.3305 49.8673 46.5134 49.8378 46.4308C49.8261 46.4013 49.9322 46.5193 49.7554 46.2834C49.7318 46.248 49.7318 46.248 49.7554 46.2834C49.9852 46.5488 49.832 46.3305 49.8968 46.3895C49.9322 46.419 49.8202 46.2657 50.0029 46.4839C50.0264 46.5134 50.0088 46.4839 50.0029 46.4721C49.9852 46.4426 49.9263 46.366 49.9322 46.366C49.9498 46.366 50.0559 46.4898 50.0029 46.4132C49.938 46.3188 49.9735 46.3483 49.9794 46.3365C49.9794 46.3306 50.0677 46.425 50.0913 46.4486C50.1149 46.4662 50.1031 46.4486 50.109 46.4486C50.1149 46.4486 50.0913 46.4014 50.1384 46.4486C50.1856 46.4957 50.0029 46.2598 50.1384 46.4132C50.2445 46.5311 50.0736 46.3129 50.056 46.2834C50.0501 46.2716 50.0736 46.2951 50.0972 46.3128C50.1149 46.3305 50.1797 46.4013 50.1738 46.3954C50.1679 46.3777 50.2032 46.419 50.1325 46.3128C50.0795 46.2421 50.1914 46.3601 50.2091 46.3719C50.2268 46.3837 50.2209 46.3719 50.2268 46.366C50.2268 46.366 50.274 46.4013 50.2327 46.3482C50.0618 46.1005 50.1974 46.2244 50.1915 46.1772C50.1915 46.1654 50.1266 46.0828 50.2975 46.2715C50.327 46.3069 50.3329 46.307 50.3152 46.2834C50.1031 45.9943 50.3035 46.1949 50.2563 46.1064C50.221 46.0415 50.1443 45.9235 50.1797 45.9412C50.2151 45.953 50.274 45.9943 50.2033 45.894C50.1444 45.8114 50.0972 45.7288 50.1502 45.7701C50.2032 45.8114 49.8732 45.4162 50.1679 45.7347C50.1797 45.7288 50.1797 45.7053 50.1974 45.7111C50.2151 45.7111 50.1502 45.6226 50.327 45.8055C50.3919 45.8704 50.3919 45.8586 50.3388 45.7937C50.1738 45.5872 50.2327 45.6344 50.3329 45.7229C50.3565 45.7465 50.274 45.6463 50.274 45.6404C50.274 45.6227 50.2681 45.599 50.2975 45.6167C50.3977 45.6757 50.2209 45.4339 50.2445 45.4103C50.2445 45.4103 50.1149 45.251 50.1561 45.2864C50.3977 45.5047 50.1974 45.2333 50.3506 45.3513C50.5746 45.5223 50.4744 45.3454 50.551 45.3513C50.5628 45.3513 50.716 45.5046 50.6747 45.4575C50.551 45.31 50.6747 45.4221 50.5745 45.31C50.4036 45.1094 50.5333 45.2274 50.498 45.1743C50.4744 45.133 50.5981 45.251 50.4036 45.0327C50.3801 45.0032 50.3742 45.0032 50.4036 45.0327C50.604 45.2215 50.3329 44.9147 50.4331 44.9973C50.2209 44.7378 50.3977 44.8852 50.3683 44.8145C50.3683 44.8027 50.3152 44.7495 50.2916 44.72C50.2798 44.7024 50.2504 44.6729 50.2681 44.6847C50.5333 44.9206 50.3565 44.7083 50.4449 44.7555C50.4743 44.7791 50.545 44.8322 50.5804 44.8558C50.6099 44.8735 50.5569 44.8086 50.716 44.956C50.769 45.0032 50.7454 44.9737 50.7277 44.956C50.6393 44.838 50.9812 45.1625 51.5116 45.6875C51.706 45.8763 51.7119 45.894 51.7826 45.9707C51.9123 46.1123 51.9948 46.2126 51.9713 46.2008C51.9536 46.2008 51.8887 46.1418 52.0655 46.3306C52.095 46.3601 52.0832 46.3601 52.0655 46.3365C51.8887 46.1831 52.0125 46.3247 51.8887 46.2244C51.7945 46.1477 51.8121 46.1772 51.7708 46.1477C51.7355 46.1241 51.8239 46.2303 51.653 46.0651C51.5941 46.012 51.7355 46.1654 51.7355 46.1713C51.7414 46.1949 51.7355 46.2185 51.706 46.2008C51.5999 46.1536 51.8357 46.4603 51.7414 46.419C51.9477 46.6845 51.7178 46.4839 51.8062 46.6255C51.9182 46.7966 51.8121 46.7435 51.8475 46.832C51.8533 46.8497 51.8475 46.8497 51.7826 46.7907C51.7414 46.7553 51.7001 46.714 51.6942 46.714C51.6706 46.714 51.6766 46.7494 51.6471 46.7376C51.6294 46.7376 51.7355 46.8674 51.5175 46.6373C51.488 46.6137 51.488 46.6078 51.5175 46.6373C51.7178 46.8792 51.5764 46.7494 51.5941 46.7907C51.5941 46.8084 51.5882 46.8025 51.5057 46.7199C51.4173 46.6314 51.4173 46.6491 51.488 46.7376C51.541 46.8025 51.541 46.8084 51.5528 46.832C51.6058 46.9264 51.376 46.7022 51.6117 47.0031C51.3819 46.7612 51.4408 46.8556 51.488 46.9205C51.6589 47.18 51.4762 47.0443 51.4821 47.121C51.4821 47.1387 51.3819 47.0385 51.3524 47.0267C51.323 47.0149 51.3229 47.0267 51.3229 47.0502C51.3229 47.062 51.2463 46.9795 51.3996 47.1682C51.4113 47.18 51.4173 47.1918 51.4173 47.1918C51.3878 47.1682 51.323 47.1033 51.3288 47.121C51.3347 47.1387 51.4408 47.2626 51.4644 47.3039C51.4938 47.3511 51.488 47.357 51.488 47.3629C51.488 47.3688 51.5175 47.416 51.3701 47.2567C51.541 47.4632 51.4468 47.3688 51.4527 47.3865C51.4585 47.4042 51.4467 47.3983 51.4409 47.4042L51.4232 47.4219C51.4232 47.4219 51.3996 47.416 51.4114 47.4396C51.429 47.475 51.4821 47.5576 51.4939 47.5871C51.5057 47.6166 51.4938 47.6225 51.4703 47.6107C51.4349 47.593 51.3701 47.5399 51.3347 47.5104C51.3171 47.4986 51.3583 47.5517 51.4114 47.6284C51.488 47.7287 51.6589 47.9528 51.4114 47.6756C51.3642 47.6225 51.3701 47.6402 51.3996 47.6756C51.6176 47.9823 51.3937 47.7641 51.435 47.8643C51.2464 47.6579 51.3407 47.8054 51.376 47.8762C51.4291 47.9823 51.4349 48.0354 51.3111 47.9234C51.1815 47.8054 51.2228 47.8997 51.1638 47.8643C51.1461 47.8525 51.2051 47.941 51.046 47.7464C51.0106 47.7051 51.0165 47.7169 51.0342 47.7464C51.1815 47.9646 51.1167 47.9174 50.9989 47.7995C50.934 47.7346 50.9929 47.829 51.0401 47.9115C51.1167 48.0354 51.0342 47.9646 51.0165 47.9764C50.8161 47.7405 51.0048 47.9882 51.0873 48.1003C51.1934 48.2419 51.2051 48.2714 51.2051 48.2832C51.2051 48.295 51.158 48.2537 51.2758 48.4189C51.3348 48.5015 51.3112 48.4897 51.2404 48.4071C51.1461 48.295 51.1874 48.354 51.2404 48.4307C51.3053 48.5251 51.1226 48.3009 51.1226 48.3186C51.1226 48.3363 51.211 48.4661 51.0048 48.2183C50.9871 48.2006 50.9871 48.1947 51.0048 48.2183C51.1933 48.4897 50.8869 48.1239 50.9635 48.2478C50.6983 47.9882 50.8397 48.2655 50.7218 48.1947C50.6747 48.1652 50.5097 47.9882 50.5804 48.118C50.7277 48.3894 50.5628 48.2419 50.5628 48.3186C50.5628 48.3363 50.6393 48.4602 50.4449 48.2065C50.4154 48.1711 50.4154 48.177 50.439 48.2065C50.5981 48.4484 50.5333 48.3835 50.4036 48.236C50.3742 48.2006 50.3742 48.2065 50.4154 48.2714C50.5392 48.4484 50.4803 48.3835 50.4744 48.3835C50.4626 48.3835 50.3447 48.236 50.4036 48.3245C50.5333 48.5192 50.3742 48.3127 50.3447 48.2832C50.327 48.2655 50.3565 48.3186 50.3741 48.3481C50.38 48.3599 50.4331 48.4425 50.4213 48.4248C50.2563 48.2183 50.4685 48.5369 50.3918 48.4602C50.3742 48.4425 50.3741 48.4484 50.3565 48.4248C50.1266 48.1593 50.1267 48.1593 50.1915 48.3304C49.9617 48.0236 50.274 48.4956 50.0972 48.2655C50.0324 48.1829 50.0382 48.2065 50.0795 48.2714C50.2504 48.5605 50.0795 48.3599 50.109 48.4543C50.1149 48.472 49.9675 48.2655 50.0795 48.4425C50.1207 48.5074 49.9852 48.3245 49.9852 48.3363C49.9852 48.354 49.8968 48.2419 50.0324 48.4543C50.0854 48.5428 50.0324 48.4779 50.0442 48.4956C50.056 48.5251 49.9911 48.4484 50.1031 48.6254C50.162 48.7198 50.1561 48.7315 50.0972 48.6489C49.8497 48.3245 50.0442 48.6372 50.1031 48.7669C50.1208 48.8082 50.1384 48.8436 50.1031 48.7905C50.0442 48.7256 49.9734 48.6313 50.0383 48.7375C50.1502 48.9262 50.0913 48.8554 50.0854 48.8731C50.0854 48.9026 50.0442 48.879 50.0442 48.9203C50.0442 48.9616 49.9675 48.8849 50.0618 49.0678C50.1089 49.1681 50.1561 49.2625 49.9558 48.9852C49.9322 48.9557 50.0324 49.115 50.0324 49.1209C50.0147 49.1504 49.997 49.174 49.9558 49.1681C49.944 49.1681 49.7613 48.8908 49.8968 49.1209C50.0442 49.3627 49.7377 48.8967 49.9145 49.1858C49.938 49.2271 49.9321 49.2271 49.9145 49.2035C49.6905 48.9203 49.8143 49.174 49.7377 49.115C49.72 49.1032 49.7848 49.2212 49.6257 48.9793C49.7789 49.2625 49.4077 48.7197 49.667 49.1622C49.6081 49.0973 49.7377 49.3333 49.5432 49.0501C49.5137 49.0029 49.5491 49.0796 49.5197 49.0383C49.4195 48.8967 49.6905 49.3451 49.5432 49.1209C49.4548 48.9911 49.4961 49.0737 49.4843 49.0737C49.4725 49.0737 49.4666 49.0796 49.4607 49.0855L49.4371 49.1032C49.4371 49.1032 49.4077 49.0973 49.4136 49.1209C49.4253 49.174 49.5138 49.3627 49.4548 49.3038C49.449 49.2979 49.4666 49.3333 49.4902 49.3804C49.7141 49.7639 49.5786 49.5574 49.5079 49.4512C49.4489 49.3627 49.4136 49.3215 49.4136 49.3274C49.4018 49.3392 49.3959 49.3628 49.3664 49.351C49.3488 49.3392 49.4135 49.4689 49.2603 49.233C49.2132 49.1622 49.2191 49.1799 49.2427 49.233C49.3724 49.4925 49.2662 49.3568 49.2721 49.404C49.2721 49.4276 49.2603 49.4217 49.2485 49.4217C49.2367 49.4217 49.3311 49.5869 49.2309 49.4336C49.3841 49.7639 49.2309 49.5751 49.2191 49.6341C49.2073 49.6872 49.166 49.6872 49.1248 49.6872C49.113 49.6872 49.1779 49.817 49.0247 49.5633C48.9952 49.5161 48.9893 49.522 49.0247 49.5751C49.1013 49.7167 49.1366 49.7934 49.0247 49.6105C49.007 49.5751 49.0246 49.6164 49.0423 49.6577C49.0953 49.7639 49.0836 49.758 49.0188 49.6636C48.9716 49.5928 48.9421 49.5515 48.9657 49.6105C49.0364 49.7639 49.0895 49.8937 48.9244 49.6341C48.9068 49.6046 48.9952 49.7757 48.9893 49.7698C48.9598 49.7403 49.0246 49.8878 48.8949 49.6872C48.8419 49.6046 48.8714 49.6754 48.8537 49.6518C48.8184 49.6164 48.8891 49.7639 48.836 49.6872C48.7771 49.6105 48.8007 49.6872 48.7889 49.6872L48.7535 49.7049L48.7182 49.7226L48.6828 49.7403L48.6475 49.758C48.6475 49.758 48.6239 49.7757 48.6121 49.7757C48.6003 49.7757 48.5767 49.7521 48.5178 49.6518C48.3587 49.3982 48.3528 49.4453 48.4294 49.6754C48.4 49.6931 48.394 49.758 48.3292 49.699C48.2998 49.6754 48.2231 49.5633 48.2231 49.5869C48.2231 49.6046 48.1937 49.5692 48.2703 49.7403C48.3351 49.8819 48.1996 49.6459 48.3174 49.8996C48.3587 49.994 48.3469 49.994 48.3056 49.9173C48.1701 49.6754 48.2173 49.8111 48.1937 49.7993C48.1642 49.7816 48.1524 49.7993 48.1465 49.8229C48.1465 49.8347 48.0935 49.758 48.1878 49.9645C48.2349 50.0648 48.1878 49.9999 48.1407 49.9173C48.0641 49.7875 48.0699 49.817 48.0876 49.8819C48.1288 50.0116 48.1407 50.0353 48.0464 49.8937C48.0346 49.876 48.0287 49.876 48.0287 49.876C48.0051 49.8878 47.9344 49.7993 47.9756 49.935C48.011 50.053 47.9933 50.0648 47.9756 50.0825C47.9698 50.0825 48.0169 50.2123 47.8872 49.9468C47.8696 49.9114 47.8637 49.9173 47.8813 49.9468C48.0051 50.2417 47.9167 50.1001 47.899 50.1119C47.8872 50.1237 47.9815 50.3656 47.9403 50.3184C47.899 50.2712 47.9049 50.3184 47.8872 50.3302C47.8637 50.3361 47.787 50.1827 47.4452 49.4512C47.1683 48.8495 47.1093 48.7138 47.0681 48.5782C46.9797 48.295 47.1035 48.4779 47.0976 48.3835L47.0386 48.3658Z" fill="#349039"/>
<path d="M27.5963 60.4828C27.891 60.5241 28.1327 60.5949 28.3802 60.5654C28.4214 60.5654 28.4981 60.3412 28.5452 60.353C28.7338 60.4002 28.9577 60.2114 29.0991 60.5004C29.2524 60.819 29.4468 60.8839 29.6649 60.7305C29.8711 60.5889 30.0421 60.6657 30.2248 60.6421C30.2896 60.6362 30.3544 60.5949 30.378 60.8662C30.3957 61.0609 30.4782 61.0963 30.596 60.7718C30.6196 60.7069 30.6373 60.7836 30.6491 60.8131C30.6667 60.8485 30.6667 60.996 30.6903 60.9547C30.9496 60.471 31.0675 60.8898 31.262 60.7954C31.3091 60.7718 31.3326 60.9311 31.4269 60.5949C31.4505 60.5064 31.4976 60.5005 31.4976 60.583C31.4976 60.8013 31.5213 60.8485 31.5625 60.8544C31.7452 60.8721 31.9279 60.9134 32.1106 60.9429C32.2756 60.5181 32.3404 60.7305 32.4347 60.7482C32.5054 60.76 32.5525 60.9311 32.6056 61.0255C32.6645 61.1258 32.7883 60.8603 32.7883 61.2556C32.7883 61.3205 32.8354 61.2084 32.859 61.2025C32.9533 61.1848 33.0711 61.0609 33.1301 61.2202C33.1595 61.3028 33.189 61.3794 33.2362 61.3912C33.796 61.4974 34.3559 61.5977 34.9157 61.6862C34.9629 61.6921 35.0042 61.7511 35.0985 61.5092C35.1751 61.3145 35.2634 61.3204 35.2693 61.5328C35.2693 61.8691 35.3577 61.7452 35.4166 61.7747C35.5227 61.8278 35.6406 61.7983 35.7467 61.8514C35.8056 61.8868 35.9176 61.6744 35.8999 62.1286C35.8999 62.1699 35.9176 62.1758 35.9352 62.1345C36.0826 61.7216 36.0885 62.0874 36.1533 62.1582C36.2004 62.2113 36.2535 62.2113 36.3478 62.0107C36.4421 61.816 36.5364 61.7983 36.5541 62.0284C36.5717 62.3351 36.6543 62.2466 36.7191 62.2643C37.1021 62.3528 37.4852 62.4295 37.8741 62.4649C38.0568 62.4826 38.3043 62.1169 38.4576 62.3056C38.4929 62.3469 38.5695 62.1935 38.5578 62.5062C38.5578 62.5711 38.599 62.5416 38.6226 62.4649C38.7169 62.1935 38.7522 62.3115 38.8052 62.3351C39.0527 62.4413 39.2885 62.6419 39.5773 62.4177C39.8012 62.2466 39.9839 62.3646 40.1843 62.3292C40.2491 62.3174 40.2844 62.5357 40.3433 62.5888C40.4023 62.6419 40.4671 62.6301 40.532 62.6183C40.5732 62.6124 40.5968 62.7068 40.6675 62.4649C40.7088 62.3351 40.7677 62.3056 40.7736 62.4177C40.7972 62.7952 40.8974 62.6655 40.974 62.6832C41.192 62.7363 41.416 62.7422 41.634 62.7952C41.687 62.807 41.7695 62.6301 41.7695 63.0253C41.7695 63.0784 41.8167 62.9604 41.8402 62.925C41.8638 62.8897 41.9051 62.7835 41.9169 62.8365C41.9935 63.3498 42.182 63.0843 42.3294 63.1256C42.6771 63.22 43.0425 63.1905 43.3961 63.2967C43.4962 63.3262 43.62 63.0076 43.7084 63.0371C43.7968 63.0666 43.897 63.0371 43.9854 63.0784C44.0502 63.1079 44.1386 62.9368 44.1563 63.3321C44.1622 63.4383 44.2093 63.4442 44.2387 63.3439C44.3507 62.9663 44.4097 63.1728 44.4981 63.1197C44.5983 63.0548 44.6749 63.3144 44.8045 62.9132C44.8399 62.8071 44.8693 63.0253 44.9047 63.0489C44.9695 63.0843 45.0344 63.1079 45.0992 63.0902C45.1346 63.0843 45.1758 62.9428 45.2111 62.931C45.4646 62.8543 45.718 62.754 45.9655 62.7304C46.2189 62.7009 46.4605 62.7599 46.708 62.7717C46.9556 62.7835 47.2031 62.7657 47.4506 62.8247C47.5449 62.8483 47.6568 62.5475 47.7217 63.0843C47.8218 62.7657 47.8867 62.9604 47.9515 63.3262C47.9633 63.3793 47.9927 63.2259 48.0163 63.1846C48.087 63.0489 48.1578 62.5062 48.2108 63.0961C48.2108 63.1197 48.2226 63.0961 48.2285 63.0961C48.2815 63.1787 48.3405 62.5888 48.4053 62.9486C48.4465 63.1728 48.5232 63.0784 48.5821 63.102C48.6469 63.1256 48.7117 63.1492 48.7707 63.102C48.8355 63.0548 48.9062 63.3262 48.971 62.8897C48.9828 62.8189 49.0241 63.1256 49.0535 63.1079C49.2009 63.0017 49.3482 63.4029 49.4896 62.8778C49.525 62.7599 49.5722 62.7717 49.6075 62.8778C49.7313 63.2554 49.8491 63.0607 49.9788 62.9191C50.1438 62.7363 50.3206 62.6596 50.4974 63.2082C50.5328 63.3262 50.5563 63.4147 50.5857 63.22C50.6034 63.0902 50.6506 63.1197 50.6801 63.1197C51.0513 63.102 51.4226 63.102 51.788 63.0725C51.8882 63.0666 52.006 63.4855 52.1003 63.3203C52.1416 63.2554 52.2005 63.4619 52.2182 63.1079C52.2182 63.0607 52.2359 63.0312 52.2477 63.0548C52.4009 63.4619 52.4834 62.8661 52.6189 63.0312C52.6484 63.0666 52.6779 63.1433 52.7074 63.1846C52.7368 63.2259 52.778 63.3262 52.7957 63.2672C52.943 62.7421 53.167 63.1079 53.3438 62.9604C53.4027 62.9132 53.497 63.1374 53.5147 62.695C53.5147 62.6301 53.5442 62.6301 53.5618 62.6891C53.7269 63.2023 53.8094 62.7894 53.9331 62.9132C53.9979 62.9781 54.0333 62.6832 54.1335 63.102C54.1453 63.1551 54.163 63.1079 54.1748 63.0784C54.1924 63.0253 54.2042 62.8779 54.2278 62.8838C54.2985 62.8955 54.4046 63.1256 54.4458 62.9781C54.4989 62.7952 54.5755 62.8601 54.6462 62.8365C54.6874 62.8247 54.7523 63.0135 54.7994 63.0548C54.8465 63.0902 54.8819 63.0548 54.9231 63.0489C54.9821 63.043 55.0292 62.9604 55.1 63.0489C55.1707 63.1374 55.153 62.6891 55.2591 62.9781C55.3416 63.2023 55.3357 62.7835 55.3769 62.7245C55.4005 62.695 55.4359 62.7422 55.4712 62.7835C55.4948 62.813 55.5361 62.9545 55.5537 62.9368C55.595 62.9073 55.648 62.9781 55.6598 62.7835C55.6716 62.6478 55.7659 62.8778 55.813 62.9014C55.8661 62.925 55.9074 62.8955 55.9486 62.8838C55.9958 62.8779 56.0606 62.9545 56.0841 62.8484C56.1843 62.3764 56.4201 62.6124 56.591 62.518C56.6322 62.4944 56.6557 62.3292 56.7736 62.695C56.7913 62.7599 56.8208 62.7598 56.8267 62.7127C56.8915 62.1522 57.1567 62.5357 57.2981 62.3469C57.3983 62.2112 57.4749 61.993 57.6105 62.0048C57.7401 62.0225 57.8933 62.0873 57.964 61.8809C58.023 61.7098 58.0819 61.5505 58.1998 61.6213C58.3177 61.6921 58.2056 60.9311 58.4591 61.5328C58.5533 61.5092 58.6359 61.462 58.7361 61.462C58.8186 61.462 58.8481 61.2791 59.0308 61.6154C59.0956 61.7393 59.1486 61.7157 59.1427 61.5859C59.125 61.173 59.2488 61.2556 59.4079 61.4208C59.4433 61.4621 59.4197 61.2674 59.4432 61.2556C59.5199 61.2084 59.5906 61.1553 59.6849 61.1848C59.9737 61.2615 60.0621 60.76 60.286 60.6774C60.3273 60.6598 60.2742 60.3589 60.339 60.4179C60.7339 60.8013 60.7928 60.2409 61.111 60.4179C61.5942 60.6715 61.8182 60.2763 62.1718 60.2055C62.219 60.1996 62.3957 60.471 62.3781 60.3766C62.3191 60.0816 62.4959 60.2763 62.4547 60.0521C62.3839 59.6569 62.5843 59.8516 62.6315 59.7218C62.6669 59.6274 62.8495 59.8279 62.714 59.4032C62.6963 59.3442 62.7199 59.3383 62.7552 59.3796C63.0322 59.7041 62.8495 59.1023 63.0263 59.2262C62.9674 58.6835 63.3033 58.9018 63.4271 58.7071C63.4447 58.6776 63.4153 58.5714 63.4153 58.5065C63.4153 58.4711 63.3976 58.4062 63.4212 58.4298C63.8396 58.8074 63.7865 58.3472 64.0164 58.3767C64.093 58.3885 64.2167 58.4829 64.2992 58.4947C64.3817 58.5065 64.3641 58.365 64.588 58.6186C64.6587 58.6953 64.6587 58.6363 64.6646 58.5832C64.6646 58.3236 65.1361 58.8605 65.7489 59.8043C65.967 60.1465 65.9552 60.1819 66.0083 60.3294C66.1085 60.6066 66.1556 60.8013 66.0672 60.819C66.0024 60.8308 65.8728 60.76 66.0319 61.1199C66.0555 61.1789 66.0259 61.1848 65.9847 61.1494C65.7077 60.9075 65.749 61.2084 65.5427 61.055C65.3836 60.937 65.3482 61.0137 65.2421 60.9901C65.1596 60.9665 65.2068 61.1789 64.977 60.9016C64.9004 60.8072 65.0005 61.1022 64.9652 61.1376C64.8945 61.2143 64.812 61.285 64.6941 61.285C64.3464 61.285 64.3405 61.9458 63.9928 61.9635C64.0105 62.5121 63.598 62.1994 63.4978 62.518C63.374 62.9074 63.0558 62.8837 62.8554 63.102C62.8142 63.1492 62.767 63.1551 62.6727 63.0548C62.6079 62.9899 62.5431 62.9192 62.5136 62.925C62.3839 62.9545 62.2838 63.043 62.1482 63.0489C62.0775 63.0489 62.0952 63.3203 61.8712 62.9014C61.8418 62.8424 61.8123 62.8602 61.8241 62.9191C61.889 63.4029 61.6709 63.1787 61.5766 63.2672C61.5412 63.3026 61.4941 63.3026 61.388 63.1551C61.2761 63.0017 61.2053 63.043 61.2112 63.2259C61.2112 63.3616 61.1818 63.3793 61.1582 63.4265C61.0521 63.6329 60.7339 63.2318 60.7633 63.8276C60.5276 63.3793 60.4805 63.568 60.4333 63.7096C60.2506 64.2464 59.8263 64.0223 59.5317 64.1993C59.4609 64.2406 59.3254 64.0577 59.237 64.04C59.1427 64.0164 59.0661 64.0577 58.9895 64.099C58.9482 64.1226 58.8539 63.9751 58.9128 64.3408C58.9128 64.3703 58.9128 64.388 58.9128 64.3821C58.848 64.3349 58.7656 64.217 58.7302 64.2524C58.6948 64.2878 58.7184 64.5355 58.6889 64.6122C58.6594 64.7007 58.6064 64.7243 58.5534 64.742C58.5062 64.7597 58.4709 64.8541 58.353 64.5532C58.4061 64.9544 58.3 64.7774 58.2587 64.8187C58.2175 64.86 58.1644 64.8482 58.1173 64.86L57.9522 64.8954C57.8992 64.9072 57.8344 64.8836 57.7873 64.9367C57.7225 65.0075 57.6812 65.1667 57.6164 65.2198C57.5457 65.2788 57.4631 65.2965 57.3747 65.2729C57.2628 65.2434 57.1449 65.1372 57.0329 65.0901C56.9858 65.0724 56.9681 65.1727 56.9563 65.326C56.9387 65.5207 56.9445 65.9454 56.7736 65.4145C56.7382 65.3083 56.6971 65.3496 56.6853 65.4263C56.5674 66.0221 56.2668 65.5915 56.0724 65.7862C55.8897 65.3909 55.8131 65.6682 55.707 65.8039C55.5479 65.9985 55.3592 66.0929 55.1471 65.8688C54.9231 65.6328 54.7581 65.8098 54.5578 65.7331C54.5047 65.7095 54.4635 65.8747 54.3751 65.5089C54.3574 65.4263 54.3162 65.4558 54.3044 65.5089C54.1983 65.916 54.0333 65.8216 53.8565 65.5797C53.7622 65.4558 53.6856 65.621 53.609 65.7743C53.4911 66.0044 53.332 65.857 53.1906 65.8688C53.0904 65.4145 53.0845 65.8864 53.0668 66.087C53.0433 66.3584 53.0079 66.4115 52.9607 66.4174C52.8959 66.4292 52.8251 66.3525 52.7839 66.6534C52.7603 66.8067 52.6837 66.7772 52.6366 66.618C52.5717 66.4056 52.5659 66.5059 52.5305 66.6534C52.4893 66.8244 52.4067 66.3997 52.3478 66.4233C52.283 66.4528 52.2123 66.6888 52.1239 66.205C52.118 66.1637 52.0944 66.1696 52.0885 66.205C51.9884 66.7064 51.8233 65.9985 51.7055 66.2227C51.3047 65.6859 50.9453 66.1578 50.5622 65.9808C50.4031 65.9101 50.244 65.5502 50.0966 65.7685C49.7784 66.2286 49.4543 65.9042 49.136 65.9927C49.0653 66.0103 48.9887 66.2286 48.9298 65.7567C48.9239 65.6918 48.8886 65.6977 48.8768 65.7567C48.7707 66.1873 48.6705 66.0457 48.5762 65.7567C48.5526 65.6859 48.5055 65.6918 48.4878 65.8039C48.4407 66.1224 48.3935 65.9926 48.3464 65.9867C48.2933 65.9749 48.2285 65.6918 48.1872 65.851C48.1047 66.1991 48.0812 65.8097 48.0281 65.739C47.9986 65.6977 47.9574 65.7862 47.922 65.8393C47.9043 65.8629 47.8808 66.0044 47.869 65.969C47.7747 65.5679 47.651 66.1401 47.5508 65.969C47.5272 65.9336 47.5036 65.9395 47.4859 65.8923C47.2561 65.3555 47.262 65.3496 46.932 65.6033C46.8789 65.0252 46.7316 65.8628 46.6609 65.4204C46.6373 65.2611 46.5666 65.2906 46.5195 65.4027C46.3014 65.8983 46.1364 65.4853 45.936 65.6151C45.8947 65.6446 45.8948 65.2552 45.8182 65.562C45.7887 65.68 45.7534 65.3319 45.7062 65.3437C45.6414 65.3555 45.5942 65.1431 45.4999 65.5148C45.4645 65.6682 45.4174 65.5384 45.3703 65.5679C45.3113 65.6092 45.2642 65.4617 45.1817 65.7626C45.1346 65.9278 45.0639 65.9277 45.0403 65.7743C44.946 65.149 44.7633 65.6859 44.6042 65.8923C44.5571 65.9513 44.5216 66.0103 44.4863 65.9101C44.4391 65.7744 44.3744 65.5915 44.3095 65.7685C44.1976 66.0811 44.1268 65.9454 44.0443 65.9572C43.9029 65.9808 43.7673 65.9041 43.6259 65.9336C43.4609 65.969 43.3195 65.7921 43.125 66.0811C43.0189 66.2345 42.8892 66.3761 42.8539 65.8628C42.8539 65.8039 42.7773 66.0811 42.7537 66.0811C42.5534 66.0811 42.3471 66.0693 42.1526 66.0044C42.1055 65.9867 42.1172 65.4853 42.0288 65.8806C41.9286 66.2994 41.9876 65.4558 41.8874 65.9631C41.8697 66.0339 41.8343 66.0221 41.8167 65.969C41.6516 65.4027 41.357 65.7921 41.1448 65.621C41.0918 65.5797 41.0034 65.7744 41.0152 65.3437C40.8089 65.798 40.7854 64.801 40.5379 65.5384C40.4554 65.3968 40.2844 65.7802 40.2608 65.2611C40.2608 65.1785 40.2019 65.2965 40.196 65.2198C40.1724 64.9603 40.0192 65.7272 40.0016 65.3142C39.9898 65.0783 39.8896 65.2022 39.8306 65.1786C39.7717 65.155 39.7128 65.1549 39.6539 65.149L39.4594 65.1195C39.3945 65.1077 39.3356 65.0665 39.2649 65.096C39.1235 65.1491 38.9467 65.444 38.8288 65.2965C38.817 65.2788 38.7817 65.3378 38.764 65.4145C38.6167 66.0634 38.6049 65.6859 38.5872 65.4912C38.5754 65.326 38.5518 65.2434 38.5106 65.2375C38.3986 65.2257 38.2808 65.2375 38.1747 65.1727C38.1099 65.1373 38.0038 65.3378 38.0097 64.9131C38.0097 64.7833 37.9507 64.801 37.9095 64.8895C37.6973 65.2965 37.5913 65.0193 37.438 65.0606C37.3673 65.0783 37.3083 65.0547 37.2435 65.0311C37.1964 65.0134 37.1021 65.2847 37.0962 65.0075C36.7662 65.4971 36.5776 65.1078 36.3242 65.1314C36.0708 65.149 35.8351 65.0782 35.5994 65.0075C35.5404 64.9898 35.4344 65.1903 35.4579 64.742C35.4579 64.6594 35.4167 64.6535 35.3872 64.742C35.3106 64.9721 35.2634 65.0901 35.2811 64.7656C35.2811 64.7066 35.2399 64.7656 35.2104 64.8246C35.1338 64.9898 35.0925 64.9603 35.069 64.7951C35.0513 64.6653 35.01 64.5768 34.957 64.6653C34.8096 64.8954 34.6741 65.0901 34.6506 64.6122C34.6506 64.5532 34.5621 64.8423 34.5386 64.8246C34.4561 64.7538 34.3264 64.9721 34.2969 64.6063C34.2851 64.4588 34.2144 64.5532 34.1732 64.506C34.1084 64.4234 33.9905 64.6535 33.9315 64.5001C33.8726 64.3468 33.7607 64.4411 33.6723 64.4234L33.4071 64.3762L33.1478 64.3291L32.8885 64.2819L32.6292 64.2347C32.5408 64.217 32.4524 64.2111 32.3699 64.1875C32.311 64.1698 32.2638 64.1108 32.2285 63.9279C32.1519 63.456 31.9455 63.4855 31.6568 63.7922C31.6332 63.8158 31.6214 63.7922 31.6038 63.7922C31.3798 63.7509 31.1382 63.7922 30.9319 63.6388C30.8435 63.568 30.7787 63.3557 30.6727 63.3675C30.6019 63.3793 30.5489 63.2967 30.4369 63.5621C30.3426 63.7804 30.3308 63.3734 30.2012 63.7745C30.154 63.922 30.0892 63.9043 30.0833 63.7745C30.048 63.3498 29.9065 63.5444 29.8063 63.4914C29.6943 63.4324 29.5706 63.4206 29.4409 63.4324C29.3761 63.4324 29.3407 63.2908 29.2288 63.6152C29.1698 63.7745 29.1168 63.6506 29.0991 63.5032C29.0697 63.2731 28.993 63.3026 28.9164 63.3852C28.7455 63.5621 28.7455 63.5976 28.6513 63.3262C28.6395 63.2908 28.6218 63.2908 28.6041 63.2849C28.4391 63.2554 28.2918 63.0725 28.0973 63.2554C27.9323 63.4088 27.8026 63.4029 27.6671 63.3911C27.614 63.3911 27.5198 63.5739 27.5433 63.1256C27.5433 63.0607 27.5139 63.0607 27.4962 63.1197C27.3135 63.5798 27.231 63.3085 27.1131 63.3026C27.0012 63.2967 26.842 63.6684 26.7419 63.5563C26.6476 63.4501 26.5238 63.509 26.4177 63.4914C26.2527 63.4619 26.2527 63.1964 26.4177 61.9989C26.5532 61.0078 26.624 60.8013 26.789 60.6125C27.1426 60.2114 27.3842 60.5831 27.6376 60.4887L27.5963 60.4828Z" fill="#349039"/>
<path d="M52.4186 87.3242C59.3726 86.4452 66.4327 85.519 71.6482 83.0945C75.3314 81.3837 75.0839 78.5638 75.0368 76.1747C75.0014 74.5524 73.8287 73.697 72.6324 72.175C71.0589 70.1752 70.6817 69.0012 66.0084 68.5647C63.2327 68.3051 60.3745 68.3051 57.5399 68.3051C53.1553 68.3051 48.7707 68.311 44.3862 68.3169C39.7482 68.3169 35.0573 68.3405 30.49 68.7593C28.2683 68.9658 26.0761 69.2667 24.0252 69.7091C21.5972 70.2401 20.8783 70.653 19.8529 71.762C16.0458 75.8738 16.3876 83.4543 21.7858 85.3775C27.3666 87.3655 34.3619 86.9408 40.8327 87.5248C43.0485 87.7254 45.3173 87.8669 47.5685 87.7784C49.2127 87.7136 50.8216 87.5248 52.4128 87.3242H52.4186Z" fill="#37993A"/>
</g>
<g clip-path="url(#clip0_390_18863)">
<path d="M24.9341 49.8682C29.8682 49.8682 33.8681 45.8683 33.8681 40.9341C33.8681 36 29.8682 32.0001 24.9341 32.0001C19.9999 32.0001 16 36 16 40.9341C16 45.8683 19.9999 49.8682 24.9341 49.8682Z" fill="white"/>
<path d="M65.31 49.8681C70.2442 49.8681 74.2441 45.8681 74.2441 40.934C74.2441 35.9999 70.2442 31.9999 65.31 31.9999C60.3759 31.9999 56.376 35.9999 56.376 40.934C56.376 45.8681 60.3759 49.8681 65.31 49.8681Z" fill="white"/>
<path d="M28.2467 46.5862C31.0731 46.5862 33.3644 44.2949 33.3644 41.4685C33.3644 38.642 31.0731 36.3507 28.2467 36.3507C25.4202 36.3507 23.1289 38.642 23.1289 41.4685C23.1289 44.2949 25.4202 46.5862 28.2467 46.5862Z" fill="black"/>
<path d="M68.441 46.5862C71.2675 46.5862 73.5587 44.2949 73.5587 41.4685C73.5587 38.642 71.2675 36.3507 68.441 36.3507C65.6145 36.3507 63.3232 38.642 63.3232 41.4685C63.3232 44.2949 65.6145 46.5862 68.441 46.5862Z" fill="black"/>
</g>
<defs>
<clipPath id="clip0_390_18863">
<rect width="58.2443" height="17.8681" fill="white" transform="translate(16 32)"/>
</clipPath>
</defs>
</svg>
