<?xml version="1.0" encoding="UTF-8"?>
<svg id="_Слой_2" data-name="Слой 2" xmlns="http://www.w3.org/2000/svg" viewBox="0 0 285.02 279.82">
  <defs>
    <style>
      .cls-1 {
        fill: #349039;
      }

      .cls-2 {
        fill: #6e7c6e;
      }

      .cls-3 {
        fill: #37993a;
      }

      .cls-4 {
        opacity: .49;
      }
    </style>
  </defs>
  <g id="_лягушки" data-name="лягушки">
    <g>
      <g class="cls-4">
        <path class="cls-2" d="M280.37,190.17c-13.33-10.89-26.14-24.05-42.31-30.6-15.22-6.16-31.97-7.72-48.23-8.25-35.34-1.16-70.81,1.84-105.45,8.9-14.35,2.92-28.67,6.59-41.82,13.02-9.67,4.73-18.72,11.03-25.9,19.1-3.9,4.39-11.84,16-7.6,22.25,1.26,1.86,7.37,5.61,9.4,4.67,6.52-3.01,6.11-9.39,7.12-15.85,3.85,1.8,11.06,10.62,12.48,3.06,1.32-7.07,2.79-16.07,4.07-18.59,1.4,6.08,9.35,19.85,8.1,25.96-.45,2.2,1.53,2.98,.18,4.77-4.85,6.43-10.06,14.13-14.92,20.55-2.93,3.88-8.92,6.53-6.83,10.91,1.92,4.04,5.79,3.99,9.92,2.27s5.51-5.94,8.12-9.57c2.61-3.62,5.65-10.57,9.51-12.82,1.31,5.7-2.93,18.19-6.29,22.97-3.36,4.78-.61,14.53,5.11,13.3,5.67-1.22,7.8-1.59,11.56-6.57,3.75-4.97-.91-6.64-.85-12.87s.47-13.61,3.91-18.8c2.74,4.18,2.3,14.86,6.95,16.67,1.18,.46,2.49,.37,3.75,.21,4.84-.63,10.54-3.69,10.03-8.54-.35-3.26-3.38-5.43-5.75-7.7-7.17-6.89-9.37-17.33-11.23-27.09-3.75,26.45,21.55,26.74,35.76,27.87,5.51,.44,26.34-1.26,36.51-1.92,19.86-1.3,31.85-18.53,46.21-33.55-9.49,14.14-14.35,19.16-21.43,20.15-1.19,.17-12.1,1.3-12.95,2.15-.98,.98-5.89,4.44-6.27,7.14-.87,6.14,5.51,10.19,11.32,8.02,1.9-.71,3.61-1.95,5.6-2.3s7.51,.35,7.65,2.37c.07,.96-3.43,2.22-3.94,3.04-3.08,5-2.62,10.91-10.2,14.32-5.35,2.41-3.59,15.98,2.28,15.95,6.99-.03,4.68-4.11,7.56-9.66,2.88-5.56,5.99-10.87,9.96-14.41,5.04,7.55,4.03,17.46,2.87,26.47-.57,4.48,.14,7.59,4.43,9,3.53,1.16,6.67,.82,8.19-2.57,3.31-7.37,.95-15.89-.94-23.74s-3.01-16.99,2.09-23.26c4.82-5.94,11.15-14.28,16.38-19.86,5.02-5.34,6.87-13.36,12.1-18.49-.9,9.16-5.01,18.81-5.91,27.97,4.75,2.88,15.84,5.03,17.78-.17,1.94-5.2,1-10.96,.91-16.51-.09-5.55,1.14-11.82,5.8-14.84,2.05,3.91,1.63,8.6,1.1,12.98s-1.1,9.03,.74,13.04c1.83,4.01,7.08,6.8,10.8,4.44,4.12-2.61,3.37-8.84,1.45-13.33s-3.32-15.69-1.35-20.15c4.2-1.35,4.84,11.28,7.97,14.39,3.07,3.06,8.02,2.83,12.33,2.4,1.99-.2,4.35-.66,5.1-2.52,.87-2.16-1.13-4.34-2.94-5.81Z"/>
        <path class="cls-2" d="M254.72,170.75c-3.83-2.8-7.44-5.12-11.03-7.02-3.58-1.9-7.13-3.34-10.8-4.53-1.13-.39-2.54-.38-3.97-.84-2.88-.84-5.86-1.47-8.82-2.04-2.97-.55-5.92-1.05-8.77-1.65-6.24-1.31-12.65-1.81-18.77-1.74-5.81,.08-11.51-.12-17.25-.04-1.93,.04-3.82,.12-5.93-.3-1.53-.29-4.35-.29-6.41,.34-.4,.12-1.27,.04-1.91,0-.69-.03-1.5-.25-2-.16-5.6,1.07-11.49,.73-17.18,1.36-1.42,.16-2.99,.03-4.15,.7-.3,.17-1.68,.32-2.11,.22-1.12-.26-2.24-.23-3.6-.1-5.86,.59-11.72,1.23-17.56,2.04-2.75,1.12-6.01,1.27-9.06,1.73-2.29,.34-4.6,.48-6.91,.71-2.33,.25-4.71,1.18-7.03,.92-.37-.04-1.21,.33-1.85,.47-2.87,.61-5.82,1.43-8.56,1.77-1.41,.17-2.81,.35-4.19,.66-8.89,2.02-17.67,4.47-26.08,7.84-8.39,3.38-16.44,7.68-23.52,13.25-1.24,.96-2.44,1.86-3.4,3.28-.75,1.11-2.77,3.03-3.86,3.7-.91,.51-1.61,1.19-2.28,1.89-.64,.69-1.2,1.45-1.79,2.2-2.17,2.76-3.99,5.85-5.36,9-.41,.94-.67,1.98-.91,2.96-.25,.99-.47,1.9-.86,2.75-.09,.17-.06,.79,.04,.99,.47,1.02,.81,1.88,1.24,2.69,.39,.69,1.24,1.59,2.14,2.25,.66,.49,1.38,.94,2.15,1.28,.38,.18,.78,.32,1.19,.44,.42,.12,.83,.19,1.15,.18,.48,0,1.1,0,1.59-.36,.22-.15,.4-.22,.67-.41,.26-.19,.55-.34,.79-.52,.24-.19,.49-.35,.71-.52,.21-.18,.42-.34,.62-.47,.81-.61,1.37-1.46,1.76-2.38,.37-.94,.58-1.91,.79-2.94,.47-2.64,.73-5.34,1.14-7.97l.2-.3s.05-.02,.1,0l.13,.06,.25,.13c.33,.18,.65,.37,.96,.56,.62,.39,1.22,.79,1.83,1.21,1.23,.83,2.46,1.87,3.73,2.77,.85,.6,1.72,1.18,2.73,1.43,.5,.11,1.06,.08,1.48-.23,.42-.31,.66-.79,.82-1.28,.17-.49,.24-1,.34-1.5l.31-1.72,.79-4.33c.56-3.08,1.2-6.15,1.96-8.7,.4-1.38,.76-2.78,1.31-4.27l.23-.57c.06-.04,.09,.13,.14,.18,.1,.14,.16,.33,.29,.42,.24,.19,.47,.39,.81,.37,.81,2.21,1.62,4.42,2.43,6.64,.81,2.07,1.68,4.04,2.44,6.09,.17,.44,.35,.88,.54,1.32,.15,.37,.31,.74,.46,1.1,.27,.69,.45,1.4,.43,2.1,0,.28,.42,1.38,.7,1.77,.94,1.47,1.29,3.15,1.5,5.17,.1,.97,.12,1.98-.06,3.04-.05,.32-.11,.65-.05,.97,.02,.16,.06,.32,.12,.48,.04,.14,.12,.34,.22,.59,.18,.47,.45,1.32,.22,2.17-.2,.81-.72,1.4-.94,1.7-1.15,1.48-2.27,2.98-3.38,4.5-2.2,3.03-4.32,6.12-6.3,9.24-.87,1.36-1.76,2.69-2.67,4l-1.39,1.95c-.25,.33-.45,.63-.73,.98-.28,.35-.56,.7-.86,1.01-1.17,1.28-2.42,2.32-3.51,3.36-1.09,1.02-2.03,2.12-2.22,2.99-.13,.56-.13,1.04,.15,1.83,.31,.79,.75,1.47,1.39,1.91,1.25,.83,3.19,.69,4.98,.07,.53-.19,1.12-.36,1.6-.6,.47-.23,.9-.55,1.17-1.03,.32-.47,1.28-1.54,1.81-1.98,1.86-1.37,2.84-3.95,4.42-6.09,1.44-2.05,2.71-4.43,4.17-6.72,.73-1.15,1.51-2.3,2.41-3.4,.91-1.09,1.93-2.17,3.31-2.99l1.67-1,.38,1.89c.44,2.22,.26,4.26-.02,6.25-.26,1.83-.43,3.92-1.51,5.32-.14,.19-.23,1.25-.38,1.91-.14,.7-.26,1.59-.52,2.06-1.22,2.12-2.23,4.33-3.45,6.52-.29,.55-.63,1.09-.97,1.63-.28,.51-.56,.91-.72,1.44-.37,1-.55,2.1-.55,3.2-.02,1.33,.2,2.68,.67,3.91,.47,1.22,1.22,2.34,2.2,2.97,.48,.34,1.03,.47,1.59,.52,.28,.02,.57-.05,.86-.06,.33-.05,.7-.15,1.05-.22,1.42-.31,2.81-.62,4.09-1.08,1.28-.46,2.39-1.14,3.39-2.06,.98-.91,1.91-2.03,2.71-3.14,.77-1.09,1.26-2.22,1.04-3.39-.17-1.19-.88-2.49-1.37-3.93-.59-1.6-1-3.26-1.1-4.89-.06-.77-.11-1.51-.13-2.32-.02-.99,0-2.01,.09-3.02,.32-3.94,1.05-7.53,2.26-10.38,.4-.98,.87-2.1,1.39-3.11,.29-.51,.55-.98,.87-1.38,.16-.2,.31-.39,.46-.54,.04-.08,.07,.05,.11,.07l.1,.15c.07,.1,.14,.22,.2,.34,.05,.13,.09,.26,.13,.38,.28,.91,.88,2.38,1.07,2.64,.85,1,1.65,3.9,2.59,7.23,.45,1.58,.88,3.34,1.55,4.8l.22,.4c.06,.11,.12,.23,.2,.31,.15,.18,.28,.38,.43,.53,.17,.13,.32,.28,.5,.38,.2,.08,.38,.17,.57,.23,.46,.1,.88,.06,1.43-.09,.61-.17,2.14,.03,3.23-.23,1.91-.44,3.81-1.27,5.17-2.49,.65-.6,.95-1.39,1.21-2.04,.52-1.28,.31-2.66-.59-3.93-.9-1.31-2.39-2.51-3.94-3.89-1.58-1.44-3.09-3.07-4.33-4.84-1.24-1.77-2.29-3.66-3.18-5.59-2.69-5.93-3.9-12.18-5.05-18.23l4.5-.11c-.22,1.93-.44,3.87-.32,5.75,.09,1.88,.35,3.73,.9,5.45,.56,1.72,1.39,3.3,2.49,4.7,2.18,2.8,5.44,4.76,9.02,6.09,2.72,1.02,5.92,1.17,8.5,2.48,2.81-.12,5.18,.44,7.59,1.24,.35,.12,1.25-.07,1.92-.1,1.04-.04,2.07-.26,3.13-.31,.56-.02,.98-.04,1.48,.04,.51,.06,1.04,.19,1.59,.44,.08,.04,.37-.01,.55,0,1.87,.12,3.15-.95,5.58-.44,1.52,.3,3.94,.02,5.97-.08,2.09-.09,4.2-.19,6.27-.42,2.13-.23,4.5,.07,6.46-.82,.32-.14,1.93,.27,2.86,.16,1.19-.13,2.4-.21,3.61-.27,1.21-.06,2.45-.08,3.57-.22,1.14-.12,2.3-.21,3.38-.57,1.1-.31,2.18-.64,3.15-1.25,.45-.26,1.05-.5,1.68-.71,.62-.23,1.24-.48,1.78-.6,3.86-1,6.93-3.34,9.99-6.05,4.04-3.62,8.06-7.86,12.46-11.22,.94-.71,1.4-.99,1.95-2.08,.36-.72,1.31-1.67,2.04-2.49,2.4-2.65,4.82-5.29,7.3-7.91l2.84,2.28c-2.42,3.6-4.91,7.19-7.67,10.64-1.4,1.72-2.87,3.41-4.54,4.97-1.67,1.56-3.59,3-5.81,3.99-1.7,.77-3.55,1.02-5.26,1.08-1.63,.04-3.25,.12-4.91,.47-1.37,.29-3.05,.16-4.07,.95-.15,.11-.68,.26-.94,.26-.47,0-.98,.05-1.25,.09-.16,.03-.32,.06-.47,.12-.15,.06-.26,.19-.39,.28-1.14,.93-2.27,2-3.19,3.07-.46,.53-.88,1.08-1.22,1.58-.18,.25-.31,.5-.4,.67-.1,.2-.18,.41-.24,.63h0c-.1,.55-.27,1.29-.17,1.94,.03,.69,.27,1.52,.68,1.98,1.77,1.8,4.35,2.71,6.87,2.33,.64-.09,1.23-.26,1.87-.49,.32-.12,.65-.28,1-.44l1.18-.57c1-.48,2.03-.89,3.06-1.1,1.03-.22,2.07-.24,3.1-.17,1.41,.09,2.76,.45,3.93,.93,1.17,.48,2.29,1.03,3.18,1.95,.15,.11,.27,.54,.32,.87-.03,.33-.18,.55-.31,.69-.64,.65-1.36,1.11-1.99,1.81l-.56,.6c-.2,.23-.45,.56-.78,.86l-.89,.92c-.26,.29-.44,.55-.67,.83l-.32,.41c-.08,.13-.1,.22-.15,.33l-.26,.64-.49,1.33c-.32,.9-.68,1.84-1.14,2.75-.46,.94-.92,2.01-1.54,2.99-.65,.96-1.44,1.85-2.44,2.22-.23,.12-.87,.73-1.28,1.09-.71,.61-1.4,1.31-2.21,1.68-.19,.09-.38,.18-.57,.27-.6,.23-1.14,.62-1.58,1.32-.44,.67-.69,1.54-.7,2.33,0,2.13,.15,4.27,.91,6.13,.44,1.03,.75,2.14,1.49,2.72,.42,.34,.98,.5,1.53,.47l.68-.04c.26,0,.46-.05,.69-.08,.75-.11,1.34-.33,1.82-.82,.47-.5,.66-1.03,.96-1.79,.61-1.63,.16-3.53,1.59-5.42,.55-.73,.87-1.48,1.17-2.34,.29-.85,.56-1.74,.97-2.55,.41-.8,.97-1.6,1.51-2.33,.42-.56,.98-1,1.32-1.54,.34-.55,.93-1.36,1.47-2.11,.55-.76,1.11-1.53,1.72-2.45,.82-1.2,2.39-2.31,3.7-3.38,.05,0,.09,0,.13,.1l.11,.19c1,1.71,1.9,3.24,2.67,5,.2,.43,.33,.93,.49,1.4,.16,.48,.32,.96,.41,1.44,.11,.48,.23,.95,.36,1.4,.09,.4,.17,.75,.28,1.11,.94,3.09,1.04,6.35,.88,9.51-.18,3.14-.67,6.32-.98,9.29-.06,.72-.03,1.49-.01,2.18,.03,.69,.04,1.28-.09,1.87-.07,.23,.24,.85,.5,1.08,.82,.7,1.82,1.12,3.07,1.44,1.26,.34,2.51,.49,3.47,.3,.96-.19,1.65-.7,2.18-1.71,.52-1.11,1.02-2.46,1.18-3.78,.57-3.82-.22-7.7-.94-11.8-.7-3.99-1.79-8.2-2.76-12.33-.81-3.37-1.31-6.95-.66-10.55,.33-1.75,.47-3.55,1-5.33,.53-1.75,1.54-3.51,3.08-4.56,2.02-2.5,4-5.07,6.06-7.58,1.74-2.11,3.28-4.48,5.49-6.14,.8-.6,2.01-2.06,2.57-3.01,.44-.77,.93-1.48,1.46-2.17,.27-.34,.55-.68,.82-1,.23-.29,.46-.56,.71-.84,.94-1.13,1.9-2.34,2.87-3.67,.47-.63,.66-1.66,1.08-2.48,1.29-2.48,2.56-5.19,4.38-7.71,.96-1.31,2-2.59,3.19-3.79l5.23-5.25-.75,7.4c-.75,7.39-2.6,14.2-4.1,20.79-.18,.74-.21,1.53-.26,2.3-.02,.38-.03,.76-.07,1.11-.03,.34-.11,.78-.13,.74-.13,.19-.23,.43-.32,.7-.05,.08,0,.12,.05,.15l.14,.11c.1,.07,.21,.14,.32,.2l.18,.09c.09,.04,.05,.03,.3,.12,.39,.14,.79,.27,1.19,.38,.8,.23,1.62,.41,2.44,.54,1.62,.26,3.28,.31,4.58,.07,.63-.1,1.22-.33,1.42-.47,.23-.12,.4-.33,.53-.56l.16-.42c.07-.16,.12-.33,.18-.5,.12-.34,.22-.68,.32-1.03,.58-2.07,.72-4.43,.69-6.89-.02-2.48-.22-5.03-.17-7.81,.07-2.76,.43-5.58,1.43-8.38,.5-1.39,1.18-2.78,2.11-4.06,.92-1.28,2.1-2.44,3.47-3.33l2.55-1.66,1.42,2.7c1.2,2.28,1.68,4.77,1.78,7.08,.09,1.82-.6,3.56-.5,4.35,.29,2.52-.54,5.12-.29,6.96,.2,1.67,.25,3.2,.43,4.62,.09,.7,.23,1.37,.42,2.01,.09,.32,.21,.62,.35,.91,.14,.27,.24,.49,.43,.72,.48,.65,1.06,1.36,1.78,1.87,.71,.5,1.57,.74,2.21,.46,.19-.06,.56-.03,.74,.03,.39,.14,.75,.09,1.08-.11,.37-.23,.57-.56,.73-.94,.16-.38,.24-.88,.29-1.45,.05-.57,.08-1.2,.09-1.9-.3-1.29-.78-2.66-1.34-3.97-.15-.34-.26-.57-.52-1.22-.35-.81-.53-1.6-.79-2.41-.45-1.61-.75-3.22-1.01-4.78-.46-3.12-.6-6.02-.5-8.51,.1-2.51,.47-4.54,1-6.25,.24-.82,.42-1.75,.66-2.73,.13-.08,.26-.15,.39-.22,.33-.17,.72-.39,1.08-.4l.48-.03c.17,0,.48-.06,.7-.08,.49-.08,.95-.06,1.31,0,.73,.1,1.17,.32,1.56,.52,.76,.42,1.29,.83,2.03,1.42,.37,.32,.8,.68,1.34,1.33,.53,.64,1.2,1.62,1.93,3.34,.73,1.7,1.42,4.15,2.1,6.23,.35,1.02,.69,2.01,1.1,2.75,.05,.09,.11,.18,.16,.26l.14,.11s.06,.08,.1,.1c.08,.06,.15,.12,.23,.19,.79,.66,2.19,1.28,3.98,1.43,.9,.08,1.87,.02,2.87-.03,.5-.02,1.01-.04,1.52-.03h.36c.07,.03,.08,.05,.13,.06l.26,.14c.25,.14,.63-.05,.78-.26,.22-.28,.33-.59,.39-.88,.05-.3,.08-.59,.11-.95,.04-.52,.06-.94,.08-1.24-.04-.54,.04-1.02,.33-1.4,.41-.54,1.24,.02,2.27,.79,.98,.73,1.91,1.75,2.24,3.05,.35,1.29-.11,2.85-1.35,3.81-.95,.75-2.22,1.12-3.46,1.37-1.36,.26-2.21,.4-3.1,.82-.29,.13-1.23,.17-1.74,.1-1.78-.25-3.69-.35-5.61-.89-.95-.26-1.9-.64-2.74-1.2-.42-.27-.82-.57-1.16-.92-.24-.25-.41-.45-.56-.75-.46-.88-.79-1.85-1.09-2.77-.3-.93-.57-1.83-.85-2.89-.24-.9-.47-1.53-.73-2.3-.27-.78-.56-1.7-1.15-3.56-.2-.62-.46-.88-.86-.87-.2,0-.45,.07-.72,.24-.13,.08-.27,.17-.4,.27-.07,.05-.13,.09-.2,.13-.02,.08-.04,.16-.06,.24-.26,.73-.37,1.5-.46,2.24-.23,2-.17,3.87-.11,5.66,.08,1.88,.42,3.97,.95,5.92,.14,.49,.29,.97,.46,1.43,.08,.24,.18,.46,.27,.69l.36,.83c.51,1.17,.92,2.38,1.22,3.63,.3,1.25,.48,2.55,.45,3.9-.03,1.34-.28,2.74-.95,4.05-.66,1.31-1.76,2.42-3.1,3.1-1.35,.7-2.94,.86-4.35,.6-2.09-.1-4.04-1.06-5.58-2.42-.77-.69-1.46-1.49-2-2.41-.55-.95-.91-1.88-1.19-2.85-1.08-3.92-.55-7.73-.36-11.24,.15-2.36,.34-4.61,.25-6.76-.08-2.15-.46-4.16-1.36-5.85l3.02,.79c-2.49,1.61-3.91,4.72-4.37,8.07-.21,1.55-.31,2.83-.54,4.27-.15,.92-.26,1.99-.23,3.01,.13,3.93,.62,8.15-.42,12.43-.19,.77-.37,1.51-.64,2.38-.32,.98-.95,1.87-1.76,2.46-.82,.6-1.74,.88-2.51,.85-.33,.01-1.38,.27-1.84,.43-1.9,.67-3.95,.61-5.89,.28-.98-.17-1.94-.42-2.89-.7-.47-.14-.94-.3-1.41-.46-.21-.07-.51-.17-.81-.29-.3-.11-.59-.22-.88-.34-.9-.36-1.72-.8-2.5-1.28l-.58-.38c-.07-.02-.06-.08-.04-.15l.03-.18,.06-.37c.08-.5,.18-1,.3-1.5,.61-2.42,1.05-4.68,1.18-6.52,.08-1.34,.36-2.47,.61-3.7,1.04-5.08,3.35-10.06,3.06-15.03,.25-.51,.44-1.06,.6-1.65l2.96,1.41c-1.7,1.21-2.91,3.3-3.79,5.12-1.09,2.25-2.11,4.59-3.36,6.96-1.22,2.35-2.75,4.75-4.7,6.81-3.45,3.68-6.77,7.64-9.93,11.71-1.52,1.97-3.37,3.72-5.01,5.66l-1.29,1.54-.32,.39-.26,.36-.53,.72c-.61,1.02-1.16,2.08-1.5,3.23-.38,1.21-.99,2.67-.45,3.77,.04,.08,.04,.31,.01,.44-.22,1.37-.47,2.82-.33,4.23,.13,1.27,.67,2.39,.98,3.64,.35,1.52,.72,3.11,1.08,4.67,.37,1.53,.93,3.19,.69,4.6,.96,1.09,1.05,3.03,1.38,4.67,.32,1.55,.52,3.16,.63,4.81,.13,1.84,.12,3.74-.1,5.64-.22,1.91-.76,3.83-1.45,5.65-.19,.59-.54,1.4-.99,2.1-.47,.72-1.06,1.43-1.82,2-.75,.57-1.62,.99-2.49,1.25-.88,.25-1.73,.33-2.55,.33-.86,0-1.65-.13-2.42-.29-.77-.17-1.44-.37-2.23-.67-1.5-.56-3.19-1.66-4.3-3.31-.69-1.02-1.11-2.18-1.29-3.23-.19-1.06-.2-2.04-.15-2.97,.05-.92,.19-1.79,.32-2.61l.38-2.26c.2-1.25,.15-2.33,0-3.55-.18-1.63-.75-3.63,.16-5.62,.18-.4,.1-1.81-.1-2.56-.4-1.73-1.02-4.22-1.11-4.18-.16-.38-.3-.85-.56-1.27-.4,.27-.84,.74-1.09,1.28-.02-.02-.1,.07-.18,.15l-.23,.23-.43,.49c-.28,.33-.54,.68-.8,1.03-.5,.71-.95,1.47-1.37,2.25-.41,.78-.8,1.59-1.18,2.42-.19,.42-.37,.84-.56,1.26-.2,.44-.28,.72-.43,1.08-.25,.76-.46,1.55-.65,2.47l-.32,1.52-.23,.92c-.13,.42-.25,.82-.43,1.24-.7,1.75-2.06,3.22-3.8,3.95-.85,.37-1.84,.62-2.55,.69-.39,.05-.79,.11-1.08,.1l-1.12,.03c-1.45-.02-2.85-.46-3.98-1.25-.57-.39-1.08-.84-1.54-1.36-.45-.51-.74-.95-1.03-1.42-.93-1.6-1.4-3.15-1.72-4.68-.3-1.54-.43-3.06-.36-4.61,.07-1.55,.33-3.14,1.02-4.78,.34-.81,.81-1.64,1.5-2.43,.7-.8,1.57-1.45,2.54-1.88,.53-.27,1.11-.5,1.57-.8,1.14-.65,1.83-1.67,2.97-2.16,.27-.1,.79-.96,.95-1.53,.31-1.02,.62-2.04,.93-3.06,.18-.55,.35-1.1,.58-1.68,.11-.29,.21-.57,.34-.87l.35-.81,.18-.34c.06-.1,.11-.17,.17-.25,.1-.18,.32-.27,.54-.39l.73-.35c.25-.14,.58-.27,.77-.54,.13-.31-.08-.54-.31-.67-.24-.14-.56-.21-.88-.24-.65-.05-1.32,.05-1.84,.23-.39,.14-.7,.32-.99,.49l-.22,.12-.73,.37c-.53,.26-1.11,.53-1.77,.78-1.38,.48-2.85,.78-4.34,.77-1.49-.02-2.96-.3-4.35-.81-1.04-.86-1.98-1.36-2.83-1.89-.44-.23-.84-.48-1.22-.71-.39-.22-.73-.45-1.01-.69-1.52-1.23-2.49-3.09-2.71-5.46-.02-.43-.09-.87-.05-1.28l.04-.63,.07-.76c.13-.65,.28-1.29,.55-1.9,.11-.3,.28-.62,.44-.91,.14-.27,.27-.5,.41-.72,.55-.9,1.06-1.64,1.53-2.39,.67-1.12,2.64-2.73,3.62-3.17,.24-.12,.36-.15,.69-.39,.19-.14,.37-.28,.55-.39,.09-.06,.17-.12,.26-.17h0s0,0,0,0c-.03-.05,.05,.07,.04,.06h0s0,0,0,0h.02s.03-.03,.03-.03l.06-.04,.12-.08c.32-.24,.68-.35,1-.54,.34-.16,.7-.28,1.09-.43,.27-.1,.56-.21,.89-.34,1.71-.64,3.45-.14,5.45-.45,1.06-.16,2.2-.41,3.31-.54,1.09-.14,2.29-.13,2.97,.14,.14,.04,.66-.03,.85-.17,1.35-.77,2.61-1.26,4.01-2.04,1.38-.77,2.8-1.8,3.89-3.22,3.87-3.53,7.13-8.21,10.24-12.86l4.7,3.78c-4.07,4.31-7.93,8.92-12.21,13.23-3.44,3.46-7.35,6.53-10.9,9.94-3.72,3.58-8.19,6.62-13.21,8.62-1.24,.52-2.56,.87-3.84,1.3-1.3,.35-2.64,.59-3.96,.88-1.34,.18-2.69,.31-4.03,.47l-3.72,.28c-2.1,.18-4.49,.72-6.45,.05-.27-.09-1.24-.01-1.65,.11-3.1,.95-6.19,.93-9.4,.63-.78-.07-2.22,.03-2.68,.25-1.29,.62-2.85,.48-4.28,.53-1.73,.06-4.03-.34-5.08-.06-2.2,.63-3.76-.12-5.28-.36-1.01-.14-2.15-.07-3.23-.06-.51,0-1.17,.19-1.46,.11-3.32-.96-6.82-.36-10.21-1.33-.72-.2-1.51-.37-2.21-.62-3.93-1.47-5.79-2.52-7.91-3.65-1.05-.58-2.17-1.22-3.54-2.19-1.36-.97-3.02-2.31-4.72-4.6-.42-1.57-1.31-2.93-1.99-4.49-.39-.76-.63-1.57-.88-2.38-.16-.82-.3-1.65-.21-2.47,.12-1.19-.08-3.39-.18-4.82-.16-1.41-.1-2.81,0-4.22l1.12-16.35,3.94,16.23c1.08,4.47,1.65,9.05,3.22,13.17,.42,1.09,.12,2.18,1.19,3.35,.39,.43,.64,2.42,1.31,3.5,.91,1.56,1.71,3.4,3.38,4.31,.68,.38,1.56,1.6,2.6,2.44,1.37,1.18,2.69,2.58,4.4,4.37,.47,.48,1.09,1.54,1.38,2.81,.3,1.26,.15,2.63-.12,3.47-.59,1.74-1.58,3.11-2.6,4.16-1.03,1.06-2.12,1.87-3.21,2.58-2.19,1.41-4.52,2.44-7.05,2.93-.71,.14-1.41,.24-2.2,.23-.74,0-1.81-.15-2.81-.61-.05-.03-.13-.08-.21-.12-1.5-.69-2.85-2.35-3.47-3.58l-.12-.24c-.05-.09-.02-.06-.04-.1l-.05-.12c-.03-.08-.06-.16-.1-.23-.08-.13-.14-.24-.23-.27-.3-.09-.39-.2-.46-.45-.07-.24-.11-.62-.18-.87-.08-.25-.16-.54-.31-.83l-.06-.11c-.02-.07-.04,.04-.06,.05-.04,.07-.09,.13-.13,.2-.08,.14-.15,.28-.21,.44-.12,.31-.22,.66-.26,1.03-.07,.61-.16,1.07-.18,1.64v.85c0,.59,0,1.24,.02,1.81,.05,.9,.26,1.69,.67,2.53,.26,.52,.55,1.08,.84,1.66,.33,.68,.78,1.54,1.08,2.86,.32,1.29,.29,3-.21,4.37-.25,.64-.54,1.28-.89,1.74-.17,.24-.34,.5-.52,.7-.18,.19-.36,.38-.55,.55-.37,.41-.73,1.64-1.36,2.39-1.16,1.38-2.69,2.88-4.63,3.95-1.94,1.08-3.86,1.55-5.47,1.93l-2.37,.52c-.25,.05-.69,.1-1.03,.14-.37,.03-.72,.08-1.1,.06-.38-.03-.77-.08-1.15-.14l-.57-.1c-.18-.05-.36-.12-.54-.18-.36-.13-.72-.27-1.07-.43-.34-.16-.62-.37-.93-.56-.64-.39-1.09-.85-1.56-1.32-.49-.47-.78-.97-1.16-1.47-.32-.5-.57-1-.84-1.51-.2-.47-.34-.97-.46-1.48-.08-.5-.13-1.01-.2-1.5-.04-.49-.07-.97-.17-1.42-.08-.46-.17-.9-.38-1.33-.4-.93-.2-1.95,.11-2.88,.13-.46,.31-.92,.43-1.36,.11-.45,.15-.89,.12-1.38,0-.14,.14-.67,.45-1.27,.17-.3,.36-.62,.55-.91,.09-.14,.18-.27,.27-.4,.05-.06,.1-.12,.14-.17,.98-1.05,1.87-2.57,2.61-4.12,.75-1.56,1.36-3.23,1.86-4.91,.5-1.68,.92-3.4,1.2-5.07,.28-1.66,.46-3.33,.42-4.69,.02-.38-.1-.62-.13-.94l5.18,2.24c-.56,.38-1.26,1.12-2.22,1.44-.91,1.73-2.27,3.5-3.61,5.47-.67,.98-1.33,1.99-1.96,3.06-.31,.54-.64,1.1-.95,1.68-.22,.45-.4,.93-.54,1.44-.9,1.21-1.62,2.77-2.7,4.39-1.06,1.6-2.7,3.34-4.81,4.02-.33,.13-.81,.38-1.31,.63-.47,.22-.89,.41-1.25,.46-1.16,.18-2.03,.64-3.14,.99-1.08,.32-2.5,.6-4.3-.25-1-.47-2.49-1.27-3.61-2.52-.28-.31-.56-.62-.78-.96-.25-.33-.46-.67-.63-1-.09-.17-.19-.33-.28-.52-.08-.21-.17-.42-.25-.63-.07-.21-.15-.42-.22-.62-.05-.23-.09-.46-.13-.69-.08-.42-.12-.84-.08-1.29,.01-.44,.05-.88,.16-1.28,.09-.42,.21-.83,.37-1.17,.15-.36,.31-.73,.49-1.01,.72-1.24,1.54-2.11,2.3-2.86,1.67-1.64,3.27-2.89,4.29-4.16,.23-.26,.58-.74,.89-1.14l.94-1.24c.62-.83,1.23-1.68,1.81-2.53,2.36-3.48,4.3-7.17,7.02-10.58,.29-.37,.68-1.08,.68-1.3-.05-1.86,1.76-3.26,2.91-4.24l.18-.16,.09-.08,.02-.02h.01s.12,.08,.12,.08h.01s.12,.11,.12,.11c.16,.13,.33,.25,.51,.35l.26,.15c.05,.04,.11,.07,.17,.1,.12,.06,.24,.12,.38,.16,.06,.03,.12,.05,.19,.07,.1,.02,.09,.02,.09,.02,0,0,.05,0-.06,0-.1,0-.1,0-.26,.03-.19,.02-.37,.06-.55,.11l-.59,.15-.32,.09c-.08,.02-.02,0-.03,.02,.02,.02,0-.04,0-.06,0-.02-.02-.07-.04-.14l-.08-.21c-.07-.18-.19-.5-.27-.77-.18-.56-.29-1.14-.33-1.73-.03-.59,.04-1.17,.13-1.75,.13-.72-.03-1.92-.28-3.13l-.21-.94-.27-.97c-.17-.64-.39-1.31-.6-1.96-.31-.96-.75-1.93-1.14-2.92l-.14-.37s-.02-.07-.02-.1c0-.06-.01-.13,0-.21,0-.16,.04-.36,.11-.68,.08-.39-.22-.97-.4-.98-.31-.04-.46-.09-.59-.34-.06-.1-.11-.24-.16-.41l-.07-.26c0-.08-.03,0-.05,.02-.02,.03-.03,.06-.05,.09-.12,.24-.21,.53-.26,.94-.07,.56-.17,.94-.27,1.39-.04,.18,.03,.42,.06,.59,.08-.1-.1,.94-.48,1.7l-.15,1.5c-.1,.63-.24,1.39-.37,2.09-.3,1.4-.89,2.61-1.77,3.55-.86,.96-2.16,1.58-3.45,1.73-1.29,.14-2.63-.1-3.96-.69-.66-.29-1.32-.64-1.96-1.05l-.5-.32-.53-.36-.05-.04-.21-.19-.24-.22-.14-.11-.07-.05s-.01,.04-.02,.05c-.04,.16-.06,.36-.07,.56v.22s-.02,.05-.02,.05v.03s-.04,.19-.04,.19l-.18,.88c-.29,1.25-.68,2.58-1.31,3.91-.65,1.33-1.53,2.64-2.63,3.76-.57,.51-1.14,1.07-1.78,1.47-.32,.21-.59,.42-.99,.65l-1.36,.72-.56,.21-.14,.05c-.07-.06-.1,0-.15,0l-.29,.08c-.38,.15-.79,.14-1.19,.17-.4,0-.8-.03-1.2-.07-.4-.07-.8-.15-1.19-.24-.9-.25-1.33-.43-1.87-.65-.51-.22-1-.44-1.46-.69-.93-.48-1.8-1-2.65-1.58-.86-.6-1.67-1.19-2.59-2.1-.54-.49-1.23-1.41-1.6-2.06-.41-.7-.73-1.45-.95-2.21-.43-1.51-.4-2.96,.02-4.08,.14-.44,.34-2.19,.33-2.7-.12-1.44,0-2.53,1.02-3.72,.18-.22,.53-1.38,.71-2.01,.48-1.75,1.27-3.13,2.44-4.53,.91-1.08,2.06-2.55,2.75-3.73,.46-.79,.93-1.57,1.46-2.33,.53-.78,1.1-1.46,1.66-2.12,1.15-1.31,2.47-2.48,4.04-3.41,.39-.22,.93-1.43,1.56-1.93,2.37-1.95,4.61-4.22,7.45-5.47,1.15-.52,2.57-1.68,3.91-2.45,2.3-1.3,4.29-2.92,6.87-4.01,2.61-1.09,5.3-2.55,8.01-3.72,2.71-1.16,5.46-2.2,8.23-3.17,2.77-.98,5.56-1.85,8.36-2.66,2.8-.82,5.62-1.56,8.44-2.25,2.82-.69,5.65-1.34,8.47-1.94,2.83-.61,5.66-1.17,8.49-1.71,1.98-.39,3.84-.62,5.89-.69,5.24-.17,11.4-1.29,18.95-2.93,.54-.12,1.14-.16,1.71-.24,7.43-.98,14.89-1.92,22.34-2.33,3.27-.17,6.56-.08,9.91-.33,2.18-.19,4.31-.17,6.47-.74,1.8-.5,4.38,.09,6.48-.68,.77-.28,2.83-.35,3.87-.15,3.45,.63,7.02,.2,10.53,.27,4.03,.05,8.07,.1,12.1,.15,1.98,.02,3.95,.31,6-.18,1.01-.24,3.4,.06,4.85,.4,2.23,.5,4.49,.59,6.62,.62,4.59,.09,4.58,.01,9.02,1.04,.53,.13,1.11,.21,1.67,.29,5.6,.87,11.21,2.32,16.61,3.62,4.5,1.06,8.82,2.67,13.01,4.77,.84,.39,1.75,.8,2.59,1.28,.84,.47,1.6,1.01,2.06,1.74,.13,.21,1.03,.73,1.46,.89,3.7,1.34,6.86,4.11,9.97,6.49,3.03,2.31,6.13,4.03,8.97,6.66,2.65,2.46,5.5,4.77,8.23,7.11,4.15,3.54,4.78,4.58,3.46,6.17-1.07,1.29-2.4,.72-6.01-1.88-7.63-5.53-14.29-12.2-20.55-16.43Z"/>
      </g>
      <g>
        <path class="cls-3" d="M71.03,99.45c-44.41,113.03,28.39,106.27,49.41,111.21,5.58,1.31,11.28,2.22,16.94,1.63,4.13-.43,8.18-1.66,12.17-2.96,12.51-4.09,87.44-20.44,53.47-109.88"/>
        <path class="cls-1" d="M212.33,127.89c.25,1.32,.37,2.67,.49,4.02l.38,4.03c.06,1.35,.08,2.7,.12,4.06,.04,1.35,.1,2.7,0,4.06-.06,1.01-.13,2.02-.19,3.05-.03,.51-.02,1.03-.04,1.55-.02,.52-.02,1.05,.03,1.59,.05,.53-.13,1.27-.34,2.11-.22,.83-.44,1.76-.66,2.67l-.78,3.73c-.27,1.24-.71,2.44-1.06,3.66l-.56,1.82-.7,1.78c-.49,1.17-.88,2.39-1.44,3.53-1.99,4.53-4.54,8.82-7.59,12.74-.79,.94-1.53,1.94-2.41,2.82-.87,.89-1.73,1.78-2.6,2.66-.91,.84-1.81,1.67-2.7,2.5-.89,.83-1.82,1.58-2.69,2.39-3.07,2.73-6.36,4.47-9.68,6.49-3.51,2.17-7.32,4.15-11.1,5.54-2.77,.99-5.52,1.88-8.24,2.89-1.69,.65-3.22,1.42-5.11,1.99-1.74,.52-3.83,.88-5.09,1.84-.1,.08-.92,.24-1.34,.3-1.99,.28-4.32,.98-5.92,1.61-1.56,.61-3.03,.87-4.59,1.09-4.32,.6-8.68,.33-12.81-.4-1.55-.27-3.07-.64-4.57-1.04l-1.12-.3-1.06-.26c-.69-.18-1.42-.33-2.15-.46-3.05-.55-6.46-.7-9.35-1.36-2.9-.67-5.71-1.05-8.58-1.61-1.64-.28-3.48-.97-4.94-.72-.14,.03-.74-.14-1.01-.25-4.43-1.83-9.21-2.43-13.59-4.78-4.46-2.39-8.89-5.31-12.49-9.11-.91-1.06-1.78-2.25-2.88-3.02-.37-.29-1.22-1.5-1.54-2.14-.22-.43-.45-.86-.68-1.3-.2-.45-.4-.9-.62-1.34-.42-.89-.9-1.76-1.34-2.64l-1.15-2.74-.57-1.37c-.15-.47-.28-.94-.41-1.41-.29-1.08-.6-2.14-.92-3.21-.25-1.08-.44-2.17-.66-3.26-.5-2.17-.56-4.4-.6-6.62-.04-.94,.02-2.04-.02-3.19-.04-1.15-.16-2.34-.44-3.46-.27-1.04,.14-3.16,.16-4.77,.04-1.32-.17-2.62,.02-3.9,.13-1.1,.46-2.18,.69-3.28,.07-.33,.12-.73,.13-1.06,0-1.61,.29-3.17,.55-4.73,.27-1.56,.59-3.12,.92-4.67,.84-3.05,1.65-6.11,2.39-9.21,.82-3.08,1.61-6.21,2.6-9.27,1.03-3.05,2.04-6.1,3.13-9.11,1.27-3.29,2.7-6.65,4.44-8.53,.79-.85,1.23-.68,.97,.82-.19,1.1-.45,2.34-.84,3.53-.61,1.9-1.22,3.8-1.81,5.65-.57,1.94-1.04,3.9-1.58,5.85-.52,1.96-1.17,3.9-1.82,5.88-.43,1.23-.6,2.76-1.31,3.67-.1,.13-.28,.63-.32,.88-.82,5.52-2.53,11.02-3.4,16.59-.73,4.74-.68,9.38-1.09,14.14,.09,.66,.18,1.34,.27,2.04,.08,.7,.13,1.41,.15,2.12,.05,1.42-.02,2.85,.08,4.16,.05,1.16,.11,2.32,.18,3.48,.12,1.15,.35,2.29,.53,3.43l.3,1.71,.47,1.66,.48,1.66c.17,.55,.3,1.12,.55,1.64,1.55,4.34,4,8.27,6.95,11.71,3.01,3.5,6.76,6.35,10.88,8.54,4.13,2.21,8.61,3.8,13.2,5.01,1.56,.44,3,.42,4.81,1.06,1.71,.57,4.04,.81,6.11,1.13,1.9,.29,3.93,.46,5.72,.83,3.72,.8,7.53,1.24,11.42,2.11,3.68,.85,7.39,1.45,11.06,1.65,3.66,.22,7.26-.19,10.86-1.13,1.8-.45,3.59-1.01,5.38-1.6,1.81-.61,3.68-1.17,5.45-1.75,4.38-1.41,8.57-3.17,12.84-4.83,1.82-.72,3.58-1.8,5.53-2.21,.28-.06,.79-.37,1.36-.74,.57-.39,1.2-.84,1.75-1.14,2.74-1.48,5.39-3.12,7.98-4.85,3.54-2.46,6.89-5.21,9.88-8.29,.87-.97,1.78-1.91,2.55-2.96,.76-1.05,1.58-2.06,2.33-3.11,.77-1.12,1.54-2.24,2.31-3.36,.7-1.17,1.41-2.33,2.13-3.48,.77-1.54,1.66-3.02,2.38-4.58l1.03-2.37,.51-1.19c.16-.4,.27-.82,.41-1.23,.52-1.72,1.11-3.46,1.4-5.26,.36-1.78,.78-3.52,1.06-5.23,.73-3.14,.9-6.38,1.01-9.6l-.13-4.85c-.05-1.61-.29-3.22-.41-4.84l-.21-2.41-.38-2.39c-.26-1.59-.49-3.19-.79-4.78l-1.1-4.72c-.19-.79-.36-1.57-.57-2.35l-.71-2.32c-.54-1.75-.95-3.46-1.34-5.17-.48-1.68-.96-3.35-1.56-5.05-.56-1.58-.13-4.17,.5-3.67,.12,.1,.29,.33,.42,.58,.8,1.61,1.57,3.16,2.37,4.76,.39,.81,.78,1.64,1.13,2.51,.32,.89,.62,1.82,.9,2.81l1.25,4.39c.4,1.47,.7,2.97,1.05,4.45,.32,1.49,.75,2.96,.97,4.47l.75,4.52Z"/>
      </g>
      <g>
        <path class="cls-3" d="M208.99,116.71c11.07-.59,22.18-.4,33.23,.57,8.4,.74,17.82,2.57,22.39,9.65,2.3,3.56,2.97,7.94,2.91,12.17-.1,8.39-2.9,16.72-7.86,23.48-1.93,2.63-4.32,5.78-3.09,8.8,.43,1.06,1.26,1.89,2.11,2.66,3.67,3.34,7.99,5.95,12.65,7.65,2.27,.83,4.68,1.47,6.54,3.01,1.86,1.53,2.99,4.31,1.8,6.41-1.44,2.54-5.33,2.5-7.75,.85s-3.85-4.35-5.65-6.65c-3.35-4.27-8.06-7.24-12.66-10.12-1.44-.04,2.85,18.56,7.62,26.56,1.22,2.05,2.59,4.65,1.27,6.64-.54,.8-1.42,1.29-2.3,1.68-4.92,2.18-12.02,1.15-13.78-3.94-1.34-3.88,1.11-3.78,2.37-7.69,2.18-6.78-2.66-23.25-3.48-24.43-1.67-.09-7.98,11.44-8.31,18.36s3.79,14.6,1.08,21.11c-2.71,3.66-5.69,2.28-10.84,2.98-1.27,.17-4.18-2.25-4.67-5.24-.29-1.79,3.78-7.78,4.27-9.53,2.84-10.3,7.07-22.49,.67-34"/>
        <path class="cls-1" d="M228.84,200.52l-.41,1.47c-.06,.21-.23,.71-.33,.93-.12,.29-.24,.53-.37,.78-.49,.97-1,1.85-1.48,2.75-.49,.89-.96,1.77-1.37,2.63-.21,.43-.38,.86-.53,1.26-.05,.17-.14,.4-.15,.51-.03,.09-.01,.16-.02,.24,.2,1.17,1.2,2.68,2.34,3.43,.46,.29,.54,.34,.75,.33l.54-.05,.63-.05,1.26-.1c.83-.07,1.66-.16,2.43-.34,.53-.14,1.27-.09,1.97-.15,.7-.05,1.39-.22,1.95-.78,.18-.18,.38-.39,.53-.6,.09-.1,.06-.09,.19-.45,.22-.55,.32-1.15,.44-1.74,.2-1.2,.19-2.47,.1-3.76-.2-2.6-.85-5.27-1.37-8.05-.26-1.35-.49-2.75-.6-4.19-.07-.72-.07-1.46-.08-2.2,.02-.76,.09-1.51,.2-2.23,.45-2.89,1.34-5.56,2.41-8.16,.76-1.8,1.64-3.55,2.67-5.26l.47-.77c.23-.37,.47-.71,.72-1.06,.49-.69,1.01-1.33,1.54-1.79,.53-.49,1.06-.76,1.57-.85,.26-.05,.54-.12,.87-.15l.69,.03c.55,1.07,1.13,2.15,1.55,3.55l.34,1,.26,.83c.12,.38,.25,.76,.37,1.14,1.39,4.37,1.78,8.49,2.23,12.92,.18,2.37,.32,4.84-.49,7.56-.41,1.29-1.16,2.6-1.89,3.54-.35,.47-.61,.83-.71,1.04-.1,.21-.15,.36-.14,.7,0,.47,.2,1.2,.4,1.7,.11,.27,.26,.52,.41,.78,.19,.23,.34,.49,.58,.69,.86,.87,2.1,1.48,3.47,1.7,1.71,.28,3.38-.05,5.16-.49,.42-.11,.84-.23,1.25-.39,.43-.14,.84-.34,1.13-.53,.6-.39,.65-.77,.45-1.12-.03-.03,.09-.41,.09-.74,.04-.73-.33-1.76-.87-2.7-.25-.45-.59-.98-.9-1.48-.31-.49-.59-.95-.85-1.36-1.03-1.59-1.62-3.12-2.24-4.72-1.67-4.39-3-8.84-3.97-13.42l-.25-1.3-.3-1.83c-.23-1.6-.42-3.29-.07-4.31,.17-.51,.41-.86,.72-1.16,.08-.08,.17-.15,.29-.23,.14-.1,.24-.11,.32-.12l.52-.09c.13-.07,.46,.05,.72,.09,.28,.08,.52,.08,.82,.21l1.99,1.29c1,.66,2.02,1.33,3.04,2,.77,.53,1.55,1.06,2.3,1.64,1.51,1.13,2.92,2.4,4.03,3.77,2.32,2.75,3.75,5.75,5.81,7.6,.29,.27,.6,.53,.91,.76,.29,.2,.61,.4,.96,.52,.69,.27,1.45,.29,1.97,0,.1-.05,.56-.07,.75-.08,.86,0,1.51-.39,1.79-1.07,.28-.65,.14-1.58-.34-2.4-.24-.41-.55-.79-.89-1.11-.33-.31-.75-.59-1.22-.86-.92-.53-2.02-.94-3.22-1.41-1.22-.48-2.62-.97-3.95-1.56-1.33-.58-2.64-1.22-3.92-1.93-2.55-1.41-4.98-3.1-7.16-5.03-.57-.51-1.19-1.11-1.79-1.85-.61-.72-1.17-1.65-1.6-2.58-.07-.17-.15-.44-.23-.77-.04-.33-.11-.73-.08-1.12,0-.81,.22-1.56,.39-2.03,1.05-2.46,2.51-4.17,3.75-5.9,1.2-1.63,2.22-3.39,3.17-5.15,2.18-4.04,3.34-8.52,4.31-13.04,.42-1.91,.67-4.67-.02-6.93-.28-1.03-.36-3.21-.9-4.71-.43-1.24-1.13-2.27-1.78-3.29-.27-.44-.56-.87-.81-1.35-.31-.43-.58-.9-.94-1.31-.22-.24-.51-.51-.76-.71-2.56-1.77-5.45-3.11-8.63-4.07-3.17-.97-6.54-1.56-10.01-1.78-7.02-.45-14.14-.81-21.21-.86-3.9-.03-7.91-.05-10.62-.89-1.22-.38-1.26-.85,.4-1.22,1.22-.27,2.62-.52,4.03-.61,2.25-.15,4.5-.31,6.69-.39,4.56-.18,9.12-.52,13.84,0,1.47,.16,3.21,.01,4.39,.54,.16,.07,.76,.15,1.05,.14,6.29-.17,13.14,.99,19.15,4.29,2.55,1.38,4.89,3.31,6.65,5.74,1.74,2.46,2.73,5.38,3.02,8.31,1.01,3.16,.78,6.98,.18,10.13-1.06,5.56-2.96,10.92-5.8,15.78-.7,1.22-1.49,2.39-2.3,3.54-.79,1.1-1.55,2.13-2.12,3.16-.58,1.03-.93,2.04-.93,2.86,.03,.82,.3,1.44,1.09,2.27,.38,.41,.88,.85,1.36,1.28,.49,.42,.99,.84,1.5,1.24,1.02,.8,2.08,1.54,3.19,2.23,2.2,1.37,4.55,2.5,7,3.36,1.24,.44,2.6,.87,3.99,1.5,1.37,.64,2.82,1.49,3.97,2.89,1.08,1.35,1.85,3.04,1.79,5.03-.03,.98-.35,2.02-.92,2.87-.56,.87-1.39,1.56-2.28,1.98-1.21,.57-2.37,.8-3.55,.78-1.17-.02-2.39-.28-3.6-1.04-2.27-1.43-4.13-3.72-5.5-5.67-.64-.9-1.26-1.73-1.93-2.49-.67-.77-1.36-1.5-2.02-2.21-1.37-1.47-2.95-2.8-4.65-4.02l-1.6-1.13-.45-.3-.23-.14c-.09-.1-.15,.06-.14,.13-.2,.22,1.12,5.83,2.22,9.59,1.16,4.02,2.51,8.05,4.35,11.71,.82,1.73,2.39,3.57,2.79,6.31,.09,.69,.06,1.47-.18,2.23-.24,.75-.69,1.46-1.24,1.99-.54,.53-1.13,.89-1.68,1.18-.54,.29-1.1,.49-1.66,.73-2.76,.96-5.74,1.22-8.69,.46-1.46-.39-2.93-1.08-4.16-2.19-1.24-1.08-2.13-2.69-2.51-4.21-.15-.68-.33-1.42-.25-2.34,.06-.92,.47-1.85,.86-2.43,.8-1.18,1.31-1.72,1.91-2.49,.41-.43,.44-2.19,.49-3.49,.12-3.26-.33-6.75-.99-10.15-.32-1.67-.7-3.33-1.12-4.98l-.33-1.23-.2-.7c-.05-.15-.09-.31-.15-.45-.03-.2-.2-.05-.27,.05-.09,.11-.16,.22-.22,.33l-.04,.08-.21,.38-.5,.94c-.32,.64-.62,1.29-.91,1.95-.57,1.32-1.09,2.67-1.57,4.02-.5,1.41-.95,2.85-1.27,4.26-.16,.7-.29,1.41-.36,2.08-.07,.65-.08,1.36-.07,2.06,.09,3.62,1.1,7.51,1.54,11.73,.21,2.19,.29,4.6-.33,6.98-.07,.3-.19,.58-.28,.88l-.18,.51c-.08,.19-.12,.46-.31,.62-.35,.43-.49,.62-.72,.87-.24,.23-.46,.48-.73,.69-1.04,.89-2.44,1.45-3.65,1.6-1.39,.17-2.59,.1-3.71,.1-.56,0-1.11,0-1.65,.02l-.8,.04-.88,.08c-1.06,.15-2.18-.44-2.75-.86-.66-.46-1.2-.98-1.7-1.54-.49-.57-.91-1.19-1.26-1.87-.18-.34-.32-.7-.46-1.06l-.18-.56-.14-.65-.02-.81c.04-.28,.09-.54,.14-.75,.11-.4,.23-.77,.37-1.11,.27-.68,.56-1.3,.86-1.9,.6-1.2,1.25-2.34,1.87-3.46l.63-1.17c.09-.18,.2-.39,.27-.55l.12-.26,.07-.18,.76-2.63c.51-1.76,1-3.51,1.45-5.27,.88-3.5,1.55-7.03,1.69-10.54,.09-3.94,.14-7.64-1.28-11.27-.17-.42-.26-.91-.33-1.4-.1-.48-.15-.96-.15-1.38-.01-.85,.15-1.47,.52-1.22,.14,.1,.36,.34,.53,.61,.28,.44,.55,.87,.82,1.29,.24,.45,.47,.9,.71,1.35,.51,.89,.84,1.85,1.24,2.82,.66,1.97,1.19,4.12,1.2,6.53,.14,7.11-1.81,13.85-3.62,20.31Z"/>
      </g>
      <g>
        <path class="cls-3" d="M60.48,116.15c-10.78,2.03-21.36,5.18-31.49,9.37-6.03,2.49-12.36,5.81-15.01,11.77-3.03,6.82-.18,14.86,3.95,21.08,4.14,6.21,9.59,11.64,12.52,18.51-4.17,4.89-8.97,9.25-14.25,12.92-1.88,1.31-4.15,2.58-6.33,1.91-2.02-.62-3.91-2.81-5.79-1.86-.85,.43-1.28,1.38-1.58,2.28-.9,2.78-.93,6.04,.77,8.41,1.71,2.37,5.5,3.27,7.64,1.29-2.32,3.81-2.17,8.97,.37,12.64,.58,.84,1.31,1.63,2.27,1.98,1.72,.62,3.61-.35,5.02-1.53,3.55-2.98,5.72-7.55,5.78-12.19,.39,2.46,3.59,3.08,6.08,3.12,2.99,.04,6.96-.78,7.15-3.77,.08-1.35-.74-2.55-1.25-3.8-1.7-4.15,.52-9.46,4.67-11.17"/>
        <path class="cls-1" d="M37.46,205.53c-.97,.79-2.01,1.19-3.01,1.46-1,.27-1.99,.39-2.97,.44-.99,.04-1.96,.02-2.96-.11-.5-.06-1-.16-1.52-.29-.26-.07-.51-.14-.78-.24l-.2-.07c-.06-.03-.12-.07-.18-.12-.13-.11-.26-.29-.31-.41-.01-.03-.02-.05-.02-.07,0,0,0-.01,0-.01l.02,.1c.03,.16,.07,.35,.14,.55,.15,.44-.24-.17-.42,.64,0,.03-.03,.13-.07,.25l-.1,.33c-.07,.22-.13,.44-.22,.65-.15,.43-.32,.85-.51,1.27-.38,.83-.81,1.63-1.32,2.39-1,1.53-2.23,2.89-3.65,4.09-.73,.59-1.52,1.13-2.48,1.53-.95,.39-2.13,.65-3.38,.39-1.26-.25-2.29-1.01-2.99-1.76-.71-.77-1.22-1.53-1.67-2.37-.89-1.66-1.34-3.54-1.43-5.39-.06-.93-.01-1.85,.09-2.76l.08-.64v-.17c.02-.11,0-.13-.02-.17-.04-.05-.05-.08,0-.15,.04-.06,0-.02,0-.02-.01,0-.03,0-.05,0l-.21-.05h-.04s-.24-.05-.24-.05c-.19-.03-.39-.05-.58-.1-.39-.08-.78-.19-1.16-.32-.84-.29-1.64-.71-2.36-1.29-.72-.56-1.36-1.35-1.78-2.1-.89-1.55-1.21-3.29-1.14-4.85,.05-1.15,.28-2.24,.57-3.28,.16-.53,.31-1.02,.51-1.56,.21-.54,.45-1.12,.88-1.72,.34-.47,.79-.92,1.32-1.23,.63-.37,1.36-.57,2.14-.55,.79,.03,1.4,.23,1.94,.48,.7,.34,1.25,.76,1.77,1.05,.51,.29,1,.44,1.34,.27,.06-.02,.27,.12,.41,.22,.31,.21,.81,.24,1.31,.1,.5-.14,.98-.45,1.33-.77,.68-.63,1.38-1.11,2.18-1.68,2.13-1.57,4.19-3.23,6.2-4.96,1.51-1.29,3.06-2.52,4.47-3.93,.37-.36,.72-.76,1.07-1.15l.51-.61c.09-.11,.06-.09,.09-.14,.02-.03,.04-.06,.05-.08-.02-.03-.03-.06-.03-.1-.02-.06,.02-.02-.04-.16-.09-.22-.18-.44-.25-.66-.63-1.78-1.63-3.32-2.7-4.87-.61-.88-1.16-2.04-2.14-2.43-.09-.04-.33-.36-.41-.54-1.31-2.9-4.01-4.75-5.73-7.57-1.79-2.89-3.6-5.96-4.74-9.34-.31-.9-.42-1.91-.99-2.7-.2-.28-.42-1.28-.37-1.8,.06-1.38,.08-2.77,.15-4.18,.08-1.41,.33-2.85,.79-4.2,1.11-3.04,2.95-5.93,5.6-7.67,1.11-.74,2.57-1.68,3.64-2.91,.49-.59,1.9-1.1,2.85-1.64,.79-.44,1.47-1.02,2.28-1.39,.69-.31,1.46-.42,2.19-.62,.22-.06,.47-.16,.66-.27,3.73-2.14,7.97-2.88,11.98-4.32,4.04-1.46,8.27-2.56,12.49-3.46,2.33-.5,4.77-.84,6.53-.18,.79,.29,.88,.76-.05,1.23-.68,.34-1.46,.69-2.27,.92-1.29,.35-2.57,.76-3.81,1.13-2.59,.78-5.05,1.9-7.79,2.44-.86,.17-1.75,.71-2.57,.5-.11-.03-.47,.04-.62,.13-3.33,1.76-7.11,2.61-10.62,4.04-3,1.23-5.61,2.89-8.42,4.22-1.21,1.31-2.85,2.3-4.17,3.28-2.35,1.69-4,4.14-4.63,6.88-.61,2.76-.26,5.72,.53,8.57,.84,2.91,2.23,5.71,3.94,8.31,1.74,2.62,3.76,5.14,5.75,7.76,.68,.89,1.51,1.48,2.1,2.7,.56,1.14,1.62,2.38,2.4,3.65,.36,.58,.74,1.17,1.08,1.77,.18,.3,.34,.6,.48,.91l.21,.46c.05,.12,.16,.35,.26,.63l.61,1.57,.15,.38c0,.06,.09,.13,.04,.18l-.15,.16-.58,.62-1.11,1.18-.69,.7-2.76,2.79c-1.86,1.85-3.77,3.65-5.83,5.27-1.03,.8-2.07,1.58-3.13,2.34-1.05,.73-2.14,1.53-3.44,2.18-1.27,.64-2.86,1.18-4.61,.92-.88-.13-1.66-.48-2.28-.8-.63-.33-1.18-.66-1.67-.9-.39-.2-.75-.32-.98-.34-.17-.02-.29,.03-.39,.11-.1,.1-.13,.14-.28,.43-.13,.27-.25,.65-.36,1.09-.23,.86-.37,1.74-.44,2.61-.09,1.14,.37,2.12,.32,3.21,0,.16,.19,.42,.45,.66,.26,.25,.55,.41,.77,.6,.5,.41,1.12,.74,1.77,.89,.16,.05,.33,.07,.5,.09h.06s.11,0,.16,0l.35-.04,.35-.04,.18-.02c.08-.05,.19-.13,.28-.19l1.13-.81,.31-.22,.47-.37,.94-.73,5.2-4.12-1.31,2.48-.39,.8-.02,.07v.04s0,0-.07,.11l-1.23,2.21-1.31,2.4c-.24,.41-.4,.77-.56,1.12-.16,.35-.36,.73-.48,1.06l-.25,.93c-.03,.13-.1,.35-.11,.42l-.03,.23c-.05,.31-.08,.62-.09,.93-.03,.63,0,1.26,.09,1.87,.21,1.52,.95,2.87,1.78,4.03,.43,.62,.9,1.03,1.18,1.15,.26,.12,.57,.16,1.12,.01,.7-.2,1.52-.66,2.32-1.33,.81-.65,1.55-1.41,2.18-2.27,.65-.89,1.15-1.91,1.54-2.95,.09-.26,.2-.52,.27-.78,.09-.29,.15-.42,.29-1l.18-.71c.07-.21,.09-.57,.14-.85l.13-.87c.04-.29,.06-.62,.09-.92,.15-1.5,.28-3.14,.37-4.22l.03,.25s0,.09,.01,.11l.02,.02s.03,.03,.05,.03l.07-.27c.01-.05,.02-.07,.04-.15l.05-.41,.1-.86,.16-2.13,.08-1.13,.14-2.31,1.69,6.97,.67,2.58,.3,1.15,.08,.29c.02,.09,.05,.22,.07,.21l.1,.14,.39,.54c.07,.07,.13,.21,.2,.23,.07,.03,.13,.06,.23,.09l.2,.07,.42,.12c.58,.15,1.22,.23,1.86,.27,1.3,.07,2.64-.04,3.82-.33,.89-.22,1.68-.6,2.06-1.05,.21-.22,.28-.44,.34-.72,.06-.28,.03-.55-.08-.94-.21-.77-.84-1.7-1.27-3.01-.42-1.26-.55-2.58-.46-3.87,.11-1.47,.62-2.8,1.34-3.96,.72-1.16,1.65-2.16,2.73-3.05,.51-.42,1.34-.58,1.95-.46,.62,.11,.99,.4,.88,.7-.04,.11-.16,.27-.3,.37-.89,.67-1.5,1.53-1.98,2.44-.48,.91-.83,1.89-1.15,2.96-.24,.8-.34,1.63-.29,2.44,.05,.84,.26,1.54,.63,2.35,.37,.84,1.02,1.86,1.17,3.37,.06,.76-.07,1.52-.35,2.25-.32,.72-.82,1.33-1.36,1.79Z"/>
      </g>
      <g>
        <path class="cls-3" d="M198.24,170.82c-6.26-10.28-11.4-21.25-15.27-32.64-3.53-10.36-10.06-20.02-15.18-29.78-.31-.6-.64-1.21-1.18-1.61-.77-.57-.74-15.92-1.7-15.9-9.37,.19-18.7,1.81-27.58,4.81-2.53,.85-5.04,1.82-7.67,2.27-5.65,.96-11.38-.54-17-1.64-5.5-1.08-11.07-1.8-16.66-2.14-.73-.04-2.63,15.27-3.17,15.77-.41,.37-.56,.93-.69,1.47-1.72,6.98-3.12,14.31-3.39,21.51-.22,6.03-2.13,10.42-4.95,15.85-2.96,5.69-6.4,11.14-10.27,16.26-1.3,1.73-12.04,12.03-11.77,13.29,3.04,14.2,6.82,28.24,11.31,42.05,1.32,4.06,3.16,8.59,7.18,10.04,1.02,.37,2.14,.51,3.09,1.04,2.13,1.18,2.84,4.02,2.31,6.39-.82,3.66-4.74,6.63-8.35,5.61-3.61-1.03-5.07-6.66-1.98-8.79-2.42-3.64-8.73-9.43-9.37-9.03-.57,.24-5.68,18.01-3.6,26.96,.42,1.81,1.05,3.61,1.05,5.47,0,4.69-4.85,8.86-9.43,7.84-4.58-1.02-7.15-7.25-4.39-11.04,1.57-2.16,4.31-3.27,5.8-5.48,1.12-1.66,1.4-3.74,1.63-5.74,.74-6.4,1.79-17.88,.51-17.94-2.31,.04-7.34,7.43-11.64,11.8-.99,1-1.99,2.02-2.64,3.27-.73,1.41-.97,3.02-1.61,4.47-1.21,2.76-3.96,8.13-6.97,7.97s-8.06-.53-8.05-7.88c0-2.29,6.21-4.92,7.7-6.65,5.75-6.7,9.24-13.97,15-20.67,1.09-1.27,2.21-2.61,2.55-4.24,.3-1.43-.04-2.91-.42-4.32-2.65-10.09-6.83-19.77-12.36-28.62-1.1-1.76-2.27-3.53-2.76-5.54-.98-4.02,.89-8.13,2.71-11.85,5.02-10.24,10.04-20.47,15.07-30.71,3.46-7.05,6.95-14.19,8.64-21.86,3.9-17.71-2.05-37.05,4.64-53.91,3.18-8,4.47-13.4,4.31-21.96-.14-7.35,.5-15.11,4.81-21.34,4.05-5.85,11.1-9.49,18.22-9.41,13.1,.16,25.45,11.9,37.86,7.69,3.88-1.32,7.07-4.06,10.6-6.14,9.57-5.63,22.97-5.65,30.92,2.1,5.99,5.83,8.23,15.1,8.67,23.21,.5,9.01,5.05,15.56,7.64,24.21,2.63,8.82,3.09,18.13,5.06,27.12,3.77,17.24,16.83,32.28,25.52,47.64,3.8,6.72,6.83,9.68,8.78,16.14,4.01,13.34-1.27,32.68-7.87,44.95-6.41,11.92-20.06,18.76-25.98,30.94-4.32,8.88-3.86,19.26-2.8,29.08,.3,2.74,.66,5.54,1.96,7.97,.95,1.77,2.38,3.28,3.07,5.16,1.41,3.82-1.07,8.58-5,9.62s-8.44-1.88-9.11-5.89c-.55-3.35,1.23-6.58,2.19-9.84,2.24-7.64-.06-15.8-2.35-23.42-.73-.33-8.68,7.41-10.76,12.59-1.36,3.4-1.61,7.2-3.21,10.5-1.59,3.3-5.37,6.1-8.78,4.77-2.99-1.17-4.14-5.03-3.35-8.14,.8-3.11,4.53-3.19,6.68-5.57,5.51-6.11,9.51-14.66,15.02-20.77,0-.59-10.64-1.69-15.57,.09-1.55,.56-2.91,1.59-4.49,2.07-4.38,1.32-9.39-2.99-8.73-7.52s6.69-7.24,10.51-4.73c.89,.59,1.66,1.39,2.67,1.73,1.24,.43,2.6,.09,3.86-.25,2.88-.78,5.77-1.55,8.65-2.33,1.29-.35,2.61-.71,3.68-1.5,1.47-1.07,2.3-2.8,3.07-4.45,5.18-11.1,10.36-22.2,15.54-33.3,.53-1.13,1.07-2.33,1.01-3.58-.07-1.31-.78-2.48-1.46-3.6Z"/>
        <path class="cls-1" d="M175.27,236.5c-1.55,2.33-3.06,4.74-4.67,7.11-.82,1.18-1.64,2.37-2.53,3.52-.43,.58-.91,1.14-1.37,1.71-.52,.57-.87,1.07-1.58,1.74-1.33,1.18-2.81,1.77-3.91,2.4-.55,.31-1.01,.62-1.3,.95-.3,.34-.45,.64-.57,1.13-.52,2.16,.24,4.86,1.88,5.82,.81,.51,1.81,.62,2.81,.35,1.01-.29,2.02-.94,2.85-1.79,.43-.42,.79-.9,1.12-1.4,.33-.49,.57-1.02,.83-1.63,.49-1.18,.83-2.48,1.16-3.83,.33-1.35,.64-2.77,1.09-4.2,.23-.73,.47-1.42,.81-2.18,.33-.72,.7-1.39,1.1-2.04,1.59-2.56,3.46-4.79,5.45-6.92,.37-.4,.76-.78,1.15-1.17l.78-.74c.33-.31,.67-.6,1.01-.89,.68-.56,1.39-1.04,2.01-1.17,.31-.03,.57-.04,.9-.02,.05,0,.09,.04,.14,0l.07,.09,.15,.17,.29,.35c.19,.24,.39,.46,.58,.7l.38,1.3,.64,2.23c.29,1.04,.56,2.1,.82,3.17,1.03,4.26,1.82,8.76,1.49,13.5-.06,1.18-.35,2.6-.8,4.17-.48,1.55-1.17,3.09-1.71,4.65-.54,1.55-.86,3.14-.55,4.56,.29,1.39,1.33,2.74,2.68,3.53,1.84,1.12,4.12,1.17,5.77,.02,1.69-1.14,2.81-3.33,2.69-5.36,0-.51-.14-.99-.28-1.46-.18-.48-.43-.97-.75-1.48-.62-1.02-1.46-2.08-2.19-3.4-1.45-2.69-1.84-5.58-2.14-8.22-.58-5.29-1-10.67-.63-16.11,.37-5.41,1.6-10.95,4.35-15.82,2.61-4.75,6.28-8.66,9.95-12.28,3.68-3.63,7.46-7.04,10.65-10.85,1.56-1.91,3.04-3.88,4.18-6.01,1.17-2.17,2.26-4.44,3.19-6.76,1.93-4.63,3.41-9.45,4.47-14.34,1.06-4.84,1.62-9.83,1.46-14.75-.19-4.91-1.3-9.68-3.69-13.89-1.19-2.12-2.63-4.22-4.01-6.41-.69-1.1-1.36-2.21-2.01-3.33-.63-1.08-1.27-2.16-1.9-3.23-2.59-4.26-5.36-8.38-8.1-12.45-4.74-7.05-9.12-14.02-12.31-21.59-1.6-3.77-2.87-7.7-3.71-11.74-.82-3.99-1.37-7.99-2-12-.66-4.24-1.35-8.47-2.46-12.54-1.06-4.07-2.75-7.95-4.44-12.02-1.69-4.05-3.25-8.43-3.66-13.04-.08-1.08-.16-2.16-.24-3.24-.09-1.03-.2-2.06-.35-3.07-.29-2.03-.7-4.03-1.26-5.96-1.59-5.59-4.59-10.86-9.43-13.77-4.8-2.96-10.87-3.76-16.53-2.68-3.54,.7-6.81,2.01-9.79,3.97-1.52,.98-3.05,2.12-4.76,3.23-1.71,1.09-3.62,2.21-5.88,2.85-4.14,1.27-8.87,.93-12.87-.22-4.05-1.09-7.7-2.57-10.9-3.54-.55-.18-3.68-1.48-5.26-2.08-3.74-1.38-8.08-2.44-12.1-1.75-4.06,.59-7.65,2.61-9.97,4.74-4.57,4.17-6.56,9.56-7.29,15.47-.26,2.04-.35,4.12-.36,6.23,0,2.06,.08,4.35-.03,6.6-.18,4.52-1.09,9.11-2.54,13.35-.35,1.07-.73,2.11-1.12,3.15-.39,1.04-.82,2.08-1.12,3.02-.33,.97-.71,1.92-.93,2.93-.25,1-.56,1.98-.72,3.01-.83,4.06-1.13,8.26-1.22,12.51-.11,6.38,.19,12.86,.03,19.44-.17,6.55-.9,13.34-3.06,19.73-2.16,6.65-5.36,13.01-8.35,19.17-3.01,6.18-5.98,12.23-8.85,17.78-1.43,2.8-2.84,5.56-4.24,8.31-1.38,2.78-2.85,5.43-3.6,8.1-.38,1.33-.56,2.66-.43,3.92,.11,1.26,.55,2.44,1.24,3.68,.67,1.22,1.54,2.52,2.34,3.86,.8,1.33,1.58,2.68,2.32,4.05,1.7,3.12,3.31,6.61,4.73,10.02,1.43,3.4,2.65,6.71,3.77,9.42,.22,.5,.95,3.07,1.22,4.27,.27,1.26,.6,2.72,.39,4.37-.22,1.71-1.09,3.13-1.93,4.2-.43,.55-.87,1.04-1.27,1.51-.39,.46-.79,.91-1.17,1.38-.76,.94-1.5,1.89-2.22,2.88-2.87,3.93-5.38,8.21-8.33,12.33-.74,1.03-1.5,2.05-2.3,3.05-.44,.51-.68,.93-1.42,1.62-.6,.54-1.14,.89-1.69,1.27-1.07,.73-2.11,1.38-3.05,2.06-.45,.34-.91,.68-1.25,1.02-.2,.17-.31,.32-.44,.47-.09,.14-.08,.11-.1,.18,0,.08-.01,0,0,.28,.02,.27,.02,.54,.05,.8l.12,.76c.04,.25,.13,.47,.18,.71,.29,.9,.71,1.62,1.36,2.08,.63,.48,1.5,.81,2.56,.97,.52,.09,1.08,.14,1.69,.17h.23s.04,0,.07,0c.04-.01,.06,.03,.12,0,.05-.02,.1-.02,.16-.04,.07-.04,.13-.07,.21-.1,.63-.33,1.44-1.16,2.09-2.1,.67-.94,1.28-2.01,1.83-3.12,.27-.53,.56-1.16,.76-1.64,.2-.5,.38-1.08,.57-1.72,.2-.64,.41-1.34,.74-2.08,.33-.75,.78-1.46,1.25-2.06,.95-1.22,1.97-2.14,2.8-3.03,.86-.93,1.71-1.91,2.56-2.9l2.57-3.03,1.33-1.53,.7-.76,.41-.42c.21-.22,.43-.44,.64-.64,.43-.4,.88-.75,1.32-1.12,.22-.17,.45-.27,.67-.41,.22-.11,.45-.31,.66-.34,.84-.28,1.71-.5,2.47,.04,.61,.44,.99,1.18,1.17,2.28,.1,.53,.13,1.12,.15,1.72,.01,.3,.02,.6,.01,.9v.8c-.06,2.74-.26,5.4-.49,8.07l-.39,3.99c-.15,1.33-.26,2.62-.51,4.07-.25,1.42-.69,3.01-1.65,4.45-.98,1.43-2.22,2.37-3.26,3.19-1.12,.86-2.12,1.63-2.66,2.47-.52,.79-.79,1.8-.66,2.87,.11,1.05,.51,2.13,1.16,2.95,.64,.83,1.47,1.4,2.28,1.63,.54,.17,1.83,.41,3.21-.13,.69-.25,1.37-.65,1.93-1.12,.57-.46,.99-1,1.31-1.42,.42-.59,.71-1.24,.87-1.91,.1-.34,.11-.66,.14-1.02,0-.37-.02-.76-.08-1.18-.11-.83-.33-1.73-.57-2.71-.25-.96-.47-2.14-.58-3.2-.41-4.32,.07-8.44,.7-12.52,.32-2.04,.72-4.06,1.18-6.07,.23-1.01,.47-2.01,.74-3.01l.2-.75,.26-.89c.27-.89,.55-1.79,.91-2.56l.34-.46c.12-.14,.24-.23,.35-.35,.12-.11,.22-.22,.34-.32,.06-.05,.11-.11,.2-.14h.03s.01-.02,.01-.02c.01,.03-.01-.07,.04,.06l.07-.02,.13-.03,.47-.1c.16,0,.32,.02,.5,.06,.34,.07,.7,.23,1.07,.43,.74,.43,1.47,1.03,2.17,1.63l.65,.58,.58,.53c1.53,1.43,2.96,2.91,4.31,4.53l.53,.65c.24,.32,.5,.64,.72,.97l.68,.98c.21,.32,.49,.68,.62,.97l-1.24,1.05-.32,.27c-.11,.1-.19,.14-.37,.38-.03,.06-.06,.12-.1,.18-.08,.11-.1,.27-.17,.4-.02,.16-.08,.3-.09,.47-.07,.67,.07,1.45,.39,2.12,.71,1.39,1.83,2.03,3.35,1.8,1.47-.19,2.97-1.3,3.81-2.71,.43-.71,.68-1.46,.75-2.25,.07-.79-.06-1.61-.34-2.28-.29-.68-.71-1.13-1.24-1.4-.57-.31-1.65-.45-2.96-.97-1.27-.51-2.41-1.31-3.33-2.23-.92-.93-1.64-1.97-2.24-3.02-1.19-2.12-1.91-4.32-2.56-6.43-.64-2.1-1.27-4.2-1.86-6.32-2.14-7.52-4.89-17.81-7.51-26.83-.28-.96-.59-2.17-.92-3.56-.16-.69-.33-1.43-.5-2.19-.19-.87-.38-1.78-.58-2.71l-.04-.64c.08-.1,.02-.21,.05-.32l.07-.32c.14-.41,.36-.8,.6-1.17l.32-.44,.25-.33,.5-.61c.67-.8,1.36-1.55,2.05-2.29,1.38-1.45,2.74-2.88,3.99-4.19,.94-1,1.87-1.99,2.8-2.98,.45-.49,.91-1,1.28-1.45,.1-.12,.15-.19,.22-.29l.29-.41,.57-.81c1.52-2.17,2.95-4.39,4.37-6.64,2.4-3.83,4.82-7.77,6.84-11.87,.59-1.21,1.2-2.73,1.56-3.97,.45-1.5,.77-3.01,.95-4.55,.1-.77,.15-1.54,.18-2.32,.04-.78,.05-1.7,.11-2.53,.2-3.42,.63-6.81,1.22-10.15,.6-3.36,1.31-6.59,2.16-9.95,.15-.5,.36-1.26,1.07-2.02l.14-.13,.03-.03c2.74,3.01,.72,.79,1.31,1.45-.05-.04-.1-.06-.2-.12-.17-.1-.35-.16-.63-.29-.26-.11-.49-.18-.85-.31-.11-.04-.15-.05-.12-.04h0s0,0,0,0v-.03s.04-.09,.04-.09l.12-.51c.16-.75,.31-1.56,.45-2.37l.84-4.91c.28-1.65,.57-3.3,.92-4.99,.06-.27,.25-1.22,.47-1.93,.23-.75,.56-1.34,1.12-1.71l1-.18c.34-.04,.64-.16,1.05-.09l1.73,.14c3.37,.3,6.74,.73,10.08,1.29,6.73,1.03,13.2,3.25,19.35,2.59,2.73-.26,5.42-1.29,8.34-2.31,2.93-1.01,5.93-1.87,8.96-2.6,3.03-.71,6.11-1.28,9.21-1.68,1.55-.21,3.11-.37,4.67-.5l2.34-.16,1.17-.06,1.98-.06,.82,.23c.27,.1,.57,.09,.77,.34,.41,.39,.66,.93,.81,1.57,.08,.32,.13,.65,.18,.98l.11,.9,.1,1.13c.12,1.49,.2,2.94,.27,4.4l.24,4.33c.08,1.31,.25,3.31,.33,2.95,.63,.67,.96,1.39,1.22,1.86l.79,1.49,1.63,2.98,3.36,5.96c2.25,3.99,4.49,8.04,6.44,12.27,.81,1.73,1.54,3.51,2.22,5.31,.62,1.78,1.23,3.55,1.84,5.3,1.22,3.46,2.52,6.82,3.84,10.02,2.64,6.4,5.35,12.13,7.48,16.74,1.96,4.13,1.54,4.44-1.91-.93-2.5-3.96-5.13-8.67-7.39-13.54-1.8-3.9-3.46-7.86-4.95-11.86-.37-1-.73-2-1.09-2.99-.36-.97-.72-1.94-1.12-2.89-.79-1.91-1.65-3.78-2.58-5.61-1.87-3.75-3.99-7.38-6.14-11.03-1.07-1.83-2.14-3.66-3.22-5.5l-1.58-2.79c-.52-.9-1.06-2.06-1.43-2.41-.23-.2-.45-.4-.59-.65-.14-.26-.23-.54-.3-.84-.14-.68-.16-.95-.21-1.35-.09-.76-.15-1.49-.2-2.22-.09-1.45-.19-2.9-.28-4.36-.09-1.45-.17-2.89-.29-4.31l-.1-1.05-.05-.42c-.02-.1-.03-.21-.08-.3-.07-.07-.2-.02-.3-.03l-1.65,.07-2.32,.15c-1.55,.11-3.1,.27-4.66,.45-2.72,.32-5.64,.9-8.42,1.54-2.78,.64-5.42,1.36-7.65,1.85-.62,.12-2.77,.84-3.81,1.23-1.42,.52-2.89,1.01-4.45,1.35-1.56,.33-3.16,.5-4.74,.51-3.17,.04-6.27-.46-9.27-1.03-3-.58-5.91-1.18-8.89-1.62-2.97-.46-5.96-.81-8.96-1.07l-1.31-.1c-.05,0-.12-.03-.16,.01-.03,.05-.05,.1-.06,.15-.03,.11-.06,.21-.08,.32l-.19,.94-.21,1.11-.39,2.24-.76,4.52c-.27,1.53-.48,2.98-.88,4.64-.03,.12-.06,.23-.11,.38-.02,.07-.06,.17-.11,.28-.05,.11-.06,.14-.18,.31-.04,.06-.08,.11-.12,.16-.08,0,0,.21-.23,.04h.01c.14,.14,.07,.08,.06,.14-.06,.1-.14,.37-.23,.74l-.53,2.21c-.35,1.47-.67,2.95-.97,4.42-.59,2.95-1.09,5.91-1.41,8.88-.13,1.23-.24,2.46-.31,3.68-.04,.61-.06,1.23-.09,1.84-.03,.65-.06,1.31-.12,1.97-.23,2.63-.84,5.23-1.73,7.68-.89,2.45-2,4.75-3.12,6.99-1.14,2.25-2.35,4.46-3.63,6.63-1.28,2.17-2.64,4.3-4.07,6.39-.71,1.04-1.45,2.07-2.2,3.09-.2,.26-.34,.48-.63,.83-.24,.29-.46,.52-.68,.77l-1.31,1.39c-1.73,1.8-3.46,3.6-5.19,5.41-.85,.9-1.7,1.81-2.51,2.72-.4,.45-.79,.92-1.12,1.35l-.21,.29s-.04,.1-.03,.15l.09,.46,.16,.77c2.94,11.01,6.28,23.99,9.58,35.04,.59,1.98,1.2,4.03,1.83,5.94,.63,1.89,1.37,3.7,2.38,5.15,.5,.72,1.07,1.35,1.71,1.82,.32,.24,.65,.44,1,.6,.35,.16,.69,.29,1.17,.42,.47,.14,1.04,.28,1.68,.52,.63,.24,1.35,.62,1.92,1.13,1.17,1.01,1.86,2.35,2.19,3.66,.32,1.32,.36,2.66,.08,3.98-.27,1.32-.85,2.54-1.62,3.58-.77,1.04-1.73,1.94-2.85,2.62-1.12,.68-2.42,1.15-3.82,1.23-.69,.04-1.41,0-2.09-.17-.69-.14-1.43-.46-2.04-.85-1.26-.8-2.11-1.97-2.67-3.21-.54-1.25-.8-2.63-.62-4.06,.12-.72,.31-1.45,.69-2.13l.14-.25,.07-.13s.07-.12,.02-.02c-.04,.07,.02-.01,.02-.01,.03-.04,.07-.07,.11-.1,.06-.05-.05-.12-.08-.17l-.18-.23c-.45-.55-.92-1.09-1.41-1.63-.98-1.07-2.02-2.11-3.09-3.08l-.75-.67-.17-.14c-.06-.04-.12-.09-.18-.13-.05-.02-.15-.11-.18-.02-.06,.13-.1,.27-.14,.41l-.47,1.7c-.74,2.86-1.35,5.77-1.8,8.68-.44,2.91-.75,5.85-.7,8.7,.03,1.42,.15,2.82,.44,4.1,.3,1.35,.82,2.86,1.04,4.61,.05,.44,.09,.89,.09,1.35-.04,.48-.02,.97-.13,1.44-.14,.95-.47,1.84-.86,2.69-.84,1.67-2.09,3.06-3.61,4.1-1.53,1-3.36,1.7-5.32,1.67-.97,.03-1.94-.19-2.89-.5-.91-.37-1.79-.85-2.5-1.49-1.48-1.23-2.47-2.87-3.03-4.64-.55-1.77-.61-3.77,.05-5.65,.3-.79,.73-1.58,1.24-2.23,.51-.64,1.07-1.18,1.62-1.65,1.1-.94,2.16-1.65,2.96-2.4,.82-.75,1.27-1.43,1.62-2.44,.34-.98,.51-2.15,.66-3.42,.3-2.55,.56-5.12,.77-7.67,.1-1.28,.2-2.56,.26-3.83l.08-1.89v-.56s0-.18,0-.18c0-.12,0-.24-.03-.36,0-.17-.18-.11-.27-.05-.1,.06-.19,.14-.28,.23l-.12,.12-.25,.26-.32,.34c-1.68,1.84-3.31,3.87-5.04,5.86-.87,1-1.75,1.99-2.7,2.96-.91,.92-1.71,1.76-2.2,2.61-.48,.8-.76,1.93-1.19,3.28-.48,1.46-1.09,2.62-1.72,3.85-.65,1.21-1.38,2.41-2.3,3.57-.49,.57-.98,1.15-1.66,1.67-.67,.51-1.45,1.03-2.54,1.24-.26,.05-.55,.06-.83,.07-.15,0-.28,0-.34,0l-.25-.02c-.33-.02-.69-.05-1.04-.08-.71-.07-1.46-.2-2.21-.39-1.5-.4-3.14-1.24-4.22-2.64-1.11-1.37-1.62-2.99-1.83-4.48-.06-.38-.11-.76-.12-1.12l-.02-.55c0-.16-.05-.49,.03-.77,.05-.58,.25-1.15,.56-1.65,.34-.52,.59-.79,.9-1.11,1.17-1.12,2.31-1.85,3.43-2.58,1.08-.71,2.25-1.41,2.99-2.04,.2-.14,.69-.78,1.08-1.23l1.18-1.48c.76-1.01,1.52-2.02,2.24-3.07,1.46-2.09,2.87-4.25,4.32-6.43,1.45-2.17,2.95-4.35,4.6-6.45,.79-1.03,1.74-2.12,2.5-3.03,.76-.92,1.31-1.8,1.47-2.59,.25-1.08-.14-2.56-.62-4.19-.45-1.6-.96-3.17-1.49-4.77-1.1-3.19-2.33-6.49-3.88-10.24-1.45-3.53-3.44-7.44-5.82-11.31-1.12-1.91-2.66-3.87-3.52-6.55-.41-1.34-.56-2.76-.49-4.11,.07-1.35,.35-2.62,.71-3.81,.66-2.18,1.62-4.17,2.54-6.07,.92-1.89,1.84-3.79,2.76-5.68,1.84-3.77,3.66-7.48,5.44-10.96,1.84-3.61,3.68-7.23,5.52-10.85,1.82-3.64,3.68-7.25,5.35-10.91,1.66-3.66,3.14-7.38,4.17-11.21,1.01-3.82,1.6-7.76,1.8-11.77,.45-8.02-.2-16.17-.05-24.44,.08-4.13,.4-8.32,1.24-12.45,.16-1.04,.47-2.05,.73-3.08,.14-.51,.25-1.02,.42-1.53l.52-1.5,.53-1.5,.55-1.41c.36-.94,.71-1.88,1.04-2.82,1.32-3.74,2.22-7.55,2.53-11.46,.16-1.96,.19-3.93,.16-5.93-.03-2.06,0-4.14,.15-6.22,.3-4.15,1.08-8.41,2.94-12.32,1.82-3.91,4.77-7.38,8.42-9.71,3.63-2.36,7.89-3.77,12.25-3.87,4.38-.11,8.53,1.05,12.42,2.41,3.9,1.37,7.61,3.03,11.35,4.28,3.72,1.25,7.54,2.15,11.2,1.66,1.13-.07,2.18-.45,3.26-.72,1.04-.37,2.07-.87,3.08-1.44,2.02-1.16,3.97-2.62,6.13-3.99,2.18-1.37,4.56-2.55,7.03-3.37,2.48-.81,5.06-1.32,7.67-1.5,5.2-.37,10.67,.58,15.32,3.38,2.31,1.38,4.4,3.21,6.06,5.32,1.69,2.1,2.96,4.46,3.96,6.89,1.7,4.15,2.7,8.61,3.13,13.08,.2,2.33,.26,4.24,.64,6.26,.35,2,.88,3.97,1.46,5.93,.32,1.12,1.32,3.43,2.55,6.14,1.22,2.71,2.56,5.9,3.31,8.63,1.92,6.73,2.65,13.59,3.72,20.22,.26,1.66,.56,3.31,.89,4.94,.16,.82,.35,1.62,.56,2.41,.22,.79,.37,1.59,.63,2.37,.92,3.15,2.2,6.21,3.59,9.22,3.97,8.34,9.3,16.09,14.44,24.03,1.29,1.99,2.57,3.98,3.81,6.02,1.25,2.01,2.44,4.16,3.6,6.1,1.18,1.98,2.49,3.9,3.78,5.94,1.29,2.03,2.51,4.26,3.39,6.61,1.11,2.84,1.71,5.88,2.03,8.85,.34,2.99,.3,5.97,.09,8.92-.42,5.91-1.67,11.67-3.43,17.3-.95,2.93-2.04,5.83-3.29,8.67-.65,1.41-1.3,2.82-2.03,4.2-.33,.69-.76,1.39-1.17,2.09l-.62,1.04-.68,.99c-3.64,5.3-8.31,9.45-12.61,13.56-2.74,2.61-5.4,5.21-7.64,8.06-2.24,2.85-4.04,5.92-5.19,9.3-2.31,6.79-2.25,14.34-1.59,21.8,.41,3.92,.57,7.87,2.45,10.67,.48,.76,1.09,1.57,1.68,2.52,.59,.94,1.16,2.07,1.42,3.38,.51,2.56-.16,5.14-1.53,7.18-1.35,2.04-3.63,3.66-6.25,3.97-2.58,.31-5.07-.56-6.96-2.05-.95-.75-1.77-1.68-2.39-2.76-.62-1.06-1-2.34-1.1-3.53-.2-2.42,.49-4.55,1.13-6.38,.63-1.72,1.27-3.25,1.63-4.81,.37-1.57,.56-3.2,.59-4.85,.06-3.31-.5-6.67-1.31-10.01-.2-.84-.42-1.67-.65-2.51l-.35-1.27-.11-.39c0-.09-.12-.01-.16,0-.06,.03-.11,.07-.17,.11-.11,.08-.21,.17-.31,.26l-.38,.36c-2.41,2.36-4.7,5-6.41,7.8-1.7,2.64-2.07,6.05-3.12,9.61-.27,.89-.59,1.79-.99,2.67-.41,.9-.96,1.79-1.6,2.57-1.28,1.55-2.94,2.88-5.09,3.47-1.06,.29-2.26,.34-3.39,.06-1.12-.26-2.19-.88-3-1.67-1.64-1.62-2.34-3.77-2.42-5.83-.03-1.06,.06-2.05,.41-3.17,.18-.58,.51-1.14,.88-1.63,.39-.47,.83-.88,1.26-1.19,.88-.64,1.74-1.04,2.48-1.43,.75-.39,1.4-.77,1.9-1.21,.13-.1,.23-.23,.35-.34,.12-.13,.27-.31,.4-.46,.27-.32,.56-.62,.82-.96,.54-.65,1.06-1.32,1.56-2,1.01-1.37,1.99-2.78,2.94-4.22,1.92-2.88,3.77-5.87,5.86-8.76,.26-.36,.52-.72,.8-1.08l.4-.52c.18-.23,.36-.44,.56-.66,.09-.06-.02-.11-.08-.12-.07-.02-.14-.04-.21-.05-.14-.03-.28-.05-.43-.07-.36-.04-.31-.05-1.4-.12-1.69-.1-3.39-.12-5.06-.03-1.66,.1-3.34,.28-4.76,.75-1.35,.4-2.75,1.52-4.8,2.17-1.07,.31-2.2,.36-3.27,.2-1.08-.16-2.07-.56-2.98-1.07-1.8-1.05-3.27-2.66-4.01-4.69-.8-2-.59-4.5,.56-6.35,1.12-1.88,2.91-3.16,4.87-3.84,.99-.32,2.04-.49,3.11-.48,1.07,.04,2.16,.29,3.16,.77,1.06,.51,1.77,1.2,2.35,1.58,.6,.41,.91,.5,1.53,.51,.6,0,1.34-.18,2.16-.41l2.52-.69c1.91-.52,3.8-1.02,5.67-1.53,.95-.25,1.83-.47,2.56-.78,.74-.31,1.27-.66,1.77-1.22,1-1.09,1.72-2.85,2.56-4.56,.82-1.7,1.64-3.4,2.45-5.09,3.27-6.77,6.52-13.49,9.79-20.49,.76-1.63,1.66-3.38,2.57-5.03,.92-1.69,1.87-3.09,1.89-4.38,.03-1.31-.52-2.45-.65-3.05-.16-.61-.05-.74,.42-.16,.34,.45,1.12,1.46,1.39,2.82,.21,1.1-.04,2.2-.38,3.13-.35,.94-.74,1.77-1.1,2.63-.74,1.71-1.47,3.42-2.2,5.12-1.47,3.4-2.94,6.8-4.43,10.27-1.5,3.46-3.05,6.98-4.68,10.61-.82,1.81-1.66,3.66-2.52,5.55-.43,.93-.85,1.91-1.45,2.95-.58,1.02-1.37,2.11-2.52,2.94-1.73,1.22-3.52,1.51-5,1.94l-4.64,1.24-2.32,.62c-.77,.2-1.53,.44-2.47,.61-.91,.16-2.03,.24-3.17-.14-1.14-.39-1.9-1.06-2.5-1.51-.3-.23-.57-.43-.81-.55-.24-.16-.52-.25-.79-.35-.56-.15-1.16-.26-1.79-.2-1.23,.09-2.52,.58-3.48,1.39-.99,.79-1.62,1.89-1.76,3.02-.08,.57,.01,1.15,.16,1.73,.19,.57,.47,1.13,.84,1.64,.77,1.01,1.86,1.83,3.04,2.19,.59,.19,1.19,.28,1.77,.22,.57-.04,1.11-.19,1.76-.49,.63-.29,1.31-.68,2.08-1.07,.76-.39,1.7-.76,2.56-.98,1.74-.44,3.42-.59,5.09-.68,1.67-.08,3.32-.06,4.98,.04l.62,.04,.81,.06c.64,.05,1.34,.14,1.99,.23,.63,.11,1.29,.23,1.76,.45,.51,.2,.74,.52,.96,.82,.06,.08,.12,.15,.17,.28,.06-.01-.11,.06,.13-.02v.02s0,.04,0,.04v.07s-.02,.14-.02,.14l-.06,.56-.06,.56s-.04,.1-.1,.17l-.17,.2-.34,.4-1.35,1.61-.94,1.23c-.93,1.26-1.83,2.55-2.7,3.88Z"/>
      </g>
      <path class="cls-1" d="M40.91,144.73c.04,.24,.05,.48,.14,.71,.03,.09-.17,.21,.3,.23,.23,.01-.29,.18-.26,.26,.1,.21,.05,.45,.13,.66,.08,.21,.3,.4,.38,.61,.08,.21-.14,.46,.16,.64,.26,.15-.15,.37-.03,.53,.13,.17,.22,.36,.03,.56-.14,.15-.31,.29-.21,.41,.07,.08,.34,.13,.33,.22-.01,.08-.23,.2,.31,.23,.05,0-.05,.05-.12,.07-.34,.12-.31,.22-.07,.28,.24,.06,.21,.12,.23,.19,.04,.18,.08,.37,.03,.56-.03,.14-.23,.29-.27,.43-.05,.15,.21,.29-.05,.44-.26,.15-.24,.27-.23,.4,0,.07-.24,.17,.3,.21,.05,0,.05,.03,0,.05-.7,.23,.23,.42,.06,.64-.18,.23-.04,.45-.02,.68,0,.06-.15,.12,.24,.18,.14,.02,.15,.08,.05,.11-.54,.17-.21,.34-.3,.52-.11,.19,.14,.4-.28,.58-.18,.08-.28,.19,.22,.3,.23,.05,0,.14,.04,.21,.04,.06,.27,.13,.28,.18,0,.05-.2,.09-.3,.14-.03,.01-.03,.03,0,.05,.56,.31-.22,.56-.08,.86,.14,.3,.06,.59-.04,.87-.06,.16-.23,.31-1.21,.34-.44,.01-.91-.03-1.19-.11-.2-.06-.39-.13-.44-.19-.09-.09-.18-.19-.26-.28-.15-.19-.59-.39-.34-.55,.08-.05-.18-.13,.26-.15,.06,0,.09-.02,.06-.04-.67-.28-.2-.5-.24-.75-.04-.21-.57-.43-.33-.63-.53-.13-.44-.26-.27-.37,.58-.39,.2-.81,.28-1.21,.08-.41,0-.83,.01-1.24,0-.07-.31-.12-.07-.21,.22-.08,.04-.18,.04-.27,0-.08-.12-.16,.01-.25,.55-.35,.19-.66,.23-.99,.04-.33,.07-.66-.1-.97-.1-.19-.42-.36-.32-.56,.04-.09-.26-.15,.24-.28,.14-.04-.25-.08-.28-.13-.06-.13-.04-.27-.06-.4-.02-.19,0-.38-.08-.56-.05-.11-.27-.19-.33-.3-.07-.11-.08-.23-.05-.35,.04-.16,.2-.33,.23-.49,.03-.16-.23-.29-.02-.47,.39-.35,.12-.59,.12-.87,0-.28-.01-.57-.17-.82-.09-.14,.3-.37,.27-.52-.02-.07,1.2-.42,1.63-.48,.08-.01,.17-.02,.2-.01,.42,.07,1.06,.1,1.05,.29,0,.28,.09,.54,.14,.81Z"/>
      <path class="cls-1" d="M238.22,137.19c-.09,.22-.21,.43-.26,.66-.02,.09-.26,.08,.12,.35,.19,.14-.34,0-.36,.07-.03,.23-.21,.39-.25,.62-.05,.22,.02,.49-.02,.71-.05,.22-.38,.29-.23,.61,.12,.27-.33,.21-.32,.41,0,.21-.03,.41-.3,.46-.19,.04-.42,.05-.41,.21,0,.1,.21,.31,.14,.37-.06,.06-.3,.02,.11,.36,.04,.03-.07,0-.14-.01-.34-.11-.38,0-.22,.18,.16,.19,.1,.22,.07,.29-.07,.17-.16,.34-.31,.46-.11,.09-.35,.09-.48,.18-.13,.09-.02,.35-.3,.31-.29-.04-.35,.06-.43,.17-.04,.06-.29-.02,.11,.35,.04,.03,.02,.05-.03,.04-.69-.26-.06,.45-.31,.5-.26,.05-.28,.29-.37,.45-.03,.04-.19,0,.11,.26,.1,.09,.09,.14,0,.11-.52-.19-.32,.11-.47,.17-.16,.07-.03,.32-.45,.24-.18-.03-.32,0,.11,.29,.19,.13-.04,.08-.01,.15,.02,.05,.22,.18,.22,.21,0,.03-.2-.02-.3-.03-.03,0-.04,0-.01,.03,.48,.33-.28,.23-.16,.41,.13,.16,.06,.24-.01,.35-.05,.07-.19,.12-1.15,.37-.43,.11-.89,.22-1.18,.19-.21-.02-.41-.05-.47-.12-.1-.1-.23-.2-.31-.31-.18-.22-.62-.51-.36-.75,.08-.07-.16-.2,.28-.2,.06,0,.1-.02,.07-.04-.61-.45-.08-.71-.03-1,.05-.26-.34-.72-.01-.87-.42-.37-.25-.49-.04-.54,.74-.16,.66-.74,.99-1.08,.32-.33,.52-.72,.79-1.02,.05-.05-.16-.28,.07-.2,.22,.07,.14-.11,.19-.17,.05-.06,0-.19,.15-.17,.64,.08,.53-.37,.75-.59,.22-.22,.43-.45,.47-.78,.03-.2-.14-.51,.05-.61,.08-.04-.13-.26,.35-.08,.14,.05-.16-.2-.15-.26,.03-.13,.11-.23,.17-.34,.08-.15,.2-.29,.24-.47,.02-.11-.12-.3-.12-.42,0-.12,.05-.22,.15-.3,.12-.1,.34-.14,.45-.25,.11-.11-.04-.35,.23-.38,.51-.06,.41-.39,.56-.62,.15-.22,.28-.45,.27-.74,0-.16,.45-.14,.49-.28,.02-.06,1.24,.28,1.64,.45,.08,.03,.15,.07,.18,.1,.32,.28,.85,.63,.75,.79-.16,.23-.21,.5-.31,.74Z"/>
      <path class="cls-1" d="M117.48,38.04c.07,.01,.12,.06,.18,0,.01,0,.06-.26,.08-.26,.04,.02,.13-.21,.12,.09-.01,.33,.02,.38,.11,.18,.08-.19,.11-.12,.16-.17,.02-.02,.04-.07,0,.23-.03,.21-.02,.24,.07-.13,.02-.07,0,0,0,.04,0,.04-.03,.2-.02,.15,.16-.57,.11-.12,.18-.25,.02-.03,0,.14,.09-.24,.02-.1,.04-.11,.02-.02-.04,.24-.05,.29-.04,.29,.05,0,.09,.01,.13,.02,.14-.49,.11-.26,.13-.25,.02,0,0,.18-.01,.28,0,.1,.09-.21,0,.23-.01,.07,.02-.06,.03-.07,.03-.03,.09-.18,.07-.02-.01,.08-.02,.17-.01,.17,.12,.04,.25,.08,.38,.1,.01,0,0,.06,.1-.22,.07-.22,.1-.22,.04,0-.09,.36-.03,.22-.03,.24,.01,.04,.06,0,.07,.04,0,.03,.1-.21-.04,.28-.01,.05,0,.05,0,0,.16-.47,.06-.07,.05,0,0,.05,.01,.04,.1-.18,.08-.22,.11-.25,.05,0-.08,.33-.04,.23-.02,.24,.08,.05,.16,.09,.25,.09,.04,0,.23-.41,.21-.23,0,.04,.07-.13-.04,.21-.02,.07,0,.03,.03-.05,.11-.3,.09-.18,.09-.16,.04,.08,.03,.28,.18,.02,.12-.2,.13-.09,.2-.14,.02-.02-.05,.21-.05,.27,0,.05,.02,.04,.04,.02,.01,0-.01,.09,.09-.17,.06-.14,.09-.18,.05-.06-.13,.4-.06,.25-.04,.27,.04,.04,.1,.03,.14,.07,0,.01,.1-.18-.05,.23-.02,.06,.04-.07,.06-.11,.02-.04,.07-.15,.05-.1-.18,.54-.03,.25,0,.28,.05,.08,.16,.04,.21,.14,.01,.03,.18-.31,.19-.28,.01,.03,.05,0,.06,.04,0,.03,.1-.15-.07,.27-.05,.11-.03,.11,.02,0,.19-.39,.12-.18,.16-.23,.05-.06-.04,.2,.17-.21,.06-.11-.03,.12-.03,.14,0,.04,0,.06,.03,.05,.01,0,.09-.15,.1-.16,.1-.08,.21-.17,.28-.19,.08-.02,.12,.04,.17,.07,.05,.03,.12,.02,.15,.1,.01,.03,.19-.27-.06,.28,.18-.31,.1-.11-.07,.26-.02,.05,.06-.1,.09-.14,.08-.13,.38-.67,.09-.07-.01,.02,0,0,0,0-.03,.09,.29-.5,.12-.13-.11,.23-.04,.14-.04,.17,0,.03,0,.06,.04,.01,.04-.04-.09,.24,.16-.2,.04-.07-.11,.24-.1,.23,.09-.09-.1,.33,.22-.18,.07-.12,.08-.1,.03,.01-.18,.39-.05,.21,.06,.08,.14-.16,.22-.21-.05,.35-.06,.12-.11,.21,.01,.02,.08-.12,.07-.09,.08-.09,.08,.04,.16,.08,.23,.13,.02,.01-.2,.44-.09,.29,.05-.06-.07,.16,.15-.19,.03-.05,.05-.07,.04-.05-.22,.42,.15-.14,.08,.04-.02,.04-.06,.12-.08,.16-.02,.05-.08,.15-.03,.09,.34-.47,.15-.07,.27-.17,.04-.03-.08,.2,.19-.21,.04-.06,.04-.05,.01,0-.29,.52-.02,.15-.08,.29-.03,.07,.16-.19-.09,.23-.03,.05,0,.01,.02-.01,.04-.05,.13-.18,.13-.17,0,.03-.13,.27-.03,.14,.12-.16,.09-.08,.11-.08,.01,0-.1,.19-.12,.24-.02,.05,.01,.02,.02,.02,.01,0,.07-.06,.02,.04-.05,.1,.24-.32,.06-.02-.14,.23,.13-.16,.17-.19,.02-.02,0,.03-.03,.08-.02,.04-.1,.17-.09,.17,.02-.02-.02,.06,.11-.11,.09-.12-.05,.11-.06,.15-.01,.04,.01,.02,.02,.02,0,0-.04,.09,.04,0,.33-.4,.19-.11,.26-.14,.02,0,.13-.14-.11,.22-.04,.06-.04,.07-.01,.04,.38-.47,.14-.05,.28-.17,.1-.08,.26-.25,.25-.19,0,.06-.05,.17,.1,.02,.12-.12,.24-.24,.19-.13-.05,.1,.49-.58,.07,.02,.02,.01,.05,0,.05,.05,0,.03,.13-.1-.11,.25-.09,.13-.07,.13,.02,.02,.29-.34,.24-.22,.12-.03-.03,.05,.11-.12,.12-.12,.03,0,.07-.02,.05,.04-.06,.19,.3-.17,.35-.13,.01,0,.24-.25,.19-.18-.29,.47,.12,.07-.04,.36-.23,.43,.06,.22,.06,.37,0,.02-.23,.3-.15,.23,.23-.24,.06-.01,.23-.19,.31-.32,.14-.07,.23-.14,.07-.05-.11,.19,.23-.18,.05-.05,.05-.04,.01,0-.29,.37,.19-.13,.07,.05,.42-.39,.2-.06,.33-.11,.02,0,.11-.09,.16-.14,.03-.02,.08-.08,.06-.04-.37,.48-.01,.17-.08,.32-.02,.05-.12,.18-.15,.24-.03,.06,.09-.04-.16,.24-.08,.09-.03,.05,0,.02,.2-.15-.33,.44-1.2,1.36-.32,.33-.34,.35-.46,.47-.24,.23-.39,.38-.38,.34,0-.03,.1-.14-.21,.17-.05,.05-.05,.04,0,0,.25-.3,.02-.09,.19-.3,.13-.16,.08-.13,.13-.2,.04-.06-.13,.1,.13-.2,.09-.1-.16,.15-.17,.15-.04,.02-.07,.02-.05-.04,.07-.18-.41,.27-.34,.1-.41,.4-.1-.02-.32,.16-.26,.22-.18,.05-.31,.13-.03,.02-.03,0,.06-.12,.06-.08,.12-.16,.11-.17,0-.03-.05-.01-.04-.07,0-.03-.19,.18,.14-.24,.05-.06,.04-.06,0,0-.35,.4-.17,.13-.23,.17-.02,.01-.02,0,.1-.16,.12-.17,.09-.16-.03-.02-.1,.11-.11,.11-.14,.14-.14,.12,.17-.33-.25,.16,.34-.46,.21-.32,.11-.23-.37,.37-.18,.03-.29,.07-.03,0,.11-.19,.12-.24,.02-.05,0-.04-.04-.03-.02,0,.09-.15-.16,.18-.02,.02-.03,.04-.03,.03,.03-.06,.12-.19,.09-.17-.02,.02-.19,.24-.25,.29-.06,.07-.07,.07-.09,.07-.01,0-.08,.07,.13-.23-.27,.37-.15,.17-.18,.2-.03,.02-.02,0-.03,0l-.02-.02s0-.04-.03-.01c-.05,.05-.16,.16-.19,.2-.04,.03-.05,.02-.04-.02,.02-.06,.09-.19,.12-.26,.01-.03-.06,.06-.16,.19-.13,.17-.41,.55-.07,.03,.07-.1,.04-.08,0-.01-.39,.51-.12,.05-.26,.17,.25-.4,.07-.17-.02-.08-.13,.14-.2,.19-.07-.06,.13-.27,.01-.14,.05-.25,0-.03-.09,.11,.13-.25,.05-.08,.03-.06,0-.01-.26,.36-.22,.24-.09-.02,.07-.14-.04,0-.14,.14-.15,.2-.08,.03-.1,.02,.26-.45-.02,0-.14,.19-.16,.25-.2,.3-.21,.3-.01,0,.03-.08-.16,.2-.09,.15-.08,.1,0-.06,.12-.21,.06-.12-.03,.02-.11,.16,.14-.26,.12-.25-.02,.02-.17,.24,.1-.24,.02-.04,.02-.04,0,0-.3,.47,.09-.24-.05-.04,.26-.57-.07-.15-.02-.37,.02-.09,.19-.46,.05-.26-.3,.43-.17,.08-.27,.13-.02,.01-.15,.22,.09-.25,.03-.07,.02-.06,0,0-.25,.42-.19,.28-.05-.02,.03-.07,.02-.07-.04,.05-.18,.32-.12,.19-.12,.17,0-.01,.13-.3,.04-.14-.19,.34,0-.05,.03-.12,.02-.04-.04,.05-.07,.09-.02,.02-.09,.17-.08,.13,.19-.41-.13,.16-.06-.01,.01-.04,.01-.03,.03-.08,.23-.55,.23-.56,.04-.31,.27-.59-.17,.26,.04-.19,.07-.17,.04-.13-.02-.02-.28,.5-.12,.08-.22,.21-.02,.03,.16-.37,0-.05-.06,.12,.09-.23,.08-.22-.02,.01,.07-.2-.12,.17-.08,.15-.03,.02-.05,.05-.03,.04,.03-.11-.13,.2-.09,.17-.1,.17-.04,.02,.27-.64-.02-.08-.14,.13-.04,.06-.07,.12-.03,.02,.05-.14,.12-.32,.03-.14-.16,.33-.11,.18-.14,.2-.04,.03-.03-.05-.08-.01-.05,.04,0-.13-.17,.18-.09,.17-.17,.32,.04-.22,.02-.06-.11,.23-.11,.23-.04,0-.08,0-.09-.05,0-.01,.2-.54,.02-.12-.19,.45,.16-.44-.06,.1-.03,.08-.04,.07-.02,.01,.19-.58-.03-.16,0-.32,0-.04-.09,.18,.08-.28-.22,.5,.15-.55-.18,.25,.03-.14-.15,.28,.04-.27,.03-.09-.03,.04,0-.04,.09-.27-.23,.55-.08,.12,.08-.25,.02-.11,.01-.13,0-.02-.02-.01-.03-.01h-.03s-.01-.05-.04-.02c-.05,.07-.19,.4-.17,.25,0-.02-.02,.05-.05,.13-.26,.71-.13,.31-.06,.1,.05-.18,.08-.26,.07-.26-.02,0-.05,.02-.05-.03,0-.03-.09,.2,.05-.26,.04-.14,.02-.11-.02-.01-.18,.46-.11,.17-.16,.24-.02,.03-.03,0-.03,0,0-.01-.11,.29-.03,0-.23,.57-.15,.17-.21,.23-.06,.05-.09,0-.12-.03,0,0-.09,.22,.05-.27,.03-.09,.02-.09-.01,0-.08,.26-.13,.39-.03,.04,.02-.06-.01,0-.03,.08-.06,.19-.07,.17-.02-.01,.03-.14,.05-.23,.01-.13-.1,.27-.18,.5-.05-.02,.02-.06-.08,.26-.08,.24,0-.07-.09,.19,0-.2,.04-.16,0-.04,0-.09,0-.08-.08,.18-.05,.03,.03-.16-.02-.04-.04-.05h-.05s-.05-.02-.05-.02h-.05s-.05-.02-.05-.02c-.02,0-.03,0-.05-.01,0,0,0-.07,.03-.26,.09-.5,.04-.45-.1-.06,0,.03-.01,0-.01,0-.04-.01-.1,.07-.12-.07,0-.06,.02-.29,0-.26-.02,.02-.01-.06-.09,.25-.06,.26,.01-.19-.09,.27-.04,.17-.05,.16-.03,.02,.08-.46,0-.23,0-.27-.01-.05-.04-.04-.07-.01-.01,.01,0-.14-.08,.23-.04,.19-.03,.05,0-.11,.03-.25,.01-.21-.02-.1-.07,.22-.07,.26-.05-.03,0-.03,0-.04,0-.04-.03,0-.03-.19-.1,.04-.06,.19-.09,.2-.11,.21-.01,0-.06,.22,.02-.27,.01-.07,0-.06,0,0-.11,.53-.08,.25-.11,.25-.02,0-.11,.44-.11,.33,0-.11-.04-.03-.05-.03-.01,0-.01-.08,.02-.33,.03-.24,.09-.66,.19-1.33,.16-1.12,.21-1.36,.27-1.59,.14-.49,.15-.1,.23-.24Z"/>
      <path class="cls-1" d="M131.9,40.56c.06-.03,.12-.02,.14-.11,0-.01-.1-.25-.09-.25,.05,0-.02-.24,.14,.01,.18,.27,.24,.29,.18,.08-.05-.2,0-.16,.02-.23,0-.02-.01-.08,.14,.18,.11,.19,.14,.2-.02-.15-.03-.07,0,0,.03,.03,.02,.03,.1,.18,.08,.13-.23-.54,0-.16-.02-.31,0-.04,.08,.11-.09-.24-.04-.09-.04-.11,0-.03,.12,.21,.15,.25,.15,.24,.03-.03,.07-.04,.1-.06-.22-.46-.09-.27-.07-.27,.02,0,.11,.14,.17,.22,.06,.08-.07-.21,.15,.17,.04,.06-.02-.06-.02-.07,0-.04-.06-.19,.04-.06,.05,.07,.1,.14,.11,.14,.12-.05,.23-.11,.33-.18,0,0,.05,.04-.09-.22-.1-.2-.09-.22,.03-.03,.19,.32,.13,.18,.15,.19,.04,.02,.03-.04,.08-.02,.03,.01-.09-.22,.18,.22,.03,.04,.03,.04,0,0-.23-.44-.01-.09,.04-.04,.03,.03,.04,.02-.07-.19-.11-.21-.11-.25,.03-.04,.18,.28,.14,.18,.15,.18,.09-.02,.17-.06,.23-.13,.03-.04-.17-.44-.04-.31,.03,.03-.06-.14,.13,.16,.04,.06,.02,.02-.02-.06-.15-.28-.08-.18-.06-.17,.09,.03,.23,.16,.13-.13-.08-.22,0-.16,0-.24,0-.03,.14,.17,.18,.2,.04,.03,.04,0,.04-.02,0-.02,.06,.07-.08-.18-.08-.13-.09-.18-.02-.07,.24,.35,.17,.2,.19,.2,.06,0,.08-.06,.14-.06,.01,0-.09-.19,.16,.18,.03,.05-.04-.07-.05-.11-.02-.04-.08-.15-.05-.1,.33,.46,.19,.17,.23,.17,.1,0,.12-.11,.23-.09,.03,0-.16-.32-.13-.31,.03,0,.02-.04,.06-.02,.03,.01-.07-.16,.19,.2,.07,.1,.08,.09,.02-.01-.23-.37-.09-.2-.11-.26-.03-.08,.15,.14-.1-.26-.07-.11,.08,.09,.1,.1,.03,.02,.05,.03,.05,0,0-.01-.09-.15-.09-.17-.02-.12-.05-.26-.03-.33,.02-.07,.09-.07,.13-.1,.05-.03,.07-.09,.15-.08,.03,0-.16-.29,.21,.19-.2-.31-.05-.14,.2,.19,.04,.05-.06-.1-.09-.14-.08-.14-.43-.64-.03-.11,.01,.02,0,0,0,0,.07,.07-.32-.48-.07-.16,.16,.2,.11,.1,.13,.11,.02,0,.05,.02,.03-.03-.02-.06,.17,.19-.11-.23-.05-.07,.17,.21,.16,.19-.05-.12,.25,.23-.07-.27-.07-.11-.06-.11,.02-.02,.28,.33,.17,.13,.09-.01-.1-.19-.11-.28,.29,.2,.09,.1,.15,.18,.02,0-.08-.12-.06-.1-.05-.1l.2-.16s.33,.35,.24,.2c-.04-.06,.12,.12-.12-.2-.03-.04-.05-.07-.03-.05,.31,.35-.08-.19,.06-.05,.03,.03,.09,.1,.12,.13,.04,.04,.11,.12,.08,.07-.32-.48-.02-.17-.07-.31-.02-.05,.16,.15-.14-.25-.04-.06-.04-.06,0,0,.39,.45,.13,.08,.24,.18,.06,.05-.13-.21,.18,.16,.04,.05,.01,0,0-.02-.03-.05-.13-.18-.12-.18,.03,0,.21,.21,.12,.08-.11-.17-.05-.11-.04-.13,0-.01,.15,.15,.19,.19,.04,.03,.02,0,.03,0,.01,0-.03-.08,.05,0,.08,.08-.23-.32,0-.06,.18,.2-.11-.17-.14-.22-.01-.02,.03,.02,.07,.05,.03,.03,.14,.15,.13,.14-.01-.03,.05,.04-.07-.14-.09-.12,.1,.08,.13,.1,.03,.02,.02,0,.03-.01,0,0,.08,.06,.01-.03-.29-.42-.06-.21-.07-.29,0-.02-.11-.16,.18,.16,.05,.06,.06,.06,.03,.02-.36-.49-.02-.15-.1-.3-.06-.11-.19-.31-.13-.28,.06,.02,.16,.09,.04-.08-.1-.14-.18-.28-.09-.21,.09,.07-.47-.6,.03-.06,.02-.01,.02-.05,.05-.04,.03,0-.08-.15,.21,.16,.11,.11,.11,.09,.02-.02-.28-.35-.18-.27-.01-.12,.04,.04-.1-.13-.1-.14,0-.03-.01-.07,.04-.04,.17,.1-.13-.31-.09-.35,0,0-.22-.27-.15-.21,.41,.37,.07-.09,.33,.11,.38,.29,.21-.01,.34,0,.02,0,.28,.26,.21,.18-.21-.25,0-.06-.17-.25-.29-.34-.07-.14-.13-.23-.04-.07,.17,.13-.16-.24-.05-.05-.04-.05,0,0,.34,.32-.12-.2,.05-.06-.36-.44-.06-.19-.11-.31,0-.02-.09-.11-.13-.16-.02-.03-.07-.08-.04-.06,.45,.4,.15,.04,.3,.12,.05,.04,.18,.13,.23,.17,.05,.03-.04-.08,.23,.17,.09,.08,.05,.03,.02,0-.15-.2,.43,.35,1.33,1.24,.33,.32,.34,.35,.45,.48,.22,.24,.36,.41,.32,.39-.03,0-.14-.1,.16,.22,.05,.05,.03,.05,0,.01-.3-.26-.09-.02-.3-.19-.16-.13-.13-.08-.2-.13-.06-.04,.09,.14-.2-.14-.1-.09,.14,.17,.14,.18,.01,.04,.01,.08-.05,.05-.18-.08,.22,.44,.06,.37,.35,.45-.04,.11,.11,.35,.19,.29,.01,.2,.07,.35,.01,.03,0,.03-.11-.07-.07-.06-.15-.13-.15-.13-.04,0-.03,.06-.08,.04-.03,0,.15,.22-.22-.17-.05-.05-.05-.04,0,0,.34,.41,.1,.19,.13,.26,0,.03-.01,.02-.15-.12-.15-.15-.15-.12-.03,.03,.09,.11,.09,.12,.11,.16,.09,.16-.3-.22,.1,.29-.39-.41-.29-.25-.21-.14,.29,.44-.02,.21-.01,.33,0,.03-.17-.14-.22-.16-.05-.02-.05,0-.05,.04,0,.02-.13-.12,.13,.2,.02,.02,.03,.04,.03,.04-.05-.04-.16-.15-.15-.12,.01,.03,.19,.24,.23,.31,.05,.08,.04,.09,.04,.1,0,.01,.05,.09-.2-.18,.29,.35,.13,.19,.14,.22,.01,.03-.01,.02-.02,.03l-.03,.03s-.04-.01-.02,.03c.03,.06,.12,.2,.14,.24,.02,.05,0,.06-.04,.04-.06-.03-.17-.12-.23-.17-.03-.02,.04,.07,.13,.2,.13,.17,.42,.54,0,.08-.08-.09-.07-.06-.02,0,.37,.52-.01,.15,.06,.32-.32-.35-.16-.1-.1,.02,.09,.18,.1,.27-.11,.08-.22-.2-.15-.04-.25-.1-.03-.02,.07,.13-.2-.2-.06-.07-.05-.05-.02,0,.25,.37,.14,.29-.06,.09-.11-.11-.01,.05,.07,.19,.13,.21-.01,.09-.04,.11-.34-.4-.02,.02,.12,.21,.18,.24,.2,.29,.2,.31,0,.02-.08-.05,.12,.23,.1,.14,.06,.12-.06-.02-.16-.19-.09-.09,0,.04,.11,.16-.2-.22-.2-.19,0,.03,.15,.25-.2-.17-.03-.04-.03-.03,0,0,.32,.46-.2-.16-.07,.05-.45-.44-.21,.03-.41-.09-.08-.05-.36-.35-.24-.13,.25,.46-.03,.21-.03,.34,0,.03,.13,.24-.2-.19-.05-.06-.05-.05-.01,0,.27,.41,.16,.3-.06,.05-.05-.06-.05-.05,.02,.06,.21,.3,.11,.19,.1,.19-.02,0-.22-.25-.12-.1,.22,.33-.05-.02-.1-.07-.03-.03,.02,.06,.05,.11,.01,.02,.1,.16,.08,.13-.28-.35,.08,.19-.05,.06-.03-.03-.03-.02-.06-.06-.39-.45-.39-.45-.28-.16-.39-.52,.14,.28-.16-.12-.11-.14-.1-.1-.03,.01,.29,.49,0,.15,.05,.31,.01,.03-.24-.32-.05-.02,.07,.11-.16-.2-.16-.18,0,.03-.15-.16,.08,.2,.09,.15,0,.04,.02,.07,.02,.05-.09-.08,.1,.22,.1,.16,.09,.18-.01,.04-.42-.55-.09-.02,.01,.2,.03,.07,.06,.13,0,.04-.1-.11-.22-.27-.11-.09,.19,.32,.09,.2,.08,.23,0,.05-.07,.01-.07,.08,0,.07-.13-.06,.03,.25,.08,.17,.16,.33-.18-.14-.04-.05,.13,.22,.13,.23-.03,.05-.06,.09-.13,.08-.02,0-.33-.47-.09-.08,.25,.41-.27-.38,.03,.11,.04,.07,.03,.07,0,.03-.38-.48-.17-.05-.3-.15-.03-.02,.08,.18-.19-.23,.26,.48-.37-.44,.07,.31-.1-.11,.12,.29-.21-.19-.05-.08,.01,.05-.04-.02-.17-.24,.29,.52,.04,.14-.15-.22-.08-.08-.1-.08-.02,0-.03,.01-.04,.02l-.04,.03s-.05-.01-.04,.03c.02,.09,.17,.41,.07,.31-.01-.01,.02,.05,.06,.13,.38,.65,.15,.3,.03,.12-.1-.15-.16-.22-.16-.21-.02,.02-.03,.06-.08,.03-.03-.02,.08,.2-.18-.2-.08-.12-.07-.09-.03,0,.22,.44,.04,.21,.05,.29,0,.04-.02,.03-.04,.03-.02,0,.14,.28-.03,.02,.26,.56,0,.24-.02,.34-.02,.09-.09,.09-.16,.09-.02,0,.09,.22-.17-.21-.05-.08-.06-.07,0,.02,.13,.24,.19,.37,0,.06-.03-.06,0,.01,.03,.08,.09,.18,.07,.17-.04,.01-.08-.12-.13-.19-.09-.09,.12,.26,.21,.48-.07,.04-.03-.06,.12,.24,.11,.23-.05-.05,.06,.2-.16-.14-.09-.14-.04-.02-.07-.06-.06-.06,.06,.19-.03,.06-.1-.13-.06,0-.08,0l-.06,.03-.06,.03-.06,.03-.06,.03s-.04,.03-.06,.03c-.02,0-.06-.04-.16-.21-.27-.43-.28-.35-.15,.04,0,.03,0,0,0,0-.05,.03-.06,.14-.17,.04-.05-.04-.18-.23-.18-.19,0,.03-.05-.03,.08,.26,.11,.24-.12-.16,.08,.27,.07,.16,.05,.16-.02,.03-.23-.41-.15-.18-.19-.2-.05-.03-.07,0-.08,.04,0,.02-.09-.11,.07,.24,.08,.17,0,.06-.08-.08-.13-.22-.12-.17-.09-.06,.07,.22,.09,.26-.07,.02-.02-.03-.03-.03-.03-.03-.04,.02-.16-.13-.09,.1,.06,.2,.03,.22,0,.25-.01,0,.07,.22-.15-.23-.03-.06-.04-.05-.01,0,.21,.5,.06,.26,.03,.28-.02,.02,.14,.43,.07,.35-.07-.08-.06,0-.09,.02-.04,.01-.17-.25-.75-1.49-.47-1.03-.57-1.25-.64-1.48-.15-.48,.06-.17,.05-.33Z"/>
      <path class="cls-1" d="M98.9,61.1c.5,.07,.91,.19,1.33,.14,.07,0,.2-.38,.28-.36,.32,.08,.7-.24,.94,.25,.26,.54,.59,.65,.96,.39,.35-.25,.64-.11,.95-.15,.11-.01,.22-.08,.26,.38,.03,.33,.17,.39,.37-.15,.04-.11,.07,.02,.09,.07,.03,.06,.03,.31,.07,.24,.44-.82,.64-.11,.97-.27,.08-.04,.12,.23,.28-.34,.04-.15,.12-.16,.12-.02,0,.37,.04,.45,.11,.46,.31,.03,.62,.1,.93,.15,.28-.72,.39-.36,.55-.33,.12,.02,.2,.31,.29,.47,.1,.17,.31-.28,.31,.39,0,.11,.08-.08,.12-.09,.16-.03,.36-.24,.46,.03,.05,.14,.1,.27,.18,.29,.95,.19,1.9,.35,2.85,.5,.08,.01,.15,.11,.31-.3,.13-.33,.28-.32,.29,.04,.01,.57,.15,.36,.25,.41,.18,.09,.38,.04,.56,.13,.1,.06,.29-.3,.26,.47,0,.07,.03,.08,.06,.01,.25-.7,.26-.08,.37,.04,.08,.08,.17,.09,.33-.25,.16-.33,.32-.36,.35,.03,.03,.52,.17,.37,.28,.4,.65,.15,1.3,.28,1.96,.34,.31,.03,.73-.59,.99-.27,.06,.08,.19-.19,.17,.34,0,.11,.07,.06,.11-.07,.16-.46,.22-.26,.31-.22,.42,.18,.82,.52,1.31,.14,.38-.29,.69-.09,1.03-.15,.11-.02,.17,.35,.27,.44,.1,.09,.21,.07,.32,.05,.07,0,.11,.15,.24-.26,.07-.22,.17-.27,.18-.08,.04,.64,.21,.42,.34,.45,.37,.09,.75,.1,1.12,.19,.09,.02,.23-.28,.23,.39,0,.09,.08-.11,.12-.17,.04-.06,.11-.24,.13-.15,.13,.87,.45,.42,.7,.49,.59,.16,1.21,.11,1.81,.29,.17,.05,.38-.49,.53-.44,.15,.05,.32,0,.47,.07,.11,.05,.26-.24,.29,.43,.01,.18,.09,.19,.14,.02,.19-.64,.29-.29,.44-.38,.17-.11,.3,.33,.52-.35,.06-.18,.11,.19,.17,.23,.11,.06,.22,.1,.33,.07,.06-.01,.13-.25,.19-.27,.43-.13,.86-.3,1.28-.34,.43-.05,.84,.05,1.26,.07,.42,.02,.84-.01,1.26,.09,.16,.04,.35-.47,.46,.44,.17-.54,.28-.21,.39,.41,.02,.09,.07-.17,.11-.24,.12-.23,.24-1.15,.33-.15,0,.04,.02,0,.03,0,.09,.14,.19-.86,.3-.25,.07,.38,.2,.22,.3,.26,.11,.04,.22,.08,.32,0,.11-.08,.23,.38,.34-.36,.02-.12,.09,.4,.14,.37,.25-.18,.5,.5,.74-.39,.06-.2,.14-.18,.2,0,.21,.64,.41,.31,.63,.07,.28-.31,.58-.44,.88,.49,.06,.2,.1,.35,.15,.02,.03-.22,.11-.17,.16-.17,.63-.03,1.25-.03,1.88-.08,.17-.01,.37,.7,.53,.42,.07-.12,.17,.24,.19-.36,0-.08,.03-.13,.05-.09,.26,.69,.4-.32,.63-.04,.05,.06,.1,.19,.15,.26,.05,.07,.12,.24,.15,.14,.25-.89,.63-.27,.93-.52,.1-.08,.26,.3,.29-.45,0-.11,.05-.11,.08-.01,.28,.87,.42,.17,.63,.38,.11,.11,.17-.39,.34,.32,.02,.09,.05,.01,.07-.04,.03-.1,.05-.34,.09-.33,.12,.02,.3,.41,.37,.16,.09-.31,.22-.2,.34-.24,.07-.02,.18,.3,.26,.37,.08,.06,.14,0,.21-.01,.1-.01,.18-.15,.3,0,.12,.15,.09-.61,.27-.12,.14,.38,.13-.33,.2-.43,.04-.05,.1,.03,.16,.1,.04,.05,.11,.29,.14,.26,.07-.06,.16,.07,.18-.26,.02-.23,.18,.16,.26,.2,.09,.04,.16-.01,.23-.03,.08-.01,.19,.12,.23-.06,.17-.8,.57-.4,.86-.56,.07-.04,.11-.32,.31,.3,.03,.11,.08,.11,.09,.03,.11-.95,.56-.3,.8-.62,.17-.23,.3-.6,.53-.58,.22,.03,.48,.14,.6-.21,.1-.29,.2-.56,.4-.44,.2,.12,.01-1.17,.44-.15,.16-.04,.3-.12,.47-.12,.14,0,.19-.31,.5,.26,.11,.21,.2,.17,.19-.05-.03-.7,.18-.56,.45-.28,.06,.07,.02-.26,.06-.28,.12-.08,.25-.17,.41-.12,.49,.13,.64-.72,1.02-.86,.07-.03-.02-.54,.09-.44,.67,.65,.77-.3,1.31,0,.82,.43,1.2-.24,1.8-.36,.08-.01,.38,.45,.35,.29-.1-.5,.2-.17,.13-.55-.12-.67,.22-.34,.3-.56,.06-.16,.37,.18,.14-.54-.03-.1,.01-.11,.07-.04,.47,.55,.16-.47,.46-.26-.1-.92,.47-.55,.68-.88,.03-.05-.02-.23-.02-.34,0-.06-.03-.17,.01-.13,.71,.64,.62-.14,1.01-.09,.13,.02,.34,.18,.48,.2,.14,.02,.11-.22,.49,.21,.12,.13,.12,.03,.13-.06,0-.44,.8,.47,1.84,2.07,.37,.58,.35,.64,.44,.89,.17,.47,.25,.8,.1,.83-.11,.02-.33-.1-.06,.51,.04,.1-.01,.11-.08,.05-.47-.41-.4,.1-.75-.16-.27-.2-.33-.07-.51-.11-.14-.04-.06,.32-.45-.15-.13-.16,.04,.34-.02,.4-.12,.13-.26,.25-.46,.25-.59,0-.6,1.12-1.19,1.15,.03,.93-.67,.4-.84,.94-.21,.66-.75,.62-1.09,.99-.07,.08-.15,.09-.31-.08-.11-.11-.22-.23-.27-.22-.22,.05-.39,.2-.62,.21-.12,0-.09,.46-.47-.25-.05-.1-.1-.07-.08,.03,.11,.82-.26,.44-.42,.59-.06,.06-.14,.06-.32-.19-.19-.26-.31-.19-.3,.12,0,.23-.05,.26-.09,.34-.18,.35-.72-.33-.67,.68-.4-.76-.48-.44-.56-.2-.31,.91-1.03,.53-1.53,.83-.12,.07-.35-.24-.5-.27-.16-.04-.29,.03-.43,.1-.07,.04-.23-.21-.13,.4,0,.05,0,.08,0,.07-.11-.08-.25-.28-.31-.22-.06,.06-.02,.48-.07,.61-.05,.15-.14,.19-.23,.22-.08,.03-.14,.19-.34-.32,.09,.69-.09,.38-.16,.45-.07,.07-.16,.05-.24,.07l-.28,.06c-.09,.02-.2-.02-.28,.07-.11,.12-.18,.39-.29,.48-.12,.1-.26,.13-.41,.09-.19-.05-.39-.23-.58-.31-.08-.03-.11,.14-.13,.4-.03,.33-.02,1.05-.31,.15-.06-.18-.13-.11-.15,.02-.2,1.01-.71,.28-1.04,.61-.31-.67-.44-.2-.62,.03-.27,.33-.59,.49-.95,.11-.38-.4-.66-.11-1-.23-.09-.04-.16,.24-.31-.38-.03-.14-.1-.09-.12,0-.18,.69-.46,.53-.76,.12-.16-.21-.29,.07-.42,.33-.2,.39-.47,.14-.71,.16-.17-.77-.18,.03-.21,.37-.04,.46-.1,.55-.18,.56-.11,.02-.23-.11-.3,.4-.04,.26-.17,.21-.25-.06-.11-.36-.12-.19-.18,.06-.07,.29-.21-.43-.31-.39-.11,.05-.23,.45-.38-.37-.01-.07-.05-.06-.06,0-.17,.85-.45-.35-.65,.03-.68-.91-1.29-.11-1.94-.41-.27-.12-.54-.73-.79-.36-.54,.78-1.09,.23-1.63,.38-.12,.03-.25,.4-.35-.4-.01-.11-.07-.1-.09,0-.18,.73-.35,.49-.51,0-.04-.12-.12-.11-.15,.08-.08,.54-.16,.32-.24,.31-.09-.02-.2-.5-.27-.23-.14,.59-.18-.07-.27-.19-.05-.07-.12,.08-.18,.17-.03,.04-.07,.28-.09,.22-.16-.68-.37,.29-.54,0-.04-.06-.08-.05-.11-.13-.39-.91-.38-.92-.94-.49-.09-.98-.34,.44-.46-.31-.04-.27-.16-.22-.24-.03-.37,.84-.65,.14-.99,.36-.07,.05-.07-.61-.2-.09-.05,.2-.11-.39-.19-.37-.11,.02-.19-.34-.35,.29-.06,.25-.14,.04-.22,.09-.1,.07-.18-.18-.32,.33-.08,.28-.2,.28-.24,.02-.16-1.06-.47-.15-.74,.2-.08,.1-.14,.2-.2,.03-.08-.23-.19-.54-.3-.24-.19,.53-.31,.3-.45,.32-.24,.04-.47-.09-.71-.04-.28,.06-.52-.24-.85,.25-.18,.26-.4,.5-.46-.37,0-.1-.13,.37-.17,.37-.34,0-.69-.02-1.02-.13-.08-.03-.06-.88-.21-.21-.17,.71-.07-.72-.24,.14-.03,.12-.09,.1-.12,.01-.28-.96-.78-.3-1.14-.59-.09-.07-.24,.26-.22-.47-.35,.77-.39-.92-.81,.33-.14-.24-.43,.41-.47-.47,0-.14-.1,.06-.11-.07-.04-.44-.3,.86-.33,.16-.02-.4-.19-.19-.29-.23-.1-.04-.2-.04-.3-.05l-.33-.05c-.11-.02-.21-.09-.33-.04-.24,.09-.54,.59-.74,.34-.02-.03-.08,.07-.11,.2-.25,1.1-.27,.46-.3,.13-.02-.28-.06-.42-.13-.43-.19-.02-.39,0-.57-.11-.11-.06-.29,.28-.28-.44,0-.22-.1-.19-.17-.04-.36,.69-.54,.22-.8,.29-.12,.03-.22-.01-.33-.05-.08-.03-.24,.44-.25-.04-.56,.83-.88,.17-1.31,.21-.43,.03-.83-.09-1.23-.21-.1-.03-.28,.31-.24-.45,0-.14-.07-.15-.12,0-.13,.39-.21,.59-.18,.04,0-.1-.07,0-.12,.1-.14,.28-.2,.23-.24-.05-.03-.22-.1-.37-.19-.22-.25,.39-.48,.72-.52-.09,0-.1-.15,.39-.19,.36-.14-.12-.36,.25-.41-.37-.02-.25-.14-.09-.21-.17-.11-.14-.31,.25-.41-.01-.1-.26-.29-.1-.44-.13l-.45-.08-.44-.08-.44-.08-.44-.08c-.15-.03-.3-.04-.44-.08-.1-.03-.18-.13-.24-.44-.13-.8-.48-.75-.97-.23-.04,.04-.06,0-.09,0-.38-.07-.79,0-1.14-.26-.15-.12-.26-.48-.44-.46-.12,.02-.21-.12-.4,.33-.16,.38-.18-.32-.4,.36-.08,.25-.19,.22-.2,0-.06-.72-.3-.39-.47-.48-.19-.1-.4-.12-.62-.1-.1,0-.17-.24-.36,.31-.1,.27-.19,.06-.22-.19-.05-.39-.18-.34-.31-.2-.29,.3-.29,.36-.45-.1-.02-.06-.05-.06-.08-.07-.28-.05-.53-.36-.86-.05-.28,.26-.5,.25-.73,.23-.09,0-.25,.31-.21-.45,0-.11-.05-.11-.08-.01-.31,.78-.45,.32-.65,.31-.19-.01-.46,.62-.63,.43-.16-.18-.37-.08-.55-.11-.28-.05-.28-.5,0-2.53,.23-1.68,.35-2.03,.63-2.35,.6-.68,1.01-.05,1.44-.21Z"/>
      <path class="cls-3" d="M141.03,106.6c11.8-1.49,23.78-3.06,32.63-7.17,6.25-2.9,5.83-7.68,5.75-11.73-.06-2.75-2.05-4.2-4.08-6.78-2.67-3.39-3.31-5.38-11.24-6.12-4.71-.44-9.56-.44-14.37-.44-7.44,0-14.88,.01-22.32,.02-7.87,0-15.83,.04-23.58,.75-3.77,.35-7.49,.86-10.97,1.61-4.12,.9-5.34,1.6-7.08,3.48-6.46,6.97-5.88,19.82,3.28,23.08,9.47,3.37,21.34,2.65,32.32,3.64,3.76,.34,7.61,.58,11.43,.43,2.79-.11,5.52-.43,8.22-.77Z"/>
    </g>
  </g>
</svg>