<?xml version="1.0" encoding="UTF-8"?>
<svg id="_Слой_2" data-name="Слой 2" xmlns="http://www.w3.org/2000/svg" viewBox="0 0 284.86 279.76">
  <defs>
    <style>
      .cls-1 {
        fill: #e27f60;
      }

      .cls-2 {
        fill: #147014;
      }

      .cls-3 {
        fill: #349039;
      }

      .cls-4 {
        fill: #6e7c6e;
      }

      .cls-5 {
        fill: #37993a;
      }

      .cls-6 {
        opacity: .49;
      }
    </style>
  </defs>
  <g id="_лягушки" data-name="лягушки">
    <g>
      <g class="cls-6">
        <path class="cls-4" d="M280.21,190.11c-13.33-10.89-26.14-24.05-42.31-30.6-15.22-6.16-31.97-7.72-48.23-8.25-35.34-1.16-70.81,1.84-105.45,8.9-14.35,2.92-28.67,6.59-41.82,13.02-9.67,4.73-18.72,11.03-25.9,19.1-3.9,4.39-11.84,16-7.6,22.25,1.26,1.86,7.37,5.61,9.4,4.67,6.52-3.01,6.11-9.39,7.12-15.85,3.85,1.8,11.06,10.62,12.48,3.06,1.32-7.07,2.79-16.07,4.07-18.59,1.4,6.08,9.35,19.85,8.1,25.96-.45,2.2,1.53,2.98,.18,4.77-4.85,6.43-10.06,14.13-14.92,20.55-2.93,3.88-8.92,6.53-6.83,10.91,1.92,4.04,5.79,3.99,9.92,2.27,4.13-1.72,5.51-5.94,8.12-9.57,2.61-3.62,5.65-10.57,9.51-12.82,1.31,5.7-2.93,18.19-6.29,22.97-3.36,4.78-.61,14.53,5.11,13.3,5.67-1.22,7.8-1.59,11.56-6.57,3.75-4.97-.91-6.64-.85-12.87s.47-13.61,3.91-18.8c2.74,4.18,2.3,14.86,6.95,16.67,1.18,.46,2.49,.37,3.75,.21,4.84-.63,10.54-3.69,10.03-8.54-.35-3.26-3.38-5.43-5.75-7.7-7.17-6.89-9.37-17.33-11.23-27.09-3.75,26.45,21.55,26.74,35.76,27.87,5.51,.44,26.34-1.26,36.51-1.92,19.86-1.3,31.85-18.53,46.21-33.55-9.49,14.14-14.35,19.16-21.43,20.15-1.19,.17-12.1,1.3-12.95,2.15-.98,.98-5.89,4.44-6.27,7.14-.87,6.14,5.51,10.19,11.32,8.02,1.9-.71,3.61-1.95,5.6-2.3s7.51,.35,7.65,2.37c.07,.96-3.43,2.22-3.94,3.04-3.08,5-2.62,10.91-10.2,14.32-5.35,2.41-3.59,15.98,2.28,15.95,6.99-.03,4.68-4.11,7.56-9.66,2.88-5.56,5.99-10.87,9.96-14.41,5.04,7.55,4.03,17.46,2.87,26.47-.57,4.48,.14,7.59,4.43,9,3.53,1.16,6.67,.82,8.19-2.57,3.31-7.37,.95-15.89-.94-23.74s-3.01-16.99,2.09-23.26c4.82-5.94,11.15-14.28,16.38-19.86,5.02-5.34,6.87-13.36,12.1-18.49-.9,9.16-5.01,18.81-5.91,27.97,4.75,2.88,15.84,5.03,17.78-.17s1-10.96,.91-16.51c-.09-5.55,1.14-11.82,5.8-14.84,2.05,3.91,1.63,8.6,1.1,12.98-.54,4.38-1.1,9.03,.74,13.04,1.83,4.01,7.08,6.8,10.8,4.44,4.12-2.61,3.37-8.84,1.45-13.33-1.92-4.49-3.32-15.69-1.35-20.15,4.2-1.35,4.84,11.28,7.97,14.39,3.07,3.06,8.02,2.83,12.33,2.4,1.99-.2,4.35-.66,5.1-2.52,.87-2.16-1.13-4.34-2.94-5.81Z"/>
        <path class="cls-4" d="M254.56,170.69c-3.83-2.8-7.44-5.12-11.03-7.02-3.58-1.9-7.13-3.34-10.8-4.53-1.13-.39-2.54-.38-3.97-.84-2.88-.84-5.86-1.47-8.82-2.04-2.97-.55-5.92-1.05-8.77-1.65-6.24-1.31-12.65-1.81-18.77-1.74-5.81,.08-11.51-.12-17.25-.03-1.93,.04-3.82,.12-5.92-.3-1.53-.29-4.35-.29-6.41,.34-.4,.12-1.27,.04-1.91,0-.69-.03-1.5-.25-2-.16-5.6,1.07-11.48,.73-17.18,1.36-1.42,.16-2.99,.03-4.15,.7-.3,.17-1.68,.32-2.11,.22-1.12-.26-2.24-.23-3.6-.1-5.86,.59-11.72,1.23-17.56,2.04-2.75,1.12-6.01,1.27-9.06,1.73-2.29,.34-4.6,.48-6.91,.71-2.33,.25-4.71,1.18-7.03,.92-.37-.04-1.21,.33-1.85,.47-2.87,.61-5.81,1.43-8.56,1.77-1.41,.17-2.81,.35-4.19,.66-8.89,2.02-17.67,4.47-26.08,7.84-8.39,3.38-16.44,7.68-23.52,13.25-1.24,.96-2.44,1.86-3.4,3.28-.75,1.1-2.77,3.03-3.86,3.7-.91,.51-1.61,1.19-2.28,1.89-.64,.69-1.19,1.46-1.79,2.2-2.17,2.76-3.99,5.85-5.36,9-.41,.94-.67,1.98-.91,2.96-.25,.99-.47,1.9-.86,2.75-.09,.17-.06,.79,.04,.99,.47,1.02,.81,1.88,1.24,2.69,.39,.69,1.24,1.59,2.14,2.25,.66,.49,1.38,.94,2.15,1.28,.38,.18,.78,.33,1.19,.44,.42,.12,.83,.19,1.15,.18,.48,0,1.1,0,1.59-.37,.22-.15,.4-.21,.67-.41,.26-.19,.55-.34,.79-.52,.24-.19,.49-.35,.71-.52,.21-.18,.42-.34,.62-.47,.81-.61,1.37-1.46,1.76-2.38,.37-.94,.58-1.91,.79-2.94,.47-2.64,.73-5.34,1.14-7.97l.2-.3s.05-.02,.1,0l.13,.06,.25,.13c.33,.18,.65,.37,.96,.56,.62,.39,1.22,.79,1.83,1.21,1.23,.83,2.46,1.87,3.73,2.77,.85,.6,1.72,1.18,2.73,1.43,.5,.11,1.06,.08,1.48-.23,.42-.31,.66-.79,.82-1.28,.17-.49,.24-1,.34-1.5l.31-1.72,.79-4.33c.56-3.08,1.2-6.15,1.96-8.7,.4-1.38,.76-2.78,1.31-4.27l.23-.57c.06-.04,.09,.13,.14,.18,.1,.14,.16,.33,.29,.42,.24,.19,.47,.39,.81,.37,.81,2.21,1.62,4.42,2.43,6.64,.81,2.07,1.68,4.04,2.44,6.09,.17,.44,.35,.88,.54,1.32,.15,.37,.31,.74,.46,1.1,.27,.69,.45,1.4,.43,2.1,0,.28,.42,1.38,.7,1.78,.94,1.47,1.29,3.15,1.5,5.17,.1,.97,.12,1.98-.06,3.04-.05,.32-.11,.65-.05,.97,.02,.16,.06,.32,.12,.48,.04,.14,.12,.34,.22,.59,.18,.47,.45,1.32,.22,2.17-.2,.81-.72,1.4-.94,1.7-1.15,1.48-2.27,2.98-3.38,4.5-2.2,3.03-4.31,6.12-6.3,9.24-.87,1.36-1.76,2.69-2.67,4l-1.39,1.95c-.25,.33-.45,.63-.73,.98-.28,.35-.56,.7-.86,1.01-1.17,1.28-2.42,2.32-3.51,3.36-1.09,1.02-2.03,2.12-2.21,2.99-.13,.55-.13,1.03,.15,1.82,.31,.79,.75,1.47,1.39,1.91,1.25,.83,3.19,.69,4.98,.07,.53-.19,1.12-.36,1.6-.6,.47-.23,.9-.55,1.17-1.03,.32-.47,1.28-1.54,1.81-1.98,1.86-1.37,2.85-3.95,4.42-6.09,1.44-2.05,2.71-4.43,4.17-6.72,.73-1.15,1.51-2.3,2.41-3.4,.91-1.09,1.93-2.17,3.31-2.99l1.67-1,.38,1.89c.45,2.22,.26,4.26-.02,6.25-.26,1.83-.43,3.92-1.51,5.32-.14,.19-.23,1.25-.38,1.91-.14,.7-.26,1.59-.52,2.06-1.22,2.12-2.23,4.33-3.45,6.52-.29,.55-.63,1.09-.97,1.63-.28,.5-.55,.91-.72,1.44-.37,1-.55,2.1-.56,3.2-.02,1.33,.2,2.68,.67,3.91,.47,1.22,1.22,2.34,2.2,2.97,.48,.34,1.03,.47,1.59,.52,.28,.02,.57-.05,.86-.06,.33-.05,.7-.15,1.05-.22,1.42-.31,2.81-.62,4.09-1.08,1.28-.46,2.39-1.14,3.39-2.06,.99-.91,1.91-2.03,2.71-3.14,.77-1.09,1.26-2.22,1.04-3.39-.17-1.19-.88-2.49-1.38-3.93-.59-1.6-1-3.26-1.1-4.89-.06-.77-.11-1.51-.13-2.32-.02-.99,0-2.01,.09-3.02,.32-3.94,1.05-7.53,2.26-10.38,.4-.98,.87-2.1,1.39-3.11,.29-.51,.55-.98,.87-1.38,.16-.2,.31-.39,.46-.54,.04-.08,.07,.05,.11,.07l.1,.15c.07,.1,.14,.22,.2,.34,.05,.13,.09,.26,.13,.38,.28,.91,.88,2.38,1.07,2.64,.85,1,1.65,3.9,2.59,7.23,.45,1.58,.88,3.34,1.55,4.8l.22,.4c.06,.11,.12,.23,.2,.31,.15,.18,.28,.38,.43,.53,.17,.13,.32,.28,.5,.38,.2,.08,.38,.17,.57,.23,.46,.1,.88,.06,1.43-.09,.61-.17,2.14,.03,3.23-.23,1.91-.44,3.81-1.27,5.17-2.49,.65-.6,.95-1.39,1.21-2.04,.52-1.28,.31-2.66-.59-3.93-.9-1.31-2.39-2.51-3.94-3.89-1.58-1.44-3.09-3.07-4.33-4.84-1.24-1.77-2.29-3.66-3.18-5.59-2.69-5.93-3.9-12.18-5.05-18.23l4.5-.11c-.22,1.93-.44,3.87-.32,5.75,.09,1.88,.35,3.73,.9,5.45,.56,1.72,1.39,3.3,2.49,4.7,2.19,2.8,5.44,4.76,9.02,6.09,2.72,1.02,5.92,1.17,8.5,2.48,2.81-.12,5.18,.44,7.59,1.24,.35,.12,1.25-.07,1.92-.1,1.04-.04,2.07-.26,3.13-.31,.56-.02,.98-.04,1.48,.04,.51,.06,1.04,.19,1.59,.44,.08,.04,.37-.01,.55,0,1.87,.12,3.15-.95,5.58-.44,1.52,.3,3.94,.02,5.97-.08,2.09-.09,4.2-.19,6.27-.42,2.13-.23,4.5,.07,6.46-.82,.32-.14,1.93,.27,2.86,.16,1.19-.13,2.4-.21,3.61-.27,1.21-.06,2.45-.08,3.57-.22,1.14-.12,2.3-.21,3.38-.57,1.1-.31,2.18-.64,3.15-1.25,.45-.26,1.05-.5,1.68-.71,.62-.23,1.24-.48,1.78-.6,3.86-1,6.93-3.34,9.99-6.05,4.04-3.62,8.06-7.86,12.46-11.22,.94-.71,1.4-.99,1.95-2.08,.36-.72,1.31-1.68,2.04-2.49,2.4-2.65,4.82-5.29,7.3-7.91l2.84,2.28c-2.42,3.6-4.91,7.19-7.67,10.64-1.4,1.72-2.87,3.41-4.54,4.97-1.67,1.56-3.59,3-5.81,3.99-1.7,.77-3.55,1.02-5.26,1.08-1.63,.04-3.25,.12-4.91,.47-1.37,.29-3.05,.16-4.07,.95-.15,.11-.68,.26-.94,.26-.47,0-.98,.05-1.25,.09-.16,.03-.32,.06-.47,.12-.15,.06-.26,.19-.39,.28-1.14,.93-2.27,2-3.19,3.07-.46,.54-.88,1.08-1.22,1.58-.17,.26-.31,.5-.4,.67-.1,.2-.18,.41-.24,.63h0c-.1,.55-.27,1.29-.17,1.94,.03,.69,.27,1.52,.68,1.98,1.77,1.8,4.35,2.71,6.87,2.33,.64-.09,1.23-.26,1.87-.49,.32-.12,.65-.28,1-.44l1.18-.57c1-.48,2.03-.89,3.06-1.1,1.03-.22,2.07-.24,3.1-.17,1.41,.09,2.76,.45,3.93,.93,1.17,.48,2.29,1.03,3.18,1.95,.15,.11,.27,.54,.32,.87-.03,.33-.18,.55-.31,.69-.64,.65-1.36,1.11-1.99,1.81l-.56,.6c-.2,.23-.45,.56-.78,.86l-.89,.92c-.26,.29-.44,.55-.67,.83l-.32,.41c-.08,.13-.1,.22-.15,.33l-.26,.64-.49,1.33c-.32,.9-.68,1.84-1.14,2.75-.46,.94-.92,2.01-1.54,2.99-.65,.96-1.44,1.85-2.44,2.22-.23,.12-.87,.73-1.28,1.09-.71,.61-1.4,1.31-2.21,1.68-.19,.09-.38,.18-.57,.27-.6,.23-1.14,.62-1.58,1.32-.44,.67-.69,1.54-.7,2.33,0,2.13,.15,4.27,.91,6.13,.44,1.03,.75,2.14,1.49,2.72,.42,.34,.98,.5,1.53,.46l.68-.04c.26,0,.46-.05,.69-.08,.75-.11,1.34-.33,1.82-.82,.47-.5,.66-1.03,.96-1.79,.61-1.63,.16-3.53,1.59-5.42,.55-.73,.87-1.48,1.17-2.34,.29-.85,.56-1.74,.97-2.55,.41-.8,.97-1.6,1.51-2.33,.42-.56,.98-1,1.32-1.54,.34-.55,.93-1.36,1.47-2.11,.55-.76,1.11-1.53,1.72-2.45,.82-1.2,2.39-2.31,3.7-3.38,.05,0,.09,0,.12,.1l.11,.19c1,1.71,1.9,3.24,2.67,5,.2,.43,.33,.93,.49,1.4,.16,.48,.32,.96,.41,1.44,.11,.48,.23,.95,.36,1.4,.09,.4,.17,.75,.28,1.11,.94,3.09,1.04,6.35,.88,9.51-.18,3.14-.67,6.31-.98,9.28-.06,.72-.03,1.49,0,2.18,.03,.69,.04,1.28-.09,1.87-.07,.23,.24,.85,.5,1.08,.82,.7,1.82,1.12,3.07,1.44,1.26,.34,2.51,.49,3.47,.3,.96-.19,1.65-.7,2.18-1.71,.52-1.11,1.02-2.46,1.18-3.78,.57-3.82-.22-7.7-.94-11.79-.7-3.99-1.79-8.2-2.76-12.33-.81-3.37-1.31-6.95-.66-10.55,.33-1.75,.47-3.55,1-5.33,.53-1.75,1.54-3.51,3.08-4.56,2.02-2.5,4-5.07,6.06-7.58,1.74-2.11,3.28-4.48,5.49-6.14,.8-.6,2.02-2.06,2.57-3.01,.44-.77,.93-1.48,1.46-2.17,.27-.34,.55-.68,.82-1,.23-.29,.46-.56,.71-.84,.94-1.13,1.9-2.34,2.87-3.67,.46-.63,.66-1.65,1.08-2.48,1.29-2.48,2.56-5.19,4.38-7.71,.96-1.31,2-2.59,3.19-3.79l5.23-5.25-.75,7.4c-.75,7.39-2.6,14.2-4.1,20.79-.18,.74-.21,1.53-.26,2.3-.02,.38-.03,.76-.07,1.11-.04,.35-.11,.79-.13,.74-.13,.19-.23,.43-.32,.7-.05,.08,0,.12,.05,.15l.14,.11c.1,.07,.21,.14,.32,.2l.18,.09c.09,.04,.05,.03,.3,.12,.39,.14,.79,.27,1.19,.38,.8,.23,1.62,.41,2.44,.54,1.62,.26,3.28,.31,4.58,.07,.63-.1,1.23-.33,1.42-.47,.23-.12,.4-.33,.53-.56l.16-.42c.07-.16,.12-.33,.18-.5,.12-.33,.22-.68,.32-1.03,.58-2.07,.72-4.43,.69-6.89-.02-2.48-.22-5.03-.17-7.81,.07-2.76,.43-5.58,1.43-8.38,.5-1.39,1.18-2.78,2.11-4.06,.92-1.28,2.1-2.44,3.47-3.33l2.55-1.66,1.42,2.7c1.2,2.28,1.68,4.77,1.78,7.08,.09,1.82-.6,3.56-.5,4.35,.29,2.52-.54,5.12-.29,6.96,.2,1.67,.25,3.2,.42,4.62,.09,.7,.23,1.37,.42,2.01,.1,.32,.21,.62,.35,.91,.14,.27,.24,.49,.43,.72,.48,.65,1.06,1.36,1.78,1.87,.71,.5,1.57,.74,2.21,.46,.19-.06,.56-.03,.74,.03,.39,.14,.75,.09,1.08-.11,.37-.23,.57-.56,.73-.94,.16-.38,.24-.88,.29-1.45,.05-.57,.08-1.2,.09-1.9-.3-1.29-.78-2.66-1.34-3.97-.15-.34-.26-.57-.52-1.22-.35-.81-.53-1.6-.79-2.41-.45-1.61-.75-3.22-1.01-4.78-.46-3.12-.6-6.02-.5-8.51,.1-2.51,.47-4.54,1-6.25,.24-.82,.42-1.75,.66-2.73,.13-.08,.26-.15,.39-.22,.33-.17,.72-.39,1.08-.4l.48-.03c.17,0,.48-.06,.7-.08,.49-.08,.95-.06,1.31,0,.73,.1,1.17,.32,1.56,.52,.76,.42,1.29,.83,2.03,1.42,.37,.32,.8,.69,1.34,1.33,.53,.64,1.2,1.62,1.93,3.34,.73,1.7,1.42,4.15,2.1,6.23,.35,1.02,.69,2.01,1.1,2.75,.05,.09,.1,.18,.16,.26l.14,.11s.06,.08,.1,.1c.08,.06,.15,.12,.23,.19,.79,.66,2.19,1.28,3.98,1.43,.9,.08,1.87,.02,2.87-.03,.5-.02,1.01-.04,1.52-.03h.36c.07,.03,.08,.05,.13,.06l.26,.14c.25,.14,.63-.05,.78-.26,.22-.28,.33-.59,.39-.89,.05-.3,.08-.59,.11-.95,.04-.52,.06-.94,.08-1.24-.04-.54,.04-1.02,.33-1.4,.41-.54,1.24,.02,2.27,.79,.98,.73,1.91,1.75,2.24,3.05,.35,1.28-.11,2.85-1.35,3.8-.95,.75-2.22,1.12-3.46,1.37-1.36,.26-2.21,.4-3.1,.82-.29,.13-1.23,.17-1.74,.1-1.78-.25-3.69-.35-5.61-.89-.95-.26-1.9-.64-2.74-1.2-.42-.27-.82-.57-1.16-.92-.24-.25-.41-.45-.56-.75-.46-.88-.79-1.85-1.09-2.77-.3-.93-.57-1.83-.85-2.89-.24-.9-.47-1.53-.73-2.3-.27-.78-.56-1.7-1.15-3.56-.2-.62-.46-.88-.86-.87-.2,0-.45,.07-.72,.24-.13,.08-.27,.17-.4,.27-.07,.05-.13,.09-.2,.13-.02,.08-.04,.16-.06,.24-.26,.73-.37,1.5-.46,2.24-.23,2-.17,3.87-.11,5.66,.08,1.88,.42,3.97,.95,5.92,.14,.49,.29,.97,.46,1.43,.08,.24,.18,.46,.27,.69l.36,.83c.51,1.17,.92,2.38,1.22,3.63,.3,1.25,.48,2.55,.45,3.9-.03,1.34-.28,2.74-.95,4.05-.66,1.31-1.76,2.42-3.1,3.1-1.35,.7-2.94,.86-4.35,.6-2.09-.1-4.04-1.06-5.58-2.42-.77-.69-1.46-1.49-2-2.41-.55-.95-.91-1.88-1.19-2.85-1.08-3.92-.55-7.73-.36-11.24,.15-2.36,.34-4.61,.25-6.76-.08-2.15-.46-4.16-1.36-5.85l3.02,.79c-2.49,1.61-3.91,4.72-4.37,8.07-.21,1.55-.31,2.83-.54,4.27-.15,.92-.26,1.99-.23,3.01,.13,3.93,.62,8.15-.42,12.43-.19,.77-.37,1.51-.64,2.37-.32,.98-.95,1.87-1.76,2.46-.82,.6-1.74,.88-2.51,.85-.33,.01-1.38,.27-1.84,.43-1.9,.67-3.95,.61-5.89,.28-.98-.17-1.94-.42-2.89-.7-.47-.14-.94-.3-1.41-.46-.21-.07-.51-.17-.81-.29-.3-.11-.59-.22-.88-.34-.9-.36-1.72-.8-2.5-1.28l-.58-.38c-.07-.02-.06-.08-.04-.15l.03-.18,.06-.37c.08-.5,.18-1,.3-1.5,.61-2.42,1.05-4.68,1.18-6.52,.08-1.34,.36-2.47,.61-3.7,1.04-5.08,3.35-10.06,3.06-15.03,.25-.51,.44-1.06,.6-1.65l2.96,1.41c-1.7,1.21-2.91,3.3-3.79,5.12-1.09,2.25-2.11,4.59-3.36,6.96-1.22,2.35-2.75,4.75-4.7,6.81-3.46,3.68-6.77,7.64-9.93,11.71-1.52,1.97-3.37,3.72-5.01,5.66l-1.29,1.54-.32,.39-.26,.36-.53,.72c-.61,1.02-1.16,2.08-1.5,3.23-.38,1.21-.99,2.68-.45,3.77,.04,.08,.04,.31,.01,.44-.22,1.37-.47,2.82-.33,4.23,.13,1.27,.67,2.39,.98,3.64,.35,1.52,.72,3.11,1.08,4.67,.37,1.53,.93,3.19,.69,4.6,.96,1.09,1.05,3.03,1.38,4.67,.32,1.55,.52,3.16,.63,4.81,.13,1.84,.12,3.74-.1,5.64-.22,1.91-.76,3.83-1.45,5.65-.19,.59-.54,1.4-.99,2.1-.47,.72-1.06,1.43-1.82,2-.75,.57-1.62,.99-2.49,1.25-.88,.25-1.73,.33-2.55,.33-.86,0-1.65-.13-2.42-.29-.77-.17-1.44-.36-2.23-.67-1.5-.56-3.19-1.66-4.3-3.31-.69-1.02-1.11-2.18-1.29-3.23-.19-1.06-.2-2.04-.15-2.97,.04-.92,.19-1.79,.32-2.61l.38-2.26c.2-1.25,.15-2.33,0-3.55-.18-1.63-.75-3.63,.16-5.62,.18-.4,.1-1.81-.1-2.56-.4-1.73-1.02-4.22-1.11-4.18-.16-.38-.3-.85-.56-1.27-.4,.27-.84,.74-1.09,1.28-.02-.02-.1,.07-.18,.15l-.23,.23-.43,.49c-.28,.33-.54,.68-.8,1.03-.5,.71-.95,1.47-1.37,2.25-.41,.78-.8,1.59-1.18,2.42-.19,.42-.37,.84-.56,1.26-.2,.44-.28,.72-.43,1.08-.25,.76-.46,1.55-.65,2.47l-.32,1.52-.23,.92c-.13,.42-.25,.82-.43,1.24-.7,1.75-2.06,3.22-3.8,3.95-.85,.37-1.84,.62-2.55,.69-.39,.05-.79,.11-1.08,.1l-1.12,.03c-1.45-.02-2.85-.46-3.98-1.25-.57-.39-1.08-.84-1.54-1.36-.45-.51-.74-.95-1.03-1.42-.93-1.6-1.4-3.15-1.73-4.68-.3-1.53-.43-3.06-.36-4.61,.07-1.55,.33-3.14,1.02-4.78,.34-.82,.81-1.65,1.5-2.43,.7-.8,1.57-1.45,2.54-1.88,.53-.27,1.11-.5,1.57-.8,1.14-.65,1.83-1.67,2.97-2.16,.27-.1,.79-.96,.95-1.53,.31-1.02,.62-2.04,.93-3.06,.18-.55,.35-1.1,.58-1.68,.11-.29,.21-.57,.35-.87l.35-.8,.18-.34c.06-.1,.11-.17,.17-.25,.1-.18,.32-.27,.54-.39l.73-.35c.25-.14,.58-.27,.77-.54,.13-.31-.08-.54-.31-.67-.24-.14-.56-.21-.88-.24-.65-.05-1.32,.05-1.84,.23-.39,.14-.7,.32-.99,.49l-.22,.12-.73,.37c-.53,.26-1.11,.53-1.77,.78-1.38,.48-2.85,.78-4.34,.77-1.49-.02-2.96-.3-4.35-.81-1.04-.86-1.98-1.36-2.83-1.89-.44-.23-.85-.48-1.22-.71-.39-.22-.73-.45-1.01-.69-1.52-1.23-2.49-3.09-2.71-5.46-.02-.43-.09-.87-.05-1.28l.04-.63,.07-.76c.13-.65,.28-1.29,.55-1.9,.11-.3,.28-.62,.44-.91,.14-.27,.27-.5,.41-.72,.55-.9,1.06-1.64,1.53-2.39,.67-1.12,2.64-2.73,3.62-3.17,.24-.12,.36-.15,.69-.39,.19-.14,.37-.28,.55-.39,.09-.06,.17-.12,.26-.17h0s0,0,0,0c-.03-.05,.05,.07,.04,.06h0s0,0,0,0h.02s.03-.03,.03-.03l.06-.04,.13-.08c.32-.24,.68-.35,1-.54,.34-.16,.7-.28,1.09-.43,.27-.1,.56-.21,.89-.34,1.71-.64,3.45-.14,5.45-.45,1.06-.16,2.2-.41,3.31-.54,1.09-.14,2.29-.13,2.97,.14,.14,.04,.66-.03,.85-.17,1.35-.77,2.61-1.26,4.01-2.04,1.38-.77,2.8-1.8,3.89-3.22,3.87-3.53,7.13-8.21,10.24-12.86l4.7,3.78c-4.07,4.31-7.93,8.92-12.21,13.23-3.44,3.46-7.35,6.53-10.9,9.94-3.72,3.58-8.19,6.62-13.21,8.62-1.24,.52-2.56,.87-3.84,1.3-1.3,.35-2.64,.59-3.96,.88-1.34,.18-2.69,.31-4.03,.47l-3.72,.28c-2.1,.18-4.49,.72-6.45,.05-.27-.09-1.24-.01-1.65,.11-3.1,.95-6.19,.93-9.4,.63-.78-.07-2.22,.03-2.68,.25-1.29,.62-2.85,.48-4.28,.53-1.73,.06-4.03-.34-5.08-.06-2.2,.63-3.76-.12-5.28-.36-1.01-.14-2.15-.07-3.23-.06-.51,0-1.17,.19-1.46,.11-3.32-.96-6.82-.36-10.21-1.33-.72-.2-1.51-.37-2.21-.62-3.93-1.47-5.79-2.52-7.91-3.65-1.05-.58-2.17-1.22-3.54-2.19-1.36-.97-3.02-2.31-4.72-4.6-.42-1.57-1.31-2.93-1.98-4.49-.39-.76-.63-1.57-.88-2.38-.16-.82-.3-1.65-.21-2.47,.12-1.19-.08-3.39-.18-4.82-.16-1.41-.1-2.81,0-4.22l1.12-16.35,3.94,16.23c1.08,4.47,1.65,9.05,3.22,13.17,.42,1.09,.12,2.18,1.19,3.35,.39,.43,.64,2.42,1.31,3.5,.91,1.56,1.71,3.4,3.38,4.31,.68,.38,1.56,1.6,2.6,2.44,1.37,1.18,2.69,2.58,4.4,4.37,.47,.48,1.09,1.54,1.38,2.81,.3,1.26,.15,2.63-.12,3.47-.59,1.74-1.58,3.11-2.6,4.16-1.03,1.06-2.12,1.87-3.21,2.59-2.19,1.41-4.52,2.44-7.05,2.93-.71,.14-1.41,.24-2.2,.23-.74,0-1.81-.15-2.81-.61-.05-.03-.13-.08-.21-.12-1.5-.69-2.85-2.35-3.48-3.58l-.12-.24c-.05-.09-.02-.06-.04-.1l-.05-.12c-.03-.08-.06-.16-.1-.23-.08-.13-.14-.24-.23-.27-.3-.09-.39-.2-.46-.45-.07-.24-.11-.62-.18-.87-.08-.25-.16-.54-.31-.83l-.06-.11c-.02-.07-.04,.04-.06,.05-.04,.07-.09,.13-.13,.2-.08,.14-.15,.28-.21,.44-.12,.31-.22,.66-.26,1.03-.07,.61-.16,1.07-.18,1.64v.85c0,.59,0,1.24,.02,1.81,.05,.9,.26,1.69,.67,2.53,.26,.52,.55,1.08,.84,1.66,.33,.68,.78,1.54,1.08,2.86,.32,1.29,.29,3-.21,4.37-.25,.64-.54,1.28-.89,1.74-.17,.24-.34,.5-.52,.7-.18,.19-.36,.38-.55,.55-.37,.41-.73,1.64-1.36,2.39-1.16,1.38-2.69,2.88-4.63,3.95-1.94,1.08-3.86,1.55-5.46,1.93l-2.37,.52c-.25,.05-.69,.1-1.04,.13-.37,.03-.72,.08-1.1,.06-.38-.03-.77-.08-1.15-.14l-.57-.1c-.18-.05-.36-.12-.54-.18-.36-.13-.72-.27-1.06-.43-.34-.16-.62-.37-.93-.56-.64-.39-1.09-.85-1.56-1.32-.49-.47-.78-.97-1.16-1.47-.32-.5-.57-1-.84-1.51-.2-.47-.34-.97-.46-1.48-.08-.5-.13-1.01-.2-1.5-.04-.49-.07-.97-.17-1.42-.08-.46-.17-.9-.38-1.33-.4-.93-.2-1.95,.11-2.88,.13-.46,.31-.92,.43-1.36,.11-.45,.15-.89,.12-1.38,0-.14,.14-.67,.45-1.27,.17-.3,.36-.62,.55-.91,.09-.14,.18-.27,.27-.4,.05-.06,.1-.12,.14-.17,.98-1.05,1.87-2.57,2.61-4.12,.75-1.56,1.36-3.23,1.86-4.91,.5-1.68,.92-3.4,1.2-5.07,.28-1.66,.46-3.33,.42-4.69,.02-.38-.1-.62-.13-.94l5.18,2.24c-.56,.38-1.26,1.12-2.22,1.44-.91,1.73-2.27,3.5-3.61,5.47-.67,.98-1.33,1.99-1.96,3.06-.31,.54-.64,1.1-.95,1.68-.22,.45-.4,.93-.54,1.44-.9,1.21-1.62,2.77-2.7,4.39-1.06,1.6-2.7,3.34-4.81,4.02-.33,.13-.81,.38-1.31,.63-.47,.22-.89,.41-1.25,.46-1.16,.18-2.03,.64-3.14,.99-1.08,.32-2.5,.6-4.3-.25-1-.46-2.5-1.27-3.61-2.52-.28-.31-.56-.62-.78-.96-.25-.33-.46-.67-.63-1-.09-.17-.19-.33-.28-.52-.08-.21-.17-.42-.25-.63-.07-.21-.15-.42-.22-.62-.05-.23-.09-.46-.13-.69-.08-.42-.12-.84-.08-1.29,.01-.44,.05-.88,.16-1.28,.09-.42,.21-.83,.37-1.17,.15-.36,.31-.73,.5-1.01,.72-1.24,1.54-2.11,2.3-2.86,1.67-1.64,3.27-2.89,4.29-4.16,.23-.26,.58-.74,.88-1.14l.94-1.24c.62-.83,1.23-1.68,1.81-2.53,2.36-3.48,4.3-7.17,7.02-10.58,.29-.37,.68-1.08,.68-1.3-.05-1.86,1.76-3.26,2.91-4.24l.18-.16,.09-.08,.02-.02h.01s.12,.08,.12,.08h.01s.12,.11,.12,.11c.16,.13,.33,.25,.51,.35l.26,.15c.05,.04,.11,.07,.17,.1,.12,.06,.24,.12,.38,.16,.06,.03,.12,.05,.19,.07,.1,.02,.09,.02,.09,.02,0,0,.05,0-.06,0-.1,0-.1,0-.26,.03-.19,.02-.38,.06-.55,.11l-.59,.15-.32,.09c-.08,.02-.02,0-.03,.02,.02,.02,0-.04,0-.06,0-.02-.02-.07-.04-.14l-.08-.21c-.07-.18-.19-.5-.27-.77-.18-.56-.29-1.14-.33-1.73-.03-.59,.04-1.17,.13-1.75,.13-.72-.03-1.92-.29-3.13l-.21-.94-.27-.97c-.17-.64-.39-1.31-.6-1.96-.31-.96-.75-1.93-1.14-2.92l-.14-.37s-.02-.07-.02-.1c0-.06-.01-.13,0-.21,0-.16,.04-.36,.11-.68,.08-.39-.22-.97-.4-.98-.31-.04-.46-.09-.59-.35-.06-.1-.11-.24-.16-.41l-.07-.26c0-.08-.03,0-.05,.02-.02,.03-.03,.06-.05,.09-.12,.24-.21,.53-.26,.94-.07,.56-.17,.94-.27,1.39-.04,.18,.03,.42,.06,.59,.08-.1-.1,.94-.48,1.7l-.15,1.5c-.1,.63-.24,1.39-.37,2.09-.3,1.4-.89,2.61-1.77,3.55-.86,.96-2.16,1.58-3.45,1.72-1.29,.14-2.63-.1-3.96-.69-.66-.29-1.32-.64-1.96-1.05l-.5-.32-.53-.36-.05-.04-.21-.19-.24-.22-.14-.11-.07-.05s-.01,.04-.02,.05c-.04,.16-.06,.36-.07,.56v.22s-.02,.05-.02,.05v.03s-.04,.19-.04,.19l-.18,.88c-.29,1.25-.68,2.58-1.31,3.91-.65,1.33-1.53,2.64-2.63,3.76-.57,.51-1.14,1.07-1.78,1.47-.32,.22-.59,.42-.99,.65l-1.36,.72-.56,.21-.14,.05c-.07-.06-.1,0-.15,0l-.29,.08c-.38,.15-.79,.14-1.19,.17-.4,0-.8-.03-1.2-.07-.4-.07-.8-.15-1.19-.24-.9-.25-1.33-.43-1.87-.65-.51-.22-1-.44-1.46-.68-.93-.48-1.8-1-2.65-1.58-.86-.6-1.67-1.19-2.59-2.1-.54-.49-1.23-1.41-1.6-2.06-.41-.7-.73-1.45-.95-2.21-.43-1.51-.4-2.96,.02-4.09,.14-.44,.34-2.19,.33-2.7-.12-1.44,0-2.53,1.02-3.72,.18-.22,.54-1.38,.71-2.01,.48-1.75,1.27-3.13,2.44-4.53,.91-1.08,2.06-2.55,2.75-3.73,.46-.8,.93-1.57,1.46-2.33,.53-.78,1.1-1.46,1.66-2.11,1.15-1.31,2.47-2.48,4.04-3.41,.39-.22,.93-1.43,1.56-1.93,2.37-1.95,4.61-4.22,7.45-5.47,1.15-.52,2.57-1.68,3.91-2.45,2.3-1.3,4.29-2.92,6.87-4.01,2.61-1.09,5.3-2.56,8.01-3.72,2.71-1.16,5.46-2.2,8.23-3.17,2.77-.98,5.56-1.85,8.36-2.66,2.8-.82,5.62-1.56,8.44-2.25,2.82-.69,5.65-1.34,8.47-1.94,2.83-.61,5.66-1.17,8.49-1.71,1.98-.39,3.84-.62,5.89-.69,5.24-.17,11.4-1.29,18.95-2.93,.54-.12,1.14-.16,1.71-.24,7.43-.98,14.89-1.92,22.34-2.34,3.27-.16,6.56-.08,9.9-.33,2.18-.19,4.31-.17,6.47-.74,1.8-.5,4.38,.09,6.48-.67,.77-.28,2.83-.35,3.87-.15,3.45,.63,7.02,.2,10.53,.27,4.03,.05,8.07,.1,12.1,.15,1.98,.02,3.95,.31,6-.18,1.01-.24,3.4,.06,4.85,.4,2.23,.5,4.49,.59,6.62,.62,4.59,.09,4.58,.01,9.02,1.04,.53,.13,1.11,.21,1.67,.29,5.6,.87,11.21,2.32,16.61,3.62,4.5,1.07,8.82,2.67,13.01,4.77,.84,.39,1.75,.8,2.59,1.28,.84,.47,1.6,1.01,2.06,1.74,.13,.21,1.03,.73,1.46,.89,3.7,1.34,6.86,4.11,9.97,6.5,3.03,2.31,6.13,4.03,8.97,6.66,2.65,2.46,5.5,4.77,8.23,7.11,4.15,3.54,4.78,4.58,3.46,6.17-1.07,1.29-2.4,.72-6.01-1.88-7.63-5.53-14.29-12.2-20.55-16.43Z"/>
      </g>
      <g>
        <g>
          <path class="cls-5" d="M70.87,99.24c-44.32,112.8,28.33,106.06,49.31,110.99,5.56,1.31,11.25,2.22,16.91,1.63,4.13-.43,8.16-1.65,12.15-2.96,12.49-4.08,87.27-20.4,53.36-109.66"/>
          <path class="cls-3" d="M211.88,127.63c.25,1.32,.37,2.66,.49,4.01l.38,4.02c.06,1.35,.08,2.7,.12,4.05,.04,1.35,.1,2.7,0,4.05-.06,1-.13,2.02-.19,3.04-.03,.51-.02,1.03-.04,1.55-.02,.52-.02,1.05,.02,1.58,.04,.53-.13,1.27-.34,2.1-.22,.83-.44,1.76-.65,2.67l-.77,3.72c-.27,1.24-.71,2.44-1.06,3.65l-.56,1.82-.7,1.77c-.49,1.17-.88,2.39-1.44,3.52-1.99,4.52-4.53,8.8-7.57,12.71-.79,.94-1.53,1.94-2.4,2.82-.86,.89-1.73,1.77-2.59,2.66-.9,.84-1.81,1.67-2.7,2.49-.89,.83-1.82,1.58-2.68,2.39-3.07,2.72-6.35,4.46-9.66,6.48-3.5,2.17-7.3,4.14-11.08,5.52-2.76,.99-5.51,1.88-8.22,2.89-1.69,.64-3.21,1.42-5.1,1.98-1.73,.52-3.82,.88-5.08,1.84-.1,.08-.92,.24-1.33,.3-1.99,.28-4.31,.99-5.9,1.61-1.55,.61-3.02,.86-4.58,1.08-4.31,.6-8.66,.33-12.78-.4-1.55-.27-3.07-.64-4.56-1.03l-1.12-.3-1.05-.26c-.69-.18-1.41-.33-2.15-.45-3.05-.55-6.45-.7-9.33-1.35-2.9-.67-5.7-1.05-8.57-1.6-1.64-.28-3.47-.97-4.93-.73-.14,.03-.74-.14-1.01-.25-4.42-1.82-9.19-2.43-13.56-4.77-4.45-2.39-8.87-5.3-12.47-9.09-.9-1.06-1.78-2.24-2.87-3.02-.37-.29-1.22-1.49-1.54-2.13-.22-.43-.45-.86-.68-1.29-.2-.45-.4-.89-.61-1.34-.42-.89-.9-1.75-1.34-2.63l-1.15-2.73-.57-1.37c-.15-.47-.28-.94-.4-1.41-.29-1.07-.6-2.14-.91-3.21-.25-1.08-.44-2.17-.65-3.26-.5-2.17-.56-4.39-.6-6.6-.04-.94,.02-2.04-.02-3.18-.04-1.14-.16-2.33-.43-3.45-.27-1.03,.14-3.16,.16-4.76,.04-1.31-.17-2.61,.02-3.89,.13-1.1,.46-2.18,.69-3.28,.07-.33,.12-.73,.13-1.06,.01-1.6,.29-3.16,.55-4.72,.27-1.56,.59-3.11,.92-4.66,.84-3.05,1.65-6.1,2.39-9.19,.82-3.08,1.61-6.19,2.59-9.25,1.02-3.04,2.03-6.09,3.12-9.09,1.27-3.28,2.69-6.63,4.43-8.51,.78-.85,1.22-.68,.96,.82-.19,1.1-.45,2.33-.84,3.52-.61,1.9-1.22,3.79-1.81,5.64-.57,1.93-1.04,3.89-1.58,5.84-.52,1.95-1.17,3.89-1.82,5.87-.43,1.22-.6,2.75-1.31,3.66-.1,.13-.28,.63-.32,.88-.82,5.51-2.52,11-3.4,16.56-.73,4.74-.68,9.36-1.09,14.12,.08,.66,.17,1.34,.26,2.04,.08,.7,.12,1.4,.15,2.11,.05,1.42-.02,2.85,.08,4.15,.05,1.16,.11,2.31,.18,3.47,.12,1.15,.35,2.28,.53,3.42l.3,1.71,.47,1.66,.48,1.66c.17,.55,.3,1.11,.54,1.63,1.55,4.33,3.99,8.25,6.94,11.69,3,3.49,6.75,6.33,10.86,8.53,4.12,2.2,8.59,3.79,13.18,5,1.56,.44,2.99,.42,4.8,1.06,1.71,.56,4.03,.81,6.1,1.13,1.9,.29,3.92,.46,5.71,.83,3.71,.79,7.52,1.24,11.4,2.1,3.67,.85,7.37,1.45,11.04,1.64,3.66,.22,7.25-.19,10.84-1.12,1.79-.45,3.58-1,5.37-1.59,1.8-.61,3.67-1.17,5.44-1.74,4.37-1.41,8.55-3.16,12.82-4.82,1.82-.72,3.58-1.8,5.52-2.21,.28-.06,.78-.37,1.36-.74,.57-.38,1.2-.84,1.74-1.14,2.74-1.48,5.38-3.12,7.97-4.84,3.54-2.46,6.88-5.2,9.86-8.27,.87-.97,1.78-1.9,2.54-2.95,.76-1.05,1.58-2.05,2.33-3.11,.77-1.12,1.54-2.24,2.31-3.36,.7-1.17,1.41-2.33,2.13-3.48,.77-1.53,1.65-3.01,2.37-4.57l1.03-2.37,.51-1.19c.16-.4,.27-.82,.41-1.23,.52-1.72,1.11-3.45,1.4-5.25,.36-1.78,.78-3.52,1.06-5.22,.72-3.14,.89-6.37,1-9.58l-.13-4.84c-.05-1.61-.29-3.22-.41-4.83l-.21-2.4-.38-2.39c-.26-1.59-.49-3.19-.79-4.77l-1.1-4.72c-.19-.78-.36-1.57-.57-2.35l-.71-2.31c-.54-1.75-.94-3.45-1.34-5.15-.48-1.68-.96-3.35-1.55-5.04-.55-1.57-.14-4.16,.49-3.66,.12,.1,.29,.33,.41,.58,.8,1.61,1.56,3.15,2.36,4.75,.39,.81,.78,1.63,1.13,2.51,.32,.89,.62,1.82,.9,2.81l1.25,4.38c.4,1.46,.69,2.96,1.05,4.44,.32,1.49,.75,2.95,.97,4.46l.75,4.51Z"/>
        </g>
        <g>
          <path class="cls-5" d="M208.56,116.46c11.05-.59,22.14-.4,33.16,.57,8.38,.74,17.78,2.57,22.35,9.63,2.29,3.55,2.96,7.92,2.91,12.15-.1,8.37-2.89,16.69-7.85,23.43-1.93,2.62-4.31,5.77-3.08,8.78,.43,1.05,1.26,1.89,2.1,2.65,3.66,3.33,7.97,5.94,12.62,7.63,2.26,.82,4.67,1.47,6.53,3s2.99,4.3,1.8,6.4c-1.44,2.54-5.32,2.49-7.73,.84s-3.84-4.34-5.64-6.63c-3.35-4.26-8.04-7.22-12.64-10.1-1.43-.04,2.84,18.53,7.6,26.51,1.22,2.05,2.59,4.64,1.26,6.62-.53,.8-1.41,1.29-2.29,1.68-4.91,2.18-12,1.15-13.76-3.93-1.34-3.87,1.11-3.77,2.37-7.67,2.18-6.76-2.65-23.21-3.47-24.38-1.67-.09-7.97,11.42-8.29,18.33s3.78,14.58,1.08,21.06c-2.7,3.65-5.68,2.28-10.82,2.97-1.27,.17-4.18-2.25-4.66-5.23-.29-1.79,3.77-7.76,4.26-9.51,2.84-10.27,7.06-22.44,.66-33.94"/>
          <path class="cls-3" d="M228.36,200.1l-.41,1.47c-.06,.21-.22,.71-.33,.92-.12,.29-.24,.53-.37,.78-.49,.97-1,1.85-1.48,2.74-.49,.88-.96,1.76-1.37,2.63-.21,.43-.38,.85-.53,1.26-.05,.17-.14,.4-.15,.52-.03,.1-.01,.16-.02,.24,.2,1.17,1.2,2.68,2.34,3.43,.46,.29,.55,.34,.75,.33l.54-.05,.63-.05,1.26-.1c.83-.07,1.66-.15,2.43-.34,.53-.14,1.27-.09,1.97-.15,.7-.05,1.39-.22,1.95-.78,.18-.18,.38-.39,.53-.6,.09-.1,.06-.09,.19-.45,.22-.55,.32-1.15,.44-1.74,.2-1.2,.19-2.47,.1-3.76-.2-2.59-.84-5.26-1.36-8.04-.26-1.35-.49-2.74-.6-4.18-.07-.72-.07-1.45-.08-2.19,.02-.76,.09-1.5,.2-2.23,.45-2.88,1.34-5.55,2.41-8.14,.76-1.79,1.64-3.54,2.66-5.24l.45-.73c.23-.37,.47-.71,.71-1.06,.48-.69,1-1.33,1.53-1.8,.53-.49,1.06-.77,1.57-.86,.26-.05,.53-.12,.87-.15l.69,.03c.55,1.07,1.13,2.16,1.55,3.56l.34,1,.25,.8c.12,.38,.25,.76,.37,1.13,1.39,4.36,1.77,8.47,2.22,12.89,.18,2.37,.32,4.83-.49,7.54-.4,1.28-1.16,2.59-1.89,3.52-.35,.46-.61,.82-.71,1.04-.1,.21-.15,.36-.14,.7,0,.47,.2,1.2,.4,1.71,.11,.27,.26,.52,.41,.78,.19,.23,.34,.49,.58,.69,.86,.87,2.1,1.48,3.47,1.7,1.71,.28,3.37-.04,5.15-.49,.42-.11,.84-.23,1.25-.39,.43-.14,.84-.34,1.13-.53,.6-.39,.65-.78,.46-1.12-.03-.03,.09-.41,.09-.75,.04-.73-.34-1.76-.87-2.7-.25-.45-.59-.98-.9-1.48-.31-.49-.59-.95-.85-1.36-1.03-1.59-1.62-3.12-2.24-4.71-1.67-4.38-2.99-8.82-3.96-13.39l-.25-1.29-.3-1.79c-.23-1.6-.42-3.29-.08-4.32,.17-.52,.4-.87,.72-1.17,.08-.08,.17-.15,.29-.23,.14-.1,.24-.11,.32-.12l.52-.09c.13-.07,.46,.05,.72,.1,.28,.08,.52,.09,.82,.22l1.98,1.28c.99,.65,1.99,1.32,3,1.98,.77,.53,1.55,1.06,2.3,1.63,1.5,1.13,2.91,2.39,4.02,3.76,2.32,2.75,3.74,5.74,5.8,7.58,.29,.27,.6,.52,.91,.76,.29,.2,.61,.4,.96,.52,.69,.27,1.45,.29,1.97,.01,.1-.05,.56-.06,.76-.08,.86,0,1.51-.4,1.8-1.08,.28-.65,.14-1.58-.34-2.4-.24-.41-.55-.79-.89-1.11-.33-.31-.75-.59-1.22-.86-.92-.53-2.02-.94-3.21-1.41-1.22-.47-2.62-.97-3.94-1.56-1.33-.58-2.63-1.22-3.91-1.93-2.55-1.41-4.96-3.09-7.14-5.02-.57-.5-1.18-1.11-1.79-1.84-.61-.72-1.17-1.64-1.6-2.57-.07-.17-.15-.43-.23-.76-.04-.33-.11-.72-.08-1.11,0-.8,.21-1.56,.39-2.02,1.05-2.45,2.5-4.16,3.73-5.89,1.19-1.63,2.21-3.38,3.17-5.14,2.17-4.04,3.33-8.5,4.3-13.02,.42-1.9,.66-4.66-.02-6.92-.28-1.03-.36-3.21-.9-4.71-.43-1.24-1.13-2.27-1.77-3.29-.27-.44-.56-.87-.81-1.35-.31-.43-.58-.9-.94-1.31-.22-.24-.51-.51-.76-.71-2.55-1.77-5.45-3.11-8.62-4.06-3.16-.96-6.53-1.56-9.99-1.78-7.01-.45-14.11-.81-21.17-.85-3.89-.03-7.89-.05-10.6-.88-1.22-.38-1.25-.85,.4-1.2,1.22-.26,2.62-.51,4.02-.6,2.24-.15,4.49-.31,6.68-.39,4.55-.17,9.1-.51,13.82,0,1.46,.15,3.2,.01,4.38,.54,.16,.07,.76,.15,1.05,.14,6.28-.16,13.11,.99,19.11,4.29,2.55,1.38,4.88,3.3,6.63,5.73,1.74,2.46,2.72,5.37,3.01,8.29,1,3.15,.77,6.97,.18,10.1-1.06,5.54-2.95,10.89-5.79,15.75-.69,1.22-1.48,2.38-2.29,3.53-.79,1.09-1.55,2.13-2.12,3.16-.58,1.02-.93,2.04-.93,2.86,.03,.82,.31,1.45,1.09,2.28,.38,.41,.88,.85,1.36,1.28,.49,.42,.98,.84,1.49,1.24,1.02,.8,2.08,1.54,3.18,2.22,2.2,1.37,4.54,2.49,6.99,3.36,1.24,.44,2.59,.86,3.98,1.5,1.37,.63,2.81,1.49,3.95,2.88,1.08,1.34,1.84,3.03,1.79,5.01-.03,.98-.35,2.01-.92,2.86-.56,.86-1.39,1.55-2.27,1.97-1.2,.57-2.36,.79-3.53,.78-1.17-.02-2.39-.28-3.59-1.03-2.26-1.42-4.12-3.71-5.48-5.66-.63-.9-1.26-1.73-1.92-2.49-.67-.77-1.36-1.49-2.02-2.21-1.37-1.47-2.95-2.79-4.64-4.01l-1.62-1.14-.45-.29-.23-.14c-.09-.1-.15,.06-.14,.13-.02,.36,.05,.72,.11,1.06l.18,.89,.34,1.53c.47,2.05,1.02,4.09,1.6,6.11,1.16,4.01,2.5,8.04,4.34,11.69,.82,1.73,2.38,3.56,2.78,6.29,.09,.69,.06,1.46-.18,2.22-.24,.75-.68,1.46-1.23,1.98-.54,.52-1.13,.88-1.68,1.17-.54,.29-1.09,.49-1.66,.72-2.75,.96-5.72,1.21-8.66,.46-1.46-.39-2.92-1.08-4.15-2.18-1.24-1.07-2.12-2.68-2.5-4.2-.15-.68-.33-1.42-.25-2.33,.06-.91,.47-1.84,.86-2.42,.8-1.17,1.31-1.71,1.91-2.48,.4-.43,.44-2.19,.49-3.48,.12-3.25-.33-6.74-.99-10.14-.32-1.66-.69-3.33-1.12-4.97l-.33-1.23-.2-.72c-.05-.15-.09-.31-.15-.45-.03-.2-.2-.05-.27,.05-.09,.11-.16,.22-.22,.33l-.04,.08-.23,.41-.5,.94c-.32,.64-.62,1.29-.91,1.95-.57,1.32-1.09,2.67-1.57,4.02-.5,1.41-.95,2.84-1.26,4.25-.16,.7-.29,1.41-.36,2.08-.07,.65-.08,1.35-.07,2.06,.09,3.61,1.1,7.5,1.54,11.71,.21,2.19,.29,4.58-.33,6.96-.07,.3-.19,.58-.28,.87l-.18,.5c-.08,.19-.12,.46-.31,.62-.35,.43-.48,.61-.72,.86-.24,.23-.45,.48-.73,.69-1.03,.89-2.43,1.44-3.63,1.6-1.39,.17-2.58,.1-3.71,.1-.56,0-1.11,0-1.65,.02l-.8,.04-.88,.08c-1.06,.14-2.17-.44-2.74-.85-.66-.46-1.2-.97-1.69-1.54-.49-.57-.91-1.19-1.25-1.87-.18-.33-.32-.7-.45-1.06l-.17-.56-.14-.65-.02-.81c.04-.27,.09-.54,.14-.74,.11-.4,.23-.77,.37-1.1,.27-.68,.56-1.29,.86-1.9,.6-1.2,1.25-2.34,1.86-3.45l.63-1.17c.09-.18,.2-.38,.27-.55l.12-.26,.07-.18,.75-2.62c.51-1.76,.99-3.51,1.45-5.26,.88-3.5,1.54-7.02,1.69-10.52,.09-3.93,.14-7.62-1.28-11.26-.17-.42-.26-.91-.33-1.39-.1-.47-.15-.96-.16-1.38-.01-.85,.15-1.46,.51-1.21,.14,.1,.36,.34,.53,.61,.27,.43,.55,.86,.82,1.29,.24,.45,.47,.9,.71,1.34,.51,.89,.84,1.85,1.24,2.82,.65,1.97,1.19,4.12,1.19,6.51,.14,7.09-1.81,13.82-3.61,20.27Z"/>
        </g>
        <g>
          <path class="cls-5" d="M60.35,115.9c-10.76,2.03-21.31,5.17-31.43,9.35-6.01,2.49-12.34,5.8-14.98,11.75-3.03,6.81-.18,14.83,3.95,21.04,4.13,6.2,9.57,11.62,12.5,18.47-4.16,4.88-8.95,9.23-14.22,12.89-1.87,1.3-4.14,2.57-6.32,1.91-2.01-.61-3.9-2.8-5.78-1.85-.85,.43-1.28,1.38-1.57,2.28-.89,2.77-.93,6.02,.77,8.39s5.49,3.26,7.63,1.28c-2.31,3.8-2.16,8.95,.37,12.61,.58,.84,1.31,1.63,2.27,1.97,1.72,.62,3.61-.35,5.01-1.52,3.55-2.98,5.71-7.54,5.77-12.17,.39,2.45,3.59,3.08,6.07,3.11,2.98,.04,6.95-.78,7.13-3.76,.08-1.34-.74-2.55-1.25-3.79-1.7-4.14,.52-9.45,4.66-11.15"/>
          <path class="cls-3" d="M37.37,205.1c-.97,.78-2.01,1.18-3,1.45-1,.27-1.99,.39-2.97,.44-.98,.04-1.95,.02-2.95-.11-.5-.06-1-.16-1.51-.29-.26-.07-.51-.14-.77-.24-.12-.04-.14-.05-.21-.08-.06-.03-.12-.07-.18-.12-.13-.11-.26-.29-.31-.41-.01-.03-.02-.05-.02-.07,0,0,0-.01,0-.01l.02,.1c.03,.16,.07,.35,.14,.55,.15,.44-.23-.17-.43,.65,0,.03-.03,.13-.07,.25l-.1,.33c-.07,.22-.13,.43-.22,.65-.15,.43-.32,.85-.51,1.26-.38,.83-.81,1.63-1.32,2.39-.99,1.53-2.22,2.88-3.64,4.08-.72,.59-1.51,1.13-2.48,1.52-.94,.39-2.12,.65-3.36,.39-1.25-.25-2.28-1.01-2.97-1.75-.71-.76-1.22-1.52-1.66-2.36-.88-1.65-1.34-3.53-1.42-5.37-.06-.92-.01-1.85,.09-2.75l.08-.64v-.18c.02-.12,0-.13-.02-.17-.04-.05-.04-.08,0-.15,.04-.06,0-.02,0-.02-.01,0-.03,0-.05,0l-.21-.05h-.04s-.24-.05-.24-.05c-.2-.03-.4-.05-.59-.1-.39-.08-.78-.19-1.16-.32-.84-.29-1.64-.71-2.35-1.29-.72-.56-1.35-1.34-1.77-2.09-.89-1.54-1.21-3.28-1.13-4.83,.05-1.14,.27-2.23,.56-3.27,.16-.53,.31-1.01,.51-1.55,.21-.54,.45-1.12,.88-1.72,.33-.46,.79-.92,1.31-1.22,.63-.36,1.35-.57,2.14-.55,.76,.03,1.38,.23,1.91,.48,.7,.34,1.25,.76,1.76,1.04,.51,.29,1,.44,1.34,.27,.06-.02,.27,.12,.41,.22,.31,.21,.81,.24,1.31,.1,.5-.14,.98-.45,1.33-.77,.68-.63,1.38-1.1,2.18-1.68,2.13-1.56,4.19-3.23,6.18-4.95,1.5-1.29,3.05-2.52,4.46-3.92,.37-.36,.72-.76,1.07-1.15l.51-.6c.1-.12,.06-.09,.1-.14,.02-.03,.04-.06,.05-.08-.02-.03-.03-.06-.03-.1v-.05s0-.01-.04-.12c-.09-.22-.18-.44-.25-.66-.63-1.78-1.62-3.32-2.7-4.86-.61-.87-1.16-2.04-2.13-2.42-.09-.04-.33-.36-.41-.54-1.32-2.89-4-4.75-5.71-7.55-1.79-2.88-3.59-5.95-4.73-9.31-.31-.9-.42-1.91-.99-2.69-.2-.28-.42-1.28-.37-1.79,.06-1.37,.07-2.76,.15-4.17,.08-1.41,.33-2.84,.79-4.19,1.11-3.03,2.94-5.91,5.58-7.65,1.11-.74,2.57-1.68,3.63-2.9,.49-.58,1.89-1.1,2.84-1.64,.78-.44,1.47-1.02,2.27-1.39,.68-.31,1.45-.42,2.18-.63,.22-.06,.47-.16,.66-.27,3.72-2.13,7.96-2.87,11.96-4.31,4.03-1.46,8.25-2.55,12.46-3.45,2.32-.5,4.76-.84,6.51-.19,.79,.29,.88,.75-.05,1.21-.68,.34-1.46,.69-2.26,.91-1.29,.35-2.56,.75-3.8,1.13-2.58,.78-5.04,1.89-7.78,2.43-.85,.17-1.75,.71-2.56,.5-.11-.03-.46,.04-.62,.13-3.33,1.75-7.1,2.6-10.6,4.03-2.99,1.23-5.61,2.88-8.4,4.21-1.21,1.3-2.85,2.29-4.16,3.27-2.35,1.69-4,4.14-4.62,6.88-.61,2.76-.26,5.71,.53,8.56,.84,2.9,2.22,5.71,3.94,8.29,1.74,2.62,3.75,5.13,5.74,7.74,.67,.89,1.51,1.48,2.1,2.7,.56,1.13,1.62,2.38,2.4,3.64,.36,.58,.74,1.16,1.08,1.77,.18,.3,.34,.6,.48,.91l.21,.46,.11,.25,.15,.37,.61,1.57,.15,.38c0,.06,.09,.13,.04,.18l-.15,.16-.58,.62-1.1,1.17-.69,.7-2.76,2.79c-1.85,1.84-3.76,3.64-5.82,5.25-1.02,.8-2.06,1.58-3.12,2.33-1.05,.73-2.13,1.53-3.43,2.18-1.27,.63-2.85,1.18-4.6,.91-.88-.13-1.65-.48-2.27-.8-.63-.33-1.18-.66-1.67-.9-.39-.2-.75-.32-.98-.34-.18-.02-.29,.03-.39,.11-.1,.09-.14,.15-.29,.44-.13,.27-.25,.65-.36,1.09-.23,.86-.37,1.74-.44,2.61-.09,1.14,.36,2.12,.32,3.2,0,.16,.19,.42,.45,.66,.25,.25,.55,.41,.77,.6,.5,.41,1.13,.74,1.78,.89,.16,.05,.33,.07,.49,.09h.06s.17,0,.17,0l.35-.04,.35-.04c.06,0,.11,0,.18-.02l.28-.2,1.11-.79c.11-.08,.15-.1,.32-.23l.46-.36,.92-.72,5.17-4.09-1.28,2.43-.39,.81-.02,.08v.04s0,0-.07,.11l-1.22,2.2-1.31,2.39c-.24,.41-.4,.77-.56,1.12-.15,.35-.35,.73-.47,1.05l-.24,.92c-.03,.13-.1,.35-.1,.41l-.03,.23c-.05,.31-.08,.62-.1,.93-.03,.63,0,1.26,.09,1.87,.21,1.52,.95,2.87,1.78,4.03,.43,.62,.9,1.03,1.18,1.15,.26,.12,.57,.17,1.13,.02,.7-.2,1.52-.67,2.32-1.33,.81-.65,1.55-1.41,2.17-2.27,.65-.89,1.15-1.91,1.54-2.94,.09-.26,.2-.52,.27-.78,.09-.29,.15-.42,.29-.99l.18-.7c.07-.21,.09-.57,.14-.84l.13-.86c.04-.29,.06-.62,.09-.91,.15-1.49,.27-3.11,.36-4.22l.03,.25v.12s.04,.02,.04,.02l.05,.03,.07-.27,.04-.14,.05-.41,.1-.82,.16-2.17,.08-1.08,.13-2.3,1.65,6.81,.69,2.67,.29,1.11,.14,.54,.1,.13,.39,.51c.07,.08,.13,.19,.2,.23,.07,.03,.14,.07,.22,.09l.2,.07,.42,.13c.58,.15,1.22,.23,1.86,.27,1.3,.07,2.64-.04,3.82-.33,.89-.22,1.68-.6,2.06-1.05,.21-.22,.29-.44,.34-.72,.06-.28,.03-.55-.08-.94-.21-.77-.84-1.7-1.27-3-.41-1.25-.55-2.57-.46-3.85,.11-1.46,.62-2.79,1.33-3.95,.72-1.16,1.64-2.15,2.72-3.04,.51-.42,1.33-.58,1.94-.46,.62,.11,.99,.4,.87,.69-.04,.11-.16,.26-.3,.36-.89,.66-1.5,1.52-1.98,2.43-.48,.91-.83,1.88-1.15,2.96-.24,.8-.34,1.63-.29,2.44,.05,.84,.26,1.54,.63,2.35,.37,.84,1.01,1.86,1.17,3.36,.06,.75-.07,1.51-.35,2.24-.32,.72-.81,1.32-1.35,1.78Z"/>
        </g>
        <g>
          <path class="cls-5" d="M197.83,170.47c-6.25-10.26-11.37-21.2-15.24-32.57-3.52-10.34-10.04-19.98-15.15-29.72-.31-.59-.64-1.21-1.18-1.61-.77-.57-.74-15.89-1.7-15.87-9.35,.19-18.67,1.81-27.52,4.8-2.52,.85-5.03,1.82-7.65,2.26-5.63,.96-11.35-.53-16.96-1.64-5.49-1.08-11.05-1.79-16.63-2.13-.73-.04-2.62,15.24-3.16,15.73-.41,.37-.56,.93-.69,1.46-1.71,6.96-3.12,14.28-3.38,21.47-.22,6.02-2.12,10.4-4.94,15.82-2.95,5.68-6.39,11.12-10.25,16.22-1.3,1.72-12.02,12.01-11.75,13.26,3.04,14.17,6.81,28.18,11.29,41.96,1.32,4.05,3.16,8.57,7.16,10.02,1.02,.37,2.13,.51,3.09,1.04,2.12,1.17,2.84,4.01,2.31,6.38-.82,3.65-4.73,6.62-8.33,5.6s-5.06-6.64-1.98-8.77c-2.42-3.63-8.72-9.41-9.36-9.01-.57,.24-5.67,17.98-3.59,26.9,.42,1.81,1.05,3.6,1.05,5.46,0,4.68-4.84,8.84-9.41,7.82-4.57-1.02-7.13-7.23-4.38-11.02,1.57-2.16,4.3-3.26,5.79-5.47,1.12-1.66,1.4-3.73,1.63-5.72,.74-6.39,1.78-17.85,.51-17.91-2.3,.04-7.32,7.42-11.62,11.77-.99,1-1.99,2.02-2.64,3.26-.73,1.41-.97,3.02-1.61,4.47-1.21,2.76-3.95,8.12-6.96,7.95s-8.04-.52-8.04-7.86c0-2.28,6.2-4.91,7.69-6.64,5.74-6.68,9.23-13.95,14.97-20.63,1.09-1.26,2.21-2.6,2.55-4.23,.3-1.43-.04-2.9-.41-4.31-2.64-10.07-6.82-19.73-12.33-28.56-1.1-1.75-2.27-3.52-2.76-5.53-.98-4.01,.89-8.11,2.71-11.82,5.01-10.22,10.02-20.43,15.04-30.65,3.45-7.04,6.94-14.16,8.62-21.82,3.89-17.68-2.04-36.98,4.63-53.8,3.17-7.98,4.46-13.37,4.3-21.91-.14-7.34,.5-15.08,4.8-21.29,4.04-5.84,11.08-9.48,18.18-9.39,13.08,.16,25.4,11.88,37.78,7.67,3.87-1.31,7.06-4.06,10.58-6.13,9.55-5.62,22.92-5.64,30.86,2.1,5.97,5.82,8.21,15.07,8.66,23.16,.5,8.99,5.04,15.52,7.62,24.17,2.63,8.8,3.09,18.1,5.05,27.07,3.77,17.21,16.79,32.21,25.46,47.54,3.79,6.7,6.82,9.66,8.76,16.11,4.01,13.32-1.27,32.61-7.85,44.86-6.4,11.9-20.02,18.72-25.93,30.87-4.31,8.86-3.85,19.23-2.79,29.02,.3,2.73,.65,5.53,1.96,7.95,.95,1.76,2.37,3.27,3.06,5.15,1.41,3.81-1.07,8.57-4.99,9.61-3.93,1.04-8.43-1.87-9.09-5.88-.55-3.35,1.23-6.57,2.18-9.82,2.24-7.63-.06-15.76-2.34-23.38-.73-.33-8.67,7.4-10.73,12.57-1.36,3.4-1.61,7.19-3.2,10.48s-5.36,6.09-8.76,4.76c-2.98-1.17-4.13-5.02-3.34-8.13,.8-3.1,4.52-3.18,6.67-5.56,5.5-6.1,9.49-14.63,14.99-20.72,0-.59-10.62-1.69-15.54,.09-1.55,.56-2.9,1.59-4.48,2.06-4.37,1.32-9.37-2.99-8.71-7.5,.65-4.51,6.67-7.22,10.49-4.72,.89,.58,1.66,1.38,2.66,1.73,1.24,.43,2.59,.09,3.86-.25,2.88-.78,5.75-1.55,8.63-2.33,1.28-.35,2.6-.71,3.68-1.49,1.47-1.07,2.29-2.79,3.06-4.44,5.17-11.08,10.34-22.15,15.51-33.23,.53-1.13,1.07-2.32,1.01-3.57-.07-1.3-.78-2.47-1.46-3.59Z"/>
          <path class="cls-3" d="M174.89,236.01c-1.55,2.33-3.06,4.73-4.66,7.09-.81,1.18-1.63,2.36-2.53,3.51-.43,.58-.91,1.14-1.36,1.71-.51,.57-.87,1.07-1.58,1.73-1.33,1.18-2.8,1.76-3.9,2.39-.55,.31-1.01,.62-1.3,.95-.3,.34-.46,.64-.58,1.14-.52,2.16,.24,4.85,1.89,5.83,.81,.51,1.81,.62,2.82,.35,1.01-.29,2.02-.94,2.85-1.79,.43-.42,.79-.9,1.12-1.39,.33-.49,.57-1.02,.83-1.63,.49-1.18,.83-2.47,1.16-3.82,.33-1.35,.64-2.76,1.09-4.2,.23-.72,.47-1.42,.8-2.17,.33-.72,.7-1.39,1.1-2.03,1.59-2.56,3.45-4.78,5.44-6.9,.37-.4,.76-.78,1.14-1.17l.76-.72c.33-.31,.67-.6,1-.89,.67-.56,1.39-1.05,2-1.17,.31-.03,.57-.04,.9-.02,.05,0,.09,.04,.14,0l.07,.09,.15,.17,.29,.35c.19,.24,.39,.46,.58,.71l.38,1.3,.63,2.21c.29,1.04,.56,2.09,.82,3.16,1.03,4.25,1.81,8.74,1.49,13.46-.06,1.17-.34,2.6-.8,4.16-.48,1.55-1.17,3.09-1.7,4.64-.53,1.54-.86,3.14-.55,4.56,.29,1.39,1.33,2.74,2.69,3.53,1.84,1.12,4.12,1.17,5.77,.02,1.69-1.14,2.81-3.33,2.69-5.36,0-.51-.14-.99-.28-1.46-.18-.48-.43-.97-.75-1.48-.62-1.02-1.46-2.07-2.18-3.39-1.45-2.68-1.83-5.57-2.13-8.2-.58-5.28-1-10.65-.62-16.07,.37-5.4,1.6-10.93,4.34-15.78,2.6-4.74,6.27-8.64,9.93-12.26,3.68-3.62,7.45-7.03,10.63-10.83,1.56-1.91,3.04-3.87,4.17-6,1.17-2.17,2.25-4.44,3.19-6.75,1.92-4.62,3.4-9.43,4.46-14.31,1.06-4.83,1.62-9.81,1.46-14.72-.18-4.9-1.3-9.66-3.69-13.87-1.18-2.12-2.63-4.21-4-6.4-.69-1.09-1.36-2.2-2-3.33-.63-1.08-1.26-2.15-1.89-3.23-2.58-4.25-5.35-8.36-8.08-12.43-4.73-7.04-9.1-13.99-12.28-21.54-1.59-3.76-2.86-7.69-3.7-11.71-.82-3.98-1.37-7.98-2-11.97-.66-4.23-1.35-8.45-2.45-12.52-1.06-4.06-2.74-7.93-4.44-12-1.68-4.04-3.24-8.42-3.65-13.01-.08-1.08-.16-2.16-.24-3.23-.09-1.03-.2-2.05-.35-3.07-.29-2.03-.7-4.02-1.25-5.95-1.59-5.58-4.58-10.85-9.42-13.75-4.79-2.95-10.86-3.75-16.51-2.68-3.54,.7-6.8,2-9.77,3.96-1.52,.98-3.04,2.12-4.75,3.22-1.7,1.08-3.61,2.21-5.86,2.84-4.13,1.27-8.85,.93-12.83-.22-4.04-1.09-7.68-2.57-10.88-3.53-.54-.18-3.67-1.48-5.25-2.07-3.74-1.38-8.07-2.44-12.08-1.75-4.05,.59-7.64,2.6-9.95,4.73-4.57,4.17-6.55,9.55-7.29,15.45-.26,2.03-.35,4.12-.36,6.22,0,2.05,.08,4.34-.03,6.59-.18,4.51-1.09,9.09-2.53,13.32-.35,1.06-.73,2.11-1.12,3.15-.39,1.04-.82,2.07-1.12,3.02-.33,.97-.71,1.92-.93,2.93-.25,1-.56,1.98-.72,3-.83,4.05-1.13,8.25-1.22,12.49-.11,6.37,.19,12.84,.04,19.4-.17,6.53-.9,13.31-3.05,19.68-2.16,6.64-5.35,12.98-8.33,19.13-3,6.17-5.97,12.2-8.83,17.75-1.42,2.79-2.83,5.55-4.23,8.29-1.37,2.77-2.84,5.42-3.6,8.09-.37,1.33-.56,2.66-.43,3.92,.11,1.26,.55,2.44,1.24,3.68,.67,1.22,1.54,2.51,2.33,3.85,.8,1.33,1.57,2.67,2.32,4.04,1.69,3.11,3.31,6.6,4.72,10,1.42,3.4,2.64,6.7,3.76,9.41,.22,.5,.95,3.06,1.21,4.26,.27,1.25,.6,2.71,.39,4.36-.22,1.7-1.08,3.11-1.92,4.18-.42,.55-.86,1.04-1.27,1.5-.39,.46-.79,.91-1.17,1.38-.76,.94-1.5,1.89-2.21,2.88-2.86,3.92-5.37,8.2-8.31,12.31-.74,1.03-1.5,2.04-2.3,3.04-.44,.51-.68,.93-1.42,1.61-.6,.54-1.14,.89-1.68,1.27-1.07,.72-2.1,1.37-3.05,2.05-.45,.34-.91,.68-1.25,1.01-.2,.17-.31,.32-.44,.47-.09,.15-.08,.12-.11,.19,0,.08-.01,0,0,.29,.02,.27,.02,.54,.05,.8l.12,.76c.04,.25,.13,.47,.18,.71,.29,.9,.71,1.62,1.36,2.08,.63,.49,1.51,.81,2.56,.97,.52,.09,1.08,.14,1.68,.17h.23s.04,0,.07,0c.04-.01,.06,.03,.12,0,.05-.02,.1-.02,.16-.04,.07-.04,.14-.07,.21-.1,.64-.33,1.44-1.16,2.09-2.1,.67-.94,1.28-2.01,1.83-3.11,.27-.53,.56-1.16,.76-1.64,.2-.5,.38-1.08,.57-1.71,.2-.64,.41-1.34,.74-2.07,.33-.74,.78-1.46,1.25-2.06,.95-1.22,1.97-2.13,2.79-3.03,.86-.93,1.71-1.91,2.56-2.9l2.56-3.02,1.33-1.52,.7-.76,.38-.4c.21-.22,.42-.44,.64-.64,.43-.4,.88-.75,1.32-1.13,.22-.17,.45-.27,.67-.42,.22-.11,.45-.31,.66-.35,.84-.28,1.71-.51,2.47,.04,.61,.44,.99,1.19,1.16,2.29,.09,.53,.13,1.12,.14,1.72,.01,.3,.02,.6,.01,.89v.77c-.06,2.74-.26,5.39-.49,8.06l-.39,3.98c-.15,1.33-.26,2.62-.51,4.06-.25,1.42-.68,3-1.65,4.43-.97,1.43-2.21,2.36-3.25,3.18-1.12,.86-2.12,1.63-2.65,2.47-.52,.79-.79,1.8-.66,2.87,.11,1.05,.51,2.13,1.16,2.95,.64,.83,1.47,1.4,2.28,1.63,.54,.17,1.83,.41,3.21-.13,.69-.25,1.37-.65,1.94-1.12,.57-.47,.99-1,1.31-1.42,.42-.59,.71-1.25,.87-1.91,.1-.34,.11-.67,.14-1.02,0-.37-.02-.76-.08-1.18-.11-.83-.33-1.73-.57-2.71-.24-.96-.47-2.13-.58-3.19-.41-4.31,.07-8.42,.69-12.49,.32-2.03,.72-4.05,1.18-6.06,.23-1,.47-2,.74-3l.45-1.62c.27-.89,.54-1.79,.91-2.56l.33-.46c.11-.14,.24-.24,.35-.35,.12-.11,.22-.22,.34-.33,.06-.05,.11-.11,.2-.14h.03s.01-.02,.01-.02c.01,.03-.01-.07,.04,.06l.07-.02,.13-.03,.47-.1c.16,0,.32,.02,.5,.06,.34,.07,.7,.23,1.07,.44,.74,.43,1.47,1.03,2.17,1.63,.48,.42,.81,.72,1.21,1.09,1.52,1.43,2.96,2.9,4.3,4.52l.52,.64c.24,.32,.5,.64,.72,.97l.68,.98c.21,.32,.49,.68,.62,.96l-1.24,1.04-.32,.27c-.1,.1-.2,.14-.37,.37-.03,.06-.06,.12-.1,.18-.09,.11-.1,.27-.17,.4-.02,.16-.08,.31-.09,.47-.07,.67,.07,1.45,.39,2.12,.7,1.39,1.83,2.04,3.36,1.81,1.47-.19,2.98-1.3,3.81-2.71,.43-.71,.68-1.46,.75-2.25,.07-.79-.06-1.61-.34-2.28-.29-.68-.72-1.13-1.25-1.4-.57-.32-1.65-.45-2.96-.97-1.27-.5-2.4-1.3-3.32-2.23-.92-.92-1.64-1.96-2.23-3.01-1.18-2.11-1.91-4.31-2.55-6.42-.64-2.1-1.27-4.2-1.86-6.31-2.14-7.5-4.88-17.78-7.5-26.78-.28-.96-.59-2.17-.92-3.55-.16-.69-.33-1.43-.5-2.19-.19-.87-.38-1.77-.58-2.7l-.04-.64c.08-.1,.02-.21,.05-.32l.07-.32c.14-.41,.36-.79,.61-1.17l.31-.43,.25-.33,.5-.61c.67-.8,1.35-1.55,2.04-2.28,1.37-1.44,2.73-2.87,3.98-4.18,.94-1,1.87-1.99,2.79-2.98,.45-.49,.91-.99,1.28-1.45,.1-.12,.15-.19,.22-.29l.29-.4,.57-.81c1.52-2.17,2.94-4.38,4.37-6.63,2.4-3.82,4.81-7.75,6.82-11.85,.59-1.21,1.2-2.72,1.56-3.97,.45-1.5,.77-3.01,.95-4.54,.1-.77,.15-1.54,.18-2.31,.04-.78,.05-1.69,.11-2.53,.2-3.41,.63-6.79,1.21-10.12,.59-3.35,1.31-6.58,2.16-9.93,.15-.5,.36-1.26,1.07-2.01l.14-.13,.04-.03c2.71,2.98,.71,.78,1.3,1.44-.05-.04-.1-.05-.2-.12-.17-.1-.35-.16-.62-.29-.26-.11-.49-.18-.85-.31-.11-.04-.13-.04-.11-.04h0s0,0,0,0v-.03s.04-.09,.04-.09l.12-.51c.16-.75,.31-1.56,.45-2.37l.84-4.9c.28-1.65,.57-3.29,.92-4.98l.17-.78c.09-.38,.18-.76,.29-1.13,.23-.74,.55-1.35,1.12-1.71l1-.17c.34-.04,.64-.16,1.05-.09l1.71,.14c3.37,.3,6.72,.73,10.06,1.29,6.71,1.03,13.17,3.25,19.31,2.58,2.72-.26,5.41-1.29,8.33-2.3,2.93-1.01,5.92-1.87,8.94-2.59,3.03-.7,6.09-1.28,9.19-1.68,1.55-.21,3.1-.36,4.66-.5l2.34-.16,1.17-.06,1.96-.06,.82,.23c.27,.09,.56,.1,.77,.34,.4,.39,.65,.93,.8,1.57,.07,.32,.13,.65,.18,.98l.11,.88,.1,1.12c.12,1.48,.2,2.94,.27,4.39l.24,4.32c.08,1.3,.25,3.31,.33,2.95,.62,.67,.96,1.38,1.22,1.85l.79,1.49,1.63,2.97,3.35,5.95c2.25,3.98,4.48,8.02,6.43,12.24,.81,1.72,1.53,3.5,2.22,5.3,.62,1.77,1.23,3.54,1.84,5.29,1.22,3.45,2.52,6.81,3.84,10,2.63,6.39,5.35,12.11,7.47,16.71,1.96,4.12,1.54,4.43-1.9-.93-2.49-3.96-5.12-8.65-7.37-13.51-1.79-3.89-3.45-7.84-4.94-11.83-.36-1-.73-1.99-1.09-2.99-.36-.97-.72-1.94-1.12-2.89-.79-1.91-1.65-3.77-2.57-5.6-1.87-3.74-3.98-7.37-6.12-11.01-1.07-1.83-2.14-3.66-3.21-5.49l-1.58-2.79c-.52-.9-1.06-2.06-1.43-2.4-.23-.2-.45-.4-.59-.65-.14-.26-.23-.54-.29-.83-.14-.68-.16-.94-.21-1.35-.09-.75-.15-1.48-.2-2.21-.09-1.44-.19-2.89-.28-4.34-.09-1.44-.17-2.88-.29-4.3l-.1-1.05-.05-.44c-.02-.1-.03-.21-.08-.3-.07-.08-.2-.02-.3-.03l-1.66,.07-2.32,.15c-1.55,.11-3.1,.27-4.65,.45-2.72,.32-5.63,.9-8.41,1.54-2.78,.64-5.41,1.36-7.63,1.85-.62,.12-2.76,.84-3.8,1.22-1.42,.52-2.88,1.01-4.44,1.35-1.56,.33-3.15,.5-4.73,.51-3.17,.04-6.26-.46-9.25-1.03-3-.58-5.9-1.18-8.87-1.62-2.96-.46-5.95-.81-8.94-1.06l-1.32-.11c-.05,0-.12-.03-.16,.01-.03,.05-.05,.1-.06,.15-.03,.11-.06,.21-.08,.32l-.2,.95-.21,1.1-.39,2.23-.75,4.51c-.27,1.53-.48,2.98-.88,4.63-.03,.11-.06,.23-.11,.38-.02,.07-.06,.17-.11,.28-.05,.11-.06,.14-.17,.31-.04,.05-.08,.11-.12,.16-.08,0-.01,.2-.22,.04h.01c.14,.14,.06,.06,.05,.14-.06,.1-.14,.37-.23,.74l-.53,2.2c-.35,1.47-.67,2.94-.97,4.41-.59,2.95-1.08,5.9-1.41,8.86-.13,1.23-.24,2.45-.31,3.68-.04,.61-.06,1.22-.09,1.83-.03,.65-.06,1.31-.12,1.96-.23,2.62-.84,5.22-1.72,7.66-.88,2.44-1.99,4.74-3.12,6.98-1.14,2.24-2.34,4.45-3.62,6.62-1.28,2.17-2.63,4.29-4.06,6.37-.71,1.04-1.44,2.07-2.19,3.09-.2,.26-.34,.48-.63,.83-.24,.29-.46,.52-.68,.76l-1.3,1.39c-1.72,1.79-3.45,3.59-5.18,5.4-.85,.9-1.7,1.81-2.5,2.72-.4,.45-.79,.91-1.12,1.35l-.22,.29s-.04,.1-.03,.15c.08,.4,.17,.82,.25,1.23,2.93,10.99,6.27,23.95,9.56,34.97,.59,1.98,1.2,4.02,1.82,5.93,.63,1.89,1.37,3.69,2.38,5.15,.5,.72,1.07,1.35,1.71,1.82,.32,.24,.65,.44,1,.6,.35,.16,.69,.29,1.17,.42,.47,.14,1.04,.28,1.67,.52,.63,.23,1.35,.62,1.91,1.12,1.16,1,1.85,2.34,2.18,3.64,.32,1.32,.35,2.65,.08,3.97-.27,1.32-.84,2.53-1.61,3.57-.77,1.04-1.72,1.93-2.84,2.61-1.11,.68-2.41,1.14-3.8,1.22-.69,.04-1.4,0-2.09-.17-.69-.14-1.42-.46-2.03-.85-1.25-.8-2.1-1.96-2.65-3.19-.54-1.25-.79-2.62-.62-4.05,.12-.71,.31-1.44,.69-2.12l.14-.25,.07-.12,.04-.06,.02-.03-.03,.06c-.04,.09,.02,0,.02,0,.03-.04,.07-.07,.11-.1,.06-.05-.05-.12-.08-.17l-.19-.24c-.45-.55-.92-1.09-1.41-1.62-.98-1.07-2.02-2.1-3.09-3.08l-.76-.68-.17-.14c-.06-.04-.12-.09-.18-.13-.05-.02-.15-.11-.18-.02-.06,.13-.1,.27-.14,.41l-.47,1.72c-.74,2.85-1.35,5.76-1.8,8.66-.44,2.9-.75,5.84-.7,8.68,.03,1.42,.15,2.82,.44,4.1,.3,1.35,.81,2.85,1.03,4.6,.05,.44,.09,.89,.09,1.35-.04,.48-.02,.97-.13,1.43-.13,.95-.47,1.84-.86,2.68-.84,1.66-2.08,3.05-3.6,4.08-1.53,.99-3.35,1.69-5.3,1.67-.97,.03-1.94-.19-2.88-.5-.91-.37-1.78-.85-2.49-1.48-1.47-1.23-2.46-2.86-3.02-4.62-.55-1.76-.6-3.75,.04-5.63,.3-.79,.73-1.58,1.24-2.22,.51-.64,1.07-1.17,1.61-1.64,1.1-.93,2.16-1.65,2.96-2.39,.82-.75,1.27-1.43,1.62-2.44,.34-.98,.51-2.15,.66-3.41,.3-2.55,.56-5.11,.77-7.66,.1-1.28,.2-2.55,.26-3.82l.08-1.89v-.59s.01-.18,.01-.18c0-.12,0-.24-.03-.36,0-.17-.18-.11-.27-.05-.1,.06-.19,.14-.28,.23l-.12,.12c-.13,.13-.4,.42-.59,.63-1.68,1.84-3.31,3.86-5.03,5.85-.86,.99-1.75,1.99-2.7,2.96-.91,.92-1.71,1.75-2.2,2.6-.48,.8-.76,1.93-1.19,3.28-.48,1.45-1.09,2.61-1.71,3.84-.65,1.21-1.38,2.41-2.29,3.56-.49,.57-.98,1.14-1.65,1.66-.67,.51-1.45,1.03-2.53,1.23-.26,.05-.55,.06-.83,.07-.33,.01-.4-.01-.59-.02-.33-.02-.69-.05-1.04-.08-.71-.07-1.46-.2-2.21-.39-1.49-.4-3.13-1.24-4.21-2.63-1.1-1.36-1.61-2.98-1.82-4.46-.06-.38-.11-.75-.12-1.12l-.02-.55c0-.16-.05-.48,.03-.76,.05-.58,.25-1.15,.56-1.64,.33-.51,.59-.78,.89-1.1,1.16-1.12,2.31-1.84,3.42-2.57,1.08-.7,2.25-1.4,2.99-2.03,.2-.15,.69-.78,1.07-1.23l1.17-1.47c.76-1,1.51-2.02,2.24-3.07,1.46-2.08,2.86-4.24,4.31-6.41,1.45-2.17,2.94-4.34,4.59-6.44,.79-1.03,1.74-2.12,2.49-3.02,.76-.92,1.31-1.79,1.47-2.59,.25-1.08-.14-2.56-.62-4.18-.45-1.6-.96-3.16-1.49-4.76-1.09-3.19-2.33-6.47-3.88-10.22-1.45-3.52-3.44-7.43-5.81-11.29-1.11-1.91-2.66-3.86-3.51-6.54-.41-1.34-.56-2.75-.48-4.09,.07-1.35,.35-2.61,.71-3.8,.66-2.17,1.62-4.16,2.54-6.06,.92-1.89,1.84-3.79,2.75-5.67,1.83-3.76,3.65-7.46,5.43-10.94,1.83-3.61,3.67-7.22,5.5-10.83,1.82-3.63,3.67-7.23,5.33-10.88,1.66-3.65,3.13-7.37,4.17-11.19,1-3.82,1.59-7.75,1.8-11.75,.45-8-.2-16.13-.05-24.39,.08-4.13,.4-8.3,1.24-12.42,.16-1.04,.46-2.05,.73-3.07,.14-.51,.25-1.02,.42-1.52l.52-1.5,.52-1.5,.55-1.41c.36-.94,.7-1.87,1.03-2.81,1.31-3.74,2.21-7.53,2.52-11.44,.16-1.95,.19-3.92,.16-5.92-.03-2.06,0-4.13,.15-6.21,.3-4.14,1.08-8.39,2.93-12.29,1.81-3.9,4.76-7.36,8.4-9.68,3.62-2.35,7.87-3.76,12.22-3.86,4.37-.11,8.51,1.05,12.39,2.4,3.89,1.37,7.59,3.02,11.32,4.28,3.71,1.25,7.53,2.15,11.18,1.66,1.13-.07,2.18-.45,3.26-.72,1.04-.37,2.06-.87,3.07-1.44,2.02-1.15,3.97-2.62,6.11-3.99,2.17-1.37,4.55-2.55,7.02-3.36,2.48-.81,5.05-1.32,7.66-1.5,5.19-.37,10.65,.57,15.29,3.37,2.31,1.38,4.39,3.2,6.05,5.3,1.68,2.09,2.95,4.45,3.95,6.87,1.7,4.14,2.69,8.59,3.12,13.05,.2,2.33,.26,4.24,.64,6.25,.35,1.99,.88,3.96,1.46,5.92,.32,1.11,1.32,3.43,2.54,6.13,1.22,2.7,2.55,5.89,3.3,8.61,1.92,6.72,2.64,13.56,3.72,20.18,.26,1.66,.56,3.3,.89,4.93,.16,.82,.35,1.62,.56,2.4,.21,.79,.37,1.59,.63,2.37,.91,3.15,2.19,6.2,3.58,9.2,3.96,8.33,9.28,16.06,14.41,23.98,1.28,1.98,2.57,3.98,3.8,6.01,1.25,2,2.44,4.15,3.6,6.09,1.18,1.98,2.49,3.89,3.77,5.93,1.29,2.03,2.5,4.25,3.38,6.6,1.11,2.84,1.7,5.87,2.02,8.83,.34,2.98,.3,5.96,.09,8.9-.42,5.89-1.67,11.65-3.42,17.26-.95,2.93-2.04,5.81-3.28,8.65-.65,1.41-1.3,2.82-2.02,4.19-.33,.69-.76,1.39-1.17,2.08l-.62,1.04-.68,.99c-3.63,5.29-8.29,9.43-12.58,13.53-2.73,2.61-5.39,5.21-7.63,8.05-2.23,2.85-4.04,5.91-5.18,9.28-2.31,6.78-2.25,14.32-1.59,21.77,.41,3.91,.57,7.85,2.45,10.65,.48,.76,1.09,1.57,1.68,2.51,.59,.93,1.15,2.07,1.42,3.37,.51,2.56-.16,5.12-1.52,7.15-1.35,2.03-3.62,3.65-6.22,3.95-2.57,.3-5.05-.56-6.94-2.04-.95-.75-1.77-1.68-2.38-2.75-.62-1.05-1-2.33-1.1-3.52-.2-2.42,.48-4.54,1.13-6.36,.63-1.72,1.27-3.25,1.62-4.8,.37-1.57,.56-3.2,.59-4.85,.06-3.3-.5-6.66-1.31-10-.2-.83-.42-1.67-.64-2.5l-.35-1.28-.11-.39c0-.09-.12-.01-.16,0-.06,.03-.11,.07-.17,.11-.11,.08-.21,.17-.31,.25l-.15,.14-.25,.23c-2.4,2.36-4.69,5-6.4,7.79-1.7,2.64-2.07,6.05-3.12,9.59-.27,.89-.58,1.78-.99,2.66-.41,.9-.96,1.79-1.59,2.56-1.28,1.54-2.93,2.87-5.07,3.46-1.06,.29-2.25,.34-3.38,.06-1.12-.26-2.18-.87-2.99-1.67-1.63-1.62-2.33-3.76-2.41-5.81-.03-1.06,.06-2.04,.41-3.16,.18-.58,.51-1.14,.87-1.63,.39-.47,.82-.88,1.26-1.18,.88-.64,1.73-1.03,2.48-1.43,.75-.39,1.4-.77,1.9-1.21,.13-.1,.23-.23,.35-.34,.12-.13,.27-.31,.4-.46,.27-.32,.56-.62,.82-.96,.54-.65,1.05-1.32,1.56-2,1.01-1.36,1.98-2.78,2.94-4.22,1.91-2.88,3.76-5.85,5.85-8.74,.26-.36,.52-.72,.79-1.08l.41-.53c.18-.22,.36-.44,.55-.66,.09-.06-.02-.11-.08-.12-.07-.02-.14-.04-.21-.05-.14-.03-.28-.05-.42-.07-.34-.04-.33-.05-1.42-.12-1.69-.1-3.38-.12-5.05-.03-1.65,.1-3.34,.28-4.76,.74-1.35,.4-2.74,1.52-4.79,2.17-1.07,.3-2.19,.36-3.26,.2-1.07-.16-2.06-.56-2.97-1.07-1.79-1.05-3.26-2.65-4-4.68-.8-1.99-.59-4.48,.56-6.33,1.12-1.88,2.9-3.15,4.85-3.83,.99-.32,2.03-.49,3.1-.47,1.07,.04,2.15,.29,3.15,.77,1.05,.5,1.76,1.2,2.35,1.58,.6,.41,.91,.5,1.54,.51,.6,0,1.34-.18,2.16-.41l2.51-.69c1.91-.51,3.79-1.02,5.66-1.53,.95-.25,1.83-.47,2.56-.78,.74-.31,1.27-.66,1.77-1.22,1-1.09,1.72-2.84,2.56-4.55,.82-1.7,1.63-3.39,2.45-5.08,3.26-6.75,6.51-13.46,9.77-20.45,.76-1.63,1.66-3.37,2.56-5.02,.92-1.69,1.86-3.08,1.88-4.37,.03-1.31-.52-2.45-.65-3.05-.16-.61-.06-.74,.42-.16,.34,.45,1.12,1.45,1.38,2.81,.21,1.1-.04,2.2-.38,3.12-.35,.94-.74,1.77-1.1,2.63-.74,1.71-1.47,3.41-2.2,5.11-1.47,3.4-2.93,6.79-4.42,10.25-1.5,3.45-3.05,6.96-4.67,10.59-.82,1.81-1.66,3.65-2.51,5.54-.43,.93-.85,1.91-1.44,2.94-.58,1.02-1.37,2.1-2.51,2.93-1.73,1.21-3.51,1.51-4.99,1.94l-4.63,1.24-2.32,.62c-.77,.2-1.53,.44-2.46,.61-.91,.16-2.02,.24-3.15-.13-1.14-.39-1.89-1.06-2.49-1.51-.3-.23-.56-.43-.81-.55-.24-.16-.52-.25-.79-.35-.56-.15-1.16-.26-1.79-.2-1.23,.09-2.52,.58-3.48,1.39-.99,.79-1.62,1.89-1.76,3.02-.08,.57,.01,1.15,.16,1.73,.19,.57,.47,1.13,.84,1.64,.77,1,1.86,1.83,3.04,2.19,.59,.19,1.19,.28,1.77,.22,.58-.04,1.11-.19,1.76-.49,.63-.29,1.31-.68,2.08-1.07,.76-.39,1.7-.76,2.56-.97,1.73-.43,3.41-.59,5.08-.68,1.67-.08,3.32-.06,4.97,.04l1.39,.1c.68,.06,1.35,.14,2.01,.23,.63,.11,1.29,.22,1.76,.44,.51,.2,.74,.51,.96,.82,.06,.08,.12,.15,.17,.28,.06-.01-.11,.06,.13-.02v.02s0,.04,0,.04v.07s-.02,.14-.02,.14l-.06,.56-.06,.56s-.04,.1-.1,.17l-.17,.2-.34,.4-1.34,1.61-.93,1.22c-.93,1.26-1.82,2.55-2.7,3.87Z"/>
        </g>
        <path class="cls-3" d="M40.8,144.42c.04,.24,.05,.48,.14,.71,.03,.09-.17,.21,.29,.23,.23,.01-.29,.18-.25,.26,.1,.21,.05,.45,.13,.66,.08,.21,.3,.4,.38,.61,.08,.21-.14,.46,.16,.64,.26,.15-.15,.37-.03,.53,.12,.17,.21,.36,.03,.55-.13,.15-.31,.29-.2,.41,.06,.08,.34,.13,.33,.22-.01,.08-.23,.2,.31,.23,.04,0-.05,.05-.12,.07-.34,.12-.31,.22-.07,.28,.24,.06,.21,.12,.23,.19,.04,.18,.08,.37,.03,.56-.03,.14-.23,.29-.27,.43-.05,.15,.21,.29-.05,.44-.25,.15-.24,.27-.23,.4,0,.07-.24,.17,.3,.21,.05,0,.04,.03,0,.05-.69,.23,.23,.42,.06,.64-.18,.23-.04,.45-.02,.68,0,.06-.15,.12,.24,.18,.14,.02,.15,.08,.05,.11-.53,.17-.21,.34-.3,.51-.11,.19,.14,.39-.28,.58-.18,.08-.27,.19,.22,.3,.23,.05,0,.14,.04,.21,.04,.06,.27,.12,.27,.18,0,.05-.2,.09-.29,.14-.03,.01-.03,.03,0,.05,.56,.31-.22,.56-.08,.85,.14,.3,.06,.59-.04,.87-.06,.16-.23,.31-1.2,.34-.44,.01-.91-.03-1.18-.11-.2-.06-.39-.13-.43-.19-.08-.09-.18-.19-.26-.28-.15-.19-.59-.39-.34-.55,.08-.05-.17-.13,.26-.15,.06,0,.09-.02,.06-.04-.66-.28-.2-.5-.24-.74-.03-.21-.56-.43-.32-.62-.53-.13-.44-.26-.27-.37,.58-.39,.2-.81,.27-1.21,.08-.41,0-.82,.01-1.24,0-.07-.3-.12-.07-.21,.22-.08,.04-.18,.04-.27,0-.08-.12-.16,.01-.25,.54-.35,.19-.66,.23-.99,.04-.33,.07-.66-.1-.97-.1-.19-.41-.36-.32-.56,.04-.09-.26-.15,.23-.28,.14-.04-.25-.08-.27-.13-.06-.13-.04-.27-.06-.4-.02-.19,0-.38-.08-.56-.04-.11-.27-.19-.33-.3-.07-.11-.08-.23-.05-.35,.04-.16,.2-.33,.23-.49,.03-.16-.23-.29-.02-.47,.38-.35,.12-.59,.12-.87,0-.28-.01-.57-.17-.82-.09-.14,.3-.37,.27-.52-.02-.07,1.19-.42,1.61-.48,.08-.01,.17-.02,.2-.01,.42,.07,1.05,.1,1.04,.29,0,.28,.09,.54,.14,.81Z"/>
        <path class="cls-3" d="M237.72,136.9c-.09,.22-.21,.42-.26,.66-.02,.09-.26,.08,.12,.35,.19,.14-.34,0-.35,.07-.04,.23-.21,.39-.25,.61-.05,.22,.02,.49-.03,.71-.05,.22-.38,.29-.23,.61,.12,.27-.33,.21-.32,.41,0,.21-.03,.41-.29,.46-.19,.04-.42,.05-.4,.21,0,.1,.2,.3,.14,.37-.06,.06-.3,.02,.11,.36,.03,.03-.07,0-.14-.01-.34-.11-.38,0-.22,.18,.15,.19,.1,.22,.07,.29-.07,.17-.16,.34-.31,.46-.11,.09-.35,.09-.47,.18-.13,.09-.02,.35-.3,.31-.29-.04-.35,.07-.43,.17-.04,.06-.29-.02,.11,.35,.04,.03,.02,.05-.02,.04-.68-.26-.06,.45-.31,.5-.26,.05-.27,.29-.37,.45-.03,.04-.18,0,.11,.26,.1,.09,.09,.14,0,.11-.52-.19-.32,.11-.47,.17-.16,.07-.03,.32-.45,.24-.18-.03-.31,0,.1,.29,.19,.13-.04,.08-.01,.15,.02,.05,.22,.18,.21,.21,0,.03-.2-.02-.3-.03-.03,0-.04,0-.01,.03,.48,.33-.28,.23-.16,.42,.13,.16,.06,.24-.02,.35-.05,.07-.19,.12-1.14,.37-.43,.11-.88,.22-1.17,.19-.21-.02-.41-.05-.47-.12-.1-.1-.23-.2-.31-.31-.18-.22-.61-.5-.35-.75,.08-.07-.15-.2,.28-.19,.06,0,.1-.02,.07-.04-.61-.45-.08-.7-.02-1,.05-.26-.34-.72,0-.86-.42-.37-.25-.49-.04-.54,.74-.16,.66-.74,.99-1.08,.32-.33,.52-.71,.79-1.02,.05-.05-.16-.28,.07-.2,.22,.07,.14-.11,.18-.17,.04-.06,0-.19,.15-.17,.63,.08,.53-.37,.75-.59,.22-.22,.43-.45,.47-.78,.03-.2-.14-.51,.06-.61,.08-.04-.13-.26,.35-.08,.13,.05-.16-.2-.15-.26,.03-.13,.11-.23,.17-.34,.08-.15,.2-.29,.24-.47,.02-.11-.11-.3-.11-.41,0-.12,.05-.22,.15-.3,.12-.1,.34-.15,.45-.25,.11-.11-.04-.35,.23-.38,.5-.06,.41-.39,.56-.62,.15-.22,.28-.45,.27-.73,0-.16,.44-.14,.49-.28,.02-.06,1.23,.27,1.62,.44,.07,.03,.15,.07,.18,.1,.32,.28,.84,.63,.74,.78-.16,.23-.21,.5-.31,.74Z"/>
        <path class="cls-3" d="M117.23,37.95c.07,.01,.12,.05,.18,0,.01,0,.06-.26,.07-.26,.04,.02,.13-.21,.12,.09-.01,.33,.02,.37,.11,.18,.08-.18,.11-.12,.16-.17,.02-.02,.04-.07,0,.22-.03,.21-.02,.24,.07-.13,.02-.07,0,0,0,.04,0,.04-.03,.2-.02,.15,.16-.56,.11-.12,.18-.25,.02-.03,0,.14,.08-.24,.02-.1,.04-.11,.02-.02-.04,.23-.05,.28-.04,.28,.05,0,.09,.01,.13,.02,.14-.48,.11-.26,.13-.25,.02,0,0,.18-.01,.28,0,.1,.09-.21,0,.23-.01,.07,.02-.06,.03-.06,.03-.03,.09-.18,.07-.02-.01,.08-.02,.17-.01,.17,.12,.04,.25,.08,.38,.1,.01,0,0,.06,.1-.21,.07-.21,.09-.22,.04,0-.09,.36-.03,.22-.02,.24,.01,.04,.06,0,.07,.04,0,.03,.1-.21-.03,.28-.01,.05,0,.05,0,0,.16-.46,.06-.07,.05,0,0,.05,.01,.04,.09-.18,.08-.22,.11-.25,.05,0-.08,.32-.04,.22-.02,.23,.08,.05,.16,.09,.25,.09,.04,0,.23-.41,.21-.23,0,.04,.07-.13-.04,.2-.02,.07,0,.03,.03-.05,.11-.29,.09-.18,.09-.16,.04,.08,.03,.28,.18,.02,.12-.2,.13-.09,.2-.14,.02-.02-.05,.21-.05,.26,0,.05,.02,.04,.04,.02,.01,0-.01,.09,.09-.17,.06-.14,.09-.18,.05-.06-.13,.39-.06,.25-.04,.26,.04,.04,.1,.03,.14,.07,0,.01,.1-.18-.05,.23-.02,.06,.04-.07,.06-.11,.02-.04,.07-.15,.05-.1-.18,.53-.03,.25,0,.28,.05,.08,.16,.04,.21,.14,.01,.03,.18-.3,.19-.27,.01,.03,.05,0,.06,.04,0,.03,.1-.15-.07,.26-.05,.11-.03,.11,.02,0,.19-.39,.12-.18,.16-.23,.05-.06-.04,.2,.17-.21,.06-.11-.03,.12-.03,.14,0,.04,0,.06,.03,.04,.01,0,.09-.15,.1-.16,.1-.08,.21-.17,.28-.19,.08-.02,.12,.04,.17,.07,.05,.03,.12,.02,.15,.1,.01,.03,.19-.27-.06,.28,.18-.31,.1-.11-.07,.26-.02,.05,.06-.1,.09-.14,.08-.13,.38-.66,.09-.07-.01,.02,0,0,0,0-.03,.09,.29-.5,.12-.13-.11,.23-.04,.14-.04,.17,0,.03,0,.06,.04,.01,.04-.04-.09,.24,.16-.2,.04-.07-.11,.24-.1,.22,.09-.09-.1,.32,.21-.17,.07-.11,.08-.1,.03,.01-.18,.39-.05,.21,.06,.08,.14-.16,.22-.21-.05,.35-.06,.12-.1,.21,.01,.02,.08-.12,.07-.09,.08-.08,.08,.04,.16,.08,.23,.13,.02,.01-.2,.43-.09,.29,.05-.06-.07,.16,.15-.18,.03-.05,.05-.07,.04-.04-.21,.41,.15-.14,.08,.04-.02,.04-.06,.12-.08,.16-.02,.05-.07,.15-.03,.09,.34-.46,.15-.07,.27-.17,.04-.03-.08,.2,.19-.21,.04-.06,.04-.05,.01,0-.29,.51-.02,.15-.08,.29-.03,.07,.16-.19-.09,.23-.03,.05,0,.01,.02-.01,.04-.05,.13-.18,.13-.17,0,.03-.13,.26-.03,.14,.12-.15,.09-.08,.11-.08,.01,0-.1,.19-.12,.24-.02,.05,0,.02,.02,.02,.01,0,.07-.05,.02,.04-.05,.1,.24-.31,.06-.02-.14,.22,.13-.16,.17-.19,.02-.02,0,.03-.03,.08-.02,.04-.1,.17-.09,.16,.02-.02-.02,.06,.11-.11,.09-.12-.05,.11-.06,.15-.01,.03,.01,.02,.02,.02,0,0-.04,.09,.04,0,.32-.39,.19-.11,.26-.14,.02,0,.13-.14-.11,.22-.04,.06-.04,.07-.01,.03,.38-.47,.14-.05,.27-.16,.1-.08,.26-.25,.25-.19,0,.06-.05,.17,.1,.02,.12-.12,.23-.23,.19-.13-.05,.1,.49-.57,.07,.02,.02,.01,.05,0,.05,.05,0,.03,.13-.1-.11,.25-.09,.13-.07,.13,.02,.02,.29-.34,.23-.22,.12-.03-.03,.05,.11-.12,.12-.12,.03,0,.07-.02,.05,.04-.06,.18,.29-.17,.35-.13,.01,0,.23-.25,.19-.18-.29,.47,.12,.07-.04,.36-.23,.43,.06,.22,.06,.36,0,.02-.22,.3-.15,.23,.22-.24,.06-.01,.23-.19,.31-.31,.13-.07,.23-.14,.07-.05-.11,.19,.23-.18,.05-.05,.05-.04,.01,0-.29,.37,.19-.13,.07,.05,.42-.39,.2-.06,.33-.11,.02,0,.11-.09,.16-.14,.03-.02,.08-.08,.06-.04-.36,.47-.01,.17-.08,.32-.02,.05-.12,.18-.15,.24s.09-.04-.16,.24c-.08,.09-.03,.05,0,.02,.2-.15-.32,.44-1.19,1.35-.31,.33-.34,.35-.46,.46-.24,.23-.39,.37-.38,.34,0-.03,.1-.14-.21,.17-.05,.05-.04,.04,0,0,.25-.3,.02-.09,.19-.3,.13-.16,.08-.13,.13-.2,.04-.06-.13,.1,.13-.2,.09-.1-.15,.14-.17,.15-.04,.02-.07,.02-.05-.04,.07-.18-.4,.26-.34,.1-.4,.4-.1-.02-.32,.16-.26,.22-.18,.05-.31,.13-.03,.02-.02,0,.06-.12,.06-.08,.11-.16,.11-.17,0-.03-.05-.01-.04-.07,0-.03-.19,.18,.14-.23,.04-.06,.04-.06,0,0-.35,.4-.16,.13-.22,.17-.02,.01-.02,0,.1-.16,.12-.17,.09-.16-.03-.02-.1,.11-.1,.11-.14,.14-.13,.12,.17-.32-.25,.16,.33-.45,.2-.32,.11-.22-.37,.37-.18,.03-.29,.07-.03,0,.11-.19,.12-.24,.02-.05,0-.04-.04-.03-.02,0,.09-.15-.16,.18-.02,.02-.03,.04-.03,.03,.03-.06,.12-.19,.09-.17-.02,.02-.19,.24-.24,.29-.06,.07-.07,.07-.09,.07-.01,0-.08,.07,.13-.23-.27,.36-.15,.17-.18,.19-.03,.02-.02,0-.03-.01l-.02-.02s0-.04-.03-.01c-.05,.05-.15,.16-.19,.2-.04,.03-.05,.02-.04-.02,.02-.06,.08-.18,.12-.26,.01-.03-.06,.06-.15,.18-.13,.17-.4,.55-.06,.03,.07-.1,.04-.08,0-.01-.39,.5-.12,.04-.25,.17,.24-.4,.07-.17-.02-.08-.13,.14-.2,.19-.08-.06,.13-.26,.01-.14,.05-.25,0-.03-.09,.11,.13-.25,.05-.08,.03-.06,0-.01-.26,.36-.21,.24-.09-.02,.07-.14-.04,0-.14,.14-.15,.19-.08,.03-.1,.01,.26-.45-.02,0-.14,.19-.16,.25-.2,.29-.21,.3-.01,0,.02-.08-.16,.2-.09,.14-.08,.1,0-.05,.12-.21,.06-.12-.03,.02-.1,.16,.14-.26,.11-.25-.02,.02-.17,.23,.1-.24,.02-.04,.02-.04,0,0-.3,.47,.09-.24-.05-.04,.25-.57-.07-.15-.02-.37,.02-.09,.19-.46,.05-.25-.3,.42-.17,.08-.27,.13-.02,.01-.15,.22,.09-.25,.03-.06,.02-.06,0,0-.24,.42-.19,.28-.05-.02,.03-.07,.02-.07-.04,.04-.17,.32-.11,.18-.12,.17,0-.01,.13-.3,.04-.14-.19,.34,0-.05,.03-.12,.01-.04-.04,.05-.07,.09-.02,.02-.09,.16-.08,.13,.19-.41-.12,.16-.06-.01,.01-.04,.01-.03,.03-.08,.23-.55,.22-.55,.04-.31,.27-.58-.17,.26,.04-.19,.07-.16,.04-.13-.02-.02-.28,.49-.12,.08-.22,.21-.02,.03,.16-.36,0-.05-.06,.12,.09-.23,.08-.22-.02,.01,.07-.2-.12,.17-.08,.15-.03,.02-.05,.05-.03,.04,.03-.11-.13,.2-.08,.17-.1,.17-.03,.02,.26-.64-.02-.08-.14,.13-.04,.06-.07,.12-.03,.02,.05-.14,.12-.32,.03-.14-.16,.33-.11,.18-.14,.2-.04,.03-.03-.05-.08-.01-.05,.04,0-.13-.17,.17-.09,.16-.17,.31,.04-.21,.02-.06-.11,.23-.11,.23-.04,0-.08,0-.09-.05,0-.01,.2-.54,.02-.12-.19,.44,.16-.44-.06,.1-.03,.08-.04,.07-.02,.01,.19-.58-.03-.16,0-.32,0-.04-.09,.17,.08-.28-.22,.49,.15-.55-.18,.25,.03-.14-.15,.28,.04-.27,.03-.09-.02,.04,0-.04,.09-.27-.23,.55-.08,.12,.08-.25,.02-.11,.01-.13,0-.02-.02-.01-.03-.01h-.03s-.01-.05-.04-.02c-.05,.07-.19,.4-.17,.25,0-.02-.02,.05-.05,.13-.26,.7-.13,.3-.06,.1,.05-.17,.08-.26,.07-.26-.02,0-.05,.02-.05-.03,0-.03-.09,.19,.05-.26,.04-.14,.02-.11-.02-.01-.18,.46-.11,.17-.16,.23-.02,.03-.03,0-.03,0,0-.01-.11,.29-.03,0-.23,.56-.15,.17-.21,.22-.06,.05-.09,0-.12-.03,0,0-.09,.21,.05-.27,.03-.09,.02-.09-.01,0-.08,.26-.13,.39-.03,.04,.02-.06,0,0-.03,.08-.06,.19-.07,.16-.02-.01,.03-.14,.05-.22,.01-.12-.1,.26-.18,.49-.05-.02,.02-.06-.08,.26-.08,.24,0-.07-.09,.19,0-.2,.04-.16,0-.04,0-.09,0-.08-.08,.18-.05,.03,.03-.16-.02-.04-.04-.05h-.05s-.05-.02-.05-.02h-.05s-.05-.02-.05-.02c-.02,0-.03,0-.05-.01,0,0,0-.07,.03-.26,.09-.5,.04-.44-.1-.06,0,.03-.01,0-.01,0-.04-.01-.1,.07-.12-.07,0-.06,.02-.29,0-.25-.02,.02-.01-.06-.09,.25-.06,.25,.01-.19-.09,.26-.04,.17-.05,.16-.03,.02,.08-.46,0-.23,0-.27-.01-.05-.04-.04-.07-.01-.01,.01,0-.14-.08,.23-.04,.18-.03,.05,0-.11,.03-.25,.01-.2-.02-.1-.07,.22-.07,.26-.05-.03,0-.03,0-.04,0-.04-.03,0-.03-.19-.1,.04-.06,.19-.09,.2-.11,.21-.01,0-.06,.22,.02-.27,.01-.07,0-.06,0,0-.11,.53-.08,.24-.11,.25-.02,0-.11,.43-.11,.32,0-.1-.04-.03-.05-.03-.01,0-.01-.08,.02-.32,.03-.24,.09-.65,.18-1.32,.16-1.11,.2-1.34,.27-1.57,.14-.48,.15-.1,.23-.24Z"/>
        <path class="cls-3" d="M131.62,40.47c.06-.03,.12-.02,.14-.11,0-.01-.1-.25-.09-.25,.05,0-.02-.24,.14,0,.18,.27,.24,.28,.18,.08-.05-.19,.01-.16,.02-.23,0-.02-.01-.08,.13,.18,.11,.19,.13,.2-.02-.15-.03-.07,0,0,.03,.03,.02,.03,.1,.17,.08,.13-.23-.54,0-.16-.02-.3,0-.04,.08,.11-.09-.24-.04-.09-.04-.11,0-.03,.12,.21,.15,.25,.15,.24,.03-.03,.07-.04,.1-.06-.22-.45-.09-.27-.07-.27,.02,0,.11,.14,.17,.22,.06,.08-.07-.21,.15,.17,.04,.06-.02-.06-.02-.07,0-.04-.06-.19,.04-.06,.05,.07,.1,.14,.1,.13,.12-.05,.23-.11,.33-.18,0,0,.05,.04-.08-.22-.1-.2-.09-.22,.03-.03,.19,.31,.13,.18,.15,.19,.04,.02,.03-.04,.08-.02,.03,.01-.09-.22,.17,.22,.02,.04,.03,.04,0,0-.23-.43-.01-.09,.04-.04,.03,.03,.04,.02-.07-.19-.1-.21-.1-.25,.03-.04,.18,.28,.14,.18,.15,.18,.09-.02,.17-.06,.23-.13,.03-.03-.16-.44-.04-.31,.03,.03-.06-.14,.13,.16,.04,.06,.02,.02-.02-.06-.15-.27-.08-.18-.06-.17,.09,.03,.23,.16,.13-.13-.08-.22,0-.16,0-.24,0-.03,.14,.17,.18,.2,.04,.03,.04,0,.04-.02,0-.02,.06,.07-.08-.18-.08-.13-.09-.17-.02-.07,.23,.34,.16,.2,.18,.19,.05,0,.08-.06,.14-.06,.01,0-.09-.18,.16,.18,.03,.05-.04-.07-.05-.11-.02-.04-.08-.15-.05-.1,.33,.45,.19,.16,.23,.17,.1,0,.12-.11,.23-.09,.03,0-.16-.31-.13-.31,.03,0,.02-.04,.06-.02,.03,.01-.07-.16,.19,.2,.07,.1,.08,.09,.02-.01-.23-.37-.09-.19-.11-.26-.03-.08,.15,.14-.09-.26-.06-.11,.08,.09,.1,.1,.03,.02,.05,.02,.05,0,0-.01-.09-.15-.09-.17-.02-.12-.05-.26-.03-.33,.02-.07,.09-.07,.13-.1,.05-.03,.07-.09,.15-.08,.03,0-.15-.29,.21,.19-.19-.3-.05-.14,.2,.18,.04,.05-.06-.1-.08-.14-.08-.13-.42-.63-.03-.11,.01,.02,0,0,0,0,.07,.07-.32-.48-.07-.16,.15,.2,.11,.1,.13,.11,.02,0,.05,.02,.03-.03-.02-.06,.17,.18-.11-.22-.05-.07,.17,.21,.16,.18-.05-.12,.25,.23-.07-.27-.07-.11-.06-.11,.02-.02,.28,.32,.17,.13,.09-.01-.09-.19-.11-.28,.29,.2,.09,.1,.15,.18,.02,0-.08-.12-.05-.1-.05-.1l.2-.16s.32,.35,.23,.19c-.04-.06,.12,.12-.12-.2-.03-.04-.05-.07-.03-.05,.31,.35-.08-.19,.06-.05,.03,.03,.09,.09,.12,.13,.04,.04,.11,.12,.07,.07-.32-.47-.02-.16-.07-.3-.02-.05,.16,.15-.14-.24-.04-.06-.04-.06,0,0,.39,.44,.13,.07,.24,.18,.06,.05-.13-.21,.18,.16,.04,.05,.01,0,0-.02-.03-.05-.13-.18-.12-.17,.03,0,.21,.21,.12,.07-.11-.16-.05-.11-.04-.13,0-.01,.15,.15,.19,.19,.04,.03,.02,0,.03,0,.01,0-.03-.08,.05,0,.08,.08-.23-.32,0-.06,.17,.19-.11-.17-.14-.22-.01-.02,.03,.02,.07,.05,.03,.03,.13,.15,.13,.14-.01-.03,.05,.04-.07-.14-.09-.12,.09,.08,.12,.1,.03,.02,.02,0,.03-.01,0,0,.08,.06,.01-.03-.29-.41-.06-.21-.07-.28,0-.02-.1-.16,.18,.16,.05,.06,.06,.06,.03,.02-.36-.48-.02-.15-.1-.3-.06-.11-.19-.3-.13-.28,.06,.02,.15,.09,.04-.08-.09-.14-.18-.28-.09-.21,.09,.07-.46-.59,.03-.06,.02-.01,.02-.05,.05-.04,.03,0-.08-.15,.21,.16,.11,.11,.11,.09,.02-.02-.28-.35-.18-.27-.01-.12,.04,.04-.1-.13-.1-.14,0-.03-.01-.07,.04-.04,.17,.1-.13-.31-.09-.35,0,0-.21-.27-.15-.21,.41,.37,.07-.09,.33,.11,.38,.29,.21-.01,.34,0,.02,0,.27,.26,.21,.18-.21-.25,0-.06-.17-.24-.28-.33-.06-.13-.12-.23-.04-.07,.17,.13-.16-.24-.05-.05-.04-.05,0,0,.34,.32-.12-.2,.05-.06-.36-.44-.06-.19-.11-.31,0-.02-.09-.11-.13-.16-.02-.03-.07-.08-.04-.06,.45,.4,.15,.04,.29,.12,.05,.04,.17,.13,.23,.17,.05,.03-.04-.08,.23,.17,.08,.08,.05,.03,.02,0-.15-.2,.42,.34,1.31,1.23,.32,.32,.34,.35,.45,.47,.22,.24,.36,.4,.32,.39-.03,0-.14-.1,.16,.22,.05,.05,.03,.05,0,.01-.29-.26-.09-.02-.3-.19-.16-.13-.13-.08-.2-.13-.06-.04,.09,.13-.2-.14-.1-.09,.13,.16,.14,.18,.01,.04,0,.08-.05,.05-.18-.08,.22,.44,.06,.37,.35,.44-.04,.11,.11,.34,.18,.29,.01,.2,.07,.35,.01,.03,0,.03-.11-.07-.07-.06-.14-.13-.15-.13-.04,0-.03,.06-.08,.04-.03,0,.15,.21-.22-.17-.05-.05-.05-.04,0,0,.34,.41,.1,.19,.12,.26,0,.03-.01,.02-.15-.12-.15-.14-.15-.12-.03,.03,.09,.11,.09,.12,.11,.16,.09,.16-.3-.22,.1,.29-.39-.4-.29-.25-.21-.14,.29,.44-.02,.21-.02,.33,0,.03-.17-.14-.22-.16-.05-.02-.05,0-.05,.04,0,.02-.13-.11,.13,.2,.02,.02,.03,.04,.03,.04-.05-.04-.16-.15-.15-.12,0,.03,.18,.24,.23,.3,.05,.07,.04,.09,.04,.1,0,.01,.05,.09-.2-.18,.29,.35,.13,.19,.14,.22,.01,.03-.01,.02-.02,.03l-.03,.03s-.04-.01-.02,.03c.03,.06,.12,.2,.14,.24,.02,.05,0,.06-.04,.04-.06-.03-.16-.12-.23-.17-.03-.02,.04,.07,.13,.2,.13,.17,.41,.54,0,.08-.08-.09-.07-.06-.02,0,.37,.52-.01,.15,.06,.32-.32-.34-.16-.1-.1,.02,.09,.18,.1,.26-.11,.08-.22-.2-.15-.04-.25-.1-.03-.02,.07,.13-.2-.19-.06-.07-.05-.05-.02,0,.25,.37,.14,.29-.06,.09-.11-.11-.01,.05,.07,.19,.13,.21-.01,.09-.04,.11-.33-.4-.02,.02,.12,.2,.18,.24,.2,.29,.2,.3,0,.02-.08-.05,.12,.23,.1,.14,.06,.12-.06-.02-.16-.18-.09-.09,0,.04,.11,.16-.2-.22-.2-.19,0,.03,.15,.25-.2-.17-.03-.04-.03-.03,0,0,.31,.46-.2-.16-.07,.05-.45-.44-.2,.03-.41-.09-.08-.05-.35-.35-.23-.13,.25,.46-.03,.21-.04,.34,0,.03,.13,.23-.2-.18-.04-.06-.05-.05-.01,0,.27,.4,.16,.3-.05,.05-.05-.06-.05-.05,.02,.06,.2,.3,.11,.19,.09,.19-.02,0-.22-.25-.12-.1,.21,.33-.05-.02-.1-.07-.03-.03,.02,.06,.05,.11,.01,.02,.1,.16,.08,.13-.28-.35,.07,.19-.05,.06-.03-.03-.03-.02-.06-.06-.39-.45-.39-.45-.28-.16-.39-.51,.14,.27-.16-.11-.11-.14-.1-.1-.03,.01,.29,.49,0,.15,.05,.31,.01,.03-.24-.32-.05-.02,.07,.11-.16-.19-.16-.18,0,.03-.15-.16,.08,.2,.09,.14,0,.04,.02,.07,.02,.05-.09-.08,.1,.22,.1,.16,.09,.18-.01,.04-.42-.55-.09-.02,.01,.2,.03,.07,.06,.12,0,.04-.09-.11-.22-.26-.11-.09,.19,.31,.09,.2,.08,.23,0,.05-.07,.01-.07,.07,0,.07-.13-.06,.02,.25,.08,.17,.15,.33-.18-.14-.04-.05,.13,.22,.13,.22-.03,.05-.06,.09-.13,.08-.02,0-.33-.47-.09-.08,.25,.41-.27-.38,.03,.11,.04,.07,.03,.07,0,.03-.38-.48-.17-.05-.3-.15-.03-.02,.08,.18-.19-.22,.26,.47-.36-.44,.06,.31-.1-.11,.12,.29-.21-.19-.05-.08,.01,.05-.03-.02-.16-.23,.29,.51,.04,.14-.15-.22-.08-.07-.1-.08-.02,0-.03,.01-.04,.02l-.04,.03s-.05-.01-.04,.03c.02,.09,.17,.41,.07,.3-.01-.01,.02,.05,.06,.13,.38,.64,.15,.3,.02,.12-.1-.15-.15-.22-.16-.21-.02,.02-.03,.06-.08,.04-.03-.02,.08,.2-.18-.2-.08-.12-.07-.09-.03,0,.22,.44,.04,.21,.05,.29,0,.04-.02,.03-.04,.03-.02,0,.14,.28-.03,.02,.25,.55,0,.24-.02,.33-.02,.09-.09,.09-.16,.09-.02,0,.09,.22-.17-.21-.05-.08-.06-.07,0,.02,.13,.24,.19,.37,0,.06-.03-.06,0,.01,.03,.08,.09,.18,.07,.17-.04,.01-.08-.12-.13-.19-.09-.09,.11,.26,.21,.48-.07,.04-.03-.05,.12,.24,.11,.23-.05-.05,.06,.2-.16-.14-.09-.14-.04-.02-.07-.06-.06-.06,.06,.19-.03,.06-.1-.13-.06,0-.08,0l-.06,.03-.06,.03-.06,.03-.06,.03s-.04,.03-.06,.03c-.02,0-.06-.04-.16-.21-.27-.43-.28-.35-.15,.04,0,.03,0,0,0,0-.05,.03-.06,.14-.17,.04-.05-.04-.17-.23-.18-.19,0,.03-.05-.03,.07,.25,.11,.24-.12-.15,.08,.27,.07,.15,.05,.15-.02,.03-.23-.4-.15-.17-.19-.2-.05-.03-.07,0-.08,.04,0,.02-.09-.11,.07,.24,.08,.17,0,.06-.08-.08-.13-.22-.12-.17-.09-.06,.07,.22,.09,.26-.07,.02-.02-.03-.03-.03-.03-.03-.04,.02-.16-.13-.09,.1,.05,.19,.03,.22,0,.25-.01,0,.07,.22-.15-.23-.03-.06-.04-.05-.01,0,.21,.5,.05,.25,.03,.28-.02,.02,.14,.43,.07,.34-.07-.08-.06,0-.09,.02-.04,.01-.17-.25-.74-1.48-.47-1.02-.56-1.24-.63-1.46-.15-.48,.06-.17,.05-.32Z"/>
        <path class="cls-5" d="M140.73,116.45c11.77-1.95,23.73-4.01,32.56-9.39,6.24-3.8,5.82-10.06,5.73-15.37-.06-3.6-2.04-5.51-4.07-8.89-2.67-4.45-3.31-7.04-11.22-8.02-4.7-.58-9.54-.58-14.34-.58-7.42,0-14.85,.01-22.27,.02-7.86,0-15.8,.05-23.53,.99-3.77,.46-7.48,1.12-10.95,2.12-4.11,1.17-5.33,2.1-7.06,4.56-6.45,9.14-5.87,25.97,3.28,30.24,9.45,4.42,21.3,3.47,32.26,4.78,3.76,.45,7.6,.76,11.41,.56,2.78-.15,5.51-.57,8.2-1.01Z"/>
        <g>
          <path class="cls-2" d="M166.53,59.39c3.9-.66,8.96-.62,10.5,3.52,.4,1.09,.47,2.31,.47,3.49,.01,4.56-4.42,10.95-6.98,14.56-6.9,9.73-13.73,9.71-20.4,11.97-14.65,4.96-22.63,3.15-37.72,.42-12.44-2.25-26.07-6.31-32.89-18.4-1.01-1.79-1.85-4.01-1.16-5.98,.8-2.3,3.24-3.13,5.38-3.58,8.1-1.73,15.29-2.59,23.39-1,8.68,1.7,17.35,3.67,26.16,4.31,11.95,.88,24.49-.87,34.56-8.29"/>
          <path class="cls-2" d="M172.44,58.38c1.84,.33,3.36,1.16,4.46,2.41,.19,.18,.54,.29,.72,.58,.68,1.13,1.21,2.5,.98,3.66-.23,1.22-.32,2.48-.4,3.68-.05,1.16-.5,2.17-.86,3.18-.13,.34-.21,.7-.66,.92-.32,.16-.56,.62-.4,1.13,.03,.1-.11,.21-.2,.3-.09,.09-.3,.15-.3,.26,0,1.19-.93,1.91-1.37,2.87-.11,.24-.41,.39-.2,.78,.05,.1-.07,.33-.19,.34-.31,.04-.46,.18-.6,.39-.58,.91-1.2,1.78-1.82,2.65,.1,.72-.46,1.08-.81,1.54-.26,.35-.66,.58-1.03,.84-.36,.27-.43,.84-1.03,.86-.09,0-.11,.22-.19,.31-.36,.41-.65,.94-1.13,1.19-.25,.12-.51,.23-.71,.4-2.52,2.3-5.65,3.93-8.84,4.97-.28,.09-.56,.12-.77,.48-.17,.29-.67,.45-.96,.29-.46-.25-.75,0-1.1,.06-.64,.13-1.25,.36-1.88,.49-.38,.08-.71,.44-1.17,.05-.04-.04-.16,0-.19,.05-.27,.58-.76,.32-1.19,.39-.3,.05-.6,.15-.85,.48-.25,.32-.77,.53-1.14,.38-.49-.2-.82,.03-1.19,.13-2.2,.59-4.41,1.16-6.66,1.56-1.06,.2-2.07,.78-3.18,.72-.26-.02-.53,.19-.8-.14-.05-.07-.26,0-.33,.09-.27,.33-.58,.26-.92,.25-1.54,0-3.08-.16-4.59,.07-.59,.09-1.17,.09-1.75,.07-.58-.04-1.15-.1-1.73-.11-.39,0-.75-.29-1.13-.38-.37-.09-.75-.12-1.13-.14-.23-.01-.44-.14-.7,.11-.14,.13-.47,.13-.58-.01-.38-.47-.87-.38-1.32-.45-1.29-.23-2.58-.4-3.86-.66-.31-.06-.7,.08-.91-.39-.03-.07-.23,.04-.36,.06-.13,.02-.3,.12-.38,.04-.73-.7-1.66-.54-2.5-.72-2.04-.43-4.12-.7-6.15-1.23-.57-.14-1.15,.11-1.7-.04-.53-.15-1.08-.23-1.61-.39-.37-.12-.82-.04-1.06-.56-.07-.14-.34-.21-.48-.13-.54,.31-.94-.03-1.4-.1-.56-.08-1.03-.52-1.7-.24-.18,.08-.38-.25-.59-.34-.36-.16-.73-.31-1.12-.41-.18-.05-.41,.04-.6,0-1.42-.41-2.85-.83-4.21-1.42-.71-.27-1.38-.63-2.06-.99-.68-.34-1.34-.73-1.99-1.13-.66-.39-1.32-.77-1.94-1.23-.63-.44-1.27-.86-1.84-1.38-.43-.38-1.15-.51-1.17-1.3-.62-.09-.82-.58-.88-1.19,0-.09-.25-.08-.37-.13-.39-.15-1.1,.02-.91-.76,0-.03-.05-.05-.07-.08-.17-.33-.83-.07-.83-.67,0-.38-.4-.63-.61-.95-.22-.33-.44-.66-.71-.93-.29-.29-.3-.81-.93-.83-.1,0,.03-.45-.08-.59-.57-.72-.69-1.67-1.63-2.2-.22-.12-.36-.44-.35-.7,.05-.93-.42-1.54-.77-2.4-.23-.56-.37-1.22-.31-1.9,.06-.67,.35-1.36,.87-1.82,.22-.2,.35-.24,.29-.58-.05-.23,.16-.47,.3-.68,.85-1.14,2.06-1.82,3.19-2.25,1.15-.44,2.3-.66,3.36-.88,.59-.13,1.23,.24,1.8-.06,.24-.12,.57,.06,.71-.37,.02-.06,.12-.11,.17-.09,.81,.32,1.43-.44,2.19-.37,.16,.02,.33,.08,.49,.11,.17,.03,.37,.11,.49,.03,1.05-.73,2.27-.43,3.41-.68,.39-.08,.84,.15,1.16-.37,.05-.08,.22-.08,.3-.02,.71,.56,1.43,.06,2.14,.2,.36,.07,.76-.26,1.09,.23,.04,.06,.19,.01,.28-.02,.16-.06,.31-.21,.46-.2,.42,.02,.86,.31,1.23,.17,.46-.18,.89-.08,1.32-.05,.25,.01,.48,.25,.73,.32,.23,.06,.48,.06,.73,.08,.35,.04,.72,0,1.03,.14,.32,.16,.67-.3,.99,.09,.25,.3,.65-.11,.98-.1,.16,0,.33,.09,.48,.17,.12,.06,.2,.24,.32,.25,.26,.02,.49,.15,.8,0,.21-.11,.49,.22,.75,.31,.26,.09,.54,.11,.8,.17,.27,.05,.54,.21,.8,.14,1.17-.28,2.2,.24,3.29,.39,.28,.04,.63-.07,.79,.4,.03,.08,.19,.12,.28,.09,1.14-.38,2.12,.29,3.19,.32,.76,.02,1.53-.07,2.28,.12,.72,.19,1.46,.43,2.2,.35,.61-.07,1.21-.13,1.76,.07,.54,.19,1.21-.57,1.64,.23,.57,.08,1.14,.14,1.7,.25,.47,.09,.98-.03,1.4,.44,.15,.17,.48,.2,.68,.08,.65-.37,1.21-.19,1.79,.1,.14,.07,.34-.13,.5-.12,.5,.02,1.01,.02,1.5,.13,1.48,.29,2.96-.14,4.43-.11,.27,0,.57-.34,.81-.25,1.46,.56,2.94-.05,4.39,.18,2.16,.36,4.25-.26,6.35-.51,.27-.04,.62,.26,.73,.14,.34-.4,.85-.2,1.13-.52,.5-.57,1.14-.42,1.7-.66,.4-.18,.92-.04,1.17-.62,.04-.08,.18-.11,.27-.08,.75,.28,1.14-.58,1.79-.58,.94-.9,2.18-1,3.23-1.58,.15-.09,.25-.27,.38-.41,.06-.07,.13-.18,.21-.17,1.24,.11,2.01-.86,3.03-1.24,.33-.14,.72-.18,1.06-.32,.34-.14,.59-.44,1.08-.34,.15,.04,.29-.14,.4-.26,.55-.68,1.53-.4,2.29,.6,.27,.36,.14,.49,.08,.74-.12,.48-.31,.87-.71,1.1-.31,.18-.7,.29-.75,.82,0,.09-.16,.16-.26,.16-.73-.02-1.16,.62-1.8,.68-.49,.03-.83,.27-1.24,.4-.35,.1-.57,.49-1.07,.29-.17-.07-.33,.39-.55,.51-.52,.27-1.04,.57-1.61,.72-1.7,.5-3.15,1.72-4.93,2.04-1.08,.91-2.51,.71-3.69,1.25-1.45,.64-3.02,.7-4.53,1.04-.31,.06-.57,.08-.86-.03-.19-.07-.39-.15-.58-.14-.73,.06-1.46,.14-2.19,.15-.39,0-.82,.31-1.18-.21-.05-.07-.23-.06-.3,0-.62,.55-1.33,.27-1.99,.32-.25,.03-.5,0-.78-.18-.3-.21-.77-.18-1.08,0-.24,.14-.45,.14-.68,.17-.95,.16-1.89-.42-2.85,.16-.45-.59-1.05-.44-1.55-.35-1.92,.37-3.76-.22-5.62-.37-.45-.03-.87-.34-1.31-.45-.47-.12-.95-.17-1.43-.22-.26-.03-.52-.26-.79,.12-.02,.03-.07,.04-.09,.03-.26-.11-.51-.31-.78-.32-.24-.01-.51,.22-.76,.26-.3,.04-.61,0-.91-.05-.29-.04-.61,0-.78-.4-.3,.41-.59,.12-.88,.1-.27-.02-.54-.09-.81-.14l-.91-.17c-.3-.06-.6-.15-.91-.16-.42-.02-.86,.06-1.28,.03-.45-.04-.89-.13-1.31-.26-.53-.17-1.05-.41-1.58-.6-.22-.08-.43,0-.68,.11-.33,.15-.79,.53-1.05-.14-.05-.13-.32-.15-.49-.1-1.28,.39-2.38-.37-3.58-.42-.53-.57-1.19-.41-1.85-.36-.98,.05-1.98,0-2.89-.34-.97-.37-1.96-.25-2.94-.36-.28-.03-.58,.13-.82-.28-.06-.1-.27-.06-.38,0-.8,.45-1.57,.36-2.42,.13-.45-.12-.92,.09-1.39,.3-.7,.31-1.49,.21-2.25,.31-.4-.48-.58,.09-.72,.33-.18,.33-.38,.41-.64,.46-.34,.06-.69,.03-.97,.41-.14,.2-.53,.22-.75,.07-.29-.19-.36-.07-.56,.13-.23,.24-.6-.19-.93-.1-.36,.1-.73,.43-1.15-.04-.04-.04-.15-.01-.19,.04-.54,.68-1.44,.04-1.96,.41-.95-.09-1.81,.18-2.39,.58-.6,.42-.85,.83-1.14,1.31-.23,.37-.68,.99-.31,1.6,.71,1.18,1.14,2.66,2.16,4.05,.21,.28,.6,.5,.37,1.05-.03,.08,.07,.2,.17,.22,.71,.14,.89,.63,.96,1.26,.01,.16,.17,.34,.33,.31,.42-.07,.48,.21,.64,.4,.18,.22,.2,.72,.45,.72,.53,0,.34,.46,.5,.7,.09,.15,.31,.21,.48,.29,.08,.04,.27,0,.28,.06,.11,.71,.92,.64,1.25,1.1,.07,.1,.17,.18,.23,.29,.33,.64,.5,.97,.77,1.24,.29,.25,.69,.43,1.46,.79,.02,.81,1,.31,1.17,.97,.06,.25,.39,.4,.66,.4,1.13,.05,1.87,.86,2.84,1.2,.21,.06,.17,.51,.57,.31,.15-.08,.31,.41,.53,.5,.32,.12,.55,.49,1.03,.23,.19-.11,.42,.13,.65,.18,.31,.07,.54,.33,.95,.12,.23-.12,.59,.03,.72,.25,.53,.91,1.44,.57,2.22,.58,.24,0,.41-.02,.6,.15,.27,.24,.64,.55,.94,.43,.53-.22,.91,.05,1.34,.14,.75,.15,1.46,.43,2.22,.55,.86,.14,1.67,.53,2.61,.37,.51-.08,1.15-.12,1.55,.54,.04,.07,.31-.2,.45-.18,1.09,.18,2.18,.38,3.29,.62,.25,.06,.44,.66,.75,.26,.34-.43,.44,.55,.75,.02,.05-.08,.28-.03,.39,.05,1.19,.83,2.61,.6,3.88,.98,.31,.09,.7-.08,.87,.44,.88-.41,1.59,.84,2.49,.1,.55,.22,1.21-.14,1.68,.51,.08,.1,.29-.01,.38,.08,.31,.33,.63-.52,.99-.02,.21,.29,.68,.19,1.03,.24,.33,.04,.66,.06,.99,.09,.36,.03,.73,.07,1.09,.09,.36,.02,.72,.07,1.08,.05,.74-.04,1.45-.39,2.18-.24,.08,.02,.22-.05,.24-.14,.24-.74,.61-.33,.86-.13,.21,.17,.39,.25,.62,.24,.62-.03,1.23-.08,1.85-.1,.37,0,.73-.28,1.12,.16,.12,.14,.41,.06,.57-.06,.71-.6,1.54-.38,2.31-.62,.35-.1,.7-.15,1.06-.2,.27-.04,.47-.4,.8-.16,.59-.45,1.22-.65,1.88-.78,.66-.16,1.33-.27,1.97-.48l1.93-.63,2.02-.61c.36-.11,.69-.46,1.14-.07,.09,.07,.34,0,.38-.12,.13-.32,.25-.5,.57-.21,.06,.05,.23-.07,.31-.17,.23-.27,.49-.32,.82-.22,.26,.08,.58,.08,.77-.08,.52-.43,.96-.81,1.68-.47,.09,.04,.18-.34,.3-.36,.5-.08,.89-.49,1.47-.28,.24,.09,.48-.12,.72-.17,.42-.09,.68-.48,1.14-.51,.46-.05,.85-.35,1.25-.57,.4-.23,.81-.43,1.19-.68,.38-.26,.78-.48,1.14-.77s.74-.54,1.09-.85l1.04-.92,.99-1c.24-.22,.46-.44,.84-.56,.96-.3,1.56-1.22,2.01-2.5,.03-.1,.11-.17,.17-.25,.76-1.08,1.42-2.21,2.24-3.21,.36-.44,.85-.8,1.12-1.32,.17-.34,.43-.61,.34-1.09-.08-.4,.54-.56,.29-1.09-.09-.2,.08-.49,.28-.58,.67-.3,.72-.95,.98-1.45,.31-.59,.53-1.2,.68-1.81,.09-.3,.3-.55,0-.93-.14-.19,.04-.48,.23-.66,.32-.28,.25-.59,.18-.87-.23-.72-.27-.72-.03-1.4,.03-.08,.02-.16,.01-.24-.07-.78-.15-1.49-.68-1.88-.43-.29-.72-.56-1.15-.8-.19-.09-.45,0-.44-.52,0-.07-.12-.11-.2-.08-.61,.35-1.03-.04-1.6-.1-.54-.07-1.07,.37-1.63,.26-.55-.08-1.11,.03-1.69,.1-.87,.1-1.11-.14-1.33-1.48-.18-1.1,.02-1.39,.79-1.73,1.67-.72,3.5-.37,4.96-.22Z"/>
        </g>
        <g>
          <path class="cls-1" d="M150.78,77.69c2.07-.26,4.77-.25,5.58,1.42,.22,.44,.25,.93,.25,1.41,0,1.84-2.35,4.41-3.71,5.86-3.67,3.92-7.3,3.91-10.85,4.82-7.79,2-12.04,1.27-20.06,.17-6.62-.91-13.86-2.54-17.49-7.41-.54-.72-.98-1.61-.62-2.41,.43-.93,1.72-1.26,2.86-1.44,4.31-.7,8.13-1.04,12.44-.4,4.62,.68,9.23,1.48,13.91,1.74,6.36,.35,13.03-.35,18.38-3.34"/>
          <path class="cls-1" d="M153.8,76.72c.46,.05,1,.18,1.45,.35,.46,.16,.86,.4,1.23,.67,.11,.09,.43,.02,.54,.18,.18,.21,.33,.44,.49,.67,.25,.43,.39,.95,.23,1.46-.26,.83-.46,1.51-.55,2.22-.07,.65-.43,1.13-.69,1.64-.09,.17-.15,.36-.51,.35-.26,0-.43,.19-.26,.58,.03,.08-.08,.09-.14,.12-.07,.03-.24-.01-.23,.06,.11,.79-.59,.93-.85,1.41-.06,.12-.29,.12-.08,.46,.05,.09-.02,.2-.12,.16-.25-.09-.35-.05-.43,.05-.38,.41-.79,.84-1.23,1.21,.12,.57-.29,.62-.54,.8-.19,.14-.47,.15-.72,.19-.25,.05-.29,.46-.7,.21-.07-.04-.07,.12-.13,.15-.23,.17-.42,.48-.74,.45-.16-.01-.32-.03-.45,.03-1.62,.76-3.35,1.15-4.97,1.49-.14,.03-.29,0-.38,.32-.07,.25-.32,.31-.48,.11-.25-.32-.39-.14-.56-.12-.32,.04-.6,.16-.94,.2-.2,.02-.35,.32-.64-.13-.03-.04-.09-.03-.1,.02-.1,.52-.4,.18-.63,.17-.17-.01-.32,.03-.44,.3-.12,.26-.39,.36-.6,.15-.27-.28-.44-.15-.63-.11-1.14,.19-2.3,.32-3.45,.46-.54,.05-1.07,.54-1.64,.37-.13-.04-.28,.16-.4-.19-.03-.07-.13-.03-.17,.06-.15,.32-.3,.19-.48,.18-.78-.07-1.56-.28-2.34-.03-.61,.2-1.18,.04-1.77,.06-.2,0-.37-.25-.56-.32-.19-.07-.38-.07-.57-.07-.12,0-.22-.11-.36,.16-.08,.14-.25,.17-.3,.03-.17-.44-.43-.31-.66-.34-.65-.11-1.31-.16-1.96-.28-.16-.03-.37,.15-.45-.3-.01-.06-.12,.06-.19,.1-.07,.04-.16,.15-.2,.08-.35-.61-.83-.36-1.26-.44-1.04-.2-2.11-.27-3.14-.53-.29-.07-.61,.25-.89,.17-.27-.07-.56-.09-.83-.18-.19-.06-.44,.09-.53-.38-.02-.13-.17-.16-.25-.06-.31,.38-.5,.1-.74,.11-.3,.02-.52-.32-.9,.05-.11,.1-.19-.17-.29-.22-.19-.09-.38-.15-.58-.19-.1-.02-.23,.11-.33,.1-.75-.1-1.52-.22-2.26-.43-.75-.23-1.47-.57-2.19-.91-.71-.35-1.44-.71-2.1-1.19-.25-.16-.71-.1-.6-.74-.43,.12-.52-.18-.45-.66,0-.07-.16,.01-.25,0-.25,0-.8,.32-.54-.32,0-.02-.03-.02-.04-.04-.08-.18-.63,.2-.53-.26,.06-.29-.16-.37-.32-.56-.17-.18-.31-.42-.51-.59-.22-.2-.11-.54-.74-.56-.1,0,.1-.29,.01-.38-.44-.51-.22-1.04-.93-1.6-.16-.14-.17-.36-.05-.48,.4-.43,.28-.91,.39-1.44,.13-.68,.72-1.32,1.76-1.14,.22,.04,.34,.1,.32-.13,0-.15,.17-.19,.29-.23,.35-.12,.73-.22,1.11-.29,.36-.07,.82-.14,1.05-.18l1.67-.24c.31-.04,.65,.4,.94,.18,.12-.09,.3,.14,.36-.27,0-.06,.06-.09,.09-.07,.42,.42,.73-.27,1.13-.11,.08,.03,.17,.12,.25,.16s.19,.15,.25,.08c.54-.61,1.17-.21,1.75-.37,.2-.05,.43,.2,.6-.29,.03-.07,.12-.07,.16,0,.35,.59,.73,.14,1.09,.3,.18,.08,.4-.23,.55,.26,.02,.06,.09,.02,.14-.02,.08-.05,.17-.21,.24-.2,.21,.04,.43,.31,.62,.17,.25-.18,.46-.08,.68-.07,.13,0,.23,.24,.36,.3,.12,.06,.25,.04,.37,.05,.18,.02,.37-.04,.52,.09,.16,.13,.37-.35,.51,.02,.1,.28,.34-.15,.5-.18,.08-.01,.16,.05,.23,.12,.05,.05,.09,.22,.15,.21,.13,0,.24,.1,.41-.09,.12-.13,.24,.16,.38,.22,.13,.05,.27,.05,.41,.07,.14,.02,.27,.14,.41,.04,.62-.42,1.13-.03,1.69-.01,.14,0,.33-.14,.39,.3,.01,.08,.09,.1,.14,.06,.61-.52,1.08,.04,1.63-.06,.39-.07,.79-.25,1.17-.14,.36,.1,.74,.26,1.12,.1,.32-.13,.62-.25,.9-.11,.27,.14,.63-.69,.83,.06,.29,.03,.58,.03,.86,.09,.24,.05,.5-.12,.7,.32,.07,.16,.24,.16,.34,.03,.34-.42,.61-.27,.9-.03,.07,.06,.17-.15,.26-.15,.25,0,.51-.03,.75,.04,.74,.22,1.48-.26,2.21-.26,.14,0,.28-.34,.4-.25,.73,.54,1.46-.04,2.19,.24,1.09,.42,2.13-.02,3.18-.06,.14,0,.33,.33,.38,.22,.15-.35,.42-.11,.55-.38,.22-.48,.56-.25,.83-.41,.19-.12,.48,.11,.57-.41,.01-.08,.09-.08,.14-.03,.41,.39,.55-.36,.9-.23,.42-.68,1.08-.49,1.6-.78,.07-.05,.11-.19,.17-.28,.03-.05,.05-.13,.1-.11,.7,.4,1.03-.25,1.57-.3,.18-.02,.4,.06,.58,.04,.19-.02,.29-.22,.6,.03,.1,.08,.16-.02,.21-.1,.24-.41,.89,.15,1.51,1.24,.22,.4,.15,.46,.15,.66-.01,.38-.09,.65-.31,.73-.18,.06-.41,.03-.38,.49,0,.08-.08,.1-.14,.07-.46-.22-.65,.22-1.03,.09-.29-.1-.47,.02-.7,.03-.19,0-.29,.29-.6-.02-.1-.11-.15,.28-.27,.33-.27,.13-.55,.27-.85,.29-.91,.09-1.61,.96-2.55,.99-.52,.7-1.29,.31-1.89,.69-.73,.45-1.55,.37-2.31,.6-.16,.04-.29,.04-.45-.09-.1-.09-.21-.18-.3-.18-.37,.01-.74,.08-1.12,.05-.2-.02-.41,.28-.61-.24-.03-.07-.12-.06-.15,0-.31,.54-.67,.22-1.01,.3-.13,.03-.25,0-.4-.18-.15-.21-.39-.18-.55,0-.12,.14-.23,.15-.34,.19-.48,.17-.96-.38-1.45,.25-.23-.57-.53-.4-.79-.28-.98,.47-1.92,.02-2.88,.03-.23,0-.44-.26-.67-.33-.24-.07-.48-.08-.73-.08-.13,0-.26-.2-.41,.19-.01,.03-.04,.05-.05,.04-.13-.08-.25-.25-.39-.24-.12,.01-.27,.27-.4,.33-.16,.07-.31,.06-.47,.05-.15-.01-.32,.06-.39-.31-.17,.44-.31,.19-.46,.2-.14,.01-.28-.03-.42-.05l-.47-.06c-.16-.02-.31-.08-.47-.06-.22,.03-.45,.16-.67,.18-.23,.02-.46-.02-.67-.1-.27-.1-.53-.28-.79-.4-.11-.05-.23,.05-.36,.19-.18,.19-.44,.62-.54-.02-.02-.13-.16-.11-.25-.04-.69,.54-1.22-.08-1.85,0-.26-.51-.62-.28-.98-.2-.51,.12-1,.13-1.43-.19-.46-.34-.96-.21-1.44-.35-.14-.04-.29,.13-.39-.29-.02-.1-.13-.07-.19-.01-.41,.43-.79,.3-1.2,.02-.22-.15-.46,.03-.69,.2-.35,.25-.74,.09-1.12,.11-.2-.51-.29,.03-.36,.26-.09,.31-.19,.37-.32,.39-.17,.02-.34-.06-.48,.3-.07,.18-.26,.16-.37-.02-.15-.23-.18-.11-.28,.06-.11,.2-.3-.26-.47-.22-.18,.05-.36,.33-.58-.19-.02-.05-.08-.03-.1,.01-.26,.59-.71-.16-1.01,.13-.27-.11-.54-.16-.8-.16-.11,0-.3,.02-.34,.02-.04,0-.09,.01-.13,.03-.17,.06-.26,.15-.51,.12-.18-.04-.8-.21-.64,.1,.2,.29,.24,.43,.25,.57,0,.13,0,.28,.14,.39,.07,.06,.33,0-.14,.26-.06,.04-.03,.07,.04,.05,.53-.13,.38-.05,.25,.27-.04,.07,.04,.13,.16,.08,.33-.18,.31,0,.38,.09,.08,.1,0,.46,.18,.37,.39-.18,.17,.2,.23,.34,.03,.09,.17,.07,.27,.07,.05,0,.18-.09,.18-.04-.07,.52,.54,.15,.64,.45,.02,.07,.08,.09,.09,.17,.2,.83,.22,.86,1.08,.99-.1,.67,.57-.04,.57,.51,0,.21,.18,.24,.34,.17,.68-.31,.96,.31,1.5,.33,.11,0,.03,.44,.28,.16,.09-.1,.12,.31,.24,.34,.17,.04,.26,.31,.55-.03,.12-.14,.22,.04,.33,.04,.16,0,.26,.2,.51-.09,.14-.16,.32-.11,.37,.08,.19,.78,.72,.28,1.13,.13,.13-.04,.22-.09,.3,.04,.12,.19,.29,.43,.46,.25,.3-.3,.48-.11,.7-.08,.37,.05,.74,.18,1.12,.21,.43,.03,.83,.28,1.33,.02,.26-.14,.6-.26,.76,.34,.02,.07,.17-.23,.24-.22,.55,.07,1.1,.13,1.64,.25,.12,.03,.19,.6,.37,.17,.19-.46,.2,.5,.39-.06,.03-.08,.14-.06,.2,0,.58,.69,1.32,.31,1.97,.56,.15,.06,.37-.15,.43,.35,.47-.48,.78,.67,1.28-.13,.27,.18,.63-.23,.84,.37,.03,.1,.15-.03,.19,.06,.14,.3,.35-.56,.51-.08,.09,.27,.34,.15,.52,.18,.16,.03,.33,.03,.5,.05l.55,.05c.18,.01,.36,.06,.54,.03,.37-.06,.74-.39,1.1-.24,.04,.02,.11-.05,.13-.14,.15-.74,.31-.32,.43-.1,.1,.18,.19,.27,.3,.27,.31-.01,.61-.03,.92,0,.18,.02,.37-.22,.55,.24,.06,.14,.2,.11,.28,0,.36-.51,.77-.25,1.15-.34,.17-.05,.35-.05,.53-.06,.14,0,.23-.33,.4-.04,.57-.68,1.28-.37,1.93-.57,.64-.17,1.3-.29,1.96-.4,.17-.03,.29-.31,.55,.14,.05,.09,.17,.05,.18-.05,.03-.29,.07-.44,.26-.11,.04,.06,.11-.04,.14-.12,.08-.22,.23-.24,.44-.1,.16,.11,.34,.15,.44,.02,.25-.34,.52-.65,.93-.2,.05,.05,.09-.29,.16-.29,.28,0,.48-.31,.82,.03,.14,.14,.26-.01,.4,0,.23,.03,.38-.28,.63-.18,.26,.1,.47-.08,.69-.14,.23-.06,.44-.12,.65-.19,.22-.06,.42-.14,.62-.21,.21-.07,.4-.16,.6-.24,.2-.08,.38-.18,.57-.27,.19-.09,.36-.21,.55-.3,.13-.06,.27-.1,.51-.02,.6,.21,1-.16,1.18-.85,.01-.05,.06-.06,.1-.09,.44-.39,.75-.86,1.31-1.26,.24-.17,.59-.23,.75-.47,.11-.16,.28-.24,.16-.59-.11-.28,.38-.16,.12-.59-.09-.16,.01-.28,.17-.26,.53,.07,.51-.31,.69-.51,.21-.23,.35-.49,.46-.74,.03-.12,.26-.18-.06-.43-.15-.14,0-.15,.16-.13,.26,.02,.23-.08,.14-.15-.22-.14-.26-.08,.02-.25,.03-.02,.03-.04,.03-.05,0-.08,.02-.19,0-.28-.03-.07-.09-.14-.23-.12-.24,.05-.32,.03-.41,0-.05-.01-.14,.19-.02-.29,.02-.07-.02-.07-.05-.01-.09,.26-.18,.3-.31,.28-.11-.02-.23-.1-.35-.11-.25-.01-.5,.42-.76,.32-.26-.09-.53,0-.8,.03-.42,.04-.55-.24-.72-1.58-.14-1.11-.05-1.37,.34-1.64,.85-.59,1.79-.22,2.56-.27Z"/>
        </g>
      </g>
    </g>
  </g>
</svg>