<?xml version="1.0" encoding="UTF-8"?>
<svg id="_Слой_2" data-name="Слой 2" xmlns="http://www.w3.org/2000/svg" xmlns:xlink="http://www.w3.org/1999/xlink" viewBox="0 0 357.63 226.45">
  <defs>
    <style>
      .cls-1 {
        fill: none;
      }

      .cls-2 {
        clip-path: url(#clippath);
      }

      .cls-3 {
        fill: #349039;
      }

      .cls-4 {
        fill: #37993a;
      }
    </style>
    <clipPath id="clippath">
      <rect class="cls-1" width="357.63" height="226.45"/>
    </clipPath>
  </defs>
  <g id="_верхний_лотос" data-name="верхний лотос">
    <g class="cls-2">
      <g>
        <g>
          <path class="cls-3" d="M300.59,69.28c6.04-.37,12.33-.7,17.91,1.64,8.83,3.71,13.98,14.12,12.39,23.57-1.58,9.45-9.24,17.35-18.41,20.12"/>
          <path class="cls-3" d="M317.45,109.73c.95-.58,1.89-1.19,2.72-1.95,.31-.27,.84-.32,.71-1.11-.08-.39,.78-.04,1.03-.35,.68-.79,1.47-1.48,2.06-2.34,.27-.43,.51-.87,.72-1.33,.2-.47,.39-.93,.63-1.36,.2-.45,.51-.84,.78-1.25,.25-.42,.44-.87,.45-1.38,.01-.43,.18-.77,.41-1.08,.23-.31,.48-.63,.5-1.02,.1-.83,.17-1.64,.62-2.37,.31-.53,.64-1.08,.58-1.67-.08-.37-.48-.73-.43-1.11,.06-.35,.38-.79-.44-1.07-.07-.02,.07-.19,.18-.27,.52-.41,.44-.91,.03-1.19-.39-.27-.38-.55-.43-.83-.21-.78-.36-1.56-.54-2.34-.09-.6-.01-1.26-.17-1.86-.13-.65-.8-1.08-.68-1.8,.08-.71-.25-1.2-.53-1.72-.18-.27-.1-.82-.93-.58-.08,.02-.14-.08-.12-.17,.19-.71-.22-1.02-.64-1.28-.42-.27-.96-.4-1.18-.83-.22-.46-.57-.81-.96-1.11l-.58-.46c-.21-.13-.42-.26-.62-.4-.21-.15-.3-.51-.82-.16-.19,.13-.42,.02-.45-.17-.09-.52-.36-.79-.69-.96-.34-.15-.71-.23-1-.45-.7-.5-1.62-.42-2.29-1.26-.28-.36-.77-.63-1.38,.01-.27,.29-.62-.13-.96-.11-.27,.01-.58,.32-.84,.3-.22-.02-.4-.35-.62-.52-.06-.05-.15-.06-.22-.02-1.37,.71-2.61-.49-4.01-.26-1.38,.23-2.8,.18-4.24,.14-.8-.02-1.63-.21-2.27-1.65-.29-.65-.33-1.35-.01-1.79,.23-.32,.51-.63,.79-.72,.46-.15,.91-.35,1.36-.49,.93-.3,1.85-1.02,2.87-.68,.31,.1,.67-.29,.94,.37,.04,.09,.16,.14,.22,.09,1.34-1.02,2.76-.31,4.14-.27,1.18,.04,2.47-.6,3.65-.02,.84-.65,1.64-.32,2.26,.12,1.09,.78,2.23,1.22,3.39,1.8,.58,.26,1.17,.51,1.72,.83,.56,.31,1.12,.61,1.6,1.03,2.02,1.58,3.91,3.34,5.35,5.42,.23,.36,.83,.41,.81,1.03,0,.56,.5,.96,.78,1.44,.25,.43,.66,.82,.67,1.35,.11,2.1,1.17,3.73,1.54,5.67,.38,1.9,.44,3.83,.66,5.77,.04,.59,.18,1.2,.23,1.8,.03,.61,.03,1.23-.13,1.82-.17,.49,.14,1.12-.7,1.45-.23,.09,.23,.69,.15,1.02-.17,.81-.43,1.6-.75,2.36-.38,1.08-.93,2.08-1.38,3.12-.3,.62-.33,1.4-.67,2.02-.34,.65-.73,1.29-1.24,1.82-.32,.34-.67,.65-1.02,.96-.37,.29-.73,.58-1.06,.89-.67,.66-1.14,1.59-2.03,1.96-1.67,.63-2.72,1.91-4.16,2.75-.69,.45-1.44,.79-2.14,1.21-.73,.37-1.44,.78-2.16,1.18-.83,.45-1.84,.18-2.69,.45-.41,.14-1.47-1.49-1.5-2.17,0-.13,.01-.27,.06-.34,.57-.83,.91-1.9,1.7-2.19,1.21-.38,2.3-1.05,3.38-1.7Z"/>
        </g>
        <g>
          <path class="cls-3" d="M70.29,29.33c4.52-6.62,11.94-11.18,19.89-12.23,3.35-.44,6.98-.22,9.77,1.68,3.25,2.22,4.75,6.27,7.66,8.92"/>
          <path class="cls-3" d="M102.95,25.92c-.45-.63-.83-1.28-1.31-1.81-.18-.2-.06-.61-.78-.41-.35,.1,.15-.58-.02-.74-.46-.42-.75-.96-1.22-1.29-.45-.33-1.02-.42-1.45-.6-.41-.18-.7-.75-1.3-.53-.48,.19-.65-.52-1.1-.48-.47,.06-.92,.09-1.33-.26-.3-.25-.63-.56-.99-.43-.22,.08-.42,.5-.65,.46-.21-.02-.48-.36-.63,.45-.01,.07-.12-.07-.17-.18-.26-.51-.57-.45-.73-.08-.16,.36-.33,.34-.51,.38-.49,.11-.98,.23-1.48,.23-.38,.02-.81-.2-1.2-.19-.41,.01-.72,.49-1.18,.21-.47-.29-.81-.13-1.16-.02-.2,.07-.56-.21-.45,.62,.01,.08-.06,.1-.12,.05-.94-.77-.98,.72-1.61,.74-.68,0-1.17,.47-1.71,.78-.15,.08-.42-.04-.26,.55,.05,.21-.08,.31-.23,.23-.81-.47-.98,.2-1.44,.35-.55,.16-.77,.78-1.58,.6-.35-.08-.7,0-.45,.78,.12,.35-.31,.24-.41,.43-.08,.16,.01,.51-.09,.63-.09,.1-.39-.04-.59-.05-.06,0-.1,.03-.1,.09-.01,1.14-1.34,.87-1.73,1.62-.38,.74-.95,1.29-1.54,1.85-.31,.32-.76,.54-2.16-.04-.63-.26-1.22-.65-1.44-1.06-.16-.3-.29-.62-.24-.81,.07-.31,.11-.66,.18-.97,.18-.61,.04-1.54,.74-1.79,.22-.07,.09-.51,.68-.19,.08,.04,.17,.02,.16-.04-.19-1.33,.95-1.49,1.52-2.13,.49-.53,.51-1.64,1.33-1.83-.19-.9,.3-1.1,.79-1.15,1.69-.2,2.61-1.43,3.97-2.07,1.38-.6,2.68-1.34,4.12-1.82,.24-.09,.29-.6,.7-.35,.38,.23,.63-.14,.95-.24,.28-.1,.54-.34,.87-.22,.68,.25,1.25,.18,1.82,.06,.56-.14,1.12-.35,1.71-.39,1.16-.11,2.33-.13,3.52-.37,.72-.14,1.5-.56,2.26-.32,.32,.11,.73-.29,.95,.52,.05,.23,.45-.3,.68-.28,.55,.04,1.08,.22,1.61,.39,.74,.22,1.45,.59,2.2,.88,.45,.18,1.04,.17,1.51,.4,.48,.25,.91,.57,1.24,.97,.43,.5,.67,1.14,1.01,1.63,.35,.51,1.02,.77,1.08,1.43,.09,1.2,.9,1.78,1.36,2.57,.46,.78,.92,1.52,1.56,2.04,.36,.29,.15,1.02,.47,1.33,.13,.12-.93,1.73-1.43,2.14-.1,.08-.22,.14-.28,.15-.79,.07-1.85,.32-2.24-.22-.56-.79-1.16-1.48-1.67-2.2Z"/>
        </g>
        <g>
          <path class="cls-4" d="M109.04,137.05c-25.47-9.5-47.99-26.76-63.8-48.88-6.05-8.47-11.3-19.29-7.47-28.97,1.44-3.64,4.04-6.69,6.69-9.58,9.66-10.53,21.38-20.3,35.48-22.61,18.14-2.98,36.21,6.9,54.56,5.81,5.76-.34,18.67,1.45,24.44,1.28,23.39-.65,42.97-4.53,53.32-4.78,12.65-.3,20.77,0,31.72,3.07,19.91,5.58,38.87,16.01,52.13,31.88,13.26,15.87,20.28,37.49,16.21,57.76-.66,3.3-1.65,6.63-3.73,9.27-3.61,4.57-9.71,6.2-15.4,7.46-61.04,13.55-125.85,15.79-185.33-3.5"/>
          <path class="cls-4" d="M167.82,145.18l8.08,.75c2.7,.21,5.4,.33,8.1,.49l4.05,.23,4.06,.09,8.11,.13c4.03-.09,8.15,.25,12.32-.55,2.07-.43,5.98,.22,9.71,.03,10.06-.72,20.18-1.44,30.18-2.89,9.75-1.28,19.35-3.27,28.98-5.17,2.38-.52,4.78-1.01,7.19-1.5,2.41-.49,4.86-.94,7.13-1.52,2.27-.58,4.45-1.27,6.31-2.27,1.87-.98,3.39-2.26,4.4-3.79,1.73-2.65,2.64-6.12,3.28-9.74,.4-1.78,.55-3.59,.78-5.41,.09-1.82,.22-3.66,.08-5.53-.33-7.93-2.38-15.95-5.03-23.29-1.98-5.34-4.53-10.48-7.96-15.04-1.04-1.45-2.25-2.68-3.41-3.99-1.22-1.27-2.46-2.56-3.8-3.96-2.41-2.64-5.27-5.64-8.2-6.98-.25-.11-1.41-1.23-1.98-1.82-2.76-2.78-6.82-5.38-9.81-6.71-1.47-.63-2.79-1.33-4.12-1.96-.65-.33-1.3-.66-1.95-.99-.66-.31-1.31-.63-1.98-.94-7.31-3.46-15.1-6.14-22.89-8.15-5.82-1.45-11.69-2.35-17.84-2.51-3.18-.09-6.55,.02-9.79,.15-3.13,.15-6.32,.49-9.31,.63-6.01,.3-11.76,1.07-17.67,1.71-3.36,.37-7.33,.38-10.04,1.42-.25,.1-1.52,.19-2.11,.17-4.89-.17-9.59,.18-14.53,.47-2.56,.08-4.97,0-7.4-.09-2.42-.11-4.83-.28-7.22-.53-2.46-.25-4.95-.47-7.32-.49-.62-.02-1.11,.02-1.75,.03l-2.01,.04c-1.35,.07-2.68-.02-4.01-.07-5.33-.26-10.54-1.16-15.56-2.2-2.68-.55-5.46-1.42-8-1.35-.9,0-3.64-.51-4.94-.91-7.05-2.1-14.77-2.37-21.71-.85-4,.83-7.84,2.46-11.49,4.47-3.66,2.03-7.12,4.47-10.61,7-2.96,2.12-6.69,5.55-9.13,9.3-1.15,1.72-4.18,4.54-5.46,7.05-.54,1.02-.91,2.05-1.12,3.12-.15,.52-.22,1.05-.29,1.58-.11,.52-.13,1.06-.19,1.6-.19,1.82-.38,3.76-.14,5.78,.1,.6,.21,1.33,.45,1.89,1.98,5.5,5.07,10.73,8.68,15.81,3.59,5.13,7.52,10.09,12.03,14.52,9.07,8.92,19.31,16.89,30.41,23.24,6.11,3.55,12.61,6.71,16.62,9.78,1.79,1.42,1.58,2.1-1.44,1.36-2.23-.51-4.72-1.3-7.12-2.28-1.9-.83-3.81-1.66-5.68-2.53-1.85-.92-3.73-1.76-5.49-2.75-7.4-3.98-14.79-8.18-21.27-14.15-.99-.94-2.18-1.83-3.24-2.78-1.05-.96-2-1.94-2.61-2.94-.17-.27-.94-1.08-1.35-1.43-4.54-3.67-8.61-8.06-12.31-12.77-.95-1.16-1.83-2.37-2.7-3.59-.88-1.21-1.76-2.42-2.6-3.69-1.67-2.54-3.2-5.18-4.54-7.94-1.13-2.35-2.13-4.79-2.84-7.36-.71-2.56-1.13-5.29-1.01-8.08,.11-2.79,.82-5.62,2.07-8.18,1.25-2.54,2.94-4.72,4.72-6.65,3.15-4.8,7.93-9.48,12.59-12.97,4.06-3.1,8.41-5.91,13.08-8.19,4.69-2.22,9.74-3.91,14.98-4.51,5.22-.66,10.44-.39,15.47,.3,5.04,.69,9.92,1.79,14.7,2.85,4.85,1.08,9.65,2.08,14.42,2.56l1.79,.17c.6,.05,1.19,.06,1.78,.09l1.78,.07,1.77-.04,1.83-.05c.7-.03,1.37-.03,2.03-.03,1.32,.02,2.6,.08,3.88,.15,5.07,.3,10.06,.84,14.92,1.09,1.23,.06,2.36,.09,3.53,.06l3.7-.13c2.47-.12,4.94-.24,7.41-.42,3.37-.23,6.22-.93,10.18-.97,3.73-.03,8.49-.84,12.81-1.37,3.96-.48,8.11-1.18,11.93-1.36,1.99-.08,3.97-.19,6.02-.2,2.04-.02,3.96,.02,5.96,.03,3.96,.04,7.96,.12,11.99,.46,4.02,.34,8.05,.96,11.98,1.89,3.94,.93,7.74,2.11,11.52,3.42,14.96,5.35,29.12,13.55,40.53,24.81,6.98,6.79,13.02,14.8,16.86,23.98,1.62,3.88,3.56,8.01,3.79,12.28,.07,.59,.42,1.82,.83,3.25,.45,1.42,.82,3.06,1.03,4.41,1.03,6.73,.79,13.67-.42,20.42-.4,2.33-.99,4.74-2.01,7.14-1,2.38-2.63,4.78-4.72,6.5-2.06,1.77-4.4,2.95-6.71,3.85-2.32,.89-4.64,1.5-6.9,2.05-2.74,.63-5.41,1.26-8.11,1.93l-4.04,.99c-1.35,.31-2.72,.58-4.08,.86-2.86,.56-5.73,1.13-8.62,1.63-2.9,.44-5.8,.87-8.68,1.31-7.34,.98-14.66,1.65-22.03,2.26-3.81,.4-7.71,.7-11.57,1.02-3.86,.36-7.69,.48-11.36,.47-13.65-.13-27.25,.02-40.83-1.06-13.49-1.09-26.94-3.08-40.19-5.7-1.88-.37-3.72-.78-5.52-1.21-1.78-.52-3.54-1.03-5.29-1.54-1.75-.52-3.49-1.03-5.25-1.55-1.75-.54-3.5-1.09-5.29-1.65-3.36-1.01-7.28-4.16-5.71-4.36,.3-.04,.88,0,1.44,.12,3.57,.75,7,1.42,10.55,2.11,3.58,.59,7.23,1.33,11.25,2.33,11.91,2.8,24.06,4.64,36.24,5.93Z"/>
        </g>
        <g>
          <path class="cls-4" d="M263.65,104.56c-31.33-3.71-64.04,6.38-87.86,27.07-5.29,4.6-10.33,9.98-12.27,16.72-.99,3.43-1.07,7.3,.67,10.42,1.55,2.77,4.33,4.63,7.16,6.06,10.27,5.22,22.13,6.24,33.65,6.42,20.39,.31,40.94-1.75,60.44-7.69"/>
          <path class="cls-3" d="M245.24,169.97c-3.74,.65-7.5,1.14-11.25,1.6-1.4,.18-2.85,.1-4.27,.69-.71,.3-2.11-.12-3.41-.01-3.51,.34-7.05,.41-10.58,.57-3.43,.15-6.85,.35-10.28,.37-3.41,.02-6.92-.37-10.23-.35-2.89,.01-5.42-.71-8.16-1.07-2.9-.38-5.92-1-8.63-2.05-1.98-.76-3.85-1.69-5.81-2.44-1.2-.52-2.44-.76-3.72-1.53-1.19-.7-2.35-1.77-3.65-2.22-.11-.03-.54-.56-.72-.85-.9-1.36-2-2.99-2.73-4.2-.73-1.17-.97-2.37-1.12-3.59-.41-3.36,.3-6.65,1.52-9.53,.91-2.19,2.26-4.09,3.61-5.92,1.4-1.92,2.9-3.96,4.59-5.31,1.7-1.35,3.18-2.73,4.77-4.07,.91-.75,2.13-1.43,2.53-2.47,.04-.1,.38-.37,.57-.47,.75-.41,1.46-.86,2.15-1.33,.68-.48,1.33-1.01,1.96-1.56,.64-.54,1.26-1.12,1.93-1.63,.68-.5,1.37-.99,2.11-1.42,.76-.44,1.51-.91,2.26-1.38,.75-.48,1.54-.9,2.3-1.36,1.55-.89,3.04-1.9,4.64-2.69,.84-.44,1.81-.77,2.42-1.52,.21-.26,1.09-.75,1.57-.86,1.32-.3,2.57-.81,3.81-1.38,.62-.28,1.23-.59,1.86-.86,.63-.26,1.26-.51,1.9-.74,1.46-.5,2.86-1.16,4.33-1.63,1.46-.49,2.95-.94,4.48-1.24,1.3-.23,3.05-.59,4.43-1.51,.64-.43,2.15-.6,3.24-.88,.9-.25,1.72-.67,2.62-.88,.76-.17,1.57-.18,2.37-.2,.24-.01,.52-.06,.75-.13,2.17-.65,4.39-1.06,6.65-1.18l3.37-.25c1.12-.09,2.25-.11,3.38-.24,1.13-.11,2.27-.24,3.41-.3,1.15-.02,2.29-.05,3.44-.07,2.3-.08,4.6,.11,6.88,.21,1.26,.04,2.53,.23,3.69,.5,1.16,.27,2.2,.65,2.99,1.22,.71,.51,.65,.98-.42,1.16-.79,.13-1.69,.25-2.57,.22-1.41-.05-2.81-.07-4.18,0-1.42,.03-2.84,.13-4.26,.19-1.42,.13-2.85,.21-4.32,.11-.46-.03-.95,.02-1.43,.03-.47,.03-.93,.02-1.32-.17-.11-.05-.48-.06-.66-.02-1.93,.48-3.9,.63-5.89,.89-1.98,.22-4,.33-5.95,.74-3.35,.57-6.4,1.84-9.76,2.42-1.66,1.04-3.8,1.49-5.64,1.92-6.55,1.42-12.62,4.43-18.56,7.43-6.04,3.07-11.72,6.81-17.08,10.94-.9,.73-1.47,1.6-2.66,2.27-1.13,.62-2.27,1.82-3.34,2.82-.99,.91-1.9,1.98-2.85,2.79-3.98,3.37-6.7,8.1-7.66,12.95-.47,2.4-.38,4.91,.59,7,.95,2.08,2.84,3.71,5.02,4.93,2.71,1.49,5.76,2.45,8.73,3.54,.63,.24,1.32,.38,2,.56,.67,.2,1.33,.42,1.93,.82,.34,.24,1.68,.14,2.54,.3,2.16,.38,4.33,.75,6.52,1,3.05,.35,6.13,.58,9.22,.64,1.89,.03,3.76-.14,5.65-.18,1.98-.03,3.98-.05,5.96-.02,2.51,.02,5.01,.12,7.52,.06,2.6-.08,5.29-.49,7.79-.46,4.66,.05,9.23-.72,13.8-1.38,4.54-.66,9.08-1.5,13.51-2.67,2.51-.66,4.92-.84,7.36-1.56,1.13-.33,3.05,.42,2.7,.97-.07,.1-.23,.24-.41,.33-2.3,1.1-4.39,2.33-7.22,2.99-4.18,.99-8.39,1.89-12.62,2.62Z"/>
        </g>
        <g>
          <path class="cls-4" d="M131.2,88.39c7.92,17.24,12.67,35.94,13.93,54.87,.29,4.4,.35,9.04-1.68,12.95-2.38,4.58-7.19,7.33-11.91,9.45-17.43,7.81-37.2,10.28-56.01,7.01-2.53-.44-5.15-.98-7.62-.27-2.75,.79-4.84,2.99-6.67,5.19-3.49,4.21-6.55,8.76-9.12,13.58-.78,1.46-1.55,2.99-2.78,4.1-2.56,2.32-6.97,2.15-9.34-.36-2.37-2.51-2.28-6.93,.19-9.34,.96-.94,2.18-1.56,3.34-2.23,8.08-4.57,14.77-11.54,19-19.8-8.05,1.14-16.1,2.27-24.15,3.41-1.37,.19-2.82,.38-4.11-.12-2.83-1.1-3.19-2.3-3.43-5.33-.34-4.25,.11-4.58,2.09-6.74,1.37-1.5,2.08-2.76,6.15-1.51,1.63,.5,2-.03,3.18,1.76,.54,.82,1.52,1.23,2.45,1.55,6.03,2.07,12.62,2.46,18.84,1.12-1.68-2.53-3.37-5.05-5.05-7.58-.88-1.32-1.82-2.69-3.23-3.4-1.19-.6-2.58-.65-3.82-1.11-3.02-1.12-4.73-4.92-3.57-7.93,1.17-3.01,4.99-4.66,7.98-3.45,4.41,1.78,5.21,7.64,8.27,11.29,3.05,3.64,8.1,4.77,12.79,5.5,13.13,2.04,26.49,2.58,39.75,1.62-4.5-13.12-5.97-27.26-4.27-41.02"/>
          <path class="cls-3" d="M118.76,153.83c.02,.09,.07,.2,.08,.27l-.29,.02-.59,.04-1.18,.08-2.35,.15-3.05,.15c-1.86,.07-3.73,.12-5.59,.14-3.73,.04-7.46-.04-11.18-.21-2.78-.13-5.58-.57-8.5-.39-1.46,.08-4.07-.75-6.61-1.08-3.41-.47-6.96-.91-10.46-2.26-1.73-.68-3.45-1.62-4.91-2.94-1.5-1.32-2.55-3.02-3.39-4.59-.82-1.53-1.52-3.05-2.33-4.34-.8-1.3-1.73-2.32-2.83-2.82-1.04-.54-2.26-.51-3.41-.06-1.13,.44-2.07,1.33-2.45,2.31-.4,.97-.34,2.22,.17,3.32,.51,1.11,1.39,1.96,2.45,2.3,.6,.2,1.41,.33,2.37,.59,.95,.24,2.12,.82,2.9,1.53,.81,.7,1.41,1.46,1.94,2.17,.48,.67,.97,1.34,1.44,2,.82,1.12,1.58,2.23,2.32,3.35,.69,1.04,1.4,2.11,2.04,3.12l.9,1.49,.44,.74,.11,.18s-.13,.03-.19,.05l-.45,.08c-1.17,.21-2.33,.42-3.5,.63l-1.77,.24c-.28,.03-.63,.09-.84,.1l-.51,.04c-1.37,.1-2.74,.15-4.14,.14-2.96-.01-5.98-.39-8.9-1.16-.73-.2-1.45-.41-2.16-.66-.7-.24-1.53-.51-2.42-1.13-.44-.31-.89-.73-1.24-1.26l-.25-.38-.17-.23s-.07-.09-.12-.12c-.02-.01-.03-.02-.16-.05l-.55-.12c-2.29-.72-3.56-1.11-4.25-.46-.25,.2-.56,.53-.91,.92-.35,.38-.7,.73-.99,1.07-.62,.72-.78,1.02-.84,1.78-.06,.95,.12,2.17,.29,3.32,.09,.57,.2,1.11,.34,1.5,.15,.41,.26,.58,.47,.79,.19,.2,.57,.45,1.06,.68l.38,.17c.09,.03,.17,.07,.26,.09,.18,.05,.39,.09,.62,.1,.91,.06,2.13-.24,3.2-.65,.18-.07,1.31-.13,1.89-.14,2.75-.03,6.04-.52,8.26-1.08,2.17-.54,4.11-.78,6.15-1.08l6.17-.89c1.39-.2,2.65-.3,3.98-.46l.99-.11s.12-.03,.09,0l-.06,.11-.12,.22-.24,.45-.97,1.8c-.64,1.18-1.28,2.39-1.93,3.51l-.99,1.61-.48,.77-.32,.46c-.83,1.23-1.73,2.41-2.68,3.55-2.85,3.42-6.21,6.3-9.82,8.84-.94,.66-1.92,1.31-2.91,1.94-.99,.61-2.07,1.24-2.93,1.74-.87,.53-1.53,1.04-1.94,1.6-.45,.57-.77,1.28-.94,2.01-.39,1.49-.02,3.16,.92,4.23,.92,1.08,2.52,1.65,4.07,1.56,.88-.05,1.84-.27,2.56-.78,.71-.46,1.24-1.29,1.44-2.11,.04-.15,.43-.8,.65-1.12,3.67-5.48,6.51-11.43,11.21-16.5,1.27-1.3,2.74-2.62,4.62-3.53,.93-.44,1.98-.78,3.01-.92,1.03-.15,2.04-.16,3-.09,1.93,.13,3.64,.53,5.3,.74l2.52,.36,2.52,.28c.89,.12,1.82,.2,2.73,.27,.91,.07,1.81,.07,2.65-.1,.59-.12,2.47-.03,3.38,.05,4.98,.6,10.26-.08,15.32-.76,5.81-.74,11.43-2.41,17.14-3.93,1.22-.29,2.61-.8,4.05-1.35,1.42-.6,2.87-1.32,4.11-2.16,1.14-.76,3.74-1.81,5.36-3.04,1.35-.98,2.36-2.19,3.32-3.36,.81-1,1.62-1.99,2.19-3.21,.16-.36,.32-.83,.39-1.22,.72-3.78,.38-7.98,.13-12.29-.27-4.28-.67-8.58-1.48-12.84-1.62-8.55-3.77-17.12-6.6-25.4-1.55-4.57-3.31-9.2-3.79-12.61-.2-1.54,.22-1.75,1.32,.04,.82,1.31,1.68,2.85,2.4,4.45,1.13,2.57,2.24,5.15,3.21,7.7,2.01,5.31,4.03,10.63,5.14,16.46,.32,1.81,1.04,3.86,.88,5.44-.02,.22,.09,.96,.19,1.31,1.04,3.79,1.68,7.76,2.1,11.77,.21,2,.35,4.02,.47,6.03,.12,2.01,.2,4.07,.1,6.15-.09,1.77-.3,3.57-.79,5.35-.49,1.77-1.31,3.52-2.41,5.02-2.2,3.05-5.29,5.15-8.48,6.67-3.24,2.26-7.46,3.81-11.18,4.91-13.06,3.83-26.76,5.9-40.37,4.64-1.72-.13-3.43-.38-5.15-.59-1.69-.26-3.46-.54-5.05-.82-1.59-.25-3.1-.39-4.4-.12-1.28,.24-2.47,.93-3.6,1.9-1.13,.97-2.16,2.19-3.21,3.49-1.04,1.29-2.04,2.61-3,3.95-1.92,2.7-3.67,5.51-5.25,8.42-.54,.98-.98,2.04-1.69,3.15-.36,.55-.79,1.12-1.37,1.66-.59,.53-1.31,1.04-2.13,1.34-1.54,.61-3.38,.9-5.25,.62-1.86-.25-3.79-1.18-5.06-2.7-2.36-2.76-2.64-6.86-.96-9.72,.43-.74,.99-1.42,1.62-1.99,.62-.55,1.29-.98,1.92-1.35,1.29-.71,2.37-1.25,3.48-1.92,2.2-1.32,4.28-2.87,6.21-4.58,1.93-1.71,3.7-3.6,5.31-5.62,.81-1,1.57-2.05,2.29-3.11l.27-.4,.14-.22,.24-.38,.35-.57,.16-.28,.08-.14s.08-.11,0-.08l-.61,.08-2.21,.29-7.88,1.09c-2.62,.38-5.25,.75-7.87,1.13-1.34,.18-2.54,.42-4.05,.55-.75,.05-1.58,.05-2.45-.16-.22-.05-.43-.12-.65-.19l-.54-.21c-.35-.15-.71-.31-1.07-.52-.44-.26-.9-.57-1.32-1-.42-.43-.76-.96-.99-1.48-.45-1.06-.55-1.98-.67-2.83-.1-.85-.18-1.65-.22-2.54-.03-.87-.05-1.87,.33-3.04,.42-1.19,1.16-2,1.69-2.61l.79-.9c.26-.3,.57-.66,.99-1.04,.41-.38,.98-.76,1.61-1,.63-.25,1.26-.31,1.83-.33,1.13,0,2.05,.22,2.93,.47l.53,.16c.12,.04,.25,.07,.37,.1,.27,.06,.51,.06,1.2,.23,.62,.17,1.19,.51,1.65,.96,.46,.46,.69,.8,.93,1.15,.09,.13,.12,.16,.26,.28,.12,.1,.31,.22,.54,.35,.45,.25,1.12,.52,1.69,.85,.67,.37,3.15,.62,4.82,.82,2.08,.29,4.18,.4,6.28,.33,.52-.03,1.05-.05,1.57-.1l.86-.08,.29-.04c.08-.03,.27,0,.14-.12l-3.72-5.59c-.82-1.21-1.59-2.06-2.47-2.36-.5-.19-1.18-.31-2.01-.5-.41-.1-.86-.21-1.34-.39l-.72-.31-.67-.38c-2.1-1.38-3.47-3.55-3.83-5.99-.18-1.22-.09-2.53,.35-3.77,.45-1.24,1.23-2.32,2.18-3.15,.99-.88,2.17-1.5,3.44-1.85,1.26-.36,2.64-.43,4-.12,2.75,.63,4.72,2.65,5.88,4.54,1.51,2.42,2.3,4.77,3.44,6.66,.56,.95,1.17,1.71,1.95,2.4,.78,.68,1.69,1.26,2.69,1.73,2.09,.98,4.55,1.48,7.05,1.87,2.55,.38,5.07,.76,7.48,1.12,8.99,1.47,18.13,1.59,27.2,1.26l2.72-.12,.56-.03c.15,.03,.05-.1,.04-.18l-.08-.26-.69-2.34c-.31-1.12-.61-2.24-.88-3.36-1.09-4.51-1.89-9.08-2.35-13.68-.54-5.24-.14-10.04,.2-15.13,.15-2.4,1.81-5.42,2.12-4.4,.06,.19,.11,.59,.1,.97-.14,4.93,.32,9.42,.56,14.97,.2,4.1,.69,8.2,1.48,12.24,.41,2.02,.85,4.03,1.39,6.01,.25,1,.55,1.98,.85,2.97l.11,.37,.2,.65,.41,1.27,.82,2.54Z"/>
        </g>
        <g>
          <path class="cls-4" d="M217.9,135.16c21.17-2.36,42.48-3.53,63.79-3.51,11.78,.01,24.51,.71,33.68,8.11,3.32,2.68,6.15,6.62,5.73,10.87-.4,4.07-3.63,7.26-6.95,9.65-8.71,6.27-19.21,9.57-29.71,11.81-29.11,6.22-59.35,5.09-88.65,10.35-.61,.11-1.24,.23-1.72,.62-.57,.47-.81,1.23-1.01,1.94-1.49,5.19-2.98,10.38-4.46,15.57,2.05,1.93,2.32,5.32,.97,7.79-1.35,2.47-4.04,4.03-6.82,4.47-2.45,.38-5.32-.23-6.58-2.37-2.18-3.67,1.75-7.75,4-11.39,1.71-2.78,2.49-6.01,3.24-9.19-7.67,1.97-14.85,5.81-20.75,11.09-.88,.79-1.76,1.65-2.11,2.78-.29,.92-.2,1.92-.45,2.85-.75,2.73-4.02,3.76-6.79,4.35-2.37,.5-5.35,.78-6.71-1.22-1.79-2.63,1.13-5.87,3.73-7.7,7.9-5.56,15.8-11.12,23.71-16.68-4.49-1.91-9.02,2.39-13.72,3.69-5.03,1.4-10.77-.7-15.47,1.59-2.23,1.08-4.42,3.15-6.79,2.43-.99-.3-1.78-1.07-2.32-1.95-2.14-3.53,.46-8.88,4.56-9.38,2.08-.25,4.13,.55,6.22,.74,3.17,.29,6.28-.83,9.25-1.97,8.3-3.19,16.48-6.7,24.53-10.5"/>
          <path class="cls-3" d="M138.97,183.86c-1.24,.75-2.17,2.24-2.37,3.74-.11,.75-.03,1.49,.22,2.13,.24,.62,.72,1.26,1.2,1.56,.48,.3,.96,.38,1.62,.21,.66-.16,1.44-.59,2.27-1.08,.83-.49,1.73-1.1,2.84-1.54,1.07-.44,2.2-.73,3.29-.87,3.27-.44,6.36,.26,9.18-.4,.69-.17,1.65-.19,2.7-.38,1.06-.19,2.33-.62,3.53-1.22,1.52-.76,3.11-1.61,4.95-2.22,.94-.29,1.94-.51,3.01-.55,1.08-.01,2.19,.2,3.21,.61l2.72,1.1-2.42,1.71c-3.26,2.3-6.52,4.6-9.77,6.89-2.94,2.13-5.87,4.25-8.8,6.37l-4.39,3.19c-.38,.27-.73,.53-1.03,.76-.31,.25-.62,.51-.9,.78-.57,.54-1.09,1.12-1.46,1.7-.37,.57-.62,1.15-.61,1.53-.01,.2,.02,.34,.08,.5,.07,.16,.17,.35,.3,.46,.23,.25,.69,.45,1.34,.53,.65,.08,1.42,.04,2.21-.08,1.61-.26,3.34-.68,4.57-1.33,.63-.32,1.1-.73,1.39-1.13,.12-.21,.24-.41,.29-.63,.07-.21,.09-.46,.12-.85,.04-.63,.04-1.69,.51-2.79,.44-1.04,1.1-1.79,1.69-2.39,.61-.61,1.16-1.05,1.73-1.53,.57-.47,1.15-.93,1.74-1.36,2.35-1.76,4.82-3.27,7.42-4.73,1.8-1.01,3.68-1.91,5.62-2.69l1.46-.56,2.43-.8c1.74-.49,3.5-.98,5.25-1.44-.48,1.95-.92,3.84-1.42,5.72-.59,2.14-.83,2.75-1.29,3.88-.45,1.08-.99,2.15-1.65,3.16-.64,.99-1.31,1.86-1.93,2.73-1.23,1.7-2.41,3.46-2.61,5.04-.06,.25,0,.46-.02,.68,.06,.2,.05,.42,.15,.6,.04,.09,.07,.19,.11,.28l.16,.27c.1,.19,.23,.32,.37,.46,.54,.53,1.43,.88,2.53,1.04,1.02,.16,2.2,.08,3.32-.3,1.1-.37,2.06-1.03,2.53-1.82,.09-.12,.78-.69,1.07-1.03,.74-.75,1.17-1.95,1.08-3.13-.04-.58-.2-1.12-.43-1.56-.12-.22-.26-.41-.4-.58-.39-.42-.86-.89-1.3-1.29-.03-.03-.06-.05-.08-.08,.23-.96,.45-1.88,.66-2.79,.13-.55,.26-1.09,.4-1.62,.3-1.06,.59-2.1,.88-3.16,.83-2.95,1.67-5.9,2.5-8.85,.1-.35,.21-.76,.4-1.27,.1-.26,.21-.52,.38-.84,.19-.33,.41-.64,.67-.92,.51-.56,1.21-.96,1.9-1.18,.6-.19,1.07-.26,1.44-.33l4.58-.73c4.59-.67,9.16-1.06,13.75-1.5,4.78-.48,9.87-1.15,14.3-1.26,4.45-.1,8.67-.43,13-.77,2.46-.19,5.35-.17,7.32-.89,.18-.07,1.1-.14,1.53-.13,7.06,.09,13.82-1.54,20.84-2.4,1.81-.2,3.63-.48,5.44-.78,1.82-.28,3.63-.63,5.45-1.01,3.63-.71,7.23-1.59,10.75-2.6,1.88-.53,3.91-1.03,5.46-2,.55-.33,2.44-1.06,3.38-1.35,2.57-.77,5.08-1.92,7.45-3.3,2.35-1.4,4.69-2.98,6.62-4.67,2.21-1.94,3.8-4.39,3.8-6.9,.05-2.52-1.38-5.13-3.31-7.37-1.59-1.92-4.64-4.09-7.69-4.89-1.36-.43-4.09-1.66-6.32-2.14-1.82-.42-3.64-.52-5.47-.77-1.56-.21-3.12-.58-4.74-.79-.48-.06-1.07-.12-1.55-.11-4.62,.02-9.28,.02-13.98-.05-4.69-.06-9.39-.12-14.11,.12-9.49,.48-19.09,.98-28.61,1.69-5.25,.4-10.65,.77-14.32,.2-1.65-.27-1.71-.73,.49-1.25,1.62-.39,3.48-.77,5.35-1.01,3-.38,5.99-.76,8.91-1.09,6.08-.67,12.11-1.53,18.46-1.61,1.97-.03,4.27-.38,5.92-.02,.23,.05,1.04,.05,1.42,0,8.41-.99,17.18-.7,25.81-.65,3.68,.04,7.33,.1,11.01,.47,3.67,.37,7.4,1.08,10.98,2.58,2.09,.48,4.28,1.4,6.3,2.65,1.03,.6,1.97,1.34,2.89,2.06,.92,.76,1.76,1.6,2.5,2.47,1.3,1.54,2.44,3.27,3.16,5.29,.74,1.99,.95,4.31,.43,6.44-.5,2.15-1.63,4-2.93,5.53-1.3,1.54-2.79,2.81-4.32,3.94-6.07,4.44-12.96,7.53-20,9.64-7.16,2.14-14.43,3.57-21.72,4.73-7.3,1.15-14.63,1.95-21.95,2.59-2.49,.21-4.62,.71-7.55,.7-2.76,0-6.29,.45-9.48,.69-2.92,.23-5.97,.58-8.73,.68-5.71,.2-11.43,.68-17.12,1.41-1.43,.17-2.84,.37-4.26,.58-1.42,.22-2.84,.39-4.25,.65l-4.23,.72c-.36,.06-.66,.12-.86,.18-.17,.05-.23,.09-.32,.17-.09,.1-.11,.12-.22,.34-.09,.21-.18,.49-.28,.83-1.42,4.9-2.85,9.81-4.27,14.71,.04,.05,.09,.09,.13,.14l.06,.08,.03,.04,.1,.15c.27,.4,.5,.83,.68,1.27,.37,.88,.56,1.8,.61,2.72,.11,1.83-.41,3.73-1.46,5.24-1.02,1.51-2.45,2.67-4.01,3.44-1.57,.77-3.26,1.22-5.06,1.25-1.03,0-2.08-.12-3.11-.47-1.03-.34-2.07-.93-2.89-1.83-.82-.91-1.33-2.02-1.53-3.23-.19-1.21,0-2.38,.32-3.39,.68-2,1.73-3.57,2.71-5.04l1.43-2.13c.45-.69,.81-1.33,1.16-2.06,.24-.51,.46-1.05,.64-1.61,.1-.28,.18-.56,.27-.85l.13-.43,.04-.16c.06-.26,.09-.37,.31-.8-.03-.05-.08-.1-.15-.17-.09-.05-.34,.09-.77,.32l-.14,.08-.07,.04-.18,.08-.72,.33c-.48,.21-.95,.44-1.37,.62-4.23,1.81-8.26,4.16-11.83,7.08-1.2,1-2.63,2.14-3.1,2.97-.12,.22-.19,.38-.24,.61-.05,.24-.09,.59-.13,1.02-.04,.43-.09,.96-.25,1.55-.18,.58-.41,1.15-.75,1.65-.66,1.02-1.56,1.76-2.44,2.28-.89,.53-1.79,.88-2.68,1.17-.89,.28-1.75,.49-2.62,.67-.88,.18-1.81,.32-2.8,.36-1.2,.02-2.57-.04-3.97-.82-1.41-.79-2.43-2.24-2.64-3.94-.16-1.7,.44-3.12,1.1-4.19,.68-1.09,1.48-1.98,2.34-2.77,.45-.41,.92-.8,1.41-1.15l1.32-.95,2.61-1.85c1.75-1.22,3.51-2.44,5.25-3.65,4.46-3.02,8.9-6.02,13.36-9.04,.51-.35,1.01-.71,1.53-1.07l.35,3.29c-.8-.34-1.65-.39-2.62-.21-.97,.18-2.01,.6-3.07,1.09-2.14,.98-4.39,2.32-7.08,2.92-2.83,.6-5.47,.34-7.91,.25-2.44-.11-4.76-.08-6.67,.74-.95,.37-1.93,1.07-3.1,1.72-.59,.33-1.23,.66-1.98,.9-.74,.24-1.64,.38-2.54,.25-.89-.12-1.78-.54-2.44-1.07-.67-.54-1.18-1.17-1.57-1.86-.81-1.42-1.06-3.08-.84-4.6,.22-1.51,.83-2.92,1.74-4.11,.92-1.19,2.21-2.17,3.74-2.64,1.59-.49,3.08-.3,4.38-.09,1.3,.23,2.45,.53,3.5,.6,2.12,.16,4.36-.42,6.59-1.23,2.24-.83,4.55-1.77,6.8-2.7,5.13-2.13,9.96-3.74,14.91-5.99,2.31-1.05,5.94-1.38,5.18-.54-.15,.16-.49,.42-.85,.62-4.68,2.63-8.94,5.2-14.65,7.53l-6.34,2.52c-2.12,.81-4.22,1.7-6.57,2.33-1.17,.31-2.4,.54-3.68,.61-1.27,.08-2.63-.09-3.76-.32-1.15-.22-2.19-.46-3.1-.48-.94-.03-1.63,.14-2.35,.56Z"/>
        </g>
        <path class="cls-3" d="M255.38,164.29l-3.96,.81c-.49,.11-1.03-.02-1.47,.52-.22,.27-.79-.19-1.24-.09-1.23,.25-2.49,.37-3.73,.56-1.2,.17-2.39,.47-3.59,.64-1.2,.17-2.46,.04-3.59,.42-.98,.33-1.92,0-2.87,.19-1.01,.21-2.05,.38-3.06,.25-.73-.09-1.46-.22-2.17-.07-.44,.09-.84,.4-1.33,.42-.45,.02-.99-.17-1.34,.39-.03,.05-.24-.03-.35-.1-.52-.31-1.11-.24-1.5,.03-.38,.26-.73,.26-1.1,.3-1.01,.11-2.03,.21-3.05,.24-.76,.02-1.54-.12-2.3-.11-.8,0-1.63,.32-2.38,.12-.76-.2-1.46-.13-2.18-.07-.41,.03-.91-.18-1.2,.39-.03,.05-.18,.06-.26,.02-1.22-.61-2.3,.4-3.5,.32-1.24-.09-2.49,.13-3.73,.24-.33,.03-.7-.11-.98,.3-.1,.15-.45,.18-.62,.09-.95-.48-1.91-.1-2.86-.14-1.09-.05-2.16,.25-3.27-.13-.47-.16-1.1-.24-1.64,.28-.25,.24-.79,.02-1.18,.08-.33,.05-.64,.28-.97,.29-.28,0-.56-.19-.84-.28-.08-.03-.19-.03-.27,0-1.6,.56-3.18-.21-4.78-.13-1.62,.1-3.26-.07-4.87-.3-.89-.11-1.8-.39-2.28-1.42-.22-.47-.16-.94,.24-1.18,.3-.18,.63-.33,.94-.35,.5-.03,1.01-.09,1.49-.14,1.01-.07,2.03-.46,3.05-.16,.32,.1,.71-.15,.95,.3,.03,.06,.17,.1,.23,.07,1.41-.61,2.82-.14,4.24-.18,1.2-.03,2.35-.59,3.57-.38,.65-.55,1.43-.48,2.11-.34,2.39,.49,4.77-.03,7.15-.11,2.42-.08,4.85-.35,7.28-.51,.41-.03,.75-.36,1.25-.16,.47,.19,1.05-.04,1.58-.08,.49-.04,.99-.19,1.46-.1,1.94,.41,3.84-.08,5.75-.17,1.91-.09,3.82-.19,5.7-.48,1.15-.18,2.28-.56,3.45-.54,.5,0,1-.32,1.53,.14,.15,.13,.58-.3,.89-.35,.78-.12,1.58-.17,2.36-.24,1.1-.11,2.2-.17,3.28-.33,.66-.1,1.3-.37,1.96-.48,.69-.12,1.4-.19,2.1-.2,.9-.01,1.79,.07,2.67-.01,.91-.08,1.82-.45,2.72-.36,1.68,.17,3.25-.35,4.85-.64,1.59-.28,3.19-.61,4.73-1.11,.87-.28,1.79-.08,2.66-.32,.4-.11,1.29,.95,1.24,1.41,0,.09-.05,.19-.11,.24-.75,.62-1.39,1.44-2.41,1.66l-4.47,1.04Z"/>
        <path class="cls-3" d="M144.57,39.28c.59,.04,1.07,.09,1.55,.04,.08,0,.17-.27,.26-.26,.37,.03,.77-.2,1.12,.11,.38,.34,.78,.38,1.16,.18,.36-.19,.71-.13,1.07-.18,.12-.02,.24-.07,.36,.23,.09,.22,.27,.25,.4-.14,.03-.07,.08,0,.12,.04,.04,.04,.09,.2,.12,.15,.35-.59,.71-.14,1.07-.29,.09-.04,.19,.14,.26-.25,.02-.1,.1-.12,.13-.02,.07,.24,.14,.29,.22,.29,.36-.02,.73,0,1.09-.02,.17-.51,.37-.29,.57-.29,.14,0,.29,.17,.43,.27,.15,.1,.29-.23,.44,.21,.02,.07,.08-.06,.12-.07,.18-.04,.37-.21,.54-.04,.09,.08,.18,.16,.27,.16,1.13-.03,2.26-.06,3.39-.13,.1,0,.19,.05,.29-.25,.07-.23,.25-.25,.34-.03,.14,.36,.26,.21,.38,.22,.23,.03,.45-.04,.67-.01,.13,.02,.27-.25,.41,.26,.01,.05,.06,.05,.07,0,.12-.5,.29-.1,.44-.04,.11,.04,.22,.03,.32-.22,.1-.24,.29-.29,.41-.05,.16,.33,.28,.21,.42,.2,.78-.03,1.56-.06,2.33-.15,.37-.04,.69-.52,1.08-.37,.09,.04,.17-.16,.28,.19,.02,.07,.09,.02,.11-.07,.08-.32,.19-.21,.3-.2,.52,.03,1.06,.17,1.54-.17,.37-.27,.77-.2,1.15-.31,.13-.04,.28,.19,.42,.23,.13,.04,.26,0,.39-.03,.08-.02,.16,.07,.21-.22,.03-.16,.13-.21,.19-.09,.19,.4,.34,.22,.49,.22,.45-.02,.89-.1,1.34-.12,.11,0,.21-.23,.35,.2,.02,.06,.07-.09,.1-.13,.04-.05,.08-.18,.12-.12,.35,.53,.62,.17,.92,.16,.72-.03,1.43-.19,2.15-.2,.2,0,.33-.4,.53-.4,.19,0,.37-.07,.56-.06,.14,0,.25-.21,.43,.22,.05,.12,.14,.1,.17-.02,.09-.45,.28-.25,.43-.33,.18-.1,.41,.15,.54-.34,.03-.13,.16,.1,.24,.11,.14,.02,.27,.01,.4-.03,.06-.02,.1-.19,.17-.21,.48-.18,.95-.37,1.44-.49,.49-.11,1-.16,1.5-.23,.5-.07,1-.18,1.5-.2,.19,0,.34-.39,.61,.18,.12-.39,.3-.19,.52,.19,.03,.05,.06-.12,.09-.18,.1-.18,.13-.8,.37-.17,0,.02,.02,0,.03,0,.13,.07,.1-.6,.32-.23,.13,.23,.26,.1,.39,.11,.12,0,.28,.01,.41-.06,.14-.07,.33,.22,.42-.29,.02-.08,.16,.25,.22,.22,.33-.16,.67,.28,.94-.32,.06-.14,.18-.13,.26,0,.28,.42,.52,.19,.8,.02,.35-.22,.74-.29,1.08,.34,.07,.13,.1,.24,.18,.02,.05-.15,.13-.11,.2-.11,.77-.01,1.53,.03,2.3,.04,.21,0,.39,.49,.61,.31,.09-.07,.18,.18,.27-.23,.01-.06,.05-.09,.06-.06,.24,.48,.51-.18,.76,.02,.05,.04,.1,.14,.15,.19,.05,.05,.11,.17,.16,.1,.41-.56,.8-.11,1.19-.24,.14-.04,.27,.22,.41-.26,.02-.07,.08-.06,.1,0,.2,.6,.48,.16,.71,.32,.12,.08,.27-.23,.36,.26,.01,.06,.06,.02,.09-.02,.06-.06,.11-.22,.16-.2,.14,.03,.28,.31,.41,.15,.16-.19,.3-.1,.45-.11,.08,0,.16,.22,.24,.28,.08,.05,.16,.02,.25,.02,.12,0,.25-.07,.35,.04,.11,.12,.23-.39,.34-.04,.09,.27,.22-.19,.33-.24,.06-.02,.11,.04,.16,.09,.04,.04,.07,.21,.11,.19,.09-.02,.17,.07,.28-.14,.07-.15,.18,.13,.27,.17,.09,.04,.19,.02,.28,.02,.09,0,.19,.11,.28,0,.4-.49,.77-.17,1.15-.21,.1-.01,.22-.18,.28,.25,.01,.08,.07,.09,.1,.04,.39-.59,.74-.09,1.12-.25,.27-.11,.53-.33,.8-.27,.26,.06,.52,.19,.78,0,.21-.16,.42-.31,.62-.19,.19,.12,.42-.74,.58,0,.2,0,.4,0,.6,.03,.17,.03,.35-.15,.49,.28,.05,.16,.17,.15,.24,.01,.23-.44,.42-.31,.63-.07,.05,.06,.12-.16,.18-.16,.18-.02,.36-.05,.53,.02,.52,.21,1.04-.29,1.56-.28,.1,0,.21-.34,.29-.25,.5,.56,1.04,0,1.54,.33,.74,.48,1.5,.14,2.24,.25,.1,.01,.2,.38,.25,.27,.14-.33,.3-.06,.42-.3,.21-.45,.42-.15,.63-.27,.15-.08,.32,.21,.45-.3,.02-.07,.07-.06,.1,0,.24,.47,.43-.24,.65-.04,.38-.59,.81-.23,1.21-.37,.06-.02,.11-.15,.16-.22,.03-.04,.05-.12,.08-.08,.39,.55,.7,.05,1.06,.17,.11,.04,.28,.2,.37,.23,.1,.04,.14-.13,.31,.21,.05,.11,.09,.04,.12-.02,.12-.28,.53,.44,.99,1.63,.16,.43,.11,.47,.09,.65-.02,.35-.11,.59-.29,.6-.14,0-.31-.1-.34,.36,0,.08-.07,.08-.12,.03-.32-.32-.49,0-.74-.24-.19-.19-.32-.11-.48-.18-.13-.06-.24,.19-.4-.19-.05-.13-.14,.23-.23,.26-.2,.06-.4,.09-.61,.04-.62-.15-1.2,.56-1.83,.4-.42,.58-.9,.07-1.33,.36-.53,.35-1.06,.16-1.59,.31-.11,.03-.2,.02-.29-.13-.06-.1-.13-.2-.19-.2-.25-.02-.5,.02-.75-.03-.13-.03-.29,.26-.4-.28-.02-.07-.08-.07-.1,0-.23,.53-.46,.2-.69,.26-.09,.02-.17,0-.26-.19-.1-.21-.26-.19-.37,0-.08,.14-.16,.15-.24,.19-.33,.17-.65-.38-.98,.26-.15-.57-.36-.39-.53-.26-.66,.5-1.29,.1-1.94,.18-.16,.02-.3-.23-.46-.28-.16-.06-.33-.04-.5-.02-.09,0-.18-.18-.27,.23,0,.03-.02,.05-.03,.04-.09-.07-.18-.23-.28-.2-.08,.02-.17,.3-.26,.37-.1,.08-.21,.09-.31,.09-.1,0-.21,.09-.28-.28-.1,.45-.2,.22-.3,.25-.1,.03-.19,0-.28,0h-.32c-.11-.02-.21-.06-.32-.02-.15,.06-.3,.22-.44,.26-.16,.04-.31,.04-.46-.02-.19-.07-.37-.22-.56-.31-.08-.04-.15,.07-.24,.23-.11,.21-.26,.68-.37,.05-.02-.12-.12-.09-.17-.01-.44,.62-.84,.07-1.26,.23-.21-.48-.44-.2-.69-.08-.36,.18-.73,.24-1.06-.06-.35-.31-.71-.16-1.06-.28-.1-.04-.21,.14-.28-.29-.02-.1-.09-.07-.14-.01-.31,.43-.58,.29-.87,0-.15-.16-.33,.01-.51,.17-.27,.24-.54,.04-.81,.03-.1-.53-.21,0-.28,.23-.09,.3-.17,.35-.26,.35-.12,0-.24-.09-.37,.24-.07,.17-.2,.12-.26-.06-.08-.25-.12-.14-.2,.02-.1,.19-.19-.3-.31-.28-.13,.02-.29,.28-.38-.27,0-.05-.05-.04-.07,0-.25,.55-.47-.26-.71-.02-.7-.65-1.42-.13-2.12-.35-.29-.09-.59-.5-.87-.25-.56,.55-1.19,.18-1.71,.32-.11,.03-.2,.29-.36-.23-.02-.07-.07-.06-.09,0-.11,.5-.25,.35-.51,.06-.06-.07-.15-.05-.16,.08-.02,.37-.14,.24-.23,.25-.11,0-.3-.29-.33-.1-.07,.41-.22-.01-.33-.07-.07-.03-.12,.08-.18,.15-.03,.03-.04,.2-.06,.16-.28-.41-.38,.26-.61,.11-.05-.03-.1-.02-.15-.06-.57-.51-.57-.52-1.14-.13-.26-.62-.32,.36-.57-.11-.09-.17-.21-.11-.28,.03-.28,.62-.72,.23-1.06,.44-.07,.04-.19-.38-.24-.02-.02,.14-.2-.23-.28-.2-.12,.04-.28-.18-.34,.26-.03,.18-.15,.06-.23,.1-.1,.06-.24-.08-.3,.28-.04,.2-.18,.22-.27,.07-.38-.65-.56,0-.8,.28-.07,.08-.12,.16-.22,.06-.14-.13-.32-.31-.38-.09-.12,.38-.29,.25-.44,.29-.27,.07-.55,.04-.82,.12-.3,.1-.63-.04-.91,.34-.15,.21-.35,.4-.6-.15-.03-.06-.06,.27-.11,.27-.39,.07-.78,.13-1.18,.13-.09,0-.25-.55-.29-.09-.04,.49-.24-.45-.25,.14,0,.09-.08,.09-.13,.03-.53-.55-.95-.03-1.43-.14-.12-.03-.22,.22-.36-.26-.23,.57-.65-.51-.84,.38-.22-.12-.39,.35-.64-.21-.04-.09-.1,.06-.14-.02-.15-.28-.14,.61-.34,.17-.11-.25-.26-.09-.39-.09-.12,0-.24,.02-.36,.03l-.39,.04c-.13,.01-.27-.01-.39,.04-.26,.11-.48,.49-.77,.37-.03-.01-.07,.06-.08,.15-.03,.76-.2,.35-.31,.14-.09-.18-.16-.26-.25-.25-.23,.03-.45,.07-.68,.04-.14-.02-.26,.24-.42-.23-.05-.14-.16-.1-.21,0-.25,.52-.56,.25-.84,.34-.13,.04-.26,.04-.39,.03-.1,0-.18,.33-.3,.02-.44,.64-.97,.27-1.46,.38-.49,.1-.98,.1-1.47,.1-.12,0-.25,.25-.38-.25-.03-.09-.11-.08-.13,.02-.06,.28-.1,.42-.2,.06-.02-.07-.08,.01-.11,.09-.09,.2-.18,.19-.29,0-.09-.14-.2-.22-.28-.11-.2,.29-.39,.55-.63,.03-.03-.06-.09,.28-.13,.26-.19-.06-.36,.23-.56-.17-.08-.16-.19-.03-.28-.07-.16-.07-.3,.21-.48,.06-.18-.15-.36-.02-.54-.02l-.54,.02-.54,.02-.54,.02h-.54s-.54,.02-.54,.02c-.13,0-.24-.06-.37-.25-.33-.5-.72-.43-1.2-.01-.03,.03-.07,0-.11,0-.47,.01-.94,.1-1.4-.03-.2-.06-.41-.29-.62-.25-.14,.03-.27-.05-.41,.27-.11,.26-.27-.19-.41,.28-.05,.17-.18,.16-.24,.02-.21-.47-.44-.23-.66-.27-.25-.05-.5-.04-.76-.01-.12,.01-.25-.15-.38,.24-.07,.19-.21,.06-.3-.11-.14-.25-.28-.21-.41-.1-.29,.22-.29,.27-.56-.03-.03-.04-.07-.04-.1-.04-.35-.02-.7-.21-1.05,.01-.29,.19-.57,.19-.85,.19-.11,0-.25,.22-.32-.28,0-.07-.07-.07-.1,0-.26,.53-.5,.22-.75,.22-.24,0-.48,.42-.72,.3-.22-.12-.46-.05-.69-.07-.35-.03-.4-.33-.29-1.69,.09-1.13,.19-1.36,.48-1.58,.61-.47,1.16-.05,1.64-.17Z"/>
        <path class="cls-3" d="M41.28,81.66c.26,.19,.46,.38,.71,.47,.04,.02,.23-.17,.27-.14,.16,.14,.47,.06,.46,.42-.01,.4,.15,.56,.43,.5,.27-.05,.39,.11,.6,.16,.07,.02,.15,0,.05,.29-.07,.21,0,.28,.26,0,.05-.06,.03,.03,.03,.07,0,.04-.07,.2-.02,.16,.48-.39,.41,.08,.65,.07,.06,0,.01,.17,.26-.14,.06-.08,.11-.07,.07,.02-.1,.22-.09,.29-.05,.31,.18,.09,.34,.2,.51,.31,.34-.38,.32-.13,.41-.07,.06,.04,.04,.24,.06,.36,.02,.13,.25-.11,.09,.32-.02,.07,.07-.03,.09-.03,.1,.02,.27-.06,.27,.13,0,.1,0,.19,.04,.21,.54,.3,1.1,.58,1.65,.86,.05,.02,.07,.1,.25-.13,.14-.18,.23-.15,.17,.08-.1,.36,.02,.26,.07,.31,.09,.09,.23,.1,.32,.19,.05,.06,.24-.14,.07,.35-.02,.05,0,.06,.03,.02,.28-.4,.18,0,.22,.09,.03,.07,.09,.08,.25-.11,.16-.19,.27-.18,.22,.07-.07,.34,.04,.27,.11,.3,.38,.2,.77,.38,1.18,.52,.19,.07,.55-.27,.67-.02,.03,.06,.15-.1,.06,.25-.02,.07,.03,.05,.08-.03,.17-.27,.17-.14,.23-.1,.23,.19,.45,.44,.81,.26,.29-.15,.45,.02,.68,.02,.08,0,.06,.25,.11,.32,.05,.07,.13,.07,.2,.08,.04,0,.05,.11,.18-.14,.07-.14,.14-.16,.12-.03-.06,.42,.08,.3,.16,.34,.22,.1,.47,.16,.69,.27,.06,.03,.18-.15,.1,.28-.01,.06,.07-.06,.1-.1,.04-.04,.1-.15,.1-.08-.02,.58,.24,.32,.39,.39,.37,.16,.77,.19,1.13,.37,.1,.05,.29-.28,.39-.23,.09,.05,.2,.04,.3,.1,.06,.04,.19-.13,.14,.32-.01,.12,.04,.13,.09,.03,.19-.4,.22-.16,.32-.2,.12-.06,.16,.24,.37-.19,.06-.12,.05,.14,.09,.16,.06,.05,.13,.08,.21,.08,.04,0,.11-.15,.15-.16,.29-.05,.58-.12,.86-.11,.28,.01,.54,.11,.81,.17,.27,.06,.54,.08,.81,.18,.1,.04,.27-.29,.26,.33,.16-.34,.2-.11,.21,.31,0,.06,.06-.11,.09-.15,.1-.14,.27-.73,.23-.07,0,.02,.01,0,.02,0,.05,.1,.21-.55,.22-.14,0,.26,.11,.17,.17,.2,.07,.03,.13,.07,.21,.03,.08-.05,.11,.27,.26-.21,.02-.08,.02,.27,.06,.26,.18-.09,.28,.39,.52-.17,.06-.13,.11-.1,.13,.02,.08,.44,.24,.24,.41,.1,.22-.19,.43-.24,.53,.4,.02,.14,.03,.24,.09,.03,.04-.14,.09-.1,.12-.1l1.23,.15c.11,.01,.17,.51,.3,.34,.06-.07,.09,.18,.17-.22,.01-.06,.03-.09,.04-.05,.09,.48,.3-.17,.41,.03,.03,.04,.05,.14,.07,.19,.03,.05,.05,.17,.08,.11,.26-.55,.44-.1,.67-.23,.08-.04,.14,.23,.24-.26,.02-.07,.05-.06,.06,0,.08,.6,.25,.16,.37,.32,.06,.08,.16-.23,.18,.26,0,.06,.03,.02,.05-.02,.03-.06,.07-.22,.1-.2,.08,.03,.14,.31,.22,.15,.1-.19,.17-.11,.25-.12,.05,0,.08,.22,.12,.27,.04,.05,.09,.02,.14,.02,.07,0,.14-.08,.19,.03,.06,.12,.14-.39,.19-.04,.04,.27,.13-.2,.19-.25,.03-.02,.06,.03,.09,.09,.02,.04,.03,.2,.06,.19,.05-.03,.09,.07,.16-.15,.04-.15,.09,.13,.14,.17,.05,.04,.1,.01,.16,.02,.05,0,.1,.1,.16,0,.23-.5,.43-.17,.64-.23,.05-.02,.12-.19,.15,.25,0,.08,.04,.08,.05,.04,.22-.6,.41-.11,.62-.27,.15-.12,.3-.35,.44-.29,.14,.06,.29,.18,.43-.02,.12-.17,.23-.32,.34-.21,.11,.11,.23-.75,.32-.02,.11,0,.22-.02,.33,.01,.09,.03,.19-.16,.27,.27,.03,.16,.09,.15,.13,0,.13-.45,.24-.32,.35-.09,.03,.05,.07-.16,.1-.17,.1-.02,.2-.06,.29,0,.29,.19,.58-.3,.87-.3,.05,0,.12-.34,.17-.25,.28,.56,.59,0,.87,.32,.42,.49,.85,.15,1.27,.27,.06,.02,.11,.38,.13,.28,.09-.33,.18-.04,.25-.29,.13-.44,.25-.14,.37-.25,.09-.08,.18,.22,.27-.28,.01-.07,.04-.06,.06,0,.12,.47,.27-.22,.39,0,.27-.56,.5-.17,.77-.28,.04-.02,.08-.14,.12-.2,.02-.03,.05-.11,.06-.07,.21,.61,.47,.16,.69,.33,.07,.06,.14,.23,.21,.29,.07,.06,.16-.08,.21,.3,.02,.12,.06,.06,.1,.02,.2-.24,.27,.56,.19,1.83-.03,.46-.07,.48-.12,.65-.09,.33-.18,.53-.26,.5-.06-.03-.13-.18-.22,.26-.01,.07-.04,.06-.06,0-.09-.4-.24-.09-.33-.37-.07-.21-.15-.16-.23-.25-.06-.07-.14,.15-.19-.25-.02-.14-.1,.21-.15,.22-.11,.03-.22,.05-.33-.01-.33-.19-.69,.45-1.02,.28-.26,.56-.49,.04-.74,.31-.3,.33-.58,.14-.88,.29-.06,.03-.11,.02-.16-.13-.03-.1-.07-.2-.1-.2-.14-.03-.28,.02-.41-.03-.07-.03-.16,.26-.22-.28,0-.07-.04-.07-.06,0-.13,.53-.26,.2-.38,.27-.05,.02-.09,0-.14-.19-.05-.21-.14-.19-.21,0-.05,.14-.09,.15-.13,.19-.18,.18-.36-.37-.55,.27-.08-.57-.2-.38-.29-.25-.37,.51-.72,.12-1.08,.22-.09,.02-.17-.22-.26-.27-.09-.05-.19-.03-.28-.01-.05,.01-.1-.18-.15,.24,0,.03-.01,.05-.02,.04-.05-.07-.1-.23-.15-.2-.05,.03-.1,.3-.15,.38-.06,.09-.12,.09-.18,.1-.06,0-.12,.1-.15-.27-.06,.46-.12,.22-.17,.26-.05,.03-.11,0-.16,0h-.18c-.06,0-.12-.05-.18,0-.08,.06-.17,.22-.25,.27-.09,.05-.18,.04-.26,0-.11-.06-.21-.21-.31-.29-.04-.04-.09,.08-.14,.23-.07,.21-.16,.68-.21,.05,0-.12-.06-.09-.1-.01-.26,.63-.48,.08-.73,.25-.1-.48-.25-.2-.39-.07-.21,.18-.43,.25-.6-.04-.19-.31-.4-.15-.6-.28-.05-.04-.13,.13-.15-.29,0-.1-.05-.07-.08-.01-.2,.43-.35,.29-.49-.01-.08-.16-.19,.01-.3,.17-.17,.23-.31,.04-.47,.02-.02-.53-.12,0-.18,.22-.07,.3-.12,.35-.18,.35-.07,0-.13-.1-.24,.24-.05,.17-.13,.12-.15-.06-.03-.25-.06-.14-.12,.02-.08,.19-.08-.31-.16-.29-.08,.02-.19,.27-.2-.28,0-.05-.02-.05-.04,0-.2,.54-.25-.28-.41-.06-.34-.67-.82-.2-1.2-.47-.16-.11-.27-.53-.47-.31-.42,.48-.73,.06-1.09,.09-.08,0-.2,.23-.18-.3,0-.07-.03-.07-.06-.01-.19,.46-.27,.29-.33-.05-.01-.08-.07-.08-.1,.04-.11,.35-.14,.2-.19,.18-.06-.02-.08-.35-.15-.18-.14,.38-.11-.07-.16-.15-.03-.05-.09,.04-.13,.1-.02,.02-.07,.18-.08,.14-.04-.47-.27,.16-.35-.05-.02-.04-.05-.04-.06-.09-.17-.63-.16-.63-.57-.4,.03-.66-.27,.25-.27-.25,0-.19-.08-.16-.15-.04-.32,.51-.44,.03-.68,.14-.05,.02,.01-.41-.12-.08-.05,.12-.04-.27-.09-.26-.07,0-.09-.24-.25,.16-.07,.16-.1,.01-.15,.04-.07,.03-.1-.14-.24,.19-.08,.18-.16,.17-.16,0,0-.71-.29-.14-.5,.07-.06,.06-.11,.12-.13,0-.03-.16-.07-.37-.17-.18-.18,.34-.23,.16-.32,.16-.16,0-.3-.12-.46-.11-.19,0-.31-.22-.58,.07-.14,.15-.32,.28-.26-.3,0-.06-.12,.23-.15,.23-.23-.04-.45-.09-.66-.2-.05-.02,.06-.58-.12-.16-.19,.45,.03-.48-.18,.07-.03,.08-.07,.06-.08,0-.08-.66-.48-.27-.69-.52-.05-.06-.19,.14-.09-.34-.33,.46-.14-.66-.57,.11-.06-.18-.33,.21-.25-.37,.01-.09-.07,.02-.06-.06,.03-.3-.31,.52-.24,.06,.04-.26-.1-.15-.16-.19-.06-.04-.13-.05-.19-.07l-.21-.08c-.07-.03-.13-.08-.22-.07-.17,.03-.44,.31-.54,.12-.01-.02-.06,.03-.1,.11-.32,.68-.25,.27-.22,.04,.02-.19,.02-.28-.02-.3-.12-.04-.26-.07-.36-.17-.06-.06-.23,.14-.12-.33,.03-.15-.03-.14-.11-.05-.34,.39-.38,.05-.57,.05-.08,0-.15-.05-.21-.09-.05-.03-.23,.24-.16-.07-.5,.45-.61-.04-.9-.09-.29-.05-.54-.2-.79-.34-.06-.04-.24,.14-.07-.34,.03-.09-.02-.11-.07-.03-.16,.23-.25,.34-.13-.01,.02-.06-.05-.01-.1,.04-.14,.15-.18,.11-.15-.08,.02-.15,0-.26-.08-.18-.24,.2-.45,.36-.32-.17,.02-.06-.17,.22-.19,.19-.06-.11-.29,.08-.2-.32,.04-.17-.08-.09-.1-.15-.05-.11-.25,.09-.27-.09-.01-.19-.17-.13-.26-.17l-.28-.14-.28-.14-.28-.14-.28-.14c-.09-.05-.18-.1-.26-.16-.06-.04-.09-.13-.05-.34,.1-.54-.12-.59-.57-.39-.03,.01-.04-.02-.05-.03-.23-.14-.51-.2-.66-.46-.07-.11-.05-.37-.17-.4-.08-.02-.1-.13-.34,.1-.2,.19-.03-.24-.35,.11-.12,.13-.18,.08-.13-.05,.15-.46-.09-.32-.18-.42-.1-.12-.23-.17-.36-.24-.07-.03-.03-.2-.31,.08-.14,.14-.13-.02-.08-.19,.08-.25-.01-.26-.14-.22-.26,.09-.29,.13-.25-.2,0-.04-.01-.05-.03-.06-.16-.12-.22-.39-.51-.3-.25,.07-.39-.01-.52-.1-.05-.03-.25,.1,0-.33,.04-.06,0-.08-.05-.04-.43,.36-.38,.04-.5-.03-.11-.07-.48,.21-.53,.04-.04-.16-.2-.17-.31-.25-.16-.12-.01-.38,.83-1.46,.7-.89,.89-1.05,1.15-1.15,.57-.21,.59,.27,.89,.31Z"/>
      </g>
    </g>
  </g>
</svg>