<?xml version="1.0" encoding="UTF-8"?>
<svg id="_Слой_2" data-name="Слой 2" xmlns="http://www.w3.org/2000/svg" xmlns:xlink="http://www.w3.org/1999/xlink" viewBox="0 0 357.63 226.45">
  <defs>
    <style>
      .cls-1 {
        fill: none;
      }

      .cls-2 {
        clip-path: url(#clippath);
      }

      .cls-3 {
        fill: #e27f60;
      }

      .cls-4 {
        fill: #147014;
      }

      .cls-5 {
        fill: #349039;
      }

      .cls-6 {
        fill: #37993a;
      }
    </style>
    <clipPath id="clippath">
      <rect class="cls-1" width="357.63" height="226.45"/>
    </clipPath>
  </defs>
  <g id="_верхний_лотос" data-name="верхний лотос">
    <g class="cls-2">
      <g>
        <g>
          <path class="cls-5" d="M300.47,69.59c6.03-.37,12.31-.7,17.89,1.64,8.82,3.7,13.96,14.11,12.38,23.54-1.58,9.43-9.23,17.33-18.39,20.1"/>
          <path class="cls-5" d="M317.31,109.99c.95-.58,1.89-1.19,2.71-1.95,.31-.27,.84-.32,.71-1.11-.08-.39,.78-.04,1.03-.35,.68-.79,1.47-1.48,2.06-2.34,.27-.43,.51-.87,.72-1.33,.2-.47,.39-.93,.63-1.36,.2-.45,.51-.84,.78-1.25,.25-.42,.44-.87,.45-1.37,0-.43,.18-.76,.41-1.08,.23-.31,.48-.63,.5-1.02,.1-.82,.17-1.64,.62-2.37,.31-.53,.64-1.08,.58-1.67-.08-.37-.48-.73-.43-1.11,.06-.35,.38-.78-.44-1.07-.07-.02,.07-.19,.18-.27,.52-.41,.44-.91,.03-1.19-.39-.27-.38-.55-.43-.83-.21-.77-.36-1.55-.54-2.34-.09-.6-.01-1.26-.17-1.86-.13-.65-.79-1.08-.68-1.79,.08-.71-.25-1.2-.53-1.72-.18-.27-.1-.82-.93-.58-.08,.02-.14-.08-.12-.17,.19-.71-.22-1.02-.64-1.27-.42-.27-.96-.4-1.18-.83-.22-.46-.57-.81-.96-1.11l-.58-.46c-.21-.13-.42-.26-.61-.4-.21-.14-.3-.51-.82-.16-.19,.13-.42,.02-.45-.17-.09-.52-.36-.79-.68-.96-.34-.15-.7-.23-1-.45-.7-.5-1.62-.42-2.29-1.26-.28-.36-.77-.63-1.37,.01-.27,.29-.62-.13-.96-.11-.27,.01-.58,.32-.84,.3-.22-.02-.4-.35-.61-.52-.06-.05-.15-.06-.22-.02-1.37,.71-2.61-.49-4.01-.26-1.38,.23-2.8,.18-4.24,.14-.79-.02-1.63-.21-2.27-1.65-.29-.65-.33-1.35-.01-1.79,.23-.32,.51-.63,.79-.72,.46-.15,.91-.35,1.36-.49,.93-.3,1.85-1.02,2.87-.68,.31,.1,.67-.29,.94,.37,.04,.09,.16,.14,.22,.09,1.34-1.02,2.75-.31,4.14-.27,1.18,.04,2.47-.6,3.64-.02,.84-.65,1.64-.32,2.26,.12,1.09,.78,2.23,1.22,3.38,1.79,.58,.26,1.17,.51,1.72,.83,.56,.31,1.12,.61,1.6,1.03,2.02,1.58,3.9,3.33,5.35,5.41,.23,.36,.83,.41,.81,1.03,0,.56,.5,.96,.78,1.44,.25,.43,.66,.82,.67,1.35,.11,2.09,1.17,3.73,1.54,5.67,.38,1.9,.44,3.83,.66,5.77,.04,.59,.18,1.19,.23,1.8,.03,.61,.03,1.23-.13,1.82-.17,.49,.14,1.12-.7,1.45-.23,.09,.23,.69,.15,1.02-.17,.81-.43,1.59-.74,2.35-.38,1.08-.93,2.08-1.38,3.12-.3,.62-.33,1.4-.67,2.02-.34,.65-.73,1.29-1.24,1.82-.32,.34-.67,.65-1.02,.96-.37,.29-.73,.58-1.06,.89-.67,.65-1.14,1.59-2.03,1.96-1.67,.63-2.72,1.91-4.16,2.75-.69,.45-1.44,.79-2.13,1.21-.73,.37-1.44,.78-2.16,1.17-.83,.45-1.84,.18-2.68,.45-.41,.14-1.47-1.49-1.5-2.17,0-.13,.01-.27,.06-.34,.57-.83,.9-1.9,1.7-2.19,1.21-.38,2.29-1.05,3.38-1.7Z"/>
        </g>
        <g>
          <path class="cls-5" d="M70.43,29.68c4.52-6.61,11.93-11.17,19.87-12.22,3.35-.44,6.97-.22,9.76,1.68,3.25,2.22,4.75,6.26,7.65,8.91"/>
          <path class="cls-5" d="M103.05,26.28c-.45-.63-.83-1.28-1.31-1.8-.18-.2-.06-.61-.78-.41-.35,.1,.15-.58-.02-.74-.46-.42-.75-.96-1.21-1.28-.45-.33-1.01-.42-1.44-.6-.41-.18-.7-.75-1.3-.53-.48,.19-.65-.52-1.1-.48-.47,.06-.91,.09-1.33-.26-.3-.25-.63-.56-.98-.43-.22,.08-.42,.5-.65,.46-.21-.02-.48-.36-.63,.45-.01,.07-.11-.07-.17-.18-.26-.51-.57-.45-.73-.08-.16,.36-.33,.34-.5,.38-.48,.11-.98,.23-1.48,.23-.38,.02-.81-.2-1.2-.19-.41,.01-.72,.49-1.18,.21-.47-.29-.81-.13-1.16-.02-.2,.07-.56-.21-.45,.62,.01,.08-.06,.1-.12,.05-.93-.77-.98,.72-1.61,.73-.68,0-1.17,.47-1.71,.78-.15,.08-.42-.04-.26,.55,.05,.21-.08,.31-.23,.23-.81-.47-.98,.2-1.44,.35-.55,.16-.77,.78-1.58,.6-.35-.08-.7,0-.45,.78,.12,.35-.31,.24-.41,.43-.08,.16,.01,.51-.09,.63-.09,.1-.39-.04-.59-.05-.06,0-.1,.03-.1,.09-.01,1.14-1.34,.87-1.73,1.62-.38,.74-.95,1.29-1.54,1.85-.31,.32-.76,.53-2.16-.04-.63-.26-1.22-.65-1.44-1.06-.16-.3-.29-.62-.24-.81,.07-.31,.11-.66,.18-.96,.18-.61,.03-1.54,.74-1.79,.22-.07,.09-.5,.68-.19,.08,.04,.17,.02,.16-.04-.19-1.33,.95-1.49,1.51-2.13,.49-.53,.51-1.64,1.33-1.83-.19-.9,.3-1.1,.79-1.15,1.68-.2,2.61-1.43,3.97-2.06,1.38-.59,2.68-1.34,4.11-1.81,.24-.09,.29-.6,.7-.35,.37,.23,.63-.13,.95-.24,.28-.1,.54-.34,.87-.22,.68,.25,1.25,.18,1.82,.06,.56-.14,1.12-.35,1.71-.39,1.16-.11,2.33-.13,3.52-.37,.72-.14,1.5-.56,2.26-.32,.32,.11,.73-.29,.94,.52,.05,.23,.45-.3,.68-.28,.55,.04,1.07,.22,1.61,.38,.74,.22,1.45,.59,2.2,.88,.45,.18,1.04,.17,1.51,.4,.48,.24,.91,.57,1.24,.97,.43,.5,.67,1.14,1.01,1.63,.35,.51,1.02,.77,1.08,1.43,.09,1.2,.89,1.78,1.36,2.57,.46,.78,.92,1.52,1.56,2.03,.36,.29,.15,1.02,.47,1.33,.13,.12-.93,1.73-1.43,2.14-.1,.08-.22,.14-.28,.15-.79,.07-1.85,.32-2.24-.22-.56-.79-1.16-1.48-1.67-2.2Z"/>
        </g>
        <g>
          <path class="cls-6" d="M116.2,141.29c-14.45-1.54-28.62-6.94-37.5-12.91-6.17-4.15-23.05-13.83-26.43-21.82-1.76-4.15,33.27-10.12,30.3-13.51-2.98-3.39-34.52-.91-37.15-4.58-6.05-8.47-11.29-19.27-7.46-28.94,1.44-3.64,4.04-6.68,6.68-9.57,9.65-10.52,21.35-20.27,35.44-22.59,18.12-2.98,36.17,6.89,54.5,5.8,5.76-.34,18.65,1.44,24.41,1.28,23.36-.65,42.92-4.53,53.26-4.77,12.63-.3,20.75,0,31.69,3.06,19.89,5.57,38.83,15.99,52.07,31.84,13.24,15.85,20.25,37.44,16.19,57.7-.66,3.29-1.65,6.62-3.73,9.26-3.6,4.56-9.7,6.19-15.38,7.45-60.97,13.53-117.49,21.56-176.9,2.29"/>
          <path class="cls-6" d="M181.33,150.13c11.7,.37,23.45,.06,35.13-.95,4.34-.46,8.83-.44,13.26-1.73,2.2-.64,6.49-.25,10.49-.93,10.84-1.59,21.68-3.49,32.44-5.69,2.61-.56,5.22-1.13,7.83-1.69l7.8-1.81c5.22-1.26,10.45-2.23,14.4-4.58,1.95-1.17,3.49-2.6,4.55-4.5,1.09-1.91,1.77-4.25,2.26-6.74,1.01-4.98,1.26-10.09,.73-14.94-.42-4.21-1.11-8.17-2-12.05-.91-3.88-2.11-7.68-3.89-11.36-3.74-7.82-8.91-15.17-14.71-21.41-4.15-4.61-8.85-8.73-14.1-12.08-3.3-2.07-6.6-3.59-10.36-5.53-3.47-1.81-7.44-3.95-10.93-4.42-.28-.06-1.89-.78-2.69-1.2-3.81-1.93-8.87-3.42-12.36-3.85-3.41-.41-6.33-.95-9.49-1.24-4.32-.42-8.73-.46-13.2-.41l-3.36,.06c-1.15,.02-2.14,.06-3.25,.13-2.16,.12-4.39,.36-6.6,.57-6.69,.7-13.43,1.29-20.23,1.92-7.08,.67-14.66,1.63-21.28,1.48-.83-.01-1.65-.03-2.47-.04-.85-.01-1.75-.05-2.58-.1-1.67-.11-3.29-.25-4.9-.39-3.2-.28-6.36-.57-9.52-.79-1.79-.13-3.74-.34-5.54-.35-.44,0-.9,0-1.31,.04-.44,.04-.88,.08-1.3,.12-.92,.1-1.79,.25-2.58,.48-.3,.11-1.73,.02-2.39-.07-10.78-1.54-20.96-3.35-31.06-5.27-5.18-1-10.47-1.51-15.59-.88-5.12,.55-10.08,2.27-14.67,4.74-2.45,1.3-5.13,2.72-6.86,4.74-.63,.68-2.92,2.52-4.11,3.34-3.26,2.21-6.24,5.02-9.06,8.02-2.85,3.04-5.46,6.08-6.94,9.28-.8,1.83-1.28,3.81-1.34,5.86-.07,2.05,.22,4.16,.77,6.25,1.09,4.2,3.16,8.27,5.4,12.32,.22,.38,.44,.78,.69,1.19,.13,.2,.25,.41,.39,.62,.13,.2,.3,.47,.31,.5,.06,.14,.18,.23,.31,.31l.08,.04c.07,.03,.11,.06,.21,.09l.52,.16c.78,.19,1.67,.34,2.59,.42,1.85,.17,3.82,.14,5.68-.05,2.21-.22,6.82,.27,10.34,.3,1.45,.01,2.87-.04,4.3-.07l1.08-.02h.27s.49,0,.49,0l1.03,.03c1.36,.08,2.78,.13,4.08,.32l1.24,.16,1.1,.25c.35,.09,.76,.15,1.05,.27l.87,.33,.43,.17,.31,.2,.62,.4,.9,.85c.31,.38,.56,.81,.78,1.35,.06,.17,.13,.34,.17,.58,.04,.24,.05,.52,.03,.73-.03,.44-.15,.73-.23,1.01-.36,1-.97,2.02-2.77,3.08-1.77,1.04-4.35,1.96-6.87,2.79l-2.78,.89-2.02,.61-4.02,1.16c-2.66,.76-5.32,1.5-7.85,2.35-.63,.21-1.25,.44-1.84,.67l-.86,.36-.09,.04h0s-.02,0-.03,.01l-.08,.03c-.1,.04-.21,.09-.3,.17-.11,.09-.04,.22,0,.32,.02,.05,.04,.11,.08,.16l.2,.3c.29,.48,.76,.94,1.12,1.42,.82,.93,1.73,1.83,2.71,2.69,5.03,4.39,10.95,8.15,16.9,11.97l4.46,2.91c1.4,.92,2.88,1.76,4.37,2.57,3.01,1.6,6.14,3,9.34,4.22,3.53,1.35,7.2,2.53,10.59,3.6,3.4,1.07,6.53,2.03,9.03,3.08,2.26,.94,2.24,1.66-1.15,1.66-2.47-.05-5.32-.25-8.09-.81-4.43-.9-8.82-2.07-12.99-3.53-4.33-1.55-8.61-3.27-12.72-5.58-1.01-.56-2.09-1.23-3-1.8-.96-.6-1.92-1.2-2.88-1.8-1.94-1.22-3.9-2.5-5.81-3.9-2.38-1.72-5.45-3.42-7.01-5.45-.21-.28-1.14-1.08-1.63-1.4-1.61-1.14-3.21-2.34-4.7-3.77-.76-.69-1.47-1.47-2.17-2.28-.18-.19-.35-.41-.51-.64l-.59-.82c-.52-.67-.82-1.4-1.23-2.13-.16-.8-.59-1.56-.28-2.42,.24-.82,.76-1.48,1.43-2.06,.67-.58,1.49-1.05,2.33-1.48l.94-.44,.82-.35c2.17-.88,4.32-1.55,6.46-2.2,2.13-.62,4.26-1.24,6.39-1.86l3.15-.93c1.34-.41,1.35-.41,1.75-.55,.59-.2,1.12-.42,1.53-.67,.19-.13,.4-.24,.42-.48-.02-.13-.21-.22-.35-.26-.15-.05-.31-.07-.47-.09-.56-.07-1.06-.05-1.46-.03l-.54,.04c-.07,0-.02,.01-.18,0l-.64-.02-1.28-.03c-3.42-.08-6.89-.15-10.43-.39-2.38,.23-4.94,.29-7.61,.13-1.34-.09-2.7-.22-4.16-.5-.36-.07-.75-.17-1.13-.25-.4-.11-.8-.23-1.23-.39l-.84-.36c-.29-.13-.53-.33-.8-.5l-.39-.26-.32-.33c-.12-.1-.19-.25-.34-.31l-.29-.35c-.24-.37-.49-.73-.73-1.09-.19-.3-.39-.59-.57-.89-.36-.6-.73-1.18-1.06-1.76-2.77-4.85-5.22-10.09-6.14-15.97-.44-2.93-.44-6.02,.25-9.02l.26-1.12,.37-1.09c.24-.73,.51-1.46,.84-2.14,.64-1.39,1.43-2.67,2.26-3.87,1.68-2.4,3.56-4.46,5.4-6.44,1.85-2,3.76-3.96,5.76-5.84,1.99-1.89,4.08-3.7,6.27-5.4,2.18-1.71,4.48-3.29,6.89-4.72,2.43-1.46,5-2.74,7.67-3.8,1.32-.56,2.7-.98,4.07-1.43,1.4-.37,2.79-.77,4.22-1.01,1.42-.33,2.86-.42,4.29-.61,1.43-.14,2.87-.16,4.3-.22,2.85,.03,5.69,.19,8.47,.57,11.12,1.43,21.48,4.83,31.85,5.68,.88,.11,1.73,.06,2.57,.08h1.26c.42-.04,.83-.06,1.25-.09,.42-.02,.85-.05,1.28-.07,.47-.02,.95-.03,1.44-.05,1.08-.03,2.14,.03,3.26,.15,4.18,.49,9.43,.75,14.1,1.09,2.12,.15,4.33,.25,6.3,.21,2.13-.09,4.28-.15,6.3-.16,8.39,0,16.82-.77,25.26-1.78l12.71-1.57c2.14-.24,4.28-.48,6.47-.62,1.08-.08,2.23-.12,3.29-.15l3.21-.05c4.27-.04,8.58,.04,12.92,.41,4.33,.39,8.67,1.11,12.88,2.18,4.22,1.06,8.31,2.35,12.37,3.82,4.05,1.48,8.05,3.1,11.92,4.98,9.46,4.53,18.58,10.15,26.16,17.79,3.2,3.23,6.74,6.63,8.8,10.74,.59,1.14,3.5,4.32,4.96,6.91,3.75,6.31,6.47,13.24,8.22,20.4,2.4,9.98,2.59,20.49,.25,30.63-.39,1.58-.88,3.18-1.59,4.78-.7,1.58-1.65,3.17-2.87,4.55-2.43,2.77-5.6,4.53-8.67,5.7-3.24,1.22-6.49,1.92-9.54,2.58-3.1,.65-6.19,1.3-9.27,1.95-3.93,.76-7.85,1.47-11.77,2.17-3.93,.66-7.87,1.33-11.81,1.99-4.1,.64-8.25,1.47-12.39,2.12-2.07,.32-4.13,.64-6.17,.92-1.02,.13-2.03,.27-3.04,.4-1.01,.09-2.01,.18-3,.26-14.73,1.22-29.43,2.67-44.22,2.55-14.69-.11-29.42-1.39-43.9-3.83-4.1-.78-8.02-1.52-11.81-2.69-3.81-1.1-7.61-2.08-11.49-3.32-3.66-1.08-7.96-4.33-6.27-4.51,.32-.03,.95,.02,1.56,.15,1.93,.4,3.83,.79,5.72,1.19,1.89,.37,3.76,.81,5.71,1.08,1.93,.32,3.89,.66,5.91,1.06,1.01,.2,2.03,.42,3.08,.65,1.05,.2,2.13,.4,3.23,.61,12.95,2.74,26.19,4.24,39.45,4.66Z"/>
        </g>
        <g>
          <path class="cls-4" d="M96.06,93.78c-7.19,10.31-17.97,18.06-30.04,21.58-1.95,.57-4,1.03-5.99,.65-2.32-.44-4.31-2-5.74-3.88s-2.39-4.07-3.33-6.24c-.19-.44-.38-.91-.28-1.37,.1-.43,.43-.76,.78-1.04,1.34-1.1,2.96-1.79,4.56-2.44,10.97-4.42,22.61-7.18,34.4-8.17,1.69-.14,3.5-.22,4.98,.61,.27,.15,.63,.32,.84,.09s-.45-.42-.29-.16"/>
          <path class="cls-4" d="M95.2,96.5c-.51,.63-.94,1.13-1.3,1.69-.06,.08,.06,.34-.02,.43-.35,.38-.52,.94-1.07,1.12-.59,.2-1.01,.55-1.21,1.08-.2,.49-.57,.81-.87,1.2-.1,.13-.18,.28-.52,.19-.25-.06-.43,.08-.29,.48,.03,.08-.08,.07-.14,.08-.07,.01-.23-.06-.22,0,.06,.76-.61,.78-.88,1.2-.07,.11-.28,.07-.1,.43,.05,.09-.03,.18-.12,.14-.23-.12-.33-.09-.42-.01-.36,.35-.74,.67-1.14,.99,.13,.55-.23,.55-.43,.71-.16,.12-.42,.11-.63,.16-.22,.05-.18,.44-.61,.2-.07-.04-.05,.11-.09,.15-.18,.18-.29,.46-.57,.47-.15,0-.29,0-.39,.08-.61,.47-1.25,.9-1.89,1.34-.63,.45-1.28,.87-1.94,1.28-.11,.07-.25,.09-.22,.42,.02,.25-.18,.4-.39,.25-.34-.22-.4-.01-.56,.05-.28,.12-.52,.32-.81,.44-.17,.07-.22,.39-.61,.03-.04-.04-.09,0-.08,.05,.06,.53-.3,.27-.51,.31-.15,.03-.28,.1-.31,.39-.03,.28-.24,.43-.49,.27-.33-.21-.43-.03-.59,.05-.94,.48-1.93,.87-2.87,1.36-.45,.21-.74,.81-1.28,.84-.13,0-.18,.23-.41-.05-.05-.06-.12,.02-.12,.11-.01,.35-.18,.29-.33,.33-.69,.18-1.43,.25-1.98,.77-.44,.4-.98,.45-1.47,.69-.16,.08-.41-.1-.59-.09-.18,0-.34,.08-.51,.15-.1,.04-.23-.03-.25,.28-.01,.16-.15,.25-.24,.14-.31-.35-.49-.13-.7-.09-.61,.13-1.23,.29-1.87,.35-.16,.01-.31,.25-.5-.18-.02-.06-.1,.09-.16,.14-.06,.05-.12,.18-.18,.12-.45-.54-.86-.21-1.3-.25-1.03-.1-2.1-.29-3.01-.8-.25-.14-.65,.07-.9-.09-.23-.16-.49-.27-.7-.46-.15-.12-.43-.1-.31-.56,.03-.12-.07-.21-.19-.15-.44,.21-.48-.12-.7-.22-.26-.13-.27-.52-.79-.39-.14,.03-.07-.24-.13-.34-.11-.17-.23-.32-.37-.46-.07-.06-.25-.03-.33-.09-.55-.5-1.07-1.02-1.5-1.61-.43-.6-.75-1.26-1.07-1.9-.32-.64-.65-1.26-.89-1.92-.09-.26-.51-.34-.07-.85-.47-.17-.39-.57-.09-.89,.05-.04-.16-.11-.24-.17-.24-.18-.92-.43-.29-.68,.02,0-.01-.04,0-.06,.07-.19-.62-.43-.19-.66,.26-.13,.22-.41,.33-.62,.11-.21,.26-.4,.35-.61,.1-.23,.54-.23,.3-.69-.03-.08,.39,.02,.45-.07,.34-.44,1.15-.44,1.16-1.13,.02-.17,.16-.24,.31-.19,.54,.18,.73-.17,1.01-.48,.36-.41,.82-.71,1.5-.31,.14,.08,.22,.16,.23-.08,0-.16,.12-.17,.21-.21,.95-.39,1.91-.76,2.86-1.13,.26-.1,.67,.26,.88,0,.08-.11,.3,.07,.25-.34,0-.06,.03-.1,.06-.08,.48,.32,.57-.42,.96-.35,.08,.01,.18,.08,.26,.1,.09,.02,.21,.1,.24,.02,.31-.71,.96-.49,1.41-.79,.16-.1,.43,.08,.42-.43,0-.08,.08-.1,.13-.04,.48,.47,.66-.07,1.01-.03,.18,.02,.26-.34,.55,.08,.04,.05,.08-.01,.11-.06,.05-.08,.07-.25,.14-.26,.19-.03,.47,.16,.58-.04,.14-.25,.35-.23,.54-.3,.11-.04,.28,.14,.41,.15,.12,.02,.22-.06,.32-.09,.15-.04,.29-.17,.47-.11,.18,.06,.16-.46,.42-.17,.2,.22,.22-.28,.35-.37,.06-.05,.16-.01,.24,.02,.07,.02,.16,.16,.21,.14,.11-.06,.24,0,.31-.25,.05-.17,.27,.06,.4,.06,.13,0,.25-.06,.37-.09,.12-.03,.28,.03,.36-.12,.36-.62,.94-.47,1.43-.65,.12-.05,.23-.25,.45,.14,.04,.07,.11,.06,.14,0,.33-.7,.94-.36,1.38-.64,.32-.2,.61-.5,.97-.53,.36-.03,.73,0,1.02-.27,.24-.23,.48-.44,.77-.38,.28,.05,.36-.85,.77-.19,.27-.06,.53-.14,.81-.16,.23-.02,.43-.25,.73,.13,.11,.14,.26,.1,.32-.06,.2-.5,.5-.42,.82-.25,.08,.04,.12-.19,.2-.21,.23-.06,.47-.14,.71-.12,.74,.06,1.35-.55,2.06-.66,.13-.02,.22-.38,.35-.31,.78,.44,1.42-.23,2.16,0,1.09,.33,2.07-.12,3.11-.13,.14,0,.31,.35,.36,.23,.16-.35,.42-.09,.56-.35,.25-.47,.58-.2,.86-.34,.21-.1,.46,.17,.61-.35,.02-.08,.1-.07,.14-.02,.35,.44,.62-.28,.98-.08,.62-.61,1.36-.23,2.13-.29,.12,0,.24-.12,.36-.18,.06-.03,.15-.09,.19-.05,.63,.69,1.51,.41,2.26,.92,.12,.08,.22,.19,.32,.3l.14,.17c.05,.06,.1,.11,.09,.12v.02s-.17,.34-.17,.34c-.12,.24-.21,.45-.27,.62-.13,.35-.19,.61-.19,.78-.01,.11,.03,.24,.02,.21,0,0-.01-.02-.03-.03h0s0,0,0,0h0l.1,.09h0s.01,.02,.01,.02l.03,.02,.04,.02s-.02,0-.08,.06c-.14,.14-.11,.22-.08,.02,.01-.08,0-.18-.01-.21-.04-.04,0,0,.05-.02,.1-.02,.19-.09,.18-.09-.19,.12-.3,.18-.41,.15-.05-.02-.11-.1-.05-.25,.07-.12,.17-.17,.23-.22,.25-.15,.45-.24,.78-.07,.09,.06,.18,.13,.26,.3,.08,.14,.12,.4,.07,.58-.05,.22-.13,.31-.22,.43-.06,.07-.12,.13-.21,.18-.27,.17-.58,.16-.77,.16-.21,0-.36,.03-.57,.19-.07,.05-.19-.01-.22-.09-.06-.14-.12-.23-.18-.3-.04-.05-.09-.09-.14-.11-.1-.06-.21-.09-.26-.26-.09-.25-.27-.26-.41-.38-.13-.1-.32,.08-.4-.33-.03-.14-.24,.17-.34,.18-.25,0-.5,0-.75-.06-.79-.21-1.52,.5-2.33,.4-.52,.62-1.17,.16-1.71,.49-.66,.41-1.36,.31-2.03,.53-.14,.05-.25,.05-.39-.08-.09-.08-.19-.17-.28-.17-.33,.02-.65,.11-.98,.11-.18,0-.33,.31-.56-.2-.03-.07-.11-.05-.14,.02-.21,.56-.57,.29-.86,.4-.11,.04-.22,.04-.38-.13-.16-.19-.37-.13-.48,.08-.08,.16-.18,.18-.27,.24-.39,.24-.91-.22-1.22,.49-.31-.52-.55-.29-.74-.12-.75,.65-1.65,.45-2.46,.7-.2,.06-.45-.14-.66-.14-.22,0-.44,.06-.65,.13-.11,.04-.28-.12-.29,.31,0,.03-.02,.06-.03,.05-.14-.04-.29-.17-.41-.11-.1,.05-.14,.34-.24,.44-.11,.11-.24,.15-.38,.19-.13,.04-.24,.16-.43-.17,0,.47-.2,.28-.32,.34-.11,.06-.24,.06-.36,.09l-.41,.09c-.14,.03-.28,.02-.41,.1-.17,.11-.31,.31-.49,.41-.18,.1-.38,.14-.59,.15-.26,0-.54-.07-.8-.09-.11,0-.17,.12-.23,.31-.08,.24-.12,.74-.45,.19-.06-.11-.17-.04-.22,.05-.35,.76-1.03,.38-1.51,.71-.42-.37-.62-.01-.88,.2-.39,.31-.83,.52-1.34,.38-.54-.14-.94,.16-1.42,.19-.14,0-.22,.22-.45-.15-.05-.08-.14-.03-.17,.05-.23,.54-.62,.54-1.08,.39-.24-.08-.41,.16-.57,.39-.24,.34-.65,.29-.99,.41-.32-.44-.26,.1-.26,.34,0,.32-.07,.4-.19,.45-.15,.06-.33,.03-.37,.4-.02,.19-.2,.22-.35,.07-.19-.19-.2-.07-.24,.12-.05,.22-.34-.19-.49-.11-.15,.08-.25,.4-.58-.06-.03-.04-.08-.02-.08,.03-.1,.63-.68-.02-.89,.33-1.1-.24-1.83,.6-2.75,.75-.38,.06-.89-.15-1.11,.23-.22,.4-.52,.6-.83,.76l-.44,.23c-.07,.03-.13,.06-.16,.12-.04,.06,.13,.23-.37-.05-.07-.04-.09,0-.04,.04,.37,.35,.21,.27-.2,.25-.1,0-.11,.05,.03,.1,.39,.15,.22,.14,.21,.18-.01,.04-.36,.08-.14,.13,.45,.07-.02,.09-.08,.16-.03,.04,.09,.06,.16,.08,.04,.01,.21,0,.17,.01-.21,.09-.13,.14-.03,.15l.14,.02s.08,.1,.06,.17c-.01,.07,.02,.12,0,.19-.29,.82-.29,.83,.32,1.42-.49,.48,.48,.29,.14,.71-.12,.16-.01,.29,.15,.32,.71,.15,.54,.76,.92,1.07,.08,.06-.26,.35,.11,.27,.14-.03-.11,.3-.04,.38,.1,.11-.01,.38,.42,.26,.18-.05,.14,.14,.22,.19,.12,.08,.07,.28,.42,.18,.19-.06,.3,.06,.21,.23-.33,.7,.36,.54,.73,.57,.12,.01,.2,0,.19,.15-.02,.2-.02,.46,.19,.38,.38-.16,.39,.07,.54,.15,.24,.15,.43,.37,.69,.48,.29,.11,.48,.44,.9,.24,.23-.1,.45-.19,.41,.4,0,.07,.17-.21,.21-.2l1,.22c.07,.02,.13,.59,.24,.14,.1-.48,.16,.48,.25-.1,.01-.08,.09-.07,.13-.02,.46,.61,.95,.09,1.47,.16,.13,.02,.23-.24,.42,.22,.21-.59,.82,.41,.95-.52,.28,.08,.41-.43,.81,.06,.06,.08,.11-.08,.18-.01,.23,.24,.08-.65,.39-.26,.18,.22,.33,0,.5-.03,.15-.03,.29-.09,.44-.13l.48-.15c.16-.05,.33-.07,.48-.16,.29-.2,.48-.65,.85-.63,.04,0,.08-.08,.06-.17-.15-.75,.15-.41,.34-.25,.16,.14,.26,.19,.36,.15,.27-.1,.53-.23,.81-.31,.17-.04,.24-.33,.57,.04,.1,.12,.22,.03,.25-.1,.14-.6,.6-.46,.91-.68,.14-.1,.3-.16,.45-.21,.12-.04,.1-.39,.34-.16,.3-.82,1.05-.7,1.56-1.06,.52-.35,1.09-.59,1.65-.86,.14-.07,.17-.37,.54,0,.07,.07,.16,0,.14-.09-.05-.28-.07-.44,.2-.17,.05,.05,.09-.06,.09-.15,.01-.24,.12-.27,.33-.18,.16,.07,.33,.08,.36-.06,.09-.37,.18-.72,.68-.41,.06,.04-.04-.3,.02-.32,.23-.07,.29-.42,.7-.21,.17,.09,.22-.09,.35-.11,.22-.04,.23-.37,.49-.36,.27,.01,.39-.23,.58-.36l.56-.39,.56-.39c.19-.13,.37-.27,.55-.41l.55-.41,.55-.41c.13-.09,.29-.13,.53-.08,.63,.14,.99-.24,1.2-.94,.02-.05,.07-.06,.1-.09,.47-.37,.84-.85,1.38-1.14,.23-.13,.58-.13,.76-.34,.12-.13,.29-.2,.2-.55-.08-.29,.38-.1,.18-.56-.07-.17,.05-.27,.2-.23,.52,.15,.56-.23,.78-.39,.27-.19,.47-.44,.67-.69,.1-.13,.32-.13,.15-.51-.08-.19,.14-.23,.34-.21,.31,.04,.4-.12,.43-.31,.08-.41,.04-.45,.49-.52,.05,0,.08-.04,.11-.08,.29-.33,.73-.55,.83-1.03,.09-.39,.28-.68,.5-.96,.08-.11,.01-.38,.48-.16,.07,.03,.11-.04,.08-.1-.24-.57,.18-.64,.37-.88,.17-.25-.03-.73,.24-.91,.25-.17,.35-.45,.52-.68,.26-.35,.56-.25,1.68,.53,.93,.65,1.06,.88,1.03,1.32-.06,.93-.82,1.36-1.1,1.95Z"/>
        </g>
        <g>
          <path class="cls-3" d="M95.8,92.55c-5.05,8.76-12.63,15.35-21.11,18.34-1.37,.48-2.81,.88-4.21,.55-1.63-.38-3.03-1.7-4.04-3.3s-1.68-3.46-2.34-5.3c-.13-.37-.27-.77-.19-1.17,.07-.36,.31-.64,.55-.88,.94-.93,2.08-1.52,3.21-2.07,7.71-3.75,15.89-6.1,24.18-6.94,1.19-.12,2.46-.19,3.5,.52,.19,.13,.44,.27,.59,.08s-.32-.36-.2-.14"/>
          <path class="cls-3" d="M95.55,94.74c-.33,.5-.63,.89-.84,1.34-.03,.07,.14,.29,.08,.37-.24,.3-.27,.77-.73,.9-.5,.14-.76,.44-.84,.87-.07,.41-.34,.66-.52,.98-.06,.11-.09,.24-.4,.15-.23-.06-.36,.05-.15,.4,.04,.07-.06,.06-.11,.07-.06,0-.22-.06-.2,0,.21,.65-.37,.65-.5,1.02-.03,.09-.23,.05,0,.37,.06,.08,.01,.16-.07,.12-.23-.11-.31-.09-.37-.03-.24,.29-.51,.55-.76,.83,.24,.49-.07,.48-.21,.61-.11,.1-.34,.08-.51,.12-.17,.03-.06,.38-.48,.16-.06-.03-.01,.1-.04,.14-.11,.15-.13,.41-.38,.41-.12,0-.25,0-.31,.06-.85,.78-1.73,1.52-2.63,2.25-.08,.06-.19,.07-.1,.37,.07,.23-.07,.35-.27,.22-.33-.22-.33-.02-.45,.03-.21,.1-.35,.3-.56,.39-.13,.06-.1,.35-.49,0-.04-.03-.07,0-.06,.04,.16,.49-.2,.23-.36,.27-.12,.02-.2,.09-.16,.36,.04,.26-.11,.4-.33,.25-.31-.2-.36-.04-.47,.02l-2.03,1.21c-.32,.19-.43,.78-.85,.78-.1,0-.1,.22-.34-.06-.05-.06-.09,.01-.08,.1,.05,.33-.1,.27-.21,.31-.5,.18-1.07,.23-1.43,.71-.28,.38-.68,.45-1.04,.66-.12,.07-.33-.1-.48-.1-.14,0-.26,.07-.37,.14-.07,.04-.18-.03-.15,.27,.01,.16-.08,.24-.17,.14-.29-.34-.39-.13-.55-.09-.45,.13-.9,.29-1.38,.38-.12,.02-.21,.25-.4-.16-.03-.06-.07,.09-.1,.14-.04,.05-.08,.19-.12,.13-.4-.51-.67-.16-1.02-.18-.79-.04-1.65-.14-2.35-.56-.19-.11-.54,.12-.73-.02-.17-.13-.38-.22-.53-.38-.11-.1-.36-.06-.18-.49,.05-.12-.03-.18-.14-.12-.42,.22-.4-.08-.57-.15-.21-.1-.15-.44-.64-.29-.13,.04-.02-.2-.06-.28-.07-.14-.15-.26-.26-.37-.05-.05-.22,0-.28-.06-.42-.38-.83-.78-1.14-1.24-.32-.46-.52-.98-.75-1.47-.22-.49-.46-.97-.6-1.48-.05-.19-.45-.27,.05-.65-.4-.04-.25-.27,.08-.55,.05-.04-.13-.03-.2-.06-.18-.04-.83-.03-.26-.41,.02-.01-.01-.03-.01-.04,.04-.16-.66-.14-.33-.43,.21-.17,.04-.35,.02-.52-.02-.17-.02-.34-.1-.52-.07-.19,.23-.33-.24-.59-.08-.05,.28-.11,.28-.19-.02-.46,.6-.61,.32-1.2-.06-.14,.06-.26,.23-.27,.61-.03,.65-.36,.85-.73,.3-.51,.62-.82,1.26-.48,.14,.07,.22,.14,.17-.09-.03-.15,.07-.17,.13-.21,.71-.42,1.41-.74,2.1-1.07,.19-.09,.57,.26,.68,0,.05-.1,.24,.07,.14-.33-.01-.06,0-.1,.03-.08,.43,.32,.38-.39,.7-.32,.07,.02,.15,.08,.22,.1,.07,.02,.18,.1,.19,.02,.12-.69,.67-.45,.98-.73,.11-.1,.34,.09,.26-.42-.01-.08,.05-.09,.1-.04,.44,.46,.5-.06,.78,0,.14,.03,.15-.32,.44,.09,.04,.05,.06-.01,.08-.06,.03-.08,.02-.24,.07-.25,.14-.03,.38,.17,.44-.03,.07-.24,.24-.22,.37-.28,.08-.04,.24,.14,.34,.16,.09,.02,.16-.05,.24-.08,.11-.04,.2-.16,.34-.1,.15,.06,.06-.45,.3-.17,.18,.21,.13-.27,.22-.35,.04-.04,.12,0,.19,.02,.05,.02,.15,.16,.18,.14,.07-.06,.19,0,.21-.23,.01-.16,.21,.06,.32,.06,.1,0,.18-.06,.27-.09,.09-.03,.22,.03,.26-.11,.2-.6,.67-.43,1.01-.61,.09-.05,.15-.25,.36,.14,.04,.07,.09,.06,.11,0,.17-.69,.68-.33,.98-.61,.22-.19,.4-.49,.68-.51,.27-.02,.56,.02,.75-.25,.16-.22,.32-.43,.54-.38,.22,.05,.19-.83,.57-.17,.2-.05,.39-.12,.6-.14,.17-.01,.3-.24,.56,.13,.1,.14,.21,.1,.24-.05,.11-.49,.34-.41,.6-.24,.06,.04,.08-.18,.13-.2,.17-.06,.34-.14,.53-.12,.56,.07,.98-.52,1.51-.63,.1-.02,.14-.38,.24-.3,.63,.45,1.06-.22,1.64,.02,.84,.35,1.55-.11,2.34-.1,.1,0,.25,.35,.29,.24,.1-.34,.31-.09,.4-.35,.17-.46,.43-.19,.63-.33,.15-.1,.35,.18,.45-.34,.01-.07,.07-.07,.11-.01,.28,.44,.46-.28,.74-.08,.47-.61,1.08-.24,1.74-.31,.1-.01,.21-.12,.32-.18,.06-.03,.13-.1,.17-.05,.53,.68,1.34,.43,1.96,.94,.1,.08,.18,.19,.25,.3l.11,.16,.05,.08-.22,.33c-.37,.56-.5,.82-.62,1.07-.11,.24-.14,.41-.14,.5,0,.07,.03,.1-.01,.04l-.03-.02h0s0,0,0,0h0s0,0,0,0h0l.09,.07h0s.01,.02,.01,.02c.03,.02,.04,.02,.05,.02,0,0-.04,0-.07,.04-.08,.08-.04,.08-.02-.05,.01-.06-.01-.11-.01-.11,0,0,.04,.01,.08,0,.09-.02,.15-.06,.15-.06-.16,.08-.3,.15-.39,.13-.04-.03-.1-.04-.1-.17,0-.12,.13-.24,.21-.29,.3-.17,.5-.22,.79-.06,.14,.09,.32,.31,.32,.65,0,.33-.19,.57-.29,.65-.2,.2-.57,.28-.8,.28-.24,0-.39,.03-.6,.18-.07,.05-.18-.02-.2-.1-.04-.13-.08-.22-.12-.29-.01-.04-.04-.07-.08-.09-.06-.05-.13-.06-.14-.22-.02-.24-.15-.23-.23-.35-.08-.1-.23,.1-.25-.31-.01-.14-.19,.18-.26,.19-.18,.01-.35,.02-.53-.05-.57-.2-1.08,.5-1.69,.41-.36,.61-.86,.15-1.24,.47-.46,.41-.99,.29-1.47,.51-.1,.05-.18,.05-.3-.08-.07-.08-.15-.17-.22-.17-.24,.02-.48,.1-.72,.09-.13,0-.23,.3-.43-.2-.03-.07-.08-.05-.1,.02-.12,.56-.4,.28-.61,.39-.08,.04-.16,.03-.29-.14-.14-.19-.29-.14-.36,.07-.05,.16-.12,.18-.18,.23-.27,.24-.7-.23-.87,.47-.27-.52-.43-.3-.56-.13-.5,.65-1.19,.41-1.77,.66-.14,.06-.35-.14-.51-.15-.17,0-.32,.05-.47,.11-.08,.03-.23-.12-.18,.3,0,.03,0,.06-.02,.05-.11-.04-.24-.17-.32-.11-.07,.05-.07,.34-.13,.43-.07,.11-.17,.15-.26,.18-.09,.03-.17,.15-.34-.18,.05,.46-.12,.27-.2,.33-.08,.06-.17,.06-.26,.08l-.3,.09c-.1,.03-.21,.02-.29,.1-.12,.1-.2,.3-.32,.38-.13,.09-.27,.13-.43,.13-.19,0-.41-.08-.61-.1-.08,0-.11,.12-.13,.3-.03,.23,0,.72-.32,.17-.06-.11-.14-.05-.16,.04-.17,.73-.73,.36-1.05,.66-.37-.37-.47-.03-.64,.18-.25,.3-.55,.49-.96,.35-.43-.16-.69,.13-1.05,.16-.1,0-.13,.21-.37-.16-.05-.08-.11-.03-.13,.04-.09,.52-.39,.5-.77,.35-.2-.08-.29,.15-.38,.37-.13,.32-.46,.26-.7,.37-.31-.43-.18,.09-.14,.32,.05,.31,0,.39-.07,.43-.1,.06-.25,.02-.22,.38,.02,.18-.12,.2-.25,.06-.18-.19-.16-.07-.17,.11,0,.21-.3-.19-.39-.12-.1,.08-.12,.38-.46-.07-.03-.04-.06-.02-.06,.03,.03,.6-.53-.03-.63,.29-.91-.26-1.25,.5-1.85,.62-.23,.04-.73-.11-.64,.13,.07,.27,.05,.34-.03,.41-.08,.06-.22,.11-.2,.23,0,.06,.27,.13-.31,.08-.08,0-.07,.02,0,.04,.54,.15,.38,.14,.06,.24-.08,.02-.05,.06,.08,.06,.38,0,.24,.03,.24,.06,0,.03-.3,.15-.1,.14,.4-.05-.02,.09-.05,.2-.02,.07,.1,.1,.18,.14,.04,.02,.2,0,.17,.03-.35,.35,.33,.3,.22,.55-.02,.05,0,.09-.03,.15-.39,.64-.39,.66,.11,1.07-.54,.4,.41,.19,.03,.54-.14,.13-.05,.22,.1,.24,.66,.06,.4,.56,.7,.77,.06,.04-.29,.3,.06,.2,.13-.04-.15,.25-.1,.31,.07,.08-.07,.3,.35,.17,.17-.05,.1,.1,.17,.14,.09,.05,0,.22,.35,.1,.19-.07,.25,.02,.15,.16-.42,.6,.22,.41,.53,.39,.1,0,.17-.02,.13,.1-.05,.16-.11,.39,.09,.29,.35-.18,.31,0,.41,.06,.16,.1,.26,.26,.43,.32,.18,.05,.26,.32,.56,.07,.16-.13,.29-.26,.18,.3,0,.06,.12-.23,.14-.22,.16,.02,.3,.04,.49,.09,.04,0,.09,.58,.14,.12,.04-.49,.11,.47,.14-.12,0-.09,.05-.08,.07-.03,.33,.59,.61,.06,.98,.13,.09,.02,.13-.24,.33,.21,.06-.58,.66,.4,.63-.51,.22,.08,.25-.42,.62,.06,.06,.08,.07-.08,.13,0,.21,.23-.04-.62,.26-.25,.17,.22,.25,.02,.37,0,.11-.03,.21-.08,.31-.12,.11-.04,.22-.09,.34-.14,.11-.05,.24-.07,.33-.15,.19-.18,.26-.6,.55-.57,.03,0,.04-.08,.02-.16-.24-.72,.05-.38,.21-.23,.14,.13,.23,.19,.3,.15,.18-.1,.36-.22,.56-.27,.12-.03,.13-.31,.45,.06,.1,.11,.18,.04,.18-.08,0-.56,.37-.44,.57-.63,.09-.09,.2-.13,.32-.18,.09-.04,0-.36,.24-.14,.08-.74,.66-.65,1.01-.95,.35-.29,.73-.52,1.12-.75,.1-.06,.06-.33,.43,.03,.07,.07,.13,.02,.1-.08-.1-.26-.15-.4,.13-.15,.05,.05,.06-.05,.04-.13-.04-.21,.03-.25,.22-.16,.14,.07,.28,.08,.27-.05-.01-.35-.02-.65,.46-.35,.06,.04-.09-.27-.05-.28,.17-.05,.14-.36,.53-.16,.16,.08,.16-.08,.25-.1,.16-.03,.1-.34,.32-.32,.22,.02,.28-.18,.4-.29,.13-.11,.26-.21,.38-.32l.37-.34,.37-.34,.37-.33,.36-.35c.09-.08,.2-.11,.43-.05,.57,.15,.8-.16,.82-.76,0-.04,.04-.05,.07-.08,.3-.32,.53-.7,.92-.93,.18-.1,.47-.1,.57-.27,.06-.11,.21-.16,.05-.46-.13-.25,.31-.07,.03-.47-.1-.15-.02-.23,.13-.19,.49,.15,.44-.17,.59-.31,.18-.16,.32-.35,.44-.56,.06-.1,.26-.1,.02-.42-.12-.16,.07-.19,.26-.16,.28,.05,.32-.09,.31-.25-.03-.35-.07-.37,.32-.42,.05,0,.07-.03,.09-.06,.19-.26,.54-.43,.52-.82-.02-.33,.11-.55,.24-.78,.05-.09-.07-.31,.4-.11,.07,.03,.09-.02,.05-.08-.34-.48,.04-.51,.15-.71,.11-.19-.17-.6,.04-.73,.2-.12,.23-.35,.35-.53,.17-.27,.46-.18,1.65,.5,.98,.56,1.14,.76,1.21,1.12,.13,.76-.5,1.08-.63,1.56Z"/>
        </g>
        <g>
          <path class="cls-6" d="M98.6,93.53c-2.98-3.39-34.52-.91-37.15-4.58-6.05-8.47-11.29-19.27-7.46-28.94,1.44-3.64,4.04-6.68,6.68-9.57,9.65-10.52,21.35-20.27,35.44-22.59"/>
          <path class="cls-6" d="M86.41,33.36c-.86,.41-1.74,.77-2.58,1.24-.85,.44-1.69,.9-2.49,1.44-.6,.38-1.41,.47-1.65,1.48-.12,.49-1.15,.18-1.68,.58-.7,.57-1.45,1.07-2.18,1.61-.72,.55-1.45,1.08-2.13,1.69-1.32,1.17-2.46,2.54-3.71,3.79-1.23,1.24-2.8,2.23-3.7,3.72-.77,1.3-2.15,1.8-3,2.95-.91,1.21-1.85,2.4-2.97,3.29-.82,.65-1.65,1.28-2.09,2.18-.27,.56-.22,1.25-.56,1.79-.31,.49-.93,.97-.38,1.74,.05,.06-.18,.24-.34,.31-.67,.39-.93,1.15-.7,1.74,.24,.58,.09,.98,.02,1.43-.12,1.26-.21,2.53-.17,3.84-.01,.49-.06,.99-.07,1.5-.02,.51-.06,1.02,.03,1.54,.13,1.08,.8,2.08,.74,3.16-.01,.54,.06,1.05,.19,1.54,.15,.48,.35,.95,.54,1.42,.21,.53,.19,1.31,1.13,1.4,.09,0,.17,.21,.15,.33-.19,1.98,1.82,2.78,2.5,4.34,.27,.67,.65,1.3,1.05,1.91,.2,.31,.41,.61,.64,.9l.33,.44,.17,.22,.05,.05s.09,.07,.14,.09c.06,.03,0,.06,.09,.08,.1,.04,.36,0,.57-.24,.14-.16,.55-.1,.72,.09,.97,1.03,2.46,.71,3.77,.97,1.53,.29,3.14,.01,4.71,.71,.67,.29,1.59,.48,2.44-.24,.39-.33,1.16,.04,1.75-.02,.49-.05,.97-.38,1.45-.38,.41,0,.81,.32,1.22,.47,.12,.05,.27,.05,.4,.01,2.39-.78,4.72,.43,7.14,.32,2.45-.1,4.91,.13,7.5,.66,.71,.15,1.47,.38,2.15,.83,.33,.22,.68,.54,.92,.87,.31,.43,.46,.78,.55,1.35,.09,.95-.72,1.18-1.2,1.33-.2,.05-.41,.1-.63,.15-.23,.05-.43,.07-.62,.05-.67-.06-1.37-.03-2.08,0-1.46,.03-2.98,.58-4.49,.11-.48-.14-1.06,.2-1.43-.47-.05-.09-.25-.15-.35-.11-2.13,.91-4.27,.16-6.42,.17-1.83,0-3.62,.76-5.47,.35-1.05,.77-2.26,.58-3.29,.29-1.82-.52-3.66-.7-5.55-.87-.95-.09-1.9-.16-2.9-.32-.49-.06-1.01-.17-1.54-.29-.26-.05-.55-.15-.83-.24-.29-.08-.52-.18-.96-.38-.48-.18-.81-.48-1.21-.73-.2-.13-.33-.32-.5-.48-.09-.08-.15-.18-.26-.24l-.22-.27-.81-1.18c-.23-.33-.46-.68-.68-1.02-.45-.68-.91-1.37-1.33-2.08-.88-1.39-1.69-2.85-2.43-4.35-.29-.59-.94-.93-.95-1.78,0-.8-.59-1.58-.92-2.38-.26-.75-.72-1.47-.74-2.26-.04-1.62-.34-3.13-.57-4.7l-.19-1.17c-.05-.39-.08-.79-.12-1.19-.09-.79-.09-1.6-.04-2.4,.2-3.2,1.14-6.39,2.51-9.28,.81-1.76,1.57-3.59,2.89-4.95,.56-.57,.77-1.5,1.85-1.57,.3-.02,.35-.95,.67-1.33,.78-.95,1.65-1.81,2.5-2.7,1.18-1.23,2.44-2.4,3.61-3.65,.73-.74,1.27-1.69,2-2.45,.78-.78,1.59-1.54,2.51-2.18,1.13-.84,2.4-1.49,3.56-2.27,1.22-.8,2.23-2,3.61-2.46,2.5-.91,4.58-2.45,6.95-3.54,2.35-1.08,4.8-1.95,7.23-2.89,1.41-.47,2.86-.23,4.26-.48,.67-.14,1.84,1.56,1.68,2.25-.03,.13-.11,.28-.2,.35-1.19,.84-2.12,1.96-3.52,2.3-1.05,.2-2.06,.6-3.08,.93-1,.41-2,.79-2.98,1.25Z"/>
        </g>
        <g>
          <path class="cls-6" d="M259.92,106.03c-30.16-3.57-61.65,6.14-84.57,26.06-5.09,4.43-9.94,9.61-11.81,16.09-.95,3.31-1.03,7.03,.65,10.03,1.49,2.67,4.17,4.45,6.89,5.84,9.88,5.03,21.3,6.01,32.39,6.18,19.63,.3,39.4-1.68,58.18-7.4"/>
          <path class="cls-5" d="M242.2,169.06c-3.6,.63-7.22,1.1-10.83,1.55-1.35,.18-2.74,.09-4.11,.67-.68,.3-2.03-.13-3.28-.02-3.38,.33-6.79,.4-10.18,.55-3.3,.15-6.59,.35-9.9,.36-3.28,.02-6.66-.36-9.86-.34-2.78,.02-5.22-.69-7.86-1.03-2.8-.36-5.7-.95-8.31-1.98-1.91-.74-3.71-1.64-5.6-2.36-1.16-.5-2.36-.73-3.59-1.47-1.15-.68-2.26-1.72-3.53-2.13-.11-.03-.52-.54-.7-.83-.87-1.33-1.93-2.9-2.64-4.07-.72-1.13-.94-2.3-1.09-3.47-.39-3.25,.29-6.43,1.46-9.21,.88-2.12,2.19-3.95,3.49-5.71,1.35-1.85,2.79-3.82,4.43-5.12,1.64-1.3,3.07-2.63,4.6-3.91,.88-.72,2.05-1.37,2.43-2.38,.04-.1,.37-.36,.55-.45,1.45-.78,2.76-1.7,3.97-2.78,.62-.52,1.21-1.08,1.85-1.58,.65-.49,1.32-.96,2.03-1.37,.73-.43,1.46-.87,2.18-1.33,.72-.46,1.48-.86,2.21-1.31,1.49-.86,2.93-1.83,4.47-2.59,.81-.43,1.75-.73,2.32-1.47,.2-.26,1.05-.73,1.52-.83,1.27-.28,2.48-.77,3.67-1.32,.6-.27,1.18-.57,1.79-.83,.61-.25,1.21-.49,1.83-.71,1.41-.48,2.75-1.11,4.17-1.57,1.41-.47,2.84-.91,4.32-1.18,1.26-.22,2.94-.56,4.27-1.46,.61-.42,2.07-.58,3.12-.85,.86-.24,1.66-.66,2.52-.86,.74-.16,1.51-.17,2.28-.19,.23-.01,.5-.06,.72-.12,2.09-.64,4.23-1.03,6.4-1.14l3.25-.24c1.08-.08,2.17-.1,3.26-.23,1.09-.11,2.19-.23,3.29-.29l3.31-.07c2.21-.08,4.43,.1,6.63,.21,1.22,.04,2.44,.23,3.56,.49,1.12,.27,2.12,.65,2.88,1.21,.68,.5,.62,.97-.41,1.16-.76,.14-1.63,.25-2.47,.23-1.35-.05-2.71-.06-4.02,0-1.37,.04-2.73,.14-4.1,.2-1.37,.13-2.74,.2-4.16,.11-.44-.03-.91,.02-1.37,.03-.46,.03-.9,.02-1.27-.17-.1-.05-.47-.06-.64-.02-1.85,.48-3.76,.62-5.66,.87-1.91,.21-3.85,.32-5.72,.71-3.22,.55-6.16,1.79-9.39,2.34-1.59,1.02-3.65,1.45-5.42,1.85-6.31,1.34-12.14,4.26-17.85,7.14-5.81,2.95-11.28,6.55-16.43,10.52-.86,.7-1.4,1.54-2.56,2.19-1.09,.59-2.19,1.75-3.21,2.71-.95,.88-1.82,1.9-2.74,2.68-3.84,3.22-6.44,7.78-7.36,12.43-.45,2.3-.37,4.71,.56,6.7,.9,1.98,2.72,3.55,4.81,4.72,2.6,1.43,5.55,2.34,8.4,3.39,1.23,.46,2.63,.54,3.77,1.34,.32,.24,1.61,.13,2.44,.28,2.07,.37,4.16,.72,6.27,.96,2.93,.34,5.9,.56,8.87,.61,1.81,.03,3.62-.14,5.44-.19,1.91-.03,3.83-.05,5.73-.02,2.41,.02,4.82,.13,7.24,.07,2.51-.07,5.09-.48,7.49-.44,4.48,.07,8.88-.68,13.28-1.32,4.37-.63,8.74-1.44,13-2.57,2.42-.63,4.73-.8,7.09-1.48,1.09-.32,2.94,.45,2.62,1-.06,.1-.22,.24-.39,.32-2.21,1.07-4.21,2.28-6.95,2.92-4.03,.95-8.08,1.82-12.15,2.52Z"/>
        </g>
        <g>
          <path class="cls-6" d="M131.27,88.69c7.91,17.22,12.65,35.9,13.92,54.81,.29,4.39,.35,9.03-1.68,12.93-2.38,4.58-7.18,7.33-11.89,9.44-17.41,7.8-37.15,10.27-55.94,7-2.52-.44-5.15-.97-7.61-.27-2.75,.79-4.84,2.99-6.66,5.19-3.48,4.2-6.54,8.75-9.11,13.56-.78,1.46-1.55,2.98-2.77,4.1-2.55,2.32-6.96,2.14-9.33-.36-2.36-2.51-2.28-6.92,.19-9.33,.96-.94,2.17-1.56,3.34-2.22,8.07-4.56,14.75-11.53,18.98-19.77-8.04,1.13-16.09,2.27-24.13,3.4-1.37,.19-2.82,.38-4.11-.12-2.83-1.1-3.19-2.3-3.43-5.32-.34-4.24,.11-4.57,2.09-6.73,1.37-1.49,2.08-2.76,6.14-1.5,1.63,.5,2-.03,3.18,1.76,.54,.82,1.52,1.23,2.45,1.55,6.02,2.06,12.6,2.46,18.82,1.12-1.68-2.52-3.37-5.05-5.05-7.57-.88-1.31-1.82-2.69-3.23-3.39-1.19-.59-2.57-.65-3.82-1.11-3.02-1.12-4.73-4.92-3.56-7.92,1.16-3,4.99-4.66,7.97-3.45,4.4,1.78,5.21,7.64,8.26,11.28,3.05,3.63,8.09,4.77,12.77,5.49,13.12,2.03,26.46,2.58,39.7,1.62-4.5-13.1-5.97-27.23-4.26-40.97"/>
          <path class="cls-5" d="M118.84,154.05c.02,.09,.07,.2,.08,.27l-.29,.02-.59,.04-1.17,.08-2.35,.15-3.05,.15c-1.86,.07-3.72,.12-5.59,.14-3.73,.04-7.45-.04-11.17-.21-2.77-.13-5.57-.56-8.49-.39-1.46,.08-4.06-.75-6.6-1.08-3.41-.47-6.95-.91-10.44-2.26-1.73-.68-3.45-1.62-4.91-2.94-1.5-1.32-2.55-3.02-3.39-4.58-.82-1.53-1.52-3.05-2.33-4.33-.8-1.3-1.73-2.31-2.83-2.82-1.04-.54-2.26-.5-3.4-.06-1.13,.44-2.06,1.32-2.45,2.31-.4,.96-.34,2.22,.17,3.31,.51,1.1,1.38,1.95,2.45,2.3,.6,.2,1.41,.32,2.36,.59,.95,.24,2.12,.82,2.9,1.52,.81,.7,1.41,1.46,1.93,2.17,.48,.67,.97,1.34,1.44,2,.82,1.12,1.58,2.23,2.32,3.34,.69,1.05,1.4,2.11,2.04,3.12l.9,1.49,.44,.74,.11,.18s-.13,.03-.19,.05l-.45,.08c-1.17,.21-2.33,.42-3.5,.63l-1.77,.24c-.28,.03-.63,.09-.84,.1l-.51,.04c-1.37,.1-2.74,.15-4.14,.14-2.96-.01-5.98-.39-8.89-1.15-.72-.2-1.45-.41-2.15-.65-.69-.24-1.53-.51-2.42-1.13-.44-.31-.89-.73-1.24-1.26l-.25-.38-.17-.23s-.07-.09-.12-.12c-.02-.02-.03-.02-.15-.05l-.55-.12c-2.29-.72-3.56-1.1-4.25-.46-.25,.2-.56,.53-.91,.92-.35,.38-.7,.73-.99,1.07-.61,.72-.78,1.01-.84,1.77-.06,.95,.12,2.17,.29,3.32,.09,.57,.2,1.11,.34,1.5,.15,.41,.26,.58,.47,.79,.19,.2,.57,.45,1.06,.68l.38,.17c.09,.03,.17,.07,.26,.09,.18,.05,.39,.09,.62,.1,.91,.06,2.13-.24,3.19-.65,.18-.07,1.31-.13,1.89-.14,2.74-.03,6.03-.52,8.25-1.07,2.16-.54,4.1-.78,6.14-1.08l6.17-.89c1.39-.2,2.64-.3,3.97-.46l.98-.11s.12-.03,.09,0l-.06,.11-.12,.22-.24,.45-.96,1.8c-.64,1.18-1.28,2.39-1.93,3.51l-.99,1.61-.48,.77-.32,.46c-.83,1.23-1.73,2.4-2.67,3.54-2.85,3.41-6.21,6.3-9.81,8.83-.94,.66-1.91,1.31-2.9,1.94-.99,.61-2.06,1.24-2.92,1.74-.87,.53-1.53,1.04-1.94,1.6-.45,.57-.77,1.27-.94,2.01-.39,1.48-.02,3.16,.91,4.22,.92,1.08,2.52,1.65,4.07,1.56,.88-.05,1.84-.27,2.56-.78,.71-.46,1.24-1.29,1.44-2.11,.04-.15,.43-.8,.65-1.12,3.67-5.47,6.5-11.42,11.2-16.48,1.27-1.3,2.74-2.61,4.61-3.52,.93-.44,1.97-.78,3-.92,1.03-.15,2.04-.16,2.99-.09,1.92,.13,3.64,.53,5.3,.74l2.51,.36,2.52,.28c.89,.12,1.82,.2,2.73,.27,.91,.07,1.81,.07,2.64-.1,.59-.12,2.47-.03,3.38,.05,4.98,.6,10.25-.08,15.3-.75,5.8-.74,11.42-2.41,17.12-3.93,1.22-.29,2.61-.8,4.05-1.35,1.42-.6,2.86-1.32,4.11-2.15,1.14-.76,3.74-1.81,5.35-3.03,1.35-.98,2.35-2.19,3.31-3.36,.81-1,1.62-1.99,2.19-3.2,.16-.36,.32-.83,.39-1.22,.72-3.78,.38-7.97,.13-12.28-.27-4.28-.67-8.57-1.48-12.82-1.62-8.54-3.77-17.1-6.59-25.37-1.55-4.57-3.3-9.19-3.78-12.59-.2-1.54,.22-1.75,1.32,.04,.82,1.3,1.68,2.85,2.4,4.45,1.13,2.56,2.23,5.14,3.2,7.69,2.01,5.3,4.03,10.62,5.13,16.44,.32,1.81,1.04,3.86,.88,5.43-.02,.22,.09,.96,.19,1.31,1.04,3.79,1.68,7.76,2.09,11.76,.21,2,.35,4.01,.47,6.02,.12,2.01,.2,4.06,.1,6.15-.09,1.77-.3,3.57-.79,5.34-.49,1.77-1.31,3.52-2.41,5.02-2.2,3.05-5.28,5.15-8.47,6.67-3.24,2.25-7.45,3.81-11.17,4.9-13.04,3.82-26.73,5.89-40.32,4.64-1.72-.13-3.43-.38-5.14-.59-1.69-.26-3.45-.54-5.04-.82-1.59-.25-3.09-.38-4.39-.12-1.28,.24-2.47,.93-3.59,1.9-1.13,.97-2.16,2.19-3.21,3.48-1.04,1.29-2.04,2.6-3,3.95-1.92,2.69-3.67,5.51-5.24,8.41-.54,.98-.97,2.04-1.69,3.15-.36,.55-.79,1.12-1.36,1.65-.59,.53-1.3,1.04-2.13,1.34-1.54,.61-3.38,.9-5.24,.62-1.86-.25-3.78-1.18-5.06-2.69-2.36-2.76-2.64-6.85-.96-9.71,.43-.74,.99-1.41,1.62-1.99,.62-.55,1.28-.98,1.92-1.35,1.29-.71,2.37-1.25,3.48-1.92,2.2-1.32,4.28-2.86,6.2-4.57,1.93-1.71,3.7-3.6,5.31-5.61,.81-1,1.57-2.04,2.29-3.11l.27-.4,.14-.22,.24-.37,.35-.57,.16-.28,.08-.14s.08-.11,0-.08l-.61,.08-2.21,.29-7.87,1.09c-2.62,.38-5.24,.75-7.86,1.12-1.33,.18-2.54,.42-4.05,.55-.75,.05-1.58,.05-2.44-.16-.22-.05-.43-.11-.65-.19l-.54-.21c-.35-.15-.7-.31-1.07-.52-.44-.26-.9-.57-1.32-1-.42-.43-.76-.96-.99-1.48-.45-1.06-.55-1.98-.67-2.83-.1-.85-.18-1.65-.22-2.54-.03-.87-.05-1.87,.33-3.04,.42-1.19,1.16-2,1.68-2.6l.79-.9c.26-.3,.57-.66,.98-1.04,.41-.38,.98-.76,1.61-1,.63-.25,1.26-.31,1.83-.33,1.13,0,2.05,.22,2.93,.47l.53,.16c.12,.04,.24,.07,.37,.1,.26,.06,.51,.06,1.2,.23,.62,.17,1.19,.5,1.65,.96,.46,.46,.69,.8,.93,1.15,.09,.13,.11,.16,.26,.28,.12,.1,.31,.22,.54,.35,.45,.25,1.12,.52,1.69,.85,.67,.37,3.15,.62,4.82,.82,2.07,.29,4.17,.4,6.27,.33,.52-.03,1.05-.05,1.57-.1l.86-.08,.29-.04c.08-.03,.27,0,.14-.12l-3.71-5.58c-.82-1.21-1.59-2.06-2.47-2.35-.49-.19-1.18-.31-2.01-.5-.41-.1-.86-.21-1.34-.39l-.72-.31-.67-.38c-2.1-1.38-3.46-3.55-3.83-5.99-.18-1.22-.09-2.53,.35-3.77,.45-1.24,1.23-2.32,2.18-3.15,.99-.88,2.17-1.49,3.43-1.85,1.26-.36,2.64-.43,4-.12,2.75,.63,4.72,2.65,5.88,4.53,1.5,2.41,2.29,4.77,3.43,6.65,.56,.94,1.17,1.71,1.95,2.4,.78,.68,1.69,1.26,2.69,1.73,2.08,.98,4.54,1.48,7.04,1.87,2.54,.38,5.06,.76,7.47,1.12,8.98,1.47,18.11,1.59,27.17,1.25l2.72-.12,.55-.03c.15,.03,.05-.1,.04-.18l-.08-.26-.69-2.34c-.31-1.12-.61-2.24-.88-3.36-1.09-4.5-1.89-9.07-2.35-13.67-.54-5.23-.13-10.03,.2-15.12,.15-2.4,1.81-5.42,2.12-4.4,.06,.19,.11,.58,.1,.97-.14,4.93,.32,9.41,.56,14.96,.2,4.1,.69,8.19,1.48,12.23,.41,2.02,.85,4.03,1.39,6.01,.25,1,.55,1.98,.84,2.96l.11,.37,.2,.65,.41,1.27,.82,2.54Z"/>
        </g>
        <g>
          <path class="cls-6" d="M217.87,135.4c21.15-2.35,42.43-3.52,63.72-3.5,11.77,.01,24.48,.71,33.64,8.1,3.32,2.68,6.14,6.61,5.72,10.86-.4,4.06-3.63,7.25-6.94,9.63-8.7,6.27-19.19,9.56-29.68,11.8-29.08,6.21-59.28,5.08-88.56,10.34-.61,.11-1.24,.23-1.71,.62-.57,.47-.81,1.23-1.01,1.94-1.49,5.18-2.97,10.37-4.46,15.55,2.05,1.93,2.31,5.31,.97,7.78-1.35,2.47-4.03,4.03-6.81,4.47-2.45,.38-5.32-.23-6.58-2.36-2.17-3.67,1.75-7.74,3.99-11.37,1.71-2.77,2.48-6,3.23-9.18-7.66,1.96-14.83,5.8-20.72,11.08-.88,.78-1.76,1.65-2.11,2.77-.29,.92-.2,1.92-.45,2.85-.75,2.73-4.01,3.76-6.78,4.34-2.37,.5-5.34,.78-6.7-1.22-1.79-2.63,1.12-5.86,3.72-7.69,7.89-5.55,15.79-11.11,23.68-16.66-4.48-1.91-9.01,2.39-13.71,3.69-5.03,1.4-10.76-.7-15.45,1.59-2.23,1.08-4.41,3.14-6.78,2.43-.99-.3-1.78-1.07-2.32-1.95-2.14-3.53,.46-8.87,4.56-9.37,2.08-.25,4.13,.55,6.21,.74,3.17,.29,6.27-.83,9.24-1.97,8.29-3.19,16.47-6.69,24.5-10.48"/>
          <path class="cls-5" d="M139.03,184.05c-1.24,.74-2.17,2.24-2.37,3.74-.11,.75-.03,1.49,.22,2.13,.24,.62,.72,1.26,1.2,1.56,.47,.3,.96,.37,1.61,.21,.66-.16,1.44-.59,2.26-1.08,.83-.49,1.73-1.09,2.84-1.53,1.07-.44,2.2-.73,3.29-.87,3.27-.44,6.35,.26,9.17-.4,.69-.17,1.65-.19,2.7-.38,1.06-.19,2.32-.62,3.53-1.22,1.52-.75,3.11-1.61,4.95-2.22,.93-.29,1.94-.51,3.01-.55,1.08-.01,2.19,.2,3.21,.61l2.72,1.1-2.42,1.71c-3.25,2.3-6.51,4.59-9.76,6.88-2.93,2.12-5.86,4.24-8.79,6.36l-4.38,3.19c-.38,.27-.73,.53-1.03,.76-.31,.25-.61,.51-.9,.78-.57,.54-1.09,1.12-1.46,1.7-.37,.57-.61,1.15-.61,1.53-.01,.19,.02,.34,.08,.5,.07,.16,.17,.34,.3,.46,.23,.25,.69,.45,1.34,.53,.65,.08,1.42,.04,2.21-.08,1.6-.26,3.34-.68,4.56-1.33,.63-.32,1.09-.73,1.38-1.13,.12-.21,.24-.41,.29-.63,.07-.21,.09-.46,.12-.85,.04-.63,.04-1.69,.51-2.79,.44-1.04,1.1-1.79,1.69-2.39,.61-.61,1.16-1.04,1.73-1.53,.57-.47,1.15-.92,1.74-1.36,2.35-1.75,4.82-3.26,7.41-4.72,1.8-1,3.68-1.91,5.61-2.69l1.46-.56,2.44-.8c1.74-.49,3.5-.98,5.24-1.44-.47,1.95-.91,3.84-1.41,5.72-.59,2.14-.83,2.76-1.29,3.88-.45,1.08-.99,2.15-1.65,3.16-.64,.99-1.3,1.86-1.93,2.73-1.23,1.69-2.41,3.46-2.61,5.04-.06,.25,0,.46-.02,.68,.06,.2,.05,.41,.15,.59,.04,.09,.06,.19,.11,.28l.16,.26c.1,.19,.23,.32,.36,.45,.54,.53,1.43,.88,2.53,1.04,1.02,.16,2.2,.08,3.32-.3,1.1-.37,2.05-1.03,2.53-1.82,.09-.12,.78-.69,1.07-1.03,.74-.75,1.16-1.95,1.08-3.12-.04-.58-.19-1.12-.43-1.56-.12-.22-.25-.41-.4-.58-.39-.42-.86-.89-1.3-1.29-.03-.03-.06-.05-.08-.07,.23-.95,.45-1.88,.66-2.79,.13-.55,.26-1.09,.4-1.62,.3-1.06,.58-2.1,.88-3.16,.83-2.94,1.67-5.89,2.5-8.84,.1-.35,.21-.75,.4-1.27,.1-.26,.21-.52,.38-.84,.19-.33,.41-.64,.67-.92,.51-.55,1.21-.96,1.9-1.18,.6-.19,1.07-.26,1.44-.33l4.57-.73c4.58-.67,9.15-1.06,13.74-1.5,4.78-.48,9.86-1.15,14.28-1.26,4.44-.1,8.66-.43,12.98-.77,2.45-.19,5.34-.17,7.31-.89,.18-.07,1.1-.14,1.53-.13,7.05,.09,13.81-1.54,20.82-2.4,1.81-.2,3.62-.48,5.44-.78,1.82-.27,3.63-.63,5.44-1,3.63-.71,7.23-1.59,10.74-2.6,1.87-.53,3.91-1.03,5.46-2,.55-.33,2.43-1.06,3.37-1.35,2.57-.77,5.07-1.91,7.45-3.29,2.35-1.39,4.68-2.97,6.61-4.67,2.21-1.94,3.79-4.38,3.8-6.89,.05-2.52-1.38-5.12-3.3-7.36-1.59-1.92-4.64-4.08-7.68-4.89-1.36-.43-4.09-1.66-6.32-2.14-1.82-.42-3.63-.52-5.46-.77-1.56-.21-3.12-.58-4.74-.79-.48-.06-1.07-.12-1.55-.11-4.62,.02-9.27,.03-13.97-.05-4.68-.06-9.38-.12-14.09,.12-9.47,.48-19.07,.97-28.58,1.69-5.24,.39-10.64,.77-14.3,.19-1.65-.27-1.71-.73,.49-1.25,1.62-.39,3.48-.77,5.35-1.01,2.99-.38,5.99-.76,8.9-1.09,6.07-.67,12.09-1.53,18.44-1.6,1.97-.03,4.27-.38,5.91-.02,.23,.05,1.04,.05,1.42,0,8.4-.99,17.16-.7,25.78-.65,3.68,.04,7.32,.1,11,.47,3.67,.37,7.39,1.08,10.97,2.57,2.09,.48,4.28,1.4,6.3,2.65,1.03,.6,1.97,1.34,2.89,2.06,.92,.76,1.76,1.6,2.5,2.46,1.3,1.53,2.44,3.27,3.16,5.28,.74,1.98,.95,4.3,.43,6.44-.5,2.15-1.63,4-2.93,5.52-1.3,1.54-2.79,2.8-4.32,3.93-6.07,4.43-12.94,7.53-19.98,9.63-7.15,2.14-14.41,3.56-21.7,4.73-7.29,1.15-14.61,1.95-21.93,2.59-2.49,.21-4.61,.7-7.54,.7-2.75,0-6.28,.45-9.46,.69-2.92,.23-5.97,.58-8.72,.68-5.7,.2-11.42,.68-17.1,1.41-1.42,.17-2.84,.37-4.26,.58-1.41,.22-2.84,.39-4.24,.65l-4.23,.72c-.36,.06-.66,.12-.86,.18-.17,.05-.22,.09-.32,.17-.09,.1-.11,.12-.22,.34-.09,.21-.18,.49-.28,.83-1.42,4.9-2.84,9.8-4.26,14.69,.04,.05,.09,.09,.13,.14l.06,.08,.03,.04,.1,.15c.27,.4,.5,.83,.68,1.27,.37,.88,.56,1.8,.61,2.72,.11,1.83-.41,3.72-1.46,5.24-1.02,1.51-2.45,2.66-4.01,3.44-1.57,.77-3.25,1.22-5.06,1.25-1.03,0-2.07-.12-3.11-.47-1.03-.34-2.07-.93-2.89-1.83-.82-.91-1.33-2.02-1.53-3.23-.19-1.21,0-2.38,.32-3.39,.68-2,1.73-3.56,2.71-5.03l1.43-2.13c.45-.69,.81-1.33,1.15-2.05,.24-.51,.45-1.05,.64-1.6,.1-.28,.18-.56,.27-.85l.13-.43,.04-.15c.06-.26,.09-.37,.31-.8-.03-.05-.08-.1-.15-.17-.09-.05-.35,.09-.76,.32l-.14,.08-.07,.04-.17,.08-.72,.33c-.48,.21-.94,.44-1.37,.62-4.23,1.81-8.25,4.16-11.82,7.07-1.2,1-2.63,2.14-3.09,2.97-.12,.22-.19,.38-.24,.61-.05,.24-.09,.59-.13,1.02-.04,.43-.09,.96-.25,1.55-.17,.58-.41,1.15-.74,1.65-.66,1.02-1.55,1.76-2.44,2.27-.89,.53-1.79,.88-2.68,1.17-.89,.28-1.74,.49-2.61,.67-.88,.18-1.8,.32-2.79,.36-1.19,.02-2.57-.04-3.97-.82-1.41-.78-2.43-2.24-2.64-3.94-.16-1.69,.44-3.12,1.09-4.18,.68-1.09,1.47-1.98,2.33-2.76,.45-.4,.92-.79,1.41-1.15l1.32-.95,2.61-1.85c1.75-1.22,3.5-2.43,5.24-3.64,4.46-3.02,8.89-6.01,13.35-9.03,.51-.35,1.01-.71,1.53-1.07l.35,3.29c-.8-.34-1.65-.39-2.62-.21-.97,.18-2.01,.6-3.07,1.09-2.14,.98-4.38,2.32-7.08,2.91-2.82,.6-5.47,.34-7.9,.24-2.43-.11-4.75-.08-6.66,.74-.94,.36-1.93,1.06-3.09,1.72-.59,.33-1.23,.65-1.98,.9-.74,.24-1.64,.38-2.54,.25-.89-.12-1.78-.54-2.43-1.07-.67-.54-1.18-1.17-1.57-1.86-.81-1.42-1.06-3.08-.84-4.59,.22-1.51,.83-2.91,1.74-4.11,.92-1.19,2.21-2.16,3.74-2.64,1.59-.49,3.08-.3,4.37-.09,1.3,.23,2.45,.53,3.49,.6,2.12,.16,4.35-.42,6.58-1.23,2.24-.83,4.55-1.77,6.79-2.7,5.13-2.13,9.95-3.73,14.9-5.98,2.3-1.05,5.94-1.37,5.18-.54-.15,.16-.49,.42-.85,.62-4.68,2.62-8.93,5.2-14.63,7.52l-6.33,2.52c-2.11,.8-4.21,1.7-6.57,2.33-1.17,.31-2.4,.54-3.67,.6-1.27,.08-2.62-.09-3.76-.32-1.15-.22-2.18-.46-3.1-.48-.94-.03-1.63,.14-2.35,.56Z"/>
        </g>
        <path class="cls-5" d="M255.31,164.5l-3.96,.81c-.49,.11-1.03-.02-1.47,.52-.22,.27-.79-.19-1.24-.09-1.23,.25-2.49,.37-3.73,.56-1.2,.17-2.38,.47-3.59,.64-1.19,.17-2.46,.04-3.58,.42-.98,.33-1.92,0-2.87,.19-1.01,.21-2.05,.38-3.05,.25-.73-.09-1.46-.22-2.17-.07-.44,.09-.84,.4-1.33,.42-.45,.02-.98-.17-1.34,.39-.03,.05-.24-.03-.35-.1-.52-.31-1.11-.24-1.5,.03-.38,.26-.73,.26-1.1,.3-1.01,.11-2.03,.21-3.05,.24-.76,.02-1.53-.12-2.3-.11-.8,0-1.62,.32-2.38,.12-.76-.2-1.46-.13-2.18-.07-.41,.03-.91-.18-1.2,.39-.03,.05-.18,.06-.26,.02-1.22-.61-2.3,.4-3.5,.32-1.24-.09-2.48,.13-3.73,.24-.33,.03-.7-.11-.98,.3-.1,.14-.45,.18-.62,.09-.95-.48-1.91-.1-2.86-.14-1.08-.05-2.16,.25-3.27-.13-.47-.16-1.1-.24-1.64,.28-.25,.24-.79,.02-1.18,.08-.33,.05-.64,.28-.97,.29-.28,0-.55-.19-.84-.28-.08-.03-.19-.03-.27,0-1.6,.56-3.17-.22-4.78-.13-1.62,.1-3.26-.07-4.87-.3-.89-.11-1.8-.39-2.28-1.42-.22-.47-.16-.94,.24-1.18,.29-.18,.63-.33,.94-.35,.5-.03,1.01-.09,1.49-.14,1.01-.07,2.03-.46,3.05-.16,.32,.1,.71-.15,.95,.3,.03,.06,.17,.1,.23,.07,1.4-.61,2.82-.14,4.23-.18,1.2-.03,2.35-.59,3.56-.38,.65-.55,1.43-.48,2.11-.34,2.39,.49,4.76-.03,7.15-.11,2.42-.08,4.84-.35,7.27-.51,.41-.03,.75-.36,1.25-.16,.47,.19,1.05-.04,1.58-.08,.49-.04,.99-.19,1.46-.1,1.94,.41,3.84-.08,5.75-.17,1.9-.09,3.81-.19,5.69-.48,1.15-.18,2.27-.56,3.45-.54,.5,0,1-.32,1.53,.14,.15,.13,.58-.3,.89-.35,.78-.12,1.57-.17,2.36-.24,1.09-.11,2.19-.17,3.28-.33,.66-.1,1.3-.37,1.96-.48,.69-.12,1.39-.19,2.1-.2,.9-.01,1.79,.07,2.67-.01,.91-.08,1.82-.45,2.72-.36,1.68,.17,3.24-.35,4.84-.64,1.59-.28,3.19-.61,4.72-1.1,.87-.28,1.79-.08,2.66-.32,.4-.11,1.29,.95,1.24,1.41,0,.09-.05,.19-.11,.24-.75,.62-1.39,1.44-2.4,1.66l-4.46,1.04Z"/>
        <path class="cls-5" d="M144.63,39.63c.59,.04,1.07,.09,1.55,.04,.08,0,.17-.27,.26-.26,.37,.03,.77-.2,1.12,.11,.38,.34,.78,.38,1.16,.18,.36-.19,.71-.13,1.07-.18,.12-.02,.24-.07,.36,.23,.09,.22,.27,.25,.4-.14,.03-.07,.08,0,.12,.04,.04,.04,.09,.2,.12,.15,.35-.59,.71-.14,1.06-.29,.09-.04,.18,.14,.26-.25,.02-.1,.1-.12,.13-.02,.07,.24,.14,.29,.22,.29,.36-.02,.73,0,1.09-.02,.17-.51,.37-.29,.56-.29,.14,0,.29,.17,.43,.27,.15,.1,.29-.23,.44,.21,.02,.07,.08-.06,.12-.07,.18-.04,.36-.21,.54-.04,.09,.08,.18,.17,.27,.16,1.13-.03,2.26-.06,3.39-.13,.1,0,.19,.05,.29-.25,.07-.23,.25-.25,.34-.03,.14,.36,.26,.21,.38,.22,.23,.03,.45-.04,.67-.01,.13,.02,.27-.25,.41,.26,.01,.05,.06,.05,.07,0,.12-.5,.29-.1,.44-.04,.11,.04,.22,.03,.32-.22,.1-.24,.29-.29,.41-.05,.16,.33,.28,.21,.42,.21,.78-.03,1.56-.06,2.33-.15,.37-.04,.69-.52,1.08-.37,.09,.04,.17-.16,.28,.19,.02,.07,.09,.02,.11-.07,.08-.32,.19-.21,.3-.2,.52,.03,1.06,.17,1.54-.17,.37-.27,.77-.2,1.15-.31,.13-.04,.28,.19,.42,.23,.13,.04,.26,0,.39-.03,.08-.02,.16,.07,.21-.22,.03-.16,.13-.21,.19-.09,.19,.4,.34,.22,.49,.22,.45-.02,.89-.1,1.34-.12,.11,0,.21-.22,.35,.2,.02,.06,.07-.09,.1-.13,.04-.05,.08-.18,.12-.12,.35,.53,.62,.17,.91,.16,.72-.03,1.43-.19,2.15-.19,.2,0,.33-.4,.53-.4,.19,0,.37-.07,.56-.06,.14,0,.25-.21,.43,.22,.05,.12,.14,.1,.17-.02,.09-.45,.28-.25,.43-.33,.18-.1,.41,.15,.54-.34,.03-.13,.16,.1,.24,.11,.14,.02,.27,.01,.4-.03,.06-.02,.1-.19,.16-.21,.48-.18,.95-.37,1.44-.49,.49-.11,1-.16,1.5-.23,.5-.07,.99-.18,1.5-.2,.19,0,.34-.39,.61,.18,.12-.39,.3-.19,.52,.19,.03,.05,.06-.12,.09-.18,.1-.17,.12-.8,.37-.16,0,.02,.02,0,.03,0,.13,.07,.1-.6,.32-.23,.13,.23,.26,.1,.39,.11,.12,0,.28,.01,.41-.06,.14-.07,.33,.22,.42-.29,.02-.08,.16,.25,.22,.22,.33-.16,.67,.28,.94-.32,.06-.14,.18-.13,.25,0,.28,.42,.52,.19,.8,.02,.35-.22,.73-.29,1.08,.34,.07,.13,.1,.24,.18,.02,.05-.15,.13-.11,.2-.11,.77-.01,1.53,.03,2.29,.04,.21,0,.39,.49,.6,.31,.09-.07,.18,.18,.27-.23,.01-.06,.05-.09,.06-.06,.24,.48,.51-.18,.76,.02,.05,.04,.1,.14,.15,.19,.05,.05,.11,.17,.16,.1,.41-.56,.79-.11,1.19-.24,.14-.04,.27,.22,.41-.26,.02-.07,.08-.06,.1,0,.2,.6,.47,.16,.71,.32,.12,.08,.27-.23,.36,.26,.01,.06,.06,.01,.09-.02,.06-.06,.11-.22,.16-.2,.14,.03,.28,.31,.41,.15,.16-.19,.3-.1,.45-.11,.08,0,.16,.22,.24,.28,.08,.05,.16,.02,.25,.02,.12,0,.24-.07,.35,.04,.11,.12,.23-.39,.34-.04,.09,.27,.22-.2,.33-.24,.06-.02,.11,.04,.16,.09,.04,.04,.07,.21,.11,.19,.09-.02,.17,.07,.28-.14,.07-.15,.18,.13,.27,.17,.09,.04,.19,.02,.28,.02,.09,0,.19,.11,.28,0,.4-.49,.77-.17,1.15-.21,.1-.01,.22-.18,.28,.25,.01,.08,.07,.09,.1,.04,.39-.59,.74-.09,1.12-.25,.27-.11,.53-.33,.8-.27,.26,.06,.52,.19,.78,0,.21-.16,.42-.31,.62-.19,.19,.12,.41-.74,.58,0,.2,0,.4,0,.6,.03,.17,.03,.35-.15,.49,.28,.05,.16,.17,.15,.24,.01,.23-.44,.42-.31,.63-.07,.05,.06,.12-.16,.18-.16,.18-.02,.36-.05,.53,.02,.52,.21,1.04-.29,1.56-.28,.1,0,.21-.34,.29-.25,.5,.56,1.04,0,1.54,.33,.74,.48,1.5,.14,2.24,.25,.1,.01,.2,.37,.25,.27,.14-.33,.3-.06,.42-.3,.21-.45,.42-.15,.63-.27,.15-.08,.32,.21,.45-.3,.02-.07,.07-.06,.1,0,.24,.47,.43-.24,.65-.04,.38-.59,.81-.23,1.21-.37,.06-.02,.11-.15,.16-.22,.03-.04,.05-.12,.08-.08,.39,.55,.7,.05,1.06,.17,.11,.04,.28,.2,.37,.23,.1,.04,.14-.13,.31,.21,.05,.11,.09,.04,.12-.02,.12-.28,.53,.44,.99,1.63,.16,.43,.11,.47,.09,.65-.02,.34-.1,.59-.29,.6-.14,0-.31-.1-.34,.36,0,.08-.07,.08-.12,.03-.32-.32-.49,0-.74-.24-.19-.19-.32-.11-.48-.18-.13-.06-.24,.19-.4-.19-.05-.13-.14,.23-.23,.26-.2,.06-.4,.09-.61,.04-.62-.15-1.2,.56-1.83,.4-.42,.58-.89,.07-1.33,.36-.53,.35-1.06,.16-1.59,.31-.11,.03-.2,.02-.29-.13-.06-.09-.13-.2-.19-.2-.25-.02-.5,.02-.75-.03-.13-.03-.29,.26-.4-.28-.02-.07-.08-.07-.1,0-.23,.53-.46,.2-.69,.26-.09,.02-.17,0-.26-.19-.1-.21-.26-.19-.37,0-.08,.14-.16,.15-.23,.19-.33,.17-.65-.38-.98,.26-.15-.57-.36-.39-.53-.26-.66,.5-1.29,.1-1.94,.17-.16,.02-.3-.23-.46-.28-.16-.06-.33-.04-.5-.02-.09,0-.18-.18-.27,.23,0,.03-.02,.05-.03,.04-.09-.07-.18-.23-.27-.2-.08,.02-.17,.3-.26,.37-.1,.08-.21,.09-.31,.09-.1,0-.21,.09-.28-.28-.1,.45-.2,.22-.3,.25-.1,.03-.19,0-.28,0h-.32c-.11-.02-.21-.06-.32-.02-.15,.06-.3,.22-.44,.26-.16,.04-.31,.04-.46-.02-.19-.07-.37-.22-.56-.31-.08-.04-.15,.07-.24,.23-.11,.21-.26,.68-.37,.05-.02-.12-.12-.09-.17-.01-.44,.62-.84,.07-1.26,.23-.21-.48-.44-.2-.68-.08-.36,.18-.73,.24-1.06-.06-.35-.31-.71-.16-1.06-.28-.1-.04-.21,.14-.28-.29-.02-.1-.09-.07-.14-.01-.31,.43-.58,.29-.86,0-.15-.16-.33,.01-.51,.17-.27,.24-.54,.04-.81,.03-.1-.53-.21,0-.28,.23-.09,.3-.17,.35-.26,.35-.12,0-.24-.09-.37,.24-.07,.17-.2,.12-.26-.06-.08-.25-.12-.14-.2,.02-.1,.19-.19-.3-.31-.28-.13,.02-.29,.28-.38-.27,0-.05-.05-.04-.07,0-.25,.55-.47-.26-.71-.02-.7-.65-1.42-.13-2.12-.35-.29-.09-.59-.5-.87-.25-.56,.55-1.19,.18-1.71,.32-.11,.03-.2,.29-.36-.23-.02-.07-.07-.06-.09,0-.11,.5-.25,.35-.51,.06-.06-.07-.15-.05-.16,.08-.02,.37-.14,.24-.23,.25-.11,0-.3-.29-.33-.1-.07,.41-.22-.01-.33-.07-.07-.03-.12,.08-.18,.15-.03,.03-.04,.2-.06,.16-.28-.41-.38,.26-.61,.11-.05-.03-.1-.02-.15-.06-.57-.51-.57-.52-1.14-.13-.26-.62-.32,.36-.57-.11-.09-.17-.21-.11-.28,.03-.28,.62-.72,.23-1.06,.44-.07,.04-.19-.38-.24-.02-.02,.14-.2-.23-.28-.2-.12,.04-.28-.18-.34,.26-.03,.18-.15,.06-.23,.1-.1,.06-.24-.08-.3,.28-.04,.2-.18,.22-.27,.06-.38-.65-.56,0-.79,.29-.07,.08-.12,.16-.22,.06-.14-.13-.32-.31-.38-.09-.12,.38-.29,.25-.44,.29-.27,.07-.55,.04-.81,.12-.3,.1-.63-.04-.91,.34-.15,.21-.35,.4-.6-.15-.03-.06-.06,.27-.11,.27-.39,.07-.78,.13-1.18,.13-.09,0-.25-.55-.29-.09-.04,.49-.23-.45-.25,.14,0,.08-.08,.09-.13,.03-.52-.55-.95-.03-1.43-.14-.12-.03-.22,.22-.36-.26-.23,.57-.65-.51-.84,.38-.22-.12-.39,.35-.64-.21-.04-.09-.1,.06-.14-.02-.15-.28-.14,.61-.34,.17-.11-.25-.26-.09-.39-.09-.12,0-.24,.02-.36,.03l-.39,.04c-.13,.01-.26-.01-.39,.04-.26,.11-.48,.49-.77,.37-.03-.01-.07,.06-.08,.15-.03,.76-.2,.35-.31,.14-.09-.18-.16-.26-.25-.25-.23,.03-.45,.07-.68,.04-.14-.02-.26,.24-.42-.23-.05-.14-.16-.1-.21,0-.24,.52-.56,.25-.84,.34-.13,.04-.26,.04-.39,.03-.1,0-.18,.33-.3,.02-.44,.64-.97,.27-1.45,.38-.48,.1-.98,.1-1.47,.1-.12,0-.25,.25-.38-.25-.03-.09-.11-.08-.13,.02-.06,.28-.1,.42-.2,.06-.02-.07-.08,.01-.11,.09-.09,.2-.18,.19-.29,0-.09-.14-.2-.22-.28-.11-.2,.29-.39,.55-.63,.03-.03-.06-.09,.28-.13,.26-.19-.06-.36,.23-.56-.17-.08-.16-.19-.03-.28-.07-.16-.07-.3,.21-.48,.06-.18-.15-.36-.02-.54-.02l-.54,.02-.54,.02-.54,.02h-.54s-.54,.02-.54,.02c-.13,0-.24-.06-.37-.25-.33-.5-.72-.43-1.19-.01-.03,.03-.07,0-.11,0-.47,.01-.94,.1-1.4-.03-.2-.06-.41-.29-.62-.25-.14,.03-.27-.05-.41,.26-.11,.26-.27-.19-.41,.28-.05,.17-.18,.16-.24,.02-.21-.47-.44-.23-.66-.27-.25-.05-.5-.04-.76-.01-.12,.01-.24-.15-.38,.24-.07,.19-.21,.06-.3-.11-.14-.25-.28-.21-.41-.1-.29,.22-.29,.27-.56-.03-.03-.04-.07-.04-.1-.04-.35-.02-.7-.21-1.05,.01-.29,.19-.57,.19-.85,.19-.11,0-.25,.22-.32-.28,0-.07-.07-.07-.1,0-.26,.53-.5,.22-.75,.22-.24,0-.48,.42-.72,.29-.22-.12-.46-.05-.69-.07-.35-.03-.4-.33-.29-1.69,.09-1.13,.19-1.36,.48-1.58,.61-.47,1.16-.05,1.64-.17Z"/>
      </g>
    </g>
  </g>
</svg>