<?xml version="1.0" encoding="UTF-8"?>
<svg id="_Слой_2" data-name="Слой 2" xmlns="http://www.w3.org/2000/svg" xmlns:xlink="http://www.w3.org/1999/xlink" viewBox="0 0 373.78 315.3">
  <defs>
    <style>
      .cls-1 {
        fill: none;
      }

      .cls-2 {
        clip-path: url(#clippath);
      }

      .cls-3 {
        fill: #e27f60;
      }

      .cls-4 {
        fill: #147014;
      }

      .cls-5 {
        fill: #349039;
      }

      .cls-6 {
        fill: #37993a;
      }
    </style>
    <clipPath id="clippath">
      <rect class="cls-1" width="373.78" height="315.3"/>
    </clipPath>
  </defs>
  <g id="_верхний_лотос" data-name="верхний лотос">
    <g class="cls-2">
      <g>
        <path class="cls-5" d="M210.47,189.52c-.39,.15-.79,.26-1.15,.49-.13,.08-.4-.17-.3,.53,.05,.35-.39-.35-.51-.27-.32,.23-.73,.26-1.06,.48-.32,.21-.56,.62-.88,.83-.32,.21-.81,0-.99,.52-.16,.45-.65-.04-.87,.21-.23,.27-.5,.48-.9,.32-.29-.12-.6-.3-.76-.09-.1,.13-.07,.56-.22,.59-.14,.03-.42-.23-.23,.56,.02,.07-.1-.04-.17-.14-.34-.43-.5-.33-.48,.05,.01,.37-.11,.37-.21,.43-.28,.16-.57,.31-.9,.35-.25,.03-.58-.16-.83-.15-.26,.02-.38,.46-.74,.18-.36-.28-.56-.18-.78-.1-.12,.05-.4-.25-.21,.55,.02,.08-.03,.08-.08,.03-.72-.86-.58,.57-1.03,.46-.47-.12-.78,.2-1.15,.36-.1,.04-.28-.14-.19,.45,.03,.21-.07,.27-.17,.14-.54-.67-.69-.11-1.02-.14-.38-.04-.61,.42-1.13-.07-.22-.21-.45-.29-.42,.48,.02,.36-.25,.07-.35,.18-.09,.09-.09,.45-.2,.49-.09,.03-.25-.24-.38-.35-.04-.03-.07-.03-.08,.02-.3,.96-1.08-.02-1.54,.32-.47,.35-1.03,.36-1.58,.34-.3-.01-.65-.2-1.07-1.62-.19-.64-.29-1.34-.25-1.78,.03-.32,.08-.62,.16-.71,.13-.15,.24-.35,.36-.49,.25-.3,.4-1.03,.77-.73,.12,.09,.14-.31,.36,.31,.03,.09,.08,.12,.09,.08,.18-1.08,.74-.53,1.13-.7,.33-.16,.45-1.02,.89-.79-.03-.83,.22-.76,.48-.58,.92,.62,1.44-.15,2.15-.28,.73-.12,1.38-.49,2.09-.7,.12-.04,.06-.51,.32-.23,.25,.26,.32-.05,.47-.1,.14-.05,.22-.27,.43-.13,.85,.58,1.22-.12,1.8-.25,.58-.13,1.16-.28,1.64-.69,.29-.25,.46-.8,.86-.78,.17,0,.16-.46,.59,.19,.12,.18,.04-.41,.12-.47,.21-.15,.45-.2,.68-.3,.32-.13,.66-.21,.95-.4,.18-.12,.25-.49,.42-.64,.17-.16,.38-.24,.61-.25,.3-.01,.65,.13,.94,.1,.3-.03,.45-.47,.84-.25,.72,.42,1.08-.08,1.58-.2,.5-.12,1-.26,1.41-.6,.24-.19,.72,.31,.98,.2,.12-.05,.99,1.64,1.18,2.26,.04,.12,.06,.25,.06,.3-.04,.66,.07,1.62-.25,1.68-.47,.09-.88,.33-1.32,.5Z"/>
        <g>
          <path class="cls-6" d="M151.04,260.54c11.74-.45,30.66,2.96,41.03,8.47,.4,.21,.82,.44,1.1,.8,.32,.41,.42,.93,.56,1.43,1.3,4.59,6.36,7.64,11.1,7.07,4.74-.57,8.79-4.39,10.1-8.98,1.01-3.56,.26-7.89-2.76-10.02-3.77-2.66-9.04-.88-13.52-2-1.65-.41-3.16-1.21-4.67-1.99-6.23-3.2-12.62-6.08-19.15-8.61-.13-1.12,7.43-.31,11.14,.03,7.41,.67,14.82,1.34,22.24,2.02,.94,.09,1.9,.18,2.76,.56,1.69,.76,4.37,3.69,6.22,3.87,6.42,.63,4.17,.48,7.5-.95,.87-.37,1.71-.27,2.3-1.01,.53-.68,1.55-1.92,1.77-2.76,1.18-4.46-.83-8.89-4.2-12.04-3.38-3.14-8-3.19-12.36-1.69-1.9,.65-3.97,2.63-5.87,3.29-2.88,1-6,.98-9.05,.94-7-.09-30.33-.89-37.33-.99"/>
          <path class="cls-5" d="M183.78,236.19c4.25,.11,8.5,.28,12.75,.31,1.58,.01,3.18,.37,4.65-.4,.71-.38,2.13,.32,3.34-.03,.38-.11,.84-.25,1.12-.37,.27-.11,.61-.29,.97-.51,.73-.43,1.54-1.01,2.47-1.58,.47-.29,.99-.58,1.59-.86,.27-.13,.69-.29,.92-.35l.8-.25c1.07-.32,2.18-.55,3.32-.7,2.21-.28,4.63-.21,6.95,.66,1.15,.43,2.25,1.04,3.23,1.8,.51,.39,.91,.77,1.32,1.15,.4,.4,.79,.81,1.15,1.25,1.4,1.67,2.48,3.72,3.05,5.95,.29,1.11,.46,2.28,.48,3.44,.02,1.19-.06,2.27-.29,3.51-.06,.25-.13,.5-.21,.74-.07,.19-.16,.4-.25,.59-.08,.16-.15,.31-.23,.45-.15,.28-.3,.52-.45,.75-.15,.23-.3,.44-.45,.64l-.6,.75c-.57,.7-1.32,1.22-2.16,1.5-.21,.07-.42,.13-.64,.18-.19,.05-.5,.11-.53,.11-.17,.03-.23,.03-.25,.03-.49,.17-.89,.33-1.36,.57l-.31,.16c-.12,.06-.24,.13-.37,.18-.25,.12-.5,.22-.77,.29-.52,.16-1.1,.22-1.62,.23h-.43s-.3,0-.3,0l-.58-.02-1.07-.05c-.71-.05-1.42-.1-2.13-.15-.44-.06-.88-.13-1.3-.29-.43-.14-.82-.33-1.09-.48-.62-.33-1.09-.66-1.53-.99-.87-.66-1.57-1.31-2.18-1.88-.37-.35-.75-.67-.9-.8-.16-.15-.46-.28-.88-.39-.41-.1-.98-.18-1.55-.24-.57-.06-1.14-.1-1.72-.12-1.43-.04-2.8,.25-4.36,.07-1.44-.16-3.05-.65-4.38,.03-.11,.06-.75-.15-1.06-.29-.76-.33-1.61-.53-2.45-.62-.21-.02-.42-.04-.62-.04-.14,0-.13,0-.15,0l-.05,.02c-.07,.04-.11,.1-.12,.19,.01,.35,.07,.31,.03,.33-.04,.04,.14,.09-.26-.02-.14-.03-.66-.2-1.18-.24-.38-.07-.66-.1-.65-.06,.04,.06,.72,.23,.9,.31,.14,.05,.12,.09-.05,.17-.22,.11-.06,.28,.17,.44,.12,.08,.26,.16,.41,.23l.73,.36c1.18,.58,2.43,1.65,3.71,1.38,.12-.02,.52,.19,.68,.33,.64,.6,1.33,1.01,2.02,1.22,.69,.2,1.45,.25,2.27,.21,1.64-.07,3.46-.47,5.6-.25,1.09,.12,2.27,.28,3.51,.64,1.24,.35,2.5,.93,3.63,1.77,2.31,1.73,3.61,4.37,4,6.86,.23,1.36,0,2.73,.41,4.03,.18,.46-.1,1.93-.47,2.53-.95,1.65-1.85,3.24-2.98,4.7-1.12,1.46-2.44,2.82-4.06,3.75-1.82,1.07-3.87,1.88-6.08,2.1-2.23,.22-4.47-.26-6.31-1.36-1.57-.95-3.39-2.31-5.38-3.59-.46-.3-.95-.96-1.35-1.77-.21-.4-.36-.85-.54-1.27-.15-.44-.29-.87-.42-1.27-.07-.16-.16-.12-.27-.11-.06,.01-.11,.04-.14,.06l-.04,.03h-.01s-.06-.01-.11-.04c-.73-.33-1.28-.99-2-1.44-.21-.14-.49-.26-.73-.32-2.34-.53-4.55-1.39-6.82-2.22-2.26-.85-4.58-1.66-7-2.08-4.87-.82-9.81-1.69-14.72-2.19-2.72-.27-5.45-.6-7.35-2-.86-.65-.92-1.35,.29-1.8,.88-.34,1.91-.62,2.93-.67,1.64-.08,3.28-.17,4.87-.16,3.3,.02,6.67-.23,10.01,.71,1.03,.31,2.34,.14,3.07,.96,.1,.11,.52,.25,.73,.25,4.68-.05,9.17,1.8,13.59,3.4,1.27,.44,2.53,.87,3.79,1.29,.63,.23,1.26,.48,1.9,.73l.51,.21c.26,.12,.52,.25,.76,.4,.49,.29,.94,.66,1.31,1.1,.37,.45,.65,.97,.85,1.53l.14,.43,.11,.37,.11,.31c.06,.21,.13,.41,.22,.61,.07,.21,.17,.41,.26,.62,.73,.42,1.35,.87,1.99,1.34,.64,.47,1.3,.95,1.97,1.34,1.2,.71,2.59,.96,3.95,.77,1.39-.2,2.77-.85,3.91-1.82,1.16-.96,2.08-2.22,2.7-3.58,.61-1.37,.89-2.77,.83-4.21-.05-1.44-.53-2.77-1.3-3.62-.74-.84-1.89-1.31-3.45-1.5-1.57-.19-3.47-.07-5.57-.11-1.06-.03-2.18-.1-3.36-.32-1.19-.21-2.37-.63-3.38-1.07-1.39-.62-2.61-.78-3.8-1.77-.28-.24-.61-.45-.96-.65-.17-.1-.36-.2-.54-.29-.3-.15-.61-.29-.92-.44-1.46-.66-2.97-1.34-4.4-1.98-1.32-.6-2.76-1.2-4.23-1.81-.73-.31-1.45-.61-2.16-.91-.7-.3-1.33-.6-1.94-.88-.82-.39-1.64-.78-2.47-1.18,.22-.79,.14-1.35-.23-1.82-.36-.47-.76-.86-1.14-1.19l-.04-.03c.08,0,.03-.08,.05-.12,.02-.1,.05-.18,.08-.24,.06-.13,.15-.2,.23-.27,.15-.14,.31-.24,.46-.34,.3-.19,.66-.34,1-.49,.7-.3,1.51-.6,2.94-.75,1.54-.16,4.02,0,6.55,.23l7.62,.72,5.24,.45c1.52,.12,3.04,.22,4.55,.31,1.85,.1,3.7,.13,5.56,.19,.96,.04,1.76,.04,2.94,.18,.58,.08,1.25,.21,1.95,.48,.34,.13,.72,.32,1.03,.5,.29,.18,.55,.35,.78,.52,1.49,1.15,2.93,1.87,3.47,3.01,.14,.22,.38,.18,.55,.05,.39-.07,1.02-.13,1.44-.1l1.51,.11,.67,.04c.12,0,.17,0,.21,0,.04,0,.09-.02,.13-.04l.37-.21c.54-.3,1.12-.57,1.67-.81,.4-.17,.79-.28,1.08-.35l.23-.06c.08-.02,.15-.08,.2-.15l.29-.37c.13-.18,.26-.35,.37-.5,.11-.16,.2-.31,.26-.41,.02-.04,.04-.08,.06-.13,.36-1.32,.29-2.92-.25-4.36-.57-1.56-1.8-2.84-3.05-4.02l-.5-.45-.44-.35c-.3-.21-.61-.41-.94-.58-.65-.34-1.36-.58-2.15-.73-.99-.2-2.1-.24-3.26-.12-.58,.06-1.17,.16-1.76,.3l-.75,.2c-.2,.07-.42,.16-.67,.3-1.07,.55-2.22,1.58-3.96,2.5-.43,.22-1.05,.47-1.43,.58-.43,.14-.86,.26-1.29,.35-.86,.19-1.7,.28-2.5,.28-3.01-.01-5.63-.23-8.26-.3-2.64-.08-5.27-.08-7.91-.19-5.24-.21-10.49-.41-15.72-.39-2.97,.01-5.67-.71-8.57-.78-1.35-.03-3.16-1.97-2.59-2.6,.11-.12,.33-.24,.56-.29,2.85-.52,5.47-1.38,8.73-1.24,4.81,.22,9.63,.28,14.45,.41Z"/>
        </g>
        <g>
          <path class="cls-6" d="M93.42,166.49c4.15-.86,8.45,0,12.6,.85,8.17,1.68,16.35,3.36,24.52,5.04,11.09,2.28,22.31,4.6,32.52,9.5,10.21,4.89,19.36,10.41,27,18.78,2.37,2.6,5.31,8.16,4.81,10.89-1.4,7.57-8.37,20-15.28,23.39-13.96,6.84-35.21,3.76-50.76,3.24-15.54-.53-30.88-3.58-46.13-6.63"/>
          <path class="cls-6" d="M104.87,233.22c3.87,.63,7.74,1.22,11.63,1.58,1.44,.14,2.89,.61,4.45,.06,.77-.29,2.1,.66,3.44,.7,3.68,.17,7.36,.33,11.04,.5,3.6,.13,7.17,.08,10.72,.16,3.51,.09,7.12,.56,10.45,.08,2.88-.39,5.48,.07,8.19-.36,2.86-.48,5.69-1.14,8.42-1.58,.97-.22,1.96-.39,2.92-.66,.47-.16,.93-.33,1.38-.52,.43-.19,.96-.37,1.28-.63,.22-.15,.43-.32,.63-.49,.2-.19,.38-.41,.57-.61,.39-.38,.75-.87,1.24-1.26,.45-.37,.95-.79,1.39-1.23,.41-.49,.74-1.02,.77-1.68,0-.11,.46-.45,.72-.61,1.25-.72,2.17-2.16,2.48-3.31,.28-1.13,.82-1.94,1.29-2.86,1.3-2.51,2.41-5.14,3.22-7.7,.17-.48,.3-.95,.44-1.41l.11-.35,.03-.09h0c-.06-.01,.52,.09,.27,.05h0s-.02,0-.02,0h-.03s-.07-.02-.07-.02l-.13-.03s0-.01,0-.02c.04,.01,.03-.17,.07-.26,.03-.6-.14-1.55-.46-2.45-.69-1.91-2.21-3.76-3.04-5.34-.18-.37-.53-.83-.83-1.23-.32-.41-.64-.81-.99-1.18-.69-.76-1.43-1.46-2.2-2.16-.87-.79-1.68-1.98-2.95-1.95-.12,0-.45-.28-.56-.46-1.99-2.93-5.55-3.68-8.3-5.66-2.88-2.05-6.2-3.61-9.48-5.16-.88-.43-1.7-1.07-2.73-.89-.36,.05-1.27-.31-1.66-.63-2.1-1.76-4.91-2.26-7.45-3.2-2.92-1.08-6.03-1.54-8.96-2.88-1.24-.57-3.01-1.13-4.75-.73-.8,.18-2.24-.49-3.39-.65-.95-.13-1.93,.02-2.86-.16-.79-.15-1.53-.62-2.3-.92-.23-.09-.52-.15-.77-.16-4.74-.1-9.05-2.15-13.69-2.87-2.33-.36-4.66-.81-6.99-1.29-2.34-.48-4.63-1.05-6.79-1.41-2.43-.42-4.61-.65-6.47-1.8-.84-.52-1.07-1.2,.01-1.82,.79-.44,1.77-.8,2.77-.88,1.59-.14,3.17-.15,4.68-.06,3.16,.23,6.19,.25,9.19,1.21,.93,.31,2.12,.16,2.78,.96,.09,.11,.47,.24,.67,.23,4.28-.16,8.39,1.37,12.55,2.15,3.55,.67,7.13,.57,10.65,1.68,2.14-.37,4.45,.3,6.39,1.02,3.43,1.28,6.92,2.3,10.42,3.43,3.49,1.14,7,2.38,10.31,4.05,6.56,3.3,13.19,6.82,19.1,11.52,1,.8,2.16,1.14,3.07,2.41,.85,1.17,2.36,2.23,3.53,3.4,.54,.53,1.09,1.08,1.63,1.62,.26,.25,.56,.6,.83,.93,.25,.33,.49,.67,.67,1.02,.78,1.42,1.45,2.8,2.08,4.24,.62,1.44,1.21,2.89,1.57,4.63,.08,.46,.16,.89,.17,1.43,.01,.25,.02,.51-.02,.82l-.05,.44c-.02,.14-.04,.21-.06,.31-.16,.77-.31,1.55-.53,2.28-.39,1.49-.92,2.91-1.5,4.29-1.2,2.73-2.62,5.33-4.23,7.83-1.62,2.5-3.4,4.9-5.56,7.12-1.33,1.33-2.81,2.69-4.65,3.71-.83,.42-1.68,.84-2.53,1.23-.87,.35-1.76,.62-2.65,.88-.76,.24-1.53,.48-2.31,.7-.78,.2-1.58,.34-2.41,.09-.46-.14-1.78,.73-2.77,.9-2.44,.42-4.91,.62-7.35,.75-3.4,.21-6.76,.12-10.11,.13-2.04,0-4.06,.23-6.09,.2-2.12-.03-4.25-.16-6.34-.36-2.65-.25-5.27-.69-7.89-.87-1.34-.1-2.79-.09-4.22-.12-1.42-.05-2.83-.12-4.15-.42-4.92-1.04-9.87-1.31-14.76-2.13-4.85-.81-9.68-1.73-14.5-2.49-2.74-.43-5.09-1.56-7.74-2.07-1.24-.24-2.53-2.43-1.9-2.96,.12-.1,.35-.19,.56-.19,2.71-.07,5.27-.51,8.23,.13,4.36,.94,8.76,1.68,13.15,2.39Z"/>
        </g>
        <g>
          <path class="cls-5" d="M76.25,118.83c-17.44-.98-34.39,6.95-48,17.9-3.68,2.96-7.2,6.19-9.82,10.12-2.61,3.93-4.26,8.64-3.86,13.34,.08,.95,.26,1.93,.84,2.69,.74,.97,1.99,1.38,3.16,1.73,10.95,3.23,22.29,5.18,33.69,5.81"/>
          <path class="cls-5" d="M40.96,171.8l-5.95-.87c-.74-.1-1.43-.57-2.32-.03-.45,.27-1-.68-1.68-.77-1.85-.28-3.65-.79-5.49-1.15-1.79-.34-3.61-.53-5.39-.93-.89-.21-1.73-.53-2.62-.82-.94-.34-2.06-.64-3.46-1.49-.43-.26-.8-.6-1.1-.98-.71-.87-1.02-2.04-1.1-2.83-.1-.85-.07-1.52-.17-2.19-.26-1.74-.18-3.61,.45-5.2,.47-1.16,1.06-2.2,1.34-3.35,.17-.72,.06-1.52,.43-2.25,.34-.68,1.04-1.25,.66-2.22-.03-.08,.27-.3,.45-.39,.86-.44,1.36-1.24,1.46-2,.1-.73,.48-1.17,.84-1.66,1-1.33,2.09-2.57,3.29-3.66,.9-.82,1.98-1.4,2.92-2.12,.97-.75,1.74-1.87,2.86-2.27,1.13-.39,1.96-1.06,2.82-1.73,.5-.38,1.31-.5,1.24-1.46,0-.09,.19-.22,.31-.23,1.03-.1,1.7-.67,2.33-1.31,.64-.64,1.21-1.4,2.05-1.77,.87-.38,1.68-.87,2.47-1.39,.81-.5,1.62-1,2.43-1.5,.43-.27,1.03-.3,1.16-1.04,.05-.26,.51-.53,.81-.52,1.6,.04,2.73-1.01,4.1-1.51,.77-.29,1.52-.63,2.28-.96,.76-.32,1.55-.59,2.45-.57,.75,0,1.68-.2,2.23-1.19,.26-.45,1.14-.36,1.7-.62,.46-.21,.82-.69,1.29-.85,.41-.12,.9,.06,1.35,.09,.13,0,.29-.03,.4-.1,.53-.36,1.1-.61,1.69-.77,.59-.14,1.2-.21,1.81-.27,1.22-.13,2.46-.08,3.65-.38,2.41-.6,4.94-.69,7.42-.63,1.37,.03,2.8,.35,3.63,1.83,.37,.67,.32,1.38-.24,1.79-.42,.3-.88,.58-1.33,.64-.73,.11-1.45,.24-2.14,.41-.72,.15-1.44,.41-2.15,.59-.71,.19-1.43,.37-2.19,.25-.48-.06-.97,.35-1.43-.23-.06-.08-.26-.1-.35-.04-.92,.67-1.9,.87-2.91,1.05-1,.19-2.05,.22-3.02,.51-.83,.25-1.6,.68-2.37,1.06-.77,.41-1.54,.78-2.42,.88-.66,1.04-1.72,1.33-2.72,1.43-3.5,.43-6.41,2.44-9.47,3.97-3.11,1.6-6.01,3.58-8.89,5.58-.49,.35-.63,1.02-1.41,1.14-.74,.11-1.24,.86-1.85,1.33-.55,.43-1.03,1.01-1.67,1.28-2.66,1.09-4.4,3.31-6.23,5.22-1.85,1.9-3.46,4.02-4.38,6.41-.56,1.47-.64,3.02-1.13,4.42-.21,.62,.12,1.31-.7,1.85-.24,.16,.3,.8,.32,1.19,.04,.95,.09,2.14,.24,2.52,.03,.08,.05,.13,.09,.19,.08,.1,.09,.14,.45,.31,.32,.15,.8,.3,1.41,.44,.96,.22,1.97,.2,2.94,.37,1.01,.2,2.01,.45,2.98,.78,1.24,.4,2.43,.97,3.69,1.32,1.3,.37,2.75,.31,3.95,.89,2.24,1.1,4.68,1.16,7.05,1.57,2.35,.41,4.74,.73,7.13,.79,1.35,.03,2.54,.77,3.87,.85,.61,.03,1.35,1.98,1.06,2.61-.06,.12-.17,.24-.27,.28-1.36,.52-2.65,1.36-4.18,1.18-2.25-.29-4.52-.46-6.77-.75Z"/>
        </g>
        <g>
          <path class="cls-6" d="M155.54,195.77c-1.99,2.42-5.3,3.42-8.44,3.41-3.14,0-6.2-.88-9.25-1.59-19.05-4.37-38.91-2.13-58.45-2.72-9.62-.29-19.37-1.26-28.77,.82-9.39,2.08-18.64,7.95-21.66,17.08-3.61,10.89,2.86,23.1,12.28,29.64,9.42,6.54,21.14,8.67,32.48,10.4,20.56,3.14,41.25,5.53,62.01,6.85,3.95,.25,7.9,.46,11.85,.68,4.48,.24,8.96,.48,13.45,.72"/>
          <path class="cls-5" d="M134.4,262.01c-4.74-.31-9.47-.72-14.21-1.06-1.76-.13-3.53-.62-5.42-.12-.95,.25-2.56-.72-4.19-.86-4.41-.36-8.81-.97-13.21-1.43-4.28-.44-8.57-.72-12.85-1.23-4.24-.51-8.53-1.53-12.67-1.75-3.59-.2-6.69-1.38-10.12-1.97-3.64-.62-7.43-1.53-10.8-3.1-2.45-1.14-4.77-2.47-7.2-3.64-1.5-.75-3.08-1.22-4.6-2.35-.69-.54-1.41-1.15-2.09-1.76-.7-.57-1.43-1.07-2.25-1.33-.14-.04-.61-.7-.81-1.06-.91-1.76-2.4-3.47-3.56-4.61-.59-.54-1.06-1.11-1.45-1.73-.39-.61-.77-1.22-1.08-1.88-1.86-3.56-3.17-7.57-3.25-11.77-.1-3.14,.67-6.25,1.79-9.14,1.16-2.99,2.76-6.18,5.06-8.06,2.26-1.88,4.37-3.58,6.72-5.05,1.33-.87,3.11-1.33,3.94-2.61,.08-.13,.62-.36,.9-.4,2.27-.4,4.3-1.14,6.43-1.83,2.1-.68,4.24-1.32,6.46-1.42,4.56-.23,9.15-.38,13.63-.27,1.19,.03,2.45,.32,3.56-.22,.39-.19,1.63-.16,2.22,.01,3.22,.95,6.6,.55,9.91,.7,3.78,.18,7.58-.24,11.43,.34,1.63,.25,3.85,.36,5.81-.41,.9-.35,2.78-.02,4.19-.1,1.16-.06,2.28-.42,3.43-.41,.98,0,1.96,.31,2.95,.48,.29,.05,.66,.06,.95,.03,5.7-.7,11.3,.82,17.01,1.42,1.44,.19,2.89,.36,4.32,.63,1.43,.28,2.89,.55,4.29,.9,2.78,.68,5.32,1.34,7.66,1.36,1.26,.02,2.51-.13,3.64-.3,1.15-.17,2.18-.36,3.35-.5,1.02-.16,1.73,.18,.99,1.53-.56,.95-1.5,1.91-2.64,2.46-1.81,.89-3.79,1.38-5.73,1.47-4.01,.2-7.79-.39-11.21-1.41-1.09-.35-2.46-.23-3.28-1.01-.11-.11-.57-.24-.8-.23-4.96,.22-9.92-.88-14.94-1.02-4.27-.11-8.4,.67-12.73,.35-2.37,.82-5.18,.72-7.6,.5-4.28-.38-8.57-.39-12.9-.43-4.33-.02-8.67-.12-12.89-.35-4.29-.22-8.52-.28-12.66,.07-4.14,.36-8.15,1.13-11.86,2.58-.63,.26-1.18,.59-1.74,.94-.57,.33-1.16,.66-1.94,.89-1.46,.43-2.97,1.68-4.26,2.78-1.19,1.01-2.25,2.23-3.27,3.24-1.09,1.03-2.05,2.22-2.74,3.56-.39,.65-.63,1.36-.93,2.06-.19,.73-.45,1.44-.57,2.19-.54,2.98-.26,6.07,.52,9.05,1.6,5.94,5.51,11.49,10.65,15.05,1.55,1.11,3.3,2,5.05,2.81,1.75,.83,3.57,1.54,5.38,2.33,1.55,.68,3.37,.81,4.78,2.01,.4,.35,2.1,.21,3.18,.45,2.68,.6,5.39,1.18,8.15,1.66,3.82,.66,7.72,1.29,11.61,1.79,2.37,.3,4.76,.32,7.14,.56,2.49,.26,4.99,.59,7.47,.98,3.14,.49,6.24,1.14,9.39,1.57,3.26,.45,6.71,.46,9.8,1.12,5.77,1.23,11.62,1.39,17.45,1.89,5.78,.5,11.62,.83,17.43,1.01,3.31,.09,6.28,.89,9.5,1.06,1.51,.08,3.43,2.08,2.78,2.69-.12,.12-.38,.23-.63,.27-3.19,.43-6.14,1.2-9.77,.94-5.34-.38-10.72-.62-16.08-.94Z"/>
        </g>
        <g>
          <path class="cls-5" d="M214.97,72.84c6.9-5.32,13.81-10.63,20.71-15.95,2.31-1.78,4.63-3.57,7.22-4.92,2-1.05,4.15-1.82,6.36-2.29,3.88-.83,8.08-.68,11.64,1.06,3.57,1.74,6.39,5.24,6.7,9.2"/>
          <path class="cls-5" d="M263.5,55.95c-.51-.67-1.09-1.33-1.81-1.81-.26-.17-.35-.65-1-.25-.32,.21-.14-.65-.42-.76-.74-.3-1.47-.73-2.29-.89-.8-.16-1.65-.03-2.45-.04-.79-.01-1.64-.42-2.42,.03-.65,.39-1.32-.2-1.97,.05-.68,.27-1.35,.5-2.11,.38-.55-.09-1.13-.21-1.58,.08-.28,.18-.42,.67-.76,.76-.3,.08-.78-.1-.72,.75,0,.07-.18,0-.29-.08-.52-.34-.91-.12-1,.32-.09,.44-.33,.51-.55,.65-.6,.38-1.2,.78-1.87,1.11-.5,.25-1.13,.32-1.65,.59-.54,.28-.84,.96-1.53,1-.69,.03-1.12,.39-1.58,.74-.26,.2-.79,.14-.5,.95,.03,.08-.08,.14-.16,.13-1.39-.27-1.27,1.4-2.18,1.76-.94,.38-1.62,1.15-2.38,1.77-.2,.17-.57,.15-.41,.77,.06,.22-.15,.4-.34,.37-1.07-.19-1.38,.67-2.06,1.02-.77,.4-1.22,1.22-2.29,1.25-.45,.01-.93,.2-.82,1.07,.05,.4-.49,.38-.69,.63-.16,.21-.15,.64-.35,.8-.17,.14-.52,.03-.79,.05-.08,0-.14,.05-.17,.13-.47,1.44-2.15,1.29-3.01,2.25-.86,.96-1.94,1.66-3.02,2.34-.6,.38-1.31,.63-2.59-.25-.57-.39-1.01-.96-1.03-1.47-.01-.38,0-.76,.16-.97,.24-.34,.45-.73,.69-1.06,.49-.69,.71-1.72,1.6-1.95,.28-.07,.28-.56,.85-.18,.08,.05,.19,.03,.21-.04,.26-1.49,1.59-1.67,2.45-2.42,.73-.64,.98-1.85,1.97-2.18-.07-.97,.52-1.24,1.1-1.38,2.04-.49,3.21-2.12,4.8-3.2,1.61-1.09,3.09-2.38,4.66-3.52,.27-.2,.21-.73,.74-.69,.49,.04,.71-.46,1.05-.72,.31-.24,.54-.63,.97-.7,1.76-.26,2.77-1.6,4.24-2.38,1.45-.77,2.99-1.44,4.46-2.22,.9-.48,1.74-1.22,2.8-1.32,.44-.04,.81-.57,1.39,.08,.16,.19,.45-.47,.73-.54,.69-.18,1.41-.24,2.13-.3,1-.09,2.01-.06,3.03-.09,.62-.02,1.27-.28,1.92-.27,.68,0,1.36,.14,2,.37,.82,.3,1.56,.81,2.32,1.21,.78,.39,1.81,.5,2.37,1.27,1.01,1.37,2.36,2.11,3.36,3.36,.96,1.24,1.74,2.59,2.47,4.03,.42,.84,0,1.82,.14,2.65,.06,.44-1.77,1.09-2.43,.99-.13-.01-.26-.05-.31-.1-.65-.6-1.68-.86-1.8-1.45-.21-.9-.72-1.72-1.29-2.49Z"/>
        </g>
        <g>
          <path class="cls-6" d="M48.79,193.67c2.93-23.52,13.61-45.27,24.5-66.32,4.08-7.89,8.36-15.94,15.03-21.81,11.92-10.51,28.97-12.13,44.74-14.06,32.65-3.99,64.88-11.37,96.01-21.99,10.68-3.64,21.49-7.71,32.77-7.84,7.89-.09,15.74,1.78,22.98,4.93,2.99,1.3,5.94,2.85,8.29,5.11,4.37,4.22,8.95,11.3,6.05,16.64-3.35,6.18-6.85,7.32-19.19,21.47,29.85-9.97,30.71,.63,28.88,7.54-2.28,8.63-8.73,20.68-16.41,29.56-2.82,3.26-18.69,19.04-28.21,21.79-29.62,8.57-62.69,24.56-77.21,24.99"/>
          <path class="cls-6" d="M233.66,176.53c8.36-3.1,16.8-6.1,25.35-8.82,1.58-.5,3.29-.91,4.82-1.41,.68-.26,1.36-.48,2.04-.91,.34-.2,.67-.4,.99-.61,.32-.25,.64-.5,.94-.78,.61-.51,1.64-1.04,2.85-1.62,1.19-.63,2.55-1.33,3.72-2.25,3.19-2.47,6.31-5.13,9.31-7.91,1.51-1.38,2.98-2.81,4.42-4.25,.71-.72,1.43-1.46,2.08-2.18,.63-.69,1.28-1.52,1.91-2.28,4.82-6.15,8.68-13.11,11.66-20.27,.72-1.78,1.4-3.57,1.97-5.38l.4-1.35c.11-.42,.21-.84,.29-1.25,.16-.82,.23-1.63,.19-2.35-.08-1.49-.55-2.42-1.48-3.07-.47-.33-1.08-.6-1.8-.77-.33-.11-.74-.14-1.11-.21-.4-.02-.78-.08-1.2-.08-1.41-.03-2.87,.05-4.34,.19-1.46,.13-2.94,.33-4.41,.57l-1.82,.35c-.72,.16-1.43,.31-2.16,.51l-2.16,.56-1.07,.28-1.13,.34c-3.01,.91-6.05,1.87-9.28,2.95-1.24,.41-2.48,.83-3.75,1.25,.45-.67,1.47-1.8,2.33-2.81,.89-1.03,1.79-2.06,2.69-3.1,1.78-2.05,3.62-4.14,5.51-6.24,.92-1.04,1.96-2.1,2.94-3.14l1.49-1.55,.89-.89c1.11-1.09,2.24-2.15,3.35-3.15,1.79-1.63,3.56-3.17,4.93-4.81,.68-.83,1.31-1.7,1.84-2.66,.16-.26,.22-.43,.3-.61,.08-.18,.18-.36,.21-.57,.13-.38,.16-.8,.2-1.22,.03-1.06-.31-2.18-.82-3.28-.51-1.11-1.19-2.23-1.96-3.44-1.4-2.22-3.44-4.98-5.67-5.56-.18-.06-1.06-.83-1.54-1.24-2.23-1.94-5.97-3.41-8.52-3.9-2.51-.49-4.64-1.12-6.93-1.57-6.31-1.29-12.67-1.26-19.06-.14-4.79,.8-9.62,1.91-14.44,3.42-2.51,.79-5.08,1.75-7.63,2.66-2.56,.9-5.1,1.74-7.5,2.33-4.85,1.15-9.37,2.59-14.04,3.94-2.65,.79-5.86,1.29-7.83,2.68-.18,.13-1.18,.4-1.66,.46-7.88,1.03-15.07,4.21-22.96,5.65-8.1,1.48-16.37,3.26-24.62,4.63-2.2,.36-4.59,.48-6.53,1.38-.69,.31-3,.66-4.15,.67-6.22,.08-12.65,1.25-18.8,1.97-7.05,.84-13.85,2.46-20.49,4.38-2.81,.79-6.55,2.45-8.93,5.06-.27,.3-.66,.61-1.1,.95-.42,.37-.91,.76-1.43,1.16-1.06,.77-2.1,1.75-2.93,2.64-1.35,1.51-2.31,3.24-3.48,4.87-1,1.39-2.21,2.68-3.27,4.13-.31,.43-.66,.99-.88,1.47-2.19,4.6-4.58,9.25-7.11,13.83-2.5,4.58-5.04,9.15-7.14,13.94-4.22,9.63-8.29,19.42-11.19,29.46-1.61,5.54-2.97,11.26-4.91,14.98-.91,1.67-1.62,1.62-1.67-.93-.01-.93-.04-1.95,.02-2.98,.07-1.03,.17-2.09,.33-3.14,.25-1.68,.59-3.35,.88-5.01,.34-1.65,.69-3.29,1.07-4.91,1.63-6.68,3.32-13.37,6.4-19.82,.95-2,1.64-4.53,2.98-5.93,.19-.19,.61-1,.74-1.41,2.99-9.03,8.07-17.44,12.45-25.96,1.91-3.64,3.74-7.31,6.05-10.82,2.3-3.49,5.08-6.88,8.68-9.47,1.61-1.86,3.78-3.44,6.07-4.77,2.32-1.26,4.76-2.3,7.07-2.98,8.11-2.54,16.28-3.73,24.32-4.8,8.05-1,15.91-2.09,23.83-3.3,16.04-2.42,31.92-5.9,47.61-10.01,2.68-.68,4.84-1.79,8.05-2.31,3.01-.52,6.72-1.88,10.1-2.93,3.1-.96,6.29-2.15,9.25-2.93,6.15-1.55,12.2-3.74,18.47-5.58,6.26-1.82,12.83-3.33,19.58-3.28,6.7,.04,13.31,1.4,19.52,3.67,3.1,1.15,6.13,2.39,9.12,4.21,1.47,.9,2.93,2.01,4.17,3.26,1.23,1.2,2.36,2.49,3.39,3.88,1.25,1.7,2.39,3.53,3.21,5.65,.78,2.1,1.32,4.58,.75,7.2-.24,1.28-.93,2.62-1.4,3.45-.52,.94-1.13,1.86-1.78,2.73-1.32,1.74-2.78,3.21-4.21,4.58-1.22,1.17-2.36,2.42-3.54,3.62l-.89,.89-.46,.43c-.07,.06-.09,.05-.14,.08-.17,.08-.4,.16-.83,.33-.24,.1-.36,.36-.34,.52,0,.18,.18,.22,.1,.34l-.17,.22-.09,.11s.1-.03,.14-.04c.37-.13,.7-.23,1.05-.32l.53-.12,.29-.06,.7-.14,.8-.14c1.91-.35,3.88-.6,5.91-.68,2.03-.07,4.14,0,6.35,.56,1.11,.31,2.24,.73,3.34,1.4,1.09,.67,2.12,1.64,2.86,2.78,.75,1.15,1.19,2.43,1.39,3.65,.21,1.22,.21,2.4,.12,3.51-.12,1.34-.38,2.66-.68,3.83-.28,1.18-.61,2.32-.96,3.46-.7,2.27-1.54,4.47-2.51,6.61-2.03,4.49-4.52,8.77-7.34,12.79-1.8,2.54-3.75,4.97-5.85,7.28-1.13,1.24-2.22,2.25-3.33,3.33l-3.36,3.12c-4.66,4.27-9.49,8.83-14.9,11.98-2.52,1.45-5.1,2.84-8.19,3.76-2.68,.78-5.28,1.48-7.9,2.35-5.23,1.65-10.38,3.56-15.57,5.39-10.31,3.66-20.58,7.62-30.92,11.43-1.48,.53-2.94,1-4.39,1.44-1.46,.42-2.92,.8-4.36,1.18-1.46,.35-2.92,.69-4.39,1.04-1.5,.29-2.97,.65-4.52,.94-1.45,.26-3.23,.12-4.49-.38-1.24-.45-1.89-1.03-1.34-1.4,.21-.14,.66-.31,1.1-.4,2.84-.5,5.48-1.57,8.22-2.54,1.36-.55,2.76-1.06,4.21-1.59,1.45-.56,2.96-1.06,4.57-1.59,9.49-3.09,18.88-6.83,28.36-10.34Z"/>
        </g>
        <g>
          <path class="cls-4" d="M251.09,116.31c5.26,4.83,12.05,7.76,19,9.41,6.95,1.65,14.12,2.11,21.25,2.57,4.66,.3,9.82,.44,13.41-2.54,2.72-2.26,3.9-5.82,4.96-9.2,1.01-3.23,1.82-7.3-.73-9.54-.86-.76-1.98-1.14-3.08-1.45-2.39-.66-4.87-1.03-7.36-1.07-6.92-.13-13.62,2.17-20.33,3.87-2.9,.74-5.82,1.37-8.72,2.09-6.16,1.54-12.21,3.5-18.1,5.88"/>
          <path class="cls-4" d="M262.7,110.65c2.16-.65,4.34-1.21,6.51-1.81,.8-.21,1.68-.19,2.4-.84,.36-.32,1.27,.02,2.01-.18,2-.55,4.06-.93,6.02-1.52,1.93-.57,3.82-1.29,5.79-1.85,1.96-.55,4.07-.78,6-1.38,1.68-.52,3.31-.28,4.98-.46,1.78-.19,3.69-.21,5.41,.22,1.26,.3,2.46,.72,3.71,.93,.78,.14,1.57,.05,2.5,.45,.87,.37,1.73,1.12,2.77,1.47,.1,.02,.37,.46,.45,.71,.47,1.16,.91,2.38,1.28,3.22,.37,.82,.38,1.59,.35,2.33-.08,2.05-.57,3.89-1.15,5.57-.43,1.22-1.04,2.43-1.61,3.68-.59,1.29-1.12,2.86-2.2,3.86-1.05,.99-2.04,1.96-3.23,2.73-.68,.46-1.6,.62-1.99,1.36-.04,.07-.32,.18-.46,.18-1.18,.05-2.19,.33-3.24,.61-1.04,.27-2.09,.54-3.15,.47-2.17-.14-4.32-.18-6.39-.29-.55-.03-1.14-.23-1.67,.13-.19,.13-.77,.1-1.05-.02-1.5-.65-3.15-.45-4.73-.69-1.8-.27-3.65-.23-5.42-.91-.75-.28-1.78-.54-2.79-.21-.47,.15-1.31-.24-1.99-.33-.55-.07-1.13,.05-1.67-.07-.46-.09-.87-.41-1.31-.61-.13-.06-.3-.11-.44-.11-2.79-.14-5.15-1.73-7.71-2.67-2.6-.96-5.08-2.38-7.34-4.06-1.24-.93-2.41-2.08-2.51-3.5-.05-.63,.28-.97,.93-.77,.47,.15,.98,.34,1.42,.61,.68,.46,1.41,.84,2.1,1.23,1.45,.8,3.06,1.23,4.45,2.21,.44,.3,1.1,.35,1.32,.92,.03,.08,.22,.2,.32,.22,2.33,.31,4.38,1.51,6.64,2.11,1.92,.5,3.9,.39,5.81,.99,1.17-.33,2.42-.03,3.5,.28,3.82,1.12,7.85,1.04,11.84,1.38,4.07,.33,8.09,.66,11.46-.38,.57-.18,.91-.64,1.59-.74,.66-.11,1.25-.71,1.74-1.21,.48-.46,.83-1.08,1.3-1.55,.99-.99,1.66-2.37,2.17-3.81,.5-1.46,.95-3.03,1.31-4.44,.36-1.42,.54-2.87,.29-4.07-.27-1.2-.92-1.98-2.08-2.41-.7-.27-1.63-.42-2.53-.56-.9-.14-1.8-.26-2.7-.44-.77-.16-1.61,.06-2.35-.48-.22-.16-.96,.21-1.46,.24-1.25,.04-2.51,.1-3.78,.25-1.76,.21-3.53,.5-5.28,.95-1.07,.28-2.08,.74-3.15,1.08-1.11,.34-2.26,.66-3.42,.92-1.46,.33-2.98,.56-4.46,.85-1.53,.31-3.05,.92-4.55,1.04-2.82,.22-5.41,1.07-8.04,1.79-2.62,.7-5.23,1.5-7.75,2.5-1.43,.57-2.89,.66-4.3,1.21-.65,.26-2.01-.56-1.9-1.07,.02-.1,.1-.22,.19-.29,1.24-.92,2.31-2,3.95-2.55,2.42-.81,4.83-1.66,7.28-2.39Z"/>
        </g>
        <g>
          <path class="cls-3" d="M277.18,109.38c2.71-.23,3.66,0,6.37-.22,.89-.07,4.84-.08,5.67,.21,1.39,.5,2.57,1.07,3.01,2.27,.39,1.08,.2,2.98-.12,4.08-.23,.8-.82,1.49-1.39,2.15-.94,1.1-.26,.81-2.46,2.4-1.14,.83-1.64,.74-2.91,1.43-1.52,.83-4.01,1.27-5,1.41-6.63,.99-11.27,.35-17.79-1.04-2.09-.45-8.95-3.9-9.92-5.49-.98-1.6,3.62,1.2,4.99-.19s3.33-2.27,5.24-3.12c4.95-2.21,8.72-4.34,14.32-3.91"/>
          <path class="cls-3" d="M269.63,112.11c-1.31,.48-2.64,1.04-3.95,1.7-.49,.24-1.09,.27-1.43,.93-.17,.33-.88,.05-1.33,.27-1.2,.61-2.4,1.1-3.31,1.84-.22,.18-.42,.37-.6,.57-.09,.11-.15,.18-.3,.33-.05,.06-.06,.07-.08,.09-.1,.07-.14,.08-.19,.08-.05,0-.25-.07-.44-.12-.08-.04-.2-.02-.1,.07,.08,.06,.22,.13,.43,.18,.35,.09,.25,.08,.18,.12-.08,.03-.12,.11,.03,.14,.16,.03,.27,.04,.33,.06,.04,.02,.05,.03,.09,.08,.23,.13,.45,.29,.67,.45,.63,.46,1.25,.95,1.97,1.14,.43,.1,.97,.01,1.27,.11,.39,.11,.96,.46,1.47,.02,.04-.04,.24,.1,.34,.2,.46,.45,1.1,.55,1.58,.39,.47-.15,.83-.06,1.23,0l3.21,.43c.79,.11,1.57,.38,2.37,.45,.84,.09,1.72-.17,2.5,.06,.79,.23,1.54,.16,2.31,.09,.43-.05,.98,.15,1.27-.45,.03-.05,.19-.07,.27-.04,1.35,.54,2.37-.6,3.51-.75,.61-.09,1.12-.26,1.58-.53,.71-.42,1.62-.75,1.96-.93,.2-.1,.51-.11,.49-.57,0-.17,.3-.41,.49-.43,.52-.04,1.01-.38,1.03-.43-.01,.03,.19-.32,.39-.6,.21-.29,.41-.52,.57-.68,.39-.38,.63-.77,.74-1.02l.07-.16,.12-.3c.09-.22,.19-.45,.32-.69,.23-.39,.36-1.04-.18-1.43-.25-.19-.07-.48-.17-.54-.09-.07-.3,.03-.39-.04-.07-.06-.08-.31-.22-.5-.04-.05-.11-.09-.18-.09-.32,0-.75-.11-1.02-.19l-.76-.16c-.77-.15-1.63-.32-2.47-.25-.84,.06-1.69,.13-2.53,.19-.94,.05-1.91,.01-2.77-.03-.95-.05-1.85-.17-2.58-1.09-.32-.42-.37-.89,.02-1.2,.29-.23,.64-.44,1-.51,.57-.11,1.15-.23,1.69-.31,1.15-.16,2.14-.63,3.28-.48,.46,.04,.87-.22,1.2,.21,.04,.06,.2,.09,.27,.06,.8-.35,1.61-.39,2.44-.34,.42,.03,.84,.08,1.29,.15,.24,.04,.45,.07,.79,.16,.15,.04,.34,.1,.44,.14l.31,.11c.7,.25,1.5,.43,2.36,.99,.42,.28,.85,.67,1.16,1.17,.31,.49,.5,1.1,.52,1.59,.72,1,.57,2.14,.28,3.01-.13,.39-.25,.77-.4,1.18-.07,.18-.17,.45-.28,.7-.11,.24-.24,.46-.37,.66-.5,.79-1.07,1.39-1.42,1.82-.19,.23-.17,.27-.56,.81-.4,.5-.73,.76-1.02,1-.6,.47-1.03,.85-1.88,1.33-.41,.22-.85,.39-1.17,.51-.33,.12-.56,.21-.8,.32l-.37,.19c-.2,.1-.39,.2-.58,.29-.38,.17-.75,.31-1.12,.43-1.46,.48-2.87,.77-4.29,.95-.47,.06-.84,.42-1.43,.25-.55-.16-1.21,.07-1.83,.12-.57,.03-1.16,.19-1.7,.06-2.22-.5-4.44-.3-6.62-.66-2.16-.35-4.26-.82-6.36-1.12-.84-.14-1.5-.31-2.18-.5-.66-.2-1.3-.43-1.89-.77-.25-.14-.54-.22-.81-.35-.07-.03-.13-.07-.19-.11-.08-.05-.2-.13-.3-.2-.2-.16-.37-.34-.49-.54-.12-.22-1.19-.37-1.77-.7-1.34-.77-2.58-1.66-3.18-2.45-.42-.55-.7-1.04-.78-1.54-.03-.27-.1-.52,.02-.9,.13-.27,.18-.21,.23-.26,.15-.05-.19-.19-.08-.55,.04-.1,.14-.2,.32-.34,.17-.13,.38-.35,.88-.47,.49-.15,1.36-.14,2.49,.2l.7,.19c.25,.04,.37,.22,.56,.32,.08,.05,.19,.14,.24,.16l.07-.06,.14-.12c.98-.83,2.06-1.3,3.04-1.78,1.02-.49,1.95-1.16,2.94-1.35,1.83-.34,3.4-1.34,5.18-2.01,1.77-.67,3.65-1.22,5.6-1.61,1.12-.21,2.17,.17,3.23,.18,.52,.02,1.08,1.32,.84,1.73-.04,.08-.12,.16-.2,.19-.99,.33-1.8,.97-2.81,1.02-1.51,.09-3,.52-4.48,1.07Z"/>
        </g>
        <g>
          <path class="cls-6" d="M262.54,62.02c-6.1,.07-12.11,1.31-17.96,2.98-3.1,.89-6.16,1.9-9.21,2.94-2.09,.71-5.67,1.27-7.34,2.82-.21,.2-.27,.5-.3,.78-.17,1.89,.84,3.68,1.07,5.57,.28,2.34-.68,4.67-.62,7.03,.05,2.02,.84,3.94,1.62,5.81,1.81,4.33,3.61,8.66,5.42,12.99,1.03,2.47,2.1,5,3.93,6.95,4.07,4.33,10.71,4.72,16.65,4.82,5.19,.09,10.47,.16,15.46-1.26,2.58-.74,5.2-1.66,7.71-2.59,2.09-.78,2.93-2.13,4.47-3.84,2.65-2.94,5.38-5.79,8.18-8.59,3.03-3.02,6.16-5.93,8.22-9.73,2.9-5.34-1.68-12.42-6.05-16.64-2.35-2.27-5.29-3.81-8.29-5.11-7.24-3.14-15.09-5.02-22.98-4.93Z"/>
          <path class="cls-6" d="M281.1,63.51c1.59,.54,3.16,1.15,4.71,1.81,1.54,.66,3.09,1.38,4.6,2.22,1.14,.63,2.1,1.54,3.46,2.05,.34,.13,.68,.52,1.02,.98,.34,.47,.67,.98,1.08,1.41,2.24,2.31,4.1,5,5.4,8.11,.62,1.51,1.1,3.15,1.15,4.94,.03,.44,0,.89-.05,1.35-.03,.46-.12,.91-.24,1.36-.09,.46-.26,.89-.45,1.32-.18,.46-.38,.82-.57,1.16-1.58,2.83-3.97,5.04-5.79,7.27-.8,.98-1.67,1.75-2.52,2.52-.84,.78-1.68,1.55-2.44,2.43-1.63,1.87-3.34,3.77-5.16,5.38-.69,.59-1.23,1.15-1.91,1.83-.66,.67-1.44,1.43-2.38,2.04-.29,.19-.58,.37-.88,.54-.3,.17-.6,.32-.83,.43-.5,.25-1.02,.49-1.61,.67-1.09,.35-2.38,.54-3.16,1.36-.07,.07-.58,.14-.85,.15-.64,.03-1.3,.17-1.94,.37-.67,.18-1.29,.4-1.8,.63-.98,.44-1.91,.58-2.87,.71-2.64,.37-5.26,.47-7.82,.41-1.92-.05-3.77-.28-5.7-.39-2-.13-4.23-.06-6.1-.66-1.86-.61-3.68-1.12-5.46-1.99-1.02-.52-1.98-1.42-3.04-1.63-.11-.01-.44-.31-.55-.49-1-1.39-1.95-2.67-2.82-3.98-.86-1.31-1.63-2.64-2.12-4.03-1-2.85-2.31-5.66-3.5-8.48-.32-.75-.51-1.62-1.16-2.16-.23-.19-.57-.98-.64-1.4-.18-1.14-.6-2.23-1.03-3.44-.42-1.19-.84-2.52-.86-3.96-.02-1.65,.27-3.08,.47-4.33,.1-.63,.2-1.21,.25-1.75,.06-.55,.09-1.01,.08-1.57,0-.99-.52-2.39-1.2-4.07-.04-.1-.07-.21-.09-.35-.02-.18-.03-.38-.03-.58,.02-.41,.05-.89,.23-1.32,.16-.45,.48-.84,.86-1.15,.17-.17,.38-.3,.57-.45,.19-.14,.39-.29,.52-.36,.86-.55,1.61-1.09,2.44-1.38,.71-.24,1.45-.24,2.14-.33,.21-.03,.45-.09,.63-.17,.92-.38,1.62-.68,2.6-1.01,.93-.31,1.87-.57,2.81-.82,1.89-.5,3.79-.95,5.64-1.61,3.78-1.24,7.77-2.1,11.8-2.55,2.22-.26,4.57-.24,6.08,.71,.68,.43,.68,.9-.23,1.2-.66,.22-1.42,.45-2.17,.56-1.21,.17-2.4,.41-3.56,.65-2.42,.5-4.7,1.41-7.23,1.78-.79,.11-1.62,.6-2.37,.35-.1-.03-.43,.02-.57,.09-3.09,1.62-6.59,2.33-9.91,3.42-1.55,.54-2.94,.98-4.2,1.51-.63,.26-1.22,.54-1.71,.82l-.36,.22c-.06,.03-.1,.07-.13,.13,.06,.06,.12,.09,.17,.11,.05,.03,.1,.24,.16,.36,.11,.29,.22,.63,.33,1.01,.23,.77,.5,1.73,.6,2.79,.2,1.97-.23,3.69-.51,5.11-.14,.72-.27,1.39-.31,2-.04,.61-.02,1.17,.1,1.77,.22,1.21,.74,2.47,1.32,3.81,.58,1.36,1.16,2.72,1.72,4.1,1.12,2.79,2.28,5.56,3.44,8.34,1.17,2.79,2.23,5.44,3.98,7.25,.61,.62,1.36,.84,2.08,1.58,.71,.69,1.98,1.07,3.11,1.4,1.04,.31,2.2,.45,3.23,.73,2.15,.6,4.47,.74,6.81,.78,2.36,.03,4.7,0,7-.07,2.28-.07,4.54-.28,6.72-.78,1.07-.22,2.17-.62,3.26-1.01l3.26-1.17,1.97-.76c.36-.14,.58-.24,.81-.38,.23-.13,.44-.28,.63-.44,.77-.62,1.56-1.76,2.64-2.87,.89-.86,1.58-2.01,2.79-2.55,.34-.15,.86-1.25,1.4-1.85,1.34-1.46,2.72-2.89,4.1-4.32,1.95-1.95,3.91-3.78,5.48-5.81,.48-.62,.89-1.27,1.25-1.94,.19-.33,.35-.67,.52-1l.24-.5c.07-.16,.1-.28,.16-.42,.45-1.13,.57-2.41,.32-3.81-.28-1.77-.98-3.67-2.06-5.41-1.11-1.81-2.78-3.38-4.08-4.92-2.43-2.83-6.27-4.31-9.92-5.79-3.66-1.46-7.49-2.57-11.37-3.09-2.2-.29-4.18-.92-6.37-.99-1-.04-2.41-1.28-1.99-1.72,.08-.08,.26-.17,.43-.2,2.22-.39,4.35-.89,6.92-.51,3.78,.57,7.52,1.43,11.13,2.66Z"/>
        </g>
        <g>
          <path class="cls-6" d="M214.79,146.89c-1.54,10.54-3.08,21.07-4.62,31.61-.85,5.84-1.7,11.87-.17,17.56,2.76,10.28,11.92,19.83,22.38,21.82,10.46,1.99,22.27,.13,32.88,.97,10.29,.81,13.63,1.69,21.22,3.09l3.48,.41c3.57,1.39,6.49-.51,11.53,3.41,.59,.46,1.16,.95,1.42,1.52,.34,.75,.08,1.53-.07,2.28-.23,1.17-.16,2.39,.21,3.58,.27,.88,.81,1.85,1.99,2.3,1.14,.44,4.12,2.11,7.82,2.46,3.4,.32,6.29-.19,8.96-1.82,.63-.38,2.69-3.27,2.91-3.83,.14-.37-.46-1.88-.53-2.28-.18-1.17-.85-1.55-2.79-3.06-1.12-.87-3.11-1.36-4.66-1.81s-3.23-.76-4.55-1.49c-1.76-.97-2.59-2.47-3.67-3.81-1.41-1.75-3.38-3.33-5.71-4.57-2.83-1.51-8.99-2.86-8.41-4.53,12.19-.23,17.04-1.3,25.7-1.55,1.66-.05,3.36-.02,5.02,.28,1.28,.23,2.51,.61,3.77,.9,3.32,.74,7.1,.7,9.69-.64,2.59-1.34,3.45-4.17,1.3-6.09-1.79-1.59-5.05-2.14-7.78-1.81-2.73,.33-5.05,1.38-7.26,2.43-.51,.24-1.02,.49-1.63,.6-.48,.09-.99,.09-1.49,.09-9.91,.05-19.83,0-29.76-.16-.54,0-1.16-.05-1.51-.35-.23-.2-.26-.46-.25-.7,.04-1.42,1.06-2.67,2.07-3.86,1.67-1.95,3.38-3.88,5.14-5.79,.71-.77,1.45-1.56,2.58-2.05,1.03-.45,2.3-.61,3.52-.82,3.08-.54,6.2-1.59,7.33-3.58,1.24-2.18-.53-5.03-3.66-6.39-3.13-1.36-7.24-1.26-10.11,0-2.87,1.26-4.53,3.53-4.79,5.92-.13,1.15,.04,2.36-.52,3.43-.42,.8-1.22,1.45-2.03,2.07-3.36,2.57-8.97,5.23-13.26,7.08l-1,.43c-5.85,2.21-5.73,1.48-11.96,2.04-3.78,.34-11.87-2.03-15.31-3.12-6.75-2.13-2.14,.33-6.29-4.47-.37-.43-1.77-2.37-2.25-2.69-.52-.35-.75-1-.9-1.61-1.75-7.12,2.92-13.99,5.84-20.71,2.63-6.05,2.73-8.42,2.55-15.02"/>
          <path class="cls-5" d="M244.62,194.06l.51,.68,.25,.37,.13,.19,.06,.11,.11,.19,.05,.1c.03,.06,.05,.15,.13,.17l.58,.16,1.41,.4,2.82,.87c.92,.28,1.85,.54,2.77,.79,1.85,.5,3.71,.96,5.54,1.28,.91,.17,1.82,.3,2.68,.36,.43,.04,.84,.04,1.22,.04,.2-.02,.31,0,.58-.04l.76-.07c1.49-.14,3.08-.11,4.45-.2,1.34-.08,2.44-.43,3.7-1.21,.3-.18,.71-.35,1.17-.48,.46-.13,.98-.27,1.53-.41,1.14-.32,2.49-.7,3.67-1.27,3.21-1.55,6.46-3.18,9.17-5.11,.68-.49,1.34-1.03,1.6-1.35,.1-.12,.16-.24,.2-.37,.04-.14,.08-.43,.1-.82,.02-.39,.02-.89,.08-1.5,.07-.63,.2-1.26,.39-1.86,.4-1.2,1.03-2.28,1.82-3.2,1.54-1.79,3.56-2.94,5.65-3.57,2.07-.62,4.16-.8,6.28-.62,2.1,.2,4.27,.75,6.29,2.09,.99,.66,1.91,1.52,2.66,2.66,.37,.57,.7,1.2,.92,2.03,.22,.78,.28,1.61,.18,2.42-.07,.75-.36,1.47-.71,2.15-.38,.65-.91,1.29-1.38,1.72-.48,.42-.97,.8-1.46,1.08-.98,.59-1.94,.98-2.88,1.28-.94,.31-1.87,.53-2.78,.7-.93,.18-1.8,.29-2.49,.42-.72,.13-1.2,.28-1.5,.47-.35,.2-.71,.53-1.21,1.09-1.05,1.21-2.08,2.46-3.06,3.7-.23,.28-.45,.57-.68,.85l-.6,.73c-.07,.11-.09,.13-.14,.19-.07,.1-.28,.27-.23,.46,.1,.11,.25,.12,.5,.17h.09c.05,.02,0,.02,.23,.02l1.04,.02c.69,0,1.39,0,2.1-.01,5.97-.13,12.14-.2,17.98,.14,1.07,.06,2.13,.12,3.19,.19,.99,.05,2.36,.15,2.7,.1,.19-.01,.46-.1,.92-.31l1.5-.67c1.02-.45,2.09-.9,3.22-1.29,2.79-.97,5.89-1.75,9.43-.77,.82,.24,1.68,.59,2.54,1.11,.43,.25,.85,.56,1.27,.93,.43,.38,.9,.88,1.24,1.39,.72,1.03,1.11,2.25,1.16,3.46,.06,1.21-.19,2.39-.62,3.47-.06,.18-.47,.76-.97,1.22-.5,.49-1.12,.88-1.55,1.1-2.05,1.01-3.99,1.3-5.84,1.49-1.83,.17-3.53,.16-4.93,.14-1.37,0-2.69-.26-3.72-.5-1.07-.24-1.85-.44-2.74-.52-4.94-.34-11.82,.54-16.98,.84-.06-.03-.22-.1-.61-.17-.2-.04-.45-.07-.72-.1-.13,0-.29-.05-.4-.02-.07,.07-.02,.12,.01,.17,.21,.17,.79,.28,1.1,.4,.09,.03,.16,.06,.23,.1l.1,.06,.37,.27c1.07,.78,2.05,1.67,2.87,2.65,.41,.49,.81,1.02,1.16,1.53,.3,.45,.61,.91,.91,1.36,.54,.79,.98,1.29,1.53,1.65,.52,.35,1.34,.64,2.3,.9l1.54,.41,1.57,.44c.61,.18,1.27,.4,1.97,.7,.69,.3,1.47,.66,2.26,1.27,.49,.38,.99,.71,1.55,1.06,.29,.19,.6,.38,.96,.65,.36,.27,.78,.65,1.15,1.15,.14,.17,.43,.81,.53,1.4l.02,.11v.06s.01,.03,.01,.03h0s0,0,0,0c.49-.08-4.26,.67-2.25,.35h.03s.05-.01,.05-.01h.1c.58-.1,.96-.23,1.95-.46l.08-.02s0,0,0,0h0s0,0,0,0h0s0,.02,0,.02v.07c.05,.17,.09,.33,.12,.45,.22,.99,.41,1.95,.16,2.87-.14,.44-.37,.86-.64,1.26-.26,.39-.57,.82-.79,1.1l-1.13,1.41c-.2,.24-.39,.46-.65,.76-.32,.35-.67,.66-1.06,.92l-.56,.33-.46,.25c-.31,.16-.62,.32-.94,.47-.64,.3-1.3,.55-1.98,.76-1.35,.43-2.75,.67-4.11,.75-1.37,.09-2.69,.05-4.11-.17-1.38-.23-2.7-.62-3.94-1.13-.55-.23-1.08-.47-1.6-.72-.46-.22-.91-.43-1.37-.65-1.31-.51-2.41-1.49-3.08-2.73-.35-.63-.56-1.27-.68-1.74-.13-.5-.23-1.02-.3-1.55-.12-1.05-.08-2.16,.13-3.2l.05-.25s.01-.07,.01-.1c0-.07,0-.14-.04-.2-.04-.06-.09-.11-.14-.16l-.09-.07c-.13-.1-.27-.2-.4-.29-.54-.39-1.08-.74-1.62-.99-1.1-.55-2.09-.77-3.47-.87-.85-.07-1.95-.13-3.21-.33-.31-.04-.63-.1-.95-.17l-.48-.1-.24-.06-.12-.03s-.02,0-.03,0c-.07,0-.02,.06-.18,.09-.24,.02-.49,.05-.73,.1-.68,.12-2.77-.06-3.84-.46-2.63-.9-5.31-1.52-8-1.96-2.69-.44-5.42-.68-8.13-1-3.14-.38-6.13-.53-9.24-.54-3.1-.02-6.27,.02-9.48-.22-2.73-.21-6.43-.28-9.82,.3-1.56,.29-4.78-.32-7.23-.68-.99-.1-2.08-.3-3.13-.44-1.02-.25-2.09-.44-3.06-.88-.42-.17-.83-.37-1.24-.57-.39-.23-.77-.47-1.15-.72-.77-.48-1.47-1.06-2.2-1.59-.44-.3-.96-.7-1.41-.96-4.4-2.61-7.82-6.58-10.23-11.02-1.22-2.22-2.15-4.61-2.82-7.08-.72-2.49-1.03-5.11-1.15-7.62-.24-5.1,.61-9.91,1.27-14.54,.72-4.66,1.45-9.33,2.17-13.98,.82-5.13,1.83-10.38,3.79-13.65,.88-1.48,1.59-1.38,1.68,.86,.07,1.65,.09,3.53-.1,5.37-.29,2.95-.58,5.9-.86,8.77-.62,5.96-.81,11.97-2.06,18.04-.38,1.88-.24,4.08-.99,5.56-.1,.21-.2,.97-.16,1.33,.18,1.98,.42,3.91,.82,5.77,.4,1.83,1.02,3.66,1.76,5.46,1.54,3.57,3.73,6.97,6.57,9.68,2.43,2.27,5.25,4.03,8.23,5.1,1.47,.6,3,.91,4.52,1.23,1.64,.25,3.3,.52,5.02,.73,3.82-.48,8.33-.4,12.35-.25,3.59,.1,7.18,.19,10.78,.29,1.81,.08,3.71,.2,5.48,.37,1.79,.16,3.59,.33,5.39,.53,3.6,.39,7.24,.98,10.74,1.63l2.61,.48c.85,.15,1.61,.32,2.5,.39l1.29,.15c.46,.07,.7,.04,1.65,.24l.7,.24,.43,.11c.3,.06,.63,.11,1.01,.14,.81,.08,1.83,.1,2.97,.26,1.14,.15,2.36,.45,3.47,.91,1.13,.45,2.13,1.06,3.06,1.7l.68,.49,.33,.25c.15,.12,.33,.27,.49,.41,.65,.57,1.21,1.24,1.57,2.01,.28,.62,.42,1.31,.42,1.99,0,.34-.03,.69-.09,1.03l-.1,.51-.08,.38c-.1,.48-.12,.94-.06,1.42,.04,.44,.25,1.12,.29,1.15,.07,.13,.18,.23,.32,.27l2.02,.89c.61,.26,1.2,.48,1.8,.67,1.21,.38,2.35,.62,3.57,.7,1.25,.08,2.45,.04,3.57-.19,.56-.11,1.1-.27,1.62-.47,.26-.1,.52-.21,.77-.34l.38-.19,.19-.1c.08-.04,.04-.02,.06-.04,.09-.07,.03,0,.32-.34,.22-.26,.46-.57,.69-.88,.61-.85,.52-.7,.62-.9,0-.06-.02-.11-.05-.16l-.04-.07-.02-.03-.08-.2c-.06-.18-.13-.29-.23-.8,.03-.01-.13,.02,.19-.05,.14-.02,.36-.1,.43-.12,.06-.02,.19-.08,.17-.06h.01s-.08,.04-.08,.04l-.1,.06c-.06,.04-.12,.08-.18,.13l-.22,.17-.15,.12s-.01,.01-.02,.02c-.05-.02-.51-.38-.99-.75-.24-.19-.5-.41-.76-.64-.13-.11-.07-.09-.15-.16-.04-.05-.12-.11-.2-.18-.64-.53-2.14-.96-3.66-1.36-1.43-.39-3.35-.62-5.35-1.88-1.79-1.13-2.96-2.82-3.73-3.8-.74-.95-1.55-1.75-2.41-2.55-.24-.23-.49-.44-.75-.65-.07-.06-.43-.33-.7-.5-.3-.18-.57-.38-.88-.54-1.2-.67-2.74-1.24-4.08-1.82-1.35-.58-2.38-1.16-3.01-1.66-.65-.5-1.04-.92-1.4-1.3-.34-.39-.64-.73-.89-1.15-.12-.22-.24-.44-.31-.77-.09-.28,.02-.99,.19-.92,.61-.36,1.23-.84,1.91-1.7l3.37-.11c1.13-.04,2.24-.08,3.32-.15,1.1-.05,2.17-.13,3.25-.21l2.76-.22c2.53-.22,5.08-.48,7.67-.64,1.42-.09,2.86-.16,4.29-.2,1.41-.05,2.93-.08,4.48,.04,1.54,.1,3.22,.47,4.56,.84,1.37,.37,2.51,.62,3.78,.73,1.24,.11,2.48,.09,3.62-.11,1.11-.19,2.23-.61,2.78-1.09,.31-.27,.47-.5,.54-.7,.09-.21,.08-.45,.03-.67-.07-.22-.2-.39-.39-.54-.28-.23-.68-.45-1.15-.63-1.14-.44-2.62-.58-3.99-.46-1.36,.12-2.76,.53-4.15,1.11-.7,.29-1.41,.63-2.14,.99l-1.16,.58c-.46,.22-1.08,.49-1.8,.65-.75,.16-1.35,.17-1.84,.18h-1.31s-2.59-.05-2.59-.05c-2.95-.09-6.06,.33-8.97-.44-.82-.22-3.58,.35-5.48,.36-2.36,.02-4.72,.01-7.08,0l-2.31-.02c-1.05-.03-2.17,.04-3.16-.09-.99-.14-1.7-.44-2.26-.82-.29-.19-.56-.42-.81-.73-.26-.32-.46-.74-.55-1.12-.28-1.09-.11-2.23,.32-3.38,.44-1.15,1.3-2.35,2.28-3.47l3.62-4.06,1.66-1.86c.58-.62,1.36-1.45,2.41-2.11,.52-.33,1.11-.6,1.66-.8,.55-.19,1.05-.32,1.53-.42,.95-.21,1.77-.32,2.46-.47,1.14-.24,2.24-.58,3.12-1.02,.44-.22,.82-.46,1.09-.69,.14-.11,.24-.23,.3-.31,.05-.07,.03-.08,.04-.12,0-.07-.02-.12-.05-.16-.02-.02-.03-.04-.05-.05-.04-.07-.1-.18-.19-.29-.25-.34-.71-.76-1.27-1.06-.54-.3-1.23-.57-1.98-.74-1.5-.35-3.22-.37-4.73-.05-1.88,.36-3.44,1.36-4.12,2.63-.37,.72-.39,.93-.53,2.84-.07,.86-.42,2.23-1.12,3.2-.71,1-1.4,1.54-2.01,2.04-2.47,1.91-5,3.36-7.54,4.71-2.55,1.34-5.07,2.47-7.65,3.38-1.28,.42-2.48,.78-3.79,1.11-1.29,.34-2.84,.56-4.15,.59-1.31,.05-2.46,.06-3.64,.13l-.88,.06c-.3,.02-.55,.05-.98,.06-.4,.02-.76,.02-1.11,0-.36,0-.7-.04-1.04-.07-2.69-.26-5.12-.81-7.56-1.41-2.4-.59-4.85-1.33-7.11-2.05-.55-.17-1.07-.32-1.8-.51-.98-.24-2.02-.51-2.52-1.35-.14-.19-.25-.42-.37-.65l-.28-.56c-.17-.29-.25-.41-.42-.65-.31-.44-.62-.8-1.05-1.32l-1.14-1.47-.5-.62-.17-.18h0s-.03,.03,.08-.09c.14-.15,.31-.37,.41-.47,.22-.23,.42-.48,.59-.76-1.9,2.81-.53,.77-.96,1.4h-.01s-.03-.03-.03-.03l-.06-.04-.12-.09-.22-.19c-.56-.52-.86-1.09-1.06-1.56-.19-.47-.31-.9-.37-1.24-.13-.7-.29-1.4-.33-2.11-.28-2.85,.28-5.59,1.06-8.08,.81-2.49,1.86-4.78,2.88-6.99,1.17-2.51,2.4-4.71,3.42-6.99,1.04-2.26,1.72-4.44,1.8-6.98,.09-2.34,1.83-5.81,2.52-4.79,.13,.19,.27,.6,.33,1.02,.34,2.62,.78,5.26,.45,8.17-.33,2.9-1.26,5.63-2.58,8.43-1.97,4.09-4.08,7.92-4.92,11.79-.4,1.92-.43,3.79-.01,5.55,.05,.2,.1,.34,.12,.4,0,.01,.01,.03,.01,.03h0s-.09,.05-.09,.05l-.17,.11c-.21,.14-.34,.25-.41,.33-.03,.04-.06,.07-.07,.08h0s0,.01,0,.01h0c-.48,.71,.64-.96,.54-.78l.14,.1c.09,.07,.21,.16,.24,.2,.22,.2,.35,.34,.47,.48,.24,.27,.44,.51,.63,.74l1.05,1.34,1.06,1.3Z"/>
        </g>
        <path class="cls-5" d="M108.29,162.13c1.85,.04,3.36,.19,4.87,.14,.24,0,.52-.38,.82-.35,1.18,.1,2.42-.19,3.52,.34,1.2,.59,2.43,.74,3.64,.53,1.15-.18,2.24,.02,3.36,.04,.38,0,.75-.03,1.1,.46,.26,.36,.79,.46,1.26-.07,.09-.1,.25,.03,.36,.1,.13,.07,.25,.33,.36,.27,1.2-.75,2.24,.08,3.37,.02,.28-.01,.54,.28,.86-.27,.08-.14,.35-.13,.41,.02,.16,.39,.36,.49,.62,.53,1.13,.15,2.26,.34,3.39,.52,.68-.65,1.25-.21,1.84-.1,.44,.08,.84,.42,1.26,.64,.42,.22,.99-.16,1.29,.58,.05,.12,.26-.05,.38-.03,.57,.06,1.2-.07,1.67,.28,.24,.18,.49,.35,.76,.41,3.46,.74,6.91,1.52,10.34,2.39,.3,.07,.56,.23,.99-.11,.33-.26,.88-.13,1.03,.26,.24,.64,.66,.52,1.01,.65,.66,.24,1.36,.33,2.01,.59,.39,.15,.94-.09,1.07,.75,.01,.08,.14,.12,.2,.06,.65-.58,.91,.14,1.32,.36,.3,.16,.62,.25,1.08,0,.44-.23,1.03-.11,1.23,.35,.27,.62,.7,.58,1.09,.71,2.3,.79,4.6,1.61,6.88,2.49,1.07,.41,2.4,.25,3.36,1,.23,.17,.63,.05,.62,.64,0,.12,.23,.16,.37,.08,.5-.28,.71,.01,1.02,.21,1.43,.84,2.73,1.91,4.34,2.41,1.27,.38,2.21,1.24,3.29,1.92,.36,.23,.47,.78,.75,1.1,.27,.32,.61,.57,.95,.81,.2,.14,.28,.42,.75,.28,.25-.08,.56,.12,.54,.35-.06,.78,.46,.98,.81,1.35,.98,1.06,1.99,2.11,2.83,3.29,.21,.28,.71,.42,.35,1.07-.05,.09,.24,.13,.37,.2,.13,.07,.39,.11,.37,.24-.18,1.25,.73,1.8,1.17,2.66,1.05,2.04,2.03,4.17,2.49,6.45,.14,.63,.78,1.07,.86,1.72,.08,.61,.25,1.21,.24,1.84,0,.43,.35,.88-.28,1.32-.16,.12-.16,.43,.02,.55,.66,.46,.33,1.01,.44,1.52,.12,.63-.37,1.24,.29,1.91,.17,.18-.2,.48-.27,.72-.11,.43-.19,.86-.22,1.3-.01,.21,.2,.45,.19,.67-.08,.81-.14,1.64-.25,2.45-.14,.8-.26,1.63-.49,2.41-.44,1.61-1.07,3.15-1.75,4.65-.33,.76-.66,1.51-1.04,2.24-.36,.74-.75,1.46-1.19,2.15-.32,.52-.21,1.37-1.28,1.38,.17,.76-.36,1.02-1.14,1.1-.11,.01,.01,.3,0,.45-.02,.47,.53,1.3-.55,1.13-.04,0-.03,.07-.07,.09-.32,.24,.35,1.01-.42,1.07-.48,.03-.62,.51-.88,.82-.27,.32-.55,.62-.72,1-.18,.39-.82,.48-.47,1.25,.06,.13-.55,.05-.63,.22-.44,.87-1.58,1.18-1.53,2.48,0,.3-.24,.55-.53,.6-1.05,.19-1.34,.98-1.83,1.76-.63,1.02-1.63,1.97-3.12,1.83-.31-.03-.49-.11-.52,.31-.02,.28-.3,.38-.5,.49-2.26,1.29-4.74,2.04-7.18,2.48-.67,.12-1.39-.5-2.02-.15-.27,.15-.63-.18-.8,.44-.02,.09-.14,.15-.19,.11-.87-.62-1.59,.43-2.42,.19-.17-.05-.34-.18-.52-.24-.18-.07-.39-.23-.53-.12-1.19,.92-2.45,.29-3.67,.53-.41,.08-.88-.3-1.24,.45-.05,.11-.24,.11-.32,0-.73-.87-1.5-.18-2.24-.41-.38-.12-.8,.37-1.15-.36-.04-.09-.2-.02-.29,.03-.16,.09-.32,.33-.48,.32-.44-.04-.92-.44-1.3-.2-.48,.29-.93,.16-1.39,.18-.26,0-.52-.33-.79-.41-.25-.08-.51-.02-.77-.03-.37,0-.75,.12-1.1-.05-.36-.17-.66,.58-1.05,.05-.3-.4-.66,.29-1.01,.36-.17,.03-.35-.06-.52-.14-.13-.06-.25-.31-.37-.29-.28,.04-.54-.11-.84,.21-.21,.22-.56-.2-.85-.26-.29-.06-.59-.04-.88-.05-.29-.01-.61-.18-.88-.01-1.21,.71-2.39,.21-3.57,.23-.31,0-.67,.25-.9-.42-.04-.12-.21-.14-.31-.07-1.18,.83-2.31,.05-3.47,.21-.83,.12-1.66,.41-2.48,.26-.8-.14-1.62-.4-2.42-.15-.66,.2-1.32,.37-1.93,.15-.6-.22-1.32,1.02-1.81-.14-.62-.07-1.25-.1-1.87-.22-.52-.1-1.09,.13-1.53-.56-.16-.25-.52-.28-.75-.1-.74,.59-1.35,.32-1.97-.1-.15-.1-.38,.2-.57,.19-.55-.03-1.12-.04-1.65-.22-1.59-.51-3.3,.02-4.92-.23-.3-.05-.71,.41-.95,.24-1.48-1.07-3.26-.49-4.77-1.26-2.22-1.1-4.64-1.06-6.94-1.67-.3-.08-.51-.69-.68-.56-.54,.39-.97-.13-1.41,.16-.81,.51-1.38-.06-2.07-.05-.5,.01-.92-.54-1.53,.1-.09,.09-.25,.04-.32-.07-.55-.85-1.48,.02-2.1-.46-1.57,.52-2.91-.44-4.44-.77-.23-.05-.5,.05-.76,.06-.13,0-.3,.06-.38-.03-1.02-1.37-2.74-1.4-4.03-2.61-.41-.39-.69-.93-1.05-1.38-.36-.44-.96-.74-.88-1.52,.03-.24-.25-.44-.45-.59-.53-.44-.7-1.07-.43-1.66,.25-.59,.86-1.1,1.73-1.49,.63-.28,.76-.13,1.07-.07,.6,.12,1.05,.2,1.23,.57,.16,.26,.23,.71,.91,.44,.11-.04,.19,.07,.18,.18-.01,.81,.79,.85,1.01,1.46,.19,.5,.59,.63,.9,.94,.28,.25,.74,.11,.84,.8,.04,.23,.57-.1,.81-.03,.58,.16,1.16,.33,1.71,.59,1.68,.82,3.72,.23,5.49,.89,1.48-.53,2.67,.52,4.07,.37,1.68-.16,3.2,.42,4.81,.49,.33,.02,.59,.09,.83,.35,.16,.18,.33,.36,.52,.41,.74,.17,1.51,.23,2.25,.43,.4,.11,.92-.24,1.14,.61,.03,.12,.21,.14,.31,.06,.79-.67,1.43-.08,2.14-.07,.27,0,.52,.07,.76,.4,.26,.36,.76,.4,1.12,.17,.28-.18,.5-.15,.74-.18,1.01-.12,1.91,.83,3,0,.38,.91,1.05,.73,1.58,.6,2.06-.54,3.93,.31,5.91,.35,.48,.02,.91,.43,1.38,.55,.5,.13,1.01,.16,1.52,.17,.27,0,.56,.31,.83-.29,.02-.04,.07-.07,.1-.06,.28,.13,.55,.39,.84,.37,.26-.02,.53-.41,.8-.5,.32-.1,.64-.09,.96-.07,.31,.01,.64-.09,.84,.48,.3-.67,.62-.3,.93-.32,.29-.03,.58,.03,.87,.06l.98,.07c.33,.02,.65,.11,.98,.06,.45-.06,.9-.28,1.35-.33,.47-.05,.95-.02,1.41,.08,.58,.12,1.15,.37,1.73,.53,.24,.07,.46-.1,.71-.33,.33-.31,.76-1,1.12-.05,.07,.19,.36,.15,.52,.03,1.29-.9,2.55-.04,3.83-.28,.68,.73,1.37,.31,2.1,.13,1.07-.26,2.2-.37,3.24,.07,1.1,.46,2.19,.21,3.28,.37,.31,.05,.64-.22,.9,.42,.06,.15,.29,.1,.42,0,.88-.67,1.74-.49,2.66-.08,.48,.22,1.02-.06,1.54-.32,.78-.38,1.65-.13,2.47-.16,.38,.77,.63-.04,.79-.38,.22-.46,.44-.56,.72-.58,.36-.03,.72,.09,1.04-.45,.16-.27,.55-.24,.77,.02,.29,.35,.37,.17,.57-.1,.24-.32,.6,.39,.93,.31,.36-.08,.71-.53,1.15,.23,.04,.07,.15,.04,.19-.03,.5-.93,1.36,.13,1.92-.38,1.05,.23,1.99-.05,2.84-.45,.85-.41,1.59-.93,2.44-1.31,.7-.31,1.73-.35,2.08-1.18,.7-1.69,2.23-2.6,3.26-4.14,.21-.32,.2-.9,1.04-.69,.12,.03,.22-.12,.18-.24-.24-.91,.28-1.22,1.03-1.4,.18-.05,.32-.27,.21-.46-.31-.51,.03-.62,.19-.82,.19-.25,.83-.32,.7-.63-.27-.66,.4-.48,.66-.68,.16-.12,.14-.38,.18-.59,.02-.1-.13-.33-.05-.34,.9-.16,.37-1.19,.92-1.56,.12-.08,.18-.21,.31-.28,1.45-.81,1.52-.82,1.91-2.64,1.11-.01,.06-1.16,.95-1.33,.33-.07,.43-.44,.35-.74-.16-.66-.03-1.18,.2-1.66,.23-.49,.52-.96,.56-1.5,.02-.22,.69-.18,.28-.62-.16-.16,.52-.33,.55-.58,.06-.35,.5-.62-.02-1.12-.21-.2,.07-.45,.08-.69,0-.32,.29-.59-.16-1-.25-.23-.18-.61,.11-.76,1.16-.62,.34-1.54,.05-2.28-.1-.23-.19-.39-.01-.61,.24-.3,.56-.73,.27-.99-.55-.45-.33-.86-.37-1.28-.03-.73-.07-1.45-.19-2.17-.22-.79-.07-1.67-.78-2.35-.37-.37-.77-.82-.11-1.54,.07-.08-.44-.12-.48-.24-.39-.95-.78-1.89-1.21-2.83-.09-.21,.54-.86-.17-.73-.75,.15,.37-.78-.49-.51-.12,.04-.22-.16-.2-.3,.13-1.54-1.22-2.22-1.82-3.35-.15-.27-.65-.31-.25-.98-1.11-.05-.5-1.85-1.99-1.48-.25-.57-1.16-.46-.98-1.48,.03-.17-.26-.14-.25-.3,.01-.56-1.01,.31-.89-.49,.07-.47-.45-.56-.72-.81-.25-.23-.53-.42-.81-.61-.3-.22-.59-.44-.91-.65-.31-.21-.59-.47-.94-.62-.71-.31-1.61-.24-2.17-.81-.06-.06-.23-.05-.33,.05-.79,.85-.8,.12-.87-.29-.06-.35-.16-.56-.37-.66-.58-.29-1.18-.55-1.74-.9-.33-.21-.86-.05-.9-.86-.01-.25-.32-.34-.55-.27-1.06,.34-1.67-.4-2.5-.62-.37-.1-.73-.26-1.08-.42-.27-.12-.71,.23-.82-.31-1.65,.35-2.83-.69-4.26-1.05-1.41-.35-2.79-.85-4.2-1.3-.35-.11-.85,.12-.95-.7-.02-.16-.28-.22-.39-.1-.32,.33-.53,.49-.61-.1-.02-.11-.24-.05-.37,.02-.37,.2-.62,.1-.85-.25-.18-.27-.46-.48-.73-.39-.73,.24-1.4,.44-1.82-.5-.05-.11-.39,.32-.52,.26-.51-.23-1.16,.03-1.54-.69-.16-.29-.52-.19-.78-.33-.44-.23-.98,.06-1.42-.29-.44-.35-1.03-.29-1.56-.42l-1.58-.37-1.58-.34-1.58-.34c-.53-.12-1.06-.22-1.59-.32l-1.59-.31c-.37-.08-.7-.23-1.02-.6-.82-.92-2.01-1.03-3.53-.68-.11,.03-.21-.03-.32-.05-1.39-.21-2.8-.31-4.16-.71-.59-.17-1.16-.6-1.79-.63-.41-.02-.8-.19-1.26,.22-.39,.35-.78-.38-1.26,.27-.18,.24-.56,.18-.72-.05-.56-.77-1.27-.49-1.91-.62-.74-.14-1.5-.2-2.26-.23-.37-.01-.72-.29-1.15,.25-.21,.26-.64,.04-.89-.23-.39-.41-.81-.37-1.22-.25-.88,.27-.87,.34-1.68-.16-.1-.06-.2-.07-.31-.07-1.04-.07-2.09-.41-3.13-.12-.86,.25-1.69,.24-2.52,.22-.33,0-.73,.31-.98-.45-.04-.11-.23-.11-.31-.02-.73,.79-1.47,.34-2.19,.33-.7,0-1.36,.63-2.08,.46-.67-.16-1.36-.04-2.04-.05-1.03-.02-1.26-.46-1.26-2.51,0-1.69,.27-2.06,1.12-2.4,1.81-.75,3.63-.15,5.1-.32Z"/>
        <path class="cls-5" d="M123.74,98.32c.55-.01,1,.03,1.44-.09,.07-.02,.14-.41,.23-.41,.35,.02,.7-.36,1.05,.08,.38,.48,.75,.53,1.09,.2,.32-.31,.65-.23,.98-.33,.11-.04,.22-.12,.35,.32,.1,.32,.26,.35,.36-.23,.02-.11,.07,0,.11,.05,.04,.06,.09,.3,.12,.22,.3-.89,.65-.23,.97-.45,.08-.06,.18,.2,.23-.39,.01-.15,.09-.18,.12-.04,.07,.36,.14,.43,.22,.42,.34-.04,.67-.04,1.01-.05,.14-.77,.33-.43,.51-.43,.13,0,.27,.26,.41,.4,.14,.14,.26-.34,.42,.31,.02,.1,.07-.1,.1-.11,.17-.06,.33-.31,.5-.07,.09,.12,.17,.25,.25,.24,1.04-.03,2.09-.08,3.13-.16,.09,0,.18,.08,.25-.37,.05-.35,.22-.37,.31-.03,.15,.55,.25,.32,.36,.34,.21,.04,.41-.06,.62-.01,.12,.03,.23-.37,.39,.39,.02,.07,.05,.07,.06,0,.08-.74,.26-.14,.4-.05,.1,.06,.2,.05,.28-.32,.08-.36,.25-.43,.37-.06,.17,.49,.27,.32,.4,.32,.72-.02,1.43-.07,2.14-.18,.34-.05,.6-.76,.97-.53,.09,.05,.15-.24,.27,.28,.03,.11,.08,.04,.1-.1,.04-.48,.15-.31,.26-.3,.48,.05,1,.29,1.41-.22,.32-.39,.69-.28,1.03-.44,.11-.05,.28,.29,.41,.35,.13,.06,.24,0,.35-.04,.07-.03,.16,.11,.17-.32,0-.23,.1-.31,.16-.13,.22,.6,.34,.34,.48,.33,.41-.03,.81-.13,1.22-.15,.1,0,.16-.33,.35,.3,.03,.09,.05-.13,.08-.2,.03-.07,.05-.27,.09-.18,.4,.8,.6,.27,.87,.26,.67-.03,1.3-.26,1.97-.26,.19,0,.25-.58,.43-.58,.18,0,.33-.1,.51-.08,.13,.01,.2-.31,.44,.33,.07,.17,.15,.15,.15-.03,0-.67,.22-.37,.34-.49,.15-.15,.41,.22,.44-.49,0-.19,.17,.15,.25,.17,.13,.03,.26,.02,.37-.04,.05-.03,.06-.28,.11-.32,.41-.26,.81-.55,1.24-.72,.44-.17,.9-.21,1.35-.32,.45-.11,.89-.27,1.36-.3,.18-.01,.23-.56,.61,.28,.02-.57,.24-.28,.53,.28,.04,.08,.03-.18,.04-.27,.06-.26-.06-1.18,.31-.24,.01,.03,.02-.01,.03,0,.14,.11-.04-.89,.25-.33,.18,.34,.27,.15,.39,.16,.12,0,.25,.01,.34-.1,.1-.12,.34,.3,.26-.45-.01-.12,.21,.36,.25,.31,.22-.25,.66,.34,.69-.58,0-.21,.11-.22,.22-.06,.4,.56,.53,.18,.72-.12,.24-.39,.55-.59,1.09,.24,.11,.18,.18,.32,.17-.02,0-.22,.08-.19,.14-.21l2.05-.51c.19-.05,.53,.61,.65,.31,.05-.13,.23,.21,.15-.4-.01-.08,.01-.14,.04-.1,.39,.63,.39-.39,.68-.17,.06,.05,.14,.17,.21,.23,.07,.06,.16,.22,.18,.11,.15-.92,.66-.38,.96-.67,.1-.1,.32,.25,.26-.49,0-.11,.05-.12,.09-.02,.41,.82,.48,.1,.75,.27,.14,.09,.15-.41,.41,.28,.03,.09,.06,0,.08-.05,.03-.1,.02-.34,.07-.34,.14,0,.37,.37,.42,.11,.07-.32,.23-.23,.36-.28,.07-.03,.22,.28,.32,.33,.09,.05,.15-.02,.23-.04,.11-.03,.19-.18,.33-.04,.14,.14,.05-.62,.29-.15,.18,.36,.12-.34,.2-.45,.04-.05,.11,.02,.18,.08,.05,.05,.14,.28,.17,.25,.07-.06,.18,.05,.19-.28,0-.23,.21,.14,.3,.17,.1,.03,.17-.03,.26-.05,.08-.02,.21,.1,.25-.09,.16-.83,.61-.45,.93-.63,.08-.05,.12-.32,.35,.29,.04,.11,.09,.1,.1,.03,.11-.96,.62-.34,.89-.67,.19-.24,.34-.63,.6-.61,.25,.02,.53,.13,.68-.23,.12-.3,.25-.57,.46-.45,.22,.11,.07-1.19,.51-.17,.18-.04,.35-.13,.54-.12,.16,0,.24-.31,.55,.27,.11,.21,.21,.17,.22-.05,.02-.7,.25-.56,.52-.28,.07,.07,.04-.26,.09-.29,.15-.08,.29-.17,.47-.12,.54,.15,.8-.7,1.26-.83,.08-.02,.04-.55,.15-.44,.67,.68,.92-.27,1.49,.07,.85,.5,1.38-.18,2.08-.22,.09,0,.34,.49,.33,.33-.02-.51,.25-.15,.24-.54,0-.69,.31-.32,.44-.54,.1-.16,.37,.22,.27-.53-.02-.11,.03-.11,.08-.03,.41,.61,.27-.45,.56-.2,.08-.93,.64-.49,.93-.79,.04-.04,.03-.24,.04-.35,0-.06,0-.18,.04-.13,.61,.73,.69-.04,1.08,.07,.13,.04,.3,.23,.43,.27,.13,.04,.13-.2,.45,.27,.1,.15,.12,.04,.13-.04,.06-.43,.73,.58,1.58,2.28,.3,.62,.27,.68,.32,.94,.1,.5,.12,.84-.04,.85-.13,.01-.33-.13-.17,.52,.03,.11-.03,.11-.09,.05-.42-.46-.45,.07-.78-.24-.25-.24-.34-.12-.52-.19-.15-.06-.14,.31-.45-.21-.11-.18-.03,.35-.1,.4-.16,.12-.33,.23-.53,.2-.63-.08-.85,1.03-1.48,.97-.13,.93-.77,.31-1.04,.83-.33,.63-.88,.51-1.29,.86-.08,.07-.17,.07-.31-.11-.09-.12-.2-.25-.26-.24-.23,.03-.44,.17-.68,.16-.13,0-.15,.45-.47-.29-.04-.1-.09-.08-.09,.02,.02,.82-.33,.41-.51,.56-.07,.06-.15,.05-.31-.21-.17-.28-.31-.21-.33,.1-.02,.23-.08,.25-.13,.33-.22,.34-.73-.37-.76,.64-.36-.78-.48-.47-.58-.23-.38,.91-1.11,.5-1.65,.79-.13,.07-.36-.25-.52-.28-.17-.04-.31,.03-.45,.11-.07,.04-.24-.21-.15,.41,0,.05,0,.08-.01,.07-.11-.08-.25-.28-.32-.22-.06,.06-.03,.48-.08,.61-.06,.15-.15,.19-.24,.22-.09,.03-.15,.2-.35-.32,.09,.68-.09,.38-.17,.45-.07,.07-.17,.05-.25,.07l-.29,.07c-.1,.02-.21,0-.29,.08-.11,.12-.18,.4-.29,.5-.12,.11-.26,.14-.42,.1-.19-.04-.42-.21-.62-.28-.08-.03-.1,.15-.12,.4-.02,.33,.03,1.05-.31,.17-.07-.17-.14-.1-.16,.03-.15,1.02-.72,.33-1.03,.68-.37-.64-.47-.17-.64,.07-.25,.36-.56,.55-.96,.21-.43-.36-.69-.03-1.05-.12-.1-.02-.14,.26-.36-.35-.05-.14-.11-.08-.13,.02-.11,.71-.4,.59-.77,.23-.19-.19-.29,.11-.39,.39-.15,.41-.47,.21-.71,.27-.29-.74-.18,.06-.16,.4,.03,.46-.02,.55-.1,.58-.11,.04-.25-.07-.24,.45,0,.27-.13,.24-.26-.02-.17-.34-.16-.17-.17,.09-.02,.3-.28-.39-.38-.33-.11,.07-.15,.48-.45-.29-.03-.07-.06-.05-.06,.01-.02,.87-.52-.26-.65,.15-.86-.76-1.32,.17-2.03,0-.29-.07-.71-.59-.87-.16-.34,.9-.99,.5-1.54,.79-.11,.06-.15,.45-.47-.29-.04-.1-.09-.08-.09,.02,0,.76-.22,.58-.53,.15-.07-.1-.15-.07-.13,.13,.06,.55-.08,.36-.16,.37-.1,0-.35-.42-.34-.14,.02,.61-.21-.02-.33-.1-.07-.05-.1,.12-.14,.22-.02,.05,0,.29-.03,.24-.35-.61-.31,.38-.56,.16-.05-.05-.09-.02-.15-.09-.66-.76-.66-.77-1.11-.19-.38-.91-.23,.53-.57-.16-.12-.25-.23-.16-.26,.05-.14,.91-.64,.34-.92,.65-.06,.07-.25-.56-.23-.02,0,.2-.23-.33-.3-.3-.11,.05-.3-.27-.27,.38,0,.26-.13,.08-.2,.15-.09,.1-.24-.12-.23,.41,0,.29-.13,.33-.24,.1-.48-.96-.53,.01-.71,.42-.05,.12-.09,.23-.2,.09-.15-.2-.36-.46-.38-.14-.04,.57-.23,.37-.37,.44-.24,.11-.52,.05-.76,.18-.27,.14-.61-.07-.81,.5-.11,.3-.27,.59-.6-.22-.04-.09-.02,.39-.07,.41-.36,.1-.73,.18-1.1,.18-.09,0-.32-.82-.29-.14,.03,.73-.29-.67-.21,.21,.01,.13-.07,.13-.12,.05-.58-.83-.91-.07-1.38-.23-.11-.04-.18,.32-.37-.39-.15,.84-.68-.77-.75,.56-.22-.19-.33,.52-.63-.32-.05-.14-.09,.08-.14-.04-.17-.42-.07,.91-.3,.25-.13-.38-.25-.13-.38-.14-.11,0-.22,.02-.33,.04l-.37,.05c-.12,.02-.25-.02-.37,.06-.23,.16-.41,.72-.69,.53-.03-.02-.07,.08-.06,.22,.04,1.13-.16,.52-.28,.2-.1-.27-.18-.39-.26-.38-.21,.04-.42,.1-.64,.05-.13-.03-.23,.35-.42-.35-.06-.22-.15-.15-.2,0-.19,.77-.51,.36-.77,.49-.12,.06-.24,.05-.37,.04-.09,0-.14,.48-.28,.03-.37,.95-.89,.4-1.34,.54-.45,.14-.91,.11-1.37,.11-.11,0-.22,.37-.37-.38-.03-.14-.11-.13-.13,.02-.04,.41-.07,.63-.19,.09-.02-.1-.08,.02-.1,.13-.07,.3-.16,.28-.28,0-.09-.21-.2-.33-.26-.17-.17,.44-.34,.81-.58,.03-.03-.1-.07,.41-.11,.39-.18-.09-.33,.33-.53-.27-.08-.24-.18-.05-.27-.11-.16-.11-.27,.31-.44,.09-.17-.23-.33-.03-.5-.02l-.5,.03-.5,.02-.5,.02-.5,.02c-.17,0-.33,.02-.5,.02-.12,0-.23-.08-.36-.38-.33-.75-.68-.64-1.1-.01-.03,.04-.07,0-.1,0-.43,.02-.86,.17-1.29-.02-.19-.08-.39-.42-.58-.36-.12,.04-.25-.07-.36,.41-.09,.4-.26-.28-.36,.43-.04,.26-.15,.25-.22,.04-.22-.7-.41-.32-.61-.38-.23-.06-.46-.04-.69,.02-.11,.03-.23-.21-.33,.38-.05,.29-.19,.09-.28-.15-.14-.37-.26-.3-.38-.14-.25,.35-.25,.41-.51-.01-.03-.05-.06-.05-.1-.05-.32,0-.65-.26-.95,.11-.25,.31-.5,.34-.76,.36-.1,0-.21,.35-.31-.4-.01-.11-.07-.1-.09,0-.19,.82-.43,.39-.65,.41-.21,.02-.39,.69-.62,.53-.21-.15-.42-.02-.62-.02-.32,0-.39-.44-.44-2.49-.04-1.69,.03-2.06,.28-2.42,.52-.77,1.07-.22,1.5-.45Z"/>
      </g>
    </g>
  </g>
</svg>