<?xml version="1.0" encoding="UTF-8"?>
<svg id="_Слой_2" data-name="Слой 2" xmlns="http://www.w3.org/2000/svg" xmlns:xlink="http://www.w3.org/1999/xlink" viewBox="0 0 168.5 71.84">
  <defs>
    <style>
      .cls-1 {
        fill: none;
      }

      .cls-2 {
        clip-path: url(#clippath);
      }

      .cls-3 {
        fill: #f3f9fb;
      }

      .cls-4 {
        fill: #f7fbfc;
      }

      .cls-5 {
        fill: #f8fcfd;
      }

      .cls-6 {
        fill: #f4fafb;
      }

      .cls-7 {
        fill: #f5fafb;
      }

      .cls-8 {
        fill: #fbfdfe;
      }

      .cls-9 {
        fill: #232220;
      }

      .cls-10 {
        fill: #42413c;
      }

      .cls-11 {
        fill: #6e7c6e;
      }

      .cls-12 {
        fill: #353430;
      }

      .cls-13 {
        opacity: .49;
      }

      .cls-14 {
        opacity: .8;
      }
    </style>
    <clipPath id="clippath">
      <rect class="cls-1" width="168.5" height="71.84"/>
    </clipPath>
  </defs>
  <g id="_насекомые" data-name="насекомые">
    <g class="cls-2">
      <g>
        <g class="cls-13">
          <g>
            <path class="cls-11" d="M89.63,21.83c-.12-.06-.3-.02-.38,.06s-.1,.18-.11,.27c-.01,.14-.02,.29,.09,.41,.11,.12,.31,.18,.51,.23,.49,.11,1.04,.13,1.52,0s.85-.44,.85-.78c0-.09-.02-.18-.09-.27-.15-.19-.49-.28-.81-.33-.4-.06-.82-.09-1.23-.07-.12,0-.24,.01-.34,.04-.17,.06-.27,.17-.36,.29-.1,.13-.21,.25-.31,.38"/>
            <path class="cls-11" d="M89.08,21.02c.19-.17,.41-.2,.64-.24,.09-.02,.17,.05,.26-.13,.05-.09,.12,.13,.19,.13,.2,0,.38,.06,.58,.07,.19,0,.43-.03,.65-.01,.22,.01,.32,.11,.63,.06,.26-.03,.14,.15,.28,.18,.14,.04,.25,.11,.24,.22-.01,.08-.04,.15,.05,.21,.05,.03,.18,.05,.19,.11,.01,.06-.05,.13,.16,.15,.02,0-.01,.03-.04,.05-.12,.08-.11,.16-.02,.21,.01,0,.02,.02,.03,.02,.05,.04,.03,.08,.03,.12,0,.13-.03,.26-.1,.37-.05,.08-.18,.15-.26,.21-.08,.07-.04,.18-.22,.2-.18,.02-.24,.07-.31,.12-.04,.03-.2,0,0,.14,.02,.01,0,.02-.03,.02-.43-.09-.18,.2-.43,.22-.24,0-.39,.09-.61,.13-.06,0-.15-.04-.13,.11,0,.05-.06,.06-.11,.03-.28-.2-.41-.07-.62-.13-.21-.06-.47-.01-.63-.22-.06-.09-.13-.15-.34-.03-.1,.05-.14-.07-.21-.09-.06-.02-.18,0-.23-.04-.04-.03-.02-.12-.02-.18,0-.02-.01-.03-.03-.04-.18-.05-.24-.21-.25-.36-.03-.24,.05-.4,.02-.51-.05-.24,.1-.6,.31-.73,.12-.08,.3-.13,.65,.19,.08,.07,.15,.15,.22,.22,.05,.06,.06,.07,.07,.1,.01,.03,.03,.06,.02,.07-.01,.01-.01,.04-.01,.06,0,.05,.13,.13,.04,.13-.03,0,.06,.03-.1,.02-.02,0-.04,0-.02,.01,.05,.03,.09,.06,.12,.07,0,0,.02,0,.02,0h-.13s-.08,.03-.08,.03h0s0,0,0,0h0s.2-.06,.2-.06h0s0,0,0,0h0s0,.01,0,.01c0,.01,0,.03,0,.03,.05,.03,.21-.08,.17-.03,.11-.13,.08-.11,.07-.07-.02,.16,.07,.07,.09,.09,.06,.03,.09,0,.14,0,.01,0-.15-.08-.01-.02,.14,.06,.05,0,.05,0,0,0-.06-.03,.04,0,.44,.09,.27-.02,.33-.05,.04-.02,.07-.05,.09-.07,.02-.04,0-.08-.1-.09-.1-.02-.37,.05-.29,.01,.02-.02-.19,.06,.16-.09,.1-.04-.19,.07-.2,.07-.04,0-.04,0-.05,0-.02,0-.02-.02-.06,0-.03,0-.12,.08-.14,.1-.02,.02-.02,.02-.01,0,.01-.02,.04-.09,.03-.11-.02-.02-.04,.06-.05-.02-.04-.15-.1-.08-.15-.07-.03-.02-.09,.04-.18,.21-.04,.09-.22,.05-.28,.12-.03,.03-.43-.22-.54-.34-.02-.02-.04-.05-.05-.06-.06-.16-.19-.37-.11-.44,.12-.09,.16-.23,.4-.43Z"/>
          </g>
          <g>
            <path class="cls-11" d="M70.14,27.48c-2.03,.21-3.91,.36-5.85,.8-1.94,.45-2.63,.5-5.54,.85-.15,.02-2.13,.1-2.24,.03-.34-.21,.03-.56,.39-.76,1.14-.6,2.41-1.1,3.76-1.47,.88-.24,1.79-.44,2.7-.62,4.46-.92,8.97-1.77,13.47-2.61,1.7-.32,3.4-.64,5.15-.83,1.08-.12,2.17-.19,3.26-.27,2.24-.15,4.48-.3,6.72-.45,1.43-.09,3.11-.13,4.04,.58,.16,.12,.29,.29,.19,.44-.07,.1-.23,.15-.37,.2-2.49,.82-5.07,1.54-7.7,2.15-1.35,.31-2.72,.6-4.13,.74-1.28,.13-2.58,.13-3.87,.19-3.5,.15-7.85,.64-11.29,1.09"/>
            <path class="cls-11" d="M76.28,26.11c1.35-.12,2.71-.2,4.06-.27,.5-.03,1.01,.03,1.51-.17,.25-.1,.74,.08,1.2,.05,1.25-.04,2.44-.24,3.66-.5,1.18-.27,2.34-.62,3.51-.95,1.16-.32,2.38-.57,3.46-1,.15-.06,.31-.12,.46-.17,.03-.01,.03-.01,.06-.01h.17c.08,0,.18-.07,.08-.11-.11-.05-.2-.05-.26-.06h-.07s-.3-.04-.3-.04c-.24-.02-.48-.04-.71-.05-.69-.05-1.42-.05-2.15,.03-.45,.05-.87,.18-1.36,.21-.46,.02-.99-.03-1.37,.2-.03,.02-.24,0-.35-.02-.5-.1-1.11-.05-1.52,.07-.4,.11-.76,.13-1.13,.16-1.02,.09-2.04,.18-3.05,.25l-2.28,.25c-.79,.11-1.62,.33-2.36,.36-.75,.01-1.45,.18-2.17,.31-.41,.08-.9,.08-1.2,.35-.03,.02-.18,.05-.25,.05-1.21-.04-2.29,.53-3.49,.69-1.23,.17-2.47,.46-3.7,.7-.33,.07-.69,.08-.97,.28-.1,.07-.44,.14-.62,.14-.95-.03-1.89,.28-2.8,.47-.52,.1-1.04,.23-1.56,.36l-.76,.21-.38,.1s-.1,0-.14,0c-.14-.02-.57,.12-.2,.18,.2,.02-.11,.05-.11,.09,.02,.05,.41-.04,.41-.06,0,0-.19,.09-.21,.13-.01,.01,0,.01,.04,0l.23-.1,.67-.05c.79-.06,1.58-.1,2.33-.26,.76-.16,1.52-.37,2.36-.53,.82-.16,1.64-.25,2.46-.33,.9-.09,1.82-.11,2.46,.19,.29,.14,.31,.31-.06,.46-.27,.1-.58,.21-.89,.26-.5,.09-1,.18-1.48,.26-1.01,.18-1.97,.5-3,.64-.33,.04-.7,.23-1,.12-.04-.01-.18,0-.24,.02-.68,.27-1.42,.39-2.15,.48l-1.09,.11-.8,.09c-.31,.04-.57,.04-.86,.07-.47,.03-1.01,.07-1.45,.06-.41-.03-.67-.12-.85-.21-.09-.05-.17-.09-.23-.15-.08-.06-.17-.3-.16-.44,.01-.29,.11-.45,.29-.64-.02-.2,.17-.51,.77-.81,.57-.3,1.27-.58,1.91-.79,.64-.21,.81-.24,1.14-.33,.31-.07,.61-.16,.92-.22,.61-.12,1.21-.26,1.82-.4,1.21-.29,2.39-.51,3.59-.74l7.29-1.4c.41-.08,.75-.26,1.25-.27,.47,0,1.05-.18,1.58-.29,.48-.1,1-.22,1.47-.25,.98-.05,1.95-.19,2.92-.35,.48-.07,.97-.18,1.45-.24l1.46-.12c1.95-.15,3.87-.23,5.79-.42,1.18-.1,2.3-.31,3.54-.32,.26,0,.54-.02,.81-.01,.29,.01,.51,.04,.94,.2,.19,.07,1.07,.13,1.48,.39,.39,.21,.65,.48,.78,.78,.07,.14,.08,.39,.02,.54-.06,.14-.12,.22-.22,.33-.21,.15-.33,.31-.73,.42-.43,.17-.99,.33-1.4,.46l-.81,.24-1.63,.48c-.66,.2-1.3,.45-1.97,.64-.7,.2-1.41,.37-2.11,.51-.9,.18-1.82,.3-2.74,.43-.97,.15-1.96,.26-2.87,.22-1.71-.07-3.36,.07-5.02,.18-1.65,.11-3.3,.26-4.94,.49-.93,.13-1.8,.07-2.71,.19-.42,.05-1.06-.34-.91-.52,.03-.03,.1-.08,.16-.1,.88-.26,1.67-.6,2.7-.7,1.52-.15,3.05-.33,4.58-.46Z"/>
          </g>
          <path class="cls-11" d="M43.46,45.87c.62-.15,1.25-.3,1.87-.48,.23-.07,.49-.05,.68-.28,.1-.12,.37,.02,.58-.04,.57-.18,1.16-.31,1.72-.5,.55-.18,1.08-.42,1.62-.62,.54-.2,1.09-.31,1.55-.62,.39-.27,.84-.31,1.22-.55,.41-.26,.83-.52,1.28-.68,.33-.12,.66-.23,.94-.44,.18-.13,.3-.32,.51-.43,.19-.11,.45-.16,.52-.43,0-.02,.11-.04,.17-.04,.27,0,.52-.16,.65-.34,.13-.17,.28-.25,.44-.34,.43-.26,.87-.51,1.34-.72,.17-.08,.35-.15,.54-.21,.19-.07,.37-.12,.48-.17,.27-.13,.51-.44,.84-.58,.33-.15,.6-.38,.9-.61,.17-.13,.43-.19,.47-.46,0-.02,.08-.07,.12-.07,.17-.03,.32-.07,.44-.14,.1-.06,.19-.13,.28-.22,.17-.18,.31-.39,.51-.55,.43-.32,.75-.82,1.14-1.3,.11-.13,.27-.23,.26-.44,0-.08,.12-.22,.21-.26,.24-.11,.45-.28,.63-.43,.16-.15,.31-.31,.49-.45,.39-.32,.67-.73,1.12-1.01,.19-.12,.42-.32,.43-.64,0-.15,.23-.28,.33-.44,.08-.13,.1-.3,.19-.42,.07-.11,.21-.16,.32-.25,.03-.03,.06-.06,.07-.1,.26-.73,.91-1.19,1.31-1.86,.4-.67,.91-1.3,1.45-1.89,.29-.33,.65-.62,1.12-.59,.21,.02,.34,.14,.29,.34-.03,.15-.08,.31-.17,.43-.14,.19-.26,.41-.39,.6-.26,.41-.42,.89-.79,1.23-.11,.11-.14,.31-.35,.32-.03,0-.08,.05-.09,.08-.18,.69-.71,1.18-1.1,1.76-.33,.5-.51,1.09-.96,1.52-.05,.39-.34,.68-.62,.9-.49,.38-.92,.8-1.37,1.21-.49,.44-.78,.74-1.16,1.18-.38,.42-.74,.91-1.19,1.38-.22,.23-.47,.46-.73,.67-.25,.19-.61,.41-.82,.52-.16,.09-.22,.27-.45,.32-.21,.05-.39,.27-.58,.42-.18,.15-.34,.34-.55,.45-.42,.22-.92,.54-1.37,.73-.41,.19-.8,.43-1.21,.63-.81,.41-1.61,.87-2.38,1.38-.47,.31-.9,.69-1.42,.94-.22,.11-.39,.33-.7,.28-.09-.01-.22,.22-.36,.3-.34,.2-.7,.37-1.06,.54-.5,.23-1.02,.45-1.54,.66-.32,.14-.61,.31-.92,.43-.33,.13-.66,.23-1,.31l-1.29,.26c-.44,.1-.87,.32-1.32,.34-.82,.05-1.58,.34-2.36,.51-.78,.18-1.56,.35-2.33,.57-.44,.12-.88,.06-1.31,.15-.2,.04-.57-.36-.52-.54,0-.03,.04-.07,.07-.09,.39-.24,.72-.55,1.21-.64,.71-.14,1.42-.33,2.12-.5Z"/>
          <path class="cls-11" d="M63.52,25.16l-2.23-.38c-.28-.04-.55-.18-.87-.07-.16,.05-.39-.2-.65-.25-.71-.14-1.4-.37-2.09-.6-.67-.21-1.36-.44-1.98-.7-.62-.26-1.22-.61-1.86-.77-.55-.13-.96-.47-1.47-.63-.54-.17-1.1-.35-1.59-.62-.36-.19-.72-.39-1.11-.49-.24-.06-.5-.04-.76-.13-.24-.08-.49-.26-.76-.13-.02,.01-.12-.06-.17-.1-.22-.21-.55-.3-.79-.28-.24,.02-.42-.04-.62-.09-.55-.15-1.1-.28-1.64-.44-.41-.12-.8-.27-1.21-.39-.43-.11-.91-.1-1.29-.27-.39-.15-.78-.21-1.17-.26-.22-.02-.48-.14-.69,.04-.02,.02-.1,0-.14-.01-.62-.32-1.28-.01-1.92-.07l-.25-.02h-.2c-.08,0-.16-.04-.23-.05l-.54-.15c-.35-.1-.71-.2-1.05-.32-.19-.06-.36-.19-.57-.11-.08,.03-.27-.04-.35-.11-.42-.38-.98-.49-1.46-.75-.55-.29-1.14-.48-1.63-.91-.2-.18-.5-.38-.87-.36-.17,0-.39-.21-.6-.31-.17-.08-.38-.1-.55-.2-.14-.09-.24-.24-.35-.35-.04-.03-.08-.07-.13-.09-.89-.34-1.43-1.11-2.18-1.57-.75-.47-1.46-.96-2.19-1.34-.41-.2-.8-.4-1.03-.82-.1-.2-.08-.37,.16-.42,.17-.04,.38-.06,.56-.02,.3,.06,.59,.14,.87,.23,.57,.2,1.18,.36,1.65,.78,.15,.13,.38,.18,.42,.4,0,.03,.06,.08,.1,.1,.81,.26,1.37,.89,2.02,1.33,.57,.38,1.18,.52,1.75,.92,.43,0,.8,.24,1.11,.47,1.09,.8,2.38,1.24,3.6,1.71,.31,.12,.63,.23,.94,.33,.29,.08,.72,.23,.79,.19,.72-.01,1.43,.02,2.14,.08,.24,.03,.46-.06,.73,.05,.26,.11,.6,.09,.91,.14,.28,.04,.58,.04,.83,.14,1.04,.4,2.15,.52,3.21,.82l3.14,.93c.64,.17,1.3,.29,1.92,.56,.26,.12,.58,.12,.78,.4,.05,.08,.36,.03,.53,.1,.43,.15,.85,.33,1.27,.5l1.75,.73c.36,.14,.74,.23,1.1,.36,.37,.14,.72,.3,1.07,.46,.44,.2,.87,.42,1.34,.58,.48,.16,1.01,.2,1.47,.39,.86,.35,1.8,.42,2.71,.6l2.78,.55c.53,.11,.97,.41,1.47,.59,.24,.09,.36,.65,.2,.76-.03,.02-.08,.04-.12,.03-.51-.05-1,.04-1.53-.13-.79-.24-1.62-.38-2.45-.53Z"/>
          <path class="cls-11" d="M97.32,4.76c-.26,.31-.52,.64-.75,.99-.09,.13-.25,.21-.2,.44,.02,.12-.23,.12-.3,.25-.2,.34-.45,.64-.65,.98-.19,.33-.35,.69-.54,1.02-.19,.33-.48,.61-.6,.98-.1,.32-.39,.47-.52,.75-.14,.29-.3,.59-.54,.82-.17,.16-.36,.32-.45,.53-.06,.13-.05,.3-.14,.43-.09,.12-.25,.21-.16,.43,0,.02-.06,.05-.1,.06-.2,.06-.3,.22-.3,.38,0,.16-.08,.24-.14,.35-.18,.28-.37,.55-.57,.81-.15,.2-.37,.35-.53,.53-.17,.2-.27,.47-.49,.61-.23,.13-.37,.31-.52,.49-.09,.1-.26,.17-.17,.38,0,.02-.03,.06-.05,.07-.45,.12-.46,.62-.77,.87-.32,.25-.61,.56-.91,.86-.08,.08-.2,.12-.2,.29,0,.06-.09,.14-.16,.15-.19,.02-.33,.1-.46,.2-.11,.09-.29,.25-.33,.27-.19,.11-.36,.44-.69,.58-.14,.06-.3,.19-.26,.45,.02,.11-.16,.19-.22,.3-.05,.09-.05,.22-.11,.3-.05,.07-.17,.09-.25,.14-.02,.01-.05,.04-.05,.07-.15,.53-.68,.74-.97,1.17-.29,.44-.65,.82-1.08,1.2-.24,.2-.57,.41-.99,.19-.16-.1-.19-.28-.15-.42,.03-.1,.05-.2,.11-.27,.09-.1,.17-.25,.25-.36,.17-.26,.25-.6,.54-.79,.09-.06,.09-.21,.27-.17,.02,0,.06-.02,.07-.04,.09-.5,.51-.75,.78-1.12,.23-.31,.31-.73,.63-.99-.02-.3,.17-.48,.37-.61,.36-.24,.59-.52,1.04-.86l.83-.68c.28-.25,.55-.49,.82-.76l.76-.83c.08-.1,.07-.26,.23-.32,.15-.06,.22-.24,.33-.37,.1-.12,.17-.26,.29-.35,.53-.35,.8-.91,1.16-1.4,.37-.48,.72-.97,1.02-1.5,.18-.32,.28-.69,.52-.98,.1-.12,.1-.32,.35-.35,.07,0,.03-.21,.08-.3,.12-.22,.27-.43,.41-.65,.19-.3,.4-.59,.57-.9,.11-.19,.16-.41,.26-.6,.11-.2,.24-.39,.38-.57,.19-.22,.38-.44,.57-.66,.19-.24,.29-.55,.53-.73,.45-.34,.69-.83,1.04-1.24l1.06-1.25c.19-.25,.54-.32,.76-.52,.11-.1,.54,.15,.6,.32,.01,.03,.01,.07,0,.09-.12,.3-.14,.63-.37,.82-.33,.32-.63,.66-.92,1.03Z"/>
          <path class="cls-11" d="M127.04,35.98l-2.71-.24c-.34-.03-.67-.14-1.04,0-.18,.07-.48-.17-.79-.19-.84-.06-1.67-.17-2.51-.21-.81-.04-1.63-.03-2.44-.04-.8-.02-1.63-.13-2.4-.02-.67,.1-1.27-.06-1.91,.02-.67,.06-1.36,.16-2.03,.14-.49,0-.97,0-1.44,.08-.31,.05-.51,.21-.84,.26-.3,.05-.66,.05-.88,.3-.02,.02-.16,.02-.24,0-.35-.06-.75,.04-1.01,.18-.25,.14-.49,.18-.75,.23-.7,.14-1.4,.27-2.18,.3-.17,0-.34,0-.54-.03l-.31-.06c-.13-.04-.29-.1-.43-.17l.28,.09c-.22-.04-.44-.08-.67-.12-.53-.07-1.12-.04-1.6-.19-.49-.15-.96-.19-1.45-.24-.28-.03-.59-.15-.84,.03-.02,.02-.13,0-.18-.02-.77-.37-1.62-.15-2.43-.41-.82-.25-1.69-.46-2.51-.76-.22-.08-.43-.22-.68-.17-.09,.02-.32-.07-.41-.15-.51-.44-1.16-.62-1.73-.95-.64-.37-1.33-.64-1.9-1.14-.24-.21-.6-.45-1.01-.47-.19,0-.46-.26-.7-.37-.2-.09-.43-.12-.62-.22-.16-.09-.29-.24-.43-.37-.04-.04-.1-.07-.16-.09-1.04-.33-1.81-1.06-2.8-1.53-.99-.47-1.92-1.06-2.84-1.62-.51-.31-1-.65-1.19-1.16-.08-.23,0-.39,.27-.36,.2,.02,.43,.06,.62,.15,.32,.14,.63,.28,.94,.41,.63,.29,1.31,.49,1.88,.92,.18,.13,.45,.18,.53,.41,.01,.03,.08,.09,.13,.1,.94,.23,1.75,.84,2.61,1.29,.73,.38,1.53,.6,2.22,1.08,.5,.05,.95,.34,1.32,.62,1.32,.97,2.81,1.61,4.26,2.2,1.48,.61,3.05,.94,4.65,1.16,.27,.04,.52-.05,.84,.07,.3,.11,.71,.09,1.07,.13,.33,.03,.68,.03,.99,.11,.66,.18,1.33,.26,2,.33l.13,.21c.11-.18,.09-.15,.1-.14,.01,0,0,0,.03,0h.16c.13,0,.26,.02,.41,0,.28-.02,.58-.06,.88-.1,1.25-.16,2.51-.44,3.77-.76,.78-.22,1.6-.39,2.39-.46,.34-.01,.7-.15,1.05,0,.1,.05,.41-.13,.63-.15,.55-.04,1.1-.07,1.65-.08,.77-.02,1.53,0,2.3,0,.47,0,.93-.05,1.39-.06,.49,0,.98,.04,1.46,.09,.61,.07,1.22,.19,1.82,.26,.63,.08,1.3,.05,1.89,.2,1.1,.28,2.22,.3,3.33,.42,1.1,.11,2.21,.21,3.31,.22,.63,0,1.19,.19,1.8,.19,.28,0,.67,.48,.55,.64-.02,.03-.07,.06-.12,.07-.61,.13-1.18,.38-1.88,.32-1.03-.06-2.07-.11-3.09-.2Z"/>
          <path class="cls-11" d="M101.31,22.7h-.05c-.07-.03-.15-.05-.18-.05,0,0-.23-.13,.12,.13,.14,.1-.1-.06-.24-.15-.03-.02-.04-.03-.03-.03,.09,.04,.1,.06,.14,.1l.06,.06c.08,.08,.2,.17,.24,.21h0s0,.04,0,.06c0,.01,0,.02,.01,.03,.02,.03,.06,.11,.1,.16,.16,.18,.07,.44,.16,.65,.08,.17,.19,.7,.02,1.01-.12,.24-.24,.44-.32,.66-.04,.12-.1,.34-.19,.36-.1,.05-.29,.02-.38,.22,0,.02-.11-.03-.17-.07-.11-.09-.21-.12-.3-.19-.12,.07-.16,.07-.21,.13-.08,.09-.16,.08-.23,.09-.21,.02-.43,.03-.65,.02-.16,0-.32-.09-.48-.1-.17-.02-.35,.07-.5-.02-.16-.1-.3-.09-.45-.09-.09,0-.18-.1-.26,.11,0,.02-.04,.02-.05,0-.24-.27-.49,.07-.74,0-.25-.08-.52-.04-.78-.04-.07,0-.14-.06-.21,.08-.02,.05-.1,.05-.13,.01-.18-.21-.39-.1-.58-.14-.22-.05-.45,.03-.66-.14-.09-.07-.22-.12-.34,.06-.06,.08-.16-.01-.24,0-.07,.01-.14,.09-.2,.09-.06,0-.11-.08-.16-.12-.02-.01-.04-.01-.05,0-.34,.19-.64-.11-.97-.08-.33,.04-.66,0-.98-.05-.18-.03-.36-.1-.47-.47-.05-.17-.04-.35,.04-.45,.06-.07,.13-.14,.2-.16,.1-.03,.21-.06,.31-.09,.21-.05,.43-.21,.65-.11,.07,.03,.15-.06,.2,.11,0,.02,.03,.04,.05,.03,.31-.24,.6-.05,.89-.05,.25,0,.51-.19,.75-.08,.15-.19,.31-.15,.45-.08,.48,.25,.98,.13,1.47,.18,.5,.05,.99,.04,1.49,.06,.08,0,.16-.11,.26-.02,.09,.08,.21,.02,.32,.02,.1,0,.2-.04,.3,0,.39,.21,.78,.08,1.17,.09,.22,0,.52,0,.68,0,.05,0,.1-.02,.13-.03,.03,.01,0-.08,0-.12-.02-.05-.03-.07,0-.08,.02-.02-.09-.04,.1-.05,.05-.02-.09-.02-.11-.05l-.1-.39c-.03-.09-.06-.19-.09-.29l-.03-.07-.07-.14-.14-.29c-.13-.19-.31-.39-.52-.62,0-.04,0-.08,0-.11,.02-.23,.05-.36,.1-.48,.04-.1,.09-.16,.1-.21,0-.01,0-.02,0-.03,0-.06-.05-.06-.08-.02l.03-.05c.15-.14,.3-.28,.44-.43l.03-.02c.55,.14,1.05,.27,1.58,.35,.08,.01,.16,.04,.23,.07,.03,.01,.09,.03,.09,.04,0,.04,.02-.05,0,.12-.03,.21,.02,.32,.01,.33-.05-.07-.12-.13-.21-.21-.06-.05-.05-.04-.05-.04h0s.02-.01,.03-.03c.01-.02,.13,.01,.26,.06,.02,0,.11,.05,.15,.05,.04,0,.05,0,.04,0-.01-.06-.12-.1,0-.17-.01-.02,.14-.01,.19,.12,.02,.05,.02,.06,.03,.1,0,.03,0,.06,0,.08-.02,.19,.08,.25-.06,.5-.26,.23-.4,.2-.52,.23-.06,0-.1,0-.14,0-.02,0-.02,0-.03,0-.09-.04-.18-.05-.27-.07Z"/>
          <path class="cls-11" d="M105.2,17.77l-.55,.21c-.07,.03-.15,.02-.2,.1-.03,.04-.11,0-.18,.02-.17,.07-.34,.12-.49,.2-.15,.07-.29,.17-.44,.26-.14,.09-.31,.15-.43,.27-.1,.1-.24,.13-.34,.22-.11,.09-.23,.19-.36,.25-.1,.05-.2,.09-.28,.16-.05,.04-.08,.11-.14,.15-.06,.04-.14,.05-.15,.14,0,0-.03,.01-.05,.01-.09,0-.16,.05-.19,.11-.03,.06-.08,.08-.13,.11-.13,.08-.25,.16-.39,.24-.1,.04-.21,.1-.31,.14-.1,.05-.2,.14-.31,.16-.11,.02-.2,.08-.3,.12-.05,.03-.13,.03-.14,.12,0,0-.02,.02-.03,.02-.19,0-.29,.18-.46,.24-.17,.06-.33,.15-.5,.23-.04,.02-.1,.02-.12,.09,0,.02-.05,.04-.08,.04-.15,0-.27,.09-.4,.13-.15,.05-.29,.14-.45,.15-.07,0-.16,.03-.21,.11-.02,.04-.11,.04-.16,.07-.04,.02-.08,.07-.12,.08-.04,.02-.08,0-.13,0-.01,0-.03,0-.04,.01-.19,.15-.44,.13-.66,.22-.22,.09-.45,.15-.67,.21-.13,.03-.26,.05-.38-.04-.05-.04-.07-.1-.03-.15,.03-.04,.07-.07,.11-.09,.06-.03,.14-.06,.2-.09,.14-.06,.26-.16,.41-.18,.05,0,.09-.05,.15-.01,0,0,.03,0,.03,0,.17-.14,.38-.16,.58-.23,.16-.06,.3-.18,.48-.22,.07-.1,.18-.13,.28-.14,.35-.06,.65-.24,.97-.37,.33-.13,.64-.3,.95-.45,.05-.03,.08-.09,.16-.09,.07,0,.14-.06,.2-.1,.06-.03,.12-.08,.19-.1,.28-.07,.5-.25,.73-.39,.24-.14,.48-.28,.69-.45,.13-.1,.25-.23,.39-.32,.06-.04,.1-.11,.2-.1,.03,0,.05-.08,.09-.11,.09-.07,.19-.14,.29-.2l.42-.27c.09-.06,.16-.13,.25-.18,.09-.06,.19-.11,.29-.15,.13-.05,.26-.08,.39-.12,.13-.04,.26-.12,.39-.14,.25-.03,.46-.13,.68-.21,.22-.08,.43-.17,.61-.3,.1-.07,.22-.09,.31-.18,.03-.04,.21,.01,.23,.06,0,.01,0,.03,0,.04-.05,.14-.11,.28-.25,.37-.2,.13-.41,.23-.62,.32Z"/>
          <path class="cls-11" d="M113.27,20.37c-.31-.03-.62-.07-.94-.09-.12,0-.23-.05-.36,0-.06,.02-.17-.05-.28-.06l-.87-.05c-.28,0-.57,.01-.85,.02-.28,0-.57-.02-.84,.02-.23,.03-.44,0-.67,.02-.23,.03-.48,.06-.71,.06-.17,0-.34,0-.5,.04-.1,.02-.19,.07-.31,.09-.1,.01-.23,0-.31,.09,0,0-.06,0-.08,0-.12-.02-.26,0-.35,.06-.09,.05-.17,.06-.25,.08l-.7,.16c-.17,.03-.36,.06-.53,.09-.18,.04-.37,.12-.54,.13-.18,.01-.34,.06-.5,.1-.09,.03-.21,.03-.27,.12,0,0-.04,.02-.06,.02-.29,0-.52,.18-.79,.24-.28,.06-.56,.16-.84,.25-.07,.02-.16,.03-.22,.1-.02,.02-.1,.05-.14,.05-.23,0-.44,.1-.65,.15-.25,.06-.49,.16-.75,.18-.11,0-.26,.03-.37,.13-.05,.04-.18,.05-.27,.08-.07,.03-.14,.07-.21,.09-.06,.02-.13,0-.2,.01-.02,0-.04,0-.06,.02-.35,.16-.73,.15-1.1,.24-.37,.09-.76,.14-1.14,.16-.21,.01-.44,0-.58-.12-.06-.05-.06-.11,.02-.15,.06-.03,.14-.06,.21-.07,.12-.02,.23-.03,.34-.05,.23-.05,.46-.12,.7-.14,.08,0,.16-.05,.23,0,0,0,.04,0,.06,0,.31-.14,.65-.16,.97-.24,.28-.07,.53-.2,.81-.25,.14-.11,.32-.14,.48-.17,.56-.08,1.1-.29,1.64-.44l1.66-.48c.09-.03,.17-.09,.29-.09,.11,0,.24-.06,.36-.09,.11-.03,.23-.08,.34-.09,.46-.05,.89-.2,1.34-.29,.45-.09,.89-.18,1.34-.27,.27-.05,.54-.14,.82-.15,.12,0,.24-.06,.36,0,.03,.02,.14-.04,.22-.05,.19-.02,.38-.03,.57-.04l.8-.02c.16-.01,.33-.02,.48-.04,.17,0,.34,0,.51,.01,.21,.02,.43,.04,.64,.07,.22,.02,.45,0,.66,.05,.39,.08,.78,.09,1.17,.14,.39,.04,.77,.09,1.16,.13,.22,.02,.41,.1,.63,.12,.1,.01,.21,.19,.17,.23,0,0-.03,.02-.04,.02-.22,.02-.42,.07-.66,.04-.35-.05-.71-.09-1.06-.13Z"/>
          <g>
            <path class="cls-11" d="M92.4,22.25c-.12-.06-.3-.02-.38,.06s-.1,.18-.11,.27c-.01,.14-.02,.29,.09,.41,.11,.12,.31,.18,.51,.23,.49,.11,1.04,.13,1.52,0s.85-.44,.85-.78c0-.09-.02-.18-.09-.27-.15-.19-.49-.28-.81-.33-.4-.06-.82-.09-1.23-.07-.12,0-.24,.01-.34,.04-.17,.06-.27,.17-.36,.29-.1,.13-.21,.25-.31,.38"/>
            <path class="cls-11" d="M91.85,21.44c.19-.17,.41-.2,.64-.24,.09-.02,.17,.05,.26-.13,.05-.09,.12,.13,.19,.13,.2,0,.38,.06,.58,.07,.19,0,.43-.03,.65-.01,.22,.01,.32,.11,.63,.06,.26-.03,.14,.15,.28,.18,.14,.04,.25,.11,.24,.22-.01,.08-.04,.15,.05,.21,.05,.03,.18,.05,.19,.11,.01,.06-.05,.13,.16,.15,.02,0-.01,.03-.04,.05-.12,.08-.11,.16-.02,.21,.01,0,.02,.02,.03,.02,.05,.04,.03,.08,.03,.12,0,.13-.03,.26-.1,.37-.05,.08-.18,.15-.26,.21-.08,.07-.04,.18-.22,.2-.18,.02-.24,.07-.31,.12-.04,.03-.2,0,0,.14,.02,.01,0,.02-.03,.02-.43-.09-.18,.2-.43,.22-.24,0-.39,.09-.61,.13-.06,0-.15-.04-.13,.11,0,.05-.06,.06-.11,.03-.28-.2-.41-.07-.62-.13-.21-.06-.47-.01-.63-.22-.06-.09-.13-.15-.34-.03-.1,.05-.14-.07-.21-.09-.06-.02-.18,0-.23-.04-.04-.03-.02-.12-.02-.18,0-.02-.01-.03-.03-.04-.18-.05-.24-.21-.25-.36-.03-.24,.05-.4,.02-.51-.05-.24,.1-.6,.31-.73,.12-.08,.3-.13,.65,.19,.08,.07,.15,.15,.22,.22,.05,.06,.06,.07,.07,.1,.01,.03,.03,.06,.02,.07-.01,.01-.01,.04-.01,.06,0,.05,.13,.13,.04,.13-.03,0,.06,.03-.1,.02-.02,0-.04,0-.02,.01,.05,.03,.09,.06,.12,.07,0,0,.02,0,.02,0h-.13s-.08,.03-.08,.03h0s0,0,0,0h0s.2-.06,.2-.06h0s0,0,0,0h0s0,0,0,0h0s0,.04,0,.04c.05,.03,.21-.08,.17-.03,.11-.13,.08-.11,.07-.07-.02,.16,.07,.07,.09,.09,.06,.02,.09,0,.14,0,.01,0-.15-.08-.01-.02,.14,.06,.05,0,.05,0,0,0-.06-.03,.04,0,.44,.09,.27-.02,.33-.05,.04-.02,.07-.05,.09-.07,.02-.04,0-.08-.1-.09-.1-.02-.37,.05-.29,.01,.02-.02-.19,.06,.16-.09,.1-.04-.19,.07-.2,.07-.04,0-.04,0-.05,0-.02,0-.02-.02-.06,0-.03,0-.12,.08-.14,.1-.02,.02-.02,.02-.01,0,.01-.02,.04-.09,.03-.11-.02-.02-.04,.06-.05-.02-.04-.15-.1-.07-.15-.07-.03-.02-.09,.04-.18,.21-.04,.09-.22,.05-.28,.12-.03,.03-.43-.22-.54-.34-.02-.02-.04-.05-.05-.06-.06-.16-.19-.37-.11-.44,.12-.09,.16-.23,.4-.43Z"/>
          </g>
        </g>
        <g>
          <g>
            <path class="cls-9" d="M89.4,11.84c-.12-.09-.3-.03-.38,.09s-.1,.27-.11,.42c-.01,.21-.02,.44,.09,.62,.11,.18,.31,.28,.51,.36,.49,.17,1.04,.2,1.52,0s.85-.68,.85-1.2c0-.14-.02-.28-.09-.41-.15-.29-.49-.43-.81-.5-.4-.1-.82-.13-1.23-.12-.12,0-.24,.02-.34,.07-.17,.09-.27,.27-.36,.44-.1,.2-.21,.39-.31,.59"/>
            <path class="cls-9" d="M88.66,11.06c.12-.19,.29-.34,.48-.44l.1-.05c.09-.04,.2,.02,.27-.16,.04-.09,.17,.1,.26,.09,.17-.03,.33,0,.49,0,.16,0,.33-.06,.49-.06,.17,0,.3,.13,.49,.07,.17-.05,.26,.15,.42,.18,.18,.04,.42,.16,.51,.36,.07,.15,.09,.3,.18,.4,.06,.07,.19,.11,.21,.22,.02,.1-.05,.21,.16,.27,.02,0-.02,.06-.04,.08-.13,.11-.13,.24-.05,.32,.08,.09,.05,.16,.04,.23-.04,.2-.11,.39-.22,.54-.08,.12-.23,.18-.32,.27-.1,.09-.15,.26-.31,.27-.16,0-.24,.07-.35,.13-.06,.04-.17-.02-.13,.19,0,.02-.02,.03-.04,.02-.27-.17-.33,.21-.55,.18-.2-.03-.39,.02-.59,.02-.05,0-.1-.06-.16,.08-.02,.05-.08,.05-.1,0-.11-.22-.27-.13-.4-.2-.14-.08-.32-.04-.47-.29-.05-.1-.12-.18-.33-.11-.1,.03-.12-.11-.19-.16-.06-.04-.17-.04-.21-.1v-.02c-.02-.05,0-.13,.01-.19,0-.02,0-.04-.02-.05-.34-.22-.05-.75-.09-.89-.06-.22,.07-.68,.33-.87,.14-.12,.35-.18,.66,.17,.07,.08,.14,.16,.2,.23,.05,.06,.06,.08,.07,.11,.01,.03,.03,.07,.02,.08-.02,.02-.02,.06-.02,.09,0,.07,.15,.17,.06,.17-.03,0,.06,.04-.1,.05-.02,0-.04,.01-.03,.02,.24,.19,.07,.21,.1,.27,.01,.02,.07,.02,.11,0,.05,0,.07-.03,.05,.01,.16-.14,.11-.13,.09-.07-.07,.09,.09,.17,.17,.18,.1,.02,.2,0,.29,.03,.19,.04,.37-.01,.52-.06,.03,0,0-.12,.06-.05,.06,.06,.06-.02,.09-.03,.02-.02,.02-.07,.08-.05,.24,.07,.24-.14,.3-.23,.07-.11,.1-.22,.03-.26-.04-.04-.15,0-.13-.04,0-.02-.07,.06,.03-.1,.03-.05-.07,.06-.08,.07-.02,0-.08-.03-.13-.05-.08-.03-.17-.06-.29-.07-.07,0-.14,.07-.21,.08-.07,.01-.13,0-.2-.02-.08-.03-.16-.1-.25-.12-.08-.02-.22,.07-.21-.02-.03-.08-.08-.1-.11-.08-.03,.01-.04,.04-.06,.06-.03,.02-.04,.02-.07,.08-.04,.08-.08,.17-.11,.26-.03,.11-.22,.12-.27,.21-.02,.04-.47-.12-.61-.21-.03-.02-.05-.04-.06-.05-.08-.16-.25-.35-.18-.45,.05-.07,.09-.15,.13-.23l.06-.13c.03-.07,.07-.13,.11-.19Z"/>
          </g>
          <g>
            <path class="cls-12" d="M69.91,20.56c-2.03,.32-3.91,.55-5.85,1.24s-2.63,.76-5.54,1.32c-.15,.03-2.13,.15-2.24,.05-.34-.32,.03-.87,.39-1.17,1.14-.93,2.41-1.69,3.76-2.27,.88-.38,1.79-.67,2.7-.96,4.46-1.42,8.97-2.73,13.47-4.03,1.7-.49,3.4-.98,5.15-1.28,1.08-.19,2.17-.3,3.26-.41,2.24-.23,4.48-.46,6.72-.69,1.43-.15,3.11-.2,4.04,.9,.16,.19,.29,.45,.19,.68-.07,.15-.23,.23-.37,.31-2.49,1.27-5.07,2.38-7.7,3.32-1.35,.48-2.72,.92-4.13,1.14-1.28,.2-2.58,.21-3.87,.29-3.5,.23-7.85,.99-11.29,1.68"/>
            <path class="cls-12" d="M76.17,18.76c1.39-.18,2.78-.32,4.19-.41,.52-.04,1.05,.03,1.57-.18,.26-.1,.76,.07,1.21,0,1.23-.16,2.45-.46,3.65-.89,1.17-.42,2.31-.92,3.45-1.41,1.13-.48,2.34-.91,3.37-1.51,.62-.37,1.57-.75,1.45-.69,.04-.03,.02-.08-.01-.11,.03,.01-.38-.28-.77-.38-.4-.12-.87-.17-1.34-.2-.69-.05-1.44-.02-2.19,.09-.46,.07-.89,.22-1.4,.26-.47,.04-1.01,0-1.4,.25-.03,.02-.25,0-.36-.01-.52-.08-1.14,0-1.56,.13-.4,.13-.78,.15-1.15,.2-1.03,.14-2.07,.27-3.11,.39-.76,.12-1.53,.22-2.29,.39-.8,.18-1.62,.51-2.38,.63-.77,.12-1.47,.34-2.19,.55-.41,.12-.92,.18-1.19,.47-.03,.03-.18,.07-.26,.08-1.25,.09-2.3,.77-3.5,1.06-1.24,.3-2.48,.72-3.72,1.1-.33,.1-.7,.15-.96,.38-.09,.08-.44,.19-.62,.21-.49,.04-.97,.16-1.43,.31-.45,.16-.9,.35-1.36,.49-1.07,.31-2,.81-3,1.23-.43,.17-.99,.5-1.3,.97,.03,.09-.1,.07-.13,.14,0,.05,.17,.02,.18,0,0,0-.05,.08-.01,.11,0,.01,.03,.01,.04,0,.12-.04,.61-.1,.72-.12,1.28-.3,2.66-.33,3.88-.7,.76-.23,1.49-.53,2.35-.79,.83-.25,1.68-.42,2.52-.55,.92-.15,1.87-.22,2.54,.04,.3,.12,.33,.3-.04,.46-.27,.12-.58,.24-.9,.31-.51,.12-1.01,.24-1.5,.36-1.02,.25-1.96,.65-2.99,.92-.34,.09-.69,.31-1.02,.24-.05-.01-.19,.02-.25,.05-1.38,.67-2.9,.73-4.34,1.03h-.1s-.5,.07-.5,.07l-.61,.06c-.52,.04-1.16,.1-1.45-.09-.32-.05-.6-.59-.53-.99,.04-.41,.27-.84,.72-1.2,.07-.12,.2-.23,.32-.35l.31-.29c.14-.14,.3-.26,.47-.38,.33-.23,.69-.43,1.02-.59,.6-.28,1.19-.55,1.8-.8l1.82-.64c1.21-.47,2.4-.8,3.61-1.16l7.33-2.18c.42-.12,.74-.34,1.25-.4,.48-.06,1.05-.3,1.59-.46,.49-.15,.99-.34,1.47-.42,1.96-.34,3.94-1.02,5.96-1.17,2.01-.25,3.98-.4,5.95-.66,1.22-.14,2.34-.41,3.65-.44,.55,0,1.19-.09,1.73,.24,.14,.08,.74,.1,1.12,.34,.16,.1,.26,.16,.44,.32,.19,.16,.32,.35,.48,.53,.25,.38,.33,.85,.13,1.24-.11,.22-.29,.39-.52,.53-.23,.13-.53,.27-.61,.32-1.05,.52-2.11,1-3.17,1.49-.65,.29-1.27,.64-1.92,.92-.69,.29-1.39,.56-2.1,.8-.9,.3-1.82,.54-2.77,.76-.97,.24-2.03,.49-2.99,.47-1.78-.05-3.43,.08-5.14,.29-1.69,.18-3.38,.42-5.04,.76-.95,.19-1.84,.19-2.77,.37-.43,.08-1.11-.26-.96-.46,.03-.04,.09-.08,.16-.11,.88-.33,1.68-.72,2.74-.89,1.56-.26,3.12-.52,4.69-.73Z"/>
          </g>
          <path class="cls-12" d="M43.6,45.33c.65-.27,1.3-.55,1.93-.87,.23-.12,.51-.16,.68-.44,.08-.14,.4-.07,.61-.19,.57-.32,1.17-.61,1.73-.95,.55-.33,1.06-.72,1.6-1.07,.53-.35,1.14-.62,1.6-1.04,.4-.36,.88-.49,1.29-.81,.43-.33,.87-.67,1.35-.91,.35-.17,.7-.34,1-.58,.18-.16,.31-.37,.53-.51,.2-.14,.48-.22,.53-.51,0-.02,.11-.06,.17-.07,.28-.05,.53-.25,.64-.45,.11-.2,.27-.3,.42-.42,.42-.33,.84-.67,1.28-.98,.29-.23,.62-.45,.91-.71,.3-.28,.53-.67,.86-.89,.33-.23,.56-.52,.8-.81,.14-.17,.37-.31,.32-.58,0-.02,.05-.09,.08-.11,.59-.33,.69-1.03,1.12-1.5,.45-.48,.81-1.05,1.19-1.59,.1-.14,.26-.26,.24-.48,0-.08,.1-.23,.18-.28,.45-.28,.65-.77,.97-1.16,.36-.45,.62-.97,1.08-1.35,.19-.16,.41-.42,.43-.77,0-.16,.24-.34,.34-.53,.08-.15,.11-.34,.2-.48,.08-.12,.22-.2,.34-.3,.03-.03,.06-.07,.08-.12,.29-.81,.99-1.35,1.4-2.09,.41-.74,.9-1.45,1.38-2.16,.27-.39,.57-.77,1.05-.84,.22-.03,.37,.06,.35,.28-.01,.17-.04,.35-.11,.5-.11,.25-.23,.5-.34,.73-.24,.5-.39,1.04-.77,1.47-.12,.13-.15,.36-.37,.39-.03,0-.08,.06-.09,.09-.2,.77-.77,1.33-1.18,1.98-.35,.55-.54,1.19-.98,1.69-.04,.41-.31,.75-.57,1.01-.92,.94-1.55,2.08-2.34,3.11-.8,1.04-1.56,2.11-2.38,3.15-.14,.18-.17,.4-.41,.55-.22,.14-.37,.43-.56,.66-.17,.21-.32,.45-.53,.6-.43,.32-.81,.69-1.19,1.06-.37,.39-.79,.74-1.21,1.04-.84,.61-1.67,1.25-2.48,1.88-.49,.39-.94,.83-1.48,1.16-.23,.14-.4,.39-.73,.38-.09,0-.22,.26-.36,.36-.35,.25-.71,.49-1.07,.72l-1.51,.98c-.3,.21-.57,.46-.88,.67-.32,.22-.65,.41-1,.59-.44,.22-.89,.4-1.33,.62-.45,.22-.88,.54-1.36,.68-.88,.26-1.65,.71-2.48,1.05l-2.48,1c-.47,.2-.95,.2-1.42,.36-.22,.07-.66-.28-.62-.46,0-.03,.03-.08,.06-.1,.41-.29,.74-.65,1.25-.82,.76-.25,1.5-.56,2.24-.87Z"/>
          <path class="cls-12" d="M63.55,16.73c-.69-.19-1.39-.38-2.11-.55-.26-.06-.5-.22-.82-.12-.16,.05-.36-.21-.6-.26-.66-.14-1.3-.31-1.96-.41-.64-.1-1.29-.13-1.93-.2-.63-.06-1.28-.21-1.92-.15-.54,.05-1.02-.14-1.54-.13-.55,0-1.12,.02-1.65-.08-.39-.06-.78-.15-1.17-.12-.24,.02-.47,.12-.74,.11-.25-.01-.53-.1-.74,.1-.02,.02-.13-.02-.18-.05-.27-.13-.59-.12-.81-.03-.22,.09-.41,.08-.61,.09-.55,.02-1.11,.03-1.67,.03-.42,0-.83-.07-1.25-.08-.43,0-.9,.1-1.3,.02-.41-.08-.79-.07-1.19-.05-.22,0-.49-.07-.67,.14-.02,.02-.1,.02-.14,0-.65-.24-1.27,.13-1.92,.09-.07-.02-.29,.02-.42-.03l-.34-.13c-.15-.06-.3-.11-.46-.16-.31-.1-.63-.18-.95-.26-.17-.04-.34-.15-.53-.05-.07,.04-.25,0-.33-.06-.43-.31-.97-.31-1.47-.46-.56-.17-1.17-.21-1.71-.51-.23-.13-.56-.25-.9-.16-.16,.05-.42-.13-.64-.18-.18-.04-.36,0-.53-.06-.14-.04-.26-.16-.39-.24-.04-.02-.09-.04-.14-.04-.88-.06-1.61-.59-2.45-.8-.84-.21-1.67-.5-2.49-.79-.45-.16-.91-.37-1.11-.82-.09-.2-.04-.37,.19-.41,.17-.03,.35-.04,.52-.01,.27,.05,.55,.1,.81,.15,.55,.11,1.13,.12,1.65,.38,.16,.08,.39,.05,.48,.25,.01,.03,.08,.06,.12,.06,.81,0,1.52,.39,2.27,.61,.63,.18,1.33,.2,1.91,.47,.4-.09,.79,.05,1.13,.2,1.2,.53,2.53,.64,3.82,1.01l.99,.3,.49,.16,.35,.12,1.87-.07c.23,0,.42-.13,.69-.05,.25,.07,.57,0,.87-.01,.27,0,.55-.06,.8-.02,1.05,.18,2.1,.02,3.16,.02,1.05,0,2.1,.02,3.15-.03,.64-.03,1.28-.13,1.92-.07,.27,.03,.57-.07,.83,.13,.07,.06,.34-.08,.51-.08,.44,0,.88,.04,1.32,.07l1.84,.14c.38,.02,.76-.01,1.14,.02,.4,.03,.79,.1,1.18,.18,.49,.11,.97,.27,1.45,.4,.5,.13,1.05,.17,1.5,.37,.86,.39,1.73,.54,2.61,.79,.87,.25,1.75,.52,2.64,.83,.51,.18,.88,.54,1.33,.8,.22,.13,.23,.7,.06,.78-.03,.02-.08,.02-.12,.01-.48-.13-.96-.12-1.43-.34-.71-.33-1.48-.56-2.26-.78Z"/>
          <path class="cls-12" d="M97.43,3.94c-.22,.23-.47,.44-.68,.68-.08,.09-.22,.11-.2,.32,.01,.1-.21,.03-.29,.11-.21,.21-.45,.4-.67,.6-.21,.2-.39,.44-.6,.64-.21,.19-.51,.3-.66,.55-.14,.22-.41,.21-.57,.38-.17,.18-.36,.35-.6,.42-.17,.05-.35,.09-.47,.22-.07,.08-.1,.22-.2,.28-.09,.05-.24,.05-.21,.27,0,.02-.06,.02-.09,0-.17-.04-.28,.04-.32,.17-.03,.13-.11,.16-.18,.21-.2,.14-.4,.28-.62,.39-.16,.08-.36,.11-.52,.19-.17,.08-.3,.27-.5,.27-.2,0-.34,.1-.49,.18-.08,.05-.23,.03-.19,.24,0,.02-.03,.04-.05,.03-.37-.09-.43,.35-.71,.43-.28,.09-.52,.27-.77,.43-.07,.04-.17,.03-.16,.19,0,.06-.07,.1-.12,.09-.29-.07-.43,.15-.64,.23-.24,.09-.42,.3-.71,.28-.13,0-.27,.03-.29,.26,0,.1-.16,.09-.23,.15-.06,.05-.08,.16-.15,.2-.05,.03-.15,0-.22,0-.02,0-.04,.01-.05,.03-.22,.37-.68,.29-.97,.52-.3,.23-.64,.39-.98,.55-.19,.09-.4,.14-.7-.12-.14-.11-.22-.27-.2-.4,.02-.1,.05-.2,.1-.25,.08-.09,.17-.18,.26-.26,.18-.17,.3-.43,.56-.48,.08-.01,.11-.14,.25-.03,.02,.02,.05,.01,.06,0,.16-.38,.55-.4,.83-.58,.24-.15,.39-.46,.68-.53,.04-.25,.22-.31,.39-.34,.6-.09,1.02-.49,1.52-.74,.51-.25,.99-.57,1.49-.84,.08-.05,.1-.19,.24-.17,.13,.02,.22-.11,.33-.17,.1-.06,.18-.16,.3-.17,.49-.05,.81-.39,1.19-.61,.39-.22,.77-.45,1.11-.73,.21-.17,.36-.42,.61-.54,.11-.05,.14-.21,.34-.12,.06,.03,.06-.16,.12-.21,.14-.12,.29-.22,.44-.33,.21-.15,.42-.3,.61-.47,.12-.1,.19-.26,.3-.37,.11-.12,.24-.22,.37-.31,.17-.11,.38-.19,.54-.31,.17-.13,.28-.34,.49-.41,.39-.13,.61-.46,.89-.71,.27-.26,.55-.52,.77-.82,.12-.17,.37-.21,.51-.37,.06-.07,.51,.13,.61,.27,.02,.03,.03,.06,.03,.08-.03,.25,.02,.56-.16,.73l-.75,.79Z"/>
          <path class="cls-12" d="M127.79,35.29c-.94-.12-1.88-.3-2.81-.48-.35-.07-.68-.22-1.08-.14-.2,.04-.48-.24-.8-.32-.86-.2-1.71-.47-2.55-.74-.83-.24-1.65-.49-2.46-.78-.8-.3-1.57-.75-2.36-1.01-.68-.24-1.19-.66-1.8-.96-.66-.31-1.32-.66-1.88-1.1-.42-.31-.8-.66-1.25-.91-.29-.16-.58-.24-.84-.41-.25-.16-.52-.41-.86-.37-.03,0-.14-.1-.19-.16-.24-.29-.62-.51-.93-.61-.15-.05-.28-.12-.4-.21-.06-.04-.12-.08-.18-.13l-.12-.09s-.03-.02-.03-.02h-.02s-.14-.03-.14-.03c-.19-.04-.38-.1-.57-.15-.37-.11-.73-.25-1.07-.39-.51-.21-.97-.49-1.44-.68-.5-.21-1.03-.25-1.53-.47-.48-.22-.96-.34-1.45-.47-.28-.07-.58-.24-.86-.1-.03,.01-.13-.02-.17-.04-.73-.46-1.6-.31-2.39-.57-.82-.27-1.69-.42-2.53-.61-.23-.05-.46-.16-.7-.06-.08,.03-.32-.01-.43-.08-.58-.33-1.27-.36-1.91-.52-.73-.19-1.48-.24-2.2-.53-.3-.12-.73-.23-1.14-.11-.19,.05-.53-.09-.81-.11-.23-.02-.45,.03-.67,0-.19-.03-.36-.13-.55-.19-.05-.02-.12-.03-.18-.03-1.11,.05-2.14-.34-3.28-.43-1.13-.1-2.32-.34-3.44-.84-.62-.27-1.22-.71-1.33-1.28-.06-.25,.06-.38,.33-.31,.19,.06,.41,.11,.6,.2,.31,.14,.62,.25,.93,.34,.65,.2,1.34,.2,2.02,.42,.21,.07,.49,.02,.65,.21,.02,.03,.11,.05,.16,.05,.99-.11,1.99,.15,3,.27,.85,.1,1.71,.02,2.55,.25,.5-.12,1.05,0,1.52,.16,1.63,.52,3.33,.72,4.98,1.13,1.67,.41,3.35,.79,5.01,1.22,.28,.07,.56,.02,.87,.19,.29,.16,.71,.2,1.07,.29,.33,.08,.69,.13,.99,.26,1.32,.51,2.61,1.05,3.81,1.44l.45,.14c.09,.02,.12,.03,.26,.06,.12,.05,.3,.02,.38,.14,.23,.21,.31,.28,.43,.37,.12,.09,.25,.19,.38,.27,.52,.35,1.11,.64,1.72,.98,.78,.45,1.43,.79,2.12,1.25,.29,.19,.65,.29,.84,.63,.05,.1,.41,.13,.61,.23,.49,.26,.96,.53,1.46,.77,.68,.36,1.37,.68,2.08,.98,.44,.17,.89,.28,1.33,.43,.46,.15,.92,.33,1.37,.51,.58,.21,1.13,.49,1.73,.67,.61,.21,1.28,.3,1.85,.53,1.07,.44,2.22,.57,3.34,.78,1.12,.18,2.25,.34,3.39,.36,.64,.02,1.22,.21,1.85,.22,.29,0,.69,.49,.57,.65-.02,.03-.07,.06-.12,.07-.63,.13-1.22,.37-1.95,.3-1.07-.08-2.15-.16-3.21-.32Z"/>
          <path class="cls-12" d="M100.52,22.22l-1.54-.55,.03-.06c.11-.19,.33-.38,.24-.55-.04-.1,.32-.3,.41-.46,.06-.12,.13-.23,.19-.36l.1-.2c.07-.13,.12-.26,.17-.4,.09-.27,.11-.55,.17-.82,.05-.27,.21-.53,.15-.81-.06-.24,.14-.42,.11-.64-.02-.24-.04-.47,.04-.7,.06-.17,.12-.34,.07-.5-.03-.1-.14-.19-.15-.3,0-.1,.07-.24-.15-.29-.02,0,.01-.06,.03-.08,.06-.07,.07-.13,.07-.19,0-.04-.03-.03-.07-.03-.08,.02-.07,.03-.08,.02h0s0,0,0,0c0,0,.01-.03-.02-.05-.09-.01-.18-.03-.27-.02-.19,.02-.37,.14-.56,.08-.19-.06-.36-.01-.53,.03-.1,.02-.23-.03-.26,.18,0,.02-.04,.03-.06,.02-.35-.19-.52,.24-.81,.26-.31,.03-.59,.17-.88,.27-.08,.03-.18,0-.21,.16,0,.06-.09,.09-.14,.07-.28-.12-.47,.08-.71,.12-.27,.05-.5,.22-.82,.16-.13-.03-.29-.02-.38,.2-.04,.1-.2,.05-.29,.1-.08,.04-.13,.14-.21,.17-.07,.02-.16-.03-.24-.05-.02,0-.05,0-.07,.02-.35,.31-.82,.11-1.23,.23-.41,.12-.86,.13-1.29,.11-.24-.02-.49-.09-.62-.46-.06-.17-.04-.34,.06-.45,.07-.07,.15-.15,.23-.16,.12-.03,.24-.06,.36-.1,.24-.08,.46-.24,.72-.19,.08,.02,.16-.09,.24,.07,.01,.02,.05,.03,.06,.02,.29-.3,.66-.19,.99-.29,.28-.08,.5-.35,.81-.34,.1-.24,.29-.26,.47-.25,.63,.03,1.15-.3,1.73-.47,.59-.17,1.18-.39,1.79-.55,.1-.03,.17-.16,.31-.11,.13,.05,.27-.05,.41-.08,.13-.03,.25-.1,.38-.08,.27,.06,.52,.03,.77,0l.56-.08c.2-.02,.38,0,.54,.08,.08,.04,.15,.09,.21,.15,.11,.11,.16,.27,.2,.44l.14,.49,.14,.68c.07,.3,.2,.61,.16,.93-.02,.13,.09,.28-.1,.41-.06,.04,.08,.17,.09,.25,0,.22-.03,.43-.06,.65-.04,.3-.11,.59-.16,.89-.03,.18,0,.38-.04,.56-.04,.19-.1,.38-.19,.56-.1,.23-.27,.42-.39,.64-.03,.05-.06,.11-.08,.17l-.04,.09s0,0,0,.01c0,.02,0,.03-.07,.05-.1,.03-.16,.09-.2,.14,.04,.04,.15,.04,.2,.08l.09,.04,.26,.1c.19,.07,.39,.13,.59,.18,.11,.03,.21,.1,.3,.17,.04,.03,.11,.08,.12,.1,0,0,0-.01,0,.02l-.03,.1c-.01,.06-.02,.1-.02,.14,0,.07,.01,.11,.01,.11,.07,.08,.02,.02,0,.03-.03,0,0,0,.03-.03,0-.05,.03,.02-.01-.05-.04-.05-.1-.08-.08-.15,0-.05,.16-.12,.25-.06,.13,.07,.18,.15,.21,.26,.01,.06,.02,.14-.02,.22-.04,.1-.11,.15-.14,.18-.21,.16-.39,.13-.49,.15-.17,.02-.27,.04-.39-.01-.17-.07-.35-.14-.53-.2l-.6-.21Z"/>
          <path class="cls-10" d="M105.05,5.43c-.19,.13-.39,.23-.58,.34-.07,.04-.16,.06-.2,.15-.02,.05-.12,.02-.19,.06-.17,.1-.35,.19-.51,.31-.16,.11-.29,.24-.43,.37-.14,.13-.3,.24-.41,.4-.09,.13-.23,.2-.33,.33-.1,.13-.21,.26-.34,.37-.09,.08-.19,.15-.26,.24-.04,.06-.07,.13-.13,.19-.05,.05-.13,.1-.13,.19,0,0-.03,.02-.05,.03-.09,.03-.16,.1-.18,.17-.03,.07-.07,.11-.11,.15-.12,.12-.24,.24-.37,.35-.1,.09-.21,.15-.31,.23-.1,.08-.19,.2-.3,.26-.11,.06-.2,.13-.29,.21-.05,.04-.13,.07-.14,.16,0,0-.02,.02-.03,.03-.21,.06-.29,.26-.46,.37-.17,.11-.34,.24-.5,.37-.04,.03-.1,.05-.12,.12,0,.02-.05,.06-.08,.06-.16,.03-.27,.16-.41,.23-.16,.09-.29,.21-.47,.26-.08,.02-.17,.07-.22,.17-.02,.05-.11,.07-.17,.1-.04,.03-.07,.08-.12,.11-.04,.02-.09,.02-.14,.04-.01,0-.03,.01-.04,.02-.2,.19-.47,.23-.7,.36-.23,.14-.47,.25-.72,.35-.14,.05-.28,.1-.42,.03-.06-.03-.09-.09-.04-.14,.03-.04,.07-.08,.11-.11,.07-.04,.14-.09,.21-.13,.14-.09,.27-.21,.43-.26,.05-.01,.09-.07,.16-.04,0,0,.03,0,.04-.01,.17-.18,.4-.24,.6-.36,.17-.1,.3-.26,.49-.33,.06-.11,.17-.17,.28-.21,.37-.14,.67-.4,1-.62,.33-.22,.64-.47,.95-.72,.05-.04,.07-.11,.15-.14,.08-.02,.13-.11,.2-.16,.06-.05,.11-.12,.18-.15,.28-.15,.49-.4,.71-.61,.23-.21,.45-.43,.65-.67,.12-.14,.22-.31,.36-.44,.06-.06,.09-.15,.19-.16,.03,0,.04-.09,.08-.14,.09-.1,.18-.2,.27-.29l.4-.4c.08-.08,.15-.18,.24-.26,.09-.08,.19-.16,.29-.23,.13-.09,.28-.15,.41-.22,.14-.08,.27-.18,.41-.22,.27-.08,.49-.23,.72-.37,.23-.13,.44-.28,.61-.46,.09-.1,.22-.17,.29-.28,.03-.05,.22-.05,.25,0,0,0,0,.03,0,.04-.04,.15-.06,.33-.19,.46-.19,.19-.4,.36-.61,.5Z"/>
          <path class="cls-10" d="M112.99,9.48c-.32-.05-.63-.11-.95-.14-.12-.02-.24-.06-.36-.01-.06,.02-.17-.06-.28-.07-.3-.02-.59-.06-.89-.07-.29-.01-.58,0-.86,0-.28,0-.58-.02-.85,.03-.23,.05-.45,0-.67,.05-.24,.04-.48,.09-.71,.11-.17,.01-.34,.04-.51,.08-.1,.03-.19,.09-.3,.11-.1,.03-.23,.04-.3,.13,0,0-.06,.01-.08,0-.12,0-.26,.03-.35,.09-.08,.06-.16,.08-.25,.11l-.69,.24c-.17,.05-.35,.11-.52,.16-.18,.06-.36,.17-.53,.21-.18,.04-.33,.1-.49,.18-.09,.04-.21,.06-.26,.15,0,0-.04,.02-.06,.03-.3,.03-.5,.25-.77,.35-.28,.1-.55,.24-.82,.37-.07,.03-.16,.05-.21,.13-.02,.03-.09,.06-.13,.07-.23,.03-.43,.17-.64,.25-.24,.09-.47,.23-.73,.29-.11,.03-.26,.07-.36,.18-.05,.05-.18,.07-.26,.12-.07,.04-.13,.09-.2,.12-.06,.02-.13,.02-.2,.04-.02,0-.04,.01-.06,.02-.33,.21-.73,.24-1.1,.37-.37,.13-.77,.21-1.17,.26-.22,.02-.46,0-.61-.1-.07-.05-.07-.11,.02-.15,.07-.03,.14-.06,.21-.07,.12-.02,.23-.03,.35-.07,.23-.07,.46-.15,.7-.19,.08-.01,.16-.06,.23-.03,.01,0,.04,0,.06,0,.3-.17,.64-.23,.96-.35,.27-.11,.51-.27,.79-.36,.12-.13,.3-.18,.46-.23,.56-.17,1.07-.45,1.6-.68l1.62-.73c.09-.04,.16-.11,.28-.13,.11-.02,.24-.1,.36-.15,.11-.05,.22-.11,.33-.14,.45-.12,.88-.32,1.32-.48,.45-.14,.89-.28,1.33-.43,.27-.08,.54-.18,.83-.23,.12-.02,.25-.07,.38-.03,.04,.01,.14-.05,.22-.07,.19-.03,.39-.05,.59-.07,.27-.03,.55-.03,.82-.05,.17,0,.33-.04,.5-.04,.17,0,.35,0,.52,.02,.22,.03,.44,.05,.66,.08,.23,.02,.47,.02,.68,.07,.4,.1,.8,.13,1.19,.2,.39,.07,.78,.14,1.18,.21,.22,.04,.42,.13,.63,.17,.1,.02,.21,.2,.15,.25-.01,0-.03,.02-.05,.02-.22,0-.43,.04-.67,0-.36-.08-.72-.14-1.07-.2Z"/>
          <g>
            <path class="cls-9" d="M92.17,12.49c-.12-.09-.3-.03-.38,.09s-.1,.27-.11,.42c-.01,.21-.02,.44,.09,.62,.11,.18,.31,.28,.51,.36,.49,.17,1.04,.2,1.52,0s.85-.68,.85-1.2c0-.14-.02-.28-.09-.41-.15-.29-.49-.43-.81-.5-.4-.1-.82-.13-1.23-.12-.12,0-.24,.02-.34,.07-.17,.09-.27,.27-.36,.44-.1,.2-.21,.39-.31,.59"/>
            <path class="cls-9" d="M91.43,11.71c.12-.19,.29-.34,.48-.44l.1-.05c.09-.04,.2,.02,.27-.16,.04-.09,.17,.1,.26,.09,.17-.03,.33,0,.49,0,.16,0,.33-.06,.49-.06,.17,0,.3,.13,.49,.07,.17-.05,.26,.15,.42,.18,.18,.03,.42,.16,.51,.36,.07,.15,.09,.3,.18,.4,.06,.07,.19,.11,.21,.22,.02,.1-.05,.21,.16,.27,.02,0-.02,.06-.04,.08-.13,.11-.13,.24-.05,.32,.08,.09,.05,.16,.04,.23-.04,.2-.11,.39-.22,.54-.08,.12-.23,.18-.32,.27-.1,.09-.15,.26-.31,.27-.16,0-.24,.07-.35,.13-.06,.04-.17-.02-.13,.19,0,.02-.02,.03-.04,.02-.27-.17-.33,.21-.55,.18-.2-.03-.39,.02-.59,.02-.05,0-.1-.06-.16,.08-.02,.05-.08,.05-.1,0-.11-.22-.27-.13-.4-.2-.14-.08-.32-.04-.47-.28-.05-.1-.12-.18-.33-.11-.1,.03-.12-.11-.19-.16-.06-.04-.17-.04-.21-.1v-.02c-.02-.05,0-.13,.01-.19,0-.02,0-.04-.02-.05-.34-.22-.05-.75-.09-.89-.06-.22,.07-.68,.33-.87,.14-.12,.35-.18,.66,.17,.07,.08,.14,.16,.2,.23,.05,.06,.06,.08,.07,.11,.01,.03,.03,.07,.02,.08-.02,.02-.02,.06-.02,.09,0,.07,.15,.17,.06,.17-.03,0,.06,.04-.1,.05-.02,0-.04,.01-.03,.02,.24,.19,.07,.21,.1,.27,.01,.02,.07,.02,.11,0,.05,0,.07-.03,.05,.01,.16-.14,.11-.13,.09-.07-.07,.09,.09,.17,.17,.18,.1,.02,.2,0,.29,.03,.19,.04,.37-.01,.52-.06,.03,0,0-.12,.06-.05,.06,.06,.06-.02,.09-.03,.02-.02,.02-.07,.08-.05,.24,.07,.24-.14,.3-.23,.07-.11,.1-.22,.03-.26-.04-.04-.15,0-.13-.04,0-.02-.07,.06,.03-.1,.03-.05-.07,.06-.08,.07-.02,0-.08-.03-.13-.05-.08-.03-.17-.06-.29-.07-.07,0-.14,.07-.21,.08-.07,.01-.13,0-.2-.02-.08-.03-.16-.1-.25-.12-.08-.02-.22,.07-.21-.02-.03-.08-.08-.1-.11-.08-.03,.01-.04,.04-.06,.06-.03,.02-.04,.02-.07,.08-.04,.08-.08,.17-.11,.26-.03,.11-.22,.12-.27,.21-.02,.04-.47-.12-.61-.21-.03-.02-.05-.04-.06-.05-.08-.16-.25-.35-.18-.45,.05-.07,.09-.15,.13-.23l.06-.13c.03-.07,.07-.13,.11-.19Z"/>
          </g>
        </g>
        <g class="cls-14">
          <g class="cls-14">
            <path class="cls-5" d="M9.19,15.36c-.59-1.02-.53-2.23-.84-3.16-.03-.1-.07-.21-.1-.33-.01,.06-.02,.11-.02,.17-.18,1.27,.1,2.77,.91,3.89,.53,.68,1.27,1.15,2.01,1.65,.08,.06,.16-.04,.2-.09-.03-.12-.04-.23-.05-.34-.6-.31-1.19-.73-1.6-1.33-.11-.21-.44-.32-.5-.46Z"/>
            <polygon class="cls-7" points="11.3 17.18 11.3 17.16 11.21 17.11 11.3 17.18"/>
            <path class="cls-4" d="M9.93,16.18c-.17-.16-.32-.35-.43-.55-.13-.1-.28-.18-.31-.27-.59-1.02-.53-2.23-.84-3.16-.03-.1-.06-.21-.1-.32-.01,.06-.02,.12-.02,.18-.06,.44-.07,.91-.01,1.38l.03,.07c.12,.24,.09,.5,.15,.75,.28,.67,.45,1.27,.91,1.85,.18,.2,.44,.34,.64,.56,.07,.07,.14,.15,.2,.23,.33,.24,.66,.47,1.01,.7,.08,.06,.16-.04,.2-.09-.02-.06-.03-.12-.04-.18-.26-.19-.52-.38-.76-.61-.22-.18-.46-.36-.64-.59,0,.02,0,.03,0,.06Z"/>
            <path class="cls-7" d="M10.06,16.04s-.13-.02-.14,.08c.18,.23,.42,.41,.64,.59-.19-.2-.38-.41-.5-.67Z"/>
            <path class="cls-8" d="M10.43,15.8c-.28-.42-.64-.79-.72-1.22-.03-.23-.03-.46,.04-.67-.02-.07-.04-.13-.06-.19-.56-1.59-.37-3.48,.59-4.87,.45-.71,.76-1.46,1.31-2.21,.37-.4,.79-.57,1.27-.8,1.18-.54,1.92-1.53,3.16-2.18,.33-.17,.22-.66,.13-.64-2.15,.98-4.29,1.97-5.76,3.92-1.11,1.49-1.86,3.13-2.14,4.93,.04,.12,.07,.23,.1,.33,.32,.93,.26,2.14,.84,3.16,.06,.14,.39,.26,.5,.46,.41,.6,1,1.02,1.6,1.33-.01-.23,0-.44,0-.62-.33-.18-.67-.4-.85-.73Z"/>
            <path class="cls-6" d="M10.43,15.8c.18,.33,.52,.56,.85,.73,0-.09-.02-.18-.06-.26-.48-.75-1.14-1.45-1.47-2.37-.07,.21-.07,.44-.04,.67,.08,.43,.44,.8,.72,1.22Z"/>
            <path class="cls-4" d="M10.43,15.8c.18,.31,.48,.54,.8,.71-.07-.1-.15-.19-.24-.27-.43-.44-.82-.96-.97-1.57,.27,.6,.66,1.14,1.16,1.54-.48-.71-1.11-1.42-1.43-2.29-.07,.21-.07,.44-.04,.67,.08,.43,.44,.8,.72,1.22Z"/>
            <path class="cls-3" d="M9.8,14.96c.29,.73,.79,1.41,1.49,1.79,0-.06,0-.11,0-.16-.02-.03-.04-.06-.06-.08-.32-.17-.63-.39-.8-.71-.28-.42-.64-.79-.72-1.22-.03-.23-.03-.46,.04-.67-.02-.06-.04-.12-.06-.18-.29-.81-.38-1.7-.27-2.56-.07-.78,.23-1.6,.7-2.25-.18,.34-.32,.68-.42,1.04,.14-.38,.33-.75,.56-1.1,.19-.3,.35-.61,.52-.92-.05-.13-.06-.28,.04-.46,.17-.27,.38-.5,.53-.8,.03-.03,.09,.04,.16-.02-.18,.17-.29,.36-.32,.56,.11-.19,.24-.37,.37-.56,.28-.32,.62-.49,.97-.66,.03-.03,.06-.06,.09-.08,.16-.13,.29-.31,.44-.47-.07,.05-.15,.09-.23,.14,.08-.13,.24-.22,.35-.29l-.13,.15c.18-.11,.35-.21,.54-.31-.24,.12-.44,.32-.59,.49,.4-.28,.76-.56,1.23-.71l-.02,.03c.54-.43,1.09-.91,1.77-1.27,.33-.17,.22-.66,.13-.64-1.52,.69-2.97,1.37-4.26,2.4,.18-.07,.38-.12,.56-.18,.07-.03,.15-.06,.23-.07-.07,.02-.15,.05-.23,.07-.2,.09-.39,.25-.6,.35-.06,0-.17,.09-.15,.19-.29,.16-.52,.47-.8,.66-.01,.01-.06,.02-.11,.02-.14,.16-.26,.32-.39,.49-.69,.94-1.25,1.91-1.63,2.98,.13-.24,.28-.47,.45-.65,.23-.24,.42-.88,.7-1.38,.06-.13,.19-.15,.27-.26-.07,.55-.54,.98-.74,1.51-.28,.66-.76,1.66-.6,2.49,.05,.33-.03,.64-.13,.92-.07-.1-.06-.29-.06-.38,.02-.85,.18-1.68,.42-2.49-.41,.8-.47,1.68-.61,2.57-.04-.54,.17-1.03,.1-1.54-.03,.04-.06,.08-.08,.12-.09,.34-.16,.69-.22,1.05,.04,.12,.07,.22,.1,.32,.32,.93,.26,2.14,.84,3.16,.03,.09,.19,.17,.31,.27-.19-.31-.3-.65-.43-.98,.02,.15,.03,.29,.03,.43-.17-.3-.13-.62-.25-.93,.07,.17,.16,.33,.22,.5-.03-.22-.1-.43-.12-.66,.21,.38,.11,.85,.46,1.18-.04-.08-.08-.17-.11-.25l.11,.26h0c.13,.25,.33,.46,.52,.63-.28-.39-.36-.83-.54-1.25-.03-.07-.06-.13-.09-.21,.04,.07,.07,.14,.09,.21,.44,.94,.94,1.91,1.82,2.57l.09,.05v-.15c-.71-.51-1.23-1.26-1.5-2.05Z"/>
          </g>
        </g>
        <g class="cls-14">
          <g class="cls-14">
            <path class="cls-5" d="M29.77,24.94c-1.24-.02-2.5-.45-3.58-.27-.11,.02-.24,.03-.37,.05l.18,.05c1.34,.35,2.84,.53,4.24,.54,.44-.03,.86-.07,1.34-.12,.48-.06,1.04-.1,1.61-.46,.12-.08,.05-.2,.02-.25-.14,.01-.27,0-.38-.05-.71,.44-1.57,.36-2.34,.36-.26-.02-.57,.17-.72,.15Z"/>
            <path class="cls-7" d="M32.87,24.42h-.02s-.07,.04-.1,.06c.04-.02,.08-.04,.12-.06Z"/>
            <path class="cls-4" d="M30.97,24.83c-.26,.02-.52,.02-.77,0-.17,.05-.33,.12-.43,.11-1.24-.02-2.5-.45-3.58-.27-.11,.02-.23,.03-.36,.05,.06,.02,.13,.03,.19,.05,.47,.13,.95,.21,1.44,.3h.08c.28-.07,.53,.05,.8,.09,.76,0,1.39,.12,2.15,.1,.27,0,.56-.14,.88-.11,.11,0,.22,.01,.34,.02,.45-.06,.98-.12,1.51-.46,.12-.09,.05-.2,.02-.25-.08,0-.14,0-.21,0-.35,.21-.74,.28-1.12,.29-.33,.04-.65,.05-.98,.05,.01,.01,.03,.02,.05,.03Z"/>
            <path class="cls-7" d="M30.95,24.64s-.11,.08-.03,.16c.32,0,.65,0,.98-.05-.32,0-.63-.04-.95-.11Z"/>
            <path class="cls-8" d="M31.02,24.2c-.62-.09-1.23,.04-1.74-.11-.27-.07-.52-.18-.75-.32-.09,0-.17-.01-.26-.02-2.11-.07-4.22-.32-6.19-.94-.99-.28-1.97-.34-3.02-.57-.61-.18-1.02-.52-1.54-.85-1.25-.87-2.63-1.08-3.99-1.96-.36-.23-.74,.11-.66,.18,2.22,1.6,4.45,2.99,7.09,3.66,1.94,.48,3.19,.79,5.85,1.45,.13-.02,.25-.03,.37-.05,1.08-.18,2.34,.24,3.58,.27,.16,.02,.46-.17,.72-.15,.77,0,1.63,.08,2.34-.36-.23-.08-.39-.23-.54-.34-.34,.16-.82,.19-1.28,.11Z"/>
            <path class="cls-6" d="M31.02,24.2c.46,.08,.93,.05,1.28-.11-.07-.05-.15-.1-.23-.12-.44-.09-1.09-.18-1.7-.18-.62-.02-1.24,.01-1.84-.02,.22,.14,.48,.26,.75,.32,.51,.15,1.12,.02,1.74,.11Z"/>
            <path class="cls-4" d="M31.02,24.2c.44,.08,.89,.05,1.23-.09-.18,0-.3,0-.39-.01-.71-.03-1.56-.06-2.31-.23,.42,.03,.84,.06,1.25,.08,.42,.02,.85,.05,1.18,0-.44-.09-1.08-.16-1.67-.16-.6-.01-1.2,.01-1.78-.02,.22,.14,.48,.26,.74,.32,.51,.15,1.12,.02,1.74,.11Z"/>
            <path class="cls-3" d="M29.74,24.2c.47,.07,.94,.11,1.42,.15,.47,.03,.95,.04,1.32-.14-.05-.03-.09-.07-.13-.1-.04,0-.07,0-.1,0-.34,.14-.79,.17-1.23,.09-.62-.09-1.23,.04-1.74-.11-.27-.07-.52-.18-.74-.32-.08,0-.16-.01-.24-.01-1.08-.03-2.15-.12-3.21-.27-.94,.01-1.94-.2-2.86-.53,.44,.11,.89,.2,1.35,.26-.5-.1-.99-.24-1.47-.39-.42-.11-.83-.21-1.26-.27-.12,.09-.28,.15-.51,.1-.37-.07-.72-.18-1.11-.21-.05-.02,0-.11-.1-.15,.27,.12,.52,.13,.75,.1-.26-.04-.52-.08-.78-.15-.48-.14-.84-.37-1.22-.64-.05-.02-.09-.03-.14-.05-.23-.08-.48-.14-.72-.2,.09,.05,.18,.1,.27,.15-.17-.02-.35-.13-.49-.2,.07,.02,.15,.03,.22,.05-.21-.12-.41-.23-.64-.36,.27,.15,.58,.25,.84,.33-.51-.25-1-.45-1.43-.82h.05c-.74-.29-1.52-.58-2.26-1.07-.36-.23-.74,.11-.66,.18,1.55,1.13,3.1,2.12,4.81,2.86-.17-.15-.34-.3-.49-.44-.08-.05-.15-.11-.2-.18,.07,.06,.13,.12,.2,.18,.21,.14,.46,.24,.69,.4,.03,.05,.18,.12,.27,.06,.31,.2,.75,.28,1.07,.48,.02,0,.05,.05,.08,.09,.22,.06,.44,.12,.68,.19,1.35,.33,2.36,.58,3.7,.91-.28-.11-.55-.23-.79-.37-.32-.22-1.09-.24-1.72-.38-.16-.02-.23-.14-.38-.19,.61-.1,1.26,.25,1.9,.35,.84,.15,1.98,.59,2.92,.52,.39-.03,.73,.13,1.02,.26-.12,.05-.33,.01-.43,0-.98-.17-1.88-.32-2.83-.49,.96,.33,1.92,.4,2.89,.69-.59-.07-1.13-.28-1.7-.24,.05,.03,.09,.06,.13,.09,.34,.09,.72,.18,1.13,.29,.13-.02,.25-.03,.36-.05,1.08-.18,2.34,.24,3.58,.27,.1,.01,.26-.06,.43-.11-.4-.03-.79-.1-1.18-.13,.16,.04,.31,.09,.44,.17-.38,0-.67-.17-1.04-.18,.2-.01,.4,0,.6,0-.24-.06-.49-.1-.73-.15,.49-.06,.92,.23,1.43,.1-.1,0-.21-.02-.31-.03l.32,.03h0c.32,.02,.64-.02,.93-.07-.55-.02-1.03-.19-1.57-.22-.09,0-.17,0-.27,0,.11,0,.19,0,.27,0,.62,.01,1.23,.08,1.84,.14,.61,.06,1.23,.21,1.84-.02,.04-.02,.07-.04,.1-.07-.05-.02-.1-.04-.15-.06-.45,.19-.96,.14-1.46,.08-.51-.07-1.01-.13-1.5-.23Z"/>
          </g>
        </g>
        <g class="cls-14">
          <g class="cls-14">
            <path class="cls-5" d="M47.62,62.23c-2.12,.08-4.33-.22-6.14-.03-.19,.02-.4,.04-.62,.06l.31,.04c2.36,.33,4.9,.38,7.32,.23,1.51-.17,3.04-.54,4.65-1.08,.18-.06,.16-.19,.15-.25-.19-.02-.35-.05-.5-.09-1.24,.49-2.57,.79-3.95,.88-.46,.02-.95,.24-1.22,.24Z"/>
            <polygon class="cls-7" points="52.85 61.11 52.82 61.1 52.63 61.17 52.85 61.11"/>
            <path class="cls-4" d="M49.66,61.94c-.44,.08-.89,.11-1.32,.12-.28,.07-.55,.16-.72,.16-2.12,.08-4.33-.22-6.14-.03-.19,.02-.4,.04-.61,.06,.11,.02,.22,.03,.33,.05,.81,.12,1.65,.19,2.5,.24l.14-.02c.48-.08,.91,.03,1.37,.04,1.29-.07,2.37,.02,3.69-.11,.47-.05,.95-.24,1.51-.3,.19-.02,.35-.05,.55-.07,.72-.18,1.45-.39,2.21-.65,.18-.06,.16-.19,.15-.25-.1,0-.19-.02-.27-.04-.6,.19-1.2,.36-1.83,.47-.54,.13-1.08,.24-1.64,.3,.02,0,.05,.02,.09,.02Z"/>
            <path class="cls-7" d="M49.59,61.76c-.08,0-.17,.11-.02,.16,.56-.07,1.1-.17,1.64-.3-.53,.09-1.07,.15-1.62,.14Z"/>
            <path class="cls-8" d="M49.64,61.31c-1.06,.04-2.08,.23-2.97,.12-.47-.05-.92-.14-1.32-.26-.15,0-.3,0-.44,0-3.62,.09-7.3-.09-10.55-1.41-1.63-.63-3.15-1.18-4.63-2.24-.84-.67-1.34-1.41-1.87-2.28-.66-1.1-1.26-2.11-1.74-3.22-.47-1.1-.8-2.33-.68-3.69,.07-.72-.39-.94-.43-.76-.45,2.4,.1,4.79,1.2,6.8,1.11,2.01,2.74,3.74,4.78,4.91,3.19,1.79,6.56,2.47,9.88,2.98,.22-.02,.42-.04,.62-.06,1.82-.19,4.03,.11,6.14,.03,.27,0,.77-.22,1.22-.24,1.38-.08,2.71-.38,3.95-.88-.31-.09-.57-.21-.86-.27-.74,.27-1.52,.46-2.3,.47Z"/>
            <path class="cls-6" d="M49.64,61.31c.78-.01,1.56-.2,2.3-.47-.14-.03-.29-.05-.46-.05-1.88,.14-4.05,.33-6.12,.38,.4,.12,.86,.21,1.32,.26,.89,.11,1.91-.08,2.97-.12Z"/>
            <path class="cls-4" d="M49.64,61.31c.74-.01,1.49-.19,2.19-.44-.3,.05-.54,.08-.76,.11-1.29,.21-2.64,.3-3.97,.19,1.43-.01,2.85-.07,4.2-.39-1.83,.15-3.94,.33-5.95,.38,.4,.12,.86,.21,1.32,.26,.89,.11,1.91-.08,2.97-.12Z"/>
            <path class="cls-3" d="M47.47,61.5c1.61,.03,3.26-.03,4.8-.58-.08-.03-.16-.05-.24-.07-.07,.01-.13,.02-.2,.03-.71,.25-1.45,.43-2.19,.44-1.06,.04-2.08,.23-2.97,.12-.46-.05-.92-.14-1.32-.26-.14,0-.28,0-.41,0-1.86,.05-3.71,.03-5.52-.18-1.6-.02-3.31-.4-4.84-1.04,.73,.25,1.49,.45,2.26,.6-.84-.2-1.67-.45-2.46-.77-.69-.26-1.36-.53-2.02-.8-.18,.03-.43,0-.8-.16-.57-.28-1.06-.65-1.64-.96-.07-.06,0-.12-.12-.24,.37,.33,.74,.51,1.08,.64-.37-.22-.76-.44-1.12-.71-.67-.51-1.1-1.11-1.54-1.73-.06-.06-.11-.12-.16-.19-.2-.23-.49-.56-.83-.95,.09,.15,.18,.29,.28,.45-.2-.2-.39-.5-.52-.73,.08,.09,.17,.19,.25,.28-.23-.34-.38-.7-.59-1.08,.24,.47,.54,.92,.84,1.26-.55-.79-.99-1.58-1.22-2.49l.04,.06c-.54-1.2-1-2.54-.87-4.06,.08-.72-.39-.95-.43-.76-.59,3.38,.68,6.64,2.79,9.03-.19-.31-.36-.64-.53-.97-.08-.14-.16-.27-.2-.41,.06,.14,.13,.28,.2,.41,.22,.37,.53,.73,.8,1.11,.03,.09,.22,.3,.36,.31,.39,.51,1,.96,1.47,1.4,.03,.02,.06,.08,.1,.16,.32,.25,.68,.45,1.02,.66,1.99,1.12,4.07,1.79,6.14,2.28-.49-.16-.96-.33-1.38-.53-.56-.28-1.84-.53-2.88-.96-.27-.09-.37-.26-.62-.38,.97,.2,2.05,.81,3.13,1.06,1.4,.38,3.4,.95,5,.89,.66-.02,1.26,.12,1.78,.25-.2,.05-.56,.03-.74,0-1.63-.13-3.26-.36-4.88-.69,1.65,.5,3.32,.63,5.01,.89-1.01-.04-1.97-.29-2.93-.28,.08,.04,.16,.07,.23,.1,.66,.12,1.31,.23,1.97,.33,.21-.02,.42-.04,.61-.06,1.82-.19,4.03,.11,6.14,.03,.17,0,.44-.09,.72-.16-.68,.02-1.36-.01-2.04,0,.27,.03,.53,.07,.78,.14-.64,.03-1.16-.11-1.81-.09,.35-.03,.69-.04,1.03-.04-.41-.04-.84-.06-1.27-.09,.84-.11,1.6,.16,2.45-.02-.18,0-.36,0-.53,0h.55s-.01,0-.01,0c.55-.02,1.09-.1,1.58-.19-.94,.07-1.79-.06-2.71-.04-.15,0-.3,.01-.46,.02,.17,0,.31-.01,.46-.02,2.1-.08,4.23,.05,6.28-.55l.19-.07-.21-.06c-1.67,.5-3.45,.54-5.14,.47Z"/>
          </g>
        </g>
        <g class="cls-14">
          <g class="cls-14">
            <path class="cls-5" d="M82.59,51.85c-1.57,.03-3.29-.08-4.56,.49-.14,.06-.28,.12-.42,.19l.23-.03c1.74-.19,3.61-.29,5.38-.3,1.09-.05,2.24-.16,3.44,.11,.13,.03,.18-.09,.2-.15-.1-.1-.19-.21-.27-.31-1.01-.12-2.03-.12-3.06-.17-.34-.03-.72,.18-.93,.17Z"/>
            <polygon class="cls-7" points="86.61 51.87 86.6 51.85 86.45 51.83 86.61 51.87"/>
            <path class="cls-4" d="M84.13,51.74c-.34,0-.67,0-1-.02-.22,.05-.42,.14-.55,.13-1.57,.03-3.29-.08-4.56,.49-.14,.06-.28,.12-.42,.19,.08,0,.16-.02,.25-.03,.6-.06,1.22-.12,1.85-.16l.1-.03c.34-.13,.67-.05,1.01-.07,.95-.13,1.75-.05,2.71-.08,.34-.01,.71-.12,1.12-.08,.14,.01,.27,.03,.4,.06,.54,0,1.09,.05,1.64,.18,.13,.03,.18-.09,.2-.15-.05-.05-.1-.11-.15-.16-.46-.11-.92-.18-1.4-.25-.45-.02-.87-.03-1.26-.05,.02,.01,.04,.02,.06,.04Z"/>
            <path class="cls-7" d="M84.1,51.54c-.06,0-.14,.08-.04,.16,.39,.01,.81,.03,1.26,.05-.4-.05-.8-.12-1.22-.2Z"/>
            <path class="cls-8" d="M84.2,51.11c-.84-.12-1.65,.03-2.34-.06-.37-.05-.73-.11-1.05-.22-.12,.01-.23,.02-.35,.03-2.87,.34-5.64,1.18-8.26,2.26-1.3,.56-2.35,1.37-3.52,2.19-.72,.44-1.38,.64-2.15,.96-1.91,.75-3.22,2.02-5.15,2.87-.52,.23-.44,.73-.3,.69,3.36-1.3,6.29-2.91,9.31-4.68,2.33-1.38,4.74-2.34,7.21-2.62,.14-.07,.28-.13,.42-.19,1.27-.57,2.99-.46,4.56-.49,.2,0,.58-.2,.93-.17,1.04,.04,2.05,.05,3.06,.17-.17-.22-.3-.44-.49-.6-.64-.02-1.28-.04-1.88-.14Z"/>
            <path class="cls-6" d="M84.2,51.11c.61,.1,1.24,.11,1.88,.14-.09-.08-.2-.15-.33-.21-1.52-.51-3.33-.37-4.94-.21,.33,.11,.69,.17,1.05,.22,.69,.09,1.5-.06,2.34,.06Z"/>
            <path class="cls-4" d="M84.2,51.11c.58,.09,1.18,.11,1.8,.13-.2-.06-.4-.11-.61-.14-1.06-.17-2.13-.19-3.19-.31,1.14,0,2.28,.07,3.42,.2-1.49-.45-3.24-.31-4.81-.16,.32,.1,.69,.17,1.05,.22,.69,.09,1.5-.06,2.34,.06Z"/>
            <path class="cls-3" d="M82.49,51.12c1.27,.07,2.52,.21,3.81,.33-.05-.06-.09-.11-.15-.16-.06-.02-.11-.03-.16-.05-.61-.02-1.21-.04-1.8-.13-.84-.12-1.65,.03-2.34-.06-.36-.05-.72-.11-1.05-.22-.11,.01-.22,.02-.33,.03-1.47,.18-2.91,.47-4.31,.87-1.18,.48-2.47,.94-3.72,1.39,.57-.25,1.12-.49,1.72-.75-.66,.23-1.31,.48-1.94,.74-.55,.23-1.06,.52-1.55,.83-.05,.16-.17,.33-.44,.51-.42,.28-.85,.5-1.24,.84-.06,.03-.1-.06-.22,0,.35-.18,.59-.39,.79-.61-.29,.2-.59,.41-.87,.61-.57,.35-1.1,.55-1.67,.77l-.17,.1c-.28,.17-.54,.37-.81,.58,.12-.06,.24-.12,.37-.18-.16,.15-.41,.28-.6,.37l.23-.18c-.29,.14-.57,.28-.87,.43,.37-.18,.73-.42,1.01-.64-.67,.37-1.27,.73-1.98,.98l.04-.04c-.9,.57-1.78,1.18-2.85,1.65-.52,.23-.44,.73-.3,.69,2.35-.91,4.48-1.97,6.58-3.13-.28,.07-.55,.15-.81,.22-.11,.04-.23,.08-.34,.09,.11-.03,.22-.06,.34-.09,.31-.11,.61-.3,.95-.42,.07,0,.26-.1,.29-.22,.45-.16,.92-.51,1.37-.67,.03-.01,.08-.01,.15,0,.25-.15,.51-.3,.78-.46,1.46-.85,2.94-1.56,4.46-2.03-.38,.08-.75,.15-1.1,.2-.48,.05-1.35,.56-2.08,.98-.18,.12-.33,.08-.52,.17,.54-.57,1.48-.82,2.24-1.18,1.03-.48,2.58-.77,3.71-1.21,.47-.2,.96-.18,1.37-.15-.14,.08-.41,.13-.54,.15-1.22,.21-2.44,.52-3.6,1,1.25-.34,2.45-.74,3.74-.83-.74,.15-1.49,.19-2.13,.53,.07,0,.13,0,.19,0,.49-.1,.97-.19,1.46-.24,.14-.07,.28-.13,.42-.19,1.27-.57,2.99-.46,4.56-.49,.13,0,.33-.08,.55-.13-.51-.02-1.02-.06-1.54-.04,.21,.03,.41,.06,.59,.13-.48,.02-.88-.1-1.36-.05,.26-.04,.52-.07,.77-.08-.31-.03-.64-.03-.97-.03,.63-.16,1.22,.09,1.86-.08-.13,0-.24,0-.41-.01,.14,0,.28,0,.42,0h0c.42,0,.83-.05,1.21-.09-.72-.03-1.37-.17-2.08-.14-.12,0-.23,.02-.35,.03,.12-.02,.24-.03,.35-.03,1.63-.11,3.26,.15,4.83,.5l.15,.02-.11-.15c-1.32-.28-2.67-.47-4-.58Z"/>
          </g>
        </g>
        <g class="cls-14">
          <g class="cls-14">
            <path class="cls-5" d="M139.89,53.68c-2.05,.87-4.37,1.19-6.17,1.79-.19,.06-.4,.13-.62,.2l.33-.03c2.47-.2,5.12-.91,7.41-2,1.4-.72,2.7-1.65,4.16-2.56,.16-.1,.12-.22,.09-.28-.19,.02-.36,.03-.52,.03-1.12,.8-2.29,1.57-3.59,2.17-.44,.18-.83,.58-1.1,.68Z"/>
            <polygon class="cls-7" points="144.64 50.81 144.61 50.81 144.44 50.93 144.64 50.81"/>
            <path class="cls-4" d="M141.77,52.65c-.4,.23-.81,.44-1.24,.61-.25,.17-.47,.36-.64,.42-2.05,.87-4.37,1.19-6.17,1.79-.19,.06-.39,.13-.61,.2,.12-.01,.23-.02,.35-.03,.85-.07,1.73-.2,2.61-.39l.14-.05c.47-.19,.93-.24,1.4-.36,1.28-.47,2.39-.8,3.61-1.42,.43-.24,.84-.57,1.35-.83,.17-.09,.34-.18,.51-.26,.73-.47,1.32-.85,1.96-1.26,.16-.1,.12-.22,.09-.28-.1,.01-.19,.02-.28,.02-.55,.33-1.1,.67-1.68,.99-.48,.3-.97,.6-1.49,.87,.03,0,.06,0,.1-.01Z"/>
            <path class="cls-7" d="M141.64,52.5c-.07,.03-.12,.16,.04,.16,.52-.26,1.01-.57,1.49-.87-.49,.26-.99,.51-1.53,.71Z"/>
            <path class="cls-8" d="M141.52,52.07c-1.01,.44-1.94,.99-2.83,1.2-.47,.11-.94,.17-1.37,.18-.15,.04-.29,.09-.43,.13-3.53,1.17-7.33,1.56-10.96,1.03-1.82-.24-3.53-.37-5.4-.77-1.09-.3-1.9-.74-2.87-1.26-2.39-1.31-4.68-2.04-7.02-3.69-.62-.44-1.03-.13-.88,0,3.82,2.95,7.91,5.21,12.65,6.16,3.66,.72,7.19,.88,10.68,.62,.22-.07,.42-.14,.62-.2,1.8-.6,4.12-.92,6.17-1.79,.27-.1,.66-.5,1.1-.68,1.3-.6,2.46-1.37,3.59-2.17-.33,0-.62-.04-.93-.01-.68,.49-1.38,.95-2.13,1.25Z"/>
            <path class="cls-6" d="M141.52,52.07c.75-.3,1.45-.77,2.13-1.25-.15,.01-.31,.04-.48,.1-1.87,.78-3.84,1.87-5.84,2.54,.42-.01,.9-.07,1.37-.18,.89-.21,1.82-.76,2.83-1.2Z"/>
            <path class="cls-4" d="M141.52,52.07c.72-.29,1.39-.72,2.04-1.19-.25,.11-.49,.23-.73,.36-1.22,.65-2.48,1.27-3.8,1.64,1.37-.52,2.71-1.15,3.98-1.91-1.81,.78-3.74,1.82-5.67,2.48,.42-.01,.9-.07,1.36-.18,.89-.21,1.82-.76,2.83-1.2Z"/>
            <path class="cls-3" d="M139.49,53.05c1.58-.55,3.12-1.28,4.52-2.27-.09,0-.17,0-.26,0-.07,.03-.13,.06-.19,.09-.65,.47-1.32,.9-2.04,1.19-1.01,.44-1.94,.99-2.83,1.2-.47,.11-.94,.17-1.36,.18-.14,.04-.27,.08-.41,.12-1.8,.59-3.67,1-5.56,1.17-1.63,.31-3.45,.28-5.16,0,.81,.08,1.62,.11,2.44,.09-.9-.02-1.8-.1-2.69-.22-.75-.09-1.43-.17-2.27-.27-.17,.08-.43,.13-.86,.08-.66-.1-1.29-.26-1.97-.35-.09-.03-.04-.11-.22-.17,.5,.16,.92,.22,1.31,.2-.46-.06-.91-.16-1.38-.26-.86-.23-1.54-.56-2.26-.93l-.25-.09c-.4-.16-.84-.27-1.27-.41,.16,.08,.32,.17,.5,.24-.29-.06-.62-.24-.87-.36,.13,.04,.25,.08,.38,.12-.39-.19-.76-.37-1.16-.6,.48,.28,1.03,.46,1.48,.62-.93-.43-1.8-.8-2.62-1.39l.07,.02c-1.29-.61-2.6-1.24-3.89-2.15-.62-.44-1.03-.13-.88,0,2.68,2.07,5.46,3.76,8.53,4.95-.32-.19-.64-.4-.96-.6-.14-.08-.28-.16-.4-.25,.13,.08,.26,.17,.4,.25,.39,.22,.84,.39,1.27,.61,.07,.06,.34,.17,.47,.12,.59,.29,1.36,.45,1.96,.7,.04,.01,.09,.06,.16,.11,.4,.09,.8,.18,1.22,.27,2.29,.44,4.53,.68,6.73,.72-.53-.05-1.04-.12-1.51-.23-.63-.15-1.98-.14-3.13-.27-.29-.02-.44-.15-.72-.2,1.03-.08,2.27,.25,3.42,.28,1.51,.07,3.66,.23,5.27-.18,.66-.16,1.3-.17,1.86-.16-.19,.1-.56,.15-.75,.18-1.69,.25-3.39,.35-5.1,.36,1.78,.15,3.5-.05,5.28-.19-1.04,.2-2.07,.15-3.04,.37,.09,.02,.18,.03,.26,.04,.69-.01,1.38-.06,2.08-.1,.21-.07,.42-.14,.61-.2,1.8-.6,4.12-.92,6.17-1.79,.17-.06,.39-.25,.64-.42-.66,.28-1.33,.49-2,.73,.28-.06,.55-.12,.81-.15-.62,.26-1.19,.3-1.82,.52,.34-.13,.67-.26,1.01-.37-.42,.09-.85,.23-1.29,.32,.8-.35,1.64-.36,2.41-.84-.17,.07-.35,.13-.52,.19l.53-.19h0c.53-.21,1.03-.49,1.46-.76-.89,.42-1.75,.62-2.64,.95-.15,.05-.29,.11-.44,.17,.17-.06,.3-.11,.44-.17,2.03-.78,4.08-1.59,5.97-2.72l.17-.12h-.22c-1.54,.93-3.22,1.71-4.89,2.24Z"/>
          </g>
        </g>
        <g class="cls-14">
          <g class="cls-14">
            <path class="cls-5" d="M156.27,33.56c.55,.39,.98,.95,1.27,1.53,.3,.59,.48,1.18,.7,1.72,.05,.12,.09,.25,.13,.38,0-.07,0-.13,.01-.2,.02-.77-.18-1.6-.61-2.33-.43-.72-1.07-1.31-1.78-1.69-.91-.43-1.92-.51-2.97-.5-.12,0-.12,.13-.13,.19,.11,.08,.19,.16,.27,.25,.78-.08,1.62,0,2.36,.41,.24,.14,.61,.13,.74,.24Z"/>
            <path class="cls-7" d="M153.14,32.9v.02c.05,0,.09-.01,.13-.01-.04,0-.09,0-.13,0Z"/>
            <path class="cls-4" d="M155.09,33.09c.27,.07,.51,.19,.74,.34,.18,.04,.36,.07,.45,.14,.55,.39,.98,.95,1.27,1.53,.3,.59,.48,1.18,.7,1.72,.05,.12,.09,.25,.13,.38,0-.07,0-.14,.01-.22,0-.53-.08-1.09-.29-1.63l-.06-.08c-.21-.25-.27-.55-.44-.81-.57-.66-1.08-1.2-1.87-1.56-.28-.13-.63-.12-.96-.24-.12-.04-.23-.07-.33-.11-.47-.06-.94-.07-1.43-.07-.12,0-.12,.13-.13,.19,.06,.04,.11,.08,.15,.13,.37,0,.75,.03,1.11,.12,.33,.03,.66,.1,.97,.23,0-.02-.02-.03-.04-.05Z"/>
            <path class="cls-7" d="M155.04,33.28s.13-.04,.08-.14c-.32-.12-.65-.19-.97-.23,.31,.07,.62,.18,.89,.37Z"/>
            <path class="cls-8" d="M154.83,33.66c.5,.27,1.07,.45,1.34,.87,.15,.21,.23,.45,.26,.69,.05,.05,.09,.12,.13,.18,1.13,1.44,.87,3.89-.6,5-.55,.49-1.37,1.23-2.24,2.01-.52,.37-1.04,.5-1.62,.72-1.46,.51-2.43,1.54-3.87,2.26-.39,.19-.27,.68-.17,.65,2.48-1.11,4.87-2.07,7.04-3.71,.82-.63,1.7-1.24,2.3-2.14,.6-.88,.93-1.91,1-2.99-.04-.13-.08-.26-.13-.38-.22-.55-.4-1.14-.7-1.72-.29-.59-.72-1.15-1.27-1.53-.14-.11-.51-.11-.74-.24-.74-.4-1.58-.48-2.36-.41,.16,.18,.27,.38,.4,.52,.43-.04,.89,.01,1.26,.23Z"/>
            <path class="cls-6" d="M154.83,33.66c-.37-.22-.83-.27-1.26-.23,.06,.08,.13,.14,.21,.18,.91,.41,1.97,.78,2.64,1.6-.02-.23-.11-.48-.26-.69-.27-.42-.84-.61-1.34-.87Z"/>
            <path class="cls-4" d="M154.83,33.66c-.35-.21-.79-.26-1.2-.23,.18,.05,.3,.09,.4,.11,.68,.17,1.37,.47,1.8,1.02-.55-.48-1.25-.81-1.97-.91,.88,.39,1.91,.76,2.56,1.56-.02-.23-.11-.48-.26-.68-.27-.42-.84-.61-1.34-.87Z"/>
            <path class="cls-3" d="M155.89,34.19c-.65-.6-1.56-.99-2.47-.93,.04,.05,.07,.1,.11,.14,.04,.01,.07,.02,.11,.04,.41-.03,.84,.03,1.2,.23,.5,.27,1.07,.45,1.34,.87,.15,.21,.23,.45,.26,.68,.05,.05,.08,.11,.12,.17,.57,.73,.8,1.73,.68,2.68,.05,.86-.4,1.77-1.1,2.31,.3-.29,.52-.63,.69-1-.22,.4-.5,.73-.85,1.03-.29,.26-.52,.47-.91,.81,0,.15-.06,.31-.24,.47-.28,.25-.59,.44-.85,.74-.05,.03-.09-.06-.18,0,.25-.15,.42-.33,.54-.53-.2,.18-.41,.36-.6,.53-.41,.29-.81,.43-1.25,.59-.04,.03-.08,.06-.12,.08-.21,.13-.4,.3-.59,.47,.09-.04,.18-.09,.28-.13-.12,.13-.31,.22-.45,.28l.17-.15c-.22,.1-.43,.2-.67,.31,.29-.13,.55-.32,.76-.49-.5,.28-.96,.55-1.51,.71l.03-.03c-.67,.45-1.34,.95-2.13,1.35-.39,.19-.27,.68-.17,.65,1.74-.78,3.41-1.47,5.02-2.39-.22,.04-.44,.09-.64,.13-.09,.03-.18,.05-.27,.06,.09-.02,.18-.04,.27-.06,.24-.08,.47-.22,.73-.31,.06,0,.2-.07,.21-.18,.36-.12,.69-.42,1.04-.55,.02-.01,.07,0,.12,0,.18-.13,.37-.27,.57-.41,1.03-.76,2.13-1.6,2.69-2.83-.18,.27-.38,.51-.61,.68-.3,.23-.71,.89-1.22,1.31-.11,.12-.25,.1-.38,.19,.3-.54,.97-.85,1.33-1.4,.24-.35,.54-.77,.73-1.26,.19-.49,.29-1.04,.19-1.5-.08-.38,0-.73,.02-1.07,.08,.1,.12,.32,.12,.43,.09,.99-.12,1.97-.54,2.86,.59-.87,.71-1.91,.72-2.97,.1,.64-.07,1.23-.06,1.82,.03-.04,.07-.09,.1-.14,.11-.41,.18-.82,.2-1.25-.04-.13-.08-.25-.13-.38-.22-.55-.4-1.14-.7-1.72-.29-.59-.72-1.15-1.27-1.53-.09-.06-.27-.1-.45-.14,.35,.23,.65,.52,.94,.82-.09-.14-.18-.28-.25-.43,.32,.26,.44,.59,.69,.89-.21-.22-.32-.33-.44-.46,.14,.21,.29,.42,.42,.66-.36-.34-.5-.87-1.01-1.06,.08,.07,.17,.14,.24,.21l-.24-.22h0c-.27-.19-.57-.32-.86-.39,.5,.25,.82,.65,1.19,1.01,.06,.06,.12,.12,.19,.18-.07-.06-.13-.12-.19-.18-.87-.81-1.96-1.47-3.22-1.56-.04,0-.08,0-.12,.01l.1,.12c1,.04,1.97,.49,2.64,1.16Z"/>
          </g>
        </g>
        <g class="cls-14">
          <g class="cls-14">
            <path class="cls-5" d="M103.36,2.92c.38,.55,.21,1.21,.52,1.7,.03,.05,.06,.12,.1,.18l.03-.09c.19-.7,.04-1.59-.52-2.2-.38-.35-.9-.49-1.36-.7-.05-.03-.1,.09-.12,.15,.02,.09,.02,.19,.02,.29,.34,.06,.73,.2,.98,.5,.06,.11,.33,.1,.36,.18Z"/>
            <polygon class="cls-7" points="102.01 2.23 102.01 2.24 102.06 2.25 102.01 2.23"/>
            <path class="cls-4" d="M102.85,2.56c.12,.06,.21,.16,.27,.26,.1,.03,.21,.05,.23,.1,.38,.55,.21,1.21,.52,1.7,.03,.05,.06,.11,.09,.18,.01-.03,.02-.07,.03-.1,.06-.24,.09-.51,.07-.78l-.03-.04c-.11-.13-.04-.28-.08-.43-.19-.36-.28-.73-.6-1.03-.12-.1-.33-.12-.46-.24-.05-.04-.09-.08-.13-.12-.22-.09-.44-.17-.66-.27-.05-.03-.1,.09-.12,.15,.01,.05,.02,.1,.02,.15,.15,.08,.3,.15,.44,.26,.14,.06,.28,.13,.4,.24,0-.01,0-.03,0-.04Z"/>
            <path class="cls-7" d="M102.73,2.71s.1-.03,.12-.1c-.11-.11-.26-.17-.4-.24,.11,.09,.22,.19,.28,.34Z"/>
            <path class="cls-8" d="M102.4,3c.12,.18,.37,.3,.36,.52,0,.12-.05,.24-.14,.36,.01,.03,.02,.06,.03,.08,.32,.67,.23,1.59-.35,2.08-.25,.27-.36,.67-.64,1.04-.2,.17-.46,.16-.72,.18-.65,.02-.99,.68-1.67,.96-.18,.07-.14,.58-.09,.57,1.17-.37,2.4-.54,3.31-1.5,.67-.71,1.2-1.5,1.48-2.5-.03-.06-.07-.13-.1-.18-.31-.49-.14-1.15-.52-1.7-.03-.08-.3-.07-.36-.18-.25-.3-.63-.44-.98-.5,0,.2-.04,.38-.05,.53,.17,.01,.36,.06,.44,.22Z"/>
            <path class="cls-6" d="M102.4,3c-.07-.16-.27-.21-.44-.22,0,.07-.01,.14,0,.18,.12,.39,.47,.52,.66,.92,.1-.12,.13-.24,.14-.36,0-.23-.25-.34-.36-.52Z"/>
            <path class="cls-4" d="M102.4,3c-.07-.15-.25-.21-.41-.22,.03,.05,.06,.09,.1,.12,.19,.17,.4,.36,.41,.66-.13-.25-.31-.46-.53-.56,.12,.35,.47,.5,.65,.88,.1-.12,.13-.24,.14-.36,0-.23-.25-.34-.36-.52Z"/>
            <path class="cls-3" d="M102.75,3.33c-.12-.34-.39-.67-.77-.73,0,.05-.01,.09-.02,.14l.02,.04c.16,.01,.34,.07,.41,.22,.12,.18,.37,.3,.36,.52,0,.12-.05,.24-.14,.36,.01,.03,.02,.05,.03,.08,.16,.34,.22,.75,.16,1.13,.1,.37-.08,.73-.39,.96,.1-.14,.18-.29,.22-.44-.08,.15-.19,.3-.33,.43-.11,.12-.19,.25-.27,.4,.06,.11,.09,.22,.04,.31-.08,.14-.21,.22-.27,.4-.02,.01-.07-.07-.11-.05,.1-.06,.15-.17,.15-.3-.05,.1-.12,.19-.18,.28-.16,.14-.35,.16-.55,.17-.02,.01-.03,.02-.05,.04-.08,.06-.15,.15-.23,.24l.12-.04c-.04,.08-.13,.11-.19,.13l.06-.09c-.1,.03-.19,.06-.3,.09,.13-.03,.23-.13,.31-.22-.21,.1-.41,.22-.66,.21v-.02c-.27,.21-.56,.49-.92,.65-.18,.07-.14,.58-.09,.57,.83-.26,1.64-.42,2.41-.82-.12-.02-.24-.03-.35-.05-.04,0-.09,0-.14-.02l.14,.02c.12,0,.23-.07,.36-.08,.04,.02,.1-.01,.08-.11,.18-.02,.31-.19,.49-.23,0,0,.04,0,.08,.02,.08-.07,.16-.15,.24-.23,.42-.46,.78-.91,1.06-1.46-.1,.12-.23,.21-.36,.28-.19,.08-.27,.42-.44,.67-.03,.07-.13,.04-.18,.09-.02-.36,.31-.47,.43-.74,.17-.31,.55-.78,.39-1.22-.06-.17,.04-.32,.14-.47,.06,.05,.05,.15,.05,.2-.03,.44-.15,.86-.3,1.28,.31-.38,.34-.84,.49-1.32,.02,.29-.17,.54-.08,.83,.03-.02,.05-.03,.08-.05,.07-.18,.14-.37,.19-.56-.03-.06-.07-.12-.09-.18-.31-.49-.14-1.15-.52-1.7-.02-.05-.14-.07-.23-.1,.11,.16,.17,.35,.24,.52,0-.08,0-.17,.03-.26,.11,.16,.04,.35,.11,.51-.05-.08-.1-.17-.14-.25,.02,.17,.02,.25,.04,.36-.16-.17,0-.47-.27-.6,.02,.04,.05,.08,.06,.13l-.06-.13h0c-.07-.13-.22-.21-.34-.27,.16,.19,.16,.44,.26,.64,.02,.03,.04,.06,.06,.1-.02-.03-.04-.06-.06-.1-.25-.43-.49-.94-.99-1.22h-.05s0,.12,0,.12c.39,.19,.66,.57,.75,.96Z"/>
          </g>
        </g>
      </g>
    </g>
  </g>
</svg>