<?xml version="1.0" encoding="UTF-8"?>
<svg id="_Слой_2" data-name="Слой 2" xmlns="http://www.w3.org/2000/svg" xmlns:xlink="http://www.w3.org/1999/xlink" viewBox="0 0 168.5 71.84">
  <defs>
    <style>
      .cls-1 {
        fill: none;
      }

      .cls-2 {
        clip-path: url(#clippath);
      }

      .cls-3 {
        fill: #f3f9fb;
      }

      .cls-4 {
        fill: #f7fbfc;
      }

      .cls-5 {
        fill: #f8fcfd;
      }

      .cls-6 {
        fill: #f4fafb;
      }

      .cls-7 {
        fill: #f5fafb;
      }

      .cls-8 {
        fill: #fbfdfe;
      }

      .cls-9 {
        fill: #232220;
      }

      .cls-10 {
        fill: #42413c;
      }

      .cls-11 {
        fill: #6e7c6e;
      }

      .cls-12 {
        fill: #353430;
      }

      .cls-13 {
        opacity: .49;
      }

      .cls-14 {
        opacity: .8;
      }
    </style>
    <clipPath id="clippath">
      <rect class="cls-1" width="168.5" height="71.84"/>
    </clipPath>
  </defs>
  <g id="_насекомые" data-name="насекомые">
    <g class="cls-2">
      <g>
        <g class="cls-13">
          <g>
            <path class="cls-11" d="M89.63,21.83c-.12-.06-.3-.02-.38,.06s-.1,.18-.11,.27c-.01,.14-.02,.29,.09,.41,.11,.12,.31,.18,.51,.23,.49,.11,1.04,.13,1.52,0s.85-.44,.85-.78c0-.09-.02-.18-.09-.27-.15-.19-.49-.28-.81-.33-.4-.06-.82-.09-1.23-.07-.12,0-.24,.01-.34,.04-.17,.06-.27,.17-.36,.29-.1,.13-.21,.25-.31,.38"/>
            <path class="cls-11" d="M89.08,21.02c.19-.17,.41-.2,.64-.24,.09-.02,.17,.05,.26-.13,.05-.09,.12,.13,.19,.13,.2,0,.38,.06,.58,.07,.19,0,.43-.03,.65-.01,.22,.01,.32,.11,.63,.06,.26-.03,.14,.15,.28,.18,.14,.04,.25,.11,.24,.22-.01,.08-.04,.15,.04,.21,.05,.03,.18,.05,.19,.11,.01,.06-.05,.13,.16,.15,.02,0-.01,.03-.04,.05-.12,.08-.11,.16-.02,.21,.01,0,.02,.02,.03,.02,.05,.04,.03,.08,.03,.12,0,.13-.03,.26-.1,.37-.05,.08-.19,.15-.26,.21-.08,.07-.04,.18-.22,.2-.18,.02-.24,.07-.31,.12-.04,.03-.2,0,0,.14,.02,.01,0,.02-.03,.02-.43-.09-.18,.2-.43,.22-.24,0-.39,.09-.61,.13-.06,0-.15-.04-.13,.11,0,.05-.06,.06-.11,.03-.28-.2-.41-.07-.62-.13-.21-.06-.47-.01-.63-.22-.06-.09-.13-.15-.34-.03-.1,.05-.14-.07-.21-.09-.06-.02-.18,0-.23-.04-.04-.03-.02-.12-.02-.18,0-.02-.01-.03-.03-.04-.18-.05-.24-.21-.25-.36-.03-.24,.05-.4,.02-.51-.05-.24,.1-.6,.31-.73,.12-.08,.3-.13,.65,.19,.08,.07,.15,.15,.22,.22,.05,.06,.06,.07,.07,.1,.01,.03,.03,.06,.02,.07-.01,.01-.01,.04-.01,.06,0,.05,.13,.13,.04,.13-.03,0,.06,.03-.1,.02-.02,0-.04,0-.02,.01,.05,.03,.09,.06,.12,.07,.01,0,.02,0,.02,0h-.13s-.08,.03-.08,.03h0s0,0,0,0h0s.2-.06,.2-.06h0s0,0,0,0h0s0,.01,0,.01c0,.01,0,.03,0,.03,.05,.03,.21-.08,.17-.03,.11-.13,.08-.11,.07-.07-.02,.16,.07,.07,.09,.09,.06,.03,.09,0,.14,0,.01,0-.15-.08-.01-.02,.14,.06,.05,0,.05,0,0,0-.06-.03,.04,0,.44,.09,.27-.02,.33-.05,.04-.02,.07-.05,.09-.07,.02-.04,0-.08-.1-.09-.1-.02-.37,.05-.29,.01,.02-.02-.19,.06,.16-.09,.1-.04-.19,.07-.2,.07-.04,0-.04,0-.05,0-.02,0-.02-.02-.06,0-.03,0-.12,.08-.14,.1-.02,.02-.02,.02-.01,0,.01-.02,.04-.09,.03-.11-.02-.02-.04,.06-.05-.02-.04-.15-.1-.08-.15-.07-.03-.02-.09,.04-.18,.21-.04,.09-.22,.05-.28,.12-.03,.03-.43-.22-.54-.34-.02-.02-.04-.05-.05-.06-.06-.16-.19-.37-.11-.44,.12-.09,.16-.23,.4-.43Z"/>
          </g>
          <g>
            <path class="cls-11" d="M70.14,27.48c-2.03,.21-3.91,.36-5.85,.8-1.94,.45-2.63,.5-5.54,.85-.15,.02-2.13,.1-2.24,.03-.34-.21,.03-.56,.39-.76,1.14-.6,2.41-1.1,3.76-1.47,.88-.24,1.79-.44,2.7-.62,4.46-.92,8.97-1.77,13.47-2.61,1.7-.32,3.4-.64,5.15-.83,1.08-.12,2.17-.19,3.26-.27,2.24-.15,4.48-.3,6.72-.45,1.43-.09,3.11-.13,4.04,.58,.16,.12,.29,.29,.19,.44-.07,.1-.23,.15-.37,.2-2.49,.82-5.07,1.54-7.7,2.15-1.35,.31-2.72,.6-4.13,.74-1.28,.13-2.58,.13-3.87,.19-3.5,.15-7.85,.64-11.29,1.09"/>
            <path class="cls-11" d="M76.28,26.11c1.35-.12,2.71-.2,4.06-.27,.5-.03,1.01,.03,1.51-.17,.25-.1,.74,.08,1.2,.05,1.25-.04,2.44-.24,3.66-.5,1.18-.27,2.34-.62,3.51-.95,1.16-.32,2.38-.57,3.46-1,.15-.06,.31-.12,.46-.17,.03-.01,.03-.01,.06-.01h.17c.08,0,.18-.07,.08-.11-.12-.05-.2-.05-.26-.06h-.07s-.3-.04-.3-.04c-.24-.02-.48-.04-.71-.05-.69-.05-1.42-.05-2.15,.03-.45,.05-.87,.18-1.36,.21-.46,.02-.99-.03-1.37,.2-.03,.02-.24,0-.35-.02-.5-.1-1.11-.05-1.52,.07-.4,.11-.76,.13-1.13,.16-1.02,.09-2.04,.18-3.05,.25l-2.28,.25c-.79,.11-1.62,.33-2.36,.36-.75,.01-1.45,.18-2.17,.31-.41,.08-.9,.08-1.2,.35-.03,.02-.18,.05-.25,.05-1.21-.04-2.29,.53-3.49,.69-1.23,.17-2.47,.46-3.7,.7-.33,.07-.69,.08-.97,.28-.1,.07-.44,.14-.62,.14-.95-.03-1.89,.28-2.8,.47-.52,.1-1.05,.23-1.56,.36l-.76,.21-.38,.1s-.1,0-.14,0c-.14-.02-.57,.12-.2,.18,.2,.02-.11,.05-.11,.09,.02,.05,.41-.04,.41-.06,0,0-.19,.09-.21,.13-.01,.01,0,.01,.04,0l.23-.1,.67-.05c.79-.06,1.58-.1,2.33-.26,.76-.16,1.52-.37,2.36-.53,.82-.16,1.64-.25,2.46-.33,.9-.09,1.82-.11,2.46,.19,.29,.14,.31,.31-.06,.46-.27,.1-.58,.21-.89,.26-.5,.09-1,.18-1.48,.26-1.01,.18-1.97,.5-3,.64-.33,.04-.7,.23-1,.12-.04-.01-.18,0-.24,.02-.68,.27-1.42,.39-2.15,.48l-1.09,.11-.8,.09c-.31,.04-.57,.04-.86,.07-.47,.03-1.01,.07-1.45,.06-.41-.03-.67-.12-.85-.21-.09-.05-.17-.09-.23-.15-.08-.06-.17-.3-.16-.44,.01-.29,.11-.45,.29-.64-.02-.2,.17-.51,.77-.81,.57-.3,1.27-.58,1.91-.79,.64-.21,.81-.24,1.14-.33,.31-.07,.61-.16,.92-.22,.61-.12,1.21-.26,1.82-.4,1.21-.29,2.39-.51,3.59-.74l7.29-1.4c.41-.08,.75-.26,1.25-.27,.47,0,1.05-.18,1.58-.29,.48-.1,1-.22,1.47-.25,.98-.05,1.95-.19,2.92-.35,.48-.07,.97-.18,1.45-.24l1.46-.12c1.95-.15,3.87-.23,5.79-.42,1.18-.1,2.3-.31,3.54-.32,.26,0,.54-.02,.81-.01,.29,.01,.51,.04,.94,.2,.19,.07,1.07,.13,1.48,.39,.39,.21,.65,.48,.78,.78,.07,.14,.08,.39,.02,.54-.06,.14-.12,.22-.22,.33-.21,.15-.33,.31-.73,.42-.43,.17-.99,.33-1.4,.46l-.81,.24-1.63,.48c-.66,.2-1.3,.45-1.97,.64-.7,.2-1.41,.37-2.11,.51-.9,.18-1.82,.3-2.74,.43-.97,.15-1.96,.26-2.87,.22-1.71-.07-3.36,.07-5.02,.18-1.65,.11-3.3,.26-4.94,.49-.93,.13-1.8,.07-2.71,.19-.42,.05-1.06-.34-.91-.52,.03-.03,.1-.08,.16-.1,.88-.26,1.67-.6,2.71-.7,1.52-.15,3.05-.33,4.58-.46Z"/>
          </g>
          <path class="cls-11" d="M43.46,45.87c.62-.15,1.25-.3,1.87-.48,.23-.07,.49-.05,.68-.28,.1-.12,.37,.02,.58-.04,.57-.18,1.16-.31,1.72-.5,.55-.18,1.08-.42,1.62-.62,.54-.2,1.09-.31,1.55-.62,.39-.27,.84-.31,1.22-.55,.41-.26,.83-.52,1.28-.68,.33-.12,.66-.23,.94-.44,.18-.13,.3-.32,.51-.43,.19-.11,.45-.16,.52-.43,0-.02,.11-.04,.17-.04,.27,0,.52-.16,.65-.34,.13-.17,.28-.25,.44-.34,.43-.26,.87-.51,1.34-.72,.17-.08,.35-.15,.54-.21,.19-.07,.37-.12,.48-.17,.27-.13,.51-.44,.84-.58,.33-.15,.6-.38,.9-.61,.17-.13,.43-.19,.47-.46,0-.02,.08-.07,.12-.07,.17-.03,.32-.07,.44-.14,.1-.06,.19-.13,.28-.22,.17-.18,.31-.39,.51-.55,.43-.32,.75-.82,1.14-1.3,.11-.13,.27-.23,.26-.44,0-.08,.12-.22,.21-.26,.24-.11,.45-.28,.63-.43,.16-.15,.31-.31,.49-.45,.39-.32,.67-.73,1.12-1.01,.19-.12,.42-.32,.43-.64,0-.15,.23-.28,.33-.44,.08-.13,.1-.3,.19-.42,.07-.11,.21-.16,.32-.25,.03-.03,.06-.06,.07-.1,.26-.73,.91-1.19,1.31-1.86,.4-.67,.91-1.3,1.45-1.89,.29-.33,.65-.62,1.12-.59,.21,.02,.34,.14,.29,.34-.03,.15-.08,.31-.17,.43-.14,.19-.26,.41-.39,.6-.26,.41-.42,.89-.79,1.23-.11,.11-.14,.31-.35,.32-.03,0-.08,.05-.08,.08-.18,.69-.71,1.18-1.1,1.76-.33,.5-.51,1.09-.96,1.52-.05,.39-.34,.68-.62,.9-.49,.38-.92,.8-1.37,1.21-.48,.44-.78,.74-1.16,1.18-.38,.42-.74,.91-1.19,1.38-.22,.23-.47,.46-.73,.67-.25,.19-.61,.41-.82,.52-.16,.09-.22,.27-.45,.32-.21,.05-.39,.27-.58,.42-.18,.15-.34,.34-.55,.45-.42,.22-.92,.54-1.37,.73-.41,.19-.8,.43-1.21,.63-.81,.41-1.61,.87-2.38,1.38-.47,.31-.9,.69-1.42,.94-.22,.11-.39,.33-.7,.28-.09-.01-.22,.22-.36,.3-.34,.2-.7,.37-1.06,.54-.5,.23-1.02,.45-1.54,.66-.32,.14-.61,.31-.92,.43-.33,.13-.66,.23-1,.31l-1.29,.26c-.44,.1-.87,.32-1.32,.34-.82,.05-1.58,.34-2.36,.51-.78,.18-1.56,.35-2.33,.57-.44,.12-.88,.06-1.31,.15-.2,.04-.57-.36-.52-.54,0-.03,.04-.07,.07-.09,.39-.24,.72-.55,1.21-.64,.71-.14,1.42-.33,2.12-.5Z"/>
          <path class="cls-11" d="M63.52,25.16l-2.23-.38c-.28-.04-.55-.18-.87-.07-.16,.05-.39-.2-.65-.25-.71-.14-1.4-.37-2.09-.6-.67-.21-1.36-.44-1.98-.7-.62-.26-1.22-.61-1.86-.77-.55-.13-.96-.47-1.47-.63-.54-.17-1.1-.35-1.59-.62-.36-.19-.72-.39-1.11-.49-.24-.06-.5-.04-.76-.13-.24-.08-.49-.26-.76-.13-.02,.01-.12-.06-.17-.1-.22-.21-.55-.3-.79-.28-.24,.02-.42-.04-.62-.09-.55-.15-1.1-.28-1.64-.44-.41-.12-.8-.27-1.21-.39-.43-.11-.91-.1-1.29-.27-.39-.15-.78-.21-1.17-.26-.22-.02-.48-.14-.69,.04-.02,.02-.1,0-.14-.01-.62-.32-1.28-.01-1.92-.07l-.25-.02h-.2c-.08,0-.16-.04-.23-.05l-.54-.15c-.35-.1-.71-.2-1.05-.32-.19-.06-.36-.19-.57-.11-.08,.03-.27-.04-.35-.11-.42-.38-.98-.49-1.46-.75-.55-.29-1.14-.48-1.63-.91-.2-.18-.5-.38-.87-.36-.17,0-.39-.21-.6-.31-.17-.08-.38-.1-.55-.2-.14-.09-.24-.24-.35-.35-.04-.03-.08-.07-.13-.09-.89-.34-1.43-1.11-2.18-1.57-.75-.47-1.46-.96-2.19-1.34-.41-.2-.8-.4-1.03-.82-.1-.2-.08-.37,.16-.42,.17-.04,.38-.06,.56-.02,.3,.06,.59,.14,.87,.23,.57,.2,1.18,.36,1.65,.78,.15,.13,.38,.18,.42,.4,0,.03,.06,.08,.1,.1,.81,.26,1.37,.89,2.02,1.33,.57,.38,1.18,.52,1.75,.92,.43,0,.8,.24,1.11,.47,1.09,.8,2.38,1.24,3.6,1.71,.31,.12,.63,.23,.94,.33,.29,.08,.72,.23,.79,.19,.72-.01,1.43,.02,2.14,.08,.24,.03,.46-.06,.73,.05,.26,.11,.6,.09,.91,.14,.28,.04,.58,.04,.83,.14,1.04,.4,2.15,.52,3.21,.82l3.14,.93c.64,.17,1.3,.29,1.92,.56,.26,.12,.58,.12,.78,.4,.05,.08,.36,.03,.53,.1,.43,.15,.85,.33,1.27,.5l1.75,.73c.36,.14,.74,.23,1.1,.36,.37,.14,.72,.3,1.07,.46,.44,.2,.87,.42,1.34,.58,.48,.16,1.01,.2,1.47,.39,.86,.35,1.8,.42,2.71,.6l2.78,.55c.53,.11,.97,.41,1.47,.59,.24,.09,.36,.65,.2,.76-.03,.02-.08,.04-.12,.03-.51-.05-1,.04-1.53-.13-.79-.24-1.62-.38-2.45-.53Z"/>
          <path class="cls-11" d="M97.32,4.76c-.26,.31-.52,.64-.75,.99-.09,.13-.25,.21-.2,.44,.02,.12-.23,.12-.3,.25-.2,.34-.45,.64-.65,.98-.19,.33-.35,.69-.54,1.02-.19,.33-.48,.61-.6,.98-.1,.32-.39,.47-.52,.75-.14,.29-.3,.59-.54,.82-.17,.16-.36,.32-.45,.53-.06,.13-.05,.3-.14,.43-.09,.12-.25,.21-.16,.43,0,.02-.06,.05-.1,.06-.2,.06-.3,.22-.3,.38,0,.16-.08,.24-.14,.35-.18,.28-.37,.55-.57,.81-.15,.2-.37,.35-.53,.53-.17,.2-.27,.47-.49,.61-.23,.13-.37,.31-.52,.49-.09,.1-.26,.17-.17,.38,0,.02-.03,.06-.05,.07-.45,.12-.46,.62-.77,.87-.32,.25-.61,.56-.91,.86-.08,.08-.2,.12-.2,.29,0,.06-.09,.14-.16,.15-.19,.02-.33,.1-.46,.2-.11,.09-.29,.25-.33,.27-.19,.11-.36,.44-.69,.58-.14,.06-.3,.19-.26,.45,.02,.11-.16,.19-.22,.3-.05,.09-.05,.22-.11,.3-.05,.07-.17,.09-.25,.14-.02,.01-.05,.04-.05,.07-.15,.53-.68,.74-.97,1.17-.29,.44-.65,.82-1.08,1.2-.24,.2-.56,.41-.99,.19-.16-.1-.19-.28-.15-.42,.03-.1,.05-.2,.11-.27,.09-.1,.17-.25,.25-.36,.17-.26,.25-.6,.54-.79,.09-.06,.09-.21,.27-.17,.02,0,.06-.02,.07-.04,.09-.5,.51-.75,.78-1.12,.23-.31,.31-.73,.63-.99-.02-.3,.17-.48,.37-.61,.36-.24,.59-.52,1.04-.86l.83-.68c.28-.25,.55-.49,.82-.76l.76-.83c.08-.1,.07-.26,.23-.32,.15-.06,.22-.24,.33-.37,.1-.12,.17-.26,.29-.35,.53-.35,.8-.91,1.16-1.4,.37-.48,.72-.97,1.02-1.5,.18-.32,.28-.69,.52-.98,.1-.12,.1-.32,.35-.35,.07,0,.03-.21,.08-.3,.12-.22,.27-.43,.41-.65,.19-.3,.4-.59,.57-.9,.11-.19,.16-.41,.26-.6,.11-.2,.24-.39,.38-.57,.19-.22,.38-.44,.57-.66,.19-.24,.29-.55,.53-.73,.45-.34,.69-.83,1.04-1.24l1.06-1.25c.19-.25,.54-.32,.76-.52,.11-.1,.54,.15,.6,.32,.01,.03,.01,.07,0,.09-.12,.3-.14,.63-.37,.82-.33,.32-.63,.66-.92,1.03Z"/>
          <path class="cls-11" d="M127.04,35.98l-2.71-.24c-.34-.03-.67-.14-1.04,0-.18,.07-.48-.17-.79-.19-.84-.06-1.67-.17-2.51-.21-.81-.04-1.63-.03-2.44-.04-.8-.02-1.63-.13-2.4-.02-.67,.1-1.27-.06-1.91,.02-.67,.06-1.36,.16-2.03,.14-.49,0-.97,0-1.44,.08-.31,.05-.51,.21-.84,.26-.3,.05-.66,.05-.88,.3-.02,.02-.16,.02-.24,0-.35-.06-.75,.04-1.01,.18-.25,.14-.49,.18-.75,.23-.7,.14-1.4,.27-2.18,.3-.17,0-.34,0-.54-.03l-.31-.06c-.13-.04-.29-.1-.43-.17l.28,.09c-.22-.04-.44-.08-.67-.12-.53-.07-1.12-.04-1.6-.19-.49-.15-.96-.19-1.45-.24-.28-.03-.59-.15-.84,.03-.02,.02-.13,0-.18-.02-.77-.37-1.62-.15-2.43-.41-.82-.25-1.69-.46-2.51-.76-.22-.08-.43-.22-.68-.17-.09,.02-.32-.07-.41-.15-.51-.44-1.16-.62-1.73-.95-.64-.37-1.33-.64-1.9-1.14-.24-.21-.6-.45-1.01-.47-.19,0-.46-.26-.7-.37-.2-.09-.43-.12-.62-.22-.16-.09-.29-.24-.43-.37-.04-.04-.1-.07-.16-.09-1.04-.33-1.81-1.06-2.8-1.53-.99-.47-1.92-1.06-2.84-1.62-.51-.31-1-.65-1.19-1.16-.08-.23,0-.39,.27-.36,.2,.02,.43,.06,.62,.15,.32,.14,.63,.28,.94,.41,.63,.29,1.31,.49,1.88,.92,.18,.13,.45,.18,.53,.41,.01,.03,.08,.09,.13,.1,.94,.23,1.75,.84,2.61,1.29,.73,.38,1.53,.6,2.22,1.08,.5,.05,.95,.34,1.32,.62,1.32,.97,2.81,1.61,4.26,2.2,1.48,.61,3.05,.94,4.65,1.16,.27,.04,.52-.05,.84,.07,.3,.11,.71,.09,1.07,.13,.33,.03,.68,.03,.99,.11,.66,.18,1.33,.26,2,.33l.13,.21c.11-.18,.09-.15,.1-.14,.01,0,0,0,.03,0h.16c.13,0,.26,.02,.4,0,.28-.02,.58-.06,.88-.1,1.25-.16,2.51-.44,3.77-.76,.78-.22,1.6-.39,2.39-.46,.34-.01,.7-.15,1.05,0,.1,.05,.41-.13,.63-.15,.55-.04,1.1-.07,1.65-.08,.77-.02,1.53,0,2.29,0,.47,0,.93-.05,1.39-.06,.49,0,.98,.04,1.46,.09,.61,.07,1.22,.19,1.82,.26,.63,.08,1.3,.05,1.89,.2,1.1,.28,2.22,.3,3.33,.42,1.1,.11,2.21,.21,3.31,.22,.62,0,1.19,.19,1.8,.19,.28,0,.67,.48,.55,.64-.02,.03-.07,.06-.12,.07-.61,.13-1.18,.38-1.88,.32-1.03-.06-2.07-.11-3.09-.2Z"/>
          <path class="cls-11" d="M101.31,22.7h-.05c-.07-.03-.15-.05-.18-.05,0,0-.23-.13,.12,.13,.14,.1-.1-.06-.24-.15-.03-.02-.04-.03-.03-.03,.09,.04,.1,.06,.14,.1l.06,.06c.08,.08,.2,.17,.24,.21h0s0,.04,0,.06c0,.01,0,.02,.01,.03,.02,.03,.06,.11,.1,.16,.16,.18,.07,.44,.16,.65,.08,.17,.19,.7,.02,1.01-.12,.24-.24,.44-.32,.66-.04,.12-.1,.34-.19,.36-.1,.05-.29,.02-.38,.22,0,.02-.11-.03-.17-.07-.11-.09-.21-.12-.3-.19-.12,.07-.16,.07-.21,.13-.08,.09-.16,.08-.23,.09-.21,.02-.43,.03-.65,.02-.16,0-.32-.09-.48-.1-.17-.02-.35,.07-.5-.02-.15-.1-.3-.09-.45-.09-.09,0-.18-.1-.26,.11,0,.02-.04,.02-.05,0-.24-.27-.49,.07-.74,0-.25-.08-.52-.04-.78-.04-.07,0-.14-.06-.21,.08-.02,.05-.1,.05-.13,.01-.18-.21-.39-.1-.58-.14-.22-.05-.45,.03-.66-.14-.09-.07-.22-.12-.34,.06-.06,.08-.16-.01-.24,0-.07,.01-.14,.09-.2,.09-.06,0-.11-.08-.16-.12-.02-.01-.04-.01-.05,0-.34,.19-.64-.11-.97-.08-.33,.04-.66,0-.98-.05-.18-.03-.36-.1-.47-.47-.05-.17-.04-.35,.04-.45,.06-.07,.13-.14,.2-.16,.1-.03,.21-.06,.31-.09,.21-.05,.43-.21,.65-.11,.07,.03,.15-.06,.2,.11,0,.02,.03,.04,.05,.03,.31-.24,.6-.05,.89-.05,.25,0,.51-.19,.75-.08,.15-.19,.31-.15,.45-.08,.48,.25,.98,.13,1.47,.18,.5,.05,.99,.04,1.49,.06,.08,0,.16-.11,.26-.02,.09,.08,.21,.02,.32,.02,.1,0,.2-.04,.3,0,.39,.21,.78,.08,1.17,.09,.22,0,.52,0,.68,0,.05,0,.1-.02,.13-.03,.03,.01,0-.08,0-.12-.02-.05-.03-.07,0-.08,.02-.02-.09-.04,.1-.05,.05-.02-.09-.02-.11-.05l-.1-.39c-.03-.09-.06-.19-.09-.29l-.03-.07-.07-.14-.14-.29c-.13-.19-.31-.39-.52-.62,0-.04,0-.08,0-.11,.02-.23,.05-.36,.1-.48,.04-.1,.09-.16,.1-.21,0-.01,0-.02,0-.03,0-.06-.05-.06-.08-.02l.03-.05c.15-.14,.3-.28,.44-.43l.03-.02c.55,.14,1.05,.27,1.58,.35,.08,.01,.16,.04,.23,.07,.03,.01,.09,.03,.09,.04,0,.04,.02-.05,0,.12-.03,.21,.02,.32,.01,.33-.05-.07-.12-.13-.21-.21-.06-.05-.05-.04-.05-.04h0s.02-.01,.03-.03c.01-.02,.13,.01,.26,.06,.02,0,.11,.05,.15,.05,.04,0,.05,0,.04,0-.01-.06-.12-.1,0-.17-.01-.02,.14-.01,.19,.12,.02,.05,.02,.06,.03,.1,0,.03,0,.06,0,.08-.02,.19,.08,.25-.06,.5-.26,.23-.4,.2-.52,.23-.06,0-.1,0-.14,0-.02,0-.02,0-.03,0-.09-.04-.18-.05-.27-.07Z"/>
          <path class="cls-11" d="M105.2,17.77l-.55,.21c-.07,.03-.15,.02-.2,.1-.03,.04-.11,0-.18,.02-.17,.07-.34,.12-.49,.2-.15,.07-.29,.17-.44,.26-.14,.09-.31,.15-.43,.27-.1,.1-.24,.13-.34,.22-.11,.09-.23,.19-.36,.25-.1,.05-.2,.09-.28,.16-.05,.04-.08,.11-.14,.15-.06,.04-.14,.05-.15,.14,0,0-.03,.01-.05,.01-.08,0-.16,.05-.19,.11-.03,.06-.08,.08-.13,.11-.13,.08-.25,.16-.39,.24-.1,.04-.21,.1-.31,.14-.1,.05-.2,.14-.31,.16-.11,.02-.2,.08-.3,.12-.05,.03-.13,.03-.14,.12,0,0-.02,.02-.03,.02-.19,0-.29,.18-.46,.24-.17,.06-.33,.15-.5,.23-.04,.02-.1,.02-.12,.09,0,.02-.05,.04-.08,.04-.15,0-.27,.09-.4,.13-.15,.05-.29,.14-.45,.15-.07,0-.16,.03-.21,.11-.02,.04-.11,.04-.16,.07-.04,.02-.08,.07-.12,.08-.04,.02-.08,0-.13,0-.01,0-.03,0-.04,.01-.19,.15-.44,.13-.66,.22-.22,.09-.45,.15-.67,.21-.13,.03-.26,.05-.38-.04-.05-.04-.07-.1-.03-.15,.03-.04,.07-.07,.11-.09,.06-.03,.14-.06,.2-.09,.14-.06,.26-.16,.41-.18,.05,0,.09-.05,.15-.01,0,0,.03,0,.03,0,.17-.14,.38-.16,.58-.23,.16-.06,.3-.18,.48-.22,.07-.1,.18-.13,.28-.14,.35-.06,.65-.24,.97-.37,.33-.13,.64-.3,.95-.45,.05-.03,.08-.09,.16-.09,.07,0,.14-.06,.2-.1,.06-.03,.12-.08,.19-.1,.28-.07,.5-.25,.73-.39,.24-.14,.48-.28,.69-.45,.13-.1,.25-.23,.39-.32,.06-.04,.1-.11,.2-.1,.03,0,.05-.08,.09-.11,.09-.07,.19-.14,.29-.2l.42-.27c.09-.06,.16-.13,.25-.18,.09-.06,.19-.11,.29-.15,.13-.05,.26-.08,.39-.12,.13-.04,.26-.12,.39-.14,.25-.03,.46-.13,.68-.21,.22-.08,.43-.17,.61-.3,.1-.07,.22-.09,.31-.18,.03-.04,.21,.01,.23,.06,0,.01,0,.03,0,.04-.05,.14-.11,.28-.25,.37-.2,.13-.41,.23-.62,.32Z"/>
          <path class="cls-11" d="M113.27,20.37c-.31-.03-.62-.07-.94-.09-.12,0-.23-.05-.36,0-.06,.02-.17-.05-.28-.06l-.87-.05c-.28,0-.57,.01-.85,.02-.28,0-.57-.02-.84,.02-.23,.03-.44,0-.67,.02-.23,.03-.48,.06-.71,.06-.17,0-.34,0-.5,.04-.1,.02-.19,.07-.31,.09-.1,.01-.23,0-.31,.09,0,0-.06,0-.08,0-.12-.02-.26,0-.35,.06-.09,.05-.17,.06-.25,.08l-.7,.16c-.17,.03-.36,.06-.53,.09-.18,.04-.37,.12-.54,.13-.18,.01-.34,.06-.5,.1-.09,.03-.21,.03-.27,.12,0,0-.04,.02-.06,.02-.29,0-.52,.18-.79,.24-.28,.06-.56,.16-.84,.25-.07,.02-.16,.03-.22,.1-.02,.02-.1,.05-.14,.05-.23,0-.44,.1-.65,.15-.25,.06-.49,.16-.75,.18-.11,0-.26,.03-.37,.13-.05,.04-.18,.05-.27,.08-.07,.03-.14,.07-.21,.09-.06,.02-.13,0-.2,.01-.02,0-.04,0-.06,.02-.35,.16-.73,.15-1.1,.24-.37,.09-.76,.14-1.14,.16-.21,.01-.44,0-.58-.12-.06-.05-.06-.11,.02-.15,.06-.03,.14-.06,.21-.07,.12-.02,.23-.03,.34-.05,.23-.05,.46-.12,.7-.14,.08,0,.16-.05,.23,0,.01,0,.04,0,.06,0,.31-.14,.65-.16,.97-.24,.28-.07,.53-.2,.81-.25,.14-.11,.32-.14,.48-.17,.56-.08,1.1-.29,1.64-.44l1.66-.48c.09-.03,.17-.09,.29-.09,.11,0,.24-.06,.36-.09,.11-.03,.23-.08,.34-.09,.46-.05,.89-.2,1.34-.29,.45-.09,.89-.18,1.34-.27,.27-.05,.54-.14,.82-.15,.12,0,.24-.06,.36,0,.03,.02,.14-.04,.22-.05,.19-.02,.38-.03,.57-.04l.8-.02c.16-.01,.33-.02,.48-.04,.17,0,.34,0,.51,.01,.21,.02,.43,.04,.64,.07,.22,.02,.45,0,.66,.05,.39,.08,.78,.09,1.17,.14,.39,.04,.77,.09,1.16,.13,.22,.02,.41,.1,.63,.12,.1,.01,.21,.19,.17,.23,0,0-.03,.02-.04,.02-.22,.02-.42,.07-.66,.04-.35-.05-.71-.09-1.06-.13Z"/>
          <g>
            <path class="cls-11" d="M92.4,22.25c-.12-.06-.3-.02-.38,.06s-.1,.18-.11,.27c-.01,.14-.02,.29,.09,.41,.11,.12,.31,.18,.51,.23,.49,.11,1.04,.13,1.52,0s.85-.44,.85-.78c0-.09-.02-.18-.09-.27-.15-.19-.49-.28-.81-.33-.4-.06-.82-.09-1.23-.07-.12,0-.24,.01-.34,.04-.17,.06-.27,.17-.36,.29-.1,.13-.21,.25-.31,.38"/>
            <path class="cls-11" d="M91.85,21.44c.19-.17,.41-.2,.64-.24,.09-.02,.17,.05,.26-.13,.05-.09,.12,.13,.19,.13,.2,0,.38,.06,.58,.07,.19,0,.43-.03,.65-.01,.22,.01,.32,.11,.63,.06,.26-.03,.14,.15,.28,.18,.14,.04,.25,.11,.24,.22-.01,.08-.04,.15,.04,.21,.05,.03,.18,.05,.19,.11,.01,.06-.05,.13,.16,.15,.02,0-.01,.03-.04,.05-.12,.08-.11,.16-.02,.21,.01,0,.02,.02,.03,.02,.05,.04,.03,.08,.03,.12,0,.13-.03,.26-.1,.37-.05,.08-.19,.15-.26,.21-.08,.07-.04,.18-.22,.2-.18,.02-.24,.07-.31,.12-.04,.03-.2,0,0,.14,.02,.01,0,.02-.03,.02-.43-.09-.18,.2-.43,.22-.24,0-.39,.09-.61,.13-.06,0-.15-.04-.13,.11,0,.05-.06,.06-.11,.03-.28-.2-.41-.07-.62-.13-.21-.06-.47-.01-.63-.22-.06-.09-.13-.15-.34-.03-.1,.05-.14-.07-.21-.09-.06-.02-.18,0-.23-.04-.04-.03-.02-.12-.02-.18,0-.02-.01-.03-.03-.04-.18-.05-.24-.21-.25-.36-.03-.24,.05-.4,.02-.51-.05-.24,.1-.6,.31-.73,.12-.08,.3-.13,.65,.19,.08,.07,.15,.15,.22,.22,.05,.06,.06,.07,.07,.1,.01,.03,.03,.06,.02,.07-.01,.01-.01,.04-.01,.06,0,.05,.13,.13,.04,.13-.03,0,.06,.03-.1,.02-.02,0-.04,0-.02,.01,.05,.03,.09,.06,.12,.07,.01,0,.02,0,.02,0h-.13s-.08,.03-.08,.03h0s0,0,0,0h0s.2-.06,.2-.06h0s0,0,0,0h0s0,0,0,0h0s0,.04,0,.04c.05,.03,.21-.08,.17-.03,.11-.13,.08-.11,.07-.07-.02,.16,.07,.07,.09,.09,.06,.02,.09,0,.14,0,.01,0-.15-.08-.01-.02,.14,.06,.05,0,.05,0,0,0-.06-.03,.04,0,.44,.09,.27-.02,.33-.05,.04-.02,.07-.05,.09-.07,.02-.04,0-.08-.1-.09-.1-.02-.37,.05-.29,.01,.02-.02-.19,.06,.16-.09,.1-.04-.19,.07-.2,.07-.04,0-.04,0-.05,0-.02,0-.02-.02-.06,0-.03,0-.12,.08-.14,.1-.02,.02-.02,.02-.01,0,.01-.02,.04-.09,.03-.11-.02-.02-.04,.06-.05-.02-.04-.15-.1-.07-.15-.07-.03-.02-.09,.04-.18,.21-.04,.09-.22,.05-.28,.12-.03,.03-.43-.22-.54-.34-.02-.02-.04-.05-.05-.06-.06-.16-.19-.37-.11-.44,.12-.09,.16-.23,.4-.43Z"/>
          </g>
        </g>
        <g>
          <g>
            <path class="cls-9" d="M89.4,11.84c-.12-.09-.3-.03-.38,.09s-.1,.27-.11,.42c-.01,.21-.02,.44,.09,.62,.11,.18,.31,.28,.51,.36,.49,.17,1.04,.2,1.52,0s.85-.68,.85-1.2c0-.14-.02-.28-.09-.41-.15-.29-.49-.43-.81-.5-.4-.1-.82-.13-1.23-.12-.12,0-.24,.02-.34,.07-.17,.09-.27,.27-.36,.44-.1,.2-.21,.39-.31,.59"/>
            <path class="cls-9" d="M88.66,11.06c.12-.19,.29-.34,.48-.44l.1-.05c.09-.04,.2,.02,.27-.16,.04-.09,.17,.1,.26,.09,.17-.03,.33,0,.49,0,.16,0,.33-.06,.49-.06,.17,0,.3,.13,.49,.07,.17-.05,.26,.15,.42,.18,.18,.04,.42,.16,.51,.36,.07,.15,.09,.3,.18,.4,.06,.07,.19,.11,.21,.22,.02,.1-.05,.21,.16,.27,.02,0-.02,.06-.04,.08-.13,.11-.13,.24-.05,.32,.08,.09,.05,.16,.04,.23-.04,.2-.11,.39-.22,.54-.08,.12-.23,.18-.32,.27-.1,.09-.15,.26-.31,.27-.16,0-.24,.07-.35,.13-.06,.04-.17-.02-.13,.19,0,.02-.02,.03-.04,.02-.27-.17-.33,.21-.55,.18-.2-.03-.39,.02-.59,.02-.05,0-.1-.06-.16,.08-.02,.05-.08,.05-.1,0-.11-.22-.27-.13-.4-.2-.14-.08-.32-.04-.47-.29-.05-.1-.12-.18-.33-.11-.1,.03-.12-.11-.19-.16-.06-.04-.17-.04-.21-.1v-.02c-.02-.05,0-.13,.01-.19,0-.02,0-.04-.02-.05-.34-.22-.05-.75-.09-.89-.06-.22,.07-.68,.33-.87,.14-.12,.35-.18,.66,.17,.07,.08,.14,.16,.2,.23,.05,.06,.06,.08,.07,.11,.01,.03,.03,.07,.02,.08-.02,.02-.02,.06-.02,.09,0,.07,.15,.17,.06,.17-.03,0,.06,.04-.1,.05-.02,0-.04,.01-.02,.02,.24,.19,.07,.21,.1,.27,.01,.02,.07,.02,.11,0,.05,0,.07-.03,.05,.01,.16-.14,.11-.13,.09-.07-.07,.09,.09,.17,.17,.18,.1,.02,.2,0,.29,.03,.19,.04,.37-.01,.52-.06,.03,0,0-.12,.06-.05,.06,.06,.06-.02,.09-.03,.02-.02,.02-.07,.08-.05,.24,.07,.24-.14,.3-.23,.07-.11,.1-.22,.03-.26-.04-.04-.15,0-.13-.04,0-.02-.07,.06,.03-.1,.03-.05-.07,.06-.08,.07-.02,0-.08-.03-.13-.05-.08-.03-.17-.06-.29-.07-.07,0-.14,.07-.21,.08-.07,.01-.13,0-.2-.02-.08-.03-.16-.1-.25-.12-.08-.02-.22,.07-.21-.02-.03-.08-.08-.1-.11-.08-.03,.01-.04,.04-.06,.06-.03,.02-.04,.02-.07,.08-.04,.08-.08,.17-.11,.26-.03,.11-.22,.12-.27,.21-.02,.04-.47-.12-.61-.21-.03-.02-.05-.04-.06-.05-.08-.16-.25-.35-.18-.45,.05-.07,.09-.15,.13-.23l.06-.13c.03-.07,.07-.13,.11-.19Z"/>
          </g>
          <g>
            <path class="cls-12" d="M69.91,20.56c-2.03,.32-3.91,.55-5.85,1.24s-2.63,.76-5.54,1.32c-.15,.03-2.13,.15-2.24,.05-.34-.32,.03-.87,.39-1.17,1.14-.93,2.41-1.69,3.76-2.27,.88-.38,1.79-.67,2.7-.96,4.46-1.42,8.97-2.73,13.47-4.03,1.7-.49,3.4-.98,5.15-1.28,1.08-.19,2.17-.3,3.26-.41,2.24-.23,4.48-.46,6.72-.69,1.43-.15,3.11-.2,4.04,.9,.16,.19,.29,.45,.19,.68-.07,.15-.23,.23-.37,.31-2.49,1.27-5.07,2.38-7.7,3.32-1.35,.48-2.72,.92-4.13,1.14-1.28,.2-2.58,.21-3.87,.29-3.5,.23-7.85,.99-11.29,1.68"/>
            <path class="cls-12" d="M76.17,18.76c1.39-.18,2.78-.32,4.19-.41,.52-.04,1.05,.03,1.57-.18,.26-.1,.76,.07,1.21,0,1.23-.16,2.45-.46,3.65-.89,1.17-.42,2.31-.92,3.45-1.41,1.13-.48,2.34-.91,3.37-1.51,.62-.37,1.57-.75,1.45-.69,.04-.03,.02-.08-.01-.11,.03,.01-.38-.28-.77-.38-.4-.12-.87-.17-1.34-.2-.69-.05-1.44-.02-2.19,.09-.46,.07-.89,.22-1.4,.26-.47,.04-1.01,0-1.4,.25-.03,.02-.25,0-.36-.01-.52-.08-1.14,0-1.56,.13-.4,.13-.78,.15-1.15,.2-1.03,.14-2.07,.27-3.11,.39-.76,.12-1.53,.22-2.29,.39-.8,.18-1.62,.51-2.38,.63-.77,.12-1.47,.34-2.19,.55-.41,.12-.92,.18-1.19,.47-.03,.03-.18,.07-.26,.08-1.25,.09-2.3,.77-3.5,1.06-1.24,.3-2.48,.72-3.72,1.1-.33,.1-.7,.15-.96,.38-.09,.08-.44,.19-.62,.21-.49,.04-.97,.16-1.43,.31-.45,.16-.9,.35-1.36,.49-1.07,.31-2,.81-3,1.23-.43,.17-.99,.5-1.3,.97,.03,.09-.1,.07-.13,.14,0,.05,.17,.02,.18,0,0,0-.05,.08-.01,.11,0,.01,.03,.01,.04,0,.12-.04,.61-.1,.72-.12,1.28-.3,2.66-.33,3.88-.7,.76-.23,1.49-.53,2.35-.79,.83-.25,1.68-.42,2.52-.55,.92-.15,1.87-.22,2.54,.04,.3,.12,.33,.3-.04,.46-.27,.12-.59,.24-.9,.31-.51,.12-1.01,.24-1.5,.36-1.02,.25-1.96,.65-2.99,.92-.34,.09-.69,.31-1.02,.24-.05-.01-.19,.02-.25,.05-1.38,.67-2.9,.73-4.34,1.03h-.1s-.5,.07-.5,.07l-.61,.06c-.52,.04-1.16,.1-1.45-.09-.32-.05-.6-.59-.53-.99,.04-.41,.27-.84,.72-1.2,.07-.12,.2-.23,.32-.35l.31-.29c.14-.14,.3-.26,.47-.38,.33-.23,.69-.43,1.02-.59,.6-.28,1.19-.55,1.8-.8l1.82-.64c1.21-.47,2.4-.8,3.61-1.16l7.33-2.18c.42-.12,.74-.34,1.25-.4,.48-.06,1.05-.3,1.59-.46,.49-.15,.99-.34,1.47-.42,1.96-.34,3.94-1.02,5.96-1.17,2.01-.25,3.98-.4,5.95-.66,1.22-.14,2.34-.41,3.65-.44,.55,0,1.19-.09,1.73,.24,.14,.08,.74,.1,1.12,.34,.16,.1,.26,.16,.44,.32,.19,.16,.32,.35,.48,.53,.25,.38,.33,.85,.13,1.24-.11,.22-.29,.39-.52,.53-.23,.13-.53,.27-.61,.32-1.05,.52-2.11,1-3.17,1.49-.65,.29-1.27,.64-1.92,.92-.69,.29-1.39,.56-2.1,.8-.9,.3-1.82,.54-2.77,.76-.97,.24-2.03,.49-2.99,.47-1.78-.05-3.43,.08-5.14,.29-1.69,.18-3.38,.42-5.04,.76-.95,.19-1.84,.19-2.77,.37-.43,.08-1.11-.26-.96-.46,.03-.04,.09-.08,.16-.11,.88-.33,1.68-.72,2.74-.89,1.56-.26,3.12-.52,4.69-.73Z"/>
          </g>
          <path class="cls-12" d="M43.6,45.33c.65-.27,1.3-.55,1.93-.87,.23-.12,.51-.16,.68-.44,.08-.14,.4-.07,.61-.19,.57-.32,1.17-.61,1.73-.95,.55-.33,1.06-.72,1.6-1.07,.53-.35,1.14-.62,1.6-1.04,.4-.36,.88-.49,1.29-.81,.43-.33,.87-.67,1.35-.91,.35-.17,.7-.34,1-.58,.18-.16,.31-.37,.53-.51,.2-.14,.48-.22,.53-.51,0-.02,.11-.06,.17-.07,.28-.05,.53-.25,.64-.45,.11-.2,.27-.3,.42-.42,.42-.33,.84-.67,1.28-.98,.29-.23,.62-.45,.91-.71,.3-.28,.53-.67,.86-.89,.33-.23,.56-.52,.8-.81,.14-.17,.37-.31,.32-.58,0-.02,.05-.09,.08-.11,.59-.33,.69-1.03,1.12-1.5,.45-.48,.81-1.05,1.19-1.59,.1-.14,.26-.26,.24-.48,0-.08,.1-.23,.18-.28,.45-.28,.65-.77,.97-1.16,.36-.45,.62-.97,1.08-1.35,.19-.16,.41-.42,.43-.77,0-.16,.24-.34,.34-.53,.08-.15,.11-.34,.2-.48,.08-.12,.22-.2,.34-.3,.03-.03,.06-.07,.08-.12,.29-.81,.99-1.35,1.4-2.09,.41-.74,.9-1.45,1.38-2.16,.27-.39,.57-.77,1.05-.84,.22-.03,.37,.06,.35,.28-.01,.17-.04,.35-.11,.5-.11,.25-.23,.5-.34,.73-.24,.5-.39,1.04-.77,1.47-.12,.13-.15,.36-.37,.39-.03,0-.08,.06-.09,.09-.2,.77-.77,1.33-1.18,1.98-.35,.55-.54,1.19-.98,1.69-.04,.41-.31,.75-.57,1.01-.92,.94-1.55,2.08-2.34,3.11-.8,1.04-1.56,2.11-2.38,3.15-.14,.18-.17,.4-.41,.55-.22,.14-.37,.43-.56,.66-.17,.21-.32,.45-.53,.6-.43,.32-.81,.69-1.19,1.06-.37,.39-.79,.74-1.21,1.04-.84,.61-1.67,1.25-2.48,1.88-.49,.39-.94,.83-1.48,1.16-.23,.14-.4,.39-.73,.38-.09,0-.22,.26-.36,.36-.35,.25-.71,.49-1.07,.72l-1.51,.98c-.3,.21-.57,.46-.88,.67-.32,.22-.65,.41-1,.59-.44,.22-.89,.4-1.33,.62-.45,.22-.88,.54-1.36,.68-.88,.26-1.65,.71-2.48,1.05l-2.48,1c-.47,.2-.95,.2-1.42,.36-.22,.07-.66-.28-.62-.46,0-.03,.03-.08,.06-.1,.41-.29,.74-.65,1.25-.82,.76-.25,1.5-.56,2.24-.87Z"/>
          <path class="cls-12" d="M63.55,16.73c-.69-.19-1.39-.38-2.11-.55-.26-.06-.5-.22-.82-.12-.16,.05-.36-.21-.6-.26-.66-.14-1.3-.31-1.96-.41-.64-.1-1.29-.13-1.93-.2-.63-.06-1.28-.21-1.92-.15-.54,.05-1.02-.14-1.54-.13-.55,0-1.12,.02-1.65-.08-.39-.06-.78-.15-1.17-.12-.24,.02-.47,.12-.74,.11-.25-.01-.53-.1-.74,.1-.02,.02-.13-.02-.18-.05-.27-.13-.59-.12-.81-.03-.22,.09-.41,.08-.61,.09-.55,.02-1.11,.03-1.67,.03-.42,0-.83-.07-1.25-.08-.43,0-.9,.1-1.3,.02-.41-.08-.79-.07-1.19-.05-.22,0-.49-.07-.67,.14-.02,.02-.1,.02-.14,0-.65-.24-1.27,.13-1.92,.09-.07-.02-.29,.02-.42-.03l-.34-.13c-.15-.06-.31-.11-.46-.16-.31-.1-.63-.18-.95-.26-.17-.04-.34-.15-.53-.05-.07,.04-.25,0-.33-.06-.43-.31-.97-.31-1.47-.46-.56-.17-1.17-.21-1.71-.51-.23-.13-.56-.25-.9-.16-.16,.05-.42-.13-.64-.18-.18-.04-.36,0-.53-.06-.14-.04-.26-.16-.39-.24-.04-.02-.09-.04-.14-.04-.88-.06-1.61-.59-2.45-.8-.84-.21-1.67-.5-2.49-.79-.45-.16-.91-.37-1.11-.82-.09-.2-.04-.37,.19-.41,.17-.03,.35-.04,.52-.01,.27,.05,.55,.1,.81,.15,.55,.11,1.13,.12,1.65,.38,.16,.08,.39,.05,.48,.25,.01,.03,.08,.06,.12,.06,.81,0,1.52,.39,2.27,.61,.63,.18,1.33,.2,1.91,.47,.4-.09,.79,.05,1.13,.2,1.2,.53,2.53,.64,3.82,1.01l.99,.3,.49,.16,.35,.12,1.87-.07c.23,0,.42-.13,.69-.05,.25,.07,.57,0,.87-.01,.27,0,.55-.06,.8-.02,1.05,.18,2.1,.02,3.16,.02,1.05,0,2.1,.02,3.15-.03,.64-.03,1.28-.13,1.92-.07,.27,.03,.57-.07,.83,.13,.07,.06,.34-.08,.51-.08,.44,0,.88,.04,1.32,.07l1.84,.14c.38,.02,.76-.01,1.14,.02,.4,.03,.79,.1,1.18,.18,.49,.11,.97,.27,1.45,.4,.5,.13,1.05,.17,1.5,.37,.86,.39,1.73,.54,2.61,.79,.87,.25,1.75,.52,2.64,.83,.51,.18,.88,.54,1.33,.8,.22,.13,.23,.7,.06,.78-.03,.02-.08,.02-.12,.01-.48-.13-.96-.12-1.43-.34-.71-.33-1.48-.56-2.26-.78Z"/>
          <path class="cls-12" d="M97.43,3.94c-.22,.23-.47,.44-.68,.68-.08,.09-.22,.11-.2,.32,.01,.1-.21,.03-.29,.11-.21,.21-.45,.4-.67,.6-.21,.2-.39,.44-.6,.64-.21,.19-.51,.3-.66,.55-.14,.22-.41,.21-.57,.38-.17,.18-.36,.35-.6,.42-.17,.05-.35,.09-.47,.22-.07,.08-.1,.22-.2,.28-.09,.05-.24,.05-.21,.27,0,.02-.06,.02-.09,0-.17-.04-.28,.04-.32,.17-.03,.13-.11,.16-.18,.21-.2,.14-.4,.28-.62,.39-.16,.08-.36,.11-.52,.19-.17,.08-.3,.27-.5,.27-.2,0-.34,.1-.49,.18-.08,.05-.23,.03-.19,.24,0,.02-.03,.04-.05,.03-.37-.09-.43,.35-.71,.43-.28,.09-.52,.27-.77,.43-.07,.04-.17,.03-.16,.19,0,.06-.07,.1-.12,.09-.29-.07-.43,.15-.64,.23-.24,.09-.42,.3-.71,.28-.13,0-.27,.03-.29,.26-.01,.1-.16,.09-.23,.15-.06,.05-.08,.16-.15,.2-.05,.03-.15,0-.22,0-.02,0-.04,.01-.05,.03-.22,.37-.68,.29-.97,.52-.3,.23-.64,.39-.98,.55-.19,.09-.4,.14-.7-.12-.14-.11-.22-.27-.2-.4,.02-.1,.05-.2,.1-.25,.08-.09,.17-.18,.26-.26,.18-.17,.3-.43,.56-.48,.08-.01,.11-.14,.25-.03,.02,.02,.05,.01,.06,0,.16-.38,.55-.4,.83-.58,.24-.15,.39-.46,.68-.53,.04-.25,.22-.31,.39-.34,.6-.09,1.02-.49,1.52-.74,.51-.25,.99-.57,1.49-.84,.08-.05,.1-.19,.24-.17,.13,.02,.22-.11,.33-.17,.1-.06,.18-.16,.3-.17,.49-.05,.81-.39,1.19-.61,.39-.22,.77-.45,1.11-.73,.21-.17,.36-.42,.61-.54,.11-.05,.14-.21,.34-.12,.06,.03,.06-.16,.12-.21,.14-.12,.29-.22,.44-.33,.21-.15,.42-.3,.61-.47,.12-.1,.19-.26,.3-.37,.11-.12,.24-.22,.37-.31,.17-.11,.38-.19,.54-.31,.17-.13,.28-.34,.49-.41,.39-.13,.61-.46,.89-.71,.27-.26,.55-.52,.77-.82,.12-.17,.37-.21,.51-.37,.06-.07,.51,.13,.61,.27,.02,.03,.03,.06,.03,.08-.03,.25,.02,.56-.16,.73l-.75,.79Z"/>
          <path class="cls-12" d="M127.79,35.29c-.94-.12-1.88-.3-2.81-.48-.35-.07-.68-.22-1.08-.14-.2,.04-.48-.24-.8-.32-.86-.2-1.71-.47-2.55-.74-.83-.24-1.65-.49-2.46-.78-.8-.3-1.57-.75-2.36-1.01-.68-.24-1.19-.66-1.8-.96-.66-.31-1.32-.66-1.88-1.1-.42-.31-.8-.66-1.25-.91-.29-.16-.58-.24-.84-.41-.25-.16-.52-.41-.86-.37-.03,0-.14-.1-.19-.16-.24-.29-.62-.51-.93-.61-.15-.05-.28-.12-.4-.21-.06-.04-.12-.08-.18-.13l-.12-.09s-.03-.02-.02-.02h-.02s-.14-.03-.14-.03c-.19-.04-.38-.1-.57-.15-.37-.11-.73-.25-1.07-.39-.51-.21-.97-.49-1.44-.68-.5-.21-1.03-.25-1.53-.47-.48-.22-.96-.34-1.45-.47-.28-.07-.58-.24-.86-.1-.03,.01-.13-.02-.17-.04-.73-.46-1.6-.31-2.39-.57-.82-.27-1.69-.42-2.53-.61-.23-.05-.46-.16-.7-.06-.08,.03-.32-.01-.43-.08-.58-.33-1.27-.36-1.91-.52-.73-.19-1.48-.24-2.2-.53-.3-.12-.73-.23-1.14-.11-.19,.05-.53-.09-.81-.11-.23-.02-.45,.03-.67,0-.19-.03-.36-.13-.55-.19-.06-.02-.12-.03-.18-.03-1.11,.05-2.14-.34-3.28-.43-1.13-.1-2.32-.34-3.44-.84-.62-.27-1.22-.71-1.33-1.28-.06-.25,.06-.38,.33-.31,.19,.06,.41,.11,.6,.2,.31,.14,.62,.25,.93,.34,.65,.2,1.34,.2,2.02,.42,.21,.07,.49,.02,.65,.21,.02,.03,.11,.05,.16,.05,.99-.11,1.99,.15,3,.27,.85,.1,1.71,.02,2.55,.25,.5-.12,1.05,0,1.52,.16,1.63,.52,3.33,.72,4.98,1.13,1.67,.41,3.35,.79,5.01,1.22,.28,.07,.56,.02,.87,.19,.29,.16,.71,.2,1.07,.29,.33,.08,.69,.13,.99,.26,1.32,.51,2.61,1.05,3.81,1.44l.45,.14c.09,.02,.12,.03,.26,.06,.12,.05,.3,.02,.38,.14,.23,.21,.31,.28,.43,.37,.12,.09,.25,.19,.38,.27,.52,.35,1.11,.64,1.72,.98,.78,.45,1.43,.79,2.12,1.25,.29,.19,.65,.29,.84,.63,.05,.1,.41,.13,.61,.23,.49,.26,.96,.53,1.46,.77,.68,.36,1.37,.68,2.08,.98,.44,.17,.89,.28,1.33,.43,.46,.15,.92,.33,1.37,.51,.58,.21,1.13,.49,1.73,.67,.61,.21,1.28,.3,1.85,.53,1.07,.44,2.22,.57,3.34,.78,1.12,.18,2.25,.34,3.39,.36,.64,.02,1.22,.21,1.85,.22,.29,0,.69,.49,.57,.65-.02,.03-.07,.06-.12,.07-.63,.13-1.22,.37-1.95,.3-1.07-.08-2.15-.16-3.21-.32Z"/>
          <path class="cls-12" d="M100.52,22.22l-1.54-.55,.03-.06c.11-.19,.33-.38,.24-.55-.04-.1,.32-.3,.41-.46,.06-.12,.13-.23,.19-.36l.1-.2c.07-.13,.12-.26,.17-.4,.09-.27,.11-.55,.17-.82,.05-.27,.21-.53,.15-.81-.06-.24,.14-.42,.11-.64-.02-.24-.04-.47,.04-.7,.06-.17,.12-.34,.07-.5-.03-.1-.14-.19-.15-.3,0-.1,.07-.24-.15-.29-.02,0,.01-.06,.03-.08,.05-.07,.07-.13,.07-.19,0-.04-.03-.03-.07-.03-.08,.02-.07,.03-.08,.02h0s0,0,0,0c0,0,.01-.03-.02-.05-.09-.01-.18-.03-.27-.02-.19,.02-.37,.14-.56,.08-.19-.06-.36-.01-.53,.03-.1,.02-.23-.03-.26,.18,0,.02-.04,.03-.06,.02-.35-.19-.52,.24-.81,.26-.31,.03-.59,.17-.88,.27-.08,.03-.18,0-.21,.16,0,.06-.09,.09-.14,.07-.28-.12-.47,.08-.71,.12-.27,.05-.5,.22-.82,.16-.13-.03-.29-.02-.38,.2-.04,.1-.2,.05-.29,.1-.08,.04-.13,.14-.21,.17-.07,.02-.16-.03-.24-.05-.02,0-.05,0-.07,.02-.35,.31-.82,.11-1.23,.23-.41,.12-.86,.13-1.29,.11-.24-.02-.49-.09-.62-.46-.06-.17-.04-.34,.06-.45,.07-.07,.15-.15,.23-.16,.12-.03,.24-.06,.36-.1,.24-.08,.46-.24,.72-.19,.08,.02,.16-.09,.24,.07,.01,.02,.05,.03,.06,.02,.29-.3,.66-.19,.99-.29,.28-.08,.5-.35,.81-.34,.1-.24,.29-.26,.47-.25,.63,.03,1.15-.3,1.73-.47,.59-.17,1.18-.39,1.79-.55,.1-.03,.17-.16,.31-.11,.13,.05,.27-.05,.41-.08,.13-.03,.25-.1,.38-.08,.27,.06,.52,.03,.77,0l.56-.08c.2-.02,.38,0,.54,.08,.08,.04,.15,.09,.21,.15,.11,.11,.16,.27,.2,.44l.14,.49,.14,.68c.07,.3,.2,.61,.16,.93-.02,.13,.09,.28-.1,.41-.06,.04,.08,.17,.09,.25,0,.22-.03,.43-.06,.65-.04,.3-.11,.59-.16,.89-.03,.18,0,.38-.04,.56-.04,.19-.1,.38-.19,.56-.1,.23-.27,.42-.39,.64-.03,.05-.06,.11-.08,.17l-.04,.09s0,0,0,.01c0,.02,0,.03-.07,.05-.1,.03-.16,.09-.2,.14,.04,.04,.15,.04,.2,.08l.09,.04,.26,.1c.19,.07,.39,.13,.59,.18,.11,.03,.21,.1,.3,.17,.04,.03,.11,.08,.12,.1,0,0,0-.01,0,.02l-.03,.1c-.01,.06-.02,.1-.02,.14,0,.07,.01,.11,.01,.11,.07,.08,.02,.02,0,.03-.03,0,0,0,.03-.03,0-.05,.03,.02-.01-.05-.04-.05-.1-.08-.08-.15,0-.05,.16-.12,.25-.06,.13,.07,.18,.15,.21,.26,.01,.06,.02,.14-.02,.22-.04,.1-.11,.15-.14,.18-.21,.16-.39,.13-.49,.15-.17,.02-.27,.04-.39-.01-.17-.07-.35-.14-.53-.2l-.6-.21Z"/>
          <path class="cls-10" d="M105.05,5.43c-.19,.13-.39,.23-.58,.34-.07,.04-.16,.06-.2,.15-.02,.05-.12,.02-.19,.06-.17,.1-.35,.19-.51,.31-.16,.11-.29,.24-.43,.37-.14,.13-.3,.24-.41,.4-.09,.13-.23,.2-.33,.33-.1,.13-.21,.26-.34,.37-.09,.08-.19,.15-.26,.24-.04,.06-.07,.13-.13,.19-.05,.05-.13,.1-.13,.19,0,0-.03,.02-.05,.03-.09,.03-.16,.1-.18,.17-.03,.07-.07,.11-.11,.15-.12,.12-.24,.24-.37,.35-.1,.09-.21,.15-.31,.23-.1,.08-.19,.2-.3,.26-.11,.06-.2,.13-.29,.21-.05,.04-.13,.07-.14,.16,0,0-.02,.02-.03,.03-.21,.06-.29,.26-.46,.37-.17,.11-.34,.24-.5,.37-.04,.03-.1,.05-.12,.12,0,.02-.05,.06-.08,.06-.16,.03-.27,.16-.41,.23-.16,.09-.29,.21-.47,.26-.08,.02-.17,.07-.22,.17-.02,.05-.11,.07-.17,.1-.04,.03-.07,.08-.12,.11-.04,.02-.09,.02-.14,.04-.01,0-.03,.01-.04,.02-.2,.19-.47,.23-.7,.36-.23,.14-.47,.25-.72,.35-.14,.05-.28,.1-.42,.03-.06-.03-.09-.09-.04-.14,.03-.04,.07-.08,.11-.11,.07-.04,.14-.09,.21-.13,.14-.09,.26-.21,.43-.26,.05-.01,.09-.07,.16-.04,0,0,.03,0,.04-.01,.17-.18,.4-.24,.6-.36,.17-.1,.3-.26,.49-.33,.06-.11,.17-.17,.28-.21,.37-.14,.67-.4,1-.62,.33-.22,.64-.47,.95-.72,.05-.04,.07-.11,.15-.14,.08-.02,.13-.11,.2-.16,.06-.05,.11-.12,.18-.15,.28-.15,.49-.4,.71-.61,.23-.21,.45-.43,.65-.67,.12-.14,.22-.31,.36-.44,.06-.06,.09-.15,.19-.16,.03,0,.04-.09,.08-.14,.09-.1,.18-.2,.27-.29l.4-.4c.08-.08,.15-.18,.24-.26,.09-.08,.19-.16,.29-.23,.13-.09,.28-.15,.41-.22,.14-.08,.27-.18,.41-.22,.27-.08,.49-.23,.72-.37,.23-.13,.44-.28,.61-.46,.09-.1,.22-.17,.29-.28,.03-.05,.22-.05,.25,0,0,0,0,.03,0,.04-.04,.15-.06,.33-.19,.46-.19,.19-.4,.36-.61,.5Z"/>
          <path class="cls-10" d="M112.99,9.48c-.32-.05-.63-.11-.95-.14-.12-.02-.24-.06-.36-.01-.06,.02-.17-.06-.28-.07-.3-.02-.59-.06-.89-.07-.29-.01-.58,0-.86,0-.28,0-.58-.02-.85,.03-.23,.05-.45,0-.67,.05-.24,.04-.48,.09-.71,.11-.17,.01-.34,.04-.51,.08-.1,.03-.19,.09-.3,.11-.1,.03-.23,.04-.3,.13,0,0-.06,.01-.08,0-.12,0-.26,.03-.35,.09-.08,.06-.16,.08-.25,.11l-.69,.24c-.17,.05-.35,.11-.52,.16-.18,.06-.36,.17-.53,.21-.18,.04-.33,.1-.49,.18-.09,.04-.21,.06-.26,.15,0,0-.04,.02-.06,.03-.3,.03-.5,.25-.77,.35-.28,.1-.55,.24-.82,.37-.07,.03-.16,.05-.21,.13-.02,.03-.09,.06-.13,.07-.23,.03-.43,.17-.64,.25-.24,.09-.47,.23-.73,.29-.11,.03-.26,.07-.36,.18-.05,.05-.18,.07-.26,.12-.07,.04-.13,.09-.2,.12-.06,.02-.13,.02-.2,.04-.02,0-.04,.01-.06,.02-.33,.21-.73,.24-1.1,.37-.37,.13-.77,.21-1.17,.26-.22,.02-.46,0-.61-.1-.07-.05-.07-.11,.02-.15,.07-.03,.14-.06,.21-.07,.12-.02,.23-.03,.35-.07,.23-.07,.46-.15,.7-.19,.08-.01,.16-.06,.23-.03,.01,0,.04,0,.06,0,.3-.17,.64-.23,.96-.35,.27-.11,.51-.27,.79-.36,.12-.13,.3-.18,.46-.23,.56-.17,1.07-.45,1.6-.68l1.62-.73c.09-.04,.16-.11,.28-.13,.11-.02,.24-.1,.36-.15,.11-.05,.22-.11,.33-.14,.45-.12,.88-.32,1.32-.48,.45-.14,.89-.28,1.33-.43,.27-.08,.54-.18,.83-.23,.12-.02,.24-.07,.38-.03,.04,.01,.14-.05,.22-.07,.19-.03,.39-.05,.59-.07,.27-.03,.55-.03,.82-.05,.17,0,.33-.04,.5-.04,.17,0,.35,0,.52,.02,.22,.03,.44,.05,.66,.08,.23,.02,.47,.02,.68,.07,.4,.1,.8,.13,1.19,.2,.39,.07,.78,.14,1.18,.21,.22,.04,.42,.13,.63,.17,.1,.02,.21,.2,.15,.25,0,0-.03,.02-.05,.02-.22,0-.43,.04-.67,0-.36-.08-.72-.14-1.07-.2Z"/>
          <g>
            <path class="cls-9" d="M92.17,12.49c-.12-.09-.3-.03-.38,.09s-.1,.27-.11,.42c-.01,.21-.02,.44,.09,.62,.11,.18,.31,.28,.51,.36,.49,.17,1.04,.2,1.52,0s.85-.68,.85-1.2c0-.14-.02-.28-.09-.41-.15-.29-.49-.43-.81-.5-.4-.1-.82-.13-1.23-.12-.12,0-.24,.02-.34,.07-.17,.09-.27,.27-.36,.44-.1,.2-.21,.39-.31,.59"/>
            <path class="cls-9" d="M91.43,11.71c.12-.19,.29-.34,.48-.44l.1-.05c.09-.04,.2,.02,.27-.16,.04-.09,.17,.1,.26,.09,.17-.03,.33,0,.49,0,.16,0,.33-.06,.49-.06,.17,0,.3,.13,.49,.07,.17-.05,.26,.15,.42,.18,.18,.03,.42,.16,.51,.36,.07,.15,.09,.3,.18,.4,.06,.07,.19,.11,.21,.22,.02,.1-.05,.21,.16,.27,.02,0-.02,.06-.04,.08-.13,.11-.13,.24-.05,.32,.08,.09,.05,.16,.04,.23-.04,.2-.11,.39-.22,.54-.08,.12-.23,.18-.32,.27-.1,.09-.15,.26-.31,.27-.16,0-.24,.07-.35,.13-.06,.04-.17-.02-.13,.19,0,.02-.02,.03-.04,.02-.27-.17-.33,.21-.55,.18-.2-.03-.39,.02-.59,.02-.05,0-.1-.06-.16,.08-.02,.05-.08,.05-.1,0-.11-.22-.27-.13-.4-.2-.14-.08-.32-.04-.47-.28-.05-.1-.12-.18-.33-.11-.1,.03-.12-.11-.19-.16-.06-.04-.17-.04-.21-.1v-.02c-.02-.05,0-.13,.01-.19,0-.02,0-.04-.02-.05-.34-.22-.05-.75-.09-.89-.06-.22,.07-.68,.33-.87,.14-.12,.35-.18,.66,.17,.07,.08,.14,.16,.2,.23,.05,.06,.06,.08,.07,.11,.01,.03,.03,.07,.02,.08-.02,.02-.02,.06-.02,.09,0,.07,.15,.17,.06,.17-.03,0,.06,.04-.1,.05-.02,0-.04,.01-.03,.02,.24,.19,.07,.21,.1,.27,.01,.02,.07,.02,.11,0,.05,0,.07-.03,.05,.01,.16-.14,.11-.13,.09-.07-.07,.09,.09,.17,.17,.18,.1,.02,.2,0,.29,.03,.19,.04,.37-.01,.52-.06,.03,0,0-.12,.06-.05,.06,.06,.06-.02,.09-.03,.02-.02,.02-.07,.08-.05,.24,.07,.24-.14,.3-.23,.07-.11,.1-.22,.03-.26-.04-.04-.15,0-.13-.04,0-.02-.07,.06,.03-.1,.03-.05-.07,.06-.08,.07-.02,0-.08-.03-.13-.05-.08-.03-.17-.06-.29-.07-.07,0-.14,.07-.21,.08-.07,.01-.13,0-.2-.02-.08-.03-.16-.1-.25-.12-.08-.02-.22,.07-.21-.02-.03-.08-.08-.1-.11-.08-.03,.01-.04,.04-.06,.06-.03,.02-.04,.02-.07,.08-.04,.08-.08,.17-.11,.26-.03,.11-.22,.12-.27,.21-.02,.04-.47-.12-.61-.21-.03-.02-.05-.04-.06-.05-.08-.16-.25-.35-.18-.45,.05-.07,.09-.15,.13-.23l.06-.13c.03-.07,.07-.13,.11-.19Z"/>
          </g>
        </g>
        <g class="cls-14">
          <g class="cls-14">
            <path class="cls-5" d="M4.52,18.28c-.89-.85-1.39-2.05-2.11-2.84-.07-.09-.15-.18-.24-.28l.05,.18c.42,1.35,1.35,2.63,2.4,3.53,.69,.54,1.48,.92,2.19,1.51,.08,.07,.17-.03,.21-.07-.02-.12-.03-.24-.03-.35-.63-.4-1.27-.79-1.84-1.32-.18-.18-.53-.23-.63-.35Z"/>
            <polygon class="cls-7" points="7.01 19.99 7.01 19.97 6.92 19.91 7.01 19.99"/>
            <path class="cls-4" d="M5.48,18.96c-.21-.14-.4-.31-.57-.48-.16-.07-.32-.12-.39-.2-.89-.85-1.39-2.05-2.11-2.84-.07-.09-.15-.18-.24-.28,.02,.06,.04,.12,.06,.19,.14,.47,.36,.92,.61,1.36l.06,.06c.23,.18,.29,.45,.45,.67,.52,.56,.9,1.08,1.48,1.55,.21,.17,.51,.25,.74,.46,.08,.07,.16,.14,.23,.21,.35,.22,.69,.45,1.03,.73,.08,.07,.17-.03,.21-.07-.01-.06-.02-.12-.02-.19-.31-.26-.53-.45-.8-.68-.26-.17-.51-.35-.75-.55,0,.02,0,.04,.02,.06Z"/>
            <path class="cls-7" d="M5.59,18.8s-.13,0-.12,.11c.24,.2,.5,.38,.75,.55-.22-.2-.44-.41-.63-.66Z"/>
            <path class="cls-8" d="M5.92,18.5c-.4-.44-.92-.72-1.16-1.16-.13-.22-.22-.47-.26-.71-.05-.06-.1-.12-.15-.18-1.27-1.44-1.95-3.38-1.76-5.27,.06-.93,0-1.82,.21-2.81,.18-.57,.52-.94,.89-1.37,.95-1.02,1.4-2.25,2.64-3.21,.33-.24,.15-.71,.05-.67-1.14,.73-2.13,1.59-2.93,2.61-.8,1.02-1.4,2.22-1.63,3.54-.35,2.04-.2,3.98,.35,5.89,.08,.1,.17,.2,.24,.28,.72,.8,1.22,2,2.11,2.84,.11,.12,.45,.17,.63,.35,.57,.53,1.21,.92,1.84,1.32,0-.24,.02-.46-.02-.66-.4-.22-.78-.46-1.07-.79Z"/>
            <path class="cls-6" d="M5.92,18.5c.28,.33,.67,.57,1.07,.79-.02-.1-.05-.19-.1-.28-.66-.9-1.67-1.55-2.38-2.39,.04,.24,.12,.49,.26,.71,.24,.44,.76,.72,1.16,1.16Z"/>
            <path class="cls-4" d="M5.92,18.5c.27,.32,.64,.55,1.01,.76-.1-.11-.2-.22-.3-.32-.55-.5-1.13-.98-1.52-1.59,.52,.57,1.1,1.1,1.73,1.58-.66-.85-1.63-1.49-2.33-2.3,.04,.24,.12,.49,.26,.71,.24,.44,.76,.72,1.16,1.16Z"/>
            <path class="cls-3" d="M5,17.72c.57,.69,1.23,1.32,2.01,1.81,0-.06,0-.12-.01-.18-.03-.03-.05-.06-.07-.09-.38-.21-.74-.45-1.01-.76-.4-.44-.92-.72-1.16-1.16-.13-.22-.22-.47-.26-.71l-.14-.17c-.64-.75-1.15-1.6-1.46-2.52-.42-.76-.53-1.73-.42-2.62,0,.42,.04,.84,.12,1.25-.05-.46-.06-.93-.02-1.38,.02-.4,.03-.78,.04-1.17-.1-.1-.18-.24-.17-.47,.03-.35,.13-.68,.14-1.05,.02-.05,.1,0,.14-.1-.1,.25-.11,.49-.06,.7,.02-.24,.06-.48,.11-.73,.14-.45,.39-.77,.66-1.1,.02-.04,.04-.08,.06-.12,.1-.2,.18-.42,.26-.65-.06,.07-.11,.15-.17,.24,.03-.16,.15-.32,.25-.43l-.07,.2c.14-.18,.27-.35,.43-.53-.19,.22-.33,.49-.42,.72,.29-.45,.57-.86,.99-1.17l-.02,.04c.42-.62,.88-1.26,1.55-1.78,.33-.24,.15-.71,.05-.67-1.58,1.02-2.9,2.3-3.77,3.91,.15-.15,.32-.29,.48-.43,.06-.07,.13-.12,.2-.17-.07,.06-.13,.11-.2,.17-.16,.18-.29,.42-.46,.63-.05,.03-.13,.17-.07,.26-.23,.29-.31,.72-.49,1.04,0,.02-.05,.05-.09,.08-.06,.22-.11,.45-.15,.68-.22,1.27-.23,2.51-.09,3.73,0-.3,.04-.59,.1-.85,.11-.35-.05-1.08-.02-1.71-.01-.16,.1-.24,.13-.39,.18,.56-.04,1.23,.04,1.85,.06,.8,.09,2,.6,2.77,.21,.31,.26,.66,.31,.97-.11-.07-.19-.26-.23-.35-.38-.85-.6-1.76-.76-2.67,0,.98,.34,1.88,.63,2.83-.27-.53-.33-1.1-.61-1.58-.01,.05-.02,.1-.02,.15,.08,.38,.17,.76,.28,1.13,.08,.1,.16,.19,.24,.28,.72,.8,1.22,2,2.11,2.84,.07,.07,.23,.12,.39,.2-.27-.28-.51-.58-.76-.88,.08,.14,.14,.28,.19,.43-.26-.26-.35-.58-.59-.85,.15,.14,.28,.28,.4,.42-.17-.27-.26-.42-.39-.62,.37,.3,.45,.81,.91,1.04-.07-.07-.14-.15-.2-.23l.2,.23h0c.22,.22,.48,.39,.72,.53-.39-.36-.63-.79-.97-1.17-.06-.06-.11-.12-.18-.18,.08,.08,.13,.13,.18,.18,.81,.84,1.59,1.73,2.49,2.51l.1,.06v-.16c-.75-.63-1.45-1.33-2.01-2.09Z"/>
          </g>
        </g>
        <g class="cls-14">
          <g class="cls-14">
            <path class="cls-5" d="M33.53,34.54c.33-.36,.64-.7,.98-1.08,.31-.35,.58-.72,.57-1.04,.02-.3-.33-.66-.63-.99-.31-.32-.65-.6-1-.81-.16-.09-.31-.2-.48-.28,.07,.06,.13,.13,.2,.19,.37,.37,.72,.77,1.05,1.18,.16,.21,.35,.44,.41,.57,.06,.14,.04,.13,.01,.26-.06,.25-.44,.68-.8,1.1-.36,.41-.73,.81-1.1,1.19-.89,.97-1.86,1.99-3.18,2.7-.15,.08-.1,.2-.08,.26,.17,0,.32,0,.47,.03,1.04-.69,1.97-1.51,2.9-2.36,.32-.28,.5-.75,.67-.92Z"/>
            <polygon class="cls-7" points="29.91 37.84 29.94 37.84 30.1 37.74 29.91 37.84"/>
            <path class="cls-4" d="M32.28,35.95c.29-.29,.59-.57,.88-.84,.15-.23,.26-.45,.37-.57,.33-.36,.64-.7,.98-1.08,.31-.35,.58-.72,.57-1.04,.02-.3-.33-.66-.63-.99-.31-.32-.65-.6-1-.81-.16-.09-.31-.19-.47-.28,.07,.07,.14,.14,.21,.21,.5,.5,1.01,1.11,1.39,1.65l.06,.06c.19,.17,.07,.24-.06,.5-.16,.37-.59,.82-.93,1.2-.36,.39-.74,.76-1.15,1.18-.29,.29-.53,.69-.93,.98-.13,.11-.26,.2-.4,.29-.49,.43-1.03,.83-1.64,1.15-.15,.08-.1,.2-.08,.26,.09,0,.17,0,.25,0,.51-.26,.99-.57,1.47-.9,.4-.32,.78-.65,1.16-1-.02,0-.05,.01-.08,.03Z"/>
            <path class="cls-7" d="M32.44,36.06c.06-.05,.06-.17-.08-.14-.38,.34-.77,.68-1.16,1,.35-.24,.7-.48,1.24-.86Z"/>
            <path class="cls-8" d="M32.66,36.45c.83-.63,1.42-1.44,2.06-2,.33-.31,.68-.55,1.04-.9,.09-.15,.17-.32,.23-.51,.09-.29,.13-.66,.02-1.01-.1-.35-.29-.59-.44-.78-.3-.35-.61-.67-.93-.99-.65-.62-1.36-1.17-2.12-1.65-1.51-.96-3.19-1.61-4.95-1.95-1.79-.28-3.34,.03-5.06,0-1.02-.06-1.81-.33-2.77-.6-2.36-.72-4.54-.84-6.96-1.73-.64-.24-.95,.17-.79,.24,4.02,1.66,8.03,2.86,12.4,2.88,1.67,0,3.27,.04,4.74,.55,1.47,.49,2.79,1.29,3.86,2.32,.17,.08,.32,.18,.48,.28,.35,.21,.69,.49,1,.81,.3,.33,.65,.7,.63,.99,0,.32-.26,.7-.57,1.04-.34,.37-.65,.72-.98,1.08-.17,.18-.35,.65-.67,.92-.93,.86-1.86,1.67-2.9,2.36,.31,.03,.58,.09,.88,.06,.62-.48,1.2-1,1.82-1.43Z"/>
            <path class="cls-6" d="M32.66,36.45c-.62,.44-1.2,.95-1.82,1.43,.15-.01,.3-.05,.46-.11,.88-.42,1.71-1.05,2.45-1.78,.37-.36,.72-.75,1.05-1.15,.33-.41,.64-.77,.96-1.29-.35,.35-.71,.59-1.04,.9-.64,.56-1.22,1.38-2.06,2Z"/>
            <path class="cls-4" d="M32.66,36.45c-.59,.42-1.15,.9-1.74,1.37,.23-.11,.45-.24,.66-.39,1.09-.73,2.06-1.63,3.03-2.51-.95,1.03-2.02,1.95-3.17,2.78,.84-.44,1.65-1.06,2.36-1.77,.36-.36,.7-.74,1.02-1.12,.32-.4,.62-.74,.93-1.26-.35,.34-.71,.59-1.03,.9-.64,.56-1.22,1.38-2.06,2Z"/>
            <path class="cls-3" d="M34.14,34.96c-1.12,1.08-2.35,2.03-3.64,2.94,.08,0,.16,0,.25,0,.06-.03,.12-.06,.18-.09,.59-.46,1.15-.95,1.74-1.37,.83-.63,1.42-1.44,2.06-2,.33-.31,.68-.55,1.03-.9,.08-.14,.16-.3,.22-.47,.1-.29,.14-.67,.04-1.02-.1-.36-.29-.61-.45-.8-.31-.36-.62-.69-.95-1.01-.67-.63-1.39-1.19-2.17-1.68-1.42-.71-2.99-1.38-4.62-1.76,.77,.13,1.53,.33,2.28,.58-.81-.32-1.65-.56-2.51-.72-.75-.13-1.48-.14-2.18-.11-.15,.11-.38,.2-.77,.22-.61,.03-1.19-.02-1.81,.04-.08,0-.06-.1-.23-.12,.47,.06,.86,.02,1.2-.06-.42,.02-.84,.03-1.27,.02-.8-.05-1.46-.22-2.17-.42l-.24-.03c-.39-.06-.79-.08-1.2-.11,.16,.04,.32,.08,.49,.12-.27,0-.6-.08-.84-.14,.12,0,.24,.02,.36,.02-.38-.09-.74-.19-1.14-.3,.48,.14,1,.21,1.43,.24-.91-.18-1.74-.35-2.59-.7h.07c-1.27-.25-2.56-.5-3.89-1-.64-.25-.95,.17-.79,.24,2.82,1.17,5.6,2.08,8.53,2.55-.33-.13-.65-.25-.96-.37-.14-.04-.28-.09-.4-.16,.13,.05,.26,.1,.4,.16,.38,.12,.82,.18,1.23,.3,.07,.04,.33,.09,.44,0,.57,.16,1.28,.15,1.86,.27,.04,0,.09,.03,.16,.07,.37,.02,.75,.03,1.12,.03,1.05,0,2.06,0,3.03,.15,.97,.15,1.91,.43,2.77,.83-.4-.24-.8-.44-1.18-.65-.5-.31-1.73-.43-2.75-.44-.26,0-.41-.1-.66-.11,.91-.23,2.07,.05,3.07,.29,1.37,.29,3,1.32,4.27,2.07,.54,.31,.91,.78,1.18,1.2-.17-.08-.4-.32-.53-.43-1.1-1.03-2.41-1.85-3.86-2.35,1.43,.66,2.78,1.42,3.83,2.58-.68-.6-1.33-1.24-2.14-1.55,.06,.06,.11,.12,.15,.17,.5,.33,.96,.7,1.38,1.11,.16,.08,.31,.18,.47,.28,.35,.21,.69,.49,1,.81,.3,.33,.65,.7,.63,.99,0,.32-.26,.7-.57,1.04-.34,.37-.65,.72-.98,1.08-.11,.11-.22,.34-.37,.57,.46-.43,.91-.85,1.32-1.34-.19,.17-.38,.33-.58,.44,.37-.45,.83-.73,1.09-1.2-.11,.27-.31,.51-.51,.75,.28-.26,.55-.55,.72-.88-.09,.36-.37,.63-.63,.89-.26,.27-.53,.53-.74,.87,.11-.12,.23-.24,.35-.35l-.35,.36h0c-.35,.36-.67,.76-.98,1.11,.65-.59,1.3-1.07,1.86-1.74,.09-.11,.17-.23,.26-.34-.08,.12-.17,.23-.26,.34-1.25,1.56-2.9,2.76-4.61,3.71l-.16,.11,.2,.02c1.43-.81,2.79-1.8,4-2.9Z"/>
          </g>
        </g>
        <g class="cls-14">
          <g class="cls-14">
            <path class="cls-5" d="M20.27,53.09c-.94-1.92-1.35-4.13-1.92-5.88-.05-.19-.11-.39-.17-.6l.02,.32c.13,2.43,1.02,4.95,2.14,7.08,.74,1.31,1.65,2.52,2.42,3.95,.08,.16,.21,.12,.27,.1,0-.18,0-.34,.01-.5-.71-1.12-1.45-2.22-2.06-3.45-.19-.41-.59-.77-.7-1.02Z"/>
            <polygon class="cls-7" points="23.05 57.61 23.05 57.58 22.94 57.41 23.05 57.61"/>
            <path class="cls-4" d="M21.33,54.85c-.24-.38-.44-.77-.62-1.16-.18-.23-.36-.44-.43-.6-.94-1.92-1.35-4.13-1.92-5.88-.05-.19-.11-.39-.17-.6,0,.11,.01,.23,.02,.34,.06,.83,.18,1.69,.39,2.53l.06,.13c.22,.44,.25,.9,.41,1.34,.51,1.22,.88,2.25,1.51,3.39,.23,.41,.58,.77,.82,1.26,.09,.16,.17,.33,.24,.48,.39,.6,.78,1.22,1.14,1.89,.08,.16,.21,.12,.27,.1,0-.09,0-.18,0-.27-.31-.58-.58-1.08-.88-1.64-.29-.46-.57-.93-.84-1.42,0,.03,0,.06,.01,.09Z"/>
            <path class="cls-7" d="M21.47,54.71c-.03-.07-.16-.11-.16,.04,.27,.49,.55,.96,.84,1.42-.25-.47-.48-.95-.68-1.46Z"/>
            <path class="cls-8" d="M21.9,54.59c-.44-.97-1.03-1.82-1.26-2.68-.13-.44-.21-.89-.23-1.3-.05-.14-.1-.27-.15-.4-1.15-3.2-2.05-7.37,1.05-9.33,.66-.55,1.34-1.1,1.99-1.72,.63-.63,1.3-1.3,1.73-2.23,.58-1.05,.53-2.33-.18-3.33-.43-.64-1-1.09-1.6-1.43-.59-.33-1.22-.56-1.86-.71-1.29-.3-2.62-.3-3.97-.1-.74,.12-.74,.66-.56,.63,2.13-.45,4.39,.04,6.16,1.18,.86,.56,1.62,1.4,1.66,2.33,.04,.93-.68,1.81-1.48,2.56-1.25,1.19-2.78,2.09-3.86,3.52-.54,.7-.92,1.57-1.05,2.45-.15,.88-.13,1.73-.1,2.59,.06,.21,.12,.42,.17,.6,.57,1.75,.98,3.96,1.92,5.88,.11,.25,.51,.61,.7,1.02,.61,1.23,1.35,2.33,2.06,3.45,.03-.32,.09-.6,.08-.91-.46-.67-.9-1.35-1.21-2.07Z"/>
            <path class="cls-6" d="M21.9,54.59c.31,.72,.75,1.4,1.21,2.07,0-.15-.03-.3-.08-.47-.7-1.85-1.89-3.7-2.61-5.57,.01,.41,.1,.86,.23,1.3,.23,.85,.82,1.7,1.26,2.68Z"/>
            <path class="cls-4" d="M21.9,54.59c.29,.69,.71,1.34,1.15,1.97-.1-.24-.21-.48-.33-.71-.62-1.19-1.27-2.38-1.68-3.64,.56,1.3,1.22,2.56,1.93,3.81-.72-1.79-1.85-3.59-2.55-5.41,.01,.41,.1,.86,.23,1.3,.23,.85,.82,1.7,1.26,2.68Z"/>
            <path class="cls-3" d="M20.88,52.67c.6,1.49,1.34,2.94,2.23,4.34,0-.08,.01-.17,.01-.25-.03-.07-.05-.13-.08-.19-.44-.64-.85-1.29-1.15-1.97-.44-.97-1.03-1.82-1.26-2.68-.13-.44-.21-.89-.23-1.3-.05-.13-.1-.25-.14-.38-.64-1.69-1.06-3.47-1.08-5.24-.08-.76-.02-1.55,.32-2.23,.33-.69,.9-1.28,1.53-1.78-.56,.51-1.05,1.07-1.35,1.7,.36-.69,.95-1.26,1.6-1.79,.56-.47,1.13-.93,1.69-1.44,.05-.19,.17-.42,.47-.71,.46-.46,.96-.91,1.26-1.55,.05-.08,.12,0,.23-.17-.29,.46-.53,.82-.73,1.17,.3-.36,.59-.77,.8-1.23,.45-.82,.56-1.78,.21-2.65-.05-.09-.1-.17-.15-.25-.26-.41-.63-.73-1.02-.99,.14,.13,.27,.26,.4,.41-.42-.35-.56-.46-.75-.62,.12,.06,.23,.14,.35,.21-.33-.3-.68-.55-1.08-.78,.49,.28,1,.59,1.4,.91-.81-.75-1.69-1.15-2.61-1.62h.08c-1.42-.41-2.89-.43-4.4-.21-.74,.12-.74,.65-.57,.63,1.49-.31,3.04-.16,4.44,.35,1.36,.51,2.78,1.35,3.25,2.63-.03-.3-.13-.62-.3-.93-.06-.09-.13-.21-.23-.37,.08,.12,.16,.24,.23,.37,.21,.33,.44,.72,.46,1.13-.01,.08,.01,.3,.1,.4-.05,.54-.3,1.2-.73,1.61-.02,.03-.08,.05-.15,.08-.23,.28-.5,.55-.78,.82-.78,.74-1.67,1.38-2.49,2.1-.82,.71-1.61,1.53-2.04,2.59,.24-.49,.58-.9,.92-1.21,.46-.43,1.33-1.4,2.18-2.1,.2-.19,.39-.21,.61-.38-.58,.8-1.7,1.39-2.39,2.25-.47,.55-.98,1.27-1.22,2.15-.23,.87-.21,1.8-.05,2.58,.13,.64,.12,1.25,.11,1.79-.09-.18-.15-.54-.18-.72-.15-1.6-.33-3.35,.49-4.87-.49,.73-.68,1.62-.72,2.47-.04,.86,.02,1.7,.07,2.57-.16-1.02-.1-2-.17-2.98-.03,.08-.06,.16-.08,.25-.06,.69-.05,1.36-.03,2.04,.06,.21,.12,.41,.17,.6,.57,1.75,.98,3.96,1.92,5.88,.07,.16,.25,.37,.43,.6-.29-.62-.53-1.25-.78-1.88,.07,.27,.14,.52,.17,.77-.27-.59-.34-1.12-.58-1.72,.14,.32,.28,.63,.41,.95-.14-.48-.25-.82-.37-1.23,.37,.75,.43,1.56,.92,2.27-.08-.16-.14-.33-.2-.49l.21,.5h0c.23,.49,.52,.95,.79,1.36-.42-.84-.66-1.66-1.01-2.5-.06-.14-.12-.27-.18-.42,.07,.16,.13,.29,.18,.42,.85,1.91,1.72,3.83,2.69,5.69l.11,.17,.02-.21c-.82-1.53-1.6-3.12-2.19-4.7Z"/>
          </g>
        </g>
        <g class="cls-14">
          <g class="cls-14">
            <path class="cls-5" d="M51.99,68.59c-1.92,.05-3.91-.35-5.54-.18-.17,.02-.36,.03-.56,.05l.28,.05c2.1,.37,4.42,.51,6.6,.41,1.35-.11,2.7-.38,4.18-.46,.16,0,.18-.13,.18-.2-.15-.07-.28-.15-.4-.23-1.19,.16-2.38,.32-3.62,.35-.41,0-.86,.21-1.11,.21Z"/>
            <polygon class="cls-7" points="56.77 68.04 56.74 68.03 56.56 68.05 56.77 68.04"/>
            <path class="cls-4" d="M53.83,68.38c-.4,.05-.8,.06-1.19,.06-.26,.06-.5,.15-.65,.14-1.92,.05-3.91-.35-5.54-.18-.17,.02-.36,.03-.55,.05,.1,.02,.2,.03,.3,.05,.73,.13,1.48,.22,2.25,.3h.12c.43-.08,.82,.05,1.24,.07,1.18-.03,2.16,.06,3.33-.02,.42-.03,.85-.19,1.35-.19,.17,0,.33-.01,.49-.01,.65-.08,1.31-.16,2-.2,.16,0,.18-.13,.18-.2-.08-.04-.15-.08-.22-.12-.6,.03-1.12,.05-1.68,.08-.49,.06-.99,.11-1.49,.14,.02,.01,.05,.02,.08,.03Z"/>
            <path class="cls-7" d="M53.78,68.19c-.07,0-.15,.09-.02,.16,.5-.03,1-.08,1.49-.14-.48,.02-.96,.02-1.46-.02Z"/>
            <path class="cls-8" d="M53.84,67.75c-.97-.02-1.9,.14-2.69,.02-.42-.05-.83-.16-1.18-.29-.13,0-.27,0-.4,0-3.27-.01-6.55-.33-9.69-1.07-1.58-.34-3.1-.45-4.73-.74-.96-.23-1.67-.61-2.52-1.03-1.06-.54-2.06-.94-3.07-1.41-.99-.47-2.01-1-2.91-1.85-.47-.46-.92-.21-.81-.08,1.47,1.59,3.22,2.74,5.08,3.61,1.86,.87,3.82,1.46,5.86,1.86,3.16,.63,6.14,1.16,9.11,1.69,.2-.02,.38-.03,.56-.05,1.64-.17,3.63,.23,5.54,.18,.25,0,.7-.21,1.11-.21,1.24-.04,2.43-.19,3.62-.35-.25-.17-.46-.34-.71-.46-.72,.12-1.45,.22-2.16,.18Z"/>
            <path class="cls-6" d="M53.84,67.75c.71,.04,1.44-.06,2.16-.18-.12-.06-.26-.1-.42-.13-1.78-.18-3.77,.06-5.62,.04,.36,.13,.76,.24,1.18,.29,.8,.12,1.72-.04,2.69-.02Z"/>
            <path class="cls-4" d="M53.84,67.75c.68,.04,1.37-.06,2.06-.16-.24-.01-.47-.02-.71-.01-1.22,.03-2.45,.09-3.64-.04,1.29,.01,2.59,0,3.88-.11-1.74-.15-3.66,.08-5.46,.06,.35,.13,.76,.24,1.18,.29,.8,.12,1.72-.04,2.69-.02Z"/>
            <path class="cls-3" d="M51.87,67.86c1.46,.07,2.94,.06,4.42-.14-.07-.04-.13-.08-.2-.12-.07,0-.13,0-.19-.01-.69,.11-1.38,.2-2.06,.16-.97-.02-1.9,.14-2.69,.02-.42-.05-.82-.16-1.18-.29-.13,0-.25,0-.37,0-1.67,0-3.34-.09-5-.27-1.46,0-3.02-.27-4.49-.65,.7,.14,1.41,.24,2.12,.33-.78-.13-1.56-.28-2.33-.47-.67-.14-1.33-.25-1.99-.34-.16,.08-.39,.13-.76,.08-.58-.08-1.12-.23-1.72-.28-.08-.02-.04-.11-.19-.16,.44,.13,.81,.16,1.15,.14-.4-.05-.8-.12-1.21-.19-.75-.17-1.35-.46-1.99-.76l-.22-.07c-.36-.11-.74-.21-1.12-.3,.14,.06,.29,.13,.44,.19-.25-.04-.55-.17-.77-.28,.11,.03,.22,.06,.33,.09-.34-.16-.67-.31-1.01-.5,.43,.23,.9,.38,1.3,.48-.82-.33-1.58-.64-2.28-1.15l.07,.02c-1.11-.51-2.24-1.07-3.25-2-.47-.46-.92-.21-.81-.08,2.07,2.22,4.65,3.58,7.34,4.51-.29-.18-.57-.35-.85-.52-.13-.06-.24-.14-.35-.22,.11,.07,.23,.15,.35,.22,.34,.18,.75,.31,1.12,.49,.06,.06,.3,.14,.42,.08,.52,.24,1.19,.36,1.72,.57,.03,0,.08,.05,.14,.1,.35,.07,.69,.15,1.06,.23,1.98,.39,3.88,.75,5.76,1.09-.45-.13-.87-.25-1.26-.41-.52-.23-1.7-.3-2.68-.47-.25-.03-.38-.15-.62-.21,.9-.08,1.96,.32,2.95,.45,1.3,.19,3.11,.68,4.55,.63,.59-.03,1.14,.13,1.6,.27-.18,.05-.51,.01-.67,0-1.47-.16-2.93-.36-4.4-.56,1.51,.36,3,.48,4.52,.76-.91-.07-1.77-.3-2.63-.27,.08,.03,.14,.06,.21,.09,.56,.1,1.14,.2,1.76,.31,.19-.02,.38-.03,.55-.05,1.64-.17,3.63,.23,5.54,.18,.16,0,.4-.08,.65-.14-.62,0-1.22-.05-1.84-.05,.25,.03,.48,.08,.7,.15-.58,.02-1.05-.13-1.63-.13,.31-.02,.62-.02,.93-.02-.37-.05-.76-.08-1.15-.12,.76-.08,1.45,.2,2.21,.03-.16,0-.32,0-.48-.02l.49,.02h0c.49,0,.98-.07,1.43-.14-.85,.02-1.61-.11-2.44-.11-.13,0-.27,0-.41,0,.16,0,.28,0,.41,0,1.9-.03,3.81,.07,5.71,0l.18-.02-.17-.11c-1.57,.08-3.17,.06-4.71-.06Z"/>
          </g>
        </g>
        <g class="cls-14">
          <g class="cls-14">
            <path class="cls-5" d="M128.67,60.36c-2.86,.23-5.82-.3-8.25-.48-.26-.02-.54-.05-.83-.08l.41,.11c3.08,.85,6.61,1.07,9.84,.69,2-.28,3.97-.85,6.11-1.4,.24-.06,.24-.19,.23-.26-.23-.02-.43-.05-.62-.09-1.7,.52-3.44,.97-5.27,1.17-.61,.05-1.26,.32-1.63,.33Z"/>
            <polygon class="cls-7" points="135.64 58.86 135.61 58.85 135.35 58.93 135.64 58.86"/>
            <path class="cls-4" d="M131.39,59.91c-.59,.12-1.17,.19-1.76,.24-.38,.09-.73,.2-.96,.21-2.86,.23-5.82-.3-8.25-.48-.26-.02-.53-.05-.82-.08l.44,.12c1.07,.29,2.19,.51,3.33,.65h.19c.65-.03,1.23,.11,1.85,.15,1.76,0,3.23,.02,4.98-.22,.62-.09,1.26-.32,1.98-.43,.25-.04,.47-.08,.72-.12,1.03-.27,1.93-.5,2.9-.75,.24-.06,.24-.19,.23-.26-.12-.01-.23-.03-.34-.04-.8,.2-1.61,.4-2.44,.55-.71,.17-1.44,.33-2.17,.44,.03,0,.07,.01,.12,.01Z"/>
            <path class="cls-7" d="M131.3,59.73c-.1,.01-.22,.12-.02,.16,.74-.11,1.46-.27,2.17-.44-.7,.13-1.41,.24-2.15,.28Z"/>
            <path class="cls-8" d="M131.35,59.28c-1.42,.15-2.78,.4-3.96,.32-.62-.04-1.22-.13-1.75-.28-.2,0-.39-.01-.58-.02-2.4-.06-4.79-.41-7.07-1.1-2.29-.69-4.4-1.79-6.33-3.18-1.96-1.35-3.86-2.59-6.02-3.85-1.26-.78-2.2-1.53-3.51-2.23-1.63-.87-3.36-1.31-5.11-1.36-1.74-.05-3.52,.29-5.17,1.13-.88,.49-.7,1-.5,.88,1.23-.78,2.66-1.18,4.11-1.23,1.45-.05,2.9,.2,4.29,.64,2.8,.86,5.24,2.57,7.75,4.29,1.95,1.35,3.82,2.73,5.81,3.87,2,1.14,4.11,1.99,6.28,2.62,.29,.03,.57,.05,.83,.08,2.43,.18,5.39,.71,8.25,.48,.37-.01,1.02-.28,1.63-.33,1.83-.2,3.57-.65,5.27-1.17-.39-.09-.72-.2-1.1-.25-1.03,.32-2.08,.58-3.12,.67Z"/>
            <path class="cls-6" d="M131.35,59.28c1.04-.09,2.09-.35,3.12-.67-.19-.03-.39-.03-.62-.02-2.59,.29-5.48,.78-8.2,.73,.52,.14,1.13,.23,1.75,.28,1.18,.09,2.54-.17,3.96-.32Z"/>
            <path class="cls-4" d="M131.35,59.28c.99-.08,2-.33,2.98-.63-.39,.06-.72,.12-1.03,.17-1.76,.32-3.56,.57-5.33,.51,1.9-.07,3.79-.3,5.66-.72-2.53,.3-5.33,.76-7.97,.71,.52,.14,1.12,.23,1.74,.27,1.18,.09,2.54-.17,3.96-.32Z"/>
            <path class="cls-3" d="M128.46,59.64c2.16-.05,4.33-.33,6.45-.96-.1-.02-.2-.04-.31-.06-.09,.01-.18,.03-.27,.04-.98,.3-1.98,.54-2.98,.63-1.42,.15-2.78,.4-3.96,.32-.62-.04-1.22-.13-1.74-.27-.18,0-.37-.01-.55-.02-2.45-.06-4.9-.41-7.22-1.14-2.08-.47-4.16-1.53-5.97-2.86,.88,.58,1.79,1.1,2.74,1.55-1.03-.52-2.01-1.14-2.96-1.81-.83-.57-1.65-1.12-2.48-1.66-.23-.02-.55-.13-1.02-.43-.73-.47-1.41-.98-2.21-1.38-.1-.07-.03-.13-.23-.27,.56,.39,1.05,.66,1.51,.86-.53-.32-1.06-.64-1.58-.95-.99-.62-1.78-1.21-2.71-1.78l-.32-.15c-.53-.24-1.1-.44-1.67-.59,.22,.08,.45,.18,.68,.29-.37-.11-.84-.28-1.18-.42,.17,.04,.34,.09,.5,.13-.53-.21-1.05-.4-1.64-.56,.65,.19,1.35,.39,2.06,.59-1.28-.5-2.51-.81-3.84-1.09h.11c-1.93-.16-3.92,.14-5.76,1.08-.88,.49-.71,1-.5,.88,1.71-1.11,3.84-1.38,5.84-1.13,2.02,.25,3.95,.98,5.75,1.95-.37-.28-.76-.55-1.16-.81-.18-.1-.36-.2-.51-.3,.17,.1,.34,.2,.51,.3,.49,.27,1.04,.54,1.54,.89,.08,.09,.39,.27,.56,.26,.67,.49,1.53,.97,2.17,1.5,.04,.03,.09,.1,.15,.18,.43,.29,.86,.59,1.31,.89,2.44,1.69,4.75,3.42,7.33,4.67-.6-.34-1.16-.7-1.64-1.07-.65-.51-2.19-1.33-3.41-2.17-.32-.2-.44-.4-.73-.62,1.19,.54,2.44,1.64,3.73,2.36,1.67,1,4.15,2.27,6.27,2.59,.87,.14,1.65,.4,2.33,.62-.27,.02-.75-.08-.98-.13-2.15-.47-4.23-1.18-6.22-2.15,2,1.15,4.16,1.78,6.38,2.38-1.34-.25-2.57-.74-3.81-1.03,.1,.06,.2,.12,.29,.17,.84,.32,1.69,.6,2.54,.85,.28,.03,.56,.05,.82,.08,2.43,.18,5.39,.71,8.25,.48,.23,0,.58-.12,.96-.21-.91,.07-1.82,.07-2.74,.08,.37,.03,.72,.06,1.05,.12-.87,.05-1.57-.09-2.43-.1,.52,0,.95-.01,1.38-.02-.63-.05-1.14-.08-1.71-.12,1.12-.06,2.15,.2,3.29-.02-.24,.02-.48,.02-.72,.02l.73-.02s0,0-.01,0c.73-.04,1.46-.17,2.1-.3-1.25,.15-2.39,.08-3.62,.11-.2,0-.4,.01-.61,.02,.22,0,.41-.01,.61-.02,2.81-.08,5.64-.31,8.39-.96l.26-.08-.26-.06c-2.26,.55-4.62,.85-6.89,.85Z"/>
          </g>
        </g>
        <g class="cls-14">
          <g class="cls-14">
            <path class="cls-5" d="M163.98,43.24c-.38,1.32-1.01,2.64-1.54,3.82-.06,.13-.13,.27-.2,.4l.16-.16c.62-.61,1.05-1.42,1.35-2.2,.3-.79,.51-1.54,.72-2.29,.2-.95,.29-1.95,.64-2.95,.04-.11-.08-.16-.13-.19-.11,.08-.22,.14-.33,.19-.19,.85-.35,1.71-.61,2.56-.1,.28,0,.65-.05,.82Z"/>
            <polygon class="cls-7" points="164.67 39.83 164.65 39.84 164.62 39.97 164.67 39.83"/>
            <path class="cls-4" d="M164.22,41.92c-.05,.29-.13,.56-.22,.83,0,.19,.03,.38,0,.49-.38,1.32-1.01,2.64-1.54,3.82-.06,.13-.13,.26-.2,.39,.06-.06,.12-.11,.18-.17,.43-.42,.77-.95,1.03-1.48l.02-.1c.05-.34,.24-.58,.35-.87,.2-.84,.49-1.47,.68-2.3,.07-.29,.02-.64,.14-.97,.03-.12,.07-.23,.12-.33,.09-.46,.19-.93,.36-1.4,.04-.11-.08-.16-.13-.19-.06,.04-.11,.07-.17,.11-.14,.38-.26,.76-.39,1.15-.08,.35-.16,.7-.25,1.05,.02-.01,.03-.03,.05-.04Z"/>
            <path class="cls-7" d="M164.02,41.89s.05,.14,.15,.07c.09-.35,.17-.7,.25-1.05-.11,.33-.23,.66-.4,.98Z"/>
            <path class="cls-8" d="M163.62,41.71c-.27,.66-.31,1.35-.59,1.87-.14,.28-.32,.53-.51,.74-.03,.09-.06,.18-.08,.27-.31,1.12-.78,2.04-1.66,2.72-.85,.69-1.93,1.17-3.01,1.65-1.07,.51-1.94,1.2-2.95,1.89-.62,.36-1.2,.5-1.86,.75-1.67,.58-2.77,1.75-4.27,2.73-.41,.26-.23,.74-.12,.69,2.56-1.57,5.18-2.67,7.76-4.18,1.01-.58,2-1.1,3-1.58,1-.49,2.03-.98,2.92-1.79,.07-.13,.14-.26,.2-.4,.54-1.18,1.16-2.5,1.54-3.82,.06-.17-.04-.54,.05-.82,.26-.85,.42-1.71,.61-2.56-.23,.11-.45,.19-.63,.32-.09,.53-.19,1.06-.4,1.53Z"/>
            <path class="cls-6" d="M163.62,41.71c.21-.47,.31-1,.4-1.53-.09,.06-.17,.14-.24,.24-.66,1.15-.9,2.62-1.26,3.9,.2-.2,.37-.46,.51-.74,.28-.52,.33-1.21,.59-1.87Z"/>
            <path class="cls-4" d="M163.62,41.71c.2-.45,.3-.95,.38-1.46-.08,.15-.15,.31-.2,.48-.3,.84-.53,1.7-.92,2.5,.29-.9,.58-1.8,.83-2.71-.61,1.13-.85,2.55-1.2,3.8,.2-.2,.37-.46,.51-.74,.28-.52,.33-1.21,.59-1.87Z"/>
            <path class="cls-3" d="M163.26,43.1c.38-.99,.74-2,.97-3.07-.06,.03-.12,.06-.17,.09-.02,.04-.04,.08-.06,.12-.09,.5-.18,1-.38,1.46-.27,.66-.31,1.35-.59,1.87-.14,.27-.32,.53-.51,.74-.03,.09-.05,.17-.08,.25-.31,1.14-.8,2.09-1.71,2.77-.67,.74-1.73,1.21-2.76,1.63,.46-.24,.93-.48,1.36-.75-.5,.26-1.03,.5-1.56,.73-.45,.22-.87,.46-1.28,.73-.03,.15-.13,.31-.35,.46-.35,.24-.73,.42-1.06,.71-.05,.03-.09-.06-.19-.01,.3-.14,.51-.32,.67-.52-.25,.17-.5,.35-.74,.52-.49,.29-.95,.43-1.45,.6-.05,.03-.1,.06-.14,.09-.24,.14-.47,.32-.69,.5,.1-.05,.21-.1,.32-.15-.14,.14-.35,.24-.51,.31l.19-.16c-.25,.12-.49,.23-.75,.36,.32-.15,.62-.36,.87-.55-.58,.31-1.09,.62-1.7,.84l.04-.04c-.75,.53-1.47,1.13-2.3,1.67-.41,.26-.23,.74-.12,.69,1.79-1.09,3.6-1.96,5.42-2.9-.24,.05-.48,.1-.71,.14-.1,.03-.2,.06-.29,.07,.09-.02,.19-.04,.29-.07,.26-.09,.53-.24,.82-.32,.06,0,.23-.07,.25-.19,.4-.12,.79-.41,1.19-.53,.02-.01,.07,0,.13,0,.22-.12,.44-.25,.67-.38,1.26-.74,2.5-1.34,3.75-1.96-.32,.12-.64,.21-.94,.27-.42,.06-1.11,.56-1.73,.93-.15,.11-.29,.07-.45,.14,.44-.52,1.24-.73,1.86-1.09,.82-.45,2.16-.91,2.78-1.8,.24-.35,.57-.6,.85-.84-.02,.14-.16,.34-.25,.43-.71,.86-1.66,1.42-2.59,1.96,1.05-.43,1.96-1.07,2.8-1.93-.42,.58-1.03,.91-1.46,1.38,.06-.01,.11-.02,.17-.04,.38-.24,.76-.51,1.12-.83,.07-.13,.14-.26,.2-.39,.54-1.18,1.16-2.5,1.54-3.82,.04-.11,.01-.3,0-.49-.14,.42-.31,.83-.45,1.25,.08-.16,.18-.31,.29-.44-.11,.4-.34,.69-.46,1.09,.04-.23,.1-.44,.17-.65-.12,.24-.23,.51-.34,.77,.07-.55,.47-.95,.48-1.53-.03,.11-.07,.22-.12,.33l.12-.34h0c.1-.33,.15-.69,.19-1.02-.18,.59-.47,1.08-.64,1.65-.02,.09-.05,.19-.07,.29,.02-.1,.05-.19,.07-.29,.36-1.33,.92-2.6,1.39-3.9l.03-.13-.15,.07c-.38,1.08-.8,2.16-1.24,3.19Z"/>
          </g>
        </g>
        <g class="cls-14">
          <g class="cls-14">
            <path class="cls-5" d="M96.88,56.06c-1.29-.23-2.63-.71-3.78-.51-.12,.02-.25,.04-.38,.07l.19,.04c1.43,.31,2.97,.59,4.42,.84,.91,.11,1.87,.13,2.83,.46,.11,.04,.16-.08,.19-.14-.07-.11-.13-.21-.18-.32-.82-.18-1.66-.28-2.49-.47-.28-.07-.63,.08-.79,.03Z"/>
            <polygon class="cls-7" points="100.19 56.52 100.18 56.5 100.06 56.47 100.19 56.52"/>
            <path class="cls-4" d="M98.17,56.16c-.28-.03-.55-.09-.81-.15-.19,.02-.37,.07-.47,.04-1.29-.23-2.63-.71-3.78-.51-.12,.02-.25,.04-.38,.06,.07,.01,.13,.03,.2,.04,.57,.12,1.07,.22,1.51,.31h.09c.3-.06,.55,.09,.83,.15,.8,.05,1.43,.28,2.23,.38,.28,.05,.61-.02,.93,.07,.11,.02,.22,.06,.32,.09,.44,.06,.89,.16,1.34,.31,.11,.04,.16-.08,.19-.14-.04-.06-.07-.11-.1-.17-.36-.13-.74-.24-1.12-.36-.37-.06-.72-.13-1.03-.18,.01,.01,.03,.03,.05,.04Z"/>
            <path class="cls-7" d="M98.18,55.97s-.13,.06-.06,.15c.3,.05,.65,.11,1.03,.18-.32-.1-.64-.19-.97-.33Z"/>
            <path class="cls-8" d="M98.33,55.55c-.66-.23-1.34-.18-1.87-.41-.28-.11-.56-.24-.79-.4-.1-.01-.19-.03-.28-.04-2.35-.27-4.68-.34-7.01-.4-1.17,0-2.23,.32-3.38,.61-.69,.14-1.27,.07-1.96,.12-1.75,.07-3.08,.97-4.66,1.68-.43,.19-.32,.69-.21,.65,2.65-1.14,5.37-1.5,8.19-1.93,2.21-.31,4.33-.24,6.36,.18,.14-.02,.27-.05,.38-.07,1.15-.2,2.49,.28,3.78,.51,.16,.04,.51-.1,.79-.03,.84,.19,1.67,.29,2.49,.47-.11-.22-.19-.44-.32-.62-.52-.08-1.04-.14-1.51-.32Z"/>
            <path class="cls-6" d="M98.33,55.55c.48,.17,1,.24,1.51,.32-.06-.09-.14-.17-.24-.23-1.16-.62-2.63-.74-3.94-.9,.24,.16,.51,.3,.79,.4,.53,.23,1.22,.18,1.87,.41Z"/>
            <path class="cls-4" d="M98.33,55.55c.45,.17,.95,.23,1.44,.31-.15-.07-.31-.14-.47-.19-.84-.25-1.7-.43-2.52-.71,.91,.18,1.82,.41,2.73,.62-1.15-.56-2.56-.69-3.84-.84,.24,.16,.51,.3,.79,.4,.53,.23,1.22,.18,1.87,.41Z"/>
            <path class="cls-3" d="M96.95,55.32c1.01,.27,2,.55,3.05,.76-.03-.06-.06-.11-.1-.17-.04-.02-.08-.04-.12-.06-.49-.08-.99-.14-1.44-.31-.66-.23-1.34-.18-1.87-.41-.28-.11-.56-.24-.79-.4-.09-.01-.18-.03-.27-.04-1.2-.14-2.39-.22-3.59-.28-1.04,.11-2.16,.04-3.26-.02,.5-.01,.99-.03,1.54-.05-.57-.02-1.14-.04-1.71-.05-.49,0-.97,.05-1.44,.14-.09,.12-.23,.24-.49,.29-.41,.08-.81,.12-1.21,.28-.06,0-.06-.09-.17-.08,.32-.03,.58-.12,.8-.25-.29,.07-.58,.15-.85,.22-.54,.1-1.01,.1-1.53,.1-.06,.01-.11,.03-.16,.04-.27,.07-.53,.17-.79,.29,.11-.02,.22-.04,.34-.05-.17,.09-.4,.13-.57,.16,.08-.03,.15-.07,.23-.1-.27,.04-.52,.08-.8,.14,.34-.08,.68-.18,.96-.3-.63,.12-1.19,.31-1.82,.37l.04-.03c-.84,.34-1.64,.78-2.52,1.18-.43,.19-.32,.68-.21,.65,1.84-.8,3.74-1.21,5.66-1.53-.23-.04-.46-.06-.69-.08-.1,0-.2,0-.29-.02,.09,0,.19,.01,.29,.02,.27-.01,.55-.07,.85-.06,.06,.02,.23,0,.28-.1,.4,.01,.85-.13,1.25-.09,.02,0,.07,.02,.11,.05,.24-.04,.48-.08,.74-.12,1.38-.18,2.73-.24,4.04-.14-.32-.06-.62-.13-.91-.22-.39-.15-1.21,.02-1.89,.09-.17,.04-.28-.05-.45-.05,.59-.32,1.39-.15,2.08-.21,.93-.04,2.21,.22,3.22,.12,.42-.04,.8,.09,1.12,.23-.13,.04-.35,.02-.47,0-1.02-.13-2.05-.22-3.08-.2,1.07,.13,2.11,.14,3.15,.4-.62-.04-1.22-.25-1.82-.13,.05,.03,.1,.05,.15,.07,.41,.05,.81,.12,1.21,.21,.14-.02,.26-.04,.38-.06,1.15-.2,2.49,.28,3.78,.51,.1,.03,.28-.02,.47-.04-.42-.09-.82-.22-1.24-.3,.16,.05,.32,.14,.45,.23-.39-.07-.69-.25-1.09-.3,.22,0,.43,.03,.64,.07-.25-.09-.51-.15-.77-.22,.54-.02,.97,.31,1.52,.27-.11-.02-.22-.05-.33-.08l.33,.08h0c.34,.07,.69,.07,1,.09-.58-.12-1.08-.36-1.66-.46-.09-.01-.19-.02-.29-.03,.1,0,.19,.02,.29,.03,1.33,.2,2.61,.63,3.86,1.09l.12,.03-.07-.15c-1.05-.35-2.12-.71-3.17-1.03Z"/>
          </g>
        </g>
      </g>
    </g>
  </g>
</svg>