<?xml version="1.0" encoding="UTF-8"?>
<svg id="_Слой_2" data-name="Слой 2" xmlns="http://www.w3.org/2000/svg" xmlns:xlink="http://www.w3.org/1999/xlink" viewBox="0 0 168.5 71.84">
  <defs>
    <style>
      .cls-1 {
        fill: none;
      }

      .cls-2 {
        clip-path: url(#clippath);
      }

      .cls-3 {
        fill: #f3f9fb;
      }

      .cls-4 {
        fill: #f7fbfc;
      }

      .cls-5 {
        fill: #f8fcfd;
      }

      .cls-6 {
        fill: #f4fafb;
      }

      .cls-7 {
        fill: #f5fafb;
      }

      .cls-8 {
        fill: #fbfdfe;
      }

      .cls-9 {
        fill: #232220;
      }

      .cls-10 {
        fill: #42413c;
      }

      .cls-11 {
        fill: #6e7c6e;
      }

      .cls-12 {
        fill: #353430;
      }

      .cls-13 {
        opacity: .49;
      }

      .cls-14 {
        opacity: .8;
      }
    </style>
    <clipPath id="clippath">
      <rect class="cls-1" width="168.5" height="71.84"/>
    </clipPath>
  </defs>
  <g id="_насекомые" data-name="насекомые">
    <g class="cls-2">
      <g>
        <g class="cls-14">
          <g class="cls-14">
            <path class="cls-5" d="M27.87,13.96c-.55,.07-1.14-.21-1.63,.08-.05,.03-.11,.06-.17,.09l.08,.03c.64,.21,1.34,.23,1.95,.13,.38-.11,.75-.34,1.16-.3,.05,0,.05-.12,.06-.18-.04-.08-.07-.17-.11-.26-.35,.07-.68,.19-1.04,.21-.12,0-.24,.21-.31,.21Z"/>
            <polygon class="cls-7" points="29.23 13.56 29.23 13.54 29.17 13.55 29.23 13.56"/>
            <path class="cls-4" d="M28.39,13.76c-.11,.04-.23,.05-.34,.05-.07,.06-.14,.15-.18,.15-.55,.07-1.14-.21-1.63,.08-.05,.03-.11,.06-.17,.09l.09,.03c.22,.07,.45,.12,.68,.15l.04-.02c.13-.09,.25,.02,.37,.02,.34-.08,.63,0,.96-.08,.12-.03,.24-.18,.38-.17,.05,0,.09,0,.14,0,.18-.06,.37-.1,.56-.08,.05,0,.05-.12,.06-.18-.02-.04-.04-.09-.06-.13-.16-.03-.32-.02-.48-.03-.14,.03-.28,.07-.43,.09,0,.01,.01,.02,.02,.03Z"/>
            <path class="cls-7" d="M28.37,13.57s-.04,.09,0,.16c.14-.02,.28-.05,.43-.09-.14,0-.28-.02-.42-.07Z"/>
            <path class="cls-8" d="M28.37,13.13c-.29-.05-.55,.13-.79,.03-.12-.05-.25-.13-.35-.25-.04,0-.08,0-.11,0-.91,.14-1.85,.13-2.59-.28-.36-.17-.78-.14-1.22-.3-.22-.14-.26-.4-.32-.63-.06-.31-.22-.49-.42-.71-.19-.22-.4-.51-.42-.87,0-.18-.48-.35-.5-.3-.08,.74,.05,1.41,.34,2,.29,.58,.77,1.1,1.37,1.37,.93,.42,1.8,.64,2.7,.93,.06-.03,.12-.06,.17-.09,.49-.29,1.08,0,1.63-.08,.07,0,.19-.21,.31-.21,.36-.02,.69-.14,1.04-.21-.07-.19-.13-.37-.2-.51-.22,.07-.43,.15-.64,.1Z"/>
            <path class="cls-6" d="M28.37,13.13c.21,.05,.42-.02,.64-.1-.04-.07-.08-.12-.13-.16-.55-.27-1.13-.03-1.66,.03,.11,.12,.23,.21,.35,.25,.24,.11,.5-.07,.79-.03Z"/>
            <path class="cls-4" d="M28.37,13.13c.2,.05,.4-.02,.61-.09-.07-.03-.14-.04-.21-.05-.37-.02-.73,.03-1.08-.08,.38-.01,.76-.02,1.15-.06-.54-.23-1.1,0-1.61,.05,.11,.12,.23,.21,.35,.25,.24,.11,.5-.07,.79-.03Z"/>
            <path class="cls-3" d="M27.8,13.23c.43,.05,.86,.07,1.3-.03-.02-.05-.04-.09-.06-.13-.02,0-.04-.02-.06-.02-.21,.07-.41,.13-.61,.09-.29-.05-.55,.13-.79,.03-.12-.05-.25-.13-.35-.25-.04,0-.07,0-.11,0-.47,.07-.94,.1-1.39,.07-.41,.12-.84,0-1.18-.23,.17,.06,.36,.1,.55,.12-.2-.06-.4-.13-.57-.23-.16-.07-.32-.11-.49-.14-.08,.09-.18,.15-.28,.13-.16-.03-.28-.13-.47-.14-.02-.02,.05-.09,.02-.12,.08,.09,.21,.09,.33,.05-.11-.02-.22-.05-.32-.09-.17-.11-.24-.29-.28-.48l-.04-.04c-.07-.07-.17-.12-.27-.17l.06,.11c-.08-.02-.13-.1-.15-.16l.09,.05c-.04-.09-.08-.17-.11-.27,.04,.12,.15,.21,.25,.26-.13-.18-.26-.36-.24-.59h.02c-.21-.23-.46-.53-.49-.93,0-.18-.48-.36-.5-.3-.11,1.03,.19,1.94,.78,2.66-.02-.12-.02-.24-.03-.36-.01-.04-.02-.09,0-.14v.14c.04,.12,.13,.22,.17,.35,0,.04,.04,.1,.13,.06,.07,.18,.28,.26,.38,.43,0,0,0,.04,0,.08,.1,.06,.2,.11,.3,.16,.58,.26,1.14,.44,1.69,.61-.13-.08-.24-.18-.34-.29-.12-.17-.49-.14-.78-.23-.08,0-.08-.11-.14-.15,.34-.13,.56,.15,.85,.19,.36,.07,.87,.39,1.31,.23,.17-.07,.33,.04,.47,.15-.05,.06-.15,.05-.2,.04-.43-.05-.86-.13-1.29-.19,.42,.22,.88,.21,1.33,.39-.27,0-.52-.17-.79-.06,.02,.03,.04,.05,.06,.07,.15,.05,.33,.1,.53,.17,.06-.03,.12-.06,.17-.09,.49-.29,1.08,0,1.63-.08,.05,0,.11-.08,.18-.15-.18,0-.36-.03-.53-.03,.07,.03,.14,.07,.21,.13-.17,.02-.31-.11-.48-.09,.09-.03,.18-.05,.27-.05-.11-.04-.22-.06-.34-.08,.22-.11,.43,.14,.64-.03-.05,0-.09,0-.14,0h.14s0,0,0,0c.14-.01,.28-.08,.41-.14-.25,.02-.47-.1-.71-.09-.04,0-.07,.01-.12,.02,.04-.01,.08-.02,.12-.02,.55-.08,1.11,.04,1.66,.11h.05s-.05-.13-.05-.13c-.46-.04-.93-.09-1.38-.19Z"/>
          </g>
        </g>
        <g class="cls-14">
          <g class="cls-14">
            <path class="cls-5" d="M133.2,38.14c-.82,.33-1.72,.12-2.42,.4-.07,.03-.16,.06-.24,.09l.12,.03c.92,.22,2.06,.14,2.99-.33,.56-.34,.99-.85,1.49-1.32,.06-.05-.03-.15-.07-.19-.11,0-.21-.03-.3-.06-.31,.4-.7,.79-1.19,1.02-.16,.06-.27,.33-.38,.36Z"/>
            <polygon class="cls-7" points="134.8 36.75 134.78 36.75 134.73 36.81 134.8 36.75"/>
            <path class="cls-4" d="M133.88,37.65c-.14,.12-.3,.2-.46,.25-.08,.1-.16,.21-.22,.23-.82,.33-1.72,.12-2.42,.4-.07,.03-.16,.06-.24,.09,.04,0,.09,.02,.13,.03,.32,.07,.66,.11,1.02,.12l.05-.02c.19-.1,.38-.02,.57-.05,.52-.16,.99-.21,1.47-.49,.17-.1,.29-.32,.49-.43,.07-.04,.13-.08,.2-.11,.33-.33,.49-.48,.67-.66,.06-.05-.03-.15-.07-.19-.06,0-.11-.01-.16-.02-.18,.16-.37,.32-.57,.45-.15,.15-.32,.29-.51,.4,.01,0,.03,0,.04,.01Z"/>
            <path class="cls-7" d="M133.77,37.49s-.02,.11,.06,.15c.19-.12,.36-.25,.51-.4-.17,.11-.36,.21-.57,.26Z"/>
            <path class="cls-8" d="M133.59,37.09c-.35,.12-.64,.41-.98,.38-.17,0-.35-.06-.51-.16-.05,.01-.1,.02-.15,.03-1.21,.3-2.57,.12-3.85-.3-.65-.18-1.32-.11-2.03-.12-.41-.05-.71-.27-1.09-.44-.94-.46-1.9-.13-2.95-.19-.28-.01-.43,.47-.36,.49,1.74,.17,3.29,.74,5.01,.97,1.33,.18,2.54,.56,3.84,.88,.09-.03,.17-.06,.24-.09,.7-.29,1.6-.07,2.42-.4,.11-.03,.22-.3,.38-.36,.49-.23,.88-.62,1.19-1.02-.2-.06-.39-.15-.54-.19-.16,.23-.36,.45-.63,.52Z"/>
            <path class="cls-6" d="M133.59,37.09c.27-.08,.48-.29,.63-.52-.08-.02-.15-.04-.22-.03-.65,.16-1.2,.6-1.9,.77,.16,.1,.33,.15,.51,.16,.34,.03,.63-.25,.98-.38Z"/>
            <path class="cls-4" d="M133.59,37.09c.26-.07,.46-.27,.61-.49-.09,.03-.16,.08-.24,.12-.38,.23-.8,.46-1.27,.48,.47-.13,.9-.34,1.26-.64-.62,.17-1.16,.6-1.84,.76,.16,.09,.33,.15,.5,.16,.34,.03,.63-.25,.98-.38Z"/>
            <path class="cls-3" d="M132.92,37.46c.57-.12,1.13-.38,1.5-.84-.05-.02-.1-.03-.14-.05-.02,.01-.05,.02-.07,.03-.15,.22-.36,.42-.61,.49-.35,.12-.64,.41-.98,.38-.17,0-.35-.06-.5-.16-.05,.01-.09,.02-.14,.03-.61,.16-1.28,.19-1.94,.12-.6,.1-1.24-.06-1.83-.3,.29,.07,.58,.12,.88,.15-.32-.07-.63-.16-.95-.26-.28-.08-.56-.11-.84-.12-.08,.1-.19,.18-.35,.18-.25,0-.48-.07-.75-.02-.03,0,0-.1-.07-.12,.18,.05,.35,.02,.51-.04-.18,0-.36,0-.53,0-.33-.04-.58-.18-.85-.33-.03,0-.07,0-.1-.01-.16-.02-.33,0-.51,.02,.06,.02,.13,.04,.2,.06-.12,.03-.25,0-.35-.03l.15-.02c-.15-.04-.3-.09-.46-.13,.2,.06,.41,.05,.6,.04-.37-.07-.72-.11-1.06-.27h.03c-.54,0-1.1,.08-1.68,.05-.28-.02-.43,.47-.36,.49,1.21,.12,2.33,.43,3.49,.69-.12-.1-.24-.19-.35-.28-.05-.03-.1-.06-.15-.11l.15,.11c.15,.08,.32,.11,.48,.2,.02,.04,.12,.07,.18-.01,.21,.13,.5,.11,.72,.24,.01,0,.03,.04,.05,.07,.14,.02,.28,.04,.44,.07,.83,.12,1.62,.31,2.41,.51-.18-.09-.35-.19-.51-.31-.2-.18-.71-.16-1.12-.21-.11,0-.15-.11-.25-.14,.41-.18,.83,.11,1.24,.15,.54,.08,1.28,.44,1.9,.29,.25-.06,.47,.05,.68,.16-.07,.06-.21,.05-.28,.04-.63-.05-1.24-.17-1.86-.25,.62,.25,1.25,.27,1.91,.45-.4,0-.76-.18-1.14-.09,.03,.03,.06,.05,.08,.08,.23,.06,.48,.12,.76,.19,.09-.03,.17-.06,.24-.09,.7-.29,1.6-.07,2.42-.4,.07-.02,.14-.13,.22-.23-.26,.09-.52,.14-.78,.2,.11,0,.22,.02,.34,.06-.24,.09-.48,0-.72,.07,.13-.05,.26-.09,.39-.12-.17,0-.33,.01-.5,0,.29-.16,.65,.03,.92-.23-.06,.02-.13,.04-.2,.05l.2-.05h0c.2-.07,.37-.2,.52-.34-.32,.16-.67,.14-.99,.23-.05,.02-.1,.03-.16,.05,.08-.03,.12-.04,.16-.05,.74-.24,1.51-.45,2.15-.96l.05-.06-.13-.04c-.49,.42-1.12,.68-1.73,.76Z"/>
          </g>
        </g>
        <g class="cls-14">
          <g class="cls-14">
            <path class="cls-5" d="M41.73,50.6c-.41,.04-.76-.31-1.14-.1-.04,.02-.09,.04-.14,.06l.05,.04c.39,.3,.92,.42,1.4,.33,.3-.1,.55-.36,.86-.39,.04,0,0-.13,0-.19-.05-.07-.09-.15-.14-.23-.21,.12-.43,.26-.67,.28-.08,0-.17,.2-.22,.2Z"/>
            <polygon class="cls-7" points="42.64 50.13 42.63 50.12 42.6 50.14 42.64 50.13"/>
            <path class="cls-4" d="M42.1,50.41c-.08,.05-.16,.06-.24,.05-.05,.06-.1,.14-.13,.14-.41,.04-.76-.31-1.14-.1-.04,.02-.09,.04-.14,.06l.06,.04c.14,.1,.28,.19,.45,.24h.03c.1-.08,.17,.04,.27,.05,.26-.04,.48,.05,.73-.02,.09-.02,.17-.19,.28-.18,.04,0,.07,0,.11,0,.13-.07,.26-.14,.4-.16,.04,0,0-.13,0-.19l-.07-.12c-.11,0-.22,.03-.33,.04-.09,.04-.18,.08-.28,.11l.02,.03Z"/>
            <path class="cls-7" d="M42.07,50.22s-.02,.09,0,.16c.1-.03,.19-.07,.28-.11-.09,0-.19,0-.29-.05Z"/>
            <path class="cls-8" d="M42.05,49.78c-.16-.04-.32,.12-.46,0-.07-.06-.13-.16-.18-.28-.03,0-.05,0-.06,0-.53,.04-1.1-.11-1.49-.51-.2-.17-.53-.13-.85-.22-.16-.09-.17-.29-.22-.47-.1-.46-.73-.38-1.13-.7-.11-.08-.55,.17-.53,.2,.61,.58,.96,1.33,1.73,1.72,.58,.3,1.05,.62,1.6,1.03,.05-.02,.1-.05,.14-.06,.38-.21,.73,.14,1.14,.1,.05,0,.14-.21,.22-.2,.25-.02,.47-.16,.67-.28-.08-.17-.17-.35-.23-.47-.1,.1-.22,.18-.35,.13Z"/>
            <path class="cls-6" d="M42.05,49.78c.13,.04,.25-.03,.35-.13-.03-.06-.06-.11-.09-.14-.32-.24-.58,0-.89,0,.05,.13,.11,.22,.18,.28,.14,.12,.3-.04,.46,0Z"/>
            <path class="cls-4" d="M42.05,49.78c.12,.04,.24-.02,.34-.12-.04-.02-.09-.03-.12-.03-.2,0-.41,.04-.6-.09,.21,0,.42,0,.61-.06-.3-.2-.56,.02-.86,.02,.05,.13,.11,.22,.18,.28,.14,.12,.3-.04,.46,0Z"/>
            <path class="cls-3" d="M41.71,49.87c.25,.07,.53,.09,.77-.07-.02-.04-.04-.09-.06-.12l-.04-.02c-.1,.1-.22,.16-.34,.12-.16-.04-.32,.12-.46,0-.07-.06-.13-.15-.18-.28-.02,0-.04,0-.06,0-.27,.02-.55,0-.82-.09-.28,.07-.53-.09-.7-.31,.11,.06,.21,.12,.33,.14-.12-.06-.22-.16-.32-.25-.09-.07-.19-.11-.32-.13-.09,.08-.17,.14-.24,.13-.11-.02-.19-.09-.34-.08-.01-.01,.05-.08,.03-.1,.05,.06,.15,.05,.25,0-.08,0-.16-.02-.24-.04-.12-.07-.16-.2-.19-.35l-.04-.02c-.06-.04-.14-.05-.24-.06l.05,.07c-.07,0-.11-.04-.13-.08h.08s-.07-.1-.11-.16c.05,.07,.14,.11,.23,.12-.11-.11-.24-.19-.27-.36h.02c-.23-.1-.53-.16-.75-.32-.11-.08-.55,.17-.53,.2,.43,.42,.72,.89,1.13,1.29,0-.1,0-.19,0-.28,0-.03,0-.07,0-.11v.11c.02,.08,.09,.13,.11,.23-.01,.04,.02,.07,.1,.02,.03,.13,.18,.16,.22,.29,0,0,0,.03-.01,.07,.05,.03,.11,.06,.19,.1,.36,.19,.68,.38,1.01,.6-.06-.09-.11-.19-.14-.3-.03-.18-.29-.16-.47-.24-.06,0-.03-.1-.06-.13,.28-.13,.35,.14,.54,.19,.22,.09,.47,.44,.79,.35,.13-.05,.2,.08,.27,.21-.05,.05-.11,.03-.14,.01-.27-.1-.52-.24-.8-.34,.22,.25,.51,.3,.77,.53-.19-.03-.3-.24-.51-.16,0,.03,.01,.05,.02,.08,.09,.07,.19,.15,.31,.24,.05-.02,.09-.04,.14-.06,.38-.21,.73,.14,1.14,.1,.03,0,.08-.08,.13-.14-.12,0-.25-.04-.37-.05,.05,.03,.09,.08,.14,.15-.12,.01-.21-.14-.32-.13,.07-.02,.13-.03,.19-.03-.07-.05-.15-.08-.22-.11,.15-.1,.27,.19,.43,.02-.03,0-.06,0-.09-.01h.1s0,.01,0,.01c.1,0,.19-.07,.27-.13-.16,0-.31-.11-.46-.12-.02,0-.05,0-.08,0,.03,0,.05-.01,.08,0,.35-.04,.7,.09,1.08,.07l.03-.02-.06-.11c-.29,.03-.6-.02-.86-.13Z"/>
          </g>
        </g>
        <g class="cls-14">
          <g class="cls-14">
            <path class="cls-5" d="M100.25,4.19c-.15,.32-.6,.36-.59,.77,0,.04,0,.09,0,.14l.05-.02c.4-.12,.76-.43,.91-.83,.06-.27-.04-.58,.09-.82,.01-.03-.1-.07-.16-.09-.09,0-.18-.01-.27-.03,0,.2,.01,.43-.08,.61-.04,.05,.09,.23,.06,.26Z"/>
            <polygon class="cls-7" points="100.29 3.32 100.28 3.32 100.28 3.35 100.29 3.32"/>
            <path class="cls-4" d="M100.27,3.83c0,.08-.02,.14-.07,.19,.03,.07,.07,.15,.05,.17-.15,.32-.6,.36-.59,.77,0,.04,0,.09,0,.13l.06-.02c.14-.04,.27-.11,.4-.19v-.03c0-.11,.12-.1,.18-.16,.09-.21,.26-.31,.32-.54,.02-.08-.07-.22-.02-.3,.01-.03,.03-.05,.05-.07,0-.13,0-.26,.07-.37,.01-.03-.1-.07-.16-.09-.04,0-.09,0-.14,0-.06,.08-.09,.16-.13,.25,0,.09-.02,.17-.04,.25h.03Z"/>
            <path class="cls-7" d="M100.1,3.75s.07,.07,.14,.08c.02-.08,.04-.17,.04-.25-.04,.07-.1,.13-.18,.17Z"/>
            <path class="cls-8" d="M99.71,3.53c-.1,.09-.05,.28-.2,.31-.08,.02-.19,0-.31-.04-.01,.02-.02,.03-.03,.04-.18,.39-.55,.72-.99,.77-.2,.06-.3,.32-.5,.52-.13,.06-.27-.05-.41-.12-.32-.21-.57,.32-1,.41-.11,.03-.25,.51-.22,.52,.74-.03,1.44,.13,2.1-.24,.48-.28,.92-.45,1.5-.61,0-.05,0-.09,0-.14,0-.41,.44-.45,.59-.77,.03-.03-.11-.21-.06-.26,.1-.19,.08-.41,.08-.61-.19-.03-.38-.06-.51-.09,.04,.12,.05,.24-.05,.3Z"/>
            <path class="cls-6" d="M99.71,3.53c.1-.06,.09-.18,.05-.3-.07-.01-.13-.02-.17-.01-.34,.08-.27,.37-.4,.59,.12,.04,.24,.05,.31,.04,.15-.03,.1-.22,.2-.31Z"/>
            <path class="cls-4" d="M99.71,3.53c.09-.06,.09-.17,.05-.28-.04,.02-.06,.04-.08,.07-.1,.13-.15,.29-.34,.35,.1-.13,.19-.27,.22-.43-.31,.09-.24,.37-.36,.58,.12,.04,.23,.05,.31,.04,.15-.03,.1-.22,.2-.31Z"/>
            <path class="cls-3" d="M99.64,3.81c.17-.13,.31-.32,.3-.55-.05,0-.09-.02-.13-.02h-.03c.03,.13,.04,.24-.05,.3-.1,.09-.05,.28-.2,.31-.08,.02-.19,0-.31-.04-.01,.02-.02,.03-.03,.04-.09,.2-.23,.38-.41,.52-.06,.24-.28,.34-.51,.33,.09-.03,.17-.09,.24-.16-.1,.04-.2,.07-.31,.08-.09,.03-.15,.08-.22,.16,.03,.12,.03,.22,0,.27-.06,.07-.15,.08-.2,.21-.01,0-.03-.09-.06-.09,.07,0,.1-.08,.11-.19-.04,.05-.08,.11-.13,.16-.1,.06-.21-.01-.32-.07h-.03s-.1,.09-.15,.16h.07c-.03,.07-.08,.06-.11,.06l.04-.06c-.05,0-.11,0-.16-.02,.07,.02,.14-.05,.19-.1-.12,.03-.23,.06-.35-.02v-.02c-.16,.12-.36,.31-.58,.36-.11,.03-.25,.51-.22,.52,.53-.02,1,.05,1.49-.03-.07-.06-.13-.12-.19-.18-.03-.01-.05-.03-.07-.07l.07,.07c.07,.04,.14,.02,.21,.06,.02,.03,.06,.03,.06-.07,.11,.06,.2-.04,.31,0,0,0,.02,.02,.04,.05,.05-.02,.1-.05,.17-.08,.3-.18,.59-.31,.9-.42-.1,0-.2-.03-.3-.07-.14-.07-.25,.12-.38,.22-.03,.04-.09-.04-.13-.04,.03-.29,.25-.2,.38-.3,.16-.12,.54-.09,.6-.39,.02-.12,.15-.09,.28-.07,.02,.06-.03,.09-.05,.11-.21,.13-.41,.25-.61,.39,.29-.02,.45-.21,.75-.26-.11,.11-.32,.09-.35,.28,.03,.01,.05,.02,.07,.03,.09-.03,.2-.06,.32-.1,0-.05,0-.09,0-.13,0-.41,.44-.45,.59-.77,.02-.02-.03-.1-.05-.17-.07,.08-.15,.15-.21,.23,.05-.01,.11-.02,.19-.01-.04,.1-.21,.07-.25,.16,.01-.06,.03-.1,.07-.14-.08,.02-.13,.06-.19,.09,0-.16,.28-.09,.21-.29-.01,.02-.03,.04-.05,.06l.05-.06h0c.04-.07,.04-.16,.02-.25-.06,.12-.24,.14-.31,.25,0,.02-.02,.03-.03,.06,0-.02,.02-.04,.03-.06,.11-.26,.4-.43,.56-.7v-.03s-.12-.02-.12-.02c-.12,.21-.29,.4-.52,.51Z"/>
          </g>
        </g>
        <g class="cls-14">
          <g class="cls-14">
            <path class="cls-5" d="M27.69,17.32c-1.22,.01-2.44-.43-3.51-.35-.11,0-.24,.01-.37,.02l.17,.07c1.3,.48,2.8,.68,4.18,.62,.86-.08,1.71-.32,2.63-.34,.1,0,.11-.13,.11-.19-.1-.08-.18-.16-.26-.24-.74,.11-1.49,.25-2.27,.25-.26-.01-.54,.2-.7,.18Z"/>
            <polygon class="cls-7" points="30.7 16.9 30.68 16.88 30.57 16.9 30.7 16.9"/>
            <path class="cls-4" d="M28.86,17.15c-.25,.04-.5,.04-.75,.03-.16,.06-.32,.14-.41,.13-1.22,.01-2.44-.43-3.51-.35-.11,0-.23,.01-.36,.02,.06,.02,.12,.05,.18,.07,.45,.17,.92,.3,1.41,.4h.08c.28-.06,.52,.07,.79,.11,.75,0,1.37,.12,2.12,.05,.27-.01,.54-.17,.85-.16,.11,0,.21,0,.31,0,.41-.07,.82-.13,1.25-.13,.1,0,.11-.13,.11-.19-.05-.04-.1-.08-.14-.12-.35,0-.7,.02-1.05,.02-.31,.05-.62,.08-.93,.1,.01,.01,.03,.02,.05,.03Z"/>
            <path class="cls-7" d="M28.83,16.96s-.1,.09-.02,.16c.31-.02,.63-.05,.93-.1-.3,0-.6,0-.92-.06Z"/>
            <path class="cls-8" d="M28.87,16.52c-.6-.05-1.18,.1-1.67-.04-.26-.06-.5-.18-.71-.32-.08,0-.16,0-.24-.02-1.98-.08-4-.59-5.46-1.81-.73-.59-1.55-1.01-2.1-1.8-.28-.5-.21-.98-.07-1.47,.19-.62,.36-1.23,.54-1.9,.18-.66,.4-1.35,.81-2,.22-.35-.11-.72-.18-.64-.81,1.1-1.46,2.23-1.88,3.49-.2,.63-.31,1.35-.16,2.06,.16,.71,.55,1.32,1.02,1.81,1.48,1.5,3.24,2.41,5.06,3.11,.13,0,.25-.01,.37-.02,1.07-.07,2.29,.37,3.51,.35,.16,.02,.44-.2,.7-.18,.78,0,1.53-.14,2.27-.25-.16-.18-.29-.36-.45-.48-.45,.09-.9,.18-1.34,.12Z"/>
            <path class="cls-6" d="M28.87,16.52c.44,.05,.89-.03,1.34-.12-.08-.06-.16-.11-.26-.15-1.11-.23-2.33-.03-3.46-.09,.21,.14,.45,.25,.71,.32,.49,.14,1.07-.01,1.67,.04Z"/>
            <path class="cls-4" d="M28.87,16.52c.42,.05,.85-.02,1.28-.11-.15-.02-.3-.03-.44-.03-.76,0-1.52,.03-2.25-.13,.79,.04,1.59,.04,2.4-.02-1.08-.2-2.26,0-3.36-.06,.21,.14,.45,.25,.71,.32,.49,.14,1.07-.01,1.67,.04Z"/>
            <path class="cls-3" d="M27.64,16.59c.9,.1,1.83,.12,2.75-.03-.04-.04-.08-.09-.13-.13-.04,0-.08-.01-.12-.02-.43,.09-.86,.16-1.28,.11-.6-.05-1.18,.1-1.67-.04-.25-.06-.5-.18-.71-.32-.08,0-.15,0-.23-.02-1.02-.05-2.03-.19-2.98-.49-.88-.11-1.76-.55-2.43-1.15,.35,.24,.72,.45,1.11,.61-.42-.22-.81-.47-1.16-.77-.32-.24-.63-.47-.95-.69-.14,.03-.3,.01-.47-.13-.27-.23-.46-.5-.72-.75-.02-.04,.06-.08,.03-.17,.11,.24,.29,.39,.48,.48-.17-.16-.33-.33-.47-.53-.22-.39-.23-.78-.15-1.16,0-.04,0-.08,0-.12,0-.13-.03-.37-.05-.66-.02,.09-.04,.18-.06,.27-.04-.15,.01-.34,.06-.48v.21c.06-.21,.13-.42,.22-.64-.11,.27-.14,.57-.13,.81,.08-.5,.22-.98,.51-1.43v.04c.19-.73,.41-1.5,.87-2.22,.22-.35-.11-.72-.19-.64-.56,.77-1.04,1.55-1.43,2.38-.37,.82-.73,1.72-.65,2.73,.05-.23,.12-.44,.21-.65,.02-.09,.06-.17,.11-.25-.04,.08-.07,.16-.11,.25-.07,.25-.06,.53-.08,.81-.03,.06,0,.23,.1,.27,0,.4,.27,.78,.4,1.14,.01,.02,0,.07,0,.12,.14,.2,.29,.38,.46,.55,.94,.93,1.96,1.63,3.05,2.21-.24-.18-.47-.37-.65-.56-.23-.29-.93-.56-1.43-.96-.14-.09-.14-.22-.26-.33,.58,.16,1,.74,1.57,1.01,.71,.4,1.71,1.06,2.64,1.1,.37,.03,.69,.19,.96,.36-.12,.04-.32-.02-.42-.04-.9-.24-1.78-.56-2.63-.95,.82,.55,1.75,.79,2.67,1.16-.57-.11-1.07-.41-1.63-.46,.04,.04,.08,.07,.11,.11,.35,.16,.71,.3,1.07,.45,.13,0,.25-.01,.36-.02,1.07-.07,2.29,.37,3.51,.35,.1,0,.25-.07,.41-.13-.39-.01-.77-.07-1.16-.09,.15,.04,.3,.09,.44,.17-.37,0-.66-.16-1.02-.17,.2-.01,.39,0,.59,0-.23-.06-.47-.1-.71-.15,.48-.07,.9,.23,1.39,.08-.1,0-.2-.01-.3-.03l.31,.02h0c.31,.01,.62-.05,.9-.11-.53,0-1-.14-1.52-.16-.08,0-.17,0-.26,0,.09,0,.17,0,.26,0,1.18,.02,2.37,.14,3.57,.14l.11-.02-.11-.12c-.98,.02-1.98-.03-2.93-.18Z"/>
          </g>
        </g>
        <g class="cls-14">
          <g class="cls-14">
            <path class="cls-5" d="M68.13,50.85c-2.25,1.56-4.99,2.4-7.09,3.35-.23,.1-.47,.21-.72,.32l.39-.09c2.94-.66,6.04-2.02,8.52-3.92,1.52-1.21,2.81-2.69,4.15-4.33,.15-.18,.07-.28,.03-.33-.19,.11-.37,.2-.54,.27-1.01,1.35-2.16,2.62-3.56,3.68-.47,.33-.87,.88-1.17,1.06Z"/>
            <polygon class="cls-7" points="72.92 46.06 72.88 46.07 72.73 46.28 72.92 46.06"/>
            <path class="cls-4" d="M70.13,49.15c-.42,.39-.85,.74-1.32,1.06-.26,.27-.5,.52-.69,.64-2.25,1.56-4.99,2.4-7.09,3.35-.23,.1-.46,.2-.71,.31l.42-.1c1.02-.22,2.05-.55,3.08-.93l.16-.09c.53-.31,1.09-.46,1.62-.71,1.47-.81,2.71-1.47,4.02-2.54,.46-.39,.86-.89,1.39-1.36,.18-.16,.34-.31,.52-.47,.63-.68,1.24-1.41,1.87-2.17,.15-.18,.07-.28,.03-.33-.1,.06-.2,.11-.29,.15-.51,.6-1.02,1.2-1.6,1.76-.47,.52-.97,1.01-1.51,1.48,.03,0,.06-.02,.11-.05Z"/>
            <path class="cls-7" d="M69.96,49.05c-.08,.06-.12,.21,.07,.15,.54-.47,1.04-.96,1.51-1.48-.48,.48-1,.92-1.58,1.33Z"/>
            <path class="cls-8" d="M69.76,48.64c-1.06,.82-2.05,1.68-3.06,2.15-.52,.26-1.08,.43-1.57,.56-.17,.08-.33,.16-.49,.24-4.04,2.08-8.64,2.98-13.15,2.95-2.26,.02-4.37,.14-6.71,.07-1.39-.1-2.47-.38-3.8-.66-1.66-.36-3.17-.57-4.65-1-1.45-.43-2.98-1.09-3.9-2.56-.44-.79-.92-.8-.86-.56,.57,1.51,1.8,2.61,3.09,3.3,1.31,.71,2.72,1.1,4.12,1.4,2.81,.51,5.62,.87,8.55,.96,4.53,.14,8.81-.08,13-.97,.25-.11,.49-.22,.72-.32,2.1-.95,4.84-1.79,7.09-3.35,.3-.18,.7-.73,1.17-1.06,1.4-1.06,2.55-2.33,3.56-3.68-.35,.15-.67,.24-1,.39-.61,.81-1.32,1.55-2.1,2.14Z"/>
            <path class="cls-6" d="M69.76,48.64c.78-.6,1.49-1.33,2.1-2.14-.16,.08-.33,.18-.49,.31-1.87,1.57-3.96,3.34-6.24,4.54,.49-.13,1.05-.3,1.57-.56,1.02-.47,2-1.32,3.06-2.15Z"/>
            <path class="cls-4" d="M69.76,48.64c.75-.57,1.43-1.27,2.01-2.03-.27,.26-.5,.47-.71,.68-1.21,1.16-2.54,2.25-4.02,3.02,1.52-.94,2.93-2.06,4.16-3.36-1.82,1.54-3.86,3.24-6.07,4.41,.49-.13,1.05-.3,1.57-.56,1.02-.47,2-1.32,3.06-2.15Z"/>
            <path class="cls-3" d="M67.59,50.33c1.75-1.04,3.36-2.38,4.65-4.01-.09,.03-.19,.07-.28,.11-.07,.06-.13,.12-.19,.17-.59,.77-1.26,1.47-2.01,2.03-1.06,.82-2.05,1.68-3.06,2.15-.52,.26-1.08,.43-1.57,.56l-.46,.23c-2.06,1.06-4.27,1.82-6.54,2.31-1.94,.57-4.16,.79-6.29,.75,1-.03,2-.11,2.99-.24-1.1,.1-2.21,.16-3.31,.15-.94,.02-1.81,.04-2.82,.06-.19,.11-.5,.21-1.02,.21-.82,0-1.61-.06-2.45-.02-.11-.01-.08-.1-.31-.13,.64,.07,1.16,.05,1.63-.02-.57,0-1.14,0-1.73-.02-1.09-.08-2-.27-2.98-.48l-.32-.03c-.53-.06-1.09-.09-1.63-.11,.22,.04,.44,.08,.67,.12-.36,0-.81-.07-1.15-.14,.16,0,.32,.02,.48,.03-.52-.09-1.01-.2-1.56-.33,.66,.16,1.35,.23,1.94,.27-1.24-.18-2.38-.37-3.5-.84h.09c-.83-.2-1.65-.46-2.42-.87-.77-.4-1.49-.98-2-1.79-.45-.79-.93-.8-.86-.55,.41,1.03,1.12,1.92,1.97,2.55,.85,.64,1.79,1.09,2.74,1.43,1.92,.68,3.91,.94,5.87,1.21-.45-.13-.89-.26-1.31-.38-.19-.04-.38-.1-.55-.16,.18,.05,.36,.1,.55,.16,.52,.12,1.11,.19,1.68,.32,.1,.05,.45,.09,.59,.02,.78,.17,1.73,.19,2.51,.33,.05,0,.12,.04,.21,.08,.5,.03,1.01,.06,1.51,.07,2.83,.08,5.56,.04,8.24-.24-.65,.02-1.28,.02-1.86-.02-.78-.07-2.42,.14-3.82,.16-.35,.02-.56-.08-.91-.09,1.22-.23,2.79-.07,4.18-.2,1.84-.14,4.47-.27,6.37-.97,.78-.28,1.56-.4,2.22-.52-.21,.14-.66,.27-.88,.33-2,.58-4.05,.92-6.13,1.18,2.17-.1,4.24-.56,6.36-1.05-1.23,.4-2.48,.53-3.63,.89,.11,0,.22,0,.31,0,.84-.12,1.67-.28,2.49-.45,.25-.11,.49-.21,.71-.31,2.1-.95,4.84-1.79,7.09-3.35,.19-.12,.43-.37,.69-.64-.71,.5-1.47,.92-2.22,1.36,.31-.15,.62-.28,.93-.38-.7,.44-1.35,.65-2.07,1.04,.38-.23,.76-.44,1.14-.65-.48,.2-.97,.47-1.48,.67,.91-.56,1.89-.8,2.71-1.54-.19,.13-.38,.25-.58,.35,.2-.11,.4-.24,.59-.36h-.01c.58-.37,1.11-.83,1.57-1.25-.95,.73-1.91,1.22-2.92,1.8-.16,.1-.33,.19-.5,.29,.18-.11,.34-.2,.5-.29,2.28-1.36,4.48-2.94,6.25-4.96l.15-.2-.24,.09c-1.43,1.68-3.2,3.1-5.06,4.16Z"/>
          </g>
        </g>
        <g class="cls-14">
          <g class="cls-14">
            <path class="cls-5" d="M100.29,39.47c-1.67-.07-3.44-.4-4.86-.08-.15,.03-.31,.07-.48,.11l.24,.02c1.85,.15,3.85,.25,5.74,.33,1.17,0,2.38-.11,3.67,.08,.14,.02,.18-.1,.19-.16-.12-.09-.22-.19-.31-.29-1.07-.06-2.13-.05-3.22-.13-.36-.04-.77,.15-.99,.13Z"/>
            <polygon class="cls-7" points="104.54 39.49 104.52 39.47 104.36 39.46 104.54 39.49"/>
            <path class="cls-4" d="M101.92,39.42c-.36,0-.7-.02-1.05-.05-.23,.04-.45,.11-.58,.1-1.67-.07-3.44-.4-4.86-.08-.15,.03-.31,.07-.47,.11,.09,0,.17,.01,.26,.02,.72,.05,1.36,.1,1.97,.14l.11-.02c.38-.09,.72,.04,1.08,.06,1.02-.04,1.87,.11,2.89,.11,.36,.01,.76-.1,1.19-.05,.15,.01,.29,.03,.43,.05,.57,0,1.15,.03,1.75,.12,.14,.02,.18-.1,.19-.16-.06-.05-.12-.1-.17-.15-.49-.08-.98-.13-1.48-.19-.47-.02-.91-.03-1.32-.04,.02,.01,.04,.03,.07,.04Z"/>
            <path class="cls-7" d="M101.9,39.22c-.06,0-.15,.08-.04,.16,.41,.01,.85,.03,1.32,.04-.42-.05-.85-.1-1.28-.2Z"/>
            <path class="cls-8" d="M102,38.79c-.86-.14-1.71-.01-2.41-.18-.37-.07-.74-.17-1.06-.31-.12,0-.24,0-.36,0-2.97,0-5.91,.17-8.84,.44-1.47,.15-2.78,.65-4.19,1.14-.85,.27-1.58,.31-2.43,.51-2.17,.46-3.72,1.73-5.51,2.99-.49,.33-.29,.8-.17,.73,1.5-1.02,3.1-1.79,4.75-2.42,1.66-.6,3.36-1.07,5.12-1.53,2.75-.66,5.44-.84,8.06-.66,.17-.04,.33-.08,.48-.11,1.42-.33,3.19,0,4.86,.08,.22,.02,.62-.17,.99-.13,1.09,.08,2.15,.07,3.22,.13-.19-.21-.34-.41-.55-.57-.66,0-1.32,0-1.94-.11Z"/>
            <path class="cls-6" d="M102,38.79c.63,.11,1.28,.1,1.94,.11-.1-.08-.21-.15-.35-.2-1.57-.45-3.39-.39-5.07-.4,.32,.14,.69,.24,1.06,.31,.71,.17,1.55,.03,2.41,.18Z"/>
            <path class="cls-4" d="M102,38.79c.6,.11,1.23,.1,1.85,.11-.21-.05-.42-.09-.63-.12-1.09-.14-2.19-.2-3.27-.38,1.16,.09,2.3,.17,3.5,.27-1.54-.4-3.31-.34-4.93-.35,.32,.14,.68,.23,1.06,.31,.71,.17,1.55,.03,2.41,.18Z"/>
            <path class="cls-3" d="M100.23,38.74c1.31,.14,2.61,.3,3.95,.36-.05-.05-.1-.1-.16-.15-.06-.02-.11-.03-.16-.04-.63,0-1.25,0-1.85-.11-.86-.14-1.71-.01-2.41-.18-.37-.07-.74-.17-1.06-.31-.11,0-.23,0-.34,0-1.51,0-3.03,.06-4.53,.13-1.3,.23-2.72,.3-4.1,.38,.64-.08,1.26-.16,1.93-.25-.72,.05-1.44,.1-2.15,.17-.62,.06-1.22,.19-1.8,.35-.1,.14-.27,.27-.6,.36-.5,.14-1,.26-1.5,.49-.07,.01-.08-.08-.22-.05,.4-.08,.71-.22,.98-.39-.35,.12-.71,.25-1.05,.37-.67,.2-1.25,.3-1.9,.4-.07,.02-.13,.05-.2,.07-.32,.13-.64,.29-.95,.47,.14-.04,.27-.09,.42-.13-.2,.13-.48,.22-.69,.29,.09-.05,.18-.1,.27-.15-.32,.11-.64,.19-.98,.33,.41-.17,.82-.34,1.16-.52-.77,.26-1.44,.6-2.22,.83l.05-.04c-.99,.57-1.91,1.25-2.92,1.96-.49,.33-.29,.8-.17,.73,2.09-1.44,4.38-2.36,6.74-3.08-.29,0-.58,.03-.87,.07-.12,.03-.24,.04-.36,.04,.12-.01,.24-.03,.36-.04,.33-.08,.68-.19,1.05-.23,.07,.01,.28-.04,.34-.15,.49-.07,1.05-.3,1.55-.33,.03,0,.08,0,.15,.03,.3-.08,.6-.16,.91-.24,1.72-.41,3.41-.64,5.08-.71-.4-.02-.8-.05-1.17-.1-.5-.11-1.52,.18-2.38,.34-.21,.07-.36,0-.57,.03,.71-.42,1.73-.35,2.6-.5,1.17-.16,2.81-.06,4.07-.27,.52-.09,1.02,0,1.44,.11-.15,.05-.44,.05-.59,.05-1.3-.01-2.61,0-3.92,.16,1.37,0,2.68-.11,4.03,.03-.8,.03-1.58-.11-2.32,.08,.07,.02,.13,.04,.19,.05,.52,0,1.04,.03,1.56,.07,.17-.04,.33-.07,.47-.11,1.42-.33,3.19,0,4.86,.08,.14,.01,.35-.06,.58-.1-.54-.04-1.07-.12-1.62-.15,.22,.04,.42,.1,.61,.18-.51-.02-.92-.17-1.43-.17,.28-.02,.55-.02,.82,0-.32-.06-.67-.09-1.01-.13,.67-.08,1.27,.2,1.96,.09-.14,0-.28-.02-.43-.04l.43,.04h0c.44,.03,.87-.01,1.27-.04-.75-.05-1.42-.22-2.16-.26-.12,0-.24,0-.37,0,.12,0,.25,0,.37,0,1.7,.04,3.38,.31,5.05,.58h.16s-.12-.13-.12-.13c-1.26-.18-2.61-.38-4.16-.6Z"/>
          </g>
        </g>
        <g class="cls-14">
          <g class="cls-14">
            <path class="cls-5" d="M144.71,39.88c-1.52,.9-3.31,1.42-4.59,2.25-.14,.08-.29,.18-.44,.27l.25-.07c1.91-.54,3.86-1.46,5.56-2.5,1.03-.69,1.99-1.52,3.16-2.2,.13-.08,.08-.19,.06-.25-.16,0-.3-.01-.44-.03-.9,.64-1.78,1.3-2.77,1.87-.33,.18-.59,.56-.79,.67Z"/>
            <polygon class="cls-7" points="148.32 37.34 148.29 37.33 148.15 37.43 148.32 37.34"/>
            <path class="cls-4" d="M146.1,38.89c-.3,.22-.61,.4-.93,.58-.18,.17-.33,.34-.46,.41-1.52,.9-3.31,1.42-4.59,2.25-.14,.08-.28,.18-.44,.27,.09-.02,.18-.05,.27-.08,.66-.19,1.32-.42,1.98-.69l.1-.07c.32-.25,.7-.3,1.05-.47,.94-.54,1.77-.9,2.68-1.49,.32-.21,.6-.54,.99-.76,.13-.08,.26-.15,.39-.22,.48-.35,.98-.7,1.53-1.02,.13-.08,.08-.19,.06-.25-.08,0-.16,0-.24-.01-.48,.28-.88,.52-1.33,.78-.37,.26-.75,.52-1.14,.76,.02,0,.05,0,.08,0Z"/>
            <path class="cls-7" d="M145.96,38.75c-.06,.03-.08,.15,.06,.15,.39-.25,.77-.5,1.14-.76-.38,.22-.77,.43-1.2,.61Z"/>
            <path class="cls-8" d="M145.8,38.33c-.8,.4-1.46,.96-2.16,1.2-.36,.14-.74,.23-1.09,.26-.11,.06-.22,.11-.32,.17-2.62,1.41-5.47,2.46-8.37,2.62-1.44,.11-2.79,.31-4.32,.33-.9-.05-1.6-.3-2.45-.53-2.1-.62-4.07-.58-6.31-1-.6-.11-.81,.35-.67,.39,3.72,.78,7.2,1.95,11.08,1.91,2.99-.02,5.77-.54,8.47-1.29,.16-.1,.3-.19,.44-.27,1.28-.83,3.07-1.35,4.59-2.25,.2-.11,.46-.48,.79-.67,.99-.57,1.87-1.23,2.77-1.87-.28-.04-.54-.11-.8-.11-.54,.41-1.08,.81-1.67,1.09Z"/>
            <path class="cls-6" d="M145.8,38.33c.59-.28,1.13-.68,1.67-1.09-.13,0-.26,.02-.4,.06-1.54,.61-3.02,1.7-4.51,2.49,.35-.03,.73-.12,1.09-.26,.7-.24,1.36-.8,2.16-1.2Z"/>
            <path class="cls-4" d="M145.8,38.33c.56-.27,1.08-.64,1.59-1.04-.2,.09-.4,.19-.59,.29-.98,.55-1.94,1.14-2.96,1.56,1.05-.56,2.08-1.15,3.08-1.8-1.49,.62-2.92,1.68-4.37,2.44,.35-.03,.72-.12,1.08-.26,.7-.24,1.36-.8,2.16-1.2Z"/>
            <path class="cls-3" d="M144.26,39.29c1.21-.58,2.39-1.24,3.51-2.04-.07-.01-.15-.02-.22-.02-.06,.02-.11,.05-.16,.07-.51,.39-1.03,.77-1.59,1.04-.8,.4-1.46,.96-2.16,1.2-.36,.14-.74,.23-1.08,.26-.1,.05-.2,.11-.3,.16-1.34,.72-2.73,1.35-4.17,1.81-1.2,.55-2.62,.85-3.99,.9,.64-.07,1.27-.19,1.9-.35-.7,.14-1.41,.23-2.11,.27-.61,.05-1.2,.11-1.8,.17-.12,.12-.32,.22-.66,.25-.53,.04-1.05,0-1.59,.07-.07,0-.05-.1-.2-.12,.41,.04,.76,.01,1.06-.08-.37,.03-.74,.03-1.12,.04-.71-.04-1.29-.2-1.92-.38-.07,0-.14-.02-.21-.02-.35-.04-.7-.05-1.07-.06,.14,.03,.28,.06,.43,.09-.24,.01-.53-.05-.75-.1,.11,0,.21,0,.32,0-.34-.08-.66-.15-1.02-.24,.44,.1,.89,.15,1.28,.16-.81-.14-1.56-.26-2.33-.53h.06c-1.15-.14-2.31-.23-3.55-.47-.6-.11-.81,.35-.67,.39,2.6,.55,5.07,1.27,7.66,1.66-.29-.12-.57-.23-.85-.34-.12-.04-.24-.08-.35-.14,.11,.05,.23,.09,.35,.14,.34,.1,.72,.16,1.09,.26,.07,.04,.29,.08,.39,0,.51,.14,1.13,.13,1.65,.24,.03,0,.08,.03,.14,.07,.33,.02,.66,.01,1,.01,1.87-.02,3.66-.22,5.4-.56-.43,.04-.84,.07-1.23,.04-.52-.03-1.57,.23-2.49,.32-.23,.03-.37-.06-.6-.06,.79-.27,1.81-.19,2.71-.37,1.18-.21,2.9-.43,4.08-1.05,.48-.25,.99-.35,1.44-.41-.13,.11-.41,.22-.55,.27-1.28,.46-2.59,.84-3.92,1.15,1.42-.17,2.72-.65,4.1-1.02-.78,.33-1.6,.44-2.31,.81,.08,0,.15,0,.21,0,.54-.13,1.08-.27,1.61-.42,.15-.1,.3-.19,.44-.27,1.28-.83,3.07-1.35,4.59-2.25,.13-.07,.28-.25,.46-.41-.49,.25-1.03,.52-1.51,.76,.21-.08,.43-.14,.64-.18-.47,.27-.91,.35-1.38,.6,.24-.16,.49-.29,.74-.42-.4,.16-.66,.27-.99,.4,.57-.4,1.26-.46,1.8-.94-.13,.07-.26,.14-.4,.2l.4-.2h0c.39-.22,.76-.49,1.08-.74-.67,.39-1.35,.62-2.02,.98-.11,.06-.22,.12-.33,.19,.13-.07,.23-.13,.33-.19,1.52-.86,3.1-1.62,4.62-2.48l.14-.1-.19-.03c-1.25,.73-2.55,1.41-3.84,1.99Z"/>
          </g>
        </g>
        <g class="cls-13">
          <g>
            <path class="cls-11" d="M89.66,21.84c-.12-.06-.3-.02-.38,.06s-.1,.18-.11,.27c-.01,.14-.02,.29,.09,.41,.11,.12,.31,.18,.51,.23,.49,.11,1.04,.13,1.52,0s.85-.44,.85-.78c0-.09-.02-.18-.09-.27-.15-.19-.49-.28-.81-.33-.4-.06-.82-.09-1.23-.07-.12,0-.24,.01-.34,.04-.17,.06-.27,.17-.36,.29-.1,.13-.21,.25-.31,.38"/>
            <path class="cls-11" d="M89.1,21.03c.19-.17,.41-.2,.64-.24,.09-.02,.17,.05,.26-.13,.05-.09,.12,.13,.19,.13,.2,0,.38,.06,.58,.07,.19,0,.43-.03,.65-.01,.22,.01,.32,.11,.63,.06,.26-.03,.14,.15,.28,.18,.14,.04,.25,.11,.24,.22-.01,.08-.04,.15,.04,.21,.05,.03,.18,.05,.19,.11,.01,.06-.05,.13,.16,.15,.02,0-.01,.03-.04,.05-.12,.08-.11,.16-.02,.21,.01,0,.02,.02,.03,.02,.05,.04,.03,.08,.03,.12,0,.13-.03,.26-.1,.37-.05,.08-.19,.15-.26,.21-.08,.07-.04,.18-.22,.2-.18,.02-.24,.07-.31,.12-.04,.03-.2,0,0,.14,.02,.01,0,.02-.03,.02-.43-.09-.18,.2-.43,.22-.24,0-.39,.09-.61,.13-.06,0-.15-.04-.13,.11,0,.05-.06,.06-.11,.03-.28-.2-.41-.07-.62-.13-.21-.06-.47-.01-.63-.22-.06-.09-.13-.15-.34-.03-.1,.05-.14-.07-.21-.09-.06-.02-.18,0-.23-.04-.04-.03-.02-.12-.02-.18,0-.02-.01-.03-.03-.04-.18-.05-.24-.21-.25-.36-.03-.24,.05-.4,.02-.51-.05-.24,.1-.6,.31-.73,.12-.08,.3-.13,.65,.19,.08,.07,.15,.15,.22,.22,.05,.06,.06,.07,.07,.1,.01,.03,.03,.06,.02,.07-.01,.01-.01,.04-.01,.06,0,.05,.13,.13,.04,.13-.03,0,.06,.03-.1,.02-.02,0-.04,0-.02,.01,.06,.03,.09,.06,.12,.07,.01,0,.02,0,.02,0h-.13s-.08,.03-.08,.03h0s0,0,0,0h0s.2-.06,.2-.06h0s0,0,0,0h0s0,.01,0,.01c0,.01,0,.03,0,.03,.05,.03,.21-.08,.17-.02,.11-.13,.08-.11,.07-.07-.02,.16,.07,.07,.09,.09,.06,.03,.09,0,.14,0,.01,0-.15-.08-.01-.02,.14,.06,.05,0,.05,0,0,0-.06-.03,.04,0,.44,.09,.27-.02,.33-.05,.04-.02,.07-.05,.09-.07,.02-.04,0-.08-.1-.09-.1-.02-.37,.05-.29,.01,.02-.02-.19,.06,.16-.09,.1-.04-.19,.07-.2,.07-.04,0-.04,0-.05,0-.02,0-.02-.02-.06,0-.03,0-.12,.08-.14,.1-.02,.02-.02,.02-.01,0,.01-.02,.04-.09,.03-.11-.02-.02-.04,.06-.05-.02-.04-.15-.1-.08-.15-.07-.03-.02-.09,.04-.18,.21-.04,.09-.22,.05-.28,.12-.03,.03-.43-.22-.54-.34-.02-.02-.04-.05-.05-.06-.06-.16-.19-.37-.11-.44,.12-.09,.16-.23,.4-.43Z"/>
          </g>
          <g>
            <path class="cls-11" d="M70.17,27.49c-2.03,.21-3.91,.36-5.85,.8-1.94,.45-2.63,.5-5.54,.85-.15,.02-2.13,.1-2.24,.03-.34-.21,.03-.56,.39-.76,1.14-.6,2.41-1.1,3.76-1.47,.88-.24,1.79-.44,2.7-.62,4.46-.92,8.97-1.77,13.47-2.61,1.7-.32,3.4-.64,5.15-.83,1.08-.12,2.17-.19,3.26-.27,2.24-.15,4.48-.3,6.72-.45,1.43-.09,3.11-.13,4.04,.58,.16,.12,.29,.29,.19,.44-.07,.1-.23,.15-.37,.2-2.49,.82-5.07,1.54-7.7,2.15-1.35,.31-2.72,.6-4.13,.74-1.28,.13-2.58,.13-3.87,.19-3.5,.15-7.85,.64-11.29,1.09"/>
            <path class="cls-11" d="M76.31,26.13c1.35-.12,2.71-.2,4.06-.27,.5-.03,1.01,.03,1.51-.17,.25-.1,.74,.08,1.2,.05,1.25-.04,2.44-.24,3.66-.5,1.18-.27,2.34-.62,3.51-.95,1.16-.32,2.38-.57,3.46-1,.15-.06,.31-.12,.46-.17,.03-.01,.03-.01,.06-.01h.17c.08,0,.18-.07,.08-.11-.12-.05-.2-.05-.26-.06h-.07s-.3-.04-.3-.04c-.24-.02-.48-.04-.71-.05-.69-.05-1.42-.05-2.15,.03-.45,.05-.87,.18-1.36,.21-.46,.02-.99-.03-1.37,.2-.03,.02-.24,0-.35-.02-.5-.1-1.11-.05-1.52,.07-.4,.11-.76,.13-1.13,.16-1.02,.09-2.04,.18-3.05,.25l-2.28,.25c-.79,.11-1.62,.33-2.36,.36-.75,.01-1.45,.18-2.17,.31-.41,.08-.9,.08-1.2,.35-.03,.02-.18,.05-.25,.05-1.21-.04-2.29,.53-3.49,.69-1.23,.17-2.47,.46-3.7,.71-.33,.07-.69,.08-.97,.28-.1,.07-.44,.14-.62,.14-.95-.02-1.89,.28-2.8,.47-.52,.1-1.05,.23-1.56,.36l-.76,.21-.38,.1s-.1,0-.14,0c-.14-.02-.57,.12-.2,.18,.2,.02-.11,.05-.11,.09,.02,.05,.41-.04,.41-.06,0,0-.19,.09-.21,.13-.01,.01,0,.01,.04,0l.23-.1,.67-.05c.79-.06,1.58-.1,2.33-.26,.76-.16,1.52-.37,2.36-.53,.82-.16,1.64-.25,2.46-.33,.9-.09,1.82-.11,2.46,.19,.29,.14,.31,.31-.06,.46-.27,.1-.58,.21-.89,.26-.5,.09-1,.18-1.48,.26-1.01,.18-1.97,.5-3,.64-.33,.04-.7,.23-1,.12-.04-.01-.18,0-.24,.02-.68,.27-1.42,.39-2.15,.48l-1.09,.11-.8,.09c-.31,.04-.57,.04-.86,.07-.47,.03-1.01,.07-1.45,.06-.41-.03-.67-.12-.85-.21-.09-.05-.17-.09-.23-.15-.08-.06-.17-.3-.16-.44,.01-.29,.11-.45,.29-.64-.02-.2,.17-.51,.77-.81,.57-.3,1.27-.58,1.91-.79,.64-.21,.81-.24,1.14-.33,.31-.07,.61-.16,.92-.22,.61-.12,1.21-.26,1.82-.4,1.21-.29,2.39-.51,3.59-.74l7.29-1.4c.41-.08,.75-.26,1.25-.27,.47,0,1.05-.18,1.58-.29,.48-.1,1-.22,1.47-.25,.98-.05,1.95-.19,2.92-.35,.48-.07,.97-.18,1.45-.24l1.46-.12c1.95-.15,3.87-.23,5.79-.42,1.18-.1,2.3-.31,3.54-.32,.26,0,.54-.02,.81-.01,.29,.01,.51,.04,.94,.2,.19,.07,1.07,.13,1.48,.39,.39,.21,.65,.48,.78,.78,.07,.14,.08,.39,.02,.54-.06,.14-.12,.22-.22,.33-.21,.15-.33,.31-.73,.42-.43,.17-.99,.33-1.4,.46l-.81,.24-1.63,.48c-.66,.2-1.3,.45-1.97,.64-.7,.2-1.41,.37-2.11,.51-.9,.18-1.82,.3-2.74,.43-.97,.15-1.96,.26-2.87,.22-1.71-.08-3.36,.07-5.02,.18-1.65,.11-3.3,.26-4.94,.49-.93,.13-1.8,.07-2.71,.19-.42,.05-1.06-.34-.91-.52,.03-.03,.1-.08,.16-.1,.88-.26,1.67-.6,2.71-.7,1.52-.15,3.05-.33,4.58-.46Z"/>
          </g>
          <path class="cls-11" d="M43.48,45.88c.62-.15,1.25-.3,1.87-.48,.23-.07,.49-.05,.68-.28,.1-.12,.37,.02,.58-.04,.57-.18,1.16-.31,1.72-.5,.55-.18,1.08-.42,1.62-.62,.54-.2,1.09-.31,1.55-.62,.39-.27,.83-.31,1.22-.55,.41-.26,.83-.52,1.28-.69,.33-.12,.66-.23,.94-.44,.18-.13,.3-.32,.51-.43,.19-.11,.45-.16,.52-.43,0-.02,.11-.04,.17-.04,.27,0,.52-.16,.65-.34,.13-.17,.28-.25,.44-.34,.43-.26,.87-.51,1.34-.72,.17-.08,.35-.15,.54-.21,.19-.07,.37-.12,.48-.17,.27-.13,.51-.44,.84-.58,.33-.15,.6-.38,.9-.61,.17-.13,.43-.19,.47-.46,0-.03,.08-.07,.12-.07,.17-.03,.32-.07,.44-.14,.1-.06,.19-.13,.28-.22,.17-.18,.31-.39,.51-.55,.43-.32,.75-.82,1.14-1.3,.11-.13,.27-.23,.26-.44,0-.08,.12-.22,.21-.26,.24-.11,.45-.28,.63-.43,.16-.15,.31-.31,.49-.45,.39-.32,.67-.73,1.12-1.01,.19-.12,.42-.32,.43-.64,0-.15,.23-.28,.33-.44,.08-.13,.1-.3,.19-.42,.07-.1,.21-.16,.32-.25,.03-.03,.06-.06,.07-.1,.26-.73,.91-1.19,1.31-1.86,.4-.67,.91-1.3,1.45-1.89,.29-.33,.65-.62,1.12-.59,.21,.02,.34,.14,.29,.34-.03,.15-.08,.31-.17,.43-.14,.19-.26,.41-.39,.6-.26,.41-.42,.89-.79,1.24-.11,.11-.14,.31-.35,.32-.03,0-.08,.05-.08,.08-.18,.69-.71,1.18-1.1,1.76-.33,.5-.51,1.09-.96,1.52-.05,.39-.34,.68-.62,.9-.49,.38-.92,.8-1.37,1.21-.48,.44-.78,.74-1.16,1.18-.38,.42-.74,.91-1.19,1.38-.22,.23-.47,.46-.73,.67-.25,.19-.61,.41-.82,.52-.16,.09-.22,.27-.45,.32-.21,.05-.39,.27-.58,.42-.18,.15-.34,.34-.55,.45-.42,.22-.92,.54-1.37,.73-.41,.19-.8,.43-1.21,.63-.81,.41-1.61,.87-2.38,1.38-.47,.31-.9,.69-1.42,.94-.22,.11-.39,.33-.7,.28-.09-.01-.22,.22-.36,.3-.34,.2-.7,.37-1.06,.54-.5,.23-1.02,.45-1.54,.66-.32,.13-.61,.31-.92,.43-.33,.13-.66,.23-1,.31l-1.29,.26c-.44,.1-.87,.32-1.32,.34-.82,.05-1.58,.34-2.36,.51-.78,.18-1.56,.35-2.33,.57-.44,.12-.88,.06-1.31,.15-.2,.04-.57-.36-.52-.54,0-.03,.04-.07,.07-.09,.39-.24,.72-.55,1.21-.64,.71-.14,1.42-.33,2.12-.5Z"/>
          <path class="cls-11" d="M63.55,25.17l-2.23-.38c-.28-.04-.55-.18-.87-.07-.16,.05-.39-.2-.65-.25-.71-.14-1.4-.37-2.09-.6-.67-.21-1.36-.44-1.98-.7-.62-.26-1.22-.61-1.86-.77-.55-.13-.96-.47-1.47-.63-.54-.17-1.1-.35-1.59-.62-.36-.19-.72-.39-1.11-.49-.24-.06-.5-.04-.76-.13-.24-.08-.49-.26-.76-.13-.02,.01-.12-.06-.17-.1-.22-.21-.55-.3-.79-.28-.24,.02-.42-.04-.62-.09-.55-.15-1.1-.28-1.64-.44-.41-.12-.8-.27-1.21-.39-.43-.11-.91-.1-1.29-.27-.39-.15-.78-.21-1.17-.26-.23-.02-.48-.14-.69,.04-.02,.02-.1,0-.14-.01-.62-.32-1.28-.01-1.92-.07l-.25-.02h-.2c-.08,0-.16-.04-.23-.05l-.54-.15c-.35-.1-.71-.2-1.05-.32-.19-.06-.36-.19-.57-.11-.08,.03-.27-.04-.35-.11-.42-.38-.98-.49-1.46-.75-.55-.29-1.14-.48-1.63-.91-.2-.18-.5-.38-.87-.36-.17,0-.39-.21-.6-.31-.17-.08-.38-.1-.55-.2-.14-.08-.24-.24-.35-.35-.04-.03-.08-.07-.13-.09-.89-.34-1.43-1.11-2.18-1.57-.75-.47-1.46-.96-2.19-1.34-.41-.2-.8-.4-1.03-.82-.1-.2-.08-.37,.16-.42,.17-.04,.38-.06,.56-.02,.3,.06,.59,.14,.87,.23,.57,.2,1.18,.36,1.65,.78,.15,.13,.38,.18,.42,.4,0,.03,.06,.08,.1,.1,.81,.26,1.37,.89,2.02,1.33,.57,.38,1.18,.52,1.75,.92,.43,0,.8,.24,1.11,.47,1.09,.8,2.38,1.24,3.6,1.71,.31,.12,.63,.23,.94,.33,.29,.08,.72,.23,.79,.19,.72-.01,1.43,.02,2.14,.08,.24,.03,.46-.06,.73,.05,.26,.11,.6,.09,.91,.14,.28,.04,.58,.04,.83,.14,1.04,.4,2.15,.52,3.21,.82l3.14,.93c.64,.17,1.3,.29,1.92,.56,.26,.12,.58,.12,.78,.4,.05,.08,.36,.03,.53,.1,.43,.15,.85,.33,1.27,.5l1.75,.73c.36,.14,.74,.23,1.1,.36,.37,.14,.72,.3,1.07,.46,.44,.2,.88,.42,1.34,.58,.48,.16,1.01,.2,1.47,.39,.86,.35,1.8,.42,2.71,.6l2.78,.55c.53,.11,.97,.41,1.47,.59,.24,.09,.36,.65,.2,.76-.03,.02-.08,.04-.12,.03-.51-.05-1,.04-1.53-.13-.79-.24-1.62-.38-2.45-.53Z"/>
          <path class="cls-11" d="M97.35,4.77c-.26,.31-.52,.64-.75,.99-.09,.13-.25,.21-.2,.44,.02,.12-.23,.12-.3,.25-.2,.34-.45,.64-.65,.98-.19,.33-.35,.69-.54,1.02-.19,.33-.48,.61-.6,.98-.1,.32-.39,.47-.52,.75-.14,.29-.3,.59-.54,.82-.17,.16-.36,.32-.45,.53-.06,.13-.05,.3-.14,.43-.09,.12-.25,.21-.16,.43,0,.02-.06,.05-.1,.07-.2,.06-.3,.22-.3,.38,0,.16-.08,.24-.14,.35-.18,.28-.37,.55-.57,.81-.15,.2-.37,.35-.53,.53-.17,.2-.27,.47-.49,.61-.23,.13-.37,.31-.52,.49-.09,.1-.26,.17-.17,.38,0,.02-.03,.06-.05,.07-.45,.12-.46,.62-.77,.87-.32,.25-.61,.56-.91,.86-.08,.08-.2,.12-.2,.29,0,.06-.09,.14-.16,.15-.19,.02-.33,.1-.46,.2-.11,.09-.29,.25-.33,.27-.19,.11-.36,.44-.69,.58-.14,.06-.3,.19-.26,.45,.02,.11-.16,.19-.22,.3-.05,.09-.05,.22-.11,.3-.05,.07-.17,.09-.25,.14-.02,.01-.05,.04-.05,.07-.15,.53-.68,.74-.97,1.17-.29,.44-.65,.82-1.08,1.2-.24,.2-.56,.41-.99,.19-.16-.1-.19-.28-.15-.42,.03-.1,.05-.2,.11-.27,.09-.1,.17-.25,.25-.36,.17-.26,.25-.6,.54-.79,.09-.06,.09-.21,.27-.17,.02,0,.06-.02,.07-.04,.09-.5,.51-.75,.78-1.12,.23-.31,.31-.73,.63-.99-.02-.3,.17-.48,.37-.61,.36-.24,.59-.52,1.04-.86l.83-.68c.28-.25,.55-.49,.82-.76l.76-.83c.08-.1,.07-.26,.23-.32,.15-.06,.22-.24,.33-.37,.1-.12,.17-.26,.29-.35,.53-.35,.8-.91,1.16-1.4,.37-.48,.72-.97,1.02-1.5,.18-.32,.28-.69,.52-.98,.1-.12,.1-.32,.35-.35,.07,0,.03-.21,.08-.3,.12-.22,.27-.43,.41-.65,.19-.3,.4-.59,.57-.9,.11-.19,.16-.41,.26-.6,.11-.2,.24-.39,.38-.57,.19-.22,.38-.44,.57-.66,.19-.24,.29-.55,.53-.73,.45-.34,.69-.83,1.04-1.24l1.06-1.25c.19-.25,.54-.32,.76-.52,.11-.1,.54,.15,.6,.32,.01,.03,.01,.07,0,.09-.12,.3-.14,.62-.37,.82-.33,.32-.63,.66-.92,1.03Z"/>
          <path class="cls-11" d="M127.06,36l-2.71-.24c-.34-.03-.67-.14-1.03,0-.18,.07-.48-.17-.79-.19-.84-.06-1.67-.17-2.51-.21-.81-.04-1.63-.03-2.44-.04-.8-.02-1.63-.13-2.4-.02-.67,.1-1.27-.06-1.91,.02-.67,.06-1.36,.16-2.03,.14-.49,0-.97,0-1.44,.08-.31,.05-.51,.21-.84,.26-.3,.05-.66,.05-.88,.3-.02,.02-.16,.02-.24,0-.35-.06-.75,.04-1.01,.18-.25,.14-.49,.18-.75,.23-.7,.14-1.4,.27-2.18,.3-.17,0-.34,0-.54-.03l-.31-.06c-.13-.04-.29-.1-.43-.17l.28,.09c-.22-.04-.44-.08-.67-.12-.53-.07-1.12-.04-1.6-.19-.49-.15-.96-.19-1.45-.24-.28-.03-.59-.15-.84,.03-.02,.02-.13,0-.18-.02-.77-.37-1.62-.15-2.43-.41-.82-.25-1.69-.46-2.51-.76-.22-.08-.43-.22-.68-.17-.09,.02-.32-.07-.41-.15-.51-.44-1.16-.62-1.73-.95-.64-.37-1.33-.64-1.9-1.14-.24-.21-.6-.45-1.01-.47-.19,0-.46-.26-.7-.37-.2-.09-.43-.12-.62-.22-.16-.09-.29-.24-.43-.37-.04-.04-.1-.07-.16-.09-1.04-.33-1.81-1.06-2.8-1.53-.99-.47-1.92-1.06-2.84-1.62-.51-.31-1-.65-1.19-1.16-.08-.23,0-.39,.27-.36,.2,.02,.43,.06,.62,.15,.32,.14,.63,.28,.94,.41,.63,.29,1.31,.49,1.88,.92,.18,.13,.45,.18,.53,.41,.01,.03,.08,.09,.13,.1,.94,.23,1.75,.84,2.61,1.29,.73,.38,1.53,.6,2.22,1.08,.5,.05,.95,.34,1.32,.62,1.32,.97,2.81,1.61,4.26,2.2,1.48,.61,3.05,.94,4.65,1.16,.27,.04,.52-.05,.84,.07,.3,.11,.71,.09,1.07,.13,.33,.03,.68,.03,.99,.11,.66,.18,1.33,.26,2,.33l.13,.21c.11-.18,.09-.15,.1-.14,.01,0,0,0,.03,0h.16c.13,0,.26,.02,.41,0,.28-.02,.58-.06,.88-.1,1.25-.16,2.51-.44,3.77-.76,.78-.22,1.6-.39,2.39-.46,.34-.01,.7-.15,1.05,0,.1,.05,.41-.13,.63-.15,.55-.04,1.1-.07,1.65-.08,.77-.02,1.53,0,2.29,0,.47,0,.93-.05,1.39-.06,.49,0,.98,.04,1.46,.09,.61,.07,1.22,.19,1.82,.26,.63,.08,1.3,.05,1.89,.2,1.1,.28,2.22,.3,3.33,.42,1.1,.11,2.21,.21,3.31,.22,.62,0,1.19,.19,1.8,.19,.28,0,.67,.48,.55,.64-.02,.03-.07,.06-.12,.07-.61,.13-1.18,.38-1.88,.32-1.03-.06-2.07-.11-3.09-.2Z"/>
          <path class="cls-11" d="M101.33,22.71h-.05c-.07-.03-.15-.05-.18-.05,0,0-.23-.13,.12,.13,.14,.1-.1-.06-.24-.15-.03-.02-.04-.03-.03-.03,.09,.04,.1,.06,.14,.1l.06,.06c.08,.08,.2,.17,.24,.21h0s0,.04,0,.06c0,.01,0,.02,.01,.03,.02,.03,.06,.11,.1,.16,.16,.18,.07,.44,.16,.65,.08,.17,.19,.7,.02,1.01-.12,.24-.24,.44-.32,.66-.04,.12-.1,.34-.19,.36-.1,.05-.29,.02-.38,.22,0,.02-.11-.03-.17-.07-.11-.09-.21-.12-.3-.19-.12,.07-.16,.07-.21,.13-.08,.09-.16,.08-.23,.09-.21,.02-.43,.03-.65,.02-.16,0-.32-.09-.48-.1-.17-.02-.35,.07-.5-.02-.15-.1-.3-.09-.45-.09-.09,0-.19-.1-.26,.11,0,.02-.04,.02-.05,0-.24-.27-.49,.07-.74,0-.25-.08-.52-.04-.78-.04-.07,0-.14-.06-.21,.08-.02,.05-.1,.05-.13,.01-.18-.21-.39-.1-.58-.14-.22-.05-.45,.03-.66-.14-.09-.07-.22-.12-.34,.06-.06,.08-.16-.01-.24,0-.07,.01-.14,.09-.2,.09-.06,0-.11-.08-.16-.12-.02-.01-.04-.01-.05,0-.34,.19-.64-.11-.97-.08-.33,.04-.66,0-.98-.05-.18-.03-.36-.1-.47-.47-.05-.17-.04-.35,.04-.45,.06-.07,.13-.14,.2-.16,.1-.03,.21-.06,.31-.09,.21-.05,.43-.21,.65-.11,.07,.03,.15-.06,.2,.11,0,.02,.03,.04,.05,.03,.31-.24,.6-.05,.89-.05,.25,0,.51-.19,.75-.08,.15-.19,.31-.15,.45-.08,.48,.24,.98,.13,1.47,.18,.5,.05,.99,.04,1.49,.06,.08,0,.16-.11,.26-.02,.09,.08,.21,.02,.32,.02,.1,0,.2-.04,.3,0,.39,.21,.78,.08,1.17,.09,.22,0,.52,0,.68,0,.05,0,.1-.02,.13-.03,.03,.01,0-.08,0-.12-.02-.05-.03-.07,0-.08,.02-.02-.09-.04,.1-.05,.05-.02-.09-.02-.11-.05l-.1-.39c-.03-.09-.06-.19-.09-.29l-.03-.07-.07-.14-.14-.29c-.13-.19-.31-.39-.52-.62,0-.04,0-.08,0-.11,.02-.23,.05-.36,.1-.48,.04-.1,.09-.16,.1-.21,0-.01,0-.02,0-.03,0-.06-.05-.06-.08-.02l.03-.05c.15-.14,.3-.28,.44-.43l.03-.02c.55,.14,1.05,.27,1.58,.35,.08,.01,.16,.04,.23,.07,.03,.01,.09,.03,.09,.04,0,.04,.02-.05,0,.12-.03,.21,.02,.32,.01,.33-.05-.07-.12-.13-.21-.21-.06-.05-.05-.04-.05-.04h0s.02-.01,.03-.03c.01-.02,.13,.01,.26,.06,.02,0,.11,.05,.15,.05,.04,0,.05,0,.04,0-.01-.06-.12-.1,0-.17-.01-.02,.14-.01,.19,.12,.02,.05,.02,.06,.03,.1,0,.03,0,.06,0,.08-.02,.19,.08,.25-.06,.5-.26,.23-.4,.2-.52,.23-.06,0-.1,0-.14,0-.02,0-.02,0-.03,0-.09-.04-.18-.05-.27-.07Z"/>
          <path class="cls-11" d="M105.23,17.79l-.55,.21c-.07,.03-.15,.02-.2,.1-.03,.04-.11,0-.18,.02-.17,.07-.34,.12-.49,.2-.15,.07-.29,.17-.44,.26-.14,.09-.31,.15-.43,.27-.1,.1-.24,.13-.34,.22-.11,.09-.23,.19-.36,.25-.1,.05-.2,.09-.28,.16-.05,.04-.08,.11-.14,.15-.06,.04-.14,.05-.15,.14,0,0-.03,.01-.05,.01-.08,0-.16,.05-.19,.11-.03,.06-.08,.08-.13,.11-.13,.08-.25,.16-.39,.24-.1,.04-.21,.1-.31,.14-.1,.05-.2,.14-.31,.16-.11,.02-.2,.08-.3,.12-.05,.03-.13,.03-.14,.12,0,0-.02,.02-.03,.02-.19,0-.29,.18-.46,.24-.17,.06-.33,.15-.5,.23-.04,.02-.1,.02-.12,.09,0,.02-.05,.04-.08,.04-.15,0-.27,.08-.4,.13-.15,.05-.29,.14-.45,.15-.07,0-.16,.03-.21,.11-.02,.04-.11,.04-.16,.07-.04,.02-.08,.07-.12,.08-.04,.02-.08,0-.13,0-.01,0-.03,0-.04,.01-.19,.15-.44,.13-.66,.22-.22,.09-.45,.15-.67,.21-.13,.03-.26,.05-.38-.04-.05-.04-.07-.1-.03-.15,.03-.04,.07-.07,.11-.09,.06-.03,.14-.06,.2-.09,.14-.06,.26-.16,.41-.18,.05,0,.09-.05,.15-.01,0,0,.03,0,.03,0,.17-.14,.38-.16,.58-.23,.16-.06,.3-.18,.48-.22,.07-.1,.18-.13,.28-.14,.35-.06,.65-.24,.97-.37,.33-.13,.64-.3,.95-.45,.05-.03,.08-.09,.16-.09,.07,0,.14-.06,.2-.1,.06-.03,.12-.08,.19-.1,.28-.07,.5-.25,.73-.39,.24-.14,.47-.28,.69-.45,.13-.1,.25-.23,.39-.32,.06-.04,.1-.11,.2-.1,.03,0,.05-.08,.09-.11,.09-.07,.19-.14,.29-.2l.42-.27c.09-.06,.16-.13,.25-.18,.09-.06,.19-.11,.29-.15,.13-.05,.26-.08,.39-.12,.13-.04,.26-.12,.39-.14,.25-.03,.46-.13,.68-.21,.22-.08,.43-.17,.61-.3,.1-.07,.22-.09,.31-.18,.03-.04,.21,.01,.23,.06,0,.01,0,.03,0,.04-.05,.14-.11,.28-.25,.37-.2,.13-.41,.23-.62,.32Z"/>
          <path class="cls-11" d="M113.29,20.38c-.31-.03-.62-.07-.94-.09-.12,0-.23-.05-.36,0-.06,.02-.17-.05-.28-.06l-.87-.05c-.28,0-.57,.01-.85,.02-.28,0-.57-.02-.84,.02-.23,.03-.44,0-.67,.02-.23,.03-.48,.06-.71,.06-.17,0-.34,0-.5,.04-.1,.02-.19,.07-.31,.09-.1,.01-.23,0-.31,.09,0,0-.06,0-.08,0-.12-.02-.26,0-.35,.06-.09,.05-.17,.06-.25,.08l-.7,.16c-.17,.03-.36,.06-.53,.09-.18,.04-.37,.12-.54,.13-.18,.01-.34,.06-.5,.1-.09,.03-.21,.03-.27,.12,0,0-.04,.02-.06,.02-.29,0-.52,.18-.79,.24-.28,.06-.56,.16-.84,.25-.07,.02-.16,.03-.22,.1-.02,.02-.1,.05-.14,.05-.23,0-.44,.1-.65,.15-.25,.06-.49,.16-.75,.18-.11,0-.26,.03-.37,.13-.05,.04-.18,.05-.27,.08-.07,.03-.14,.07-.21,.09-.06,.02-.13,0-.2,.01-.02,0-.04,0-.06,.01-.35,.16-.73,.15-1.1,.24-.37,.09-.76,.14-1.14,.16-.21,.01-.44,0-.58-.12-.06-.05-.06-.11,.02-.15,.06-.03,.14-.06,.21-.07,.12-.02,.23-.03,.34-.05,.23-.05,.46-.12,.7-.14,.08,0,.16-.05,.23,0,.01,0,.04,0,.06,0,.31-.14,.65-.16,.97-.24,.28-.07,.53-.2,.81-.25,.14-.11,.32-.14,.48-.17,.56-.08,1.1-.29,1.64-.44l1.66-.48c.09-.03,.17-.09,.29-.09,.11,0,.24-.06,.36-.09,.11-.03,.23-.08,.34-.09,.46-.05,.89-.21,1.34-.29,.45-.09,.89-.18,1.34-.27,.27-.05,.54-.14,.82-.15,.12,0,.24-.06,.36,0,.03,.02,.14-.04,.22-.05,.19-.02,.38-.03,.57-.04l.8-.02c.16-.01,.33-.02,.48-.04,.17,0,.34,0,.51,.01,.21,.02,.43,.04,.64,.07,.22,.02,.45,0,.66,.05,.39,.08,.78,.09,1.17,.14,.39,.04,.77,.09,1.16,.13,.22,.02,.41,.1,.63,.12,.1,.01,.21,.19,.17,.23,0,0-.03,.02-.04,.02-.22,.02-.42,.07-.66,.04-.35-.05-.71-.09-1.06-.13Z"/>
          <g>
            <path class="cls-11" d="M92.43,22.26c-.12-.06-.3-.02-.38,.06s-.1,.18-.11,.27c-.01,.14-.02,.29,.09,.41,.11,.12,.31,.18,.51,.23,.49,.11,1.04,.13,1.52,0s.85-.44,.85-.78c0-.09-.02-.18-.09-.27-.15-.19-.49-.28-.81-.33-.4-.06-.82-.09-1.23-.07-.12,0-.24,.01-.34,.04-.17,.06-.27,.17-.36,.29-.1,.13-.21,.25-.31,.38"/>
            <path class="cls-11" d="M91.88,21.45c.19-.17,.41-.2,.64-.24,.09-.02,.17,.05,.26-.13,.05-.09,.12,.13,.19,.13,.2,0,.38,.06,.58,.07,.19,0,.43-.03,.65-.01,.22,.01,.32,.11,.63,.06,.26-.03,.14,.15,.28,.18,.14,.04,.25,.11,.24,.22-.01,.08-.04,.15,.04,.21,.05,.03,.18,.05,.19,.11,.01,.06-.05,.13,.16,.15,.02,0-.01,.03-.04,.05-.12,.08-.11,.16-.02,.21,.01,0,.02,.02,.03,.02,.05,.04,.03,.08,.03,.12,0,.13-.03,.26-.1,.37-.05,.08-.19,.15-.26,.21-.08,.07-.04,.18-.22,.2-.18,.02-.24,.07-.31,.12-.04,.03-.2,0,0,.14,.02,.01,0,.02-.03,.02-.43-.09-.18,.2-.43,.22-.24,0-.39,.09-.61,.13-.06,0-.15-.04-.13,.11,0,.05-.06,.06-.11,.03-.28-.2-.41-.07-.62-.13-.21-.06-.47-.01-.63-.22-.06-.09-.13-.15-.34-.03-.1,.05-.14-.07-.21-.09-.06-.02-.18,0-.23-.04-.04-.03-.02-.12-.02-.18,0-.02-.01-.03-.03-.04-.18-.05-.24-.21-.25-.36-.03-.24,.05-.4,.02-.51-.05-.24,.1-.6,.31-.73,.12-.08,.3-.13,.65,.19,.08,.07,.15,.15,.22,.22,.05,.06,.06,.07,.07,.1,.01,.03,.03,.06,.02,.07-.01,.01-.01,.04-.01,.06,0,.05,.13,.13,.04,.13-.03,0,.06,.03-.1,.02-.02,0-.04,0-.02,.01,.06,.03,.09,.06,.12,.07,.01,0,.02,0,.02,0h-.13s-.08,.03-.08,.03h0s0,0,0,0h0l.2-.06h0s0,0,0,0h0s0,.01,0,.01c0,.01,0,.03,0,.03,.05,.03,.21-.08,.17-.03,.11-.13,.08-.11,.07-.07-.02,.16,.07,.07,.09,.09,.06,.02,.09,0,.14,0,.01,0-.15-.08-.01-.02,.14,.06,.05,0,.05,0,0,0-.06-.03,.04,0,.44,.09,.27-.02,.33-.05,.04-.02,.07-.05,.09-.07,.02-.04,0-.08-.1-.09-.1-.02-.37,.05-.29,0,.02-.02-.19,.06,.16-.09,.1-.04-.19,.07-.2,.07-.04,0-.04,0-.05,0-.02,0-.02-.02-.06,0-.03,0-.12,.08-.14,.1-.02,.02-.02,.02-.01,0,.01-.02,.04-.09,.03-.11-.02-.02-.04,.06-.05-.02-.04-.15-.1-.08-.15-.07-.03-.02-.09,.04-.18,.21-.04,.09-.22,.05-.28,.12-.03,.03-.43-.22-.54-.34-.02-.02-.04-.05-.05-.06-.06-.16-.19-.37-.11-.44,.12-.09,.16-.23,.4-.43Z"/>
          </g>
        </g>
        <g>
          <g>
            <path class="cls-9" d="M89.42,11.85c-.12-.09-.3-.03-.38,.09s-.1,.27-.11,.42c-.01,.21-.02,.44,.09,.62,.11,.18,.31,.28,.51,.36,.49,.17,1.04,.2,1.52,0s.85-.68,.85-1.2c0-.14-.02-.28-.09-.41-.15-.29-.49-.43-.81-.5-.4-.1-.82-.13-1.23-.12-.12,0-.24,.02-.34,.07-.17,.09-.27,.27-.36,.44-.1,.2-.21,.39-.31,.59"/>
            <path class="cls-9" d="M88.68,11.08c.12-.19,.29-.34,.48-.44l.1-.05c.09-.04,.2,.02,.27-.16,.04-.09,.17,.1,.26,.09,.17-.03,.33,0,.49,0,.16,0,.33-.06,.49-.06,.17,0,.3,.13,.49,.07,.17-.05,.26,.15,.42,.18,.18,.03,.42,.16,.51,.36,.07,.15,.09,.3,.18,.4,.06,.07,.19,.11,.21,.22,.02,.1-.05,.21,.16,.27,.02,0-.02,.06-.04,.08-.13,.11-.13,.24-.05,.32,.08,.09,.05,.16,.04,.23-.04,.2-.11,.39-.22,.54-.08,.12-.23,.18-.32,.27-.1,.09-.15,.26-.31,.27-.16,0-.24,.07-.35,.13-.06,.04-.17-.02-.13,.19,0,.02-.02,.03-.04,.02-.27-.17-.33,.21-.55,.18-.2-.03-.39,.02-.59,.02-.05,0-.1-.06-.16,.08-.02,.05-.08,.05-.1,0-.11-.22-.27-.13-.4-.2-.14-.08-.32-.04-.47-.28-.05-.1-.12-.18-.33-.11-.1,.03-.12-.11-.19-.16-.06-.04-.17-.04-.21-.1v-.02c-.02-.05,0-.13,.01-.19,0-.02,0-.04-.02-.05-.34-.22-.05-.75-.09-.89-.06-.22,.07-.68,.33-.87,.14-.12,.35-.18,.66,.17,.07,.08,.14,.16,.2,.23,.05,.06,.06,.08,.07,.11,.01,.03,.03,.07,.02,.08-.02,.02-.02,.06-.02,.09,0,.07,.15,.17,.06,.17-.03,0,.06,.04-.1,.05-.02,0-.04,.01-.02,.02,.24,.19,.07,.21,.1,.27,.01,.02,.07,.02,.11,0,.05,0,.07-.03,.05,.01,.16-.14,.11-.13,.09-.07-.07,.09,.09,.17,.17,.18,.1,.02,.2,0,.29,.03,.19,.04,.37-.01,.52-.06,.03,0,0-.12,.06-.05,.06,.06,.06-.02,.09-.03,.02-.02,.02-.07,.08-.05,.24,.07,.24-.14,.3-.23,.07-.11,.1-.22,.03-.26-.04-.04-.15,0-.13-.04,0-.02-.07,.06,.03-.1,.03-.05-.07,.06-.08,.07-.02,0-.08-.03-.13-.05-.08-.03-.17-.06-.29-.07-.07,0-.14,.07-.21,.08-.07,.01-.13,0-.2-.02-.08-.03-.16-.1-.25-.12-.08-.02-.22,.07-.21-.02-.03-.08-.08-.1-.11-.08s-.04,.04-.06,.06c-.03,.02-.04,.02-.07,.08-.04,.08-.08,.17-.11,.26-.03,.11-.22,.12-.27,.21-.02,.04-.47-.12-.61-.21-.03-.02-.05-.04-.06-.05-.08-.16-.25-.35-.18-.45,.05-.07,.09-.15,.13-.23l.06-.13c.03-.07,.07-.13,.11-.19Z"/>
          </g>
          <g>
            <path class="cls-12" d="M69.93,20.57c-2.03,.32-3.91,.55-5.85,1.24s-2.63,.76-5.54,1.32c-.15,.03-2.13,.15-2.24,.05-.34-.32,.03-.87,.39-1.17,1.14-.93,2.41-1.69,3.76-2.27,.88-.38,1.79-.67,2.7-.96,4.46-1.42,8.97-2.73,13.47-4.03,1.7-.49,3.4-.98,5.15-1.28,1.08-.19,2.17-.3,3.26-.41,2.24-.23,4.48-.46,6.72-.69,1.43-.15,3.11-.2,4.04,.9,.16,.19,.29,.45,.19,.68-.07,.15-.23,.23-.37,.31-2.49,1.27-5.07,2.38-7.7,3.32-1.35,.48-2.72,.92-4.13,1.14-1.28,.2-2.58,.21-3.87,.29-3.5,.23-7.85,.99-11.29,1.68"/>
            <path class="cls-12" d="M76.2,18.78c1.39-.18,2.78-.32,4.19-.41,.52-.04,1.05,.03,1.57-.18,.26-.1,.76,.07,1.21,0,1.23-.16,2.45-.46,3.65-.89,1.17-.42,2.31-.92,3.45-1.41,1.13-.48,2.34-.91,3.37-1.51,.62-.37,1.57-.75,1.45-.69,.04-.03,.02-.08-.01-.11,.03,.01-.38-.28-.77-.38-.4-.12-.87-.17-1.34-.2-.69-.05-1.44-.02-2.19,.09-.46,.07-.89,.22-1.4,.26-.47,.04-1.01,0-1.4,.25-.03,.02-.25,0-.36-.01-.52-.08-1.14,0-1.56,.13-.4,.13-.78,.15-1.15,.2-1.03,.14-2.07,.27-3.11,.39-.76,.12-1.53,.22-2.29,.39-.8,.18-1.62,.51-2.38,.63-.77,.12-1.47,.34-2.19,.55-.41,.12-.92,.18-1.19,.47-.03,.03-.18,.07-.26,.08-1.25,.09-2.3,.77-3.5,1.06-1.24,.3-2.48,.72-3.72,1.1-.33,.1-.7,.15-.96,.38-.09,.08-.44,.19-.62,.21-.49,.04-.97,.16-1.43,.31-.45,.16-.9,.35-1.36,.49-1.07,.31-2,.81-3,1.23-.43,.17-.99,.5-1.3,.97,.03,.09-.1,.07-.13,.14,0,.05,.17,.02,.18,0,0,0-.05,.08-.01,.11,0,.01,.03,.01,.04,0,.12-.04,.61-.1,.72-.12,1.28-.3,2.66-.33,3.88-.7,.76-.23,1.49-.53,2.35-.79,.83-.25,1.68-.42,2.52-.55,.92-.15,1.87-.22,2.54,.04,.3,.12,.33,.3-.04,.46-.27,.12-.59,.24-.9,.31-.51,.12-1.01,.24-1.5,.36-1.02,.25-1.96,.65-2.99,.92-.34,.09-.69,.31-1.02,.24-.05,0-.19,.02-.25,.05-1.38,.67-2.9,.73-4.34,1.03h-.1s-.5,.07-.5,.07l-.61,.06c-.52,.04-1.16,.1-1.45-.09-.32-.05-.6-.59-.53-.99,.04-.41,.27-.84,.72-1.2,.07-.12,.2-.23,.32-.35l.31-.29c.14-.14,.3-.26,.47-.38,.33-.23,.69-.43,1.02-.59,.6-.28,1.19-.55,1.8-.8l1.82-.64c1.21-.47,2.4-.8,3.61-1.16l7.33-2.18c.42-.12,.74-.34,1.25-.4,.48-.06,1.05-.3,1.59-.46,.49-.15,.99-.34,1.47-.42,1.96-.34,3.94-1.02,5.96-1.17,2.01-.25,3.98-.4,5.95-.66,1.22-.14,2.34-.41,3.65-.44,.55,0,1.19-.09,1.73,.24,.14,.08,.74,.1,1.12,.34,.16,.1,.26,.16,.44,.32,.19,.16,.32,.35,.48,.53,.25,.38,.33,.85,.13,1.24-.11,.22-.29,.39-.52,.53-.23,.13-.53,.27-.61,.32-1.05,.52-2.11,1-3.17,1.49-.65,.29-1.27,.64-1.92,.92-.69,.29-1.39,.56-2.1,.8-.9,.3-1.82,.54-2.77,.76-.97,.24-2.03,.49-2.99,.47-1.78-.05-3.43,.08-5.14,.29-1.69,.18-3.38,.42-5.04,.76-.95,.19-1.84,.19-2.77,.37-.43,.08-1.11-.26-.96-.46,.03-.04,.09-.08,.16-.11,.88-.33,1.68-.72,2.74-.89,1.56-.26,3.12-.52,4.69-.73Z"/>
          </g>
          <path class="cls-12" d="M43.62,45.34c.65-.27,1.3-.55,1.93-.87,.23-.12,.51-.16,.68-.44,.08-.14,.4-.07,.61-.18,.57-.32,1.17-.61,1.73-.95,.55-.33,1.06-.72,1.6-1.07,.53-.35,1.14-.62,1.6-1.04,.4-.36,.88-.49,1.29-.81,.43-.33,.87-.67,1.35-.91,.35-.17,.7-.34,1-.58,.18-.16,.31-.37,.53-.51,.2-.14,.48-.22,.53-.51,0-.02,.11-.06,.17-.07,.28-.05,.53-.25,.64-.45,.11-.2,.27-.3,.42-.42,.42-.33,.84-.67,1.28-.98,.29-.23,.62-.45,.91-.71,.3-.28,.53-.67,.86-.89,.33-.23,.56-.52,.8-.81,.14-.17,.37-.31,.32-.58,0-.02,.05-.09,.08-.11,.59-.33,.69-1.03,1.12-1.5,.45-.48,.81-1.05,1.19-1.59,.1-.14,.26-.26,.24-.48,0-.08,.1-.23,.18-.28,.45-.28,.65-.77,.97-1.16,.36-.45,.62-.97,1.08-1.35,.19-.16,.41-.42,.43-.77,0-.16,.24-.34,.34-.53,.08-.15,.11-.34,.2-.48,.08-.12,.22-.2,.34-.3,.03-.03,.06-.07,.08-.12,.29-.81,.99-1.35,1.4-2.09,.41-.74,.9-1.45,1.38-2.16,.27-.39,.57-.77,1.05-.84,.22-.03,.37,.06,.35,.28-.01,.17-.04,.35-.11,.5-.11,.25-.23,.5-.34,.73-.24,.5-.39,1.04-.77,1.47-.12,.13-.15,.36-.37,.39-.03,0-.08,.06-.09,.09-.2,.77-.77,1.33-1.18,1.98-.35,.55-.54,1.19-.98,1.69-.04,.41-.31,.75-.57,1.01-.92,.94-1.55,2.08-2.34,3.11-.8,1.04-1.56,2.11-2.38,3.15-.14,.18-.17,.4-.41,.55-.22,.14-.37,.43-.56,.66-.17,.21-.32,.45-.53,.6-.43,.32-.81,.69-1.19,1.06-.37,.39-.79,.74-1.21,1.04-.84,.61-1.67,1.25-2.48,1.88-.49,.39-.94,.83-1.48,1.16-.23,.14-.4,.39-.73,.38-.09,0-.22,.26-.36,.36-.35,.25-.71,.49-1.07,.72l-1.51,.98c-.3,.21-.57,.46-.88,.67-.32,.22-.65,.41-1,.59-.44,.22-.89,.4-1.33,.62-.45,.22-.88,.54-1.36,.68-.88,.26-1.65,.71-2.48,1.05l-2.48,1c-.47,.2-.95,.2-1.42,.36-.22,.07-.66-.28-.62-.46,0-.03,.03-.08,.06-.1,.41-.29,.74-.65,1.25-.82,.76-.25,1.5-.56,2.24-.87Z"/>
          <path class="cls-12" d="M63.57,16.74c-.69-.19-1.39-.38-2.11-.55-.26-.06-.5-.21-.82-.12-.16,.05-.35-.21-.6-.26-.66-.14-1.31-.31-1.96-.41-.64-.1-1.29-.13-1.93-.2-.63-.06-1.28-.21-1.92-.15-.54,.05-1.02-.14-1.54-.13-.55,0-1.12,.02-1.65-.08-.39-.06-.78-.15-1.17-.12-.24,.02-.47,.12-.74,.11-.25-.01-.53-.1-.74,.1-.02,.02-.13-.02-.18-.05-.27-.13-.59-.12-.81-.03-.22,.09-.41,.08-.61,.08-.55,.02-1.11,.03-1.67,.03-.42,0-.83-.07-1.25-.08-.43,0-.9,.1-1.3,.02-.41-.08-.79-.07-1.19-.05-.22,0-.49-.07-.67,.14-.02,.02-.1,.02-.14,0-.65-.24-1.27,.13-1.92,.09-.07-.02-.29,.02-.42-.03l-.34-.14c-.15-.06-.31-.11-.46-.16-.31-.1-.63-.18-.95-.26-.17-.04-.34-.15-.53-.05-.07,.04-.25,0-.33-.06-.43-.31-.97-.31-1.47-.46-.56-.17-1.17-.21-1.71-.51-.23-.13-.56-.25-.9-.16-.16,.05-.42-.13-.64-.18-.18-.04-.36,0-.53-.06-.14-.04-.26-.16-.39-.24-.04-.02-.09-.04-.14-.04-.88-.06-1.61-.59-2.45-.8-.84-.21-1.67-.5-2.49-.79-.45-.16-.91-.37-1.11-.82-.09-.2-.04-.37,.19-.41,.17-.03,.35-.04,.52-.01,.27,.05,.55,.1,.81,.15,.55,.11,1.13,.12,1.65,.38,.16,.08,.39,.05,.48,.25,.01,.03,.08,.06,.12,.06,.81,0,1.52,.39,2.27,.61,.63,.18,1.33,.2,1.91,.47,.4-.09,.79,.05,1.13,.2,1.2,.53,2.53,.64,3.82,1.01l.99,.3,.49,.16,.35,.13,1.87-.07c.23,0,.42-.13,.69-.05,.25,.07,.57,0,.87-.01,.27,0,.55-.06,.8-.02,1.05,.18,2.1,.02,3.16,.02,1.05,0,2.1,.02,3.15-.03,.64-.03,1.28-.13,1.92-.07,.27,.03,.57-.07,.83,.13,.07,.06,.34-.08,.51-.08,.44,0,.88,.04,1.32,.07l1.84,.14c.38,.02,.76-.01,1.14,.02,.4,.03,.79,.1,1.18,.18,.49,.11,.97,.27,1.45,.4,.5,.13,1.05,.17,1.5,.37,.86,.39,1.73,.54,2.61,.79,.87,.25,1.75,.52,2.64,.83,.51,.18,.88,.54,1.33,.8,.22,.13,.23,.7,.06,.78-.03,.02-.08,.02-.12,.01-.48-.13-.96-.12-1.43-.34-.71-.33-1.48-.56-2.26-.78Z"/>
          <path class="cls-12" d="M97.46,3.96c-.22,.24-.47,.44-.68,.68-.08,.09-.22,.11-.2,.32,.01,.1-.21,.03-.29,.11-.21,.21-.45,.4-.67,.6-.21,.2-.39,.44-.6,.64-.21,.19-.51,.3-.66,.55-.14,.22-.41,.21-.57,.38-.17,.18-.36,.35-.6,.42-.17,.05-.35,.09-.47,.22-.07,.08-.1,.22-.2,.28-.09,.05-.24,.05-.21,.27,0,.02-.06,.02-.09,0-.17-.04-.28,.04-.32,.17-.03,.13-.11,.16-.18,.21-.2,.14-.4,.28-.62,.39-.16,.08-.36,.11-.52,.19-.17,.08-.3,.27-.5,.27-.2,0-.34,.1-.49,.18-.08,.05-.23,.03-.19,.24,0,.02-.03,.04-.05,.03-.37-.09-.43,.35-.71,.43-.28,.09-.52,.27-.77,.43-.07,.04-.17,.03-.16,.19,0,.06-.07,.1-.12,.09-.29-.07-.43,.15-.64,.23-.24,.09-.42,.3-.71,.28-.13,0-.27,.03-.29,.26-.01,.1-.16,.09-.23,.15-.06,.05-.08,.16-.15,.2-.05,.03-.15,0-.22,0-.02,0-.04,.01-.05,.03-.22,.37-.68,.29-.97,.52-.3,.23-.64,.39-.98,.55-.19,.09-.4,.14-.7-.12-.14-.11-.22-.27-.2-.4,.02-.1,.05-.2,.1-.25,.08-.09,.17-.18,.26-.26,.18-.17,.3-.43,.56-.47,.08-.01,.11-.14,.25-.03,.02,.02,.05,.01,.06,0,.16-.38,.55-.4,.83-.58,.24-.15,.39-.46,.68-.53,.04-.25,.22-.31,.39-.34,.6-.09,1.02-.49,1.52-.74,.51-.25,.99-.57,1.49-.84,.08-.05,.1-.19,.24-.17,.13,.02,.22-.11,.33-.17,.1-.06,.18-.16,.3-.17,.49-.05,.81-.39,1.19-.61,.39-.22,.77-.45,1.11-.73,.21-.17,.36-.42,.61-.54,.11-.05,.14-.21,.35-.12,.06,.03,.06-.16,.12-.21,.14-.12,.29-.22,.44-.33,.21-.15,.42-.3,.61-.47,.12-.1,.19-.26,.3-.37,.11-.12,.24-.22,.37-.31,.17-.11,.38-.19,.54-.31,.17-.13,.28-.34,.49-.41,.39-.13,.61-.46,.89-.71,.27-.26,.55-.52,.77-.82,.12-.17,.37-.21,.51-.37,.06-.07,.51,.13,.61,.27,.02,.03,.03,.06,.03,.08-.03,.25,.02,.56-.16,.73l-.75,.79Z"/>
          <path class="cls-12" d="M127.81,35.3c-.94-.12-1.88-.3-2.81-.48-.35-.07-.68-.22-1.08-.14-.2,.04-.48-.24-.8-.32-.86-.2-1.71-.47-2.55-.74-.83-.24-1.65-.49-2.46-.79-.8-.3-1.57-.75-2.36-1.01-.68-.24-1.19-.66-1.8-.96-.66-.31-1.32-.66-1.88-1.1-.42-.31-.8-.66-1.25-.91-.29-.16-.58-.24-.84-.41-.25-.16-.52-.41-.86-.37-.03,0-.14-.1-.19-.16-.24-.29-.62-.51-.93-.61-.15-.05-.28-.12-.4-.21-.06-.04-.12-.09-.18-.13l-.12-.09s-.03-.02-.02-.02h-.02s-.14-.03-.14-.03c-.19-.04-.38-.1-.57-.15-.37-.11-.73-.25-1.07-.39-.51-.21-.97-.49-1.44-.68-.5-.21-1.03-.25-1.53-.47-.48-.22-.96-.34-1.45-.47-.28-.07-.58-.24-.86-.1-.03,.01-.13-.02-.17-.04-.73-.46-1.6-.31-2.39-.57-.82-.27-1.69-.42-2.53-.61-.23-.05-.45-.16-.7-.06-.08,.03-.32-.01-.43-.08-.58-.33-1.27-.36-1.91-.52-.73-.19-1.48-.24-2.2-.53-.3-.12-.73-.23-1.14-.11-.19,.05-.53-.09-.81-.11-.23-.02-.45,.03-.67,0-.19-.03-.36-.13-.55-.19-.06-.02-.12-.03-.18-.03-1.11,.05-2.14-.34-3.28-.43-1.13-.1-2.32-.34-3.44-.84-.62-.27-1.22-.71-1.33-1.28-.06-.25,.06-.38,.33-.31,.19,.06,.41,.1,.6,.2,.31,.14,.62,.25,.93,.34,.65,.2,1.34,.2,2.02,.42,.21,.07,.49,.02,.65,.21,.02,.03,.11,.05,.16,.05,.99-.11,1.99,.15,3,.27,.85,.1,1.71,.02,2.55,.25,.5-.12,1.05,0,1.52,.16,1.63,.52,3.33,.72,4.98,1.13,1.67,.41,3.35,.79,5.01,1.22,.28,.07,.56,.02,.87,.19,.29,.16,.71,.2,1.07,.29,.33,.08,.69,.13,.99,.26,1.32,.51,2.61,1.05,3.81,1.44l.45,.14c.09,.02,.12,.03,.26,.06,.12,.05,.3,.02,.38,.14,.23,.21,.31,.28,.43,.37,.12,.09,.25,.19,.38,.27,.52,.35,1.11,.64,1.72,.98,.78,.44,1.43,.79,2.12,1.25,.29,.19,.65,.29,.84,.63,.05,.1,.41,.13,.61,.23,.49,.26,.96,.53,1.46,.77,.68,.36,1.37,.68,2.08,.98,.44,.17,.89,.28,1.33,.43,.46,.15,.92,.33,1.37,.51,.58,.21,1.13,.49,1.73,.67,.61,.21,1.28,.3,1.85,.53,1.07,.44,2.22,.57,3.34,.78,1.12,.18,2.25,.34,3.39,.36,.64,.02,1.22,.21,1.85,.22,.29,0,.69,.49,.57,.65-.02,.03-.07,.06-.12,.07-.63,.13-1.22,.37-1.95,.3-1.07-.08-2.15-.16-3.21-.32Z"/>
          <path class="cls-12" d="M100.54,22.24l-1.54-.55,.03-.06c.11-.19,.33-.38,.24-.55-.04-.1,.32-.3,.41-.46,.06-.12,.13-.23,.19-.36l.1-.2c.07-.13,.12-.26,.17-.4,.09-.27,.11-.55,.17-.82,.05-.27,.21-.53,.15-.81-.06-.24,.14-.42,.11-.64-.02-.24-.04-.47,.04-.7,.06-.17,.12-.34,.07-.5-.03-.1-.14-.19-.15-.3,0-.1,.07-.23-.15-.29-.02,0,.01-.06,.03-.08,.05-.07,.07-.13,.07-.19,0-.04-.03-.03-.07-.03-.08,.02-.07,.03-.08,.02h0s0,0,0,0c0,0,.01-.03-.02-.05-.09-.01-.18-.03-.27-.02-.19,.02-.37,.14-.56,.08-.19-.06-.36-.01-.53,.03-.1,.02-.23-.03-.26,.18,0,.02-.04,.03-.06,.02-.35-.18-.52,.24-.81,.26-.31,.03-.59,.17-.88,.27-.08,.03-.18,0-.21,.16,0,.06-.09,.09-.14,.07-.28-.12-.47,.08-.71,.12-.27,.05-.5,.23-.82,.16-.13-.03-.29-.02-.38,.2-.04,.1-.2,.05-.29,.1-.08,.04-.13,.14-.21,.17-.07,.02-.16-.03-.24-.05-.02,0-.05,0-.07,.02-.35,.31-.82,.11-1.23,.23-.41,.12-.86,.13-1.29,.11-.24-.02-.49-.09-.62-.46-.06-.17-.04-.34,.06-.45,.07-.07,.15-.15,.23-.16,.12-.03,.24-.06,.36-.1,.24-.08,.46-.24,.72-.19,.08,.02,.16-.09,.24,.07,.01,.02,.05,.03,.06,.02,.29-.3,.66-.19,.99-.29,.28-.08,.5-.35,.81-.34,.1-.24,.29-.26,.47-.25,.63,.03,1.15-.3,1.73-.47,.59-.17,1.18-.39,1.79-.55,.1-.03,.17-.16,.31-.11,.13,.05,.27-.05,.41-.08,.13-.03,.25-.1,.38-.08,.27,.06,.52,.03,.77,0l.56-.08c.2-.02,.38,0,.54,.08,.08,.04,.15,.09,.21,.15,.11,.11,.16,.27,.2,.44l.14,.49,.14,.68c.07,.3,.2,.61,.16,.93-.01,.13,.09,.28-.1,.41-.06,.04,.08,.17,.09,.25,0,.22-.03,.43-.06,.65-.04,.3-.11,.59-.16,.89-.03,.18,0,.38-.04,.56-.04,.19-.1,.38-.19,.56-.1,.23-.27,.42-.39,.64-.03,.05-.06,.11-.08,.17l-.04,.09s0,0,0,.01c0,.02,0,.03-.07,.05-.1,.03-.16,.09-.2,.14,.04,.04,.15,.04,.2,.08l.09,.04,.26,.1c.19,.07,.39,.13,.59,.18,.11,.03,.21,.1,.3,.17,.04,.03,.11,.08,.12,.1,0,0,0-.01,0,.02l-.03,.1c-.01,.06-.02,.1-.02,.14,0,.07,.01,.11,.01,.11,.07,.08,.02,.02,0,.03-.03,0,0,0,.03-.03,0-.05,.03,.02-.01-.05-.04-.05-.1-.08-.08-.15,0-.05,.16-.12,.25-.06,.13,.07,.18,.15,.21,.26,.01,.06,.02,.14-.02,.22-.04,.1-.11,.15-.14,.18-.21,.16-.39,.13-.49,.15-.17,.02-.27,.04-.39-.01-.17-.07-.35-.14-.53-.2l-.6-.21Z"/>
          <path class="cls-10" d="M105.07,5.45c-.19,.13-.39,.23-.58,.34-.07,.04-.16,.06-.2,.15-.02,.05-.12,.02-.19,.06-.17,.1-.35,.19-.51,.31-.16,.11-.29,.24-.43,.37-.14,.13-.3,.24-.41,.4-.09,.13-.23,.2-.33,.33-.1,.13-.21,.26-.34,.37-.09,.08-.19,.15-.26,.24-.04,.06-.07,.13-.13,.19-.05,.05-.13,.1-.13,.19,0,0-.03,.02-.05,.03-.09,.03-.16,.1-.18,.17-.03,.07-.07,.11-.11,.15-.12,.12-.24,.24-.37,.35-.1,.09-.21,.15-.31,.23-.1,.08-.19,.2-.3,.26-.11,.06-.2,.13-.29,.21-.05,.04-.13,.07-.14,.16,0,0-.02,.02-.03,.03-.21,.06-.29,.26-.46,.37-.17,.11-.34,.24-.5,.37-.04,.03-.1,.05-.12,.12,0,.02-.05,.06-.08,.06-.16,.03-.27,.16-.41,.23-.16,.09-.29,.21-.47,.26-.08,.02-.17,.06-.22,.17-.02,.05-.11,.07-.17,.1-.04,.03-.07,.08-.12,.11-.04,.02-.09,.02-.14,.04-.01,0-.03,.01-.04,.02-.2,.19-.47,.23-.7,.36-.23,.14-.47,.25-.72,.35-.14,.05-.28,.1-.42,.03-.06-.03-.09-.09-.04-.14,.03-.04,.07-.09,.11-.11,.07-.04,.14-.09,.21-.13,.14-.09,.26-.21,.43-.26,.05-.01,.09-.07,.16-.04,0,0,.03,0,.04-.01,.17-.18,.4-.24,.6-.36,.17-.1,.3-.26,.49-.33,.06-.11,.17-.17,.28-.21,.37-.14,.67-.4,1-.62,.33-.22,.64-.47,.95-.72,.05-.04,.07-.11,.15-.14,.08-.02,.13-.1,.2-.16,.06-.05,.11-.12,.18-.15,.28-.15,.49-.4,.71-.61,.23-.21,.45-.43,.65-.67,.12-.14,.22-.31,.36-.44,.06-.06,.09-.15,.19-.16,.03,0,.04-.09,.08-.14,.09-.1,.18-.2,.27-.29l.4-.4c.08-.08,.15-.18,.24-.26,.09-.08,.19-.16,.29-.23,.13-.09,.28-.15,.41-.22,.14-.08,.27-.18,.41-.22,.27-.08,.49-.23,.72-.37,.23-.13,.44-.28,.61-.46,.09-.1,.22-.17,.29-.28,.03-.05,.22-.05,.25,0,0,.01,0,.03,0,.04-.04,.15-.06,.33-.19,.46-.19,.19-.4,.36-.61,.5Z"/>
          <path class="cls-10" d="M113.02,9.49c-.32-.05-.63-.11-.95-.14-.12-.02-.24-.06-.36-.01-.06,.02-.17-.06-.28-.07-.3-.02-.59-.06-.89-.07-.29-.01-.58,0-.86,0-.28,0-.58-.02-.85,.03-.23,.05-.45,0-.67,.05-.24,.04-.48,.09-.71,.11-.17,.01-.34,.04-.51,.08-.1,.03-.19,.09-.3,.11-.1,.03-.23,.04-.3,.13,0,0-.06,0-.08,0-.12,0-.26,.03-.35,.09-.08,.06-.16,.08-.25,.11l-.69,.24c-.17,.05-.35,.11-.52,.16-.18,.06-.36,.17-.53,.21-.18,.04-.33,.1-.49,.18-.09,.04-.21,.06-.26,.15,0,0-.04,.02-.06,.03-.3,.03-.5,.25-.77,.35-.28,.1-.55,.24-.82,.37-.07,.03-.16,.05-.21,.13-.02,.03-.09,.06-.13,.07-.23,.03-.43,.17-.64,.25-.24,.09-.47,.23-.73,.29-.11,.03-.26,.07-.36,.18-.05,.05-.18,.07-.26,.12-.07,.04-.13,.09-.2,.12-.06,.02-.13,.02-.2,.04-.02,0-.04,.01-.06,.02-.33,.21-.73,.24-1.1,.37-.37,.13-.77,.21-1.17,.26-.22,.02-.46,0-.61-.1-.07-.05-.07-.11,.02-.15,.07-.03,.14-.06,.21-.07,.12-.02,.23-.03,.35-.07,.23-.07,.46-.15,.7-.19,.08-.01,.16-.06,.23-.03,.01,0,.04,0,.06,0,.3-.17,.64-.23,.96-.35,.27-.11,.51-.27,.79-.36,.12-.13,.3-.18,.46-.23,.56-.17,1.07-.45,1.6-.68l1.62-.73c.09-.04,.16-.11,.28-.13,.11-.02,.24-.1,.36-.15,.11-.05,.22-.11,.33-.14,.45-.12,.88-.32,1.32-.48,.45-.14,.89-.28,1.33-.43,.27-.08,.54-.18,.83-.23,.12-.02,.24-.07,.38-.03,.04,.01,.14-.05,.22-.07,.19-.03,.39-.05,.59-.07,.27-.03,.55-.03,.82-.05,.17,0,.33-.04,.5-.04,.17,0,.35,0,.52,.02,.22,.03,.44,.05,.66,.08,.23,.02,.47,.02,.68,.08,.4,.1,.8,.13,1.19,.2,.39,.07,.78,.14,1.18,.21,.22,.04,.42,.13,.63,.17,.1,.02,.21,.2,.15,.25,0,0-.03,.02-.05,.02-.22,0-.43,.04-.67,0-.36-.08-.72-.14-1.07-.2Z"/>
          <g>
            <path class="cls-9" d="M92.19,12.5c-.12-.09-.3-.03-.38,.09s-.1,.27-.11,.42c-.01,.21-.02,.44,.09,.62,.11,.18,.31,.28,.51,.36,.49,.17,1.04,.2,1.52,0s.85-.68,.85-1.2c0-.14-.02-.28-.09-.41-.15-.29-.49-.43-.81-.5-.4-.1-.82-.13-1.23-.12-.12,0-.24,.02-.34,.07-.17,.09-.27,.27-.36,.44-.1,.2-.21,.39-.31,.59"/>
            <path class="cls-9" d="M91.46,11.72c.12-.19,.29-.34,.48-.44l.1-.05c.09-.04,.2,.02,.27-.16,.04-.09,.17,.1,.26,.09,.17-.03,.33,0,.49,0,.16,0,.33-.06,.49-.06,.17,0,.3,.13,.49,.07,.17-.05,.26,.15,.42,.18,.18,.03,.42,.16,.51,.36,.07,.15,.09,.3,.18,.41,.06,.07,.19,.11,.21,.22,.02,.1-.05,.21,.16,.27,.02,0-.02,.06-.04,.08-.13,.11-.13,.24-.05,.32,.08,.09,.05,.16,.04,.23-.04,.2-.11,.39-.22,.54-.08,.12-.23,.18-.32,.27-.1,.09-.15,.26-.31,.27-.16,0-.24,.07-.35,.13-.06,.04-.17-.02-.13,.19,0,.02-.02,.03-.04,.02-.27-.17-.33,.21-.55,.18-.2-.03-.39,.02-.59,.02-.05,0-.1-.06-.16,.08-.02,.05-.08,.05-.1,0-.11-.22-.27-.13-.4-.2-.14-.08-.32-.04-.47-.28-.05-.1-.12-.18-.33-.11-.1,.03-.12-.11-.19-.16-.06-.04-.17-.04-.21-.1v-.02c-.02-.05,0-.13,.01-.19,0-.02,0-.04-.02-.05-.34-.22-.05-.75-.09-.89-.06-.22,.07-.68,.33-.87,.14-.12,.35-.18,.66,.17,.07,.08,.14,.16,.2,.23,.05,.06,.06,.08,.07,.11,.01,.03,.03,.07,.02,.08-.02,.02-.02,.06-.02,.09,0,.07,.15,.17,.06,.17-.03,0,.06,.04-.1,.05-.02,0-.04,.01-.02,.02,.24,.19,.07,.21,.1,.27,.01,.02,.07,.02,.11,0,.05,0,.07-.03,.05,.01,.16-.14,.11-.13,.09-.07-.07,.09,.09,.17,.17,.18,.1,.02,.2,0,.29,.03,.19,.04,.37-.01,.52-.06,.03,0,0-.12,.06-.05,.06,.06,.06-.02,.09-.03,.02-.02,.02-.07,.08-.05,.24,.07,.24-.14,.3-.23,.07-.11,.1-.22,.03-.26-.04-.04-.15,0-.13-.04,0-.02-.07,.06,.03-.1,.03-.05-.07,.06-.08,.07-.02,0-.08-.03-.13-.05-.08-.03-.17-.06-.29-.07-.07,0-.14,.07-.21,.08-.07,.01-.13,0-.2-.02-.08-.03-.16-.1-.25-.12-.08-.02-.22,.07-.21-.02-.03-.08-.08-.1-.11-.08-.03,.01-.04,.04-.06,.06-.03,.02-.04,.02-.07,.08-.04,.08-.08,.17-.11,.26-.03,.11-.22,.12-.27,.21-.02,.04-.47-.12-.61-.21-.03-.02-.05-.04-.06-.05-.08-.16-.25-.35-.18-.45,.05-.07,.09-.15,.13-.23l.06-.13c.03-.07,.07-.13,.11-.19Z"/>
          </g>
        </g>
      </g>
    </g>
  </g>
</svg>