<?xml version="1.0" encoding="UTF-8"?>
<svg id="_Слой_2" data-name="Слой 2" xmlns="http://www.w3.org/2000/svg" xmlns:xlink="http://www.w3.org/1999/xlink" viewBox="0 0 650.88 291.07">
  <defs>
    <style>
      .cls-1 {
        fill: none;
      }

      .cls-2 {
        clip-path: url(#clippath);
      }

      .cls-3 {
        fill: #f3f9fb;
      }

      .cls-4 {
        fill: #f7fbfc;
      }

      .cls-5 {
        fill: #f8fcfd;
      }

      .cls-6 {
        fill: #66af66;
      }

      .cls-7 {
        fill: #f4fafb;
      }

      .cls-8 {
        fill: #f5fafb;
      }

      .cls-9 {
        fill: #fbfdfe;
      }

      .cls-10 {
        fill: #6e7c6e;
      }

      .cls-11 {
        opacity: .49;
      }

      .cls-12 {
        opacity: .8;
      }
    </style>
    <clipPath id="clippath">
      <rect class="cls-1" width="650.88" height="291.07"/>
    </clipPath>
  </defs>
  <g id="_лягушки" data-name="лягушки">
    <g class="cls-2">
      <g>
        <g class="cls-11">
          <path class="cls-10" d="M194.02,231.78c-35.32,.11-77.75-7.39-108.18-24.48-5.07-3.8-7.61-7.59-12.68-9.49-5.07-5.7-7.61-9.49-12.68-13.29-7.61-13.29-10.14-30.37,2.54-41.77,48.19-39.87,116.66-56.95,185.14-64.55,103.98-11.39,213.04,13.29,286.55,68.41l-.87,1.37c-69.44,3.9-145.33,7.53-219.01,10.3l15.68,1.13c49.98-.66,91.1,2.75,140.96,5.46,27.96,1.52,56.69,3.74,81.52,13.47h0c-5.91,16.87-27.93,28.35-51.54,36.2-50.99,16.96-103.23,25.99-159.15,22.82-54.84-3.11-100.68-1.85-155.2-7.39"/>
          <path class="cls-10" d="M155.87,230.96c-11.27-1.6-20.38-3.57-29.4-5.78-1.41-.34-3.11-.23-4.86-.78-7-1.98-14.27-4.04-20.57-7.26-1.7-.91-3.45-1.7-5.13-2.62-1.69-.9-3.4-1.76-5.1-2.6-1.67-.91-3.34-1.78-5.02-2.62-.37-.19-.97-.44-1.42-.83-.4-.29-.78-.57-1.16-.86-.76-.57-1.5-1.16-2.22-1.73-2.75-2.21-5.09-4.4-7.75-5.54l-.86-.35-.41-.17c-.07-.03-.14-.05-.2-.09l-.15-.16-1.16-1.3-1.69-1.94c-1.12-1.29-2.21-2.58-3.33-3.81-1.51-1.66-3.01-3.08-4.41-5.05-.13-.18-.29-.37-.46-.56-.09-.1-.18-.2-.28-.3-.14-.12-.28-.25-.42-.38-.15-.13-.29-.26-.45-.39l-.23-.2-.14-.28c-.19-.37-.39-.75-.6-1.13-.73-1.23-1.51-2.48-2.4-3.49-.37-.38-.6-1.46-.84-2.2-.27-.81-.28-1.86-.57-2.41-1.68-3.1-2.59-6.66-2.86-10.32-.26-3.66,.16-7.39,1-10.99,.14-.92,.62-1.79,.89-2.68,.26-.9,.59-1.73,.59-2.63,0-.23,.2-.77,.45-1.29,.29-.5,.65-.99,.87-1.17,.61-.47,1.06-1.04,1.61-1.58,.54-.55,1.06-1.16,1.61-1.84,1.28-1.39,2.68-2.84,4.07-3.83l4.2-3.27c1.41-1.08,2.79-2.2,4.22-3.24l4.36-3c1.13-1.4,2.57-2.56,4.11-3.63,1.55-1.05,3.26-1.9,4.84-2.88,1.19-.72,2.42-1.37,3.66-2,1.25-.61,2.47-1.27,3.75-1.82,2.55-1.16,4.88-3.17,7.64-3.66,.44-.08,1.26-.83,1.93-1.21,3.11-1.6,6.26-3.48,9.36-4.61,1.58-.61,3.2-1.1,4.75-1.77l7.49-3.23c2.51-1.04,5.07-1.97,7.6-2.95,5.04-2.03,10.23-3.66,15.36-5.45,2.57-.88,5.19-1.6,7.78-2.41,2.6-.77,5.18-1.63,7.81-2.3,5.24-1.41,10.47-2.88,15.76-4.07,1.84-.44,3.61-.74,5.44-1.77,1.42-.83,4.78-1.51,6.35-1.38,2.53,.23,4.7-.53,6.99-.97,4.22-.72,8.44-1.6,12.67-2.29,2.52-.38,5.23-1.32,7.59-.67,.23,.06,1.02-.07,1.28-.21,2.64-1.43,5.47-1.04,8.29-1.28,2.04-.19,4.08-.49,6.24-1.27,2.1-.79,5.71-1.29,7.77-1.03,2.76,.35,5.19-.17,7.69-.46,14.82-1.57,29.71-2.43,44.6-2.69,1.76-.03,3.52-.13,5.27-.21l5.26-.24c3.51-.18,7.04-.2,10.59,.08,1.69,.13,3.56-.2,5.05,.6,.31,.16,1.67,.14,2.21,0,1.97-.53,3.89-.2,6.08-.05,9.91,.77,19.91,2.09,29.67,2.68,7.59,.53,14.95,1.79,22.37,2.98,2.47,.41,4.89,1.27,7.36,1.89,2.4,.58,4.86,1.03,7.31,1.48,1.45,.28,2.85,.82,4.4,.57,.83-.13,2.93,.25,3.71,.68,2.64,1.44,5.71,1.92,8.63,2.64,2.09,.51,4.16,1.09,6.23,1.65,2.07,.57,4.15,1.1,6.21,1.71,4.12,1.22,8.25,2.39,12.33,3.77,2,.67,4.39,.95,5.9,2.42,.21,.2,1.44,.33,2.2,.5,.81,.19,1.85,.28,2.39,.6,2.45,1.42,5.07,2.54,7.76,3.53l4.06,1.43c1.34,.5,2.68,1,4,1.54,12.74,5.24,25.34,10.91,37.37,17.63,1.67,.96,3.33,1.69,4.98,2.42,1.66,.72,3.29,1.44,4.88,2.44l4.66,2.8c1.56,.92,3.07,1.93,4.58,2.92,1.07,.71,2.23,1.35,3.31,2.06l.4,.27,.47,.35c.31,.24,.61,.48,.89,.73,.57,.5,1.07,1.01,1.44,1.54,.41,.58,2.1,1.72,3.1,2.13,.94,.39,1.85,.85,2.7,1.34,.67,.48,1.24,1,1.8,1.51,1.11,1.04,2.12,2.07,3.29,3.1l1.03,.95,.25,.24,.12,.12-.11,.16-.42,.65-.43,.65c-.19,.13-.5,.09-.74,.15l-1.53,.2c-2.02,.27-3.92,.56-5.65,1.19-.95,.36-3.32,.31-4.94,.49-.74,.08-1.35,.2-2.29,.21l-2.23,.09c-1.28,.06-2.57,.13-3.85,.22-1.23,.09-2.41,.48-3.64,.58-9.47,.74-18.93,1.5-28.42,2.09-9.66,.6-19.34,1.01-29.01,1.49-9.67,.48-19.34,1.02-29.02,1.36-3.63,.13-7.53,1.01-10.94-.04-3.31,.88-6.26,.57-9.22-.11-.42-.1-1.47,.3-2.24,.43-2.43,.43-4.71,1.75-7.47,.55-.1-.04-.44,.03-.66,.02-2.25-.09-3.76,1.32-6.66,.64-1.8-.42-4.68-.08-7.08-.02-2.47,.06-4.97,.12-7.42,.33-2.53,.23-5.32-.28-7.65,.82-.38,.18-2.27-.44-3.38-.35-5.65,.49-11.5-.19-17.02,1.22-1.26,.32-3.28,.38-4.65,.19-4.92-.67-9.48-.03-14.49,.48-3.44,.35-7.02,.64-10.57,.69l.11-6.37c3.23,.31,6.42,.82,9.46,1.64,1.35,.36,1.95,.61,3.37,.27,.47-.11,1.1-.12,1.77-.09,.31,.02,.62,.04,.93,.06,.31,0,.61,0,.9,0,14.44-.18,28.89,0,43.32,.41,3.93,.13,7.55,1.2,11.59,1.01,1.67-.08,3.59,.49,5.01-.27,.2-.1,.89-.14,1.2-.07,4.78,1.16,9.65,.05,14.43,.69,1.02,.14,2,.36,3.01,.51,1.04,.16,2.24,.46,3.13,.37,7.43-.76,14.97,.56,22.43,.71,2.54,.05,5.29,.74,7.61-.11,.35-.13,1.47-.05,1.95,.11,4.28,1.44,9.1,.81,13.58,1.38,2.3,.29,4.93-.21,6.95,.88,.25,.14,1.19,.09,1.77,.05,1.01-.06,2-.33,2.96-.26,2.68,.2,5.57,.9,7.95,.72,2.94-.23,5.7,.12,8.5,.29,1.61,.1,3.18,.67,4.81,.9,1.54,.21,3.14,.29,4.72,.42,2.25,.19,4.61,.28,6.72,.7,2.18,.49,4.07-.35,6.42,.66,1.79,.78,4.07,.11,6.18,.34,1.05,.11,2.14,.39,3.17,.65,.78,.22,1.49,.67,2.23,.77,1.68,.23,3.26,.69,5.13,.64,1.29-.05,3.38,.92,5.13,1.41,.87,.23,1.76,.44,2.65,.64l2.65,.66c1.77,.43,3.61,1.16,5.25,1.41,1.84,.24,3.57,.66,5.42,1.18,2.45,.67,4.76,1.66,7.1,2.56,.57,.23,1.19,.45,1.71,.7l-.75,1.75c-.52,1.15-.94,2.35-1.57,3.44l-1.75,3.32-1.74,2.57c-.27,.42-.56,.84-.88,1.25-.31,.41-.64,.83-.97,1.22-.34,.39-.69,.76-1.08,1.06-.4,.28-.83,.51-1.28,.66-.32,.11-1.1,.88-1.44,1.35-2.2,2.86-5.03,5.28-8.09,7.23-3.03,2.04-6.26,3.69-9.32,5.54-4.38,2.6-8.79,5.05-13.64,6.87-4.7,1.77-9.68,3.27-14.11,5.11-3.64,1.54-7.26,3.05-11.03,3.92-1.84,.44-3.51,1.34-5.22,2.09-1.72,.71-3.48,1.27-5.46,1.07-3.7,1.07-7.44,2.06-11.18,2.96-3.14,.78-6.3,1.86-9.57,1.77-1.19-.05-3.35,.51-4.52,1.02-3.78,1.69-7.65,2.34-11.78,2.6-.97,.07-2.09,.72-3.19,.94-3.33,.71-6.71,1.29-10.07,1.72-10.03,1.19-19.76,3.46-29.82,4.27-1.85,.16-3.84,1.05-5.49,.95-10.05-.36-20.24,1.02-30.18,.37-3.65-.32-7.3-.46-10.95-.67-3.63-.24-7.31-.38-10.91-.56-7.2-.37-14.4-.59-21.6-.97-1.87-.1-3.81-.91-4.71-.73-2.78,.54-5.92-.1-8.24,.3-4.18,.74-8.27,.03-12.36,.13-2.98,.08-6.17-.6-8.94,.32-.4,.13-1.43,.08-1.97-.05-4.36-1.06-8.74,.21-13.08-.36-8.29,.91-16.78-.16-25.17-.25-1.23-.02-2.44,.18-3.67,.26-.62,.04-1.36,.16-1.88,.06-7.55-1.53-15.46-1.04-23.15-1.86-2.54-.29-5.01-.8-7.54-1.09-2.56-.31-5.22-.24-7.57-1.18-.73-.29-2.22-.3-3.32-.3-5.95-.06-10.19-2.06-10.01-4.59,.06-.92,1.28-.86,2.57-1.08,2.51-.43,4.95-.62,7.91-.27,2.3,.24,4.8,.74,6.92,.03,.35-.12,1.4,0,1.95,.16,3.89,1.08,8.38,.77,12.09,1.55,2.85,.59,5.52,.64,8.26,.97,2.3,.26,4.72-.08,7,.84,.77,.31,3.08-.27,4.7-.24,3.82,.09,7.66,.21,11.46,.46,11.56,.8,23-.2,34.55,.46,8.28-.9,16.84,.37,25.1,.1,10-.32,19.95,.43,29.9,.69,2.05,.05,3.68,.16,5.46,.52,1.16,.24,2.39,.5,3.61,.56,4.69,.31,9.4,.2,14.09,.4,2.51,.06,5.32-.57,7.56,.48,.31,.14,1.45,.12,1.94-.02,2.05-.54,4.19-.77,6.37-.82,2.17-.08,4.37,.02,6.51-.2,1.64-.15,3.22-.21,5.02,.06,.98,.15,2.23,.16,3.48,.08,1.25-.11,2.51-.33,3.5-.61,1.5-.42,2.85-.55,4.29-.76,5.99-.94,12.39-.57,18.06-2.71,3.25,.73,7.02-.27,10.08-1.05,11.77-3.01,23.81-4.77,35.53-7.92,2.82-.79,5.81-1.01,8.7-1.72,3.03-.75,6.06-1.61,9.06-2.55,1.59-.51,3.57-.71,4.57-1.88,.07-.09,.35-.21,.52-.25,1.75-.38,3.58-.6,5.22-1.21,1.48-.53,2.69-1.51,4.15-2.14,1.75-.75,3.65-1.37,5.46-2.03,1.77-.61,3.57-1.48,5.25-1.32,1.06-1.34,3.2-1.74,4.91-2.48,1.59-.74,3.24-1.38,4.85-2.1,1.79-.84,3.6-1.64,5.33-2.56,1.77-.86,3.52-1.78,5.17-2.8,1.12-.72,2.16-1.53,3.23-2.3,1.05-.79,2.03-1.64,3.09-2.41,1.09-.84,2.13-1.72,3.23-2.55,1.01-.91,2.09-1.75,3.08-2.65l1.85-1.7c.61-.57,1.14-1.19,1.73-1.78,.28-.3,.59-.59,.85-.91l.76-.96,.38-.48c.13-.17,.26-.34,.33-.41,.19-.21,.26-.31,.38-.49,.38-.54,.43-1.08,.18-1.45-.07-.12-.2-.21-.32-.28-.01-.03-.1-.02-.17-.01h-.21c-.14,.02-.26,.03-.36,.03-.42,0-.45-.1-.45-.77,0-.13-.17-.23-.4-.3-.11-.03-.22-.06-.33-.09-.15-.04-.3-.08-.45-.12-.3-.07-.58-.13-.82-.16-1.89-.32-3.79-.62-5.65-1.09-1.87-.44-3.75-.9-5.61-1.41-3.76-.94-7.54-1.93-11.39-2.42-4.03-1.7-8.27-1.71-12.7-2.02-6.53-.44-13.46-.93-19.85-1.96-6.78-1.1-13.51-1.13-20.28-1.73-1.9-.17-3.99,.07-5.56-.87-.36-.21-1.81-.24-2.61-.16-5.56,.58-10.9,0-16.48-.9-2.94-.48-6.31-.32-9.6-.18-4.94,.2-10.27-.47-15.44-.77-2.17-1.17-3.97-.2-5.14,.19-1.56,.52-3,.55-4.81,.47-2.34-.1-4.63-.41-6.97,.16-1.2,.28-3.83,.09-5.08-.34-1.68-.57-2.33-.37-3.9-.12-1.85,.3-3.72-.75-6.04-.79-2.47-.06-5.37,.38-7.52-.79-.19-.1-.95-.12-1.3-.05-4.61,.97-9.12-.78-13.69-.38-6.8-.76-13.67-.91-20.54-.84-3.43,0-6.87,.1-10.3,.14l-2.67,.03c-.18,0-.36,0-.54-.02l-.35-.03-.64-.05-1.29-.1c-1.72-.14-3.43-.29-5.14-.47-2.68-.28-5.37-.7-8.05-1.06l.12-7.09c2.98,.07,5.95,.05,8.87-.32,11.69-1.49,23.48-1.23,35.21-1.91,2.48-.15,5.32-.75,7.61,.22,.32,.13,1.46,.07,1.95-.08,3.68-1.13,7.31-.99,11.08-.49,.92,.12,2.61,.03,3.15-.25,1.52-.79,3.35-.58,5.01-.64,2.01-.07,4.71,.45,5.89,.03,2.53-.9,4.01-.08,5.96-.03,1.21,.03,2.53-.23,3.78-.41,.59-.08,1.32-.44,1.67-.38,3.99,.72,7.81-.76,11.73-.57,.84,.04,1.73-.02,2.55,.05q9.29,.76,20.91-.4c3.25,1.14,6.9-.95,10.42-.13,1.28,.3,3.71,.1,5.28-.24,6.88-1.48,14.05-.95,21.02-1.64,1.45-.14,2.61,.67,4.43-.13,.69-.3,3.12,.34,4.71,.23,2.31-.16,4.76,.18,7.02-.78,.92-.39,3-.23,4.53-.38,2.1-.21,4.23,0,6.31-.81,1.14-.44,3.83-.6,5.17-.33,2.77,.54,5.39,.44,7.95,.1,.64-.09,1.28-.18,1.91-.29l.24-.04,.09-.03,.17-.07,.31-.14c.39-.19,.66-.37,.88-.51,.29-.16,.28-.3,1.03-.12,.53,.12,1.27,.25,1.88,.3,.28,0,.6,.11,.62-.13,.02-.17,.11-.37-.36-.49-2.58-.93-2.03-.93-3-1.56-.93-.58-1.76-1.17-2.63-1.78l-3.14-2.02-3.24-2.02c-2.49-1.5-4.97-2.99-7.46-4.5-2.51-1.47-5.12-2.79-7.85-3.94-2.95-1.19-6.79-2.81-9.32-5.4-.28-.28-1.82-.32-2.66-.73l-4.94-2.4-4.99-2.28c-3.31-1.57-6.69-2.97-10.03-4.47-1.53-.71-2.84-2.41-4.62-2.15-1.89,.29-2.85-2.16-4.56-1.58-.24,.07-1.68-.48-2.38-.86-7.6-4.25-16.33-6.14-24.53-9.04-1.98-.66-4.39-.89-5.71-2.3-2.68-.26-5.32-1.23-7.95-2.16-1.32-.46-2.64-.92-3.98-1.2-1.34-.28-2.69-.42-4.05-.31-1.82-.59-3.76-.94-5.67-1.32-1.92-.38-3.79-.86-5.45-1.83-.54-.31-1.87-.32-2.5-.64-2.15-1.03-3.93,.42-6.5-1.03-.74-.42-1.88-.7-3.12-.94-1.25-.21-2.6-.38-3.78-.61-2.19-.41-4.39-.81-6.59-1.16l-7.27-1.14c-2.42-.38-4.87-.74-7.29-.99-1.23-.12-2.46-.22-3.69-.28l-3.69-.15c-2.46-.1-4.92-.33-7.43-.68-.54-.08-1.48-.03-1.7,.13-1.84,1.34-4.26,.28-5.92-.32-1.39-.48-2.6-.73-4.16-.84-4.23-.26-8.46-.52-12.68-.77-2.5-.21-5.19,.23-7.55-.8-.73-.32-2.75-.31-3.89-.13-5.31,.92-10.81,.26-16.2,.52-2.44,.09-4.9,.09-7.35,.17-1.86,.04-3.69,.75-5.58,.2-8.99,1.66-18.28,1.44-27.39,2.58-4.52,.51-9.08,1.15-13.62,1.66l-13.62,1.79c-2.27,.32-4.71,1.22-6.88,.54-.41-.13-2.04,.15-2.49,.42-1.23,.75-2.17,1.19-3.78,.71-.3-.09-1.5,.29-2.14,.55-1.77,.73-3.42,.99-5.4,.98-1.54,0-3.58,.19-5,.66-3.78,1.36-7.34,2.61-11.45,2.39-.51-.04-1.68,.91-2.54,1.1-3.35,.66-6.61,2-10.12,2-1.44,0-3.35,.8-5.05,1.15-2.92,.63-5.52,1.87-8.61,2.42-3.12,.61-6.37,1.86-9.56,2.83-3.19,.97-6.31,2.13-9.48,3.18-1.57,.56-3.17,1.04-4.71,1.65l-4.66,1.79-4.66,1.79c-1.56,.58-3.06,1.3-4.59,1.94l-4.58,1.97c-1.53,.66-3.06,1.3-4.54,2.05l-8.96,4.34c-2.04,1.1-3.98,2.03-6.22,2.79-1.43,.49-2.91,1.08-4.43,1.78-1.49,.74-2.99,1.63-4.56,2.58-1.56,.96-3.18,2.02-4.84,3.17-1.66,1.16-3.27,2.55-4.99,3.96-.49,.41-1.08,.76-1.63,1.13-3.63,2.36-6.86,5.14-10.25,7.74l-1.26,.98c-.4,.33-.9,.65-1.17,.98l-.97,.96c-.33,.31-.66,.63-.94,1-.56,.73-1.24,1.39-1.7,2.19l-.77,1.15c-.26,.38-.43,.81-.66,1.21-1.52,2.82-2.73,6.04-2.74,9.55-.04,.57,0,1.14,.03,1.71,.04,.57,.03,1.13,.12,1.7,.2,1.13,.4,2.25,.98,3.32,.81,1.75,.76,4.63,2.42,6.45,.32,.32,.68,.99,.97,1.71,.3,.72,.62,1.49,.71,2.05,.09,.47,.2,.93,.36,1.37l.25,.67,.06,.17s0,.05,.01,.07l.03,.13c.02,.08,.04,.17,.08,.24l.17,.18,.12,.11,.32,.28,.65,.55c1.74,1.49,3.43,3.06,4.84,4.7,1.54,1.82,3.08,3.65,4.62,5.48l.96,1.1,.2,.21c.07,.06,.18,.08,.26,.12,.01,0,.06,.03,.05,.02l-.04-.02s.03,.02,.05,.02l.13,.06,.5,.24c.34,.15,.65,.33,.98,.51,.64,.35,1.26,.73,1.84,1.13,2.3,1.58,3.85,3.55,6.05,4.47,.54,.23,1.25,.82,1.95,1.47l.52,.5,.26,.25c.08,.08,.19,.18,.18,.19,.05,.08,.03,.11,.15,.22,.1,.09,.34,.27,.48,.39,2.02,1.61,4.29,2.81,6.58,3.59,4.86,1.81,4.86,1.65,9.35,4.16,.53,.31,1.15,.55,1.75,.77,5.93,2.32,12.08,4.67,18.19,5.92,2.56,.49,5.07,1.01,7.56,1.59,2.5,.53,5,1.07,7.51,1.6,2.01,.39,4.41,.41,5.92,1.72,.22,.19,1.37,.36,1.89,.32,4.42-.32,8.92,.92,13.35,1.47,2.15,.23,4.24,.26,6.33,.28,2.1-.01,4.2,0,6.39,.31,2.06,.24,4.15,.37,6.25,.49,2.1,.1,4.21,.11,6.3,.2,6.36,.13,7.73,.7,7.72,3.45-.01,2.26-1.65,2.73-6.9,3.14-11.16,.73-22.28-1.07-31.26-2.05Z"/>
        </g>
        <g class="cls-12">
          <g class="cls-12">
            <path class="cls-5" d="M596.98,159.04c-7.75,5.83-17.23,9.5-24.16,13.7-.78,.46-1.56,.93-2.36,1.41l1.28-.55c4.83-2.08,9.9-4.34,14.85-6.98,4.94-2.63,9.76-5.72,13.99-9.31,5.09-4.61,9.54-10.29,12.43-17.36,.34-.78,.09-1-.04-1.1-.48,.62-.92,1.12-1.35,1.56l-.41,1.05-.5,1.02c-.34,.67-.64,1.37-1.02,2.03-.77,1.3-1.53,2.62-2.45,3.83-.85,1.27-1.89,2.4-2.88,3.58-1.07,1.1-2.14,2.24-3.33,3.25-.39,.34-.77,.71-1.14,1.09-.38,.36-.75,.73-1.09,1.08-.69,.71-1.3,1.36-1.82,1.71Z"/>
            <polygon class="cls-8" points="611.76 140.2 611.67 140.28 611.35 141.13 611.76 140.2"/>
            <path class="cls-4" d="M603.78,152.64c-1.35,1.52-2.85,2.86-4.4,4.11-.93,.92-1.74,1.85-2.4,2.29-7.75,5.83-17.23,9.5-24.16,13.7-.77,.46-1.54,.92-2.33,1.39l1.38-.6c3.35-1.45,6.81-2.97,10.26-4.65,.18-.11,.36-.22,.53-.33,1.81-1.17,3.69-1.88,5.5-2.89,5.02-3.08,9.35-5.61,13.76-9.7,.39-.37,.78-.74,1.16-1.15,.36-.42,.73-.85,1.1-1.29,.77-.85,1.5-1.81,2.34-2.75,.58-.64,1.09-1.3,1.61-1.94,1.92-2.73,3.62-5.71,4.94-9.02,.34-.78,.09-1-.04-1.1-.25,.33-.49,.61-.73,.88l-.85,1.94-1,1.87-.5,.94-.58,.89c-.39,.59-.77,1.2-1.18,1.79-1.42,2.05-2.95,4.05-4.74,5.84,.09-.05,.2-.12,.34-.22Z"/>
            <path class="cls-8" d="M603.26,152.48c-.25,.25-.4,.72,.18,.39,1.8-1.79,3.33-3.8,4.74-5.84-1.45,1.93-3.03,3.81-4.92,5.46Z"/>
            <path class="cls-9" d="M602.75,151.43c-3.45,3.3-6.92,6.41-10.4,8.35-.9,.53-1.83,1-2.74,1.42-.9,.43-1.8,.81-2.66,1.11-.58,.33-1.15,.67-1.71,1-3.54,2.05-7.2,3.92-10.89,5.76-3.71,1.82-7.41,3.64-11.11,5.45-7.41,3.6-14.83,7.11-22.26,10.5-7.42,3.47-14.03,7.26-21.4,11.23-4.44,2.25-8.18,3.67-12.67,5.47-5.62,2.21-10.72,4.44-16,6.35-2.64,.94-5.33,1.78-8.14,2.46-2.81,.64-5.74,1.11-8.82,1.27-3.31,.06-3.84,1.27-3.01,1.32,10.68,.23,20.7-2.62,30.08-6.37,4.71-1.89,9.31-4,13.88-6.21,4.57-2.21,9.15-4.46,13.77-6.8,14.35-7.22,28.05-13.64,41.78-19.58,.79-.47,1.58-.94,2.36-1.41,6.93-4.2,16.41-7.87,24.16-13.7,.52-.35,1.13-1,1.82-1.71,.35-.35,.71-.72,1.09-1.08,.37-.38,.74-.75,1.14-1.09,1.2-1.01,2.26-2.14,3.33-3.25,.99-1.18,2.03-2.31,2.88-3.58,.93-1.21,1.68-2.53,2.45-3.83,.38-.65,.68-1.35,1.02-2.03l.5-1.02,.41-1.05c-.85,.95-1.79,1.56-2.63,2.46-1.57,3.2-3.7,6.17-6.24,8.57Z"/>
            <path class="cls-7" d="M602.75,151.43c2.55-2.4,4.67-5.37,6.24-8.57-.4,.45-.87,.92-1.36,1.51-2.59,3.44-5.71,6.77-9.24,9.82-3.54,3.03-7.47,5.77-11.44,8.12,.86-.31,1.75-.68,2.66-1.11,.91-.42,1.84-.89,2.74-1.42,3.48-1.94,6.95-5.04,10.4-8.35Z"/>
            <path class="cls-4" d="M602.75,151.43c2.43-2.29,4.48-5.1,6.04-8.12-.67,.96-1.32,1.9-1.98,2.85-1.76,2.4-3.8,4.61-5.99,6.65-2.23,2-4.65,3.8-7.17,5.38,2.64-1.82,5.14-3.81,7.46-5.98,2.32-2.17,4.35-4.62,6.07-7.25-2.56,3.33-5.62,6.57-9.09,9.49-3.46,2.93-7.27,5.58-11.12,7.85,.86-.3,1.75-.68,2.65-1.11,.91-.42,1.83-.88,2.73-1.41,3.48-1.94,6.95-5.04,10.4-8.35Z"/>
            <path class="cls-3" d="M595.42,157.91c3-2.07,5.85-4.38,8.37-7.03,2.52-2.65,4.66-5.69,6.21-9.03-.25,.22-.5,.45-.74,.69-.16,.26-.32,.51-.47,.77-1.56,3.02-3.61,5.83-6.04,8.12-3.45,3.3-6.92,6.41-10.4,8.35-.89,.53-1.82,.99-2.73,1.41-.9,.43-1.79,.8-2.65,1.11-.54,.31-1.07,.63-1.61,.94-3.62,2.09-7.35,4.01-11.12,5.88-3.79,1.86-7.57,3.71-11.34,5.56-6.41,3.53-13.62,6.91-20.65,10,3.25-1.56,6.5-3.15,9.75-4.78-3.63,1.71-7.25,3.4-10.89,5.05-3.14,1.47-6.14,3-9.12,4.57-.49,.56-1.37,1.26-3.02,2.15-2.58,1.38-5.18,2.6-7.74,4.14-.37,.17-.4-.07-1.14,.27,2.07-.97,3.7-1.93,5.06-2.87-1.79,.97-3.6,1.96-5.44,2.96-3.49,1.77-6.55,3.02-9.87,4.36l-1.04,.51c-1.73,.84-3.45,1.76-5.19,2.67,.73-.31,1.47-.6,2.24-.94-1.11,.65-2.62,1.28-3.75,1.74,.51-.27,1.01-.53,1.52-.79-1.75,.73-3.44,1.4-5.33,2.09,2.29-.83,4.55-1.93,6.41-2.88-4.12,1.82-7.92,3.44-12.18,4.57l.31-.14c-2.92,1.11-5.87,2.11-8.97,2.89-3.09,.78-6.33,1.37-9.75,1.53-3.31,.07-3.85,1.29-3.01,1.33,7.44,.17,14.6-1.23,21.41-3.32,6.82-2.1,13.29-4.95,19.69-7.95-1.52,.52-3.05,1.05-4.59,1.57-.66,.25-1.3,.48-1.92,.65,.64-.22,1.28-.44,1.92-.65,1.79-.68,3.69-1.61,5.61-2.36,.38-.09,1.5-.61,1.84-1.03,2.62-1.05,5.56-2.69,8.18-3.73,.15-.07,.44-.13,.77-.2,1.59-.8,3.19-1.6,4.8-2.4,8.97-4.51,17.68-8.71,26.31-12.68-2.12,.86-4.18,1.67-6.11,2.36-2.64,.88-7.79,3.73-12.22,5.98-1.1,.6-1.87,.7-2.99,1.22,3.63-2.48,8.87-4.5,13.31-6.75,5.92-2.94,14.51-6.44,20.76-9.97,2.57-1.47,5.2-2.43,7.45-3.23-.72,.52-2.21,1.21-2.95,1.56-6.68,3.12-13.36,6.25-20.03,9.54,7.08-3.05,13.74-6.42,20.83-9.39-4.07,1.99-8.19,3.57-11.86,5.72,.35-.11,.7-.22,1.05-.32,2.72-1.2,5.42-2.39,8.14-3.58,.79-.47,1.56-.93,2.33-1.39,6.93-4.2,16.41-7.87,24.16-13.7,.66-.44,1.47-1.37,2.4-2.29-2.41,1.96-5.02,3.59-7.62,5.28,1.09-.6,2.13-1.18,3.15-1.64-2.42,1.66-4.6,2.65-7.1,4.11,1.35-.84,2.65-1.66,3.95-2.47-.82,.44-1.66,.9-2.5,1.38-.86,.45-1.72,.91-2.59,1.37,3.17-2.07,6.48-3.35,9.38-5.94-.66,.47-1.31,.96-2,1.36,.7-.43,1.36-.93,2.04-1.4l-.04,.03c2.02-1.44,3.83-3.14,5.38-4.74-3.15,2.88-6.45,4.86-9.94,7.1-.58,.37-1.16,.74-1.74,1.11,.58-.39,1.16-.75,1.74-1.11,3.98-2.61,7.84-5.42,11.29-8.69,3.43-3.27,6.5-7.03,8.56-11.36l.33-.85c-.2,.2-.4,.41-.59,.6-1.68,3.55-4.01,6.8-6.71,9.63-2.71,2.84-5.77,5.27-8.95,7.4Z"/>
          </g>
        </g>
        <g>
          <path class="cls-6" d="M212.97,177.04c-35.32,.11-77.75-7.39-108.18-24.48-5.07-3.8-7.61-7.59-12.68-9.49-5.07-5.7-7.61-9.49-12.68-13.29-7.61-13.29-10.14-30.37,2.54-41.77,48.19-39.87,116.66-56.95,185.14-64.55,103.98-11.39,213.04,13.29,286.55,68.41l-.87,1.37c-69.44,3.9-145.33,7.53-219.01,10.3l15.68,1.13c49.98-.66,91.1,2.75,140.96,5.46,27.96,1.52,56.69,3.74,81.52,13.47h0c-5.91,16.87-27.93,28.35-51.54,36.2-50.99,16.96-103.23,25.99-159.15,22.82-54.84-3.11-100.68-1.85-155.2-7.39"/>
          <path class="cls-6" d="M174.81,176.22c-11.27-1.6-20.38-3.57-29.4-5.78-1.4-.34-3.11-.23-4.86-.78-7-1.98-14.27-4.04-20.57-7.26-1.7-.91-3.45-1.71-5.13-2.62-1.69-.9-3.4-1.76-5.1-2.6-1.67-.91-3.34-1.78-5.02-2.62-.37-.19-.97-.44-1.42-.83-.4-.29-.78-.57-1.16-.86-.76-.57-1.5-1.16-2.22-1.73-2.75-2.21-5.09-4.4-7.75-5.54l-.86-.35-.41-.17c-.07-.03-.14-.05-.2-.09l-.15-.16-1.16-1.3-1.69-1.94c-1.12-1.29-2.21-2.58-3.33-3.81-1.51-1.66-3.01-3.08-4.41-5.05-.13-.18-.29-.37-.46-.56-.09-.1-.18-.2-.28-.3-.14-.12-.28-.25-.42-.38-.15-.13-.29-.26-.45-.39l-.23-.2-.14-.28c-.19-.37-.39-.75-.6-1.13-.73-1.23-1.51-2.48-2.4-3.49-.37-.38-.6-1.46-.84-2.2-.27-.81-.28-1.86-.57-2.41-1.68-3.1-2.59-6.66-2.86-10.32-.26-3.66,.16-7.39,1-10.99,.14-.92,.62-1.79,.89-2.68,.26-.9,.59-1.73,.58-2.63,0-.23,.2-.77,.45-1.29,.29-.5,.65-.99,.87-1.17,.61-.47,1.06-1.04,1.61-1.58,.54-.55,1.06-1.16,1.61-1.84,1.28-1.39,2.68-2.84,4.08-3.83l4.2-3.27c1.41-1.08,2.79-2.2,4.22-3.24l4.36-3c1.13-1.4,2.57-2.56,4.11-3.63,1.55-1.05,3.26-1.9,4.84-2.88,1.19-.72,2.42-1.37,3.66-2,1.25-.61,2.47-1.27,3.75-1.82,2.55-1.16,4.88-3.17,7.64-3.66,.44-.08,1.26-.83,1.93-1.21,3.11-1.6,6.26-3.48,9.36-4.61,1.58-.61,3.2-1.1,4.75-1.77l7.49-3.23c2.51-1.04,5.07-1.97,7.6-2.95,5.04-2.03,10.23-3.66,15.36-5.45,2.57-.88,5.19-1.6,7.78-2.41,2.6-.77,5.18-1.63,7.81-2.3,5.24-1.41,10.47-2.88,15.76-4.07,1.84-.44,3.61-.74,5.44-1.77,1.42-.83,4.78-1.51,6.35-1.38,2.53,.23,4.7-.53,6.99-.97,4.22-.72,8.44-1.6,12.67-2.29,2.52-.38,5.23-1.32,7.59-.67,.23,.06,1.02-.07,1.28-.21,2.64-1.43,5.47-1.04,8.29-1.28,2.04-.19,4.08-.49,6.24-1.27,2.1-.79,5.71-1.29,7.77-1.03,2.76,.35,5.19-.17,7.69-.46,14.82-1.57,29.71-2.43,44.6-2.69,1.76-.03,3.52-.13,5.27-.21l5.26-.24c3.51-.18,7.04-.2,10.59,.08,1.69,.13,3.56-.2,5.05,.6,.31,.16,1.67,.14,2.21,0,1.97-.53,3.89-.2,6.08-.05,9.91,.77,19.91,2.09,29.67,2.68,7.59,.53,14.95,1.79,22.37,2.98,2.47,.41,4.89,1.27,7.36,1.89,2.4,.58,4.86,1.03,7.31,1.48,1.45,.28,2.85,.82,4.4,.57,.83-.13,2.93,.25,3.71,.68,2.64,1.44,5.71,1.92,8.63,2.64,2.09,.51,4.15,1.09,6.23,1.65,2.07,.57,4.15,1.1,6.21,1.71,4.12,1.22,8.25,2.39,12.33,3.77,2,.67,4.39,.95,5.9,2.42,.21,.2,1.44,.33,2.2,.5,.81,.19,1.85,.28,2.39,.6,2.45,1.42,5.07,2.54,7.76,3.53l4.06,1.43c1.34,.5,2.68,1,4,1.54,12.73,5.24,25.34,10.91,37.37,17.63,1.67,.96,3.33,1.69,4.98,2.42,1.66,.72,3.29,1.44,4.88,2.44l4.66,2.8c1.56,.92,3.07,1.93,4.58,2.92,1.07,.71,2.23,1.35,3.31,2.06l.4,.27,.47,.35c.31,.24,.61,.48,.89,.73,.57,.5,1.07,1.01,1.44,1.54,.41,.58,2.1,1.72,3.1,2.13,.94,.39,1.85,.85,2.7,1.34,.67,.48,1.24,1,1.8,1.51,1.11,1.04,2.13,2.07,3.29,3.1l1.03,.95,.25,.24,.12,.12-.1,.16-.43,.65-.43,.65c-.19,.13-.5,.09-.74,.15l-1.53,.2c-2.02,.27-3.92,.56-5.65,1.19-.95,.36-3.32,.31-4.94,.49-.74,.08-1.35,.2-2.29,.21l-2.23,.09c-1.28,.06-2.57,.13-3.85,.23-1.23,.09-2.41,.48-3.64,.58-9.47,.74-18.93,1.5-28.42,2.09-9.66,.6-19.34,1.01-29.01,1.49-9.67,.48-19.34,1.02-29.02,1.36-3.63,.13-7.53,1.01-10.94-.04-3.31,.88-6.26,.57-9.22-.11-.42-.1-1.46,.3-2.24,.43-2.44,.43-4.71,1.75-7.47,.55-.1-.04-.44,.03-.66,.02-2.25-.09-3.76,1.32-6.66,.64-1.8-.42-4.68-.08-7.07-.02-2.47,.06-4.97,.12-7.42,.33-2.53,.23-5.32-.28-7.65,.82-.38,.18-2.27-.44-3.38-.35-5.65,.48-11.5-.19-17.02,1.22-1.26,.32-3.28,.37-4.65,.19-4.92-.67-9.48-.03-14.49,.48-3.44,.35-7.02,.64-10.57,.69l.11-6.37c3.23,.31,6.42,.82,9.46,1.64,1.35,.36,1.95,.61,3.37,.27,.47-.11,1.1-.12,1.77-.09,.3,.02,.62,.04,.93,.06,.31,0,.61,0,.9,0,14.44-.18,28.89,0,43.32,.41,3.93,.13,7.55,1.2,11.59,1.01,1.67-.08,3.59,.49,5.01-.27,.2-.1,.89-.14,1.2-.07,4.78,1.16,9.65,.05,14.43,.69,1.02,.14,2,.36,3.01,.52,1.04,.16,2.24,.46,3.13,.37,7.43-.76,14.97,.56,22.43,.71,2.54,.05,5.29,.74,7.61-.11,.35-.13,1.47-.05,1.95,.11,4.28,1.44,9.1,.81,13.58,1.38,2.3,.29,4.93-.21,6.95,.88,.26,.14,1.19,.09,1.77,.05,1.01-.06,2-.33,2.96-.26,2.68,.2,5.57,.9,7.95,.72,2.94-.22,5.7,.13,8.5,.29,1.61,.1,3.18,.67,4.81,.9,1.54,.21,3.14,.29,4.72,.42,2.25,.19,4.61,.28,6.72,.7,2.18,.49,4.07-.35,6.42,.66,1.79,.78,4.07,.11,6.18,.34,1.05,.11,2.14,.39,3.17,.65,.78,.22,1.49,.67,2.23,.77,1.68,.23,3.26,.69,5.13,.64,1.29-.05,3.38,.92,5.13,1.41,.87,.23,1.76,.44,2.65,.64l2.65,.66c1.77,.43,3.61,1.16,5.25,1.41,1.84,.24,3.57,.66,5.42,1.18,2.45,.67,4.76,1.66,7.1,2.56,.57,.23,1.19,.45,1.71,.7l-.75,1.75c-.52,1.15-.94,2.35-1.57,3.44l-1.75,3.32-1.74,2.57c-.27,.42-.56,.84-.88,1.25-.31,.41-.64,.83-.97,1.22-.34,.39-.69,.76-1.07,1.06-.4,.28-.83,.51-1.28,.66-.32,.11-1.1,.88-1.44,1.35-2.2,2.86-5.03,5.28-8.09,7.23-3.03,2.04-6.26,3.69-9.32,5.54-4.38,2.6-8.79,5.05-13.64,6.87-4.7,1.77-9.68,3.27-14.11,5.11-3.64,1.54-7.26,3.05-11.03,3.92-1.84,.44-3.51,1.34-5.22,2.09-1.72,.71-3.48,1.27-5.46,1.07-3.7,1.07-7.44,2.06-11.18,2.96-3.14,.78-6.3,1.86-9.56,1.77-1.19-.05-3.35,.51-4.52,1.02-3.77,1.69-7.65,2.34-11.78,2.6-.97,.07-2.09,.72-3.19,.94-3.33,.71-6.71,1.29-10.07,1.72-10.03,1.19-19.76,3.46-29.82,4.27-1.85,.16-3.84,1.05-5.49,.95-10.05-.36-20.24,1.02-30.18,.37-3.65-.32-7.3-.46-10.95-.67-3.63-.24-7.31-.38-10.91-.56-7.2-.37-14.4-.59-21.6-.97-1.87-.1-3.81-.91-4.71-.73-2.78,.54-5.92-.1-8.24,.3-4.18,.74-8.27,.03-12.36,.13-2.98,.08-6.17-.6-8.94,.32-.4,.13-1.43,.08-1.97-.05-4.36-1.06-8.74,.21-13.08-.36-8.29,.91-16.78-.16-25.17-.25-1.23-.02-2.44,.18-3.67,.26-.62,.04-1.36,.16-1.88,.06-7.55-1.53-15.46-1.04-23.15-1.86-2.54-.29-5.01-.8-7.54-1.09-2.56-.31-5.22-.24-7.57-1.18-.73-.29-2.22-.3-3.32-.3-5.95-.06-10.19-2.06-10.01-4.59,.06-.92,1.28-.86,2.57-1.08,2.51-.43,4.95-.62,7.91-.27,2.3,.24,4.8,.74,6.92,.03,.35-.12,1.4,0,1.95,.16,3.89,1.08,8.38,.77,12.09,1.55,2.85,.59,5.52,.64,8.26,.97,2.3,.26,4.72-.08,7,.84,.77,.31,3.08-.27,4.7-.24,3.82,.09,7.66,.21,11.46,.46,11.56,.8,23-.2,34.55,.46,8.28-.9,16.84,.37,25.1,.1,10-.32,19.95,.43,29.9,.69,2.05,.05,3.69,.16,5.46,.52,1.16,.24,2.39,.5,3.61,.56,4.69,.31,9.4,.2,14.09,.4,2.51,.06,5.32-.57,7.56,.48,.31,.14,1.45,.12,1.94-.02,2.05-.54,4.19-.77,6.37-.82,2.17-.08,4.37,.02,6.52-.2,1.64-.15,3.22-.21,5.02,.06,.98,.15,2.23,.16,3.48,.08,1.25-.11,2.5-.33,3.5-.61,1.5-.42,2.85-.55,4.29-.76,5.99-.94,12.39-.57,18.06-2.71,3.25,.73,7.02-.27,10.08-1.05,11.77-3.01,23.81-4.77,35.53-7.92,2.82-.79,5.81-1.01,8.7-1.72,3.03-.75,6.06-1.61,9.05-2.55,1.59-.51,3.57-.71,4.57-1.88,.07-.09,.35-.21,.52-.25,1.75-.38,3.58-.6,5.22-1.21,1.48-.53,2.69-1.51,4.15-2.14,1.75-.75,3.65-1.37,5.46-2.03,1.77-.61,3.57-1.48,5.25-1.32,1.06-1.34,3.2-1.74,4.91-2.48,1.59-.74,3.24-1.38,4.85-2.1,1.79-.84,3.6-1.64,5.33-2.56,1.77-.86,3.52-1.78,5.17-2.8,1.12-.72,2.16-1.53,3.23-2.3,1.05-.79,2.03-1.64,3.09-2.41,1.09-.84,2.13-1.72,3.23-2.55,1.01-.91,2.09-1.75,3.08-2.65l1.85-1.7c.61-.57,1.14-1.19,1.73-1.78,.28-.3,.59-.59,.85-.91l.76-.96,.38-.48c.13-.17,.26-.34,.33-.41,.19-.21,.26-.31,.38-.49,.38-.54,.43-1.08,.18-1.45-.07-.12-.2-.21-.32-.28-.01-.03-.1-.02-.17-.01h-.21c-.14,.02-.25,.03-.36,.03-.42,0-.45-.1-.45-.77,0-.13-.17-.23-.4-.3-.11-.03-.22-.06-.33-.09-.15-.04-.3-.08-.45-.12-.3-.07-.58-.13-.82-.16-1.89-.32-3.79-.62-5.65-1.09-1.87-.44-3.75-.9-5.61-1.41-3.76-.94-7.54-1.93-11.38-2.42-4.03-1.7-8.27-1.71-12.7-2.02-6.53-.44-13.46-.93-19.85-1.96-6.78-1.1-13.51-1.13-20.28-1.73-1.9-.17-3.99,.07-5.56-.87-.36-.21-1.81-.24-2.61-.16-5.56,.58-10.9,0-16.48-.9-2.94-.48-6.31-.32-9.6-.18-4.94,.2-10.27-.47-15.44-.77-2.17-1.17-3.97-.2-5.14,.19-1.56,.52-3,.55-4.81,.47-2.34-.1-4.63-.41-6.97,.16-1.2,.28-3.83,.09-5.08-.34-1.68-.57-2.33-.37-3.9-.12-1.85,.3-3.72-.75-6.04-.79-2.47-.06-5.38,.38-7.52-.79-.19-.1-.95-.12-1.3-.05-4.61,.97-9.12-.78-13.69-.38-6.8-.76-13.67-.91-20.54-.84-3.43,0-6.87,.1-10.3,.14l-2.67,.03c-.18,0-.36,0-.54-.02l-.35-.03-.64-.05-1.29-.1c-1.72-.14-3.43-.29-5.14-.47-2.68-.28-5.37-.7-8.05-1.06l.12-7.09c2.98,.07,5.95,.05,8.87-.32,11.69-1.49,23.48-1.23,35.21-1.91,2.48-.15,5.32-.75,7.61,.22,.32,.13,1.46,.07,1.95-.08,3.68-1.13,7.31-.99,11.08-.49,.92,.12,2.61,.03,3.15-.25,1.52-.79,3.35-.58,5.01-.64,2.01-.07,4.71,.46,5.89,.03,2.53-.9,4.01-.08,5.96-.03,1.21,.03,2.53-.23,3.78-.41,.59-.08,1.32-.44,1.67-.38,3.99,.72,7.81-.76,11.73-.57,.84,.04,1.73-.02,2.55,.05q9.29,.76,20.91-.4c3.25,1.14,6.91-.95,10.42-.13,1.28,.3,3.71,.1,5.28-.24,6.88-1.48,14.05-.95,21.02-1.64,1.46-.14,2.61,.67,4.44-.13,.69-.3,3.12,.34,4.71,.23,2.31-.16,4.76,.18,7.02-.78,.92-.39,3-.23,4.53-.38,2.1-.21,4.23,0,6.31-.81,1.14-.44,3.83-.6,5.17-.34,2.77,.55,5.39,.44,7.95,.1,.64-.09,1.28-.18,1.91-.29l.24-.04,.09-.03,.17-.07,.31-.14c.39-.19,.66-.37,.88-.51,.29-.16,.28-.3,1.03-.12,.53,.12,1.27,.25,1.88,.3,.28,0,.6,.11,.62-.13,.02-.17,.11-.37-.36-.49-2.58-.93-2.03-.93-3-1.56-.93-.58-1.76-1.17-2.63-1.78l-3.14-2.02-3.24-2.02c-2.49-1.5-4.97-2.99-7.46-4.5-2.51-1.47-5.12-2.79-7.85-3.94-2.95-1.19-6.79-2.81-9.32-5.4-.28-.28-1.82-.32-2.66-.73l-4.94-2.4-4.99-2.28c-3.31-1.57-6.69-2.97-10.03-4.47-1.53-.71-2.84-2.41-4.62-2.15-1.89,.29-2.85-2.16-4.56-1.58-.24,.07-1.68-.48-2.38-.86-7.6-4.25-16.33-6.14-24.52-9.04-1.98-.66-4.39-.89-5.71-2.3-2.68-.26-5.32-1.23-7.95-2.16-1.32-.46-2.64-.92-3.98-1.2-1.34-.28-2.69-.42-4.05-.31-1.82-.59-3.76-.94-5.67-1.32-1.92-.38-3.79-.86-5.45-1.83-.54-.31-1.87-.33-2.5-.64-2.15-1.03-3.93,.42-6.5-1.03-.74-.42-1.87-.7-3.11-.94-1.25-.21-2.6-.38-3.78-.61-2.19-.41-4.39-.81-6.59-1.16l-7.27-1.14c-2.42-.38-4.87-.74-7.29-.99-1.23-.12-2.46-.22-3.69-.28l-3.69-.15c-2.46-.1-4.92-.33-7.43-.68-.54-.08-1.48-.03-1.7,.13-1.84,1.34-4.26,.28-5.92-.32-1.4-.48-2.6-.73-4.16-.84-4.23-.26-8.46-.52-12.68-.77-2.5-.2-5.19,.23-7.55-.8-.73-.32-2.75-.31-3.89-.13-5.31,.92-10.81,.26-16.2,.52-2.44,.09-4.9,.09-7.35,.17-1.86,.04-3.69,.75-5.58,.2-8.99,1.66-18.28,1.44-27.39,2.58-4.52,.51-9.08,1.15-13.62,1.66l-13.62,1.79c-2.27,.32-4.71,1.22-6.88,.54-.41-.13-2.04,.15-2.49,.42-1.23,.75-2.18,1.19-3.78,.71-.3-.09-1.5,.29-2.14,.55-1.77,.73-3.42,.99-5.4,.98-1.54,0-3.58,.19-5,.66-3.78,1.36-7.34,2.61-11.45,2.39-.51-.04-1.68,.91-2.54,1.1-3.35,.66-6.61,2-10.12,2-1.44,0-3.35,.8-5.05,1.15-2.92,.63-5.52,1.87-8.61,2.42-3.12,.61-6.37,1.86-9.56,2.83-3.19,.97-6.31,2.13-9.48,3.18-1.57,.56-3.17,1.04-4.71,1.65l-4.66,1.79-4.66,1.79c-1.56,.58-3.06,1.3-4.59,1.94l-4.58,1.97c-1.53,.66-3.06,1.3-4.54,2.05l-8.96,4.34c-2.04,1.1-3.98,2.03-6.22,2.79-1.43,.49-2.91,1.08-4.43,1.78-1.49,.74-2.99,1.63-4.56,2.58-1.56,.96-3.18,2.02-4.84,3.17-1.66,1.16-3.27,2.55-4.99,3.96-.49,.41-1.08,.76-1.63,1.13-3.63,2.36-6.86,5.14-10.25,7.74l-1.26,.98c-.4,.33-.9,.65-1.17,.98l-.97,.96c-.33,.31-.66,.63-.94,1-.56,.73-1.24,1.39-1.7,2.19l-.77,1.15c-.26,.38-.43,.81-.66,1.21-1.52,2.82-2.73,6.04-2.74,9.55-.04,.57,0,1.14,.03,1.71,.04,.57,.03,1.13,.12,1.7,.2,1.13,.4,2.25,.98,3.32,.81,1.75,.76,4.63,2.43,6.45,.32,.32,.68,.99,.97,1.71,.3,.72,.61,1.49,.71,2.05,.09,.47,.2,.93,.36,1.37l.24,.67,.06,.17s0,.05,.02,.07l.03,.13c.02,.08,.04,.17,.08,.24l.17,.18,.12,.11,.32,.28,.65,.55c1.74,1.49,3.43,3.06,4.84,4.7,1.54,1.82,3.08,3.65,4.62,5.48l.96,1.1,.2,.22c.07,.06,.18,.08,.26,.12,.01,0,.06,.03,.05,.02l-.04-.02s.03,.02,.05,.02l.12,.06,.5,.24c.34,.15,.65,.33,.98,.51,.64,.35,1.26,.73,1.84,1.13,2.3,1.58,3.85,3.55,6.05,4.47,.54,.23,1.25,.82,1.95,1.47l.52,.5,.26,.25c.08,.08,.19,.18,.18,.19,.05,.08,.03,.11,.15,.22,.1,.09,.34,.27,.48,.39,2.02,1.61,4.29,2.81,6.58,3.59,4.86,1.81,4.86,1.65,9.35,4.16,.53,.31,1.15,.55,1.75,.77,5.93,2.32,12.08,4.67,18.19,5.92,2.56,.49,5.07,1.01,7.56,1.59,2.5,.53,5,1.07,7.51,1.6,2.01,.39,4.41,.41,5.92,1.72,.22,.19,1.37,.36,1.89,.32,4.42-.32,8.92,.92,13.35,1.47,2.15,.23,4.24,.26,6.33,.28,2.1-.01,4.2,0,6.39,.31,2.06,.24,4.15,.37,6.25,.49,2.1,.1,4.21,.11,6.3,.2,6.36,.13,7.73,.7,7.71,3.45-.01,2.26-1.65,2.73-6.9,3.14-11.16,.73-22.28-1.07-31.26-2.05Z"/>
        </g>
        <g class="cls-12">
          <g class="cls-12">
            <path class="cls-5" d="M50.35,130.58c-1.6-1.73-2.74-3.88-3.74-5.93-.9-2.11-1.74-4.13-2.57-5.95-.18-.41-.41-.82-.57-1.24,.02,.23,.07,.46,.11,.68,.39,2.59,1.27,5.24,2.52,7.73,.34,.61,.62,1.25,1.02,1.84,.39,.58,.78,1.17,1.17,1.75,.88,1.1,1.75,2.18,2.79,3.1,2.6,2.25,5.76,3.73,9.2,5.03,.38,.16,.53-.12,.6-.26-.27-.32-.48-.63-.66-.94-2.73-.82-5.4-2.14-7.62-4.18-.66-.73-1.85-1.12-2.21-1.62Z"/>
            <polygon class="cls-8" points="60.28 136.45 60.25 136.39 59.84 136.26 60.28 136.45"/>
            <path class="cls-4" d="M53.9,133.39c-.4-.28-.79-.57-1.17-.87-.38-.3-.69-.67-1.03-1.01-.54-.35-1.13-.61-1.35-.93-1.6-1.73-2.74-3.88-3.74-5.93-.9-2.11-1.74-4.13-2.57-5.95-.18-.41-.4-.81-.57-1.23,.02,.25,.08,.49,.12,.73,.31,1.79,.77,3.62,1.48,5.39,.06,.09,.12,.18,.17,.26,.6,.9,.85,1.87,1.34,2.78,1.63,2.43,2.96,4.54,5.23,6.48,.42,.33,.91,.59,1.4,.88,.25,.14,.49,.29,.74,.45,.25,.15,.52,.3,.77,.48,.36,.23,.69,.47,1,.71,.71,.4,1.5,.67,2.24,1.04,.75,.36,1.57,.58,2.36,.93,.38,.16,.53-.12,.6-.27-.14-.17-.27-.33-.38-.5-.63-.26-1.24-.52-1.87-.78-.6-.32-1.19-.64-1.8-.96-.55-.24-1.04-.58-1.57-.88l-.78-.47-.72-.55c.02,.05,.05,.11,.1,.18Z"/>
            <path class="cls-8" d="M54.11,132.94c-.13-.11-.43-.07-.3,.26l.72,.55,.78,.47c.53,.3,1.02,.63,1.57,.88-.5-.28-.96-.65-1.43-.99-.23-.18-.46-.35-.7-.54-.22-.2-.42-.42-.63-.63Z"/>
            <path class="cls-9" d="M54.94,132.19c-1.68-1.42-3.34-2.83-4.27-4.44-.42-.89-.8-1.77-.92-2.63-.15-.26-.3-.52-.45-.78-.98-1.58-1.7-3.3-2.36-5.05-.56-1.78-1.05-3.59-1.26-5.45-.48-3.71-.24-7.45,.85-11.01,.98-3.57,1.77-6.98,3.3-10.59,1.07-2.06,2.35-3.46,3.85-5.15,3.77-4.14,6.12-8.57,10.2-12.83,1.1-1.13,.43-2.22,.13-1.97-1.79,1.74-3.52,3.46-5.22,5.21-1.67,1.77-3.3,3.55-4.83,5.42-3.05,3.75-5.76,7.85-7.59,12.52-1.42,3.61-2.41,7.25-2.94,10.93-.52,3.69-.48,7.39,.02,11.06,.17,.43,.39,.83,.57,1.24,.84,1.83,1.67,3.84,2.57,5.95,1,2.06,2.15,4.2,3.74,5.93,.37,.5,1.55,.89,2.21,1.62,2.22,2.04,4.89,3.36,7.62,4.18-.37-.65-.62-1.21-.98-1.76-.76-.32-1.57-.56-2.28-.98-.36-.21-.71-.43-1.05-.66-.17-.12-.34-.23-.5-.35-.15-.14-.29-.28-.44-.42Z"/>
            <path class="cls-7" d="M54.94,132.19c.15,.14,.3,.28,.44,.42,.16,.12,.33,.24,.5,.35,.34,.23,.69,.45,1.05,.66,.71,.42,1.52,.67,2.28,.98-.17-.28-.37-.54-.64-.78-1.6-1.18-3.2-2.46-4.74-3.88-1.57-1.39-2.94-3.08-4.08-4.83,.13,.87,.5,1.75,.92,2.63,.93,1.61,2.59,3.01,4.27,4.44Z"/>
            <path class="cls-4" d="M54.94,132.19c1.12,1.08,2.58,1.81,4.06,2.34-.44-.31-.89-.59-1.36-.85-2.32-1.43-4.48-3.28-5.92-5.6,1.79,2.28,4.01,4.24,6.58,5.54-.2-.14-.4-.28-.59-.42-.19-.16-.38-.32-.57-.47-.38-.31-.78-.61-1.18-.9-.72-.69-1.56-1.26-2.27-2.01-1.52-1.36-2.85-3-3.95-4.7,.13,.86,.5,1.74,.92,2.62,.93,1.61,2.59,3.01,4.27,4.44Z"/>
            <path class="cls-3" d="M51.56,129.17c2.03,2.69,4.78,4.98,8.07,6.07-.09-.16-.18-.31-.28-.46-.12-.08-.23-.17-.35-.25-1.48-.53-2.94-1.26-4.06-2.34-1.68-1.42-3.34-2.83-4.27-4.44-.42-.88-.79-1.76-.92-2.62-.14-.25-.28-.49-.42-.73-1-1.61-1.74-3.37-2.4-5.15-.57-1.82-1.06-3.67-1.26-5.57-.81-3.25-.56-6.98,.49-10.32-.15,.81-.34,1.61-.44,2.43-.07,.81-.2,1.62-.19,2.44,.04-.9,.24-1.79,.35-2.68,.2-.89,.39-1.77,.64-2.64,.41-1.51,.79-2.96,1.2-4.48-.16-.39-.21-.95,.04-1.79,.43-1.29,1.01-2.49,1.43-3.85,.09-.17,.28-.02,.47-.36-.51,.94-.8,1.78-.87,2.58,.28-.91,.67-1.78,1.03-2.69,.41-.81,.88-1.52,1.34-2.19,.5-.65,1.03-1.27,1.56-1.91l.29-.45c.49-.75,.9-1.58,1.35-2.39-.23,.29-.48,.57-.71,.89,.24-.57,.74-1.16,1.1-1.61-.13,.24-.26,.48-.38,.72,.56-.69,1.1-1.35,1.74-2.06-.77,.85-1.38,1.87-1.87,2.72,1.26-1.69,2.4-3.27,3.96-4.66l-.07,.15c1.74-2.39,3.47-4.85,5.73-7.2,1.1-1.13,.44-2.23,.13-1.97-4.97,4.84-9.69,9.6-13.47,15.28,.55-.56,1.15-1.07,1.72-1.61,.23-.25,.46-.48,.71-.67-.24,.22-.48,.44-.71,.67-.62,.67-1.18,1.51-1.82,2.27-.17,.11-.51,.6-.44,.92-.86,1.06-1.51,2.55-2.28,3.67-.04,.07-.16,.16-.31,.26-.37,.78-.69,1.58-1.02,2.38-1.73,4.53-2.92,9.07-3.21,13.71,.09-.55,.19-1.1,.3-1.62,.14-.52,.3-1.02,.47-1.49,.46-1.27,.72-4.05,1.34-6.36,.13-.59,.47-.85,.67-1.4-.07,2.15-1.19,4.56-1.48,6.92-.07,.78-.21,1.63-.33,2.52-.05,.9-.2,1.85-.19,2.81,0,.96-.02,1.93,.13,2.86,.06,.47,.13,.93,.21,1.37,.09,.44,.23,.87,.37,1.27,.42,1.34,.57,2.65,.62,3.83-.27-.35-.45-1.12-.55-1.51-.83-3.45-1.11-6.99-.94-10.54-.56,3.68-.03,7.29,.56,10.98-.66-2.13-.58-4.3-1.13-6.3-.04,.17-.07,.36-.1,.54,.04,.73,.08,1.45,.12,2.19,.08,.72,.17,1.45,.25,2.18,.17,.42,.39,.82,.57,1.23,.84,1.83,1.67,3.84,2.57,5.95,1,2.06,2.15,4.2,3.74,5.93,.22,.32,.81,.58,1.35,.93l-.76-.82c-.24-.29-.45-.59-.68-.89-.44-.59-.91-1.17-1.3-1.81,.25,.55,.52,1.07,.73,1.58-.48-.53-.78-1.11-1.07-1.68-.29-.58-.61-1.12-.95-1.74,.4,.64,.89,1.21,1.29,1.84-.41-.8-.9-1.6-1.27-2.47,.28,.36,.49,.75,.71,1.13,.23,.37,.43,.76,.64,1.14,.39,.79,.93,1.5,1.66,2.08-.25-.3-.48-.61-.7-.92l.72,.94h-.02c.36,.46,.82,.84,1.26,1.21,.45,.36,.86,.74,1.33,1.01-.76-.67-1.35-1.43-1.94-2.17-.27-.39-.54-.78-.81-1.17-.29-.38-.56-.77-.83-1.18l-.57-.78c.2,.26,.39,.52,.57,.78,1.35,1.78,2.77,3.52,4.47,4.98,.8,.8,1.75,1.4,2.65,2.09,.98,.55,1.93,1.2,3,1.59l.41,.13c-.08-.14-.16-.28-.24-.42-3.44-1.4-6.42-3.87-8.45-6.79Z"/>
          </g>
        </g>
        <g class="cls-12">
          <g class="cls-12">
            <path class="cls-5" d="M87.62,158.7c-1.19-.8-1.93-2.32-3.37-2.45-.15-.02-.31-.04-.47-.06l.13,.17c1,1.32,2.27,2.48,3.64,3.35,.93,.44,2.06,.66,2.87,1.43,.09,.09,.3-.15,.41-.26,.04-.23,.11-.45,.18-.68-.81-.44-1.69-.79-2.43-1.37-.23-.21-.82-.01-.95-.14Z"/>
            <polygon class="cls-8" points="91.01 160.26 91.02 160.22 90.9 160.15 91.01 160.26"/>
            <path class="cls-4" d="M88.98,159.23c-.29-.12-.54-.29-.76-.49-.24,0-.51,.05-.6-.03-1.19-.8-1.93-2.32-3.37-2.45-.15-.02-.31-.04-.47-.05,.05,.06,.09,.12,.14,.19,.35,.45,.72,.89,1.13,1.31l.1,.02c.38,.03,.46,.42,.68,.63,.79,.41,1.23,1.03,2.02,1.45,.28,.15,.76,.07,1.03,.33,.1,.07,.19,.16,.27,.25,.46,.2,.91,.44,1.28,.8,.09,.09,.3-.15,.41-.26,.02-.12,.05-.24,.08-.36-.29-.31-.62-.57-.94-.86-.34-.17-.68-.35-1-.56,0,.03,0,.06,0,.1Z"/>
            <path class="cls-8" d="M89.25,158.83s-.23,.1-.27,.3c.32,.21,.66,.38,1,.56-.27-.24-.53-.51-.74-.85Z"/>
            <path class="cls-9" d="M89.98,158.01c-.49-.58-1.31-.69-1.61-1.3-.17-.3-.28-.68-.31-1.09-.09-.06-.17-.12-.25-.18-2.16-1.34-4.24-2.75-6.05-4.51-.96-.82-2.22-1.05-3.47-1.47-.68-.35-.97-1-1.46-1.6-1.18-1.56-3.26-1.33-5.06-1.98-.49-.18-1.22,.85-1.12,.92,2.92,1.25,5.06,3.36,7.83,4.85,2.13,1.19,3.88,2.69,5.3,4.54,.16,.01,.32,.03,.47,.06,1.44,.13,2.18,1.65,3.37,2.45,.14,.13,.73-.08,.95,.14,.74,.57,1.62,.92,2.43,1.37,.15-.47,.33-.93,.4-1.32-.55-.21-1.09-.43-1.42-.89Z"/>
            <path class="cls-7" d="M89.98,158.01c.33,.45,.87,.67,1.42,.89,.03-.19,.04-.36,0-.51-.62-1.41-2.16-1.97-3.35-2.77,.03,.41,.14,.79,.31,1.09,.3,.61,1.12,.72,1.61,1.3Z"/>
            <path class="cls-4" d="M89.98,158.01c.32,.43,.82,.65,1.35,.86-.1-.17-.21-.32-.34-.45-.68-.65-1.47-1.18-2-2,.78,.63,1.55,1.27,2.37,1.84-.67-1.31-2.15-1.86-3.3-2.64,.03,.41,.14,.79,.31,1.09,.3,.61,1.12,.72,1.61,1.3Z"/>
            <path class="cls-3" d="M88.68,157.21c.78,.83,1.59,1.6,2.63,2.14,.04-.12,.07-.24,.09-.35-.03-.05-.05-.09-.07-.14-.52-.2-1.03-.42-1.35-.86-.49-.58-1.31-.69-1.61-1.3-.17-.3-.28-.67-.31-1.09-.08-.06-.16-.11-.24-.17-1.1-.69-2.18-1.39-3.22-2.15-1.13-.35-2.04-1.15-2.83-2.06,.44,.33,.9,.64,1.38,.92-.47-.39-.93-.8-1.37-1.23-.4-.35-.86-.59-1.35-.78-.25,.18-.53,.29-.81,.19-.43-.16-.77-.44-1.3-.47-.05-.04,.1-.23,0-.31,.27,.22,.59,.26,.94,.19-.32-.1-.64-.2-.94-.3-.53-.28-.83-.73-1.17-1.21-.06-.03-.11-.05-.16-.08-.26-.13-.59-.19-.92-.23,.09,.08,.19,.15,.29,.23-.24,0-.44-.15-.58-.27,.1,.01,.2,.02,.29,.03-.23-.18-.44-.36-.69-.55,.29,.23,.68,.34,1.02,.41-.58-.37-1.17-.63-1.62-1.19h.07c-.97-.28-2.06-.37-3.06-.74-.49-.18-1.22,.85-1.12,.92,2.04,.87,3.7,2.17,5.46,3.37-.1-.28-.21-.55-.32-.82-.07-.09-.12-.2-.14-.33,.05,.11,.1,.22,.14,.33,.18,.25,.46,.41,.63,.7,0,.1,.15,.22,.34,.07,.24,.4,.77,.53,1.01,.93,.02,.02,.02,.1,0,.19,.23,.14,.47,.27,.71,.4,1.33,.74,2.51,1.61,3.56,2.6-.19-.32-.36-.66-.48-1.01-.13-.53-1.04-.79-1.71-1.15-.19-.06-.14-.32-.28-.44,.92-.16,1.34,.72,2,1.09,.86,.53,1.63,1.84,2.77,2.12,.48,.11,.65,.58,.78,1.01-.19,.04-.38-.13-.47-.21-.83-.75-1.67-1.49-2.62-2.1,.74,.96,1.73,1.52,2.41,2.55-.56-.39-.87-1.09-1.58-1.2,0,.08,.02,.16,.03,.23,.31,.34,.6,.69,.88,1.06,.16,.01,.32,.03,.47,.05,1.44,.13,2.18,1.65,3.37,2.45,.09,.08,.36,.03,.6,.03-.35-.31-.65-.67-1.01-.96,.1,.17,.17,.37,.2,.61-.37-.24-.44-.73-.81-.96,.23,.09,.43,.21,.61,.35-.15-.26-.36-.48-.54-.72,.62,.14,.62,.99,1.33,1.02-.1-.07-.19-.16-.26-.25l.27,.26h0c.3,.22,.69,.33,1.04,.43-.51-.39-.77-1.01-1.27-1.39-.09-.05-.18-.11-.27-.16,.1,.05,.19,.1,.27,.16,1.23,.79,2.13,1.98,3.14,3.02l.12,.07,.1-.32c-.87-.83-1.7-1.74-2.45-2.69Z"/>
          </g>
        </g>
      </g>
    </g>
  </g>
</svg>