<?xml version="1.0" encoding="UTF-8"?>
<svg id="_Слой_2" data-name="Слой 2" xmlns="http://www.w3.org/2000/svg" xmlns:xlink="http://www.w3.org/1999/xlink" viewBox="0 0 576.85 244.13">
  <defs>
    <style>
      .cls-1 {
        fill: none;
      }

      .cls-2 {
        clip-path: url(#clippath);
      }

      .cls-3 {
        fill: #f3f9fb;
      }

      .cls-4 {
        fill: #f7fbfc;
      }

      .cls-5 {
        fill: #f8fcfd;
      }

      .cls-6 {
        fill: #66af66;
      }

      .cls-7 {
        fill: #f4fafb;
      }

      .cls-8 {
        fill: #f5fafb;
      }

      .cls-9 {
        fill: #fbfdfe;
      }

      .cls-10 {
        fill: #6e7c6e;
      }

      .cls-11 {
        opacity: .49;
      }

      .cls-12 {
        opacity: .8;
      }
    </style>
    <clipPath id="clippath">
      <rect class="cls-1" width="576.85" height="244.13"/>
    </clipPath>
  </defs>
  <g id="_лягушки" data-name="лягушки">
    <g class="cls-2">
      <g class="cls-11">
        <path class="cls-10" d="M193.43,230.62c30.29-30.97,68.45-59.1,103.84-85.92-27.57,24.44-46.02,57.31-55.65,90.1l1.72,1.03c101.64,2.88,180.8-.12,264.82-48.57,12.21-7.04,24.51-16.23,26.55-28.61,3.09-18.7-18.03-33.43-37.54-42.6-43.85-20.62-114.2-32.43-163.82-38.72l-5.9-1.1c-44.61-2.59-79.33-1.06-123.64,4.03s-88.45,18.48-121.3,44.14c-22.29,17.42-38.86,46.72-22.12,68.12,4.79,6.12,21.69,33.8,135.67,39.79"/>
        <path class="cls-10" d="M215.08,207.55c7.05-6.23,12.94-11.15,18.77-16.12,.9-.78,1.6-2.03,2.78-2.97,4.66-3.75,9.17-7.99,14.07-11.08,5.35-3.38,10.37-7.18,14.89-11.16,4.28-3.79,8.82-7.08,13.24-10.59,1.48-1.18,2.9-2.39,4.9-3.16,1.46-.56,3.69-2.19,4.85-4.03,.23-.36,1-.75,1.54-1.07,.58-.35,1.41-.56,1.74-.94,1.18-1.36,2.51-2.57,3.91-3.71l3.14,3.83c-1.35,1.33-2.78,2.58-4.21,3.84-1.44,1.25-2.77,2.62-4.04,4-.46,.51-1.02,.98-1.5,1.48-.46,.52-.83,1.1-.95,1.79-.06,.36-.94,1.37-1.35,1.54-1.06,.46-1.9,1.17-2.75,2.18-1.82,2.2-3.73,4.32-5.46,6.59l-2.65,3.36-2.53,3.46c-.86,2.81-2.91,5.2-4.61,7.66-1.2,1.89-2.68,3.6-4.04,5.4-1.31,1.86-1.97,4.28-3.82,5.73-.29,.24-.47,1.14-.75,1.7-.62,1.28-1.25,2.59-1.87,3.88-.61,1.3-1.22,2.56-1.97,3.69-.76,1.16-1.54,2.31-2.09,3.57-1.87,4.02-3.62,8.11-5.23,12.24-.77,2.08-1.62,4.13-2.31,6.24l-1.09,3.15c-.2,.59-.33,.92-.43,1.29l-.34,1.11-.69,2.22-.17,.56c-.08,.11,.09,.13,.15,.19l.25,.15,.5,.3,.25,.15c.09,.02,.19,.01,.29,.02l5.01,.12,13.42,.3c1.56,.02,3.04,.16,4.7-.4,1.3-.44,4.11-.42,5.35,.06,1.99,.77,3.88,.5,5.8,.57,3.53,.1,7.08-.03,10.62,.06,2.1,.05,4.43-.46,6.28,.56,.18,.1,.85,.1,1.07,0,2.32-1,4.59-.24,6.93-.14,1.69,.07,3.39,.02,5.24-.49,1.79-.51,4.79-.61,6.47-.17,2.24,.59,4.28,.29,6.36,.21l9.22-.33c3.07-.15,6.13-.37,9.2-.56,3.07-.21,6.14-.38,9.2-.63l9.17-.92c1.45-.15,2.88-.35,4.31-.57l2.14-.34,2.13-.42c2.84-.56,5.69-1.07,8.62-1.27,1.39-.1,2.85-.67,4.19-.13,.28,.11,1.38-.11,1.79-.37,1.48-.89,3.08-.92,4.86-1.19,2.02-.3,4.05-.6,6.08-.9,2.03-.32,4.07-.55,6.07-1,4.01-.82,8-1.73,11.85-2.86,.75-.21,1.5-.42,2.25-.63l2.23-.68c1.48-.44,2.97-.85,4.45-1.25,2.97-.8,5.94-1.56,8.9-2.41,1.94-.66,4.06-.82,6.09-1.34,1.96-.51,3.91-1.17,5.85-1.81,1.15-.39,2.38-.56,3.34-1.45,.51-.49,2.11-1.18,2.86-1.19,2.51-.02,4.79-1.21,7.11-2.04l4.97-1.8c1.66-.59,3.26-1.35,4.89-2.02l9.75-4.11c1.62-.63,3.17-1.87,4.94-1.76,.24,.02,1.02-.67,1.56-1.03,.57-.38,1.22-.97,1.72-1.07,2.3-.48,4.47-1.4,6.59-2.44,1.06-.53,2.11-1.06,3.15-1.63,1.02-.6,2.04-1.19,3.07-1.74l7.49-4.04c2.49-1.36,5-2.69,7.4-4.17,4.8-2.94,9.47-6.12,13.57-9.88,2.3-2.12,3.55-4.63,5.21-6.99,1.62-2.31,2.78-4.87,3.54-7.49,.53-1.9,.38-3.91,1.21-5.75,.26-.51,.1-1.98-.2-2.53-1.18-2.03-1.46-4.38-2.6-6.45-.66-1.25-1.33-2.53-2.12-3.75-.82-1.19-1.76-2.32-3.05-3.08-.67-.42-1.29-1.84-2.1-2.71-1.38-1.5-2.89-2.92-4.52-4.19-.78-.61-1.74-.95-2.55-1.53-6.23-4.43-13.11-7.98-20.11-11.22l-5.43-2.37c-1.81-.79-3.6-1.62-5.46-2.32-3.69-1.45-7.35-2.97-11.13-4.23l-5.63-1.96-5.69-1.8c-3.78-1.25-7.62-2.32-11.43-3.48-2.86-.9-6.18-1.01-8.54-2.9-2.85,0-5.07-1.06-7.23-2.4-.31-.2-1.24-.07-1.89-.12-2.04-.17-4.19,.56-6.05-1.26-.07-.07-.36-.07-.53-.13-1.77-.59-3.33,.44-5.46-.87-1.33-.81-3.7-1.14-5.62-1.59-1.99-.46-4-.93-6.01-1.23-2.07-.31-4.19-1.4-6.32-.78-.34,.1-1.72-.88-2.63-1-2.32-.32-4.62-.94-6.93-1.43-2.32-.47-4.65-.82-7.02-.64-1.09,.08-2.72-.25-3.78-.67-3.84-1.51-7.65-1.72-11.8-2.06-5.46-.44-11.25-1.18-16.37-3.18-1.09-.43-1.56-.71-2.76-.44-.79,.18-2.09-.07-3.15-.21l-8.87-1.21-4.47-.58c-1.49-.22-2.98-.33-4.46-.65l-4.43-.83c-.31-.07-1.25-.08-1.95-.13l-2.23-.12c-2.97-.17-5.95-.3-8.92-.42-3.24-.15-6.22-1.18-9.56-.93-1.37,.1-2.97-.41-4.13,.37-.16,.11-.73,.16-.99,.1-3.97-1.03-7.96,.28-11.91-.13-.85-.08-1.66-.26-2.5-.35-.86-.1-1.87-.33-2.6-.19-6.08,1.19-12.36,.47-18.51,.99-2.09,.19-4.42-.25-6.24,.82-.27,.16-1.2,.2-1.61,.09-3.65-1.01-7.55,.13-11.28,.08-1.92-.05-4.02,.78-5.8-.07-.23-.11-.99,.05-1.46,.15-.82,.18-1.6,.56-2.39,.61-2.21,.14-4.67-.19-6.58,.29-2.37,.61-4.65,.67-6.96,.91-1.32,.14-2.68-.17-4.04-.13-1.28,.03-2.59,.25-3.89,.38-1.85,.18-3.76,.58-5.54,.56-1.84-.01-3.19,1.14-5.26,.71-1.59-.33-3.24,.82-4.94,1.15-.84,.16-1.77,.15-2.64,.18-.66,.02-1.33-.21-1.93-.09-1.36,.26-2.72,.29-4.12,.93-.97,.43-2.85,.2-4.32,.39-1.46,.19-2.92,.5-4.39,.76-1.47,.24-3.07,.4-4.34,.88-2.8,1.08-5.7,1.77-8.6,2.47l-4.39,.96c-1.45,.35-2.9,.72-4.33,1.13-1.47,.43-3.1,1.18-4.6,.74-.27-.08-1.11,.16-1.52,.38-2.55,1.4-5.31,2.21-8.07,3.12-2.77,.86-5.59,1.6-8.21,2.79-1.87,.84-3.74,1.64-5.57,2.55-1.84,.89-3.69,1.74-5.64,2.48-1.88,.74-3.77,1.54-5.64,2.34-1.88,.79-3.66,1.74-5.31,2.8-1.35,.87-2.71,1.71-4.06,2.52-1.34,.84-2.7,1.62-4.12,2.27-2.83,1.24-4.38,4.33-7.71,4.61-1.35,.78-2.6,1.7-3.9,2.56-1.28,.87-2.58,1.72-3.88,2.57-2.13,1.52-4.04,3.39-6.59,4.25-.9,.33-2.29,1.47-2.86,2.34-1.86,2.78-4.25,4.69-6.82,6.74-.6,.5-.96,1.48-1.52,2.16-1.76,2.03-3.38,4.18-5.05,6.25-4.98,6.23-7.73,13.73-9.3,20.96-.3,1.36,.16,2.93-.14,4.07-.48,1.76-.6,3.58-.57,5.38,.12,1.79,.37,3.58,.92,5.28,.99,3.44,2.79,6.51,4.68,9.56,.36,.58,.83,1.29,1.23,1.88,.4,.56,.79,1.14,1.2,1.69,.87,1.05,1.71,2.13,2.72,3.08,.49,.48,.96,.99,1.48,1.45l1.62,1.33c.55,.44,1.07,.9,1.64,1.31l1.76,1.19,1.76,1.19c.58,.41,1.24,.72,1.85,1.08l3.74,2.11,3.91,1.87c1.3,.64,2.58,1.29,3.94,1.82,1.39,.59,2.6,1.86,3.34,1.94,1.17,.09,2.25,.58,3.36,.92,1.1,.36,2.15,.73,3.11,.8,1.74,.12,3.34,.58,4.92,1.12,1.59,.5,3.19,1,4.82,1.34,2.38,.46,4.73,1.79,7.15,1.33,.35-.07,1.16,.13,1.57,.34,3.28,1.68,7.03,1.13,10.41,2.28,6.86,.03,13.5,2.14,20.35,2.7,1,.1,2-.01,3.01-.01,.51,0,1.12-.07,1.53,.07,1.5,.5,3.02,.89,4.57,1.18,1.56,.24,3.13,.41,4.72,.54,3.16,.27,6.34,.44,9.46,.91,2.06,.32,4.06,.86,6.14,1.09,2.09,.26,4.28,.11,6.2,.99,.6,.27,1.82,.24,2.72,.21,4.87-.17,8.39,1.66,8.33,4.2-.02,.92-1.03,.91-2.1,1.18-2.07,.52-4.11,.81-6.58,.58-1.92-.18-4-.61-5.77,.15-.3,.13-1.17,.04-1.63-.1-1.61-.52-3.36-.64-5.09-.81-1.72-.18-3.43-.33-4.96-.75-2.35-.65-4.57-.76-6.83-1.16-1.9-.34-3.94-.06-5.76-1.07-.61-.36-2.57,.08-3.91-.07-3.15-.35-6.33-.74-9.45-1.28-2.38-.37-4.73-.82-7.1-1.17-2.37-.35-4.74-.65-7.12-.95-2.39-.26-4.74-.69-7.1-1.15-2.36-.45-4.71-.96-7.05-1.56-3.48-.26-6.88-1.25-10.27-2.21-1.7-.45-3.35-1.1-5.02-1.65-1.67-.56-3.34-1.08-5.03-1.49-8.11-2.31-15.76-6.01-23.06-10.49-.75-.47-1.41-.91-2.03-1.38-.31-.23-.6-.47-.89-.72-.28-.27-.54-.56-.8-.86-.68-.79-1.39-1.63-2.21-2.3-1.5-1.4-3.04-2.77-4.39-4.34-.72-.75-1.35-1.56-1.98-2.36-.65-.83-1.16-1.51-1.77-2.4-1.31-1.77-3.11-3.72-3.04-5.96-.02-.29-.4-1.21-.7-1.56-1.23-1.45-1.9-3.3-2.35-5.19-.21-.95-.34-1.92-.47-2.89-.07-.97-.21-1.93-.27-2.89-.14-1.46-.08-2.88,.38-4.42,.54-1.66,.79-4.25,.83-6.05-.02-.69,.05-1.32,.17-1.93,.12-.61,.23-1.22,.38-1.84,.58-2.6,1.74-5.05,2.9-7.44,1.15-2.4,2.39-4.69,3.16-7.23,2.35-1.72,3.92-4.59,5.37-6.9,2.76-4.45,6.31-8.35,10.16-11.86,1.93-1.76,3.96-3.4,6.02-5,2.08-1.52,4.16-3.04,6.19-4.62,2.02-1.45,4.38-2.42,6.51-3.74,2.27-1.34,4.54-2.71,6.77-4.14,1.19-.77,2.83-1.18,3.38-2.45,.04-.09,.24-.25,.38-.31,1.39-.61,2.87-1.08,4.14-1.83,1.16-.64,2-1.68,3.14-2.42,1.37-.86,2.86-1.68,4.36-2.37,1.45-.67,2.94-1.55,4.42-1.41,.77-1.35,2.64-1.7,4.09-2.34,1.37-.63,2.8-1.16,4.21-1.73,1.57-.67,3.18-1.22,4.78-1.82,1.6-.58,3.24-1.11,4.79-1.77,2.16-.84,4.22-1.87,6.4-2.69,2.3-.86,4.7-1.51,7.07-2.13l2.24-.54,2.26-.44c1.5-.29,3-.59,4.51-.88,1.24-.27,2.24-.73,3.37-1.32,1.49-.79,3.33-2.18,5.67-1.45,.46,.13,1.91-.22,2.69-.55,3.08-1.28,6.35-2.03,9.66-2.52l4.97-.75c1.66-.22,3.31-.47,4.93-.81,3.75,.35,7.18-.6,10.91-1.36,5.45-1.03,11.26-1.8,16.71-1.79,5.77,.03,11.34-.82,17-1.04,1.59-.06,3.29-.54,4.69,.21,.32,.17,1.52,.02,2.17-.15,2.26-.59,4.51-.9,6.79-1.02,2.28-.11,4.58-.01,6.93,.15,2.49,.18,5.26-.28,7.98-.73,4.09-.62,8.58-.4,12.9-.45,1.88,1.01,3.32-.07,4.28-.52,1.28-.61,2.48-.72,4-.75,1.96-.04,3.89,.18,5.83-.49,.99-.34,3.21-.25,4.27,.14,1.42,.52,1.96,.3,3.27,0,1.55-.35,3.13,.64,5.08,.66,2.07,.01,4.51-.44,6.3,.72,.16,.1,.8,.11,1.09,.04,3.88-.95,7.63,.81,11.46,.54l2.13,.32,1.07,.14,.53,.07,.28,.03,.44,.04c.3,.02,.62,.12,.87,.17l.51,.13,1.02,.25,2.05,.46c.69,.14,1.36,.31,2.06,.42l2.1,.3,4.21,.54c2.8,.33,5.67,.69,8.5,1.06,2.84,.37,5.68,.79,8.49,1.32,4.64,.85,9.22,2.38,13.89,2.62,9.81,.51,19.36,2.9,29,4.57,2.04,.35,4.48,.32,6.11,1.72,.23,.19,1.16,.37,1.59,.33,3.23-.33,6.13,.59,9.05,1.87,.71,.3,2.09,.6,2.6,.45,1.42-.43,2.84,.19,4.19,.51,1.63,.39,3.66,1.5,4.72,1.36,2.27-.28,3.23,.88,4.78,1.4,.95,.32,2.08,.39,3.13,.52,.5,.06,1.18-.1,1.44,.04,2.99,1.64,6.43,1.26,9.5,2.44,.66,.26,1.38,.43,2.02,.7,3.57,1.59,5.32,2.46,7.4,3.12,1.04,.34,2.15,.64,3.6,.99,1.45,.37,3.22,.82,5.59,1.42,2.14,2.04,5.73,1.16,8.15,3.1,.88,.69,2.83,1.29,4.16,1.49,.73,.11,1.46,.25,2.18,.41,.71,.19,1.42,.4,2.12,.63,1.4,.46,2.78,1,4.16,1.56,2.76,1.07,5.42,2.44,8.18,3.48,1.16,.44,1.65,1.6,3.38,1.6,.65,0,2.15,1.58,3.37,2.16,1.77,.85,3.37,2.2,5.48,2.42,.87,.08,2.27,1.19,3.43,1.81,1.61,.83,2.95,2.07,4.87,2.49,1.04,.23,2.99,1.56,3.71,2.52,1.51,1.96,3.24,3.4,5.06,4.74,1.82,1.33,3.74,2.58,5.45,4.13,1.03,.93,1.78,1.59,2.51,2.9,1.04,1.82,2.2,4.34,3.3,5.6,2.03,2.23,2.8,5.15,3.42,8.03,.55,2.52,.68,5.16,.44,7.74-.22,2.58-.94,5.1-1.75,7.52-1.02,2.74-2.52,5.17-4.12,7.45-1.62,2.27-3.41,4.31-5.12,6.48-1.83,2.32-4.63,5.02-7.78,5.87-.34,.1-.98,1.34-1.66,1.8-2.67,1.86-5.39,3.57-8.14,5.16-2.74,1.51-5.49,2.99-8.25,4.44-1.28,.67-3.19,.43-3.93,1.86-.79,1.53-3.01,.57-3.5,2.17-.06,.25-1.25,.81-1.91,1-3.58,1.05-6.94,2.6-10.27,4.26-1.67,.82-3.3,1.72-5,2.49-1.7,.75-3.41,1.48-5.15,2.12-1.66,.62-3.35,1.85-5.02,1.49-.93,.69-1.97,1.2-3.06,1.63-1.09,.43-2.22,.79-3.37,1.08-2.29,.62-4.54,1.31-6.3,2.88-3.14,.81-6.07,2.95-9.4,2.8-.54-.03-1.51,.57-2.11,.58-2.04,.03-2.68,2.09-5.24,1.92-1.46-.09-3.83,.97-5.78,1.55-1.8,.57-3.64,1-5.46,1.5l-6.03,1.57c-2.01,.52-4.05,.98-6.02,1.59-4.05,1.04-7.91,2.59-12.16,3.21-.46,.07-1.2,.36-1.34,.57-.56,.89-1.41,1.25-2.3,1.35-.9,.08-1.84-.09-2.59-.18-1.26-.16-2.31-.16-3.61,.07-3.53,.61-7.07,1.3-10.61,1.77-2.11,.22-4.29,1-6.42,.32-.66-.21-2.34,.08-3.26,.41-2.16,.78-4.41,1.19-6.69,1.46-2.28,.21-4.59,.33-6.85,.62-2.05,.26-4.12,.43-6.19,.6-1.57,.12-3.08,.95-4.69,.41-7.55,1.69-15.44,1.52-23.16,1.87-3.84,.2-7.7,.43-11.55,.48l-11.55,.13c-1.92,.02-4.07,.55-5.79-.48-.33-.19-1.71-.18-2.12,.02-1.12,.54-1.97,.83-3.22,.1-.23-.14-1.29,.02-1.85,.16-1.57,.4-2.97,.35-4.61-.02-1.27-.29-2.98-.46-4.23-.25-3.34,.52-6.5,.96-9.82-.15-.41-.14-1.55,.52-2.29,.48-2.87-.18-5.82,.35-8.66-.54-1.16-.36-2.89-.15-4.34-.28-1.25-.11-2.47-.04-3.71,0-.62,.02-1.24,.04-1.88,.03-.43-.02-.86-.03-1.3-.05-.58-.03-1.16-.07-1.73-.12-.58-.05-1.17-.09-1.76-.14l-.89-.05c-.28-.04-.51-.13-.77-.2-.51-.13-1.02-.27-1.54-.4l-.39-.1c-.11-.04-.2-.09-.3-.14l-.6-.28c-.38-.15-.88-.46-1.36-.74l-1.45-.84-.36-.21c-.02-.11,.03-.26,.05-.39l.14-.81c.1-.54,.19-1.08,.29-1.62l1.18-6.48c.06-.51,.27-1.15,.46-1.66l.35-1.02,.7-2.03c.9-2.72,1.96-5.38,2.97-8.06,1.06-2.66,2.16-5.3,3.31-7.92,1.19-2.6,2.33-5.23,3.64-7.78l1.91-3.85,2.03-3.78c.93-1.78,1.98-3.32,3.33-4.86,3.43-3.95,6.61-9.23,10.39-15.93,.28-.48,.67-.93,1-1.39,4.4-5.99,8.98-11.93,14.29-17.12,1.13-1.17,2.39-2.21,3.63-3.29,1.25-1.06,2.44-2.2,3.64-3.35,1.47-1.42,3.02-2.67,4.17-4.43l4.95,6.03-.24,.31c-1.09,1.49-3.62,2.26-4.7,4.26-.39,.73-2,1.92-2.97,2.3-3.22,1.26-5.71,3.76-8.47,5.75-3.17,2.29-6.28,4.68-9.35,7.1-1.51,1.19-3.22,2.11-4.31,3.92-.53,.89-2.53,2.09-3.84,2.69-2.03,.93-3.69,2.34-5.18,3.76-3.19,3.06-3.09,3.11-6.86,5.33-.45,.27-.89,.61-1.32,.94-2.11,1.68-4.3,3.3-6.44,4.96-2.12,1.68-4.19,3.39-6.07,5.23-3.1,3.09-6.39,5.81-9.65,8.63-1.3,1.12-2.53,2.73-4.28,2.92-.25,.03-.98,.68-1.21,1.05-1,1.59-2.33,2.92-3.76,4.16-1.42,1.25-2.92,2.42-4.31,3.67-2.7,2.41-4.5,5.35-7.37,7.69-2.65,2.24-5.1,4.79-7.59,7.26-3.76,3.75-4.99,4.14-6.93,2.22-1.6-1.59-.99-2.89,1.74-6.29,5.83-7.19,13.14-12.95,18.54-18.11Z"/>
      </g>
      <g>
        <path class="cls-6" d="M204.34,161.57c29.33-29.98,66.26-57.21,100.52-83.18-26.69,23.66-44.56,55.48-53.87,87.22l1.66,1c98.39,2.79,175.03-.11,256.37-47.02,11.82-6.81,23.72-15.71,25.7-27.69,2.99-18.1-17.45-32.36-36.34-41.24-42.45-19.96-110.55-31.39-158.59-37.48l-5.72-1.07c-43.18-2.51-76.8-1.03-119.69,3.9-42.89,4.93-85.63,17.89-117.43,42.73-21.58,16.86-37.62,45.23-21.41,65.95,4.64,5.92,20.99,32.72,131.34,38.52"/>
        <path class="cls-6" d="M225.25,139.19c6.83-6.03,12.53-10.79,18.17-15.61,.87-.75,1.54-1.98,2.68-2.89,4.52-3.63,8.87-7.75,13.63-10.72,5.19-3.25,10.06-6.93,14.42-10.8,4.14-3.68,8.53-6.87,12.81-10.26,1.44-1.14,2.8-2.32,4.75-3.05,1.42-.53,3.58-2.1,4.69-3.91,.22-.35,.97-.73,1.49-1.03,.57-.33,1.37-.53,1.69-.91,1.14-1.33,2.42-2.5,3.77-3.6l3.14,3.83c-1.3,1.29-2.69,2.5-4.08,3.71-1.39,1.21-2.68,2.53-3.91,3.88-.45,.5-.99,.94-1.45,1.44-.45,.51-.8,1.06-.9,1.75-.05,.35-.91,1.33-1.3,1.49-1.04,.43-1.85,1.12-2.67,2.09-1.76,2.13-3.61,4.18-5.28,6.38l-2.57,3.25-2.45,3.35c-.81,2.74-2.8,5.04-4.45,7.42-1.16,1.83-2.6,3.48-3.92,5.21-1.27,1.8-1.9,4.15-3.71,5.53-.28,.23-.45,1.1-.72,1.65-.6,1.24-1.21,2.51-1.81,3.76-.58,1.26-1.18,2.48-1.91,3.57-.74,1.12-1.5,2.23-2.03,3.45-1.81,3.89-3.51,7.84-5.06,11.85-.75,2.01-1.57,4-2.24,6.04l-1.05,3.05c-.18,.53-.28,.79-.39,1.17l-.33,1.07-.67,2.15-.17,.54c-.08,.11,.09,.12,.15,.18l.24,.14,.48,.29,.24,.14c.09,.02,.19,.01,.28,.02l4.77,.11,12.99,.29c1.51,.02,2.94,.16,4.55-.4,1.26-.44,3.98-.42,5.18,.06,1.93,.77,3.76,.5,5.61,.56,3.42,.1,6.86-.03,10.28,.06,2.03,.05,4.29-.46,6.08,.56,.17,.1,.82,.1,1.04,0,2.25-1,4.44-.23,6.71-.14,1.64,.07,3.29,.02,5.07-.49,1.73-.51,4.63-.61,6.26-.16,2.17,.59,4.15,.29,6.16,.22l8.92-.31c2.97-.14,5.94-.36,8.91-.55,2.97-.2,5.94-.37,8.9-.61l8.88-.89c1.4-.14,2.79-.34,4.17-.55l2.07-.34,2.06-.41c2.75-.54,5.51-1.04,8.35-1.23,1.35-.09,2.76-.66,4.06-.11,.27,.11,1.33-.1,1.73-.37,1.43-.89,2.98-.91,4.71-1.17,1.96-.29,3.92-.58,5.88-.87,1.96-.31,3.94-.53,5.88-.96,3.89-.79,7.74-1.67,11.46-2.77,.73-.21,1.45-.41,2.18-.62l2.15-.66c1.44-.42,2.87-.82,4.31-1.21,2.87-.78,5.75-1.51,8.61-2.34,1.88-.64,3.93-.78,5.89-1.28,1.9-.49,3.79-1.13,5.66-1.75,1.11-.37,2.31-.53,3.23-1.42,.49-.48,2.04-1.16,2.77-1.15,2.44,0,4.64-1.15,6.89-1.96l4.81-1.74c1.61-.57,3.15-1.31,4.73-1.95l9.44-3.98c1.57-.61,3.06-1.82,4.79-1.69,.24,.02,.99-.65,1.51-1,.55-.37,1.17-.95,1.66-1.05,2.23-.45,4.34-1.33,6.39-2.34,1.02-.51,2.05-1.02,3.04-1.58,.99-.58,1.97-1.15,2.97-1.69l7.25-3.91c2.41-1.32,4.84-2.6,7.16-4.03,4.65-2.85,9.16-5.92,13.13-9.56,2.23-2.05,3.41-4.5,5.02-6.77,1.57-2.23,2.69-4.7,3.42-7.24,.51-1.84,.35-3.78,1.19-5.55,.26-.5,.11-1.91-.19-2.44-1.17-1.95-1.43-4.22-2.53-6.22-.64-1.2-1.29-2.45-2.05-3.62-.8-1.15-1.71-2.24-2.96-2.97-.65-.4-1.24-1.79-2.02-2.62-1.33-1.45-2.8-2.83-4.37-4.06-.75-.59-1.69-.91-2.47-1.47-6.03-4.27-12.68-7.71-19.47-10.83l-5.26-2.29c-1.75-.76-3.49-1.57-5.29-2.24-3.57-1.4-7.11-2.87-10.77-4.09l-5.45-1.9-5.51-1.74c-3.66-1.21-7.37-2.24-11.06-3.37-2.76-.88-5.99-.96-8.26-2.83-2.77,.02-4.91-1.02-6.99-2.34-.3-.19-1.2-.06-1.83-.11-1.98-.16-4.07,.59-5.86-1.21-.07-.07-.35-.07-.51-.13-1.71-.58-3.23,.46-5.28-.83-1.28-.8-3.58-1.11-5.44-1.55-1.93-.45-3.87-.91-5.82-1.19-2.01-.29-4.05-1.37-6.12-.74-.33,.1-1.67-.87-2.54-.99-2.25-.31-4.47-.91-6.71-1.38-2.24-.45-4.5-.79-6.8-.6-1.05,.09-2.63-.23-3.66-.65-3.71-1.49-7.41-1.68-11.42-2-5.28-.41-10.89-1.12-15.84-3.1-1.05-.42-1.51-.7-2.67-.42-.76,.18-2.02-.06-3.05-.2l-8.59-1.17-4.32-.56c-1.44-.21-2.89-.32-4.32-.63l-4.28-.8c-.3-.07-1.21-.08-1.88-.12l-2.16-.11c-2.88-.16-5.76-.29-8.64-.41-3.13-.15-6.02-1.18-9.25-.92-1.33,.1-2.88-.41-4,.37-.16,.11-.71,.16-.96,.1-3.84-1.03-7.7,.29-11.53-.13-.82-.08-1.61-.26-2.42-.35-.83-.1-1.81-.33-2.51-.19-5.88,1.18-11.96,.46-17.91,.97-2.02,.18-4.28-.25-6.04,.81-.26,.16-1.16,.2-1.56,.09-3.54-1.01-7.3,.12-10.92,.06-1.86-.05-3.89,.77-5.61-.08-.22-.11-.96,.05-1.41,.15-.79,.18-1.55,.55-2.32,.6-2.14,.13-4.52-.21-6.37,.27-2.29,.6-4.5,.66-6.73,.89-1.28,.13-2.59-.17-3.92-.14-1.24,.03-2.51,.24-3.76,.37-1.79,.18-3.64,.57-5.36,.54-1.79-.02-3.08,1.13-5.09,.69-1.54-.34-3.14,.81-4.78,1.13-.82,.16-1.71,.15-2.55,.17-.64,.02-1.29-.21-1.87-.1-1.32,.26-2.63,.27-3.99,.91-.93,.43-2.76,.18-4.19,.37-1.42,.18-2.83,.49-4.25,.74-1.42,.23-2.97,.38-4.2,.86-2.7,1.06-5.51,1.73-8.32,2.41l-4.24,.92c-1.41,.34-2.81,.7-4.19,1.1-1.42,.42-2.99,1.16-4.46,.7-.26-.08-1.08,.15-1.47,.36-2.46,1.37-5.14,2.16-7.8,3.04-2.68,.83-5.42,1.55-7.95,2.7-1.81,.82-3.61,1.6-5.38,2.48-1.78,.87-3.57,1.69-5.46,2.4-1.82,.72-3.65,1.48-5.46,2.26-1.82,.76-3.54,1.68-5.13,2.71-1.31,.85-2.62,1.66-3.92,2.45-1.29,.82-2.61,1.57-3.98,2.2-2.74,1.19-4.21,4.23-7.46,4.46-1.3,.75-2.52,1.64-3.77,2.47-1.24,.84-2.5,1.67-3.75,2.49-2.06,1.47-3.9,3.29-6.38,4.1-.88,.31-2.22,1.41-2.76,2.26-1.78,2.71-4.09,4.55-6.59,6.52-.58,.48-.92,1.44-1.46,2.1-1.7,1.96-3.27,4.05-4.88,6.04-4.83,6.01-7.45,13.28-8.96,20.26-.29,1.31,.17,2.83-.11,3.93-.48,1.7-.59,3.44-.57,5.18,.12,1.72,.36,3.45,.88,5.09,.95,3.32,2.69,6.27,4.5,9.21,.34,.56,.81,1.26,1.19,1.82,.38,.55,.76,1.1,1.16,1.64,.83,1.02,1.65,2.06,2.62,2.97,.48,.47,.93,.95,1.43,1.4l1.56,1.29c.53,.42,1.03,.87,1.59,1.27l1.7,1.15,1.7,1.15c.56,.39,1.19,.69,1.79,1.04l3.62,2.03,3.78,1.81c1.25,.62,2.5,1.25,3.81,1.76,1.34,.57,2.5,1.83,3.23,1.89,1.13,.08,2.18,.55,3.26,.88,1.06,.35,2.08,.71,3.02,.76,1.69,.1,3.24,.54,4.77,1.07,1.54,.48,3.08,.97,4.66,1.3,2.3,.44,4.58,1.75,6.92,1.27,.34-.07,1.12,.13,1.52,.33,3.17,1.66,6.8,1.08,10.07,2.2,6.64-.01,13.06,2.06,19.7,2.6,.97,.1,1.94-.02,2.91-.03,.49,0,1.08-.08,1.48,.06,1.45,.5,2.92,.88,4.42,1.16,1.51,.24,3.03,.4,4.56,.53,3.06,.26,6.14,.42,9.16,.88,1.99,.32,3.93,.84,5.94,1.07,2.02,.26,4.14,.1,6,.98,.58,.27,1.76,.23,2.63,.2,4.71-.18,8.12,1.64,8.06,4.18-.02,.92-1,.91-2.04,1.18-2.01,.53-3.98,.82-6.37,.59-1.86-.18-3.87-.6-5.59,.16-.29,.13-1.14,.04-1.58-.1-1.56-.51-3.25-.63-4.92-.8-1.67-.18-3.32-.32-4.8-.74-2.27-.64-4.42-.75-6.61-1.14-1.84-.33-3.81-.05-5.57-1.05-.59-.35-2.49,.09-3.79-.05-3.05-.34-6.13-.71-9.15-1.24-2.3-.37-4.58-.79-6.88-1.13-2.29-.34-4.59-.63-6.9-.91-2.31-.24-4.59-.66-6.88-1.1-2.28-.44-4.56-.93-6.82-1.51-3.38-.24-6.67-1.19-9.95-2.12-1.65-.44-3.25-1.07-4.86-1.6-1.61-.54-3.23-1.04-4.87-1.44-7.86-2.21-15.27-5.81-22.36-10.14-.72-.46-1.37-.89-1.97-1.34-.3-.23-.59-.46-.86-.7-.27-.26-.52-.54-.78-.84-.66-.77-1.34-1.59-2.13-2.24-1.45-1.36-2.94-2.69-4.26-4.21-.69-.73-1.3-1.51-1.92-2.29-.63-.8-1.12-1.46-1.72-2.32-1.27-1.72-3.03-3.6-2.93-5.79-.01-.29-.38-1.17-.67-1.51-1.21-1.4-1.86-3.2-2.3-5.03-.21-.92-.32-1.87-.46-2.8-.06-.94-.2-1.87-.26-2.8-.14-1.41-.08-2.79,.38-4.29,.54-1.61,.78-4.12,.81-5.86-.05-1.33,.28-2.44,.52-3.65,.55-2.52,1.69-4.9,2.82-7.21,1.12-2.32,2.32-4.55,3.04-7.01,2.31-1.65,3.82-4.43,5.21-6.68,2.66-4.32,6.1-8.1,9.83-11.51,1.87-1.7,3.84-3.3,5.83-4.84,2.02-1.47,4.03-2.95,6-4.47,1.96-1.4,4.25-2.33,6.31-3.61,2.2-1.3,4.4-2.63,6.55-4.01,1.15-.75,2.75-1.14,3.27-2.39,.04-.09,.23-.25,.37-.3,1.35-.58,2.79-1.03,4.02-1.76,1.12-.62,1.93-1.65,3.03-2.36,1.32-.84,2.76-1.63,4.22-2.3,1.4-.65,2.84-1.51,4.28-1.35,.73-1.34,2.55-1.66,3.96-2.28,1.32-.61,2.71-1.12,4.07-1.67,1.52-.65,3.08-1.19,4.63-1.76,1.55-.57,3.14-1.08,4.64-1.71,2.09-.82,4.08-1.83,6.19-2.62,2.22-.84,4.55-1.47,6.85-2.06l2.17-.52,2.19-.42c1.46-.28,2.91-.56,4.37-.84,1.2-.26,2.17-.71,3.26-1.3,1.44-.77,3.21-2.16,5.49-1.41,.45,.13,1.85-.21,2.6-.53,2.98-1.26,6.14-1.99,9.35-2.46l4.81-.72c1.6-.21,3.2-.45,4.78-.78,3.63,.37,6.96-.57,10.57-1.32,5.28-1.01,10.9-1.76,16.18-1.73,5.59,.05,10.98-.79,16.46-1,1.54-.05,3.18-.53,4.55,.22,.31,.17,1.47,.03,2.1-.14,4.37-1.19,8.72-1.2,13.29-.85,2.41,.18,5.09-.27,7.73-.71,3.96-.62,8.31-.39,12.49-.44,1.82,1.01,3.22-.07,4.14-.52,1.24-.61,2.4-.72,3.87-.74,1.9-.04,3.77,.18,5.65-.49,.96-.34,3.11-.25,4.14,.14,1.38,.52,1.9,.3,3.17,0,1.5-.35,3.03,.64,4.92,.65,2,.01,4.37-.44,6.1,.71,.15,.1,.77,.11,1.05,.04,3.76-.96,7.38,.8,11.1,.52l2.06,.32,1.03,.14,.52,.07,.7,.07c.29,.02,.59,.12,.85,.17l.49,.12,.99,.24,1.98,.45c.66,.14,1.32,.3,1.99,.41l2.03,.29,4.08,.52,8.23,1.02c2.75,.36,5.5,.76,8.22,1.28,4.49,.83,8.92,2.34,13.45,2.56,9.5,.46,18.75,2.8,28.08,4.41,1.98,.34,4.34,.3,5.91,1.68,.22,.19,1.12,.36,1.54,.32,3.13-.35,5.94,.55,8.76,1.81,.69,.3,2.02,.58,2.51,.43,1.38-.44,2.75,.17,4.06,.48,1.58,.38,3.54,1.47,4.57,1.33,2.2-.29,3.13,.85,4.62,1.36,.92,.32,2.02,.37,3.03,.5,.48,.06,1.14-.11,1.39,.03,2.88,1.61,6.23,1.21,9.2,2.36,.63,.25,1.34,.42,1.95,.69,3.45,1.56,5.15,2.41,7.16,3.05,1,.33,2.08,.62,3.49,.96,1.4,.35,3.12,.79,5.42,1.37,2.06,2.01,5.56,1.11,7.89,3.02,.85,.68,2.74,1.26,4.03,1.44,.71,.1,1.42,.23,2.11,.39,.69,.18,1.38,.38,2.06,.61,1.36,.45,2.7,.97,4.03,1.51,2.68,1.04,5.25,2.37,7.92,3.37,1.12,.42,1.59,1.58,3.27,1.55,.64,0,2.08,1.54,3.25,2.1,1.72,.82,3.26,2.15,5.32,2.33,.85,.07,2.2,1.15,3.33,1.75,1.56,.8,2.85,2.02,4.73,2.4,1.02,.21,2.9,1.5,3.6,2.44,1.45,1.92,3.12,3.32,4.9,4.61,1.77,1.29,3.64,2.48,5.31,3.99,1,.9,1.73,1.54,2.43,2.81,1,1.77,2.12,4.22,3.2,5.44,1.99,2.16,2.73,5,3.33,7.81,.54,2.45,.67,5.03,.42,7.54-.22,2.51-.91,4.97-1.71,7.32-.99,2.67-2.45,5.03-4.01,7.24-1.58,2.21-3.31,4.19-4.96,6.3-1.77,2.26-4.48,4.89-7.56,5.69-.33,.1-.94,1.31-1.6,1.76-2.59,1.8-5.23,3.46-7.89,5-2.66,1.47-5.32,2.89-7.99,4.3-1.24,.65-3.11,.38-3.81,1.8-.75,1.51-2.93,.53-3.39,2.1-.06,.25-1.21,.78-1.85,.97-3.47,1-6.73,2.5-9.95,4.11-1.62,.79-3.2,1.67-4.84,2.41-1.65,.73-3.3,1.43-4.99,2.06-1.61,.6-3.24,1.8-4.87,1.43-.9,.67-1.91,1.17-2.96,1.59-1.06,.41-2.15,.76-3.27,1.04-2.22,.6-4.4,1.26-6.1,2.81-3.04,.78-5.87,2.87-9.11,2.7-.52-.03-1.46,.55-2.04,.56-1.98,.01-2.59,2.06-5.07,1.87-1.42-.11-3.71,.93-5.6,1.49-1.74,.56-3.52,.97-5.29,1.45l-5.84,1.52c-1.95,.51-3.92,.95-5.83,1.54-3.92,1.01-7.65,2.54-11.77,3.12-.44,.06-1.17,.35-1.29,.56-.54,.88-1.36,1.23-2.23,1.33-.87,.07-1.79-.1-2.51-.19-1.23-.16-2.24-.17-3.5,.05-3.42,.59-6.84,1.26-10.28,1.71-2.04,.21-4.15,.98-6.22,.29-.64-.21-2.26,.07-3.16,.4-2.09,.77-4.27,1.18-6.47,1.43-2.21,.21-4.44,.31-6.63,.6-1.98,.26-3.99,.42-5.99,.58-1.52,.12-2.98,.94-4.55,.4-7.31,1.68-14.95,1.48-22.43,1.83-3.72,.19-7.45,.42-11.18,.47l-11.18,.12c-1.86,.02-3.94,.54-5.61-.48-.32-.19-1.66-.18-2.05,.02-1.08,.54-1.9,.83-3.12,.1-.23-.14-1.24,.02-1.79,.16-1.52,.4-2.88,.35-4.47-.02-1.23-.29-2.89-.46-4.1-.25-3.23,.52-6.29,.96-9.51-.14-.39-.14-1.5,.52-2.22,.48-2.78-.18-5.63,.35-8.38-.54-1.13-.36-2.8-.15-4.2-.28-1.21-.11-2.39-.04-3.59,.01-.6,.03-1.2,.04-1.82,.04-.48-.02-.97-.04-1.47-.05-.56-.03-1.12-.07-1.67-.12-.56-.05-1.13-.09-1.7-.14-.28-.03-.59-.01-.84-.08l-.73-.21c-.49-.13-.99-.26-1.49-.39-.28-.05-.45-.15-.65-.24l-.58-.27c-.36-.14-.85-.44-1.31-.71l-1.4-.81-.35-.2c-.02-.11,.03-.25,.04-.38l.13-.78c.09-.52,.18-1.04,.27-1.56l1.1-6.24c.06-.49,.25-1.11,.44-1.63l.4-1.15,.68-1.97c.87-2.63,1.9-5.21,2.88-7.8,1.03-2.57,2.09-5.14,3.2-7.68,1.16-2.52,2.26-5.07,3.52-7.54l1.85-3.73,1.97-3.67c.91-1.72,1.92-3.22,3.24-4.7,3.35-3.81,6.43-8.93,10.06-15.43,.27-.46,.65-.9,.97-1.35,4.26-5.8,8.69-11.56,13.85-16.58,1.09-1.13,2.32-2.14,3.53-3.18,1.22-1.03,2.37-2.12,3.53-3.24,1.42-1.38,2.92-2.58,4.03-4.3l4.95,6.03-.23,.31c-1.05,1.45-3.51,2.18-4.54,4.13-.37,.72-1.93,1.87-2.87,2.23-3.14,1.2-5.53,3.62-8.2,5.55-3.07,2.21-6.08,4.53-9.05,6.88-1.46,1.15-3.12,2.04-4.16,3.8-.51,.87-2.45,2.02-3.73,2.6-1.97,.89-3.58,2.26-5.02,3.64-3.08,2.97-2.98,3.03-6.64,5.16-.44,.26-.87,.58-1.28,.91-2.04,1.62-4.16,3.19-6.23,4.8-2.05,1.62-4.05,3.28-5.87,5.06-3,3-6.17,5.63-9.33,8.36-1.26,1.08-2.44,2.66-4.15,2.82-.24,.02-.95,.65-1.17,1.02-1.92,3.1-5.13,5.15-7.8,7.59-2.62,2.34-4.34,5.2-7.12,7.46-2.56,2.16-4.94,4.64-7.34,7.02-3.64,3.63-4.85,3.99-6.79,2.07-1.6-1.59-1.02-2.86,1.61-6.17,5.62-6.99,12.72-12.54,17.94-17.55Z"/>
      </g>
      <g class="cls-12">
        <g class="cls-12">
          <path class="cls-5" d="M41.2,108.86c-.5-3.2-.46-6.54-.24-9.72,.22-3.18,.61-6.21,.84-8.98,.05-.62,.1-1.25,.19-1.88l-.29,.91c-2.11,6.94-2.46,15.1-.9,22.38,1.04,4.51,2.98,8.78,5.05,13.35,.23,.51,.54,.44,.7,.4-.03-.54-.01-1.01,.03-1.45-1.85-3.56-3.39-7.33-4.26-11.42-.25-1.35-1-2.77-1.1-3.6Z"/>
          <polygon class="cls-8" points="46.59 124.04 46.6 123.96 46.32 123.42 46.59 124.04"/>
          <path class="cls-4" d="M42.81,114.9c-.21-.64-.37-1.3-.53-1.95-.17-.65-.3-1.3-.39-1.96-.28-.83-.64-1.6-.69-2.13-.5-3.2-.46-6.54-.24-9.72,.22-3.18,.61-6.21,.84-8.98,.05-.62,.1-1.24,.18-1.85-.1,.33-.22,.65-.31,.98-.67,2.41-1.26,4.95-1.53,7.56,0,.14,0,.29,0,.43,.03,.74,.02,1.44-.07,2.14-.08,.7-.18,1.39-.17,2.09,.18,4,.3,7.38,1.25,11.29,.18,.69,.44,1.39,.7,2.11,.29,.71,.59,1.46,.8,2.27,.15,.56,.34,1.08,.48,1.6l.62,1.55,.69,1.54c.43,1.05,.95,2.08,1.42,3.15,.23,.51,.54,.44,.7,.4-.02-.28-.02-.55,0-.8-.76-1.71-1.49-3.44-2.11-5.25-.29-.78-.62-1.54-.89-2.34l-.75-2.41c-.01,.07-.01,.16,0,.27Z"/>
          <path class="cls-8" d="M43.23,114.63c-.05-.23-.33-.46-.41,0l.75,2.41c.26,.79,.59,1.56,.89,2.34-.24-.77-.51-1.53-.71-2.32-.19-.8-.37-1.6-.52-2.42Z"/>
          <path class="cls-9" d="M44.36,114.6c-.65-3.12-1.5-6.11-1.45-8.76,.04-1.39,.18-2.75,.51-3.93,0-.44-.02-.87-.03-1.3,.01-2.68,.2-5.36,.6-8,.45-2.64,1.06-5.25,1.93-7.78,1.71-5.06,4.4-9.76,7.52-14.11,3.09-4.39,5.75-8.64,9.24-12.95,2.18-2.47,4.35-4.04,6.85-6.03,3.19-2.42,5.98-4.84,8.86-7.25,2.88-2.41,5.86-4.8,9.38-6.96,1.9-1.15,1.59-2.41,1.1-2.16-6.09,3.47-11.79,7.18-17.07,11.44-5.3,4.23-10.17,9.01-14.48,14.5-1.66,2.13-3.25,4.26-4.73,6.43-1.51,2.15-2.92,4.33-4.25,6.55-1.32,2.22-2.54,4.48-3.62,6.81-1.03,2.35-2.02,4.72-2.76,7.18-.09,.63-.14,1.25-.19,1.88-.23,2.77-.61,5.8-.84,8.98-.22,3.18-.26,6.52,.24,9.72,.1,.83,.85,2.25,1.1,3.6,.86,4.09,2.4,7.85,4.26,11.42,.08-.93,.22-1.69,.25-2.58-.26-.54-.53-1.09-.79-1.62-.24-.55-.46-1.11-.67-1.67-.46-1.11-.73-2.27-.99-3.41Z"/>
          <path class="cls-7" d="M44.36,114.6c.26,1.14,.53,2.3,.99,3.41,.22,.56,.43,1.12,.67,1.67,.26,.54,.52,1.08,.79,1.62,0-.43-.03-.89-.13-1.39-.69-2.84-1.49-5.78-2.13-8.82-.65-3.03-1.05-6.16-1.13-9.18-.33,1.18-.47,2.54-.51,3.93-.06,2.66,.8,5.64,1.45,8.76Z"/>
          <path class="cls-4" d="M44.36,114.6c.45,2.19,1.25,4.36,2.3,6.4-.22-.75-.49-1.47-.71-2.23-1.25-3.79-2.21-7.75-2.31-11.7,.44,4.21,1.37,8.38,2.91,12.34-.68-2.77-1.45-5.64-2.05-8.59-.62-2.94-1.01-5.98-1.08-8.91-.32,1.17-.46,2.53-.5,3.92-.06,2.66,.8,5.64,1.45,8.76Z"/>
          <path class="cls-3" d="M42.97,108.23c.41,4.82,1.66,9.63,3.81,14.09,.02-.24,.05-.48,.06-.72-.06-.2-.11-.39-.17-.59-1.05-2.04-1.85-4.22-2.3-6.4-.65-3.12-1.5-6.11-1.45-8.76,.04-1.38,.18-2.74,.5-3.92,0-.41-.02-.82-.02-1.22,0-2.74,.2-5.47,.61-8.18,.46-2.7,1.12-5.36,2-7.94,1.18-4.62,3.78-9.26,6.77-13.3-1.31,1.98-2.51,4.02-3.57,6.14,1.25-2.3,2.67-4.5,4.19-6.63,.66-.92,1.29-1.85,1.91-2.78,.62-.91,1.24-1.82,1.87-2.75,.05-.53,.3-1.25,1.01-2.27,1.13-1.57,2.39-2.99,3.52-4.64,.19-.2,.32,0,.69-.4-1.03,1.12-1.77,2.13-2.26,3.12,.78-1.09,1.63-2.15,2.49-3.25,1.72-1.93,3.41-3.34,5.28-4.8l.55-.54c.9-.9,1.8-1.83,2.68-2.8-.4,.34-.81,.68-1.24,1.03,.55-.66,1.37-1.37,2.02-1.87-.27,.27-.53,.55-.78,.83,.97-.8,1.94-1.53,2.99-2.36-1.28,1-2.51,2.13-3.45,3.15,2.24-1.98,4.34-3.76,6.84-5.3l-.16,.16c3.19-2.69,6.43-5.38,10.34-7.78,1.9-1.15,1.59-2.41,1.1-2.16-8.5,4.84-16.23,10.22-23.15,16.76l2.72-1.82c.38-.28,.76-.53,1.15-.74l-1.15,.74c-1.01,.79-2.05,1.74-3.13,2.61-.24,.12-.84,.69-.92,1.08-1.48,1.19-2.9,2.96-4.29,4.25-.08,.08-.26,.18-.47,.29-.79,.9-1.53,1.86-2.29,2.8-4.12,5.35-7.83,10.69-10.87,16.36,.82-1.32,1.68-2.55,2.56-3.62,1.2-1.43,3.05-4.9,4.94-7.66,.45-.71,.94-.96,1.44-1.62-1.22,2.71-3.73,5.49-5.37,8.39-1.11,1.9-2.5,4.16-3.69,6.58-1.19,2.42-2.13,5.03-2.57,7.38-.34,1.95-.98,3.69-1.53,5.22-.06-.61,.21-1.68,.32-2.22,.25-1.22,.65-2.39,.96-3.59,.42-1.17,.75-2.36,1.24-3.51,.86-2.33,1.93-4.57,3.07-6.79-1.36,2.2-2.48,4.51-3.4,6.89-.93,2.38-1.72,4.82-2.43,7.33,.61-3.03,1.8-5.78,2.56-8.56-.14,.2-.28,.41-.42,.63-.43,.92-.77,1.87-1.13,2.82-.38,.94-.67,1.91-.99,2.87-.09,.62-.14,1.24-.18,1.85-.23,2.77-.61,5.8-.84,8.98-.22,3.18-.26,6.52,.24,9.72,.05,.53,.41,1.3,.69,2.13-.16-1.02-.31-2.05-.38-3.08l-.14-1.54-.08-1.55c-.03,.83-.1,1.64-.17,2.39-.15-.97-.1-1.87-.08-2.76,0-.89,.08-1.78,.05-2.75,.07,1.05,.11,2.09,.2,3.12,.01-1.25,.07-2.56,.13-3.87,.15,1.27,.03,2.48,.05,3.7,0,.61-.01,1.23,.05,1.84,.07,.62,.18,1.24,.35,1.87-.06-.54-.12-1.08-.15-1.61l.15,1.64v-.03c.07,.82,.28,1.63,.46,2.42,.17,.79,.41,1.54,.65,2.25-.35-1.38-.44-2.73-.59-4.06-.08-1.35-.16-2.68-.24-4.04l-.12-1.37c.05,.46,.09,.92,.12,1.37,.27,3.16,.67,6.3,1.34,9.41,.68,3.1,1.59,6.16,2.83,9.1l.28,.54c.02-.2,.04-.41,.06-.61-.28-.59-.53-1.2-.75-1.82-.23-.62-.47-1.23-.68-1.85-.38-1.26-.8-2.51-1.08-3.79-.64-2.54-1-5.12-1.19-7.66Z"/>
        </g>
      </g>
      <g class="cls-12">
        <g class="cls-12">
          <path class="cls-5" d="M452.12,169.47c-2.28,1.23-4.79,2.16-7.15,3.16-2.39,.93-4.64,1.92-6.56,3.07-.42,.25-.86,.5-1.31,.76l.73-.22c5.52-1.69,11.37-4.09,16.54-6.95,1.58-.92,3.1-1.99,4.69-3,1.59-1.03,3.19-2.12,4.96-3.07,.39-.21,.29-.51,.23-.66-.45,.03-.85,0-1.23-.03-1.37,.88-2.72,1.81-4.11,2.68-1.4,.85-2.83,1.7-4.31,2.5-1.01,.48-1.87,1.48-2.48,1.77Z"/>
          <polygon class="cls-8" points="463.15 162.49 463.08 162.48 462.66 162.75 463.15 162.49"/>
          <path class="cls-4" d="M456.39,166.8c-.92,.59-1.86,1.13-2.83,1.58-.56,.44-1.05,.92-1.44,1.1-2.28,1.23-4.79,2.16-7.15,3.16-2.39,.93-4.64,1.92-6.56,3.07-.42,.24-.85,.5-1.29,.75l.79-.24c1.93-.55,3.86-1.27,5.81-2,.1-.06,.2-.12,.29-.18,1-.63,2.07-.86,3.11-1.3,2.84-1.44,5.31-2.46,8.09-4.02,.98-.58,1.86-1.47,3.06-2.07,.4-.22,.8-.42,1.19-.6,1.47-.98,2.98-1.97,4.63-2.86,.39-.21,.29-.51,.23-.67-.24,.01-.46,.01-.67,0-1.34,.7-2.65,1.47-4,2.22-1.13,.72-2.3,1.41-3.48,2.09,.06,0,.14-.01,.22-.03Z"/>
          <path class="cls-8" d="M456.05,166.44c-.17,.09-.27,.4,.12,.39,1.18-.68,2.35-1.37,3.48-2.09-1.14,.62-2.34,1.18-3.6,1.7Z"/>
          <path class="cls-9" d="M455.72,165.37c-2.37,1.15-4.48,2.57-6.54,3.3-1.08,.38-2.2,.62-3.21,.75-.33,.16-.65,.31-.97,.46-7.99,3.92-16.37,7.03-24.92,9.08-4.26,1.12-8.1,2.57-12.44,3.89-2.62,.6-4.8,.69-7.42,.87-6.52,.45-11.95,2.4-18.63,3.23-1.79,.24-1.97,1.5-1.53,1.49,5.64-.57,11.11-1.1,16.55-1.82,5.43-.78,10.85-1.74,16.3-3.2,8.45-2.28,16.34-4.59,24.18-6.95,.45-.26,.88-.52,1.31-.76,1.92-1.15,4.17-2.14,6.56-3.07,2.36-1,4.87-1.93,7.15-3.16,.61-.29,1.47-1.29,2.48-1.77,1.48-.8,2.91-1.64,4.31-2.5,1.39-.87,2.74-1.8,4.11-2.68-.8-.07-1.5-.21-2.24-.18-1.62,1.17-3.29,2.25-5.06,3.02Z"/>
          <path class="cls-7" d="M455.72,165.37c1.77-.77,3.44-1.85,5.06-3.02-.37,.02-.75,.08-1.16,.21-4.54,1.75-9.1,4.7-13.65,6.85,1.01-.13,2.13-.37,3.21-.75,2.06-.72,4.17-2.15,6.54-3.3Z"/>
          <path class="cls-4" d="M455.72,165.37c1.69-.74,3.29-1.75,4.83-2.86-.59,.26-1.17,.54-1.74,.85-1.47,.76-2.94,1.53-4.41,2.29-1.47,.76-3,1.4-4.52,1.99,3.17-1.52,6.29-3.14,9.34-4.93-4.41,1.76-8.83,4.62-13.25,6.7,1.01-.13,2.13-.37,3.2-.75,2.06-.72,4.17-2.15,6.54-3.3Z"/>
          <path class="cls-3" d="M451.02,167.98c.91-.41,1.82-.82,2.73-1.23,.9-.43,1.79-.89,2.68-1.36,.89-.47,1.78-.94,2.65-1.45,.86-.52,1.72-1.06,2.57-1.62-.21-.02-.41-.03-.62-.02-.16,.07-.31,.13-.47,.2-1.54,1.11-3.15,2.12-4.83,2.86-2.37,1.15-4.48,2.57-6.54,3.3-1.08,.37-2.19,.61-3.2,.75-.31,.15-.61,.29-.92,.43-2.03,1.03-4.13,1.9-6.19,2.84-2.1,.86-4.19,1.73-6.32,2.5-3.57,1.7-7.69,2.97-11.74,3.82,1.88-.5,3.73-1.11,5.57-1.76l-3.1,.91c-1.04,.28-2.09,.53-3.13,.78-1.8,.49-3.53,1.01-5.26,1.56-.29,.37-.8,.76-1.76,1.09-1.5,.49-3.03,.77-4.54,1.39-.22,.04-.22-.2-.66-.11,1.21-.24,2.17-.61,2.98-1.05-1.05,.33-2.12,.67-3.19,1.01-2.05,.5-3.85,.6-5.78,.77-.2,.05-.41,.09-.61,.13-1.02,.2-2.04,.49-3.07,.81,.42-.06,.85-.11,1.31-.18-.66,.25-1.54,.37-2.2,.46,.3-.09,.6-.19,.89-.28-1.02,.14-1.99,.28-3.08,.38,1.32-.12,2.64-.49,3.74-.78-2.4,.43-4.62,.79-7.02,.89l.18-.06c-3.34,.69-6.68,1.54-10.39,1.99-1.79,.23-1.98,1.5-1.53,1.49,7.88-.78,15.42-1.5,23.01-2.85-.88,0-1.77-.03-2.67-.05-.38,.02-.76,.02-1.11-.02,.37,0,.74,.01,1.11,.02,1.04-.04,2.17-.27,3.29-.35,.22,.04,.88-.07,1.1-.34,1.54-.08,3.3-.63,4.83-.79,.09-.02,.25,.02,.45,.06,.94-.23,1.89-.47,2.84-.71,5.27-1.46,10.34-2.86,15.31-4.31-1.23,.24-2.43,.44-3.55,.57-1.52,.14-4.5,1.3-7.09,2.11-.65,.23-1.1,.09-1.75,.24,2.13-1.18,5.15-1.6,7.72-2.43,1.69-.59,3.79-1.09,5.89-1.72,2.08-.67,4.22-1.32,5.94-2.27,1.42-.77,2.93-1.04,4.23-1.28-.38,.33-1.22,.62-1.64,.77-3.77,1.38-7.56,2.66-11.39,3.94,4.1-.94,7.86-2.48,11.9-3.62-2.3,.91-4.65,1.44-6.72,2.5,.2,0,.41-.02,.61-.04,1.57-.44,3.11-.92,4.66-1.4,.44-.26,.87-.51,1.29-.75,1.92-1.15,4.17-2.14,6.56-3.07,2.36-1,4.87-1.93,7.15-3.16,.39-.18,.88-.65,1.44-1.1-1.51,.7-3.03,1.39-4.55,2.09,.65-.2,1.26-.4,1.87-.51-1.39,.76-2.72,.94-4.13,1.65,.74-.42,1.49-.79,2.25-1.14-.96,.31-1.95,.72-2.94,1.09,1.75-1.1,3.76-1.26,5.43-2.58-.39,.2-.79,.38-1.19,.55l1.21-.56-.02,.02c1.19-.61,2.34-1.31,3.33-2.02-2.05,1.07-4.06,1.68-6.08,2.68l-1,.5c.33-.18,.67-.34,1-.5,4.59-2.38,9.38-4.39,13.91-6.89l.41-.27c-.18-.02-.35-.04-.53-.05-1.88,1.03-3.77,2.06-5.72,2.96l-2.89,1.36c-.97,.41-1.95,.82-2.92,1.22Z"/>
        </g>
      </g>
      <g class="cls-12">
        <g class="cls-12">
          <path class="cls-5" d="M342.53,188.61c2.13-.16,4.4,.54,6.2-.26,.2-.08,.41-.16,.61-.26-.1-.02-.21-.03-.31-.05-2.38-.4-4.96-.48-7.38-.25-1.49,.27-3,.85-4.66,.79-.18,0-.2,.31-.21,.47,.17,.2,.31,.41,.45,.63,1.35-.2,2.68-.51,4.07-.56,.46,.02,.95-.52,1.23-.51Z"/>
          <path class="cls-8" d="M337.17,189.64s.02,.03,.03,.04c.07-.01,.14-.02,.2-.03-.08,0-.15,0-.23-.01Z"/>
          <path class="cls-4" d="M340.47,189.1c.45-.1,.89-.13,1.34-.12,.29-.15,.55-.37,.72-.36,2.13-.16,4.4,.54,6.2-.26,.2-.08,.4-.16,.6-.25-.11-.02-.23-.04-.34-.05-.82-.14-1.67-.24-2.53-.3-.05,.02-.09,.03-.14,.05-.47,.22-.92-.03-1.38-.05-1.3,.19-2.4,0-3.71,.19-.47,.06-.95,.44-1.5,.42-.19,.01-.37,0-.55-.02-.72,.15-1.46,.27-2.24,.24-.18,0-.2,.31-.21,.47,.09,.1,.17,.21,.25,.32,.63,.05,1.25,.02,1.89,.03,.55-.09,1.11-.18,1.67-.23-.02-.03-.05-.05-.09-.08Z"/>
          <path class="cls-8" d="M340.54,189.57c.08,0,.17-.23,.02-.4-.56,.05-1.12,.14-1.67,.23,.54,0,1.08,.04,1.65,.17Z"/>
          <path class="cls-9" d="M340.47,190.67c1.1,.12,2.14-.32,3.05-.05,.48,.12,.95,.34,1.36,.64,.15-.01,.3-.02,.45-.02,3.71-.35,7.42-.54,11.1-.26,1.84,.06,3.54-.51,5.41-.92,1.12-.12,2.02,.23,3.12,.42,2.74,.57,5.06-.82,7.83-1.31,.75-.13,.82-1.39,.63-1.4-4.65,.63-9.06,.17-13.71,.64-3.6,.34-7.01,.23-10.38-.31-.2,.09-.41,.18-.61,.26-1.8,.81-4.07,.1-6.2,.26-.28,0-.77,.53-1.23,.51-1.39,.05-2.73,.35-4.07,.56,.28,.46,.51,.92,.8,1.25,.82-.2,1.65-.39,2.45-.26Z"/>
          <path class="cls-7" d="M340.47,190.67c-.8-.13-1.63,.06-2.45,.26,.14,.16,.29,.3,.47,.38,2.03,.66,4.29,.09,6.39-.06-.42-.3-.89-.52-1.36-.64-.91-.27-1.95,.17-3.05,.05Z"/>
          <path class="cls-4" d="M340.47,190.67c-.77-.12-1.55,.04-2.34,.23,.27,.06,.54,.1,.81,.11,1.38,.05,2.78-.06,4.15,.22-1.47,.02-2.94,.03-4.42,.14,1.99,.56,4.18,.02,6.21-.12-.41-.3-.88-.52-1.36-.64-.91-.27-1.95,.17-3.05,.05Z"/>
          <path class="cls-3" d="M342.7,190.43c-1.66-.13-3.32-.19-5.01,.09,.07,.12,.15,.23,.23,.33,.07,.02,.14,.04,.21,.05,.78-.19,1.57-.35,2.34-.23,1.1,.12,2.14-.32,3.05-.05,.48,.12,.95,.34,1.36,.64,.14,0,.28-.02,.42-.02,1.9-.18,3.79-.31,5.68-.37,1.63-.43,3.43-.37,5.16-.13-.81,0-1.62,.04-2.44,.12,.9,.02,1.8,.06,2.7,.13,.78,.03,1.54-.06,2.29-.2,.15-.3,.39-.55,.81-.64,.65-.14,1.3-.11,1.96-.41,.09,0,.08,.24,.26,.25-.52-.02-.93,.15-1.3,.41,.45-.11,.91-.23,1.38-.33,.88-.09,1.62,.1,2.44,.28,.09-.01,.17-.02,.26-.03,.43-.05,.87-.19,1.31-.35-.18,0-.36-.01-.55-.02,.29-.15,.65-.14,.93-.13-.13,.05-.26,.1-.38,.15,.43,.01,.84,.03,1.3,.04-.55-.02-1.12,.12-1.58,.26,1.02-.04,1.95-.17,2.96,.02-.03,.02-.05,.03-.08,.04,1.41-.34,2.82-.89,4.36-1.16,.75-.13,.82-1.39,.63-1.4-3.25,.44-6.38,.35-9.55,.41,.36,.16,.72,.32,1.09,.48,.16,.04,.31,.09,.46,.18-.15-.06-.31-.12-.46-.18-.43-.1-.9-.06-1.37-.2-.09-.08-.36-.09-.47,.14-.64-.18-1.39,.03-2.02-.15-.04,0-.1-.07-.18-.15-.4,.03-.8,.06-1.2,.1-2.25,.21-4.43,.25-6.57,.12,.52,.14,1.02,.3,1.48,.5,.63,.34,1.94-.01,3.06-.13,.28-.07,.45,.17,.73,.18-.96,.68-2.23,.24-3.35,.36-1.48,.11-3.58-.44-5.18,.06-.66,.21-1.29-.04-1.83-.3,.19-.15,.56-.14,.75-.13,1.66,.06,3.32,.11,4.99,.01-1.74-.3-3.41-.12-5.15-.49,1.02-.04,2.02,.3,2.96-.06-.08-.06-.16-.11-.25-.16-.67-.07-1.34-.16-2-.27-.2,.09-.4,.18-.6,.25-1.8,.81-4.07,.1-6.2,.26-.18,0-.44,.21-.72,.36,.69,0,1.38,.09,2.07,.08-.28-.07-.55-.17-.8-.34,.65-.06,1.19,.28,1.84,.22-.35,.08-.69,.11-1.04,.12,.42,.11,.86,.14,1.3,.2-.84,.29-1.64-.37-2.49,.07,.18,0,.36,0,.54,.02-.18,0-.37-.01-.55-.02,0,0,0,0,.01,0-.55,.02-1.1,.18-1.6,.35,.96-.04,1.82,.28,2.76,.24,.15-.01,.31-.03,.46-.05-.16,.03-.31,.04-.46,.05-2.14,.19-4.3-.14-6.44-.25-.07,.01-.14,.02-.2,.03,.06,.1,.13,.2,.18,.31,1.78,.05,3.58,.2,5.32,.44Z"/>
        </g>
      </g>
    </g>
  </g>
</svg>