<?xml version="1.0" encoding="UTF-8"?>
<svg id="_Слой_2" data-name="Слой 2" xmlns="http://www.w3.org/2000/svg" xmlns:xlink="http://www.w3.org/1999/xlink" viewBox="0 0 444.29 248.43">
  <defs>
    <style>
      .cls-1 {
        fill: none;
      }

      .cls-2 {
        clip-path: url(#clippath);
      }

      .cls-3 {
        fill: #f3f9fb;
      }

      .cls-4 {
        fill: #f7fbfc;
      }

      .cls-5 {
        fill: #f8fcfd;
      }

      .cls-6 {
        fill: #f4fafb;
      }

      .cls-7 {
        fill: #f5fafb;
      }

      .cls-8 {
        fill: #fbfdfe;
      }

      .cls-9 {
        fill: #349039;
      }

      .cls-10 {
        fill: #6e7c6e;
      }

      .cls-11 {
        opacity: .49;
      }

      .cls-12 {
        opacity: .8;
      }
    </style>
    <clipPath id="clippath">
      <rect class="cls-1" width="444.29" height="248.43"/>
    </clipPath>
  </defs>
  <g id="_нижний_лотос" data-name="нижний лотос">
    <g class="cls-2">
      <g class="cls-11">
        <path class="cls-10" d="M252.97,72.29c-45.8-3.2-93-5.95-136.13,10.53-22.78,8.93-41.5,22.67-52.89,41.9-9.76,17.86-12.21,39.84,2.82,55.94l-.54-.59c9.62-.03,15.45-3.42,23.75-7.08,31.42-13.84,64.19-25.47,97.91-34.67,2.98-.74,1.63,1.75-1.15,3.02-29.54,14.56-55.24,25.96-82.1,44.51-4.07,2.75-5.98,9.08-6.87,13.49l.56-.67c14.46,4.6,29.75,6.71,45.01,8.33,20.26,2.16,40.65,3.47,61.07,3.94,20.12,.46,40.3,.21,60.36-1.22,19.73-1.4,39.39-4.02,58.47-8.55,16.64-3.95,33.4-9.43,46.52-19.22,12.4-9.25,20.44-22.25,22.69-36.07,2.18-13.43-1.47-27.09-10.05-38.53-8.88-11.85-22.24-20.25-37.9-24.73-15.63-4.47-32.49-5.95-48.75-8.07-10.82-1.41-21.61-2.02-32.55-2.22-4.39-.08-8.78-.13-13.17-.18"/>
        <path class="cls-10" d="M227.77,72.55c-7.45-.38-13.54-.68-19.62-.66-.95,0-2.01,.51-3.2,.49-2.37-.06-4.77,.03-7.15,.1-2.38,.08-4.74,0-7.02-.2-2.5-.24-5-.38-7.47-.32-2.46,.09-4.9,.32-7.26,.66-4.47,.77-8.9,.97-13.3,1.69-1.48,.23-2.92,.49-4.62,.13-1.23-.24-3.4,.06-4.87,1.07-.28,.2-.98,.15-1.47,.16-.54,0-1.21-.22-1.58-.05-2.04,1.01-4.2,1.52-6.4,1.92-2.21,.35-4.4,.84-6.52,1.48-1.05,.33-2.31,.29-3.02,1.27-.19,.23-1.2,.59-1.56,.5-.94-.22-1.79-.07-2.8,.24-2.18,.67-4.37,1.28-6.5,2.08-2.14,.77-4.3,1.47-6.41,2.3-.84,.89-1.87,1.46-2.97,1.93-1.09,.49-2.24,.89-3.33,1.36-1.63,.71-3.35,1.21-5.04,1.81-1.68,.68-3.09,2.1-5.01,2.19-.31,.01-.77,.59-1.2,.86-.96,.59-1.9,1.26-2.83,1.91-.93,.65-1.89,1.21-2.85,1.68-.99,.47-1.98,.95-2.88,1.56-5.73,4.06-11.03,8.71-15.74,13.89-2.29,2.65-4.54,5.33-6.48,8.24-1.04,1.42-1.9,2.91-2.84,4.37-.47,.73-.81,1.53-1.22,2.29-.39,.77-.8,1.53-1.13,2.34-.47,1.11-1.13,2.1-1.01,3.53,.07,1.1-.69,3.1-1.38,3.88-.58,.62-.92,1.31-1.17,2.01-.2,.72-.32,1.45-.52,2.16-.75,2.64-1.03,5.37-1.37,8.07-.1,.8,.02,1.66-.02,2.49-.04,.83-.19,1.62-.64,2.34-.09,.14-.07,.66,.04,.83,1,1.75,.49,3.49,.59,5.33,.1,.65,.22,1.29,.42,1.94,.21,.64,.43,1.29,.91,1.89,.44,.59,.85,1.41,1.13,2.26,.3,.84,.6,1.67,.61,2.36,0,1.88,1.09,3.13,1.83,4.55,.55,.89,1.17,1.73,1.75,2.6l.44,.65c.15,.21,.28,.34,.42,.51l.83,.99,.73,.87,.09,.11,.05,.05s-.02-.03-.04-.04l-.19-.21-.19-.21c.08,0,.19,0,.28,0,.75,0,1.52-.04,2.31-.11,1.78-.16,3.65-.47,5.43-.93,3.59-.92,7.04-2.46,10.51-4.06,4.22-1.97,8.1-4.61,12.57-6.12,1.06-.36,2.04-1.19,3.24-.92,.25,.05,1.04-.37,1.31-.67,.94-1.07,2.22-1.34,3.57-1.86,6.13-2.35,12.47-4.45,18.29-7.28,4.53-2.21,9.23-3.7,13.86-5.49,1.54-.59,3.28-.69,4.9-1.15,1.57-.44,3.13-1.01,4.67-1.58,.92-.33,1.91-.47,2.64-1.3,.39-.45,1.71-.97,2.32-.91,2.08,.2,3.92-.75,5.82-1.33,5.41-1.7,10.83-3.39,16.29-4.95,1.34-.37,2.72-1.21,4.17-.71,.2,.07,.89-.42,1.36-.65,.5-.24,1.08-.67,1.5-.65,1.93,.05,3.77-.34,5.6-.86,.5-.11,1.03-.32,1.92-.2,.11,.02,.28,.08,.42,.13l.21,.09c.08,.05,.17,.12,.26,.2,.17,.15,.31,.3,.4,.52,.09,.2,.17,.47,.16,.61,0,.16,0,.36-.03,.5-.03,.12-.06,.23-.1,.35-.08,.24-.17,.36-.26,.54-.75,1.13-1.63,1.74-2.58,2.26-8.27,3.96-16.34,8.02-24.57,11.89-2.3,1.08-3.96,2.73-6.18,3.78-2.15,1.01-4.24,2.17-6.39,3.17-1.52,.72-2.92,1.89-4.72,1.82-.5-.02-1.57,.55-1.9,.99-1.25,1.65-3.29,2.19-4.96,3.26-2.04,1.28-4.49,1.98-6.09,3.95-.43,.53-1.76,.7-2.62,1.14-1.5,.78-2.98,1.6-4.42,2.48-.69,.43-1.19,1.12-1.88,1.56-5.25,3.38-10.36,6.92-15.46,10.51l-1.96,1.36c-.38,.25-.49,.38-.74,.55-.2,.19-.42,.37-.61,.58-.8,.85-1.53,1.95-2.13,3.19l-.22,.47-.11,.24-.07,.15c-.09,.2-.18,.41-.24,.59-.15,.37-.27,.74-.39,1.12-.11,.38-.22,.76-.31,1.15l-.13,.58c-.06,.17,.04,.03,.1-.04,.07-.05,.11-.21,.21-.17,.76,.23,1.52,.46,2.28,.67l1.87,.49c.76,.2,1.52,.39,2.28,.57,3.05,.75,6.13,1.42,9.22,2.06,2.32,.48,4.96,.23,6.94,1.76,2.28-.38,4.11,.33,5.9,1.4,.26,.15,.99-.1,1.52-.13,1.64-.1,3.3-1.13,4.91,.4,.06,.06,.29,.02,.43,.06,1.45,.36,2.62-.86,4.41,.15,1.11,.63,3.03,.62,4.6,.82,1.62,.22,3.25,.42,4.87,.47,1.67,.04,3.43,.83,5.09-.03,.27-.14,1.43,.66,2.16,.68,3.74,.07,7.5,1.28,11.25,.36,.86-.21,2.18-.09,3.06,.2,3.16,1.07,6.21,.8,9.53,.66,4.37-.19,9.02-.15,13.24,1.25,.9,.3,1.29,.52,2.23,.1,.61-.27,1.66-.17,2.51-.15,9.5,.25,19,.37,28.5,.28,2.58-.02,5.01,.9,7.66,.48,1.09-.17,2.39,.29,3.27-.55,.12-.12,.58-.19,.78-.14,3.21,.85,6.33-.6,9.5-.34,.68,.05,1.33,.2,2.01,.27,.69,.07,1.5,.27,2.08,.1,4.79-1.4,9.83-.85,14.7-1.53,1.66-.24,3.53,.14,4.93-.99,.21-.17,.95-.22,1.28-.12,2.96,.91,6-.32,8.98-.36,1.53-.02,3.15-.86,4.63-.08,.19,.1,.79-.08,1.15-.19,.64-.2,1.23-.61,1.86-.68,1.75-.18,3.74,.07,5.22-.48,1.84-.68,3.65-.8,5.46-1.13,1.04-.19,2.15,.08,3.23-.02,1.02-.09,2.04-.35,3.06-.53,1.45-.29,2.93-.73,4.35-.8,1.47-.08,2.4-1.29,4.11-.97,1.31,.26,2.5-.96,3.81-1.38,.65-.21,1.39-.26,2.08-.31,.53-.05,1.1,.15,1.56,0,1.06-.31,2.14-.4,3.18-1.11,.72-.48,2.25-.33,3.41-.58,1.15-.23,2.27-.63,3.41-.95,1.13-.32,2.41-.52,3.36-1.05,4.16-2.37,8.83-3.41,13.1-5.4,1.1-.5,2.22-1.39,3.52-1.07,.23,.06,.87-.23,1.14-.46,3.45-3.04,7.91-4.51,11.38-7.4,2.46-2.06,4.56-4.35,6.91-6.51,2.29-2.09,4.6-4.39,6.03-7.05,1.2-2.17,2.18-4.37,3.52-6.33,.32-.49,.53-1.03,.7-1.58,.16-.56,.25-1.14,.39-1.69,.3-1.1,.6-2.16,1.73-2.94,.81-2.22,1.48-4.48,2.05-6.76,.24-.96,.34-1.96,.53-2.93,.13-.98,.44-1.92,.91-2.85,.18-.34,.3-.85,.34-1.38,.03-.53-.04-1.07-.17-1.46-.84-2.5-.69-4.81-.6-7.37,.05-.61-.52-1.28-.66-1.94-.41-2.03-1.02-4.02-1.53-6.02-.78-2.99-2.18-5.77-3.83-8.34-1.66-2.58-3.58-4.95-5.5-7.33-.7-.9-2.06-1.36-2.56-2.22-1.63-2.61-3.93-4.73-6.38-6.6-2.46-1.88-5.07-3.51-7.53-5.35-3.66-2.69-7.81-4.7-12.11-6.25-4.29-1.55-8.81-2.61-13.34-3.75-1.17-.31-2.28-1.26-2.89-1.18-1.89,.28-3.8-.65-5.37-.42-2.81,.39-5.36-.6-8.04-.77-1.95-.12-3.95-.99-5.87-.23-.28,.11-.94,0-1.28-.16-2.74-1.3-5.76-.27-8.56-1.05-2.78,.24-5.55-.02-8.33-.4-2.72-.38-5.39-.82-8.1-.96-.8-.04-1.59,.14-2.39,.2-.4,.04-.89,.15-1.21,.04-4.8-1.6-9.96-.95-14.94-1.44-1.65-.16-3.26-.54-4.92-.69-1.67-.16-3.42,.13-5-.65-.49-.24-1.47-.13-2.18-.05-3.89,.45-6.77-1.18-6.81-3.72-.01-.92,.79-.96,1.64-1.29,1.63-.64,3.25-1.04,5.22-.95,1.53,.07,3.21,.38,4.59-.48,.23-.14,.93-.1,1.3,.01,2.62,.83,5.61,.28,8.09,.92,1.9,.49,3.68,.46,5.49,.73,1.53,.22,3.15-.14,4.63,.77,.5,.3,2.06-.28,3.13-.22,2.53,.13,5.09,.32,7.59,.72,3.81,.62,7.59,.9,11.4,1.12,3.8,.23,7.61,.44,11.39,1.1,5.59-.4,11.1,1.43,16.61,1.91,3.34,.28,6.64,.9,9.9,1.7,3.25,.8,6.51,1.71,9.76,2.73,1.34,.41,2.38,.85,3.42,1.57,.67,.49,1.37,1.01,2.14,1.35,2.92,1.35,5.84,2.73,8.57,4.45,.72,.48,1.57,.84,2.33,1.31,.75,.49,1.4,1.08,1.72,1.95,.1,.23,.73,.67,1.08,.77,2.94,.77,4.92,3.3,7.16,5.22,.86,.74,1.62,1.53,2.17,2.7,.63,1.23,2,2.76,3.18,3.6,.87,.65,1.49,1.35,2.13,2.14,.68,.8,1.31,1.65,1.85,2.58l.81,1.37,.75,1.41c1.03,1.87,1.98,3.73,3.42,5.35-.19,2.45,1.1,4.77,1.93,6.83,1.68,3.92,2.46,8.21,2.54,12.49,.09,4.29-.43,8.57-1.27,12.74-.42,2.02-1.43,3.89-2.2,5.8-.4,1.01-.78,2.02-1.21,3.02-.39,1.02-.83,2.01-1.28,3-.44,1.08-1.45,2.05-1.14,3.26,.02,.09-.03,.29-.11,.39-.77,1-1.63,1.95-2.27,2.97-.55,.94-.64,2.1-1.2,3.08-.62,1.2-1.5,2.3-2.36,3.38-.85,1.02-1.65,2.23-2.93,2.5-.06,1.37-1.45,2.18-2.37,3.11-.85,.92-1.85,1.7-2.81,2.52-1.08,.92-2.21,1.77-3.33,2.62-1.15,.81-2.32,1.6-3.45,2.41-1.51,1.17-2.96,2.4-4.57,3.44-1.7,1.08-3.52,2.02-5.35,2.83-2.32,.98-4.69,1.75-7.06,2.53-.98,.32-1.7,.88-2.53,1.52-1.08,.87-2.37,2.36-4.41,1.75-.4-.11-1.52,.34-2.11,.7-4.65,2.88-10.24,3.34-15.29,4.95-3.07-.22-5.69,.98-8.6,1.88-4.27,1.32-8.9,2.36-13.3,2.55-4.65,.2-9.06,1.21-13.59,1.59-1.27,.1-2.6,.63-3.78-.08-.27-.16-1.22,0-1.73,.2-3.55,1.33-7.15,1.44-10.94,1.22-2-.12-4.19,.43-6.34,.93-3.24,.74-6.84,.63-10.28,.82-1.55-.96-2.65,.16-3.39,.66-.99,.66-1.94,.81-3.16,.88-1.56,.1-3.11-.04-4.63,.71-.78,.38-2.55,.35-3.41,.02-1.16-.45-1.58-.21-2.61,.14-1.22,.42-2.53-.52-4.08-.44-1.65,.09-3.58,.65-5.06-.43-.13-.1-.64-.08-.87,.01-3.06,1.15-6.12-.45-9.16,.04-9.11-1.25-18.33-.37-27.47-1.14-3.76-.32-7.53-1.29-11.26-.99-7.85,.64-15.63-.63-23.43-1.08-1.65-.09-3.6,.22-4.98-.97-.19-.16-.95-.22-1.29-.12-2.56,.75-4.93,.21-7.34-.7-.58-.22-1.71-.32-2.1-.1-1.11,.62-2.27,.19-3.38,.06-1.33-.17-3.02-1.01-3.86-.74-1.8,.58-2.65-.41-3.92-.72-.79-.19-1.7-.1-2.54-.1-.4,0-.94,.26-1.16,.15-2.49-1.26-5.26-.35-7.8-1.15-.54-.17-1.14-.25-1.66-.45-2.96-1.13-4.42-1.72-6.13-2.15-1.7-.44-3.65-.67-7.55-1.33-.44-.44-.95-.71-1.51-.88-.28-.08-.56-.14-.86-.19l-.45-.06c-.18-.02-.42-.07-.63-.11-1.74-.29-3.71-.67-5.06-1.51-.46-.31-1.27-.59-2.2-.83l-.18-.04c-.06-.02-.13-.04-.13,.01l-.12,.2c-.09,.14-.17,.28-.26,.42-.02,.03-.05,.08-.06,.09v-.15c.02-.1,.03-.19,.04-.29,.01-.19,.02-.36,.02-.53,.03-1.45,.21-3.08,.57-4.78,.36-1.69,.97-3.53,1.68-5.1,1.15-2.41,2.68-4.8,5.01-6.94,.25-.21,.52-.37,.8-.5,.27-.12,.46-.15,.7-.24,.45-.16,.88-.4,1.2-1.04,.24-.48,1.99-.74,2.85-1.36,1.26-.9,2.89-1.37,3.71-2.92,.34-.63,1.65-1.16,2.49-1.76,1.15-.83,2.51-1.3,3.36-2.65,.45-.75,2.01-1.67,2.94-1.84,3.84-.7,6.11-3.44,8.84-5.54,.82-.63,1.38-1.09,2.42-1.43,1.45-.48,3.4-1.08,4.22-1.99,1.46-1.63,3.34-2.28,5.09-3.25,3.02-1.68,6.16-3.13,9.19-4.77,3.45-1.87,7.11-3.28,10.37-5.65,1.75-1.27,4.12-2.82,6.7-2.79,.28,0,.85-.98,1.41-1.26,4.41-2.2,8.78-4.35,13.27-6.45,1.04-.49,2.65-.01,3.2-1.3,.12-.6,.32-.45,.61-.39,.12,.04,.24,.07,.26,.05h0s-.03-.03,.07,.07c.14,.14,.29,.28,.44,.4,.31,.24,.6,.53,.93,.75,.1,.06,.34,.22,.68,.45,.16,.1,.41,.19,.59,.29,.16,.1,.41,.15,.6,.19,.06,.02,.14,.04,.22,.03,.04,0,.08,0,.12-.02,0,0,.02,0,.03,0,.01,0,.06-.02,.06-.02-.04,.02-.06,.05-.08,.08-.14,.16-.23,.59-.29,1.07-.01,.15,0,.3,0,.44,0,.16-.01,.39,0,.58,0,.4,.05,.8,.14,1.19,.04,.19,.06,.47,.11,.7l.06,.36,.03,.16h0s0-.04,.01-.06c-.35,.04-.71,.08-1.07,.13-.71,.1-1.42,.23-2.12,.38-1.41,.31-2.79,.67-4.19,1.1-2.78,.85-5.54,1.8-8.36,2.49-1.35,.33-2.73,1.22-4.07,.61-3.05,2.06-7.46,1.11-10.21,3.82-2.5,.49-4.78,2.22-7.46,1.87-.43-.05-1.17,.49-1.65,.48-1.64-.05-1.98,1.93-4.05,1.66-1.19-.15-2.99,.81-4.51,1.31-1.41,.46-2.8,.97-4.19,1.48l-4.6,1.66c-1.53,.57-3.09,1.07-4.58,1.71-3.01,1.32-5.76,3.11-8.99,4.07-.35,.1-.88,.45-.94,.67-.5,1.82-2.37,1.63-3.58,1.66-1.02,.01-1.83,.15-2.79,.55-2.61,1.05-5.18,2.2-7.81,3.18-1.56,.59-3,1.74-4.83,1.48-.57-.08-1.78,.5-2.38,1-1.42,1.16-3.02,1.96-4.67,2.68-1.63,.71-3.29,1.35-4.93,2.17-1.47,.74-3.06,1.41-4.69,2.04-1.22,.48-2.31,1.55-3.82,1.4-2.26,1.2-4.84,1.97-7.46,2.32l-.98,.13-1.49,.09-1.54,.08c-.08,.04-.1-.08-.13-.15l-.1-.22-.21-.45-.41-.89-.82-1.78c-.15-.17,.07-.23,.16-.34l.34-.28,.69-.56-3.95,3.36-2.77-3.33-1.51-2.15c-2.05-2.78-3.58-5.94-4.88-9.16-1.11-3.29-2.04-6.66-2.37-10.07-.27-1.69-.79-3.6,.15-5.14,.09-.15,.11-.52,.1-.9,0-.38-.03-.77-.13-.95-.51-.99-.77-1.77,0-2.82,.13-.2,.09-1.11,0-1.62-.24-1.4-.11-2.65,.55-3.97,.49-1.03,.87-2.46,.96-3.53,.1-2.91,.44-5.73,2.43-8.04,.24-.28-.04-1.42,.22-2.01,1.05-2.22,1.58-4.74,3.48-6.58,.38-.37,.67-.92,.98-1.5,.33-.56,.66-1.15,1.03-1.66,1.24-1.76,1.95-3.69,3.48-5.33,1.61-1.59,2.87-3.7,4.44-5.47,1.5-1.81,3.15-3.5,4.78-5.19l2.53-2.45c.86-.8,1.75-1.56,2.62-2.34,.86-.79,1.78-1.51,2.69-2.25,.91-.74,1.81-1.48,2.76-2.17,.94-.69,1.86-1.41,2.82-2.08l2.88-1.97c.96-.66,1.96-1.25,2.94-1.88,.98-.63,1.98-1.23,2.99-1.79,1.41-.81,2.77-1.46,4.4-1.85,4.14-1.07,8.5-3.34,13.92-6.38,.39-.22,.85-.36,1.28-.52,2.81-1.01,5.62-2.01,8.42-3.02,2.85-.85,5.7-1.71,8.57-2.38,2.55-.51,5.17-.69,7.73-1.4,1.68-.43,3.36-.58,4.92-1.55,1.31-.78,3.45-.35,4.94-1.52,.55-.44,2.16-.68,3.01-.53,1.42,.25,2.8,.14,4.17-.07,1.38-.19,2.75-.44,4.13-.58,1.58-.15,3.16-.32,4.74-.51l4.74-.48c1.55-.16,3.12,0,4.66-.88,.75-.42,2.65-.27,3.81,0,1.79,.41,3.54,.19,5.19-.07,3.54-.56,3.52-.65,7.04-.17,.42,.06,.87,.04,1.31,.05,4.37-.02,8.82,.29,13.06-.09,3.54-.38,6.99-.28,10.48-.19,1.39,.03,3.02-.36,4.14,.7,.16,.15,.95,.17,1.29,.06,2.96-.96,6.08-.24,9.09-.08,2.92,.14,5.66-.59,8.64-.17,2.79,.38,5.66,.4,8.49,.6,4.29,.3,5.18,.96,4.97,3.69-.17,2.25-1.29,2.66-4.76,2.9-7.36,.49-14.64-.7-20.58-.73Z"/>
      </g>
      <g>
        <path class="cls-9" d="M252.97,29.06c-45.8-3.2-93-5.95-136.13,10.53-22.78,8.93-41.5,22.67-52.89,41.9-9.76,17.86-12.21,39.84,2.82,55.94l-.54-.59c9.62-.03,15.45-3.42,23.75-7.08,31.42-13.84,64.19-25.47,97.91-34.67,2.98-.74,1.63,1.75-1.15,3.02-29.54,14.56-55.24,25.96-82.1,44.51-4.07,2.75-5.98,9.08-6.87,13.49l.56-.67c14.46,4.6,29.75,6.71,45.01,8.33,20.26,2.16,40.65,3.47,61.07,3.94,20.12,.46,40.3,.21,60.36-1.22,19.73-1.4,39.39-4.02,58.47-8.55,16.64-3.95,33.4-9.43,46.52-19.22,12.4-9.25,20.44-22.25,22.69-36.07s-1.47-27.09-10.05-38.53c-8.88-11.85-22.24-20.25-37.9-24.73-15.63-4.47-32.49-5.95-48.75-8.07-10.82-1.41-21.61-2.02-32.55-2.22-4.39-.08-8.78-.13-13.17-.18"/>
        <path class="cls-9" d="M227.77,29.32c-7.45-.38-13.54-.68-19.62-.66-.95,0-2.01,.51-3.2,.49-2.37-.06-4.77,.03-7.15,.1-2.38,.08-4.74,0-7.02-.2-2.5-.24-5-.38-7.47-.32-2.46,.09-4.9,.32-7.26,.66-4.47,.77-8.9,.97-13.3,1.69-1.48,.23-2.92,.49-4.62,.13-1.23-.24-3.4,.06-4.87,1.07-.28,.2-.98,.15-1.47,.16-.54,0-1.21-.22-1.58-.05-2.04,1.01-4.2,1.52-6.4,1.92-2.21,.35-4.4,.84-6.52,1.48-1.05,.33-2.31,.29-3.02,1.27-.19,.23-1.2,.59-1.56,.5-.94-.23-1.79-.07-2.8,.24-2.18,.67-4.37,1.28-6.5,2.08-2.14,.77-4.3,1.47-6.41,2.3-.84,.89-1.87,1.46-2.97,1.93-1.09,.49-2.24,.89-3.33,1.36-1.63,.71-3.35,1.21-5.04,1.81-1.68,.68-3.09,2.1-5.01,2.19-.31,.01-.77,.59-1.2,.86-.96,.59-1.9,1.26-2.83,1.91-.93,.65-1.89,1.21-2.85,1.68-.99,.47-1.98,.95-2.88,1.56-5.73,4.06-11.03,8.71-15.74,13.89-2.29,2.65-4.54,5.33-6.48,8.24-1.04,1.42-1.9,2.91-2.84,4.37-.47,.73-.81,1.53-1.22,2.29-.39,.77-.8,1.53-1.13,2.34-.47,1.11-1.13,2.1-1.01,3.53,.07,1.1-.69,3.1-1.38,3.88-.58,.62-.92,1.31-1.17,2.01-.2,.72-.32,1.45-.52,2.16-.75,2.64-1.03,5.37-1.37,8.07-.1,.8,.02,1.66-.02,2.49-.04,.83-.19,1.62-.64,2.34-.09,.14-.07,.66,.04,.83,1,1.75,.49,3.49,.59,5.33,.1,.65,.22,1.29,.42,1.94,.21,.64,.43,1.29,.91,1.89,.44,.59,.85,1.41,1.13,2.26,.3,.84,.6,1.67,.61,2.36,0,1.88,1.09,3.13,1.83,4.55,.55,.89,1.17,1.73,1.75,2.6l.44,.65c.15,.21,.28,.34,.42,.51l.83,.99,.73,.87,.09,.11,.05,.05s-.02-.03-.04-.04l-.19-.21-.19-.21c.08,0,.19,0,.28,0,.75,0,1.52-.04,2.31-.11,1.78-.16,3.65-.47,5.43-.93,3.59-.92,7.04-2.46,10.51-4.06,4.22-1.97,8.1-4.61,12.57-6.12,1.06-.36,2.04-1.19,3.24-.92,.25,.05,1.04-.37,1.31-.67,.94-1.07,2.22-1.34,3.57-1.86,6.13-2.35,12.47-4.45,18.29-7.28,4.53-2.21,9.23-3.7,13.86-5.49,1.54-.59,3.28-.69,4.9-1.15,1.57-.44,3.13-1.01,4.67-1.58,.92-.33,1.91-.47,2.64-1.3,.39-.45,1.71-.97,2.32-.91,2.08,.2,3.92-.75,5.82-1.33,5.41-1.7,10.83-3.39,16.29-4.95,1.34-.37,2.72-1.21,4.17-.71,.2,.07,.89-.42,1.36-.65,.5-.24,1.08-.67,1.5-.65,1.93,.05,3.77-.34,5.6-.86,.5-.11,1.03-.32,1.92-.2,.11,.02,.28,.08,.42,.13l.21,.09c.08,.05,.17,.12,.26,.2,.17,.15,.31,.3,.4,.52,.09,.2,.17,.47,.16,.61,0,.16,0,.36-.03,.5-.03,.12-.06,.23-.1,.35-.08,.24-.17,.36-.26,.54-.75,1.13-1.63,1.74-2.58,2.26-8.27,3.96-16.34,8.02-24.57,11.89-2.3,1.08-3.96,2.73-6.18,3.78-2.15,1.01-4.24,2.17-6.39,3.17-1.52,.72-2.92,1.89-4.72,1.82-.5-.02-1.57,.55-1.9,.99-1.25,1.65-3.29,2.19-4.96,3.26-2.04,1.28-4.49,1.98-6.09,3.95-.43,.53-1.76,.7-2.62,1.14-1.5,.78-2.98,1.6-4.42,2.48-.69,.43-1.19,1.12-1.88,1.56-5.25,3.38-10.36,6.92-15.46,10.51l-1.96,1.36c-.38,.25-.49,.38-.74,.55-.2,.19-.42,.37-.61,.58-.8,.85-1.53,1.95-2.13,3.19l-.22,.47-.11,.24-.07,.15c-.09,.2-.18,.41-.24,.59-.15,.37-.27,.74-.39,1.12-.11,.38-.22,.76-.31,1.15l-.13,.58c-.06,.17,.04,.03,.1-.04,.07-.05,.11-.21,.21-.17,.76,.23,1.52,.46,2.28,.67l1.87,.49c.76,.2,1.52,.39,2.28,.57,3.05,.75,6.13,1.42,9.22,2.06,2.32,.48,4.96,.23,6.94,1.76,2.28-.38,4.11,.33,5.9,1.4,.26,.15,.99-.1,1.52-.13,1.64-.1,3.3-1.13,4.91,.4,.06,.06,.29,.02,.43,.06,1.45,.36,2.62-.86,4.41,.15,1.11,.63,3.03,.62,4.6,.82,1.62,.22,3.25,.42,4.87,.47,1.67,.04,3.43,.83,5.09-.03,.27-.14,1.43,.66,2.16,.68,3.74,.07,7.5,1.28,11.25,.36,.86-.21,2.18-.09,3.06,.2,3.16,1.07,6.21,.8,9.53,.66,4.37-.19,9.02-.15,13.24,1.25,.9,.3,1.29,.52,2.23,.1,.61-.27,1.66-.17,2.51-.15,9.5,.25,19,.37,28.5,.28,2.58-.02,5.01,.9,7.66,.48,1.09-.17,2.39,.29,3.27-.55,.12-.12,.58-.19,.78-.14,3.21,.85,6.33-.6,9.5-.34,.68,.05,1.33,.2,2.01,.27,.69,.07,1.5,.27,2.08,.1,4.79-1.4,9.83-.85,14.7-1.53,1.66-.24,3.53,.14,4.93-.99,.21-.17,.95-.22,1.28-.12,2.96,.91,6-.32,8.98-.36,1.53-.02,3.15-.86,4.63-.08,.19,.1,.79-.08,1.15-.19,.64-.2,1.23-.61,1.86-.68,1.75-.18,3.74,.07,5.22-.48,1.84-.68,3.65-.8,5.46-1.13,1.04-.19,2.15,.08,3.23-.02,1.02-.09,2.04-.35,3.06-.53,1.45-.29,2.93-.73,4.35-.8,1.47-.08,2.4-1.29,4.11-.97,1.31,.26,2.5-.96,3.81-1.38,.65-.21,1.39-.26,2.08-.31,.53-.05,1.1,.15,1.56,0,1.06-.31,2.14-.4,3.18-1.11,.72-.48,2.25-.33,3.41-.58,1.15-.23,2.27-.63,3.41-.95,1.13-.32,2.41-.52,3.36-1.05,4.16-2.37,8.83-3.41,13.1-5.4,1.1-.5,2.22-1.39,3.52-1.07,.23,.06,.87-.23,1.14-.46,3.45-3.04,7.91-4.51,11.38-7.4,2.46-2.06,4.56-4.35,6.91-6.51,2.29-2.09,4.6-4.39,6.03-7.05,1.2-2.17,2.18-4.37,3.52-6.33,.32-.49,.53-1.03,.7-1.58,.16-.56,.25-1.14,.39-1.69,.3-1.1,.6-2.16,1.73-2.94,.81-2.22,1.48-4.48,2.05-6.76,.24-.96,.34-1.96,.53-2.93,.13-.98,.44-1.92,.91-2.85,.18-.34,.3-.85,.34-1.38,.03-.53-.04-1.07-.17-1.46-.84-2.5-.69-4.81-.6-7.37,.05-.61-.52-1.28-.66-1.94-.41-2.03-1.02-4.02-1.53-6.02-.78-2.99-2.18-5.77-3.83-8.34-1.66-2.58-3.58-4.95-5.5-7.33-.7-.9-2.06-1.36-2.56-2.22-1.63-2.61-3.93-4.73-6.38-6.6-2.46-1.88-5.07-3.51-7.53-5.35-3.66-2.69-7.81-4.7-12.11-6.25-4.29-1.55-8.81-2.61-13.34-3.75-1.17-.31-2.28-1.26-2.89-1.18-1.89,.28-3.8-.65-5.37-.42-2.81,.39-5.36-.6-8.04-.77-1.95-.12-3.95-.99-5.87-.23-.28,.11-.94,0-1.28-.16-2.74-1.3-5.76-.27-8.56-1.05-2.78,.24-5.55-.02-8.33-.4-2.72-.38-5.39-.82-8.1-.96-.8-.04-1.59,.14-2.39,.2-.4,.04-.89,.15-1.21,.04-4.8-1.6-9.96-.95-14.94-1.44-1.65-.16-3.26-.54-4.92-.69-1.67-.16-3.42,.13-5-.65-.49-.24-1.47-.13-2.18-.05-3.89,.45-6.77-1.18-6.81-3.72-.01-.92,.79-.96,1.64-1.29,1.63-.64,3.25-1.04,5.22-.95,1.53,.07,3.21,.38,4.59-.48,.23-.14,.93-.1,1.3,.01,2.62,.83,5.61,.28,8.09,.92,1.9,.49,3.68,.46,5.49,.73,1.53,.22,3.15-.14,4.63,.77,.5,.3,2.06-.28,3.13-.22,2.53,.13,5.09,.32,7.59,.72,3.81,.62,7.59,.9,11.4,1.12,3.8,.23,7.61,.44,11.39,1.1,5.59-.4,11.1,1.43,16.61,1.91,3.34,.28,6.64,.9,9.9,1.7,3.25,.8,6.51,1.71,9.76,2.73,1.34,.41,2.38,.85,3.42,1.57,.67,.49,1.37,1.01,2.14,1.35,2.92,1.35,5.84,2.73,8.57,4.45,.72,.48,1.57,.84,2.33,1.31,.75,.49,1.4,1.08,1.72,1.95,.1,.23,.73,.67,1.08,.77,2.94,.77,4.92,3.3,7.16,5.22,.86,.74,1.62,1.53,2.17,2.7,.63,1.23,2,2.76,3.18,3.6,.87,.65,1.49,1.35,2.13,2.14,.68,.8,1.31,1.65,1.85,2.58l.81,1.37,.75,1.41c1.03,1.87,1.98,3.73,3.42,5.35-.19,2.45,1.1,4.77,1.93,6.83,1.68,3.92,2.46,8.21,2.54,12.49,.09,4.29-.43,8.57-1.27,12.74-.42,2.02-1.43,3.89-2.2,5.8-.4,1.01-.78,2.02-1.21,3.02-.39,1.02-.83,2.01-1.28,3-.44,1.08-1.45,2.05-1.14,3.26,.02,.09-.03,.29-.11,.39-.77,1-1.63,1.95-2.27,2.97-.55,.94-.64,2.1-1.2,3.08-.62,1.2-1.5,2.3-2.36,3.38-.85,1.02-1.65,2.23-2.93,2.5-.06,1.37-1.45,2.18-2.37,3.11-.85,.92-1.85,1.7-2.81,2.52-1.08,.92-2.21,1.77-3.33,2.62-1.15,.81-2.32,1.6-3.45,2.41-1.51,1.17-2.96,2.4-4.57,3.44-1.7,1.08-3.52,2.02-5.35,2.83-2.32,.98-4.69,1.75-7.06,2.53-.98,.32-1.7,.88-2.53,1.52-1.08,.87-2.37,2.36-4.41,1.75-.4-.11-1.52,.34-2.11,.7-4.65,2.88-10.24,3.34-15.29,4.95-3.07-.22-5.69,.98-8.6,1.88-4.27,1.32-8.9,2.36-13.3,2.55-4.65,.2-9.06,1.21-13.59,1.59-1.27,.1-2.6,.63-3.78-.08-.27-.16-1.22,0-1.73,.2-3.55,1.33-7.15,1.44-10.94,1.22-2-.12-4.19,.43-6.34,.93-3.24,.74-6.84,.63-10.28,.82-1.55-.96-2.65,.16-3.39,.66-.99,.66-1.94,.81-3.16,.88-1.56,.1-3.11-.04-4.63,.71-.78,.38-2.55,.35-3.41,.02-1.16-.45-1.58-.21-2.61,.14-1.22,.42-2.53-.52-4.08-.44-1.65,.09-3.58,.65-5.06-.43-.13-.1-.64-.08-.87,.01-3.06,1.15-6.12-.45-9.16,.04-9.11-1.25-18.33-.37-27.47-1.14-3.76-.32-7.53-1.29-11.26-.99-7.85,.64-15.63-.63-23.43-1.08-1.65-.09-3.6,.22-4.98-.97-.19-.16-.95-.22-1.29-.12-2.56,.75-4.93,.21-7.34-.7-.58-.22-1.71-.32-2.1-.1-1.11,.62-2.27,.19-3.38,.06-1.33-.17-3.02-1.01-3.86-.74-1.8,.58-2.65-.41-3.92-.72-.79-.19-1.7-.1-2.54-.1-.4,0-.94,.26-1.16,.15-2.49-1.26-5.26-.35-7.8-1.15-.54-.17-1.14-.25-1.66-.45-2.96-1.13-4.42-1.72-6.13-2.15-1.7-.44-3.65-.67-7.55-1.33-.44-.44-.95-.71-1.51-.88-.28-.08-.56-.14-.86-.19l-.45-.06c-.18-.02-.42-.07-.63-.11-1.74-.29-3.71-.67-5.06-1.51-.46-.31-1.27-.59-2.2-.83l-.18-.04c-.06-.02-.13-.04-.13,.01l-.12,.2c-.09,.14-.17,.28-.26,.42-.02,.03-.05,.08-.06,.09v-.15c.02-.1,.03-.19,.04-.29,.01-.19,.02-.36,.02-.53,.03-1.45,.21-3.08,.57-4.78,.36-1.69,.97-3.53,1.68-5.1,1.15-2.41,2.68-4.8,5.01-6.94,.25-.21,.52-.37,.8-.5,.27-.12,.46-.15,.7-.24,.45-.16,.88-.4,1.2-1.04,.24-.48,1.99-.74,2.85-1.36,1.26-.9,2.89-1.37,3.71-2.92,.34-.63,1.65-1.16,2.49-1.76,1.15-.83,2.51-1.3,3.36-2.65,.45-.75,2.01-1.67,2.94-1.84,3.84-.7,6.11-3.44,8.84-5.54,.82-.63,1.38-1.09,2.42-1.43,1.45-.48,3.4-1.08,4.22-1.99,1.46-1.63,3.34-2.28,5.09-3.25,3.02-1.68,6.16-3.13,9.19-4.77,3.45-1.87,7.11-3.28,10.37-5.65,1.75-1.27,4.12-2.82,6.7-2.79,.28,0,.85-.98,1.41-1.26,4.41-2.2,8.78-4.35,13.27-6.45,1.04-.49,2.65-.01,3.2-1.3,.12-.6,.32-.45,.61-.39,.12,.04,.24,.07,.26,.05h0s-.03-.03,.07,.07c.14,.14,.29,.28,.44,.4,.31,.24,.6,.53,.93,.75,.1,.06,.34,.22,.68,.45,.16,.1,.41,.19,.59,.29,.16,.1,.41,.15,.6,.19,.06,.02,.14,.04,.22,.03,.04,0,.08,0,.12-.02,0,0,.02,0,.03,0,.01,0,.06-.02,.06-.02-.04,.02-.06,.05-.08,.08-.14,.16-.23,.59-.29,1.07-.01,.15,0,.3,0,.44,0,.16-.01,.39,0,.58,0,.4,.05,.8,.14,1.19,.04,.19,.06,.47,.11,.7l.06,.36,.03,.16h0s0-.04,.01-.06c-.35,.04-.71,.08-1.07,.13-.71,.1-1.42,.23-2.12,.38-1.41,.31-2.79,.67-4.19,1.1-2.78,.85-5.54,1.8-8.36,2.49-1.35,.33-2.73,1.22-4.07,.61-3.05,2.06-7.46,1.11-10.21,3.82-2.5,.49-4.78,2.22-7.46,1.87-.43-.05-1.17,.49-1.65,.48-1.64-.05-1.98,1.93-4.05,1.66-1.19-.15-2.99,.81-4.51,1.31-1.41,.46-2.8,.97-4.19,1.48l-4.6,1.66c-1.53,.57-3.09,1.07-4.58,1.71-3.01,1.32-5.76,3.11-8.99,4.07-.35,.1-.88,.45-.94,.67-.5,1.82-2.37,1.63-3.58,1.66-1.02,.01-1.83,.15-2.79,.55-2.61,1.05-5.18,2.2-7.81,3.18-1.56,.59-3,1.74-4.83,1.48-.57-.08-1.78,.5-2.38,1-1.42,1.16-3.02,1.96-4.67,2.68-1.63,.71-3.29,1.35-4.93,2.17-1.47,.74-3.06,1.41-4.69,2.04-1.22,.48-2.31,1.55-3.82,1.4-2.26,1.2-4.84,1.97-7.46,2.32l-.98,.13-1.49,.09-1.54,.08c-.08,.04-.1-.08-.13-.15l-.1-.22-.21-.45-.41-.89-.82-1.78c-.15-.17,.07-.23,.16-.34l.34-.28,.69-.56-3.95,3.36-2.77-3.33-1.51-2.15c-2.05-2.78-3.58-5.94-4.88-9.16-1.11-3.29-2.04-6.66-2.37-10.07-.27-1.69-.79-3.6,.15-5.14,.09-.15,.11-.52,.1-.9,0-.38-.03-.77-.13-.95-.51-.99-.77-1.77,0-2.82,.13-.2,.09-1.11,0-1.62-.24-1.4-.11-2.65,.55-3.97,.49-1.03,.87-2.46,.96-3.53,.1-2.91,.44-5.73,2.43-8.04,.24-.28-.04-1.42,.22-2.01,1.05-2.22,1.58-4.74,3.48-6.58,.38-.37,.67-.92,.98-1.5,.33-.56,.66-1.15,1.03-1.66,1.24-1.76,1.95-3.69,3.48-5.33,1.61-1.59,2.87-3.7,4.44-5.47,1.5-1.81,3.15-3.5,4.78-5.19l2.53-2.45c.86-.8,1.75-1.56,2.62-2.34,.86-.79,1.78-1.51,2.69-2.25,.91-.74,1.81-1.48,2.76-2.17,.94-.69,1.86-1.41,2.82-2.08l2.88-1.97c.96-.66,1.96-1.25,2.94-1.88,.98-.63,1.98-1.23,2.99-1.79,1.41-.81,2.77-1.46,4.4-1.85,4.14-1.07,8.5-3.34,13.92-6.38,.39-.22,.85-.36,1.28-.52,2.81-1.01,5.62-2.01,8.42-3.02,2.85-.85,5.7-1.71,8.57-2.38,2.55-.51,5.17-.69,7.73-1.4,1.68-.43,3.36-.58,4.92-1.55,1.31-.78,3.45-.35,4.94-1.52,.55-.44,2.16-.68,3.01-.53,1.42,.25,2.8,.14,4.17-.07,1.38-.19,2.75-.44,4.13-.58,1.58-.15,3.16-.32,4.74-.51l4.74-.48c1.55-.16,3.12,0,4.66-.88,.75-.42,2.65-.27,3.81,0,1.79,.41,3.54,.19,5.19-.07,3.54-.56,3.52-.65,7.04-.17,.42,.06,.87,.04,1.31,.05,4.37-.02,8.82,.29,13.06-.09,3.54-.38,6.99-.28,10.48-.19,1.39,.03,3.02-.36,4.14,.7,.16,.15,.95,.17,1.29,.06,2.96-.96,6.08-.24,9.09-.08,2.92,.14,5.66-.59,8.64-.17,2.79,.38,5.66,.4,8.49,.6,4.29,.3,5.18,.96,4.97,3.69-.17,2.25-1.29,2.66-4.76,2.9-7.36,.49-14.64-.7-20.58-.73Z"/>
      </g>
      <g class="cls-12">
        <g class="cls-12">
          <path class="cls-5" d="M44.71,59.75c.92-2.73,2.9-5.1,3.39-7.58,.06-.26,.13-.55,.2-.84l-.26,.34c-1.95,2.56-3.57,5.73-4.5,8.88-.49,1.99-.53,4.11-1.17,6.24-.07,.24,.23,.34,.37,.39,.25-.17,.51-.29,.77-.41,.26-1.76,.5-3.56,1.1-5.31,.23-.56-.04-1.38,.1-1.72Z"/>
          <polygon class="cls-7" points="43.45 66.83 43.5 66.81 43.54 66.55 43.45 66.83"/>
          <path class="cls-4" d="M44.2,62.49c.1-.6,.29-1.16,.5-1.71,0-.41-.08-.82,0-1.04,.92-2.73,2.9-5.1,3.39-7.58,.06-.26,.13-.54,.19-.83l-.28,.36c-.7,.88-1.29,1.86-1.9,2.85l-.04,.19c-.08,.68-.57,1.11-.85,1.67-.56,1.68-1.32,2.98-1.75,4.71-.17,.61-.03,1.36-.27,2.06-.07,.25-.15,.47-.25,.7-.17,.97-.29,1.97-.6,2.96-.07,.24,.23,.34,.37,.39,.13-.09,.27-.16,.4-.23,.27-.79,.45-1.6,.71-2.4,.14-.72,.29-1.45,.47-2.18-.04,.02-.07,.05-.11,.09Z"/>
          <path class="cls-7" d="M44.67,62.57c.03-.1-.14-.29-.37-.17-.18,.73-.33,1.46-.47,2.18,.23-.67,.48-1.35,.84-2.01Z"/>
          <path class="cls-8" d="M45.69,63.02c.6-1.29,.65-2.72,1.38-3.69,.36-.52,.78-.99,1.29-1.34,.08-.18,.15-.36,.23-.53,1.71-4.44,4.18-8.62,7.37-12.08,1.54-1.78,2.61-3.73,4.06-5.73,.99-1.06,2.07-1.61,3.29-2.34,.75-.46,1.44-.95,2.07-1.5,.63-.56,1.18-1.14,1.76-1.69,1.13-1.08,2.39-2.25,4.18-2.38,.92-.01,1.43-1.12,1.16-1.21-1.92-.35-3.68,.25-5.1,.99-1.44,.75-2.67,1.7-3.85,2.62-2.39,1.85-4.66,3.88-6.63,6.29-3.05,3.73-5.84,7.24-8.6,10.88-.07,.29-.13,.57-.2,.84-.49,2.48-2.46,4.85-3.39,7.58-.14,.34,.13,1.16-.1,1.72-.6,1.75-.84,3.54-1.1,5.31,.54-.23,1.06-.4,1.48-.65,.07-1.08,.27-2.15,.7-3.1Z"/>
          <path class="cls-6" d="M45.69,63.02c-.43,.95-.63,2.01-.7,3.1,.21-.13,.39-.28,.53-.47,1.37-2.28,1.83-5.14,2.83-7.65-.51,.35-.93,.82-1.29,1.34-.73,.97-.78,2.4-1.38,3.69Z"/>
          <path class="cls-4" d="M45.69,63.02c-.41,.91-.62,1.91-.68,2.95,.16-.31,.27-.64,.4-.97,.58-1.68,1.07-3.41,2.01-4.92-.71,1.74-1.31,3.53-1.77,5.36,1.27-2.24,1.74-5.01,2.71-7.45-.51,.34-.93,.82-1.28,1.33-.73,.97-.78,2.4-1.38,3.69Z"/>
          <path class="cls-3" d="M46.48,60.24c-.9,1.95-1.7,3.98-1.99,6.17,.14-.06,.27-.12,.39-.19,.04-.09,.08-.17,.13-.25,.07-1.03,.28-2.04,.68-2.95,.6-1.29,.65-2.72,1.38-3.69,.36-.51,.77-.99,1.28-1.33,.07-.17,.14-.33,.21-.5,.86-2.28,1.95-4.46,3.2-6.54,.74-2.02,2.2-3.86,3.76-5.45-.63,.83-1.27,1.66-1.81,2.56,.69-.93,1.44-1.81,2.21-2.66,.67-.74,1.2-1.55,1.77-2.34-.09-.34-.06-.74,.24-1.2,.47-.73,1.1-1.27,1.5-2.1,.09-.08,.24,.1,.41-.06-.49,.46-.76,.96-.9,1.48,.35-.5,.7-1,1.04-1.5,.78-.83,1.61-1.36,2.52-1.89l.24-.24c.4-.39,.74-.87,1.08-1.35-.18,.14-.37,.29-.56,.44,.19-.36,.57-.65,.87-.85-.1,.14-.21,.28-.31,.42,.45-.32,.88-.63,1.36-.98-.58,.42-1.09,.96-1.46,1.46,1-.83,1.9-1.71,3.03-2.24l-.05,.09c.63-.62,1.26-1.25,2-1.77,.73-.52,1.58-.94,2.57-1.01,.91-.02,1.43-1.12,1.15-1.22-1.33-.24-2.62,0-3.72,.41-1.11,.42-2.08,.99-2.99,1.6-1.79,1.25-3.39,2.55-5,3.95,.48-.19,.96-.38,1.42-.56,.19-.11,.38-.19,.58-.24-.19,.08-.38,.16-.58,.24-.5,.29-.97,.71-1.51,1.02-.14,.02-.42,.26-.37,.53-.75,.43-1.35,1.26-2.06,1.74-.04,.03-.15,.05-.27,.06-.36,.4-.73,.79-1.06,1.22-1.93,2.31-3.7,4.59-5.47,6.83,.51-.48,1.01-.93,1.56-1.28,.39-.22,.78-.73,1.17-1.34,.41-.6,.85-1.28,1.27-1.88,.19-.33,.52-.34,.77-.6-.34,1.4-1.75,2.36-2.54,3.62-1.13,1.58-3.13,3.56-3.8,5.63-.25,.86-.91,1.43-1.47,1.94-.02-.3,.24-.72,.37-.93,1.14-1.88,2.38-3.68,3.6-5.53-1.6,1.69-2.65,3.65-4.12,5.46,.33-.6,.73-1.14,1.1-1.69,.38-.54,.73-1.08,.92-1.71-.11,.06-.21,.12-.31,.19-.56,.71-1.11,1.42-1.64,2.14-.07,.29-.13,.56-.19,.83-.49,2.48-2.46,4.85-3.39,7.58-.09,.22-.01,.63,0,1.04,.32-.86,.77-1.66,1.11-2.51-.21,.31-.44,.6-.73,.84,.3-.82,.85-1.35,1.18-2.15-.13,.45-.28,.89-.45,1.31,.31-.47,.58-.98,.9-1.48-.24,1.12-1.21,1.83-1.26,3.04,.09-.22,.19-.44,.3-.65l-.3,.67h0c-.25,.67-.35,1.42-.43,2.08,.2-.59,.48-1.13,.75-1.66,.29-.52,.59-1.04,.81-1.61,.06-.19,.13-.38,.19-.58-.05,.2-.12,.39-.19,.58-.95,2.64-2.2,5.18-3.03,7.89l-.04,.27,.36-.15c.62-2.24,1.58-4.42,2.62-6.43Z"/>
        </g>
      </g>
      <g class="cls-12">
        <g class="cls-12">
          <path class="cls-5" d="M129.67,190.35c-2.27-.4-4.47-1.69-6.55-1.38-.23,.02-.46,.05-.7,.09l.32,.13c2.39,1.01,5.07,1.78,7.65,2.19,1.63,.14,3.35-.03,5.07,.46,.19,.05,.29-.25,.34-.4-.13-.24-.23-.48-.31-.73-1.46-.16-2.93-.21-4.4-.54-.48-.14-1.12,.25-1.41,.17Z"/>
          <polygon class="cls-7" points="135.52 190.76 135.51 190.71 135.29 190.69 135.52 190.76"/>
          <path class="cls-4" d="M131.94,190.42c-.49-.02-.96-.11-1.43-.23-.34,.07-.66,.21-.85,.16-2.27-.4-4.47-1.69-6.55-1.38-.23,.02-.46,.05-.69,.09,.11,.05,.23,.09,.34,.14,.83,.35,1.69,.67,2.57,.96h.16c.55-.1,.96,.26,1.43,.4,1.41,.16,2.51,.64,3.92,.79,.5,.06,1.1-.18,1.67-.01,.2,.04,.39,.1,.57,.16,.79,.04,1.59,.13,2.4,.36,.19,.05,.29-.25,.34-.4-.07-.12-.12-.25-.18-.38-.64-.21-1.31-.35-1.97-.53-.6-.06-1.2-.12-1.81-.22,.02,.03,.04,.07,.07,.1Z"/>
          <path class="cls-7" d="M131.99,189.94c-.08-.02-.24,.18-.12,.38,.6,.1,1.2,.16,1.81,.22-.56-.15-1.12-.33-1.68-.6Z"/>
          <path class="cls-8" d="M132.32,188.89c-1.12-.4-2.32-.25-3.2-.75-.47-.24-.91-.58-1.27-.98-.16-.03-.32-.06-.48-.09-3.96-.65-7.92-1.43-11.64-2.68-1.86-.57-3.69-.52-5.65-.92-1.12-.37-1.77-1.12-2.61-1.88-1.05-1-2.32-1.67-3.8-2.05-1.46-.38-3.14-.49-4.66,0-.83,.29-.47,1.54-.3,1.49,.87-.41,1.93-.4,2.97-.03,1.05,.35,2.06,.97,3.07,1.61,1.01,.65,2.06,1.36,3.23,1.93,1.16,.57,2.37,1,3.62,1.31,1.94,.49,3.79,.9,5.59,1.41,1.79,.5,3.52,1.11,5.22,1.82,.24-.03,.47-.06,.7-.09,2.08-.31,4.28,.98,6.55,1.38,.29,.08,.93-.31,1.41-.17,1.47,.32,2.94,.38,4.4,.54-.18-.51-.31-1.03-.52-1.43-.91-.02-1.82-.06-2.63-.39Z"/>
          <path class="cls-6" d="M132.32,188.89c.81,.33,1.71,.37,2.63,.39-.11-.2-.23-.37-.4-.5-1.96-1.17-4.47-1.22-6.69-1.63,.36,.4,.8,.74,1.27,.98,.88,.5,2.08,.35,3.2,.75Z"/>
          <path class="cls-4" d="M132.32,188.89c.77,.32,1.63,.37,2.5,.39-.26-.13-.54-.24-.82-.32-1.43-.41-2.92-.67-4.28-1.3,1.54,.37,3.08,.74,4.65,1.03-1.94-1.07-4.36-1.12-6.52-1.52,.36,.4,.8,.73,1.26,.97,.88,.5,2.08,.35,3.2,.75Z"/>
          <path class="cls-3" d="M129.93,188.53c1.7,.56,3.43,1.06,5.26,1.23-.05-.13-.1-.26-.16-.38-.07-.04-.14-.07-.21-.11-.87-.02-1.73-.07-2.5-.39-1.12-.4-2.32-.25-3.2-.75-.47-.24-.9-.58-1.26-.97-.15-.03-.3-.06-.45-.09-2.03-.33-4.04-.7-6.03-1.14-1.81-.02-3.69-.54-5.41-1.23,.83,.21,1.69,.39,2.56,.53-.94-.25-1.87-.53-2.77-.84-.79-.24-1.57-.37-2.36-.47-.23,.23-.55,.4-1,.34-.7-.09-1.32-.35-2.08-.35-.09-.04,.02-.25-.16-.33,.49,.23,.96,.24,1.4,.12-.48-.06-.96-.14-1.45-.24-.87-.28-1.48-.82-2.09-1.39-.08-.03-.16-.07-.24-.11-.4-.19-.87-.33-1.35-.45,.16,.11,.31,.22,.48,.34-.33-.04-.66-.27-.9-.44,.14,.04,.29,.07,.42,.11-.38-.27-.75-.52-1.16-.81,.51,.34,1.09,.56,1.58,.72-.94-.56-1.85-1.03-2.76-1.76h.1c-1.58-.49-3.45-.68-5.15-.17-.84,.29-.46,1.53-.31,1.49,1.22-.6,2.79-.23,4.21,.52,1.44,.74,2.78,1.77,4.36,2.64-.28-.35-.53-.69-.79-1.04-.12-.12-.23-.26-.32-.42,.1,.14,.21,.28,.32,.42,.34,.34,.81,.58,1.2,.94,.05,.12,.32,.27,.53,.12,.55,.48,1.4,.64,1.98,1.07,.04,.02,.08,.11,.13,.21,.43,.14,.86,.26,1.29,.37,2.42,.61,4.72,1.11,6.92,1.81-.51-.27-.99-.55-1.42-.88-.57-.49-2.03-.5-3.23-.72-.31-.02-.42-.3-.71-.4,1.19-.34,2.38,.43,3.58,.61,1.58,.29,3.63,1.37,5.43,1.31,.74-.03,1.34,.38,1.84,.77-.24,.1-.62-.01-.81-.07-1.72-.49-3.44-.98-5.21-1.33,1.75,.74,3.54,1.01,5.26,1.83-1.08-.23-2.03-.83-3.11-.72,.07,.08,.14,.15,.22,.22,.68,.25,1.36,.51,2.03,.79,.23-.03,.46-.06,.69-.09,2.08-.31,4.28,.98,6.55,1.38,.18,.05,.51-.09,.85-.16-.72-.19-1.42-.45-2.14-.62,.27,.14,.53,.31,.75,.54-.69-.12-1.17-.58-1.86-.7,.38,.01,.75,.07,1.12,.16-.41-.21-.86-.36-1.31-.54,.95-.05,1.62,.79,2.62,.59-.19-.04-.38-.09-.56-.17l.57,.16h-.01c.59,.12,1.2,.11,1.76,.09-1.01-.22-1.84-.75-2.83-.96-.16-.02-.33-.05-.5-.07,.17,.01,.34,.04,.5,.07,2.29,.38,4.46,1.27,6.67,1.94l.22,.02-.12-.34c-1.85-.52-3.7-1.14-5.46-1.83Z"/>
        </g>
      </g>
      <g class="cls-12">
        <g class="cls-12">
          <path class="cls-5" d="M186.93,198.77c-3.29-.23-6.61-1.46-9.47-1.11-.31,.03-.63,.06-.97,.1l.47,.13c3.53,.98,7.46,1.67,11.21,1.86,2.33,0,4.72-.36,7.26-.12,.28,.03,.34-.28,.36-.44-.24-.22-.45-.45-.63-.68-2.07,.06-4.15,.17-6.28-.01-.7-.1-1.52,.34-1.94,.28Z"/>
          <polygon class="cls-7" points="195.24 198.54 195.2 198.5 194.89 198.51 195.24 198.54"/>
          <path class="cls-4" d="M190.14,198.64c-.7,.03-1.38,0-2.05-.1-.46,.1-.89,.26-1.15,.22-3.29-.23-6.61-1.46-9.47-1.11-.31,.03-.63,.06-.96,.1l.5,.14c1.22,.35,2.49,.64,3.79,.91l.22-.02c.76-.1,1.4,.24,2.1,.35,2.02,.1,3.67,.49,5.7,.54,.72,.01,1.51-.29,2.36-.19,.29,.02,.57,.06,.84,.1,1.13-.06,2.28-.09,3.46,.03,.28,.03,.34-.28,.36-.44-.13-.11-.24-.23-.35-.35-.96-.12-1.92-.17-2.89-.25-.85,.02-1.71,0-2.58-.02,.03,.03,.07,.06,.13,.09Z"/>
          <path class="cls-7" d="M190.1,198.16c-.12-.01-.29,.2-.09,.39,.87,.03,1.72,.04,2.58,.02-.82-.08-1.65-.21-2.49-.42Z"/>
          <path class="cls-8" d="M190.33,197.08c-1.65-.27-3.28-.06-4.62-.48-.7-.21-1.38-.54-1.95-.92-.23-.02-.46-.05-.68-.07-5.64-.46-11.24-1.3-16.72-2.58-2.76-.57-5.43-.47-8.33-.56-1.71-.16-3.01-.75-4.64-1.2-4.06-1.22-7.85-.34-12.11-.26-1.15,.01-1.4,1.26-1.12,1.29,7.12,.03,13.69,1.57,20.75,2.35,5.49,.64,10.58,1.71,15.58,3.1,.33-.03,.66-.07,.97-.1,2.87-.35,6.18,.88,9.47,1.11,.42,.06,1.25-.38,1.94-.28,2.13,.18,4.21,.07,6.28,.01-.39-.49-.7-.98-1.1-1.34-1.26,.12-2.53,.17-3.73-.08Z"/>
          <path class="cls-6" d="M190.33,197.08c1.2,.25,2.47,.2,3.73,.08-.2-.18-.42-.33-.68-.44-2.99-.91-6.44-.73-9.62-1.04,.58,.38,1.25,.71,1.95,.92,1.33,.42,2.97,.22,4.62,.48Z"/>
          <path class="cls-4" d="M190.33,197.08c1.15,.24,2.35,.2,3.56,.09-.4-.09-.8-.16-1.21-.2-2.08-.24-4.2-.35-6.22-.9,2.21,.27,4.43,.49,6.67,.57-2.93-.82-6.27-.65-9.36-.96,.58,.38,1.25,.7,1.95,.91,1.33,.42,2.97,.22,4.62,.48Z"/>
          <path class="cls-3" d="M186.92,196.93c1.24,.23,2.5,.42,3.76,.54,1.26,.14,2.54,.19,3.83,.14-.1-.12-.2-.24-.31-.35-.11-.03-.21-.05-.31-.08-1.21,.11-2.41,.15-3.56-.09-1.65-.27-3.28-.06-4.62-.48-.7-.21-1.37-.53-1.95-.91-.22-.02-.43-.05-.64-.07-2.88-.23-5.75-.57-8.6-1.01-2.54,0-5.22-.55-7.77-1.26,1.22,.22,2.45,.4,3.69,.55-1.35-.26-2.7-.55-4.04-.86-1.17-.24-2.32-.36-3.49-.43-.28,.25-.69,.44-1.34,.41-1.01-.04-1.98-.23-3.04-.12-.14-.03-.07-.26-.35-.31,.77,.15,1.44,.1,2.03-.06-.71-.01-1.43-.03-2.15-.04-1.34-.13-2.43-.51-3.63-.9l-.4-.03c-.67-.06-1.35-.02-2.05,.04,.27,.05,.54,.1,.83,.15-.46,.08-1.02-.02-1.43-.1,.2-.02,.41-.04,.6-.05-.65-.11-1.27-.22-1.96-.34,.84,.13,1.71,.14,2.45,.11-1.55-.21-2.99-.27-4.49-.68l.12-.03c-2.21,.04-4.42,.32-6.8,.37-1.15,.01-1.4,1.26-1.12,1.29,4.96,.01,9.68,.78,14.46,1.5-.51-.25-1.03-.5-1.56-.73-.23-.07-.45-.16-.66-.29,.22,.09,.44,.19,.66,.29,.63,.2,1.35,.28,2.03,.53,.12,.1,.53,.18,.73-.02,.93,.33,2.1,.32,3.02,.67,.06,.01,.14,.1,.24,.19,.61,.07,1.21,.14,1.83,.22,3.43,.4,6.7,.97,9.9,1.68-.75-.28-1.47-.57-2.13-.89-.88-.5-2.92-.52-4.62-.71-.44,0-.65-.29-1.06-.38,1.58-.4,3.4,.37,5.11,.56,2.25,.3,5.3,1.4,7.81,1.32,1.03-.05,1.94,.37,2.71,.75-.32,.11-.87,0-1.15-.06-2.5-.47-4.99-.96-7.52-1.32,2.56,.76,5.12,1.03,7.67,1.83-1.55-.21-2.99-.81-4.48-.71,.11,.08,.23,.15,.34,.22,.97,.26,1.96,.52,2.98,.78,.33-.03,.65-.07,.96-.1,2.87-.35,6.18,.88,9.47,1.11,.27,.04,.7-.12,1.15-.22-1.05-.14-2.08-.34-3.14-.47,.41,.13,.8,.28,1.16,.49-1-.06-1.76-.52-2.76-.6,.54,0,1.07,.04,1.6,.1-.62-.19-1.28-.32-1.94-.48,1.32-.1,2.43,.72,3.79,.44-.28-.03-.55-.07-.82-.13l.84,.12h-.02c.85,.08,1.7,.03,2.48-.05-1.46-.13-2.73-.6-4.15-.75l-.71-.05c.24,0,.48,.02,.71,.05,3.27,.23,6.5,.94,9.76,1.27h.31s-.25-.33-.25-.33c-2.7-.25-5.43-.66-8.02-1.24Z"/>
        </g>
      </g>
      <g class="cls-12">
        <g class="cls-12">
          <path class="cls-5" d="M377.27,170.71c-2.5,1.53-5.56,2.27-7.44,4.04-.21,.18-.42,.38-.65,.58l.41-.13c3.11-1.01,6.32-2.54,9.12-4.34,1.67-1.22,3.18-2.75,5.15-3.86,.22-.12,.08-.41,.01-.55-.3-.05-.58-.14-.84-.23-1.47,1.11-2.89,2.29-4.53,3.24-.55,.29-.89,1.09-1.23,1.25Z"/>
          <polygon class="cls-7" points="383.12 166.21 383.07 166.19 382.85 166.36 383.12 166.21"/>
          <path class="cls-4" d="M379.51,168.93c-.48,.39-1,.7-1.53,.99-.27,.32-.49,.68-.7,.79-2.5,1.53-5.56,2.27-7.44,4.04-.2,.18-.42,.38-.64,.58l.44-.14c1.07-.36,2.17-.76,3.24-1.23l.15-.13c.49-.49,1.15-.53,1.71-.81,1.5-.99,2.92-1.52,4.4-2.55,.53-.37,.93-1.01,1.59-1.38,.22-.14,.44-.25,.66-.36,.78-.62,1.59-1.24,2.52-1.75,.22-.12,.08-.41,.01-.55-.16-.03-.31-.07-.45-.11-.76,.39-1.47,.86-2.23,1.28-.61,.45-1.22,.91-1.86,1.33,.04,0,.09,.01,.14,0Z"/>
          <path class="cls-7" d="M379.2,168.56c-.1,.05-.09,.31,.16,.37,.65-.42,1.26-.87,1.86-1.33-.64,.35-1.3,.7-2.03,.96Z"/>
          <path class="cls-8" d="M378.75,167.55c-1.35,.62-2.38,1.68-3.59,2.01-.62,.2-1.29,.28-1.91,.27-.18,.1-.35,.2-.53,.3-4.29,2.56-8.78,4.78-13.48,6.32-2.32,.85-4.26,2.16-6.52,3.37-1.39,.6-2.66,.64-4.11,.9-1.83,.27-3.35,.9-4.91,1.52-1.55,.61-3.2,1.24-5.08,1.26-.99,0-1.36,1.19-1.11,1.25,3.44,.3,6.62-.34,9.63-1.17,3-.86,5.91-1.85,8.82-3.14,4.51-1.98,8.81-3.65,13.21-5.1,.23-.2,.44-.4,.65-.58,1.89-1.77,4.95-2.52,7.44-4.04,.34-.17,.68-.96,1.23-1.25,1.64-.95,3.06-2.13,4.53-3.24-.56-.2-1.06-.44-1.55-.54-.85,.74-1.73,1.45-2.73,1.87Z"/>
          <path class="cls-6" d="M378.75,167.55c1-.42,1.88-1.13,2.73-1.87-.24-.05-.49-.06-.74,0-2.67,.8-5.05,2.75-7.49,4.16,.63,.01,1.29-.08,1.91-.27,1.21-.33,2.24-1.39,3.59-2.01Z"/>
          <path class="cls-4" d="M378.75,167.55c.96-.4,1.8-1.07,2.61-1.77-.34,.13-.67,.28-.99,.45-1.63,.89-3.21,1.9-4.97,2.5,1.74-.93,3.45-1.92,5.11-3-2.57,.85-4.88,2.73-7.25,4.1,.62,0,1.29-.08,1.91-.27,1.21-.33,2.24-1.39,3.59-2.01Z"/>
          <path class="cls-3" d="M376.23,169.2c2.03-.94,4.03-1.99,5.84-3.39-.14-.05-.29-.09-.43-.13-.1,.03-.18,.07-.27,.1-.81,.7-1.66,1.37-2.61,1.77-1.35,.62-2.38,1.68-3.59,2.01-.62,.2-1.28,.28-1.91,.27l-.5,.28c-2.19,1.31-4.43,2.53-6.73,3.62-1.83,1.29-4.09,2.17-6.33,2.81,1.01-.41,2.01-.85,2.99-1.35-1.12,.46-2.26,.87-3.4,1.25-.98,.36-1.9,.8-2.8,1.28-.09,.35-.3,.7-.81,.98-.79,.42-1.61,.7-2.37,1.27-.12,.04-.18-.19-.41-.12,.67-.2,1.14-.56,1.52-.96-.54,.31-1.09,.62-1.66,.92-1.09,.47-2.11,.6-3.2,.76l-.32,.14c-.54,.22-1.06,.53-1.58,.85,.23-.06,.46-.13,.71-.19-.33,.25-.8,.38-1.16,.47,.15-.09,.3-.19,.45-.28-.55,.14-1.08,.28-1.67,.41,.71-.16,1.4-.5,1.96-.82-1.29,.43-2.45,.87-3.77,.94l.09-.06c-1.72,.68-3.51,1.44-5.6,1.48-.99,0-1.37,1.2-1.1,1.25,4.82,.37,9.07-.94,13.16-2.29-.53,0-1.05,0-1.56,0-.22,.03-.43,.04-.65,0,.21,0,.43,0,.65,0,.59-.07,1.19-.31,1.83-.38,.14,.04,.5-.06,.57-.33,.88-.1,1.78-.63,2.66-.74,.05-.02,.15,.02,.28,.06,.5-.21,1-.43,1.51-.65,2.82-1.24,5.55-2.36,8.28-3.38-.7,.15-1.38,.27-2.04,.31-.91,.01-2.44,1-3.81,1.65-.33,.2-.63,.05-.99,.17,.99-1.09,2.74-1.3,4.1-1.98,1.82-.85,4.64-1.47,6.41-2.84,.73-.56,1.6-.69,2.37-.78-.17,.25-.63,.46-.86,.56-2.07,.9-4.14,1.78-6.2,2.74,2.29-.63,4.3-1.74,6.59-2.4-1.24,.63-2.61,.88-3.65,1.73,.12,0,.25,.01,.37,0,.85-.29,1.71-.58,2.6-.88,.22-.2,.44-.39,.64-.58,1.89-1.77,4.95-2.52,7.44-4.04,.21-.11,.43-.46,.7-.79-.83,.44-1.69,.8-2.52,1.26,.37-.11,.74-.19,1.11-.2-.75,.47-1.56,.5-2.32,.96,.39-.29,.79-.53,1.2-.76-.55,.17-1.1,.41-1.66,.63,.89-.78,2.14-.69,2.96-1.63-.21,.12-.43,.23-.66,.33l.67-.34h-.01c.66-.36,1.23-.86,1.75-1.33-1.11,.67-2.3,.94-3.4,1.56l-.54,.33c.18-.12,.35-.23,.54-.33,2.48-1.51,5.18-2.65,7.74-4.04l.22-.17-.37-.14c-2.09,1.19-4.29,2.26-6.47,3.15Z"/>
        </g>
      </g>
    </g>
  </g>
</svg>