<?xml version="1.0" encoding="UTF-8"?>
<svg id="_Слой_2" data-name="Слой 2" xmlns="http://www.w3.org/2000/svg" xmlns:xlink="http://www.w3.org/1999/xlink" viewBox="0 0 650.88 291.07">
  <defs>
    <style>
      .cls-1 {
        fill: none;
      }

      .cls-2 {
        clip-path: url(#clippath);
      }

      .cls-3 {
        fill: #f3f9fb;
      }

      .cls-4 {
        fill: #f7fbfc;
      }

      .cls-5 {
        fill: #f8fcfd;
      }

      .cls-6 {
        fill: #66af66;
      }

      .cls-7 {
        fill: #f4fafb;
      }

      .cls-8 {
        fill: #f5fafb;
      }

      .cls-9 {
        fill: #fbfdfe;
      }

      .cls-10 {
        fill: #6e7c6e;
      }

      .cls-11 {
        opacity: .49;
      }

      .cls-12 {
        opacity: .8;
      }
    </style>
    <clipPath id="clippath">
      <rect class="cls-1" width="650.88" height="291.07"/>
    </clipPath>
  </defs>
  <g id="_лягушки" data-name="лягушки">
    <g class="cls-2">
      <g>
        <g class="cls-11">
          <path class="cls-10" d="M194.02,231.78c-35.32,.11-77.75-7.39-108.18-24.48-5.07-3.8-7.61-7.59-12.68-9.49-5.07-5.7-7.61-9.49-12.68-13.29-7.61-13.29-10.14-30.37,2.54-41.77,48.19-39.87,116.66-56.95,185.14-64.55,103.98-11.39,213.04,13.29,286.55,68.41l-.87,1.37c-69.44,3.9-145.33,7.53-219.01,10.3l15.68,1.13c49.98-.66,91.1,2.75,140.96,5.46,27.96,1.52,56.69,3.74,81.52,13.47h0c-5.91,16.87-27.93,28.35-51.54,36.2-50.99,16.96-103.23,25.99-159.15,22.82-54.84-3.11-100.68-1.85-155.2-7.39"/>
          <path class="cls-10" d="M155.87,230.96c-11.27-1.6-20.38-3.57-29.4-5.78-1.4-.34-3.11-.23-4.86-.78-7-1.98-14.27-4.04-20.57-7.26-1.7-.91-3.45-1.7-5.13-2.62-1.69-.9-3.4-1.76-5.1-2.6-1.67-.91-3.34-1.78-5.02-2.62-.37-.19-.97-.44-1.42-.83-.4-.29-.78-.57-1.16-.86-.76-.57-1.5-1.16-2.22-1.73-2.75-2.21-5.09-4.4-7.75-5.54l-.86-.35-.41-.17c-.07-.03-.14-.05-.2-.09l-.15-.16-1.16-1.3-1.69-1.94c-1.12-1.29-2.21-2.58-3.33-3.81-1.51-1.66-3.01-3.08-4.41-5.05-.13-.18-.29-.37-.46-.56-.09-.1-.18-.2-.28-.3-.14-.12-.28-.25-.42-.38-.15-.13-.29-.26-.45-.39l-.23-.2-.14-.28c-.19-.37-.39-.75-.6-1.13-.73-1.23-1.51-2.48-2.4-3.49-.37-.38-.6-1.46-.84-2.2-.27-.81-.28-1.86-.57-2.41-1.68-3.1-2.59-6.66-2.86-10.32-.26-3.66,.16-7.39,1-10.99,.14-.92,.62-1.79,.89-2.68,.26-.9,.59-1.73,.59-2.63,0-.23,.2-.77,.45-1.29,.29-.5,.65-.99,.87-1.17,.61-.47,1.06-1.04,1.61-1.58,.54-.55,1.06-1.16,1.61-1.84,1.28-1.39,2.68-2.84,4.07-3.83l4.2-3.27c1.41-1.08,2.79-2.2,4.22-3.24l4.36-3c1.13-1.4,2.57-2.56,4.11-3.63,1.55-1.05,3.26-1.9,4.84-2.88,1.19-.72,2.42-1.37,3.66-2,1.25-.61,2.47-1.27,3.75-1.82,2.55-1.16,4.88-3.17,7.64-3.66,.44-.08,1.26-.83,1.93-1.21,3.11-1.6,6.26-3.48,9.36-4.61,1.58-.61,3.2-1.1,4.75-1.77l7.49-3.23c2.51-1.04,5.07-1.97,7.6-2.95,5.04-2.03,10.23-3.66,15.36-5.45,2.57-.88,5.19-1.6,7.78-2.41,2.6-.77,5.18-1.63,7.81-2.3,5.24-1.41,10.47-2.88,15.76-4.07,1.84-.44,3.61-.74,5.44-1.77,1.42-.83,4.78-1.51,6.35-1.38,2.53,.23,4.7-.53,6.99-.97,4.22-.72,8.44-1.6,12.67-2.29,2.52-.38,5.23-1.32,7.59-.67,.23,.06,1.02-.07,1.28-.21,2.64-1.43,5.47-1.04,8.29-1.28,2.04-.19,4.08-.49,6.24-1.27,2.1-.79,5.71-1.29,7.77-1.03,2.76,.35,5.19-.17,7.69-.46,14.82-1.57,29.71-2.43,44.6-2.69,1.76-.03,3.52-.13,5.27-.21l5.26-.24c3.51-.18,7.04-.2,10.59,.08,1.69,.13,3.56-.2,5.05,.6,.31,.16,1.67,.14,2.21,0,1.97-.53,3.89-.2,6.08-.05,9.91,.77,19.91,2.09,29.67,2.68,7.59,.53,14.95,1.79,22.37,2.98,2.47,.41,4.89,1.27,7.36,1.89,2.4,.58,4.86,1.03,7.31,1.48,1.45,.28,2.85,.82,4.4,.57,.83-.13,2.93,.25,3.71,.68,2.64,1.44,5.71,1.92,8.63,2.64,2.09,.51,4.15,1.09,6.23,1.65,2.07,.57,4.15,1.1,6.21,1.71,4.12,1.22,8.25,2.39,12.33,3.77,2,.67,4.39,.95,5.9,2.42,.21,.2,1.44,.33,2.2,.5,.81,.19,1.85,.28,2.39,.6,2.45,1.42,5.07,2.54,7.76,3.53l4.06,1.43c1.34,.5,2.68,1,4,1.54,12.74,5.24,25.34,10.91,37.37,17.63,1.67,.96,3.33,1.69,4.98,2.42,1.66,.72,3.29,1.44,4.88,2.44l4.66,2.8c1.56,.92,3.07,1.93,4.58,2.92,1.07,.71,2.23,1.35,3.31,2.06l.4,.27,.47,.35c.31,.24,.61,.48,.89,.73,.57,.5,1.07,1.01,1.44,1.54,.41,.58,2.1,1.72,3.1,2.13,.94,.39,1.85,.85,2.7,1.34,.67,.48,1.24,1,1.8,1.51,1.11,1.04,2.12,2.07,3.29,3.1l1.03,.95,.25,.24,.12,.12-.11,.16-.42,.65-.43,.65c-.19,.13-.5,.09-.74,.15l-1.53,.2c-2.02,.27-3.92,.56-5.65,1.19-.95,.36-3.32,.31-4.94,.49-.74,.08-1.35,.2-2.29,.21l-2.23,.09c-1.28,.06-2.57,.13-3.85,.22-1.23,.09-2.41,.48-3.64,.58-9.47,.74-18.93,1.5-28.42,2.09-9.66,.6-19.34,1.01-29.01,1.49-9.67,.48-19.34,1.02-29.02,1.36-3.63,.13-7.53,1.01-10.94-.04-3.31,.88-6.26,.57-9.22-.11-.42-.1-1.46,.3-2.24,.43-2.44,.43-4.71,1.75-7.47,.55-.1-.04-.44,.03-.66,.02-2.25-.09-3.76,1.32-6.66,.64-1.8-.42-4.68-.08-7.07-.02-2.47,.06-4.97,.12-7.42,.33-2.53,.23-5.32-.28-7.65,.82-.38,.18-2.27-.44-3.38-.35-5.65,.49-11.5-.19-17.02,1.22-1.26,.32-3.28,.38-4.65,.19-4.92-.67-9.48-.03-14.49,.48-3.44,.35-7.02,.64-10.57,.69l.11-6.37c3.23,.31,6.42,.82,9.46,1.64,1.35,.36,1.95,.61,3.37,.27,.47-.11,1.1-.12,1.77-.09,.31,.02,.62,.04,.93,.06,.31,0,.61,0,.9,0,14.44-.18,28.89,0,43.32,.41,3.93,.13,7.55,1.2,11.59,1.01,1.67-.08,3.59,.49,5.01-.27,.2-.1,.89-.14,1.2-.07,4.78,1.16,9.65,.05,14.43,.69,1.02,.14,2,.36,3.01,.51,1.04,.16,2.24,.46,3.13,.37,7.43-.76,14.97,.56,22.43,.71,2.54,.05,5.29,.74,7.61-.11,.35-.13,1.47-.05,1.95,.11,4.28,1.44,9.1,.81,13.58,1.38,2.3,.29,4.94-.21,6.95,.88,.26,.14,1.19,.09,1.77,.05,1.01-.06,2-.33,2.96-.26,2.68,.2,5.57,.9,7.95,.72,2.94-.23,5.7,.12,8.5,.29,1.61,.1,3.18,.67,4.81,.9,1.54,.21,3.14,.29,4.72,.42,2.25,.19,4.61,.28,6.72,.7,2.18,.49,4.07-.35,6.42,.66,1.79,.78,4.07,.11,6.18,.34,1.05,.11,2.14,.39,3.17,.65,.78,.22,1.49,.67,2.23,.77,1.68,.23,3.26,.69,5.13,.64,1.29-.05,3.38,.92,5.13,1.41,.87,.23,1.76,.44,2.65,.64l2.65,.66c1.77,.43,3.61,1.16,5.25,1.41,1.84,.24,3.57,.66,5.42,1.18,2.45,.67,4.76,1.66,7.1,2.56,.57,.23,1.19,.45,1.71,.7l-.75,1.75c-.52,1.15-.94,2.35-1.57,3.44l-1.75,3.32-1.74,2.57c-.27,.42-.56,.84-.88,1.25-.31,.41-.64,.83-.97,1.22-.34,.39-.69,.76-1.08,1.06-.4,.28-.83,.51-1.28,.66-.32,.11-1.1,.88-1.44,1.35-2.2,2.86-5.03,5.28-8.09,7.23-3.03,2.04-6.26,3.69-9.32,5.54-4.38,2.6-8.79,5.05-13.64,6.87-4.7,1.77-9.68,3.27-14.11,5.11-3.64,1.54-7.26,3.05-11.03,3.92-1.84,.44-3.51,1.34-5.22,2.09-1.72,.71-3.48,1.27-5.46,1.07-3.7,1.07-7.44,2.06-11.18,2.96-3.14,.78-6.3,1.86-9.57,1.77-1.19-.05-3.35,.51-4.52,1.02-3.77,1.69-7.65,2.34-11.78,2.6-.97,.07-2.09,.72-3.19,.94-3.33,.71-6.71,1.29-10.07,1.72-10.03,1.19-19.76,3.46-29.82,4.27-1.85,.16-3.84,1.05-5.49,.95-10.05-.36-20.24,1.02-30.18,.37-3.65-.32-7.3-.46-10.95-.67-3.63-.24-7.31-.38-10.91-.56-7.2-.37-14.4-.59-21.6-.97-1.87-.1-3.81-.91-4.71-.73-2.78,.54-5.92-.1-8.24,.3-4.18,.74-8.27,.03-12.36,.13-2.98,.08-6.17-.6-8.94,.32-.4,.13-1.43,.08-1.97-.05-4.36-1.06-8.74,.21-13.08-.36-8.29,.91-16.78-.16-25.17-.25-1.23-.02-2.44,.18-3.67,.26-.62,.04-1.36,.16-1.88,.06-7.55-1.53-15.46-1.04-23.15-1.86-2.54-.29-5.01-.8-7.54-1.09-2.56-.31-5.22-.24-7.57-1.18-.73-.29-2.22-.3-3.32-.3-5.95-.06-10.19-2.06-10.01-4.59,.06-.92,1.28-.86,2.57-1.08,2.51-.43,4.95-.62,7.91-.27,2.3,.24,4.8,.74,6.92,.03,.35-.12,1.4,0,1.95,.16,3.89,1.08,8.38,.77,12.09,1.55,2.85,.59,5.52,.64,8.26,.97,2.3,.26,4.72-.08,7,.84,.77,.31,3.08-.27,4.7-.24,3.82,.09,7.66,.21,11.46,.46,11.56,.8,23-.2,34.55,.46,8.28-.9,16.84,.37,25.1,.1,10-.32,19.95,.43,29.9,.69,2.05,.05,3.68,.16,5.46,.52,1.16,.24,2.39,.5,3.61,.56,4.69,.31,9.4,.2,14.09,.4,2.51,.06,5.32-.57,7.56,.48,.31,.14,1.45,.12,1.94-.02,2.05-.54,4.19-.77,6.37-.82,2.17-.08,4.37,.02,6.51-.2,1.64-.15,3.22-.21,5.02,.06,.98,.15,2.23,.16,3.48,.08,1.25-.11,2.51-.33,3.5-.61,1.5-.42,2.85-.55,4.29-.76,5.99-.94,12.39-.57,18.06-2.71,3.25,.73,7.02-.27,10.08-1.05,11.77-3.01,23.81-4.77,35.53-7.92,2.82-.79,5.81-1.01,8.7-1.72,3.03-.75,6.06-1.61,9.06-2.55,1.59-.51,3.57-.71,4.57-1.88,.07-.09,.35-.21,.52-.25,1.75-.38,3.58-.6,5.22-1.21,1.48-.53,2.69-1.51,4.15-2.14,1.75-.75,3.65-1.37,5.46-2.03,1.77-.61,3.57-1.48,5.25-1.32,1.06-1.34,3.2-1.74,4.91-2.48,1.59-.74,3.24-1.38,4.85-2.1,1.79-.84,3.6-1.64,5.33-2.56,1.77-.86,3.52-1.78,5.17-2.8,1.12-.72,2.16-1.53,3.23-2.3,1.05-.79,2.03-1.64,3.09-2.41,1.09-.84,2.13-1.72,3.23-2.55,1.01-.91,2.09-1.75,3.08-2.65l1.85-1.7c.61-.57,1.14-1.19,1.73-1.78,.28-.3,.59-.59,.85-.91l.76-.96,.38-.48c.13-.17,.26-.34,.33-.41,.19-.21,.26-.31,.38-.49,.38-.54,.43-1.08,.18-1.45-.07-.12-.2-.21-.32-.28-.01-.03-.1-.02-.17-.01h-.21c-.14,.02-.26,.03-.36,.03-.42,0-.45-.1-.45-.77,0-.13-.17-.23-.4-.3-.11-.03-.22-.06-.34-.09-.15-.04-.3-.08-.45-.12-.3-.07-.58-.13-.82-.16-1.89-.32-3.79-.62-5.65-1.09-1.87-.44-3.75-.9-5.61-1.41-3.76-.94-7.54-1.93-11.38-2.42-4.03-1.7-8.27-1.71-12.7-2.02-6.53-.44-13.46-.93-19.85-1.96-6.78-1.1-13.51-1.13-20.28-1.73-1.9-.17-3.99,.07-5.56-.87-.36-.21-1.81-.24-2.61-.16-5.56,.58-10.9,0-16.48-.9-2.94-.48-6.31-.32-9.6-.18-4.94,.2-10.27-.47-15.44-.77-2.17-1.17-3.97-.2-5.14,.19-1.56,.52-3,.55-4.81,.47-2.34-.1-4.63-.41-6.97,.16-1.2,.28-3.83,.09-5.08-.34-1.68-.57-2.33-.37-3.9-.12-1.85,.3-3.72-.75-6.04-.79-2.47-.06-5.37,.38-7.52-.79-.19-.1-.95-.12-1.3-.05-4.61,.97-9.12-.78-13.69-.38-6.8-.76-13.67-.91-20.54-.84-3.43,0-6.87,.1-10.3,.14l-2.67,.03c-.18,0-.36,0-.54-.02l-.35-.03-.64-.05-1.29-.1c-1.72-.14-3.43-.29-5.14-.47-2.68-.28-5.37-.7-8.05-1.06l.12-7.09c2.98,.07,5.95,.05,8.87-.32,11.69-1.49,23.48-1.23,35.21-1.91,2.48-.15,5.32-.75,7.61,.22,.32,.13,1.46,.07,1.95-.08,3.68-1.13,7.31-.99,11.08-.49,.92,.12,2.61,.03,3.15-.25,1.52-.79,3.34-.58,5.01-.64,2.01-.07,4.71,.45,5.89,.03,2.53-.9,4.01-.08,5.96-.03,1.21,.03,2.53-.23,3.78-.41,.59-.08,1.32-.44,1.67-.38,3.99,.72,7.81-.76,11.73-.57,.84,.04,1.73-.02,2.55,.05q9.29,.76,20.91-.4c3.25,1.14,6.9-.95,10.42-.13,1.28,.3,3.71,.1,5.28-.24,6.88-1.48,14.05-.95,21.02-1.64,1.45-.14,2.61,.67,4.43-.13,.69-.3,3.12,.34,4.71,.23,2.31-.16,4.76,.18,7.02-.78,.92-.39,3-.23,4.53-.38,2.1-.21,4.23,0,6.31-.81,1.14-.44,3.83-.6,5.17-.33,2.77,.54,5.39,.44,7.95,.1,.64-.09,1.28-.18,1.91-.29l.24-.04,.09-.03,.17-.07,.31-.14c.39-.19,.66-.37,.88-.51,.29-.16,.28-.3,1.03-.12,.53,.12,1.27,.25,1.88,.3,.28,0,.6,.11,.62-.13,.02-.17,.11-.37-.36-.49-2.58-.93-2.03-.93-3-1.56-.93-.58-1.76-1.17-2.63-1.78l-3.14-2.02-3.24-2.02c-2.49-1.5-4.97-2.99-7.46-4.5-2.51-1.47-5.12-2.79-7.85-3.94-2.95-1.19-6.79-2.81-9.32-5.4-.28-.28-1.82-.32-2.66-.73l-4.94-2.4-4.99-2.28c-3.31-1.57-6.69-2.97-10.03-4.47-1.53-.71-2.84-2.41-4.62-2.15-1.89,.29-2.85-2.16-4.56-1.58-.24,.07-1.68-.48-2.38-.86-7.6-4.25-16.33-6.14-24.53-9.04-1.98-.66-4.39-.89-5.71-2.3-2.68-.26-5.32-1.23-7.95-2.16-1.32-.46-2.64-.92-3.98-1.2-1.34-.28-2.69-.42-4.05-.31-1.82-.59-3.76-.94-5.67-1.32-1.92-.38-3.79-.86-5.45-1.83-.54-.31-1.87-.32-2.5-.64-2.15-1.03-3.93,.42-6.5-1.03-.74-.42-1.87-.7-3.12-.94-1.25-.21-2.6-.38-3.78-.61-2.19-.41-4.39-.81-6.59-1.16l-7.27-1.14c-2.42-.38-4.87-.74-7.29-.99-1.23-.12-2.46-.22-3.69-.28l-3.69-.15c-2.46-.1-4.92-.33-7.43-.68-.54-.08-1.48-.03-1.7,.13-1.84,1.34-4.26,.28-5.92-.32-1.39-.48-2.6-.73-4.16-.84-4.23-.26-8.46-.52-12.68-.77-2.5-.21-5.19,.23-7.55-.8-.73-.32-2.75-.31-3.89-.13-5.31,.92-10.81,.26-16.2,.52-2.44,.09-4.9,.09-7.35,.17-1.86,.04-3.69,.75-5.58,.2-8.99,1.66-18.28,1.44-27.39,2.58-4.52,.51-9.08,1.15-13.62,1.66l-13.62,1.79c-2.27,.32-4.71,1.22-6.88,.54-.41-.13-2.04,.15-2.49,.42-1.23,.75-2.17,1.19-3.78,.71-.3-.09-1.5,.29-2.14,.55-1.77,.73-3.41,.99-5.4,.98-1.54,0-3.58,.19-5,.66-3.78,1.36-7.34,2.61-11.45,2.39-.51-.04-1.68,.91-2.54,1.1-3.35,.66-6.61,2-10.12,2-1.44,0-3.35,.8-5.05,1.15-2.92,.63-5.52,1.87-8.61,2.42-3.12,.61-6.37,1.86-9.56,2.83-3.19,.97-6.32,2.13-9.48,3.18-1.57,.56-3.17,1.04-4.71,1.65l-4.66,1.79-4.66,1.79c-1.56,.58-3.06,1.3-4.59,1.94l-4.58,1.97c-1.53,.66-3.06,1.3-4.54,2.05l-8.96,4.34c-2.04,1.1-3.98,2.03-6.22,2.79-1.43,.49-2.91,1.08-4.43,1.78-1.49,.74-2.99,1.63-4.56,2.58-1.56,.96-3.18,2.02-4.84,3.17-1.66,1.16-3.27,2.55-4.99,3.96-.49,.41-1.08,.76-1.63,1.13-3.63,2.36-6.86,5.14-10.25,7.74l-1.26,.98c-.4,.33-.9,.65-1.17,.98l-.97,.96c-.33,.31-.66,.63-.94,1-.56,.73-1.24,1.39-1.7,2.19l-.77,1.15c-.26,.38-.43,.81-.66,1.21-1.52,2.82-2.73,6.04-2.74,9.55-.04,.57,0,1.14,.03,1.71,.04,.57,.03,1.13,.12,1.7,.2,1.13,.4,2.25,.98,3.32,.81,1.75,.76,4.63,2.42,6.45,.32,.32,.68,.99,.97,1.71,.3,.72,.62,1.49,.71,2.05,.09,.47,.2,.93,.36,1.37l.24,.67,.07,.17s0,.05,.01,.07l.03,.13c.02,.08,.04,.17,.08,.24l.17,.18,.12,.11,.32,.28,.65,.55c1.74,1.49,3.43,3.06,4.84,4.7,1.54,1.82,3.08,3.65,4.62,5.48l.96,1.1,.2,.21c.07,.06,.18,.08,.26,.12,.01,0,.06,.03,.05,.02l-.04-.02s.03,.02,.05,.02l.13,.06,.5,.24c.34,.15,.65,.33,.98,.51,.64,.35,1.26,.73,1.84,1.13,2.3,1.58,3.85,3.55,6.05,4.47,.54,.23,1.25,.82,1.95,1.47l.52,.5,.26,.25c.08,.08,.19,.18,.18,.19,.05,.08,.03,.11,.15,.22,.1,.09,.34,.27,.48,.39,2.02,1.61,4.29,2.81,6.58,3.59,4.86,1.81,4.86,1.65,9.35,4.16,.53,.31,1.15,.55,1.75,.77,5.93,2.32,12.08,4.67,18.19,5.92,2.56,.49,5.07,1.01,7.56,1.59,2.5,.53,5,1.07,7.51,1.6,2.01,.39,4.41,.41,5.92,1.72,.22,.19,1.37,.36,1.89,.32,4.42-.32,8.92,.92,13.35,1.47,2.15,.23,4.24,.26,6.33,.28,2.1-.01,4.2,0,6.39,.31,2.06,.24,4.15,.37,6.25,.49,2.1,.1,4.21,.11,6.3,.2,6.36,.13,7.73,.7,7.72,3.45-.01,2.26-1.65,2.73-6.9,3.14-11.16,.73-22.28-1.07-31.26-2.05Z"/>
        </g>
        <g class="cls-12">
          <g class="cls-12">
            <path class="cls-5" d="M138.17,40.83c-6.34,1.98-13.22,3.75-18.13,6.7-.54,.33-1.09,.67-1.65,1.01l.91-.35c6.92-2.57,14.48-5.12,21.67-7.26,1.09-.37,2.2-.74,3.33-1.12,1.13-.34,2.28-.69,3.42-1.04,2.31-.74,4.74-1.23,7.28-1.68,.56-.1,.59-.42,.6-.58-.54-.1-1.01-.24-1.44-.38-4.14,.92-8.19,2.07-12.39,3.21-1.4,.35-2.77,1.27-3.61,1.48Z"/>
            <polygon class="cls-8" points="154.33 36.14 154.25 36.11 153.63 36.25 154.33 36.14"/>
            <path class="cls-4" d="M144.29,38.73c-1.35,.42-2.68,.83-4.01,1.17-.83,.38-1.58,.8-2.11,.93-6.34,1.98-13.22,3.75-18.13,6.7-.53,.33-1.08,.66-1.63,1l.98-.37c1.19-.47,2.41-.9,3.65-1.33,1.23-.45,2.47-.89,3.72-1.34,.13-.06,.26-.13,.39-.19,1.33-.7,2.71-.92,4.06-1.38,3.79-1.46,7.09-2.27,10.97-3.46,1.38-.45,2.78-1.16,4.46-1.5,.57-.14,1.12-.25,1.67-.35,1.08-.34,2.19-.62,3.32-.85,1.13-.25,2.29-.48,3.48-.68,.56-.1,.59-.42,.6-.58-.28-.05-.54-.12-.79-.19-1.93,.31-3.87,.65-5.83,1.04-1.68,.47-3.36,.93-5.07,1.36,.08,.01,.17,.02,.29,.01Z"/>
            <path class="cls-8" d="M144.01,38.3c-.24,.05-.48,.34,0,.41,1.71-.43,3.39-.9,5.07-1.36-1.64,.36-3.32,.7-5.07,.95Z"/>
            <path class="cls-9" d="M144.01,37.17c-3.4,.74-6.49,1.97-9.28,2.6-1.46,.34-2.95,.52-4.27,.68-.45,.17-.9,.33-1.34,.5-11.05,4.16-21.55,9.46-31.62,15.31-2.46,1.57-4.8,3.14-6.98,4.96-1.09,.9-2.22,1.76-3.29,2.72-1.08,.95-2.17,1.92-3.27,2.9-1.37,1.11-2.59,2.12-3.89,3.04-.64,.46-1.28,.92-1.94,1.4-.64,.5-1.29,1.01-1.97,1.54-.85,.67-1.67,1.35-2.46,2.04-.78,.7-1.5,1.44-2.22,2.17-1.43,1.48-2.8,2.94-4.05,4.6-1.25,1.63-2.39,3.39-3.31,5.3-.91,1.92-1.58,4.02-1.72,6.25-.04,1.21,.38,1.87,.71,2.12,.36,.27,.66,.17,.65-.11-.42-3.29,1.02-6.61,3.03-9.4,1.01-1.41,2.15-2.73,3.36-4,1.22-1.27,2.51-2.48,3.76-3.72,5.1-4.88,10.53-9.4,16.28-13.83,1.13-.84,2.26-1.67,3.37-2.5,1.13-.81,2.29-1.55,3.44-2.31,2.26-1.55,4.65-2.86,6.96-4.23,4.73-2.55,9.49-4.86,14.4-6.67,.56-.34,1.11-.68,1.65-1.01,4.91-2.95,11.79-4.72,18.13-6.7,.83-.21,2.21-1.13,3.61-1.48,4.19-1.14,8.25-2.3,12.39-3.21-.91-.3-1.68-.63-2.61-.8-2.55,.61-5.03,1.45-7.54,1.85Z"/>
            <path class="cls-7" d="M144.01,37.17c2.51-.4,4.99-1.23,7.54-1.85-.46-.09-.95-.13-1.52-.11-6.42,.6-13.3,2.99-19.56,5.24,1.31-.16,2.8-.34,4.27-.68,2.78-.62,5.88-1.86,9.28-2.6Z"/>
            <path class="cls-4" d="M144.01,37.17c1.19-.2,2.39-.48,3.58-.8,.59-.16,1.19-.33,1.79-.5,.6-.15,1.2-.31,1.81-.46-.84,.1-1.69,.18-2.53,.37-2.13,.47-4.29,.9-6.41,1.45-2.11,.57-4.25,1.01-6.35,1.53,2.22-.71,4.49-1.24,6.74-1.88,2.27-.54,4.54-1.09,6.82-1.64-6.26,.7-12.92,3.03-18.99,5.2,1.31-.16,2.8-.34,4.25-.68,2.78-.62,5.88-1.86,9.28-2.6Z"/>
            <path class="cls-3" d="M137.25,39.19c5.08-1.25,10.15-2.48,15.36-3.64-.24-.07-.49-.14-.74-.2-.22,.02-.44,.04-.66,.06-.61,.16-1.21,.31-1.81,.46-.6,.17-1.2,.33-1.79,.5-1.19,.32-2.39,.59-3.58,.8-3.4,.74-6.49,1.97-9.28,2.6-1.46,.34-2.94,.52-4.25,.68-.42,.16-.84,.31-1.26,.47-5.66,2.09-11.13,4.57-16.52,7.17-1.12,.67-2.28,1.32-3.46,1.96-1.18,.66-2.37,1.32-3.57,1.99-2.44,1.27-4.83,2.67-7.25,3.95,2.22-1.29,4.37-2.71,6.63-3.96l-1.89,1-1.85,1.06c-1.24,.7-2.48,1.41-3.72,2.11-2.08,1.34-4.09,2.65-5.97,4.15-.23,.53-.72,1.18-1.76,2.01-1.64,1.27-3.25,2.51-4.75,4.02-.23,.17-.33-.05-.8,.3,1.3-.97,2.26-1.91,3.03-2.82-1.08,.96-2.18,1.93-3.29,2.92-2.13,1.78-4.03,3.15-6.11,4.65l-.59,.57c-.99,.95-1.93,1.98-2.86,3.03,.42-.37,.85-.75,1.3-1.14-.57,.72-1.46,1.47-2.09,2.07,.25-.32,.53-.62,.79-.93-1.02,.88-1.93,1.81-2.98,2.79,1.26-1.2,2.43-2.56,3.47-3.64-1.2,1.07-2.26,2.2-3.36,3.28-1.09,1.09-2.21,2.11-3.38,3.21l.14-.21c-1.44,1.77-2.78,3.65-3.87,5.74-1.08,2.08-1.92,4.39-2.08,6.87-.06,1.21,.36,1.87,.69,2.12,.35,.27,.65,.16,.65-.1-.29-2.28,.36-4.63,1.45-6.74,1.09-2.13,2.63-4.04,4.27-5.85,.81-.91,1.69-1.77,2.58-2.63l2.64-2.59c1.81-1.68,3.63-3.33,5.5-4.96-.97,.57-1.89,1.23-2.85,1.88-.39,.3-.78,.58-1.18,.81l1.18-.81c1.07-.82,2.13-1.85,3.35-2.65,.26-.11,.93-.65,1.05-1.05,.82-.56,1.65-1.26,2.48-1.95,.86-.66,1.72-1.33,2.55-1.85,.09-.07,.29-.14,.53-.21,.98-.78,1.95-1.58,2.97-2.32,5.59-4.29,11.39-7.89,17.33-10.89-1.47,.65-2.94,1.21-4.27,1.77-.92,.35-2.23,1.12-3.68,2.05-1.45,.91-2.96,2.09-4.41,3.08-.7,.54-1.29,.6-2,1.09,2.18-2.25,5.74-4.05,8.72-5.89,1.96-1.27,4.51-2.45,7.04-3.76,1.28-.62,2.58-1.22,3.82-1.86,1.24-.64,2.43-1.28,3.54-1.89,1.83-1.02,3.7-1.64,5.37-1.99-.52,.36-1.59,.78-2.11,1.02-2.38,1.03-4.79,2.01-7.11,3.19-1.17,.58-2.35,1.13-3.5,1.74-1.14,.63-2.28,1.27-3.42,1.9,1.23-.58,2.43-1.18,3.62-1.78,1.21-.57,2.41-1.14,3.62-1.71,2.39-1.18,4.87-2.14,7.4-3.08-1.44,.66-2.91,1.23-4.33,1.82-1.43,.58-2.77,1.3-4.03,2.1,.25-.06,.5-.12,.75-.19,.95-.42,1.9-.85,2.86-1.25,.97-.37,1.93-.75,2.9-1.12,.55-.34,1.1-.67,1.63-1,4.91-2.95,11.79-4.72,18.13-6.7,.53-.13,1.28-.55,2.11-.93-2.1,.51-4.16,1.07-6.22,1.73,.85-.19,1.67-.33,2.45-.4-1.92,.67-3.62,.78-5.51,1.51,1-.46,2.03-.79,3.06-1.11-.64,.14-1.29,.3-1.94,.47-.65,.2-1.31,.39-1.97,.59,.6-.29,1.21-.52,1.83-.71,.62-.18,1.24-.32,1.86-.48,1.24-.31,2.48-.63,3.71-1.24-.54,.17-1.08,.34-1.63,.48l1.66-.49h-.03c1.67-.47,3.3-1.05,4.78-1.62-1.45,.4-2.84,.7-4.23,1-1.39,.31-2.75,.69-4.15,1.13l-1.38,.48c.46-.17,.92-.33,1.38-.48,3.18-1.13,6.47-1.94,9.75-2.72,1.65-.32,3.31-.65,4.96-.97,1.65-.33,3.32-.53,4.98-.82l.62-.14c-.2-.07-.4-.14-.6-.2-1.38,.23-2.76,.46-4.14,.69-1.37,.27-2.75,.55-4.12,.82l-2.06,.4-2.03,.47c-1.35,.3-2.7,.61-4.04,.91Z"/>
          </g>
        </g>
        <g class="cls-12">
          <g class="cls-12">
            <path class="cls-5" d="M569.2,153.23c-2.4,2.48-5.23,4.65-8.03,6.58-2.81,1.94-5.6,3.61-7.99,5.34-.54,.37-1.08,.75-1.64,1.14l.92-.41c3.48-1.58,7.02-3.56,10.32-5.95,3.29-2.39,6.33-5.16,8.96-8.12,3.16-3.77,5.71-8.04,8.47-12.63,.31-.51,.07-.74-.04-.85-.44,.36-.85,.64-1.25,.88-2.04,3.78-4.35,7.45-7.32,10.79-.99,1.09-1.75,2.61-2.4,3.23Z"/>
            <polygon class="cls-8" points="579.04 139.08 578.96 139.13 578.66 139.7 579.04 139.08"/>
            <path class="cls-4" d="M573.37,148.02c-.85,1.17-1.78,2.26-2.77,3.28-.53,.78-.98,1.54-1.4,1.93-2.4,2.48-5.23,4.65-8.03,6.58-2.81,1.94-5.6,3.61-7.99,5.34-.53,.37-1.07,.74-1.62,1.13l.99-.45c2.41-1.1,4.85-2.38,7.21-3.87,.12-.1,.23-.2,.34-.3,1.17-1.06,2.49-1.68,3.69-2.6,1.63-1.38,3.13-2.65,4.56-3.98,1.44-1.33,2.83-2.72,4.19-4.37,.98-1.17,1.71-2.64,2.84-4.03,.36-.49,.73-.96,1.09-1.4,1.27-1.99,2.5-4.05,3.78-6.2,.31-.51,.07-.74-.04-.85-.23,.19-.45,.35-.67,.5-1.04,1.71-2.11,3.4-3.31,5.06-.95,1.5-1.99,2.96-3.11,4.38,.07-.04,.15-.09,.24-.17Z"/>
            <path class="cls-8" d="M572.89,147.85c-.17,.19-.19,.57,.24,.34,1.12-1.42,2.16-2.87,3.11-4.38-1,1.4-2.11,2.75-3.35,4.04Z"/>
            <path class="cls-9" d="M572.21,146.94c-2.29,2.55-4.3,5.21-6.6,6.9-1.19,.89-2.45,1.66-3.64,2.2-.37,.29-.73,.58-1.09,.87-4.51,3.59-9.58,6.48-14.86,8.94-5.28,2.46-10.75,4.57-16.21,6.65-5.45,2.14-10.26,4.72-15.63,7.34-3.25,1.45-6.02,2.2-9.31,3.32-4.11,1.36-7.73,2.98-11.48,4.35-3.73,1.36-7.65,2.55-12.06,2.53-2.35-.06-2.86,1.09-2.27,1.19,3.86,.35,7.65,0,11.26-.78,3.62-.77,7.1-1.92,10.49-3.2,3.4-1.28,6.71-2.68,10.05-4.06,3.34-1.39,6.7-2.82,10.08-4.32,5.25-2.31,10.39-4.46,15.48-6.47,5.09-2.01,10.14-3.91,15.1-6.11,.56-.39,1.1-.77,1.64-1.14,2.39-1.73,5.19-3.4,7.99-5.34,2.8-1.93,5.63-4.1,8.03-6.58,.65-.62,1.41-2.14,2.4-3.23,2.97-3.33,5.28-7,7.32-10.79-.83,.51-1.61,.85-2.35,1.4-1.24,2.27-2.64,4.47-4.35,6.32Z"/>
            <path class="cls-7" d="M572.21,146.94c1.71-1.85,3.11-4.05,4.35-6.32-.38,.26-.75,.58-1.13,.99-2.03,2.4-4.12,4.96-6.33,7.46-2.23,2.48-4.6,4.92-7.13,6.97,1.18-.54,2.44-1.31,3.64-2.2,2.3-1.69,4.3-4.35,6.6-6.9Z"/>
            <path class="cls-4" d="M572.21,146.94c1.63-1.76,2.98-3.85,4.18-6.01-.52,.66-1.01,1.33-1.52,2.01-2.53,3.47-5.35,6.82-8.65,9.5,3.32-3.12,6.33-6.6,8.86-10.42-1.98,2.34-3.99,4.85-6.16,7.26-2.17,2.41-4.47,4.76-6.93,6.75,1.18-.54,2.43-1.31,3.62-2.2,2.3-1.69,4.3-4.35,6.6-6.9Z"/>
            <path class="cls-3" d="M567.62,152.23c3.83-3.52,7.23-7.59,9.82-12.23-.22,.13-.43,.26-.64,.41-.14,.18-.27,.35-.41,.52-1.19,2.16-2.55,4.25-4.18,6.01-2.29,2.55-4.3,5.21-6.6,6.9-1.19,.89-2.44,1.66-3.62,2.2-.34,.28-.69,.55-1.03,.82-4.6,3.68-9.78,6.62-15.18,9.12-4.53,2.53-9.86,4.56-15.02,6.42,2.38-.98,4.77-1.98,7.13-3.03-2.65,1.06-5.32,2.1-7.99,3.11-2.31,.91-4.5,1.89-6.67,2.93-.34,.46-.97,.99-2.17,1.57-1.88,.91-3.79,1.66-5.65,2.73-.27,.11-.31-.13-.85,.08,1.52-.6,2.7-1.26,3.69-1.94-1.31,.65-2.63,1.3-3.97,1.97-2.55,1.14-4.81,1.85-7.26,2.64l-.76,.34c-1.26,.56-2.5,1.21-3.74,1.88,.53-.2,1.06-.41,1.62-.62-.79,.48-1.89,.9-2.7,1.2,.36-.19,.73-.39,1.08-.58-1.27,.48-2.48,.93-3.84,1.4,1.65-.57,3.26-1.34,4.6-2.03-2.97,1.23-5.7,2.38-8.75,3.09l.21-.11c-4.12,1.57-8.4,3.02-13.31,3.03-2.35-.05-2.86,1.1-2.26,1.19,5.4,.49,10.61-.45,15.5-1.9,4.91-1.45,9.56-3.42,14.22-5.33l-3.37,.85c-.48,.15-.95,.28-1.4,.37l1.4-.37c1.3-.42,2.68-1.02,4.1-1.45,.29-.03,1.1-.35,1.34-.7,1.93-.59,4.08-1.69,6-2.28,.11-.04,.32-.06,.57-.07,1.17-.51,2.34-1.02,3.51-1.54,6.56-2.9,12.95-5.51,19.29-7.97-1.56,.5-3.09,.95-4.52,1.3-1.95,.43-5.71,2.33-8.96,3.78-.81,.4-1.38,.38-2.2,.7,2.62-1.79,6.49-2.9,9.74-4.34,4.33-1.87,10.7-3.85,15.08-6.56,1.8-1.12,3.67-1.81,5.28-2.43-.47,.44-1.51,1-2.04,1.26-4.7,2.44-9.59,4.44-14.47,6.55,5.21-1.81,10.06-4.06,15.11-6.35-2.87,1.59-5.88,2.61-8.51,4.17,.25-.05,.51-.11,.78-.17,1.98-.8,3.96-1.63,5.91-2.5,.55-.38,1.09-.76,1.62-1.13,2.39-1.73,5.19-3.4,7.99-5.34,2.8-1.93,5.63-4.1,8.03-6.58,.42-.39,.87-1.15,1.4-1.93-1.53,1.6-3.18,3.05-4.86,4.51,.72-.52,1.43-1.01,2.12-1.44-1.5,1.48-3.02,2.32-4.63,3.64,.87-.76,1.69-1.48,2.51-2.21-1.08,.79-2.19,1.64-3.35,2.44,1.97-1.86,4.3-2.99,5.99-5.22-.4,.41-.84,.8-1.28,1.17,.43-.39,.88-.78,1.3-1.2l-.02,.03c1.27-1.24,2.35-2.65,3.3-3.93-2,2.29-4.17,3.99-6.38,5.96-.36,.34-.72,.67-1.09,.99,.37-.34,.73-.66,1.09-.99,5.01-4.56,9.69-9.59,13.36-15.36l.3-.57c-.18,.11-.37,.22-.55,.33-2.97,4.78-6.7,9.16-10.79,12.77Z"/>
          </g>
        </g>
        <g>
          <path class="cls-6" d="M212.97,177.04c-35.32,.11-77.75-7.39-108.18-24.48-5.07-3.8-7.61-7.59-12.68-9.49-5.07-5.7-7.61-9.49-12.68-13.29-7.61-13.29-10.14-30.37,2.54-41.77,48.19-39.87,116.66-56.95,185.14-64.55,103.98-11.39,213.04,13.29,286.55,68.41l-.87,1.37c-69.44,3.9-145.33,7.53-219.01,10.3l15.68,1.13c49.98-.66,91.1,2.75,140.96,5.46,27.96,1.52,56.69,3.74,81.52,13.47h0c-5.91,16.87-27.93,28.35-51.54,36.2-50.99,16.96-103.23,25.99-159.15,22.82-54.84-3.11-100.68-1.85-155.2-7.39"/>
          <path class="cls-6" d="M174.81,176.22c-11.27-1.6-20.38-3.57-29.4-5.78-1.4-.34-3.11-.23-4.86-.78-7-1.98-14.27-4.04-20.57-7.26-1.7-.91-3.45-1.71-5.13-2.62-1.69-.9-3.4-1.76-5.1-2.6-1.67-.91-3.34-1.78-5.02-2.62-.37-.19-.97-.44-1.42-.83-.4-.29-.78-.57-1.16-.86-.76-.57-1.5-1.16-2.22-1.73-2.75-2.21-5.09-4.4-7.75-5.54l-.86-.35-.41-.17c-.07-.03-.14-.05-.2-.09l-.15-.16-1.16-1.3-1.69-1.94c-1.12-1.29-2.21-2.58-3.33-3.81-1.51-1.66-3.01-3.08-4.41-5.05-.13-.18-.29-.37-.46-.56-.09-.1-.18-.2-.28-.3-.14-.12-.28-.25-.42-.38-.15-.13-.29-.26-.45-.39l-.23-.2-.14-.28c-.19-.37-.39-.75-.6-1.13-.73-1.23-1.51-2.48-2.4-3.49-.37-.38-.6-1.46-.84-2.2-.27-.81-.28-1.86-.57-2.41-1.68-3.1-2.59-6.66-2.86-10.32-.26-3.66,.16-7.39,1-10.99,.14-.92,.62-1.79,.89-2.68,.26-.9,.59-1.73,.59-2.63,0-.23,.2-.77,.45-1.29,.29-.5,.65-.99,.87-1.17,.61-.47,1.06-1.04,1.61-1.58,.54-.55,1.06-1.16,1.61-1.84,1.28-1.39,2.68-2.84,4.07-3.83l4.2-3.27c1.41-1.08,2.79-2.2,4.22-3.24l4.36-3c1.13-1.4,2.57-2.56,4.11-3.63,1.55-1.05,3.26-1.9,4.84-2.88,1.19-.72,2.42-1.37,3.66-2,1.25-.61,2.47-1.27,3.75-1.82,2.55-1.16,4.88-3.17,7.64-3.66,.44-.08,1.26-.83,1.93-1.21,3.11-1.6,6.26-3.48,9.36-4.61,1.58-.61,3.2-1.1,4.75-1.77l7.49-3.23c2.51-1.04,5.07-1.97,7.6-2.95,5.04-2.03,10.23-3.66,15.36-5.45,2.57-.88,5.19-1.6,7.78-2.41,2.6-.77,5.18-1.63,7.81-2.3,5.24-1.41,10.47-2.88,15.76-4.07,1.84-.44,3.61-.74,5.44-1.77,1.42-.83,4.78-1.51,6.35-1.38,2.53,.23,4.7-.53,6.99-.97,4.22-.72,8.44-1.6,12.67-2.29,2.52-.38,5.23-1.32,7.59-.67,.23,.06,1.02-.07,1.28-.21,2.64-1.43,5.47-1.04,8.29-1.28,2.04-.19,4.08-.49,6.24-1.27,2.1-.79,5.71-1.29,7.77-1.03,2.76,.35,5.19-.17,7.69-.46,14.82-1.57,29.71-2.43,44.6-2.69,1.76-.03,3.52-.13,5.27-.21l5.26-.24c3.51-.18,7.04-.2,10.59,.08,1.69,.13,3.56-.2,5.05,.6,.31,.16,1.67,.14,2.21,0,1.97-.53,3.89-.2,6.08-.05,9.91,.77,19.91,2.09,29.67,2.68,7.59,.53,14.95,1.79,22.37,2.98,2.47,.41,4.89,1.27,7.36,1.89,2.4,.58,4.86,1.03,7.31,1.48,1.45,.28,2.85,.82,4.4,.57,.83-.13,2.93,.25,3.71,.68,2.64,1.44,5.71,1.92,8.63,2.64,2.09,.51,4.15,1.09,6.23,1.65,2.07,.57,4.15,1.1,6.21,1.71,4.12,1.22,8.25,2.39,12.33,3.77,2,.67,4.39,.95,5.9,2.42,.21,.2,1.44,.33,2.2,.5,.81,.19,1.85,.28,2.39,.6,2.45,1.42,5.07,2.54,7.76,3.53l4.06,1.43c1.34,.5,2.68,1,4,1.54,12.74,5.24,25.34,10.91,37.37,17.63,1.67,.96,3.33,1.69,4.98,2.42,1.66,.72,3.29,1.44,4.88,2.44l4.66,2.8c1.56,.92,3.07,1.93,4.58,2.92,1.07,.71,2.23,1.35,3.31,2.06l.4,.27,.47,.35c.31,.24,.61,.48,.89,.73,.57,.5,1.07,1.01,1.44,1.54,.41,.58,2.1,1.72,3.1,2.13,.94,.39,1.85,.85,2.7,1.34,.67,.48,1.24,1,1.8,1.51,1.11,1.04,2.12,2.07,3.29,3.1l1.03,.95,.25,.24,.12,.12-.1,.16-.42,.65-.43,.65c-.19,.13-.5,.09-.74,.15l-1.53,.2c-2.02,.27-3.92,.56-5.65,1.19-.95,.36-3.32,.31-4.94,.49-.74,.08-1.35,.2-2.29,.21l-2.23,.09c-1.28,.06-2.57,.13-3.85,.23-1.23,.09-2.41,.48-3.64,.58-9.47,.74-18.93,1.5-28.42,2.09-9.66,.6-19.34,1.01-29.01,1.49-9.67,.48-19.34,1.02-29.02,1.36-3.63,.13-7.53,1.01-10.94-.04-3.31,.88-6.26,.57-9.22-.11-.42-.1-1.47,.3-2.24,.43-2.44,.43-4.71,1.75-7.47,.55-.1-.04-.44,.03-.66,.02-2.25-.09-3.76,1.32-6.66,.64-1.8-.42-4.68-.08-7.07-.02-2.47,.06-4.97,.12-7.42,.33-2.53,.23-5.32-.28-7.65,.82-.38,.18-2.27-.44-3.38-.35-5.65,.48-11.5-.19-17.02,1.22-1.26,.32-3.28,.37-4.65,.19-4.92-.67-9.48-.03-14.49,.48-3.44,.35-7.02,.64-10.57,.69l.11-6.37c3.23,.31,6.42,.82,9.46,1.64,1.35,.36,1.95,.61,3.37,.27,.47-.11,1.1-.12,1.77-.09,.3,.02,.62,.04,.93,.06,.31,0,.61,0,.9,0,14.44-.18,28.89,0,43.32,.41,3.93,.13,7.55,1.2,11.59,1.01,1.67-.08,3.59,.49,5.01-.27,.2-.1,.89-.14,1.2-.07,4.78,1.16,9.65,.05,14.43,.69,1.02,.14,2,.36,3.01,.52,1.04,.16,2.24,.46,3.13,.37,7.43-.76,14.97,.56,22.43,.71,2.54,.05,5.29,.74,7.61-.11,.35-.13,1.47-.05,1.95,.11,4.28,1.44,9.1,.81,13.58,1.38,2.3,.29,4.93-.21,6.95,.88,.26,.14,1.19,.09,1.77,.05,1.01-.06,2-.33,2.96-.26,2.68,.2,5.57,.9,7.95,.72,2.94-.22,5.7,.13,8.5,.29,1.61,.1,3.18,.67,4.81,.9,1.54,.21,3.14,.29,4.72,.42,2.25,.19,4.61,.28,6.72,.7,2.18,.49,4.07-.35,6.42,.66,1.79,.78,4.07,.11,6.18,.34,1.05,.11,2.14,.39,3.17,.65,.78,.22,1.49,.67,2.23,.77,1.68,.23,3.26,.69,5.13,.64,1.29-.05,3.38,.92,5.13,1.41,.87,.23,1.76,.44,2.65,.64l2.65,.66c1.77,.43,3.61,1.16,5.25,1.41,1.84,.24,3.57,.66,5.42,1.18,2.45,.67,4.76,1.66,7.1,2.56,.57,.23,1.19,.45,1.71,.7l-.75,1.75c-.52,1.15-.94,2.35-1.57,3.44l-1.75,3.32-1.74,2.57c-.27,.42-.56,.84-.88,1.25-.31,.41-.64,.83-.98,1.22-.34,.39-.69,.76-1.07,1.06-.4,.28-.83,.51-1.28,.66-.32,.11-1.1,.88-1.44,1.35-2.2,2.86-5.03,5.28-8.09,7.23-3.03,2.04-6.26,3.69-9.32,5.54-4.38,2.6-8.79,5.05-13.64,6.87-4.7,1.77-9.68,3.27-14.11,5.11-3.64,1.54-7.26,3.05-11.03,3.92-1.84,.44-3.51,1.34-5.22,2.09-1.72,.71-3.48,1.27-5.46,1.07-3.7,1.07-7.44,2.06-11.18,2.96-3.14,.78-6.3,1.86-9.56,1.77-1.19-.05-3.35,.51-4.52,1.02-3.77,1.69-7.65,2.34-11.78,2.6-.97,.07-2.09,.72-3.19,.94-3.33,.71-6.71,1.29-10.07,1.72-10.03,1.19-19.76,3.46-29.82,4.27-1.85,.16-3.84,1.05-5.49,.95-10.05-.36-20.24,1.02-30.18,.37-3.65-.32-7.3-.46-10.95-.67-3.63-.24-7.31-.38-10.91-.56-7.2-.37-14.4-.59-21.6-.97-1.87-.1-3.81-.91-4.71-.73-2.78,.54-5.92-.1-8.24,.3-4.18,.74-8.27,.03-12.36,.13-2.98,.08-6.17-.6-8.94,.32-.4,.13-1.43,.08-1.97-.05-4.36-1.06-8.74,.21-13.08-.36-8.29,.91-16.78-.16-25.17-.25-1.23-.02-2.44,.18-3.67,.26-.62,.04-1.36,.16-1.88,.06-7.54-1.53-15.46-1.04-23.15-1.86-2.54-.29-5-.8-7.54-1.09-2.56-.31-5.22-.24-7.57-1.18-.73-.29-2.22-.3-3.32-.3-5.95-.06-10.19-2.06-10.01-4.59,.06-.92,1.28-.86,2.57-1.08,2.51-.43,4.95-.62,7.91-.27,2.3,.24,4.8,.74,6.92,.03,.35-.12,1.4,0,1.95,.16,3.88,1.08,8.38,.77,12.09,1.55,2.85,.59,5.52,.64,8.26,.97,2.3,.26,4.72-.08,7,.84,.77,.31,3.08-.27,4.7-.24,3.82,.09,7.66,.21,11.46,.46,11.56,.8,23-.2,34.55,.46,8.28-.9,16.84,.37,25.1,.1,10-.32,19.95,.43,29.9,.69,2.05,.05,3.69,.16,5.46,.52,1.16,.24,2.39,.5,3.61,.56,4.69,.31,9.4,.2,14.09,.4,2.51,.06,5.32-.57,7.56,.48,.31,.14,1.45,.12,1.94-.02,2.05-.54,4.19-.77,6.37-.82,2.17-.08,4.37,.02,6.52-.2,1.64-.15,3.22-.21,5.02,.06,.98,.15,2.23,.16,3.48,.08,1.25-.11,2.5-.33,3.5-.61,1.5-.42,2.85-.55,4.29-.76,5.99-.94,12.39-.57,18.06-2.71,3.25,.73,7.02-.27,10.08-1.05,11.77-3.01,23.81-4.77,35.53-7.92,2.82-.79,5.81-1.01,8.7-1.72,3.03-.75,6.06-1.61,9.05-2.55,1.59-.51,3.57-.71,4.57-1.88,.07-.09,.35-.21,.52-.25,1.75-.38,3.58-.6,5.22-1.21,1.48-.53,2.69-1.51,4.15-2.14,1.75-.75,3.65-1.37,5.46-2.03,1.77-.61,3.57-1.48,5.25-1.32,1.06-1.34,3.2-1.74,4.91-2.48,1.59-.74,3.24-1.38,4.85-2.1,1.79-.84,3.6-1.64,5.33-2.56,1.77-.86,3.52-1.78,5.17-2.8,1.12-.72,2.16-1.53,3.23-2.3,1.05-.79,2.03-1.64,3.09-2.41,1.09-.84,2.13-1.72,3.23-2.55,1.01-.91,2.09-1.75,3.08-2.65l1.85-1.7c.61-.57,1.14-1.19,1.73-1.78,.28-.3,.59-.59,.85-.91l.76-.96,.38-.48c.13-.17,.26-.34,.33-.41,.19-.21,.26-.31,.38-.49,.38-.54,.43-1.08,.18-1.45-.07-.12-.2-.21-.32-.28-.01-.03-.1-.02-.17-.01h-.22c-.14,.02-.25,.03-.36,.03-.42,0-.45-.1-.45-.77,0-.13-.17-.23-.4-.3-.11-.03-.22-.06-.33-.09-.15-.04-.3-.08-.45-.12-.3-.07-.58-.13-.82-.16-1.89-.32-3.79-.62-5.65-1.09-1.87-.44-3.75-.9-5.61-1.41-3.76-.94-7.54-1.93-11.38-2.42-4.03-1.7-8.27-1.71-12.7-2.02-6.53-.44-13.46-.93-19.85-1.96-6.78-1.1-13.51-1.13-20.28-1.73-1.9-.17-3.99,.07-5.56-.87-.36-.21-1.81-.24-2.61-.16-5.56,.58-10.9,0-16.48-.9-2.94-.48-6.31-.32-9.6-.18-4.94,.2-10.27-.47-15.44-.77-2.17-1.17-3.97-.2-5.14,.19-1.56,.52-3,.55-4.81,.47-2.34-.1-4.63-.41-6.97,.16-1.2,.28-3.83,.09-5.08-.34-1.68-.57-2.33-.37-3.9-.12-1.85,.3-3.72-.75-6.04-.79-2.47-.06-5.38,.38-7.52-.79-.19-.1-.95-.12-1.3-.05-4.61,.97-9.12-.78-13.69-.38-6.8-.76-13.67-.91-20.54-.84-3.43,0-6.87,.1-10.3,.14l-2.67,.03c-.18,0-.36,0-.54-.02l-.35-.03-.64-.05-1.29-.1c-1.72-.14-3.43-.29-5.14-.47-2.68-.28-5.37-.7-8.05-1.06l.12-7.09c2.98,.07,5.95,.05,8.87-.32,11.69-1.49,23.48-1.23,35.21-1.91,2.48-.15,5.32-.75,7.61,.22,.32,.13,1.46,.07,1.95-.08,3.68-1.13,7.31-.99,11.08-.49,.92,.12,2.61,.03,3.15-.25,1.52-.79,3.35-.58,5.01-.64,2.01-.07,4.71,.46,5.89,.03,2.53-.9,4.01-.08,5.96-.03,1.2,.03,2.53-.23,3.78-.41,.59-.08,1.32-.44,1.67-.38,3.99,.72,7.81-.76,11.73-.57,.84,.04,1.73-.02,2.55,.05q9.29,.76,20.91-.4c3.25,1.14,6.91-.95,10.42-.13,1.28,.3,3.71,.1,5.28-.24,6.88-1.48,14.05-.95,21.02-1.64,1.46-.14,2.61,.67,4.44-.13,.69-.3,3.12,.34,4.71,.23,2.31-.16,4.76,.18,7.02-.78,.92-.39,3-.23,4.53-.38,2.1-.21,4.23,0,6.31-.81,1.14-.44,3.83-.6,5.17-.34,2.77,.55,5.39,.44,7.95,.1,.64-.09,1.28-.18,1.91-.29l.24-.04,.09-.03,.17-.07,.31-.14c.39-.19,.66-.37,.88-.51,.29-.16,.28-.3,1.03-.12,.53,.12,1.27,.25,1.88,.3,.28,0,.6,.11,.62-.13,.02-.17,.11-.37-.36-.49-2.58-.93-2.03-.93-3-1.56-.93-.58-1.76-1.17-2.63-1.78l-3.14-2.02-3.24-2.02c-2.49-1.5-4.97-2.99-7.46-4.5-2.51-1.47-5.12-2.79-7.85-3.94-2.95-1.19-6.79-2.81-9.32-5.4-.28-.28-1.82-.32-2.66-.73l-4.94-2.4-4.99-2.28c-3.31-1.57-6.69-2.97-10.03-4.47-1.53-.71-2.84-2.41-4.62-2.15-1.89,.29-2.85-2.16-4.56-1.58-.24,.07-1.68-.48-2.38-.86-7.6-4.25-16.33-6.14-24.52-9.04-1.98-.66-4.39-.89-5.71-2.3-2.68-.26-5.32-1.23-7.95-2.16-1.32-.46-2.64-.92-3.98-1.2-1.34-.28-2.69-.42-4.05-.31-1.82-.59-3.76-.94-5.67-1.32-1.92-.38-3.79-.86-5.45-1.83-.54-.31-1.87-.33-2.5-.64-2.15-1.03-3.93,.42-6.5-1.03-.74-.42-1.87-.7-3.11-.94-1.25-.21-2.6-.38-3.78-.61-2.19-.41-4.39-.81-6.59-1.16l-7.27-1.14c-2.42-.38-4.87-.74-7.29-.99-1.23-.12-2.46-.22-3.69-.28l-3.69-.15c-2.46-.1-4.92-.33-7.43-.68-.54-.08-1.48-.03-1.7,.13-1.84,1.34-4.26,.28-5.92-.32-1.4-.48-2.6-.73-4.16-.84-4.23-.26-8.46-.52-12.68-.77-2.5-.2-5.19,.23-7.55-.8-.73-.32-2.75-.31-3.89-.13-5.31,.92-10.81,.26-16.2,.52-2.44,.09-4.9,.09-7.35,.17-1.86,.04-3.69,.75-5.58,.2-8.99,1.66-18.28,1.44-27.39,2.58-4.52,.51-9.08,1.15-13.62,1.66l-13.62,1.79c-2.27,.32-4.71,1.22-6.88,.54-.41-.13-2.04,.15-2.49,.42-1.23,.75-2.18,1.19-3.78,.71-.3-.09-1.5,.29-2.14,.55-1.77,.73-3.42,.99-5.4,.98-1.54,0-3.58,.19-5,.66-3.78,1.36-7.34,2.61-11.45,2.39-.51-.04-1.68,.91-2.54,1.1-3.35,.66-6.61,2-10.12,2-1.44,0-3.35,.8-5.05,1.15-2.92,.63-5.52,1.87-8.61,2.42-3.12,.61-6.37,1.86-9.56,2.83-3.19,.97-6.32,2.13-9.48,3.18-1.57,.56-3.17,1.04-4.71,1.65l-4.66,1.79-4.66,1.79c-1.56,.58-3.06,1.3-4.59,1.94l-4.58,1.97c-1.53,.66-3.06,1.3-4.54,2.05l-8.96,4.34c-2.04,1.1-3.98,2.03-6.22,2.79-1.43,.49-2.91,1.08-4.43,1.78-1.49,.74-2.99,1.63-4.56,2.58-1.56,.96-3.18,2.02-4.84,3.17-1.66,1.16-3.27,2.55-4.99,3.96-.49,.41-1.08,.76-1.63,1.13-3.63,2.36-6.86,5.14-10.25,7.74l-1.26,.98c-.4,.33-.9,.65-1.17,.98l-.97,.96c-.33,.31-.66,.63-.94,1-.56,.73-1.24,1.39-1.7,2.19l-.77,1.15c-.26,.38-.43,.81-.66,1.21-1.52,2.82-2.73,6.04-2.74,9.55-.04,.57,0,1.14,.03,1.71,.04,.57,.03,1.13,.12,1.7,.2,1.13,.4,2.25,.98,3.32,.81,1.75,.76,4.63,2.42,6.45,.32,.32,.68,.99,.97,1.71,.3,.72,.61,1.49,.71,2.05,.09,.47,.2,.93,.36,1.37l.24,.67,.07,.17s0,.05,.01,.07l.03,.13c.02,.08,.04,.17,.08,.24l.17,.18,.12,.11,.32,.28,.65,.55c1.74,1.49,3.43,3.06,4.84,4.7,1.54,1.82,3.08,3.65,4.62,5.48l.96,1.1,.2,.22c.07,.06,.18,.08,.26,.12,.01,0,.06,.03,.05,.02l-.04-.02s.03,.02,.05,.02l.13,.06,.5,.24c.34,.15,.65,.33,.98,.51,.64,.35,1.26,.73,1.84,1.13,2.3,1.58,3.85,3.55,6.05,4.47,.54,.23,1.25,.82,1.95,1.47l.52,.5,.26,.25c.08,.08,.19,.18,.18,.19,.05,.08,.03,.11,.15,.22,.1,.09,.34,.27,.48,.39,2.02,1.61,4.29,2.81,6.58,3.59,4.86,1.81,4.86,1.65,9.35,4.16,.53,.31,1.15,.55,1.75,.77,5.93,2.32,12.08,4.67,18.19,5.92,2.56,.49,5.07,1.01,7.56,1.59,2.5,.53,5,1.07,7.51,1.6,2.01,.39,4.41,.41,5.92,1.72,.22,.19,1.37,.36,1.89,.32,4.42-.32,8.92,.92,13.35,1.47,2.15,.23,4.24,.26,6.33,.28,2.1-.01,4.2,0,6.39,.31,2.06,.24,4.15,.37,6.25,.49,2.1,.1,4.21,.11,6.3,.2,6.36,.13,7.73,.7,7.72,3.45-.01,2.26-1.65,2.73-6.9,3.14-11.16,.73-22.28-1.07-31.26-2.05Z"/>
        </g>
      </g>
    </g>
  </g>
</svg>