<?xml version="1.0" encoding="UTF-8"?>
<svg id="_Слой_2" data-name="Слой 2" xmlns="http://www.w3.org/2000/svg" xmlns:xlink="http://www.w3.org/1999/xlink" viewBox="0 0 370.13 218.28">
  <defs>
    <style>
      .cls-1 {
        fill: none;
      }

      .cls-2 {
        clip-path: url(#clippath);
      }

      .cls-3 {
        fill: #f3f9fb;
      }

      .cls-4 {
        fill: #f7fbfc;
      }

      .cls-5 {
        fill: #f8fcfd;
      }

      .cls-6 {
        fill: #f4fafb;
      }

      .cls-7 {
        fill: #f5fafb;
      }

      .cls-8 {
        fill: #fbfdfe;
      }

      .cls-9 {
        fill: #349039;
      }

      .cls-10 {
        fill: #6e7c6e;
      }

      .cls-11 {
        opacity: .49;
      }

      .cls-12 {
        opacity: .8;
      }
    </style>
    <clipPath id="clippath">
      <rect class="cls-1" width="370.13" height="218.28"/>
    </clipPath>
  </defs>
  <g id="_камыши_и_кувшинки" data-name="камыши и кувшинки">
    <g class="cls-2">
      <g>
        <g>
          <g class="cls-11">
            <path class="cls-10" d="M104.04,208.22c-23.37,.1-51.44-6.61-71.58-21.9-3.36-3.4-5.03-6.79-8.39-8.49-3.36-5.09-5.03-8.49-8.39-11.89-5.03-11.89-6.71-27.17,1.68-37.36,31.88-35.66,77.19-50.94,122.5-57.73,68.8-10.19,140.96,11.89,189.6,61.19l-.58,1.22c-45.95,3.49-96.16,6.73-144.91,9.21l10.37,1.01c33.07-.59,60.28,2.46,93.27,4.88,18.5,1.36,37.51,3.34,53.94,12.05h0c-3.91,15.09-18.48,25.36-34.1,32.38-33.74,15.17-68.31,23.25-105.31,20.41-36.29-2.78-66.62-1.66-102.69-6.61"/>
            <path class="cls-10" d="M77.76,207.5c-7.72-1.52-13.88-3.4-19.96-5.47-.96-.29-2.17-.26-3.35-.73-2.35-.91-4.72-1.91-7.05-2.92-1.15-.55-2.28-1.12-3.38-1.72-1.11-.59-2.13-1.32-3.12-2.03l-1.62-1.17-1.59-1.21c-1.06-.81-2.17-1.51-3.21-2.32-.53-.38-1.06-.77-1.59-1.15-.54-.4-1.03-.68-1.71-1.22-.5-.5-1-.99-1.49-1.49-.45-.47-.9-.93-1.35-1.39-.96-1-1.83-1.98-2.69-2.82-.43-.42-.85-.79-1.28-1.12-.23-.16-.39-.29-.68-.47-.39-.24-.81-.46-1.22-.68-.4-.55-.77-1.15-1.15-1.7l-.82-1.26-1.63-2.49c-.87-1.29-1.74-2.45-2.23-4.08-.18-.6-.61-1.33-1.22-1.97l-.24-.23c-.09-.08-.22-.21-.33-.31-.23-.2-.47-.4-.73-.6-.31-.49-.69-1.07-1.04-1.43-.26-.26-.41-1-.51-1.53-.12-.57-.03-1.32-.27-1.68-1.28-2.07-2.03-4.43-2.43-6.86-.25-1.2-.33-2.45-.49-3.67-.1-1.23-.21-2.47-.31-3.69-.14-1.23,.26-2.56-.48-3.66-.22-.28-.11-1.52,.11-1.87,.55-.91,.82-1.85,1.03-3.03,.52-2.53,1.24-5.06,2.46-7.4,.26-.61,.61-1.16,.95-1.73,.35-.56,.64-1.15,1.07-1.68l1.21-1.62c.41-.49,.84-.9,1.26-1.35,.9-2.41,3.11-4.11,4.9-5.93,1.41-1.31,3.05-2.36,4.58-3.52,.77-.58,1.43-1.35,2.14-2.04,.75-.65,1.54-1.23,2.54-1.48,.32-.08,.71-.75,1.12-1.11,.91-.8,1.79-1.66,2.7-2.47,.9-.82,1.9-1.49,2.91-2.04,1.04-.55,2.07-1.11,3.01-1.8,.76-.55,1.5-1.13,2.28-1.65l2.35-1.54,4.71-3.07,4.86-2.83,2.43-1.42,2.49-1.3,4.99-2.59c1.68-.81,3.39-1.58,5.09-2.37,3.37-1.64,6.87-2.95,10.32-4.41,1.2-.51,2.42-.78,3.51-1.81,.86-.8,3.08-1.63,4.21-1.55,1.81,.11,3.23-.6,4.76-1.07,1.42-.41,2.82-.88,4.23-1.34,1.41-.44,2.84-.83,4.27-1.2,1.7-.42,3.44-1.47,5.18-.87,.17,.06,.71-.08,.87-.21,1.64-1.42,3.68-1.08,5.59-1.42,1.39-.27,2.77-.56,4.17-1.36,1.36-.78,3.81-1.38,5.26-1.18,1.95,.29,3.58-.22,5.29-.54l3.77-.69,3.79-.6c2.53-.4,5.05-.83,7.6-1.09,5.09-.57,10.17-1.34,15.29-1.55,2.42-.16,4.81-.54,7.22-.87,2.41-.26,4.84-.35,7.29-.2,1.17,.08,2.45-.31,3.49,.4,.21,.15,1.15,.06,1.52-.12,1.35-.67,2.68-.32,4.19-.22,3.42,.25,6.85,.56,10.27,.79,3.41,.41,6.8,.73,10.18,.8,2.64,0,5.2,.42,7.76,.82,2.56,.4,5.1,.84,7.67,1.2,1.7,.3,3.3,1.18,4.99,1.66,1.64,.47,3.33,.81,5.01,1.14,1,.2,1.95,.62,3.06,.3,.59-.15,2.03,.17,2.54,.58,1.7,1.36,3.83,1.63,5.82,2.22,1.42,.43,2.84,.81,4.25,1.26l4.19,1.46c2.79,.99,5.6,1.91,8.36,2.99,1.34,.57,2.99,.81,3.87,2.12,.12,.18,.99,.24,1.52,.37,.56,.14,1.3,.17,1.64,.45,.77,.63,1.6,1.16,2.46,1.62,.86,.46,1.76,.86,2.64,1.3,1.78,.85,3.63,1.58,5.37,2.46l3.18,1.58c1.06,.52,2.14,1.03,3.15,1.63l6.2,3.48c4.2,2.2,8.09,4.93,12.05,7.52,1.09,.75,2.26,1.23,3.36,1.82,1.09,.59,2.18,1.17,3.21,1.95,1.98,1.51,4.05,2.92,6.01,4.45,.71,.52,1.46,1.03,2.13,1.63,.67,.59,1.27,1.24,1.62,2.12,.19,.48,1.17,1.29,1.72,1.44,2.07,.59,3.44,2.32,5.11,3.55l.38,.29,.37,.39,.72,.8,1.43,1.61c.97,1.07,2,2.05,3.34,3.04,.73,.56,1.32,1.75,2.06,2.59l1.98,2.25,.13,.14s.11,.09,.05,.15l-.16,.34-.32,.69c-.06,.1-.09,.25-.18,.32l-.35,.07-.7,.14c-.89,.18-1.5,.54-2.41,.76-1.73,.42-3.47,.85-5.22,1.31-.11,.03-.21,.06-.34,.08l-.43,.04-.86,.09-1.74,.17-2.85,.29c-3.24,.35-6.49,.67-9.73,.95-6.62,.58-13.25,.96-19.88,1.42-6.63,.45-13.26,.97-19.89,1.29-2.49,.12-5.14,.99-7.52-.07-2.24,.87-4.28,.56-6.34-.13-.29-.1-1,.29-1.53,.43-1.66,.42-3.18,1.74-5.11,.53-.07-.04-.3,.03-.45,.02-1.55-.09-2.54,1.31-4.55,.63-1.25-.43-3.22-.1-4.86-.04-1.7,.06-3.41,.11-5.08,.32-1.73,.22-3.66-.29-5.23,.8-.25,.18-1.57-.44-2.33-.35-3.87,.47-7.9-.22-11.66,1.18-.86,.32-2.24,.37-3.19,.18-3.4-.67-6.51-.05-9.94,.45-4.5,.67-9.34,1.08-13.84,.06-.23-.05-.43-.1-.62-.14l.1-4.11c.55,.21,.96,.28,1.72,.02,.65-.23,1.74-.05,2.62,.03l3.69,.36,1.84,.18,.36,.03c.11,0,.16,0,.28,0h.93c2.48-.04,4.97-.08,7.45-.06,4.97-.01,9.93,.1,14.9,.23,2.7,.1,5.18,1.13,7.96,.9,1.15-.09,2.46,.45,3.45-.31,.14-.11,.62-.15,.83-.07,3.26,1.11,6.64-.03,9.91,.57,.7,.13,1.36,.35,2.06,.5,.71,.15,1.53,.44,2.14,.34,5.14-.8,10.28,.46,15.41,.58,1.75,.04,3.61,.71,5.24-.15,.24-.13,1.01-.05,1.34,.1,2.88,1.42,6.22,.78,9.28,1.33,1.57,.28,3.4-.23,4.74,.86,.17,.14,.82,.09,1.22,.05,.69-.07,1.39-.34,2.04-.27,1.83,.19,3.78,.88,5.43,.68,2.03-.25,3.92,.07,5.85,.21,1.11,.09,2.17,.63,3.29,.84,1.05,.2,2.16,.24,3.24,.36,1.55,.18,3.18,.19,4.62,.6,1.49,.43,2.84-.43,4.42,.53,1.2,.71,2.82,.04,4.28,.2,.73,.07,1.47,.33,2.16,.59,.53,.19,.99,.62,1.5,.7,1.16,.17,2.22,.64,3.55,.5,.92-.11,2.28,.86,3.47,1.24,1.19,.39,2.4,.74,3.61,1.1,1.2,.39,2.41,1.04,3.57,1.19,1.26,.21,2.5,.54,3.72,.93,1,.36,2.89,1.13,4.39,1.91l2.29,1.21c.65,.45,1.95,.62,1.23,1.64l-.79,2.48c-.24,.83-.6,1.62-.87,2.43-.15,.41-.29,.85-.43,1.3-.08,.22-.14,.45-.23,.67-.08,.18-.18,.37-.26,.52-.34,.63-.78,1.19-1.42,1.5-.21,.12-.62,.77-.75,1.15-.2,.61-.43,1.2-.69,1.79-.27,.58-.61,1.11-.95,1.66-.66,1.1-1.5,2.07-2.34,3.03-.84,.96-1.8,1.81-2.69,2.72-.95,.83-1.84,1.73-2.75,2.59-2.53,2.52-5.15,4.93-8.27,6.77-3.04,1.78-6.29,3.32-9.12,5.15-1.16,.79-2.34,1.48-3.54,2.15-1.2,.63-2.41,1.18-3.68,1.61-2.46,.86-4.14,3.41-7.06,3.02-2.45,1.03-4.95,1.98-7.45,2.86-2.11,.75-4.17,1.81-6.49,1.74-.84-.02-2.3,.48-3.04,1-2.39,1.7-5.05,2.3-7.91,2.61-.67,.08-1.37,.73-2.11,.95-2.24,.7-4.54,1.3-6.83,1.77-6.87,1.25-13.42,3.57-20.36,4.55-1.27,.2-2.6,1.02-3.75,.99-3.51-.09-7,.17-10.49,.53-3.49,.23-6.99,.59-10.43,.26-1.27-.11-2.54-.17-3.8-.24-1.26-.1-2.53-.18-3.79-.25-2.53-.09-5.05-.27-7.57-.41l-7.44-.43c-2.46-.16-4.92-.29-7.38-.5-1.28-.11-2.59-.9-3.2-.72-1.92,.56-4.05-.12-5.65,.3-2.88,.75-5.66,.03-8.47,.14-2.04,.08-4.22-.6-6.14,.33-.28,.14-.98,.08-1.35-.05-2.97-1.05-6,.23-8.97-.33-5.71,.92-11.53-.11-17.31-.16-.85,0-1.69,.19-2.54,.28-.43,.04-.94,.17-1.3,.06-5.16-1.49-10.64-.97-15.92-1.74-1.74-.27-3.43-.77-5.17-1.06-1.75-.28-3.6-.21-5.18-1.13-.49-.29-1.52-.28-2.28-.28-4.12-.02-6.93-1.99-6.64-4.51,.1-.91,.94-.86,1.85-1.09,1.76-.44,3.45-.65,5.46-.33,1.56,.23,3.26,.71,4.75-.01,.25-.12,.96-.01,1.33,.14,2.62,1.04,5.72,.73,8.23,1.47,1.93,.57,3.76,.62,5.63,.92,1.57,.25,3.24-.1,4.77,.81,.52,.31,2.12-.3,3.23-.26,2.61,.08,5.25,.17,7.85,.42,7.91,.75,15.78-.27,23.7,.36,5.7-.92,11.55,.36,17.24,.07,6.87-.37,13.74,.5,20.52,.65,1.38,.02,2.48,.11,3.69,.47,.79,.24,1.62,.5,2.45,.51,1.6,.06,3.2,.08,4.81,.11,1.6,.05,3.2-.03,4.8,.02,.86,.02,1.76-.13,2.65-.14,.88-.03,1.74,.04,2.53,.54,.22,.14,.99,.08,1.33-.06,2.76-1.16,5.83-.8,8.75-1.17,1.11-.13,2.18-.24,3.44,0,1.36,.25,3.43-.01,4.74-.59,.99-.45,1.9-.59,2.87-.83,1.01-.25,2.04-.4,3.08-.53l3.11-.45c1.04-.16,2.06-.35,3.06-.62,1-.29,1.96-.69,2.88-1.22,1.16,.33,2.36,.25,3.54,.01,1.17-.25,2.29-.72,3.3-1.11,7.75-3.02,15.86-4.77,23.58-7.81,1.85-.76,3.91-1,5.84-1.65,2.01-.71,4-1.56,5.96-2.42,1.04-.48,2.41-.67,2.89-1.79,.04-.08,.2-.2,.32-.24,1.17-.37,2.45-.56,3.49-1.12,.94-.5,1.6-1.4,2.48-2.01,1.06-.73,2.25-1.32,3.38-1.97,1.11-.6,2.18-1.43,3.43-1.31,.4-1.26,1.84-1.65,2.86-2.37,.95-.69,1.94-1.33,2.92-2,1.04-.81,2.14-1.56,3.12-2.42,.5-.42,1.03-.82,1.52-1.25,.48-.44,.96-.88,1.4-1.35,1.19-1.32,2.13-2.78,3.14-4.17,1.09-1.45,2.13-2.93,3.12-4.4,.34-.45,.62-.92,.91-1.4l.44-.71c.15-.23,.32-.5,.37-.56,.26-.39,.61-.83,.83-1.35,.1-.21,.12-.4,.06-.55,.05-.19-.44-.13-.73-.13-.44,.02-.95,.16-1.2,.18-.13,0-.22,0-.25-.11-.02-.05-.02-.12-.03-.22-.02-.11,.06-.2-.12-.46-.2-.36-1.29-.76-1.96-.83-1.3-.17-2.55-.48-3.8-.8-1.23-.36-2.47-.74-3.71-1.15-2.46-.82-4.98-1.62-7.56-2.03-2.62-1.52-5.51-1.49-8.53-1.67-4.43-.29-9.13-.67-13.46-1.62-4.59-1.01-9.22-.99-13.87-1.57-1.3-.16-2.75,.08-3.79-.86-.24-.21-1.23-.24-1.79-.15-3.84,.59-7.49,.04-11.29-.84-2.01-.47-4.32-.29-6.59-.14-3.4,.23-7.03-.42-10.57-.67-1.45-1.16-2.72-.18-3.53,.22-1.09,.53-2.07,.57-3.31,.5-1.6-.09-3.16-.37-4.77,.21-.83,.29-2.62,.11-3.46-.3-1.14-.55-1.58-.35-2.66-.09-1.27,.31-2.53-.71-4.11-.74-1.69-.03-3.68,.42-5.13-.73-.13-.1-.65-.11-.89-.03-3.16,1.01-6.22-.69-9.35-.25-4.38-.66-8.81-.76-13.23-.66l-1.66,.04-.83,.02h-.64c-.21,0-.51-.03-.66-.04l-3.34-.28c-2.22-.19-4.44-.4-6.65-.69l.19-8.15c.53,0,1.07-.01,1.6-.02,3.89-.02,7.85,.59,11.65-.11,7.98-1.47,16.08-1.19,24.11-1.84,1.7-.14,3.63-.74,5.23,.23,.22,.13,1,.07,1.34-.08,2.49-1.12,4.99-.97,7.59-.46,.63,.12,1.79,.03,2.15-.25,1.02-.79,2.28-.57,3.42-.63,1.38-.06,3.25,.46,4.04,.05,1.71-.9,2.75-.07,4.09-.01,.83,.04,1.73-.23,2.58-.4,.4-.08,.89-.44,1.13-.37,2.76,.73,5.34-.74,8.03-.54,.58,.04,1.19-.02,1.75,.05q6.4,.78,14.34-.36c2.27,1.15,4.71-.93,7.15-.11,.89,.3,2.55,.1,3.62-.23,4.67-1.46,9.62-.91,14.38-1.58,.99-.14,1.82,.67,3.04-.12,.46-.3,2.15,.35,3.24,.24,1.58-.16,3.28,.19,4.79-.77,.62-.39,2.05-.22,3.1-.37,.91-.12,.95-.06,1.31-.11,.29-.04,.58-.15,.59-.51,.02-.38,.4-.42,1.13-.14,.75,.29,1.44,.42,1.95,.46,.48-.01,.95,.11,.79-.44l-.03-.15-.02-.08-.1-.07-.42-.26-.85-.48-1.47-.76c-.48-.26-.78-.36-.75-.62,.02-.19-.01-.46-.17-.71-.15-.25-.4-.49-.7-.49-.15,.09-.74-.24-1.16-.49-.44-.27-.85-.57-1.24-.88-.78-.63-1.51-1.31-2.29-1.94-2.73-2.14-5.22-4.59-8.14-6.48-1.63-1.12-3.18-2.34-4.78-3.5-.8-.58-1.61-1.15-2.45-1.69-.85-.52-1.77-.95-2.7-1.35-2.02-.86-4.57-2.09-5.92-4.33-.15-.25-1.28-.22-1.81-.55-2.13-1.28-4.34-2.42-6.5-3.65l-3.24-1.84-1.62-.93c-.54-.31-1.11-.57-1.66-.85-1.02-.52-1.65-2.08-3-1.73-1.43,.38-1.69-1.87-3.04-1.23-.2,.09-1.13-.38-1.56-.72-.59-.46-1.2-.89-1.82-1.29-.63-.4-1.29-.72-1.95-1.05-1.33-.65-2.7-1.22-4.08-1.77-2.78-1.07-5.54-2.19-8.3-3.23-1.32-.54-2.99-.63-3.74-1.93-1.88-.08-3.58-.98-5.31-1.8-1.75-.73-3.55-1.36-5.48-1.02-2.42-.98-5.29-.91-7.41-2.65-.35-.27-1.28-.2-1.69-.46-1.4-.91-2.77,.6-4.43-.72-.96-.76-3.04-.91-4.63-1.3-1.47-.39-2.99-.54-4.48-.81l-4.94-.83c-1.65-.25-3.28-.67-4.94-.77-3.37-.2-6.71,.15-10.09-.51-.36-.07-1.01,0-1.16,.16-1.27,1.37-2.9,.49-4.03-.02-.94-.42-1.76-.64-2.82-.69l-4.31-.2-2.15-.12-2.15-.04c-1.7-.05-3.51,.44-5.14-.5-.5-.29-1.88-.22-2.65,0-.9,.25-1.8,.4-2.71,.49-.91,.14-1.82,.22-2.74,.28-1.84,.11-3.69,.11-5.51,.29-1.65,.18-3.32,.2-4.98,.33-1.26,.13-2.44,.92-3.76,.45-2.99,.98-6.04,1.4-9.14,1.81-3.1,.49-6.25,.77-9.31,1.43-3.04,.66-6.12,1.18-9.15,1.87-3.04,.65-6.1,1.25-9.11,2.01-1.51,.36-3.07,1.24-4.67,.6-.31-.13-1.38,.2-1.65,.48-.73,.77-1.31,1.23-2.48,.81-.22-.08-.99,.3-1.39,.56-1.11,.74-2.22,.96-3.58,1.03-1.06,.04-2.43,.3-3.33,.81-1.2,.68-2.36,1.33-3.58,1.79-1.21,.49-2.48,.81-3.93,.77-.35,0-.98,.94-1.56,1.11-1.11,.34-2.18,.8-3.25,1.27-1.07,.46-2.17,.84-3.39,.9-1,.05-2.19,.81-3.31,1.17-1.92,.65-3.42,2-5.48,2.59-1.04,.31-2.08,.75-3.09,1.27-1,.54-1.99,1.13-2.99,1.65-1.99,1.05-4.03,2.03-5.95,3.21-1.94,1.15-3.91,2.25-5.82,3.43l-5.65,3.7c-1.88,1.24-3.64,2.64-5.46,3.95-.89,.68-1.83,1.3-2.69,2.03l-2.6,2.14c-1.21,1-2.42,1.82-3.88,2.55-1.82,1-3.62,2.38-5.44,4.09-.94,.83-1.79,1.83-2.64,2.9-.86,1.06-1.73,2.21-2.6,3.42-.25,.35-.61,.65-.92,.97-3.32,3.77-4.8,8.83-5.34,14.11-.27,2.31-.55,4.78-.14,7.25,.13,.8,.23,1.6,.45,2.39,.19,.78,.48,1.55,1,2.26,.41,.59,.52,1.4,.74,2.21,.18,.82,.48,1.65,1.19,2.23,.26,.21,.49,.68,.71,1.18,.05,.13,.1,.26,.14,.38l.06,.19,.03,.1v.03c-.01,.07-.04,.15-.09,.23-.09,.14-.08,.25-.08,.37-.01,.02,.03,.09-.02,.06l.17,.26,.34,.5c.46,.67,.95,1.31,1.42,1.94,.96,1.27,1.88,2.5,2.63,3.74l1.69,2.78,.85,1.34,.2,.3c.05,.07,.09,.15,.16,.21,.08,.04,.16,.08,.24,.12-.01-.01,.45,.27,.72,.48,.62,.44,1.15,.91,1.66,1.37,1.47,1.39,2.26,2.95,3.85,3.66,.39,.18,.82,.65,1.19,1.17,.19,.27,.37,.53,.53,.81,.07,.12,.19,.3,.2,.36,0,.05,0,.11,0,.17,0,.08,.06,.18,.19,.33,.15,.16,.3,.31,.46,.46,.31,.3,.64,.57,.98,.82,.69,.49,1.39,.95,2.14,1.29,3.19,1.48,3.15,1.42,5.87,3.6,.32,.26,.71,.49,1.08,.7,3.79,1.99,7.63,4.26,11.75,5.29,3.39,.91,6.64,1.95,9.97,2.92,1.32,.39,2.98,.34,3.86,1.61,.13,.18,.89,.38,1.25,.33,1.55-.21,3.04,0,4.52,.35,1.49,.29,2.98,.72,4.46,.99,1.44,.22,2.86,.21,4.28,.23,1.42,0,2.84-.02,4.3,.27,2.75,.49,5.61,.54,8.42,.66,4.26,.13,5.18,.7,5.18,3.44,0,2.25-1.12,2.74-4.75,3.14-7.73,.73-15.37-1.02-21.52-1.95Z"/>
          </g>
          <g>
            <path class="cls-9" d="M116.83,167.75c-23.37,.1-51.44-6.61-71.58-21.9-3.36-3.4-5.03-6.79-8.39-8.49-3.36-5.09-5.03-8.49-8.39-11.89-5.03-11.89-6.71-27.17,1.68-37.36,31.88-35.66,77.19-50.94,122.5-57.73,68.8-10.19,140.96,11.89,189.6,61.19l-.58,1.22c-45.95,3.49-96.16,6.73-144.91,9.21l10.37,1.01c33.07-.59,60.28,2.46,93.27,4.88,18.5,1.36,37.51,3.34,53.94,12.05h0c-3.91,15.09-18.48,25.36-34.1,32.38-33.74,15.17-68.31,23.25-105.31,20.41-36.29-2.78-66.62-1.66-102.69-6.61"/>
            <path class="cls-9" d="M90.55,167.03c-7.72-1.52-13.88-3.4-19.96-5.47-.96-.29-2.17-.26-3.35-.73-2.35-.91-4.72-1.91-7.05-2.92-1.15-.55-2.28-1.12-3.38-1.72-1.11-.59-2.13-1.32-3.12-2.03l-1.62-1.17-1.59-1.21c-1.06-.81-2.17-1.51-3.21-2.32-.53-.39-1.06-.77-1.59-1.15-.54-.4-1.03-.68-1.71-1.22-.5-.5-1-.99-1.49-1.49-.45-.47-.9-.93-1.35-1.39-.96-1-1.83-1.98-2.69-2.82-.43-.42-.85-.79-1.28-1.12-.23-.16-.39-.29-.68-.47-.39-.24-.81-.46-1.22-.68-.4-.55-.77-1.15-1.15-1.7l-.82-1.26-1.63-2.49c-.87-1.29-1.74-2.45-2.23-4.08-.18-.6-.61-1.33-1.22-1.97l-.24-.23c-.09-.08-.22-.21-.33-.31-.23-.2-.47-.4-.73-.6-.31-.49-.69-1.07-1.04-1.43-.26-.26-.41-1-.51-1.53-.12-.57-.03-1.32-.27-1.68-1.28-2.07-2.03-4.43-2.43-6.86-.25-1.2-.33-2.45-.49-3.67-.1-1.23-.21-2.47-.31-3.69-.14-1.23,.26-2.56-.48-3.66-.22-.28-.11-1.52,.11-1.87,.55-.91,.82-1.85,1.03-3.03,.52-2.53,1.24-5.06,2.46-7.4,.26-.6,.61-1.16,.95-1.73,.35-.56,.64-1.15,1.07-1.68l1.2-1.62c.41-.49,.84-.9,1.26-1.35,.9-2.41,3.11-4.11,4.9-5.93,1.41-1.31,3.05-2.36,4.58-3.52,.77-.58,1.43-1.35,2.14-2.04,.75-.65,1.54-1.23,2.54-1.48,.32-.08,.71-.75,1.12-1.11,.91-.8,1.79-1.66,2.7-2.47,.9-.82,1.9-1.49,2.91-2.04,1.04-.55,2.07-1.11,3.01-1.8,.76-.55,1.5-1.13,2.28-1.65l2.35-1.54,4.71-3.07,4.86-2.83,2.43-1.42,2.49-1.3,4.99-2.59c1.68-.81,3.39-1.58,5.09-2.37,3.37-1.64,6.87-2.95,10.32-4.41,1.2-.51,2.42-.78,3.51-1.81,.86-.8,3.08-1.63,4.21-1.55,1.81,.11,3.23-.6,4.76-1.06,1.42-.41,2.82-.88,4.23-1.34,1.41-.44,2.84-.83,4.27-1.2,1.7-.42,3.44-1.47,5.18-.87,.17,.06,.71-.08,.87-.21,1.64-1.42,3.68-1.08,5.59-1.42,1.39-.27,2.77-.56,4.17-1.36,1.36-.78,3.81-1.38,5.26-1.18,1.95,.29,3.58-.22,5.29-.54l3.77-.69,3.79-.6c2.53-.4,5.05-.83,7.6-1.09,5.09-.57,10.17-1.34,15.29-1.55,2.42-.16,4.81-.54,7.22-.87,2.41-.26,4.84-.35,7.29-.2,1.17,.08,2.45-.31,3.49,.4,.21,.15,1.15,.06,1.52-.12,1.35-.67,2.68-.32,4.19-.22,3.42,.25,6.85,.56,10.27,.79,3.41,.41,6.8,.73,10.18,.8,2.64,0,5.2,.42,7.76,.82,2.56,.4,5.1,.85,7.67,1.2,1.7,.3,3.3,1.18,4.99,1.66,1.64,.47,3.33,.81,5.01,1.14,1,.2,1.95,.62,3.06,.3,.59-.15,2.03,.17,2.54,.58,1.7,1.36,3.83,1.63,5.82,2.22,1.42,.43,2.84,.81,4.25,1.26l4.19,1.46c2.79,.99,5.6,1.91,8.36,2.99,1.34,.57,2.99,.81,3.87,2.12,.12,.18,.99,.24,1.52,.37,.56,.14,1.3,.17,1.64,.45,.77,.63,1.6,1.16,2.46,1.62,.86,.46,1.76,.86,2.64,1.3,1.78,.85,3.63,1.58,5.37,2.46l3.18,1.58c1.06,.52,2.14,1.03,3.15,1.63l6.2,3.48c4.2,2.2,8.09,4.93,12.05,7.52,1.09,.75,2.26,1.23,3.36,1.82,1.09,.59,2.18,1.17,3.21,1.95,1.98,1.51,4.05,2.92,6.01,4.45,.71,.52,1.46,1.03,2.13,1.63,.67,.59,1.27,1.24,1.62,2.12,.19,.48,1.17,1.28,1.72,1.44,2.07,.59,3.44,2.32,5.11,3.55l.38,.29,.37,.39,.72,.8,1.43,1.61c.97,1.07,2,2.05,3.34,3.04,.73,.56,1.32,1.75,2.06,2.59l1.98,2.25,.13,.14s.11,.09,.05,.15l-.16,.34-.32,.69c-.06,.1-.09,.25-.18,.32l-.35,.07-.7,.14c-.89,.18-1.5,.54-2.41,.76-1.73,.42-3.47,.85-5.22,1.31-.11,.03-.21,.06-.34,.08l-.43,.04-.86,.09-1.74,.17-2.85,.29c-3.24,.35-6.49,.67-9.73,.95-6.62,.58-13.25,.96-19.88,1.42-6.63,.45-13.26,.97-19.89,1.29-2.49,.12-5.14,.99-7.52-.07-2.24,.87-4.28,.56-6.34-.13-.29-.1-1,.29-1.53,.43-1.66,.42-3.18,1.74-5.11,.53-.07-.04-.3,.03-.45,.02-1.55-.09-2.54,1.31-4.55,.63-1.25-.43-3.22-.1-4.86-.04-1.7,.06-3.41,.11-5.08,.32-1.73,.22-3.66-.29-5.23,.8-.25,.18-1.57-.44-2.33-.35-3.87,.47-7.9-.22-11.66,1.18-.86,.32-2.24,.37-3.19,.18-3.4-.67-6.51-.05-9.94,.45-4.5,.67-9.34,1.08-13.84,.06-.23-.05-.43-.1-.62-.14l.1-4.11c.55,.21,.96,.28,1.72,.02,.65-.23,1.74-.05,2.62,.03l3.69,.36,1.84,.18,.36,.03c.11,0,.16,0,.28,0h.93c2.48-.04,4.97-.08,7.45-.06,4.97-.01,9.93,.1,14.9,.23,2.7,.1,5.18,1.13,7.96,.9,1.15-.09,2.46,.45,3.45-.31,.14-.11,.62-.15,.83-.07,3.26,1.11,6.64-.03,9.91,.57,.7,.12,1.36,.35,2.06,.5,.71,.15,1.53,.44,2.14,.34,5.14-.8,10.28,.46,15.41,.58,1.75,.04,3.61,.71,5.24-.15,.24-.13,1.01-.05,1.34,.1,2.88,1.42,6.22,.77,9.28,1.33,1.57,.28,3.4-.23,4.74,.86,.17,.14,.82,.09,1.22,.05,.69-.07,1.39-.34,2.04-.27,1.83,.19,3.78,.88,5.43,.68,2.03-.25,3.92,.07,5.85,.21,1.11,.09,2.17,.63,3.28,.84,1.05,.21,2.16,.24,3.24,.36,1.55,.18,3.18,.19,4.62,.6,1.49,.43,2.84-.43,4.42,.53,1.2,.71,2.82,.04,4.28,.2,.73,.07,1.47,.33,2.16,.59,.53,.19,.99,.62,1.5,.7,1.16,.17,2.22,.64,3.55,.5,.92-.11,2.28,.86,3.47,1.24,1.19,.39,2.4,.74,3.61,1.1,1.2,.39,2.41,1.04,3.57,1.19,1.26,.21,2.5,.54,3.72,.93,1,.36,2.89,1.13,4.39,1.91l2.29,1.21c.65,.45,1.95,.62,1.23,1.64l-.79,2.48c-.24,.83-.6,1.62-.87,2.43-.15,.42-.29,.85-.43,1.3-.08,.22-.14,.45-.23,.67-.08,.18-.18,.37-.26,.52-.34,.63-.78,1.19-1.42,1.5-.21,.12-.62,.77-.75,1.15-.2,.61-.43,1.2-.69,1.79-.27,.58-.61,1.11-.95,1.66-.66,1.1-1.5,2.07-2.34,3.03-.84,.96-1.8,1.81-2.69,2.72-.95,.83-1.84,1.73-2.75,2.59-2.53,2.52-5.15,4.93-8.27,6.77-3.04,1.78-6.29,3.32-9.12,5.15-1.16,.79-2.34,1.48-3.54,2.15-1.2,.63-2.41,1.18-3.68,1.61-2.46,.86-4.14,3.41-7.06,3.02-2.45,1.03-4.95,1.98-7.45,2.86-2.11,.75-4.17,1.81-6.49,1.74-.84-.02-2.3,.48-3.04,1-2.39,1.7-5.05,2.3-7.91,2.61-.67,.08-1.37,.73-2.11,.95-2.24,.7-4.54,1.3-6.83,1.77-6.87,1.25-13.42,3.57-20.36,4.55-1.27,.2-2.6,1.02-3.75,.99-3.51-.09-7,.17-10.49,.53-3.49,.23-6.99,.59-10.43,.26-1.27-.11-2.54-.17-3.8-.24-1.26-.1-2.53-.18-3.79-.25-2.53-.09-5.05-.27-7.57-.41l-7.44-.43c-2.46-.16-4.92-.29-7.38-.5-1.28-.11-2.59-.9-3.2-.72-1.92,.56-4.05-.12-5.65,.3-2.88,.75-5.66,.03-8.47,.14-2.04,.08-4.22-.6-6.14,.33-.28,.14-.98,.08-1.35-.05-2.97-1.05-6,.23-8.97-.33-5.71,.92-11.53-.11-17.31-.16-.85,0-1.69,.19-2.54,.28-.43,.04-.94,.17-1.3,.06-5.16-1.49-10.64-.97-15.92-1.74-1.74-.27-3.43-.77-5.17-1.06-1.75-.28-3.6-.21-5.18-1.13-.49-.29-1.52-.28-2.28-.28-4.12-.02-6.93-1.99-6.64-4.51,.1-.91,.94-.86,1.85-1.09,1.76-.44,3.45-.65,5.46-.33,1.56,.23,3.26,.71,4.75-.02,.25-.12,.96-.01,1.33,.14,2.62,1.04,5.72,.73,8.23,1.47,1.93,.57,3.76,.62,5.63,.92,1.57,.25,3.24-.1,4.77,.81,.52,.31,2.12-.3,3.23-.26,2.61,.08,5.25,.17,7.85,.42,7.91,.75,15.78-.27,23.7,.36,5.7-.92,11.55,.36,17.24,.07,6.87-.36,13.74,.5,20.52,.65,1.38,.02,2.48,.11,3.69,.47,.79,.24,1.62,.5,2.45,.51,1.6,.06,3.2,.08,4.81,.11,1.6,.05,3.2-.03,4.8,.02,.86,.02,1.76-.13,2.65-.14,.88-.03,1.74,.04,2.53,.54,.22,.14,.99,.08,1.33-.06,2.76-1.16,5.83-.8,8.75-1.17,1.11-.13,2.18-.24,3.44,0,1.36,.25,3.43-.01,4.74-.59,.99-.45,1.9-.59,2.87-.83,1.01-.25,2.04-.4,3.08-.53l3.11-.45c1.04-.16,2.06-.35,3.06-.62,1-.29,1.96-.69,2.88-1.22,1.16,.33,2.36,.25,3.54,.01,1.17-.25,2.29-.72,3.3-1.11,7.75-3.02,15.86-4.77,23.58-7.81,1.85-.76,3.91-1,5.84-1.65,2.01-.71,4-1.56,5.96-2.42,1.04-.48,2.41-.67,2.89-1.79,.04-.08,.2-.2,.32-.24,1.17-.37,2.45-.56,3.49-1.12,.94-.5,1.6-1.4,2.48-2.01,1.06-.73,2.25-1.32,3.38-1.97,1.11-.6,2.18-1.43,3.43-1.31,.4-1.26,1.84-1.65,2.86-2.37,.95-.69,1.94-1.33,2.92-2,1.04-.81,2.14-1.56,3.12-2.42,.5-.42,1.03-.82,1.52-1.25,.48-.44,.96-.88,1.4-1.35,1.19-1.32,2.13-2.78,3.14-4.17,1.09-1.45,2.13-2.93,3.12-4.4,.34-.45,.62-.92,.91-1.4l.44-.71c.15-.23,.32-.5,.37-.56,.26-.39,.61-.83,.83-1.35,.1-.21,.12-.4,.06-.55,.05-.19-.44-.13-.73-.13-.44,.02-.95,.16-1.2,.18-.13,0-.22,0-.25-.11-.02-.05-.02-.12-.03-.22-.02-.11,.06-.2-.12-.46-.2-.36-1.29-.76-1.96-.83-1.3-.17-2.55-.48-3.8-.8-1.23-.36-2.47-.74-3.71-1.15-2.46-.82-4.98-1.62-7.56-2.03-2.62-1.52-5.51-1.49-8.53-1.67-4.43-.29-9.13-.67-13.46-1.62-4.59-1.01-9.22-.99-13.87-1.57-1.3-.16-2.75,.08-3.79-.86-.24-.21-1.23-.24-1.79-.15-3.84,.59-7.49,.04-11.29-.84-2.01-.47-4.32-.29-6.59-.14-3.4,.23-7.03-.42-10.57-.67-1.45-1.16-2.72-.18-3.53,.22-1.09,.53-2.07,.57-3.31,.5-1.6-.08-3.16-.37-4.77,.21-.83,.29-2.62,.11-3.46-.3-1.14-.55-1.58-.35-2.66-.09-1.27,.31-2.53-.71-4.11-.74-1.69-.03-3.68,.42-5.13-.73-.13-.1-.65-.11-.89-.03-3.16,1.01-6.22-.69-9.35-.25-4.38-.66-8.81-.76-13.23-.66l-1.66,.04-.83,.02h-.64c-.21,0-.51-.03-.66-.04l-3.34-.28c-2.22-.19-4.44-.4-6.65-.69l.19-8.15c.53,0,1.07-.01,1.6-.02,3.89-.02,7.85,.59,11.65-.11,7.98-1.47,16.08-1.18,24.11-1.84,1.7-.14,3.63-.74,5.23,.23,.22,.14,1,.07,1.34-.08,2.49-1.12,4.99-.97,7.59-.46,.63,.12,1.79,.03,2.15-.25,1.02-.79,2.28-.57,3.42-.63,1.38-.06,3.25,.46,4.04,.05,1.71-.9,2.75-.07,4.09-.01,.83,.04,1.73-.23,2.58-.4,.4-.08,.89-.44,1.13-.37,2.76,.73,5.34-.74,8.03-.54,.58,.04,1.19-.02,1.75,.05q6.4,.78,14.34-.36c2.27,1.15,4.71-.93,7.15-.11,.89,.3,2.55,.1,3.62-.23,4.67-1.46,9.62-.91,14.38-1.58,.99-.14,1.82,.67,3.04-.12,.46-.3,2.15,.35,3.24,.24,1.58-.16,3.28,.19,4.79-.77,.62-.39,2.05-.22,3.1-.37,.91-.12,.95-.06,1.31-.11,.29-.04,.58-.15,.59-.51,.02-.38,.4-.42,1.13-.14,.75,.29,1.44,.42,1.95,.46,.48-.01,.95,.11,.79-.44l-.03-.15-.02-.08-.1-.07-.42-.26-.85-.48-1.47-.76c-.48-.26-.78-.36-.75-.62,.02-.19-.01-.46-.17-.71-.15-.25-.4-.49-.7-.49-.15,.09-.74-.24-1.16-.49-.44-.27-.85-.57-1.24-.88-.78-.63-1.51-1.31-2.29-1.94-2.73-2.14-5.22-4.59-8.14-6.48-1.63-1.12-3.18-2.34-4.78-3.5-.8-.58-1.61-1.15-2.45-1.69-.85-.52-1.77-.95-2.7-1.35-2.02-.86-4.57-2.09-5.92-4.33-.15-.25-1.28-.22-1.81-.55-2.13-1.28-4.34-2.42-6.5-3.65l-3.24-1.84-1.62-.93c-.54-.3-1.11-.57-1.66-.85-1.02-.52-1.65-2.08-3-1.73-1.43,.38-1.69-1.87-3.04-1.23-.2,.09-1.13-.38-1.56-.72-.59-.46-1.2-.89-1.82-1.29-.63-.4-1.29-.72-1.95-1.05-1.33-.65-2.7-1.22-4.08-1.77-2.78-1.07-5.54-2.19-8.3-3.23-1.32-.54-2.99-.63-3.74-1.93-1.88-.08-3.58-.98-5.31-1.8-1.75-.73-3.55-1.36-5.48-1.02-2.42-.98-5.29-.91-7.41-2.65-.35-.27-1.28-.2-1.69-.46-1.4-.91-2.77,.6-4.43-.72-.96-.76-3.04-.91-4.63-1.3-1.47-.39-2.98-.54-4.48-.81l-4.94-.83c-1.65-.25-3.28-.67-4.94-.77-3.37-.2-6.71,.15-10.09-.51-.36-.07-1.01,0-1.16,.16-1.27,1.37-2.9,.49-4.03-.02-.94-.42-1.76-.64-2.82-.69l-4.31-.2-2.15-.12-2.15-.04c-1.7-.05-3.51,.44-5.14-.5-.5-.29-1.88-.22-2.65,0-.9,.25-1.8,.4-2.71,.49-.91,.14-1.82,.22-2.74,.28-1.84,.11-3.69,.11-5.51,.29-1.65,.18-3.32,.2-4.98,.33-1.26,.13-2.44,.92-3.76,.45-2.99,.99-6.04,1.4-9.14,1.81-3.1,.49-6.25,.77-9.31,1.43-3.04,.66-6.12,1.18-9.15,1.87-3.04,.65-6.1,1.25-9.11,2.01-1.51,.36-3.07,1.24-4.67,.6-.31-.13-1.38,.2-1.65,.48-.73,.77-1.31,1.23-2.48,.81-.22-.08-.99,.3-1.39,.56-1.11,.74-2.22,.96-3.58,1.03-1.06,.04-2.43,.3-3.33,.81-1.2,.68-2.36,1.33-3.58,1.79-1.21,.49-2.48,.81-3.93,.77-.35,0-.98,.94-1.56,1.11-1.11,.34-2.18,.8-3.25,1.27-1.07,.46-2.17,.84-3.39,.9-1,.05-2.19,.81-3.31,1.17-1.92,.65-3.42,2-5.48,2.59-1.04,.31-2.08,.75-3.09,1.27-1,.54-1.99,1.13-2.99,1.65-1.99,1.05-4.03,2.03-5.95,3.21-1.94,1.15-3.91,2.25-5.82,3.43l-5.65,3.7c-1.88,1.24-3.64,2.64-5.46,3.95-.89,.68-1.83,1.3-2.69,2.03l-2.6,2.14c-1.21,1-2.42,1.82-3.88,2.55-1.82,1-3.62,2.38-5.44,4.09-.94,.83-1.78,1.83-2.64,2.9-.86,1.06-1.73,2.21-2.6,3.42-.25,.35-.61,.65-.92,.97-3.32,3.77-4.8,8.83-5.34,14.11-.27,2.31-.55,4.78-.14,7.25,.13,.8,.23,1.6,.45,2.39,.19,.78,.48,1.55,1,2.26,.41,.59,.53,1.4,.74,2.21,.18,.82,.48,1.65,1.19,2.23,.26,.21,.49,.68,.71,1.18,.05,.13,.1,.26,.14,.39l.06,.19,.03,.1v.03c-.01,.07-.04,.15-.09,.23-.09,.14-.08,.25-.08,.37-.01,.02,.03,.09-.02,.06l.17,.26,.35,.5c.46,.67,.95,1.31,1.42,1.94,.96,1.27,1.88,2.5,2.63,3.74l1.69,2.78,.85,1.34,.2,.3c.05,.07,.09,.15,.16,.21,.08,.04,.16,.08,.24,.13-.01-.01,.45,.27,.71,.48,.62,.44,1.15,.91,1.66,1.37,1.47,1.39,2.26,2.95,3.85,3.66,.39,.18,.82,.65,1.19,1.17,.19,.27,.37,.53,.53,.81,.07,.12,.19,.3,.2,.36,0,.05,0,.11,0,.17,0,.08,.06,.18,.19,.33,.15,.16,.3,.31,.46,.46,.31,.3,.64,.57,.98,.82,.69,.49,1.39,.95,2.14,1.29,3.19,1.48,3.15,1.42,5.87,3.6,.32,.26,.71,.49,1.08,.7,3.79,1.99,7.63,4.26,11.75,5.29,3.39,.91,6.64,1.95,9.97,2.92,1.32,.39,2.98,.34,3.86,1.61,.13,.18,.89,.38,1.25,.33,1.55-.21,3.04,0,4.52,.35,1.49,.29,2.98,.72,4.46,.99,1.44,.22,2.86,.21,4.28,.23,1.42,0,2.84-.02,4.3,.27,2.75,.49,5.61,.54,8.42,.66,4.26,.13,5.18,.7,5.18,3.44,0,2.25-1.12,2.74-4.75,3.14-7.73,.73-15.37-1.02-21.52-1.95Z"/>
          </g>
        </g>
        <g class="cls-12">
          <g class="cls-12">
            <path class="cls-5" d="M35.1,152.85c-2.84-1.73-5.08-4.41-7.58-5.81-.27-.15-.57-.31-.86-.47l.32,.37c2.29,2.91,5.49,5.51,8.83,7.32,.53,.25,1.07,.5,1.63,.72,.57,.2,1.14,.4,1.71,.6,1.15,.39,2.19,.94,3.78,1.29,.36,.06,.43-.26,.47-.41-.28-.22-.47-.48-.61-.74-1.04-.16-2-.56-2.96-.95-.95-.4-1.94-.77-2.84-1.34-.58-.38-1.52-.34-1.88-.57Z"/>
            <path class="cls-7" d="M42.85,155.76l-.03-.05-.31-.05c.11,.04,.22,.07,.34,.1Z"/>
            <path class="cls-4" d="M38.05,154.1c-.65-.24-1.23-.6-1.8-.96-.45-.1-.92-.14-1.14-.29-2.84-1.73-5.08-4.41-7.58-5.81-.27-.15-.56-.3-.86-.47l.34,.4c.84,.96,1.68,2,2.69,2.88l.2,.1c.71,.31,1.08,.95,1.63,1.42,.89,.52,1.64,1.07,2.4,1.63,.76,.55,1.58,1.01,2.49,1.48,.64,.35,1.5,.38,2.25,.79,.26,.13,.51,.27,.74,.42,1.06,.37,2.07,.88,3.57,1.19,.36,.06,.43-.26,.46-.41-.15-.12-.27-.24-.37-.37-1.01-.24-1.89-.65-2.74-1.12-.79-.31-1.58-.64-2.36-.99,.02,.04,.04,.08,.08,.13Z"/>
            <path class="cls-7" d="M38.21,153.65c-.1-.06-.35,.07-.24,.33,.78,.36,1.57,.68,2.36,.99-.72-.39-1.44-.81-2.12-1.32Z"/>
            <path class="cls-8" d="M38.85,152.74c-.68-.44-1.38-.82-2.06-1.16-.68-.34-1.31-.7-1.76-1.22-.5-.51-.92-1.09-1.23-1.68-.19-.12-.36-.25-.53-.39-4.42-3.12-8.34-7.11-10.97-11.8-.67-1.17-1.49-2.18-2.23-3.26-.39-.52-.79-1.06-1.19-1.61-.37-.57-.75-1.15-1.13-1.72-.41-.72-.63-1.45-.79-2.18-.16-.73-.32-1.46-.47-2.25-.15-1-.41-1.93-.74-2.82-.26-.91-.6-1.78-.98-2.66-.67-1.77-1.44-3.59-1.81-5.65-.23-1.1-1.49-1.18-1.48-.9,.52,3.58,1.15,6.99,2.06,10.35,.92,3.35,2.25,6.6,4.06,9.68,2.84,4.75,5.8,8.98,9.05,13.1,.3,.16,.59,.32,.86,.47,2.5,1.4,4.74,4.08,7.58,5.81,.36,.24,1.29,.19,1.88,.57,.9,.57,1.89,.94,2.84,1.34,.95,.38,1.91,.79,2.96,.95-.3-.55-.41-1.09-.62-1.55-1.13-.29-2.32-.77-3.3-1.42Z"/>
            <path class="cls-6" d="M38.85,152.74c.98,.65,2.16,1.12,3.3,1.42-.11-.23-.24-.44-.43-.62-2.32-1.91-5.38-3.09-7.92-4.86,.3,.59,.73,1.17,1.23,1.68,.45,.52,1.08,.88,1.76,1.22,.68,.34,1.37,.72,2.06,1.16Z"/>
            <path class="cls-4" d="M38.85,152.74c.94,.62,2.05,1.07,3.14,1.38-.31-.21-.65-.43-.99-.63-.88-.51-1.8-.93-2.66-1.48-.85-.56-1.7-1.11-2.44-1.78,.89,.6,1.82,1.13,2.73,1.69,.94,.52,1.91,.97,2.88,1.43-2.3-1.79-5.26-2.97-7.72-4.68,.3,.59,.73,1.17,1.22,1.68,.45,.52,1.08,.88,1.76,1.22,.68,.34,1.37,.72,2.06,1.16Z"/>
            <path class="cls-3" d="M35.92,151.21c1.02,.69,2,1.45,3.1,2.01,1.09,.55,2.24,1.19,3.38,1.48-.05-.14-.1-.28-.16-.42-.08-.06-.16-.11-.24-.17-1.09-.31-2.21-.76-3.14-1.38-.68-.44-1.38-.82-2.06-1.16-.68-.34-1.31-.7-1.76-1.22-.5-.51-.92-1.09-1.22-1.68-.18-.11-.34-.23-.5-.36-1.11-.83-2.26-1.61-3.28-2.56-.52-.46-1.05-.91-1.55-1.39l-1.45-1.49c-1-.71-1.81-1.7-2.64-2.67-.78-1.01-1.46-2.13-2.07-3.23,.67,.98,1.4,1.93,2.16,2.85-.75-1.09-1.51-2.16-2.15-3.31-.55-1-1.27-1.85-1.89-2.77-.36-.05-.75-.25-1.12-.76-.28-.4-.55-.81-.8-1.22-.24-.42-.5-.84-.84-1.23-.05-.13,.17-.2,.07-.45,.3,.7,.71,1.21,1.16,1.58-.38-.57-.76-1.16-1.14-1.73-.65-1.13-.8-2.27-1.06-3.44l-.16-.35c-.27-.58-.56-1.17-.91-1.74,.07,.25,.14,.51,.22,.78-.26-.36-.41-.89-.52-1.29,.1,.17,.2,.34,.3,.5-.16-.61-.35-1.19-.49-1.85,.18,.8,.58,1.55,.91,2.18-.23-.71-.49-1.39-.7-2.07-.17-.69-.31-1.4-.38-2.13l.07,.1c-.43-.97-.77-1.97-1.15-3-.41-1.02-.67-2.11-.91-3.25-.23-1.1-1.49-1.19-1.48-.9,.71,4.99,1.64,9.71,3.38,14.28-.03-.58-.1-1.13-.11-1.72-.03-.24-.05-.48-.02-.72,0,.24,.02,.48,.02,.72,.09,.66,.41,1.31,.52,2.02-.03,.15,.11,.55,.38,.62,.14,.99,.86,1.93,1.08,2.89,.02,.05,0,.17-.03,.31,.27,.56,.57,1.09,.91,1.61,1.73,3,3.62,5.72,5.52,8.39-.4-.69-.72-1.4-.95-2.1-.14-.48-.56-1.08-1.09-1.72-.49-.65-1.07-1.42-1.56-2.09-.28-.33-.22-.66-.4-1.04,.64,.48,1.16,1.14,1.6,1.89,.22,.37,.44,.76,.66,1.14,.24,.36,.49,.72,.75,1.05,.34,.44,.69,.95,1.04,1.5,.38,.52,.78,1.08,1.18,1.63,.78,1.13,1.76,2.14,2.75,2.86,.81,.6,1.35,1.39,1.76,2.15-.32-.09-.72-.49-.91-.69-.92-.86-1.69-1.87-2.56-2.78-.83-.95-1.6-1.95-2.44-2.89,1.4,2.25,3.18,4.09,4.83,6.18-.29-.26-.56-.54-.83-.82-.24-.3-.49-.6-.73-.89-.49-.58-.99-1.12-1.62-1.54,.04,.13,.08,.25,.14,.38,.64,.8,1.27,1.63,1.9,2.45,.3,.16,.58,.32,.86,.47,2.5,1.4,4.74,4.08,7.58,5.81,.23,.15,.69,.19,1.14,.29-.45-.28-.88-.58-1.31-.88-.41-.33-.83-.65-1.26-.95,.3,.31,.57,.63,.78,.99-.84-.54-1.31-1.29-2.14-1.83,.48,.25,.93,.53,1.36,.84-.45-.46-.98-.87-1.46-1.33,1.19,.54,1.78,1.77,3.1,2.16-.24-.13-.45-.31-.66-.49,.22,.17,.44,.35,.68,.49h-.02c.73,.42,1.52,.73,2.24,.99-1.24-.74-2.19-1.66-3.32-2.48l-.59-.37c.21,.12,.4,.24,.59,.37,1.33,.91,2.71,1.73,4.03,2.65,.69,.41,1.38,.83,2.08,1.25,.69,.42,1.39,.83,2.17,1.11l.31,.05c-.07-.12-.13-.24-.18-.36-1.23-.41-2.37-1.19-3.51-1.85-.58-.33-1.12-.71-1.65-1.11-.52-.39-1.04-.78-1.57-1.18Z"/>
          </g>
        </g>
        <g class="cls-12">
          <g class="cls-12">
            <path class="cls-5" d="M58.9,164.5c-.8-.32-1.3-1.42-2.3-1.03-.11,.03-.22,.07-.33,.12l.09,.1c.68,.81,1.51,1.39,2.43,1.71,.63,.09,1.44-.06,1.96,.39,.06,.05,.24-.21,.33-.34,.05-.21,.12-.42,.19-.64-.57-.16-1.19-.21-1.69-.48-.15-.12-.59,.24-.68,.17Z"/>
            <polygon class="cls-7" points="61.27 164.86 61.28 164.82 61.2 164.79 61.27 164.86"/>
            <path class="cls-4" d="M59.85,164.54c-.21-.01-.37-.1-.52-.2-.18,.07-.37,.2-.43,.16-.8-.32-1.3-1.42-2.3-1.03-.1,.03-.21,.07-.32,.12l.1,.11c.24,.27,.49,.53,.76,.76l.07-.02c.27-.11,.3,.21,.45,.32,.54,.09,.81,.5,1.35,.61,.19,.05,.54-.17,.72-.03,.07,.03,.13,.08,.17,.14,.32,.03,.62,.12,.87,.32,.06,.05,.24-.21,.33-.34,.03-.11,.06-.22,.1-.33-.19-.19-.41-.32-.63-.48-.24-.05-.48-.1-.69-.19,0,.03,0,.06,0,.09Z"/>
            <path class="cls-7" d="M60.07,164.12s-.18,.16-.21,.34c.22,.08,.46,.14,.69,.19-.18-.13-.35-.29-.48-.53Z"/>
            <path class="cls-8" d="M60.66,163.19c-.34-.37-.94-.22-1.14-.66-.12-.21-.19-.51-.21-.86-.06-.03-.12-.05-.18-.08-1.57-.52-3.07-1.04-4.46-1.93-.73-.38-1.61-.09-2.48,.03-.49-.04-.76-.5-1.17-.82-1.02-.9-2.32,.19-3.52,.44-.33,.06-.55,1.3-.48,1.33,1.97-.23,3.61,.73,5.51,.94,1.48,.21,2.76,.9,3.73,2.02,.11-.04,.22-.08,.33-.12,1-.38,1.5,.72,2.3,1.03,.09,.07,.53-.29,.68-.17,.5,.27,1.12,.32,1.69,.48,.15-.45,.32-.9,.4-1.25-.4-.04-.79-.08-1.01-.38Z"/>
            <path class="cls-6" d="M60.66,163.19c.22,.3,.61,.34,1.01,.38,.04-.17,.06-.33,.04-.44-.39-1.07-1.53-1.13-2.39-1.46,.02,.36,.09,.65,.21,.86,.2,.44,.8,.29,1.14,.66Z"/>
            <path class="cls-4" d="M60.66,163.19c.21,.29,.58,.33,.96,.37-.06-.12-.14-.22-.23-.3-.47-.38-1.03-.61-1.41-1.17,.56,.32,1.1,.66,1.69,.94-.43-.97-1.53-1.04-2.36-1.36,.02,.35,.09,.65,.21,.86,.2,.44,.8,.29,1.14,.66Z"/>
            <path class="cls-3" d="M59.73,162.88c.54,.49,1.09,.93,1.83,1.11,.03-.12,.07-.23,.1-.33-.02-.04-.03-.07-.05-.1-.38-.04-.74-.08-.96-.37-.34-.37-.94-.22-1.14-.66-.12-.21-.19-.51-.21-.86-.06-.03-.12-.05-.17-.07-.8-.26-1.59-.53-2.35-.85-.81,.08-1.48-.3-2.09-.81,.33,.13,.66,.24,1.02,.32-.35-.18-.7-.38-1.04-.59-.31-.16-.64-.2-1-.19-.16,.26-.33,.46-.53,.48-.3,.03-.56-.08-.91,.1-.04-.02,.04-.24-.03-.27,.2,.09,.42,0,.65-.2-.22,.04-.45,.08-.66,.11-.38-.03-.63-.32-.92-.6-.04,0-.08,0-.12,0-.19,0-.41,.07-.63,.18,.07,.03,.14,.06,.22,.09-.15,.11-.3,.05-.41,0l.19-.09c-.17-.07-.34-.13-.52-.2,.23,.08,.49,.02,.72-.06-.43-.09-.85-.07-1.23-.37l.04-.03c-.67,.17-1.35,.57-2.03,.71-.33,.06-.55,1.3-.48,1.33,1.37-.17,2.6,.26,3.84,.6-.1-.21-.2-.4-.31-.6-.05-.05-.1-.13-.14-.23,.04,.07,.09,.15,.14,.23,.15,.15,.34,.17,.49,.36,.01,.09,.12,.14,.22-.07,.2,.25,.55,.15,.75,.42,.01,0,.02,.08,.02,.17,.16,.03,.33,.05,.49,.07,.93,.13,1.77,.45,2.51,.94-.14-.22-.27-.45-.37-.72-.11-.43-.75-.31-1.21-.37-.13,.02-.12-.23-.22-.28,.6-.5,.95,.13,1.42,.2,.62,.16,1.19,1.03,1.98,.88,.33-.07,.46,.29,.55,.63-.14,.1-.27,.02-.33-.03-.58-.37-1.18-.73-1.85-.93,.54,.57,1.23,.72,1.7,1.39-.39-.15-.61-.66-1.1-.5,0,.07,.02,.13,.03,.19,.22,.18,.42,.39,.61,.62,.11-.04,.22-.08,.32-.12,1-.38,1.5,.72,2.3,1.03,.06,.04,.25-.09,.43-.16-.24-.16-.43-.39-.68-.52,.07,.12,.11,.27,.11,.47-.25-.09-.28-.49-.54-.58,.16,0,.3,.05,.43,.11-.1-.18-.24-.31-.37-.45,.44-.07,.41,.66,.92,.48-.07-.03-.13-.08-.18-.14l.19,.14h0c.21,.1,.48,.08,.74,.06-.35-.19-.51-.65-.87-.83-.06-.02-.12-.04-.19-.06,.07,0,.13,.03,.19,.06,.86,.31,1.47,1.09,2.13,1.71l.09,.02,.1-.3c-.58-.48-1.14-1.03-1.65-1.64Z"/>
          </g>
        </g>
        <g class="cls-12">
          <g class="cls-12">
            <path class="cls-5" d="M317.89,62.95c1.87,1.42,3.53,3.49,5.66,4.06,.22,.06,.46,.13,.71,.21l-.26-.25c-1.96-1.93-4.22-3.67-6.27-5.26-1.35-.88-2.9-1.7-3.89-3.19-.11-.16-.38,0-.52,.08-.06,.26-.14,.52-.23,.76,1.06,1.12,2.29,2.02,3.44,3.06,.37,.37,1.13,.34,1.36,.54Z"/>
            <polygon class="cls-7" points="313.09 59.27 313.07 59.32 313.23 59.49 313.09 59.27"/>
            <path class="cls-4" d="M315.89,61.74c.43,.27,.79,.61,1.16,.94,.34,.1,.69,.14,.84,.27,1.87,1.42,3.53,3.49,5.66,4.06,.22,.06,.46,.13,.7,.2l-.28-.27c-.67-.67-1.39-1.31-2.12-1.94l-.15-.05c-.56-.14-.8-.65-1.19-.97-1.26-.74-2.05-1.65-3.2-2.47-.4-.3-1.04-.4-1.44-.85-.15-.14-.27-.29-.38-.45-.64-.47-1.22-1.03-1.67-1.73-.11-.16-.38,0-.52,.08-.03,.14-.07,.27-.11,.4,.36,.6,.82,1.14,1.28,1.69,.5,.42,.98,.83,1.44,1.22,0-.04,0-.08-.02-.13Z"/>
            <path class="cls-7" d="M315.6,62.12c.06,.06,.3-.03,.3-.26-.46-.39-.94-.8-1.44-1.22,.39,.46,.78,.93,1.14,1.48Z"/>
            <path class="cls-8" d="M314.77,62.84c.84,1.01,2.04,1.48,2.68,2.36,.35,.44,.64,.96,.83,1.49,.15,.1,.29,.2,.43,.3,1.82,1.18,3.62,2.29,5.31,3.5,1.69,1.2,3.25,2.53,4.69,4.01,1.49,1.42,3.26,2.31,5.06,3.51,.98,.8,1.46,1.77,2.2,2.79,.88,1.31,2.08,2.17,3.2,2.96,1.1,.8,2.31,1.66,2.78,3.14,.21,.77,1.42,.96,1.44,.72-.13-1.68-.91-3.06-1.75-4.18-.85-1.12-1.81-2.06-2.72-2.97-1.82-1.82-3.64-3.66-5.73-5.33-3.2-2.61-6.11-5.22-8.93-7.93-.25-.07-.49-.14-.71-.21-2.13-.57-3.79-2.64-5.66-4.06-.22-.21-.99-.18-1.36-.54-1.16-1.03-2.38-1.93-3.44-3.06-.18,.52-.4,1.02-.45,1.49,.76,.66,1.56,1.24,2.12,2.01Z"/>
            <path class="cls-6" d="M314.77,62.84c-.57-.77-1.36-1.34-2.12-2.01-.03,.23-.01,.46,.06,.68,1.09,2.36,3.57,3.81,5.57,5.17-.2-.53-.48-1.05-.83-1.49-.63-.88-1.84-1.35-2.68-2.36Z"/>
            <path class="cls-4" d="M314.77,62.84c-.54-.73-1.29-1.29-2.02-1.92,.15,.29,.32,.57,.53,.82,1.05,1.29,2.33,2.34,3.37,3.6-1.33-1.11-2.62-2.31-3.86-3.61,1.15,2.23,3.55,3.63,5.48,4.95-.2-.53-.48-1.04-.83-1.48-.63-.88-1.84-1.35-2.68-2.36Z"/>
            <path class="cls-3" d="M316.84,64.44c-1.37-1.36-2.68-2.76-4.11-4.15-.04,.14-.07,.27-.09,.41,.04,.08,.08,.16,.11,.23,.73,.63,1.47,1.18,2.02,1.92,.84,1.01,2.04,1.48,2.68,2.36,.35,.44,.63,.96,.83,1.48l.4,.29c1.86,1.2,3.69,2.34,5.42,3.57,1.72,.76,3.24,2.08,4.53,3.55-.68-.6-1.4-1.16-2.15-1.68,.76,.66,1.5,1.34,2.2,2.06,.63,.6,1.31,1.11,2.03,1.58,.32-.1,.7-.1,1.1,.16,.63,.41,1.14,.94,1.88,1.25,.07,.08-.1,.23,.04,.38-.4-.42-.86-.63-1.34-.73,.45,.28,.9,.56,1.35,.86,.77,.63,1.23,1.37,1.75,2.14l.23,.19c.38,.32,.83,.57,1.29,.81-.14-.15-.28-.3-.42-.46,.33,.13,.62,.43,.83,.67-.14-.07-.27-.14-.41-.21,.33,.36,.65,.7,1,1.08-.42-.46-.97-.82-1.45-1.1,.84,.8,1.7,1.46,2.27,2.39l-.09-.03c.63,.45,1.27,.89,1.84,1.42,.57,.53,1.08,1.18,1.34,1.99,.21,.76,1.43,.96,1.45,.71-.1-1.16-.51-2.21-1.04-3.09-.53-.89-1.15-1.64-1.79-2.33-1.3-1.38-2.55-2.59-3.85-3.87,.18,.41,.36,.82,.54,1.22,.1,.15,.18,.32,.23,.5-.08-.16-.16-.33-.23-.5-.27-.42-.68-.78-.96-1.24-.01-.13-.23-.36-.48-.28-.39-.64-1.14-1.09-1.54-1.73-.03-.03-.04-.13-.04-.25-.35-.3-.7-.59-1.06-.88-2.01-1.63-3.88-3.26-5.71-4.92,.37,.48,.71,.97,.98,1.47,.33,.72,1.68,1.44,2.7,2.21,.28,.17,.26,.48,.49,.7-1.26-.25-2.03-1.54-3.08-2.28-1.33-1.02-2.87-2.93-4.64-3.61-.73-.27-1.16-.91-1.5-1.47,.27,0,.6,.27,.76,.4,1.49,1.16,2.97,2.34,4.5,3.48-1.34-1.5-3-2.51-4.36-3.97,.96,.65,1.67,1.6,2.75,1.98-.04-.1-.08-.2-.13-.3-.57-.53-1.13-1.06-1.68-1.59-.25-.07-.48-.14-.7-.2-2.13-.57-3.79-2.64-5.66-4.06-.15-.13-.5-.17-.84-.27,.56,.53,1.09,1.09,1.7,1.57-.2-.25-.37-.52-.47-.83,.59,.42,.84,1.06,1.46,1.47-.36-.18-.69-.39-.99-.64,.29,.38,.67,.71,1.02,1.07-.93-.37-1.22-1.42-2.22-1.72,.16,.13,.31,.26,.45,.42l-.46-.42h.01c-.49-.39-1.06-.68-1.57-.96,.8,.73,1.34,1.61,2.2,2.26,.15,.1,.29,.2,.44,.3-.16-.09-.3-.19-.44-.3-2.03-1.4-3.62-3.38-4.95-5.39l-.16-.17-.13,.35c1.16,1.68,2.53,3.26,3.89,4.77Z"/>
          </g>
        </g>
        <g class="cls-12">
          <g class="cls-12">
            <path class="cls-5" d="M316.79,162.87c-.85,.72-2.23,.68-2.64,1.82-.05,.12-.1,.24-.15,.37l.17-.03c1.29-.24,2.53-.84,3.47-1.71,.52-.64,.84-1.54,1.58-1.98,.08-.05-.1-.31-.19-.44-.19-.11-.38-.24-.56-.38-.44,.55-.84,1.17-1.41,1.59-.21,.11-.13,.69-.25,.75Z"/>
            <polygon class="cls-7" points="318.5 160.54 318.46 160.51 318.4 160.59 318.5 160.54"/>
            <path class="cls-4" d="M317.41,161.91c-.13,.21-.31,.35-.51,.47-.04,.2-.04,.45-.12,.49-.85,.72-2.23,.68-2.64,1.82-.05,.12-.1,.24-.15,.36,.06-.01,.12-.02,.18-.03,.45-.08,.88-.21,1.31-.37l.04-.08c.1-.31,.43-.21,.65-.32,.49-.5,1.08-.64,1.56-1.16,.17-.18,.17-.63,.42-.77,.08-.06,.16-.11,.25-.14,.22-.33,.47-.64,.82-.84,.08-.05-.1-.31-.19-.44-.1-.06-.2-.12-.3-.19-.29,.14-.54,.34-.82,.52-.18,.23-.37,.45-.58,.65,.03,.02,.05,.03,.08,.04Z"/>
            <path class="cls-7" d="M317.11,161.54s.06,.24,.22,.34c.21-.2,.4-.42,.58-.65-.23,.14-.49,.27-.8,.32Z"/>
            <path class="cls-8" d="M316.52,160.61c-.52,.2-.73,.83-1.26,.84-.27,.02-.59-.05-.92-.2-.06,.05-.12,.09-.18,.13-1.39,1.2-2.96,2.2-4.73,2.68-.85,.31-1.38,1.14-2.09,1.86-.48,.3-1.03,.15-1.61,.14-1.47-.09-2.08,1.55-3.3,2.39-.32,.23,0,1.44,.09,1.42,2.13-1.21,4.44-1.49,6.48-2.83,1.58-1.01,3.18-1.65,5-1.99,.05-.13,.1-.25,.15-.37,.41-1.13,1.79-1.09,2.64-1.82,.13-.07,.05-.64,.25-.75,.57-.42,.97-1.04,1.41-1.59-.39-.29-.76-.6-1.07-.79-.22,.39-.46,.77-.87,.88Z"/>
            <path class="cls-6" d="M316.52,160.61c.41-.11,.65-.48,.87-.88-.15-.09-.3-.16-.42-.18-1.21,.01-1.81,1.06-2.63,1.7,.33,.15,.66,.22,.92,.2,.53-.01,.74-.64,1.26-.84Z"/>
            <path class="cls-4" d="M316.52,160.61c.39-.11,.63-.45,.84-.82-.15,.02-.28,.07-.4,.13-.6,.33-1.12,.79-1.85,.9,.61-.39,1.21-.79,1.75-1.27-1.13,.08-1.72,1.09-2.52,1.71,.33,.15,.65,.22,.92,.2,.53-.01,.74-.64,1.26-.84Z"/>
            <path class="cls-3" d="M315.71,161.4c.78-.32,1.52-.72,2.05-1.42-.1-.07-.2-.14-.29-.2-.04,0-.08,0-.12,.01-.21,.37-.45,.72-.84,.82-.52,.2-.73,.83-1.26,.84-.27,.02-.59-.05-.92-.2-.06,.04-.11,.08-.17,.12-.71,.61-1.47,1.17-2.27,1.64-.51,.74-1.35,1.08-2.23,1.21,.36-.17,.71-.37,1.04-.61-.41,.18-.83,.32-1.26,.44-.36,.13-.66,.36-.95,.63,.06,.3,.05,.58-.1,.74-.25,.25-.55,.34-.75,.73-.04,.01-.13-.21-.22-.18,.25-.08,.37-.31,.44-.61-.16,.18-.33,.37-.51,.55-.37,.24-.8,.19-1.24,.16-.04,.03-.08,.05-.11,.07-.19,.11-.34,.31-.49,.54,.09-.02,.17-.05,.27-.07-.08,.18-.26,.23-.39,.27l.13-.2c-.21,.05-.41,.11-.63,.16,.27-.06,.48-.29,.65-.5-.46,.21-.86,.46-1.4,.44l.02-.05c-.55,.52-1.05,1.25-1.72,1.71-.32,.23,0,1.44,.09,1.42,1.49-.85,3.05-1.24,4.57-1.86-.24-.09-.48-.17-.7-.26-.09,0-.18-.03-.29-.09,.09,.03,.19,.06,.29,.09,.25,.02,.46-.09,.73-.05,.07,.06,.21,.02,.17-.21,.37,.05,.65-.28,1.03-.23,.02,0,.08,.04,.14,.1,.18-.1,.36-.21,.53-.32,.98-.63,1.98-1.11,3.03-1.47-.3,0-.61-.04-.91-.12-.44-.16-.89,.42-1.36,.76-.1,.12-.29-.07-.42-.02,.17-.8,.93-.67,1.4-1,.63-.41,1.84-.39,2.32-1.2,.19-.34,.6-.26,.97-.18,0,.18-.18,.25-.27,.29-.78,.35-1.55,.68-2.28,1.13,.94-.12,1.61-.66,2.59-.75-.44,.28-1.06,.22-1.32,.75,.06,.03,.13,.06,.19,.08,.35-.09,.7-.17,1.05-.24,.05-.13,.1-.25,.15-.36,.41-1.13,1.79-1.09,2.64-1.82,.08-.04,.08-.29,.12-.49-.31,.18-.65,.29-.95,.49,.16-.01,.33,0,.53,.07-.25,.23-.67,.08-.93,.3,.11-.16,.25-.27,.39-.37-.24,.02-.45,.1-.68,.16,.22-.46,.92-.11,1.05-.7-.07,.05-.16,.1-.25,.12l.25-.13h0c.23-.16,.38-.44,.5-.71-.39,.29-.94,.26-1.32,.53-.06,.05-.11,.1-.18,.16,.05-.06,.11-.11,.18-.16,.82-.71,1.92-1.01,2.89-1.54l.07-.08-.26-.19c-.77,.46-1.62,.84-2.5,1.08Z"/>
          </g>
        </g>
        <g class="cls-12">
          <g class="cls-12">
            <path class="cls-5" d="M235.37,28.54c-3.39-.85-6.88-1.73-10.24-2.58-1.69-.39-3.36-.69-4.98-.96-1.62-.26-3.19-.47-4.69-.47-.66-.02-1.34-.04-2.03-.06l1,.21c7.58,1.64,15.79,3.44,23.44,5.38,2.39,.51,4.8,1.08,7.28,1.63,2.47,.58,4.96,1.36,7.52,2.25,.57,.2,.75-.07,.84-.2-.44-.36-.81-.71-1.14-1.06-2.14-.62-4.26-1.25-6.42-1.82-2.17-.55-4.34-1.11-6.53-1.75-1.45-.41-3.19-.31-4.06-.55Z"/>
            <polygon class="cls-7" points="252.54 32.76 252.47 32.69 251.83 32.51 252.54 32.76"/>
            <path class="cls-4" d="M242.03,29.91c-1.44-.33-2.84-.75-4.25-1.11-.96-.1-1.86-.11-2.41-.27-3.39-.85-6.88-1.73-10.24-2.58-1.69-.39-3.36-.69-4.98-.96-1.62-.26-3.19-.47-4.69-.47-.66-.02-1.32-.04-2-.06l1.08,.22c2.64,.51,5.32,1.18,8.05,1.76,.15,.01,.31,.02,.45,.03,1.58,.05,2.93,.66,4.4,1,4.22,.71,7.61,1.86,11.78,2.78,1.47,.38,3.12,.49,4.84,1.03,.59,.17,1.16,.35,1.71,.54,2.3,.59,4.63,1.3,7.01,2.13,.57,.2,.75-.07,.84-.2-.23-.19-.44-.38-.63-.56-1.93-.71-3.89-1.35-5.87-2.05-1.78-.47-3.55-.93-5.33-1.4,.06,.05,.15,.1,.26,.16Z"/>
            <path class="cls-7" d="M241.99,29.4c-.25-.08-.62,.05-.22,.35,1.78,.47,3.56,.93,5.33,1.4-1.68-.56-3.39-1.08-5.12-1.75Z"/>
            <path class="cls-8" d="M242.57,28.42c-.86-.29-1.72-.55-2.57-.78-.85-.23-1.71-.4-2.53-.59-1.65-.38-3.22-.75-4.63-1.26-1.49-.5-2.95-1.03-4.2-1.63-.49-.1-.98-.21-1.46-.31-12.12-2.36-24.34-3.71-36.48-4.6-6.1-.4-11.78,.2-17.97,.75-1.84,.12-3.51,.18-5.16,.16-1.66-.01-3.31-.07-5.12,.02-9.07,.15-16.65,2.62-25.5,4.93-2.4,.6-2.44,1.91-1.84,1.79,7.41-1.87,14.76-3.07,22.13-3.92,7.38-.75,14.78-1.17,22.41-1.45,11.83-.32,23.02,.71,33.8,2.94,.69,.02,1.36,.04,2.03,.06,1.51,0,3.07,.21,4.69,.47,1.62,.27,3.29,.57,4.98,.96,3.36,.85,6.85,1.73,10.24,2.58,.87,.24,2.61,.14,4.06,.55,2.19,.64,4.36,1.21,6.53,1.75,2.16,.58,4.28,1.21,6.42,1.82-.69-.72-1.23-1.4-2-2.01-1.34-.36-2.66-.72-3.96-1.07-1.31-.34-2.6-.72-3.85-1.16Z"/>
            <path class="cls-6" d="M242.57,28.42c1.25,.45,2.54,.82,3.85,1.16,1.29,.35,2.62,.71,3.96,1.07-.38-.3-.81-.59-1.34-.86-1.52-.72-3.15-1.3-4.82-1.84-1.68-.53-3.38-1.08-5.13-1.51-3.5-.85-7.04-1.64-10.46-2.29,1.26,.6,2.71,1.13,4.2,1.63,1.41,.51,2.98,.89,4.63,1.26,.83,.19,1.68,.37,2.53,.59,.85,.24,1.71,.49,2.57,.78Z"/>
            <path class="cls-4" d="M242.57,28.42c2.39,.84,4.93,1.43,7.45,2.14-.81-.35-1.64-.67-2.49-.97-2.17-.72-4.38-1.35-6.57-2.03-2.19-.68-4.4-1.25-6.54-1.99,4.73,1.19,9.41,2.56,14.1,3.98-6.06-2.56-13.25-4.08-19.88-5.38,1.25,.6,2.71,1.13,4.19,1.63,1.41,.51,2.98,.89,4.63,1.26,.83,.19,1.68,.37,2.53,.59,.85,.24,1.71,.49,2.57,.78Z"/>
            <path class="cls-3" d="M235.4,26.66l3.95,1.13,3.94,1.21c1.32,.39,2.64,.78,3.97,1.17,1.32,.42,2.65,.82,3.99,1.21-.19-.19-.38-.37-.58-.55-.22-.09-.43-.18-.64-.28-2.52-.7-5.06-1.29-7.45-2.14-.86-.29-1.72-.55-2.57-.78-.85-.23-1.71-.4-2.53-.59-1.65-.38-3.22-.75-4.63-1.26-1.49-.5-2.94-1.03-4.19-1.63-.46-.1-.92-.19-1.38-.29l-2.32-.46-2.33-.39c-1.55-.26-3.1-.52-4.65-.78-1.56-.22-3.11-.44-4.66-.66-1.55-.21-3.1-.47-4.66-.62-5.45-.26-11.32-.93-17.02-1.43,1.34,.08,2.69,.1,4.03,.2,1.34,.09,2.69,.17,4.04,.26l-4.45-.43c-1.48-.11-2.97-.21-4.46-.32-1.29-.07-2.56-.14-3.83-.14-1.26,.02-2.52,.05-3.77,.1-.52,.29-1.33,.53-2.72,.59-2.17,.12-4.3,.18-6.5,.5-.3,0-.25-.23-.86-.23,1.7-.01,3.09-.21,4.3-.49-1.51,.14-3.04,.27-4.59,.41-2.9,.2-5.35,.17-8.04,.12-.29,.02-.57,.07-.86,.1-1.43,.17-2.86,.44-4.3,.73,.59-.05,1.18-.09,1.81-.14-.94,.23-2.15,.33-3.06,.4,.42-.09,.84-.17,1.25-.26-1.41,.11-2.76,.2-4.26,.39,1.81-.24,3.66-.49,5.21-.78-3.36,.29-6.4,.84-9.72,1.05l.24-.07c-4.61,.97-9.14,2.25-14.06,3.55-2.4,.6-2.44,1.9-1.85,1.79,10.35-2.65,20.56-3.94,30.93-4.66-1.18-.12-2.37-.17-3.57-.21-.52,0-1.02,0-1.5-.05l1.5,.05c.71-.01,1.44-.06,2.2-.11,.76-.02,1.52-.04,2.29-.01,.29,.07,1.19,.03,1.54-.22,1.04,.03,2.18-.03,3.31-.1,1.14-.05,2.28-.06,3.31,0,.12,0,.33,.06,.58,.14,1.31-.06,2.63-.12,3.95-.18,7.4-.15,14.54,.12,21.49,.95-1.66-.28-3.27-.58-4.76-.91-1-.27-2.6-.37-4.4-.39-1.8-.02-3.81-.05-5.64-.02-.93,.05-1.47-.2-2.38-.22,3.23-.68,7.36,.03,11.04,.1,2.44,.17,5.36,.48,8.32,.87,2.95,.45,5.97,.73,8.62,.94,2.19,.13,4.19,.68,5.88,1.24-.66,.01-1.85-.16-2.45-.27-2.69-.43-5.37-.95-8.08-1.24-2.71-.34-5.42-.68-8.17-.82,5.64,.76,11.12,1.33,16.65,2.61-3.3-.47-6.46-1.35-9.61-1.32,.25,.09,.51,.17,.77,.25,2.17,.31,4.31,.73,6.44,1.18,.68,.02,1.35,.04,2,.06,1.51,0,3.07,.21,4.69,.47,1.62,.27,3.29,.57,4.98,.96,3.36,.85,6.85,1.73,10.24,2.58,.55,.15,1.45,.17,2.41,.27-2.19-.58-4.33-1.27-6.54-1.79,.87,.26,1.68,.61,2.42,.97-2.07-.52-3.69-1.18-5.78-1.61,1.14,.18,2.25,.4,3.36,.64-1.3-.41-2.7-.76-4.1-1.14,2.79,.34,5.13,1.52,7.96,1.86-.58-.15-1.15-.3-1.72-.48l1.75,.48h-.04c1.76,.45,3.57,.72,5.19,1.05-3.03-.82-5.7-1.84-8.7-2.56l-1.5-.29c.51,.09,1.01,.19,1.5,.29,1.73,.37,3.44,.84,5.15,1.29l2.56,.7c.85,.25,1.69,.54,2.53,.81,1.68,.55,3.35,1.11,5.03,1.67,1.66,.61,3.32,1.22,4.97,1.82l.64,.19c-.15-.16-.3-.32-.45-.48-2.76-.97-5.52-2.01-8.32-2.89-1.39-.47-2.78-.93-4.16-1.4-1.39-.43-2.77-.85-4.15-1.27Z"/>
          </g>
        </g>
      </g>
    </g>
  </g>
</svg>