<?xml version="1.0" encoding="UTF-8"?>
<svg id="_Слой_2" data-name="Слой 2" xmlns="http://www.w3.org/2000/svg" xmlns:xlink="http://www.w3.org/1999/xlink" viewBox="0 0 444.29 248.43">
  <defs>
    <style>
      .cls-1 {
        fill: none;
      }

      .cls-2 {
        clip-path: url(#clippath);
      }

      .cls-3 {
        fill: #f3f9fb;
      }

      .cls-4 {
        fill: #f7fbfc;
      }

      .cls-5 {
        fill: #f8fcfd;
      }

      .cls-6 {
        fill: #f4fafb;
      }

      .cls-7 {
        fill: #f5fafb;
      }

      .cls-8 {
        fill: #fbfdfe;
      }

      .cls-9 {
        fill: #349039;
      }

      .cls-10 {
        fill: #6e7c6e;
      }

      .cls-11 {
        opacity: .49;
      }

      .cls-12 {
        opacity: .8;
      }
    </style>
    <clipPath id="clippath">
      <rect class="cls-1" width="444.29" height="248.43"/>
    </clipPath>
  </defs>
  <g id="_нижний_лотос" data-name="нижний лотос">
    <g class="cls-2">
      <g class="cls-11">
        <path class="cls-10" d="M252.97,72.29c-45.8-3.2-93-5.95-136.13,10.53-22.78,8.93-41.5,22.67-52.89,41.9-9.76,17.86-12.21,39.84,2.82,55.94l-.54-.59c9.62-.03,15.45-3.42,23.75-7.08,31.42-13.84,64.19-25.47,97.91-34.67,2.98-.74,1.63,1.75-1.15,3.02-29.54,14.56-55.24,25.96-82.1,44.51-4.07,2.75-5.98,9.08-6.87,13.49l.56-.67c14.46,4.6,29.75,6.71,45.01,8.33,20.26,2.16,40.65,3.47,61.07,3.94,20.12,.46,40.3,.21,60.36-1.22,19.73-1.4,39.39-4.02,58.47-8.55,16.64-3.95,33.4-9.43,46.52-19.22,12.4-9.25,20.44-22.25,22.69-36.07,2.18-13.43-1.47-27.09-10.05-38.53-8.88-11.85-22.24-20.25-37.9-24.73-15.63-4.47-32.49-5.95-48.75-8.07-10.82-1.41-21.61-2.02-32.55-2.22-4.39-.08-8.78-.13-13.17-.18"/>
        <path class="cls-10" d="M227.77,72.55c-7.45-.38-13.54-.68-19.62-.66-.95,0-2.01,.51-3.2,.49-2.37-.06-4.78,.03-7.15,.1s-4.74,0-7.02-.2c-2.5-.24-5-.38-7.47-.32-2.46,.09-4.9,.32-7.26,.66-4.47,.77-8.9,.97-13.3,1.69-1.48,.23-2.92,.49-4.62,.13-1.23-.24-3.4,.06-4.87,1.07-.28,.2-.98,.15-1.47,.16-.54,0-1.21-.22-1.58-.05-2.04,1.01-4.2,1.52-6.4,1.92-2.21,.35-4.4,.84-6.52,1.48-1.05,.33-2.31,.29-3.02,1.27-.19,.23-1.2,.59-1.55,.5-.94-.22-1.8-.07-2.8,.24-2.18,.67-4.37,1.28-6.5,2.08-2.14,.77-4.3,1.47-6.41,2.3-.84,.89-1.87,1.46-2.97,1.93-1.09,.49-2.24,.89-3.32,1.36-1.63,.71-3.35,1.21-5.04,1.81-1.68,.68-3.09,2.1-5.01,2.19-.31,.01-.77,.59-1.2,.86-.96,.59-1.9,1.26-2.83,1.91-.93,.65-1.89,1.21-2.85,1.68-.99,.47-1.98,.95-2.88,1.56-5.73,4.06-11.03,8.71-15.74,13.89-2.29,2.65-4.54,5.33-6.48,8.24-1.04,1.42-1.9,2.91-2.84,4.37-.47,.73-.81,1.53-1.22,2.29-.39,.77-.8,1.53-1.13,2.34-.47,1.11-1.13,2.1-1.01,3.53,.07,1.1-.69,3.1-1.38,3.88-.58,.62-.92,1.31-1.17,2.01-.2,.72-.32,1.45-.52,2.16-.75,2.64-1.03,5.37-1.37,8.07-.1,.8,.02,1.66-.02,2.49-.04,.83-.19,1.62-.64,2.34-.09,.14-.07,.66,.04,.83,1,1.75,.49,3.49,.59,5.33,.1,.65,.22,1.29,.42,1.94,.21,.64,.43,1.29,.91,1.89,.44,.59,.85,1.41,1.13,2.26,.3,.84,.6,1.67,.61,2.36,0,1.88,1.09,3.13,1.83,4.55,.55,.89,1.17,1.73,1.75,2.6l.44,.65c.15,.21,.28,.34,.42,.51l.83,.99,.73,.87,.09,.11,.05,.05s-.03-.03-.04-.04l-.19-.21-.19-.21c.08,0,.19,0,.28,0,.75,0,1.52-.04,2.31-.11,1.78-.16,3.65-.47,5.43-.93,3.59-.92,7.04-2.46,10.51-4.06,4.22-1.97,8.1-4.61,12.57-6.12,1.06-.36,2.04-1.19,3.24-.92,.25,.05,1.04-.37,1.31-.67,.94-1.07,2.22-1.34,3.57-1.86,6.13-2.35,12.47-4.45,18.29-7.28,4.53-2.21,9.23-3.7,13.86-5.49,1.54-.59,3.28-.69,4.9-1.15,1.57-.44,3.13-1.01,4.67-1.58,.92-.33,1.91-.47,2.64-1.3,.39-.45,1.71-.97,2.32-.91,2.08,.2,3.92-.75,5.82-1.33,5.41-1.7,10.83-3.39,16.29-4.95,1.34-.37,2.72-1.21,4.17-.71,.2,.07,.89-.42,1.36-.65,.5-.24,1.08-.67,1.5-.65,1.93,.05,3.77-.34,5.6-.86,.5-.11,1.03-.32,1.92-.2,.11,.02,.28,.08,.42,.13l.21,.09c.08,.05,.17,.12,.26,.2,.17,.15,.31,.3,.4,.52,.09,.2,.17,.47,.16,.61,0,.16,0,.36-.03,.5-.03,.12-.06,.23-.1,.35-.08,.24-.17,.36-.26,.54-.75,1.13-1.63,1.74-2.58,2.26-8.27,3.96-16.34,8.02-24.57,11.89-2.3,1.08-3.96,2.73-6.18,3.78-2.15,1.01-4.23,2.17-6.39,3.17-1.52,.72-2.92,1.89-4.72,1.82-.5-.02-1.57,.55-1.9,.99-1.25,1.65-3.29,2.19-4.96,3.26-2.04,1.28-4.49,1.98-6.09,3.95-.43,.53-1.76,.7-2.62,1.14-1.5,.78-2.98,1.6-4.42,2.48-.69,.43-1.2,1.12-1.88,1.56-5.25,3.38-10.36,6.92-15.46,10.51l-1.96,1.36c-.38,.25-.49,.38-.74,.55-.2,.19-.42,.37-.61,.58-.8,.85-1.53,1.95-2.13,3.19l-.22,.47-.11,.24-.07,.15c-.09,.2-.18,.41-.24,.59-.15,.37-.27,.74-.39,1.12-.11,.38-.22,.76-.31,1.15l-.13,.58c-.06,.17,.04,.03,.1-.04,.07-.05,.11-.21,.21-.17,.76,.23,1.52,.46,2.28,.67l1.87,.49c.76,.2,1.52,.39,2.28,.57,3.05,.75,6.13,1.42,9.21,2.06,2.33,.48,4.96,.23,6.94,1.76,2.28-.38,4.11,.33,5.9,1.4,.26,.15,.99-.1,1.52-.13,1.64-.1,3.3-1.13,4.91,.4,.06,.06,.29,.02,.43,.06,1.45,.36,2.62-.86,4.41,.15,1.11,.63,3.03,.62,4.6,.82,1.62,.22,3.25,.42,4.87,.47,1.67,.04,3.43,.83,5.09-.03,.27-.14,1.43,.66,2.16,.68,3.74,.07,7.5,1.28,11.25,.36,.86-.21,2.18-.09,3.06,.2,3.16,1.07,6.21,.8,9.53,.66,4.37-.19,9.02-.15,13.23,1.25,.9,.3,1.29,.52,2.23,.1,.61-.27,1.66-.17,2.51-.15,9.5,.25,19,.37,28.5,.28,2.58-.02,5.01,.9,7.66,.48,1.09-.17,2.39,.29,3.27-.55,.12-.12,.58-.19,.78-.14,3.21,.85,6.33-.6,9.5-.34,.68,.05,1.33,.2,2.01,.27,.69,.07,1.5,.27,2.08,.1,4.79-1.4,9.83-.85,14.7-1.53,1.66-.24,3.53,.14,4.93-.99,.21-.17,.95-.22,1.28-.12,2.96,.91,6-.32,8.98-.36,1.53-.02,3.15-.86,4.63-.08,.19,.1,.79-.08,1.15-.19,.64-.2,1.23-.61,1.86-.68,1.75-.18,3.74,.07,5.22-.48,1.84-.68,3.65-.8,5.46-1.13,1.04-.19,2.15,.08,3.23-.02,1.02-.09,2.04-.35,3.06-.53,1.45-.29,2.93-.73,4.35-.8,1.47-.08,2.4-1.29,4.11-.97,1.31,.26,2.5-.96,3.81-1.38,.65-.21,1.39-.26,2.08-.31,.53-.05,1.09,.15,1.56,0,1.06-.31,2.14-.4,3.18-1.11,.72-.48,2.25-.33,3.41-.58,1.15-.23,2.27-.63,3.41-.95,1.13-.32,2.41-.52,3.36-1.05,4.16-2.37,8.83-3.41,13.1-5.4,1.1-.5,2.22-1.39,3.52-1.07,.23,.06,.87-.23,1.15-.46,3.45-3.04,7.9-4.51,11.38-7.4,2.46-2.06,4.56-4.35,6.91-6.51,2.29-2.09,4.6-4.39,6.03-7.05,1.2-2.17,2.18-4.37,3.52-6.33,.32-.49,.53-1.03,.7-1.58,.16-.56,.25-1.14,.39-1.69,.3-1.1,.6-2.16,1.73-2.94,.81-2.22,1.48-4.48,2.05-6.76,.24-.96,.34-1.96,.53-2.93,.13-.98,.44-1.92,.91-2.85,.18-.34,.3-.85,.34-1.38,.03-.53-.04-1.07-.17-1.46-.84-2.5-.69-4.81-.6-7.37,.05-.61-.52-1.28-.66-1.94-.41-2.03-1.02-4.02-1.53-6.02-.78-2.99-2.18-5.77-3.83-8.34-1.66-2.58-3.58-4.95-5.5-7.33-.7-.9-2.06-1.36-2.56-2.22-1.63-2.61-3.93-4.73-6.38-6.6-2.46-1.88-5.07-3.51-7.53-5.35-3.66-2.69-7.81-4.7-12.11-6.25-4.29-1.55-8.81-2.61-13.34-3.75-1.17-.31-2.28-1.26-2.89-1.18-1.88,.28-3.8-.65-5.37-.42-2.81,.39-5.36-.6-8.04-.77-1.95-.12-3.95-.99-5.87-.23-.28,.11-.94,0-1.28-.16-2.74-1.3-5.76-.27-8.56-1.05-2.78,.24-5.55-.02-8.33-.4-2.72-.38-5.39-.82-8.1-.96-.8-.04-1.59,.14-2.39,.2-.4,.04-.89,.15-1.21,.04-4.8-1.6-9.96-.95-14.94-1.44-1.65-.16-3.26-.54-4.92-.69-1.67-.16-3.42,.13-5-.65-.49-.24-1.47-.13-2.18-.05-3.89,.45-6.77-1.18-6.81-3.72-.01-.92,.79-.96,1.64-1.29,1.63-.64,3.25-1.04,5.22-.95,1.53,.07,3.21,.38,4.59-.48,.23-.14,.93-.1,1.3,.01,2.62,.83,5.61,.28,8.08,.92,1.9,.49,3.68,.46,5.49,.73,1.53,.22,3.15-.14,4.63,.77,.5,.3,2.06-.28,3.13-.22,2.53,.13,5.09,.32,7.59,.72,3.81,.62,7.59,.9,11.4,1.12,3.8,.23,7.61,.44,11.39,1.1,5.59-.4,11.1,1.43,16.61,1.91,3.34,.28,6.64,.9,9.9,1.7,3.25,.8,6.51,1.71,9.76,2.73,1.34,.41,2.38,.85,3.42,1.57,.67,.49,1.37,1.01,2.14,1.35,2.92,1.35,5.85,2.73,8.57,4.45,.72,.48,1.57,.84,2.33,1.31,.74,.49,1.4,1.08,1.72,1.95,.1,.23,.73,.67,1.08,.77,2.94,.77,4.92,3.3,7.16,5.22,.86,.74,1.62,1.53,2.17,2.7,.63,1.23,2,2.76,3.18,3.6,.87,.65,1.49,1.35,2.13,2.14,.68,.8,1.31,1.65,1.85,2.58l.81,1.37,.75,1.41c1.03,1.87,1.98,3.73,3.42,5.35-.19,2.45,1.1,4.77,1.93,6.83,1.68,3.92,2.46,8.21,2.54,12.49,.09,4.29-.43,8.57-1.27,12.74-.42,2.02-1.43,3.89-2.2,5.8-.4,1.01-.78,2.02-1.21,3.02-.39,1.02-.83,2.01-1.28,3-.44,1.08-1.45,2.05-1.14,3.26,.02,.09-.03,.29-.11,.39-.77,1-1.63,1.95-2.27,2.97-.55,.94-.64,2.1-1.2,3.08-.62,1.2-1.51,2.3-2.36,3.38-.85,1.02-1.65,2.23-2.93,2.5-.06,1.37-1.45,2.18-2.37,3.11-.85,.92-1.85,1.7-2.81,2.52-1.08,.92-2.21,1.77-3.33,2.62-1.15,.81-2.32,1.6-3.45,2.41-1.51,1.17-2.96,2.4-4.57,3.44-1.7,1.08-3.52,2.02-5.35,2.83-2.32,.98-4.69,1.75-7.06,2.53-.98,.32-1.7,.88-2.53,1.52-1.08,.87-2.37,2.36-4.41,1.75-.4-.11-1.52,.34-2.11,.7-4.65,2.88-10.24,3.34-15.29,4.95-3.07-.22-5.69,.98-8.6,1.88-4.27,1.32-8.9,2.36-13.3,2.55-4.65,.2-9.06,1.21-13.6,1.59-1.27,.1-2.6,.63-3.78-.08-.27-.16-1.22,0-1.73,.2-3.55,1.33-7.15,1.44-10.94,1.22-2-.12-4.19,.43-6.34,.93-3.24,.74-6.84,.63-10.28,.82-1.55-.96-2.65,.16-3.39,.66-.99,.66-1.94,.81-3.16,.88-1.56,.1-3.11-.04-4.63,.71-.78,.38-2.55,.35-3.41,.02-1.16-.45-1.58-.21-2.61,.14-1.22,.42-2.53-.52-4.08-.44-1.65,.09-3.58,.65-5.06-.43-.13-.1-.64-.08-.87,.01-3.06,1.15-6.12-.45-9.16,.04-9.11-1.25-18.34-.37-27.47-1.14-3.76-.32-7.53-1.29-11.26-.99-7.85,.64-15.63-.63-23.43-1.08-1.65-.09-3.6,.22-4.98-.97-.19-.16-.95-.22-1.29-.12-2.56,.75-4.93,.21-7.34-.7-.58-.22-1.71-.32-2.1-.1-1.11,.62-2.28,.19-3.38,.06-1.33-.17-3.02-1.01-3.86-.74-1.8,.58-2.65-.41-3.92-.72-.79-.19-1.7-.1-2.54-.1-.4,0-.94,.26-1.16,.15-2.49-1.26-5.26-.35-7.8-1.15-.54-.17-1.14-.25-1.66-.45-2.96-1.13-4.42-1.72-6.13-2.15-1.7-.44-3.65-.67-7.55-1.33-.44-.44-.95-.71-1.51-.88-.28-.08-.56-.14-.86-.19l-.45-.06c-.18-.02-.42-.07-.63-.11-1.73-.29-3.71-.67-5.06-1.51-.46-.31-1.27-.59-2.2-.83l-.18-.04c-.06-.02-.13-.04-.13,.01l-.12,.2c-.09,.14-.18,.28-.26,.42-.02,.03-.05,.08-.06,.09v-.15c.02-.1,.03-.19,.04-.29,.01-.19,.02-.36,.02-.53,.03-1.45,.21-3.08,.57-4.78,.36-1.69,.97-3.53,1.68-5.1,1.14-2.41,2.68-4.8,5.01-6.94,.25-.21,.52-.37,.8-.5,.27-.12,.46-.15,.7-.24,.45-.16,.88-.4,1.2-1.04,.24-.48,1.99-.74,2.85-1.36,1.26-.9,2.89-1.37,3.71-2.92,.34-.63,1.65-1.16,2.49-1.76,1.15-.83,2.51-1.3,3.36-2.65,.45-.75,2.01-1.67,2.94-1.84,3.84-.7,6.12-3.44,8.84-5.54,.82-.63,1.38-1.09,2.42-1.43,1.45-.48,3.4-1.08,4.22-1.99,1.46-1.63,3.35-2.28,5.09-3.25,3.02-1.68,6.16-3.13,9.19-4.77,3.45-1.87,7.11-3.28,10.37-5.65,1.75-1.27,4.12-2.82,6.7-2.79,.28,0,.85-.98,1.41-1.26,4.41-2.2,8.78-4.35,13.27-6.45,1.04-.49,2.65-.01,3.2-1.3,.12-.6,.32-.45,.61-.39,.12,.04,.24,.07,.26,.05h0s-.03-.03,.07,.07c.14,.14,.29,.28,.44,.4,.31,.24,.6,.53,.93,.75,.1,.06,.34,.22,.68,.45,.16,.1,.41,.19,.59,.29,.16,.1,.41,.15,.6,.19,.06,.02,.14,.04,.22,.03,.04,0,.08,0,.12-.02,0,0,.02,0,.03,0,.01,0,.06-.02,.06-.02-.04,.02-.06,.05-.08,.08-.14,.16-.23,.59-.29,1.07-.01,.15,0,.3,0,.44,0,.16-.01,.39,0,.58,0,.4,.05,.8,.14,1.19,.04,.19,.06,.47,.11,.7l.06,.36,.03,.16h0s0-.04,.01-.06c-.35,.04-.71,.08-1.07,.13-.71,.1-1.42,.23-2.12,.38-1.41,.31-2.79,.67-4.19,1.1-2.78,.85-5.54,1.8-8.36,2.49-1.35,.33-2.73,1.22-4.07,.61-3.05,2.06-7.46,1.11-10.21,3.82-2.5,.49-4.78,2.22-7.46,1.87-.43-.05-1.17,.49-1.65,.48-1.64-.05-1.98,1.93-4.05,1.66-1.19-.15-2.99,.81-4.51,1.31-1.41,.46-2.8,.97-4.19,1.48l-4.6,1.66c-1.53,.57-3.09,1.07-4.58,1.71-3.01,1.32-5.76,3.11-8.99,4.07-.35,.1-.88,.45-.94,.67-.5,1.82-2.37,1.63-3.58,1.66-1.02,.01-1.84,.15-2.79,.55-2.61,1.05-5.18,2.2-7.81,3.18-1.56,.59-3,1.74-4.83,1.48-.57-.08-1.78,.5-2.38,1-1.42,1.16-3.02,1.96-4.67,2.68-1.63,.71-3.29,1.35-4.93,2.17-1.47,.74-3.06,1.41-4.69,2.04-1.22,.48-2.31,1.55-3.82,1.4-2.26,1.2-4.84,1.97-7.46,2.32l-.98,.13-1.49,.09-1.54,.08c-.08,.04-.1-.08-.13-.15l-.1-.22-.21-.45-.41-.89-.82-1.78c-.15-.17,.07-.23,.16-.34l.34-.28,.68-.56-3.95,3.36-2.77-3.33-1.51-2.15c-2.05-2.78-3.58-5.94-4.88-9.16-1.11-3.29-2.04-6.66-2.37-10.07-.27-1.69-.79-3.6,.15-5.14,.09-.15,.11-.52,.1-.9,0-.38-.03-.77-.13-.95-.51-.99-.77-1.77,0-2.82,.13-.2,.09-1.11,0-1.62-.24-1.4-.1-2.65,.55-3.97,.49-1.03,.87-2.46,.96-3.53,.1-2.91,.44-5.73,2.43-8.04,.24-.28-.04-1.42,.22-2.01,1.05-2.22,1.58-4.74,3.48-6.58,.38-.37,.67-.92,.98-1.5,.34-.56,.66-1.15,1.03-1.66,1.24-1.76,1.95-3.69,3.48-5.33,1.61-1.59,2.87-3.7,4.44-5.47,1.5-1.81,3.15-3.5,4.78-5.19l2.53-2.45c.86-.8,1.75-1.56,2.62-2.34,.86-.79,1.78-1.51,2.69-2.25,.91-.74,1.81-1.48,2.76-2.17,.94-.69,1.86-1.41,2.82-2.08l2.88-1.97c.96-.66,1.96-1.25,2.94-1.88,.98-.63,1.98-1.23,2.99-1.79,1.41-.81,2.77-1.46,4.4-1.85,4.14-1.07,8.51-3.34,13.92-6.38,.39-.22,.85-.36,1.28-.52,2.81-1.01,5.62-2.01,8.42-3.02,2.85-.85,5.7-1.71,8.57-2.38,2.55-.51,5.17-.69,7.73-1.4,1.68-.43,3.36-.58,4.92-1.55,1.32-.78,3.45-.35,4.94-1.52,.55-.44,2.16-.68,3.01-.53,1.42,.25,2.8,.14,4.17-.07,1.38-.19,2.75-.44,4.13-.58,1.58-.15,3.16-.32,4.74-.51l4.74-.48c1.55-.16,3.12,0,4.66-.88,.75-.42,2.65-.27,3.81,0,1.79,.41,3.54,.19,5.19-.07,3.54-.56,3.52-.65,7.04-.17,.42,.06,.87,.04,1.31,.05,4.37-.02,8.82,.29,13.06-.09,3.54-.38,6.99-.28,10.48-.19,1.39,.03,3.02-.36,4.14,.7,.16,.15,.95,.17,1.29,.06,2.96-.96,6.08-.24,9.09-.08,2.92,.14,5.66-.59,8.64-.17,2.79,.38,5.66,.4,8.49,.6,4.3,.3,5.18,.96,4.97,3.69-.17,2.25-1.29,2.66-4.76,2.9-7.36,.49-14.64-.7-20.58-.73Z"/>
      </g>
      <g>
        <path class="cls-9" d="M252.97,29.06c-45.8-3.2-93-5.95-136.13,10.53-22.78,8.93-41.5,22.67-52.89,41.9-9.76,17.86-12.21,39.84,2.82,55.94l-.54-.59c9.62-.03,15.45-3.42,23.75-7.08,31.42-13.84,64.19-25.47,97.91-34.67,2.98-.74,1.63,1.75-1.15,3.02-29.54,14.56-55.24,25.96-82.1,44.51-4.07,2.75-5.98,9.08-6.87,13.49l.56-.67c14.46,4.6,29.75,6.71,45.01,8.33,20.26,2.16,40.65,3.47,61.07,3.94,20.12,.46,40.3,.21,60.36-1.22,19.73-1.4,39.39-4.02,58.47-8.55,16.64-3.95,33.4-9.43,46.52-19.22,12.4-9.25,20.44-22.25,22.69-36.07s-1.47-27.09-10.05-38.53c-8.88-11.85-22.24-20.25-37.9-24.73-15.63-4.47-32.49-5.95-48.75-8.07-10.82-1.41-21.61-2.02-32.55-2.22-4.39-.08-8.78-.13-13.17-.18"/>
        <path class="cls-9" d="M227.77,29.32c-7.45-.38-13.54-.68-19.62-.66-.95,0-2.01,.51-3.2,.49-2.37-.06-4.78,.03-7.15,.1s-4.74,0-7.02-.2c-2.5-.24-5-.38-7.47-.32-2.46,.09-4.9,.32-7.26,.66-4.47,.77-8.9,.97-13.3,1.69-1.48,.23-2.92,.49-4.62,.13-1.23-.24-3.4,.06-4.87,1.07-.28,.2-.98,.15-1.47,.16-.54,0-1.21-.22-1.58-.05-2.04,1.01-4.2,1.52-6.4,1.92-2.21,.35-4.4,.84-6.52,1.48-1.05,.33-2.31,.29-3.02,1.27-.19,.23-1.2,.59-1.55,.5-.94-.23-1.8-.07-2.8,.24-2.18,.67-4.37,1.28-6.5,2.08-2.14,.77-4.3,1.47-6.41,2.3-.84,.89-1.87,1.46-2.97,1.93-1.09,.49-2.24,.89-3.32,1.36-1.63,.71-3.35,1.21-5.04,1.81-1.68,.68-3.09,2.1-5.01,2.19-.31,.01-.77,.59-1.2,.86-.96,.59-1.9,1.26-2.83,1.91-.93,.65-1.89,1.21-2.85,1.68-.99,.47-1.98,.95-2.88,1.56-5.73,4.06-11.03,8.71-15.74,13.89-2.29,2.65-4.54,5.33-6.48,8.24-1.04,1.42-1.9,2.91-2.84,4.37-.47,.73-.81,1.53-1.22,2.29-.39,.77-.8,1.53-1.13,2.34-.47,1.11-1.13,2.1-1.01,3.53,.07,1.1-.69,3.1-1.38,3.88-.58,.62-.92,1.31-1.17,2.01-.2,.72-.32,1.45-.52,2.16-.75,2.64-1.03,5.37-1.37,8.07-.1,.8,.02,1.66-.02,2.49-.04,.83-.19,1.62-.64,2.34-.09,.14-.07,.66,.04,.83,1,1.75,.49,3.49,.59,5.33,.1,.65,.22,1.29,.42,1.94,.21,.64,.43,1.29,.91,1.89,.44,.59,.85,1.41,1.13,2.26,.3,.84,.6,1.67,.61,2.36,0,1.88,1.09,3.13,1.83,4.55,.55,.89,1.17,1.73,1.75,2.6l.44,.65c.15,.21,.28,.34,.42,.51l.83,.99,.73,.87,.09,.11,.05,.05s-.03-.03-.04-.04l-.19-.21-.19-.21c.08,0,.19,0,.28,0,.75,0,1.52-.04,2.31-.11,1.78-.16,3.65-.47,5.43-.93,3.59-.92,7.04-2.46,10.51-4.06,4.22-1.97,8.1-4.61,12.57-6.12,1.06-.36,2.04-1.19,3.24-.92,.25,.05,1.04-.37,1.31-.67,.94-1.07,2.22-1.34,3.57-1.86,6.13-2.35,12.47-4.45,18.29-7.28,4.53-2.21,9.23-3.7,13.86-5.49,1.54-.59,3.28-.69,4.9-1.15,1.57-.44,3.13-1.01,4.67-1.58,.92-.33,1.91-.47,2.64-1.3,.39-.45,1.71-.97,2.32-.91,2.08,.2,3.92-.75,5.82-1.33,5.41-1.7,10.83-3.39,16.29-4.95,1.34-.37,2.72-1.21,4.17-.71,.2,.07,.89-.42,1.36-.65,.5-.24,1.08-.67,1.5-.65,1.93,.05,3.77-.34,5.6-.86,.5-.11,1.03-.32,1.92-.2,.11,.02,.28,.08,.42,.13l.21,.09c.08,.05,.17,.12,.26,.2,.17,.15,.31,.3,.4,.52,.09,.2,.17,.47,.16,.61,0,.16,0,.36-.03,.5-.03,.12-.06,.23-.1,.35-.08,.24-.17,.36-.26,.54-.75,1.13-1.63,1.74-2.58,2.26-8.27,3.96-16.34,8.02-24.57,11.89-2.3,1.08-3.96,2.73-6.18,3.78-2.15,1.01-4.23,2.17-6.39,3.17-1.52,.72-2.92,1.89-4.72,1.82-.5-.02-1.57,.55-1.9,.99-1.25,1.65-3.29,2.19-4.96,3.26-2.04,1.28-4.49,1.98-6.09,3.95-.43,.53-1.76,.7-2.62,1.14-1.5,.78-2.98,1.6-4.42,2.48-.69,.43-1.2,1.12-1.88,1.56-5.25,3.38-10.36,6.92-15.46,10.51l-1.96,1.36c-.38,.25-.49,.38-.74,.55-.2,.19-.42,.37-.61,.58-.8,.85-1.53,1.95-2.13,3.19l-.22,.47-.11,.24-.07,.15c-.09,.2-.18,.41-.24,.59-.15,.37-.27,.74-.39,1.12-.11,.38-.22,.76-.31,1.15l-.13,.58c-.06,.17,.04,.03,.1-.04,.07-.05,.11-.21,.21-.17,.76,.23,1.52,.46,2.28,.67l1.87,.49c.76,.2,1.52,.39,2.28,.57,3.05,.75,6.13,1.42,9.21,2.06,2.33,.48,4.96,.23,6.94,1.76,2.28-.38,4.11,.33,5.9,1.4,.26,.15,.99-.1,1.52-.13,1.64-.1,3.3-1.13,4.91,.4,.06,.06,.29,.02,.43,.06,1.45,.36,2.62-.86,4.41,.15,1.11,.63,3.03,.62,4.6,.82,1.62,.22,3.25,.42,4.87,.47,1.67,.04,3.43,.83,5.09-.03,.27-.14,1.43,.66,2.16,.68,3.74,.07,7.5,1.28,11.25,.36,.86-.21,2.18-.09,3.06,.2,3.16,1.07,6.21,.8,9.53,.66,4.37-.19,9.02-.15,13.23,1.25,.9,.3,1.29,.52,2.23,.1,.61-.27,1.66-.17,2.51-.15,9.5,.25,19,.37,28.5,.28,2.58-.02,5.01,.9,7.66,.48,1.09-.17,2.39,.29,3.27-.55,.12-.12,.58-.19,.78-.14,3.21,.85,6.33-.6,9.5-.34,.68,.05,1.33,.2,2.01,.27,.69,.07,1.5,.27,2.08,.1,4.79-1.4,9.83-.85,14.7-1.53,1.66-.24,3.53,.14,4.93-.99,.21-.17,.95-.22,1.28-.12,2.96,.91,6-.32,8.98-.36,1.53-.02,3.15-.86,4.63-.08,.19,.1,.79-.08,1.15-.19,.64-.2,1.23-.61,1.86-.68,1.75-.18,3.74,.07,5.22-.48,1.84-.68,3.65-.8,5.46-1.13,1.04-.19,2.15,.08,3.23-.02,1.02-.09,2.04-.35,3.06-.53,1.45-.29,2.93-.73,4.35-.8,1.47-.08,2.4-1.29,4.11-.97,1.31,.26,2.5-.96,3.81-1.38,.65-.21,1.39-.26,2.08-.31,.53-.05,1.09,.15,1.56,0,1.06-.31,2.14-.4,3.18-1.11,.72-.48,2.25-.33,3.41-.58,1.15-.23,2.27-.63,3.41-.95,1.13-.32,2.41-.52,3.36-1.05,4.16-2.37,8.83-3.41,13.1-5.4,1.1-.5,2.22-1.39,3.52-1.07,.23,.06,.87-.23,1.15-.46,3.45-3.04,7.9-4.51,11.38-7.4,2.46-2.06,4.56-4.35,6.91-6.51,2.29-2.09,4.6-4.39,6.03-7.05,1.2-2.17,2.18-4.37,3.52-6.33,.32-.49,.53-1.03,.7-1.58,.16-.56,.25-1.14,.39-1.69,.3-1.1,.6-2.16,1.73-2.94,.81-2.22,1.48-4.48,2.05-6.76,.24-.96,.34-1.96,.53-2.93,.13-.98,.44-1.92,.91-2.85,.18-.34,.3-.85,.34-1.38,.03-.53-.04-1.07-.17-1.46-.84-2.5-.69-4.81-.6-7.37,.05-.61-.52-1.28-.66-1.94-.41-2.03-1.02-4.02-1.53-6.02-.78-2.99-2.18-5.77-3.83-8.34-1.66-2.58-3.58-4.95-5.5-7.33-.7-.9-2.06-1.36-2.56-2.22-1.63-2.61-3.93-4.73-6.38-6.6-2.46-1.88-5.07-3.51-7.53-5.35-3.66-2.69-7.81-4.7-12.11-6.25-4.29-1.55-8.81-2.61-13.34-3.75-1.17-.31-2.28-1.26-2.89-1.18-1.88,.28-3.8-.65-5.37-.42-2.81,.39-5.36-.6-8.04-.77-1.95-.12-3.95-.99-5.87-.23-.28,.11-.94,0-1.28-.16-2.74-1.3-5.76-.27-8.56-1.05-2.78,.24-5.55-.02-8.33-.4-2.72-.38-5.39-.82-8.1-.96-.8-.04-1.59,.14-2.39,.2-.4,.04-.89,.15-1.21,.04-4.8-1.6-9.96-.95-14.94-1.44-1.65-.16-3.26-.54-4.92-.69-1.67-.16-3.42,.13-5-.65-.49-.24-1.47-.13-2.18-.05-3.89,.45-6.77-1.18-6.81-3.72-.01-.92,.79-.96,1.64-1.29,1.63-.64,3.25-1.04,5.22-.95,1.53,.07,3.21,.38,4.59-.48,.23-.14,.93-.1,1.3,.01,2.62,.83,5.61,.28,8.08,.92,1.9,.49,3.68,.46,5.49,.73,1.53,.22,3.15-.14,4.63,.77,.5,.3,2.06-.28,3.13-.22,2.53,.13,5.09,.32,7.59,.72,3.81,.62,7.59,.9,11.4,1.12,3.8,.23,7.61,.44,11.39,1.1,5.59-.4,11.1,1.43,16.61,1.91,3.34,.28,6.64,.9,9.9,1.7,3.25,.8,6.51,1.71,9.76,2.73,1.34,.41,2.38,.85,3.42,1.57,.67,.49,1.37,1.01,2.14,1.35,2.92,1.35,5.85,2.73,8.57,4.45,.72,.48,1.57,.84,2.33,1.31,.74,.49,1.4,1.08,1.72,1.95,.1,.23,.73,.67,1.08,.77,2.94,.77,4.92,3.3,7.16,5.22,.86,.74,1.62,1.53,2.17,2.7,.63,1.23,2,2.76,3.18,3.6,.87,.65,1.49,1.35,2.13,2.14,.68,.8,1.31,1.65,1.85,2.58l.81,1.37,.75,1.41c1.03,1.87,1.98,3.73,3.42,5.35-.19,2.45,1.1,4.77,1.93,6.83,1.68,3.92,2.46,8.21,2.54,12.49,.09,4.29-.43,8.57-1.27,12.74-.42,2.02-1.43,3.89-2.2,5.8-.4,1.01-.78,2.02-1.21,3.02-.39,1.02-.83,2.01-1.28,3-.44,1.08-1.45,2.05-1.14,3.26,.02,.09-.03,.29-.11,.39-.77,1-1.63,1.95-2.27,2.97-.55,.94-.64,2.1-1.2,3.08-.62,1.2-1.51,2.3-2.36,3.38-.85,1.02-1.65,2.23-2.93,2.5-.06,1.37-1.45,2.18-2.37,3.11-.85,.92-1.85,1.7-2.81,2.52-1.08,.92-2.21,1.77-3.33,2.62-1.15,.81-2.32,1.6-3.45,2.41-1.51,1.17-2.96,2.4-4.57,3.44-1.7,1.08-3.52,2.02-5.35,2.83-2.32,.98-4.69,1.75-7.06,2.53-.98,.32-1.7,.88-2.53,1.52-1.08,.87-2.37,2.36-4.41,1.75-.4-.11-1.52,.34-2.11,.7-4.65,2.88-10.24,3.34-15.29,4.95-3.07-.22-5.69,.98-8.6,1.88-4.27,1.32-8.9,2.36-13.3,2.55-4.65,.2-9.06,1.21-13.6,1.59-1.27,.1-2.6,.63-3.78-.08-.27-.16-1.22,0-1.73,.2-3.55,1.33-7.15,1.44-10.94,1.22-2-.12-4.19,.43-6.34,.93-3.24,.74-6.84,.63-10.28,.82-1.55-.96-2.65,.16-3.39,.66-.99,.66-1.94,.81-3.16,.88-1.56,.1-3.11-.04-4.63,.71-.78,.38-2.55,.35-3.41,.02-1.16-.45-1.58-.21-2.61,.14-1.22,.42-2.53-.52-4.08-.44-1.65,.09-3.58,.65-5.06-.43-.13-.1-.64-.08-.87,.01-3.06,1.15-6.12-.45-9.16,.04-9.11-1.25-18.34-.37-27.47-1.14-3.76-.32-7.53-1.29-11.26-.99-7.85,.64-15.63-.63-23.43-1.08-1.65-.09-3.6,.22-4.98-.97-.19-.16-.95-.22-1.29-.12-2.56,.75-4.93,.21-7.34-.7-.58-.22-1.71-.32-2.1-.1-1.11,.62-2.28,.19-3.38,.06-1.33-.17-3.02-1.01-3.86-.74-1.8,.58-2.65-.41-3.92-.72-.79-.19-1.7-.1-2.54-.1-.4,0-.94,.26-1.16,.15-2.49-1.26-5.26-.35-7.8-1.15-.54-.17-1.14-.25-1.66-.45-2.96-1.13-4.42-1.72-6.13-2.15-1.7-.44-3.65-.67-7.55-1.33-.44-.44-.95-.71-1.51-.88-.28-.08-.56-.14-.86-.19l-.45-.06c-.18-.02-.42-.07-.63-.11-1.73-.29-3.71-.67-5.06-1.51-.46-.31-1.27-.59-2.2-.83l-.18-.04c-.06-.02-.13-.04-.13,.01l-.12,.2c-.09,.14-.18,.28-.26,.42-.02,.03-.05,.08-.06,.09v-.15c.02-.1,.03-.19,.04-.29,.01-.19,.02-.36,.02-.53,.03-1.45,.21-3.08,.57-4.78,.36-1.69,.97-3.53,1.68-5.1,1.14-2.41,2.68-4.8,5.01-6.94,.25-.21,.52-.37,.8-.5,.27-.12,.46-.15,.7-.24,.45-.16,.88-.4,1.2-1.04,.24-.48,1.99-.74,2.85-1.36,1.26-.9,2.89-1.37,3.71-2.92,.34-.63,1.65-1.16,2.49-1.76,1.15-.83,2.51-1.3,3.36-2.65,.45-.75,2.01-1.67,2.94-1.84,3.84-.7,6.12-3.44,8.84-5.54,.82-.63,1.38-1.09,2.42-1.43,1.45-.48,3.4-1.08,4.22-1.99,1.46-1.63,3.35-2.28,5.09-3.25,3.02-1.68,6.16-3.13,9.19-4.77,3.45-1.87,7.11-3.28,10.37-5.65,1.75-1.27,4.12-2.82,6.7-2.79,.28,0,.85-.98,1.41-1.26,4.41-2.2,8.78-4.35,13.27-6.45,1.04-.49,2.65-.01,3.2-1.3,.12-.6,.32-.45,.61-.39,.12,.04,.24,.07,.26,.05h0s-.03-.03,.07,.07c.14,.14,.29,.28,.44,.4,.31,.24,.6,.53,.93,.75,.1,.06,.34,.22,.68,.45,.16,.1,.41,.19,.59,.29,.16,.1,.41,.15,.6,.19,.06,.02,.14,.04,.22,.03,.04,0,.08,0,.12-.02,0,0,.02,0,.03,0,.01,0,.06-.02,.06-.02-.04,.02-.06,.05-.08,.08-.14,.16-.23,.59-.29,1.07-.01,.15,0,.3,0,.44,0,.16-.01,.39,0,.58,0,.4,.05,.8,.14,1.19,.04,.19,.06,.47,.11,.7l.06,.36,.03,.16h0s0-.04,.01-.06c-.35,.04-.71,.08-1.07,.13-.71,.1-1.42,.23-2.12,.38-1.41,.31-2.79,.67-4.19,1.1-2.78,.85-5.54,1.8-8.36,2.49-1.35,.33-2.73,1.22-4.07,.61-3.05,2.06-7.46,1.11-10.21,3.82-2.5,.49-4.78,2.22-7.46,1.87-.43-.05-1.17,.49-1.65,.48-1.64-.05-1.98,1.93-4.05,1.66-1.19-.15-2.99,.81-4.51,1.31-1.41,.46-2.8,.97-4.19,1.48l-4.6,1.66c-1.53,.57-3.09,1.07-4.58,1.71-3.01,1.32-5.76,3.11-8.99,4.07-.35,.1-.88,.45-.94,.67-.5,1.82-2.37,1.63-3.58,1.66-1.02,.01-1.84,.15-2.79,.55-2.61,1.05-5.18,2.2-7.81,3.18-1.56,.59-3,1.74-4.83,1.48-.57-.08-1.78,.5-2.38,1-1.42,1.16-3.02,1.96-4.67,2.68-1.63,.71-3.29,1.35-4.93,2.17-1.47,.74-3.06,1.41-4.69,2.04-1.22,.48-2.31,1.55-3.82,1.4-2.26,1.2-4.84,1.97-7.46,2.32l-.98,.13-1.49,.09-1.54,.08c-.08,.04-.1-.08-.13-.15l-.1-.22-.21-.45-.41-.89-.82-1.78c-.15-.17,.07-.23,.16-.34l.34-.28,.68-.56-3.95,3.36-2.77-3.33-1.51-2.15c-2.05-2.78-3.58-5.94-4.88-9.16-1.11-3.29-2.04-6.66-2.37-10.07-.27-1.69-.79-3.6,.15-5.14,.09-.15,.11-.52,.1-.9,0-.38-.03-.77-.13-.95-.51-.99-.77-1.77,0-2.82,.13-.2,.09-1.11,0-1.62-.24-1.4-.1-2.65,.55-3.97,.49-1.03,.87-2.46,.96-3.53,.1-2.91,.44-5.73,2.43-8.04,.24-.28-.04-1.42,.22-2.01,1.05-2.22,1.58-4.74,3.48-6.58,.38-.37,.67-.92,.98-1.5,.34-.56,.66-1.15,1.03-1.66,1.24-1.76,1.95-3.69,3.48-5.33,1.61-1.59,2.87-3.7,4.44-5.47,1.5-1.81,3.15-3.5,4.78-5.19l2.53-2.45c.86-.8,1.75-1.56,2.62-2.34,.86-.79,1.78-1.51,2.69-2.25,.91-.74,1.81-1.48,2.76-2.17,.94-.69,1.86-1.41,2.82-2.08l2.88-1.97c.96-.66,1.96-1.25,2.94-1.88,.98-.63,1.98-1.23,2.99-1.79,1.41-.81,2.77-1.46,4.4-1.85,4.14-1.07,8.51-3.34,13.92-6.38,.39-.22,.85-.36,1.28-.52,2.81-1.01,5.62-2.01,8.42-3.02,2.85-.85,5.7-1.71,8.57-2.38,2.55-.51,5.17-.69,7.73-1.4,1.68-.43,3.36-.58,4.92-1.55,1.32-.78,3.45-.35,4.94-1.52,.55-.44,2.16-.68,3.01-.53,1.42,.25,2.8,.14,4.17-.07,1.38-.19,2.75-.44,4.13-.58,1.58-.15,3.16-.32,4.74-.51l4.74-.48c1.55-.16,3.12,0,4.66-.88,.75-.42,2.65-.27,3.81,0,1.79,.41,3.54,.19,5.19-.07,3.54-.56,3.52-.65,7.04-.17,.42,.06,.87,.04,1.31,.05,4.37-.02,8.82,.29,13.06-.09,3.54-.38,6.99-.28,10.48-.19,1.39,.03,3.02-.36,4.14,.7,.16,.15,.95,.17,1.29,.06,2.96-.96,6.08-.24,9.09-.08,2.92,.14,5.66-.59,8.64-.17,2.79,.38,5.66,.4,8.49,.6,4.3,.3,5.18,.96,4.97,3.69-.17,2.25-1.29,2.66-4.76,2.9-7.36,.49-14.64-.7-20.58-.73Z"/>
      </g>
      <g class="cls-12">
        <g class="cls-12">
          <path class="cls-5" d="M393.27,150.67c-2.39,2.67-5.74,4.39-7.76,6.7-.22,.25-.46,.51-.7,.77l.46-.24c3.51-1.82,7-4.53,9.6-7.71,1.53-2.05,2.63-4.41,4.1-6.75,.17-.26-.09-.45-.21-.55-.31,.13-.62,.22-.92,.29-.97,1.97-2.05,3.93-3.54,5.66-.52,.54-.69,1.52-1.03,1.83Z"/>
          <polygon class="cls-7" points="397.91 143.12 397.86 143.13 397.71 143.43 397.91 143.12"/>
          <path class="cls-4" d="M395.21,147.82c-.4,.63-.86,1.2-1.36,1.73-.2,.46-.37,.92-.57,1.12-2.39,2.67-5.74,4.39-7.76,6.7-.22,.24-.46,.5-.7,.76l.5-.26c1.22-.63,2.42-1.38,3.6-2.19l.15-.18c.49-.66,1.23-.93,1.83-1.43,1.54-1.57,3-2.72,4.34-4.49,.47-.64,.72-1.5,1.3-2.22,.19-.25,.39-.49,.57-.72,.6-1.07,1.21-2.15,1.89-3.25,.17-.26-.09-.45-.21-.55-.17,.07-.33,.13-.49,.17-.57,.85-1.11,1.73-1.73,2.57-.45,.79-.95,1.56-1.51,2.3,.05-.01,.1-.03,.15-.06Z"/>
          <path class="cls-7" d="M394.78,147.59c-.09,.1-.01,.36,.27,.29,.55-.74,1.05-1.51,1.51-2.3-.52,.71-1.1,1.39-1.78,2.01Z"/>
          <path class="cls-8" d="M394.01,146.79c-1.19,1.25-2.04,2.75-3.27,3.54-.62,.44-1.33,.75-2.01,.95-.18,.16-.35,.32-.52,.47-4.25,4-9.38,7.09-14.83,9.23-2.7,1.15-5.01,2.7-7.69,4.17-1.64,.76-3.12,.94-4.85,1.38-2.18,.51-3.98,1.41-5.81,2.31-1.82,.89-3.69,1.82-5.9,2.22-1.18,.19-1.34,1.43-1.03,1.44,4.01-.37,7.59-1.59,11.06-2.86,3.44-1.3,6.88-2.57,10.3-4.2,5.32-2.51,10.35-4.75,15.33-7.31,.24-.27,.48-.53,.7-.77,2.02-2.3,5.37-4.02,7.76-6.7,.34-.32,.51-1.29,1.03-1.83,1.49-1.73,2.57-3.7,3.54-5.66-.62,.14-1.2,.2-1.73,.37-.53,1.19-1.2,2.34-2.09,3.24Z"/>
          <path class="cls-6" d="M394.01,146.79c.9-.9,1.56-2.05,2.09-3.24-.26,.09-.5,.21-.72,.39-2.31,2.17-4.23,5.08-6.65,7.35,.67-.2,1.39-.51,2.01-.95,1.23-.79,2.08-2.29,3.27-3.54Z"/>
          <path class="cls-4" d="M394.01,146.79c.86-.86,1.5-1.95,2.02-3.08-.28,.31-.55,.64-.81,.97-1.3,1.71-2.67,3.44-4.39,4.73,1.63-1.61,3.12-3.37,4.36-5.29-2.2,2.15-4.09,4.96-6.43,7.16,.67-.2,1.38-.52,2-.95,1.23-.79,2.08-2.29,3.27-3.54Z"/>
          <path class="cls-3" d="M391.8,149.56c1.95-1.76,3.7-3.81,4.93-6.21-.16,.03-.32,.07-.47,.11-.08,.08-.15,.16-.23,.24-.52,1.13-1.16,2.22-2.02,3.08-1.19,1.25-2.04,2.75-3.27,3.54-.62,.44-1.33,.75-2,.95l-.49,.44c-2.16,2.04-4.57,3.85-7.12,5.42-2.02,1.69-4.62,2.95-7.22,3.87,1.18-.54,2.32-1.14,3.45-1.79-1.29,.63-2.6,1.22-3.93,1.74-1.15,.48-2.21,1.05-3.28,1.64-.11,.37-.37,.76-.97,1.09-.93,.52-1.9,.89-2.8,1.55-.14,.05-.2-.18-.48-.08,.78-.28,1.35-.69,1.8-1.15-.64,.38-1.29,.75-1.96,1.12-1.29,.6-2.48,.84-3.77,1.13l-.38,.18c-.64,.29-1.26,.67-1.87,1.07,.27-.1,.55-.19,.84-.29-.38,.3-.95,.5-1.37,.64,.18-.12,.36-.24,.53-.35-.65,.22-1.28,.43-1.97,.67,.84-.28,1.65-.72,2.31-1.12-1.52,.62-2.89,1.25-4.46,1.55l.1-.08c-2.02,.99-4.05,2.08-6.51,2.53-1.18,.19-1.34,1.44-1.03,1.44,2.8-.26,5.39-.94,7.88-1.76,2.49-.82,4.86-1.75,7.26-2.67-.61,.06-1.22,.11-1.81,.17-.25,.06-.5,.09-.75,.09,.25-.03,.5-.06,.75-.09,.69-.15,1.39-.45,2.14-.59,.16,.03,.58-.12,.67-.4,1.03-.19,2.09-.83,3.11-1.04,.06-.02,.18,0,.32,.04,.59-.27,1.19-.53,1.78-.82,3.36-1.57,6.49-3.04,9.7-4.54-.81,.27-1.61,.49-2.37,.64-1.06,.14-2.84,1.36-4.46,2.19-.39,.24-.74,.13-1.16,.29,1.19-1.23,3.22-1.65,4.8-2.54,2.11-1.12,5.38-2.23,7.32-4.06,.79-.75,1.78-1.09,2.64-1.39-.17,.31-.68,.64-.93,.8-2.28,1.46-4.65,2.74-7.02,4.06,2.65-1.02,4.94-2.53,7.49-3.8-1.37,.98-2.93,1.52-4.1,2.6,.14-.01,.28-.04,.43-.06,.97-.49,1.95-.98,2.96-1.48,.24-.26,.47-.52,.7-.76,2.02-2.3,5.37-4.02,7.76-6.7,.21-.2,.37-.66,.57-1.12-.78,.83-1.64,1.55-2.46,2.34,.38-.26,.77-.49,1.18-.65-.74,.79-1.61,1.13-2.38,1.87,.38-.43,.78-.84,1.2-1.22-.58,.37-1.13,.84-1.73,1.24,.87-1.1,2.25-1.48,2.94-2.79-.2,.22-.41,.42-.65,.6,.22-.2,.44-.41,.65-.62v.02c.62-.65,1.11-1.43,1.52-2.14-1.01,1.18-2.2,1.96-3.28,3.01l-.52,.54c.17-.19,.35-.36,.52-.54,2.4-2.47,4.9-4.89,6.86-7.79l.15-.3-.41,.09c-1.55,2.4-3.51,4.57-5.64,6.34Z"/>
        </g>
      </g>
      <g class="cls-12">
        <g class="cls-12">
          <path class="cls-5" d="M195.48,186.93c-2.76,.24-5.61,.11-8.35,.11-2.74-.07-5.37-.04-7.73,.28-.52,.06-1.05,.13-1.6,.2l.81,.08c6.14,.58,12.87,.64,19.14,.05,1.94-.22,3.88-.6,5.87-.9,1.99-.31,4.03-.68,6.17-.85,.48-.04,.5-.36,.52-.52-.45-.16-.83-.33-1.19-.52-1.72,.26-3.44,.57-5.18,.82-1.74,.23-3.5,.44-5.29,.59-1.19,.04-2.46,.63-3.18,.65Z"/>
          <polygon class="cls-7" points="209.27 184.89 209.2 184.85 208.68 184.94 209.27 184.89"/>
          <path class="cls-4" d="M200.8,186.16c-1.15,.18-2.3,.3-3.44,.33-.74,.19-1.42,.43-1.87,.44-2.76,.24-5.61,.11-8.35,.11-2.74-.07-5.37-.04-7.73,.28-.51,.06-1.04,.13-1.58,.2l.87,.08c2.12,.24,4.32,.32,6.54,.41,.12-.02,.24-.03,.36-.05,1.24-.2,2.39,.01,3.59,.01,3.39-.22,6.24-.18,9.63-.52,1.21-.15,2.45-.61,3.88-.69,.49-.05,.96-.07,1.42-.08,1.86-.31,3.76-.62,5.76-.79,.48-.04,.5-.36,.52-.52-.23-.08-.45-.17-.65-.26-1.61,.11-3.22,.29-4.87,.44-1.42,.21-2.85,.38-4.3,.54,.06,.02,.14,.04,.23,.06Z"/>
          <path class="cls-7" d="M200.62,185.69c-.2,.01-.44,.26-.06,.4,1.45-.16,2.88-.33,4.3-.54-1.38,.11-2.8,.16-4.25,.14Z"/>
          <path class="cls-8" d="M200.76,184.58c-2.82,.11-5.49,.6-7.82,.46-1.22-.08-2.42-.29-3.48-.57-.39,.02-.77,.03-1.15,.04-9.52,.49-19.06,.14-28.37-1.21-4.68-.58-9.07-.68-13.9-1.08-2.84-.42-5.05-1.16-7.74-1.96-6.7-2.01-12.86-2.18-19.85-3.84-1.88-.43-2.5,.69-2.05,.84,5.86,1.51,11.53,3.02,17.23,4.36,5.72,1.29,11.48,2.41,17.47,3.11,9.28,1.06,18.02,1.94,26.72,2.79,.54-.07,1.08-.13,1.6-.2,2.36-.32,4.99-.35,7.73-.28,2.74,0,5.59,.13,8.35-.11,.72-.02,1.99-.61,3.18-.65,1.79-.15,3.55-.36,5.29-.59,1.74-.25,3.45-.56,5.18-.82-.75-.39-1.36-.79-2.11-1.06-2.09,.43-4.19,.76-6.26,.77Z"/>
          <path class="cls-6" d="M200.76,184.58c2.06,0,4.17-.34,6.26-.77-.37-.13-.76-.23-1.22-.27-5.2-.2-10.94,.72-16.33,.92,1.05,.28,2.25,.49,3.48,.57,2.33,.15,5-.34,7.82-.46Z"/>
          <path class="cls-4" d="M200.76,184.58c1.97-.01,3.98-.31,5.97-.71-.69,0-1.38,.03-2.07,.09-3.53,.23-7.1,.58-10.6,.42,3.76-.15,7.52-.41,11.28-.84-5.08-.13-10.65,.75-15.87,.94,1.05,.27,2.25,.49,3.47,.57,2.33,.15,5-.34,7.82-.46Z"/>
          <path class="cls-3" d="M195.05,185.13c1.07-.02,2.13-.04,3.2-.06,1.07-.04,2.13-.11,3.2-.19,1.07-.08,2.14-.16,3.21-.28,1.07-.13,2.14-.29,3.21-.46-.2-.1-.39-.19-.6-.27-.18,0-.36,0-.54,0-1.99,.41-4,.7-5.97,.71-2.82,.11-5.49,.6-7.82,.46-1.22-.08-2.42-.29-3.47-.57-.36,.01-.73,.03-1.08,.04-2.43,.16-4.86,.15-7.29,.21-2.43-.02-4.86-.03-7.27-.14-4.22,.19-8.82-.2-13.18-.95,2.06,.25,4.14,.39,6.23,.49l-3.44-.34c-1.14-.14-2.28-.3-3.42-.46-1.98-.23-3.91-.4-5.85-.54-.43,.24-1.09,.41-2.17,.34-1.69-.11-3.32-.43-5.06-.41-.23-.04-.15-.27-.61-.35,1.3,.23,2.4,.25,3.37,.14-1.18-.09-2.37-.17-3.57-.26-2.24-.31-4.07-.88-6.07-1.44-.22-.03-.44-.07-.66-.11-1.1-.19-2.23-.3-3.37-.38,.45,.1,.9,.21,1.37,.32-.75-.01-1.68-.23-2.37-.39,.33,.02,.67,.05,1,.07-1.07-.25-2.1-.48-3.23-.79,1.37,.38,2.82,.53,4.04,.66-2.57-.49-4.92-.97-7.37-1.77h.2c-3.61-.58-7.26-1.02-11.14-1.94-1.88-.43-2.51,.69-2.05,.84,8.18,2.13,15.99,4.23,24.07,5.8-.88-.33-1.75-.69-2.64-1.04-.39-.12-.76-.26-1.1-.43,.37,.14,.74,.29,1.1,.43,1.06,.35,2.27,.56,3.42,.9,.2,.12,.9,.27,1.23,.09,1.57,.5,3.53,.65,5.12,1.07,.1,.02,.25,.11,.42,.22,1.03,.14,2.06,.27,3.1,.41,5.83,.63,11.36,1.22,16.89,1.82-1.31-.25-2.58-.52-3.74-.83-1.57-.46-4.98-.51-7.86-.74-.73-.03-1.12-.33-1.83-.44,2.58-.29,5.75,.47,8.63,.68,1.91,.1,4.19,.44,6.52,.66,2.33,.19,4.71,.4,6.79,.19,1.72-.16,3.32,.17,4.7,.45-.51,.16-1.46,.1-1.94,.08-4.28-.19-8.55-.46-12.86-.74,4.44,.69,8.77,.72,13.23,1.23-2.64-.05-5.18-.47-7.66-.28,.2,.07,.41,.13,.62,.2,1.72,.2,3.44,.34,5.16,.51,.54-.07,1.07-.13,1.58-.2,2.36-.32,4.99-.35,7.73-.28,2.74,0,5.59,.13,8.35-.11,.45-.01,1.14-.26,1.87-.44-1.78,.05-3.56,.09-5.34,.14,.72,.07,1.41,.13,2.05,.27-1.68,.15-3.06-.2-4.74-.1,.9-.1,1.8-.14,2.69-.17-1.08-.09-2.21-.1-3.35-.15,2.19-.32,4.22,.31,6.42-.24-.47,.03-.94,.04-1.4,.04l1.43-.04h-.03c1.43-.09,2.85-.28,4.12-.54-2.46,.17-4.69-.05-7.1,.08l-1.19,.07c.4-.03,.8-.06,1.19-.07,5.51-.39,11.06-.35,16.57-.84l.52-.08c-.16-.09-.33-.17-.49-.26-2.28,.19-4.57,.38-6.87,.44l-3.42,.11c-1.13,0-2.26-.01-3.38-.02Z"/>
        </g>
      </g>
      <g class="cls-12">
        <g class="cls-12">
          <path class="cls-5" d="M67.47,42.84c1.67-1.9,4.15-3,5.33-4.89,.13-.2,.28-.41,.42-.62l-.33,.17c-2.48,1.31-4.9,3.26-6.73,5.5-1.04,1.48-1.79,3.19-2.97,4.74-.14,.17,.11,.37,.23,.47,.28-.04,.55-.05,.82-.04,.74-1.37,1.53-2.73,2.59-3.95,.38-.37,.4-1.15,.64-1.38Z"/>
          <polygon class="cls-7" points="64.17 48.2 64.23 48.2 64.34 48 64.17 48.2"/>
          <path class="cls-4" d="M66.16,44.91c.27-.46,.6-.86,.97-1.21,.12-.34,.19-.72,.34-.86,1.67-1.9,4.15-3,5.33-4.89,.13-.19,.27-.4,.42-.62l-.35,.19c-.85,.46-1.71,.98-2.53,1.58l-.09,.14c-.29,.52-.86,.67-1.28,1.02-1.04,1.15-2.1,1.93-3.05,3.18-.33,.45-.43,1.14-.88,1.6-.14,.18-.28,.34-.43,.49-.44,.75-.88,1.51-1.44,2.23-.14,.17,.11,.37,.23,.47,.15-.02,.29-.03,.43-.04,.48-.55,.88-1.15,1.36-1.71,.33-.56,.69-1.1,1.09-1.61-.04,0-.08,0-.13,.03Z"/>
          <path class="cls-7" d="M66.56,45.18c.06-.07-.04-.3-.28-.29-.4,.51-.76,1.05-1.09,1.61,.39-.48,.83-.93,1.37-1.32Z"/>
          <path class="cls-8" d="M67.33,45.97c.9-.83,1.42-1.96,2.35-2.46,.46-.28,1-.47,1.55-.54,.12-.12,.24-.23,.36-.35,2.89-2.94,6.29-5.42,9.99-7.26,1.82-.98,3.23-2.43,4.91-3.76,1.07-.68,2.13-.8,3.31-1.06,1.49-.28,2.67-.87,3.94-1.41,1.25-.53,2.65-1.06,4.23-.97,.83,.07,1.3-1.1,1.09-1.17-2.95-.52-5.75-.08-8.31,.74-2.57,.84-4.94,2.06-7.16,3.55-3.47,2.28-6.86,4.18-10.35,6.05-.15,.22-.29,.43-.42,.62-1.19,1.89-3.66,2.99-5.33,4.89-.23,.23-.26,1.01-.64,1.38-1.06,1.22-1.85,2.58-2.59,3.95,.56,.02,1.08,.09,1.54,.05,.41-.83,.85-1.67,1.55-2.25Z"/>
          <path class="cls-6" d="M67.33,45.97c-.71,.57-1.15,1.41-1.55,2.25,.22-.02,.43-.07,.62-.17,1.89-1.3,3.16-3.43,4.82-5.08-.54,.07-1.08,.26-1.55,.54-.93,.5-1.45,1.63-2.35,2.46Z"/>
          <path class="cls-4" d="M67.33,45.97c-.68,.54-1.1,1.34-1.5,2.13,.23-.2,.46-.4,.65-.62,.99-1.15,1.99-2.35,3.27-3.19-1.15,1.14-2.26,2.32-3.18,3.65,1.78-1.32,3.04-3.38,4.65-4.97-.54,.07-1.08,.26-1.54,.54-.93,.5-1.45,1.63-2.35,2.46Z"/>
          <path class="cls-3" d="M68.88,44.01c-1.41,1.21-2.72,2.58-3.64,4.25,.14,0,.28,0,.41,0,.06-.05,.12-.1,.18-.15,.4-.79,.82-1.58,1.5-2.13,.9-.83,1.42-1.96,2.35-2.46,.46-.28,1-.47,1.54-.54l.34-.33c1.47-1.5,3.08-2.89,4.79-4.12,1.27-1.39,3.02-2.43,4.82-3.21-.78,.47-1.55,.97-2.28,1.53,.86-.53,1.75-1.01,2.66-1.46,.77-.42,1.46-.92,2.14-1.45,0-.34,.12-.7,.49-1,.59-.48,1.24-.81,1.77-1.41,.09-.04,.19,.17,.38,.08-.53,.25-.86,.62-1.1,1.04,.4-.34,.8-.69,1.23-1.02,.84-.53,1.68-.72,2.57-.91l.25-.14c.42-.22,.81-.54,1.22-.85-.19,.06-.38,.12-.58,.19,.24-.26,.64-.37,.93-.47-.12,.09-.24,.19-.35,.28,.45-.15,.88-.27,1.36-.4-.58,.15-1.13,.48-1.56,.79,1.02-.43,1.97-.84,3.05-.85l-.07,.06c1.38-.62,2.89-1.25,4.65-1.18,.82,.07,1.31-1.11,1.08-1.17-4.13-.71-7.91,.4-11.27,1.94,.46-.02,.92-.04,1.36-.06,.18-.03,.37-.05,.56-.02-.18,0-.37,.02-.56,.02-.5,.09-.99,.34-1.54,.45-.13-.03-.42,.1-.44,.36-.74,.15-1.43,.74-2.15,.92-.04,.02-.14,0-.25-.04-.4,.24-.78,.49-1.17,.75-2.17,1.42-4.31,2.71-6.46,3.92,.58-.2,1.15-.37,1.71-.48,.79-.08,1.9-1.15,2.95-1.89,.25-.22,.54-.1,.82-.25-.63,1.12-2.1,1.47-3.13,2.23-1.39,.96-3.7,1.81-4.91,3.28-.48,.62-1.22,.82-1.86,1.01,.09-.26,.43-.51,.6-.63,1.56-1.1,3.18-2.1,4.74-3.21-1.85,.81-3.34,2.03-5.17,2.93,.92-.74,2.06-1.11,2.76-2.02-.11,0-.22,.02-.32,.03-.66,.36-1.35,.73-2.06,1.12-.15,.22-.29,.42-.42,.62-1.19,1.89-3.66,2.99-5.33,4.89-.15,.14-.21,.51-.34,.86,.56-.57,1.2-1.06,1.77-1.62-.28,.17-.58,.31-.9,.38,.51-.57,1.19-.75,1.72-1.28-.25,.33-.54,.61-.81,.89,.42-.26,.83-.55,1.25-.84-.54,.84-1.65,.99-2.06,1.98,.15-.15,.3-.29,.47-.41l-.48,.42h0c-.43,.46-.76,1.02-1.04,1.54,.73-.82,1.64-1.29,2.4-2.04,.12-.13,.23-.26,.35-.39-.12,.14-.23,.27-.35,.39-1.65,1.78-3.54,3.35-5.11,5.26l-.12,.2,.37,.02c1.25-1.59,2.72-3.02,4.29-4.21Z"/>
        </g>
      </g>
    </g>
  </g>
</svg>