<?xml version="1.0" encoding="UTF-8"?>
<svg id="_Слой_2" data-name="Слой 2" xmlns="http://www.w3.org/2000/svg" xmlns:xlink="http://www.w3.org/1999/xlink" viewBox="0 0 532.52 269.36">
  <defs>
    <style>
      .cls-1 {
        fill: none;
      }

      .cls-2 {
        clip-path: url(#clippath);
      }

      .cls-3 {
        fill: #f3f9fb;
      }

      .cls-4 {
        fill: #f7fbfc;
      }

      .cls-5 {
        fill: #f8fcfd;
      }

      .cls-6 {
        fill: #66af66;
      }

      .cls-7 {
        fill: #f4fafb;
      }

      .cls-8 {
        fill: #f5fafb;
      }

      .cls-9 {
        fill: #fbfdfe;
      }

      .cls-10 {
        fill: #6e7c6e;
      }

      .cls-11 {
        opacity: .49;
      }

      .cls-12 {
        opacity: .8;
      }
    </style>
    <clipPath id="clippath">
      <rect class="cls-1" width="532.52" height="269.36"/>
    </clipPath>
  </defs>
  <g id="_лягушки" data-name="лягушки">
    <g class="cls-2">
      <g class="cls-11">
        <path class="cls-10" d="M170.57,235.58c27.9-28.52,63.04-54.43,95.63-79.13-25.39,22.51-42.38,52.77-51.24,82.97l1.58,.95c93.6,2.66,166.5-.11,243.87-44.73,11.24-6.48,22.57-14.95,24.45-26.34,2.84-17.22-16.6-30.78-34.57-39.23-40.38-18.99-105.16-29.86-150.86-35.66l-5.44-1.02c-41.08-2.38-73.06-.98-113.86,3.71-40.8,4.69-81.46,17.02-111.7,40.65-20.53,16.04-35.79,43.02-20.37,62.73,4.41,5.64,19.97,31.13,124.94,36.64"/>
        <path class="cls-10" d="M190.4,214.23c6.49-5.73,11.93-10.26,17.29-14.85,.83-.72,1.45-1.91,2.53-2.77,4.3-3.46,8.43-7.39,12.97-10.2,4.96-3.07,9.59-6.56,13.73-10.26,3.92-3.52,8.11-6.54,12.17-9.78,1.37-1.09,2.66-2.21,4.54-2.88,1.36-.49,3.42-1.98,4.45-3.73,.2-.34,.92-.69,1.42-.98,.54-.31,1.32-.49,1.62-.85,1.07-1.28,2.28-2.4,3.57-3.45l3.14,3.83c-1.23,1.23-2.56,2.37-3.88,3.53-1.33,1.14-2.55,2.4-3.72,3.68-.42,.47-.94,.9-1.38,1.36-.42,.48-.76,1.02-.84,1.68-.04,.34-.85,1.27-1.24,1.42-1.01,.4-1.78,1.04-2.56,1.97-1.67,2.02-3.43,3.97-5.02,6.06l-2.44,3.09-2.32,3.18c-.73,2.63-2.64,4.81-4.21,7.07-1.1,1.74-2.49,3.29-3.75,4.94-1.22,1.71-1.79,3.95-3.55,5.25-.27,.21-.42,1.05-.68,1.57-.56,1.18-1.14,2.39-1.71,3.58-.55,1.2-1.12,2.36-1.82,3.39-.71,1.06-1.44,2.11-1.95,3.27-1.72,3.7-3.34,7.46-4.82,11.27-.71,1.91-1.49,3.8-2.13,5.75l-.99,2.87c-.25,.7-.45,1.36-.66,2.05l-.63,2.04-.16,.51c-.07,.1,.08,.12,.14,.17l.23,.14,.46,.28,.23,.14c.08,.02,.18,0,.27,.02l4.42,.1,12.36,.27c1.43,.02,2.8,.16,4.33-.41,1.19-.44,3.79-.42,4.93,.05,1.83,.77,3.57,.49,5.34,.56,3.25,.1,6.52-.03,9.78,.06,1.93,.05,4.08-.46,5.78,.56,.16,.1,.78,.1,.99,0,2.14-1,4.23-.23,6.38-.13,1.56,.07,3.13,.03,4.82-.49,1.65-.5,4.41-.61,5.95-.16,2.07,.59,3.94,.3,5.86,.23l8.49-.3c2.83-.13,5.65-.34,8.47-.52,2.82-.19,5.65-.35,8.47-.58l8.44-.85c1.33-.14,2.65-.32,3.97-.53l1.97-.33,1.96-.4c2.62-.53,5.24-1.01,7.94-1.18,1.28-.08,2.62-.64,3.87-.09,.26,.11,1.27-.1,1.64-.35,1.35-.87,2.83-.88,4.47-1.13,1.86-.27,3.73-.55,5.6-.82,1.87-.29,3.75-.5,5.59-.91,3.7-.75,7.36-1.59,10.9-2.65l2.07-.59,2.05-.63c1.36-.41,2.73-.79,4.1-1.16,2.73-.74,5.47-1.43,8.19-2.23,1.79-.61,3.75-.72,5.61-1.19,1.81-.46,3.6-1.07,5.38-1.67,1.06-.36,2.2-.5,3.06-1.36,.46-.47,1.94-1.12,2.63-1.1,2.33,.04,4.43-1.07,6.56-1.84l4.58-1.66c1.53-.55,3-1.24,4.5-1.86l8.98-3.78c1.49-.58,2.9-1.75,4.56-1.58,.23,.02,.93-.63,1.43-.96,.52-.35,1.11-.92,1.57-1,2.14-.4,4.14-1.24,6.09-2.2,.97-.49,1.95-.98,2.89-1.51,.94-.55,1.88-1.1,2.83-1.61l6.9-3.71c2.29-1.25,4.61-2.47,6.81-3.84,4.42-2.71,8.71-5.63,12.48-9.08,2.12-1.95,3.22-4.3,4.74-6.45,1.49-2.11,2.54-4.46,3.25-6.86,.49-1.74,.31-3.57,1.15-5.26,.26-.47,.12-1.82-.18-2.31-1.15-1.84-1.37-3.99-2.43-5.89-.61-1.14-1.22-2.32-1.94-3.44-.75-1.09-1.62-2.12-2.83-2.8-.63-.37-1.17-1.7-1.91-2.5-1.26-1.38-2.65-2.69-4.15-3.85-.72-.56-1.62-.85-2.36-1.38-5.73-4.05-12.06-7.3-18.51-10.27l-5-2.18c-1.67-.72-3.31-1.49-5.03-2.13-3.39-1.34-6.76-2.73-10.23-3.89l-5.18-1.81-5.24-1.65c-3.48-1.15-7.01-2.13-10.51-3.21-2.63-.84-5.7-.88-7.85-2.71-2.64,.05-4.67-.95-6.64-2.25-.28-.19-1.15-.04-1.75-.09-1.89-.14-3.88,.64-5.58-1.14-.06-.07-.33-.07-.49-.12-1.63-.56-3.09,.49-5.03-.77-1.21-.78-3.4-1.07-5.17-1.49-1.83-.43-3.68-.87-5.53-1.13-1.91-.27-3.85-1.33-5.82-.68-.32,.1-1.58-.85-2.41-.96-2.14-.29-4.25-.87-6.38-1.32-2.13-.43-4.28-.75-6.47-.54-1,.1-2.51-.21-3.48-.62-3.53-1.46-7.04-1.61-10.86-1.9-5.03-.37-10.36-1.04-15.06-2.98-1-.42-1.43-.69-2.54-.4-.73,.19-1.93-.04-2.9-.18l-8.17-1.11-4.12-.54c-1.37-.2-2.75-.31-4.11-.6l-4.07-.76c-.29-.06-1.13-.07-1.78-.12l-2.05-.11c-2.74-.16-5.47-.28-8.21-.39-2.98-.14-5.73-1.17-8.8-.91-1.26,.1-2.74-.41-3.8,.38-.15,.11-.68,.16-.91,.1-3.65-1.03-7.32,.29-10.97-.12-.78-.08-1.53-.26-2.3-.35-.79-.1-1.72-.33-2.39-.19-5.59,1.18-11.38,.45-17.04,.95-1.93,.18-4.07-.26-5.74,.8-.25,.16-1.11,.19-1.48,.08-3.37-1.02-6.95,.1-10.39,.03-1.77-.05-3.69,.76-5.34-.1-.21-.11-.91,.04-1.34,.15-.75,.18-1.47,.55-2.2,.59-2.04,.12-4.3-.22-6.06,.25-2.18,.59-4.28,.64-6.4,.86-1.21,.13-2.47-.19-3.73-.16-1.18,.02-2.39,.23-3.58,.35-1.71,.17-3.46,.55-5.1,.51-1.7-.03-2.93,1.11-4.84,.66-1.47-.35-2.98,.79-4.54,1.1-.78,.16-1.63,.14-2.43,.15-.61,.01-1.23-.22-1.78-.11-1.25,.25-2.5,.25-3.79,.88-.89,.42-2.63,.16-3.98,.34-1.35,.17-2.69,.46-4.04,.7-1.35,.22-2.83,.35-4,.82-2.57,1.04-5.23,1.68-7.91,2.32l-4.04,.87c-1.34,.32-2.67,.66-3.99,1.04-1.35,.4-2.84,1.12-4.24,.64-.25-.09-1.03,.13-1.4,.34-2.33,1.33-4.87,2.09-7.41,2.92-2.55,.79-5.15,1.46-7.56,2.57-1.72,.78-3.43,1.53-5.11,2.38-1.69,.83-3.39,1.62-5.19,2.29-1.73,.68-3.48,1.4-5.2,2.14-1.73,.72-3.37,1.6-4.87,2.59-1.24,.82-2.48,1.59-3.72,2.35-1.23,.78-2.47,1.5-3.79,2.09-2.61,1.12-3.96,4.09-7.08,4.24-1.24,.72-2.39,1.56-3.58,2.35-1.18,.8-2.37,1.58-3.57,2.36-1.96,1.39-3.7,3.14-6.08,3.87-.85,.28-2.12,1.33-2.62,2.15-1.66,2.61-3.86,4.34-6.25,6.2-.56,.45-.87,1.37-1.38,2-1.61,1.86-3.1,3.84-4.63,5.73-4.6,5.7-7.04,12.61-8.46,19.21-.27,1.24,.2,2.68-.08,3.72-.47,1.6-.58,3.25-.56,4.89,.11,1.63,.33,3.26,.83,4.8,.9,3.13,2.55,5.9,4.24,8.69,.32,.54,.76,1.2,1.12,1.74,.36,.52,.72,1.05,1.09,1.55,.79,.97,1.55,1.95,2.48,2.82,.45,.44,.88,.9,1.35,1.33l1.48,1.22c.5,.4,.97,.83,1.5,1.2l1.61,1.09c1.07,.73,2.14,1.47,3.31,2.08l3.43,1.93,3.59,1.72c1.19,.59,2.37,1.19,3.62,1.68,1.28,.54,2.36,1.77,3.06,1.82,2.11,.21,4.17,1.45,5.97,1.53,1.61,.07,3.09,.49,4.53,.99,1.46,.46,2.93,.92,4.43,1.23,2.19,.41,4.34,1.68,6.59,1.18,.33-.08,1.07,.11,1.44,.32,3,1.62,6.47,1.01,9.57,2.09,6.32-.07,12.42,1.94,18.73,2.44,.92,.09,1.85-.04,2.77-.05,.47,0,1.03-.08,1.41,.05,1.37,.49,2.78,.86,4.2,1.12,1.43,.23,2.88,.38,4.34,.5,2.91,.25,5.84,.39,8.71,.84,1.89,.31,3.73,.82,5.64,1.05,1.92,.25,3.94,.09,5.7,.96,.55,.27,1.68,.23,2.5,.19,4.48-.2,7.71,1.61,7.65,4.15-.02,.92-.95,.91-1.94,1.19-1.91,.53-3.79,.83-6.06,.61-1.77-.17-3.68-.59-5.32,.18-.27,.13-1.08,.04-1.5-.1-1.48-.51-3.09-.62-4.68-.78-1.59-.17-3.16-.3-4.57-.71-2.16-.63-4.2-.73-6.28-1.11-1.75-.32-3.63-.03-5.3-1.02-.56-.35-2.37,.11-3.61-.03-2.91-.32-5.84-.67-8.71-1.18-2.19-.35-4.36-.76-6.54-1.07-2.18-.32-4.37-.59-6.56-.85-2.2-.23-4.37-.62-6.55-1.03-2.17-.41-4.34-.88-6.49-1.44-3.22-.2-6.35-1.11-9.48-1.99-1.57-.42-3.09-1.02-4.63-1.52-1.54-.51-3.08-.99-4.64-1.36-7.5-2.08-14.55-5.52-21.31-9.64-.69-.43-1.31-.84-1.87-1.27-.28-.22-.56-.44-.82-.67-.26-.25-.5-.52-.74-.81-.62-.74-1.27-1.53-2.02-2.15-1.38-1.3-2.81-2.56-4.06-4.01-.66-.69-1.24-1.44-1.83-2.18-.6-.77-1.06-1.38-1.63-2.21-1.21-1.64-2.92-3.42-2.77-5.54,0-.28-.36-1.12-.64-1.44-1.17-1.33-1.81-3.04-2.22-4.79-.2-.88-.31-1.78-.43-2.67-.06-.9-.19-1.79-.25-2.67-.14-1.35-.08-2.67,.38-4.09,.53-1.53,.76-3.93,.77-5.59-.06-1.27,.26-2.33,.48-3.49,.52-2.41,1.61-4.67,2.69-6.87,1.07-2.21,2.21-4.33,2.87-6.7,2.24-1.54,3.67-4.2,4.99-6.35,2.52-4.13,5.79-7.73,9.35-10.98,1.78-1.62,3.66-3.14,5.56-4.61,1.92-1.4,3.83-2.8,5.71-4.26,1.86-1.34,4.06-2.21,6.02-3.42,2.09-1.23,4.19-2.5,6.24-3.82,1.09-.71,2.62-1.07,3.1-2.29,.04-.09,.22-.24,.35-.29,1.29-.55,2.66-.96,3.83-1.66,1.07-.59,1.82-1.59,2.87-2.28,1.26-.81,2.63-1.56,4.02-2.2,1.34-.62,2.7-1.44,4.09-1.26,.68-1.31,2.42-1.6,3.76-2.2,1.26-.58,2.58-1.07,3.88-1.59,1.45-.61,2.93-1.13,4.41-1.68,1.48-.54,2.99-1.02,4.42-1.63,1.99-.79,3.88-1.76,5.89-2.52,2.12-.8,4.33-1.4,6.52-1.96,1.37-.36,2.76-.64,4.15-.88,1.39-.26,2.77-.52,4.16-.79,1.14-.24,2.06-.69,3.1-1.26,1.37-.76,3.05-2.12,5.23-1.35,.43,.14,1.76-.19,2.48-.51,2.83-1.23,5.84-1.92,8.9-2.37l4.58-.68c1.53-.2,3.05-.43,4.55-.75,3.47,.4,6.62-.53,10.06-1.25,5.02-.98,10.37-1.7,15.39-1.65,5.32,.07,10.45-.74,15.67-.93,1.47-.05,3.03-.52,4.33,.24,.3,.17,1.4,.03,2-.14,4.16-1.17,8.3-1.17,12.64-.81,2.29,.19,4.84-.26,7.35-.7,3.77-.61,7.91-.37,11.89-.42,1.73,1.02,3.06-.07,3.94-.52,1.18-.61,2.28-.72,3.69-.74,1.81-.04,3.58,.18,5.38-.49,.92-.34,2.96-.25,3.94,.14,1.31,.52,1.81,.3,3.02,0,1.43-.35,2.89,.64,4.68,.65,1.91,0,4.16-.45,5.81,.7,.15,.1,.73,.11,1,.04,3.58-.97,7.03,.79,10.56,.5l1.96,.31,.98,.14,.49,.06,.68,.07c.28,.02,.55,.11,.82,.16l.47,.12,.94,.23,1.88,.43c.63,.13,1.25,.29,1.89,.39l1.93,.27,3.88,.49,7.83,.97c2.62,.34,5.23,.73,7.82,1.23,4.27,.8,8.48,2.27,12.79,2.45,9.05,.39,17.84,2.65,26.72,4.17,1.88,.32,4.14,.26,5.62,1.63,.21,.19,1.07,.35,1.47,.3,2.99-.38,5.66,.49,8.33,1.72,.65,.29,1.92,.56,2.39,.4,1.32-.45,2.62,.14,3.86,.44,1.51,.36,3.36,1.43,4.35,1.28,2.11-.32,2.98,.82,4.4,1.31,.88,.31,1.92,.35,2.89,.46,.46,.05,1.09-.12,1.33,.01,2.73,1.58,5.94,1.13,8.76,2.25,.6,.24,1.27,.4,1.85,.66,3.27,1.51,4.89,2.33,6.8,2.95,.95,.31,1.98,.59,3.32,.91,1.34,.33,2.98,.74,5.16,1.28,1.94,1.98,5.3,1.03,7.5,2.89,.8,.67,2.6,1.21,3.84,1.37,.68,.09,1.35,.21,2.02,.35,.66,.16,1.31,.36,1.96,.57,1.29,.42,2.57,.92,3.83,1.43,2.55,.99,4.99,2.27,7.54,3.21,1.07,.4,1.49,1.54,3.12,1.48,.61-.01,1.97,1.49,3.09,2.02,1.64,.78,3.09,2.06,5.07,2.2,.82,.05,2.1,1.09,3.17,1.66,1.49,.76,2.71,1.93,4.51,2.27,.98,.19,2.78,1.42,3.43,2.32,1.36,1.85,2.96,3.19,4.66,4.41,1.69,1.22,3.49,2.35,5.1,3.78,.96,.86,1.67,1.47,2.33,2.69,.95,1.7,2,4.06,3.06,5.21,1.93,2.06,2.64,4.79,3.21,7.48,.52,2.35,.64,4.83,.41,7.24-.21,2.41-.87,4.77-1.64,7.02-.95,2.56-2.35,4.83-3.84,6.94-1.51,2.11-3.16,4.01-4.73,6.04-1.68,2.17-4.26,4.7-7.23,5.42-.32,.09-.88,1.27-1.52,1.7-2.47,1.72-4.98,3.3-7.52,4.77-2.53,1.4-5.06,2.75-7.61,4.09-1.18,.62-2.99,.31-3.63,1.7-.69,1.48-2.81,.46-3.22,2.01-.05,.24-1.15,.75-1.76,.92-3.32,.93-6.42,2.35-9.49,3.89-1.54,.75-3.04,1.59-4.6,2.3-1.57,.69-3.15,1.36-4.75,1.96-1.53,.57-3.07,1.73-4.64,1.33-1.71,1.28-3.81,1.95-5.93,2.5-2.12,.56-4.19,1.19-5.79,2.7-2.9,.73-5.58,2.77-8.68,2.55-.5-.04-1.39,.53-1.95,.53-1.9-.01-2.45,2.01-4.82,1.79-1.36-.13-3.54,.88-5.34,1.41-1.66,.53-3.35,.93-5.03,1.38l-5.56,1.45c-1.85,.48-3.73,.9-5.55,1.46-3.73,.97-7.28,2.46-11.2,3-.42,.06-1.11,.34-1.23,.55-.51,.88-1.29,1.22-2.11,1.31-.83,.06-1.7-.11-2.4-.21-1.17-.17-2.14-.19-3.34,.03-3.26,.57-6.51,1.2-9.78,1.63-1.94,.2-3.95,.95-5.92,.25-.61-.22-2.16,.05-3.01,.38-1.98,.75-4.06,1.15-6.16,1.39-2.1,.2-4.23,.29-6.31,.56-1.89,.25-3.8,.4-5.7,.55-1.44,.11-2.83,.92-4.33,.38-6.95,1.66-14.23,1.43-21.34,1.77-3.54,.19-7.09,.41-10.64,.45l-10.64,.11c-1.77,.02-3.75,.54-5.33-.48-.3-.19-1.58-.18-1.95,.02-1.03,.54-1.81,.83-2.97,.1-.21-.13-1.18,.02-1.7,.16-1.45,.4-2.74,.35-4.25-.02-1.17-.29-2.75-.46-3.9-.25-3.07,.52-5.99,.97-9.05-.14-.37-.13-1.43,.53-2.11,.48-2.64-.18-5.36,.35-7.97-.53-1.07-.36-2.66-.15-4-.27-1.15-.11-2.28-.04-3.42,.02l-.86,.03h-.43s-.57,0-.57,0c-1.05-.02-2.12-.07-3.17-.18-.53-.04-1.07-.09-1.61-.13-.29,0-.52-.07-.74-.14l-.69-.2c-.47-.12-.94-.25-1.41-.37-.42-.15-.74-.34-1.13-.5-.34-.14-.8-.42-1.24-.67l-1.33-.77-.33-.19c-.02-.1,.03-.24,.04-.36l.11-.74c.08-.49,.16-.98,.24-1.47l.98-5.89c.04-.47,.24-1.03,.41-1.57l.47-1.37,.65-1.87c.83-2.51,1.81-4.96,2.74-7.43,.98-2.45,1.99-4.89,3.05-7.31,1.1-2.4,2.15-4.83,3.35-7.18l1.76-3.55,1.88-3.49c.86-1.64,1.84-3.06,3.11-4.46,3.23-3.61,6.15-8.48,9.59-14.69,.25-.44,.61-.85,.93-1.28,4.06-5.52,8.27-11.02,13.19-15.79,1.04-1.08,2.22-2.03,3.37-3.02,1.16-.97,2.26-2.02,3.37-3.08,1.35-1.31,2.79-2.46,3.83-4.11l4.95,6.03-.22,.3c-.98,1.4-3.35,2.06-4.3,3.95-.35,.69-1.83,1.79-2.73,2.12-3.01,1.1-5.28,3.43-7.82,5.26-2.93,2.1-5.79,4.31-8.61,6.54-1.39,1.1-2.98,1.92-3.94,3.64-.47,.84-2.32,1.93-3.55,2.46-1.89,.83-3.42,2.13-4.78,3.45-2.91,2.84-2.82,2.9-6.32,4.9-.42,.24-.83,.55-1.21,.86-1.94,1.54-3.96,3.04-5.93,4.56-1.95,1.54-3.86,3.12-5.57,4.83-2.84,2.87-5.86,5.37-8.86,7.97-1.19,1.03-2.31,2.54-3.96,2.66-.24,.02-.9,.62-1.11,.97-1.79,2.99-4.86,4.91-7.4,7.23-2.49,2.22-4.09,4.98-6.75,7.12-2.44,2.05-4.7,4.41-6.98,6.67-3.46,3.45-4.63,3.77-6.57,1.85-1.6-1.59-1.07-2.81,1.42-5.98,5.32-6.68,12.09-11.94,17.05-16.71Z"/>
      </g>
      <g>
        <path class="cls-6" d="M180.61,172c27.01-27.61,61.02-52.69,92.57-76.6-24.58,21.79-41.03,51.09-49.61,80.32l1.53,.92c90.61,2.57,161.18-.1,236.09-43.3,10.88-6.28,21.85-14.47,23.67-25.5,2.75-16.67-16.07-29.8-33.46-37.98-39.09-18.38-101.81-28.91-146.04-34.52l-5.26-.98c-39.77-2.31-70.72-.95-110.22,3.59-39.5,4.54-78.86,16.47-108.14,39.35-19.87,15.53-34.65,41.65-19.72,60.73,4.27,5.46,19.33,30.13,120.95,35.47"/>
        <path class="cls-6" d="M199.78,151.28c6.29-5.55,11.55-9.94,16.74-14.38,.8-.7,1.39-1.86,2.44-2.69,4.16-3.34,8.15-7.16,12.56-9.87,4.81-2.96,9.3-6.34,13.3-9.93,3.79-3.41,7.85-6.34,11.78-9.48,1.32-1.05,2.58-2.14,4.4-2.78,1.33-.46,3.32-1.91,4.3-3.61,.19-.33,.89-.67,1.38-.95,.52-.3,1.28-.47,1.57-.82,1.03-1.25,2.2-2.34,3.45-3.36l3.14,3.83c-1.19,1.19-2.47,2.3-3.75,3.41-1.28,1.11-2.47,2.32-3.6,3.56-.41,.46-.91,.87-1.33,1.32-.41,.47-.73,.98-.8,1.63-.04,.33-.82,1.23-1.2,1.37-.98,.37-1.74,1-2.49,1.89-1.62,1.96-3.32,3.84-4.86,5.87l-2.36,2.99-2.25,3.08c-.68,2.57-2.54,4.66-4.05,6.85-1.07,1.68-2.42,3.18-3.65,4.77-1.18,1.65-1.72,3.83-3.45,5.07-.27,.2-.4,1.02-.65,1.52-.57,1.13-1.09,2.32-1.65,3.46-.53,1.16-1.08,2.29-1.76,3.28-.69,1.02-1.4,2.04-1.89,3.16-1.67,3.58-3.23,7.22-4.66,10.9-.69,1.85-1.44,3.68-2.06,5.56l-.93,2.71c-.24,.66-.43,1.32-.64,1.98l-.61,1.98-.15,.49c-.07,.1,.08,.11,.13,.17l.22,.13,.44,.27,.22,.13c.08,.02,.17,0,.26,.02l4.19,.1,11.97,.26c1.39,.02,2.71,.15,4.19-.41,1.16-.44,3.67-.43,4.77,.05,1.77,.77,3.46,.49,5.17,.56,3.15,.1,6.31-.03,9.46,.06,1.87,.05,3.95-.46,5.59,.56,.16,.1,.75,.1,.96,0,2.07-1,4.09-.23,6.18-.13,1.51,.07,3.03,.03,4.67-.48,1.59-.5,4.27-.61,5.76-.15,2,.6,3.82,.3,5.67,.24l8.21-.29c2.74-.13,5.47-.33,8.2-.5,2.73-.19,5.47-.34,8.2-.57l8.17-.82c1.29-.13,2.57-.32,3.84-.52l1.91-.32,1.9-.39c2.53-.52,5.07-.98,7.68-1.15,1.24-.08,2.53-.63,3.74-.07,.25,.11,1.23-.09,1.59-.35,1.3-.86,2.74-.86,4.33-1.1,1.8-.26,3.61-.53,5.42-.79,1.81-.28,3.63-.48,5.41-.88,3.58-.73,7.12-1.54,10.55-2.58l2-.58,1.98-.61c1.32-.39,2.64-.76,3.96-1.12,2.64-.72,5.29-1.39,7.92-2.16,1.73-.59,3.63-.68,5.44-1.14,1.75-.44,3.49-1.03,5.21-1.61,1.02-.35,2.13-.48,2.96-1.33,.45-.46,1.87-1.1,2.54-1.07,2.26,.06,4.29-1.02,6.36-1.76l4.43-1.6c1.48-.53,2.9-1.2,4.36-1.8l8.69-3.66c1.44-.56,2.8-1.71,4.42-1.52,.22,.03,.9-.61,1.38-.94,.5-.34,1.07-.9,1.52-.98,2.08-.38,4.02-1.18,5.9-2.11,.94-.47,1.88-.95,2.8-1.46,.91-.54,1.81-1.07,2.73-1.56l6.68-3.59c2.22-1.21,4.46-2.4,6.59-3.71,4.28-2.62,8.43-5.45,12.08-8.79,2.05-1.88,3.09-4.17,4.57-6.25,1.44-2.04,2.46-4.3,3.14-6.62,.47-1.68,.29-3.45,1.13-5.07,.26-.45,.12-1.75-.18-2.23-1.14-1.77-1.34-3.85-2.36-5.68-.59-1.1-1.18-2.24-1.87-3.32-.73-1.06-1.57-2.05-2.75-2.69-.61-.35-1.12-1.65-1.84-2.42-1.22-1.34-2.56-2.6-4.01-3.73-.69-.54-1.57-.82-2.29-1.32-5.55-3.91-11.68-7.05-17.91-9.91-6.43-2.82-12.91-5.62-19.6-7.93l-5.01-1.75-5.07-1.6c-3.36-1.11-6.79-2.06-10.18-3.11-2.54-.81-5.52-.83-7.59-2.64-2.56,.07-4.53-.91-6.42-2.2-.27-.19-1.11-.04-1.7-.07-1.83-.12-3.77,.67-5.4-1.1-.06-.07-.32-.06-.47-.12-1.57-.55-3,.51-4.87-.74-1.17-.77-3.29-1.04-5-1.46-1.77-.41-3.57-.84-5.35-1.1-1.85-.26-3.72-1.3-5.64-.64-.31,.11-1.53-.84-2.33-.95-2.07-.27-4.11-.85-6.17-1.28-2.06-.42-4.14-.73-6.27-.51-.97,.1-2.43-.19-3.37-.6-3.41-1.44-6.81-1.57-10.51-1.84-4.87-.35-10.04-.99-14.57-2.9-.97-.41-1.38-.68-2.46-.39-.71,.19-1.87-.03-2.81-.16l-7.91-1.08c-2.66-.37-5.31-.63-7.97-1.1l-3.94-.74c-.28-.06-1.09-.07-1.72-.11l-1.99-.1c-2.65-.15-5.3-.27-7.95-.37-2.88-.13-5.54-1.16-8.52-.9-1.22,.1-2.65-.41-3.68,.38-.14,.11-.65,.16-.88,.1-3.54-1.02-7.09,.3-10.62-.12-.75-.08-1.48-.26-2.23-.35-.77-.1-1.66-.33-2.32-.19-5.41,1.18-11.01,.45-16.49,.94-1.86,.18-3.94-.27-5.56,.79-.24,.16-1.07,.19-1.43,.08-3.26-1.03-6.72,.09-10.06,0-1.72-.06-3.57,.75-5.17-.11-.2-.11-.88,.04-1.3,.14-.73,.18-1.42,.54-2.13,.59-1.97,.12-4.17-.24-5.87,.23-2.11,.59-4.14,.62-6.2,.84-1.18,.12-2.39-.19-3.61-.17-1.14,.02-2.31,.22-3.47,.34-1.65,.16-3.35,.54-4.94,.49-1.65-.04-2.83,1.1-4.69,.64-1.43-.35-2.88,.78-4.39,1.08-.75,.15-1.58,.13-2.35,.14-.59,0-1.19-.23-1.73-.12-1.21,.24-2.42,.24-3.67,.87-.86,.42-2.54,.15-3.86,.32-1.3,.16-2.61,.45-3.91,.68-1.31,.21-2.74,.33-3.87,.79-2.48,1.02-5.06,1.64-7.65,2.26l-3.91,.84c-1.29,.31-2.58,.64-3.86,1.01-1.31,.39-2.75,1.09-4.11,.6-.24-.09-1,.12-1.35,.33-2.25,1.31-4.71,2.04-7.17,2.84-2.47,.76-4.99,1.41-7.32,2.48-1.66,.76-3.32,1.49-4.94,2.31-1.63,.81-3.28,1.57-5.02,2.22-3.32,1.37-6.85,2.62-9.74,4.58-1.19,.79-2.39,1.55-3.59,2.29-1.18,.76-2.39,1.45-3.66,2.02-2.53,1.08-3.81,4-6.85,4.11-1.2,.69-2.31,1.51-3.46,2.27-1.14,.78-2.3,1.53-3.45,2.28-1.89,1.34-3.57,3.04-5.89,3.73-.82,.26-2.05,1.28-2.54,2.08-1.58,2.54-3.72,4.21-6.04,6-.54,.43-.83,1.34-1.32,1.94-1.56,1.8-2.99,3.72-4.48,5.54-4.46,5.5-6.78,12.2-8.15,18.56-.26,1.2,.22,2.59-.06,3.58-.46,1.54-.58,3.13-.56,4.71,.1,1.57,.32,3.14,.8,4.62,.87,3.01,2.46,5.67,4.08,8.37,.31,.52,.74,1.16,1.08,1.68,.35,.5,.69,1.01,1.05,1.5,.76,.93,1.5,1.89,2.39,2.72,.43,.43,.85,.87,1.3,1.28l1.43,1.18c.48,.39,.94,.8,1.45,1.16l1.56,1.05c1.04,.71,2.06,1.42,3.2,2.01l3.32,1.86,3.47,1.66c1.15,.57,2.29,1.15,3.5,1.62,1.23,.53,2.28,1.73,2.95,1.78,2.05,.18,4.04,1.4,5.78,1.46,1.56,.06,2.99,.46,4.39,.94,1.42,.44,2.83,.9,4.28,1.19,2.12,.4,4.2,1.64,6.38,1.12,.32-.08,1.04,.11,1.39,.31,2.9,1.6,6.26,.96,9.26,2.02,6.13-.1,12.01,1.87,18.12,2.34,.89,.08,1.79-.04,2.68-.06,.45,0,1-.09,1.36,.05,1.33,.48,2.69,.84,4.06,1.11,1.39,.23,2.79,.37,4.2,.49,2.82,.24,5.65,.37,8.42,.81,1.83,.3,3.61,.81,5.46,1.03,1.86,.25,3.81,.08,5.52,.95,.53,.27,1.62,.22,2.42,.19,4.34-.21,7.46,1.6,7.4,4.14-.02,.92-.92,.92-1.88,1.19-1.85,.54-3.67,.84-5.87,.62-1.71-.17-3.56-.58-5.15,.19-.27,.13-1.05,.05-1.45-.09-1.44-.5-2.99-.62-4.53-.77-1.54-.16-3.06-.29-4.42-.7-2.09-.62-4.07-.71-6.08-1.09-1.69-.32-3.51-.02-5.13-1-.54-.35-2.3,.12-3.49-.01-2.81-.3-5.65-.64-8.43-1.14-2.12-.34-4.22-.74-6.34-1.04-2.11-.31-4.23-.56-6.36-.82-2.13-.22-4.23-.59-6.34-.99-2.1-.4-4.2-.85-6.29-1.4-3.12-.18-6.16-1.05-9.18-1.91-1.52-.4-2.99-.99-4.48-1.48-1.49-.5-2.98-.96-4.5-1.32-7.27-1.99-14.1-5.33-20.65-9.32-.67-.42-1.27-.82-1.82-1.24-.28-.21-.54-.42-.8-.65-.25-.24-.48-.51-.71-.79-.6-.73-1.22-1.49-1.95-2.1-1.34-1.26-2.72-2.49-3.94-3.89-.64-.67-1.21-1.4-1.78-2.12-.58-.74-1.02-1.34-1.58-2.15-1.17-1.59-2.84-3.32-2.68-5.38,0-.27-.34-1.09-.62-1.4-1.15-1.28-1.77-2.94-2.17-4.64-.19-.85-.3-1.73-.42-2.6-.06-.87-.19-1.74-.24-2.59-.13-1.31-.07-2.59,.38-3.97,.53-1.49,.74-3.8,.75-5.42-.06-1.24,.24-2.26,.46-3.39,.5-2.34,1.56-4.53,2.61-6.66,1.04-2.15,2.14-4.2,2.77-6.5,2.2-1.48,3.57-4.06,4.85-6.15,2.43-4.01,5.6-7.51,9.04-10.65,1.73-1.57,3.55-3.04,5.39-4.47,1.86-1.35,3.71-2.71,5.53-4.12,1.8-1.3,3.94-2.13,5.84-3.3,2.03-1.19,4.06-2.42,6.04-3.7,1.06-.69,2.54-1.02,3-2.24,.03-.09,.21-.23,.33-.29,1.25-.53,2.59-.92,3.72-1.6,1.03-.57,1.76-1.56,2.77-2.23,1.21-.79,2.54-1.51,3.89-2.13,1.29-.6,2.62-1.4,3.97-1.21,.65-1.3,2.34-1.56,3.63-2.14,1.22-.57,2.5-1.03,3.76-1.54,1.4-.6,2.84-1.09,4.27-1.62,1.43-.52,2.89-.99,4.28-1.58,1.92-.77,3.75-1.72,5.7-2.46,2.05-.78,4.19-1.36,6.31-1.9,2.66-.7,5.38-1.04,8.06-1.6,1.11-.23,1.99-.67,2.99-1.23,1.32-.75,2.94-2.09,5.06-1.31,.42,.14,1.71-.18,2.4-.49,2.74-1.21,5.65-1.88,8.61-2.31l4.44-.66c1.48-.19,2.95-.42,4.4-.73,3.36,.41,6.42-.5,9.75-1.21,4.86-.96,10.04-1.66,14.91-1.6,5.15,.09,10.12-.7,15.17-.88,1.42-.04,2.93-.51,4.19,.25,.29,.17,1.36,.04,1.93-.13,4.02-1.17,8.03-1.16,12.24-.78,2.22,.19,4.69-.26,7.12-.69,3.65-.61,7.66-.37,11.51-.41,1.68,1.02,2.96-.06,3.81-.52,1.14-.61,2.21-.72,3.57-.74,1.75-.04,3.47,.18,5.21-.49,.89-.34,2.86-.25,3.81,.14,1.27,.51,1.75,.3,2.92,0,1.38-.35,2.8,.64,4.53,.65,1.85,0,4.03-.45,5.62,.7,.14,.1,.71,.11,.97,.04,3.47-.97,6.8,.78,10.22,.48l1.9,.31,.95,.14c.35,.05,.53,.08,1.14,.13,.27,.02,.54,.11,.79,.16l.46,.12,.91,.22,1.82,.42c.61,.13,1.21,.28,1.83,.38l1.87,.27,3.75,.48,7.58,.94c2.54,.33,5.06,.7,7.57,1.19,4.14,.78,8.21,2.23,12.38,2.39,8.77,.35,17.27,2.56,25.87,4.02,1.82,.31,4.01,.23,5.44,1.59,.2,.18,1.03,.34,1.42,.29,2.9-.4,5.48,.45,8.07,1.66,.63,.29,1.86,.55,2.32,.38,1.29-.46,2.54,.12,3.74,.41,1.46,.35,3.25,1.41,4.21,1.25,2.04-.33,2.88,.79,4.26,1.27,.85,.3,1.86,.33,2.8,.44,.44,.05,1.06-.13,1.29,0,2.64,1.56,5.75,1.08,8.48,2.18,.58,.24,1.23,.39,1.79,.65,3.17,1.48,4.73,2.28,6.58,2.89,.92,.31,1.92,.57,3.21,.88,1.3,.32,2.88,.71,5,1.23,1.87,1.95,5.14,.98,7.26,2.81,.77,.65,2.51,1.18,3.72,1.33,.66,.08,1.31,.19,1.96,.33,.64,.16,1.27,.34,1.9,.54,1.26,.41,2.49,.88,3.71,1.39,2.47,.96,4.83,2.2,7.31,3.11,1.04,.38,1.44,1.51,3.02,1.44,.6-.02,1.9,1.46,2.99,1.97,1.59,.75,2.99,2.01,4.92,2.12,.8,.04,2.03,1.06,3.08,1.6,1.44,.73,2.63,1.88,4.38,2.19,.96,.17,2.7,1.36,3.33,2.25,1.31,1.82,2.85,3.11,4.51,4.29,1.65,1.18,3.4,2.27,4.96,3.65,.94,.83,1.62,1.42,2.26,2.61,.92,1.66,1.93,3.95,2.96,5.07,1.9,1.99,2.58,4.65,3.14,7.28,.5,2.29,.62,4.7,.4,7.05-.21,2.35-.85,4.64-1.59,6.84-.92,2.49-2.28,4.7-3.74,6.75-1.47,2.06-3.07,3.9-4.59,5.88-1.62,2.11-4.13,4.58-7.02,5.25-.31,.08-.85,1.25-1.46,1.66-2.39,1.67-4.83,3.2-7.29,4.63-2.45,1.35-4.9,2.67-7.37,3.96-1.14,.6-2.91,.27-3.52,1.64-.65,1.46-2.73,.42-3.11,1.96-.05,.24-1.11,.73-1.71,.89-3.22,.88-6.23,2.26-9.2,3.75-1.49,.73-2.95,1.54-4.46,2.23-1.52,.67-3.05,1.32-4.6,1.89-1.49,.55-2.97,1.69-4.5,1.27-1.65,1.26-3.69,1.9-5.74,2.43-2.06,.54-4.06,1.14-5.61,2.63-2.81,.7-5.4,2.7-8.41,2.45-.49-.05-1.34,.51-1.89,.51-1.84-.03-2.36,1.98-4.67,1.75-1.32-.14-3.43,.84-5.17,1.35-1.61,.51-3.25,.9-4.88,1.34l-5.38,1.4c-1.79,.47-3.61,.87-5.38,1.42-3.61,.95-7.04,2.41-10.84,2.92-.41,.06-1.07,.33-1.19,.54-.49,.87-1.24,1.21-2.04,1.29-.8,.06-1.65-.12-2.33-.23-1.14-.18-2.08-.2-3.24,0-3.15,.55-6.31,1.17-9.47,1.58-1.88,.19-3.82,.94-5.73,.23-.59-.22-2.09,.04-2.91,.37-1.92,.74-3.93,1.13-5.96,1.36-2.04,.19-4.09,.28-6.11,.55-1.83,.24-3.68,.39-5.52,.53-1.4,.11-2.74,.91-4.19,.37-6.73,1.64-13.78,1.4-20.67,1.73-3.43,.19-6.87,.4-10.3,.44l-10.3,.11c-1.72,.01-3.63,.54-5.17-.48-.29-.19-1.53-.18-1.89,.02-1,.54-1.75,.83-2.88,.1-.21-.13-1.15,.02-1.65,.16-1.4,.4-2.65,.35-4.11-.02-1.13-.29-2.66-.46-3.77-.25-2.98,.52-5.8,.97-8.76-.13-.36-.13-1.39,.53-2.05,.48-2.56-.18-5.19,.35-7.72-.53-1.04-.36-2.58-.14-3.87-.27-1.11-.11-2.2-.03-3.31,.02l-.83,.03h-.42s-.76,0-.76,0c-1.02-.02-2.05-.07-3.07-.17-.51-.05-1.03-.1-1.56-.13-.47-.1-.89-.26-1.35-.37-.45-.12-.91-.24-1.37-.36l-1.06-.5c-.33-.13-.78-.4-1.2-.65l-1.29-.74-.32-.19c-.02-.1,.02-.23,.03-.34l.1-.71c.07-.47,.14-.95,.22-1.42l.9-5.67c.04-.45,.23-.99,.39-1.52l.52-1.52,.63-1.81c.8-2.43,1.76-4.81,2.65-7.2,.95-2.37,1.93-4.74,2.95-7.08,1.07-2.33,2.08-4.68,3.25-6.96l1.71-3.44,1.82-3.38c.84-1.59,1.78-2.96,3.03-4.32,3.16-3.48,5.99-8.19,9.29-14.23,.24-.43,.6-.83,.9-1.24,3.93-5.35,8.01-10.68,12.78-15.3,1.01-1.04,2.15-1.96,3.27-2.92,1.13-.94,2.2-1.95,3.27-2.98,1.31-1.27,2.7-2.38,3.7-3.99l4.95,6.03-.21,.29c-.94,1.37-3.25,1.98-4.15,3.84-.33,.68-1.76,1.74-2.64,2.06-2.93,1.05-5.12,3.31-7.58,5.08-2.83,2.03-5.6,4.17-8.33,6.33-1.34,1.06-2.89,1.86-3.8,3.53-.45,.82-2.25,1.87-3.44,2.38-1.84,.79-3.31,2.05-4.63,3.34-2.81,2.76-2.72,2.82-6.12,4.75-.41,.23-.8,.53-1.18,.83-1.88,1.49-3.84,2.94-5.74,4.41-1.89,1.49-3.73,3.02-5.39,4.68-2.74,2.79-5.66,5.21-8.56,7.72-1.16,1-2.22,2.47-3.85,2.56-.23,.01-.88,.59-1.08,.94-1.71,2.92-4.7,4.77-7.15,7.01-2.41,2.15-3.94,4.84-6.51,6.91-2.37,1.98-4.54,4.27-6.76,6.46-3.35,3.34-4.49,3.64-6.43,1.72-1.61-1.59-1.1-2.78,1.3-5.86,5.13-6.49,11.7-11.57,16.49-16.2Z"/>
      </g>
      <g class="cls-12">
        <g class="cls-12">
          <path class="cls-5" d="M131.73,37.76c-2.8,.94-5.68,1.91-8.46,2.85-1.38,.49-2.71,1.04-3.98,1.6-1.27,.56-2.47,1.15-3.53,1.86-.47,.3-.96,.61-1.45,.92l.81-.3c6.16-2.24,12.81-4.69,19.12-6.87,1.9-.73,3.89-1.5,5.88-2.26,2.01-.75,4.13-1.37,6.35-1.91,.49-.12,.49-.44,.48-.6-.49-.08-.92-.19-1.32-.32-1.79,.56-3.58,1.12-5.37,1.72-1.78,.63-3.58,1.24-5.43,1.79-1.22,.37-2.38,1.32-3.11,1.55Z"/>
          <polygon class="cls-8" points="145.79 32.7 145.72 32.68 145.17 32.85 145.79 32.7"/>
          <path class="cls-4" d="M137.06,35.6c-1.17,.45-2.35,.79-3.51,1.19-.72,.39-1.35,.83-1.82,.97-2.8,.94-5.68,1.91-8.46,2.85-1.38,.49-2.71,1.04-3.98,1.6-1.27,.56-2.47,1.15-3.53,1.86-.47,.3-.95,.6-1.43,.91l.87-.33c2.11-.82,4.34-1.55,6.54-2.38,.11-.06,.23-.13,.33-.19,1.14-.72,2.39-.87,3.58-1.29,3.31-1.45,6.25-2.16,9.62-3.45,1.22-.42,2.41-1.15,3.88-1.56,.5-.16,.98-.29,1.46-.4,1.89-.67,3.86-1.25,5.94-1.76,.49-.12,.49-.44,.48-.6-.26-.04-.49-.1-.72-.15-1.7,.38-3.38,.83-5.1,1.25l-4.41,1.5c.07,0,.15,.01,.26,0Z"/>
          <path class="cls-8" d="M136.77,35.19c-.21,.06-.4,.35,.03,.41l4.41-1.5c-1.44,.38-2.9,.79-4.44,1.09Z"/>
          <path class="cls-9" d="M136.69,34.06c-3.01,.7-5.63,2.11-8.12,2.61-1.29,.31-2.59,.57-3.77,.68-.4,.15-.79,.31-1.18,.46-9.68,3.93-18.99,8.56-28.09,13.4-4.54,2.48-8.28,5.55-12.42,8.79-1.26,.92-2.43,1.71-3.63,2.43-1.2,.73-2.42,1.42-3.69,2.28-6.48,4.13-10.67,9.47-15.94,15.13-1.44,1.52-.74,2.61-.37,2.26,4.45-4.68,9.17-8.83,14.06-12.75,4.94-3.86,10.04-7.49,15.34-11.17,8.27-5.62,16.73-9.96,25.44-13.2,.49-.31,.98-.62,1.45-.92,1.06-.71,2.26-1.29,3.53-1.86,1.27-.56,2.6-1.1,3.98-1.6,2.78-.93,5.66-1.9,8.46-2.85,.73-.23,1.89-1.17,3.11-1.55,1.85-.56,3.64-1.17,5.43-1.79,1.79-.6,3.58-1.15,5.37-1.72-.84-.26-1.55-.56-2.39-.69-1.11,.38-2.22,.75-3.29,1.11-1.09,.37-2.18,.7-3.27,.95Z"/>
          <path class="cls-7" d="M136.69,34.06c1.1-.25,2.18-.58,3.27-.95,1.07-.36,2.17-.73,3.29-1.11-.41-.07-.86-.09-1.36-.05-1.42,.17-2.85,.5-4.28,.87-1.44,.39-2.9,.79-4.33,1.29-2.87,1.02-5.74,2.11-8.47,3.22,1.18-.11,2.48-.36,3.77-.68,2.49-.5,5.12-1.92,8.12-2.61Z"/>
          <path class="cls-4" d="M136.69,34.06c2.09-.48,4.15-1.26,6.26-1.95-.74,.12-1.48,.27-2.22,.44-1.87,.49-3.73,1.06-5.6,1.58-1.87,.52-3.7,1.12-5.57,1.57,3.91-1.33,7.86-2.52,11.84-3.69-5.5,.89-11.29,3.2-16.59,5.33,1.18-.11,2.47-.36,3.76-.67,2.49-.5,5.12-1.92,8.12-2.61Z"/>
          <path class="cls-3" d="M130.79,36.14c1.11-.33,2.22-.67,3.33-1l3.35-.95c1.11-.33,2.23-.67,3.35-1,1.13-.32,2.25-.65,3.38-1.01-.22-.06-.45-.12-.68-.17-.2,.03-.39,.06-.58,.09-2.1,.69-4.17,1.47-6.26,1.95-3.01,.7-5.63,2.11-8.12,2.61-1.29,.31-2.58,.57-3.76,.67-.37,.14-.74,.29-1.11,.43-1.24,.48-2.47,1-3.69,1.55-1.22,.53-2.44,1.06-3.66,1.58-2.41,1.13-4.83,2.2-7.22,3.36-3.97,2.36-8.47,4.55-12.78,6.74,1.96-1.15,3.96-2.24,5.96-3.36l-3.38,1.72c-1.11,.59-2.22,1.19-3.33,1.78-.96,.53-1.89,1.06-2.8,1.64-.89,.59-1.77,1.19-2.64,1.8-.21,.48-.66,1.05-1.62,1.74-1.48,1.09-2.98,2.09-4.38,3.35-.22,.14-.31-.08-.74,.19,1.21-.78,2.1-1.56,2.82-2.35-1.01,.79-2.03,1.6-3.06,2.41-1.97,1.46-3.76,2.52-5.72,3.68-.19,.15-.38,.31-.57,.46-.94,.77-1.83,1.63-2.72,2.5,.4-.3,.81-.6,1.23-.91-.55,.6-1.38,1.22-2,1.68,.26-.26,.51-.51,.77-.77-.96,.71-1.89,1.39-2.88,2.19,1.19-.98,2.39-2.01,3.35-2.93-2.27,1.73-4.19,3.5-6.49,5.12l.14-.17c-2.84,2.81-5.45,5.82-8.38,8.98-1.44,1.52-.75,2.61-.37,2.26,6.19-6.57,12.94-12.06,20.01-17.25-.91,.43-1.8,.9-2.7,1.4-.37,.24-.74,.45-1.11,.61l1.11-.61c1-.65,2.04-1.46,3.17-2.08,.24-.07,.87-.51,.99-.87,.77-.43,1.55-1,2.33-1.56,.79-.55,1.6-1.08,2.37-1.49,.09-.06,.27-.1,.49-.14,.91-.64,1.82-1.28,2.73-1.92,5.19-3.48,10.41-6.53,15.74-9.08-1.32,.54-2.62,1.04-3.84,1.44-.85,.24-2.03,.9-3.32,1.71-1.29,.81-2.72,1.72-4.01,2.57-.63,.47-1.15,.5-1.81,.89,1.94-2.04,5.25-3.34,7.89-4.98,1.81-.99,4.05-2.09,6.33-3.15,2.31-1.02,4.59-2.19,6.55-3.28,1.6-.93,3.3-1.43,4.77-1.76-.45,.33-1.38,.75-1.86,.95-2.11,.92-4.25,1.77-6.32,2.79-2.08,.99-4.17,1.99-6.19,3.14,4.39-1.98,8.54-4.09,13.07-5.66-2.56,1.18-5.23,1.94-7.43,3.45,.22-.04,.45-.09,.68-.15,1.69-.76,3.41-1.42,5.14-2.05,.49-.31,.97-.61,1.43-.91,1.06-.71,2.26-1.29,3.53-1.86,1.27-.56,2.6-1.1,3.98-1.6,2.78-.93,5.66-1.9,8.46-2.85,.46-.14,1.1-.58,1.82-.97-1.82,.59-3.66,1.07-5.47,1.72,.74-.21,1.48-.32,2.18-.38-1.7,.59-3.17,.82-4.86,1.47,.89-.41,1.78-.77,2.67-1.1-1.12,.29-2.28,.68-3.44,1.03,2.12-1.08,4.36-1.22,6.5-2.34-.48,.16-.96,.31-1.44,.44l1.47-.46h-.03c1.46-.47,2.86-1.14,4.15-1.67-2.53,.82-4.9,1.27-7.37,2.14l-1.2,.49c.4-.18,.8-.34,1.2-.49,5.61-2.08,11.43-3.56,17.25-4.81l.54-.17c-.19-.06-.37-.12-.55-.18-2.4,.58-4.84,1.11-7.23,1.76l-3.6,.9c-1.18,.33-2.36,.65-3.54,.98Z"/>
        </g>
      </g>
      <g class="cls-12">
        <g class="cls-12">
          <path class="cls-5" d="M476.17,140.03c-5.25,3.31-11.42,5.42-15.79,8.34-.48,.32-.98,.64-1.49,.97l.84-.33c6.31-2.48,13.14-5.59,19.01-9.59,3.57-2.57,6.82-5.67,10.31-9.02,.39-.37,.22-.64,.13-.78-.48,.19-.93,.32-1.34,.42-2.64,2.83-5.57,5.43-8.89,7.66-1.12,.7-2.07,1.93-2.77,2.32Z"/>
          <polygon class="cls-8" points="487.98 129.97 487.89 129.99 487.49 130.41 487.98 129.97"/>
          <path class="cls-4" d="M480.94,136.4c-1.01,.82-2.06,1.56-3.15,2.22-.62,.58-1.17,1.16-1.62,1.41-5.25,3.31-11.42,5.42-15.79,8.34-.48,.31-.97,.63-1.47,.96l.9-.36c2.19-.86,4.43-1.8,6.68-2.82,.11-.07,.23-.15,.34-.22,1.14-.81,2.4-1.14,3.59-1.75,3.27-1.91,6.16-3.29,9.26-5.54,1.11-.8,2.08-1.92,3.38-2.86,.43-.34,.86-.66,1.29-.95,1.56-1.44,3.16-2.91,4.77-4.49,.39-.37,.22-.64,.13-.78-.25,.1-.5,.18-.73,.25-1.32,1.23-2.66,2.45-4.09,3.6-1.18,1.08-2.43,2.1-3.73,3.07,.07-.02,.15-.04,.25-.08Z"/>
          <path class="cls-8" d="M480.54,136.1c-.19,.13-.28,.48,.15,.38,1.3-.97,2.55-1.99,3.73-3.07-1.21,.97-2.49,1.87-3.88,2.69Z"/>
          <path class="cls-9" d="M480.1,135.06c-2.6,1.68-4.93,3.58-7.3,4.6-1.23,.55-2.5,.98-3.67,1.25-.38,.2-.75,.41-1.12,.61-4.62,2.53-9.41,4.84-14.19,7.12-4.78,2.27-9.59,4.45-14.43,6.46-4.83,2.09-9.06,4.56-13.85,7-2.9,1.33-5.41,1.98-8.38,2.93-7.44,2.28-13.26,5.84-20.72,8.64-2.01,.75-1.91,2.04-1.41,1.89,12.65-4.44,24.59-8.57,36.66-14.27,9.36-4.4,18.23-8.39,27.2-11.93,.51-.33,1-.65,1.49-.97,4.37-2.92,10.55-5.03,15.79-8.34,.7-.39,1.65-1.62,2.77-2.32,3.33-2.24,6.25-4.83,8.89-7.66-.87,.22-1.65,.29-2.46,.56-1.6,1.68-3.33,3.27-5.27,4.45Z"/>
          <path class="cls-7" d="M480.1,135.06c1.94-1.18,3.67-2.78,5.27-4.45-.4,.13-.79,.32-1.23,.56-4.68,3.11-9.77,6.87-15.01,9.73,1.17-.27,2.44-.69,3.67-1.25,2.37-1.02,4.7-2.92,7.3-4.6Z"/>
          <path class="cls-4" d="M480.1,135.06c1.85-1.12,3.5-2.64,5.05-4.22-.59,.46-1.22,.88-1.8,1.36-3.04,2.39-6.28,4.62-9.75,6.3,3.58-2.08,7.03-4.36,10.13-7.07-4.55,3.06-9.51,6.7-14.58,9.47,1.16-.27,2.43-.69,3.66-1.24,2.37-1.02,4.7-2.92,7.3-4.6Z"/>
          <path class="cls-3" d="M474.9,138.66c4.12-2.25,8.07-4.93,11.41-8.35-.23,.05-.46,.1-.68,.17-.16,.12-.32,.23-.48,.35-1.55,1.58-3.2,3.1-5.05,4.22-2.6,1.68-4.93,3.58-7.3,4.6-1.23,.55-2.49,.98-3.66,1.24-.35,.19-.71,.38-1.06,.57-4.72,2.59-9.61,4.94-14.49,7.27-4.08,2.36-8.76,4.44-13.35,6.24,2.11-.95,4.21-1.95,6.3-2.98-2.35,1.05-4.71,2.08-7.07,3.06-2.04,.89-3.98,1.84-5.9,2.83-.29,.45-.82,.96-1.89,1.52-1.67,.87-3.37,1.56-5.02,2.58-.24,.1-.29-.14-.78,.06,1.37-.54,2.41-1.18,3.27-1.82-1.16,.61-2.32,1.24-3.53,1.84-2.28,1.05-4.32,1.67-6.53,2.35l-.68,.3c-1.13,.49-2.25,1.08-3.37,1.69,.48-.18,.96-.36,1.47-.55-.71,.43-1.7,.81-2.44,1.07,.33-.18,.65-.35,.98-.52-1.15,.42-2.25,.81-3.47,1.26,1.48-.54,2.95-1.22,4.15-1.85-2.7,1.08-5.15,2.13-7.9,2.91l.19-.11c-3.69,1.68-7.34,3.49-11.49,5.03-2.01,.75-1.92,2.04-1.41,1.89,8.84-3.1,17.31-6.05,25.74-9.49-1.02,.23-2.04,.46-3.06,.7-.44,.13-.86,.24-1.27,.3l1.27-.3c1.18-.35,2.43-.89,3.71-1.26,.26-.02,1-.3,1.2-.64,1.75-.52,3.67-1.54,5.4-2.08,.1-.04,.29-.05,.52-.06,1.04-.48,2.09-.96,3.14-1.45,5.85-2.75,11.51-5.34,17.12-7.76-1.39,.49-2.75,.93-4.03,1.29-1.76,.43-5.05,2.3-7.93,3.7-.71,.39-1.24,.36-1.97,.67,2.28-1.74,5.75-2.8,8.61-4.23,3.83-1.84,9.47-3.85,13.43-6.23,1.63-.99,3.37-1.51,4.86-1.93-.44,.38-1.41,.81-1.89,1.03-4.33,1.94-8.66,3.88-12.96,5.96,4.63-1.79,8.91-3.97,13.55-5.7-2.63,1.27-5.34,2.14-7.66,3.6,.23-.04,.46-.09,.7-.15,1.77-.73,3.53-1.45,5.31-2.15,.5-.33,.99-.65,1.47-.96,4.37-2.92,10.55-5.03,15.79-8.34,.44-.25,.99-.83,1.62-1.41-1.69,1.06-3.44,1.96-5.18,2.93,.73-.32,1.45-.61,2.15-.81-1.61,.98-3.1,1.41-4.74,2.32,.86-.53,1.72-1.03,2.59-1.51-1.1,.48-2.23,1.04-3.38,1.55,2.03-1.35,4.31-1.85,6.23-3.48-.44,.27-.89,.53-1.36,.76,.47-.25,.93-.51,1.38-.78l-.02,.02c1.36-.83,2.63-1.8,3.73-2.73-2.27,1.54-4.55,2.52-6.87,3.84l-1.14,.67c.38-.24,.76-.46,1.14-.67,5.27-3.09,10.61-6.19,15.17-10.32l.4-.43c-.19,.04-.39,.09-.58,.13-3.73,3.43-8.03,6.28-12.41,8.54Z"/>
        </g>
      </g>
    </g>
  </g>
</svg>