<?xml version="1.0" encoding="UTF-8"?>
<svg id="_Слой_2" data-name="Слой 2" xmlns="http://www.w3.org/2000/svg" xmlns:xlink="http://www.w3.org/1999/xlink" viewBox="0 0 417.01 201.78">
  <defs>
    <style>
      .cls-1 {
        fill: none;
      }

      .cls-2 {
        clip-path: url(#clippath);
      }

      .cls-3 {
        fill: #f3f9fb;
      }

      .cls-4 {
        fill: #f7fbfc;
      }

      .cls-5 {
        fill: #f8fcfd;
      }

      .cls-6 {
        fill: #f4fafb;
      }

      .cls-7 {
        fill: #f5fafb;
      }

      .cls-8 {
        fill: #fbfdfe;
      }

      .cls-9 {
        fill: #349039;
      }

      .cls-10 {
        fill: #6e7c6e;
      }

      .cls-11 {
        opacity: .49;
      }

      .cls-12 {
        opacity: .8;
      }
    </style>
    <clipPath id="clippath">
      <rect class="cls-1" width="417.01" height="201.78"/>
    </clipPath>
  </defs>
  <g id="_камыши_и_кувшинки" data-name="камыши и кувшинки">
    <g class="cls-2">
      <g>
        <g class="cls-11">
          <path class="cls-10" d="M65.77,77.6c19.2,.04,34.22,3.57,56.36,7.53,27.22,4.86,45.8,8.51,72.64,17.07-7.05-4.47-10.15-6.11-18.16-10.32-4.94-2.6-3.16-1.82-8.31-4.25-14-6.61-30.43-10.77-46.66-14.82-11.45-2.86-18.87-4.38-19.3-5.63,19.71-10.18,87.04-19.53,139.03-12.54,51.99,6.99,100.12,29.35,119.22,60.87,4.42,7.29,7.24,15.5,3.06,22.84-5.55,9.75-21.58,15.19-36.57,19.26-67.32,18.25-142.51,26.76-214.49,18.38-26.86-3.12-53.96-8.89-73.92-20.74-19.96-11.85-31.15-30.87-21.71-47.16,9.71-16.76,23.65-22.57,48.82-30.5Z"/>
          <path class="cls-10" d="M90.4,77.66c7.25,1.06,13.09,2.23,18.95,3.17,.91,.15,2.02-.18,3.17,.04,4.55,.88,9.3,1.25,13.6,2.62,4.69,1.51,9.48,2.46,14.14,2.93,4.43,.45,8.68,1.42,13,2.22,1.45,.26,2.89,.47,4.33,1.4,1.05,.67,3.12,1.2,4.85,.82,.33-.07,.95,.23,1.4,.41,.49,.2,1.01,.66,1.41,.65,4.48-.13,8.62,1.87,12.91,2.77,1.07,.23,2.13,.87,3.24,.38,.28-.13,1.32,.14,1.57,.41,.67,.7,1.47,1.03,2.47,1.31,3.37,.97,6.72,2.02,10.06,3.08l-2.05,4.39-2.51-1.58c-2.38-.28-4.22-1.91-6.23-3.05-1.5-.85-2.86-1.99-4.32-2.99-1.47-1.01-3.46-1.33-4.55-2.9-.17-.25-.91-.33-1.36-.56-1.01-.48-2.04-.96-3.06-1.44-.94-.45-1.92-.91-2.79-1.51-.89-.62-1.79-1.21-2.75-1.65-6.23-2.83-12.72-5.13-19.32-7.15-6.59-2.03-13.29-3.77-20.02-5.46-1.17-.29-2.26-.69-3.65-.43-.54,.1-1.34,.02-2.11-.16-.19-.05-.38-.1-.57-.16-.25-.07-.52-.16-.75-.25-.48-.18-.88-.36-1.16-.55-.87-.59-1.72-.92-2.66-1.17-.92-.25-1.94-.43-2.85-.68l-2.52-.68-1.24-.34-1.16-.36c-.4-.12-.74-.25-1.08-.37-.33-.13-.69-.25-.99-.39-.58-.26-1.15-.53-1.64-.79-.61-.31-1.45-.61-2.07-.94-.62-.34-1.08-.69-1.03-1.2,0-.02,0-.08-.04-.14-.02-.06-.12-.15-.02-.18,.11-.08,.19-.16,.19-.2-.03-.29,.07-.6,.36-.89,.29-.3,.76-.58,1.33-.85,.85-.29,1.68-.46,2.38-.7,1.58-.51,2.87-1,3.68-1.83,.86-.76,3.9-1.8,5.89-1.9,1.33-.06,2.31-.27,3.3-.47,.93-.23,1.85-.47,2.77-.7,9.37-2.2,18.83-3.83,28.32-5.17,2.24-.33,4.45-.79,6.68-1.25,1.11-.22,2.23-.44,3.35-.6,1.13-.15,2.26-.24,3.41-.26,1.09-.02,2.25-.51,3.29,.11,.21,.13,1.08-.04,1.41-.25,1.19-.75,2.45-.63,3.86-.68,3.19-.13,6.41-.26,9.62-.4,3.21-.1,6.39-.31,9.52-.73,4.88-.53,9.68-.5,14.52-.54,1.61-.03,3.24,.46,4.87,.58,1.59,.09,3.2,.16,4.8,.17,.95,.01,1.9,.26,2.86-.27,.52-.28,1.9-.31,2.44-.04,1.82,.88,3.83,.77,5.76,.91,5.52,.38,11.04,1,16.53,1.7,1.34,.21,2.91,0,3.99,1.05,.15,.14,.96-.01,1.47-.01,.54,0,1.23-.15,1.59,.04,3.35,1.68,7.15,1.75,10.74,2.53,8.66,1.92,17.31,4,25.71,6.9,2.35,.8,4.65,.81,6.91,1.66,2.18,.85,4.41,1.56,6.55,2.5,1.52,.65,3.3,.93,4.36,2.37,.29,.39,1.39,.85,1.93,.83,2.03-.05,3.71,1.19,5.51,1.9,1.1,.44,2.15,1.05,3.22,1.58,1.07,.55,2.17,1.01,3.42,1.13,.68,.06,1.53,1.08,2.35,1.58,1.44,.85,2.88,1.7,4.34,2.51,.7,.39,1.55,.48,2.25,.89,5.42,3.02,10.71,6.35,15.65,10.22,5.04,3.93,9.64,8.45,13.8,13.38,1.07,1.2,2.02,2.52,3.03,3.77,.94,1.32,1.93,2.6,2.79,3.98,1.79,2.69,3.44,5.57,4.68,8.71,.46,1.18,1.08,2.38,1.45,3.68,.39,1.28,.51,2.66,.07,3.93,1.02,2.33,.44,4.75-.84,6.61-.19,.26-.06,1.09-.13,1.68-.17,.89-.12,1.89-.42,2.79-.23,.94-.85,1.71-1.92,2.17-.08,.03-.16,.28-.28,.39-.58,.57-.79,1.27-1.12,2-.35,.68-.85,1.34-1.85,1.77-.64,.23-1.32,.68-1.99,1.23-.68,.53-1.41,1.06-2.09,1.53-1.43,.87-2.88,1.74-4.3,2.6-1.46,.91-3.37,1.15-4.41,2.7-.17,.26-1.58,.13-2.24,.43-3.39,1.66-7.27,2.03-10.39,4.24-.72,.5-1.99,.87-2.91,.88-3.3,.08-6.03,1.26-9.09,2.38-4.02,1.46-8.4,2.84-12.77,2.55-.93-.05-1.36-.16-2.13,.48-.51,.42-1.53,.59-2.34,.79-4.51,1.12-9.07,2.07-13.61,3.06-4.54,1.03-9.12,1.85-13.68,2.75-1.24,.24-2.49,.24-3.73,.28-1.25,.02-2.49,.08-3.74,.48-1.03,.33-2.35,.06-3.09,1.01-.1,.13-.53,.27-.74,.24-3.22-.4-6.06,1.46-9.19,1.51-.67,.02-1.32-.07-1.99-.07-.68,0-1.49-.12-2.03,.11-2.27,.91-4.65,1.37-7.05,1.65-2.41,.27-4.84,.43-7.21,.88-1.62,.3-3.46,.01-4.8,1.18-.2,.18-.93,.24-1.25,.14-2.93-.89-5.9,.34-8.83,.34-1.5,0-3.11,.83-4.54-.03-.18-.11-.77,.04-1.14,.14-.63,.17-1.24,.54-1.86,.58-1.73,.09-3.66-.3-5.15,.15-1.85,.54-3.64,.54-5.44,.69-1.03,.07-2.09-.31-3.16-.35-1-.04-2.03,.1-3.04,.15-1.45,.08-2.95,.34-4.34,.2-1.44-.15-2.52,.96-4.13,.31-1.23-.49-2.58,.49-3.93,.65-.67,.08-1.39-.01-2.07-.1-.52-.06-1.02-.37-1.5-.33-1.08,.09-2.14-.05-3.29,.42-.79,.33-2.24-.18-3.4-.26-1.15-.06-2.32,0-3.49,.01s-2.42-.18-3.47,.06c-4.63,1.11-9.37,.35-14.05,.4-1.2,.01-2.61,.33-3.62-.55-.18-.16-.87-.17-1.22-.1-4.49,1.01-9.09-.16-13.62-.03-3.23,.01-6.43,.24-9.71-.1-3.19-.3-6.45-.88-9.56-.78-2.56,.09-5.09,.15-7.54-.33-2.39-.51-4.95,.95-7.13-.83-2.46-.32-4.94-.63-7.38-1.08-2.06-.36-4.23-.37-6.1-1.54-.67-.44-2.09-.68-2.94-.55-2.74,.43-5.18-.36-7.68-1.35-.59-.24-1.45,0-2.17-.14-2.16-.42-4.34-.91-6.43-1.56-6.24-2-12.72-2.96-18.91-5.34-1.14-.43-2.64-.33-3.57-.9-5.63-3.56-12.18-5.57-17.45-9.85-3.8-3.16-7.56-6.3-10.99-9.89-3.41-3.58-6.54-7.61-8.65-12.3-.56-1.22-.39-2.8-.79-3.3-1.32-1.62-1.34-4-2.09-5.56-.71-1.42-.9-2.99-.93-4.54,0-1.55,.18-3.09,.32-4.63,.18-2.29,1.39-4.42,1.26-6.7-.03-.34,.33-1.05,.61-1.38,.54-.67,1.04-1.33,1.43-2.05,.4-.69,.74-1.33,1.06-2.03,.61-1.39,1.32-2.78,2.39-3.89,.29-.68,.66-1.33,1.07-1.95,.4-.63,.82-1.24,1.26-1.85,.95-1.16,1.95-2.3,3.05-3.33,1.12-1.01,2.23-2.04,3.44-2.93,.59-.46,1.17-.94,1.77-1.38,.6-.43,1.2-.87,1.79-1.32,.69-.55,1.26-1.2,1.93-1.76,.33-.29,.7-.69,1.05-.81,5.16-1.69,9.59-4.69,14.5-6.26,1.61-.52,3.27-.76,4.88-1.23,1.62-.43,3.16-1.3,4.89-1.08,.54,.07,1.41-.35,2.05-.65,3.49-1.68,6.68-1,7.49,1.4,.3,.87-.43,1.16-1.11,1.73-1.3,1.11-2.66,1.98-4.49,2.52-1.42,.41-3.07,.65-4.01,1.92-.16,.21-.81,.4-1.18,.42-2.65,.09-5.11,1.67-7.51,2.07-1.87,.28-3.37,1.1-5.04,1.64-1.38,.54-2.56,1.56-4.22,1.57-.56,.01-1.52,1.28-2.37,1.85-2.03,1.31-4.03,2.67-5.96,4.08-6.01,4.23-9.54,11-12.74,17.08-.4,2.5-.92,4.85-1.12,7.31-.17,2.44,0,4.97,.87,7.27,1.08,2.76,2.33,5.42,3.89,7.96,1.53,2.55,3.39,4.94,5.53,7.07,.89,.86,1.56,1.59,2.17,2.57,.38,.65,.83,1.3,1.38,1.82,2.16,1.98,4.57,3.68,6.96,5.39,1.3,.92,3.06,1.36,3.77,2.96,.1,.22,.73,.56,1.07,.61,.7,.09,1.36,.27,1.99,.53,.64,.23,1.26,.51,1.87,.83,1.22,.64,2.4,1.38,3.68,1.87,.97,.38,1.85,.85,2.75,1.65,.98,.84,2.79,1.56,4.13,1.67,1.02,.07,1.83,.36,2.73,.6,1.86,.53,3.68,1.27,5.51,1.98,1.85,.64,3.73,1.18,5.72,1.07,1.61,1.62,4.1,1.93,6.12,2.13,7.75,.86,15.22,3.09,22.96,4.08,1.86,.23,3.66,1.01,5.54,1.35,1.97,.37,3.98,.6,5.99,.79,1.07,.1,2.27,.64,3.2-.11,.07-.05,.26-.08,.37-.05,1.13,.25,2.25,.68,3.37,.73,1.01,.05,1.99-.41,3.02-.46,1.23-.05,2.51,.06,3.76,.17,1.21,.11,2.51,.06,3.43,.85,1.02-.84,2.38-.28,3.59-.27,1.14,.02,2.29,.15,3.44,.24l3.87,.28c1.29,.11,2.59,.23,3.87,.19,1.77-.05,3.51-.3,5.27-.31,1.86-.02,3.74,.07,5.59,.25,2.33,.17,4.63,.49,6.96,.69,.96,.08,1.79-.13,2.74-.43,1.25-.41,2.84-1.31,4.45-.06,.32,.24,1.46,.16,2.09,0,2.49-.66,5.02-.73,7.56-.69,1.27,.02,2.54,.08,3.81,.09,1.27-.01,2.53-.05,3.79-.18,2.8,.86,5.49,.18,8.35-.17,4.21-.57,8.68-1.02,12.85-.69,4.43,.32,8.7-.43,13.04-.54,1.22-.04,2.51-.49,3.61,.24,.25,.17,1.17,.02,1.66-.16,3.42-1.25,6.84-1.36,10.48-1.16,1.92,.06,4-.57,6.04-1.16,3.05-.91,6.51-.9,9.78-1.43,1.56,.83,2.52-.39,3.17-.95,.88-.75,1.77-.99,2.91-1.17,1.48-.24,2.96-.27,4.32-1.16,.69-.46,2.36-.67,3.22-.45,1.16,.3,1.52,0,2.45-.48,1.09-.58,2.46,.18,3.92-.12,1.55-.33,3.28-1.13,4.85-.33,.14,.07,.62-.03,.82-.16,2.67-1.66,5.84-.62,8.62-1.66,8.83-.5,17.27-3.45,25.89-5.11,3.57-.63,7.3-.84,10.64-2.2,7.02-2.87,14.39-4.15,21.11-6.96,.7-.31,1.41-.74,2.16-1.04,.74-.31,1.49-.5,2.34-.29,.24,.06,.87-.25,1.08-.51,1.63-1.85,3.56-2.61,5.78-3.26,.52-.18,1.31-.77,1.42-1.16,.16-.54,.42-.95,.78-1.26,.34-.32,.8-.55,1.1-.87,.38-.38,.98-.69,1.43-1.04,.44-.36,.83-.72,.89-1.07,.07-.77,.32-1.17,.71-1.48,.36-.32,.74-.58,1.05-.98,.29-.53,.37-1.21,.39-1.84,.04-.29-.21-.71-.11-.85,.66-.84,.57-1.89,.41-2.85-.24-.99-.56-1.93-.63-2.98,0-.45-.16-.92-.19-1.37-.17-2.62-.56-4.04-1.18-5.46-.64-1.43-1.65-2.91-3.86-5.75-.03-1.16-.79-1.96-1.57-2.74-.81-.76-1.69-1.48-1.96-2.64-.2-.85-1.28-1.94-2.1-2.52-3.68-2.46-6.2-6.17-9.74-8.79-.74-.53-.69-1.68-2.05-1.86-.51-.07-1.2-1.6-2-2.21-1.18-.85-2.13-2.15-3.79-2.32-.68-.06-1.58-1.03-2.42-1.52-1.13-.68-2.08-1.66-3.57-1.81-.8-.09-2.25-.95-2.78-1.67-2.2-3-5.63-3.47-8.64-4.54-.92-.32-1.58-.5-2.37-1.15-1.11-.92-2.64-2.09-3.8-2.19-2.05-.2-3.61-1.2-5.34-1.94-1.5-.62-3-1.26-4.49-1.91-1.51-.61-3.01-1.24-4.55-1.78-3.51-1.2-6.87-2.81-10.67-3.3-2.03-.3-4.67-.71-6.44-2.45-.2-.19-1.23,.18-1.8,.03-4.5-1.25-9.05-2.36-13.59-3.47-1.05-.25-1.97-1.63-3.13-.94-1.23,.74-1.97-1.36-3.06-.39-.16,.14-1.12-.08-1.59-.27-5.18-2.23-10.94-2.19-16.41-3.13-1.32-.23-2.87,.07-3.82-1.02-3.45,.63-7.05-1.77-10.49-.31-2.41-.51-5.06,.32-7.35-.94-.37-.2-1.22,.04-1.65-.15-1.46-.63-2.45,1.08-4.22,.11-1.03-.54-2.99-.25-4.53-.29-1.43-.04-2.86-.04-4.29-.05-1.57-.04-3.15,.03-4.73,.05-1.58,.03-3.16-.01-4.73,.1-3.18,.2-6.25,1.13-9.5,.95-.35-.02-.94,.14-1.06,.33-1.01,1.54-2.67,.8-3.78,.45-.94-.3-1.73-.42-2.73-.35-2.71,.2-5.43,.41-8.13,.61-1.61,.09-3.27,.74-4.89-.06-.5-.24-1.79-.07-2.49,.23-3.26,1.4-6.84,1.18-10.25,1.81-1.54,.29-3.1,.48-4.66,.68-1.18,.16-2.27,.94-3.53,.54-2.75,1.11-5.63,1.66-8.51,2.2l-4.32,.78-2.16,.4c-.71,.16-1.41,.34-2.11,.52l-3.94,1.08h-.03c-.11,.05,.14,.1,.04,.14-.05,.02-.2,.03-.55,.06-.24,.01-.48,.03-.71,.04-.33,.03-.65,.07-.96,.1-.59,.06-.28,.18,.38,.15,1.84-.07,2.53-.19,.77,.12-.32,.06,.26,.05,.67,0,1.15-.12,1.02-.11,.56,.16-.37,.2-.25,.41,.23,.31,.64-.13,1.03-.31,1.2-.33,.09,0,.13,.02,.18,.13l.04,.1s-.03,.07,.18,.16c.29,.16,.58,.34,.86,.55,.28,.2,1.29-.24,1.84-.07,2.13,.67,4.47,.7,6.43,2.03,.8,.54,2.16,.64,3.24,1.02,1.85,.65,3.79,.59,5.7,1.45,1.93,.86,4.2,1.25,6.31,1.88,2.12,.63,4.23,1.3,6.34,1.98,2.11,.7,4.21,1.43,6.31,2.2,2.09,.78,4.18,1.59,6.26,2.47,2.06,.86,4.17,1.83,6.13,2.76,.99,.47,2.01,.95,3.11,1.54l2.86,1.55c1.3,.7,2.52,1.47,3.68,2.53,2.98,2.73,7.33,4.86,12.79,7.3,.39,.17,.75,.46,1.13,.69l1.75,1.09,26.66,16.64-30.08-9.32c-4.72-1.46-9.47-2.79-14.11-4.37-2.32-.77-4.56-1.88-7-2.44-1.59-.38-3.1-.92-4.83-.71-1.44,.17-3.08-1.16-4.84-.62-.64,.19-2.13-.17-2.82-.62-2.28-1.5-5.01-1.6-7.55-2.23-2.92-.72-5.89-1.31-8.87-1.83-1.46-.25-2.86-.86-4.49-.37-.8,.24-2.51-.36-3.52-.88-1.57-.8-3.24-1.02-4.84-1.1-3.44-.16-3.42-.07-6.63-1.24-.38-.14-.81-.22-1.22-.29-4.13-.75-8.32-1.88-12.41-2.16-3.42-.22-6.68-.81-9.98-1.37-1.31-.23-2.9-.04-3.83-1.22-.13-.17-.88-.28-1.22-.21-2.92,.63-5.78-.41-8.62-.75-2.76-.35-5.36,.26-8.14-.21-2.61-.42-5.3-.44-7.96-.52-4.03-.13-4.9-.69-4.88-3.44,.01-2.25,1.07-2.75,4.46-3.14,7.23-.8,14.39,.74,20.17,1.29Z"/>
        </g>
        <g>
          <path class="cls-9" d="M78.08,36.43c19.2,.04,34.22,3.57,56.36,7.53,27.22,4.86,45.8,8.51,72.64,17.07-7.05-4.47-10.15-6.11-18.16-10.32-4.94-2.6-3.16-1.82-8.31-4.25-14-6.61-30.43-10.77-46.66-14.82-11.45-2.86-18.87-4.38-19.3-5.63,19.71-10.18,87.04-19.53,139.03-12.54,51.99,6.99,100.12,29.35,119.22,60.87,4.42,7.29,7.24,15.5,3.06,22.84-5.55,9.75-21.58,15.19-36.57,19.26-67.32,18.25-142.51,26.76-214.49,18.38-26.86-3.12-53.96-8.89-73.92-20.74-19.96-11.85-31.15-30.87-21.71-47.16,9.71-16.76,23.65-22.57,48.82-30.5Z"/>
          <path class="cls-9" d="M102.71,36.49c7.25,1.06,13.09,2.23,18.95,3.17,.91,.15,2.02-.18,3.16,.04,4.55,.89,9.3,1.25,13.6,2.62,4.69,1.51,9.48,2.46,14.14,2.93,4.43,.45,8.68,1.41,13,2.22,1.45,.26,2.89,.47,4.33,1.4,1.05,.67,3.12,1.2,4.85,.82,.33-.07,.95,.22,1.4,.41,.49,.2,1.01,.66,1.41,.65,4.48-.13,8.62,1.87,12.91,2.77,1.07,.23,2.13,.87,3.24,.38,.28-.13,1.32,.14,1.57,.41,.67,.7,1.47,1.03,2.47,1.31,3.37,.97,6.72,2.02,10.06,3.08l-2.05,4.39-2.51-1.58c-2.38-.28-4.22-1.91-6.23-3.05-1.5-.85-2.86-1.99-4.32-2.99-1.47-1.01-3.46-1.33-4.55-2.9-.17-.25-.91-.34-1.36-.56-1.01-.48-2.04-.96-3.06-1.44-.94-.45-1.92-.91-2.79-1.51-.89-.62-1.79-1.21-2.75-1.65-6.23-2.83-12.72-5.13-19.32-7.15-6.59-2.03-13.29-3.77-20.02-5.46-1.17-.29-2.26-.69-3.65-.43-.54,.1-1.34,.02-2.11-.16-.19-.05-.38-.1-.57-.16-.25-.07-.52-.16-.75-.25-.48-.18-.88-.36-1.16-.55-.87-.59-1.72-.92-2.66-1.17-.92-.25-1.94-.43-2.85-.68l-2.52-.68-1.24-.34-1.16-.36c-.4-.12-.74-.25-1.08-.37-.33-.13-.69-.25-.99-.39-.58-.26-1.15-.53-1.64-.79-.61-.31-1.45-.61-2.07-.94-.62-.34-1.08-.69-1.03-1.2,0-.02,0-.08-.04-.14-.02-.06-.11-.15-.02-.18,.11-.08,.19-.16,.19-.2-.03-.29,.07-.59,.36-.89,.29-.3,.76-.58,1.33-.85,.85-.29,1.68-.46,2.38-.7,1.58-.51,2.87-1,3.68-1.83,.86-.76,3.9-1.8,5.89-1.9,1.33-.06,2.31-.27,3.3-.47,.93-.23,1.85-.47,2.77-.7,9.37-2.2,18.83-3.83,28.32-5.17,2.24-.33,4.45-.79,6.68-1.25,1.11-.22,2.23-.44,3.35-.6,1.13-.15,2.26-.24,3.41-.26,1.09-.02,2.25-.51,3.29,.11,.21,.13,1.08-.04,1.41-.25,1.19-.75,2.45-.63,3.86-.68,3.19-.13,6.41-.26,9.62-.4,3.21-.1,6.39-.31,9.52-.73,4.88-.53,9.68-.5,14.52-.54,1.61-.03,3.24,.46,4.87,.58,1.59,.09,3.2,.16,4.8,.17,.95,.01,1.9,.26,2.86-.27,.52-.28,1.9-.31,2.44-.04,1.82,.88,3.83,.77,5.76,.91,5.52,.38,11.04,1,16.53,1.7,1.34,.21,2.91,0,3.99,1.05,.15,.14,.96-.01,1.47-.01,.54,0,1.23-.15,1.59,.04,3.35,1.68,7.15,1.75,10.74,2.53,8.66,1.92,17.31,4,25.71,6.9,2.35,.8,4.65,.81,6.91,1.66,2.18,.85,4.41,1.56,6.55,2.5,1.52,.65,3.3,.93,4.36,2.37,.29,.39,1.39,.85,1.93,.83,2.03-.05,3.71,1.19,5.51,1.9,1.1,.44,2.15,1.05,3.22,1.58,1.07,.55,2.17,1.01,3.42,1.13,.68,.06,1.53,1.08,2.35,1.58,1.44,.85,2.88,1.7,4.34,2.51,.7,.39,1.55,.48,2.25,.89,5.42,3.02,10.71,6.35,15.65,10.22,5.04,3.93,9.64,8.45,13.8,13.38,1.07,1.2,2.02,2.52,3.04,3.77,.94,1.32,1.93,2.6,2.79,3.98,1.79,2.69,3.44,5.57,4.68,8.71,.46,1.18,1.08,2.38,1.45,3.68,.39,1.28,.51,2.66,.07,3.93,1.02,2.33,.44,4.75-.84,6.61-.2,.26-.06,1.09-.13,1.68-.17,.89-.12,1.89-.42,2.79-.23,.94-.85,1.71-1.92,2.17-.08,.03-.16,.28-.28,.39-.59,.57-.79,1.27-1.12,2-.35,.68-.85,1.34-1.85,1.77-.64,.23-1.32,.68-1.99,1.23-.68,.53-1.41,1.06-2.09,1.53-1.43,.87-2.88,1.74-4.3,2.6-1.46,.91-3.37,1.15-4.41,2.7-.17,.26-1.58,.13-2.24,.43-3.39,1.66-7.27,2.03-10.39,4.24-.72,.5-1.99,.87-2.91,.88-3.3,.08-6.03,1.27-9.09,2.38-4.02,1.46-8.4,2.84-12.77,2.55-.93-.05-1.36-.16-2.13,.48-.51,.42-1.53,.59-2.34,.79-4.51,1.12-9.07,2.07-13.61,3.06-4.54,1.03-9.12,1.85-13.68,2.75-1.24,.24-2.49,.24-3.73,.28-1.25,.02-2.49,.08-3.74,.48-1.03,.33-2.35,.06-3.09,1.01-.1,.13-.53,.27-.74,.24-3.22-.4-6.06,1.46-9.19,1.51-.67,.02-1.32-.07-1.99-.07-.68,0-1.49-.12-2.03,.11-2.27,.91-4.65,1.37-7.05,1.65-2.41,.27-4.84,.43-7.21,.88-1.62,.31-3.46,.01-4.8,1.18-.2,.18-.93,.24-1.25,.14-2.93-.89-5.9,.34-8.83,.34-1.5,0-3.11,.83-4.54-.03-.18-.11-.77,.04-1.14,.14-.63,.17-1.24,.54-1.86,.58-1.73,.09-3.66-.3-5.15,.15-1.85,.54-3.64,.54-5.44,.69-1.03,.07-2.09-.31-3.16-.35-1-.04-2.03,.1-3.04,.15-1.45,.08-2.95,.34-4.34,.2-1.44-.15-2.52,.96-4.13,.31-1.23-.49-2.58,.49-3.93,.65-.67,.08-1.39-.01-2.07-.1-.52-.06-1.02-.37-1.5-.33-1.08,.09-2.14-.05-3.29,.42-.79,.33-2.24-.18-3.4-.26-1.15-.06-2.32,0-3.49,.01-1.16,0-2.42-.18-3.47,.06-4.63,1.11-9.37,.35-14.05,.4-1.2,.01-2.61,.33-3.62-.55-.18-.16-.87-.17-1.22-.1-4.49,1.01-9.09-.16-13.62-.03-3.23,.01-6.43,.24-9.71-.1-3.19-.3-6.45-.88-9.56-.78-2.56,.09-5.09,.15-7.54-.33-2.39-.51-4.94,.95-7.13-.83-2.46-.32-4.94-.63-7.38-1.08-2.06-.36-4.23-.37-6.1-1.54-.67-.44-2.09-.68-2.94-.55-2.74,.43-5.18-.36-7.68-1.35-.59-.24-1.45,0-2.17-.14-2.16-.42-4.34-.91-6.43-1.56-6.24-2-12.72-2.96-18.91-5.34-1.14-.43-2.64-.33-3.57-.9-5.63-3.56-12.18-5.57-17.45-9.85-3.8-3.16-7.56-6.3-10.99-9.89-3.41-3.58-6.54-7.6-8.65-12.3-.56-1.22-.39-2.8-.79-3.3-1.32-1.62-1.34-4-2.09-5.56-.71-1.42-.9-2.99-.93-4.54,0-1.55,.18-3.09,.32-4.63,.18-2.29,1.39-4.42,1.26-6.7-.03-.34,.33-1.05,.61-1.38,.54-.67,1.04-1.33,1.43-2.05,.4-.69,.74-1.33,1.06-2.03,.61-1.39,1.32-2.78,2.39-3.89,.29-.68,.66-1.33,1.07-1.95,.4-.63,.82-1.24,1.26-1.85,.95-1.16,1.95-2.3,3.05-3.33,1.12-1.01,2.23-2.04,3.44-2.93,.59-.46,1.17-.94,1.77-1.38,.6-.43,1.2-.87,1.79-1.32,.69-.55,1.26-1.2,1.93-1.76,.33-.29,.7-.69,1.05-.81,5.16-1.69,9.59-4.69,14.5-6.26,1.61-.52,3.27-.76,4.88-1.23,1.62-.43,3.16-1.3,4.89-1.08,.54,.07,1.41-.35,2.05-.65,3.49-1.68,6.68-1,7.49,1.4,.3,.87-.43,1.16-1.11,1.73-1.3,1.11-2.66,1.98-4.49,2.52-1.42,.41-3.07,.65-4.01,1.92-.16,.21-.81,.4-1.18,.42-2.65,.09-5.11,1.67-7.51,2.07-1.87,.28-3.37,1.1-5.04,1.64-1.38,.54-2.56,1.56-4.22,1.57-.56,.01-1.52,1.28-2.37,1.85-2.03,1.31-4.03,2.67-5.96,4.08-6.01,4.23-9.54,11-12.74,17.08-.4,2.5-.92,4.85-1.12,7.31-.17,2.44,0,4.97,.87,7.27,1.08,2.76,2.33,5.42,3.89,7.96,1.53,2.55,3.39,4.94,5.53,7.07,.89,.86,1.56,1.59,2.17,2.57,.38,.65,.83,1.3,1.38,1.82,2.16,1.98,4.57,3.68,6.96,5.39,1.3,.92,3.06,1.36,3.77,2.96,.1,.22,.73,.56,1.07,.61,.7,.09,1.36,.27,1.99,.52,.64,.23,1.26,.51,1.87,.83,1.22,.64,2.4,1.38,3.68,1.87,.97,.38,1.85,.85,2.75,1.65,.98,.84,2.79,1.56,4.13,1.67,1.02,.07,1.83,.36,2.73,.6,1.86,.53,3.69,1.27,5.51,1.98,1.85,.64,3.73,1.18,5.72,1.07,1.61,1.62,4.1,1.93,6.12,2.14,7.75,.86,15.22,3.09,22.96,4.08,1.86,.23,3.66,1.01,5.54,1.35,1.97,.37,3.98,.6,5.99,.79,1.07,.1,2.27,.64,3.2-.11,.07-.05,.26-.08,.37-.05,1.13,.25,2.25,.68,3.37,.73,1.01,.05,1.99-.42,3.02-.46,1.23-.05,2.51,.06,3.76,.17,1.21,.11,2.51,.06,3.43,.85,1.02-.84,2.38-.28,3.59-.27,1.14,.02,2.29,.15,3.44,.24l3.87,.28c1.29,.11,2.59,.23,3.87,.19,1.77-.05,3.51-.3,5.27-.31,1.86-.02,3.74,.07,5.59,.25,2.33,.17,4.63,.49,6.96,.69,.96,.08,1.79-.13,2.74-.43,1.25-.41,2.84-1.31,4.45-.06,.32,.24,1.46,.16,2.09,0,2.49-.66,5.02-.73,7.56-.69,1.27,.02,2.54,.08,3.81,.08,1.27-.01,2.53-.05,3.79-.18,2.8,.86,5.49,.18,8.35-.17,4.21-.57,8.68-1.02,12.85-.69,4.43,.32,8.7-.43,13.04-.54,1.22-.04,2.51-.49,3.61,.24,.25,.17,1.17,.02,1.66-.16,3.42-1.25,6.84-1.36,10.48-1.16,1.92,.06,4-.57,6.04-1.16,3.05-.91,6.51-.9,9.78-1.43,1.56,.83,2.52-.39,3.17-.95,.88-.74,1.77-.99,2.91-1.17,1.48-.24,2.96-.27,4.32-1.16,.69-.46,2.36-.67,3.22-.45,1.16,.3,1.52,0,2.45-.48,1.09-.58,2.46,.18,3.92-.12,1.55-.33,3.28-1.13,4.85-.33,.14,.07,.62-.03,.82-.16,2.67-1.66,5.84-.62,8.62-1.66,8.83-.5,17.27-3.45,25.89-5.11,3.57-.63,7.3-.84,10.64-2.2,7.02-2.87,14.39-4.15,21.11-6.96,.7-.31,1.41-.74,2.16-1.04,.74-.31,1.49-.5,2.34-.29,.24,.06,.87-.25,1.08-.51,1.63-1.85,3.56-2.61,5.78-3.26,.52-.18,1.31-.77,1.42-1.16,.16-.54,.42-.95,.78-1.26,.34-.32,.8-.55,1.1-.87,.38-.38,.98-.69,1.43-1.04,.44-.36,.83-.72,.89-1.07,.07-.77,.32-1.17,.71-1.48,.36-.32,.74-.58,1.05-.98,.29-.53,.37-1.21,.39-1.84,.04-.29-.21-.71-.11-.85,.66-.84,.57-1.89,.41-2.85-.24-.99-.56-1.93-.63-2.98,0-.45-.16-.92-.19-1.37-.17-2.62-.56-4.04-1.18-5.46-.64-1.43-1.65-2.91-3.86-5.75-.03-1.17-.79-1.96-1.57-2.74-.81-.76-1.69-1.48-1.96-2.64-.2-.84-1.28-1.94-2.1-2.52-3.68-2.46-6.2-6.17-9.74-8.79-.74-.53-.69-1.68-2.05-1.86-.51-.07-1.2-1.6-2-2.21-1.18-.84-2.13-2.15-3.79-2.31-.68-.06-1.58-1.03-2.42-1.52-1.13-.68-2.08-1.66-3.57-1.81-.8-.09-2.25-.95-2.78-1.67-2.2-3-5.63-3.47-8.64-4.54-.92-.32-1.58-.5-2.37-1.15-1.11-.92-2.64-2.09-3.8-2.19-2.05-.2-3.61-1.2-5.34-1.94-1.5-.62-3-1.26-4.49-1.91-1.51-.61-3.01-1.24-4.55-1.78-3.51-1.2-6.87-2.81-10.67-3.3-2.03-.3-4.67-.71-6.44-2.45-.2-.19-1.23,.18-1.8,.03-4.5-1.25-9.05-2.36-13.59-3.47-1.05-.25-1.97-1.63-3.13-.94-1.23,.74-1.97-1.36-3.06-.39-.16,.14-1.12-.08-1.59-.27-5.18-2.23-10.94-2.19-16.41-3.13-1.32-.23-2.87,.07-3.82-1.02-3.45,.63-7.05-1.77-10.49-.32-2.41-.51-5.06,.32-7.35-.94-.37-.2-1.22,.04-1.65-.15-1.46-.64-2.45,1.08-4.22,.11-1.03-.54-2.99-.25-4.53-.29-1.43-.04-2.86-.04-4.29-.05-1.57-.04-3.15,.03-4.73,.05-1.58,.03-3.16-.02-4.73,.1-3.18,.2-6.25,1.13-9.5,.95-.35-.02-.94,.14-1.06,.33-1.01,1.54-2.67,.8-3.78,.45-.94-.3-1.73-.42-2.73-.35-2.71,.2-5.43,.41-8.13,.61-1.61,.09-3.27,.74-4.89-.06-.5-.24-1.79-.07-2.49,.23-3.26,1.4-6.84,1.18-10.25,1.81-1.54,.29-3.11,.48-4.66,.68-1.18,.16-2.27,.94-3.53,.54-2.75,1.11-5.63,1.66-8.51,2.2l-4.32,.78-2.16,.4c-.71,.16-1.41,.34-2.11,.52l-3.94,1.08h-.03c-.11,.05,.14,.1,.04,.14-.05,.02-.2,.03-.55,.06-.24,.02-.48,.03-.71,.04-.33,.03-.65,.07-.96,.1-.59,.06-.28,.18,.38,.15,1.84-.07,2.53-.19,.77,.13-.32,.06,.26,.05,.67,0,1.15-.12,1.02-.11,.56,.16-.37,.2-.25,.41,.23,.31,.64-.13,1.03-.31,1.2-.33,.09,0,.13,.02,.18,.13l.04,.1s-.03,.07,.18,.16c.29,.16,.58,.34,.86,.55,.28,.2,1.29-.24,1.84-.07,2.13,.67,4.47,.7,6.43,2.03,.8,.54,2.16,.64,3.24,1.02,1.85,.65,3.79,.59,5.7,1.45,1.93,.86,4.2,1.25,6.31,1.88,2.12,.63,4.23,1.3,6.34,1.98,2.11,.7,4.21,1.43,6.31,2.2,2.09,.78,4.18,1.59,6.26,2.47,2.05,.86,4.17,1.83,6.13,2.76,.99,.47,2.01,.95,3.11,1.54l2.86,1.55c1.3,.7,2.52,1.47,3.68,2.53,2.98,2.73,7.33,4.86,12.79,7.3,.39,.17,.75,.46,1.13,.69l1.75,1.09,26.66,16.64-30.08-9.32c-4.72-1.46-9.47-2.79-14.11-4.37-2.32-.77-4.56-1.88-7-2.44-1.59-.38-3.1-.92-4.83-.71-1.44,.17-3.08-1.16-4.84-.62-.64,.19-2.13-.17-2.82-.62-2.28-1.5-5.01-1.6-7.55-2.23-2.92-.72-5.89-1.31-8.87-1.83-1.46-.25-2.86-.86-4.49-.37-.8,.24-2.51-.36-3.52-.88-1.57-.8-3.24-1.02-4.84-1.1-3.44-.16-3.42-.07-6.63-1.24-.38-.14-.81-.22-1.22-.29-4.13-.75-8.32-1.88-12.41-2.16-3.42-.22-6.68-.81-9.98-1.37-1.31-.23-2.9-.04-3.83-1.22-.13-.17-.88-.28-1.22-.21-2.91,.63-5.78-.41-8.62-.75-2.76-.35-5.36,.26-8.14-.21-2.61-.42-5.3-.44-7.96-.52-4.03-.13-4.9-.69-4.88-3.44,.01-2.25,1.07-2.75,4.46-3.14,7.23-.8,14.39,.74,20.17,1.29Z"/>
        </g>
        <g class="cls-12">
          <g class="cls-12">
            <path class="cls-5" d="M145.42,153.76c-8.77-.6-17.66-3.11-25.05-3.93-.82-.1-1.66-.2-2.5-.3l1.24,.33c9.32,2.52,19.76,4.64,29.78,4.98,3.1,.04,6.23-.09,9.42-.4,3.19-.3,6.45-.69,9.83-1.23,.75-.11,.8-.44,.82-.6-.7-.09-1.31-.22-1.86-.35-5.4,1.04-10.91,1.52-16.59,1.33-1.87-.11-3.97,.3-5.1,.17Z"/>
            <polygon class="cls-7" points="167.34 152.27 167.23 152.24 166.41 152.4 167.34 152.27"/>
            <path class="cls-4" d="M153.9,153.72c-.92,.06-1.84,.04-2.75,.03-.91,0-1.82-.05-2.72-.12-1.19,.08-2.3,.22-3.02,.13-8.77-.6-17.66-3.11-25.05-3.93-.81-.1-1.64-.2-2.47-.3l1.33,.35c3.23,.87,6.59,1.7,10.02,2.41,.19,.02,.38,.04,.57,.06,1.97,.14,3.71,.71,5.58,1.02,5.33,.64,9.79,1.37,15.21,1.41,1.93,.02,3.96-.32,6.24-.35,.78-.04,1.53-.05,2.26-.05,2.98-.33,6.03-.67,9.18-1.19,.75-.11,.8-.44,.82-.6-.37-.05-.71-.11-1.03-.17-1.27,.18-2.53,.37-3.81,.49-1.28,.16-2.57,.25-3.87,.33-2.26,.24-4.54,.36-6.84,.39,.09,.03,.21,.05,.36,.08Z"/>
            <path class="cls-7" d="M153.68,153.24c-.32,0-.72,.23-.14,.4,2.3-.03,4.58-.15,6.84-.39-2.19,.13-4.42,.14-6.7,0Z"/>
            <path class="cls-8" d="M154.04,152.14c-4.41-.15-8.67-.07-12.27-.77-1.89-.33-3.72-.83-5.3-1.37-.6-.09-1.2-.18-1.8-.26-7.42-1.07-14.8-2.61-22.12-4.28-7.32-1.68-14.57-3.56-21.71-5.65-7.19-2.03-13.99-3.42-21.4-5.27-4.37-1.23-7.73-2.67-11.88-4.24-5.17-2.06-10.14-3.24-14.48-5.63-2.16-1.19-4.14-2.79-6.11-4.57-1.98-1.76-3.96-3.69-6.27-5.36-1.25-.9-2.2-1.03-2.68-.95-.5,.09-.58,.41-.27,.6,3.93,2.16,6.87,5.89,10.36,9.07,1.75,1.61,3.73,3.05,5.83,4.14,2.1,1.11,4.29,1.97,6.48,2.75,8.74,2.99,17.52,5.75,26.67,8.22,14.17,3.81,27.39,7.37,40.77,10.97,.84,.1,1.68,.2,2.5,.3,7.39,.82,16.28,3.33,25.05,3.93,1.13,.13,3.23-.27,5.1-.17,5.68,.19,11.19-.29,16.59-1.33-1.16-.27-2.1-.63-3.25-.85-3.27,.55-6.6,.9-9.82,.72Z"/>
            <path class="cls-6" d="M154.04,152.14c3.23,.18,6.56-.17,9.82-.72-.56-.11-1.17-.15-1.89-.2-8.03,.05-17.1-.04-25.5-1.22,1.58,.54,3.41,1.04,5.3,1.37,3.59,.7,7.85,.62,12.27,.77Z"/>
            <path class="cls-4" d="M154.04,152.14c3.08,.18,6.25-.15,9.37-.65-1.06,.07-2.15,.07-3.23,.15-5.52,.31-11.14,.15-16.55-.68,5.87,.58,11.78,.8,17.65,.24-7.85,.06-16.64-.06-24.79-1.2,1.58,.54,3.4,1.04,5.28,1.37,3.59,.7,7.85,.62,12.27,.77Z"/>
            <path class="cls-3" d="M145.03,151.9c6.64,.77,13.42,.89,20.14-.22-.3-.08-.6-.16-.92-.23-.28,.01-.56,.02-.84,.04-3.12,.49-6.29,.82-9.37,.65-4.41-.15-8.67-.07-12.27-.77-1.88-.33-3.71-.83-5.28-1.37-.57-.08-1.13-.17-1.69-.25-7.58-1.08-15.11-2.67-22.58-4.38-6.58-1.12-13.62-2.97-20.3-5.03,3.17,.86,6.38,1.66,9.6,2.41-3.54-.93-7.05-1.89-10.54-2.92-3.04-.86-6.02-1.61-9-2.31-.68,.11-1.71,.08-3.37-.32-2.6-.62-5.1-1.39-7.78-1.91-.36-.11-.22-.32-.93-.54,1.99,.62,3.68,.97,5.18,1.15-1.81-.44-3.63-.88-5.49-1.33-3.43-.97-6.25-2.06-9.31-3.25l-1.02-.3c-1.69-.5-3.42-.93-5.18-1.34,.68,.23,1.38,.47,2.11,.72-1.16-.23-2.58-.71-3.63-1.08,.51,.12,1.02,.24,1.53,.36-1.64-.57-3.21-1.11-4.91-1.78,2.05,.82,4.28,1.4,6.14,1.87-3.93-1.27-7.59-2.3-10.9-4.39l.28,.11c-2.51-1.16-4.75-2.77-6.95-4.72-2.2-1.92-4.36-4.09-6.93-5.96-1.25-.91-2.19-1.05-2.68-.96-.5,.09-.57,.41-.27,.6,5.48,3.05,9,9.12,14.91,12.49,2.88,1.69,5.97,2.84,9.03,3.88,3.06,1.03,6.11,2.03,9.19,3.01-1.34-.6-2.69-1.21-4.04-1.82-.6-.24-1.17-.49-1.69-.75l1.69,.75c1.62,.64,3.47,1.21,5.22,1.9,.31,.18,1.38,.54,1.88,.45,2.4,.95,5.4,1.66,7.81,2.58,.15,.05,.37,.19,.64,.35,1.57,.43,3.15,.87,4.73,1.31,8.88,2.39,17.39,4.67,25.8,6.93-1.99-.64-3.91-1.31-5.66-1.97-2.35-.97-7.63-2.01-12.04-3.13-1.12-.25-1.7-.67-2.78-.98,4,.45,8.81,2.23,13.24,3.27,5.86,1.45,13.94,4.02,20.43,5,2.68,.4,5.1,1.21,7.17,1.91-.81-.02-2.28-.35-3.01-.52-6.57-1.53-13.11-3.15-19.71-4.75,6.75,2.04,13.42,3.44,20.2,5.35-4.06-.85-7.9-2.12-11.75-2.67,.3,.13,.61,.26,.93,.39,2.62,.71,5.24,1.41,7.86,2.12,.84,.1,1.66,.2,2.47,.3,7.39,.82,16.28,3.33,25.05,3.93,.71,.08,1.83-.05,3.02-.13-2.82-.17-5.59-.57-8.39-.89,1.11,.21,2.18,.43,3.16,.72-2.66-.24-4.76-.85-7.38-1.21,1.42,.16,2.83,.3,4.22,.49-1.7-.32-3.43-.65-5.19-.98,3.45,.28,6.51,1.34,10.06,1.24-.73-.06-1.47-.13-2.2-.25,.74,.1,1.49,.17,2.24,.24h-.04c1.13,.1,2.25,.15,3.36,.15,1.1,.02,2.18,0,3.19-.06-3.89-.11-7.35-.73-11.12-1.17-.62-.07-1.25-.14-1.87-.21,.64,.06,1.26,.13,1.87,.21,8.64,.92,17.39,1.58,26.07,.48l.82-.16c-.26-.06-.51-.13-.76-.19-7.14,.95-14.49,.77-21.44-.15Z"/>
          </g>
        </g>
        <g class="cls-12">
          <g class="cls-12">
            <path class="cls-5" d="M208.87,152.22c-1.83,.14-3.81-.54-5.34,.3-.17,.08-.34,.17-.51,.27l.27,.04c2.06,.34,4.26,.41,6.33,.21,1.28-.24,2.59-.79,4.02-.67,.16,.01,.19-.3,.2-.46-.14-.2-.26-.42-.36-.65-1.17,.15-2.34,.43-3.54,.45-.4-.02-.83,.51-1.06,.5Z"/>
            <polygon class="cls-7" points="213.52 151.32 213.5 151.27 213.32 151.3 213.52 151.32"/>
            <path class="cls-4" d="M210.65,151.77c-.39,.09-.77,.11-1.15,.1-.25,.15-.48,.36-.63,.35-1.83,.14-3.81-.54-5.34,.3-.17,.08-.34,.17-.51,.27,.1,.02,.19,.03,.29,.05,.71,.11,1.44,.21,2.18,.25l.12-.05c.4-.23,.79,.03,1.19,.04,1.12-.2,2.06,0,3.17-.17,.4-.05,.82-.42,1.29-.39,.16,0,.32,0,.47,.03,.62-.13,1.26-.22,1.93-.17,.16,.01,.19-.3,.2-.46-.07-.11-.14-.22-.2-.33-.54-.07-1.08-.06-1.64-.09-.48,.08-.96,.15-1.45,.19,.02,.03,.04,.05,.08,.08Z"/>
            <path class="cls-7" d="M210.6,151.29c-.07,0-.15,.22-.03,.4,.49-.04,.97-.12,1.45-.19-.47-.02-.94-.07-1.42-.21Z"/>
            <path class="cls-8" d="M210.67,150.19c-.96-.15-1.87,.29-2.66,.02-.42-.12-.83-.34-1.2-.64-.13,0-.27,.02-.39,.03-3.26,.36-6.47,.69-9.71,.63-1.62,.05-3.05,.76-4.63,1.33-.95,.23-1.78-.04-2.76-.11-2.46-.27-4.28,1.4-6.56,2.29-.62,.24-.45,1.49-.29,1.47,3.84-1.31,7.68-1.35,11.61-2.19,3.06-.62,6.02-.69,8.94-.23,.17-.1,.34-.19,.51-.27,1.53-.85,3.5-.16,5.34-.3,.24,.01,.67-.52,1.06-.5,1.2-.02,2.36-.3,3.54-.45-.23-.46-.41-.94-.65-1.28-.73,.17-1.45,.34-2.15,.19Z"/>
            <path class="cls-6" d="M210.67,150.19c.7,.14,1.42-.02,2.15-.19-.12-.17-.25-.31-.4-.4-1.77-.72-3.77-.19-5.6-.03,.37,.3,.78,.52,1.2,.64,.79,.28,1.7-.16,2.66-.02Z"/>
            <path class="cls-4" d="M210.67,150.19c.67,.14,1.35,0,2.05-.17-.23-.07-.47-.12-.7-.14-1.21-.08-2.43,0-3.63-.29,1.29,0,2.58,0,3.87-.06-1.73-.62-3.67-.11-5.45,.04,.37,.3,.78,.51,1.19,.63,.79,.28,1.7-.16,2.66-.02Z"/>
            <path class="cls-3" d="M208.72,150.4c1.45,.14,2.89,.24,4.36,.02-.06-.12-.12-.23-.19-.33-.07-.02-.12-.04-.18-.06-.69,.16-1.38,.31-2.05,.17-.96-.15-1.87,.29-2.66,.02-.42-.12-.83-.34-1.19-.63-.13,0-.25,.02-.37,.02-1.66,.19-3.31,.36-4.97,.48-1.41,.49-2.97,.51-4.5,.38,.71-.06,1.41-.14,2.12-.25-.79,.03-1.58,.03-2.37,.02-.69,.02-1.34,.16-1.98,.36-.1,.31-.29,.58-.64,.7-.55,.19-1.12,.22-1.66,.57-.08,0-.09-.23-.26-.22,.45-.03,.79-.23,1.08-.52-.39,.15-.79,.3-1.17,.44-.75,.17-1.42,.06-2.15-.04-.08,.02-.15,.04-.22,.06-.37,.09-.73,.28-1.09,.49,.16-.01,.31-.03,.48-.04-.23,.18-.55,.21-.79,.23,.1-.06,.21-.12,.31-.19-.37,.03-.73,.07-1.13,.1,.48-.05,.95-.25,1.34-.44-.88,.15-1.66,.39-2.56,.33l.06-.05c-1.17,.51-2.29,1.24-3.56,1.74-.62,.24-.45,1.49-.29,1.47,2.68-.91,5.37-1.21,8.08-1.59-.33-.13-.66-.25-1-.36-.14-.02-.28-.06-.42-.13,.14,.04,.27,.09,.42,.13,.38,.05,.78-.03,1.2,.05,.09,.07,.32,.06,.39-.19,.57,.11,1.19-.17,1.75-.04,.03,0,.1,.06,.17,.13,.33-.07,.67-.13,1.02-.2,1.91-.38,3.79-.56,5.64-.52-.45-.11-.89-.24-1.31-.43-.57-.31-1.68,.13-2.63,.32-.24,.09-.4-.14-.64-.13,.77-.75,1.91-.39,2.86-.57,1.28-.19,3.12,.26,4.48-.28,.56-.23,1.12,0,1.6,.25-.16,.15-.48,.15-.64,.15-1.44-.02-2.88-.02-4.31,.17,1.52,.21,2.96-.03,4.46,.31-.87,.07-1.75-.26-2.55,.15,.07,.06,.15,.1,.22,.15,.58,.04,1.16,.12,1.73,.21,.17-.1,.34-.19,.51-.27,1.53-.85,3.5-.16,5.34-.3,.15,0,.38-.2,.63-.35-.6-.01-1.19-.11-1.79-.1,.24,.07,.47,.18,.69,.35-.56,.05-1.02-.28-1.58-.22,.3-.08,.6-.11,.9-.12-.36-.11-.74-.14-1.12-.2,.73-.29,1.42,.36,2.15-.06-.16,0-.31,0-.47-.03l.48,.02h0c.48-.01,.96-.17,1.39-.32-.83,.02-1.58-.3-2.39-.26-.13,.02-.26,.03-.4,.05,.14-.03,.27-.04,.4-.05,1.86-.18,3.74,.18,5.59,.38l.18-.02-.15-.31c-1.54-.11-3.11-.31-4.62-.56Z"/>
          </g>
        </g>
        <g class="cls-12">
          <g class="cls-12">
            <path class="cls-5" d="M379.17,65.59c-2.89-3.76-5.52-8.12-8.81-10.63-.36-.27-.73-.55-1.1-.84l.43,.55c3.32,4.35,6.67,8.73,9.9,12.96,.53,.63,1.07,1.27,1.61,1.92,.53,.66,1.07,1.33,1.6,1.99,1.1,1.34,2.08,2.81,3,4.41,.2,.35,.5,.24,.65,.19-.02-.41,0-.79,.05-1.15-1.71-2.51-3.56-4.89-5.35-7.42-.57-.86-1.65-1.47-1.99-1.98Z"/>
            <polygon class="cls-7" points="386.54 75.12 386.55 75.05 386.29 74.67 386.54 75.12"/>
            <path class="cls-4" d="M382.18,69.12c-.64-.78-1.23-1.58-1.79-2.39-.49-.44-1-.81-1.22-1.13-2.89-3.76-5.52-8.12-8.81-10.63-.35-.27-.72-.55-1.09-.83l.46,.59c1.14,1.42,2.23,2.96,3.42,4.43,.08,.07,.16,.14,.23,.21,.83,.69,1.24,1.62,1.86,2.43,1.92,2.17,3.2,4.24,4.98,6.52,.65,.81,1.56,1.51,2.2,2.55,.24,.35,.45,.69,.64,1.03,1.02,1.26,1.91,2.65,2.78,4.13,.2,.35,.5,.24,.65,.19,0-.22,0-.42,0-.62-.68-1.22-1.4-2.42-2.15-3.65-.75-1-1.49-2-2.22-3.03,0,.06,.02,.13,.04,.21Z"/>
            <path class="cls-7" d="M382.5,68.75c-.09-.15-.4-.2-.37,.16,.72,1.03,1.47,2.03,2.22,3.03-.64-1.02-1.27-2.06-1.85-3.19Z"/>
            <path class="cls-8" d="M383.52,68.29c-1.3-2.12-2.99-3.83-4-5.61-.55-.93-.98-1.93-1.33-2.83-.22-.27-.44-.53-.66-.79-5.48-6.44-11.44-12.36-17.52-18.07-3.13-2.79-6.52-4.76-10.19-6.92-2.13-1.35-3.58-2.82-5.57-4.3-.61-.48-1.23-.92-1.85-1.34-.64-.4-1.28-.77-1.92-1.12-1.29-.71-2.59-1.33-3.97-1.87-2.74-1.06-5.71-1.87-8.89-1.92-1.73,.03-1.86,1.37-1.47,1.35,2.38-.21,4.82,.4,7.09,1.36,2.28,.96,4.46,2.26,6.63,3.55,4.32,2.6,8.48,5.44,12.72,8.43,6.54,4.69,12.08,10,16.66,15.91,.38,.29,.75,.57,1.1,.84,3.28,2.5,5.92,6.87,8.81,10.63,.34,.51,1.42,1.12,1.99,1.98,1.8,2.53,3.65,4.91,5.35,7.42,.08-.75,.22-1.42,.19-2.14-1.11-1.52-2.31-2.96-3.17-4.56Z"/>
            <path class="cls-6" d="M383.52,68.29c.86,1.6,2.07,3.04,3.17,4.56-.02-.35-.08-.72-.21-1.11-1.85-4.26-5.27-8.22-8.29-11.89,.35,.9,.78,1.9,1.33,2.83,1.02,1.78,2.7,3.49,4,5.61Z"/>
            <path class="cls-4" d="M383.52,68.29c.82,1.53,1.97,2.9,3.02,4.35-.26-.55-.52-1.1-.85-1.62-1.63-2.67-3.47-5.23-5.07-7.9,1.01,1.33,1.93,2.73,2.9,4.08,.93,1.38,1.87,2.77,2.81,4.16-1.9-4.11-5.21-7.95-8.14-11.51,.35,.9,.78,1.9,1.33,2.82,1.02,1.78,2.7,3.49,4,5.61Z"/>
            <path class="cls-3" d="M380.47,64.28c2.04,3.14,4.09,6.26,6.25,9.41,.02-.2,.03-.4,.02-.6-.07-.15-.13-.29-.2-.44-1.05-1.45-2.2-2.82-3.02-4.35-1.3-2.12-2.99-3.83-4-5.61-.55-.92-.97-1.92-1.33-2.82-.21-.25-.41-.5-.62-.74-2.78-3.3-5.73-6.43-8.72-9.5-2.86-2.42-5.75-5.22-8.51-8.01,1.35,1.24,2.78,2.41,4.15,3.66-1.45-1.45-2.96-2.81-4.43-4.23-1.34-1.15-2.68-2.24-4.12-3.18-.46,.01-1.05-.13-1.85-.65-1.23-.83-2.41-1.69-3.78-2.36-.16-.13,0-.29-.32-.55,.92,.71,1.79,1.14,2.61,1.43-.9-.53-1.8-1.07-2.72-1.61-1.67-1.07-2.93-2.19-4.35-3.36l-.51-.29c-.85-.49-1.76-.91-2.69-1.31,.33,.22,.68,.45,1.03,.69-.63-.22-1.31-.7-1.85-1.02,.27,.11,.55,.21,.82,.33-.82-.51-1.61-1-2.48-1.55,1.06,.66,2.24,1.17,3.2,1.65-.97-.62-1.96-1.12-2.91-1.68-.95-.55-1.87-1.14-2.83-1.77l.17,.05c-3-1.26-6.26-2.24-9.8-2.32-1.74,.02-1.86,1.36-1.47,1.34,3.35-.28,6.71,1.05,9.76,2.67,3.09,1.68,6.07,3.54,9.04,5.46-.57-.58-1.16-1.14-1.77-1.71-.28-.22-.53-.45-.75-.7,.25,.23,.5,.47,.75,.7,.75,.61,1.67,1.13,2.44,1.84,.11,.18,.61,.54,.95,.48,.53,.48,1.17,.91,1.81,1.34,.63,.45,1.25,.91,1.77,1.4,.07,.05,.14,.19,.22,.35,.73,.51,1.48,1,2.2,1.54,4.11,2.91,7.78,6.11,11.09,9.53-.73-.89-1.4-1.8-2.03-2.63-.4-.59-1.21-1.32-2.16-2.1-.95-.78-2.08-1.55-3.07-2.32-.53-.35-.65-.79-1.13-1.18,2.11,.87,4,3.03,5.92,4.64,1.29,1.06,2.63,2.56,4.05,4.01,1.38,1.5,2.83,2.97,4.21,4.14,1.15,.97,1.93,2.16,2.5,3.25-.39-.24-.92-.87-1.2-1.17-1.22-1.39-2.43-2.8-3.74-4.12-1.27-1.36-2.62-2.65-4-3.91,2.61,2.88,5.31,5.47,7.6,8.59-.78-.83-1.47-1.71-2.18-2.55-.72-.84-1.49-1.6-2.35-2.24,.08,.17,.17,.33,.27,.5,.48,.56,.97,1.12,1.46,1.69,.46,.58,.92,1.16,1.38,1.74,.37,.29,.74,.56,1.09,.83,3.28,2.5,5.92,6.87,8.81,10.63,.22,.32,.73,.69,1.22,1.13-.85-1.28-1.7-2.55-2.63-3.79,.31,.54,.58,1.08,.77,1.62-.92-1.12-1.32-2.3-2.28-3.4,.56,.56,1.04,1.16,1.5,1.78-.46-.82-1.03-1.62-1.6-2.42,1.43,1.3,1.9,3.13,3.4,4.41-.25-.32-.48-.65-.7-.99l.72,1.01-.02-.02c.74,1,1.56,1.93,2.33,2.76-.62-.87-1.15-1.75-1.67-2.62-.53-.87-1.09-1.71-1.73-2.55l-.66-.81c.23,.27,.45,.54,.66,.81,3.05,3.75,5.47,7.97,7.79,12.16l.26,.38c.02-.17,.04-.33,.06-.5-1.94-3.49-4.1-6.92-6.14-10.27Z"/>
          </g>
        </g>
      </g>
    </g>
  </g>
</svg>