<?xml version="1.0" encoding="UTF-8"?>
<svg id="_Слой_2" data-name="Слой 2" xmlns="http://www.w3.org/2000/svg" xmlns:xlink="http://www.w3.org/1999/xlink" viewBox="0 0 417.01 201.78">
  <defs>
    <style>
      .cls-1 {
        fill: none;
      }

      .cls-2 {
        clip-path: url(#clippath);
      }

      .cls-3 {
        fill: #f3f9fb;
      }

      .cls-4 {
        fill: #f7fbfc;
      }

      .cls-5 {
        fill: #f8fcfd;
      }

      .cls-6 {
        fill: #f4fafb;
      }

      .cls-7 {
        fill: #f5fafb;
      }

      .cls-8 {
        fill: #fbfdfe;
      }

      .cls-9 {
        fill: #349039;
      }

      .cls-10 {
        fill: #6e7c6e;
      }

      .cls-11 {
        opacity: .49;
      }

      .cls-12 {
        opacity: .8;
      }
    </style>
    <clipPath id="clippath">
      <rect class="cls-1" width="417.01" height="201.78"/>
    </clipPath>
  </defs>
  <g id="_камыши_и_кувшинки" data-name="камыши и кувшинки">
    <g class="cls-2">
      <g>
        <g class="cls-11">
          <path class="cls-10" d="M65.77,77.6c19.2,.04,34.22,3.57,56.36,7.53,27.22,4.86,45.8,8.51,72.64,17.07-7.05-4.47-10.15-6.11-18.16-10.32-4.94-2.6-3.16-1.82-8.31-4.25-14-6.61-30.43-10.77-46.66-14.82-11.45-2.86-18.87-4.38-19.3-5.63,19.71-10.18,87.04-19.53,139.03-12.54,51.99,6.99,100.12,29.35,119.22,60.87,4.42,7.29,7.24,15.5,3.06,22.84-5.55,9.75-21.58,15.19-36.57,19.26-67.32,18.25-142.51,26.76-214.49,18.38-26.86-3.12-53.96-8.89-73.92-20.74-19.96-11.85-31.15-30.87-21.71-47.16,9.71-16.76,23.65-22.57,48.82-30.5Z"/>
          <path class="cls-10" d="M90.4,77.66c7.25,1.06,13.09,2.23,18.95,3.17,.91,.15,2.02-.18,3.17,.04,4.55,.88,9.3,1.25,13.6,2.62,4.69,1.51,9.48,2.46,14.14,2.93,4.43,.45,8.68,1.42,13,2.22,1.45,.26,2.89,.47,4.33,1.4,1.05,.67,3.12,1.2,4.85,.82,.33-.07,.95,.23,1.4,.41,.49,.2,1.01,.66,1.41,.65,4.48-.13,8.62,1.87,12.91,2.77,1.07,.23,2.13,.87,3.24,.38,.28-.13,1.32,.14,1.57,.41,.67,.7,1.47,1.03,2.47,1.31,3.37,.97,6.72,2.02,10.06,3.08l-2.05,4.39-2.51-1.58c-2.38-.28-4.22-1.91-6.23-3.05-1.5-.85-2.86-1.99-4.32-2.99-1.47-1.01-3.46-1.33-4.55-2.9-.17-.25-.91-.33-1.36-.56-1.01-.48-2.04-.96-3.06-1.44-.94-.45-1.92-.91-2.79-1.51-.89-.62-1.79-1.21-2.75-1.65-6.23-2.83-12.72-5.13-19.32-7.15-6.59-2.03-13.29-3.77-20.02-5.46-1.17-.29-2.26-.69-3.65-.43-.54,.1-1.34,.02-2.11-.16-.19-.05-.38-.1-.57-.16-.25-.07-.52-.16-.75-.25-.48-.18-.88-.36-1.16-.55-.87-.59-1.72-.92-2.66-1.17-.92-.25-1.94-.43-2.85-.68l-2.52-.68-1.24-.34-1.16-.36c-.4-.12-.74-.25-1.08-.37-.33-.13-.69-.25-.99-.39-.58-.26-1.15-.53-1.64-.79-.61-.31-1.45-.61-2.07-.94-.62-.34-1.08-.69-1.03-1.2,0-.02,0-.08-.04-.14-.02-.06-.12-.15-.02-.18,.11-.08,.19-.16,.19-.2-.03-.29,.07-.6,.36-.89,.29-.3,.76-.58,1.33-.85,.85-.29,1.68-.46,2.38-.7,1.58-.51,2.87-1,3.68-1.83,.86-.76,3.9-1.8,5.89-1.9,1.33-.06,2.31-.27,3.3-.47,.93-.23,1.85-.47,2.77-.7,9.37-2.2,18.83-3.83,28.32-5.17,2.24-.33,4.45-.79,6.68-1.25,1.11-.22,2.23-.44,3.35-.6,1.13-.15,2.26-.24,3.41-.26,1.09-.02,2.25-.51,3.29,.11,.21,.13,1.08-.04,1.41-.25,1.19-.75,2.45-.63,3.86-.68,3.19-.13,6.41-.26,9.62-.4,3.21-.1,6.39-.31,9.52-.73,4.88-.53,9.68-.5,14.52-.54,1.61-.03,3.24,.46,4.87,.58,1.59,.09,3.2,.16,4.8,.17,.95,.01,1.9,.26,2.86-.27,.52-.28,1.9-.31,2.44-.04,1.82,.88,3.83,.77,5.76,.91,5.52,.38,11.04,1,16.53,1.7,1.34,.21,2.91,0,3.99,1.05,.15,.14,.96-.01,1.47-.01,.54,0,1.23-.15,1.59,.04,3.35,1.68,7.15,1.75,10.74,2.53,8.66,1.92,17.31,4,25.71,6.9,2.35,.8,4.65,.81,6.91,1.66,2.18,.85,4.41,1.56,6.55,2.5,1.52,.65,3.3,.93,4.36,2.37,.29,.39,1.39,.85,1.93,.83,2.03-.05,3.71,1.19,5.51,1.9,1.1,.44,2.15,1.05,3.22,1.58,1.07,.55,2.17,1.01,3.42,1.13,.68,.06,1.53,1.08,2.35,1.58,1.44,.85,2.88,1.7,4.34,2.51,.7,.39,1.55,.48,2.25,.89,5.42,3.02,10.71,6.35,15.65,10.22,5.04,3.93,9.64,8.45,13.8,13.38,1.07,1.2,2.02,2.52,3.04,3.77,.94,1.32,1.93,2.6,2.79,3.98,1.79,2.69,3.44,5.57,4.68,8.71,.46,1.18,1.08,2.38,1.45,3.68,.39,1.28,.51,2.66,.07,3.93,1.02,2.33,.44,4.75-.84,6.61-.19,.26-.06,1.09-.13,1.68-.17,.89-.12,1.89-.42,2.79-.23,.94-.85,1.71-1.92,2.17-.08,.03-.16,.28-.28,.39-.59,.57-.79,1.27-1.12,2-.35,.68-.85,1.34-1.85,1.77-.64,.23-1.32,.68-1.99,1.23-.68,.53-1.41,1.06-2.09,1.53-1.43,.87-2.88,1.74-4.3,2.6-1.46,.91-3.37,1.15-4.41,2.7-.17,.26-1.58,.13-2.24,.43-3.39,1.66-7.27,2.03-10.39,4.24-.72,.5-1.99,.87-2.91,.88-3.3,.08-6.03,1.26-9.09,2.38-4.02,1.46-8.4,2.84-12.77,2.55-.93-.05-1.36-.16-2.13,.48-.51,.42-1.53,.59-2.34,.79-4.51,1.12-9.07,2.07-13.61,3.06-4.54,1.03-9.12,1.85-13.68,2.75-1.24,.24-2.49,.24-3.73,.28-1.25,.02-2.49,.08-3.74,.48-1.03,.33-2.35,.06-3.09,1.01-.1,.13-.53,.27-.74,.24-3.22-.4-6.06,1.46-9.19,1.51-.67,.02-1.32-.07-1.99-.07-.68,0-1.49-.12-2.03,.11-2.27,.91-4.65,1.37-7.05,1.65-2.41,.27-4.84,.43-7.21,.88-1.62,.3-3.46,.01-4.8,1.18-.2,.18-.93,.24-1.25,.14-2.93-.89-5.9,.34-8.83,.34-1.5,0-3.11,.83-4.54-.03-.18-.11-.77,.04-1.14,.14-.63,.17-1.24,.54-1.86,.58-1.73,.09-3.66-.3-5.15,.15-1.85,.54-3.64,.54-5.44,.69-1.03,.07-2.09-.31-3.16-.35-1-.04-2.03,.1-3.04,.15-1.45,.08-2.95,.34-4.34,.2-1.44-.15-2.52,.96-4.13,.31-1.23-.49-2.58,.49-3.93,.65-.67,.08-1.39-.01-2.07-.1-.52-.06-1.02-.37-1.5-.33-1.08,.09-2.14-.05-3.29,.42-.8,.33-2.24-.18-3.4-.26-1.15-.06-2.32,0-3.49,.01-1.16,0-2.42-.18-3.47,.06-4.63,1.11-9.37,.35-14.05,.4-1.2,.01-2.61,.33-3.62-.55-.18-.16-.87-.17-1.22-.1-4.49,1.01-9.09-.16-13.62-.03-3.23,.01-6.43,.24-9.71-.1-3.19-.3-6.45-.88-9.55-.78-2.56,.09-5.09,.15-7.54-.33-2.39-.51-4.95,.95-7.13-.83-2.46-.32-4.94-.63-7.38-1.08-2.06-.36-4.23-.37-6.1-1.54-.67-.44-2.09-.68-2.94-.55-2.74,.43-5.18-.36-7.68-1.35-.59-.24-1.45,0-2.17-.14-2.16-.42-4.34-.91-6.43-1.56-6.24-2-12.72-2.96-18.91-5.34-1.14-.43-2.64-.33-3.57-.9-5.63-3.56-12.18-5.57-17.45-9.85-3.8-3.16-7.56-6.3-10.99-9.89-3.41-3.58-6.54-7.61-8.65-12.3-.56-1.22-.39-2.8-.79-3.3-1.32-1.62-1.34-4-2.09-5.56-.71-1.42-.9-2.99-.93-4.54,0-1.55,.18-3.09,.32-4.63,.18-2.29,1.39-4.42,1.26-6.7-.03-.34,.33-1.05,.61-1.38,.54-.67,1.04-1.33,1.43-2.05,.4-.69,.74-1.33,1.06-2.03,.61-1.39,1.32-2.78,2.39-3.89,.29-.68,.66-1.33,1.07-1.95,.4-.63,.82-1.24,1.26-1.85,.95-1.16,1.95-2.3,3.05-3.33,1.12-1.01,2.23-2.04,3.44-2.93,.59-.46,1.17-.94,1.77-1.38,.6-.43,1.2-.87,1.79-1.32,.69-.55,1.26-1.2,1.93-1.76,.33-.29,.7-.69,1.05-.81,5.16-1.69,9.59-4.69,14.5-6.26,1.61-.52,3.27-.76,4.88-1.23,1.62-.43,3.16-1.3,4.89-1.08,.54,.07,1.41-.35,2.05-.65,3.49-1.68,6.68-1,7.49,1.4,.3,.87-.43,1.16-1.11,1.73-1.3,1.11-2.66,1.98-4.49,2.52-1.42,.41-3.07,.65-4.01,1.92-.16,.21-.81,.4-1.18,.42-2.65,.09-5.11,1.67-7.51,2.07-1.87,.28-3.37,1.1-5.04,1.64-1.38,.54-2.56,1.56-4.22,1.57-.56,.01-1.52,1.28-2.37,1.85-2.03,1.31-4.03,2.67-5.96,4.08-6.01,4.23-9.54,11-12.74,17.08-.4,2.5-.92,4.85-1.12,7.31-.17,2.44,0,4.97,.87,7.27,1.08,2.76,2.33,5.42,3.89,7.96,1.53,2.55,3.39,4.94,5.53,7.07,.89,.86,1.56,1.59,2.17,2.57,.38,.65,.83,1.3,1.38,1.82,2.16,1.98,4.57,3.68,6.96,5.39,1.3,.92,3.06,1.36,3.77,2.96,.1,.22,.73,.56,1.07,.61,.7,.09,1.36,.27,1.99,.53,.64,.23,1.26,.51,1.87,.83,1.22,.64,2.4,1.38,3.68,1.87,.97,.38,1.85,.85,2.75,1.65,.98,.84,2.79,1.56,4.13,1.67,1.02,.07,1.83,.36,2.73,.6,1.86,.53,3.68,1.27,5.51,1.98,1.85,.64,3.73,1.18,5.72,1.07,1.61,1.62,4.1,1.93,6.12,2.13,7.75,.86,15.22,3.09,22.96,4.08,1.86,.23,3.66,1.01,5.54,1.35,1.97,.37,3.98,.6,5.99,.79,1.07,.1,2.27,.64,3.2-.11,.07-.05,.26-.08,.37-.05,1.13,.25,2.25,.68,3.37,.73,1.01,.05,1.99-.41,3.02-.46,1.23-.05,2.51,.06,3.76,.17,1.21,.11,2.51,.06,3.43,.85,1.02-.84,2.38-.28,3.59-.27,1.14,.02,2.29,.15,3.44,.24l3.87,.28c1.29,.11,2.59,.23,3.87,.19,1.77-.05,3.51-.3,5.27-.31,1.86-.02,3.74,.07,5.59,.25,2.33,.17,4.63,.49,6.96,.69,.96,.08,1.79-.13,2.74-.43,1.25-.41,2.84-1.31,4.45-.06,.32,.24,1.46,.16,2.09,0,2.49-.66,5.02-.73,7.56-.69,1.27,.02,2.54,.08,3.81,.09,1.27-.01,2.53-.05,3.79-.18,2.8,.86,5.49,.18,8.35-.17,4.21-.57,8.68-1.02,12.85-.69,4.43,.32,8.7-.43,13.04-.54,1.22-.04,2.51-.49,3.61,.24,.25,.17,1.17,.02,1.66-.16,3.42-1.25,6.84-1.36,10.48-1.16,1.92,.06,4-.57,6.04-1.16,3.05-.91,6.51-.9,9.78-1.43,1.56,.83,2.52-.39,3.17-.95,.88-.75,1.77-.99,2.91-1.17,1.48-.24,2.96-.27,4.32-1.16,.69-.46,2.36-.67,3.22-.45,1.16,.3,1.52,0,2.45-.48,1.09-.58,2.46,.18,3.92-.12,1.55-.33,3.28-1.13,4.85-.33,.14,.07,.62-.03,.82-.16,2.67-1.66,5.84-.62,8.62-1.66,8.83-.5,17.27-3.45,25.89-5.11,3.57-.63,7.3-.84,10.64-2.2,7.02-2.87,14.39-4.15,21.11-6.96,.7-.31,1.41-.74,2.16-1.04,.74-.31,1.49-.5,2.34-.29,.24,.06,.87-.25,1.08-.51,1.63-1.85,3.56-2.61,5.78-3.26,.52-.18,1.31-.77,1.42-1.16,.16-.54,.42-.95,.78-1.26,.34-.32,.8-.55,1.1-.87,.38-.38,.98-.69,1.43-1.04,.44-.36,.83-.72,.89-1.07,.07-.77,.32-1.17,.71-1.48,.36-.32,.74-.58,1.05-.98,.29-.53,.37-1.21,.39-1.84,.04-.29-.21-.71-.11-.85,.66-.84,.57-1.89,.41-2.85-.24-.99-.56-1.93-.63-2.98,0-.45-.16-.92-.19-1.37-.17-2.62-.56-4.04-1.18-5.46-.64-1.43-1.65-2.91-3.86-5.75-.03-1.16-.79-1.96-1.57-2.74-.81-.76-1.69-1.48-1.96-2.64-.2-.85-1.28-1.94-2.1-2.52-3.68-2.46-6.2-6.17-9.74-8.79-.74-.53-.69-1.68-2.05-1.86-.51-.07-1.2-1.6-2-2.21-1.18-.85-2.13-2.15-3.79-2.32-.68-.06-1.58-1.03-2.42-1.52-1.13-.68-2.08-1.66-3.57-1.81-.8-.09-2.25-.95-2.78-1.67-2.2-3-5.63-3.47-8.64-4.54-.92-.32-1.58-.5-2.37-1.15-1.11-.92-2.64-2.09-3.8-2.19-2.05-.2-3.61-1.2-5.34-1.94-1.5-.62-3-1.26-4.49-1.91-1.51-.61-3.01-1.24-4.55-1.78-3.51-1.2-6.87-2.81-10.67-3.3-2.03-.3-4.67-.71-6.44-2.45-.2-.19-1.23,.18-1.8,.03-4.5-1.25-9.05-2.36-13.59-3.47-1.05-.25-1.97-1.63-3.13-.94-1.23,.74-1.97-1.36-3.06-.39-.16,.14-1.12-.08-1.59-.27-5.18-2.23-10.94-2.19-16.41-3.13-1.32-.23-2.87,.07-3.82-1.02-3.45,.63-7.05-1.77-10.49-.31-2.41-.51-5.06,.32-7.35-.94-.37-.2-1.22,.04-1.65-.15-1.46-.63-2.45,1.08-4.22,.11-1.03-.54-2.99-.25-4.53-.29-1.43-.04-2.86-.04-4.29-.05-1.57-.04-3.15,.03-4.73,.05-1.58,.03-3.16-.01-4.73,.1-3.18,.2-6.25,1.13-9.5,.95-.35-.02-.94,.14-1.06,.33-1.01,1.54-2.67,.8-3.78,.45-.94-.3-1.73-.42-2.73-.35-2.71,.2-5.43,.41-8.13,.61-1.61,.09-3.27,.74-4.89-.06-.5-.24-1.79-.07-2.49,.23-3.26,1.4-6.84,1.18-10.25,1.81-1.54,.29-3.1,.48-4.66,.68-1.18,.16-2.27,.94-3.53,.54-2.75,1.11-5.63,1.66-8.51,2.2l-4.32,.78-2.16,.4c-.71,.16-1.41,.34-2.11,.52l-3.94,1.08h-.03c-.11,.05,.14,.1,.04,.14-.05,.02-.2,.03-.55,.06-.24,.01-.48,.03-.71,.04-.33,.03-.65,.07-.96,.1-.59,.06-.28,.18,.38,.15,1.84-.07,2.53-.19,.77,.12-.32,.06,.26,.05,.67,0,1.15-.12,1.02-.11,.56,.16-.37,.2-.25,.41,.23,.31,.64-.13,1.03-.31,1.2-.33,.09,0,.13,.02,.18,.13l.04,.1s-.03,.07,.18,.16c.29,.16,.58,.34,.86,.55,.28,.2,1.29-.24,1.84-.07,2.13,.67,4.47,.7,6.43,2.03,.8,.54,2.16,.64,3.24,1.02,1.85,.65,3.79,.59,5.7,1.45,1.93,.86,4.2,1.25,6.31,1.88,2.12,.63,4.23,1.3,6.34,1.98,2.11,.7,4.21,1.43,6.31,2.2,2.09,.78,4.18,1.59,6.26,2.47,2.05,.86,4.17,1.83,6.13,2.76,.99,.47,2.01,.95,3.11,1.54l2.86,1.55c1.3,.7,2.52,1.47,3.68,2.53,2.98,2.73,7.33,4.86,12.79,7.3,.39,.17,.75,.46,1.13,.69l1.75,1.09,26.66,16.64-30.08-9.32c-4.72-1.46-9.47-2.79-14.11-4.37-2.32-.77-4.56-1.88-7-2.44-1.59-.38-3.1-.92-4.83-.71-1.44,.17-3.08-1.16-4.84-.62-.64,.19-2.13-.17-2.82-.62-2.28-1.5-5.01-1.6-7.55-2.23-2.92-.72-5.89-1.31-8.87-1.83-1.46-.25-2.86-.86-4.49-.37-.8,.24-2.51-.36-3.52-.88-1.57-.8-3.24-1.02-4.84-1.1-3.44-.16-3.42-.07-6.63-1.24-.38-.14-.81-.22-1.22-.29-4.13-.75-8.32-1.88-12.41-2.16-3.42-.22-6.68-.81-9.98-1.37-1.31-.23-2.9-.04-3.83-1.22-.13-.17-.88-.28-1.22-.21-2.92,.63-5.78-.41-8.62-.75-2.76-.35-5.36,.26-8.14-.21-2.61-.42-5.3-.44-7.96-.52-4.03-.13-4.9-.69-4.88-3.44,.01-2.25,1.07-2.75,4.46-3.14,7.23-.8,14.39,.74,20.17,1.29Z"/>
        </g>
        <g>
          <path class="cls-9" d="M78.08,36.43c19.2,.04,34.22,3.57,56.36,7.53,27.22,4.86,45.8,8.51,72.64,17.07-7.05-4.47-10.15-6.11-18.16-10.32-4.94-2.6-3.16-1.82-8.31-4.25-14-6.61-30.43-10.77-46.66-14.82-11.45-2.86-18.87-4.38-19.3-5.63,19.71-10.18,87.04-19.53,139.03-12.54,51.99,6.99,100.12,29.35,119.22,60.87,4.42,7.29,7.24,15.5,3.06,22.84-5.55,9.75-21.58,15.19-36.57,19.26-67.32,18.25-142.51,26.76-214.49,18.38-26.86-3.12-53.96-8.89-73.92-20.74-19.96-11.85-31.15-30.87-21.71-47.16,9.71-16.76,23.65-22.57,48.82-30.5Z"/>
          <path class="cls-9" d="M102.71,36.49c7.25,1.06,13.09,2.23,18.95,3.17,.91,.15,2.02-.18,3.17,.04,4.55,.89,9.3,1.25,13.6,2.62,4.69,1.51,9.48,2.46,14.14,2.93,4.43,.45,8.68,1.41,13,2.22,1.45,.26,2.89,.47,4.33,1.4,1.05,.67,3.12,1.2,4.85,.82,.33-.07,.95,.22,1.4,.41,.49,.2,1.01,.66,1.41,.65,4.48-.13,8.62,1.87,12.91,2.77,1.07,.23,2.13,.87,3.24,.38,.28-.13,1.32,.14,1.57,.41,.67,.7,1.47,1.03,2.47,1.31,3.37,.97,6.72,2.02,10.06,3.08l-2.05,4.39-2.51-1.58c-2.38-.28-4.22-1.91-6.23-3.05-1.5-.85-2.86-1.99-4.32-2.99-1.47-1.01-3.46-1.33-4.55-2.9-.17-.25-.91-.34-1.36-.56-1.01-.48-2.04-.96-3.06-1.44-.94-.45-1.92-.91-2.79-1.51-.89-.62-1.79-1.21-2.75-1.65-6.23-2.83-12.72-5.13-19.32-7.15-6.59-2.03-13.29-3.77-20.02-5.46-1.17-.29-2.26-.69-3.65-.43-.54,.1-1.34,.02-2.11-.16-.19-.05-.38-.1-.57-.16-.25-.07-.52-.16-.75-.25-.48-.18-.88-.36-1.16-.55-.87-.59-1.72-.92-2.66-1.17-.92-.25-1.94-.43-2.85-.68l-2.52-.68-1.24-.34-1.16-.36c-.4-.12-.74-.25-1.08-.37-.33-.13-.69-.25-.99-.39-.58-.26-1.15-.53-1.64-.79-.61-.31-1.45-.61-2.07-.94-.62-.34-1.08-.69-1.03-1.2,0-.02,0-.08-.04-.14-.02-.06-.12-.15-.02-.18,.11-.08,.19-.16,.19-.2-.03-.29,.07-.59,.36-.89,.29-.3,.76-.58,1.33-.85,.85-.29,1.68-.46,2.38-.7,1.58-.51,2.87-1,3.68-1.83,.86-.76,3.9-1.8,5.89-1.9,1.33-.06,2.31-.27,3.3-.47,.93-.23,1.85-.47,2.77-.7,9.37-2.2,18.83-3.83,28.32-5.17,2.24-.33,4.45-.79,6.68-1.25,1.11-.22,2.23-.44,3.35-.6,1.13-.15,2.26-.24,3.41-.26,1.09-.02,2.25-.51,3.29,.11,.21,.13,1.08-.04,1.41-.25,1.19-.75,2.45-.63,3.86-.68,3.19-.13,6.41-.26,9.62-.4,3.21-.1,6.39-.31,9.52-.73,4.88-.53,9.68-.5,14.52-.54,1.61-.03,3.24,.46,4.87,.58,1.59,.09,3.2,.16,4.8,.17,.95,.01,1.9,.26,2.86-.27,.52-.28,1.9-.31,2.44-.04,1.82,.88,3.83,.77,5.76,.91,5.52,.38,11.04,1,16.53,1.7,1.34,.21,2.91,0,3.99,1.05,.15,.14,.96-.01,1.47-.01,.54,0,1.23-.15,1.59,.04,3.35,1.68,7.15,1.75,10.74,2.53,8.66,1.92,17.31,4,25.71,6.9,2.35,.8,4.65,.81,6.91,1.66,2.18,.85,4.41,1.56,6.55,2.5,1.52,.65,3.3,.93,4.36,2.37,.29,.39,1.39,.85,1.93,.83,2.03-.05,3.71,1.19,5.51,1.9,1.1,.44,2.15,1.05,3.22,1.58,1.07,.55,2.17,1.01,3.42,1.13,.68,.06,1.53,1.08,2.35,1.58,1.44,.85,2.88,1.7,4.34,2.51,.7,.39,1.55,.48,2.25,.89,5.42,3.02,10.71,6.35,15.65,10.22,5.04,3.93,9.64,8.45,13.8,13.38,1.07,1.2,2.02,2.52,3.03,3.77,.94,1.32,1.93,2.6,2.79,3.98,1.79,2.69,3.44,5.57,4.68,8.71,.46,1.18,1.08,2.38,1.45,3.68,.39,1.28,.51,2.66,.07,3.93,1.02,2.33,.44,4.75-.84,6.61-.19,.26-.06,1.09-.13,1.68-.17,.89-.12,1.89-.42,2.79-.23,.94-.85,1.71-1.92,2.17-.08,.03-.16,.28-.28,.39-.58,.57-.79,1.27-1.12,2-.35,.68-.85,1.34-1.85,1.77-.64,.23-1.32,.68-1.99,1.23-.68,.53-1.41,1.06-2.09,1.53-1.43,.87-2.88,1.74-4.3,2.6-1.46,.91-3.37,1.15-4.41,2.7-.17,.26-1.58,.13-2.24,.43-3.39,1.66-7.27,2.03-10.39,4.24-.72,.5-1.99,.87-2.91,.88-3.3,.08-6.03,1.27-9.09,2.38-4.02,1.46-8.4,2.84-12.77,2.55-.93-.05-1.36-.16-2.13,.48-.51,.42-1.53,.59-2.34,.79-4.51,1.12-9.07,2.07-13.61,3.06-4.54,1.03-9.12,1.85-13.68,2.75-1.24,.24-2.49,.24-3.73,.28-1.25,.02-2.49,.08-3.74,.48-1.03,.33-2.35,.06-3.09,1.01-.1,.13-.53,.27-.74,.24-3.22-.4-6.06,1.46-9.19,1.51-.67,.02-1.32-.07-1.99-.07-.68,0-1.49-.12-2.03,.11-2.27,.91-4.65,1.37-7.05,1.65-2.41,.27-4.84,.43-7.21,.88-1.62,.31-3.46,.01-4.8,1.18-.2,.18-.93,.24-1.25,.14-2.93-.89-5.9,.34-8.83,.34-1.5,0-3.11,.83-4.54-.03-.18-.11-.77,.04-1.14,.14-.63,.17-1.24,.54-1.86,.58-1.73,.09-3.66-.3-5.15,.15-1.85,.54-3.64,.54-5.44,.69-1.03,.07-2.09-.31-3.16-.35-1-.04-2.03,.1-3.04,.15-1.45,.08-2.95,.34-4.34,.2-1.44-.15-2.52,.96-4.13,.31-1.23-.49-2.58,.49-3.93,.65-.67,.08-1.39-.01-2.07-.1-.52-.06-1.02-.37-1.5-.33-1.08,.09-2.14-.05-3.29,.42-.79,.33-2.24-.18-3.4-.26-1.15-.06-2.32,0-3.49,.01s-2.42-.18-3.47,.06c-4.63,1.11-9.37,.35-14.05,.4-1.2,.01-2.61,.33-3.62-.55-.18-.16-.87-.17-1.22-.1-4.49,1.01-9.09-.16-13.62-.03-3.23,.01-6.43,.24-9.71-.1-3.19-.3-6.45-.88-9.56-.78-2.56,.09-5.09,.15-7.54-.33-2.39-.51-4.95,.95-7.13-.83-2.46-.32-4.94-.63-7.38-1.08-2.06-.36-4.23-.37-6.1-1.54-.67-.44-2.09-.68-2.94-.55-2.74,.43-5.18-.36-7.68-1.35-.59-.24-1.45,0-2.17-.14-2.16-.42-4.34-.91-6.43-1.56-6.24-2-12.72-2.96-18.91-5.34-1.14-.43-2.64-.33-3.57-.9-5.63-3.56-12.18-5.57-17.45-9.85-3.8-3.16-7.56-6.3-10.99-9.89-3.41-3.58-6.54-7.6-8.65-12.3-.56-1.22-.39-2.8-.79-3.3-1.32-1.62-1.34-4-2.09-5.56-.71-1.42-.9-2.99-.93-4.54,0-1.55,.18-3.09,.32-4.63,.18-2.29,1.39-4.42,1.26-6.7-.03-.34,.33-1.05,.61-1.38,.54-.67,1.04-1.33,1.43-2.05,.4-.69,.74-1.33,1.06-2.03,.61-1.39,1.32-2.78,2.39-3.89,.29-.68,.66-1.33,1.07-1.95,.4-.63,.82-1.24,1.26-1.85,.95-1.16,1.95-2.3,3.05-3.33,1.12-1.01,2.23-2.04,3.44-2.93,.59-.46,1.17-.94,1.77-1.38,.6-.43,1.2-.87,1.79-1.32,.69-.55,1.26-1.2,1.93-1.76,.33-.29,.7-.69,1.05-.81,5.16-1.69,9.59-4.69,14.5-6.26,1.61-.52,3.27-.76,4.88-1.23,1.62-.43,3.16-1.3,4.89-1.08,.54,.07,1.41-.35,2.05-.65,3.49-1.68,6.68-1,7.49,1.4,.3,.87-.43,1.16-1.11,1.73-1.3,1.11-2.66,1.98-4.49,2.52-1.42,.41-3.07,.65-4.01,1.92-.16,.21-.81,.4-1.18,.42-2.65,.09-5.11,1.67-7.51,2.07-1.87,.28-3.37,1.1-5.04,1.64-1.38,.54-2.56,1.56-4.22,1.57-.56,.01-1.52,1.28-2.37,1.85-2.03,1.31-4.03,2.67-5.96,4.08-6.01,4.23-9.54,11-12.74,17.08-.4,2.5-.92,4.85-1.12,7.31-.17,2.44,0,4.97,.87,7.27,1.08,2.76,2.33,5.42,3.89,7.96,1.53,2.55,3.39,4.94,5.53,7.07,.89,.86,1.56,1.59,2.17,2.57,.38,.65,.83,1.3,1.38,1.82,2.16,1.98,4.57,3.68,6.96,5.39,1.3,.92,3.06,1.36,3.77,2.96,.1,.22,.73,.56,1.07,.61,.7,.09,1.36,.27,1.99,.52,.64,.23,1.26,.51,1.87,.83,1.22,.64,2.4,1.38,3.68,1.87,.97,.38,1.85,.85,2.75,1.65,.98,.84,2.79,1.56,4.13,1.67,1.02,.07,1.83,.36,2.73,.6,1.86,.53,3.68,1.27,5.51,1.98,1.85,.64,3.73,1.18,5.72,1.07,1.61,1.62,4.1,1.93,6.12,2.14,7.75,.86,15.22,3.09,22.96,4.08,1.86,.23,3.66,1.01,5.54,1.35,1.97,.37,3.98,.6,5.99,.79,1.07,.1,2.27,.64,3.2-.11,.07-.05,.26-.08,.37-.05,1.13,.25,2.25,.68,3.37,.73,1.01,.05,1.99-.42,3.02-.46,1.23-.05,2.51,.06,3.76,.17,1.21,.11,2.51,.06,3.43,.85,1.02-.84,2.38-.28,3.59-.27,1.14,.02,2.29,.15,3.44,.24l3.87,.28c1.29,.11,2.59,.23,3.87,.19,1.77-.05,3.51-.3,5.27-.31,1.86-.02,3.74,.07,5.59,.25,2.33,.17,4.63,.49,6.96,.69,.96,.08,1.79-.13,2.74-.43,1.25-.41,2.84-1.31,4.45-.06,.32,.24,1.46,.16,2.09,0,2.49-.66,5.02-.73,7.56-.69,1.27,.02,2.54,.08,3.81,.08,1.27-.01,2.53-.05,3.79-.18,2.8,.86,5.49,.18,8.35-.17,4.21-.57,8.68-1.02,12.85-.69,4.43,.32,8.7-.43,13.04-.54,1.22-.04,2.51-.49,3.61,.24,.25,.17,1.17,.02,1.66-.16,3.42-1.25,6.84-1.36,10.48-1.16,1.92,.06,4-.57,6.04-1.16,3.05-.91,6.51-.9,9.78-1.43,1.56,.83,2.52-.39,3.17-.95,.88-.74,1.77-.99,2.91-1.17,1.48-.24,2.96-.27,4.32-1.16,.69-.46,2.36-.67,3.22-.45,1.16,.3,1.52,0,2.45-.48,1.09-.58,2.46,.18,3.92-.12,1.55-.33,3.28-1.13,4.85-.33,.14,.07,.62-.03,.82-.16,2.67-1.66,5.84-.62,8.62-1.66,8.83-.5,17.27-3.45,25.89-5.11,3.57-.63,7.3-.84,10.64-2.2,7.02-2.87,14.39-4.15,21.11-6.96,.7-.31,1.41-.74,2.16-1.04,.74-.31,1.49-.5,2.34-.29,.24,.06,.87-.25,1.08-.51,1.63-1.85,3.56-2.61,5.78-3.26,.52-.18,1.31-.77,1.42-1.16,.16-.54,.42-.95,.78-1.26,.34-.32,.8-.55,1.1-.87,.38-.38,.98-.69,1.43-1.04,.44-.36,.83-.72,.89-1.07,.07-.77,.32-1.17,.71-1.48,.36-.32,.74-.58,1.05-.98,.29-.53,.37-1.21,.39-1.84,.04-.29-.21-.71-.11-.85,.66-.84,.57-1.89,.41-2.85-.24-.99-.56-1.93-.63-2.98,0-.45-.16-.92-.19-1.37-.17-2.62-.56-4.04-1.18-5.46-.64-1.43-1.65-2.91-3.86-5.75-.03-1.17-.79-1.96-1.57-2.74-.81-.76-1.69-1.48-1.96-2.64-.2-.84-1.28-1.94-2.1-2.52-3.68-2.46-6.2-6.17-9.74-8.79-.74-.53-.69-1.68-2.05-1.86-.51-.07-1.2-1.6-2-2.21-1.18-.84-2.13-2.15-3.79-2.31-.68-.06-1.58-1.03-2.42-1.52-1.13-.68-2.08-1.66-3.57-1.81-.8-.09-2.25-.95-2.78-1.67-2.2-3-5.63-3.47-8.64-4.54-.92-.32-1.58-.5-2.37-1.15-1.11-.92-2.64-2.09-3.8-2.19-2.05-.2-3.61-1.2-5.34-1.94-1.5-.62-3-1.26-4.49-1.91-1.51-.61-3.01-1.24-4.55-1.78-3.51-1.2-6.87-2.81-10.67-3.3-2.03-.3-4.67-.71-6.44-2.45-.2-.19-1.23,.18-1.8,.03-4.5-1.25-9.05-2.36-13.59-3.47-1.05-.25-1.97-1.63-3.13-.94-1.23,.74-1.97-1.36-3.06-.39-.16,.14-1.12-.08-1.59-.27-5.18-2.23-10.94-2.19-16.41-3.13-1.32-.23-2.87,.07-3.82-1.02-3.45,.63-7.05-1.77-10.49-.32-2.41-.51-5.06,.32-7.35-.94-.37-.2-1.22,.04-1.65-.15-1.46-.64-2.45,1.08-4.22,.11-1.03-.54-2.99-.25-4.53-.29-1.43-.04-2.86-.04-4.29-.05-1.57-.04-3.15,.03-4.73,.05-1.58,.03-3.16-.02-4.73,.1-3.18,.2-6.25,1.13-9.5,.95-.35-.02-.94,.14-1.06,.33-1.01,1.54-2.67,.8-3.78,.45-.94-.3-1.73-.42-2.73-.35-2.71,.2-5.43,.41-8.13,.61-1.61,.09-3.27,.74-4.89-.06-.5-.24-1.79-.07-2.49,.23-3.26,1.4-6.84,1.18-10.25,1.81-1.54,.29-3.1,.48-4.66,.68-1.18,.16-2.27,.94-3.53,.54-2.75,1.11-5.63,1.66-8.51,2.2l-4.32,.78-2.16,.4c-.71,.16-1.41,.34-2.11,.52l-3.94,1.08h-.03c-.11,.05,.14,.1,.04,.14-.05,.02-.2,.03-.55,.06-.24,.02-.48,.03-.71,.04-.33,.03-.65,.07-.96,.1-.59,.06-.28,.18,.38,.15,1.84-.07,2.53-.19,.77,.13-.32,.06,.26,.05,.67,0,1.15-.12,1.02-.11,.56,.16-.37,.2-.25,.41,.23,.31,.64-.13,1.03-.31,1.2-.33,.09,0,.13,.02,.18,.13l.04,.1s-.03,.07,.18,.16c.29,.16,.58,.34,.86,.55,.28,.2,1.29-.24,1.84-.07,2.13,.67,4.47,.7,6.43,2.03,.8,.54,2.16,.64,3.24,1.02,1.85,.65,3.79,.59,5.7,1.45,1.93,.86,4.2,1.25,6.31,1.88,2.12,.63,4.23,1.3,6.34,1.98,2.11,.7,4.21,1.43,6.31,2.2,2.09,.78,4.18,1.59,6.26,2.47,2.06,.86,4.17,1.83,6.13,2.76,.99,.47,2.01,.95,3.11,1.54l2.86,1.55c1.3,.7,2.52,1.47,3.68,2.53,2.98,2.73,7.33,4.86,12.79,7.3,.39,.17,.75,.46,1.13,.69l1.75,1.09,26.66,16.64-30.08-9.32c-4.72-1.46-9.47-2.79-14.11-4.37-2.32-.77-4.56-1.88-7-2.44-1.59-.38-3.1-.92-4.83-.71-1.44,.17-3.08-1.16-4.84-.62-.64,.19-2.13-.17-2.82-.62-2.28-1.5-5.01-1.6-7.55-2.23-2.92-.72-5.89-1.31-8.87-1.83-1.46-.25-2.86-.86-4.49-.37-.8,.24-2.51-.36-3.52-.88-1.57-.8-3.24-1.02-4.84-1.1-3.44-.16-3.42-.07-6.63-1.24-.38-.14-.81-.22-1.22-.29-4.13-.75-8.32-1.88-12.41-2.16-3.42-.22-6.68-.81-9.98-1.37-1.31-.23-2.9-.04-3.83-1.22-.13-.17-.88-.28-1.22-.21-2.92,.63-5.78-.41-8.62-.75-2.76-.35-5.36,.26-8.14-.21-2.61-.42-5.3-.44-7.96-.52-4.03-.13-4.9-.69-4.88-3.44,.01-2.25,1.07-2.75,4.46-3.14,7.23-.8,14.39,.74,20.17,1.29Z"/>
        </g>
        <g class="cls-12">
          <g class="cls-12">
            <path class="cls-5" d="M232.57,155.84c-2.81,.81-5.78,1.3-8.61,1.88-2.85,.52-5.56,1.11-7.93,1.94-.52,.18-1.06,.36-1.61,.54l.85-.1c6.46-.76,13.42-2.13,19.79-4.03,3.92-1.28,7.77-2.96,12.12-4.23,.49-.14,.46-.46,.44-.62-.49-.06-.92-.16-1.32-.26-1.73,.62-3.47,1.25-5.21,1.88-1.76,.59-3.53,1.16-5.36,1.69-1.22,.29-2.42,1.14-3.16,1.31Z"/>
            <polygon class="cls-7" points="246.45 150.95 246.37 150.93 245.85 151.12 246.45 150.95"/>
            <path class="cls-4" d="M237.92,153.96c-1.16,.42-2.32,.78-3.5,1.05-.73,.34-1.39,.72-1.85,.83-2.81,.81-5.78,1.3-8.61,1.88-2.85,.52-5.56,1.11-7.93,1.94-.52,.17-1.05,.35-1.59,.54l.92-.11c2.24-.23,4.53-.62,6.84-1.01,.12-.04,.24-.08,.36-.12,1.24-.46,2.48-.5,3.71-.75,3.46-.94,6.41-1.5,9.85-2.55,1.22-.4,2.42-1.11,3.88-1.49,.5-.15,.98-.27,1.45-.38,1.87-.69,3.78-1.39,5.81-1.97,.48-.14,.46-.46,.44-.62-.26-.03-.5-.08-.72-.12-1.65,.44-3.28,.95-4.96,1.44-1.43,.51-2.88,.97-4.35,1.43,.07,.01,.15,.01,.25,.01Z"/>
            <path class="cls-7" d="M237.65,153.54c-.21,.05-.4,.35,.02,.41,1.47-.46,2.92-.93,4.35-1.43-1.41,.4-2.86,.74-4.37,1.02Z"/>
            <path class="cls-8" d="M237.58,152.41c-2.9,.7-5.57,1.75-8.01,2.1-1.28,.18-2.57,.23-3.71,.18-.4,.1-.79,.19-1.19,.29-9.76,2.51-19.7,4.25-29.62,5-4.96,.47-9.52,1.36-14.6,2.06-3.03,.23-5.48,.02-8.44-.14-7.39-.43-13.76,.83-21.36,.86-2.04,.02-2.39,1.26-1.89,1.3,6.39,.09,12.57,.24,18.77,.23,6.19-.06,12.38-.27,18.71-.94,9.81-1.05,19.02-2.11,28.18-3.16,.55-.18,1.09-.37,1.61-.54,2.37-.82,5.09-1.42,7.93-1.94,2.83-.58,5.8-1.07,8.61-1.88,.74-.17,1.94-1.02,3.16-1.31,1.83-.52,3.6-1.1,5.36-1.69,1.74-.63,3.48-1.26,5.21-1.88-.84-.22-1.56-.5-2.38-.6-2.09,.85-4.2,1.62-6.34,2.06Z"/>
            <path class="cls-6" d="M237.58,152.41c2.14-.44,4.25-1.21,6.34-2.06-.4-.05-.83-.06-1.32,0-5.43,.89-11.21,3-16.74,4.35,1.15,.05,2.43,0,3.71-.18,2.44-.35,5.11-1.39,8.01-2.1Z"/>
            <path class="cls-4" d="M237.58,152.41c2.04-.43,4.06-1.14,6.05-1.95-.71,.14-1.42,.32-2.13,.52-3.62,.96-7.24,2.05-10.9,2.64,3.87-.95,7.71-1.99,11.53-3.2-5.29,.93-10.89,2.97-16.26,4.27,1.14,.04,2.43,0,3.7-.18,2.44-.35,5.11-1.39,8.01-2.1Z"/>
            <path class="cls-3" d="M231.77,154.16c1.1-.24,2.2-.49,3.3-.73,1.1-.27,2.19-.56,3.28-.86,2.19-.58,4.36-1.27,6.52-2.07-.22-.06-.44-.11-.67-.14-.19,.04-.38,.07-.56,.11-1.99,.81-4.01,1.52-6.05,1.95-2.9,.7-5.57,1.75-8.01,2.1-1.28,.18-2.56,.23-3.7,.18-.37,.09-.75,.18-1.12,.27-2.49,.67-5.01,1.19-7.51,1.77-2.52,.51-5.03,1.02-7.56,1.44-4.33,1.11-9.16,1.73-13.83,1.97,2.19-.22,4.37-.54,6.55-.9l-3.63,.42c-1.21,.1-2.42,.2-3.64,.31-2.1,.21-4.13,.48-6.16,.77-.39,.33-1.03,.64-2.17,.82-1.77,.27-3.52,.33-5.32,.74-.25,.01-.21-.23-.71-.2,1.4-.06,2.53-.3,3.51-.62-1.23,.18-2.48,.36-3.75,.55-2.38,.21-4.4,.07-6.6-.03l-.71,.05c-1.17,.06-2.36,.22-3.56,.4,.48,0,.98,0,1.49,0-.78,.16-1.78,.16-2.53,.16,.35-.05,.7-.11,1.04-.16-1.16,0-2.28,.01-3.51-.03,1.5,.05,3.03-.14,4.31-.29-2.76,.11-5.3,.18-8.01-.03l.21-.04c-3.85,.27-7.71,.69-11.93,.7-2.04,.02-2.39,1.26-1.89,1.3,8.92,.15,17.46,.39,26.13,.07-.99-.14-1.98-.27-2.97-.41-.43-.03-.85-.08-1.24-.17l1.24,.17c1.17,.09,2.47,.02,3.73,.1,.24,.07,.99,.06,1.28-.19,1.73,.13,3.79-.17,5.52-.11,.1,0,.28,.05,.49,.12,1.09-.1,2.18-.2,3.28-.3,6.15-.68,12-1.33,17.83-1.97-1.41,.04-2.78,.06-4.04,.01-1.72-.1-5.26,.6-8.28,1.02-.76,.13-1.23-.07-1.99-.02,2.59-.86,6.04-.82,9.05-1.26,2-.32,4.43-.49,6.88-.79,2.45-.33,4.95-.64,7.06-1.29,1.74-.53,3.47-.55,4.95-.58-.49,.26-1.49,.41-1.99,.5-4.46,.74-8.94,1.41-13.44,2.08,4.73-.3,9.22-1.21,13.93-1.68-2.74,.52-5.45,.66-7.97,1.39,.22,.02,.45,.04,.68,.06,1.82-.19,3.63-.41,5.44-.63,.54-.18,1.07-.36,1.59-.54,2.37-.82,5.09-1.42,7.93-1.94,2.83-.58,5.8-1.07,8.61-1.88,.47-.11,1.12-.49,1.85-.83-1.83,.42-3.66,.84-5.5,1.26,.76-.09,1.48-.17,2.17-.17-1.71,.5-3.2,.46-4.92,.91,.92-.29,1.83-.52,2.75-.74-1.13,.14-2.31,.37-3.49,.57,2.2-.78,4.42-.6,6.59-1.6-.48,.13-.96,.24-1.44,.33l1.47-.34h-.03c1.46-.38,2.89-.88,4.16-1.39-2.51,.69-4.87,.94-7.33,1.57l-1.22,.32c.41-.12,.82-.23,1.22-.32,5.63-1.55,11.38-2.68,16.99-4.29l.52-.19c-.19-.05-.37-.1-.55-.15-2.32,.66-4.67,1.33-7.03,1.87l-3.52,.82c-1.17,.23-2.34,.46-3.5,.69Z"/>
          </g>
        </g>
        <g class="cls-12">
          <g class="cls-12">
            <path class="cls-5" d="M138.88,162.77c-1.41-.21-2.73-1.27-4.07-.76-.15,.05-.3,.1-.45,.16l.19,.1c1.46,.75,3.09,1.25,4.69,1.45,1.02,0,2.13-.28,3.18,.1,.12,.04,.21-.26,.26-.41-.05-.22-.09-.46-.12-.69-.92-.06-1.86-.02-2.77-.22-.29-.1-.74,.34-.92,.28Z"/>
            <polygon class="cls-7" points="142.59 162.76 142.58 162.71 142.44 162.7 142.59 162.76"/>
            <path class="cls-4" d="M140.32,162.67c-.31,.02-.61-.04-.89-.12-.22,.1-.44,.26-.55,.22-1.41-.21-2.73-1.27-4.07-.76-.15,.05-.29,.1-.44,.16,.07,.03,.14,.07,.21,.1,.51,.26,1.03,.49,1.57,.69l.1-.03c.36-.14,.59,.18,.88,.27,.88,.03,1.54,.41,2.42,.45,.31,.02,.72-.26,1.07-.14,.12,.02,.24,.06,.35,.12,.5-.02,1,.02,1.49,.19,.12,.04,.21-.26,.26-.41-.03-.12-.05-.24-.07-.36-.39-.17-.8-.26-1.21-.39-.38-.01-.76-.03-1.14-.08,0,.03,.02,.06,.04,.09Z"/>
            <path class="cls-7" d="M140.4,162.2c-.05-.02-.17,.19-.12,.38,.38,.05,.76,.07,1.14,.08-.34-.11-.69-.24-1.02-.47Z"/>
            <path class="cls-8" d="M140.72,161.14c-.69-.32-1.48-.07-2.01-.49-.28-.2-.54-.49-.75-.85-.1-.02-.2-.04-.3-.05-2.53-.29-5.01-.65-7.42-1.41-1.22-.3-2.45,.06-3.76,.26-.76,0-1.32-.45-2.03-.75-1.78-.84-3.51,.33-5.4,.62-.51,.08-.67,1.33-.54,1.35,3.15-.3,6.01,.58,9.13,.65,2.42,.09,4.65,.66,6.72,1.7,.15-.06,.3-.11,.45-.16,1.34-.51,2.66,.55,4.07,.76,.18,.06,.62-.38,.92-.28,.91,.21,1.85,.16,2.77,.22-.06-.49-.09-.98-.18-1.36-.59,.03-1.17,.06-1.66-.21Z"/>
            <path class="cls-6" d="M140.72,161.14c.49,.27,1.07,.24,1.66,.21-.05-.19-.11-.34-.21-.46-1.16-1.02-2.79-.89-4.21-1.09,.21,.36,.46,.65,.75,.85,.53,.42,1.32,.17,2.01,.49Z"/>
            <path class="cls-4" d="M140.72,161.14c.47,.26,1.02,.24,1.58,.21-.16-.11-.32-.2-.5-.26-.89-.3-1.83-.45-2.66-.97,.97,.24,1.94,.49,2.93,.67-1.16-.92-2.74-.79-4.11-1,.2,.36,.46,.65,.75,.85,.53,.42,1.32,.17,2.01,.49Z"/>
            <path class="cls-3" d="M139.2,160.97c1.05,.42,2.12,.78,3.28,.83-.02-.13-.04-.25-.06-.36-.04-.03-.08-.06-.12-.09-.56,.03-1.11,.04-1.58-.21-.69-.32-1.48-.07-2.01-.49-.28-.2-.54-.49-.75-.85-.1-.02-.19-.03-.28-.05-1.29-.15-2.57-.31-3.84-.54-1.17,.18-2.34-.13-3.45-.59,.54,.1,1.09,.17,1.65,.21-.6-.14-1.19-.31-1.78-.49-.52-.13-1.04-.14-1.56-.09-.15,.27-.35,.5-.64,.53-.46,.06-.88-.04-1.37,.18-.06-.01-.02-.25-.14-.27,.34,.08,.64-.04,.93-.26-.33,.06-.66,.11-.97,.17-.6,0-1.07-.27-1.59-.54-.06,0-.12,0-.18,0-.3,0-.61,.1-.92,.22,.12,.02,.24,.05,.36,.07-.21,.12-.46,.07-.64,.03,.09-.04,.18-.07,.27-.11-.29-.06-.56-.11-.86-.17,.37,.07,.76-.01,1.1-.11-.69-.06-1.33-.02-1.98-.3l.06-.04c-.99,.21-1.99,.64-3.04,.8-.51,.08-.67,1.33-.54,1.35,2.19-.21,4.26,.16,6.36,.42-.22-.2-.43-.4-.66-.58-.1-.05-.19-.12-.28-.23,.09,.07,.18,.15,.28,.23,.27,.14,.59,.15,.88,.33,.05,.09,.23,.13,.33-.09,.4,.24,.92,.12,1.31,.37,.02,0,.06,.08,.09,.17,.27,.02,.54,.03,.81,.03,1.51,.06,2.95,.3,4.32,.73-.31-.21-.61-.43-.88-.69-.35-.42-1.28-.24-2.03-.27-.2,.03-.27-.23-.45-.27,.75-.56,1.51,.05,2.27,.07,1,.1,2.27,.92,3.41,.68,.48-.11,.84,.24,1.13,.57-.16,.12-.4,.05-.52,.01-1.07-.31-2.15-.61-3.26-.74,1.09,.53,2.21,.6,3.26,1.23-.67-.11-1.25-.61-1.94-.38,.04,.07,.08,.13,.13,.19,.42,.17,.84,.36,1.25,.56,.15-.06,.3-.11,.44-.16,1.34-.51,2.66,.55,4.07,.76,.11,.04,.33-.12,.55-.22-.44-.13-.87-.33-1.32-.44,.16,.11,.31,.26,.43,.47-.43-.06-.7-.47-1.14-.52,.24-.02,.48,0,.7,.06-.25-.17-.52-.28-.8-.42,.62-.14,.98,.63,1.63,.36-.12-.02-.24-.06-.35-.12l.35,.12h0c.36,.08,.76,.02,1.12-.05-.63-.14-1.12-.59-1.74-.72-.1,0-.2-.02-.31-.03,.11,0,.21,.01,.31,.03,1.44,.19,2.76,.89,4.11,1.42h.14s-.04-.32-.04-.32c-1.13-.39-2.26-.87-3.34-1.41Z"/>
          </g>
        </g>
        <g class="cls-12">
          <g class="cls-12">
            <path class="cls-5" d="M395.21,88.26c-.68-3.15-.71-6.67-2.23-9.08-.16-.26-.32-.53-.49-.81l.08,.47c.61,3.51,1.25,7.29,2.05,10.85,.61,2.19,1.5,4.4,1.77,6.91,.03,.28,.35,.27,.51,.27,.16-.28,.35-.52,.54-.75-.47-2.02-1.04-4-1.41-6.09-.09-.7-.74-1.36-.8-1.77Z"/>
            <polygon class="cls-7" points="397.4 96.21 397.44 96.16 397.37 95.86 397.4 96.21"/>
            <path class="cls-4" d="M396.18,91.29c-.2-.66-.33-1.33-.43-1.99-.22-.41-.5-.77-.54-1.03-.68-3.15-.71-6.67-2.23-9.08-.16-.26-.32-.52-.49-.8l.08,.5c.22,1.27,.44,2.5,.65,3.72l.1,.19c.38,.65,.27,1.35,.39,2.03,.58,1.88,.66,3.54,1.15,5.46,.17,.69,.65,1.36,.75,2.2,.05,.28,.08,.56,.1,.83,.3,1.07,.56,2.17,.69,3.35,.03,.28,.35,.27,.51,.27,.09-.15,.18-.28,.27-.41-.08-.95-.23-1.9-.35-2.87-.2-.83-.41-1.65-.58-2.5-.02,.04-.04,.09-.06,.15Z"/>
            <path class="cls-7" d="M396.63,91.13c-.01-.12-.27-.23-.4,.01,.17,.84,.38,1.67,.58,2.5-.1-.81-.19-1.64-.18-2.51Z"/>
            <path class="cls-8" d="M397.74,91.08c-.13-1.69-.82-3.21-.8-4.62-.02-.74,.08-1.49,.24-2.18-.06-.23-.11-.46-.16-.68-1.51-5.59-3.4-11.09-6.06-16.31-1.41-2.6-3.49-4.44-5.6-6.42-1.17-1.26-1.79-2.54-2.7-3.95-2.19-3.57-5.47-5.38-7.92-8.89-.64-.94-1.83-.52-1.71-.26,3.84,6.34,8.47,11.3,12.98,16.65,3.55,4.13,5.59,8.98,6.48,13.94,.17,.28,.34,.55,.49,.81,1.53,2.41,1.56,5.94,2.23,9.08,.06,.41,.71,1.08,.8,1.77,.37,2.08,.95,4.07,1.41,6.09,.4-.48,.81-.88,1.09-1.35-.37-1.23-.72-2.45-.78-3.69Z"/>
            <path class="cls-6" d="M397.74,91.08c.05,1.24,.41,2.46,.78,3.69,.14-.23,.24-.48,.28-.76,.24-3.16-.83-6.56-1.62-9.72-.16,.68-.25,1.44-.24,2.18-.02,1.42,.67,2.93,.8,4.62Z"/>
            <path class="cls-4" d="M397.74,91.08c.05,1.18,.38,2.35,.72,3.52,0-.41-.01-.83-.06-1.24-.24-2.11-.66-4.21-.74-6.33,.39,2.23,.77,4.45,1.16,6.71,.15-3.08-.89-6.37-1.65-9.44-.16,.68-.25,1.43-.24,2.17-.02,1.42,.67,2.93,.8,4.62Z"/>
            <path class="cls-3" d="M396.97,87.73c.29,2.53,.58,5.06,1.2,7.58,.1-.13,.2-.25,.28-.38,0-.11,0-.22,.01-.33-.35-1.17-.67-2.34-.72-3.52-.13-1.69-.82-3.21-.8-4.62-.02-.74,.08-1.49,.24-2.17-.05-.22-.1-.43-.15-.64-.77-2.85-1.63-5.69-2.65-8.47-1.24-2.29-2.28-4.86-3.4-7.36,.63,1.12,1.24,2.25,1.82,3.39-.56-1.3-1.16-2.6-1.82-3.87-.59-1.1-1.31-2.07-2.1-2.96-.38-.03-.8-.2-1.26-.67-.7-.74-1.3-1.55-2.16-2.17-.09-.11,.11-.24-.06-.47,.48,.63,1.01,1.04,1.56,1.33-.52-.49-1.05-.99-1.58-1.49-.92-1-1.5-1.99-2.15-3.06l-.28-.29c-.46-.48-.99-.9-1.54-1.32,.17,.21,.34,.43,.51,.66-.39-.24-.74-.69-1-1.02,.16,.12,.32,.24,.48,.36-.4-.52-.78-1.01-1.2-1.56,.5,.67,1.15,1.24,1.72,1.71-1.02-1.16-2-2.19-2.75-3.51l.1,.07c-1.54-1.49-3.19-2.93-4.53-4.88-.64-.94-1.84-.53-1.71-.26,2.68,4.43,5.76,8.17,8.9,11.86-.23-.53-.46-1.06-.69-1.58-.13-.21-.23-.42-.3-.65,.1,.21,.2,.43,.3,.65,.34,.57,.83,1.1,1.18,1.73,.02,.15,.28,.48,.57,.46,.48,.86,1.36,1.62,1.81,2.48,.03,.05,.04,.17,.04,.3,.39,.46,.78,.92,1.18,1.39,2.2,2.59,3.84,5.45,4.97,8.45-.18-.76-.35-1.51-.46-2.23-.12-1-1.35-2.63-2.37-3.97-.29-.32-.22-.67-.45-1.02,1.39,.85,2.05,2.75,2.89,4.22,1.15,1.99,1.81,5.13,2.99,7.31,.51,.9,.52,1.91,.48,2.76-.21-.25-.36-.79-.43-1.06-.63-2.43-1.41-4.84-2.54-7.11,.8,2.51,1.8,4.85,2.14,7.46-.45-1.46-.57-3-1.41-4.22-.01,.13-.02,.27-.02,.4,.28,.96,.48,1.95,.67,2.92,.17,.28,.33,.55,.49,.8,1.53,2.41,1.56,5.94,2.23,9.08,.04,.26,.31,.63,.54,1.03-.16-1.04-.24-2.08-.45-3.11,0,.43-.02,.84-.12,1.24-.24-.96-.04-1.81-.3-2.77,.19,.5,.32,1.01,.42,1.53,0-.64-.1-1.31-.18-1.97,.54,1.21,.11,2.5,.76,3.71-.05-.27-.09-.54-.11-.82l.12,.83v-.02c.16,.83,.45,1.63,.72,2.36-.25-1.44-.16-2.79-.46-4.19l-.18-.69c.07,.23,.13,.46,.18,.69,.78,3.2,.91,6.51,1.22,9.77l.07,.3,.27-.31c-.31-2.7-.53-5.44-.73-8.12Z"/>
          </g>
        </g>
      </g>
    </g>
  </g>
</svg>