<?xml version="1.0" encoding="UTF-8"?>
<svg id="_Слой_2" data-name="Слой 2" xmlns="http://www.w3.org/2000/svg" xmlns:xlink="http://www.w3.org/1999/xlink" viewBox="0 0 370.13 218.28">
  <defs>
    <style>
      .cls-1 {
        fill: none;
      }

      .cls-2 {
        clip-path: url(#clippath);
      }

      .cls-3 {
        fill: #f3f9fb;
      }

      .cls-4 {
        fill: #f7fbfc;
      }

      .cls-5 {
        fill: #f8fcfd;
      }

      .cls-6 {
        fill: #f4fafb;
      }

      .cls-7 {
        fill: #f5fafb;
      }

      .cls-8 {
        fill: #fbfdfe;
      }

      .cls-9 {
        fill: #349039;
      }

      .cls-10 {
        fill: #6e7c6e;
      }

      .cls-11 {
        opacity: .49;
      }

      .cls-12 {
        opacity: .8;
      }
    </style>
    <clipPath id="clippath">
      <rect class="cls-1" width="370.13" height="218.28"/>
    </clipPath>
  </defs>
  <g id="_камыши_и_кувшинки" data-name="камыши и кувшинки">
    <g class="cls-2">
      <g>
        <g>
          <g class="cls-11">
            <path class="cls-10" d="M104.22,207.93c-23.37,.1-51.44-6.61-71.58-21.9-3.36-3.4-5.03-6.79-8.39-8.49-3.36-5.09-5.03-8.49-8.39-11.89-5.03-11.89-6.71-27.17,1.68-37.36,31.88-35.66,77.19-50.94,122.5-57.73,68.8-10.19,140.96,11.89,189.6,61.19l-.58,1.22c-45.95,3.49-96.16,6.73-144.91,9.21l10.37,1.01c33.07-.59,60.28,2.46,93.27,4.88,18.5,1.36,37.51,3.34,53.94,12.05h0c-3.91,15.09-18.48,25.36-34.1,32.38-33.74,15.17-68.31,23.25-105.31,20.41-36.29-2.78-66.62-1.66-102.69-6.61"/>
            <path class="cls-10" d="M77.94,207.21c-7.72-1.52-13.88-3.4-19.96-5.47-.96-.29-2.17-.26-3.35-.73-2.35-.91-4.72-1.91-7.05-2.92-1.15-.55-2.28-1.12-3.38-1.72-1.11-.59-2.13-1.32-3.12-2.03l-1.62-1.17-1.59-1.21c-1.06-.81-2.17-1.51-3.21-2.32-.53-.38-1.06-.77-1.59-1.15-.54-.4-1.03-.68-1.71-1.22-.5-.5-1-.99-1.49-1.49-.45-.47-.9-.93-1.35-1.39-.96-1-1.83-1.98-2.69-2.82-.43-.42-.85-.79-1.28-1.12-.23-.16-.39-.29-.68-.47-.39-.24-.81-.46-1.22-.68-.4-.55-.77-1.15-1.15-1.7l-.82-1.26-1.63-2.49c-.87-1.29-1.74-2.45-2.23-4.08-.18-.6-.61-1.33-1.22-1.97l-.24-.23c-.09-.08-.22-.21-.33-.31-.23-.2-.47-.4-.73-.6-.31-.49-.69-1.07-1.04-1.43-.26-.26-.41-1-.51-1.53-.12-.57-.03-1.32-.27-1.68-1.28-2.07-2.03-4.43-2.43-6.86-.25-1.2-.33-2.45-.49-3.67-.1-1.23-.21-2.47-.31-3.69-.14-1.23,.26-2.56-.48-3.66-.22-.28-.11-1.52,.11-1.87,.55-.91,.82-1.85,1.03-3.03,.52-2.53,1.24-5.06,2.46-7.4,.26-.61,.61-1.16,.95-1.73,.35-.56,.64-1.15,1.07-1.68l1.2-1.62c.41-.49,.84-.9,1.26-1.35,.9-2.41,3.11-4.11,4.9-5.93,1.41-1.31,3.05-2.36,4.58-3.52,.77-.58,1.43-1.35,2.14-2.04,.75-.65,1.54-1.23,2.54-1.48,.32-.08,.71-.75,1.12-1.11,.91-.8,1.79-1.66,2.7-2.47,.9-.82,1.9-1.49,2.91-2.04,1.04-.55,2.07-1.11,3.01-1.8,.76-.55,1.5-1.13,2.28-1.65l2.35-1.54,4.71-3.07,4.86-2.83,2.43-1.42,2.49-1.3,4.98-2.59c1.69-.81,3.39-1.58,5.09-2.37,3.37-1.64,6.87-2.95,10.32-4.41,1.2-.51,2.42-.78,3.51-1.81,.86-.8,3.08-1.63,4.21-1.55,1.81,.11,3.23-.6,4.76-1.07,1.42-.41,2.82-.88,4.23-1.34,1.41-.44,2.84-.83,4.27-1.2,1.7-.42,3.44-1.47,5.18-.87,.17,.06,.71-.08,.87-.21,1.64-1.42,3.68-1.08,5.59-1.42,1.39-.27,2.77-.56,4.17-1.36,1.36-.78,3.81-1.38,5.26-1.18,1.95,.29,3.58-.22,5.29-.54l3.77-.69,3.79-.6c2.53-.4,5.05-.83,7.6-1.09,5.09-.57,10.17-1.34,15.29-1.55,2.42-.16,4.81-.54,7.22-.87,2.41-.26,4.84-.35,7.29-.2,1.17,.08,2.45-.31,3.49,.4,.21,.15,1.15,.06,1.52-.12,1.35-.67,2.68-.32,4.19-.22,3.42,.25,6.85,.56,10.27,.79,3.41,.41,6.8,.73,10.18,.8,2.64,0,5.2,.42,7.76,.82,2.56,.4,5.1,.84,7.67,1.2,1.7,.3,3.3,1.18,4.99,1.66,1.64,.47,3.33,.81,5.01,1.14,1,.2,1.95,.62,3.06,.3,.59-.15,2.03,.17,2.54,.58,1.7,1.36,3.83,1.63,5.82,2.22,1.42,.43,2.85,.81,4.25,1.26l4.19,1.46c2.79,.99,5.6,1.91,8.36,2.99,1.34,.57,2.99,.81,3.87,2.12,.12,.18,.99,.24,1.52,.37,.56,.14,1.3,.17,1.64,.45,.77,.63,1.6,1.16,2.46,1.62,.86,.46,1.76,.86,2.64,1.3,1.78,.85,3.63,1.58,5.37,2.46l3.18,1.58c1.06,.52,2.14,1.03,3.15,1.63l6.2,3.48c4.2,2.2,8.09,4.93,12.05,7.52,1.09,.75,2.26,1.23,3.36,1.82,1.09,.59,2.18,1.17,3.21,1.95,1.98,1.51,4.04,2.92,6.01,4.45,.71,.52,1.46,1.03,2.13,1.63,.67,.59,1.27,1.24,1.62,2.12,.19,.48,1.17,1.28,1.72,1.44,2.07,.59,3.44,2.32,5.11,3.55l.38,.29,.37,.39,.72,.8,1.43,1.61c.97,1.07,2,2.05,3.34,3.04,.73,.56,1.32,1.75,2.06,2.59l1.98,2.25,.13,.14s.11,.09,.05,.15l-.16,.34-.32,.69c-.06,.1-.09,.25-.18,.32l-.35,.07-.7,.14c-.89,.18-1.5,.54-2.41,.76-1.73,.42-3.47,.85-5.22,1.31-.11,.03-.21,.06-.34,.08l-.43,.04-.86,.09-1.74,.17-2.85,.29c-3.24,.35-6.49,.67-9.73,.95-6.62,.58-13.25,.96-19.88,1.42-6.63,.45-13.26,.97-19.89,1.29-2.49,.12-5.14,.99-7.52-.07-2.24,.87-4.28,.56-6.34-.13-.29-.1-1,.29-1.53,.43-1.66,.42-3.18,1.74-5.11,.53-.07-.04-.3,.03-.45,.02-1.55-.09-2.54,1.31-4.55,.63-1.25-.43-3.22-.1-4.86-.04-1.7,.06-3.41,.11-5.08,.32-1.73,.22-3.66-.29-5.23,.8-.25,.18-1.57-.44-2.33-.35-3.87,.47-7.9-.22-11.66,1.18-.86,.32-2.24,.37-3.19,.18-3.4-.67-6.51-.05-9.94,.45-4.5,.67-9.34,1.08-13.84,.06-.23-.05-.43-.1-.62-.14l.1-4.11c.55,.21,.96,.28,1.72,.02,.65-.23,1.74-.05,2.62,.03l3.69,.36,1.84,.18,.36,.03c.11,0,.16,0,.28,0h.93c2.48-.04,4.97-.08,7.45-.06,4.97-.01,9.93,.1,14.9,.23,2.7,.1,5.18,1.13,7.96,.9,1.15-.09,2.46,.45,3.45-.31,.14-.11,.62-.15,.83-.07,3.26,1.11,6.64-.03,9.91,.57,.7,.13,1.36,.35,2.06,.5,.71,.15,1.53,.44,2.14,.34,5.14-.8,10.28,.46,15.41,.58,1.75,.04,3.61,.71,5.24-.15,.24-.13,1.01-.05,1.34,.1,2.88,1.42,6.22,.78,9.28,1.33,1.57,.28,3.4-.23,4.74,.86,.17,.14,.82,.09,1.22,.05,.69-.07,1.39-.34,2.04-.27,1.83,.19,3.78,.88,5.43,.68,2.03-.25,3.92,.07,5.85,.21,1.11,.09,2.17,.63,3.28,.84,1.05,.2,2.16,.24,3.24,.36,1.55,.18,3.18,.19,4.62,.6,1.49,.43,2.84-.43,4.42,.53,1.2,.71,2.82,.04,4.28,.2,.73,.07,1.47,.33,2.16,.59,.53,.19,.99,.62,1.5,.7,1.16,.17,2.22,.64,3.55,.5,.92-.11,2.28,.86,3.47,1.24,1.19,.39,2.4,.74,3.61,1.1,1.2,.39,2.41,1.04,3.57,1.19,1.26,.21,2.5,.54,3.72,.93,1,.36,2.89,1.13,4.39,1.91l2.29,1.21c.65,.45,1.95,.62,1.23,1.64l-.79,2.48c-.24,.83-.6,1.62-.87,2.43-.15,.41-.29,.85-.43,1.3-.08,.22-.14,.45-.23,.67-.08,.18-.18,.37-.26,.52-.34,.63-.78,1.19-1.42,1.5-.21,.12-.62,.77-.75,1.15-.2,.61-.43,1.2-.69,1.79-.27,.58-.61,1.11-.95,1.66-.66,1.1-1.5,2.07-2.34,3.03-.84,.96-1.8,1.81-2.69,2.72-.95,.83-1.84,1.73-2.75,2.59-2.53,2.52-5.15,4.93-8.27,6.77-3.04,1.78-6.29,3.32-9.12,5.15-1.16,.79-2.34,1.48-3.54,2.15-1.2,.63-2.41,1.18-3.68,1.61-2.46,.86-4.14,3.41-7.06,3.02-2.45,1.03-4.95,1.98-7.45,2.86-2.11,.75-4.17,1.81-6.5,1.74-.84-.02-2.3,.48-3.04,1-2.39,1.7-5.05,2.3-7.91,2.61-.67,.08-1.37,.73-2.11,.95-2.24,.7-4.54,1.3-6.83,1.77-6.87,1.25-13.42,3.57-20.36,4.55-1.27,.2-2.6,1.02-3.75,.99-3.51-.09-7,.17-10.49,.53-3.49,.23-6.99,.59-10.43,.26-1.27-.11-2.54-.17-3.8-.24-1.26-.1-2.53-.18-3.79-.25-2.53-.09-5.05-.27-7.57-.41l-7.44-.43c-2.46-.16-4.92-.29-7.38-.5-1.28-.11-2.59-.9-3.2-.72-1.92,.56-4.05-.12-5.65,.3-2.88,.75-5.66,.03-8.47,.14-2.04,.08-4.22-.6-6.14,.33-.28,.14-.98,.08-1.35-.05-2.97-1.05-6,.23-8.97-.33-5.71,.92-11.53-.11-17.31-.16-.85,0-1.69,.19-2.54,.28-.43,.04-.94,.17-1.3,.06-5.16-1.49-10.64-.97-15.92-1.74-1.74-.27-3.43-.77-5.17-1.06-1.75-.28-3.6-.21-5.18-1.13-.49-.29-1.52-.28-2.28-.28-4.12-.02-6.93-1.99-6.64-4.51,.1-.91,.94-.86,1.85-1.09,1.76-.44,3.45-.65,5.46-.33,1.56,.23,3.26,.71,4.75-.02,.25-.12,.96-.01,1.33,.14,2.62,1.04,5.72,.73,8.23,1.47,1.93,.57,3.76,.62,5.63,.92,1.57,.25,3.24-.1,4.77,.81,.52,.31,2.12-.3,3.23-.26,2.61,.08,5.25,.17,7.85,.42,7.91,.75,15.78-.27,23.7,.36,5.7-.92,11.55,.36,17.24,.07,6.87-.37,13.74,.5,20.52,.65,1.38,.02,2.48,.11,3.69,.47,.79,.24,1.62,.5,2.45,.51,1.6,.06,3.2,.08,4.81,.11,1.6,.05,3.2-.03,4.8,.02,.86,.02,1.76-.13,2.65-.14,.88-.03,1.74,.04,2.53,.54,.22,.14,.99,.08,1.33-.06,2.76-1.16,5.83-.8,8.75-1.17,1.11-.13,2.18-.24,3.44,0,1.36,.25,3.43-.01,4.74-.59,.99-.45,1.9-.59,2.87-.83,1.01-.25,2.04-.4,3.08-.53l3.11-.45c1.04-.16,2.06-.35,3.06-.62,1-.29,1.96-.69,2.88-1.22,1.16,.33,2.36,.25,3.54,.01,1.17-.25,2.29-.72,3.3-1.11,7.75-3.02,15.86-4.77,23.58-7.81,1.85-.76,3.91-1,5.84-1.65,2.01-.71,4-1.56,5.96-2.42,1.04-.48,2.41-.67,2.89-1.79,.04-.08,.2-.2,.32-.24,1.17-.37,2.45-.56,3.49-1.12,.94-.5,1.6-1.4,2.48-2.01,1.06-.73,2.25-1.32,3.38-1.97,1.11-.6,2.18-1.43,3.43-1.31,.4-1.26,1.84-1.65,2.86-2.37,.95-.69,1.94-1.33,2.92-2,1.04-.81,2.14-1.56,3.12-2.42,.5-.42,1.03-.82,1.52-1.25,.48-.44,.96-.88,1.4-1.35,1.19-1.32,2.13-2.78,3.14-4.17,1.09-1.45,2.13-2.93,3.12-4.4,.34-.45,.62-.92,.91-1.4l.44-.71c.15-.23,.32-.5,.38-.56,.26-.39,.61-.83,.83-1.35,.1-.21,.12-.4,.06-.55,.05-.19-.44-.13-.73-.13-.45,.02-.95,.16-1.2,.18-.13,0-.22,0-.25-.11-.02-.05-.02-.12-.03-.22-.02-.11,.06-.2-.12-.46-.2-.36-1.29-.76-1.96-.83-1.3-.17-2.55-.48-3.8-.8-1.23-.36-2.47-.74-3.71-1.15-2.46-.82-4.98-1.62-7.56-2.03-2.62-1.52-5.51-1.49-8.53-1.67-4.43-.29-9.13-.67-13.46-1.62-4.59-1.01-9.22-.99-13.87-1.57-1.3-.16-2.75,.08-3.79-.86-.24-.21-1.23-.24-1.79-.15-3.84,.59-7.49,.04-11.29-.84-2.01-.47-4.32-.29-6.59-.14-3.4,.23-7.03-.42-10.57-.67-1.45-1.16-2.72-.18-3.53,.22-1.09,.53-2.07,.57-3.31,.5-1.6-.08-3.16-.37-4.77,.21-.83,.29-2.62,.11-3.46-.3-1.14-.55-1.58-.35-2.66-.09-1.27,.31-2.53-.71-4.11-.74-1.69-.03-3.68,.42-5.13-.73-.13-.1-.65-.11-.89-.03-3.16,1.01-6.22-.69-9.35-.25-4.38-.66-8.81-.76-13.23-.66l-1.66,.04-.83,.02h-.64c-.21,0-.51-.03-.66-.04l-3.34-.28c-2.22-.19-4.44-.4-6.65-.68l.19-8.15c.53,0,1.07-.01,1.6-.02,3.89-.02,7.85,.59,11.65-.11,7.98-1.47,16.08-1.19,24.11-1.84,1.7-.14,3.63-.74,5.23,.23,.22,.13,1,.07,1.34-.08,2.49-1.12,4.99-.97,7.59-.46,.63,.12,1.79,.03,2.15-.25,1.02-.79,2.28-.57,3.42-.63,1.38-.06,3.25,.46,4.04,.05,1.71-.9,2.75-.07,4.09-.01,.83,.04,1.73-.23,2.58-.4,.41-.08,.89-.44,1.13-.37,2.76,.73,5.34-.74,8.03-.54,.58,.04,1.19-.02,1.75,.05q6.4,.78,14.34-.36c2.27,1.15,4.71-.93,7.15-.11,.89,.3,2.55,.1,3.62-.23,4.67-1.46,9.62-.91,14.38-1.58,.99-.14,1.82,.67,3.04-.12,.46-.3,2.15,.35,3.24,.24,1.58-.16,3.28,.19,4.79-.77,.62-.39,2.05-.22,3.1-.37,.91-.12,.95-.06,1.31-.11,.29-.04,.58-.15,.59-.51,.02-.38,.4-.42,1.13-.14,.75,.29,1.44,.42,1.95,.46,.48-.01,.95,.11,.79-.44l-.03-.15-.02-.08-.1-.07-.42-.26-.85-.48-1.47-.76c-.48-.26-.78-.36-.75-.62,.02-.19-.01-.46-.17-.71-.15-.25-.4-.49-.7-.49-.15,.09-.74-.24-1.16-.49-.44-.27-.85-.57-1.24-.88-.78-.63-1.51-1.31-2.29-1.94-2.73-2.14-5.22-4.59-8.14-6.48-1.63-1.12-3.18-2.34-4.78-3.5-.8-.58-1.61-1.15-2.45-1.69-.85-.52-1.77-.95-2.7-1.35-2.02-.86-4.57-2.09-5.92-4.33-.15-.25-1.28-.22-1.81-.55-2.13-1.28-4.34-2.42-6.5-3.65l-3.24-1.84-1.62-.93c-.54-.31-1.11-.57-1.66-.85-1.02-.52-1.65-2.08-3-1.73-1.43,.38-1.69-1.87-3.04-1.23-.2,.09-1.13-.38-1.56-.72-.59-.46-1.2-.89-1.82-1.29-.63-.4-1.29-.72-1.95-1.05-1.33-.65-2.7-1.22-4.08-1.77-2.78-1.07-5.54-2.19-8.3-3.23-1.32-.54-2.99-.63-3.74-1.93-1.88-.08-3.58-.98-5.31-1.8-1.75-.73-3.55-1.36-5.48-1.02-2.42-.98-5.29-.91-7.41-2.65-.35-.27-1.28-.2-1.69-.46-1.4-.91-2.77,.6-4.43-.72-.96-.76-3.04-.91-4.63-1.3-1.47-.39-2.98-.54-4.48-.81l-4.94-.83c-1.65-.25-3.28-.67-4.94-.77-3.37-.2-6.71,.15-10.09-.51-.36-.07-1.01,0-1.16,.16-1.27,1.37-2.9,.49-4.03-.02-.94-.42-1.76-.64-2.82-.69l-4.31-.2-2.15-.12-2.15-.04c-1.7-.05-3.51,.44-5.14-.5-.5-.29-1.88-.22-2.65,0-.9,.25-1.8,.4-2.71,.49-.91,.14-1.82,.22-2.74,.28-1.84,.11-3.69,.11-5.51,.29-1.65,.18-3.32,.2-4.98,.33-1.26,.13-2.44,.92-3.76,.45-2.99,.98-6.04,1.4-9.14,1.81-3.1,.49-6.25,.77-9.31,1.43-3.04,.66-6.12,1.18-9.15,1.87-3.04,.65-6.1,1.25-9.11,2.01-1.51,.36-3.07,1.24-4.67,.6-.31-.13-1.38,.2-1.65,.48-.73,.77-1.31,1.23-2.48,.81-.22-.08-1,.3-1.39,.56-1.11,.74-2.22,.96-3.58,1.03-1.06,.04-2.43,.3-3.33,.81-1.2,.68-2.36,1.33-3.58,1.79-1.21,.49-2.48,.81-3.93,.77-.35,0-.98,.94-1.56,1.11-1.11,.34-2.18,.8-3.25,1.27-1.07,.46-2.17,.84-3.39,.9-1,.05-2.19,.81-3.31,1.17-1.92,.65-3.42,2-5.48,2.59-1.04,.31-2.08,.75-3.09,1.27-1,.54-1.99,1.13-2.99,1.65-1.99,1.05-4.03,2.03-5.95,3.21-1.94,1.15-3.91,2.25-5.82,3.43l-5.65,3.7c-1.88,1.24-3.64,2.64-5.46,3.95-.89,.68-1.83,1.3-2.69,2.03l-2.6,2.14c-1.21,1-2.42,1.82-3.88,2.55-1.82,1-3.62,2.38-5.44,4.09-.94,.83-1.79,1.83-2.64,2.9-.86,1.06-1.73,2.21-2.6,3.42-.25,.35-.61,.65-.92,.97-3.32,3.77-4.8,8.83-5.34,14.11-.27,2.31-.55,4.78-.14,7.25,.13,.8,.23,1.6,.45,2.39,.19,.78,.48,1.55,1,2.26,.41,.59,.53,1.4,.74,2.21,.18,.82,.48,1.65,1.19,2.23,.26,.21,.49,.68,.71,1.18,.05,.13,.1,.26,.14,.38l.06,.19,.03,.09v.03c-.01,.07-.04,.15-.09,.23-.09,.14-.08,.25-.08,.37-.01,.02,.03,.09-.02,.06l.17,.26,.34,.5c.46,.67,.95,1.31,1.42,1.94,.96,1.27,1.88,2.5,2.63,3.74l1.69,2.78,.85,1.34,.2,.3c.05,.07,.09,.15,.15,.21,.08,.04,.16,.08,.24,.13-.01-.01,.45,.27,.71,.48,.62,.44,1.15,.91,1.66,1.37,1.47,1.39,2.26,2.95,3.85,3.66,.39,.18,.82,.65,1.19,1.17,.19,.27,.37,.53,.53,.81,.07,.12,.19,.3,.2,.36,0,.05,0,.11,0,.17,0,.08,.06,.18,.19,.33,.15,.16,.3,.31,.46,.46,.31,.3,.64,.57,.98,.82,.69,.49,1.39,.95,2.14,1.29,3.19,1.48,3.15,1.42,5.87,3.6,.32,.26,.71,.49,1.08,.7,3.79,1.99,7.63,4.26,11.75,5.29,3.39,.91,6.64,1.95,9.97,2.92,1.32,.39,2.98,.34,3.86,1.61,.13,.18,.89,.38,1.25,.33,1.55-.21,3.04,0,4.52,.35,1.49,.29,2.98,.72,4.46,.99,1.44,.22,2.86,.21,4.28,.23,1.42,0,2.84-.02,4.3,.27,2.75,.49,5.61,.54,8.42,.66,4.26,.13,5.18,.7,5.18,3.44,0,2.25-1.12,2.74-4.75,3.14-7.73,.73-15.37-1.02-21.52-1.95Z"/>
          </g>
          <g>
            <path class="cls-9" d="M117.01,167.46c-23.37,.1-51.44-6.61-71.58-21.9-3.36-3.4-5.03-6.79-8.39-8.49-3.36-5.09-5.03-8.49-8.39-11.89-5.03-11.89-6.71-27.17,1.68-37.36,31.88-35.66,77.19-50.94,122.5-57.73,68.8-10.19,140.96,11.89,189.6,61.19l-.58,1.22c-45.95,3.49-96.16,6.73-144.91,9.21l10.37,1.01c33.07-.59,60.28,2.46,93.27,4.88,18.5,1.36,37.51,3.34,53.94,12.05h0c-3.91,15.09-18.48,25.36-34.1,32.38-33.74,15.17-68.31,23.25-105.31,20.41-36.29-2.78-66.62-1.66-102.69-6.61"/>
            <path class="cls-9" d="M90.74,166.74c-7.72-1.52-13.88-3.4-19.96-5.47-.96-.29-2.17-.26-3.35-.73-2.35-.91-4.72-1.91-7.05-2.92-1.15-.55-2.28-1.12-3.38-1.72-1.11-.59-2.13-1.32-3.12-2.03l-1.62-1.17-1.59-1.21c-1.06-.81-2.17-1.51-3.21-2.32-.53-.39-1.06-.77-1.59-1.15-.54-.4-1.03-.68-1.71-1.22-.5-.5-1-.99-1.49-1.49-.45-.47-.9-.93-1.35-1.39-.96-1-1.83-1.98-2.69-2.82-.43-.42-.85-.79-1.28-1.12-.23-.16-.39-.29-.68-.47-.39-.24-.81-.46-1.22-.68-.4-.55-.77-1.14-1.14-1.7l-.82-1.26-1.63-2.49c-.87-1.29-1.74-2.45-2.23-4.08-.18-.6-.61-1.33-1.22-1.97l-.24-.23c-.09-.08-.22-.21-.33-.31-.23-.2-.47-.4-.73-.6-.31-.49-.69-1.07-1.04-1.43-.26-.26-.41-1-.51-1.53-.12-.57-.03-1.32-.27-1.68-1.28-2.07-2.03-4.43-2.43-6.86-.25-1.2-.33-2.45-.49-3.67-.1-1.23-.21-2.47-.31-3.69-.14-1.23,.26-2.56-.48-3.66-.22-.28-.11-1.52,.11-1.87,.55-.91,.81-1.85,1.03-3.03,.52-2.53,1.24-5.06,2.46-7.4,.26-.61,.61-1.16,.95-1.73,.35-.56,.64-1.15,1.07-1.68l1.2-1.62c.41-.49,.84-.9,1.26-1.35,.9-2.41,3.11-4.11,4.9-5.93,1.41-1.31,3.05-2.36,4.58-3.52,.77-.58,1.43-1.35,2.14-2.04,.75-.65,1.54-1.23,2.54-1.48,.32-.08,.71-.75,1.12-1.11,.91-.8,1.79-1.66,2.7-2.47,.9-.82,1.9-1.49,2.91-2.04,1.04-.55,2.07-1.11,3.01-1.8,.76-.55,1.5-1.13,2.28-1.65l2.35-1.54,4.71-3.07,4.86-2.83,2.43-1.42,2.49-1.3,4.98-2.59c1.69-.81,3.39-1.58,5.09-2.37,3.37-1.64,6.87-2.95,10.32-4.41,1.2-.51,2.42-.78,3.51-1.81,.86-.8,3.08-1.63,4.21-1.55,1.81,.11,3.23-.6,4.76-1.06,1.42-.41,2.82-.88,4.23-1.34,1.41-.44,2.84-.83,4.27-1.2,1.7-.42,3.44-1.47,5.18-.87,.17,.06,.71-.08,.87-.21,1.64-1.42,3.68-1.08,5.59-1.42,1.39-.27,2.77-.56,4.17-1.36,1.36-.78,3.81-1.38,5.26-1.18,1.95,.29,3.58-.22,5.29-.54l3.77-.69,3.79-.6c2.53-.4,5.05-.83,7.6-1.09,5.09-.57,10.17-1.34,15.29-1.55,2.42-.16,4.81-.54,7.22-.87,2.41-.26,4.84-.35,7.29-.2,1.17,.08,2.45-.31,3.49,.4,.21,.15,1.15,.06,1.52-.12,1.35-.67,2.68-.32,4.19-.22,3.42,.25,6.85,.56,10.27,.79,3.41,.41,6.8,.73,10.18,.8,2.64,0,5.2,.42,7.76,.82,2.56,.4,5.1,.85,7.67,1.2,1.7,.3,3.3,1.18,4.99,1.66,1.64,.47,3.33,.81,5.01,1.14,1,.2,1.95,.62,3.06,.3,.59-.15,2.03,.17,2.54,.58,1.7,1.36,3.83,1.63,5.82,2.22,1.42,.43,2.84,.81,4.25,1.26l4.19,1.46c2.79,.99,5.6,1.91,8.36,2.99,1.34,.57,2.99,.81,3.87,2.12,.12,.18,.99,.24,1.52,.37,.56,.14,1.3,.17,1.64,.45,.77,.63,1.6,1.16,2.46,1.62,.86,.46,1.76,.86,2.64,1.3,1.78,.85,3.63,1.58,5.37,2.46l3.18,1.58c1.06,.52,2.14,1.03,3.15,1.63l6.2,3.48c4.2,2.2,8.09,4.93,12.05,7.52,1.09,.75,2.26,1.23,3.36,1.82,1.09,.59,2.18,1.17,3.21,1.95,1.98,1.51,4.04,2.92,6.01,4.45,.71,.52,1.46,1.03,2.13,1.63,.67,.59,1.27,1.24,1.62,2.12,.19,.48,1.17,1.28,1.72,1.44,2.07,.59,3.44,2.32,5.11,3.55l.38,.29,.37,.39,.72,.8,1.43,1.62c.97,1.07,2,2.05,3.34,3.04,.73,.56,1.32,1.75,2.06,2.59l1.98,2.25,.13,.14s.11,.09,.05,.15l-.16,.34-.32,.69c-.06,.1-.09,.25-.18,.32l-.35,.07-.7,.14c-.88,.18-1.5,.54-2.41,.76-1.73,.42-3.47,.85-5.22,1.31-.11,.03-.21,.06-.34,.08l-.43,.04-.86,.09-1.74,.17-2.85,.29c-3.24,.35-6.48,.67-9.73,.95-6.62,.58-13.25,.96-19.88,1.42-6.63,.45-13.26,.97-19.89,1.29-2.49,.12-5.14,.99-7.52-.07-2.24,.87-4.28,.56-6.34-.13-.29-.1-1,.29-1.53,.43-1.66,.42-3.18,1.74-5.11,.53-.07-.04-.3,.03-.45,.02-1.55-.09-2.54,1.31-4.55,.63-1.25-.43-3.22-.1-4.86-.04-1.7,.06-3.41,.11-5.08,.32-1.73,.22-3.66-.29-5.23,.8-.25,.18-1.57-.44-2.33-.35-3.87,.47-7.9-.22-11.66,1.18-.86,.32-2.24,.37-3.19,.18-3.4-.67-6.51-.05-9.94,.45-4.5,.67-9.34,1.08-13.84,.06-.23-.05-.43-.1-.62-.14l.1-4.11c.55,.21,.96,.28,1.72,.02,.65-.23,1.74-.05,2.62,.03l3.69,.36,1.84,.18,.36,.03c.11,0,.16,0,.28,0h.93c2.48-.04,4.97-.08,7.45-.06,4.97-.01,9.93,.1,14.9,.23,2.7,.1,5.18,1.13,7.96,.9,1.15-.09,2.46,.45,3.45-.31,.14-.11,.62-.15,.83-.07,3.26,1.11,6.64-.03,9.91,.57,.7,.12,1.36,.35,2.06,.5,.71,.15,1.53,.44,2.14,.34,5.14-.8,10.28,.46,15.41,.58,1.75,.04,3.61,.71,5.24-.15,.24-.13,1.01-.05,1.34,.1,2.88,1.42,6.22,.77,9.28,1.33,1.57,.28,3.4-.23,4.74,.86,.17,.14,.82,.09,1.22,.05,.69-.07,1.39-.34,2.04-.27,1.83,.19,3.78,.88,5.43,.68,2.03-.25,3.92,.07,5.85,.21,1.11,.09,2.17,.63,3.28,.84,1.05,.21,2.16,.24,3.24,.36,1.55,.18,3.18,.19,4.62,.6,1.49,.43,2.84-.43,4.42,.53,1.2,.71,2.82,.04,4.28,.2,.73,.07,1.47,.33,2.16,.59,.53,.19,.99,.62,1.5,.7,1.16,.17,2.22,.64,3.55,.5,.92-.11,2.28,.86,3.47,1.24,1.19,.39,2.4,.74,3.61,1.1,1.2,.39,2.41,1.04,3.57,1.19,1.26,.21,2.5,.54,3.72,.93,1,.36,2.89,1.13,4.39,1.91l2.29,1.21c.65,.45,1.95,.62,1.23,1.64l-.79,2.48c-.24,.83-.6,1.62-.87,2.43-.15,.42-.29,.85-.43,1.3-.08,.22-.14,.45-.23,.67-.08,.18-.18,.37-.26,.52-.34,.63-.78,1.19-1.42,1.5-.21,.12-.62,.77-.75,1.15-.2,.61-.43,1.2-.69,1.79-.27,.58-.61,1.11-.95,1.66-.66,1.1-1.5,2.07-2.34,3.03-.84,.96-1.8,1.81-2.69,2.72-.95,.83-1.84,1.73-2.75,2.59-2.53,2.52-5.15,4.93-8.27,6.77-3.04,1.78-6.29,3.32-9.12,5.15-1.16,.79-2.34,1.48-3.54,2.15-1.2,.63-2.41,1.18-3.68,1.61-2.46,.86-4.14,3.41-7.06,3.02-2.45,1.03-4.95,1.98-7.45,2.86-2.11,.75-4.17,1.81-6.5,1.74-.84-.02-2.3,.48-3.04,1-2.39,1.7-5.05,2.3-7.91,2.61-.67,.08-1.37,.73-2.11,.95-2.24,.7-4.54,1.3-6.83,1.77-6.87,1.25-13.42,3.57-20.36,4.55-1.27,.2-2.6,1.02-3.75,.99-3.51-.09-7,.17-10.49,.53-3.49,.23-6.99,.59-10.43,.26-1.27-.11-2.54-.17-3.8-.24-1.26-.1-2.53-.18-3.79-.25-2.53-.09-5.05-.27-7.57-.41l-7.44-.43c-2.46-.16-4.92-.29-7.38-.5-1.28-.11-2.59-.9-3.2-.72-1.92,.56-4.05-.12-5.65,.3-2.88,.75-5.66,.03-8.47,.14-2.04,.08-4.22-.6-6.14,.33-.28,.14-.98,.08-1.35-.05-2.97-1.05-6,.23-8.97-.33-5.71,.92-11.53-.11-17.31-.16-.85,0-1.69,.19-2.54,.28-.43,.04-.94,.17-1.3,.06-5.16-1.49-10.64-.97-15.92-1.74-1.74-.27-3.43-.77-5.17-1.06-1.75-.28-3.6-.21-5.18-1.13-.49-.29-1.52-.28-2.28-.28-4.12-.02-6.93-1.99-6.64-4.51,.1-.91,.94-.86,1.85-1.09,1.76-.44,3.45-.65,5.46-.33,1.56,.23,3.26,.71,4.75-.01,.25-.12,.96-.01,1.33,.14,2.62,1.04,5.72,.73,8.23,1.47,1.93,.57,3.76,.62,5.63,.92,1.57,.25,3.24-.1,4.77,.81,.52,.31,2.12-.3,3.23-.26,2.62,.08,5.25,.17,7.85,.42,7.91,.75,15.78-.27,23.7,.36,5.7-.92,11.55,.36,17.24,.07,6.87-.37,13.74,.5,20.52,.65,1.38,.02,2.48,.11,3.69,.47,.79,.24,1.62,.5,2.45,.51,1.6,.06,3.2,.08,4.81,.11,1.6,.05,3.2-.03,4.8,.02,.86,.02,1.76-.13,2.65-.14,.88-.03,1.74,.04,2.53,.54,.22,.14,.99,.08,1.33-.06,2.76-1.16,5.83-.8,8.75-1.17,1.11-.13,2.18-.24,3.44,0,1.36,.25,3.43-.01,4.74-.59,.99-.45,1.9-.59,2.87-.83,1.01-.25,2.04-.4,3.08-.53l3.11-.45c1.04-.16,2.06-.35,3.06-.62,1-.29,1.96-.69,2.88-1.22,1.16,.33,2.36,.25,3.54,.01,1.17-.25,2.29-.72,3.3-1.11,7.75-3.02,15.86-4.77,23.58-7.81,1.85-.76,3.91-1,5.84-1.65,2.01-.71,4-1.56,5.96-2.42,1.04-.48,2.41-.67,2.89-1.79,.04-.08,.2-.2,.32-.24,1.17-.37,2.45-.56,3.49-1.12,.94-.5,1.6-1.4,2.48-2.01,1.06-.73,2.25-1.32,3.38-1.97,1.11-.6,2.18-1.43,3.43-1.31,.4-1.26,1.84-1.65,2.86-2.37,.95-.69,1.94-1.33,2.92-2,1.04-.81,2.14-1.56,3.12-2.42,.5-.42,1.03-.82,1.52-1.25,.48-.44,.96-.88,1.4-1.35,1.19-1.32,2.13-2.78,3.14-4.17,1.09-1.45,2.13-2.93,3.12-4.4,.34-.45,.62-.92,.91-1.4l.44-.71c.15-.23,.32-.5,.38-.56,.26-.39,.61-.83,.83-1.35,.1-.21,.12-.4,.06-.55,.05-.19-.44-.13-.73-.13-.44,.02-.95,.16-1.2,.18-.13,0-.22,0-.25-.11-.02-.05-.02-.12-.03-.23-.02-.11,.06-.2-.12-.46-.2-.36-1.29-.76-1.96-.83-1.3-.17-2.55-.48-3.8-.8-1.23-.36-2.47-.74-3.71-1.15-2.46-.82-4.98-1.62-7.56-2.03-2.62-1.52-5.51-1.49-8.53-1.67-4.43-.29-9.13-.67-13.46-1.62-4.59-1.01-9.22-.99-13.87-1.57-1.3-.16-2.75,.08-3.79-.86-.24-.21-1.23-.24-1.79-.15-3.84,.59-7.49,.04-11.29-.84-2.01-.47-4.32-.29-6.59-.14-3.4,.23-7.03-.42-10.57-.67-1.45-1.16-2.72-.18-3.53,.22-1.09,.53-2.07,.57-3.31,.5-1.6-.08-3.16-.37-4.77,.21-.83,.29-2.62,.11-3.46-.3-1.14-.55-1.58-.35-2.66-.09-1.27,.31-2.53-.71-4.11-.74-1.69-.03-3.68,.42-5.13-.73-.13-.1-.65-.11-.89-.03-3.16,1.01-6.22-.69-9.35-.25-4.38-.66-8.81-.76-13.23-.66l-1.66,.04-.83,.02h-.64c-.21,0-.51-.03-.66-.04l-3.34-.28c-2.22-.19-4.44-.4-6.65-.69l.19-8.15c.53,0,1.07-.01,1.6-.02,3.89-.02,7.85,.59,11.65-.11,7.98-1.47,16.08-1.19,24.11-1.84,1.7-.14,3.63-.74,5.23,.23,.22,.14,1,.07,1.34-.08,2.49-1.12,4.99-.97,7.59-.46,.63,.12,1.79,.03,2.15-.25,1.02-.79,2.28-.57,3.42-.63,1.38-.06,3.25,.46,4.04,.05,1.71-.9,2.75-.07,4.09-.01,.83,.04,1.73-.23,2.58-.4,.41-.08,.89-.44,1.13-.37,2.76,.73,5.34-.74,8.03-.54,.58,.04,1.19-.02,1.75,.05q6.4,.78,14.34-.36c2.27,1.15,4.71-.93,7.15-.11,.89,.3,2.55,.1,3.62-.23,4.67-1.46,9.62-.91,14.38-1.58,.99-.14,1.82,.67,3.04-.12,.46-.3,2.15,.35,3.24,.24,1.58-.16,3.28,.19,4.79-.77,.62-.39,2.05-.22,3.1-.37,.91-.12,.95-.06,1.31-.11,.29-.04,.58-.15,.59-.51,.02-.38,.4-.42,1.13-.14,.75,.29,1.44,.42,1.95,.46,.48-.01,.95,.11,.79-.44l-.03-.15-.02-.08-.1-.07-.42-.26-.85-.48-1.47-.76c-.48-.26-.78-.36-.75-.62,.02-.19-.01-.46-.17-.71-.15-.25-.4-.49-.7-.49-.15,.09-.74-.24-1.16-.49-.44-.27-.85-.57-1.24-.88-.78-.63-1.51-1.31-2.29-1.94-2.73-2.14-5.22-4.59-8.14-6.48-1.63-1.12-3.18-2.34-4.78-3.5-.8-.58-1.61-1.15-2.45-1.69-.85-.52-1.77-.95-2.7-1.35-2.02-.86-4.57-2.09-5.92-4.33-.15-.25-1.28-.22-1.81-.55-2.13-1.28-4.34-2.42-6.5-3.65l-3.24-1.84-1.62-.93c-.54-.3-1.11-.57-1.66-.85-1.02-.52-1.65-2.08-3-1.73-1.43,.38-1.69-1.87-3.04-1.23-.2,.09-1.13-.38-1.56-.72-.59-.46-1.2-.89-1.82-1.29-.63-.4-1.29-.72-1.95-1.05-1.33-.65-2.7-1.22-4.08-1.77-2.78-1.07-5.54-2.19-8.3-3.23-1.32-.54-2.99-.63-3.74-1.93-1.88-.08-3.58-.98-5.31-1.8-1.75-.73-3.55-1.36-5.48-1.02-2.42-.98-5.29-.91-7.41-2.65-.35-.27-1.28-.2-1.69-.46-1.4-.91-2.77,.6-4.43-.72-.96-.76-3.04-.91-4.63-1.3-1.47-.39-2.98-.54-4.48-.81l-4.94-.83c-1.65-.25-3.28-.67-4.94-.77-3.37-.2-6.71,.15-10.09-.51-.36-.07-1.01,0-1.16,.16-1.27,1.37-2.9,.49-4.03-.02-.94-.42-1.76-.64-2.82-.69l-4.31-.2-2.15-.12-2.15-.04c-1.7-.05-3.51,.44-5.14-.5-.5-.29-1.88-.22-2.65,0-.9,.25-1.8,.4-2.71,.49-.91,.14-1.82,.22-2.74,.28-1.84,.11-3.69,.11-5.51,.29-1.65,.18-3.32,.2-4.98,.33-1.26,.13-2.44,.92-3.76,.45-2.99,.98-6.04,1.4-9.14,1.81-3.1,.49-6.25,.77-9.31,1.43-3.04,.66-6.12,1.18-9.15,1.87-3.04,.65-6.1,1.25-9.11,2.01-1.51,.36-3.07,1.24-4.67,.6-.31-.13-1.38,.2-1.65,.48-.73,.77-1.31,1.23-2.48,.81-.22-.08-.99,.3-1.39,.56-1.11,.74-2.22,.96-3.58,1.03-1.06,.04-2.43,.3-3.33,.81-1.2,.68-2.36,1.33-3.58,1.79-1.21,.49-2.48,.81-3.93,.77-.35,0-.98,.94-1.56,1.11-1.11,.34-2.18,.8-3.25,1.27-1.07,.46-2.17,.84-3.39,.9-1,.05-2.19,.81-3.31,1.17-1.92,.65-3.42,2-5.48,2.59-1.04,.31-2.08,.75-3.09,1.27-1,.54-1.99,1.13-2.99,1.65-1.99,1.05-4.03,2.03-5.95,3.21-1.94,1.15-3.91,2.25-5.82,3.43l-5.65,3.7c-1.88,1.24-3.64,2.64-5.46,3.95-.89,.68-1.83,1.3-2.69,2.03l-2.6,2.14c-1.21,1-2.42,1.82-3.88,2.55-1.82,1-3.62,2.38-5.44,4.09-.94,.83-1.79,1.83-2.64,2.9-.86,1.06-1.73,2.21-2.6,3.42-.25,.35-.61,.65-.92,.97-3.32,3.77-4.8,8.83-5.34,14.11-.27,2.31-.55,4.78-.14,7.25,.13,.8,.23,1.6,.45,2.39,.19,.78,.48,1.55,1,2.26,.41,.59,.53,1.4,.74,2.21,.18,.82,.48,1.65,1.19,2.23,.26,.21,.49,.68,.71,1.18,.05,.13,.1,.26,.14,.38l.06,.19,.03,.1v.03c-.01,.07-.04,.15-.09,.23-.09,.14-.08,.25-.08,.37-.01,.02,.03,.09-.02,.06l.17,.26,.34,.5c.46,.67,.95,1.31,1.42,1.94,.96,1.27,1.88,2.5,2.63,3.74l1.69,2.78,.85,1.34,.2,.3c.05,.07,.09,.15,.15,.21,.08,.04,.16,.08,.24,.12-.01-.01,.45,.27,.71,.48,.62,.44,1.15,.91,1.66,1.37,1.47,1.39,2.26,2.95,3.85,3.66,.39,.18,.82,.65,1.19,1.17,.19,.27,.37,.53,.53,.81,.07,.12,.19,.3,.2,.36,0,.05,0,.11,0,.17,0,.08,.06,.18,.19,.33,.15,.16,.3,.31,.46,.46,.31,.3,.64,.57,.98,.82,.69,.49,1.39,.95,2.14,1.29,3.19,1.48,3.15,1.42,5.87,3.6,.32,.26,.71,.49,1.08,.7,3.79,1.99,7.63,4.26,11.75,5.29,3.39,.91,6.64,1.95,9.97,2.92,1.32,.39,2.98,.34,3.86,1.61,.13,.18,.89,.38,1.25,.33,1.55-.21,3.04,0,4.52,.35,1.49,.29,2.98,.72,4.46,.99,1.44,.22,2.86,.21,4.28,.23,1.42,0,2.84-.02,4.3,.27,2.75,.49,5.61,.54,8.42,.66,4.26,.13,5.18,.7,5.18,3.44,0,2.25-1.12,2.74-4.75,3.14-7.73,.73-15.37-1.02-21.52-1.95Z"/>
          </g>
        </g>
        <g class="cls-12">
          <g class="cls-12">
            <path class="cls-5" d="M330.59,163.7c-1.8,1.16-4.14,1.61-5.35,3.17-.14,.16-.28,.34-.42,.51l.3-.1c2.29-.78,4.61-1.92,6.62-3.27,1.19-.94,2.25-2.17,3.74-2.9,.17-.08,.03-.37-.03-.51-.24-.09-.47-.21-.69-.34-1.09,.82-2.13,1.72-3.33,2.42-.41,.2-.59,.91-.84,1.03Z"/>
            <polygon class="cls-7" points="334.83 160.26 334.78 160.23 334.62 160.36 334.83 160.26"/>
            <path class="cls-4" d="M332.17,162.3c-.35,.3-.73,.54-1.12,.74-.18,.27-.31,.58-.47,.66-1.8,1.16-4.14,1.61-5.35,3.17-.14,.16-.28,.33-.41,.51,.11-.04,.21-.07,.32-.11,.79-.27,1.59-.58,2.37-.93l.1-.11c.31-.42,.83-.41,1.24-.61,1.06-.79,2.12-1.14,3.18-1.92,.38-.28,.63-.84,1.12-1.08,.16-.1,.33-.18,.49-.24,.56-.48,1.16-.93,1.86-1.27,.17-.08,.03-.37-.03-.51-.13-.05-.25-.11-.37-.17-.58,.25-1.12,.58-1.68,.87-.44,.34-.89,.68-1.37,.99,.03,.01,.07,.02,.12,.03Z"/>
            <path class="cls-7" d="M331.89,161.91c-.07,.04-.04,.28,.17,.36,.47-.31,.92-.65,1.37-.99-.48,.25-.98,.48-1.53,.63Z"/>
            <path class="cls-8" d="M331.42,160.91c-1.03,.42-1.74,1.3-2.67,1.49-.48,.12-1,.15-1.5,.08-.13,.08-.26,.16-.39,.24-3.11,2.06-6.29,3.99-9.67,5.48-1.66,.82-2.88,2.13-4.33,3.37-.93,.63-1.88,.75-2.93,1.05-1.32,.33-2.31,.99-3.34,1.67-1.02,.69-2.12,1.41-3.48,1.71-.72,.14-.85,1.39-.66,1.4,2.58-.27,4.87-1.04,7-2,2.14-.97,4.11-2.1,6.05-3.4,3.02-2,6.07-3.52,9.3-4.64,.14-.18,.27-.35,.42-.51,1.21-1.56,3.54-2.01,5.35-3.17,.25-.12,.43-.83,.84-1.03,1.2-.7,2.24-1.6,3.33-2.42-.46-.27-.89-.57-1.3-.73-.63,.57-1.27,1.12-2.04,1.39Z"/>
            <path class="cls-6" d="M331.42,160.91c.77-.27,1.41-.82,2.04-1.39-.2-.08-.4-.12-.6-.11-2.1,.38-3.83,1.96-5.61,3.08,.51,.07,1.03,.04,1.5-.08,.93-.19,1.64-1.07,2.67-1.49Z"/>
            <path class="cls-4" d="M331.42,160.91c.73-.26,1.35-.77,1.95-1.31-.27,.07-.52,.17-.77,.29-1.24,.61-2.42,1.37-3.76,1.77,1.29-.71,2.58-1.42,3.83-2.22-2.02,.45-3.69,1.96-5.42,3.05,.51,.06,1.02,.04,1.5-.08,.93-.19,1.64-1.07,2.67-1.49Z"/>
            <path class="cls-3" d="M329.57,162.18c1.53-.67,3.02-1.41,4.37-2.45-.12-.07-.24-.13-.36-.18-.08,.02-.14,.04-.21,.05-.6,.54-1.22,1.05-1.95,1.31-1.03,.42-1.74,1.3-2.67,1.49-.48,.12-.99,.15-1.5,.08l-.36,.22c-1.59,1.05-3.2,2.07-4.84,3.01-1.24,1.15-2.85,1.95-4.48,2.56,.71-.39,1.41-.81,2.09-1.26-.8,.41-1.62,.8-2.44,1.17-.7,.35-1.33,.78-1.92,1.26,0,.33-.08,.67-.41,.94-.51,.43-1.09,.72-1.54,1.29-.08,.04-.18-.17-.35-.09,.46-.23,.75-.58,.95-.97-.36,.31-.72,.63-1.06,.94-.73,.5-1.48,.68-2.27,.88l-.21,.14c-.36,.23-.68,.55-1,.88,.16-.07,.32-.14,.49-.22-.19,.26-.52,.4-.77,.5,.09-.1,.19-.19,.28-.29-.39,.16-.76,.31-1.17,.47,.5-.19,.94-.54,1.29-.87-.87,.46-1.65,.94-2.61,1.07l.05-.07c-1.13,.75-2.31,1.61-3.82,1.95-.72,.14-.85,1.39-.65,1.4,3.6-.39,6.64-1.72,9.47-3.24-.41,.03-.81,.05-1.2,.08-.16,.04-.32,.05-.49,.04,.16-.01,.33-.02,.49-.04,.44-.1,.85-.35,1.32-.46,.12,.03,.37-.09,.35-.35,.65-.14,1.21-.69,1.86-.83,.03-.02,.12,.01,.23,.05,.33-.22,.67-.44,1.01-.66,1.89-1.25,3.79-2.31,5.74-3.21-.52,.12-1.04,.22-1.54,.26-.71,0-1.71,.93-2.63,1.56-.22,.19-.48,.06-.73,.18,.53-1.05,1.85-1.27,2.78-1.9,1.26-.8,3.36-1.31,4.54-2.5,.48-.5,1.16-.57,1.76-.6-.1,.22-.43,.39-.6,.47-1.49,.74-2.98,1.47-4.41,2.35,1.67-.56,3.06-1.51,4.77-2.01-.88,.52-1.92,.69-2.58,1.45,.1,.01,.2,.02,.29,.02,.63-.25,1.26-.49,1.9-.71,.14-.18,.27-.34,.41-.51,1.21-1.56,3.54-2.01,5.35-3.17,.16-.08,.29-.39,.47-.66-.61,.32-1.26,.57-1.86,.91,.28-.07,.56-.1,.86-.08-.55,.36-1.18,.32-1.72,.68,.27-.24,.56-.43,.86-.6-.42,.1-.82,.28-1.24,.44,.61-.65,1.62-.45,2.16-1.24-.16,.09-.32,.17-.49,.24l.5-.25h0c.48-.27,.89-.68,1.25-1.05-.83,.48-1.74,.62-2.55,1.1-.13,.09-.25,.17-.39,.26,.12-.1,.25-.18,.39-.26,1.8-1.18,3.86-1.91,5.8-2.83l.16-.12-.31-.18c-1.59,.8-3.25,1.52-4.91,2.13Z"/>
          </g>
        </g>
        <g class="cls-12">
          <g class="cls-12">
            <path class="cls-5" d="M221.67,18.79c-2.22-.41-4.49-.88-6.69-1.32-2.21-.36-4.35-.67-6.31-.46-.43,.04-.87,.08-1.32,.12l.65,.12c4.93,.96,10.28,1.83,15.28,2.71,1.53,.19,3.16,.4,4.78,.61,1.63,.22,3.26,.6,4.94,1.1,.37,.11,.51-.18,.58-.32-.28-.28-.51-.57-.71-.86-1.41-.29-2.82-.59-4.24-.84-1.43-.24-2.86-.49-4.29-.82-.95-.22-2.11,.1-2.68-.03Z"/>
            <polygon class="cls-7" points="232.98 20.55 232.94 20.5 232.51 20.41 232.98 20.55"/>
            <path class="cls-4" d="M226.05,19.26c-.95-.13-1.87-.34-2.79-.51-.63,.03-1.23,.12-1.59,.04-2.22-.41-4.49-.88-6.69-1.32-2.21-.36-4.35-.67-6.31-.46-.42,.04-.86,.07-1.3,.11l.7,.13c1.75,.32,3.5,.64,5.24,.97,.1,0,.2,0,.3-.01,1.03-.1,1.91,.33,2.87,.5,2.75,.24,4.96,.92,7.69,1.28,.96,.17,2.05,.05,3.18,.34,.39,.08,.76,.18,1.12,.29,1.51,.24,3.04,.59,4.61,1.05,.37,.11,.51-.18,.58-.32-.15-.15-.27-.3-.4-.45-1.26-.41-2.55-.75-3.86-1.13-1.16-.22-2.34-.39-3.51-.63,.04,.04,.09,.08,.16,.12Z"/>
            <path class="cls-7" d="M226.04,18.77c-.16-.04-.41,.13-.16,.37,1.17,.24,2.35,.42,3.51,.63-1.1-.3-2.22-.59-3.35-1Z"/>
            <path class="cls-8" d="M226.47,17.74c-2.26-.71-4.57-.65-6.41-1.33-.98-.3-1.93-.68-2.75-1.12-.32-.05-.64-.09-.96-.14-7.97-.96-15.9-1.36-23.76-1.92-3.95-.21-7.61,.35-11.62,.76-2.38,.15-4.31-.19-6.64-.33-5.85-.45-10.81,1.12-16.7,1.84-1.59,.19-1.74,1.46-1.34,1.45,9.9-1.02,19.27-.9,29.15-1.3,7.66-.27,14.92,.19,21.93,1.48,.45-.04,.89-.08,1.32-.12,1.96-.21,4.1,.1,6.31,.46,2.2,.44,4.47,.91,6.69,1.32,.57,.13,1.72-.19,2.68,.03,1.44,.33,2.87,.58,4.29,.82,1.42,.26,2.82,.55,4.24,.84-.43-.6-.76-1.17-1.25-1.66-1.76-.32-3.52-.56-5.17-1.08Z"/>
            <path class="cls-6" d="M226.47,17.74c1.65,.52,3.41,.76,5.17,1.08-.24-.24-.52-.46-.86-.65-4.04-1.79-8.99-2.32-13.46-2.89,.82,.45,1.77,.82,2.75,1.12,1.84,.67,4.15,.62,6.41,1.33Z"/>
            <path class="cls-4" d="M226.47,17.74c1.57,.5,3.25,.73,4.92,1.04-.53-.22-1.08-.41-1.64-.58-1.43-.4-2.89-.72-4.33-1.09-1.44-.37-2.89-.67-4.31-1.11,3.12,.59,6.21,1.29,9.31,2.02-3.98-1.64-8.77-2.17-13.11-2.72,.82,.44,1.77,.81,2.74,1.12,1.84,.67,4.15,.62,6.41,1.33Z"/>
            <path class="cls-3" d="M221.74,16.95c.87,.21,1.73,.41,2.59,.61,.87,.22,1.73,.43,2.59,.65,.87,.2,1.74,.4,2.62,.6,.87,.22,1.75,.42,2.64,.6-.12-.15-.24-.3-.37-.45-.14-.06-.28-.12-.42-.18-1.68-.31-3.35-.54-4.92-1.04-2.26-.71-4.57-.65-6.41-1.33-.98-.3-1.92-.67-2.74-1.12-.3-.04-.6-.09-.9-.13-2.03-.27-4.07-.41-6.09-.64-2.03-.15-4.06-.35-6.08-.49-3.54,.13-7.36-.18-11.04-.54,1.74,.04,3.47,.09,5.23,.13-1.92-.13-3.84-.26-5.77-.39-1.67-.1-3.29-.04-4.91,.08-.33,.29-.86,.54-1.76,.61-1.4,.12-2.78,.11-4.21,.39-.2,0-.16-.24-.55-.25,1.1,.02,2-.15,2.78-.41-.98,.11-1.97,.21-2.97,.32-1.87,.11-3.46-.06-5.19-.23l-.56,.04c-.92,.07-1.86,.23-2.8,.41,.38,0,.77,0,1.17,0-.61,.16-1.4,.17-1.99,.17,.27-.05,.55-.11,.82-.16-.91,0-1.79,.02-2.76,.03,1.18-.02,2.38-.18,3.38-.35-2.18,.09-4.16,.28-6.3,.15l.16-.05c-3.02,.43-6,1.09-9.28,1.5-1.59,.19-1.74,1.46-1.34,1.45,6.91-.71,13.57-.87,20.32-1.03-.76-.16-1.53-.3-2.31-.43-.34-.03-.66-.08-.97-.16,.32,.05,.64,.11,.97,.16,.91,.08,1.92,.02,2.91,.15,.19,.08,.77,.08,1-.15,1.35,.16,2.95-.07,4.3,.12,.08,0,.22,.07,.37,.15,.85-.03,1.7-.07,2.56-.1,4.79-.15,9.42-.05,13.93,.37-1.08-.2-2.13-.42-3.09-.68-1.3-.42-4.13-.16-6.5-.11-.6,.06-.95-.19-1.54-.21,2.09-.66,4.77-.11,7.15-.15,1.58,.04,3.48,.24,5.4,.44,1.92,.23,3.88,.35,5.6,.31,1.43-.06,2.73,.33,3.83,.72-.43,.09-1.21,0-1.6-.05-3.49-.45-7.01-.81-10.56-.9,3.66,.49,7.22,.63,10.82,1.41-2.15-.19-4.21-.77-6.25-.55,.16,.07,.33,.14,.5,.2,1.41,.17,2.8,.41,4.19,.67,.45-.04,.88-.08,1.3-.11,1.96-.21,4.1,.1,6.31,.46,2.2,.44,4.47,.91,6.69,1.32,.36,.08,.96-.02,1.59-.04-1.43-.29-2.83-.7-4.28-.94,.57,.16,1.1,.39,1.58,.65-1.36-.24-2.41-.71-3.78-.9,.75,.04,1.48,.13,2.2,.25-.85-.25-1.77-.44-2.68-.66,1.83,.02,3.35,.92,5.21,.88-.38-.07-.76-.15-1.12-.25l1.15,.25h-.02c1.16,.22,2.35,.27,3.42,.37-1.99-.41-3.73-1.07-5.71-1.41l-.99-.12c.34,.03,.66,.07,.99,.12,4.53,.69,8.96,1.97,13.29,3.42l.43,.09c-.09-.13-.19-.27-.28-.4-1.81-.54-3.63-1.14-5.47-1.63l-2.73-.8-2.72-.73Z"/>
          </g>
        </g>
        <g class="cls-12">
          <g class="cls-12">
            <path class="cls-5" d="M355.12,92.1c-.27-1.03-.46-2.1-.69-3.15-.29-1.02-.62-2-1.35-2.67-.15-.16-.31-.31-.47-.46l.07,.31c.52,2.32,1.18,4.7,1.81,6.97,.25,.63,.55,1.4,.83,2.11,.27,.73,.42,1.51,.46,2.33,0,.18,.32,.19,.48,.19,.19-.18,.39-.33,.6-.48-.16-.68-.31-1.35-.49-2.02-.2-.67-.38-1.33-.5-2.02-.07-.46-.71-.84-.75-1.11Z"/>
            <polygon class="cls-7" points="356.83 97.31 356.87 97.28 356.83 97.08 356.83 97.31"/>
            <path class="cls-4" d="M355.96,94.04c-.17-.43-.24-.87-.34-1.3-.21-.25-.47-.47-.5-.64-.27-1.03-.46-2.1-.69-3.15-.29-1.02-.62-2-1.35-2.67-.15-.15-.31-.3-.47-.45,.03,.11,.05,.22,.08,.33,.21,.79,.36,1.62,.58,2.42l.09,.11c.38,.36,.23,.87,.34,1.3,.56,1.17,.56,2.26,1,3.47,.12,.44,.56,.85,.62,1.39,.04,.18,.05,.36,.06,.54,.22,.69,.37,1.42,.4,2.18,0,.18,.32,.19,.48,.19,.1-.09,.2-.18,.31-.26,0-.64-.07-1.27-.1-1.92-.15-.55-.33-1.09-.45-1.65-.02,.03-.05,.06-.06,.1Z"/>
            <path class="cls-7" d="M356.42,93.9c0-.08-.25-.14-.4,.04,.12,.56,.3,1.1,.45,1.65-.04-.54-.1-1.09-.05-1.68Z"/>
            <path class="cls-8" d="M357.52,93.8c-.01-1.18-.74-2.15-.65-3.15,0-.52,.07-1.05,.24-1.56-.05-.16-.1-.31-.15-.46-1.44-3.73-3.34-7.17-5.3-10.58-1.04-1.69-2.66-2.75-4.26-3.93-.9-.75-1.29-1.7-2.04-2.61-.46-.58-.95-1.09-1.54-1.47-.58-.38-1.2-.69-1.83-.96-1.31-.49-2.66-.84-4.04-1.31-.73-.27-1.38,.81-1.22,.91,2.17,.83,4.09,2.08,5.85,3.49,1.74,1.45,3.33,3.04,4.99,4.68,2.53,2.59,4.24,5.7,5.03,8.98,.16,.15,.32,.3,.47,.46,.73,.67,1.06,1.65,1.35,2.67,.22,1.04,.42,2.12,.69,3.15,.04,.27,.68,.65,.75,1.11,.12,.69,.3,1.36,.5,2.02,.18,.67,.34,1.34,.49,2.02,.43-.31,.88-.58,1.19-.9-.24-.86-.54-1.69-.54-2.54Z"/>
            <path class="cls-6" d="M357.52,93.8c0,.86,.3,1.68,.54,2.54,.15-.16,.28-.33,.35-.53,.46-2.25-.52-4.62-1.3-6.72-.17,.51-.24,1.04-.24,1.56-.08,1,.64,1.96,.65,3.15Z"/>
            <path class="cls-4" d="M357.52,93.8c0,.82,.28,1.61,.51,2.43,.04-.29,.06-.58,.05-.87-.13-1.47-.45-2.91-.51-4.39,.37,1.53,.63,3.09,.89,4.65,.34-2.19-.59-4.48-1.35-6.52-.17,.51-.24,1.04-.24,1.55-.08,1,.64,1.96,.65,3.15Z"/>
            <path class="cls-3" d="M356.87,91.54c.06,.44,.13,.87,.19,1.29,.05,.44,.11,.87,.16,1.29,.06,.43,.15,.86,.22,1.29,.06,.43,.14,.87,.24,1.3,.11-.08,.22-.17,.31-.26,.01-.08,.03-.15,.04-.23-.23-.82-.51-1.61-.51-2.43-.01-1.18-.74-2.15-.65-3.15,0-.51,.07-1.04,.24-1.55-.05-.15-.1-.29-.14-.43-.34-.96-.81-1.87-1.18-2.81-.45-.91-.86-1.83-1.33-2.72-1.15-1.37-1.99-3.04-2.83-4.69,.48,.71,.96,1.41,1.46,2.14-.23-.42-.46-.84-.69-1.27-.24-.41-.48-.82-.73-1.25-.43-.72-.99-1.32-1.59-1.86-.33,.05-.69,.01-1.02-.28-.53-.45-.98-.96-1.64-1.29-.06-.07,.12-.22,0-.37,.34,.42,.75,.64,1.2,.76-.4-.29-.81-.59-1.2-.88-.69-.61-1.12-1.28-1.59-2.03-.07-.06-.15-.11-.22-.16-.37-.27-.82-.47-1.27-.66,.14,.13,.27,.26,.42,.4-.32-.09-.6-.35-.81-.55,.13,.05,.27,.1,.39,.16-.33-.31-.64-.61-1.01-.91,.46,.36,.97,.66,1.44,.88-.82-.7-1.69-1.19-2.41-1.99h.09c-1.41-.61-2.94-.96-4.46-1.49-.73-.27-1.38,.81-1.22,.91,3.05,1.14,5.56,3.12,7.86,5.27-.13-.38-.3-.74-.47-1.1-.09-.13-.17-.28-.22-.44,.07,.14,.15,.29,.22,.44,.26,.36,.63,.66,.87,1.09,0,.12,.19,.32,.43,.24,.33,.57,1.01,.97,1.28,1.59,.02,.03,.02,.12,0,.23,.29,.28,.57,.56,.87,.84,1.56,1.64,2.85,3.44,3.76,5.38-.14-.51-.26-1.03-.32-1.54-.02-.74-1.08-1.66-1.82-2.51-.23-.18-.14-.47-.3-.7,1.17,.36,1.52,1.73,2.25,2.61,.42,.64,.82,1.47,1.19,2.32,.35,.87,.8,1.68,1.33,2.35,.46,.54,.49,1.23,.44,1.84-.2-.14-.34-.48-.41-.65-.58-1.57-1.26-3.13-2.21-4.55,.64,1.66,1.51,3.12,1.83,4.87-.44-.91-.5-1.99-1.27-2.67-.02,.1-.02,.19-.03,.29,.25,.62,.42,1.27,.58,1.92,.16,.15,.32,.3,.47,.45,.73,.67,1.06,1.65,1.35,2.67,.22,1.04,.42,2.12,.69,3.15,.03,.17,.29,.39,.5,.64-.14-.68-.18-1.38-.37-2.05,.01,.29-.05,.58-.15,.86-.17-.62-.02-1.22-.25-1.83,.17,.32,.3,.64,.4,.98-.01-.43-.1-.87-.16-1.32,.51,.76,.11,1.68,.68,2.43-.05-.18-.08-.36-.09-.55l.1,.55h0c.13,.54,.43,1.05,.66,1.53-.2-.95-.09-1.89-.34-2.83-.06-.15-.12-.3-.18-.45,.07,.15,.13,.3,.18,.45,.68,2.12,.77,4.38,.73,6.57l.05,.21,.29-.2c-.04-.92-.03-1.84-.12-2.77-.02-.46-.04-.92-.07-1.39-.04-.45-.08-.91-.12-1.38Z"/>
          </g>
        </g>
        <g class="cls-12">
          <g class="cls-12">
            <path class="cls-5" d="M65.7,175.01c-3.08-1.16-5.89-3.28-8.73-3.82-.3-.07-.62-.14-.95-.21l.4,.27c3.07,2.03,6.62,3.8,10.2,5.04,2.31,.64,4.81,.9,7.52,1.13,.31,.02,.35-.29,.38-.45-.26-.21-.47-.43-.65-.67-2.08,.03-4.2-.29-6.22-1.03-.65-.27-1.57-.08-1.96-.25Z"/>
            <polygon class="cls-7" points="73.95 176.34 73.92 176.3 73.61 176.3 73.95 176.34"/>
            <path class="cls-4" d="M68.85,175.74c-.69-.13-1.35-.36-1.98-.62-.47-.03-.93,0-1.18-.1-3.08-1.16-5.89-3.28-8.73-3.82-.3-.07-.61-.13-.94-.21l.43,.29c1.06,.7,2.19,1.37,3.34,2l.21,.04c.76,.11,1.27,.64,1.91,.95,1.92,.65,3.35,1.54,5.35,2.12,.72,.21,1.57,.12,2.41,.4,.29,.08,.57,.17,.85,.26,1.17,.15,2.38,.27,3.65,.37,.3,.02,.35-.29,.38-.45-.14-.11-.26-.23-.37-.35-.98-.1-1.94-.24-2.91-.48-.86-.11-1.71-.29-2.55-.53,.02,.04,.06,.08,.1,.12Z"/>
            <path class="cls-7" d="M68.92,175.26c-.11-.04-.33,.13-.18,.36,.84,.24,1.69,.42,2.55,.53-.81-.2-1.61-.48-2.38-.89Z"/>
            <path class="cls-8" d="M69.39,174.26c-1.48-.64-3.1-.87-4.24-1.68-.61-.4-1.16-.89-1.6-1.42-.21-.09-.42-.18-.62-.27-5.22-2.05-10.26-4.56-14.82-7.7-2.32-1.52-4.78-2.43-7.35-3.72-1.45-.88-2.36-1.94-3.56-3.1-2.95-2.91-6.55-4.04-10.05-6.47-.94-.65-1.88,.2-1.68,.39,5.75,4.28,10.81,8.77,17.01,12.34,4.79,2.77,9.21,5.48,13.55,8.35,.33,.07,.65,.14,.95,.21,2.83,.54,5.64,2.66,8.73,3.82,.39,.18,1.31-.02,1.96,.25,2.02,.74,4.14,1.06,6.22,1.03-.38-.49-.65-.99-.99-1.39-1.18,.01-2.42-.14-3.49-.65Z"/>
            <path class="cls-6" d="M69.39,174.26c1.08,.51,2.31,.66,3.49,.65-.17-.2-.35-.36-.58-.5-1.31-.6-2.71-1.1-4.21-1.62-1.5-.52-3.08-1.06-4.55-1.63,.44,.53,.99,1.02,1.6,1.42,1.14,.81,2.76,1.04,4.24,1.68Z"/>
            <path class="cls-4" d="M69.39,174.26c1.03,.49,2.2,.65,3.33,.65-.36-.13-.73-.24-1.1-.34-1.9-.51-3.84-1.19-5.61-2.28,2.03,.88,4.04,1.68,6.07,2.02-1.28-.57-2.65-1.05-4.12-1.56-1.46-.5-2.99-1.03-4.41-1.59,.44,.52,.99,1.01,1.6,1.41,1.14,.81,2.76,1.04,4.24,1.68Z"/>
            <path class="cls-3" d="M66.21,173.25c2.23,1.11,4.59,2.09,7.07,2.13-.09-.13-.18-.25-.27-.37-.1-.04-.19-.07-.29-.1-1.13,0-2.3-.17-3.33-.65-1.48-.64-3.1-.87-4.24-1.68-.61-.4-1.16-.89-1.6-1.41-.2-.08-.39-.17-.59-.25-2.67-1.04-5.28-2.22-7.82-3.52-2.38-.79-4.71-2.21-6.81-3.76,1.05,.62,2.11,1.24,3.22,1.77-1.18-.68-2.31-1.44-3.43-2.19-.98-.65-2-1.17-3.02-1.68-.35,.12-.8,.14-1.38-.14-.91-.42-1.7-1-2.7-1.33-.11-.08,.04-.26-.19-.43,.63,.46,1.26,.68,1.85,.77-.64-.3-1.28-.61-1.92-.92-1.14-.69-1.95-1.5-2.83-2.37l-.33-.21c-.55-.35-1.17-.64-1.8-.91,.21,.17,.43,.33,.65,.51-.44-.14-.88-.48-1.2-.75,.18,.08,.37,.16,.55,.24-.5-.41-.99-.8-1.52-1.24,.65,.52,1.4,.95,2.06,1.26-1.25-.9-2.45-1.65-3.5-2.76l.12,.04c-1.88-1.08-3.87-2.02-5.81-3.38-.94-.65-1.88,.2-1.68,.39,4.02,2.99,7.69,6.07,11.66,8.89-.36-.46-.71-.92-1.05-1.37-.17-.17-.33-.36-.45-.56,.15,.18,.3,.37,.45,.56,.47,.47,1.06,.88,1.57,1.4,.06,.14,.4,.4,.67,.3,.68,.71,1.75,1.21,2.45,1.9,.05,.03,.09,.15,.14,.28,.52,.32,1.05,.65,1.59,.95,2.99,1.74,5.84,3.44,8.62,5.18-.61-.52-1.2-1.02-1.7-1.56-.64-.78-2.55-1.51-4.05-2.33-.4-.17-.49-.51-.84-.75,1.61,.22,3,1.62,4.53,2.38,1.98,1.07,4.5,3.11,6.9,3.8,.99,.28,1.72,.95,2.34,1.54-.33,0-.84-.26-1.08-.39-2.23-1.22-4.44-2.43-6.68-3.66,2.14,1.6,4.49,2.64,6.67,4.19-1.41-.69-2.59-1.69-4.03-2.08,.08,.11,.16,.22,.25,.32,.84,.55,1.7,1.11,2.58,1.68,.33,.07,.64,.14,.94,.21,2.83,.54,5.64,2.66,8.73,3.82,.25,.11,.71,.08,1.18,.1-.98-.41-1.9-.92-2.87-1.34,.36,.24,.69,.5,.97,.81-.93-.36-1.54-.99-2.47-1.35,.52,.15,1.02,.33,1.5,.54-.54-.36-1.14-.66-1.72-1,1.29,.29,2.12,1.36,3.49,1.5-.26-.1-.51-.22-.75-.36l.76,.36h-.02c.79,.31,1.63,.49,2.4,.61-1.38-.49-2.45-1.31-3.76-1.86l-.66-.24c.23,.07,.45,.15,.66,.24,3.05,1.15,5.91,2.81,9.2,3.27h.31s-.25-.33-.25-.33c-2.66-.32-5.17-1.46-7.47-2.72Z"/>
          </g>
        </g>
      </g>
    </g>
  </g>
</svg>