<?xml version="1.0" encoding="UTF-8"?>
<svg id="_Слой_2" data-name="Слой 2" xmlns="http://www.w3.org/2000/svg" xmlns:xlink="http://www.w3.org/1999/xlink" viewBox="0 0 417.01 201.78">
  <defs>
    <style>
      .cls-1 {
        fill: none;
      }

      .cls-2 {
        clip-path: url(#clippath);
      }

      .cls-3 {
        fill: #f3f9fb;
      }

      .cls-4 {
        fill: #f7fbfc;
      }

      .cls-5 {
        fill: #f8fcfd;
      }

      .cls-6 {
        fill: #f4fafb;
      }

      .cls-7 {
        fill: #f5fafb;
      }

      .cls-8 {
        fill: #fbfdfe;
      }

      .cls-9 {
        fill: #349039;
      }

      .cls-10 {
        fill: #6e7c6e;
      }

      .cls-11 {
        opacity: .49;
      }

      .cls-12 {
        opacity: .8;
      }
    </style>
    <clipPath id="clippath">
      <rect class="cls-1" width="417.01" height="201.78"/>
    </clipPath>
  </defs>
  <g id="_камыши_и_кувшинки" data-name="камыши и кувшинки">
    <g class="cls-2">
      <g>
        <g class="cls-11">
          <path class="cls-10" d="M65.77,77.6c19.2,.04,34.22,3.57,56.36,7.53,27.22,4.86,45.8,8.51,72.64,17.07-7.05-4.47-10.15-6.11-18.16-10.32-4.94-2.6-3.16-1.82-8.31-4.25-14-6.61-30.43-10.77-46.66-14.82-11.45-2.86-18.87-4.38-19.3-5.63,19.71-10.18,87.04-19.53,139.03-12.54,51.99,6.99,100.12,29.35,119.22,60.87,4.42,7.29,7.24,15.5,3.06,22.84-5.55,9.75-21.58,15.19-36.57,19.26-67.32,18.25-142.51,26.76-214.49,18.38-26.86-3.12-53.96-8.89-73.92-20.74-19.96-11.85-31.15-30.87-21.71-47.16,9.71-16.76,23.65-22.57,48.82-30.5Z"/>
          <path class="cls-10" d="M90.4,77.66c7.25,1.06,13.09,2.23,18.95,3.17,.91,.15,2.02-.18,3.17,.04,4.55,.88,9.3,1.25,13.6,2.62,4.69,1.51,9.48,2.46,14.14,2.93,4.43,.45,8.68,1.42,13,2.22,1.45,.26,2.89,.47,4.33,1.4,1.05,.67,3.12,1.2,4.85,.82,.33-.07,.95,.23,1.4,.41,.49,.2,1.01,.66,1.41,.65,4.48-.13,8.62,1.87,12.91,2.77,1.07,.23,2.13,.87,3.24,.38,.28-.13,1.32,.14,1.57,.41,.67,.7,1.47,1.03,2.47,1.31,3.37,.97,6.72,2.02,10.06,3.08l-2.05,4.39-2.51-1.58c-2.38-.28-4.22-1.91-6.23-3.05-1.5-.85-2.86-1.99-4.32-2.99-1.47-1.01-3.46-1.33-4.55-2.9-.17-.25-.91-.33-1.36-.56-1.01-.48-2.04-.96-3.06-1.44-.94-.45-1.92-.91-2.79-1.51-.89-.62-1.79-1.21-2.75-1.65-6.23-2.83-12.72-5.13-19.32-7.15-6.59-2.03-13.29-3.77-20.02-5.46-1.17-.29-2.26-.69-3.65-.43-.54,.1-1.34,.02-2.11-.16-.19-.05-.38-.1-.57-.16-.25-.07-.52-.16-.75-.25-.48-.18-.88-.36-1.16-.55-.87-.59-1.72-.92-2.66-1.17-.92-.25-1.94-.43-2.85-.68l-2.52-.68-1.24-.34-1.16-.36c-.4-.12-.74-.25-1.08-.37-.33-.13-.69-.25-.99-.39-.58-.26-1.15-.53-1.64-.79-.61-.31-1.44-.61-2.07-.94-.62-.34-1.08-.69-1.03-1.2,0-.02,0-.08-.04-.14-.02-.06-.11-.15-.02-.18,.11-.08,.19-.16,.19-.2-.03-.29,.07-.6,.36-.89,.29-.3,.76-.58,1.33-.85,.85-.29,1.68-.46,2.38-.7,1.58-.51,2.87-1,3.68-1.83,.86-.76,3.9-1.8,5.89-1.9,1.33-.06,2.31-.27,3.3-.47,.93-.23,1.85-.47,2.77-.7,9.37-2.2,18.83-3.83,28.32-5.17,2.24-.33,4.45-.79,6.68-1.25,1.11-.22,2.23-.44,3.35-.6,1.13-.15,2.26-.24,3.41-.26,1.09-.02,2.25-.51,3.29,.11,.21,.13,1.08-.04,1.41-.25,1.19-.75,2.45-.63,3.86-.68,3.19-.13,6.41-.26,9.62-.4,3.21-.1,6.39-.31,9.52-.73,4.88-.53,9.68-.5,14.52-.54,1.61-.03,3.24,.46,4.87,.58,1.59,.09,3.2,.16,4.8,.17,.95,.01,1.9,.26,2.86-.27,.52-.28,1.9-.31,2.44-.04,1.82,.88,3.83,.77,5.76,.91,5.52,.38,11.04,1,16.53,1.7,1.34,.21,2.91,0,3.99,1.05,.15,.14,.96-.01,1.47-.01,.54,0,1.23-.15,1.59,.04,3.35,1.68,7.15,1.75,10.74,2.53,8.66,1.92,17.31,4,25.71,6.9,2.35,.8,4.65,.81,6.91,1.66,2.18,.85,4.41,1.56,6.55,2.5,1.52,.65,3.3,.93,4.36,2.37,.29,.39,1.39,.85,1.93,.83,2.03-.05,3.71,1.19,5.51,1.9,1.1,.44,2.15,1.05,3.22,1.58,1.07,.55,2.17,1.01,3.42,1.13,.68,.06,1.53,1.08,2.35,1.58,1.44,.85,2.88,1.7,4.35,2.51,.7,.39,1.55,.48,2.25,.89,5.42,3.02,10.71,6.35,15.65,10.22,5.04,3.93,9.64,8.45,13.8,13.38,1.07,1.2,2.02,2.52,3.04,3.77,.94,1.32,1.93,2.6,2.79,3.98,1.79,2.69,3.44,5.57,4.68,8.71,.46,1.18,1.08,2.38,1.45,3.68,.39,1.28,.51,2.66,.07,3.93,1.02,2.33,.44,4.75-.84,6.61-.2,.26-.06,1.09-.13,1.68-.17,.89-.12,1.89-.42,2.79-.23,.94-.85,1.71-1.92,2.17-.08,.03-.16,.28-.28,.39-.59,.57-.79,1.27-1.12,2-.35,.68-.85,1.34-1.85,1.77-.64,.23-1.32,.68-1.99,1.23-.68,.53-1.41,1.06-2.09,1.53-1.43,.87-2.88,1.74-4.3,2.6-1.46,.91-3.37,1.15-4.41,2.7-.17,.26-1.58,.13-2.24,.43-3.39,1.66-7.27,2.03-10.39,4.24-.72,.5-1.99,.87-2.91,.88-3.3,.08-6.03,1.26-9.09,2.38-4.02,1.46-8.4,2.84-12.77,2.55-.93-.05-1.36-.16-2.13,.48-.51,.42-1.52,.59-2.34,.79-4.51,1.12-9.07,2.07-13.61,3.06-4.54,1.03-9.12,1.85-13.68,2.75-1.24,.24-2.49,.24-3.73,.28-1.25,.02-2.49,.08-3.74,.48-1.03,.33-2.35,.06-3.09,1.01-.1,.13-.53,.27-.74,.24-3.22-.4-6.06,1.46-9.19,1.51-.67,.02-1.32-.07-1.99-.07-.68,0-1.49-.12-2.03,.11-2.27,.91-4.65,1.37-7.05,1.65-2.41,.27-4.84,.43-7.21,.88-1.62,.3-3.46,.01-4.8,1.18-.2,.18-.93,.24-1.25,.14-2.93-.89-5.9,.34-8.83,.34-1.5,0-3.11,.83-4.54-.03-.18-.11-.77,.04-1.14,.14-.63,.17-1.24,.54-1.86,.58-1.73,.09-3.66-.3-5.15,.15-1.85,.54-3.64,.54-5.44,.69-1.03,.07-2.09-.31-3.16-.35-1-.04-2.03,.1-3.04,.15-1.45,.08-2.95,.34-4.34,.2-1.44-.15-2.52,.96-4.13,.31-1.23-.49-2.58,.49-3.93,.65-.67,.08-1.39-.01-2.07-.1-.52-.06-1.02-.37-1.5-.33-1.08,.09-2.14-.05-3.29,.42-.8,.33-2.24-.18-3.4-.26-1.15-.06-2.32,0-3.49,.01s-2.42-.18-3.47,.06c-4.63,1.11-9.37,.35-14.05,.4-1.2,.01-2.61,.33-3.62-.55-.18-.16-.87-.17-1.22-.1-4.49,1.01-9.09-.16-13.62-.03-3.23,.01-6.43,.24-9.71-.1-3.19-.3-6.45-.88-9.56-.78-2.56,.09-5.09,.15-7.54-.33-2.39-.51-4.94,.95-7.13-.83-2.46-.32-4.94-.63-7.38-1.08-2.06-.36-4.23-.37-6.1-1.54-.67-.44-2.09-.68-2.94-.55-2.74,.43-5.18-.36-7.68-1.35-.59-.24-1.45,0-2.17-.14-2.16-.42-4.34-.91-6.43-1.56-6.24-2-12.72-2.96-18.91-5.34-1.14-.43-2.64-.33-3.57-.9-5.63-3.56-12.18-5.57-17.45-9.85-3.8-3.16-7.56-6.3-10.99-9.89-3.41-3.58-6.54-7.61-8.65-12.3-.56-1.22-.39-2.8-.79-3.3-1.32-1.62-1.34-4-2.09-5.56-.71-1.42-.9-2.99-.93-4.54,0-1.55,.18-3.09,.32-4.63,.18-2.29,1.39-4.42,1.26-6.7-.03-.34,.33-1.05,.61-1.38,.54-.67,1.04-1.33,1.43-2.05,.4-.69,.74-1.33,1.06-2.03,.61-1.39,1.32-2.78,2.39-3.89,.29-.68,.66-1.33,1.07-1.95,.4-.63,.82-1.24,1.26-1.85,.95-1.16,1.95-2.3,3.05-3.33,1.12-1.01,2.23-2.04,3.44-2.93,.59-.46,1.17-.94,1.77-1.38,.6-.43,1.2-.87,1.79-1.32,.69-.55,1.26-1.2,1.93-1.76,.33-.29,.7-.69,1.05-.81,5.16-1.69,9.59-4.69,14.5-6.26,1.61-.52,3.27-.76,4.88-1.23,1.62-.43,3.16-1.3,4.89-1.08,.54,.07,1.41-.35,2.05-.65,3.49-1.68,6.68-1,7.49,1.4,.3,.87-.43,1.16-1.11,1.73-1.3,1.11-2.66,1.98-4.49,2.52-1.42,.41-3.07,.65-4.01,1.92-.16,.21-.81,.4-1.18,.42-2.65,.09-5.11,1.67-7.51,2.07-1.87,.28-3.37,1.1-5.04,1.64-1.38,.54-2.56,1.56-4.22,1.57-.56,.01-1.52,1.28-2.37,1.85-2.03,1.31-4.03,2.67-5.96,4.08-6.01,4.23-9.54,11-12.74,17.08-.4,2.5-.92,4.85-1.12,7.31-.17,2.44,0,4.97,.87,7.27,1.08,2.76,2.33,5.42,3.89,7.96,1.53,2.55,3.39,4.94,5.53,7.07,.89,.86,1.56,1.59,2.17,2.57,.38,.65,.83,1.3,1.38,1.82,2.16,1.98,4.57,3.68,6.96,5.39,1.3,.92,3.06,1.36,3.77,2.96,.1,.22,.73,.56,1.07,.61,.7,.09,1.36,.27,1.99,.53,.64,.23,1.26,.51,1.87,.83,1.22,.64,2.4,1.38,3.68,1.87,.97,.38,1.85,.85,2.75,1.65,.98,.84,2.79,1.56,4.13,1.67,1.02,.07,1.83,.36,2.73,.6,1.86,.53,3.68,1.27,5.51,1.98,1.85,.64,3.73,1.18,5.72,1.07,1.61,1.62,4.1,1.93,6.12,2.13,7.75,.86,15.22,3.09,22.96,4.08,1.86,.23,3.66,1.01,5.54,1.35,1.97,.37,3.98,.6,5.99,.79,1.07,.1,2.27,.64,3.2-.11,.07-.05,.26-.08,.37-.05,1.13,.25,2.25,.68,3.37,.73,1.01,.05,1.99-.41,3.02-.46,1.23-.05,2.51,.06,3.76,.17,1.21,.11,2.51,.06,3.43,.85,1.02-.84,2.38-.28,3.59-.27,1.14,.02,2.29,.15,3.44,.24l3.87,.28c1.29,.11,2.59,.23,3.87,.19,1.77-.05,3.51-.3,5.27-.31,1.86-.02,3.74,.07,5.59,.25,2.33,.17,4.63,.49,6.96,.69,.96,.08,1.79-.13,2.74-.43,1.25-.41,2.84-1.31,4.45-.06,.32,.24,1.46,.16,2.09,0,2.49-.66,5.02-.73,7.56-.69,1.27,.02,2.54,.08,3.81,.09,1.27-.01,2.53-.05,3.79-.18,2.8,.86,5.49,.18,8.35-.17,4.21-.57,8.68-1.02,12.85-.69,4.43,.32,8.7-.43,13.04-.54,1.22-.04,2.51-.49,3.61,.24,.25,.17,1.17,.02,1.66-.16,3.42-1.25,6.84-1.36,10.48-1.16,1.92,.06,4-.57,6.04-1.16,3.05-.91,6.51-.9,9.78-1.43,1.56,.83,2.52-.39,3.17-.95,.88-.75,1.77-.99,2.91-1.17,1.48-.24,2.96-.27,4.32-1.16,.69-.46,2.36-.67,3.22-.45,1.15,.3,1.52,0,2.45-.48,1.09-.58,2.46,.18,3.92-.12,1.55-.33,3.28-1.13,4.85-.33,.14,.07,.62-.03,.82-.16,2.67-1.66,5.84-.62,8.62-1.66,8.83-.5,17.27-3.45,25.89-5.11,3.57-.63,7.3-.84,10.64-2.2,7.02-2.87,14.39-4.15,21.11-6.96,.7-.31,1.41-.74,2.16-1.04,.74-.31,1.49-.5,2.34-.29,.24,.06,.87-.25,1.08-.51,1.63-1.85,3.56-2.61,5.78-3.26,.52-.18,1.31-.77,1.42-1.16,.16-.54,.42-.95,.78-1.26,.34-.32,.8-.55,1.1-.87,.38-.38,.98-.69,1.43-1.04,.44-.36,.83-.72,.89-1.07,.07-.77,.32-1.17,.71-1.48,.36-.32,.74-.58,1.05-.98,.29-.53,.37-1.21,.39-1.84,.04-.29-.21-.71-.11-.85,.66-.84,.57-1.89,.41-2.85-.24-.99-.56-1.93-.63-2.98,0-.45-.16-.92-.19-1.37-.17-2.62-.56-4.04-1.18-5.46-.64-1.43-1.65-2.91-3.86-5.75-.03-1.16-.79-1.96-1.57-2.74-.81-.76-1.69-1.48-1.96-2.64-.2-.85-1.28-1.94-2.1-2.52-3.68-2.46-6.2-6.17-9.74-8.79-.74-.53-.69-1.68-2.05-1.86-.51-.07-1.2-1.6-2-2.21-1.18-.85-2.13-2.15-3.79-2.32-.68-.06-1.58-1.03-2.42-1.52-1.13-.68-2.08-1.66-3.57-1.81-.8-.09-2.25-.95-2.78-1.67-2.2-3-5.63-3.47-8.64-4.54-.92-.32-1.58-.5-2.37-1.15-1.11-.92-2.64-2.09-3.8-2.19-2.05-.2-3.61-1.2-5.34-1.94-1.5-.62-3-1.26-4.49-1.91-1.51-.61-3.01-1.24-4.55-1.78-3.51-1.2-6.87-2.81-10.67-3.3-2.03-.3-4.67-.71-6.44-2.45-.2-.19-1.23,.18-1.81,.03-4.5-1.25-9.05-2.36-13.59-3.47-1.05-.25-1.97-1.63-3.13-.94-1.23,.74-1.97-1.36-3.06-.39-.16,.14-1.12-.08-1.59-.27-5.18-2.23-10.94-2.19-16.41-3.13-1.32-.23-2.88,.07-3.82-1.02-3.45,.63-7.05-1.77-10.49-.31-2.41-.51-5.06,.32-7.35-.94-.37-.2-1.22,.04-1.65-.15-1.46-.63-2.45,1.08-4.22,.11-1.03-.54-2.99-.25-4.53-.29-1.43-.04-2.86-.04-4.29-.05-1.57-.04-3.15,.03-4.73,.05-1.58,.03-3.16-.01-4.73,.1-3.18,.2-6.25,1.13-9.5,.95-.35-.02-.94,.14-1.06,.33-1.01,1.54-2.67,.8-3.78,.45-.94-.3-1.73-.42-2.73-.35-2.71,.2-5.43,.41-8.13,.61-1.61,.09-3.27,.74-4.89-.06-.5-.24-1.79-.07-2.49,.23-3.26,1.4-6.84,1.18-10.25,1.81-1.54,.29-3.1,.48-4.66,.68-1.18,.16-2.27,.94-3.53,.54-2.75,1.11-5.63,1.66-8.51,2.2l-4.32,.78-2.16,.4c-.71,.16-1.41,.34-2.11,.52l-3.94,1.08h-.03c-.11,.05,.14,.1,.04,.14-.05,.02-.2,.03-.55,.06-.24,.01-.48,.03-.71,.04-.33,.03-.65,.07-.96,.1-.59,.06-.28,.18,.38,.15,1.84-.07,2.53-.19,.77,.12-.32,.06,.26,.05,.67,0,1.15-.12,1.02-.11,.56,.16-.37,.2-.26,.41,.23,.31,.64-.13,1.03-.31,1.2-.33,.09,0,.13,.02,.18,.13l.04,.1s-.03,.07,.18,.16c.29,.16,.58,.34,.86,.55,.28,.2,1.29-.24,1.84-.07,2.13,.67,4.47,.7,6.43,2.03,.8,.54,2.17,.64,3.24,1.02,1.85,.65,3.79,.59,5.7,1.45,1.93,.86,4.2,1.25,6.31,1.88,2.12,.63,4.23,1.3,6.34,1.98,2.11,.7,4.21,1.43,6.31,2.2,2.09,.78,4.18,1.59,6.26,2.47,2.05,.86,4.17,1.83,6.13,2.76,.99,.47,2.01,.95,3.11,1.54l2.86,1.55c1.3,.7,2.52,1.47,3.68,2.53,2.98,2.73,7.33,4.86,12.79,7.3,.39,.17,.75,.46,1.13,.69l1.75,1.09,26.66,16.64-30.08-9.32c-4.72-1.46-9.47-2.79-14.11-4.37-2.32-.77-4.56-1.88-7-2.44-1.59-.38-3.1-.92-4.83-.71-1.44,.17-3.08-1.16-4.84-.62-.64,.19-2.13-.17-2.82-.62-2.28-1.5-5.01-1.6-7.55-2.23-2.92-.72-5.89-1.31-8.87-1.83-1.46-.25-2.86-.86-4.49-.37-.8,.24-2.51-.36-3.52-.88-1.57-.8-3.24-1.02-4.84-1.1-3.44-.16-3.42-.07-6.63-1.24-.38-.14-.81-.22-1.22-.29-4.13-.75-8.32-1.88-12.41-2.16-3.42-.22-6.68-.81-9.98-1.37-1.31-.23-2.9-.04-3.83-1.22-.13-.17-.88-.28-1.22-.21-2.91,.63-5.78-.41-8.62-.75-2.76-.35-5.36,.26-8.14-.21-2.61-.42-5.3-.44-7.96-.52-4.03-.13-4.9-.69-4.88-3.44,.01-2.25,1.07-2.75,4.46-3.14,7.23-.8,14.39,.74,20.17,1.29Z"/>
        </g>
        <g>
          <path class="cls-9" d="M78.08,36.43c19.2,.04,34.22,3.57,56.36,7.53,27.22,4.86,45.8,8.51,72.64,17.07-7.05-4.47-10.15-6.11-18.16-10.32-4.94-2.6-3.16-1.82-8.31-4.25-14-6.61-30.43-10.77-46.66-14.82-11.45-2.86-18.87-4.38-19.3-5.63,19.71-10.18,87.04-19.53,139.03-12.54,51.99,6.99,100.12,29.35,119.22,60.87,4.42,7.29,7.24,15.5,3.06,22.84-5.55,9.75-21.58,15.19-36.57,19.26-67.32,18.25-142.51,26.76-214.49,18.38-26.86-3.12-53.96-8.89-73.92-20.74-19.96-11.85-31.15-30.87-21.71-47.16,9.71-16.76,23.65-22.57,48.82-30.5Z"/>
          <path class="cls-9" d="M102.71,36.49c7.25,1.06,13.09,2.23,18.95,3.17,.91,.15,2.02-.18,3.17,.04,4.55,.89,9.3,1.25,13.6,2.62,4.69,1.51,9.48,2.46,14.14,2.93,4.43,.45,8.68,1.41,13,2.22,1.45,.26,2.89,.47,4.33,1.4,1.05,.67,3.12,1.2,4.85,.82,.33-.07,.95,.22,1.4,.41,.49,.2,1.01,.66,1.41,.65,4.48-.13,8.62,1.87,12.91,2.77,1.07,.23,2.13,.87,3.24,.38,.28-.13,1.32,.14,1.57,.41,.67,.7,1.47,1.03,2.47,1.31,3.37,.97,6.72,2.02,10.06,3.08l-2.05,4.39-2.51-1.58c-2.38-.28-4.22-1.91-6.23-3.05-1.5-.85-2.86-1.99-4.32-2.99-1.47-1.01-3.46-1.33-4.55-2.9-.17-.25-.91-.34-1.36-.56-1.01-.48-2.04-.96-3.06-1.44-.94-.45-1.92-.91-2.79-1.51-.89-.62-1.79-1.21-2.75-1.65-6.23-2.83-12.72-5.13-19.32-7.15-6.59-2.03-13.29-3.77-20.02-5.46-1.17-.29-2.26-.69-3.65-.43-.54,.1-1.34,.02-2.11-.16-.19-.05-.38-.1-.57-.16-.25-.07-.52-.16-.75-.25-.48-.18-.88-.36-1.16-.55-.87-.59-1.72-.92-2.66-1.17-.92-.25-1.94-.43-2.85-.68l-2.52-.68-1.24-.34-1.16-.36c-.4-.12-.74-.25-1.08-.37-.33-.13-.69-.25-.99-.39-.58-.26-1.15-.53-1.64-.79-.61-.31-1.44-.61-2.07-.94-.62-.34-1.08-.69-1.03-1.2,0-.02,0-.08-.04-.14-.02-.06-.12-.15-.02-.18,.11-.08,.19-.16,.19-.2-.03-.29,.07-.59,.36-.89,.29-.3,.76-.58,1.33-.85,.85-.29,1.68-.46,2.38-.7,1.58-.51,2.87-1,3.68-1.83,.86-.76,3.9-1.8,5.89-1.9,1.33-.06,2.31-.27,3.3-.47,.93-.23,1.85-.47,2.77-.7,9.37-2.2,18.83-3.83,28.32-5.17,2.24-.33,4.45-.79,6.68-1.25,1.11-.22,2.23-.44,3.35-.6,1.13-.15,2.26-.24,3.41-.26,1.09-.02,2.25-.51,3.29,.11,.21,.13,1.08-.04,1.41-.25,1.19-.75,2.45-.63,3.86-.68,3.19-.13,6.41-.26,9.62-.4,3.21-.1,6.39-.31,9.52-.73,4.88-.53,9.68-.5,14.52-.54,1.61-.03,3.24,.46,4.87,.58,1.59,.09,3.2,.16,4.8,.17,.95,.01,1.9,.26,2.86-.27,.52-.28,1.9-.31,2.44-.04,1.82,.88,3.83,.77,5.76,.91,5.52,.38,11.04,1,16.53,1.7,1.34,.21,2.91,0,3.99,1.05,.15,.14,.96-.01,1.47-.01,.54,0,1.23-.15,1.59,.04,3.35,1.68,7.15,1.75,10.74,2.53,8.66,1.92,17.31,4,25.71,6.9,2.35,.8,4.65,.81,6.91,1.66,2.18,.85,4.41,1.56,6.55,2.5,1.52,.65,3.3,.93,4.36,2.37,.29,.39,1.39,.85,1.93,.83,2.03-.05,3.71,1.19,5.51,1.9,1.1,.44,2.15,1.05,3.22,1.58,1.07,.55,2.17,1.01,3.42,1.13,.68,.06,1.53,1.08,2.35,1.58,1.44,.85,2.88,1.7,4.35,2.51,.7,.39,1.55,.48,2.25,.89,5.42,3.02,10.71,6.35,15.65,10.22,5.04,3.93,9.64,8.45,13.8,13.38,1.07,1.2,2.02,2.52,3.04,3.77,.94,1.32,1.93,2.6,2.79,3.98,1.79,2.69,3.44,5.57,4.68,8.71,.46,1.18,1.08,2.38,1.45,3.68,.39,1.28,.51,2.66,.07,3.93,1.02,2.33,.44,4.75-.84,6.61-.19,.26-.06,1.09-.13,1.68-.17,.89-.12,1.89-.42,2.79-.23,.94-.85,1.71-1.92,2.17-.08,.03-.16,.28-.28,.39-.59,.57-.79,1.27-1.12,2-.35,.68-.85,1.34-1.85,1.77-.64,.23-1.32,.68-1.99,1.23-.68,.53-1.41,1.06-2.09,1.53-1.43,.87-2.88,1.74-4.3,2.6-1.46,.91-3.37,1.15-4.41,2.7-.17,.26-1.58,.13-2.24,.43-3.39,1.66-7.27,2.03-10.39,4.24-.72,.5-1.99,.87-2.91,.88-3.3,.08-6.03,1.27-9.09,2.38-4.02,1.46-8.4,2.84-12.77,2.55-.93-.05-1.36-.16-2.13,.48-.51,.42-1.52,.59-2.34,.79-4.51,1.12-9.07,2.07-13.61,3.06-4.54,1.03-9.12,1.85-13.68,2.75-1.24,.24-2.49,.24-3.73,.28-1.25,.02-2.49,.08-3.74,.48-1.03,.33-2.35,.06-3.09,1.01-.1,.13-.53,.27-.74,.24-3.22-.4-6.06,1.46-9.19,1.51-.67,.02-1.32-.07-1.99-.07-.68,0-1.49-.12-2.03,.11-2.27,.91-4.65,1.37-7.05,1.65-2.41,.27-4.84,.43-7.21,.88-1.62,.31-3.46,.01-4.8,1.18-.2,.18-.93,.24-1.25,.14-2.93-.89-5.9,.34-8.83,.34-1.5,0-3.11,.83-4.54-.03-.18-.11-.77,.04-1.14,.14-.63,.17-1.24,.54-1.86,.58-1.73,.09-3.66-.3-5.15,.15-1.85,.54-3.64,.54-5.44,.69-1.03,.07-2.09-.31-3.16-.35-1-.04-2.03,.1-3.04,.15-1.45,.08-2.95,.34-4.34,.2-1.44-.15-2.52,.96-4.13,.31-1.23-.49-2.58,.49-3.93,.65-.67,.08-1.39-.01-2.07-.1-.52-.06-1.02-.37-1.5-.33-1.08,.09-2.14-.05-3.29,.42-.8,.33-2.24-.18-3.4-.26-1.15-.06-2.32,0-3.49,.01s-2.42-.18-3.47,.06c-4.63,1.11-9.37,.35-14.05,.4-1.2,.01-2.61,.33-3.62-.55-.18-.16-.87-.17-1.22-.1-4.49,1.01-9.09-.16-13.62-.03-3.23,.01-6.43,.24-9.71-.1-3.19-.3-6.45-.88-9.56-.78-2.56,.09-5.09,.15-7.54-.33-2.39-.51-4.94,.95-7.13-.83-2.46-.32-4.94-.63-7.38-1.08-2.06-.36-4.23-.37-6.1-1.54-.67-.44-2.09-.68-2.94-.55-2.74,.43-5.18-.36-7.68-1.35-.59-.24-1.45,0-2.17-.14-2.16-.42-4.34-.91-6.44-1.56-6.24-2-12.72-2.96-18.91-5.34-1.14-.43-2.64-.33-3.57-.9-5.63-3.56-12.18-5.57-17.45-9.85-3.8-3.16-7.56-6.3-10.99-9.89-3.41-3.58-6.54-7.6-8.65-12.3-.56-1.22-.39-2.8-.79-3.3-1.32-1.62-1.34-4-2.09-5.56-.71-1.42-.9-2.99-.93-4.54,0-1.55,.18-3.09,.32-4.63,.18-2.29,1.39-4.42,1.26-6.7-.03-.34,.33-1.05,.61-1.38,.54-.67,1.04-1.33,1.43-2.05,.4-.69,.74-1.33,1.06-2.03,.61-1.39,1.32-2.78,2.39-3.89,.29-.68,.66-1.33,1.07-1.95,.4-.63,.82-1.24,1.26-1.85,.95-1.16,1.95-2.3,3.05-3.33,1.12-1.01,2.23-2.04,3.44-2.93,.59-.46,1.17-.94,1.77-1.38,.6-.43,1.2-.87,1.79-1.32,.69-.55,1.26-1.2,1.93-1.76,.33-.29,.7-.69,1.05-.81,5.16-1.69,9.59-4.69,14.5-6.26,1.61-.52,3.27-.76,4.88-1.23,1.62-.43,3.16-1.3,4.89-1.08,.54,.07,1.41-.35,2.05-.65,3.49-1.68,6.68-1,7.49,1.4,.3,.87-.43,1.16-1.11,1.73-1.3,1.11-2.66,1.98-4.49,2.52-1.42,.41-3.06,.65-4.01,1.92-.16,.21-.81,.4-1.18,.42-2.65,.09-5.11,1.67-7.51,2.07-1.87,.28-3.37,1.1-5.04,1.64-1.38,.54-2.56,1.56-4.22,1.57-.56,.01-1.52,1.28-2.37,1.85-2.03,1.31-4.03,2.67-5.96,4.08-6.01,4.23-9.54,11-12.74,17.08-.4,2.5-.92,4.85-1.12,7.31-.17,2.44,0,4.97,.87,7.27,1.08,2.76,2.33,5.42,3.89,7.96,1.53,2.55,3.39,4.94,5.53,7.07,.89,.86,1.56,1.59,2.17,2.57,.38,.65,.83,1.3,1.38,1.82,2.16,1.98,4.57,3.68,6.96,5.39,1.3,.92,3.06,1.36,3.77,2.96,.1,.22,.73,.56,1.07,.61,.7,.09,1.36,.27,1.99,.52,.64,.23,1.26,.51,1.87,.83,1.22,.64,2.4,1.38,3.68,1.87,.97,.38,1.85,.85,2.75,1.65,.98,.84,2.79,1.56,4.13,1.67,1.02,.07,1.83,.36,2.73,.6,1.86,.53,3.69,1.27,5.51,1.98,1.85,.64,3.73,1.18,5.72,1.07,1.61,1.62,4.1,1.93,6.12,2.14,7.75,.86,15.22,3.09,22.96,4.08,1.86,.23,3.66,1.01,5.54,1.35,1.97,.37,3.98,.6,5.99,.79,1.07,.1,2.27,.64,3.2-.11,.07-.05,.26-.08,.37-.05,1.13,.25,2.25,.68,3.37,.73,1.01,.05,1.99-.42,3.02-.46,1.23-.05,2.51,.06,3.76,.17,1.21,.11,2.51,.06,3.43,.85,1.02-.84,2.38-.28,3.59-.27,1.14,.02,2.29,.15,3.44,.24l3.87,.28c1.29,.11,2.59,.23,3.87,.19,1.77-.05,3.51-.3,5.27-.31,1.86-.02,3.74,.07,5.59,.25,2.33,.17,4.63,.49,6.96,.69,.96,.08,1.79-.13,2.74-.43,1.25-.41,2.84-1.31,4.45-.06,.32,.24,1.46,.16,2.09,0,2.49-.66,5.02-.73,7.56-.69,1.27,.02,2.54,.08,3.81,.08,1.27-.01,2.53-.05,3.79-.18,2.8,.86,5.49,.18,8.35-.17,4.21-.57,8.68-1.02,12.85-.69,4.43,.32,8.7-.43,13.04-.54,1.22-.04,2.51-.49,3.61,.24,.25,.17,1.17,.02,1.66-.16,3.42-1.25,6.84-1.36,10.48-1.16,1.92,.06,4-.57,6.04-1.16,3.05-.91,6.51-.9,9.78-1.43,1.56,.83,2.52-.39,3.17-.95,.88-.74,1.77-.99,2.91-1.17,1.48-.24,2.96-.27,4.32-1.16,.69-.46,2.36-.67,3.22-.45,1.15,.3,1.52,0,2.45-.48,1.09-.58,2.46,.18,3.92-.12,1.55-.33,3.28-1.13,4.85-.33,.14,.07,.62-.03,.82-.16,2.67-1.66,5.84-.62,8.62-1.66,8.83-.5,17.27-3.45,25.89-5.11,3.57-.63,7.3-.84,10.64-2.2,7.02-2.87,14.39-4.15,21.11-6.96,.7-.31,1.41-.74,2.16-1.04,.74-.31,1.49-.5,2.34-.29,.24,.06,.87-.25,1.08-.51,1.63-1.85,3.56-2.61,5.78-3.26,.52-.18,1.31-.77,1.42-1.16,.16-.54,.42-.95,.78-1.26,.34-.32,.8-.55,1.1-.87,.38-.38,.98-.69,1.43-1.04,.44-.36,.83-.72,.89-1.07,.07-.77,.32-1.17,.71-1.48,.36-.32,.74-.58,1.05-.98,.29-.53,.37-1.21,.39-1.84,.04-.29-.21-.71-.11-.85,.66-.84,.57-1.89,.41-2.85-.24-.99-.56-1.93-.63-2.98,0-.45-.16-.92-.19-1.37-.17-2.62-.56-4.04-1.18-5.46-.64-1.43-1.65-2.91-3.86-5.75-.03-1.17-.79-1.96-1.57-2.74-.81-.76-1.69-1.48-1.96-2.64-.2-.84-1.28-1.94-2.1-2.52-3.68-2.46-6.2-6.17-9.74-8.79-.74-.53-.69-1.68-2.05-1.86-.51-.07-1.2-1.6-2-2.21-1.18-.84-2.13-2.15-3.79-2.31-.68-.06-1.58-1.03-2.42-1.52-1.13-.68-2.08-1.66-3.57-1.81-.8-.09-2.25-.95-2.78-1.67-2.2-3-5.63-3.47-8.64-4.54-.92-.32-1.58-.5-2.37-1.15-1.11-.92-2.64-2.09-3.8-2.19-2.05-.2-3.61-1.2-5.34-1.94-1.5-.62-3-1.26-4.49-1.91-1.51-.61-3.01-1.24-4.55-1.78-3.51-1.2-6.87-2.81-10.67-3.3-2.03-.3-4.67-.71-6.44-2.45-.2-.19-1.23,.18-1.81,.03-4.5-1.25-9.05-2.36-13.59-3.47-1.05-.25-1.97-1.63-3.13-.94-1.23,.74-1.97-1.36-3.06-.39-.16,.14-1.12-.08-1.59-.27-5.18-2.23-10.94-2.19-16.41-3.13-1.32-.23-2.88,.07-3.82-1.02-3.45,.63-7.05-1.77-10.49-.32-2.41-.51-5.06,.32-7.35-.94-.37-.2-1.22,.04-1.65-.15-1.46-.64-2.45,1.08-4.22,.11-1.03-.54-2.99-.25-4.53-.29-1.43-.04-2.86-.04-4.29-.05-1.57-.04-3.15,.03-4.73,.05-1.58,.03-3.16-.02-4.73,.1-3.18,.2-6.25,1.13-9.5,.95-.35-.02-.94,.14-1.06,.33-1.01,1.54-2.67,.8-3.79,.45-.94-.3-1.73-.42-2.73-.35-2.71,.2-5.43,.41-8.13,.61-1.61,.09-3.27,.74-4.89-.06-.5-.24-1.79-.07-2.49,.23-3.26,1.4-6.84,1.18-10.25,1.81-1.54,.29-3.1,.48-4.66,.68-1.18,.16-2.27,.94-3.53,.54-2.75,1.11-5.63,1.66-8.51,2.2l-4.32,.78-2.16,.4c-.71,.16-1.41,.34-2.11,.52l-3.94,1.08h-.03c-.11,.05,.14,.1,.04,.14-.05,.02-.2,.03-.55,.06-.24,.02-.48,.03-.71,.04-.33,.03-.65,.07-.96,.1-.59,.06-.28,.18,.38,.15,1.84-.07,2.53-.19,.77,.13-.32,.06,.26,.05,.67,0,1.15-.12,1.02-.11,.56,.16-.37,.2-.26,.41,.23,.31,.64-.13,1.03-.31,1.2-.33,.09,0,.13,.02,.18,.13l.04,.1s-.03,.07,.18,.16c.29,.16,.58,.34,.86,.55,.28,.2,1.29-.24,1.84-.07,2.13,.67,4.47,.7,6.43,2.03,.8,.54,2.17,.64,3.24,1.02,1.85,.65,3.79,.59,5.7,1.45,1.93,.86,4.2,1.25,6.31,1.88,2.12,.63,4.23,1.3,6.34,1.98,2.11,.7,4.21,1.43,6.31,2.2,2.09,.78,4.18,1.59,6.26,2.47,2.05,.86,4.17,1.83,6.13,2.76,.99,.47,2.01,.95,3.11,1.54l2.86,1.55c1.3,.7,2.52,1.47,3.68,2.53,2.98,2.73,7.33,4.86,12.79,7.3,.39,.17,.75,.46,1.13,.69l1.75,1.09,26.66,16.64-30.08-9.32c-4.72-1.46-9.47-2.79-14.11-4.37-2.32-.77-4.56-1.88-7-2.44-1.59-.38-3.1-.92-4.83-.71-1.44,.17-3.08-1.16-4.84-.62-.64,.19-2.13-.17-2.82-.62-2.28-1.5-5.01-1.6-7.55-2.23-2.92-.72-5.89-1.31-8.87-1.83-1.46-.25-2.86-.86-4.49-.37-.8,.24-2.51-.36-3.52-.88-1.57-.8-3.24-1.02-4.84-1.1-3.44-.16-3.42-.07-6.63-1.24-.38-.14-.81-.22-1.22-.29-4.13-.75-8.32-1.88-12.41-2.16-3.42-.22-6.68-.81-9.98-1.37-1.31-.23-2.9-.04-3.83-1.22-.13-.17-.88-.28-1.22-.21-2.92,.63-5.78-.41-8.62-.75-2.76-.35-5.36,.26-8.14-.21-2.61-.42-5.3-.44-7.96-.52-4.03-.13-4.9-.69-4.88-3.44,.01-2.25,1.07-2.75,4.46-3.14,7.23-.8,14.39,.74,20.17,1.29Z"/>
        </g>
        <g class="cls-12">
          <g class="cls-12">
            <path class="cls-5" d="M182.82,174.86c-5.88,.21-11.97-.93-16.95-.55-.55,.04-1.11,.07-1.69,.11l.85,.12c6.39,.97,13.49,1.53,20.18,1.09,4.14-.39,8.28-1.29,12.79-2.06,.5-.08,.51-.4,.51-.56-.48-.11-.9-.26-1.29-.41-3.58,.84-7.22,1.48-11.02,1.68-1.25,.03-2.62,.59-3.38,.59Z"/>
            <polygon class="cls-7" points="197.37 172.61 197.29 172.58 196.75 172.7 197.37 172.61"/>
            <path class="cls-4" d="M188.46,174.19c-1.22,.17-2.44,.25-3.65,.28-.79,.17-1.52,.39-2,.39-5.88,.21-11.97-.93-16.95-.55-.54,.03-1.1,.07-1.67,.11l.91,.13c2.22,.33,4.51,.62,6.85,.83,.13,0,.26-.02,.38-.03,1.32-.14,2.52,.18,3.78,.24,3.59-.05,6.61,.18,10.22-.14,1.29-.11,2.62-.57,4.14-.67,.52-.05,1.02-.1,1.51-.12,2.02-.37,4.01-.72,6.09-1.1,.5-.08,.51-.4,.51-.56-.25-.06-.49-.13-.71-.2-1.69,.27-3.38,.53-5.12,.72-1.5,.26-3.01,.47-4.54,.61,.06,.02,.14,.05,.25,.06Z"/>
            <path class="cls-7" d="M188.28,173.72c-.22,0-.47,.25-.06,.4,1.53-.14,3.05-.36,4.54-.61-1.46,.15-2.95,.25-4.48,.21Z"/>
            <path class="cls-8" d="M188.44,172.61c-2.95,.06-5.78,.53-8.21,.23-1.28-.14-2.53-.4-3.62-.74-.41-.01-.81-.02-1.21-.03-10.03-.17-20.08-1.11-29.92-2.61-4.95-.68-9.61-.73-14.72-1.01-3.02-.29-5.39-.97-8.31-1.56-7.27-1.57-13.78-1.06-21.33-1.59-2.03-.14-2.46,1.07-1.97,1.14,12.65,1.09,24.42,3.18,37.02,4.41,9.77,.96,18.93,2.19,28.01,3.56,.58-.04,1.14-.07,1.69-.11,4.99-.38,11.08,.76,16.95,.55,.76,0,2.13-.55,3.38-.59,3.8-.2,7.44-.84,11.02-1.68-.81-.31-1.47-.69-2.26-.91-2.16,.51-4.36,.92-6.52,.93Z"/>
            <path class="cls-6" d="M188.44,172.61c2.16-.01,4.36-.41,6.52-.93-.39-.11-.8-.18-1.28-.21-5.39,.04-11.39,.72-17.06,.64,1.09,.34,2.34,.6,3.62,.74,2.44,.3,5.26-.17,8.21-.23Z"/>
            <path class="cls-4" d="M188.44,172.61c2.06-.01,4.16-.38,6.22-.86-.71,.04-1.43,.08-2.15,.16-3.67,.35-7.41,.63-11.07,.32,3.94,0,7.88-.19,11.77-.77-5.26,.09-11.09,.73-16.58,.65,1.08,.34,2.33,.6,3.6,.73,2.44,.3,5.26-.17,8.21-.23Z"/>
            <path class="cls-3" d="M182.43,173.04c4.46,.1,8.98-.09,13.43-1.08-.21-.09-.42-.17-.64-.24-.19,0-.38,.02-.56,.03-2.06,.48-4.16,.84-6.22,.86-2.95,.06-5.78,.53-8.21,.23-1.27-.14-2.52-.4-3.6-.73-.38,0-.76-.02-1.14-.03-5.11-.07-10.25-.38-15.35-.83-4.47,0-9.29-.63-13.9-1.44,2.18,.26,4.38,.49,6.58,.67-2.43-.29-4.84-.63-7.25-1-2.1-.29-4.14-.46-6.19-.59-.45,.24-1.14,.41-2.29,.34-1.78-.1-3.52-.36-5.36-.31-.25-.04-.17-.26-.66-.34,1.38,.21,2.54,.19,3.56,.07-1.25-.06-2.51-.12-3.78-.18-2.38-.23-4.35-.69-6.5-1.17l-.71-.06c-1.17-.11-2.38-.14-3.59-.14,.48,.07,.97,.14,1.47,.22-.8,.04-1.79-.11-2.53-.22,.35,0,.71,0,1.06,0-1.15-.17-2.25-.34-3.48-.52,1.48,.22,3.03,.29,4.32,.33-2.75-.33-5.28-.55-7.95-1.11l.21-.02c-3.87-.19-7.75-.16-11.94-.46-2.03-.15-2.46,1.07-1.97,1.14,8.83,.76,17.23,2.01,25.79,3.11-.95-.29-1.9-.58-2.85-.87-.42-.09-.82-.21-1.19-.35l1.19,.35c1.14,.26,2.42,.4,3.65,.7,.22,.11,.96,.22,1.29,.03,1.68,.41,3.74,.48,5.42,.89,.1,.01,.26,.11,.45,.21,1.08,.11,2.17,.22,3.26,.33,6.11,.6,11.98,1.31,17.73,2.09-1.37-.29-2.7-.6-3.91-.96-1.64-.53-5.24-.62-8.27-.89-.77-.03-1.19-.33-1.93-.44,2.71-.33,6.05,.54,9.08,.78,4.02,.38,9.59,1.54,13.99,1.44,1.81-.05,3.49,.36,4.92,.73-.54,.11-1.54,.01-2.04-.04-4.49-.44-8.97-.96-13.49-1.38,4.65,.83,9.2,1.12,13.85,1.89-2.77-.19-5.42-.8-8.03-.7,.21,.08,.42,.15,.65,.23,1.79,.26,3.59,.53,5.39,.79,.57-.04,1.13-.07,1.67-.11,4.99-.38,11.08,.76,16.95,.55,.48,0,1.21-.22,2-.39-1.89,.03-3.76-.04-5.64-.08,.75,.09,1.48,.21,2.15,.37-1.79,.05-3.22-.33-5-.34,.96-.05,1.9-.04,2.84-.03-1.13-.13-2.33-.2-3.52-.32,2.32-.19,4.43,.52,6.78,.08-.49,0-.99,0-1.48-.03l1.51,.02h-.03c1.51-.03,3.01-.22,4.36-.44-2.6,.15-4.94-.15-7.48-.16l-1.26,.02c.43,0,.85-.01,1.26-.02,5.81-.07,11.66,.02,17.44-.84l.54-.13c-.18-.07-.35-.15-.53-.22-4.76,.75-9.65,.91-14.34,.68Z"/>
          </g>
        </g>
        <g class="cls-12">
          <g class="cls-12">
            <path class="cls-5" d="M400.66,109.85c.78-.66,1.63-1.25,2.29-2,.66-.73,1.1-1.64,1.02-2.56-.01-.2-.03-.41-.06-.61l-.14,.25c-1.05,1.91-2.48,3.28-4.25,4.71-1,.97-2.09,2.17-3.64,2.84-.17,.07-.05,.37,0,.51,.24,.1,.47,.23,.68,.37,1.16-.78,2.24-1.65,3.38-2.43,.4-.23,.5-.95,.71-1.09Z"/>
            <polygon class="cls-7" points="396.5 113.36 396.54 113.39 396.72 113.27 396.5 113.36"/>
            <path class="cls-4" d="M399.23,111.35c.34-.31,.7-.56,1.06-.8,.15-.29,.24-.6,.37-.7,.78-.66,1.63-1.25,2.29-2,.66-.73,1.1-1.64,1.02-2.56-.01-.2-.03-.4-.06-.6l-.15,.27c-.37,.65-.78,1.26-1.23,1.81l-.02,.12c-.05,.45-.49,.6-.77,.87-.63,.95-1.54,1.4-2.46,2.2-.33,.28-.55,.84-1.03,1.09-.16,.1-.32,.17-.48,.24-.56,.46-1.18,.89-1.91,1.21-.17,.08-.05,.37,0,.51,.13,.05,.25,.12,.37,.19,.6-.23,1.16-.53,1.75-.82,.48-.35,.94-.69,1.38-1.01-.03-.01-.07-.02-.12-.02Z"/>
            <path class="cls-7" d="M399.52,111.73c.07-.04,.03-.29-.18-.36-.44,.32-.9,.66-1.38,1.01,.49-.24,.99-.47,1.56-.65Z"/>
            <path class="cls-8" d="M400.02,112.72c1.09-.49,1.76-1.48,2.68-1.91,.47-.25,1.01-.45,1.56-.6,.12-.14,.23-.28,.34-.41,1.33-1.8,2.06-3.94,2.38-5.98,.33-2.05,.34-4.05,.41-5.99-.03-1.95-.73-3.61-1.26-5.51-.19-1.13,.09-2.08,.22-3.21,.39-2.84-1.15-5.12-1.82-7.92-.18-.75-1.44-.75-1.44-.56,.94,4.72,.76,9.25,1.54,13.97,.28,1.83,.48,3.61,.42,5.33-.06,1.71-.41,3.38-1.13,4.76,.03,.2,.05,.4,.06,.61,.08,.92-.35,1.83-1.02,2.56-.66,.75-1.51,1.34-2.29,2-.21,.15-.31,.86-.71,1.09-1.14,.77-2.23,1.65-3.38,2.43,.46,.29,.87,.6,1.29,.77,.68-.56,1.36-1.11,2.16-1.43Z"/>
            <path class="cls-6" d="M400.02,112.72c-.8,.32-1.48,.87-2.16,1.43,.2,.08,.41,.13,.61,.12,2.21-.36,4.22-2.16,5.79-4.06-.55,.15-1.09,.35-1.56,.6-.92,.43-1.6,1.42-2.68,1.91Z"/>
            <path class="cls-4" d="M400.02,112.72c-.77,.3-1.42,.82-2.07,1.35,.28-.07,.55-.16,.81-.28,1.33-.63,2.56-1.46,3.95-2.19-1.31,1.05-2.7,1.85-4.05,2.65,2.13-.44,4.07-2.19,5.59-4.03-.55,.15-1.08,.35-1.56,.6-.92,.43-1.6,1.42-2.68,1.91Z"/>
            <path class="cls-3" d="M401.89,111.21c-1.51,.96-3.07,1.7-4.51,2.71,.12,.07,.24,.14,.35,.19,.08-.02,.15-.03,.22-.05,.65-.53,1.3-1.05,2.07-1.35,1.09-.49,1.76-1.48,2.68-1.91,.47-.25,1.01-.44,1.56-.6l.32-.39c1.37-1.83,2.11-4.03,2.42-6.1-.09-1.87-.01-3.74,.16-5.58,.04,.86,.09,1.71,.13,2.6,.05-.98,.07-1.94,.1-2.89,0-.82-.15-1.6-.34-2.36-.3-.13-.58-.36-.69-.78-.18-.66-.2-1.32-.54-1.98,0-.09,.23-.1,.23-.29,.02,.53,.21,.94,.49,1.3-.14-.46-.28-.94-.42-1.39-.15-.89,0-1.67,.12-2.51l-.05-.26c-.08-.44-.24-.88-.44-1.32,0,.18,.01,.37,.02,.56-.17-.28-.18-.66-.19-.94,.06,.13,.11,.26,.17,.38-.01-.44-.03-.86-.04-1.33,.02,.57,.19,1.13,.37,1.6-.11-1.04-.3-1.98-.17-3.02l.05,.07c-.43-1.42-1.07-2.82-1.44-4.38-.18-.75-1.44-.75-1.44-.56,.65,3.29,.77,6.5,1.04,9.74,.14-.39,.27-.77,.4-1.15,.03-.16,.07-.32,.15-.48-.05,.16-.1,.32-.15,.48-.07,.45,0,.93-.1,1.41-.08,.1-.07,.38,.17,.47-.14,.66,.12,1.42-.01,2.08,0,.04-.06,.11-.14,.19,.06,.4,.12,.81,.18,1.22,.36,2.29,.57,4.5,.31,6.6,.17-.5,.34-1,.55-1.46,.34-.64-.05-1.98-.24-3.1-.09-.28,.15-.47,.14-.75,.74,.94,.38,2.27,.51,3.41,.14,1.55-.53,3.61-.49,5.27,.04,.72-.46,1.26-.9,1.64-.07-.24,.09-.56,.16-.73,.63-1.51,.9-3.2,.86-4.88-.35,1.72-.42,3.44-1.36,4.86,.3-.89,.86-1.77,.64-2.74-.07,.07-.13,.14-.19,.21-.16,.62-.41,1.21-.68,1.76,.03,.2,.05,.4,.06,.6,.08,.92-.35,1.83-1.02,2.56-.66,.75-1.51,1.34-2.29,2-.14,.1-.22,.41-.37,.7,.57-.36,1.16-.71,1.66-1.17-.25,.13-.52,.22-.81,.23,.45-.42,1.05-.52,1.45-1.02-.17,.3-.39,.56-.64,.79,.38-.19,.71-.47,1.05-.76-.37,.84-1.39,.87-1.79,1.71,.14-.11,.29-.22,.44-.31-.15,.11-.3,.22-.45,.32h0c-.43,.35-.81,.77-1.15,1.18,.81-.54,1.72-.8,2.44-1.49,.11-.12,.22-.24,.32-.36-.1,.14-.21,.25-.32,.36-1.58,1.65-3.77,2.39-5.78,3.23l-.17,.12,.3,.19c1.67-.74,3.39-1.45,5.04-2.37Z"/>
          </g>
        </g>
        <g class="cls-12">
          <g class="cls-12">
            <path class="cls-5" d="M398.51,69.51c-.28-.37,.22-1.13-.64-1.16-.08,0-.18-.01-.27-.02l-.02,.08c-.2,.64-.13,1.18,.23,1.58,.33,.2,.96,.3,.99,.66,0,.04,.3-.07,.45-.12,.18-.1,.37-.21,.57-.31-.26-.22-.63-.38-.75-.66-.01-.1-.54,0-.55-.06Z"/>
            <polygon class="cls-7" points="399.78 70.25 399.82 70.23 399.78 70.2 399.78 70.25"/>
            <path class="cls-4" d="M399.08,69.75c-.12-.06-.17-.14-.19-.23-.16,0-.37,.02-.38-.01-.28-.37,.22-1.13-.64-1.16-.08,0-.17-.01-.27-.02l-.03,.09c-.07,.22-.11,.43-.11,.63h.06c.23,.01,.03,.2,.04,.3,.26,.19,.14,.48,.4,.67,.08,.07,.46,.03,.48,.15,.02,.03,.02,.08,.01,.12,.18,.09,.33,.21,.34,.37,0,.04,.3-.07,.45-.12,.09-.05,.19-.11,.29-.17,0-.15-.05-.27-.08-.41-.12-.08-.23-.17-.31-.27-.02,.02-.05,.03-.07,.05Z"/>
            <path class="cls-7" d="M399.52,69.56s-.22,.05-.37,.14c.08,.1,.19,.18,.31,.27-.02-.12-.02-.24,.06-.41Z"/>
            <path class="cls-8" d="M400.55,69.17c.04-.28-.43-.34-.24-.64,.08-.15,.25-.34,.5-.54-.02-.03-.04-.06-.05-.09-.58-.68-1.03-1.38-1.08-2.3-.1-.43-.76-.52-1.28-.71-.2-.17,.02-.53,.08-.85,.23-.86-1.19-.63-1.88-.91-.19-.08-1.25,.59-1.24,.63,.98,.56,.98,1.66,1.77,2.35,.59,.56,.76,1.31,.49,2.22,.1,0,.19,.01,.27,.02,.86,.04,.36,.79,.64,1.16,0,.06,.53-.04,.55,.06,.13,.27,.49,.44,.75,.66,.41-.22,.83-.43,1.13-.61-.24-.11-.46-.22-.39-.44Z"/>
            <path class="cls-6" d="M400.55,69.17c-.07,.22,.15,.33,.39,.44,.15-.09,.26-.17,.33-.24,.49-.69-.19-.99-.47-1.39-.25,.21-.42,.4-.5,.54-.19,.3,.29,.36,.24,.64Z"/>
            <path class="cls-4" d="M400.55,69.17c-.06,.21,.13,.32,.36,.43,.04-.08,.06-.15,.06-.22-.04-.32-.23-.58-.06-.99,.11,.32,.22,.63,.41,.92,.4-.64-.25-.94-.52-1.32-.24,.21-.41,.39-.49,.54-.19,.3,.29,.36,.24,.64Z"/>
            <path class="cls-3" d="M400.19,68.78c-.01,.41,.03,.78,.39,1.05,.1-.06,.2-.11,.29-.17,.01-.02,.03-.04,.04-.07-.22-.1-.42-.21-.36-.43,.04-.28-.43-.34-.24-.64,.08-.15,.25-.34,.49-.54-.02-.03-.03-.06-.05-.08-.29-.35-.56-.7-.75-1.08-.51-.17-.6-.57-.53-1.04,.07,.17,.17,.33,.31,.47-.06-.2-.09-.41-.11-.64-.04-.18-.18-.3-.37-.39-.27,.11-.52,.18-.63,.13-.18-.07-.21-.22-.53-.21,0-.02,.2-.13,.19-.17,.03,.12,.21,.12,.47,.07-.14-.04-.28-.09-.41-.13-.16-.14-.06-.38,.02-.64-.02-.01-.04-.03-.05-.04-.08-.07-.24-.09-.43-.09l.03,.12c-.15,.02-.18-.07-.2-.13h.16c-.03-.09-.05-.18-.08-.28,.04,.12,.21,.17,.38,.19-.13-.19-.33-.31-.26-.62h.04c-.43-.12-1.03-.12-1.42-.27-.19-.08-1.25,.59-1.24,.63,.68,.38,.89,1.05,1.22,1.64,.11-.16,.22-.31,.32-.45,.02-.05,.05-.11,.12-.18-.04,.06-.08,.12-.12,.18-.05,.14,.02,.21-.05,.37-.06,.06-.05,.12,.16,.02-.1,.21,.15,.26,.04,.47,0,0-.05,.05-.12,.11,.06,.07,.12,.13,.19,.19,.37,.35,.57,.78,.61,1.27,.09-.16,.19-.34,.34-.52,.25-.28-.16-.39-.36-.56-.08-.02,.12-.17,.1-.23,.68-.12,.39,.35,.59,.52,.21,.26-.12,.93,.44,1.05,.24,.05,.05,.29-.14,.5-.15,.02-.17-.06-.17-.1-.06-.36-.13-.73-.35-1.03-.13,.48,.15,.75-.07,1.26-.11-.19,.14-.54-.26-.58-.05,.04-.09,.08-.12,.12-.02,.17-.05,.34-.11,.52,.1,0,.19,.01,.27,.02,.86,.04,.36,.79,.64,1.16,0,.04,.22,.01,.38,.01-.03-.15,0-.32-.05-.46-.05,.08-.13,.18-.27,.3-.09-.11,.18-.35,.09-.46,.1,.04,.15,.1,.18,.17,.07-.13,.08-.23,.1-.35,.32,.06-.23,.48,.22,.49-.02-.04-.02-.08-.01-.12l.02,.12h0c.06,.11,.24,.16,.42,.21-.09-.19,.14-.49,.05-.67-.02-.03-.05-.05-.08-.08,.04,.02,.06,.05,.08,.08,.31,.38,.14,.97,.15,1.46l.04,.03,.28-.15c-.05-.4-.02-.84,.09-1.31Z"/>
          </g>
        </g>
        <g class="cls-12">
          <g class="cls-12">
            <path class="cls-5" d="M219.29,168.69c-1.02,.5-2.37,.16-3.04,1.18-.08,.1-.16,.21-.23,.33,.06,0,.11,0,.17,0,1.33,.05,2.68-.26,3.82-.88,.66-.5,1.21-1.3,2.04-1.54,.09-.03-.02-.32-.07-.47-.16-.15-.31-.33-.45-.51-.58,.43-1.13,.94-1.8,1.21-.23,.06-.3,.64-.44,.68Z"/>
            <polygon class="cls-7" points="221.57 166.83 221.54 166.79 221.45 166.86 221.57 166.83"/>
            <path class="cls-4" d="M220.14,167.9c-.19,.17-.4,.27-.62,.33-.09,.19-.15,.43-.24,.45-1.02,.5-2.37,.16-3.04,1.18-.08,.1-.16,.21-.23,.32,.06,0,.12,0,.19,0,.46,.02,.92-.01,1.38-.08l.05-.07c.17-.28,.48-.11,.72-.16,.6-.38,1.22-.38,1.81-.77,.21-.14,.32-.57,.6-.65,.09-.04,.18-.07,.28-.08,.3-.27,.63-.51,1.02-.62,.09-.03-.02-.32-.07-.47-.08-.08-.16-.17-.24-.26-.33,.06-.62,.2-.94,.3-.24,.18-.48,.35-.74,.5,.02,.02,.04,.04,.07,.06Z"/>
            <path class="cls-7" d="M219.94,167.47s0,.24,.13,.38c.26-.14,.5-.31,.74-.5-.27,.08-.55,.14-.87,.12Z"/>
            <path class="cls-8" d="M219.59,166.42c-.57,.07-.93,.64-1.46,.53-.27-.04-.57-.18-.87-.4-.07,.03-.14,.06-.21,.09-1.69,.87-3.47,1.52-5.36,1.63-.92,.14-1.63,.85-2.49,1.43-.54,.21-1.06-.05-1.65-.16-1.47-.35-2.4,1.17-3.77,1.79-.36,.17-.24,1.42-.15,1.42,2.34-.86,4.7-.72,7-1.64,1.78-.69,3.51-.98,5.39-.92,.08-.11,.15-.23,.23-.33,.67-1.02,2.02-.67,3.04-1.18,.14-.04,.2-.62,.44-.68,.67-.28,1.22-.79,1.8-1.21-.31-.37-.59-.77-.85-1.03-.32,.33-.65,.64-1.09,.65Z"/>
            <path class="cls-6" d="M219.59,166.42c.43-.01,.77-.32,1.09-.65-.13-.13-.25-.23-.37-.28-1.21-.27-2.08,.61-3.05,1.06,.3,.22,.6,.36,.87,.4,.53,.11,.89-.46,1.46-.53Z"/>
            <path class="cls-4" d="M219.59,166.42c.41-.01,.74-.29,1.04-.6-.15-.01-.29,0-.43,.03-.68,.18-1.31,.51-2.07,.45,.7-.24,1.4-.49,2.07-.84-1.15-.19-2,.66-2.94,1.09,.3,.22,.6,.36,.87,.4,.53,.11,.89-.46,1.46-.53Z"/>
            <path class="cls-3" d="M218.59,167c.85-.13,1.69-.35,2.4-.9-.08-.09-.16-.18-.23-.27-.04,0-.08-.01-.12-.02-.31,.31-.63,.59-1.04,.6-.57,.07-.93,.64-1.46,.53-.27-.04-.57-.18-.87-.4-.07,.03-.13,.06-.2,.08-.86,.44-1.75,.83-2.66,1.12-.68,.62-1.59,.78-2.51,.73,.4-.09,.79-.22,1.18-.39-.45,.09-.9,.15-1.37,.18-.39,.06-.74,.22-1.09,.43,0,.3-.07,.58-.26,.7-.3,.2-.63,.23-.9,.58-.05,0-.09-.23-.18-.22,.26-.03,.44-.23,.56-.52-.2,.15-.41,.3-.62,.45-.42,.17-.84,.04-1.28-.07-.04,.02-.09,.04-.12,.05-.21,.08-.4,.25-.6,.44,.09,0,.18-.02,.28-.02-.12,.17-.31,.18-.45,.19l.17-.17c-.22,.02-.43,.03-.66,.05,.28-.02,.54-.2,.75-.37-.5,.12-.95,.31-1.49,.19l.03-.05c-.66,.42-1.29,1.05-2.04,1.4-.36,.17-.24,1.42-.15,1.42,1.64-.6,3.27-.71,4.9-1.04-.22-.13-.44-.26-.65-.38-.09-.02-.18-.07-.27-.14,.09,.05,.18,.1,.27,.14,.24,.07,.48,0,.74,.08,.06,.07,.21,.06,.21-.18,.36,.12,.71-.15,1.07-.04,.02,0,.07,.06,.12,.13,.2-.07,.4-.14,.6-.21,1.11-.43,2.2-.71,3.33-.84-.3-.07-.6-.16-.88-.31-.4-.25-.98,.23-1.52,.47-.13,.1-.27-.12-.41-.1,.33-.75,1.07-.47,1.61-.71,.72-.27,1.92,0,2.58-.7,.27-.29,.66-.13,1,.04-.05,.17-.24,.21-.34,.23-.85,.17-1.7,.33-2.52,.63,.96,.08,1.75-.31,2.74-.19-.5,.18-1.1-.02-1.48,.45,.06,.05,.11,.08,.17,.12,.36-.01,.73-.02,1.1,0,.08-.11,.15-.22,.23-.32,.67-1.02,2.02-.67,3.04-1.18,.09-.02,.15-.27,.24-.45-.35,.1-.71,.13-1.05,.25,.16,.03,.33,.08,.51,.2-.31,.16-.68-.08-.99,.08,.15-.13,.31-.21,.48-.27-.24-.04-.47,0-.71,0,.33-.4,.94,.1,1.21-.45-.09,.04-.18,.06-.28,.06l.28-.07h0c.27-.11,.48-.34,.67-.57-.46,.19-.99,.03-1.44,.21-.07,.04-.14,.07-.21,.12,.07-.05,.14-.09,.21-.12,.99-.51,2.16-.54,3.24-.82l.09-.06-.2-.25c-.88,.26-1.81,.43-2.75,.46Z"/>
          </g>
        </g>
      </g>
    </g>
  </g>
</svg>