<?xml version="1.0" encoding="UTF-8"?>
<svg id="_Слой_2" data-name="Слой 2" xmlns="http://www.w3.org/2000/svg" xmlns:xlink="http://www.w3.org/1999/xlink" viewBox="0 0 451.17 224.17">
  <defs>
    <style>
      .cls-1 {
        fill: none;
      }

      .cls-2 {
        clip-path: url(#clippath);
      }

      .cls-3 {
        fill: #f3f9fb;
      }

      .cls-4 {
        fill: #f7fbfc;
      }

      .cls-5 {
        fill: #f8fcfd;
      }

      .cls-6 {
        fill: #f4fafb;
      }

      .cls-7 {
        fill: #f5fafb;
      }

      .cls-8 {
        fill: #fbfdfe;
      }

      .cls-9 {
        fill: #349039;
      }

      .cls-10 {
        fill: #6e7c6e;
      }

      .cls-11 {
        opacity: .49;
      }

      .cls-12 {
        opacity: .8;
      }
    </style>
    <clipPath id="clippath">
      <rect class="cls-1" width="451.17" height="224.17"/>
    </clipPath>
  </defs>
  <g id="_верхний_лотос" data-name="верхний лотос">
    <g class="cls-2">
      <g>
        <g class="cls-11">
          <path class="cls-10" d="M132.83,212.85c-26.99,.11-59.41-7.64-82.66-25.29-3.88-3.92-5.81-7.84-9.69-9.8-3.88-5.88-5.81-9.8-9.69-13.73-5.81-13.73-7.75-31.37,1.94-43.14,36.82-41.18,89.14-58.83,141.46-66.67,79.45-11.77,162.78,13.73,218.94,70.66l-.66,1.41c-53.06,4.03-111.04,7.78-167.34,10.64l11.98,1.17c38.19-.68,69.61,2.84,107.71,5.64,21.36,1.57,43.31,3.86,62.29,13.91h0c-4.51,17.42-21.34,29.28-39.38,37.4-38.96,17.52-78.88,26.84-121.6,23.57-41.9-3.21-76.93-1.92-118.58-7.64"/>
          <path class="cls-10" d="M102.54,211.73c-8.9-1.76-16-3.91-23-6.31-1.1-.34-2.47-.38-3.83-.92-2.71-1.05-5.42-2.21-8.11-3.39-1.32-.64-2.62-1.29-3.89-1.98-1.28-.67-2.46-1.5-3.61-2.3l-1.89-1.32-1.85-1.37c-1.23-.92-2.52-1.71-3.71-2.65-.61-.44-1.22-.88-1.83-1.32-.63-.47-1.17-.77-1.96-1.4l-.89-.88-.8-.81c-.52-.54-1.03-1.08-1.54-1.62-1.1-1.16-2.1-2.31-3.1-3.3-.5-.49-1-.93-1.51-1.33-.26-.18-.51-.38-.78-.53-.41-.27-.92-.52-1.39-.78-.24-.31-.44-.66-.66-.98l-.6-.92-.94-1.45-1.87-2.87c-1-1.49-2-2.86-2.65-4.69-.24-.68-.75-1.51-1.46-2.26-.2-.21-.32-.33-.61-.59-.26-.24-.54-.47-.83-.7-.18-.3-.36-.6-.55-.89-.1-.14-.2-.29-.29-.43-.09-.1-.18-.21-.27-.31-.28-.31-.47-1.15-.59-1.76-.15-.66-.1-1.49-.35-1.92-1.39-2.41-2.24-5.12-2.7-7.91-.29-1.38-.39-2.81-.57-4.2-.09-1.42-.27-2.82-.35-4.23-.15-1.41,.26-2.93-.48-4.18-.22-.32-.09-1.73,.13-2.13,.3-.52,.48-1.06,.66-1.62,.19-.57,.32-1.17,.43-1.85,.59-2.89,1.42-5.78,2.81-8.45,.29-.69,.7-1.33,1.08-1.98,.4-.64,.73-1.31,1.21-1.91l1.37-1.84c.47-.56,.97-1.03,1.45-1.55,1.15-2.67,3.64-4.67,5.7-6.77,1.62-1.51,3.48-2.76,5.22-4.11,.88-.68,1.65-1.55,2.47-2.35,.86-.75,1.77-1.42,2.88-1.76,.35-.11,.84-.85,1.3-1.26,1.03-.93,2.09-1.89,3.13-2.83,1.04-.94,2.2-1.71,3.34-2.37,1.18-.66,2.36-1.32,3.44-2.11,.88-.63,1.73-1.3,2.63-1.9l2.71-1.77,5.43-3.54,5.6-3.26,2.8-1.63,2.87-1.5,5.75-2.99c1.94-.94,3.91-1.82,5.87-2.73,3.88-1.89,7.93-3.4,11.9-5.08,1.38-.59,2.79-.91,4.08-2.02,1.01-.85,3.57-1.81,4.85-1.78,2.05,.02,3.7-.75,5.47-1.3,1.63-.48,3.26-1.01,4.88-1.54,1.63-.51,3.27-.96,4.92-1.39,1.96-.49,3.99-1.63,5.96-1.09,.19,.05,.81-.1,1-.25,1.93-1.49,4.25-1.22,6.45-1.63,1.6-.32,3.19-.66,4.83-1.51,1.59-.82,4.41-1.51,6.07-1.36,2.23,.24,4.12-.32,6.09-.69l4.36-.8,4.37-.69c2.92-.47,5.83-.95,8.76-1.31l4.4-.58,4.41-.47c2.94-.35,5.89-.53,8.84-.78,2.79-.23,5.55-.53,8.33-.86,2.78-.27,5.58-.43,8.41-.3,1.34,.1,2.82-.27,4.02,.46,.25,.15,1.33,.07,1.76-.1,1.55-.63,3.09-.31,4.83-.22,3.95,.18,7.9,.61,11.85,.92,3.94,.42,7.86,.7,11.74,.93,6.06,.26,11.88,1.48,17.77,2.43,1.96,.35,3.83,1.24,5.79,1.76,1.9,.48,3.84,.94,5.77,1.35,1.15,.25,2.24,.72,3.51,.45,.68-.13,2.34,.23,2.93,.65,2.01,1.41,4.47,1.73,6.74,2.46,6.54,1.95,13,4.19,19.36,6.64,1.55,.63,3.45,.94,4.52,2.31,.14,.19,1.15,.28,1.75,.44,.63,.18,1.48,.27,1.87,.57,3.62,2.75,8.08,4.11,12.13,6.12,9.76,4.92,19.35,10.24,28.36,16.42,1.26,.87,2.56,1.5,3.82,2.18,1.26,.68,2.51,1.36,3.71,2.24,2.34,1.67,4.64,3.4,6.9,5.17,1.6,1.25,3.49,2.34,4.41,4.21,.25,.51,1.4,1.43,2.01,1.63,2.28,.8,3.88,2.78,5.77,4.24,.59,.44,1.11,.96,1.64,1.46l.8,.77,.93,.87c.7,.65,1.43,1.27,2.19,1.89,.73,.61,1.74,1.26,2.37,1.81,.78,.64,1.19,2,1.93,2.97,.63,.86,1.28,1.72,1.94,2.58l.12,.16c.02,.06,.13,.1,.06,.17l-.19,.4-.38,.8c-.07,.13-.11,.28-.2,.38l-.42,.08-.84,.15c-1.07,.19-1.9,.56-3,.8l-6.4,1.38c-.14,.03-.26,.06-.41,.09l-.5,.05-1.01,.1-1.54,.16-2.81,.29c-3.74,.38-7.49,.74-11.24,1.06-7.64,.65-15.3,1.11-22.96,1.64-7.65,.52-15.31,1.11-22.97,1.5-2.88,.14-5.95,1.04-8.68,0-2.6,.89-4.95,.6-7.31-.07-.34-.1-1.15,.3-1.77,.44-1.92,.44-3.69,1.77-5.91,.58-.08-.04-.35,.03-.52,.02-1.79-.08-2.95,1.33-5.26,.67-1.44-.41-3.71-.06-5.61,0-1.96,.07-3.94,.14-5.87,.37-2,.24-4.22-.26-6.05,.85-.3,.18-1.81-.43-2.68-.33-4.47,.51-9.12-.15-13.46,1.29-.99,.33-2.59,.38-3.68,.21-3.92-.64-7.52,0-11.47,.53-5.2,.7-10.79,1.15-15.98,.17-.27-.05-.51-.1-.72-.14l.09-4.1c.64,.21,1.11,.29,1.97,.04,.75-.22,2-.03,3.02,.07l4.26,.41,2.13,.21c.44,.04,.49,.05,.79,.05h1.07c2.87-.04,5.73-.09,8.6-.07,5.73-.02,11.46,.11,17.19,.26,3.12,.11,5.98,1.15,9.19,.95,1.32-.09,2.85,.47,3.98-.28,.16-.11,.71-.14,.95-.07,3.78,1.13,7.66,.03,11.44,.66,.81,.13,1.58,.36,2.38,.52,.82,.16,1.77,.46,2.47,.37,5.92-.75,11.87,.58,17.78,.75,2.02,.06,4.18,.76,6.04-.08,.28-.13,1.17-.04,1.54,.12,3.35,1.45,7.19,.85,10.73,1.44,1.82,.3,3.92-.18,5.48,.91,.2,.14,.94,.1,1.4,.06,.8-.06,1.6-.32,2.36-.25,2.12,.21,4.38,.92,6.27,.74,2.34-.22,4.52,.12,6.74,.28,1.28,.1,2.5,.66,3.8,.88,1.21,.22,2.49,.28,3.74,.41,1.78,.21,3.66,.24,5.33,.69,1.72,.46,3.26-.37,5.09,.63,1.39,.74,3.24,.11,4.92,.31,.83,.09,1.69,.37,2.5,.65,.61,.21,1.15,.65,1.74,.74,1.34,.2,2.56,.72,4.08,.62,1.05-.08,2.63,.95,4.01,1.38,1.37,.44,2.77,.85,4.16,1.26,1.38,.44,2.79,1.17,4.11,1.38,1.44,.28,2.86,.68,4.25,1.14,.69,.26,1.37,.53,2.06,.82l1.3,.56c.46,.21,.92,.43,1.36,.66l2.67,1.39c.75,.52,2.29,.71,1.45,1.89-.64,1.94-1.15,3.81-1.91,5.71-.09,.25-.19,.5-.28,.76-.07,.2-.14,.4-.21,.6-.12,.4-.3,.78-.49,1.14-.39,.72-.87,1.37-1.55,1.76-.23,.15-.69,.89-.85,1.32-.25,.68-.53,1.36-.84,2.02-.32,.66-.72,1.26-1.11,1.88-.76,1.26-1.73,2.36-2.69,3.47-.96,1.11-2.06,2.08-3.07,3.13-1.09,.96-2.11,1.99-3.16,2.97-2.93,2.87-5.97,5.58-9.55,7.71-3.48,2.06-7.21,3.86-10.5,5.91-1.34,.88-2.72,1.65-4.1,2.42-1.38,.72-2.79,1.35-4.24,1.86-2.82,1.02-4.86,3.71-8.15,3.47-2.83,1.19-5.7,2.27-8.59,3.3-2.42,.87-4.82,2.04-7.46,2.08-.96,.02-2.63,.6-3.5,1.16-2.79,1.83-5.85,2.56-9.12,2.98-.77,.11-1.59,.79-2.44,1.05-2.59,.8-5.24,1.48-7.87,2.04-7.9,1.49-15.48,4.02-23.47,5.14-1.46,.23-3.01,1.07-4.33,1.06-4.03-.02-8.06,.28-12.07,.69-4.02,.26-8.05,.65-12.01,.32l-8.74-.5c-2.91-.1-5.81-.3-8.72-.46-2.93-.14-5.74-.33-8.59-.51-2.84-.19-5.69-.33-8.53-.57-1.48-.12-3-.92-3.71-.75-2.21,.54-4.68-.15-6.52,.26-3.32,.73-6.54-.01-9.78,.09-2.36,.06-4.87-.62-7.08,.29-.32,.13-1.13,.08-1.56-.06-3.43-1.07-6.93,.19-10.36-.38-6.59,.89-13.31-.19-19.97-.29-.98-.01-1.95,.17-2.92,.25-.5,.04-1.09,.16-1.49,.05-5.96-1.53-12.27-1.08-18.37-1.92-2.01-.3-3.96-.82-5.96-1.13-2.02-.3-4.15-.27-5.98-1.22-.57-.3-1.76-.31-2.63-.32-4.74-.09-8.02-2.12-7.73-4.63,.1-.91,1.06-.84,2.1-1.05,2.02-.41,3.96-.58,6.29-.22,1.81,.25,3.77,.76,5.48,.07,.29-.12,1.11,0,1.54,.17,3.04,1.08,6.61,.82,9.52,1.59,2.24,.59,4.35,.67,6.51,.99,1.82,.27,3.74-.06,5.52,.86,.6,.32,2.45-.28,3.73-.23,3.02,.11,6.06,.22,9.07,.48,9.14,.81,18.22-.17,27.37,.51,6.58-.89,13.34,.43,19.9,.19,7.93-.31,15.85,.63,23.68,.85,1.6,.03,2.87,.13,4.27,.51,.91,.24,1.88,.51,2.84,.53l5.56,.13c1.85,.05,3.71-.03,5.56,.01,.99,.01,2.04-.13,3.06-.15,1.02-.03,2.02,.03,2.92,.52,.25,.14,1.15,.08,1.53-.07,3.2-1.17,6.75-.86,10.12-1.27,1.29-.14,2.53-.28,3.97-.06,1.56,.22,3.95-.07,5.48-.69,1.15-.47,2.21-.64,3.33-.9,1.17-.27,2.36-.45,3.56-.6l3.6-.55c1.2-.19,2.39-.41,3.55-.71,1.16-.32,2.28-.76,3.35-1.32,1.32,.29,2.71,.18,4.06-.11,1.35-.3,2.65-.81,3.82-1.24,9-3.34,18.36-5.47,27.29-8.97,2.14-.87,4.5-1.22,6.72-1.99,2.32-.84,4.62-1.81,6.89-2.8,1.2-.55,2.76-.82,3.38-1.99,.05-.09,.24-.22,.38-.26,1.34-.44,2.8-.71,4.01-1.35,1.09-.58,1.89-1.53,2.93-2.22,1.24-.82,2.63-1.51,3.94-2.26,1.29-.69,2.54-1.63,3.93-1.59,.54-1.34,2.17-1.85,3.36-2.68,1.11-.79,2.26-1.55,3.39-2.32,1.21-.94,2.48-1.81,3.63-2.81,.58-.49,1.2-.95,1.77-1.45,.56-.51,1.11-1.03,1.63-1.57,1.4-1.52,2.55-3.2,3.74-4.81,1.28-1.69,2.51-3.42,3.65-5.16,.39-.53,.72-1.09,1.05-1.65l1.02-1.67,.22-.43c.07-.14,.16-.33,.18-.34l.22-.32c.17-.25,.31-.53,.44-.83,.11-.25,.14-.47,.09-.64-.02-.09-.03-.18-.25-.16-.17-.01-.35-.01-.52-.01-.47,0-.98,.14-1.25,.16-.14,0-.22-.01-.31-.14-.03-.04,0-.05-.09-.12-.09-.08-.19-.16-.28-.25-.18-.18-.35-.39-.51-.63-.24-.39-1.51-.86-2.28-.97-1.49-.25-2.93-.64-4.38-1.03-1.43-.43-2.87-.88-4.31-1.34-2.87-.94-5.79-1.84-8.78-2.34-3.08-1.61-6.41-1.67-9.9-1.92-5.13-.4-10.57-.86-15.59-1.87-5.32-1.08-10.67-1.11-16.03-1.74-1.51-.18-3.17,.04-4.38-.9-.28-.22-1.43-.25-2.06-.17-4.43,.54-8.64-.05-13.04-.98-2.32-.49-4.99-.34-7.6-.22-3.92,.18-8.12-.5-12.2-.8-1.69-1.18-3.14-.21-4.07,.18-1.25,.52-2.38,.55-3.82,.46-1.85-.1-3.65-.4-5.51,.16-.95,.28-3.02,.09-4.01-.33-1.32-.56-1.83-.36-3.08-.11-1.47,.3-2.93-.73-4.76-.77-1.95-.05-4.25,.4-5.93-.76-.15-.1-.75-.11-1.02-.04-3.65,.99-7.19-.72-10.81-.29-5.07-.67-10.18-.78-15.29-.67l-1.92,.04-.96,.02h-.71c-.14,.01-.27,0-.4-.02l-.32-.03-3.85-.33c-2.57-.22-5.13-.47-7.68-.78l.19-8.12c.62-.01,1.24-.02,1.86-.04,4.49-.05,9.06,.52,13.45-.21,9.23-1.53,18.58-1.32,27.85-2.05,1.96-.16,4.2-.78,6.03,.18,.25,.13,1.16,.07,1.54-.09,2.89-1.14,5.77-1.01,8.76-.53,.73,.12,2.07,.02,2.49-.27,1.19-.8,2.64-.59,3.95-.66,1.59-.08,3.74,.43,4.67,0,1.98-.91,3.17-.1,4.72-.05,.96,.03,2-.24,2.98-.42,.47-.09,1.04-.44,1.31-.38,3.18,.7,6.17-.79,9.28-.62,.67,.04,1.37-.03,2.02,.03q7.38,.71,16.56-.5c2.61,1.12,5.45-.98,8.26-.18,1.02,.29,2.95,.08,4.18-.27,5.41-1.51,11.11-1.02,16.61-1.74,1.15-.15,2.09,.65,3.51-.16,.53-.3,2.48,.32,3.74,.2,1.83-.17,3.78,.16,5.54-.82,.72-.4,2.37-.24,3.58-.41,.83-.11,1.67-.12,2.5-.2l.31-.03c.11-.01,.22-.03,.23-.04,.08-.02,.17-.05,.25-.09,.15-.08,.29-.2,.36-.38,.17-.39,.61-.44,1.33-.16,.74,.29,1.46,.42,2.03,.45,.53-.02,1.08,.12,.94-.51l-.02-.17s0-.06-.02-.08l-.1-.07-.42-.27c-.28-.17-.57-.34-.84-.49-.55-.3-1.03-.54-1.4-.72-.45-.23-.71-.3-.72-.6-.02-.22-.08-.51-.3-.82-.66-.72-1.34-1.34-1.97-1.64-2.27-1.05-3.82-2.75-5.6-4.24-3.15-2.5-6.17-5.17-9.46-7.48-.93-.67-1.84-1.36-2.75-2.06l-2.79-2c-.94-.66-1.89-1.31-2.86-1.92-.98-.61-2.01-1.14-3.07-1.65-1.14-.54-2.44-1.19-3.65-2.01-1.24-.79-2.4-1.74-3.25-2.94-.19-.27-1.45-.3-2.08-.68-2.48-1.47-4.99-2.89-7.48-4.32-2.55-1.35-5.03-2.81-7.59-4.12-1.17-.62-1.97-2.29-3.47-2.02-1.58,.27-2.03-2.03-3.52-1.44-.22,.09-1.3-.44-1.82-.81-2.79-2.03-5.96-3.38-9.12-4.73-3.23-1.22-6.46-2.42-9.64-3.7-1.52-.63-3.42-.86-4.34-2.19-2.16-.15-4.15-1.12-6.17-2.01-2.04-.84-4.1-1.58-6.29-1.35-2.8-1.11-6.13-1.06-8.63-2.91-.41-.29-1.48-.26-1.95-.55-1.64-.98-3.15,.44-5.1-.93-1.13-.78-3.54-.97-5.39-1.39-1.71-.41-3.45-.65-5.18-.98-1.9-.36-3.8-.7-5.71-.97-1.91-.28-3.82-.68-5.73-.84-1.95-.16-3.88-.18-5.82-.25-1.94-.05-3.88-.11-5.85-.45-.42-.07-1.16,0-1.34,.15-1.46,1.37-3.35,.43-4.66-.11-1.1-.44-2.05-.68-3.27-.76-3.33-.11-6.66-.23-9.98-.34-1.97-.06-4.07,.35-5.95-.55-.58-.28-2.17-.19-3.06,.04-1.04,.27-2.08,.43-3.14,.54-1.05,.14-2.11,.21-3.18,.26-2.13,.1-4.28,.06-6.39,.32-1.91,.22-3.84,.3-5.76,.45-1.46,.13-2.84,.92-4.36,.46-1.74,.47-3.49,.87-5.26,1.22-1.77,.35-3.54,.56-5.34,.84-3.59,.58-7.23,.92-10.77,1.68-3.52,.76-7.08,1.36-10.59,2.16-3.52,.75-7.06,1.45-10.54,2.34-1.75,.42-3.58,1.36-5.39,.78-.35-.12-1.59,.26-1.91,.55-.87,.81-1.55,1.3-2.88,.92-.25-.07-1.15,.35-1.62,.63-1.3,.8-2.58,1.06-4.14,1.19-1.21,.09-2.79,.41-3.84,.97-1.4,.75-2.76,1.46-4.18,1.98-1.41,.56-2.87,.95-4.52,.98-.4,0-1.17,1-1.83,1.21-1.28,.41-2.53,.92-3.77,1.46-1.24,.53-2.51,.98-3.9,1.12-1.14,.11-2.53,.95-3.83,1.38-2.22,.77-3.98,2.26-6.35,2.98-1.19,.38-2.4,.89-3.57,1.5-1.16,.63-2.31,1.3-3.47,1.9-2.31,1.22-4.68,2.35-6.9,3.72-2.25,1.33-4.53,2.6-6.75,3.98l-6.55,4.29c-1.11,.69-2.13,1.5-3.19,2.26l-3.15,2.32c-1.04,.79-2.13,1.51-3.12,2.36l-3.01,2.49c-1.41,1.16-2.8,2.13-4.45,3.03-2.05,1.22-4.11,2.84-6.23,4.82-.52,.5-1.08,1-1.57,1.57-.5,.57-1,1.16-1.51,1.77-1.01,1.22-2.03,2.53-3.08,3.92-.3,.4-.71,.75-1.06,1.13-3.95,4.48-5.73,10.48-6.31,16.68-.3,2.72-.54,5.6-.07,8.48,.15,.94,.27,1.87,.52,2.78,.11,.46,.25,.91,.41,1.36,.19,.44,.41,.88,.68,1.3,.22,.35,.37,.76,.48,1.2,.13,.44,.24,.91,.36,1.39,.22,.96,.56,1.92,1.32,2.63,.28,.26,.53,.81,.78,1.4,.12,.3,.22,.6,.3,.9,.02,.14-.02,.19-.06,.29-.08,.15-.07,.27-.05,.4v.05s.09,.13,.09,.13l.19,.28,.39,.54c.53,.75,1.09,1.47,1.62,2.2,1.09,1.44,2.14,2.85,3,4.28l1.95,3.2,.98,1.55,.31,.47c.06,.08,.11,.17,.18,.25,.09,.05,.19,.09,.27,.15l.39,.24c.18,.11,.34,.24,.51,.36,.69,.49,1.29,1.02,1.86,1.54,1.64,1.56,2.58,3.32,4.34,4.22,.43,.22,.92,.78,1.37,1.38,.23,.31,.45,.62,.64,.94,.1,.16,.19,.31,.28,.45,.01,.06,0,.12,.02,.19-.01,.14,.47,.6,.81,.92,.37,.34,.76,.65,1.15,.94,.8,.57,1.61,1.11,2.47,1.52,3.67,1.78,3.62,1.73,6.83,4.18,.38,.3,.83,.55,1.26,.8,1.09,.61,2.22,1.16,3.32,1.76,1.11,.6,2.22,1.19,3.37,1.7,1.14,.53,2.28,1.04,3.43,1.52,1.17,.43,2.34,.83,3.51,1.16,3.92,1.12,7.69,2.33,11.54,3.46,1.53,.45,3.44,.46,4.5,1.79,.15,.18,1.04,.42,1.45,.38,1.77-.15,3.5,.11,5.22,.51,1.73,.34,3.46,.81,5.17,1.13,1.67,.26,3.32,.28,4.95,.34,1.64,.03,3.29,.04,4.99,.36,3.2,.53,6.51,.62,9.77,.76,4.95,.15,6.02,.71,6.02,3.45,0,2.25-1.3,2.73-5.48,3.12-8.9,.69-17.72-1.22-24.8-2.33Z"/>
        </g>
        <g>
          <path class="cls-9" d="M147.61,166.12c-26.99,.11-59.41-7.64-82.66-25.29-3.88-3.92-5.81-7.84-9.69-9.8-3.88-5.88-5.81-9.8-9.69-13.73-5.81-13.73-7.75-31.37,1.94-43.14C84.33,32.98,136.65,15.34,188.97,7.49c79.45-11.77,162.78,13.73,218.94,70.66l-.66,1.41c-53.06,4.03-111.04,7.78-167.34,10.64l11.98,1.17c38.19-.68,69.61,2.84,107.71,5.64,21.36,1.57,43.31,3.86,62.29,13.91h0c-4.51,17.42-21.34,29.28-39.38,37.4-38.96,17.52-78.88,26.84-121.6,23.57-41.9-3.21-76.93-1.92-118.58-7.64"/>
          <path class="cls-9" d="M117.32,165c-8.9-1.76-16-3.91-23-6.31-1.1-.34-2.47-.38-3.83-.92-2.71-1.05-5.42-2.21-8.11-3.39-1.32-.64-2.62-1.29-3.89-1.98-1.28-.67-2.46-1.5-3.61-2.3l-1.89-1.32-1.85-1.37c-1.23-.92-2.52-1.71-3.71-2.65-.61-.44-1.22-.88-1.83-1.32-.63-.47-1.17-.77-1.96-1.4l-.89-.88-.8-.81c-.52-.54-1.03-1.08-1.54-1.62-1.1-1.16-2.1-2.31-3.1-3.3-.5-.49-1-.93-1.51-1.33-.26-.18-.51-.38-.78-.53-.41-.27-.92-.52-1.39-.78-.24-.31-.44-.66-.66-.98l-.6-.92-.94-1.45-1.87-2.87c-1-1.49-2-2.86-2.65-4.69-.24-.68-.75-1.51-1.46-2.26-.2-.21-.32-.33-.61-.59-.26-.24-.54-.47-.83-.7-.18-.3-.36-.6-.55-.89-.1-.14-.2-.29-.29-.43-.09-.1-.18-.21-.27-.31-.28-.31-.47-1.15-.59-1.76-.15-.66-.1-1.49-.35-1.92-1.39-2.41-2.24-5.12-2.7-7.91-.29-1.38-.39-2.81-.57-4.2-.09-1.42-.27-2.82-.35-4.23-.15-1.41,.26-2.93-.48-4.18-.22-.32-.09-1.73,.13-2.13,.3-.52,.48-1.06,.66-1.62,.19-.57,.32-1.17,.43-1.85,.59-2.89,1.42-5.78,2.81-8.45,.29-.69,.7-1.33,1.08-1.98,.4-.64,.73-1.31,1.21-1.91l1.37-1.84c.47-.56,.97-1.03,1.45-1.55,1.15-2.67,3.64-4.67,5.7-6.77,1.62-1.51,3.48-2.76,5.22-4.11,.88-.68,1.65-1.55,2.47-2.35,.86-.75,1.77-1.42,2.88-1.76,.35-.11,.84-.85,1.3-1.26,1.03-.93,2.09-1.89,3.13-2.83,1.04-.94,2.2-1.71,3.34-2.37,1.18-.66,2.36-1.32,3.44-2.11,.88-.63,1.73-1.3,2.63-1.9l2.71-1.77,5.43-3.54,5.6-3.26,2.8-1.63,2.87-1.5,5.75-2.99c1.94-.94,3.91-1.82,5.87-2.73,3.88-1.89,7.93-3.4,11.9-5.08,1.38-.59,2.79-.91,4.08-2.02,1.01-.85,3.57-1.81,4.85-1.78,2.05,.02,3.7-.75,5.47-1.3,1.63-.48,3.26-1.01,4.88-1.54,1.63-.51,3.27-.96,4.92-1.39,1.96-.49,3.99-1.63,5.96-1.09,.19,.05,.81-.1,1-.25,1.93-1.49,4.25-1.22,6.45-1.63,1.6-.32,3.19-.66,4.83-1.51,1.59-.82,4.41-1.51,6.07-1.36,2.23,.24,4.12-.32,6.09-.69l4.36-.8,4.37-.69c2.92-.47,5.83-.95,8.76-1.31l4.4-.58,4.41-.47c2.94-.35,5.89-.53,8.84-.78,2.79-.23,5.55-.53,8.33-.86,2.78-.27,5.58-.43,8.41-.3,1.34,.1,2.82-.27,4.02,.46,.25,.15,1.33,.07,1.76-.1,1.55-.63,3.09-.31,4.83-.22,3.95,.18,7.9,.61,11.85,.92,3.94,.42,7.86,.7,11.74,.93,6.06,.26,11.88,1.48,17.77,2.43,1.96,.35,3.83,1.24,5.79,1.76,1.9,.48,3.84,.94,5.77,1.35,1.15,.25,2.25,.72,3.51,.45,.68-.13,2.34,.23,2.93,.65,2.01,1.41,4.47,1.73,6.74,2.46,6.54,1.95,13,4.19,19.36,6.64,1.55,.63,3.45,.94,4.52,2.31,.14,.19,1.15,.28,1.75,.44,.63,.18,1.48,.27,1.87,.57,3.62,2.75,8.08,4.11,12.13,6.12,9.76,4.92,19.35,10.24,28.36,16.42,1.26,.87,2.56,1.5,3.82,2.18,1.26,.68,2.51,1.36,3.71,2.24,2.34,1.67,4.64,3.4,6.9,5.17,1.6,1.25,3.49,2.34,4.41,4.21,.25,.51,1.4,1.43,2.01,1.63,2.28,.8,3.88,2.78,5.77,4.24,.59,.44,1.11,.96,1.64,1.46l.8,.77,.93,.87c.7,.65,1.43,1.27,2.19,1.89,.73,.61,1.74,1.26,2.37,1.81,.78,.64,1.19,2,1.93,2.97,.63,.86,1.28,1.72,1.94,2.58l.12,.16c.02,.06,.13,.1,.06,.17l-.19,.4-.38,.8c-.07,.13-.11,.28-.2,.38l-.42,.08-.84,.15c-1.07,.19-1.9,.56-3,.8l-6.4,1.38c-.14,.03-.26,.06-.41,.09l-.5,.05-1.01,.1-1.54,.16-2.81,.29c-3.74,.38-7.49,.74-11.24,1.06-7.64,.65-15.3,1.11-22.96,1.64-7.65,.52-15.31,1.11-22.97,1.5-2.88,.14-5.95,1.04-8.68,0-2.6,.89-4.95,.6-7.31-.07-.34-.1-1.15,.3-1.77,.44-1.92,.44-3.69,1.77-5.91,.58-.08-.04-.35,.03-.52,.02-1.79-.08-2.95,1.33-5.26,.67-1.44-.41-3.71-.06-5.61,0-1.96,.07-3.94,.14-5.87,.37-2,.24-4.22-.26-6.05,.85-.3,.18-1.81-.43-2.68-.33-4.47,.51-9.12-.15-13.46,1.29-.99,.33-2.59,.38-3.68,.21-3.92-.64-7.52,0-11.47,.53-5.2,.7-10.79,1.15-15.98,.17-.27-.05-.51-.1-.72-.14l.09-4.1c.64,.21,1.11,.29,1.97,.04,.75-.22,2-.03,3.02,.07l4.26,.41,2.13,.21c.44,.04,.49,.05,.79,.05h1.07c2.87-.04,5.73-.09,8.6-.07,5.73-.02,11.46,.11,17.19,.26,3.12,.11,5.98,1.15,9.19,.95,1.32-.09,2.85,.47,3.98-.28,.16-.11,.71-.14,.95-.07,3.78,1.13,7.66,.03,11.44,.66,.81,.13,1.58,.36,2.38,.52,.82,.16,1.77,.46,2.47,.37,5.92-.75,11.87,.58,17.78,.75,2.02,.06,4.18,.76,6.04-.08,.28-.13,1.17-.04,1.54,.12,3.35,1.45,7.19,.85,10.73,1.44,1.82,.3,3.92-.18,5.48,.91,.2,.14,.94,.1,1.4,.06,.8-.06,1.6-.32,2.36-.25,2.12,.21,4.38,.92,6.27,.74,2.34-.22,4.52,.12,6.74,.28,1.28,.1,2.5,.66,3.8,.88,1.21,.22,2.49,.28,3.74,.41,1.78,.21,3.66,.24,5.33,.69,1.72,.46,3.26-.37,5.09,.63,1.39,.74,3.24,.11,4.92,.31,.83,.09,1.69,.37,2.5,.65,.61,.21,1.15,.65,1.74,.74,1.34,.2,2.56,.72,4.08,.62,1.05-.08,2.63,.95,4.01,1.38,1.37,.44,2.77,.85,4.16,1.26,1.38,.44,2.79,1.17,4.11,1.38,1.44,.28,2.86,.68,4.25,1.14,.69,.26,1.37,.53,2.06,.82l1.3,.56c.46,.21,.92,.43,1.36,.66l2.67,1.39c.75,.52,2.29,.71,1.45,1.89-.64,1.94-1.15,3.81-1.91,5.71-.09,.25-.19,.5-.28,.76-.07,.2-.14,.4-.21,.6-.12,.4-.3,.78-.49,1.14-.39,.72-.87,1.37-1.55,1.76-.23,.15-.69,.89-.85,1.32-.25,.68-.53,1.36-.84,2.02-.32,.66-.72,1.26-1.11,1.88-.76,1.26-1.73,2.36-2.69,3.47-.96,1.11-2.06,2.08-3.07,3.13-1.09,.96-2.11,1.99-3.16,2.97-2.93,2.87-5.97,5.58-9.55,7.71-3.48,2.06-7.21,3.86-10.5,5.91-1.34,.88-2.72,1.65-4.1,2.42-1.38,.72-2.79,1.35-4.24,1.86-2.82,1.02-4.86,3.71-8.15,3.47-2.83,1.19-5.7,2.27-8.59,3.3-2.42,.87-4.82,2.04-7.46,2.08-.96,.02-2.63,.6-3.5,1.16-2.79,1.83-5.85,2.56-9.12,2.98-.77,.11-1.59,.79-2.44,1.05-2.59,.8-5.24,1.48-7.87,2.04-7.9,1.49-15.48,4.02-23.47,5.14-1.46,.23-3.01,1.07-4.33,1.06-4.03-.02-8.06,.28-12.07,.69-4.02,.26-8.05,.65-12.01,.32l-8.74-.5c-2.91-.1-5.81-.3-8.72-.46-2.93-.14-5.74-.33-8.59-.51-2.84-.19-5.69-.33-8.53-.57-1.48-.12-3-.92-3.71-.75-2.21,.54-4.68-.15-6.52,.26-3.32,.73-6.54-.01-9.78,.09-2.36,.06-4.87-.62-7.08,.29-.32,.13-1.13,.08-1.56-.06-3.43-1.07-6.93,.19-10.36-.38-6.59,.89-13.31-.19-19.97-.29-.98-.01-1.95,.17-2.92,.25-.5,.04-1.09,.16-1.49,.05-5.96-1.53-12.27-1.08-18.37-1.92-2.01-.3-3.96-.82-5.96-1.13-2.02-.3-4.15-.27-5.98-1.22-.57-.3-1.76-.31-2.63-.32-4.74-.09-8.02-2.12-7.73-4.63,.1-.91,1.06-.84,2.1-1.05,2.02-.41,3.96-.58,6.29-.22,1.81,.25,3.77,.76,5.48,.07,.29-.12,1.11,0,1.54,.17,3.04,1.08,6.61,.82,9.52,1.59,2.24,.59,4.35,.67,6.51,.99,1.82,.27,3.74-.06,5.52,.86,.6,.32,2.45-.28,3.73-.23,3.02,.11,6.06,.22,9.07,.48,9.14,.81,18.22-.17,27.37,.51,6.58-.89,13.34,.43,19.9,.19,7.93-.31,15.85,.63,23.68,.85,1.6,.03,2.87,.13,4.27,.51,.91,.24,1.88,.51,2.84,.53l5.56,.13c1.85,.05,3.71-.03,5.56,.01,.99,.01,2.04-.13,3.06-.15,1.02-.03,2.02,.03,2.92,.52,.25,.14,1.15,.08,1.53-.07,3.2-1.17,6.75-.86,10.12-1.27,1.29-.14,2.53-.28,3.97-.06,1.56,.22,3.95-.07,5.48-.69,1.15-.47,2.21-.64,3.33-.9,1.17-.27,2.36-.45,3.56-.6l3.6-.55c1.2-.19,2.39-.41,3.55-.71,1.16-.32,2.28-.76,3.35-1.32,1.32,.29,2.71,.18,4.06-.11,1.35-.3,2.65-.81,3.82-1.24,9-3.34,18.36-5.47,27.29-8.97,2.14-.87,4.5-1.22,6.72-1.99,2.32-.84,4.62-1.81,6.89-2.8,1.2-.55,2.76-.82,3.38-1.99,.05-.09,.24-.22,.38-.26,1.34-.44,2.8-.71,4.01-1.35,1.09-.58,1.89-1.53,2.93-2.22,1.24-.82,2.63-1.51,3.94-2.26,1.29-.69,2.54-1.63,3.93-1.59,.54-1.34,2.17-1.85,3.36-2.68,1.11-.79,2.26-1.55,3.39-2.32,1.21-.94,2.48-1.81,3.63-2.81,.58-.49,1.2-.95,1.77-1.45,.56-.51,1.11-1.03,1.63-1.57,1.4-1.52,2.55-3.2,3.74-4.81,1.28-1.69,2.51-3.42,3.66-5.16,.39-.53,.72-1.09,1.05-1.65l1.02-1.67,.22-.43c.07-.14,.16-.33,.18-.34l.22-.32c.17-.25,.31-.53,.44-.83,.11-.25,.14-.47,.09-.64-.02-.09-.03-.18-.25-.17-.17-.01-.35-.01-.52-.01-.47,0-.98,.14-1.25,.16-.14,0-.22-.01-.31-.14-.03-.04,0-.05-.09-.12-.09-.08-.19-.16-.28-.25-.18-.18-.35-.39-.51-.63-.24-.39-1.51-.86-2.28-.97-1.49-.25-2.93-.64-4.38-1.03-1.43-.43-2.87-.88-4.31-1.34-2.87-.94-5.79-1.84-8.78-2.34-3.08-1.61-6.41-1.67-9.9-1.92-5.13-.4-10.57-.86-15.59-1.87-5.32-1.08-10.67-1.11-16.03-1.74-1.51-.18-3.17,.04-4.38-.9-.28-.22-1.43-.25-2.06-.17-4.43,.54-8.64-.05-13.04-.98-2.32-.49-4.99-.34-7.6-.22-3.92,.18-8.12-.5-12.2-.8-1.69-1.18-3.14-.21-4.07,.18-1.25,.52-2.38,.55-3.82,.46-1.85-.1-3.65-.4-5.51,.16-.95,.28-3.02,.09-4.01-.33-1.32-.56-1.83-.36-3.08-.11-1.47,.3-2.93-.73-4.76-.77-1.95-.05-4.25,.4-5.93-.76-.15-.1-.75-.11-1.02-.04-3.65,.99-7.19-.72-10.81-.29-5.07-.67-10.18-.78-15.29-.67l-1.92,.04-.96,.02h-.71c-.14,.01-.27,0-.4-.02l-.32-.03-3.85-.33c-2.57-.22-5.13-.47-7.68-.78l.19-8.12c.62-.01,1.24-.02,1.86-.04,4.49-.05,9.06,.52,13.45-.21,9.23-1.53,18.58-1.32,27.85-2.05,1.96-.16,4.2-.78,6.03,.18,.25,.13,1.16,.07,1.54-.09,2.89-1.14,5.77-1.01,8.76-.53,.73,.12,2.07,.02,2.49-.27,1.19-.8,2.64-.59,3.95-.66,1.59-.08,3.74,.43,4.67,0,1.98-.91,3.17-.1,4.72-.05,.96,.03,2-.24,2.98-.42,.47-.09,1.04-.44,1.31-.38,3.18,.7,6.17-.79,9.28-.62,.67,.04,1.37-.03,2.02,.03q7.38,.71,16.56-.5c2.61,1.12,5.45-.98,8.26-.18,1.02,.29,2.95,.08,4.18-.27,5.41-1.51,11.11-1.02,16.61-1.74,1.15-.15,2.09,.65,3.51-.16,.53-.3,2.48,.32,3.74,.2,1.83-.17,3.78,.16,5.54-.82,.72-.4,2.37-.24,3.58-.41,.83-.11,1.67-.12,2.5-.2l.31-.03c.11-.01,.22-.03,.23-.04,.08-.02,.17-.05,.25-.09,.15-.08,.29-.2,.36-.38,.17-.39,.61-.44,1.33-.16,.74,.29,1.46,.42,2.03,.45,.53-.02,1.08,.12,.94-.51l-.02-.17s0-.06-.02-.08l-.1-.07-.42-.27c-.28-.17-.57-.34-.84-.49-.55-.3-1.03-.54-1.4-.72-.45-.23-.71-.3-.72-.6-.02-.22-.08-.51-.3-.82-.66-.72-1.34-1.34-1.97-1.64-2.27-1.05-3.82-2.75-5.6-4.24-3.15-2.5-6.17-5.17-9.46-7.48-.93-.67-1.84-1.36-2.75-2.06l-2.79-2c-.94-.66-1.89-1.31-2.86-1.92-.98-.61-2.01-1.14-3.07-1.65-1.14-.54-2.44-1.19-3.65-2.01-1.24-.79-2.4-1.74-3.25-2.94-.19-.27-1.45-.3-2.08-.68-2.48-1.47-4.99-2.89-7.48-4.32-2.55-1.35-5.03-2.81-7.59-4.12-1.17-.62-1.97-2.29-3.47-2.02-1.58,.27-2.03-2.03-3.52-1.44-.22,.09-1.3-.44-1.82-.81-2.79-2.03-5.96-3.38-9.12-4.73-3.23-1.22-6.46-2.42-9.64-3.7-1.52-.63-3.42-.86-4.34-2.19-2.16-.15-4.15-1.12-6.17-2.01-2.04-.84-4.1-1.58-6.29-1.35-2.8-1.11-6.13-1.06-8.62-2.91-.41-.29-1.48-.26-1.95-.55-1.64-.98-3.15,.44-5.1-.93-1.13-.78-3.54-.97-5.39-1.39-1.71-.41-3.45-.65-5.18-.98-1.9-.36-3.8-.7-5.71-.97-1.91-.28-3.82-.68-5.73-.84-1.95-.16-3.88-.18-5.82-.25-1.94-.05-3.88-.11-5.85-.45-.42-.07-1.16,0-1.34,.15-1.46,1.37-3.35,.43-4.66-.11-1.1-.44-2.05-.68-3.27-.76-3.33-.11-6.66-.23-9.98-.34-1.97-.06-4.07,.35-5.95-.55-.58-.28-2.17-.19-3.06,.04-1.04,.27-2.08,.43-3.14,.54-1.05,.14-2.11,.21-3.18,.26-2.13,.1-4.28,.06-6.39,.32-1.91,.22-3.84,.3-5.76,.45-1.46,.13-2.84,.92-4.36,.46-1.74,.47-3.49,.87-5.26,1.22-1.77,.35-3.54,.56-5.34,.84-3.59,.58-7.23,.92-10.77,1.68-3.52,.76-7.08,1.36-10.59,2.16-3.52,.75-7.06,1.45-10.54,2.34-1.75,.42-3.58,1.36-5.39,.78-.35-.12-1.59,.26-1.91,.55-.87,.81-1.55,1.3-2.88,.92-.25-.07-1.15,.35-1.62,.63-1.3,.8-2.58,1.06-4.14,1.19-1.21,.09-2.79,.41-3.84,.97-1.4,.75-2.76,1.46-4.18,1.98-1.41,.56-2.87,.95-4.52,.98-.4,0-1.17,1-1.83,1.21-1.28,.41-2.53,.92-3.77,1.46-1.24,.53-2.51,.98-3.9,1.12-1.14,.11-2.53,.95-3.83,1.38-2.22,.77-3.98,2.26-6.35,2.98-1.19,.38-2.4,.89-3.57,1.5-1.16,.63-2.31,1.3-3.47,1.9-2.31,1.22-4.68,2.35-6.9,3.72-2.25,1.33-4.53,2.6-6.75,3.98l-6.55,4.29c-1.11,.69-2.13,1.5-3.19,2.26l-3.15,2.32c-1.04,.79-2.13,1.51-3.12,2.36l-3.01,2.49c-1.41,1.16-2.8,2.13-4.45,3.03-2.05,1.22-4.11,2.84-6.23,4.82-.52,.5-1.08,1-1.57,1.57-.5,.57-1,1.16-1.51,1.77-1.01,1.22-2.03,2.53-3.08,3.92-.3,.4-.71,.75-1.06,1.13-3.95,4.48-5.73,10.48-6.31,16.68-.3,2.72-.54,5.6-.07,8.48,.15,.94,.27,1.87,.52,2.78,.11,.46,.25,.91,.41,1.36,.19,.44,.41,.88,.68,1.3,.22,.35,.37,.76,.48,1.2,.13,.44,.24,.91,.36,1.39,.22,.96,.56,1.92,1.32,2.63,.28,.26,.53,.81,.78,1.4,.12,.3,.22,.6,.3,.9,.02,.14-.02,.19-.06,.29-.08,.15-.07,.27-.05,.4v.05s.09,.13,.09,.13l.19,.28,.39,.54c.53,.75,1.09,1.47,1.62,2.2,1.09,1.44,2.14,2.85,3,4.28l1.95,3.2,.98,1.55,.31,.47c.06,.08,.11,.17,.18,.25,.09,.05,.19,.09,.27,.15l.39,.24c.18,.11,.34,.24,.51,.36,.69,.49,1.29,1.02,1.86,1.54,1.64,1.56,2.58,3.32,4.34,4.22,.43,.22,.92,.78,1.37,1.38,.23,.31,.45,.62,.64,.94,.1,.16,.19,.31,.28,.45,.01,.06,0,.12,.02,.19-.01,.14,.47,.6,.81,.92,.37,.34,.76,.65,1.15,.94,.8,.57,1.61,1.11,2.47,1.52,3.67,1.78,3.62,1.73,6.83,4.18,.38,.3,.83,.55,1.26,.8,1.09,.61,2.22,1.16,3.32,1.76,1.11,.6,2.22,1.19,3.37,1.7,1.14,.53,2.28,1.04,3.43,1.52,1.17,.43,2.34,.83,3.51,1.16,3.92,1.12,7.69,2.33,11.54,3.46,1.53,.45,3.44,.46,4.5,1.79,.15,.18,1.04,.42,1.45,.38,1.77-.15,3.5,.11,5.22,.51,1.73,.34,3.46,.81,5.17,1.13,1.67,.26,3.32,.28,4.95,.34,1.64,.03,3.29,.04,4.99,.36,3.2,.53,6.51,.62,9.77,.76,4.95,.15,6.02,.71,6.02,3.45,0,2.25-1.3,2.73-5.48,3.12-8.9,.69-17.72-1.22-24.8-2.33Z"/>
        </g>
        <g class="cls-12">
          <g class="cls-12">
            <path class="cls-5" d="M31.74,129.53c-3-3.17-4.81-7.36-7.41-9.94-.28-.29-.57-.58-.86-.89l.29,.55c2.16,4.15,4.9,8.65,8.58,12.13,1.16,1.04,2.49,1.94,3.87,2.78,1.38,.85,2.85,1.62,4.41,2.37,.34,.17,.52-.09,.6-.23-.22-.33-.39-.64-.53-.95-2.49-.98-4.85-2.43-6.87-4.36-.64-.66-1.71-1.04-2.08-1.47Z"/>
            <polygon class="cls-7" points="40.76 135.44 40.74 135.38 40.36 135.23 40.76 135.44"/>
            <path class="cls-4" d="M35,132.17c-.74-.53-1.4-1.14-2.01-1.79-.51-.32-1.02-.58-1.26-.85-3-3.17-4.81-7.36-7.41-9.94-.28-.28-.56-.58-.85-.88l.31,.59c.76,1.44,1.57,2.91,2.47,4.38l.2,.2c.72,.67,1.02,1.55,1.55,2.31,1.71,2.02,2.97,3.9,5.03,5.7,.74,.64,1.74,1.04,2.61,1.78,.31,.24,.61,.46,.89,.71,1.31,.76,2.67,1.5,4.13,2.19,.34,.17,.52-.09,.6-.23-.12-.17-.22-.34-.31-.51-1.13-.56-2.21-1.2-3.27-1.92-.96-.56-1.89-1.2-2.76-1.92,.02,.05,.04,.11,.08,.18Z"/>
            <path class="cls-7" d="M35.24,131.73c-.11-.11-.41-.07-.31,.25,.87,.72,1.8,1.35,2.76,1.92-.44-.31-.86-.65-1.28-1-.4-.38-.8-.75-1.17-1.17Z"/>
            <path class="cls-8" d="M36.08,131.02c-1.47-1.47-3.14-2.7-4.03-4.24-.48-.79-.85-1.65-1.07-2.46-.18-.23-.35-.46-.52-.69-2.19-2.83-4.28-5.89-6.19-8.93-1.87-3.04-3.44-6.24-4-9.56-.64-3.27-1.09-6.54-1.31-10.26,0-2.21,.43-3.96,.73-6.1,.84-5.35-.3-10.04-.51-15.53-.06-1.48-1.3-1.73-1.33-1.36,.08,4.61-.11,9.07-.32,13.53-.1,2.23-.2,4.46-.29,6.71-.07,2.24-.17,4.51-.07,6.84,.07,1.81,.21,3.6,.52,5.36,.3,1.76,.79,3.47,1.4,5.11,1.22,3.27,2.84,6.28,4.39,9.25,.3,.31,.59,.6,.86,.89,2.6,2.58,4.41,6.77,7.41,9.94,.37,.43,1.44,.82,2.08,1.47,2.02,1.93,4.38,3.38,6.87,4.36-.29-.63-.43-1.26-.72-1.81-1.43-.61-2.82-1.41-3.88-2.52Z"/>
            <path class="cls-6" d="M36.08,131.02c1.06,1.11,2.45,1.92,3.88,2.52-.14-.27-.31-.52-.54-.78-1.38-1.28-2.84-2.55-4.3-3.95-1.46-1.39-2.9-2.9-4.15-4.49,.23,.81,.59,1.66,1.07,2.46,.89,1.54,2.56,2.76,4.03,4.24Z"/>
            <path class="cls-4" d="M36.08,131.02c1.02,1.06,2.33,1.84,3.68,2.44-.4-.3-.79-.63-1.2-.91-2.07-1.53-4.05-3.31-5.49-5.5,1.8,2.13,3.8,4.08,6.13,5.48-1.35-1.23-2.78-2.47-4.2-3.83-1.42-1.36-2.81-2.82-4.02-4.37,.23,.81,.59,1.66,1.07,2.45,.89,1.54,2.56,2.76,4.03,4.24Z"/>
            <path class="cls-3" d="M32.92,128.12c2,2.48,4.39,4.79,7.37,6.08-.06-.17-.13-.33-.2-.49-.11-.08-.21-.16-.31-.24-1.36-.6-2.66-1.39-3.68-2.44-1.47-1.47-3.14-2.7-4.03-4.24-.48-.79-.85-1.64-1.07-2.45-.17-.22-.33-.44-.49-.65-2.24-2.89-4.37-6.02-6.31-9.12-1.99-2.5-3.51-5.68-4.03-8.85,.35,1.46,.92,2.88,1.6,4.26-.68-1.56-1.19-3.16-1.47-4.78-.28-1.39-.51-2.77-.72-4.19-.31-.28-.58-.73-.67-1.55-.14-1.27-.07-2.53-.3-3.85,.01-.18,.25-.14,.27-.5-.07,1.01,.06,1.84,.3,2.56-.09-.89-.16-1.79-.21-2.73,0-1.73,.26-3.19,.53-4.77v-.52c0-.86-.1-1.73-.22-2.61-.02,.35-.05,.71-.07,1.08-.12-.57-.07-1.3-.03-1.84,.04,.26,.07,.51,.11,.76,.06-.84,.11-1.65,.17-2.55-.07,1.09,0,2.21,.1,3.14,.06-2.01,.03-3.85,.32-5.82l.04,.15c-.19-2.81-.6-5.62-.71-8.67-.06-1.48-1.3-1.73-1.33-1.36,.11,6.44-.3,12.59-.56,18.84,.2-.71,.39-1.41,.58-2.11,.05-.31,.12-.61,.23-.88-.08,.29-.15,.59-.23,.88-.14,.84-.16,1.78-.33,2.68-.09,.17-.13,.71,.09,.94-.24,1.24-.11,2.73-.35,3.98,0,.07-.08,.2-.16,.34,0,.8,0,1.6,.04,2.41,.09,2.26,.29,4.5,.79,6.68,.49,2.17,1.26,4.23,2.13,6.2-.33-.99-.57-1.98-.7-2.91-.06-.64-.38-1.54-.71-2.58-.33-1.04-.66-2.22-.84-3.33-.13-.56,.09-.91,.06-1.46,.76,1.87,.73,4.35,1.58,6.42,.52,1.36,1.11,3.02,1.89,4.64,.77,1.62,1.7,3.2,2.75,4.41,.87,1,1.32,2.17,1.67,3.2-.33-.24-.72-.86-.91-1.18-1.7-2.79-3.41-5.61-4.83-8.62,1.12,3.3,3.08,6.05,4.59,9.12-1.12-1.68-1.86-3.52-3.11-4.99,.03,.17,.07,.33,.11,.5,.61,1.17,1.22,2.35,1.84,3.55,.29,.3,.58,.6,.85,.88,2.6,2.58,4.41,6.77,7.41,9.94,.24,.27,.75,.53,1.26,.85-.94-1.02-1.77-2.11-2.63-3.2,.29,.48,.53,.96,.73,1.45-.89-.97-1.26-2.02-2.07-3.03,.48,.51,.91,1.05,1.34,1.58-.48-.76-.91-1.45-1.37-2.18,1.2,1.19,1.63,2.83,3.09,3.85-.24-.27-.46-.55-.67-.84l.69,.85h-.02c.74,.8,1.61,1.5,2.43,2.07-1.38-1.3-2.26-2.79-3.42-4.2l-.6-.69c.21,.24,.4,.47,.6,.69,2.73,3.17,5.5,6.44,9.27,8.5l.38,.15c-.06-.14-.12-.29-.18-.43-3.08-1.63-5.64-4.14-7.64-6.83Z"/>
          </g>
        </g>
        <g class="cls-12">
          <g class="cls-12">
            <path class="cls-5" d="M376.13,180.75c-3.5,1.79-7.58,2.81-10.33,4.86-.3,.22-.62,.44-.94,.68l.55-.18c4.17-1.34,8.56-3.19,12.5-5.28,2.39-1.4,4.67-3.12,7.43-4.41,.31-.14,.21-.44,.16-.59-.36-.04-.69-.12-1-.21-2.13,1.27-4.23,2.6-6.52,3.72-.77,.34-1.39,1.21-1.85,1.41Z"/>
            <polygon class="cls-7" points="384.62 175.6 384.56 175.59 384.23 175.78 384.62 175.6"/>
            <path class="cls-4" d="M379.37,178.72c-.71,.44-1.43,.82-2.17,1.15-.42,.36-.77,.76-1.07,.89-3.5,1.79-7.58,2.81-10.33,4.86-.3,.21-.61,.44-.93,.67l.59-.19c1.44-.47,2.91-.99,4.38-1.57l.21-.15c.72-.55,1.56-.66,2.35-.99,2.12-1.15,4.03-1.82,6.14-3,.75-.42,1.41-1.14,2.33-1.56,.31-.16,.61-.3,.92-.42,1.14-.71,2.32-1.41,3.61-2,.31-.14,.21-.44,.16-.59-.19-.02-.37-.06-.54-.1-1.06,.46-2.08,.99-3.14,1.48-.88,.52-1.77,1.04-2.68,1.52,.05,0,.11,0,.18,0Z"/>
            <path class="cls-7" d="M379.08,178.33c-.13,.06-.19,.34,.12,.38,.92-.48,1.8-1,2.68-1.52-.89,.42-1.81,.82-2.8,1.14Z"/>
            <path class="cls-8" d="M378.74,177.27c-1.87,.75-3.43,1.95-5.05,2.39-.84,.25-1.71,.4-2.52,.43-.25,.12-.5,.24-.74,.36-6.07,3.07-12.26,5.86-18.62,8.01-3.16,1.16-5.87,2.78-8.96,4.33-1.88,.8-3.54,1.01-5.48,1.39-2.43,.44-4.55,1.15-6.74,1.79-2.18,.65-4.47,1.19-7.02,1.13-1.35-.08-1.77,1.12-1.43,1.18,4.49,.5,8.8-.04,12.9-1.07,4.11-1.03,8.03-2.51,11.95-4.2,6.1-2.62,11.93-4.84,17.84-6.74,.32-.23,.64-.46,.94-.68,2.75-2.04,6.82-3.07,10.33-4.86,.47-.2,1.08-1.07,1.85-1.41,2.29-1.12,4.39-2.45,6.52-3.72-.65-.19-1.22-.43-1.83-.5-1.27,.84-2.56,1.66-3.94,2.16Z"/>
            <path class="cls-6" d="M378.74,177.27c1.38-.51,2.67-1.33,3.94-2.16-.3-.04-.61-.04-.94,.03-3.61,1.01-7.12,3.26-10.57,4.96,.81-.03,1.67-.19,2.52-.43,1.62-.44,3.18-1.64,5.05-2.39Z"/>
            <path class="cls-4" d="M378.74,177.27c1.32-.48,2.55-1.25,3.77-2.05-.47,.16-.93,.33-1.38,.54-2.3,1.05-4.56,2.22-6.95,3,2.44-1.13,4.87-2.28,7.25-3.55-3.49,1.06-6.9,3.23-10.24,4.88,.8-.03,1.67-.19,2.51-.43,1.62-.44,3.18-1.64,5.05-2.39Z"/>
            <path class="cls-3" d="M375.13,179.21c2.81-1.14,5.59-2.39,8.25-3.99-.17-.05-.34-.09-.51-.12-.13,.04-.25,.08-.37,.12-1.22,.79-2.44,1.56-3.77,2.05-1.87,.75-3.43,1.95-5.05,2.39-.84,.25-1.7,.4-2.51,.43-.23,.11-.47,.22-.7,.33-3.1,1.57-6.23,3.06-9.4,4.44-2.6,1.55-5.67,2.71-8.69,3.64,1.38-.54,2.75-1.13,4.1-1.75-1.54,.59-3.08,1.16-4.63,1.69-1.34,.49-2.6,1.06-3.84,1.68-.16,.37-.48,.77-1.18,1.12-1.08,.55-2.19,.93-3.24,1.62-.16,.05-.21-.18-.53-.07,.89-.3,1.56-.73,2.1-1.2-.75,.39-1.51,.78-2.27,1.18-1.48,.63-2.82,.89-4.27,1.16l-.44,.17c-.73,.27-1.45,.64-2.18,1,.31-.08,.63-.16,.96-.25-.46,.28-1.11,.45-1.59,.57,.21-.11,.43-.21,.63-.32-.75,.19-1.47,.36-2.27,.52,.97-.19,1.93-.59,2.7-.95-1.75,.54-3.36,1.05-5.15,1.14l.13-.06c-2.41,.73-4.92,1.44-7.75,1.36-1.35-.08-1.78,1.12-1.43,1.18,6.29,.69,12.15-.66,17.7-2.52-.69,.05-1.38,.1-2.06,.15-.29,.05-.57,.08-.85,.06,.28-.02,.57-.04,.85-.06,.79-.13,1.61-.43,2.46-.58,.18,.03,.67-.13,.78-.41,1.16-.21,2.4-.88,3.55-1.11,.07-.02,.2,0,.36,.03,.68-.28,1.36-.57,2.04-.86,3.81-1.64,7.52-3.12,11.21-4.46-.93,.23-1.83,.42-2.69,.54-1.18,.11-3.31,1.32-5.18,2.16-.46,.25-.83,.13-1.31,.3,1.43-1.26,3.74-1.68,5.6-2.55,2.49-1.09,6.24-2.03,8.77-3.64,1.04-.66,2.19-.88,3.2-1.04-.27,.28-.9,.53-1.21,.66-2.82,1.14-5.66,2.25-8.46,3.49,3.06-.91,5.84-2.26,8.9-3.16-1.71,.78-3.52,1.16-4.99,2.16,.16,0,.32-.01,.48-.03,1.15-.38,2.31-.77,3.5-1.17,.32-.23,.63-.45,.93-.67,2.75-2.04,6.82-3.07,10.33-4.86,.3-.13,.65-.53,1.07-.89-1.15,.52-2.33,.97-3.48,1.51,.49-.15,.98-.25,1.46-.29-1.07,.54-2.09,.65-3.16,1.18,.56-.33,1.12-.63,1.69-.89-.74,.22-1.49,.52-2.25,.79,1.31-.89,2.88-.89,4.13-1.94-.3,.15-.6,.28-.92,.39l.93-.4h-.02c.91-.44,1.77-1,2.53-1.54-1.57,.77-3.14,1.15-4.69,1.89l-.75,.4c.25-.14,.5-.27,.75-.4,3.5-1.79,7.21-3.17,10.79-4.78l.32-.19c-.14-.04-.29-.09-.43-.13-2.95,1.38-6,2.66-8.99,3.76Z"/>
          </g>
        </g>
        <g class="cls-12">
          <g class="cls-12">
            <path class="cls-5" d="M430.26,153.96c-2.29,1.77-5.23,2.8-6.88,4.76-.18,.2-.37,.42-.57,.65l.39-.18c2.94-1.34,5.94-3.16,8.5-5.22,1.51-1.38,2.84-3.04,4.65-4.37,.2-.15,.03-.41-.05-.54-.3-.02-.58-.07-.86-.14-1.31,1.26-2.59,2.57-4.1,3.68-.51,.35-.77,1.16-1.08,1.36Z"/>
            <polygon class="cls-7" points="435.52 148.91 435.46 148.89 435.26 149.08 435.52 148.91"/>
            <path class="cls-4" d="M432.27,151.98c-.44,.43-.91,.8-1.4,1.13-.23,.34-.41,.72-.61,.85-2.29,1.77-5.23,2.8-6.88,4.76-.18,.2-.37,.42-.56,.64l.42-.19c1.02-.46,2.04-.99,3.05-1.55l.13-.14c.42-.53,1.07-.65,1.6-.97,1.37-1.13,2.71-1.8,4.06-2.97,.48-.42,.81-1.1,1.42-1.52,.2-.16,.4-.3,.61-.42,.7-.7,1.43-1.39,2.28-2.01,.2-.15,.03-.41-.05-.54-.16-.01-.31-.03-.46-.06-.7,.47-1.35,1.01-2.05,1.5-.55,.51-1.1,1.03-1.69,1.5,.04,0,.09,0,.14,0Z"/>
            <path class="cls-7" d="M431.92,151.64c-.09,.06-.06,.32,.2,.35,.59-.47,1.14-.99,1.69-1.5-.59,.42-1.2,.83-1.89,1.16Z"/>
            <path class="cls-8" d="M431.37,150.69c-1.26,.75-2.16,1.9-3.31,2.35-.59,.25-1.24,.41-1.85,.46-.16,.12-.33,.23-.49,.35-3.95,2.98-8.12,5.66-12.53,7.84-2.17,1.16-3.88,2.77-5.87,4.35-1.25,.83-2.47,1.13-3.83,1.61-1.72,.57-3.07,1.4-4.5,2.17-1.42,.77-2.99,1.48-4.84,1.46-.97-.05-1.42,1.12-1.17,1.19,3.53,.53,6.73-.51,9.56-1.78,2.85-1.32,5.42-2.9,8.05-4.59,4.06-2.65,8.07-4.82,12.22-6.72,.2-.23,.39-.44,.57-.65,1.65-1.96,4.59-3,6.88-4.76,.31-.2,.57-1.02,1.08-1.36,1.51-1.11,2.79-2.42,4.1-3.68-.57-.14-1.09-.32-1.59-.36-.75,.82-1.53,1.61-2.48,2.13Z"/>
            <path class="cls-6" d="M431.37,150.69c.94-.52,1.73-1.31,2.48-2.13-.25-.02-.49,0-.73,.07-2.54,1.07-4.66,3.23-6.92,4.88,.62-.05,1.26-.21,1.85-.46,1.15-.45,2.05-1.6,3.31-2.35Z"/>
            <path class="cls-4" d="M431.37,150.69c.9-.49,1.65-1.24,2.38-2.02-.32,.17-.63,.34-.93,.55-1.5,1.05-2.96,2.2-4.62,2.98,1.61-1.1,3.19-2.24,4.7-3.49-2.43,1.11-4.5,3.2-6.69,4.79,.62-.05,1.26-.21,1.85-.46,1.15-.45,2.05-1.6,3.31-2.35Z"/>
            <path class="cls-3" d="M429.06,152.58c1.9-1.13,3.75-2.38,5.37-3.96-.15-.03-.29-.06-.43-.08-.09,.04-.17,.08-.26,.12-.72,.78-1.47,1.53-2.38,2.02-1.26,.75-2.16,1.9-3.31,2.35-.59,.25-1.23,.41-1.85,.46l-.46,.33c-2.01,1.52-4.09,2.96-6.23,4.3-1.65,1.49-3.75,2.64-5.88,3.58,.94-.54,1.86-1.11,2.76-1.73-1.05,.59-2.11,1.15-3.19,1.69-.92,.49-1.75,1.06-2.56,1.68-.03,.36-.19,.74-.64,1.09-.7,.55-1.47,.95-2.1,1.64-.11,.06-.21-.16-.42-.04,.61-.32,1.02-.74,1.32-1.2-.49,.39-.98,.79-1.46,1.19-.98,.65-1.95,.98-2.97,1.32l-.29,.19c-.48,.31-.93,.69-1.38,1.09,.21-.1,.43-.2,.65-.3-.27,.3-.71,.51-1.05,.65,.13-.12,.26-.23,.39-.34-.51,.23-1,.44-1.55,.66,.67-.26,1.28-.69,1.76-1.1-1.17,.63-2.23,1.23-3.49,1.44l.08-.07c-1.56,.85-3.25,1.76-5.32,1.74-.96-.04-1.43,1.12-1.16,1.19,2.45,.38,4.79-.05,6.89-.75,2.12-.71,4.06-1.69,5.94-2.74-.52,.09-1.03,.18-1.52,.27-.21,.07-.42,.11-.63,.12,.21-.04,.42-.08,.63-.12,.56-.18,1.11-.51,1.72-.7,.14,.01,.47-.16,.49-.43,.83-.26,1.61-.93,2.44-1.19,.04-.02,.15,0,.28,.02,.45-.29,.9-.58,1.36-.88,2.54-1.66,5.06-3.13,7.6-4.46-.67,.23-1.33,.43-1.96,.56-.89,.13-2.25,1.31-3.5,2.14-.3,.25-.61,.15-.94,.32,.8-1.22,2.49-1.68,3.73-2.53,1.67-1.08,4.36-2.03,5.94-3.57,.64-.65,1.5-.86,2.24-1.03-.14,.27-.57,.52-.78,.64-1.92,1.12-3.87,2.2-5.75,3.42,2.16-.92,4-2.21,6.18-3.12-1.14,.76-2.47,1.15-3.38,2.11,.12,0,.24-.02,.36-.04,.81-.4,1.63-.78,2.45-1.16,.2-.22,.39-.44,.56-.64,1.65-1.96,4.59-3,6.88-4.76,.2-.13,.37-.51,.61-.85-.78,.51-1.58,.97-2.35,1.5,.35-.15,.71-.26,1.08-.31-.69,.54-1.48,.65-2.18,1.18,.35-.33,.72-.61,1.1-.87-.53,.22-1.04,.52-1.57,.79,.79-.86,2.04-.9,2.74-1.91-.2,.14-.4,.28-.61,.39l.62-.4h0c.6-.43,1.12-.97,1.57-1.49-1.03,.77-2.16,1.16-3.18,1.89l-.49,.38c.16-.14,.32-.26,.49-.38,2.28-1.75,4.82-3.14,7.18-4.79l.2-.19-.38-.1c-1.92,1.4-3.97,2.68-6.02,3.78Z"/>
          </g>
        </g>
      </g>
    </g>
  </g>
</svg>