<?xml version="1.0" encoding="UTF-8"?>
<svg id="_Слой_2" data-name="Слой 2" xmlns="http://www.w3.org/2000/svg" xmlns:xlink="http://www.w3.org/1999/xlink" viewBox="0 0 451.17 224.17">
  <defs>
    <style>
      .cls-1 {
        fill: none;
      }

      .cls-2 {
        clip-path: url(#clippath);
      }

      .cls-3 {
        fill: #f3f9fb;
      }

      .cls-4 {
        fill: #f7fbfc;
      }

      .cls-5 {
        fill: #f8fcfd;
      }

      .cls-6 {
        fill: #f4fafb;
      }

      .cls-7 {
        fill: #f5fafb;
      }

      .cls-8 {
        fill: #fbfdfe;
      }

      .cls-9 {
        fill: #349039;
      }

      .cls-10 {
        fill: #6e7c6e;
      }

      .cls-11 {
        opacity: .49;
      }

      .cls-12 {
        opacity: .8;
      }
    </style>
    <clipPath id="clippath">
      <rect class="cls-1" width="451.17" height="224.17"/>
    </clipPath>
  </defs>
  <g id="_верхний_лотос" data-name="верхний лотос">
    <g class="cls-2">
      <g>
        <g class="cls-11">
          <path class="cls-10" d="M132.92,212.83c-27.07,.11-59.59-7.66-82.92-25.37-3.89-3.93-5.83-7.87-9.72-9.84-3.89-5.9-5.83-9.84-9.72-13.77-5.83-13.77-7.78-31.47,1.94-43.28,36.94-41.31,89.42-59.01,141.91-66.88,79.7-11.8,163.3,13.77,219.64,70.88l-.67,1.42c-53.23,4.04-111.4,7.8-167.87,10.67l12.02,1.17c38.31-.68,69.83,2.85,108.05,5.65,21.43,1.57,43.45,3.87,62.49,13.96h0c-4.53,17.48-21.4,29.38-39.5,37.51-39.08,17.58-79.13,26.93-121.99,23.65-42.04-3.22-77.17-1.92-118.96-7.66"/>
          <path class="cls-10" d="M102.53,211.71c-8.92-1.76-16.05-3.92-23.07-6.33-1.1-.34-2.48-.38-3.84-.92-2.72-1.05-5.44-2.22-8.13-3.4-1.32-.64-2.63-1.3-3.91-1.99-1.28-.67-2.46-1.51-3.62-2.31l-1.89-1.32-1.85-1.37c-1.23-.92-2.52-1.72-3.72-2.66-.61-.44-1.23-.89-1.84-1.33-.63-.47-1.18-.78-1.96-1.4l-.89-.88-.8-.82c-.52-.54-1.03-1.08-1.54-1.62-1.1-1.16-2.1-2.32-3.11-3.31-.5-.5-1-.94-1.51-1.34-.26-.18-.51-.38-.78-.53-.41-.27-.93-.53-1.39-.78-.24-.31-.44-.66-.67-.98l-.6-.92-.95-1.46-1.88-2.88c-1-1.5-2.01-2.87-2.66-4.71-.24-.68-.75-1.51-1.47-2.27-.2-.21-.33-.34-.61-.59-.27-.24-.54-.47-.83-.7-.18-.3-.36-.6-.55-.89-.1-.14-.2-.29-.3-.43-.09-.1-.18-.21-.27-.31-.28-.31-.47-1.15-.59-1.76-.15-.66-.1-1.5-.36-1.93-1.39-2.42-2.25-5.13-2.71-7.93-.29-1.39-.39-2.81-.57-4.22-.09-1.42-.27-2.82-.35-4.24-.15-1.42,.26-2.94-.48-4.2-.22-.32-.09-1.74,.13-2.14,.31-.53,.48-1.06,.66-1.63,.19-.57,.32-1.18,.43-1.85,.6-2.9,1.42-5.8,2.82-8.48,.29-.69,.7-1.33,1.08-1.98,.4-.64,.73-1.31,1.22-1.92l1.37-1.85c.48-.56,.97-1.04,1.45-1.56,1.15-2.68,3.65-4.68,5.72-6.79,1.63-1.51,3.49-2.76,5.24-4.13,.88-.69,1.65-1.56,2.48-2.36,.86-.75,1.78-1.43,2.88-1.76,.35-.11,.84-.86,1.31-1.27,1.04-.94,2.1-1.89,3.14-2.84,1.05-.94,2.2-1.71,3.35-2.37,1.19-.66,2.37-1.32,3.45-2.12,.88-.63,1.74-1.3,2.64-1.9l2.72-1.78,5.45-3.55,5.62-3.27,2.81-1.64,2.88-1.5,5.77-3c1.95-.94,3.93-1.83,5.89-2.74,3.9-1.9,7.95-3.41,11.94-5.1,1.39-.59,2.8-.92,4.09-2.03,1.01-.85,3.58-1.81,4.87-1.79,2.06,.02,3.71-.76,5.48-1.3,1.64-.49,3.27-1.02,4.89-1.55,1.63-.51,3.29-.96,4.94-1.39,1.96-.49,4-1.63,5.98-1.09,.19,.05,.81-.1,1-.25,1.94-1.49,4.26-1.22,6.48-1.64,1.6-.32,3.2-.66,4.84-1.51,1.6-.83,4.42-1.52,6.09-1.36,2.24,.24,4.13-.32,6.11-.69l4.37-.8,4.39-.7c2.92-.47,5.84-.96,8.79-1.31l4.41-.58,4.42-.47c2.95-.35,5.91-.53,8.86-.78,2.8-.23,5.57-.53,8.36-.86,2.79-.27,5.6-.43,8.44-.3,1.35,.1,2.83-.27,4.04,.46,.25,.15,1.33,.07,1.76-.1,1.56-.64,3.1-.31,4.84-.22,3.96,.18,7.93,.61,11.89,.92,3.95,.42,7.89,.7,11.78,.93,6.08,.26,11.92,1.48,17.83,2.44,1.97,.35,3.85,1.25,5.81,1.76,1.91,.48,3.85,.94,5.79,1.35,1.15,.25,2.25,.72,3.52,.45,.68-.13,2.34,.23,2.94,.65,2.01,1.41,4.48,1.73,6.77,2.47,6.56,1.95,13.04,4.2,19.43,6.66,1.56,.63,3.46,.94,4.53,2.32,.15,.19,1.15,.28,1.75,.44,.64,.18,1.48,.27,1.88,.57,3.63,2.76,8.1,4.12,12.17,6.14,9.79,4.93,19.41,10.27,28.45,16.48,1.26,.88,2.57,1.5,3.84,2.18,1.26,.68,2.52,1.36,3.72,2.24,2.35,1.67,4.66,3.41,6.92,5.19,1.61,1.25,3.5,2.35,4.43,4.22,.25,.52,1.4,1.43,2.02,1.64,2.29,.8,3.89,2.79,5.79,4.25,.59,.44,1.11,.96,1.65,1.46l.8,.77,.93,.88c.7,.65,1.43,1.28,2.2,1.9,.73,.61,1.74,1.26,2.37,1.81,.78,.64,1.2,2.01,1.94,2.98,.63,.87,1.28,1.73,1.94,2.59l.12,.16c.02,.06,.13,.1,.06,.17l-.19,.4-.38,.8c-.07,.13-.11,.28-.2,.39l-.43,.08-.85,.15c-1.07,.19-1.9,.57-3.01,.8l-6.42,1.39c-.14,.03-.26,.06-.41,.09l-.5,.05-1.01,.1-1.54,.16-2.82,.29c-3.76,.39-7.51,.75-11.28,1.07-7.67,.65-15.35,1.11-23.03,1.64-7.68,.53-15.36,1.11-23.04,1.51-2.89,.15-5.96,1.04-8.7,0-2.61,.9-4.97,.6-7.33-.07-.34-.1-1.16,.3-1.77,.44-1.93,.44-3.7,1.77-5.93,.58-.08-.04-.35,.03-.52,.02-1.8-.08-2.96,1.34-5.28,.67-1.44-.41-3.72-.06-5.63,0-1.96,.07-3.95,.14-5.89,.37-2,.24-4.24-.26-6.07,.85-.3,.18-1.82-.43-2.69-.33-4.48,.51-9.15-.15-13.51,1.29-1,.33-2.6,.39-3.69,.21-3.93-.64-7.54,0-11.51,.54-5.22,.7-10.83,1.15-16.03,.17-.27-.05-.51-.1-.72-.14l.1-4.11c.64,.21,1.11,.3,1.98,.04,.75-.22,2.01-.03,3.03,.07l4.27,.41,2.14,.21c.44,.04,.49,.05,.79,.05h1.08c2.88-.04,5.75-.09,8.63-.07,5.75-.02,11.5,.11,17.25,.27,3.13,.11,6,1.15,9.22,.95,1.33-.09,2.85,.47,3.99-.28,.16-.11,.71-.14,.96-.07,3.79,1.14,7.68,.03,11.48,.66,.81,.13,1.58,.36,2.39,.52,.82,.16,1.77,.46,2.48,.37,5.94-.75,11.91,.58,17.84,.76,2.02,.06,4.19,.76,6.06-.08,.28-.13,1.17-.04,1.55,.12,3.36,1.46,7.21,.85,10.76,1.45,1.82,.3,3.93-.18,5.5,.92,.2,.14,.95,.1,1.41,.06,.8-.06,1.6-.32,2.36-.25,2.12,.21,4.39,.92,6.29,.74,2.35-.23,4.53,.12,6.76,.28,1.28,.1,2.51,.66,3.81,.88,1.22,.22,2.5,.28,3.75,.41,1.79,.21,3.67,.25,5.34,.69,1.72,.46,3.27-.37,5.11,.63,1.4,.74,3.25,.11,4.94,.31,.84,.09,1.7,.37,2.5,.65,.62,.21,1.16,.65,1.74,.75,1.34,.2,2.57,.72,4.09,.62,1.05-.08,2.64,.95,4.02,1.39,1.37,.44,2.78,.85,4.17,1.27,1.39,.45,2.8,1.17,4.13,1.38,1.44,.28,2.87,.68,4.27,1.15,.69,.26,1.38,.53,2.06,.82l1.3,.56c.46,.22,.92,.43,1.37,.67l2.68,1.39c.76,.52,2.29,.71,1.45,1.9-.64,1.94-1.15,3.83-1.92,5.73-.09,.25-.19,.5-.28,.76-.07,.2-.14,.4-.21,.6-.12,.4-.3,.78-.5,1.14-.39,.72-.87,1.38-1.56,1.77-.23,.15-.69,.89-.86,1.33-.25,.68-.53,1.36-.84,2.03-.32,.66-.72,1.27-1.11,1.89-.77,1.26-1.74,2.37-2.7,3.48-.96,1.11-2.06,2.09-3.08,3.14-1.09,.96-2.12,1.99-3.17,2.98-2.94,2.88-5.99,5.59-9.58,7.73-3.49,2.07-7.24,3.87-10.53,5.93-1.34,.88-2.73,1.66-4.11,2.42-1.39,.72-2.8,1.35-4.25,1.87-2.83,1.03-4.87,3.72-8.17,3.48-2.83,1.19-5.72,2.28-8.61,3.31-2.43,.88-4.83,2.05-7.48,2.09-.96,.02-2.64,.6-3.51,1.16-2.8,1.84-5.87,2.56-9.15,2.99-.77,.11-1.6,.79-2.45,1.05-2.6,.81-5.26,1.48-7.9,2.05-7.93,1.5-15.53,4.03-23.54,5.16-1.47,.23-3.02,1.07-4.35,1.06-4.05-.02-8.08,.28-12.11,.69-4.04,.26-8.07,.65-12.05,.32l-8.77-.5c-2.92-.1-5.83-.3-8.75-.46-2.94-.14-5.76-.33-8.62-.51-2.85-.19-5.71-.33-8.55-.57-1.48-.12-3.01-.92-3.72-.75-2.22,.54-4.69-.15-6.54,.26-3.33,.73-6.56-.01-9.81,.09-2.36,.06-4.89-.62-7.11,.29-.32,.13-1.14,.08-1.56-.06-3.45-1.07-6.95,.19-10.39-.38-6.61,.89-13.35-.19-20.03-.29-.98-.01-1.95,.17-2.93,.25-.5,.04-1.09,.16-1.5,.05-5.98-1.54-12.31-1.08-18.43-1.92-2.02-.3-3.97-.82-5.98-1.14-2.03-.3-4.17-.27-6-1.22-.57-.3-1.76-.31-2.64-.32-4.76-.09-8.04-2.13-7.76-4.65,.1-.91,1.07-.85,2.11-1.06,2.02-.41,3.97-.58,6.31-.22,1.81,.25,3.79,.77,5.5,.07,.29-.12,1.12,0,1.54,.17,3.05,1.08,6.63,.82,9.55,1.59,2.25,.59,4.37,.68,6.53,.99,1.82,.27,3.75-.06,5.54,.86,.6,.32,2.45-.28,3.74-.23,3.03,.11,6.08,.22,9.1,.48,9.17,.81,18.28-.17,27.46,.51,6.6-.89,13.38,.43,19.97,.19,7.95-.32,15.9,.63,23.76,.85,1.6,.03,2.88,.13,4.28,.51,.91,.24,1.89,.51,2.85,.53,1.86,.06,3.72,.09,5.58,.13,1.86,.05,3.72-.03,5.57,.01,.99,.01,2.05-.13,3.07-.15,1.03-.03,2.02,.03,2.93,.52,.25,.14,1.15,.08,1.54-.07,3.21-1.17,6.77-.86,10.15-1.27,1.29-.14,2.53-.28,3.98-.06,1.57,.22,3.97-.07,5.5-.69,1.16-.47,2.21-.64,3.34-.9,1.17-.27,2.37-.45,3.57-.61l3.61-.55c1.2-.19,2.39-.41,3.56-.72,1.16-.32,2.28-.76,3.36-1.33,1.32,.29,2.72,.18,4.07-.11,1.35-.3,2.66-.82,3.84-1.25,9.03-3.35,18.42-5.49,27.38-8.99,2.15-.87,4.52-1.22,6.74-1.99,2.33-.84,4.63-1.82,6.91-2.81,1.2-.55,2.77-.83,3.39-2,.05-.09,.24-.22,.38-.26,1.34-.45,2.81-.72,4.02-1.35,1.09-.58,1.9-1.54,2.94-2.23,1.25-.82,2.63-1.51,3.95-2.26,1.3-.69,2.55-1.63,3.94-1.6,.54-1.34,2.18-1.86,3.37-2.69,1.11-.79,2.27-1.55,3.4-2.33,1.21-.94,2.49-1.82,3.64-2.82,.58-.49,1.2-.96,1.78-1.46,.56-.51,1.12-1.03,1.64-1.58,1.4-1.52,2.55-3.21,3.75-4.82,1.29-1.69,2.51-3.43,3.67-5.18,.39-.53,.72-1.1,1.05-1.66l1.02-1.68,.22-.44c.07-.14,.16-.33,.18-.34l.22-.32c.17-.25,.32-.53,.44-.83,.11-.25,.14-.47,.09-.64-.02-.09-.03-.18-.25-.17-.17-.01-.35-.01-.52-.01-.47,0-.98,.14-1.25,.16-.14,0-.23-.01-.31-.14-.03-.04,0-.05-.09-.12-.09-.08-.19-.16-.28-.25-.18-.18-.35-.39-.51-.63-.24-.39-1.52-.86-2.28-.97-1.5-.25-2.94-.64-4.4-1.03-1.44-.43-2.88-.88-4.32-1.35-2.88-.95-5.81-1.85-8.81-2.35-3.09-1.61-6.43-1.68-9.93-1.93-5.15-.4-10.6-.86-15.64-1.88-5.34-1.08-10.7-1.11-16.08-1.75-1.51-.18-3.18,.04-4.4-.9-.28-.22-1.43-.25-2.07-.17-4.44,.55-8.67-.05-13.08-.98-2.33-.49-5-.34-7.63-.22-3.93,.18-8.15-.51-12.24-.8-1.69-1.18-3.15-.21-4.08,.18-1.25,.52-2.39,.55-3.83,.47-1.85-.1-3.66-.4-5.53,.16-.96,.28-3.03,.09-4.02-.33-1.32-.56-1.84-.37-3.09-.11-1.47,.3-2.93-.73-4.77-.77-1.96-.05-4.26,.4-5.95-.76-.15-.1-.75-.11-1.03-.04-3.66,.99-7.22-.72-10.84-.29-5.08-.67-10.21-.78-15.34-.67l-1.92,.04-.96,.02h-.71c-.14,.01-.27,0-.41-.02l-.32-.03-3.86-.33c-2.57-.23-5.15-.47-7.7-.79l.19-8.15c.62-.01,1.24-.02,1.86-.04,4.5-.05,9.09,.53,13.5-.21,9.25-1.53,18.64-1.32,27.94-2.05,1.97-.16,4.21-.78,6.05,.18,.25,.13,1.16,.07,1.55-.09,2.9-1.15,5.78-1.02,8.79-.54,.73,.12,2.07,.02,2.5-.27,1.19-.8,2.64-.6,3.97-.66,1.6-.08,3.75,.43,4.68,0,1.99-.91,3.19-.1,4.74-.05,.96,.03,2.01-.24,2.99-.42,.47-.09,1.04-.45,1.32-.38,3.19,.71,6.19-.79,9.31-.62,.67,.04,1.38-.03,2.03,.03q7.4,.72,16.61-.5c2.62,1.13,5.46-.98,8.28-.18,1.03,.29,2.96,.08,4.19-.27,5.42-1.51,11.15-1.02,16.67-1.74,1.15-.15,2.1,.65,3.52-.16,.54-.3,2.49,.32,3.75,.2,1.83-.17,3.79,.16,5.56-.82,.72-.4,2.38-.24,3.59-.41,.83-.11,1.67-.12,2.51-.2l.31-.03c.11-.01,.22-.03,.23-.04,.09-.02,.17-.05,.25-.09,.15-.08,.29-.2,.36-.38,.17-.4,.61-.44,1.33-.16,.74,.29,1.47,.42,2.03,.45,.54-.02,1.08,.12,.94-.51l-.02-.17s0-.06-.02-.08l-.1-.07-.42-.27c-.28-.17-.57-.34-.84-.49-.55-.3-1.04-.54-1.41-.73-.46-.24-.71-.3-.73-.6-.02-.22-.08-.51-.3-.82-.66-.72-1.35-1.34-1.98-1.65-2.28-1.05-3.83-2.75-5.62-4.25-3.16-2.5-6.19-5.19-9.49-7.51-.93-.67-1.85-1.37-2.76-2.07l-2.8-2.01c-.94-.66-1.89-1.31-2.87-1.93-.98-.61-2.02-1.15-3.08-1.65-1.14-.54-2.44-1.19-3.66-2.01-1.24-.79-2.41-1.75-3.26-2.95-.19-.27-1.46-.3-2.08-.69-2.48-1.47-5-2.9-7.51-4.33-2.55-1.35-5.05-2.82-7.62-4.14-1.18-.62-1.98-2.29-3.48-2.03-1.58,.27-2.04-2.03-3.53-1.45-.22,.09-1.31-.44-1.82-.81-2.79-2.04-5.97-3.4-9.15-4.74-3.24-1.22-6.48-2.42-9.67-3.71-1.53-.63-3.43-.86-4.36-2.2-2.16-.15-4.16-1.12-6.19-2.01-2.04-.84-4.12-1.59-6.31-1.35-2.81-1.12-6.15-1.06-8.65-2.92-.41-.29-1.48-.26-1.96-.55-1.64-.98-3.16,.45-5.12-.93-1.14-.78-3.55-.97-5.4-1.39-1.71-.41-3.46-.66-5.19-.99-1.91-.36-3.81-.7-5.73-.97-1.92-.28-3.83-.69-5.75-.84-1.95-.16-3.9-.18-5.84-.25-1.95-.05-3.9-.11-5.87-.45-.42-.07-1.17,0-1.34,.15-1.46,1.37-3.36,.43-4.67-.11-1.1-.44-2.05-.68-3.28-.76-3.34-.11-6.68-.23-10.01-.34-1.98-.06-4.08,.35-5.97-.55-.59-.28-2.18-.19-3.07,.04-1.04,.27-2.09,.43-3.15,.54-1.06,.14-2.12,.21-3.19,.26-2.14,.1-4.29,.06-6.41,.32-1.92,.22-3.85,.3-5.78,.45-1.46,.13-2.85,.93-4.37,.46-1.75,.47-3.5,.87-5.27,1.22-1.77,.35-3.55,.56-5.36,.85-3.6,.58-7.25,.92-10.81,1.68-3.53,.76-7.1,1.36-10.63,2.16-3.53,.76-7.08,1.46-10.58,2.34-1.76,.42-3.59,1.37-5.41,.78-.35-.12-1.6,.26-1.92,.55-.87,.81-1.55,1.3-2.89,.92-.25-.07-1.16,.35-1.63,.63-1.3,.8-2.59,1.07-4.16,1.2-1.22,.09-2.8,.42-3.85,.98-1.4,.75-2.77,1.46-4.2,1.98-1.41,.56-2.88,.95-4.53,.99-.41,0-1.17,1.01-1.84,1.21-1.28,.41-2.54,.93-3.78,1.47-1.25,.53-2.52,.98-3.91,1.12-1.14,.11-2.54,.95-3.84,1.39-2.23,.77-4,2.26-6.37,2.99-1.2,.39-2.41,.9-3.58,1.5-1.16,.63-2.32,1.3-3.49,1.91-2.32,1.23-4.69,2.36-6.92,3.73-2.25,1.33-4.55,2.61-6.77,3.99l-6.57,4.3c-1.11,.69-2.14,1.51-3.2,2.27l-3.16,2.32c-1.04,.79-2.13,1.51-3.13,2.36l-3.02,2.49c-1.41,1.16-2.8,2.14-4.46,3.04-2.06,1.22-4.13,2.85-6.25,4.84-.52,.5-1.08,1-1.58,1.57-.5,.57-1,1.16-1.51,1.78-1.01,1.23-2.04,2.54-3.09,3.93-.3,.4-.71,.76-1.07,1.13-3.96,4.49-5.75,10.51-6.34,16.74-.3,2.73-.54,5.61-.07,8.5,.15,.94,.27,1.88,.52,2.79,.11,.46,.25,.91,.41,1.36,.19,.44,.41,.88,.68,1.3,.22,.35,.37,.76,.48,1.21,.13,.44,.24,.91,.36,1.39,.22,.96,.57,1.93,1.32,2.64,.28,.26,.53,.81,.79,1.4,.12,.3,.22,.61,.3,.9,.02,.14-.02,.2-.06,.29-.08,.15-.07,.27-.05,.41v.05s.09,.13,.09,.13l.19,.28,.39,.55c.53,.75,1.09,1.48,1.63,2.2,1.09,1.45,2.14,2.86,3.01,4.3l1.96,3.21,.98,1.55,.31,.48c.06,.08,.11,.17,.18,.25,.09,.05,.19,.09,.27,.15l.39,.24c.18,.11,.35,.24,.52,.36,.69,.49,1.29,1.02,1.86,1.55,1.65,1.56,2.59,3.33,4.35,4.24,.43,.22,.93,.78,1.38,1.39,.23,.31,.45,.62,.65,.94,.1,.16,.19,.31,.28,.45,.01,.06,0,.12,.02,.19-.01,.14,.47,.6,.82,.92,.37,.34,.76,.65,1.16,.94,.81,.57,1.61,1.12,2.48,1.52,3.68,1.79,3.63,1.74,6.85,4.2,.38,.3,.83,.56,1.27,.8,1.09,.61,2.22,1.17,3.33,1.77,1.11,.6,2.22,1.2,3.38,1.71,1.14,.53,2.29,1.05,3.44,1.53,1.17,.44,2.35,.83,3.53,1.17,3.93,1.12,7.71,2.33,11.58,3.47,1.54,.45,3.45,.46,4.51,1.79,.15,.19,1.04,.42,1.45,.38,1.78-.15,3.51,.11,5.24,.51,1.74,.34,3.47,.81,5.19,1.13,1.68,.26,3.33,.28,4.97,.34,1.65,.03,3.3,.04,5,.36,3.21,.53,6.53,.63,9.81,.76,4.97,.15,6.04,.71,6.04,3.46,0,2.25-1.3,2.74-5.5,3.13-8.93,.69-17.77-1.22-24.88-2.34Z"/>
        </g>
        <g>
          <path class="cls-9" d="M147.74,165.95c-27.07,.11-59.59-7.66-82.92-25.37-3.89-3.93-5.83-7.87-9.72-9.84-3.89-5.9-5.83-9.84-9.72-13.77-5.83-13.77-7.78-31.47,1.94-43.28C84.26,32.39,136.75,14.69,189.23,6.82c79.7-11.8,163.3,13.77,219.64,70.88l-.67,1.42c-53.23,4.04-111.4,7.8-167.87,10.67l12.02,1.17c38.31-.68,69.83,2.85,108.05,5.65,21.43,1.57,43.45,3.87,62.49,13.96h0c-4.53,17.48-21.4,29.38-39.5,37.51-39.08,17.58-79.13,26.93-121.99,23.65-42.04-3.22-77.17-1.92-118.96-7.66"/>
          <path class="cls-9" d="M117.36,164.83c-8.92-1.76-16.05-3.92-23.07-6.33-1.1-.34-2.48-.38-3.84-.92-2.72-1.05-5.44-2.22-8.13-3.4-1.32-.64-2.63-1.3-3.91-1.99-1.28-.67-2.46-1.51-3.62-2.31l-1.89-1.32-1.85-1.37c-1.23-.92-2.52-1.72-3.72-2.66-.61-.44-1.23-.89-1.84-1.33-.63-.47-1.18-.78-1.96-1.4l-.89-.88-.8-.82c-.52-.54-1.03-1.08-1.54-1.62-1.1-1.16-2.1-2.32-3.11-3.31-.5-.5-1-.94-1.51-1.34-.26-.18-.51-.38-.78-.53-.41-.27-.93-.53-1.39-.78-.24-.31-.44-.66-.67-.98l-.6-.92-.95-1.46-1.88-2.88c-1-1.5-2.01-2.87-2.66-4.71-.24-.68-.75-1.51-1.47-2.27-.2-.21-.33-.34-.61-.59-.27-.24-.54-.47-.83-.7-.18-.3-.36-.6-.55-.89-.1-.15-.2-.29-.3-.43-.09-.1-.18-.21-.27-.31-.28-.31-.47-1.15-.59-1.76-.15-.66-.1-1.5-.36-1.93-1.39-2.42-2.25-5.13-2.71-7.93-.29-1.39-.39-2.81-.57-4.22-.09-1.42-.27-2.82-.35-4.24-.15-1.42,.26-2.94-.48-4.2-.22-.32-.09-1.74,.13-2.14,.31-.53,.48-1.06,.66-1.63,.19-.57,.32-1.18,.43-1.85,.6-2.9,1.42-5.8,2.82-8.48,.29-.69,.7-1.33,1.08-1.98,.4-.64,.73-1.31,1.22-1.92l1.37-1.85c.48-.56,.97-1.04,1.45-1.56,1.15-2.68,3.65-4.68,5.72-6.79,1.63-1.51,3.49-2.76,5.24-4.12,.88-.69,1.65-1.56,2.48-2.36,.86-.75,1.78-1.43,2.88-1.76,.35-.11,.84-.86,1.31-1.27,1.04-.94,2.1-1.89,3.14-2.84,1.05-.94,2.2-1.71,3.35-2.37,1.19-.66,2.37-1.33,3.45-2.12,.88-.63,1.73-1.3,2.64-1.9l2.72-1.78,5.45-3.55,5.62-3.27,2.81-1.64,2.88-1.5,5.77-3c1.95-.94,3.93-1.83,5.89-2.74,3.9-1.9,7.95-3.41,11.94-5.1,1.39-.59,2.8-.92,4.09-2.03,1.01-.85,3.58-1.81,4.87-1.79,2.06,.02,3.71-.76,5.48-1.3,1.64-.49,3.27-1.02,4.89-1.55,1.63-.51,3.29-.96,4.94-1.39,1.96-.5,4-1.63,5.98-1.09,.19,.05,.81-.1,1-.25,1.94-1.49,4.26-1.22,6.48-1.64,1.6-.32,3.2-.66,4.84-1.51,1.6-.83,4.42-1.52,6.09-1.36,2.24,.24,4.13-.32,6.11-.69l4.37-.8,4.39-.7c2.92-.47,5.84-.96,8.79-1.31l4.41-.58,4.42-.47c2.95-.35,5.91-.53,8.86-.78,2.8-.23,5.57-.53,8.36-.86,2.79-.27,5.6-.43,8.44-.3,1.35,.1,2.83-.27,4.04,.46,.25,.15,1.33,.07,1.76-.1,1.56-.64,3.1-.31,4.84-.22,3.96,.18,7.93,.61,11.89,.92,3.95,.42,7.89,.7,11.78,.93,6.08,.26,11.92,1.48,17.83,2.44,1.97,.35,3.85,1.25,5.81,1.76,1.91,.48,3.85,.94,5.79,1.35,1.15,.25,2.25,.72,3.52,.45,.68-.13,2.34,.23,2.94,.65,2.01,1.41,4.48,1.73,6.77,2.47,6.56,1.95,13.04,4.2,19.43,6.66,1.56,.63,3.46,.94,4.53,2.31,.15,.19,1.15,.28,1.75,.44,.64,.18,1.48,.27,1.88,.57,3.63,2.76,8.1,4.12,12.17,6.14,9.79,4.93,19.41,10.27,28.45,16.48,1.26,.88,2.57,1.5,3.84,2.18,1.26,.68,2.52,1.36,3.72,2.25,2.35,1.67,4.66,3.41,6.92,5.19,1.61,1.25,3.5,2.35,4.43,4.22,.25,.52,1.4,1.43,2.02,1.64,2.29,.8,3.89,2.79,5.79,4.25,.59,.44,1.11,.96,1.65,1.46l.8,.77,.93,.88c.7,.65,1.43,1.28,2.2,1.9,.73,.61,1.74,1.26,2.37,1.81,.78,.64,1.2,2.01,1.94,2.98,.63,.87,1.28,1.73,1.94,2.59l.12,.16c.02,.06,.13,.1,.06,.17l-.19,.4-.38,.8c-.07,.13-.11,.28-.2,.39l-.43,.08-.85,.15c-1.07,.19-1.9,.57-3.01,.8l-6.42,1.39c-.14,.03-.26,.06-.41,.09l-.5,.05-1.01,.1-1.54,.16-2.82,.29c-3.76,.39-7.51,.75-11.28,1.07-7.67,.65-15.35,1.11-23.03,1.64-7.68,.53-15.36,1.11-23.04,1.51-2.89,.15-5.96,1.04-8.7,0-2.61,.9-4.97,.6-7.33-.07-.34-.1-1.16,.3-1.77,.44-1.93,.44-3.7,1.77-5.93,.58-.08-.04-.35,.03-.52,.02-1.8-.08-2.96,1.34-5.28,.67-1.44-.41-3.72-.06-5.63,0-1.96,.07-3.95,.14-5.89,.37-2,.24-4.24-.26-6.07,.85-.3,.18-1.82-.43-2.69-.33-4.48,.51-9.15-.15-13.51,1.29-1,.33-2.6,.39-3.69,.21-3.93-.64-7.54,0-11.51,.54-5.22,.71-10.83,1.15-16.03,.17-.27-.05-.51-.1-.72-.14l.1-4.11c.64,.21,1.11,.3,1.98,.04,.75-.22,2.01-.03,3.03,.07l4.27,.41,2.14,.21c.44,.04,.49,.05,.79,.05h1.08c2.88-.04,5.75-.09,8.63-.07,5.75-.02,11.5,.11,17.25,.27,3.13,.11,6,1.15,9.22,.95,1.33-.09,2.85,.47,3.99-.28,.16-.11,.71-.14,.96-.07,3.79,1.14,7.68,.03,11.48,.66,.81,.13,1.58,.36,2.39,.52,.82,.16,1.77,.46,2.48,.37,5.94-.75,11.91,.58,17.84,.76,2.02,.06,4.19,.76,6.06-.08,.28-.13,1.17-.04,1.55,.12,3.36,1.46,7.21,.85,10.76,1.45,1.82,.3,3.93-.18,5.5,.92,.2,.14,.95,.1,1.41,.07,.8-.06,1.6-.32,2.36-.25,2.12,.21,4.39,.92,6.29,.74,2.35-.23,4.53,.12,6.76,.28,1.28,.1,2.51,.66,3.81,.88,1.22,.22,2.5,.28,3.75,.41,1.79,.21,3.67,.25,5.34,.69,1.72,.46,3.27-.37,5.11,.63,1.4,.74,3.25,.11,4.94,.31,.84,.09,1.7,.37,2.5,.65,.62,.21,1.16,.65,1.74,.75,1.34,.2,2.57,.72,4.09,.62,1.05-.08,2.64,.95,4.02,1.39,1.37,.44,2.78,.85,4.17,1.27,1.39,.45,2.8,1.17,4.13,1.38,1.44,.28,2.87,.68,4.27,1.15,.69,.26,1.38,.53,2.06,.82l1.3,.56c.46,.22,.92,.43,1.37,.67l2.68,1.39c.76,.52,2.29,.71,1.45,1.9-.64,1.94-1.15,3.83-1.92,5.73-.09,.25-.19,.5-.28,.76-.07,.2-.14,.4-.21,.6-.12,.4-.3,.78-.5,1.14-.39,.72-.87,1.38-1.56,1.77-.23,.15-.69,.89-.86,1.33-.25,.68-.53,1.36-.84,2.03-.32,.66-.72,1.27-1.11,1.89-.77,1.26-1.74,2.37-2.7,3.48-.96,1.11-2.06,2.09-3.08,3.14-1.09,.96-2.12,1.99-3.17,2.98-2.94,2.88-5.99,5.59-9.58,7.73-3.49,2.07-7.24,3.87-10.53,5.93-1.34,.88-2.73,1.66-4.12,2.42-1.39,.72-2.8,1.35-4.25,1.87-2.83,1.03-4.87,3.72-8.17,3.48-2.83,1.19-5.72,2.28-8.61,3.31-2.43,.88-4.83,2.05-7.48,2.09-.96,.02-2.64,.6-3.51,1.16-2.8,1.84-5.87,2.56-9.15,2.99-.77,.11-1.6,.79-2.45,1.05-2.6,.81-5.26,1.48-7.9,2.05-7.93,1.5-15.53,4.03-23.54,5.16-1.47,.23-3.02,1.07-4.35,1.06-4.05-.02-8.08,.28-12.11,.69-4.04,.26-8.07,.65-12.05,.32l-8.77-.5c-2.92-.1-5.83-.3-8.75-.46-2.94-.14-5.76-.33-8.62-.51-2.85-.19-5.71-.33-8.55-.57-1.48-.12-3.01-.92-3.72-.75-2.22,.54-4.69-.15-6.55,.26-3.33,.73-6.56-.01-9.81,.09-2.36,.06-4.89-.62-7.11,.29-.32,.13-1.14,.08-1.56-.06-3.45-1.07-6.95,.19-10.39-.38-6.61,.89-13.35-.19-20.03-.29-.98-.01-1.95,.17-2.93,.25-.5,.04-1.09,.16-1.5,.05-5.98-1.54-12.31-1.08-18.43-1.92-2.02-.3-3.97-.82-5.98-1.14-2.03-.3-4.17-.27-6-1.22-.57-.3-1.76-.31-2.64-.32-4.76-.09-8.04-2.13-7.76-4.65,.1-.91,1.07-.85,2.11-1.06,2.02-.41,3.97-.58,6.31-.22,1.81,.25,3.79,.77,5.5,.07,.29-.12,1.12,0,1.54,.17,3.05,1.08,6.63,.82,9.55,1.59,2.25,.59,4.37,.68,6.53,.99,1.82,.27,3.75-.07,5.54,.86,.6,.32,2.45-.28,3.74-.23,3.03,.11,6.08,.22,9.1,.48,9.17,.81,18.28-.17,27.46,.51,6.6-.89,13.38,.43,19.97,.19,7.95-.32,15.9,.63,23.76,.85,1.6,.03,2.88,.13,4.28,.51,.91,.24,1.89,.51,2.85,.53,1.86,.06,3.72,.09,5.58,.13,1.86,.05,3.72-.03,5.57,.01,.99,.01,2.05-.13,3.07-.15,1.03-.03,2.02,.03,2.93,.52,.25,.14,1.15,.08,1.54-.07,3.21-1.17,6.77-.86,10.15-1.27,1.29-.14,2.53-.28,3.98-.06,1.57,.22,3.97-.07,5.5-.69,1.16-.47,2.21-.64,3.34-.9,1.17-.27,2.37-.45,3.57-.61l3.61-.55c1.2-.19,2.39-.41,3.56-.72,1.16-.32,2.28-.76,3.36-1.33,1.32,.29,2.72,.18,4.07-.11,1.35-.3,2.66-.82,3.84-1.25,9.03-3.35,18.42-5.49,27.38-8.99,2.15-.87,4.52-1.22,6.74-1.99,2.33-.84,4.63-1.82,6.91-2.81,1.2-.55,2.77-.83,3.39-2,.05-.09,.24-.22,.38-.26,1.34-.45,2.81-.72,4.02-1.35,1.09-.58,1.9-1.54,2.94-2.23,1.25-.82,2.63-1.51,3.95-2.26,1.3-.69,2.55-1.63,3.94-1.6,.54-1.34,2.18-1.86,3.37-2.69,1.11-.79,2.27-1.55,3.4-2.33,1.21-.94,2.49-1.82,3.64-2.82,.58-.49,1.2-.96,1.78-1.46,.56-.51,1.12-1.03,1.64-1.58,1.4-1.52,2.55-3.21,3.75-4.82,1.29-1.69,2.51-3.43,3.67-5.18,.39-.53,.72-1.1,1.05-1.66l1.02-1.68,.22-.44c.07-.14,.16-.33,.18-.34l.22-.32c.17-.25,.32-.53,.44-.83,.11-.25,.14-.47,.09-.64-.02-.09-.03-.18-.25-.17-.17-.01-.35-.01-.52-.01-.47,0-.98,.14-1.25,.16-.14,0-.23-.01-.31-.14-.03-.04,0-.05-.09-.12-.09-.08-.19-.16-.28-.25-.18-.18-.35-.39-.51-.63-.24-.39-1.52-.86-2.28-.97-1.5-.25-2.94-.64-4.4-1.03-1.44-.43-2.88-.88-4.32-1.35-2.88-.95-5.81-1.85-8.81-2.35-3.09-1.61-6.43-1.68-9.93-1.93-5.15-.4-10.6-.86-15.64-1.88-5.34-1.08-10.7-1.11-16.08-1.75-1.51-.18-3.18,.04-4.4-.9-.28-.22-1.43-.25-2.07-.17-4.44,.55-8.67-.05-13.08-.98-2.33-.49-5-.34-7.63-.22-3.93,.18-8.15-.51-12.24-.8-1.69-1.18-3.15-.21-4.08,.18-1.25,.52-2.39,.55-3.83,.47-1.85-.1-3.66-.4-5.53,.16-.96,.28-3.03,.09-4.02-.33-1.32-.56-1.84-.37-3.09-.11-1.47,.3-2.93-.73-4.77-.77-1.96-.05-4.26,.4-5.95-.76-.15-.1-.75-.11-1.03-.04-3.66,.99-7.22-.72-10.84-.29-5.08-.67-10.21-.78-15.34-.67l-1.92,.04-.96,.02h-.71c-.14,.01-.27,0-.41-.02l-.32-.03-3.86-.33c-2.57-.23-5.15-.47-7.7-.79l.19-8.15c.62-.01,1.24-.02,1.86-.04,4.5-.05,9.09,.53,13.5-.21,9.25-1.53,18.64-1.32,27.94-2.05,1.97-.16,4.21-.78,6.05,.18,.25,.13,1.16,.07,1.55-.09,2.9-1.15,5.78-1.02,8.79-.53,.73,.12,2.07,.02,2.5-.27,1.19-.8,2.64-.6,3.97-.66,1.6-.08,3.75,.43,4.68,0,1.99-.91,3.19-.1,4.74-.05,.96,.03,2.01-.24,2.99-.42,.47-.09,1.04-.45,1.32-.38,3.19,.71,6.19-.79,9.31-.62,.67,.04,1.38-.03,2.03,.03q7.4,.72,16.61-.5c2.62,1.13,5.46-.98,8.28-.18,1.03,.29,2.96,.08,4.19-.27,5.42-1.51,11.15-1.02,16.67-1.74,1.15-.15,2.1,.65,3.52-.16,.54-.31,2.49,.32,3.75,.2,1.83-.17,3.79,.16,5.56-.82,.72-.4,2.38-.24,3.59-.41,.83-.11,1.67-.12,2.51-.2l.31-.03c.11-.01,.22-.03,.23-.04,.09-.02,.17-.05,.25-.09,.15-.08,.29-.2,.36-.38,.17-.4,.61-.44,1.33-.16,.74,.29,1.47,.42,2.03,.45,.54-.02,1.08,.12,.94-.51l-.02-.17s0-.06-.02-.08l-.1-.07-.42-.27c-.28-.17-.57-.34-.84-.49-.55-.3-1.04-.54-1.41-.73-.46-.24-.71-.3-.73-.6-.02-.22-.08-.51-.3-.82-.66-.72-1.35-1.34-1.98-1.65-2.28-1.05-3.83-2.76-5.62-4.25-3.16-2.5-6.19-5.19-9.49-7.51-.93-.67-1.85-1.37-2.76-2.07l-2.8-2.01c-.94-.66-1.89-1.31-2.87-1.93-.98-.61-2.02-1.15-3.08-1.65-1.14-.54-2.45-1.19-3.66-2.01-1.24-.79-2.41-1.75-3.26-2.95-.19-.27-1.46-.3-2.08-.69-2.49-1.47-5-2.9-7.51-4.33-2.55-1.35-5.05-2.82-7.62-4.14-1.18-.62-1.98-2.29-3.48-2.03-1.58,.27-2.04-2.03-3.53-1.45-.22,.09-1.31-.45-1.82-.81-2.79-2.04-5.97-3.4-9.15-4.74-3.24-1.22-6.48-2.42-9.67-3.71-1.53-.63-3.43-.86-4.35-2.2-2.16-.15-4.16-1.12-6.19-2.01-2.04-.84-4.12-1.59-6.31-1.35-2.81-1.12-6.15-1.06-8.65-2.92-.41-.29-1.48-.26-1.96-.55-1.64-.98-3.16,.45-5.12-.93-1.14-.78-3.56-.97-5.4-1.39-1.71-.41-3.46-.66-5.19-.99-1.91-.36-3.81-.7-5.73-.97-1.92-.28-3.83-.69-5.75-.84-1.95-.16-3.9-.18-5.84-.25-1.95-.05-3.9-.11-5.87-.45-.42-.07-1.17,0-1.34,.15-1.46,1.37-3.36,.43-4.67-.11-1.1-.44-2.05-.68-3.28-.76-3.34-.11-6.68-.23-10.01-.34-1.98-.06-4.08,.35-5.97-.55-.59-.28-2.18-.19-3.07,.04-1.04,.27-2.09,.43-3.15,.54-1.06,.14-2.12,.21-3.19,.26-2.14,.1-4.29,.06-6.41,.32-1.92,.22-3.85,.3-5.78,.45-1.46,.13-2.85,.93-4.37,.46-1.75,.47-3.5,.87-5.27,1.22-1.77,.35-3.55,.56-5.36,.85-3.6,.58-7.25,.92-10.81,1.68-3.53,.76-7.1,1.36-10.63,2.16-3.53,.76-7.08,1.46-10.58,2.34-1.76,.42-3.59,1.37-5.41,.78-.35-.12-1.6,.26-1.92,.55-.87,.81-1.55,1.3-2.89,.92-.25-.07-1.16,.35-1.63,.63-1.3,.8-2.59,1.07-4.16,1.2-1.22,.09-2.8,.42-3.85,.98-1.4,.75-2.77,1.46-4.19,1.98-1.41,.56-2.88,.95-4.53,.99-.41,0-1.17,1.01-1.84,1.21-1.28,.41-2.54,.93-3.78,1.47-1.25,.53-2.52,.98-3.91,1.12-1.14,.11-2.54,.95-3.84,1.39-2.23,.77-4,2.26-6.37,2.99-1.2,.39-2.41,.9-3.58,1.5-1.16,.63-2.32,1.3-3.49,1.91-2.32,1.23-4.69,2.36-6.92,3.73-2.25,1.33-4.55,2.61-6.77,3.99l-6.57,4.3c-1.11,.69-2.14,1.51-3.2,2.27l-3.16,2.32c-1.04,.79-2.13,1.51-3.13,2.36l-3.02,2.49c-1.41,1.16-2.8,2.14-4.46,3.04-2.06,1.23-4.13,2.85-6.25,4.84-.52,.5-1.08,1-1.58,1.57-.5,.57-1,1.16-1.51,1.78-1.01,1.23-2.04,2.54-3.09,3.93-.3,.4-.71,.76-1.07,1.13-3.96,4.49-5.75,10.51-6.33,16.74-.3,2.73-.54,5.61-.07,8.5,.15,.94,.27,1.88,.52,2.79,.11,.46,.25,.91,.41,1.36,.19,.44,.41,.88,.68,1.3,.22,.35,.37,.76,.48,1.21,.13,.44,.24,.91,.36,1.39,.22,.96,.57,1.93,1.32,2.64,.28,.26,.53,.81,.79,1.4,.12,.3,.22,.61,.3,.9,.02,.14-.02,.2-.06,.29-.08,.15-.07,.27-.05,.41v.05s.09,.13,.09,.13l.19,.28,.39,.55c.53,.75,1.09,1.48,1.63,2.2,1.09,1.45,2.14,2.86,3.01,4.3l1.96,3.21,.98,1.55,.31,.48c.06,.08,.11,.17,.18,.25,.09,.05,.19,.09,.27,.15l.39,.24c.18,.11,.34,.24,.52,.36,.69,.49,1.29,1.02,1.86,1.55,1.65,1.56,2.59,3.33,4.35,4.24,.43,.22,.93,.78,1.38,1.39,.23,.31,.45,.62,.65,.94,.1,.16,.19,.31,.28,.45,.01,.06,0,.12,.02,.19-.01,.14,.47,.6,.82,.92,.37,.34,.76,.65,1.16,.94,.81,.57,1.61,1.12,2.48,1.52,3.68,1.79,3.63,1.74,6.85,4.2,.38,.3,.83,.56,1.27,.8,1.09,.61,2.22,1.17,3.33,1.77,1.11,.6,2.23,1.2,3.38,1.71,1.14,.53,2.29,1.05,3.44,1.53,1.17,.44,2.35,.83,3.53,1.17,3.93,1.12,7.71,2.33,11.58,3.47,1.54,.45,3.45,.46,4.51,1.79,.15,.19,1.04,.42,1.45,.38,1.78-.15,3.51,.11,5.24,.51,1.74,.34,3.47,.81,5.19,1.13,1.68,.26,3.33,.28,4.97,.34,1.65,.03,3.3,.04,5,.36,3.21,.53,6.53,.63,9.81,.76,4.97,.15,6.04,.71,6.04,3.46,0,2.25-1.3,2.74-5.5,3.13-8.93,.69-17.77-1.22-24.88-2.34Z"/>
        </g>
        <g class="cls-12">
          <g class="cls-12">
            <path class="cls-5" d="M61.27,50.23c-2.91,2.57-6.48,4.8-8.27,7.71-.2,.31-.4,.63-.61,.96l.44-.36c3.33-2.75,6.89-5.75,10.19-8.65,1.96-1.89,3.84-4.03,6.34-5.74,.28-.19,.13-.47,.05-.61-.36,.02-.7,0-1.02-.05-1.9,1.61-3.69,3.32-5.67,4.93-.67,.51-1.05,1.5-1.45,1.81Z"/>
            <polygon class="cls-7" points="68.49 43.46 68.43 43.46 68.14 43.7 68.49 43.46"/>
            <path class="cls-4" d="M63.94,47.52c-.59,.59-1.22,1.1-1.85,1.6-.32,.45-.56,.92-.82,1.11-2.91,2.57-6.48,4.8-8.27,7.71-.19,.31-.4,.62-.61,.95l.47-.39c1.18-.99,2.36-1.96,3.52-2.93l.15-.21c.49-.75,1.27-1.09,1.9-1.63,1.67-1.7,3.33-2.81,5.07-4.43,.63-.57,1.1-1.42,1.92-2.01,.27-.22,.54-.41,.81-.59,.97-.91,2-1.8,3.16-2.6,.28-.19,.13-.47,.05-.61-.19,0-.37,0-.55,0-.96,.63-1.88,1.33-2.83,2.02-.76,.68-1.53,1.36-2.31,2.04,.05,0,.11-.02,.18-.04Z"/>
            <path class="cls-7" d="M63.56,47.2c-.12,.09-.11,.38,.2,.35,.78-.68,1.55-1.35,2.31-2.04-.79,.58-1.62,1.16-2.51,1.69Z"/>
            <path class="cls-8" d="M63.01,46.24c-1.69,1.15-2.92,2.71-4.38,3.57-.75,.47-1.55,.87-2.33,1.14-.21,.19-.41,.38-.61,.57-4.99,4.83-9.63,9.95-13.97,15.31-2.11,2.75-3.38,5.77-4.71,9.02-.88,1.88-1.95,3.22-2.96,5.02-2.6,4.5-2.64,9.25-3.01,14.34-.1,1.39,1.13,1.72,1.19,1.39,.16-2.1,.5-4.15,.97-6.16,.49-2,1.12-3.96,1.84-5.88,1.47-3.83,3.32-7.5,5.34-11.21,3.2-5.74,7.32-10.52,12.01-14.45,.21-.33,.42-.65,.61-.96,1.79-2.91,5.36-5.14,8.27-7.71,.4-.31,.78-1.3,1.45-1.81,1.97-1.61,3.77-3.32,5.67-4.93-.67-.08-1.28-.21-1.9-.18-1.12,1.07-2.23,2.12-3.48,2.93Z"/>
            <path class="cls-6" d="M63.01,46.24c1.25-.8,2.36-1.86,3.48-2.93-.3,.02-.61,.08-.92,.2-3.42,1.69-6.41,4.77-9.27,7.43,.78-.27,1.58-.67,2.33-1.14,1.46-.86,2.69-2.42,4.38-3.57Z"/>
            <path class="cls-4" d="M63.01,46.24c1.2-.77,2.26-1.77,3.33-2.78-.44,.24-.86,.51-1.27,.8-2.09,1.49-4.05,3.16-6.19,4.56,2.1-1.75,4.25-3.44,6.39-5.15-3.3,1.72-6.18,4.71-8.96,7.29,.77-.27,1.57-.67,2.32-1.14,1.46-.86,2.69-2.42,4.38-3.57Z"/>
            <path class="cls-3" d="M59.91,48.99c2.46-1.84,4.93-3.64,7.29-5.69-.18-.02-.35-.03-.53-.03-.12,.06-.23,.12-.35,.19-1.07,1.01-2.13,2.01-3.33,2.78-1.69,1.15-2.92,2.71-4.38,3.57-.75,.47-1.55,.87-2.32,1.14l-.58,.54c-2.54,2.47-5.01,5-7.38,7.62-1.78,2.53-3.98,5.01-6.11,7.45,.91-1.21,1.82-2.41,2.75-3.64-1.1,1.28-2.17,2.58-3.24,3.89-.89,1.16-1.63,2.38-2.3,3.64,.09,.41,.06,.93-.29,1.63-.53,1.11-1.18,2.12-1.52,3.35-.09,.15-.28,0-.45,.3,.48-.83,.72-1.59,.86-2.31-.35,.78-.67,1.59-1.01,2.41-.7,1.48-1.5,2.62-2.31,3.91l-.17,.46c-.28,.76-.51,1.56-.66,2.39,.13-.31,.26-.62,.41-.93-.09,.55-.34,1.18-.55,1.65,.05-.24,.09-.48,.13-.72-.31,.74-.62,1.44-.92,2.23,.36-.97,.65-1.98,.84-2.86-.68,1.79-1.2,3.45-1.95,5.19v-.15c-.5,2.64-.62,5.33-.82,8.18-.1,1.39,1.13,1.72,1.19,1.4,.43-5.88,2.32-11.33,4.74-16.53-.44,.51-.85,1.04-1.26,1.59-.15,.25-.32,.48-.5,.68,.17-.23,.34-.46,.5-.68,.4-.68,.74-1.48,1.23-2.17,.14-.11,.37-.55,.25-.84,.69-.94,1.15-2.26,1.88-3.17,.03-.06,.15-.13,.29-.2,.34-.64,.69-1.28,1.04-1.93,2-3.59,4.36-6.8,7-9.66-.72,.62-1.42,1.21-2.1,1.74-1,.67-2.19,2.81-3.25,4.55-.23,.46-.61,.58-.9,.99,.43-1.87,2.16-3.5,3.34-5.19,1.61-2.23,4.55-4.73,6.26-7.17,.69-1.03,1.71-1.65,2.59-2.15-.16,.35-.64,.82-.89,1.05-2.2,2.09-4.32,4.28-6.21,6.69,2.26-2.24,4.23-4.6,6.74-6.54-1.3,1.32-2.8,2.4-3.71,3.91,.14-.07,.28-.14,.42-.22,.88-.85,1.79-1.65,2.71-2.44,.21-.33,.41-.65,.61-.95,1.79-2.91,5.36-5.14,8.27-7.71,.25-.2,.5-.66,.82-1.11-1,.78-2.02,1.51-2.98,2.33,.43-.28,.88-.5,1.33-.66-.89,.79-1.83,1.17-2.7,1.99,.43-.48,.9-.91,1.37-1.33-.65,.41-1.29,.9-1.93,1.39,.99-1.24,2.5-1.66,3.44-3-.25,.22-.51,.42-.78,.61l.8-.63v.02c.76-.66,1.45-1.42,2.08-2.11-1.36,1.11-2.79,1.87-4.09,3.01l-.62,.59c.2-.21,.41-.4,.62-.59,2.91-2.69,6.26-4.85,9.52-7.05l.29-.24c-.15-.02-.3-.04-.45-.06-2.64,1.83-5.34,3.7-8.07,5.59Z"/>
          </g>
        </g>
        <g class="cls-12">
          <g class="cls-12">
            <path class="cls-5" d="M232.92,182.78c-1.34,.12-2.72-.65-3.86,.11-.13,.07-.25,.15-.38,.24l.19,.06c1.49,.45,3.02,.62,4.61,.42,1.01-.26,2-.87,3.15-1.09,.13-.03,.06-.33,.02-.49-.17-.16-.31-.35-.45-.54-.77,.38-1.63,.75-2.51,.79-.29-.02-.6,.51-.78,.5Z"/>
            <polygon class="cls-7" points="236.26 181.53 236.23 181.49 236.11 181.55 236.26 181.53"/>
            <path class="cls-4" d="M234.23,182.31c-.28,.11-.57,.14-.85,.13-.18,.15-.35,.36-.46,.35-1.34,.12-2.72-.65-3.86,.11-.13,.07-.25,.15-.38,.24,.07,.02,.14,.04,.21,.06,.51,.16,1.03,.28,1.56,.36l.09-.05c.3-.21,.57,.05,.86,.08,.81-.16,1.49,.07,2.36-.12,.31-.06,.62-.45,1-.45,.13-.02,.25-.02,.38-.01,.49-.2,.98-.38,1.52-.49,.13-.03,.06-.33,.02-.49-.09-.08-.17-.18-.25-.27-.41,.05-.8,.15-1.21,.18-.34,.13-.69,.23-1.05,.3,.02,.03,.04,.05,.06,.08Z"/>
            <path class="cls-7" d="M234.17,181.83s-.1,.23,0,.4c.36-.06,.71-.17,1.05-.3-.34,.03-.7,.02-1.05-.1Z"/>
            <path class="cls-8" d="M234.15,180.73c-.64-.1-1.27,.31-1.83,.02-.29-.13-.58-.36-.83-.67-.1,0-.19,0-.28,.01-2.31,.26-4.6,.35-6.88-.02-1.14-.11-2.2,.42-3.37,.79-.69,.09-1.25-.28-1.92-.5-1.69-.63-3.15,.7-4.87,1.12-.46,.11-.53,1.37-.41,1.38,2.89-.52,5.62,.06,8.5-.3,2.24-.25,4.34-.06,6.43,.57,.13-.09,.25-.17,.38-.24,1.13-.76,2.51,0,3.86-.11,.18,.01,.49-.51,.78-.5,.89-.04,1.74-.41,2.51-.79-.28-.4-.51-.83-.73-1.14-.4,.27-.86,.49-1.34,.37Z"/>
            <path class="cls-6" d="M234.15,180.73c.48,.12,.94-.11,1.34-.37-.1-.15-.21-.27-.31-.34-.57-.26-1.12-.27-1.74-.2-.61,.07-1.29,.21-1.95,.26,.25,.31,.54,.54,.83,.67,.56,.29,1.19-.12,1.83-.02Z"/>
            <path class="cls-4" d="M234.15,180.73c.45,.11,.9-.09,1.28-.34-.15-.04-.3-.06-.45-.06-.75,.03-1.55,.12-2.38-.19,.89,.02,1.73,.01,2.48-.18-1.05-.44-2.27,.03-3.58,.12,.25,.31,.54,.54,.83,.67,.56,.29,1.19-.12,1.83-.02Z"/>
            <path class="cls-3" d="M232.82,180.96c1,.17,2.03,.22,2.92-.23-.07-.11-.13-.21-.19-.3-.04-.01-.08-.02-.12-.04-.38,.25-.83,.45-1.28,.34-.64-.1-1.27,.31-1.83,.02-.29-.13-.58-.36-.83-.67-.09,0-.18,0-.26,.01-1.18,.13-2.35,.22-3.53,.23-1.02,.39-2.13,.29-3.2,0,.5,.01,1.01,0,1.51-.06-.56-.04-1.12-.1-1.67-.19-.48-.05-.95,.02-1.42,.15-.1,.29-.25,.54-.51,.62-.41,.12-.81,.08-1.22,.36-.06,0-.05-.24-.16-.25,.32,.03,.58-.13,.81-.38-.29,.1-.59,.2-.86,.29-.54,.07-1-.14-1.5-.34-.06,0-.11,.02-.16,.03-.27,.04-.54,.17-.82,.32,.11,.01,.22,.02,.34,.03-.18,.14-.41,.12-.58,.1,.08-.05,.16-.09,.24-.14-.27-.03-.52-.05-.8-.08,.34,.03,.69-.09,.99-.22-.63,.02-1.21,.12-1.83-.09l.05-.04c-.88,.3-1.76,.82-2.72,1.05-.46,.11-.53,1.37-.41,1.38,2.02-.36,3.96-.19,5.92-.18-.22-.17-.44-.34-.67-.5-.1-.04-.19-.1-.28-.19,.09,.06,.18,.13,.28,.19,.27,.11,.56,.09,.85,.23,.05,.08,.22,.1,.29-.13,.39,.19,.86,0,1.25,.2,.02,0,.06,.07,.11,.15,.25-.02,.5-.04,.75-.07,1.4-.15,2.75-.14,4.07,.05-.32-.15-.63-.32-.91-.54-.38-.35-1.2-.03-1.9,.06-.18,.06-.28-.18-.45-.2,.61-.65,1.39-.19,2.08-.28,.92-.07,2.21,.53,3.21,.07,.41-.2,.8,.08,1.13,.34-.12,.15-.35,.12-.46,.11-1.03-.1-2.05-.19-3.09-.13,1.07,.34,2.11,.2,3.18,.62-.63,.02-1.24-.35-1.83-.02,.05,.06,.1,.11,.15,.16,.41,.09,.83,.2,1.24,.32,.13-.08,.25-.17,.38-.24,1.13-.76,2.51,0,3.86-.11,.11,0,.28-.2,.46-.35-.44-.02-.87-.12-1.3-.12,.17,.08,.34,.19,.49,.36-.41,.04-.73-.31-1.14-.26,.22-.07,.43-.1,.65-.1-.26-.12-.53-.16-.8-.24,.53-.27,1.01,.41,1.54,0-.11,0-.23,0-.34-.04l.34,.03h0c.35,0,.69-.16,1-.32-.6,.04-1.13-.3-1.71-.28-.09,.01-.19,.02-.29,.04,.1-.02,.19-.03,.29-.04,1.33-.14,2.63,.25,4,.08l.12-.06-.18-.27c-1.07,.17-2.17,.02-3.22-.26Z"/>
          </g>
        </g>
        <g class="cls-12">
          <g class="cls-12">
            <path class="cls-5" d="M321.84,184.19c-2.87,.42-5.86,.46-8.71,.4-2.86-.05-5.59-.18-8.05,.04-.54,.04-1.1,.08-1.67,.12l.84,.12c3.17,.45,6.52,.76,9.93,.75,3.41,0,6.84-.33,10.1-.93,4.03-.87,7.94-2.35,12.23-3.69,.48-.15,.44-.47,.42-.63-.49-.05-.91-.14-1.31-.24-3.38,1.28-6.84,2.43-10.53,3.08-1.22,.19-2.5,.89-3.24,.97Z"/>
            <polygon class="cls-7" points="335.76 180.14 335.68 180.12 335.17 180.32 335.76 180.14"/>
            <path class="cls-4" d="M327.29,182.87c-1.17,.33-2.35,.55-3.53,.72-.75,.26-1.44,.57-1.91,.61-2.87,.42-5.86,.46-8.71,.4-2.86-.05-5.59-.18-8.05,.04-.54,.04-1.09,.08-1.65,.12l.9,.13c2.19,.31,4.47,.55,6.8,.66,.13-.01,.26-.03,.38-.04,1.31-.19,2.52,.04,3.78,.03,3.57-.32,6.57-.4,10.08-1.16,1.25-.27,2.5-.88,3.96-1.19,.5-.12,.98-.22,1.46-.32,1.92-.63,3.81-1.24,5.79-1.89,.48-.15,.44-.47,.42-.63-.26-.03-.49-.06-.72-.11-1.61,.47-3.22,.98-4.89,1.38-1.42,.45-2.87,.86-4.35,1.2,.07,.01,.15,.03,.25,.03Z"/>
            <path class="cls-7" d="M327.05,182.43c-.21,.04-.42,.31,0,.41,1.48-.34,2.93-.75,4.35-1.2-1.4,.34-2.84,.63-4.34,.79Z"/>
            <path class="cls-8" d="M327.06,181.3c-2.86,.43-5.56,1.23-7.96,1.15-1.26-.01-2.5-.17-3.57-.43-.4,.03-.79,.04-1.18,.05-4.86,.26-9.78-.03-14.7-.43-4.93-.44-9.83-.87-14.78-1.31-4.93-.36-9.53,.01-14.57,.27-2.99,.03-5.38-.37-8.31-.62-7.3-.7-13.6,.66-21.02,1.12-2,.12-2.26,1.39-1.77,1.39,12.47-.58,24.21-.08,36.62-.04,4.82,.03,9.49,.23,14.06,.63,4.58,.38,9.03,1.03,13.51,1.68,.57-.04,1.12-.08,1.67-.12,2.47-.22,5.19-.09,8.05-.04,2.86,.06,5.84,.02,8.71-.4,.75-.07,2.02-.78,3.24-.97,3.69-.65,7.15-1.79,10.53-3.08-.83-.22-1.53-.49-2.33-.61-2.03,.79-4.12,1.48-6.23,1.76Z"/>
            <path class="cls-6" d="M327.06,181.3c2.1-.28,4.19-.97,6.23-1.76-.39-.06-.81-.08-1.28-.04-5.24,.75-10.97,2.2-16.48,2.52,1.08,.26,2.32,.42,3.57,.43,2.41,.08,5.1-.72,7.96-1.15Z"/>
            <path class="cls-4" d="M327.06,181.3c2.01-.27,4-.9,5.94-1.65-.69,.13-1.39,.27-2.08,.44-3.53,.84-7.13,1.57-10.72,1.64,3.83-.39,7.63-1.09,11.34-2.17-5.11,.78-10.67,2.16-16.01,2.47,1.08,.26,2.31,.42,3.56,.43,2.41,.08,5.1-.72,7.96-1.15Z"/>
            <path class="cls-3" d="M321.26,182.43c4.36-.36,8.74-1.17,12.94-2.73-.22-.06-.43-.11-.65-.15-.19,.03-.37,.06-.55,.1-1.94,.75-3.94,1.39-5.94,1.65-2.86,.43-5.56,1.23-7.96,1.15-1.25-.01-2.49-.17-3.56-.43-.37,.03-.74,.04-1.11,.05-4.96,.27-9.99-.03-15.01-.45-4.4,0-9.19-.47-13.79-.99,2.17,.12,4.34,.23,6.54,.35-2.4-.21-4.8-.43-7.21-.64-2.09-.15-4.12-.18-6.15-.13-.43,.28-1.09,.5-2.22,.54-1.76,.06-3.49-.03-5.28,.21-.25-.01-.19-.25-.68-.27,1.38,.07,2.51-.07,3.5-.29-1.23,.07-2.47,.13-3.73,.2-2.35,.03-4.33-.22-6.49-.45l-.7,.02c-1.16,.03-2.34,.14-3.52,.29,.48,.01,.96,.03,1.47,.04-.77,.13-1.76,.11-2.5,.09,.35-.04,.69-.09,1.03-.13-1.15-.03-2.24-.06-3.46-.09,1.48,.04,2.99-.08,4.26-.2-2.73,0-5.23,.1-7.9-.12l.2-.04c-3.8,.3-7.58,.84-11.71,1.09-2,.12-2.26,1.38-1.77,1.39,8.71-.41,17.06-.28,25.53-.16-.95-.19-1.91-.37-2.88-.53-.42-.04-.83-.11-1.21-.2l1.21,.2c1.14,.12,2.41,.11,3.64,.27,.23,.09,.97,.11,1.26-.11,1.68,.23,3.71,.07,5.39,.31,.1,0,.27,.08,.46,.17,1.07,0,2.14,.01,3.22,.02,6.02,.03,11.82,.35,17.48,.97-1.35-.26-2.66-.52-3.87-.81-1.63-.47-5.17-.35-8.16-.39-.76,.02-1.19-.23-1.92-.28,2.64-.56,5.98,.08,8.96,.17,3.98,.15,9.46,1.24,13.79,1.14,1.78-.06,3.43,.33,4.85,.67-.53,.12-1.52,.04-2.01,0-4.43-.39-8.82-.94-13.28-1.19,4.59,.65,9.04,.99,13.64,1.7-2.74-.16-5.34-.76-7.9-.64,.2,.08,.42,.15,.63,.22,1.76,.25,3.53,.5,5.31,.75,.56-.04,1.11-.08,1.65-.12,2.47-.22,5.19-.09,8.05-.04,2.86,.06,5.84,.02,8.71-.4,.47-.05,1.17-.35,1.91-.61-1.84,.26-3.69,.37-5.55,.51,.75,.01,1.47,.07,2.15,.16-1.75,.22-3.2-.01-4.95,.1,.94-.11,1.87-.19,2.8-.26-1.17-.02-2.31-.03-3.49-.05,2.26-.34,4.4,.18,6.66-.51-.48,.07-.97,.1-1.45,.12l1.48-.13h-.03c1.48-.18,2.92-.56,4.21-.93-2.52,.46-4.84,.42-7.32,.64l-1.23,.12c.42-.05,.83-.09,1.23-.12,5.68-.59,11.38-1.32,16.9-2.92l.51-.19c-.18-.05-.37-.1-.55-.15-4.53,1.36-9.29,2.19-13.88,2.45Z"/>
          </g>
        </g>
        <g class="cls-12">
          <g class="cls-12">
            <path class="cls-5" d="M430.04,132.21c-1.38,1.55-3.47,2.5-4.24,4.25-.09,.18-.18,.38-.28,.58l.26-.16c2-1.22,3.91-2.86,5.43-4.66,.86-1.2,1.48-2.64,2.64-3.75,.13-.12-.09-.35-.19-.47-.26-.02-.51-.07-.75-.13-.76,1.06-1.45,2.19-2.38,3.16-.33,.3-.3,1.01-.5,1.19Z"/>
            <polygon class="cls-7" points="432.98 127.85 432.94 127.83 432.82 128 432.98 127.85"/>
            <path class="cls-4" d="M431.13,130.48c-.24,.37-.53,.69-.84,.98-.09,.3-.13,.63-.26,.74-1.38,1.55-3.47,2.5-4.24,4.25-.08,.18-.18,.37-.27,.57,.09-.06,.19-.11,.28-.17,.69-.43,1.37-.89,2.03-1.41l.06-.13c.19-.47,.69-.58,1.02-.87,.8-1,1.71-1.59,2.48-2.61,.28-.36,.35-.95,.74-1.32,.12-.14,.25-.26,.39-.36,.39-.6,.81-1.19,1.35-1.71,.13-.12-.09-.35-.19-.47-.13-.01-.27-.03-.4-.06-.46,.4-.86,.85-1.3,1.28-.31,.44-.63,.88-.98,1.3,.04,0,.07,0,.12,0Z"/>
            <path class="cls-7" d="M430.75,130.18c-.06,.05,.04,.28,.26,.3,.35-.41,.67-.86,.98-1.3-.37,.36-.77,.71-1.24,1Z"/>
            <path class="cls-8" d="M430.02,129.36c-.83,.65-1.24,1.65-2.06,2.05-.41,.23-.89,.37-1.38,.42-.1,.1-.2,.21-.3,.31-2.36,2.64-4.92,5.08-7.83,7.03-1.41,1.04-2.33,2.46-3.52,3.85-.78,.73-1.7,.96-2.65,1.39-1.21,.49-2.02,1.24-2.88,1.98-.85,.73-1.83,1.5-3.15,1.58-.68,.02-1.1,1.19-.91,1.25,1.37,.17,2.68-.04,3.82-.46,1.15-.4,2.17-.97,3.13-1.57,1.91-1.24,3.6-2.54,5.27-4.08,2.56-2.37,5.15-4.36,7.98-6.09,.1-.2,.19-.4,.28-.58,.77-1.75,2.86-2.7,4.24-4.25,.2-.18,.17-.89,.5-1.19,.93-.97,1.62-2.09,2.38-3.16-.52-.12-1-.29-1.43-.33-.4,.7-.83,1.38-1.47,1.83Z"/>
            <path class="cls-6" d="M430.02,129.36c.63-.45,1.06-1.13,1.47-1.83-.21-.02-.41,0-.59,.05-1.82,.9-2.96,2.79-4.32,4.25,.49-.05,.97-.19,1.38-.42,.81-.4,1.23-1.4,2.06-2.05Z"/>
            <path class="cls-4" d="M430.02,129.36c.61-.43,1.02-1.07,1.41-1.74-.22,.14-.43,.29-.62,.47-.96,.9-1.83,1.9-2.97,2.59,1-.97,1.99-1.96,2.9-3.03-1.72,.94-2.83,2.76-4.15,4.18,.49-.05,.97-.19,1.38-.42,.81-.4,1.23-1.4,2.06-2.05Z"/>
            <path class="cls-3" d="M428.66,131.01c1.24-1,2.42-2.07,3.34-3.42-.13-.03-.26-.06-.39-.07-.06,.04-.12,.07-.18,.11-.39,.67-.81,1.31-1.41,1.74-.83,.65-1.24,1.65-2.06,2.05-.41,.23-.89,.37-1.38,.42l-.28,.29c-1.2,1.35-2.46,2.64-3.79,3.85-.9,1.34-2.26,2.38-3.69,3.22,.6-.49,1.18-1,1.72-1.55-.67,.53-1.36,1.04-2.07,1.51-.6,.44-1.1,.95-1.59,1.5,.07,.32,.05,.66-.22,.97-.42,.48-.92,.84-1.25,1.45-.07,.05-.2-.15-.35-.05,.41-.28,.63-.65,.74-1.07-.28,.35-.56,.7-.86,1.05-.62,.57-1.31,.83-2.04,1.13l-.18,.17c-.31,.28-.56,.62-.81,.98,.14-.09,.28-.18,.44-.27-.14,.27-.43,.46-.65,.59,.07-.11,.15-.21,.22-.31-.34,.21-.67,.4-1.04,.59,.45-.24,.81-.63,1.09-1-.75,.56-1.42,1.11-2.3,1.31l.04-.07c-.94,.8-1.97,1.74-3.44,1.85-.67,.03-1.11,1.2-.91,1.26,1.93,.24,3.67-.32,5.13-1.02,1.47-.72,2.77-1.63,3.99-2.55-.39,.08-.77,.15-1.14,.23-.15,.06-.3,.1-.47,.1,.15-.03,.31-.07,.47-.1,.4-.16,.75-.45,1.19-.61,.12,.02,.34-.13,.28-.38,.6-.22,1.06-.82,1.66-1.04,.03-.02,.12,0,.23,.02,.28-.26,.57-.52,.87-.78,1.6-1.48,3.22-2.81,4.89-4.03-.47,.21-.94,.4-1.42,.52-.68,.12-1.44,1.18-2.21,1.94-.17,.22-.45,.13-.67,.28,.31-1.1,1.54-1.5,2.3-2.27,1.04-.97,2.94-1.85,3.77-3.23,.34-.57,.96-.78,1.52-.94-.04,.24-.31,.46-.45,.58-1.24,1.01-2.49,2-3.66,3.1,1.48-.83,2.59-2.02,4.09-2.84-.71,.68-1.66,1.05-2.12,1.91,.1,0,.19-.02,.28-.03,.54-.36,1.09-.72,1.65-1.06,.1-.2,.19-.39,.27-.57,.77-1.75,2.86-2.7,4.24-4.25,.13-.11,.16-.44,.26-.74-.49,.45-1.02,.85-1.5,1.32,.25-.13,.5-.24,.79-.28-.41,.48-1.02,.58-1.44,1.05,.19-.29,.41-.54,.65-.77-.37,.2-.7,.46-1.05,.7,.4-.76,1.4-.8,1.7-1.69-.12,.13-.25,.24-.39,.34l.4-.35h0c.37-.37,.64-.86,.87-1.3-.63,.67-1.45,1.01-2.07,1.66-.1,.11-.19,.22-.29,.34,.09-.12,.19-.23,.29-.34,1.36-1.54,3.07-2.75,4.59-4.14l.11-.16-.34-.09c-1.22,1.18-2.56,2.29-3.93,3.26Z"/>
          </g>
        </g>
      </g>
    </g>
  </g>
</svg>