<?xml version="1.0" encoding="UTF-8"?>
<svg id="_Слой_2" data-name="Слой 2" xmlns="http://www.w3.org/2000/svg" xmlns:xlink="http://www.w3.org/1999/xlink" viewBox="0 0 650.88 291.07">
  <defs>
    <style>
      .cls-1 {
        fill: none;
      }

      .cls-2 {
        clip-path: url(#clippath);
      }

      .cls-3 {
        fill: #f3f9fb;
      }

      .cls-4 {
        fill: #f7fbfc;
      }

      .cls-5 {
        fill: #f8fcfd;
      }

      .cls-6 {
        fill: #66af66;
      }

      .cls-7 {
        fill: #f4fafb;
      }

      .cls-8 {
        fill: #f5fafb;
      }

      .cls-9 {
        fill: #fbfdfe;
      }

      .cls-10 {
        fill: #6e7c6e;
      }

      .cls-11 {
        opacity: .49;
      }

      .cls-12 {
        opacity: .8;
      }
    </style>
    <clipPath id="clippath">
      <rect class="cls-1" width="650.88" height="291.07"/>
    </clipPath>
  </defs>
  <g id="_лягушки" data-name="лягушки">
    <g class="cls-2">
      <g>
        <g class="cls-11">
          <path class="cls-10" d="M194.02,231.78c-35.32,.11-77.75-7.39-108.18-24.48-5.07-3.8-7.61-7.59-12.68-9.49-5.07-5.7-7.61-9.49-12.68-13.29-7.61-13.29-10.14-30.37,2.54-41.77,48.19-39.87,116.66-56.95,185.14-64.55,103.98-11.39,213.04,13.29,286.55,68.41l-.87,1.37c-69.44,3.9-145.33,7.53-219.01,10.3l15.68,1.13c49.98-.66,91.1,2.75,140.96,5.46,27.96,1.52,56.69,3.74,81.52,13.47h0c-5.91,16.87-27.93,28.35-51.54,36.2-50.99,16.96-103.23,25.99-159.15,22.82-54.84-3.11-100.68-1.85-155.2-7.39"/>
          <path class="cls-10" d="M155.87,230.96c-11.27-1.6-20.38-3.57-29.4-5.78-1.41-.34-3.11-.23-4.86-.78-7-1.98-14.27-4.04-20.57-7.26-1.7-.91-3.45-1.7-5.13-2.62-1.69-.9-3.4-1.76-5.1-2.6-1.67-.91-3.34-1.78-5.02-2.62-.37-.19-.97-.44-1.42-.83-.4-.29-.78-.57-1.16-.86-.76-.57-1.5-1.16-2.22-1.73-2.75-2.21-5.09-4.4-7.75-5.54l-.86-.35-.41-.17c-.07-.03-.14-.05-.2-.09l-.15-.16-1.16-1.3-1.69-1.94c-1.12-1.29-2.21-2.58-3.33-3.81-1.51-1.66-3.01-3.08-4.41-5.05-.13-.18-.29-.37-.46-.56-.09-.1-.18-.2-.28-.3-.14-.12-.28-.25-.42-.38-.15-.13-.29-.26-.45-.39l-.23-.2-.14-.28c-.19-.37-.39-.75-.6-1.13-.73-1.23-1.51-2.48-2.4-3.49-.37-.38-.6-1.46-.84-2.2-.27-.81-.28-1.86-.57-2.41-1.68-3.1-2.59-6.66-2.86-10.32-.26-3.66,.16-7.39,1-10.99,.14-.92,.62-1.79,.88-2.68,.26-.9,.59-1.73,.59-2.63,0-.23,.2-.77,.45-1.29,.29-.5,.65-.99,.87-1.17,.61-.47,1.06-1.04,1.61-1.58,.54-.55,1.06-1.16,1.61-1.84,1.28-1.39,2.68-2.84,4.08-3.83l4.2-3.27c1.41-1.08,2.79-2.2,4.22-3.24l4.36-3c1.13-1.4,2.57-2.56,4.11-3.63,1.55-1.05,3.26-1.9,4.84-2.88,1.19-.72,2.42-1.37,3.66-2,1.25-.61,2.47-1.27,3.75-1.82,2.55-1.16,4.88-3.17,7.64-3.66,.44-.08,1.26-.83,1.93-1.21,3.11-1.6,6.26-3.48,9.36-4.61,1.58-.61,3.2-1.1,4.75-1.77l7.49-3.23c2.51-1.04,5.07-1.97,7.6-2.95,5.04-2.03,10.23-3.66,15.36-5.45,2.57-.88,5.19-1.6,7.78-2.41,2.6-.77,5.18-1.63,7.81-2.3,5.24-1.41,10.47-2.88,15.76-4.07,1.84-.44,3.61-.74,5.44-1.77,1.42-.83,4.78-1.51,6.35-1.38,2.53,.23,4.7-.53,6.99-.97,4.22-.72,8.44-1.6,12.67-2.29,2.52-.38,5.23-1.32,7.59-.67,.23,.06,1.02-.07,1.28-.21,2.64-1.43,5.47-1.04,8.29-1.28,2.04-.19,4.08-.49,6.24-1.27,2.1-.79,5.71-1.29,7.77-1.03,2.76,.35,5.19-.17,7.69-.46,14.82-1.57,29.71-2.43,44.6-2.69,1.76-.03,3.52-.13,5.27-.21l5.26-.24c3.51-.18,7.04-.2,10.59,.08,1.69,.13,3.56-.2,5.05,.6,.31,.16,1.67,.14,2.21,0,1.97-.53,3.89-.2,6.08-.05,9.91,.77,19.91,2.09,29.67,2.68,7.59,.53,14.95,1.79,22.37,2.98,2.47,.41,4.89,1.27,7.36,1.89,2.4,.58,4.86,1.03,7.31,1.48,1.45,.28,2.85,.82,4.4,.57,.83-.13,2.93,.25,3.71,.68,2.64,1.44,5.71,1.92,8.63,2.64,2.09,.51,4.15,1.09,6.23,1.65,2.07,.57,4.15,1.1,6.21,1.71,4.12,1.22,8.25,2.39,12.33,3.77,2,.67,4.39,.95,5.9,2.42,.21,.2,1.44,.33,2.2,.5,.81,.19,1.85,.28,2.39,.6,2.45,1.42,5.07,2.54,7.76,3.53l4.06,1.43c1.34,.5,2.68,1,4,1.54,12.74,5.24,25.34,10.91,37.37,17.63,1.67,.96,3.33,1.69,4.98,2.42,1.66,.72,3.29,1.44,4.88,2.44l4.66,2.8c1.56,.92,3.07,1.93,4.58,2.92,1.07,.71,2.23,1.35,3.31,2.06l.4,.27,.47,.35c.31,.24,.61,.48,.89,.73,.57,.5,1.07,1.01,1.44,1.54,.41,.58,2.1,1.72,3.1,2.13,.94,.39,1.85,.85,2.7,1.34,.67,.48,1.24,1,1.8,1.51,1.11,1.04,2.12,2.07,3.29,3.1l1.03,.95,.25,.24,.12,.12-.11,.16-.42,.65-.43,.65c-.19,.13-.5,.09-.74,.15l-1.53,.2c-2.02,.27-3.92,.56-5.65,1.19-.95,.36-3.32,.31-4.94,.49-.74,.08-1.35,.2-2.29,.21l-2.23,.09c-1.28,.06-2.57,.13-3.85,.22-1.23,.09-2.41,.48-3.64,.58-9.47,.74-18.93,1.5-28.42,2.09-9.66,.6-19.34,1.01-29.01,1.49-9.67,.48-19.34,1.02-29.02,1.36-3.63,.13-7.53,1.01-10.94-.04-3.31,.88-6.26,.57-9.22-.11-.42-.1-1.46,.3-2.24,.43-2.44,.43-4.71,1.75-7.47,.55-.1-.04-.44,.03-.66,.02-2.25-.09-3.76,1.32-6.66,.64-1.8-.42-4.68-.08-7.07-.02-2.47,.06-4.97,.12-7.42,.33-2.53,.23-5.32-.28-7.65,.82-.38,.18-2.27-.44-3.38-.35-5.65,.49-11.5-.19-17.02,1.22-1.26,.32-3.28,.38-4.65,.19-4.92-.67-9.48-.03-14.49,.48-3.44,.35-7.02,.64-10.57,.69l.11-6.37c3.23,.31,6.42,.82,9.46,1.64,1.35,.36,1.95,.61,3.37,.27,.47-.11,1.1-.12,1.77-.09,.31,.02,.62,.04,.93,.06,.31,0,.61,0,.9,0,14.44-.18,28.89,0,43.32,.41,3.93,.13,7.55,1.2,11.59,1.01,1.67-.08,3.59,.49,5.01-.27,.2-.1,.89-.14,1.2-.07,4.78,1.16,9.65,.05,14.43,.69,1.02,.14,2,.36,3.01,.51,1.04,.16,2.24,.46,3.13,.37,7.43-.76,14.97,.56,22.43,.71,2.54,.05,5.29,.74,7.61-.11,.35-.13,1.47-.05,1.95,.11,4.28,1.44,9.1,.81,13.58,1.38,2.3,.29,4.94-.21,6.95,.88,.26,.14,1.19,.09,1.77,.05,1.01-.06,2-.33,2.96-.26,2.68,.2,5.57,.9,7.95,.72,2.94-.23,5.7,.12,8.5,.29,1.61,.1,3.18,.67,4.81,.9,1.54,.21,3.14,.29,4.72,.42,2.25,.19,4.61,.28,6.72,.7,2.18,.49,4.07-.35,6.42,.66,1.79,.78,4.07,.11,6.18,.34,1.05,.11,2.14,.39,3.17,.65,.78,.22,1.49,.67,2.23,.77,1.68,.23,3.26,.69,5.13,.64,1.29-.05,3.38,.92,5.13,1.41,.87,.23,1.76,.44,2.65,.64l2.65,.66c1.77,.43,3.61,1.16,5.25,1.41,1.84,.24,3.57,.66,5.42,1.18,2.45,.67,4.76,1.66,7.1,2.56,.57,.23,1.19,.45,1.71,.7l-.75,1.75c-.52,1.15-.94,2.35-1.57,3.44l-1.75,3.32-1.74,2.57c-.27,.42-.56,.84-.88,1.25-.31,.41-.64,.83-.97,1.22-.34,.39-.69,.76-1.08,1.06-.4,.28-.83,.51-1.28,.66-.32,.11-1.1,.88-1.44,1.35-2.2,2.86-5.03,5.28-8.09,7.23-3.03,2.04-6.26,3.69-9.32,5.54-4.38,2.6-8.79,5.05-13.64,6.87-4.7,1.77-9.68,3.27-14.11,5.11-3.64,1.54-7.26,3.05-11.03,3.92-1.84,.44-3.51,1.34-5.22,2.09-1.72,.71-3.48,1.27-5.46,1.07-3.7,1.07-7.44,2.06-11.18,2.96-3.14,.78-6.3,1.86-9.57,1.77-1.19-.05-3.35,.51-4.52,1.02-3.77,1.69-7.65,2.34-11.78,2.6-.97,.07-2.09,.72-3.19,.94-3.33,.71-6.71,1.29-10.07,1.72-10.03,1.19-19.76,3.46-29.82,4.27-1.85,.16-3.84,1.05-5.49,.95-10.05-.36-20.24,1.02-30.18,.37-3.65-.32-7.3-.46-10.95-.67-3.63-.24-7.31-.38-10.91-.56-7.2-.37-14.4-.59-21.6-.97-1.87-.1-3.81-.91-4.71-.73-2.78,.54-5.92-.1-8.24,.3-4.18,.74-8.27,.03-12.35,.13-2.98,.08-6.17-.6-8.94,.32-.4,.13-1.43,.08-1.97-.05-4.36-1.06-8.74,.21-13.08-.36-8.29,.91-16.78-.16-25.17-.25-1.23-.02-2.44,.18-3.67,.26-.62,.04-1.36,.16-1.88,.06-7.55-1.53-15.46-1.04-23.15-1.86-2.54-.29-5.01-.8-7.54-1.09-2.56-.31-5.22-.24-7.57-1.18-.73-.29-2.22-.3-3.32-.3-5.95-.06-10.19-2.06-10.01-4.59,.06-.92,1.28-.86,2.57-1.08,2.51-.43,4.95-.62,7.91-.27,2.3,.24,4.8,.74,6.92,.03,.35-.12,1.4,0,1.95,.16,3.89,1.08,8.38,.77,12.09,1.55,2.85,.59,5.52,.64,8.26,.97,2.3,.26,4.72-.08,7,.84,.77,.31,3.08-.27,4.7-.24,3.82,.09,7.66,.21,11.46,.46,11.56,.8,23-.2,34.55,.46,8.28-.9,16.84,.37,25.1,.1,10-.32,19.95,.43,29.9,.69,2.05,.05,3.68,.16,5.46,.52,1.16,.24,2.39,.5,3.61,.56,4.69,.31,9.4,.2,14.09,.4,2.51,.06,5.32-.57,7.56,.48,.31,.14,1.45,.12,1.94-.02,2.05-.54,4.19-.77,6.37-.82,2.17-.08,4.37,.02,6.51-.2,1.64-.15,3.22-.21,5.02,.06,.98,.15,2.23,.16,3.48,.08,1.25-.11,2.51-.33,3.5-.61,1.5-.42,2.85-.55,4.29-.76,5.99-.94,12.39-.57,18.06-2.71,3.25,.73,7.02-.27,10.08-1.05,11.77-3.01,23.81-4.77,35.53-7.92,2.82-.79,5.81-1.01,8.7-1.72,3.03-.75,6.06-1.61,9.06-2.55,1.59-.51,3.57-.71,4.57-1.88,.07-.09,.35-.21,.52-.25,1.75-.38,3.58-.6,5.22-1.21,1.48-.53,2.69-1.51,4.15-2.14,1.75-.75,3.65-1.37,5.46-2.03,1.77-.61,3.57-1.48,5.25-1.32,1.06-1.34,3.2-1.74,4.91-2.48,1.59-.74,3.24-1.38,4.85-2.1,1.79-.84,3.6-1.64,5.33-2.56,1.77-.86,3.52-1.78,5.17-2.8,1.12-.72,2.16-1.53,3.23-2.3,1.05-.79,2.03-1.64,3.09-2.41,1.09-.84,2.13-1.72,3.23-2.55,1.01-.91,2.09-1.75,3.08-2.65l1.85-1.7c.61-.57,1.14-1.19,1.73-1.78,.28-.3,.59-.59,.85-.91l.76-.96,.38-.48c.13-.17,.26-.34,.33-.41,.19-.21,.26-.31,.38-.49,.38-.54,.43-1.08,.18-1.45-.07-.12-.2-.21-.32-.28-.01-.03-.1-.02-.17-.01h-.21c-.14,.02-.26,.03-.36,.03-.42,0-.45-.1-.45-.77,0-.13-.17-.23-.4-.3-.11-.03-.22-.06-.34-.09-.15-.04-.3-.08-.45-.12-.3-.07-.58-.13-.82-.16-1.89-.32-3.79-.62-5.65-1.09-1.87-.44-3.75-.9-5.61-1.41-3.76-.94-7.54-1.93-11.38-2.42-4.03-1.7-8.27-1.71-12.7-2.02-6.53-.44-13.46-.93-19.85-1.96-6.78-1.1-13.51-1.13-20.28-1.73-1.9-.17-3.99,.07-5.56-.87-.36-.21-1.81-.24-2.61-.16-5.56,.58-10.9,0-16.48-.9-2.94-.48-6.31-.32-9.6-.18-4.94,.2-10.27-.47-15.44-.77-2.17-1.17-3.97-.2-5.14,.19-1.56,.52-3,.55-4.81,.47-2.34-.1-4.63-.41-6.97,.16-1.2,.28-3.83,.09-5.08-.34-1.68-.57-2.33-.37-3.9-.12-1.85,.3-3.72-.75-6.04-.79-2.47-.06-5.37,.38-7.52-.79-.19-.1-.95-.12-1.3-.05-4.61,.97-9.12-.78-13.69-.38-6.8-.76-13.67-.91-20.54-.84-3.44,0-6.87,.1-10.3,.14l-2.67,.03c-.18,0-.36,0-.54-.02l-.35-.03-.64-.05-1.29-.1c-1.72-.14-3.43-.29-5.14-.47-2.68-.28-5.37-.7-8.05-1.06l.12-7.09c2.98,.07,5.95,.05,8.87-.32,11.69-1.49,23.48-1.23,35.21-1.91,2.48-.15,5.32-.75,7.61,.22,.32,.13,1.46,.07,1.95-.08,3.68-1.13,7.31-.99,11.08-.49,.92,.12,2.61,.03,3.15-.25,1.52-.79,3.35-.58,5.01-.64,2.01-.07,4.71,.45,5.89,.03,2.53-.9,4.01-.08,5.96-.03,1.21,.03,2.53-.23,3.78-.41,.59-.08,1.32-.44,1.67-.38,3.99,.72,7.81-.76,11.73-.57,.84,.04,1.73-.02,2.55,.05q9.29,.76,20.91-.4c3.25,1.14,6.9-.95,10.42-.13,1.28,.3,3.71,.1,5.28-.24,6.88-1.48,14.05-.95,21.02-1.64,1.45-.14,2.61,.67,4.43-.13,.69-.3,3.12,.34,4.71,.23,2.31-.16,4.76,.18,7.02-.78,.92-.39,3-.23,4.53-.38,2.1-.21,4.23,0,6.31-.81,1.14-.44,3.83-.6,5.17-.33,2.77,.54,5.39,.44,7.95,.1,.64-.09,1.28-.18,1.91-.29l.24-.04,.09-.03,.17-.07,.31-.14c.39-.19,.66-.37,.88-.51,.29-.16,.28-.3,1.03-.12,.53,.12,1.27,.25,1.88,.3,.28,0,.6,.11,.62-.13,.02-.17,.11-.37-.36-.49-2.58-.93-2.03-.93-3-1.56-.93-.58-1.76-1.17-2.63-1.78l-3.14-2.02-3.24-2.02c-2.49-1.5-4.97-2.99-7.46-4.5-2.51-1.47-5.12-2.79-7.85-3.94-2.95-1.19-6.79-2.81-9.32-5.4-.28-.28-1.82-.32-2.66-.73l-4.94-2.4-4.99-2.28c-3.31-1.57-6.69-2.97-10.03-4.47-1.53-.71-2.84-2.41-4.62-2.15-1.89,.29-2.85-2.16-4.56-1.58-.24,.07-1.68-.48-2.38-.86-7.6-4.25-16.33-6.14-24.52-9.04-1.98-.66-4.4-.89-5.71-2.3-2.68-.26-5.32-1.23-7.95-2.16-1.32-.46-2.64-.92-3.98-1.2-1.34-.28-2.69-.42-4.05-.31-1.82-.59-3.76-.94-5.67-1.32-1.92-.38-3.79-.86-5.45-1.83-.54-.31-1.87-.32-2.5-.64-2.15-1.03-3.93,.42-6.5-1.03-.74-.42-1.87-.7-3.12-.94-1.25-.21-2.6-.38-3.78-.61-2.19-.41-4.39-.81-6.59-1.16l-7.27-1.14c-2.42-.38-4.87-.74-7.29-.99-1.23-.12-2.46-.22-3.69-.28l-3.69-.15c-2.46-.1-4.92-.33-7.43-.68-.54-.08-1.48-.03-1.7,.13-1.84,1.34-4.26,.28-5.92-.32-1.39-.48-2.6-.73-4.16-.84-4.23-.26-8.46-.52-12.68-.77-2.5-.21-5.19,.23-7.55-.8-.73-.32-2.75-.31-3.89-.13-5.31,.92-10.81,.26-16.2,.52-2.44,.09-4.9,.09-7.35,.17-1.86,.04-3.69,.75-5.58,.2-8.99,1.66-18.28,1.44-27.39,2.58-4.52,.51-9.08,1.15-13.62,1.66l-13.62,1.79c-2.27,.32-4.71,1.22-6.88,.54-.41-.13-2.04,.15-2.49,.42-1.23,.75-2.17,1.19-3.78,.71-.3-.09-1.5,.29-2.14,.55-1.77,.73-3.42,.99-5.4,.98-1.54,0-3.58,.19-5,.66-3.78,1.36-7.34,2.61-11.45,2.39-.51-.04-1.68,.91-2.54,1.1-3.35,.66-6.61,2-10.12,2-1.44,0-3.35,.8-5.05,1.15-2.92,.63-5.52,1.87-8.61,2.42-3.12,.61-6.37,1.86-9.56,2.83-3.19,.97-6.32,2.13-9.48,3.18-1.57,.56-3.17,1.04-4.71,1.65l-4.66,1.79-4.66,1.79c-1.56,.58-3.06,1.3-4.59,1.94l-4.58,1.97c-1.53,.66-3.06,1.3-4.54,2.05l-8.96,4.34c-2.04,1.1-3.98,2.03-6.22,2.79-1.43,.49-2.91,1.08-4.43,1.78-1.49,.74-2.99,1.63-4.56,2.58-1.56,.96-3.18,2.02-4.84,3.17-1.66,1.16-3.27,2.55-4.99,3.96-.49,.41-1.08,.76-1.63,1.13-3.63,2.36-6.86,5.14-10.25,7.74l-1.26,.98c-.4,.33-.9,.65-1.17,.98l-.97,.96c-.33,.31-.66,.63-.94,1-.56,.73-1.24,1.39-1.7,2.19l-.77,1.15c-.26,.38-.43,.81-.66,1.21-1.52,2.82-2.73,6.04-2.74,9.55-.04,.57,0,1.14,.03,1.71,.04,.57,.03,1.13,.12,1.7,.2,1.13,.4,2.25,.98,3.32,.81,1.75,.76,4.63,2.42,6.45,.32,.32,.68,.99,.97,1.71,.3,.72,.62,1.49,.71,2.05,.09,.47,.2,.93,.36,1.37l.24,.67,.06,.17s0,.05,.01,.07l.03,.13c.02,.08,.04,.17,.08,.24l.17,.18,.12,.11,.32,.28,.65,.55c1.74,1.49,3.43,3.06,4.84,4.7,1.54,1.82,3.08,3.65,4.62,5.48l.96,1.1,.2,.21c.07,.06,.18,.08,.26,.12,.01,0,.06,.03,.05,.02l-.04-.02s.03,.02,.05,.02l.13,.06,.5,.24c.34,.15,.65,.33,.98,.51,.64,.35,1.26,.73,1.84,1.13,2.3,1.58,3.85,3.55,6.05,4.47,.54,.23,1.25,.82,1.95,1.47l.52,.5,.26,.25c.08,.08,.19,.18,.18,.19,.05,.08,.03,.11,.15,.22,.1,.09,.34,.27,.48,.39,2.02,1.61,4.29,2.81,6.58,3.59,4.86,1.81,4.86,1.65,9.35,4.16,.53,.31,1.15,.55,1.75,.77,5.93,2.32,12.08,4.67,18.19,5.92,2.56,.49,5.07,1.01,7.56,1.59,2.5,.53,5,1.07,7.51,1.6,2.01,.39,4.41,.41,5.92,1.72,.22,.19,1.37,.36,1.89,.32,4.42-.32,8.92,.92,13.35,1.47,2.15,.23,4.24,.26,6.33,.28,2.1-.01,4.2,0,6.39,.31,2.06,.24,4.15,.37,6.25,.49,2.1,.1,4.21,.11,6.3,.2,6.36,.13,7.73,.7,7.72,3.45-.01,2.26-1.65,2.73-6.9,3.14-11.16,.73-22.28-1.07-31.26-2.05Z"/>
        </g>
        <g>
          <path class="cls-6" d="M212.97,177.04c-35.32,.11-77.75-7.39-108.18-24.48-5.07-3.8-7.61-7.59-12.68-9.49-5.07-5.7-7.61-9.49-12.68-13.29-7.61-13.29-10.14-30.37,2.54-41.77,48.19-39.87,116.66-56.95,185.14-64.55,103.98-11.39,213.04,13.29,286.55,68.41l-.87,1.37c-69.44,3.9-145.33,7.53-219.01,10.3l15.68,1.13c49.98-.66,91.1,2.75,140.96,5.46,27.96,1.52,56.69,3.74,81.52,13.47h0c-5.91,16.87-27.93,28.35-51.54,36.2-50.99,16.96-103.23,25.99-159.15,22.82-54.84-3.11-100.68-1.85-155.2-7.39"/>
          <path class="cls-6" d="M174.81,176.22c-11.27-1.6-20.38-3.57-29.4-5.78-1.4-.34-3.11-.23-4.86-.78-7-1.98-14.27-4.04-20.57-7.26-1.7-.91-3.45-1.71-5.13-2.62-1.69-.9-3.4-1.76-5.1-2.6-1.67-.91-3.34-1.78-5.02-2.62-.37-.19-.97-.44-1.42-.83-.4-.29-.78-.57-1.16-.86-.76-.57-1.5-1.16-2.22-1.73-2.75-2.21-5.09-4.4-7.75-5.54l-.86-.35-.41-.17c-.07-.03-.14-.05-.2-.09l-.15-.16-1.16-1.3-1.69-1.94c-1.12-1.29-2.21-2.58-3.33-3.81-1.51-1.66-3.01-3.08-4.41-5.05-.13-.18-.29-.37-.46-.56-.09-.1-.18-.2-.28-.3-.14-.12-.28-.25-.42-.38-.15-.13-.29-.26-.45-.39l-.23-.2-.14-.28c-.19-.37-.39-.75-.6-1.13-.73-1.23-1.51-2.48-2.4-3.49-.37-.38-.6-1.46-.84-2.2-.27-.81-.28-1.86-.57-2.41-1.68-3.1-2.59-6.66-2.86-10.32-.26-3.66,.16-7.39,1-10.99,.14-.92,.62-1.79,.89-2.68,.26-.9,.59-1.73,.58-2.63,0-.23,.2-.77,.45-1.29,.29-.5,.65-.99,.87-1.17,.61-.47,1.06-1.04,1.61-1.58,.54-.55,1.06-1.16,1.61-1.84,1.28-1.39,2.68-2.84,4.07-3.83l4.2-3.27c1.41-1.08,2.79-2.2,4.22-3.24l4.36-3c1.13-1.4,2.57-2.56,4.11-3.63,1.55-1.05,3.26-1.9,4.83-2.88,1.19-.72,2.42-1.37,3.66-2,1.25-.61,2.47-1.27,3.75-1.82,2.55-1.16,4.88-3.17,7.64-3.66,.44-.08,1.26-.83,1.93-1.21,3.11-1.6,6.26-3.48,9.36-4.61,1.58-.61,3.2-1.1,4.75-1.77l7.49-3.23c2.51-1.04,5.07-1.97,7.6-2.95,5.04-2.03,10.23-3.66,15.36-5.45,2.57-.88,5.19-1.6,7.78-2.41,2.6-.77,5.18-1.63,7.81-2.3,5.24-1.41,10.47-2.88,15.76-4.07,1.84-.44,3.61-.74,5.44-1.77,1.42-.83,4.78-1.51,6.35-1.38,2.53,.23,4.7-.53,6.99-.97,4.22-.72,8.44-1.6,12.67-2.29,2.51-.38,5.23-1.32,7.59-.67,.23,.06,1.02-.07,1.28-.21,2.64-1.43,5.47-1.04,8.29-1.28,2.04-.19,4.08-.49,6.24-1.27,2.1-.79,5.71-1.29,7.77-1.03,2.76,.35,5.19-.17,7.69-.46,14.82-1.57,29.71-2.43,44.6-2.69,1.76-.03,3.52-.13,5.27-.21l5.26-.24c3.51-.18,7.04-.2,10.59,.08,1.69,.13,3.56-.2,5.05,.6,.31,.16,1.67,.14,2.21,0,1.97-.53,3.89-.2,6.08-.05,9.91,.77,19.91,2.09,29.67,2.68,7.59,.53,14.95,1.79,22.37,2.98,2.47,.41,4.89,1.27,7.36,1.89,2.4,.58,4.86,1.03,7.31,1.48,1.45,.28,2.85,.82,4.4,.57,.83-.13,2.93,.25,3.71,.68,2.64,1.44,5.71,1.92,8.63,2.64,2.09,.51,4.15,1.09,6.23,1.65,2.07,.57,4.15,1.1,6.21,1.71,4.12,1.22,8.25,2.39,12.33,3.77,2,.67,4.39,.95,5.9,2.42,.21,.2,1.44,.33,2.2,.5,.81,.19,1.85,.28,2.39,.6,2.45,1.42,5.07,2.54,7.76,3.53l4.06,1.43c1.34,.5,2.68,1,4,1.54,12.74,5.24,25.34,10.91,37.37,17.63,1.67,.96,3.33,1.69,4.98,2.42,1.66,.72,3.29,1.44,4.88,2.44l4.66,2.8c1.56,.92,3.07,1.93,4.58,2.92,1.07,.71,2.23,1.35,3.31,2.06l.4,.27,.47,.35c.31,.24,.61,.48,.89,.73,.57,.5,1.07,1.01,1.44,1.54,.41,.58,2.1,1.72,3.1,2.13,.94,.39,1.85,.85,2.7,1.34,.67,.48,1.24,1,1.8,1.51,1.11,1.04,2.12,2.07,3.29,3.1l1.03,.95,.25,.24,.12,.12-.1,.16-.42,.65-.43,.65c-.19,.13-.5,.09-.74,.15l-1.53,.2c-2.02,.27-3.92,.56-5.65,1.19-.95,.36-3.32,.31-4.94,.49-.74,.08-1.35,.2-2.29,.21l-2.23,.09c-1.28,.06-2.57,.13-3.85,.23-1.23,.09-2.41,.48-3.64,.58-9.47,.74-18.93,1.5-28.42,2.09-9.66,.6-19.34,1.01-29.01,1.49-9.67,.48-19.34,1.02-29.02,1.36-3.63,.13-7.53,1.01-10.94-.04-3.31,.88-6.26,.57-9.22-.11-.42-.1-1.47,.3-2.24,.43-2.44,.43-4.71,1.75-7.47,.55-.1-.04-.44,.03-.66,.02-2.25-.09-3.76,1.32-6.66,.64-1.8-.42-4.68-.08-7.07-.02-2.47,.06-4.97,.12-7.42,.33-2.53,.23-5.32-.28-7.65,.82-.38,.18-2.27-.44-3.38-.35-5.65,.48-11.5-.19-17.02,1.22-1.26,.32-3.28,.37-4.65,.19-4.92-.67-9.48-.03-14.49,.48-3.44,.35-7.02,.64-10.58,.69l.11-6.37c3.23,.31,6.42,.82,9.46,1.64,1.35,.36,1.95,.61,3.37,.27,.47-.11,1.1-.12,1.77-.09,.31,.02,.62,.04,.93,.06,.31,0,.61,0,.9,0,14.44-.18,28.89,0,43.32,.41,3.93,.13,7.55,1.2,11.59,1.01,1.67-.08,3.59,.49,5.01-.27,.2-.1,.89-.14,1.2-.07,4.78,1.16,9.65,.05,14.43,.69,1.02,.14,2,.36,3.01,.52,1.04,.16,2.24,.46,3.13,.37,7.43-.76,14.97,.56,22.43,.71,2.54,.05,5.29,.74,7.61-.11,.35-.13,1.47-.05,1.95,.11,4.28,1.44,9.1,.81,13.58,1.38,2.3,.29,4.93-.21,6.95,.88,.26,.14,1.19,.09,1.77,.05,1.01-.06,2-.33,2.96-.26,2.68,.2,5.57,.9,7.95,.72,2.94-.22,5.7,.13,8.5,.29,1.61,.1,3.18,.67,4.81,.9,1.54,.21,3.14,.29,4.72,.42,2.25,.19,4.61,.28,6.72,.7,2.18,.49,4.07-.35,6.42,.66,1.79,.78,4.07,.11,6.18,.34,1.05,.11,2.14,.39,3.17,.65,.78,.22,1.49,.67,2.23,.77,1.68,.23,3.26,.69,5.13,.64,1.29-.05,3.38,.92,5.13,1.41,.87,.23,1.76,.44,2.65,.64l2.65,.66c1.77,.43,3.61,1.16,5.25,1.41,1.84,.24,3.57,.66,5.42,1.18,2.45,.67,4.76,1.66,7.1,2.56,.57,.23,1.19,.45,1.71,.7l-.75,1.75c-.52,1.15-.94,2.35-1.57,3.44l-1.75,3.32-1.74,2.57c-.27,.42-.56,.84-.88,1.25-.31,.41-.64,.83-.98,1.22-.34,.39-.69,.76-1.07,1.06-.4,.28-.83,.51-1.28,.66-.32,.11-1.1,.88-1.44,1.35-2.2,2.86-5.03,5.28-8.09,7.23-3.03,2.04-6.26,3.69-9.32,5.54-4.38,2.6-8.79,5.05-13.64,6.87-4.7,1.77-9.68,3.27-14.11,5.11-3.64,1.54-7.26,3.05-11.03,3.92-1.84,.44-3.51,1.34-5.22,2.09-1.72,.71-3.48,1.27-5.46,1.07-3.7,1.07-7.44,2.06-11.18,2.96-3.14,.78-6.3,1.86-9.56,1.77-1.19-.05-3.35,.51-4.52,1.02-3.77,1.69-7.65,2.34-11.78,2.6-.97,.07-2.09,.72-3.19,.94-3.33,.71-6.71,1.29-10.07,1.72-10.03,1.19-19.76,3.46-29.82,4.27-1.85,.16-3.84,1.05-5.49,.95-10.05-.36-20.24,1.02-30.18,.37-3.65-.32-7.3-.46-10.95-.67-3.63-.24-7.31-.38-10.91-.56-7.2-.37-14.4-.59-21.6-.97-1.87-.1-3.81-.91-4.71-.73-2.78,.54-5.92-.1-8.24,.3-4.18,.74-8.27,.03-12.36,.13-2.98,.08-6.17-.6-8.94,.32-.4,.13-1.43,.08-1.97-.05-4.36-1.06-8.74,.21-13.08-.36-8.29,.91-16.78-.16-25.17-.25-1.23-.02-2.44,.18-3.67,.26-.62,.04-1.36,.16-1.88,.06-7.54-1.53-15.46-1.04-23.15-1.86-2.54-.29-5-.8-7.54-1.09-2.56-.31-5.22-.24-7.57-1.18-.73-.29-2.22-.3-3.32-.3-5.95-.06-10.19-2.06-10.01-4.59,.06-.92,1.28-.86,2.57-1.08,2.51-.43,4.95-.62,7.91-.27,2.3,.24,4.8,.74,6.92,.03,.35-.12,1.4,0,1.95,.16,3.88,1.08,8.38,.77,12.09,1.55,2.85,.59,5.52,.64,8.26,.97,2.3,.26,4.72-.08,7,.84,.77,.31,3.08-.27,4.7-.24,3.82,.09,7.66,.21,11.46,.46,11.56,.8,23-.2,34.55,.46,8.28-.9,16.84,.37,25.1,.1,10-.32,19.95,.43,29.9,.69,2.05,.05,3.69,.16,5.46,.52,1.16,.24,2.39,.5,3.61,.56,4.69,.31,9.4,.2,14.09,.4,2.51,.06,5.32-.57,7.56,.48,.31,.14,1.45,.12,1.94-.02,2.05-.54,4.19-.77,6.37-.82,2.17-.08,4.37,.02,6.52-.2,1.64-.15,3.22-.21,5.02,.06,.98,.15,2.23,.16,3.48,.08,1.25-.11,2.51-.33,3.5-.61,1.5-.42,2.85-.55,4.29-.76,5.99-.94,12.39-.57,18.06-2.71,3.25,.73,7.02-.27,10.08-1.05,11.77-3.01,23.81-4.77,35.53-7.92,2.82-.79,5.81-1.01,8.7-1.72,3.03-.75,6.06-1.61,9.05-2.55,1.59-.51,3.57-.71,4.57-1.88,.07-.09,.35-.21,.52-.25,1.75-.38,3.58-.6,5.22-1.21,1.48-.53,2.69-1.51,4.15-2.14,1.75-.75,3.65-1.37,5.46-2.03,1.77-.61,3.57-1.48,5.25-1.32,1.06-1.34,3.2-1.74,4.91-2.48,1.59-.74,3.24-1.38,4.85-2.1,1.79-.84,3.6-1.64,5.33-2.56,1.77-.86,3.52-1.78,5.17-2.8,1.12-.72,2.16-1.53,3.23-2.3,1.05-.79,2.03-1.64,3.09-2.41,1.09-.84,2.13-1.72,3.23-2.55,1.01-.91,2.09-1.75,3.08-2.65l1.85-1.7c.61-.57,1.14-1.19,1.73-1.78,.28-.3,.59-.59,.85-.91l.76-.96,.38-.48c.13-.17,.26-.34,.33-.41,.19-.21,.26-.31,.38-.49,.38-.54,.43-1.08,.18-1.45-.07-.12-.2-.21-.32-.28-.01-.03-.1-.02-.17-.01h-.22c-.14,.02-.25,.03-.36,.03-.42,0-.45-.1-.45-.77,0-.13-.17-.23-.4-.3-.11-.03-.22-.06-.33-.09-.15-.04-.3-.08-.45-.12-.3-.07-.58-.13-.82-.16-1.89-.32-3.79-.62-5.65-1.09-1.87-.44-3.75-.9-5.61-1.41-3.76-.94-7.54-1.93-11.38-2.42-4.03-1.7-8.27-1.71-12.7-2.02-6.53-.44-13.46-.93-19.85-1.96-6.78-1.1-13.51-1.13-20.28-1.73-1.9-.17-3.99,.07-5.56-.87-.36-.21-1.81-.24-2.61-.16-5.56,.58-10.9,0-16.48-.9-2.94-.48-6.31-.32-9.6-.18-4.94,.2-10.27-.47-15.44-.77-2.17-1.17-3.97-.2-5.14,.19-1.56,.52-3,.55-4.81,.47-2.34-.1-4.63-.41-6.97,.16-1.2,.28-3.83,.09-5.08-.34-1.68-.57-2.33-.37-3.9-.12-1.85,.3-3.72-.75-6.04-.79-2.47-.06-5.38,.38-7.52-.79-.19-.1-.95-.12-1.3-.05-4.61,.97-9.12-.78-13.69-.38-6.8-.76-13.67-.91-20.54-.84-3.43,0-6.87,.1-10.3,.14l-2.67,.03c-.18,0-.36,0-.54-.02l-.35-.03-.64-.05-1.29-.1c-1.72-.14-3.43-.29-5.14-.47-2.68-.28-5.37-.7-8.05-1.06l.12-7.09c2.98,.07,5.95,.05,8.87-.32,11.69-1.49,23.48-1.23,35.21-1.91,2.48-.15,5.32-.75,7.61,.22,.32,.13,1.46,.07,1.95-.08,3.68-1.13,7.31-.99,11.08-.49,.92,.12,2.61,.03,3.15-.25,1.52-.79,3.35-.58,5.01-.64,2.01-.07,4.71,.46,5.89,.03,2.53-.9,4.01-.08,5.96-.03,1.21,.03,2.53-.23,3.78-.41,.59-.08,1.32-.44,1.67-.38,3.99,.72,7.81-.76,11.73-.57,.84,.04,1.73-.02,2.55,.05q9.29,.76,20.91-.4c3.25,1.14,6.91-.95,10.42-.13,1.28,.3,3.71,.1,5.28-.24,6.88-1.48,14.05-.95,21.02-1.64,1.46-.14,2.61,.67,4.44-.13,.69-.3,3.12,.34,4.71,.23,2.31-.16,4.76,.18,7.02-.78,.92-.39,3-.23,4.53-.38,2.1-.21,4.23,0,6.31-.81,1.14-.44,3.83-.6,5.17-.34,2.77,.55,5.39,.44,7.95,.1,.64-.09,1.28-.18,1.91-.29l.24-.04,.09-.03,.17-.07,.31-.14c.39-.19,.66-.37,.88-.51,.29-.16,.28-.3,1.03-.12,.53,.12,1.27,.25,1.88,.3,.28,0,.6,.11,.62-.13,.02-.17,.11-.37-.36-.49-2.58-.93-2.03-.93-3-1.56-.93-.58-1.76-1.17-2.63-1.78l-3.14-2.02-3.24-2.02c-2.49-1.5-4.97-2.99-7.46-4.5-2.51-1.47-5.12-2.79-7.85-3.94-2.95-1.19-6.79-2.81-9.32-5.4-.28-.28-1.82-.32-2.66-.73l-4.94-2.4-4.99-2.28c-3.31-1.57-6.69-2.97-10.03-4.47-1.53-.71-2.84-2.41-4.62-2.15-1.89,.29-2.85-2.16-4.56-1.58-.24,.07-1.68-.48-2.38-.86-7.6-4.25-16.33-6.14-24.52-9.04-1.98-.66-4.39-.89-5.71-2.3-2.68-.26-5.32-1.23-7.95-2.16-1.32-.46-2.64-.92-3.98-1.2-1.34-.28-2.69-.42-4.05-.31-1.82-.59-3.76-.94-5.67-1.32-1.92-.38-3.79-.86-5.45-1.83-.54-.31-1.87-.33-2.5-.64-2.15-1.03-3.93,.42-6.5-1.03-.74-.42-1.87-.7-3.11-.94-1.25-.21-2.6-.38-3.78-.61-2.19-.41-4.39-.81-6.59-1.16l-7.27-1.14c-2.42-.38-4.87-.74-7.29-.99-1.23-.12-2.46-.22-3.69-.28l-3.69-.15c-2.46-.1-4.92-.33-7.43-.68-.54-.08-1.48-.03-1.7,.13-1.84,1.34-4.26,.28-5.92-.32-1.4-.48-2.6-.73-4.16-.84-4.23-.26-8.46-.52-12.68-.77-2.5-.2-5.19,.23-7.55-.8-.73-.32-2.75-.31-3.89-.13-5.31,.92-10.81,.26-16.2,.52-2.44,.09-4.9,.09-7.35,.17-1.86,.04-3.69,.75-5.58,.2-8.99,1.66-18.28,1.44-27.39,2.58-4.52,.51-9.08,1.15-13.62,1.66l-13.62,1.79c-2.27,.32-4.71,1.22-6.88,.54-.41-.13-2.04,.15-2.49,.42-1.23,.75-2.18,1.19-3.78,.71-.3-.09-1.5,.29-2.14,.55-1.77,.73-3.42,.99-5.4,.98-1.54,0-3.58,.19-5,.66-3.78,1.36-7.34,2.61-11.45,2.39-.51-.04-1.68,.91-2.54,1.1-3.35,.66-6.61,2-10.12,2-1.44,0-3.35,.8-5.05,1.15-2.92,.63-5.52,1.87-8.61,2.42-3.12,.61-6.37,1.86-9.56,2.83-3.19,.97-6.31,2.13-9.48,3.18-1.57,.56-3.17,1.04-4.71,1.65l-4.66,1.79-4.66,1.79c-1.56,.58-3.06,1.3-4.59,1.94l-4.58,1.97c-1.53,.66-3.06,1.3-4.54,2.05l-8.96,4.34c-2.04,1.1-3.98,2.03-6.22,2.79-1.43,.49-2.91,1.08-4.43,1.78-1.49,.74-2.99,1.63-4.56,2.58-1.56,.96-3.18,2.02-4.84,3.17-1.66,1.16-3.27,2.55-4.99,3.96-.49,.41-1.08,.76-1.63,1.13-3.63,2.36-6.86,5.14-10.25,7.74l-1.26,.98c-.4,.33-.9,.65-1.17,.98l-.97,.96c-.33,.31-.66,.63-.94,1-.56,.73-1.24,1.39-1.7,2.19l-.77,1.15c-.26,.38-.43,.81-.66,1.21-1.52,2.82-2.73,6.04-2.74,9.55-.04,.57,0,1.14,.03,1.71,.04,.57,.03,1.13,.12,1.7,.2,1.13,.4,2.25,.98,3.32,.81,1.75,.76,4.63,2.42,6.45,.32,.32,.68,.99,.97,1.71,.3,.72,.61,1.49,.71,2.05,.09,.47,.2,.93,.36,1.37l.24,.67,.06,.17s0,.05,.02,.07l.03,.13c.02,.08,.04,.17,.08,.24l.17,.18,.12,.11,.32,.28,.65,.55c1.74,1.49,3.43,3.06,4.84,4.7,1.54,1.82,3.08,3.65,4.62,5.48l.96,1.1,.2,.22c.07,.06,.18,.08,.26,.12,.01,0,.06,.03,.05,.02l-.04-.02s.03,.02,.05,.02l.13,.06,.5,.24c.34,.15,.65,.33,.98,.51,.64,.35,1.26,.73,1.84,1.13,2.3,1.58,3.85,3.55,6.05,4.47,.54,.23,1.25,.82,1.95,1.47l.52,.5,.26,.25c.08,.08,.19,.18,.18,.19,.05,.08,.03,.11,.15,.22,.1,.09,.34,.27,.48,.39,2.02,1.61,4.29,2.81,6.58,3.59,4.86,1.81,4.86,1.65,9.35,4.16,.53,.31,1.15,.55,1.75,.77,5.93,2.32,12.08,4.67,18.19,5.92,2.56,.49,5.07,1.01,7.56,1.59,2.5,.53,5,1.07,7.51,1.6,2.01,.39,4.41,.41,5.92,1.72,.22,.19,1.37,.36,1.89,.32,4.42-.32,8.92,.92,13.35,1.47,2.15,.23,4.24,.26,6.33,.28,2.1-.01,4.2,0,6.39,.31,2.06,.24,4.15,.37,6.25,.49,2.1,.1,4.21,.11,6.3,.2,6.36,.13,7.73,.7,7.71,3.45,0,2.26-1.65,2.73-6.9,3.14-11.16,.73-22.28-1.07-31.26-2.05Z"/>
        </g>
        <g class="cls-12">
          <g class="cls-12">
            <path class="cls-5" d="M93.91,173.14c-5.39-1.58-10.53-4.5-15.13-5.86-.5-.16-1.02-.33-1.55-.51l.71,.42c5.38,3.16,11.72,5.78,17.89,7.38,.96,.22,1.93,.43,2.92,.61,.99,.16,1.99,.31,2.99,.47,2,.37,4.08,.6,6.2,1.08,.47,.1,.59-.19,.65-.34-.39-.28-.71-.57-.99-.85-3.47-.48-6.95-.98-10.44-1.96-1.14-.36-2.56-.22-3.25-.44Z"/>
            <polygon class="cls-8" points="107.72 175.61 107.67 175.56 107.14 175.48 107.72 175.61"/>
            <path class="cls-4" d="M99.22,174.21c-1.16-.2-2.27-.54-3.38-.86-.77-.07-1.5-.07-1.94-.2-5.39-1.58-10.53-4.5-15.13-5.86-.5-.16-1.01-.33-1.53-.5l.76,.45,1.41,.83,1.47,.76c1,.5,2,1,3,1.5,.12,.04,.24,.07,.35,.09,1.25,.26,2.24,.93,3.36,1.39,3.28,1.04,5.94,2.17,9.31,2.94,1.19,.31,2.53,.27,3.93,.63,.48,.11,.94,.23,1.39,.37,1.87,.35,3.81,.55,5.78,1.01,.47,.1,.59-.19,.65-.34-.2-.15-.38-.3-.55-.45-1.58-.38-3.19-.65-4.81-1.04-1.42-.26-2.85-.53-4.28-.84,.05,.04,.12,.08,.2,.13Z"/>
            <path class="cls-8" d="M99.2,173.72c-.2-.05-.5,.11-.19,.37,1.44,.31,2.86,.58,4.28,.84-1.35-.35-2.72-.73-4.1-1.21Z"/>
            <path class="cls-9" d="M99.7,172.7c-2.68-.89-5.4-1.22-7.5-2.28-1.11-.53-2.18-1.08-3.03-1.77-.36-.14-.72-.27-1.08-.4-8.96-3.13-17.45-7.69-24.68-13.62-.9-.75-1.81-1.45-2.73-2.13-.93-.67-1.78-1.41-2.7-2.09-1.85-1.34-3.57-2.86-5.43-4.42-1.98-2.07-3.27-4-4.77-6.36-.99-1.43-1.87-2.85-2.84-4.18-.99-1.32-1.96-2.62-2.89-3.95-1.86-2.65-3.65-5.46-4.67-8.9-.5-1.85-1.74-1.96-1.69-1.47,.61,3.12,1.72,6.02,3.07,8.72,1.35,2.71,2.91,5.25,4.62,7.67,3.35,4.9,7.23,9.45,11.81,13.47,7.14,6.19,14.4,11.29,22.02,15.78,.53,.17,1.04,.34,1.55,.51,4.6,1.36,9.74,4.29,15.13,5.86,.69,.22,2.11,.08,3.25,.44,3.49,.98,6.97,1.49,10.44,1.96-.6-.59-1.07-1.16-1.71-1.63-2.13-.19-4.22-.61-6.19-1.21Z"/>
            <path class="cls-7" d="M99.7,172.7c1.97,.6,4.06,1.02,6.19,1.21-.31-.23-.66-.44-1.09-.61-4.87-1.77-10.55-2.86-15.63-4.64,.85,.69,1.92,1.25,3.03,1.77,2.09,1.06,4.82,1.38,7.5,2.28Z"/>
            <path class="cls-4" d="M99.7,172.7c.94,.3,1.91,.53,2.89,.73,.49,.09,.98,.18,1.49,.27,.5,.06,1,.12,1.51,.18-.65-.21-1.33-.36-2-.55-3.43-.87-6.91-1.72-10.12-3.11,1.77,.64,3.59,1.09,5.39,1.63,1.82,.48,3.66,.89,5.5,1.29-4.78-1.68-10.27-2.76-15.2-4.49,.85,.69,1.92,1.24,3.02,1.77,2.09,1.06,4.82,1.38,7.5,2.28Z"/>
            <path class="cls-3" d="M94.13,171.29c4.02,1.39,8.15,2.63,12.47,3.18-.16-.15-.32-.3-.49-.44-.18-.06-.34-.11-.52-.16-.51-.06-1.01-.12-1.51-.18-.5-.09-1-.18-1.49-.27-.99-.2-1.96-.43-2.89-.73-2.68-.89-5.4-1.22-7.5-2.28-1.1-.53-2.17-1.08-3.02-1.77-.34-.13-.68-.25-1.01-.38-4.59-1.57-9.02-3.58-13.26-5.9-.96-.43-1.93-.9-2.9-1.4-.95-.54-1.89-1.12-2.82-1.72-.46-.3-.93-.61-1.4-.91l-1.34-1.01c-.89-.68-1.76-1.37-2.61-2.06,.85,.6,1.69,1.19,2.54,1.79,.85,.6,1.71,1.18,2.61,1.7-.98-.61-1.89-1.31-2.81-2-.91-.7-1.85-1.35-2.71-2.1-1.51-1.29-3.12-2.35-4.61-3.57-.49-.04-1.12-.27-1.98-.93-.68-.5-1.3-1.07-1.91-1.64-.62-.56-1.26-1.12-1.97-1.63-.16-.17,.04-.3-.29-.64,.92,.95,1.8,1.61,2.64,2.09-.9-.76-1.81-1.53-2.73-2.3-.79-.8-1.45-1.61-2.07-2.41-.63-.8-1.22-1.6-1.76-2.49l-.43-.51c-.71-.85-1.53-1.64-2.32-2.46,.24,.39,.54,.74,.83,1.13-.59-.48-1.12-1.27-1.5-1.87,.22,.25,.45,.49,.67,.73-.6-.92-1.18-1.8-1.82-2.77,.79,1.17,1.68,2.32,2.51,3.2-.79-1.03-1.49-2.06-2.21-3.08-.72-1.01-1.37-2.06-1.92-3.21l.13,.14c-2.09-2.92-4.19-5.95-5.32-9.78-.5-1.84-1.74-1.96-1.69-1.46,.87,4.36,2.7,8.26,4.8,11.85,2.13,3.59,4.55,6.94,7.15,10.18-.45-.85-.91-1.69-1.36-2.54-.22-.35-.42-.7-.57-1.04l.57,1.04c.61,.94,1.37,1.92,2.05,2.92,.09,.22,.56,.77,.92,.84,.95,1.36,2.39,2.72,3.45,3.99,.07,.07,.14,.24,.22,.43,.77,.72,1.5,1.48,2.31,2.15,4.42,3.92,9,7.29,13.61,10.43-1.05-.85-2.07-1.65-2.91-2.54-.56-.61-1.58-1.34-2.77-2.13-1.17-.81-2.46-1.74-3.63-2.6-.62-.4-.79-.87-1.31-1.36,1.14,.62,2.35,1.42,3.49,2.38,1.13,.97,2.35,1.92,3.56,2.72,1.56,1.12,3.46,2.43,5.41,3.76,.97,.67,2.01,1.24,3.02,1.81,1.01,.56,2,1.08,3,1.42,1.63,.58,2.93,1.6,4.1,2.39-.54-.06-1.39-.5-1.81-.73-1.91-1.01-3.82-1.99-5.67-3.12-1.89-1.05-3.7-2.23-5.55-3.37,.9,.67,1.82,1.32,2.74,1.95,.92,.63,1.89,1.16,2.84,1.75,1.88,1.18,3.85,2.19,5.77,3.4-1.19-.59-2.33-1.25-3.46-1.88-1.12-.64-2.2-1.29-3.38-1.75,.15,.15,.31,.3,.47,.45,.74,.47,1.47,.94,2.21,1.42,.75,.44,1.5,.89,2.26,1.33,.52,.17,1.03,.34,1.53,.5,4.6,1.36,9.74,4.29,15.13,5.86,.44,.14,1.17,.13,1.94,.2-1.73-.49-3.38-1.19-5.09-1.76,.66,.3,1.28,.63,1.83,1-1.62-.53-2.83-1.23-4.42-1.82,.9,.29,1.74,.56,2.59,.82-.49-.23-1.01-.44-1.53-.66-.51-.24-1.03-.47-1.55-.71,2.13,.59,3.86,1.78,6.1,2.14-.45-.15-.89-.31-1.32-.49l1.35,.49h-.03c1.38,.41,2.81,.65,4.09,.87-1.19-.34-2.3-.74-3.4-1.14-1.09-.43-2.16-.89-3.31-1.27l-1.15-.35c.39,.11,.77,.22,1.15,.35,2.65,.85,5.27,1.68,7.93,2.54,1.33,.38,2.67,.76,4.01,1.14,1.33,.39,2.7,.66,4.05,.99l.52,.08c-.13-.13-.26-.26-.39-.39-4.51-.88-8.96-2.31-13.15-3.87Z"/>
          </g>
        </g>
        <g class="cls-12">
          <g class="cls-12">
            <path class="cls-5" d="M530,207.73c-5.39,2.14-11.35,3.86-15.58,6.57-.47,.29-.95,.59-1.44,.9l.81-.29c6.1-2.2,12.59-4.83,18.69-7.18,3.73-1.57,7.51-3.35,11.89-4.34,.48-.11,.48-.44,.47-.6-.48-.08-.9-.2-1.3-.33-3.54,1.07-6.96,2.4-10.53,3.67-1.19,.4-2.3,1.36-3.01,1.6Z"/>
            <polygon class="cls-8" points="543.69 202.46 543.62 202.44 543.08 202.6 543.69 202.46"/>
            <path class="cls-4" d="M535.16,205.45c-1.13,.48-2.28,.87-3.41,1.28-.69,.41-1.31,.84-1.75,1-5.39,2.14-11.35,3.86-15.58,6.57-.46,.29-.94,.58-1.42,.89l.87-.31c2.11-.76,4.27-1.58,6.44-2.41,.11-.06,.22-.13,.33-.19,1.12-.71,2.33-.92,3.5-1.37,3.23-1.49,6.07-2.35,9.35-3.68,1.18-.44,2.31-1.25,3.76-1.65,.49-.16,.96-.29,1.42-.41,1.84-.7,3.75-1.33,5.79-1.79,.48-.11,.48-.44,.47-.6-.25-.04-.48-.1-.71-.16-.83,.18-1.66,.38-2.5,.59-.83,.23-1.66,.46-2.5,.69-1.44,.52-2.87,1.04-4.3,1.56,.07,0,.15,0,.25,0Z"/>
            <path class="cls-8" d="M534.87,205.05c-.21,.07-.38,.37,.04,.41,1.43-.52,2.87-1.04,4.3-1.56-1.41,.41-2.85,.79-4.34,1.15Z"/>
            <path class="cls-9" d="M534.75,203.92c-2.93,.81-5.48,2.22-7.9,2.84-1.26,.35-2.53,.61-3.69,.75-.38,.16-.76,.33-1.14,.49-9.36,4.14-18.47,8.63-27.86,12.04-4.68,1.77-8.82,3.87-13.6,5.73-2.88,.96-5.33,1.27-8.25,1.69-3.66,.5-6.97,1.24-10.36,1.9-3.39,.64-6.86,1.21-10.66,1.22-2.04,0-2.43,1.23-1.92,1.27,12.98,.49,25.18-1.71,37.15-6.25,9.27-3.53,17.81-7.27,26.47-10.41,.49-.31,.97-.61,1.44-.9,4.24-2.71,10.19-4.44,15.58-6.57,.71-.24,1.82-1.2,3.01-1.6,3.57-1.26,6.99-2.6,10.53-3.67-.83-.26-1.54-.57-2.37-.7-2.16,.79-4.28,1.6-6.42,2.16Z"/>
            <path class="cls-7" d="M534.75,203.92c2.14-.56,4.27-1.37,6.42-2.16-.41-.06-.85-.08-1.34-.03-5.59,.84-11.37,3.51-16.67,5.77,1.16-.13,2.43-.4,3.69-.75,2.42-.62,4.98-2.02,7.9-2.84Z"/>
            <path class="cls-4" d="M534.75,203.92c2.04-.53,4.07-1.3,6.12-2.05-.73,.13-1.45,.3-2.18,.49-3.69,1.01-7.29,2.35-10.91,3.39,3.8-1.43,7.65-2.74,11.56-3.95-5.45,.92-11.03,3.51-16.18,5.7,1.16-.13,2.43-.4,3.68-.75,2.42-.62,4.98-2.02,7.9-2.84Z"/>
            <path class="cls-3" d="M529.02,206.15c4.32-1.44,8.67-2.79,13.1-4.21-.22-.07-.44-.12-.67-.17-.19,.03-.38,.07-.57,.1-2.05,.75-4.08,1.52-6.12,2.05-2.93,.81-5.48,2.22-7.9,2.84-1.26,.35-2.53,.61-3.68,.75-.36,.15-.72,.31-1.07,.46-4.76,2.15-9.5,4.29-14.21,6.43-3.95,2.18-8.46,4.07-12.9,5.59,2.04-.83,4.08-1.71,6.1-2.64-2.27,.94-4.55,1.84-6.84,2.68-1.98,.75-3.87,1.56-5.74,2.39-.29,.42-.83,.88-1.89,1.34-1.65,.7-3.31,1.25-4.97,2.04-.24,.07-.26-.17-.74-.03,1.34-.39,2.39-.88,3.26-1.45-1.14,.5-2.31,.97-3.5,1.44-2.26,.77-4.27,1.1-6.43,1.43-.23,.07-.45,.13-.68,.19-1.14,.28-2.26,.71-3.41,1.07,.48-.08,.96-.16,1.46-.27-.73,.33-1.73,.47-2.46,.6,.33-.11,.67-.22,1-.33-1.15,.19-2.24,.4-3.46,.55,1.49-.18,2.96-.64,4.19-.99-2.69,.55-5.17,1.12-7.88,1.18l.2-.07c-3.75,.74-7.57,1.45-11.8,1.47-2.04,0-2.43,1.23-1.92,1.27,9.07,.34,17.74-.68,26.23-2.82-.99,.09-2,.15-3.01,.21-.43,.06-.85,.09-1.25,.09l1.25-.09c1.18-.14,2.44-.48,3.7-.67,.25,.02,1-.15,1.22-.46,1.73-.28,3.67-1.06,5.38-1.41,.1-.03,.29-.02,.51,0,1.04-.38,2.07-.75,3.12-1.14,5.8-2.21,11.31-4.49,16.74-6.67-1.35,.43-2.66,.81-3.9,1.1-1.69,.35-4.91,2.03-7.73,3.22-.7,.33-1.21,.27-1.93,.52,2.27-1.55,5.63-2.39,8.42-3.67,3.72-1.64,9.16-3.42,12.99-5.62,1.58-.92,3.26-1.36,4.7-1.7-.44,.35-1.36,.74-1.83,.93-4.19,1.74-8.36,3.52-12.53,5.39,4.48-1.58,8.61-3.59,13.09-5.11-2.54,1.14-5.16,1.9-7.4,3.27,.22-.03,.45-.08,.67-.12,1.71-.66,3.41-1.3,5.12-1.93,.49-.3,.96-.6,1.42-.89,4.24-2.71,10.19-4.44,15.58-6.57,.45-.16,1.06-.6,1.75-1-1.78,.6-3.56,1.18-5.31,1.87,.73-.21,1.45-.36,2.13-.44-1.64,.66-3.1,.89-4.73,1.59,.86-.43,1.73-.8,2.6-1.15-1.09,.31-2.23,.71-3.36,1.1,2.05-1.13,4.27-1.29,6.32-2.5-.46,.18-.93,.35-1.4,.49l1.42-.51h-.03c1.42-.52,2.78-1.18,4.03-1.76-2.47,.86-4.79,1.38-7.17,2.33l-1.17,.51c.39-.18,.78-.35,1.17-.51,5.43-2.27,11.13-3.87,16.83-5.15l.53-.16c-.18-.06-.37-.12-.55-.18-4.73,1.12-9.49,2.48-14.05,3.89Z"/>
          </g>
        </g>
        <g class="cls-12">
          <g class="cls-12">
            <path class="cls-5" d="M580.23,187.45c-1.6,1.16-3.76,1.52-4.86,2.98-.13,.15-.26,.31-.39,.48l.28-.08c2.14-.63,4.3-1.71,6.08-3.09,1.04-.95,1.89-2.19,3.18-3,.14-.09-.02-.36-.11-.49-.24-.08-.47-.18-.7-.29-.89,.86-1.75,1.77-2.8,2.49-.37,.2-.47,.89-.7,1.01Z"/>
            <polygon class="cls-8" points="583.79 183.96 583.75 183.94 583.61 184.06 583.79 183.96"/>
            <path class="cls-4" d="M581.59,186.06c-.29,.31-.62,.55-.97,.75-.14,.26-.24,.57-.38,.65-1.6,1.16-3.76,1.52-4.86,2.98-.13,.15-.26,.31-.38,.47,.1-.03,.2-.06,.3-.09,.75-.21,1.48-.5,2.21-.81l.09-.1c.28-.39,.76-.38,1.14-.58,.96-.75,1.93-1.11,2.86-1.9,.33-.28,.5-.84,.94-1.1,.14-.1,.29-.19,.44-.26,.47-.49,.97-.97,1.57-1.34,.14-.09-.02-.36-.11-.49-.13-.04-.25-.09-.37-.14-.5,.28-.96,.62-1.45,.94-.37,.35-.75,.69-1.16,1.01,.03,.01,.07,.02,.11,.02Z"/>
            <path class="cls-8" d="M581.28,185.69c-.06,.04,0,.28,.2,.35,.4-.32,.79-.66,1.16-1.01-.41,.26-.85,.5-1.35,.66Z"/>
            <path class="cls-9" d="M580.73,184.73c-.89,.44-1.47,1.27-2.3,1.46-.43,.11-.91,.12-1.38,.05-.11,.07-.23,.15-.34,.22-2.7,1.91-5.64,3.5-8.77,4.45-1.54,.56-2.75,1.59-4.2,2.52-.92,.42-1.79,.34-2.79,.42-2.48,.14-4.13,1.97-6.5,2.94-.63,.26-.46,1.51-.29,1.49,4.05-1.42,8.07-2.04,11.94-3.92,2.98-1.43,5.85-2.56,8.88-3.45,.13-.16,.26-.32,.39-.48,1.1-1.46,3.26-1.82,4.86-2.98,.22-.12,.33-.81,.7-1.01,1.05-.71,1.91-1.63,2.8-2.49-.47-.23-.9-.5-1.3-.63-.49,.58-1.01,1.13-1.69,1.41Z"/>
            <path class="cls-7" d="M580.73,184.73c.68-.28,1.2-.83,1.69-1.41-.2-.07-.39-.1-.56-.08-1.86,.44-3.24,1.97-4.81,3,.47,.08,.95,.07,1.38-.05,.83-.19,1.42-1.03,2.3-1.46Z"/>
            <path class="cls-4" d="M580.73,184.73c.65-.27,1.15-.78,1.62-1.33-.23,.08-.45,.18-.66,.31-1.06,.63-2.05,1.38-3.25,1.75,1.12-.67,2.21-1.38,3.25-2.19-1.78,.49-3.12,1.97-4.64,2.97,.47,.08,.94,.06,1.37-.05,.83-.19,1.42-1.03,2.3-1.46Z"/>
            <path class="cls-3" d="M579.16,185.97c1.35-.64,2.65-1.4,3.74-2.48-.12-.06-.24-.11-.35-.16-.07,.02-.13,.04-.19,.06-.47,.55-.98,1.06-1.62,1.33-.89,.44-1.47,1.27-2.3,1.46-.43,.11-.91,.12-1.37,.05l-.32,.2c-1.38,.97-2.82,1.86-4.32,2.63-1.13,1.01-2.63,1.61-4.14,1.96,.67-.27,1.32-.59,1.95-.95-.74,.31-1.49,.58-2.26,.81-.65,.24-1.24,.56-1.82,.92-.02,.32-.13,.64-.45,.85-.5,.33-1.06,.49-1.53,.96-.08,.02-.15-.2-.3-.16,.44-.13,.74-.42,.96-.76-.35,.24-.72,.48-1.06,.71-.72,.33-1.42,.34-2.16,.39l-.21,.1c-.36,.15-.69,.39-1.02,.66,.16-.04,.31-.08,.48-.12-.2,.21-.53,.29-.77,.35,.1-.08,.19-.16,.29-.23-.37,.09-.73,.18-1.13,.27,.49-.1,.93-.38,1.29-.63-.86,.3-1.63,.62-2.55,.66l.05-.06c-1.14,.63-2.24,1.45-3.55,1.98-.63,.26-.46,1.51-.29,1.49,2.84-.99,5.63-1.59,8.4-2.51-.37-.06-.74-.12-1.1-.17-.15,0-.3-.01-.45-.06,.15,.02,.3,.04,.45,.06,.41,0,.81-.17,1.25-.17,.1,.05,.35-.01,.37-.26,.61,0,1.2-.41,1.8-.44,.03-.01,.11,.04,.2,.09,.33-.15,.66-.3,1.01-.46,1.86-.91,3.69-1.67,5.53-2.35-.49,.06-.97,.1-1.44,.08-.65-.08-1.62,.68-2.52,1.17-.21,.15-.45-.02-.69,.06,.58-.93,1.79-.96,2.69-1.45,1.19-.62,3.16-.9,4.24-2,.44-.46,1.07-.48,1.62-.48-.08,.22-.39,.35-.55,.42-1.38,.63-2.76,1.23-4.11,1.92,1.58-.36,2.87-1.18,4.46-1.56-.82,.46-1.78,.55-2.41,1.23,.09,.02,.18,.04,.27,.05,.56-.18,1.15-.36,1.78-.56,.13-.16,.25-.32,.38-.47,1.1-1.46,3.26-1.82,4.86-2.98,.14-.08,.24-.38,.38-.65-.55,.31-1.12,.57-1.66,.9,.26-.06,.52-.1,.8-.07-.48,.36-1.08,.3-1.57,.65,.24-.23,.5-.41,.77-.57-.39,.09-.75,.26-1.13,.4,.52-.62,1.48-.41,1.92-1.19-.14,.09-.28,.17-.44,.23l.44-.24h0c.42-.27,.77-.66,1.06-1.04-.72,.48-1.56,.62-2.26,1.08-.11,.08-.22,.16-.34,.25,.11-.09,.22-.17,.34-.25,1.57-1.14,3.4-1.87,5.07-2.89l.14-.13-.31-.16c-1.36,.86-2.81,1.62-4.28,2.2Z"/>
          </g>
        </g>
      </g>
    </g>
  </g>
</svg>