<?xml version="1.0" encoding="UTF-8"?>
<svg id="_Слой_2" data-name="Слой 2" xmlns="http://www.w3.org/2000/svg" xmlns:xlink="http://www.w3.org/1999/xlink" viewBox="0 0 576.85 244.13">
  <defs>
    <style>
      .cls-1 {
        fill: none;
      }

      .cls-2 {
        clip-path: url(#clippath);
      }

      .cls-3 {
        fill: #f3f9fb;
      }

      .cls-4 {
        fill: #f7fbfc;
      }

      .cls-5 {
        fill: #f8fcfd;
      }

      .cls-6 {
        fill: #66af66;
      }

      .cls-7 {
        fill: #f4fafb;
      }

      .cls-8 {
        fill: #f5fafb;
      }

      .cls-9 {
        fill: #fbfdfe;
      }

      .cls-10 {
        fill: #6e7c6e;
      }

      .cls-11 {
        opacity: .49;
      }

      .cls-12 {
        opacity: .8;
      }
    </style>
    <clipPath id="clippath">
      <rect class="cls-1" width="576.85" height="244.13"/>
    </clipPath>
  </defs>
  <g id="_лягушки" data-name="лягушки">
    <g class="cls-2">
      <g class="cls-11">
        <path class="cls-10" d="M193.43,230.62c30.29-30.97,68.45-59.1,103.84-85.92-27.57,24.44-46.02,57.31-55.65,90.1l1.72,1.03c101.64,2.88,180.8-.12,264.82-48.57,12.21-7.04,24.51-16.23,26.55-28.61,3.09-18.7-18.03-33.43-37.54-42.6-43.85-20.62-114.2-32.43-163.82-38.72l-5.9-1.1c-44.61-2.59-79.33-1.06-123.64,4.03-44.31,5.09-88.45,18.48-121.3,44.14-22.29,17.42-38.86,46.72-22.12,68.12,4.79,6.12,21.69,33.8,135.67,39.79"/>
        <path class="cls-10" d="M215.08,207.55c7.05-6.23,12.94-11.15,18.77-16.12,.9-.78,1.6-2.03,2.78-2.97,4.66-3.75,9.17-7.99,14.08-11.08,5.35-3.38,10.37-7.18,14.89-11.16,4.28-3.79,8.82-7.08,13.24-10.59,1.48-1.18,2.9-2.39,4.9-3.16,1.46-.56,3.69-2.19,4.85-4.03,.23-.36,1-.75,1.54-1.07,.58-.35,1.41-.56,1.74-.94,1.18-1.36,2.51-2.57,3.91-3.71l3.14,3.83c-1.35,1.33-2.78,2.58-4.21,3.84-1.44,1.25-2.77,2.62-4.04,4-.46,.51-1.02,.98-1.5,1.48-.46,.52-.83,1.1-.95,1.79-.06,.36-.94,1.37-1.35,1.54-1.06,.46-1.9,1.17-2.75,2.18-1.82,2.2-3.73,4.32-5.46,6.59l-2.65,3.36-2.53,3.46c-.86,2.81-2.91,5.2-4.61,7.66-1.2,1.89-2.68,3.6-4.04,5.4-1.31,1.86-1.97,4.28-3.83,5.73-.29,.24-.46,1.14-.75,1.7-.62,1.28-1.25,2.59-1.87,3.88-.61,1.3-1.22,2.56-1.97,3.69-.76,1.16-1.54,2.31-2.09,3.57-1.87,4.02-3.62,8.11-5.23,12.24-.77,2.08-1.62,4.13-2.31,6.24l-1.09,3.15c-.2,.59-.33,.92-.43,1.29l-.34,1.11-.69,2.22-.17,.56c-.08,.11,.09,.13,.15,.19l.25,.15,.5,.3,.25,.15c.09,.02,.19,.01,.29,.02l5.01,.12,13.42,.3c1.56,.02,3.04,.16,4.7-.4,1.3-.44,4.11-.42,5.35,.06,1.99,.77,3.88,.5,5.8,.57,3.53,.1,7.08-.03,10.62,.06,2.1,.05,4.43-.46,6.28,.56,.18,.1,.85,.1,1.07,0,2.32-1,4.59-.24,6.93-.14,1.69,.07,3.4,.02,5.24-.49,1.79-.51,4.79-.61,6.47-.17,2.24,.59,4.28,.29,6.36,.21l9.22-.33c3.07-.15,6.13-.37,9.2-.56,3.07-.21,6.14-.38,9.2-.63l9.17-.92c1.45-.15,2.88-.35,4.31-.57l2.14-.34,2.13-.42c2.84-.56,5.69-1.07,8.62-1.27,1.39-.1,2.85-.67,4.19-.13,.28,.11,1.38-.11,1.79-.37,1.48-.89,3.08-.92,4.86-1.19,2.02-.3,4.05-.6,6.08-.9,2.03-.32,4.08-.55,6.07-1,4.01-.82,8-1.73,11.85-2.86,.75-.21,1.5-.42,2.25-.63l2.23-.68c1.48-.44,2.97-.85,4.45-1.25,2.97-.8,5.94-1.56,8.9-2.41,1.94-.66,4.06-.82,6.09-1.34,1.96-.51,3.91-1.17,5.85-1.81,1.15-.39,2.38-.56,3.34-1.45,.51-.49,2.11-1.18,2.86-1.19,2.51-.02,4.79-1.21,7.12-2.04l4.97-1.8c1.66-.59,3.26-1.35,4.89-2.02l9.75-4.11c1.62-.63,3.17-1.87,4.94-1.76,.24,.02,1.02-.67,1.56-1.03,.57-.38,1.22-.97,1.72-1.07,2.3-.48,4.47-1.4,6.59-2.44,1.06-.53,2.11-1.06,3.15-1.63,1.02-.6,2.04-1.19,3.07-1.74l7.49-4.04c2.49-1.36,5-2.69,7.4-4.17,4.8-2.94,9.47-6.12,13.57-9.88,2.3-2.12,3.55-4.63,5.21-6.99,1.62-2.31,2.78-4.87,3.54-7.49,.53-1.9,.38-3.91,1.21-5.75,.26-.51,.11-1.98-.2-2.53-1.18-2.03-1.46-4.38-2.6-6.45-.66-1.25-1.33-2.53-2.12-3.75-.82-1.19-1.76-2.32-3.05-3.08-.67-.42-1.29-1.84-2.1-2.71-1.38-1.5-2.89-2.92-4.52-4.19-.78-.61-1.74-.95-2.55-1.53-6.23-4.43-13.11-7.98-20.11-11.22l-5.43-2.37c-1.81-.79-3.6-1.62-5.46-2.32-3.69-1.45-7.35-2.97-11.13-4.23l-5.63-1.96-5.69-1.8c-3.78-1.25-7.62-2.32-11.43-3.48-2.86-.9-6.18-1.01-8.54-2.9-2.85,0-5.07-1.06-7.23-2.4-.31-.2-1.24-.07-1.89-.12-2.04-.17-4.19,.56-6.05-1.26-.07-.07-.36-.07-.53-.13-1.77-.59-3.33,.44-5.46-.87-1.33-.81-3.7-1.14-5.62-1.59-1.99-.46-4-.93-6.01-1.23-2.07-.31-4.19-1.4-6.31-.78-.34,.1-1.72-.88-2.63-1-2.32-.32-4.62-.94-6.93-1.43-2.32-.47-4.65-.82-7.02-.64-1.09,.08-2.72-.25-3.78-.67-3.84-1.51-7.65-1.72-11.8-2.06-5.46-.44-11.25-1.18-16.37-3.18-1.09-.43-1.56-.71-2.76-.44-.79,.18-2.09-.07-3.15-.21l-8.87-1.21-4.47-.58c-1.49-.22-2.98-.33-4.46-.65l-4.43-.83c-.31-.07-1.25-.08-1.95-.13l-2.23-.12c-2.97-.17-5.95-.3-8.92-.42-3.24-.15-6.22-1.18-9.56-.93-1.37,.1-2.97-.41-4.13,.37-.16,.11-.73,.16-.99,.1-3.97-1.03-7.96,.28-11.91-.13-.85-.08-1.66-.26-2.5-.35-.86-.1-1.87-.33-2.6-.19-6.08,1.19-12.36,.47-18.51,.99-2.09,.19-4.42-.25-6.24,.82-.27,.16-1.2,.2-1.61,.09-3.65-1.01-7.54,.13-11.28,.08-1.92-.05-4.02,.78-5.8-.07-.23-.11-.99,.05-1.46,.15-.82,.18-1.6,.56-2.39,.61-2.21,.14-4.67-.19-6.58,.29-2.37,.61-4.65,.67-6.96,.91-1.32,.14-2.68-.17-4.04-.13-1.28,.03-2.59,.25-3.89,.38-1.85,.18-3.76,.58-5.54,.56-1.84-.01-3.19,1.14-5.26,.71-1.59-.33-3.24,.82-4.94,1.15-.84,.16-1.77,.15-2.64,.18-.66,.02-1.33-.21-1.93-.09-1.36,.26-2.72,.29-4.12,.93-.97,.43-2.85,.2-4.32,.39-1.46,.19-2.92,.5-4.39,.76-1.46,.24-3.07,.4-4.34,.88-2.8,1.08-5.7,1.77-8.6,2.47l-4.39,.96c-1.45,.35-2.9,.72-4.33,1.13-1.47,.43-3.1,1.18-4.6,.74-.27-.08-1.11,.16-1.52,.38-2.55,1.4-5.31,2.21-8.07,3.12-2.77,.86-5.59,1.6-8.21,2.79-1.87,.84-3.74,1.64-5.57,2.55-1.84,.89-3.69,1.74-5.64,2.48-1.88,.74-3.77,1.54-5.64,2.34-1.88,.79-3.66,1.74-5.31,2.8-1.35,.87-2.71,1.71-4.06,2.52-1.34,.84-2.7,1.62-4.12,2.27-2.83,1.24-4.38,4.33-7.71,4.61-1.35,.78-2.6,1.7-3.9,2.56-1.29,.87-2.58,1.72-3.88,2.57-2.13,1.52-4.04,3.39-6.59,4.25-.9,.33-2.29,1.47-2.86,2.34-1.86,2.78-4.25,4.69-6.82,6.74-.6,.5-.96,1.48-1.52,2.16-1.76,2.03-3.38,4.18-5.05,6.25-4.98,6.23-7.73,13.73-9.3,20.96-.3,1.36,.16,2.93-.14,4.07-.48,1.76-.6,3.58-.57,5.38,.12,1.79,.37,3.58,.92,5.28,.99,3.44,2.79,6.51,4.68,9.56,.36,.58,.83,1.29,1.23,1.88,.4,.56,.79,1.14,1.2,1.69,.87,1.05,1.71,2.13,2.72,3.08,.49,.48,.96,.99,1.48,1.45l1.62,1.33c.55,.44,1.07,.9,1.64,1.31l1.76,1.19,1.76,1.19c.58,.41,1.24,.72,1.85,1.08l3.74,2.11,3.91,1.87c1.3,.64,2.58,1.29,3.94,1.82,1.39,.59,2.6,1.86,3.34,1.94,1.17,.09,2.25,.58,3.36,.92,1.1,.36,2.15,.73,3.11,.8,1.74,.12,3.34,.58,4.92,1.12,1.59,.5,3.19,1,4.82,1.34,2.38,.46,4.73,1.79,7.15,1.33,.35-.07,1.16,.13,1.57,.34,3.28,1.68,7.03,1.13,10.41,2.28,6.86,.03,13.5,2.14,20.35,2.7,1,.1,2-.01,3.01-.01,.51,0,1.12-.07,1.53,.07,1.5,.5,3.02,.89,4.57,1.18,1.56,.24,3.13,.41,4.72,.54,3.16,.27,6.34,.44,9.46,.91,2.06,.32,4.06,.86,6.13,1.09,2.09,.26,4.28,.11,6.2,.99,.6,.27,1.82,.24,2.72,.21,4.87-.17,8.39,1.66,8.33,4.2-.02,.92-1.03,.91-2.1,1.18-2.07,.52-4.11,.81-6.58,.58-1.92-.18-4-.61-5.77,.15-.3,.13-1.17,.04-1.63-.1-1.61-.52-3.36-.64-5.09-.81-1.72-.18-3.43-.33-4.96-.75-2.35-.65-4.57-.76-6.83-1.16-1.9-.34-3.94-.06-5.76-1.07-.61-.36-2.57,.08-3.91-.07-3.15-.35-6.33-.74-9.45-1.28-2.38-.37-4.74-.82-7.1-1.17-2.37-.35-4.74-.65-7.12-.95-2.39-.26-4.74-.69-7.1-1.15-2.36-.45-4.71-.96-7.05-1.56-3.48-.26-6.88-1.25-10.27-2.21-1.7-.45-3.35-1.1-5.02-1.65-1.67-.56-3.34-1.08-5.03-1.49-8.11-2.31-15.76-6.01-23.06-10.49-.75-.47-1.41-.91-2.03-1.38-.31-.23-.6-.47-.89-.72-.28-.27-.54-.56-.8-.86-.68-.79-1.39-1.63-2.21-2.3-1.5-1.4-3.04-2.77-4.39-4.34-.72-.75-1.34-1.56-1.98-2.36-.65-.83-1.16-1.51-1.77-2.4-1.31-1.77-3.11-3.72-3.04-5.96-.02-.29-.4-1.21-.69-1.56-1.23-1.45-1.9-3.3-2.35-5.19-.21-.95-.34-1.92-.47-2.89-.07-.97-.21-1.93-.27-2.89-.14-1.46-.08-2.88,.38-4.42,.54-1.66,.79-4.25,.83-6.05-.02-.69,.05-1.32,.17-1.93,.12-.61,.23-1.22,.38-1.84,.58-2.6,1.74-5.05,2.9-7.44,1.15-2.4,2.39-4.69,3.16-7.23,2.35-1.72,3.92-4.59,5.37-6.9,2.76-4.45,6.31-8.35,10.16-11.86,1.93-1.76,3.96-3.4,6.02-5,2.08-1.52,4.16-3.04,6.19-4.62,2.02-1.45,4.38-2.42,6.51-3.74,2.27-1.34,4.54-2.71,6.77-4.14,1.19-.77,2.83-1.18,3.38-2.45,.04-.09,.24-.25,.38-.31,1.39-.61,2.87-1.08,4.14-1.83,1.16-.64,2-1.68,3.14-2.42,1.37-.86,2.86-1.68,4.36-2.37,1.45-.67,2.94-1.55,4.42-1.41,.77-1.35,2.64-1.7,4.09-2.34,1.37-.63,2.8-1.16,4.21-1.73,1.57-.67,3.18-1.22,4.78-1.82,1.6-.58,3.24-1.11,4.79-1.77,2.16-.84,4.22-1.87,6.4-2.69,2.3-.86,4.7-1.51,7.07-2.13l2.24-.54,2.26-.44c1.5-.29,3-.59,4.51-.88,1.24-.27,2.24-.73,3.37-1.32,1.49-.79,3.33-2.18,5.67-1.45,.46,.13,1.91-.22,2.69-.55,3.08-1.28,6.35-2.03,9.66-2.52l4.97-.75c1.66-.22,3.31-.47,4.93-.81,3.75,.35,7.18-.6,10.91-1.36,5.45-1.03,11.26-1.8,16.71-1.79,5.77,.03,11.34-.82,17-1.04,1.59-.06,3.29-.54,4.69,.21,.32,.17,1.52,.02,2.17-.15,2.26-.59,4.51-.9,6.79-1.02,2.28-.11,4.58-.01,6.93,.15,2.48,.18,5.26-.28,7.98-.73,4.09-.62,8.58-.4,12.9-.45,1.88,1.01,3.32-.07,4.27-.52,1.28-.61,2.48-.72,4-.75,1.96-.04,3.89,.18,5.83-.49,.99-.34,3.21-.25,4.27,.14,1.42,.52,1.96,.3,3.27,0,1.55-.35,3.13,.64,5.08,.66,2.07,.01,4.51-.44,6.3,.72,.16,.1,.8,.11,1.09,.04,3.88-.95,7.63,.81,11.46,.54l2.13,.32,1.07,.14,.53,.07,.28,.03,.44,.04c.3,.02,.62,.12,.87,.17l.51,.13,1.02,.25,2.05,.46c.69,.14,1.36,.31,2.06,.42l2.1,.3,4.21,.54c2.8,.33,5.67,.69,8.5,1.06,2.84,.37,5.68,.79,8.49,1.32,4.64,.85,9.22,2.38,13.89,2.62,9.81,.51,19.36,2.9,29,4.57,2.04,.35,4.48,.32,6.11,1.72,.23,.19,1.16,.37,1.59,.33,3.23-.33,6.13,.59,9.05,1.87,.71,.3,2.09,.6,2.6,.45,1.42-.43,2.83,.19,4.19,.51,1.63,.39,3.66,1.5,4.72,1.36,2.27-.28,3.23,.88,4.78,1.4,.95,.32,2.08,.39,3.13,.52,.5,.06,1.18-.1,1.44,.04,2.98,1.64,6.43,1.26,9.5,2.44,.66,.26,1.38,.43,2.02,.7,3.57,1.59,5.32,2.46,7.4,3.12,1.04,.34,2.15,.64,3.6,.99,1.45,.37,3.22,.82,5.59,1.42,2.14,2.04,5.73,1.16,8.15,3.1,.88,.69,2.83,1.29,4.16,1.49,.73,.11,1.46,.25,2.18,.41,.71,.19,1.42,.4,2.12,.63,1.4,.46,2.78,1,4.16,1.56,2.76,1.07,5.42,2.44,8.18,3.48,1.16,.44,1.65,1.6,3.38,1.6,.65,0,2.15,1.58,3.37,2.16,1.77,.85,3.37,2.2,5.48,2.42,.87,.08,2.27,1.19,3.43,1.81,1.61,.83,2.95,2.07,4.87,2.49,1.04,.23,2.99,1.56,3.71,2.52,1.51,1.96,3.24,3.4,5.06,4.74,1.82,1.33,3.74,2.58,5.45,4.13,1.03,.93,1.78,1.59,2.51,2.9,1.04,1.82,2.2,4.34,3.3,5.6,2.03,2.23,2.8,5.15,3.42,8.03,.55,2.52,.68,5.16,.44,7.74-.23,2.58-.94,5.1-1.75,7.52-1.02,2.74-2.52,5.17-4.12,7.45-1.62,2.27-3.41,4.31-5.12,6.48-1.83,2.32-4.63,5.02-7.78,5.87-.34,.1-.98,1.34-1.66,1.8-2.67,1.86-5.39,3.57-8.14,5.16-2.74,1.51-5.49,2.99-8.25,4.44-1.28,.67-3.19,.43-3.93,1.86-.79,1.53-3.01,.57-3.5,2.17-.06,.25-1.25,.81-1.91,1-3.58,1.05-6.94,2.6-10.27,4.26-1.67,.82-3.3,1.72-5,2.49-1.7,.75-3.41,1.48-5.15,2.12-1.66,.62-3.35,1.85-5.02,1.49-.93,.69-1.97,1.2-3.06,1.63-1.09,.43-2.22,.79-3.37,1.08-2.29,.62-4.54,1.31-6.3,2.88-3.14,.81-6.07,2.95-9.4,2.8-.54-.03-1.51,.57-2.11,.58-2.04,.03-2.68,2.09-5.24,1.92-1.46-.09-3.83,.97-5.78,1.55-1.8,.57-3.64,1-5.46,1.5l-6.03,1.57c-2.01,.52-4.05,.98-6.02,1.59-4.05,1.04-7.91,2.59-12.16,3.21-.46,.07-1.21,.36-1.34,.57-.56,.89-1.41,1.25-2.3,1.35-.9,.08-1.84-.09-2.59-.18-1.26-.16-2.31-.16-3.61,.07-3.53,.61-7.06,1.3-10.61,1.77-2.11,.22-4.29,1-6.42,.32-.66-.21-2.34,.08-3.26,.41-2.16,.78-4.41,1.19-6.69,1.46-2.28,.21-4.59,.33-6.85,.62-2.05,.26-4.12,.43-6.19,.6-1.57,.12-3.08,.95-4.69,.41-7.55,1.69-15.44,1.52-23.17,1.87-3.84,.2-7.7,.43-11.55,.48l-11.55,.13c-1.92,.02-4.07,.55-5.79-.48-.33-.19-1.71-.18-2.12,.02-1.12,.54-1.97,.83-3.22,.1-.23-.14-1.29,.02-1.85,.16-1.57,.4-2.97,.35-4.61-.02-1.27-.29-2.98-.46-4.23-.25-3.34,.52-6.5,.96-9.82-.15-.41-.14-1.55,.52-2.29,.48-2.87-.18-5.82,.35-8.66-.54-1.16-.36-2.89-.15-4.34-.28-1.25-.11-2.47-.04-3.71,0-.62,.02-1.24,.04-1.88,.03-.43-.02-.86-.03-1.3-.05-.58-.03-1.16-.07-1.73-.12-.58-.05-1.17-.09-1.76-.14l-.89-.05c-.28-.04-.51-.13-.77-.2-.51-.13-1.02-.27-1.54-.4l-.39-.1c-.11-.04-.2-.09-.3-.14l-.6-.28c-.38-.15-.88-.46-1.36-.74l-1.45-.84-.36-.21c-.02-.11,.03-.26,.05-.39l.14-.81c.1-.54,.19-1.08,.29-1.62l1.18-6.48c.06-.51,.27-1.15,.46-1.66l.35-1.02,.7-2.03c.9-2.72,1.96-5.38,2.97-8.06,1.06-2.66,2.16-5.3,3.31-7.92,1.19-2.6,2.33-5.23,3.64-7.78l1.91-3.85,2.04-3.78c.93-1.78,1.98-3.32,3.33-4.86,3.43-3.95,6.61-9.23,10.39-15.93,.28-.48,.67-.93,1-1.39,4.4-5.99,8.98-11.93,14.29-17.12,1.13-1.17,2.39-2.21,3.63-3.29,1.25-1.06,2.44-2.2,3.64-3.35,1.47-1.42,3.02-2.67,4.17-4.43l4.95,6.03-.24,.31c-1.09,1.49-3.62,2.26-4.7,4.26-.39,.73-2,1.92-2.97,2.3-3.22,1.26-5.71,3.76-8.47,5.75-3.17,2.29-6.28,4.68-9.35,7.1-1.51,1.19-3.22,2.11-4.31,3.92-.53,.89-2.53,2.09-3.85,2.69-2.03,.93-3.69,2.34-5.18,3.76-3.19,3.06-3.09,3.11-6.86,5.33-.45,.27-.89,.61-1.32,.94-2.11,1.68-4.3,3.3-6.44,4.96-2.12,1.68-4.19,3.39-6.07,5.23-3.1,3.09-6.39,5.81-9.65,8.63-1.3,1.12-2.53,2.73-4.28,2.92-.25,.03-.98,.68-1.21,1.05-1,1.59-2.33,2.92-3.76,4.16-1.42,1.25-2.92,2.42-4.31,3.67-2.7,2.41-4.5,5.35-7.37,7.69-2.65,2.24-5.1,4.79-7.59,7.26-3.76,3.75-4.99,4.14-6.94,2.22-1.6-1.59-.99-2.89,1.74-6.29,5.83-7.19,13.14-12.95,18.54-18.11Z"/>
      </g>
      <g>
        <path class="cls-6" d="M204.34,161.57c29.33-29.98,66.26-57.21,100.52-83.18-26.69,23.66-44.56,55.48-53.87,87.22l1.66,1c98.39,2.79,175.03-.11,256.37-47.02,11.82-6.81,23.72-15.71,25.7-27.69,2.99-18.1-17.45-32.36-36.34-41.24-42.45-19.96-110.55-31.39-158.59-37.48l-5.72-1.07c-43.18-2.51-76.8-1.03-119.69,3.9-42.89,4.93-85.63,17.89-117.43,42.73-21.58,16.86-37.62,45.23-21.41,65.95,4.64,5.92,20.99,32.72,131.34,38.52"/>
        <path class="cls-6" d="M225.25,139.19c6.83-6.03,12.53-10.79,18.17-15.61,.87-.75,1.54-1.98,2.68-2.89,4.52-3.63,8.87-7.75,13.63-10.72,5.19-3.25,10.06-6.93,14.42-10.8,4.14-3.68,8.53-6.87,12.81-10.26,1.44-1.14,2.81-2.32,4.75-3.05,1.42-.53,3.58-2.1,4.69-3.91,.22-.35,.97-.73,1.49-1.03,.56-.33,1.37-.53,1.69-.91,1.14-1.33,2.42-2.5,3.77-3.6l3.14,3.83c-1.3,1.29-2.69,2.5-4.08,3.71-1.39,1.21-2.68,2.53-3.91,3.88-.45,.5-.99,.94-1.45,1.44-.44,.51-.8,1.06-.9,1.75-.05,.35-.91,1.33-1.3,1.49-1.04,.43-1.85,1.12-2.67,2.09-1.76,2.13-3.61,4.18-5.28,6.38l-2.57,3.25-2.45,3.35c-.81,2.74-2.8,5.04-4.45,7.42-1.16,1.83-2.6,3.48-3.92,5.21-1.27,1.8-1.9,4.15-3.71,5.53-.28,.23-.45,1.1-.72,1.65-.6,1.24-1.21,2.51-1.81,3.76-.58,1.26-1.18,2.48-1.91,3.57-.74,1.12-1.5,2.23-2.03,3.45-1.81,3.89-3.51,7.84-5.06,11.85-.75,2.01-1.57,4-2.24,6.04l-1.05,3.05c-.18,.53-.28,.79-.39,1.17l-.33,1.07-.67,2.15-.17,.54c-.08,.11,.09,.12,.15,.18l.24,.14,.48,.29,.24,.14c.09,.02,.19,.01,.28,.02l4.77,.11,12.99,.29c1.51,.02,2.94,.16,4.55-.4,1.25-.44,3.98-.42,5.18,.06,1.93,.77,3.76,.5,5.61,.56,3.42,.1,6.86-.03,10.28,.06,2.03,.05,4.29-.46,6.08,.56,.17,.1,.82,.1,1.04,0,2.25-1,4.44-.23,6.71-.14,1.64,.07,3.29,.02,5.07-.49,1.73-.51,4.63-.61,6.26-.16,2.17,.59,4.15,.29,6.16,.22l8.92-.31c2.97-.14,5.94-.36,8.91-.55,2.97-.2,5.94-.37,8.9-.61l8.88-.89c1.4-.14,2.79-.34,4.17-.55l2.07-.34,2.06-.41c2.75-.54,5.51-1.04,8.35-1.23,1.35-.09,2.76-.66,4.06-.11,.27,.11,1.33-.1,1.73-.37,1.43-.89,2.98-.91,4.71-1.17,1.96-.29,3.92-.58,5.88-.87,1.96-.31,3.95-.53,5.88-.96,3.89-.79,7.74-1.67,11.46-2.77,.73-.21,1.45-.41,2.18-.62l2.15-.66c1.44-.42,2.87-.82,4.31-1.21,2.87-.78,5.75-1.51,8.61-2.34,1.88-.64,3.93-.78,5.89-1.28,1.9-.49,3.79-1.13,5.66-1.75,1.11-.37,2.31-.53,3.23-1.42,.49-.48,2.04-1.16,2.77-1.15,2.44,0,4.64-1.15,6.89-1.96l4.81-1.74c1.61-.57,3.15-1.31,4.73-1.95l9.44-3.98c1.57-.61,3.06-1.82,4.79-1.69,.24,.02,.99-.65,1.51-1,.55-.37,1.17-.95,1.66-1.05,2.23-.45,4.34-1.33,6.39-2.34,1.02-.51,2.05-1.02,3.04-1.58,.99-.58,1.97-1.15,2.97-1.69l7.25-3.91c2.41-1.32,4.84-2.6,7.16-4.03,4.65-2.85,9.16-5.92,13.13-9.56,2.23-2.05,3.41-4.5,5.02-6.77,1.57-2.23,2.69-4.7,3.42-7.24,.51-1.84,.35-3.78,1.19-5.55,.26-.5,.11-1.91-.19-2.44-1.17-1.95-1.43-4.22-2.53-6.22-.64-1.2-1.29-2.45-2.05-3.62-.8-1.15-1.71-2.24-2.96-2.97-.65-.4-1.24-1.79-2.02-2.62-1.33-1.45-2.8-2.83-4.37-4.06-.75-.59-1.69-.91-2.47-1.47-6.03-4.27-12.68-7.71-19.47-10.83l-5.26-2.29c-1.75-.76-3.49-1.57-5.29-2.24-3.57-1.4-7.12-2.87-10.77-4.09l-5.45-1.9-5.51-1.74c-3.66-1.21-7.37-2.24-11.06-3.37-2.76-.88-5.99-.96-8.26-2.83-2.77,.02-4.91-1.02-6.99-2.34-.3-.19-1.2-.06-1.83-.11-1.98-.16-4.07,.59-5.86-1.21-.07-.07-.35-.07-.51-.13-1.71-.58-3.23,.46-5.28-.83-1.28-.8-3.58-1.11-5.44-1.55-1.93-.45-3.88-.91-5.82-1.19-2.01-.29-4.05-1.37-6.12-.74-.33,.1-1.67-.87-2.54-.99-2.25-.31-4.47-.91-6.71-1.38-2.24-.45-4.5-.79-6.8-.6-1.05,.09-2.63-.23-3.66-.65-3.71-1.49-7.41-1.68-11.42-2-5.28-.41-10.89-1.12-15.84-3.1-1.05-.42-1.51-.7-2.67-.42-.77,.18-2.02-.06-3.05-.2l-8.59-1.17-4.32-.56c-1.44-.21-2.89-.32-4.32-.63l-4.28-.8c-.3-.07-1.21-.08-1.88-.12l-2.16-.11c-2.88-.16-5.76-.29-8.63-.41-3.13-.15-6.02-1.18-9.25-.92-1.33,.1-2.88-.41-4,.37-.15,.11-.71,.16-.96,.1-3.84-1.03-7.7,.29-11.53-.13-.82-.08-1.61-.26-2.42-.35-.83-.1-1.81-.33-2.51-.19-5.88,1.18-11.96,.46-17.91,.97-2.02,.18-4.28-.25-6.04,.81-.26,.16-1.16,.2-1.56,.09-3.54-1.01-7.3,.12-10.92,.06-1.86-.05-3.89,.77-5.62-.08-.22-.11-.96,.05-1.41,.15-.79,.18-1.55,.55-2.32,.6-2.14,.13-4.52-.21-6.37,.27-2.29,.6-4.5,.66-6.73,.89-1.28,.13-2.59-.17-3.92-.14-1.24,.03-2.51,.24-3.76,.37-1.79,.18-3.64,.57-5.36,.54-1.79-.02-3.08,1.13-5.09,.69-1.54-.34-3.14,.81-4.78,1.13-.82,.16-1.71,.15-2.55,.17-.64,.02-1.29-.21-1.87-.1-1.32,.26-2.63,.27-3.99,.91-.93,.43-2.76,.18-4.19,.37-1.42,.18-2.83,.49-4.25,.74-1.42,.23-2.97,.38-4.2,.86-2.7,1.06-5.51,1.73-8.32,2.41l-4.24,.92c-1.41,.34-2.81,.7-4.19,1.1-1.42,.42-2.99,1.16-4.46,.7-.26-.08-1.08,.15-1.47,.36-2.46,1.37-5.14,2.16-7.8,3.04-2.68,.83-5.42,1.55-7.95,2.7-1.81,.82-3.61,1.6-5.38,2.48-1.78,.87-3.57,1.69-5.46,2.4-1.82,.72-3.65,1.48-5.46,2.26-1.82,.76-3.54,1.68-5.13,2.71-1.31,.85-2.62,1.66-3.92,2.45-1.29,.82-2.61,1.57-3.98,2.2-2.74,1.19-4.21,4.23-7.46,4.46-1.3,.75-2.52,1.64-3.77,2.47-1.24,.84-2.5,1.67-3.75,2.49-2.06,1.47-3.9,3.29-6.38,4.1-.88,.31-2.22,1.41-2.76,2.26-1.78,2.71-4.09,4.55-6.59,6.52-.58,.48-.92,1.44-1.46,2.1-1.7,1.96-3.27,4.05-4.88,6.04-4.83,6.01-7.45,13.28-8.96,20.26-.29,1.31,.17,2.83-.11,3.93-.48,1.7-.59,3.44-.57,5.18,.12,1.72,.36,3.45,.88,5.09,.95,3.32,2.69,6.27,4.5,9.21,.34,.56,.81,1.26,1.19,1.82,.38,.55,.76,1.1,1.16,1.64,.83,1.02,1.65,2.06,2.62,2.97,.48,.47,.93,.95,1.43,1.4l1.56,1.29c.53,.42,1.03,.87,1.59,1.27l1.7,1.15,1.7,1.15c.56,.39,1.2,.69,1.79,1.04l3.62,2.03,3.78,1.81c1.25,.62,2.5,1.25,3.81,1.76,1.34,.57,2.5,1.83,3.23,1.89,1.13,.08,2.18,.55,3.26,.88,1.06,.35,2.08,.71,3.02,.76,1.69,.1,3.24,.54,4.77,1.07,1.54,.48,3.08,.97,4.66,1.3,2.3,.44,4.58,1.75,6.92,1.27,.34-.07,1.12,.13,1.52,.33,3.17,1.66,6.8,1.08,10.07,2.2,6.64-.01,13.06,2.06,19.7,2.6,.97,.1,1.94-.02,2.91-.03,.49,0,1.08-.08,1.48,.06,1.45,.5,2.92,.88,4.42,1.16,1.51,.24,3.03,.4,4.56,.53,3.06,.26,6.14,.42,9.16,.88,1.99,.32,3.93,.84,5.94,1.07,2.02,.26,4.14,.1,6,.98,.58,.27,1.76,.23,2.63,.2,4.71-.18,8.12,1.64,8.06,4.18-.02,.92-1,.91-2.04,1.18-2.01,.53-3.98,.82-6.37,.59-1.86-.18-3.87-.6-5.59,.16-.29,.13-1.14,.04-1.58-.1-1.56-.51-3.25-.63-4.92-.8-1.67-.18-3.32-.32-4.8-.74-2.27-.64-4.42-.75-6.61-1.14-1.84-.33-3.81-.05-5.57-1.05-.59-.35-2.49,.09-3.79-.05-3.05-.34-6.13-.71-9.15-1.24-2.3-.37-4.58-.79-6.88-1.13-2.29-.34-4.59-.63-6.9-.91-2.31-.24-4.59-.66-6.88-1.1-2.28-.44-4.56-.93-6.82-1.51-3.38-.24-6.67-1.19-9.95-2.12-1.65-.44-3.25-1.07-4.86-1.6-1.61-.54-3.23-1.04-4.87-1.44-7.86-2.21-15.27-5.81-22.35-10.14-.72-.46-1.37-.89-1.97-1.34-.3-.23-.59-.46-.86-.7-.27-.26-.52-.54-.78-.84-.66-.77-1.34-1.59-2.13-2.24-1.45-1.36-2.94-2.69-4.26-4.21-.69-.73-1.3-1.51-1.92-2.29-.63-.8-1.12-1.46-1.72-2.32-1.27-1.72-3.03-3.6-2.93-5.79-.01-.29-.38-1.17-.67-1.51-1.21-1.4-1.86-3.2-2.3-5.03-.21-.92-.32-1.87-.46-2.8-.06-.94-.2-1.87-.26-2.8-.14-1.41-.08-2.79,.38-4.29,.54-1.61,.77-4.12,.81-5.86-.05-1.33,.28-2.44,.52-3.65,.55-2.52,1.69-4.9,2.82-7.21,1.12-2.32,2.32-4.55,3.04-7.01,2.31-1.65,3.82-4.43,5.21-6.68,2.66-4.32,6.1-8.1,9.83-11.51,1.87-1.7,3.84-3.3,5.83-4.84,2.02-1.47,4.03-2.95,6-4.47,1.96-1.4,4.25-2.33,6.31-3.61,2.2-1.3,4.4-2.63,6.55-4.01,1.15-.75,2.75-1.14,3.27-2.39,.04-.09,.23-.25,.36-.3,1.35-.58,2.79-1.03,4.02-1.76,1.12-.62,1.93-1.65,3.03-2.36,1.32-.84,2.76-1.63,4.22-2.3,1.4-.65,2.84-1.51,4.28-1.35,.73-1.34,2.55-1.66,3.96-2.28,1.32-.61,2.71-1.12,4.07-1.67,1.52-.65,3.08-1.19,4.63-1.76,1.55-.57,3.14-1.08,4.64-1.71,2.09-.82,4.08-1.83,6.19-2.62,2.22-.84,4.55-1.47,6.85-2.06l2.17-.52,2.19-.42c1.46-.28,2.91-.56,4.37-.84,1.2-.26,2.17-.71,3.26-1.3,1.44-.77,3.21-2.16,5.49-1.41,.45,.13,1.85-.21,2.6-.53,2.98-1.26,6.14-1.99,9.35-2.46l4.81-.72c1.6-.21,3.2-.45,4.78-.78,3.63,.37,6.96-.57,10.57-1.32,5.28-1.01,10.9-1.76,16.18-1.73,5.59,.05,10.98-.79,16.46-1,1.54-.05,3.18-.53,4.55,.22,.31,.17,1.47,.03,2.1-.14,4.37-1.19,8.72-1.2,13.29-.85,2.41,.18,5.09-.27,7.73-.71,3.96-.62,8.31-.39,12.49-.44,1.82,1.01,3.22-.07,4.14-.52,1.24-.61,2.4-.72,3.87-.74,1.9-.04,3.77,.18,5.65-.49,.96-.34,3.11-.25,4.14,.14,1.38,.52,1.9,.3,3.17,0,1.5-.35,3.03,.64,4.92,.65,2,.01,4.37-.44,6.1,.71,.15,.1,.77,.11,1.05,.04,3.76-.96,7.38,.8,11.1,.52l2.06,.32,1.03,.14,.52,.07,.7,.07c.29,.02,.59,.12,.85,.17l.49,.12,.99,.24,1.98,.45c.66,.14,1.32,.3,1.99,.41l2.03,.29,4.08,.52,8.23,1.02c2.75,.36,5.5,.76,8.22,1.28,4.49,.83,8.92,2.34,13.45,2.56,9.5,.46,18.75,2.8,28.08,4.41,1.98,.34,4.34,.3,5.91,1.68,.22,.19,1.12,.36,1.54,.32,3.13-.35,5.94,.55,8.76,1.81,.69,.3,2.02,.58,2.51,.43,1.38-.44,2.75,.17,4.06,.48,1.58,.38,3.54,1.47,4.57,1.33,2.2-.29,3.13,.85,4.62,1.36,.92,.32,2.02,.37,3.03,.5,.48,.06,1.14-.11,1.39,.03,2.88,1.61,6.23,1.21,9.2,2.36,.63,.25,1.34,.42,1.95,.69,3.45,1.56,5.15,2.41,7.16,3.05,1,.33,2.08,.62,3.49,.96,1.4,.35,3.12,.79,5.42,1.37,2.06,2.01,5.56,1.11,7.89,3.02,.85,.68,2.74,1.26,4.03,1.44,.71,.1,1.42,.23,2.11,.39,.69,.18,1.38,.38,2.06,.61,1.36,.45,2.7,.97,4.03,1.51,2.68,1.04,5.25,2.37,7.92,3.37,1.12,.42,1.59,1.58,3.27,1.55,.64,0,2.08,1.54,3.25,2.1,1.72,.82,3.26,2.15,5.32,2.33,.85,.07,2.2,1.15,3.33,1.75,1.56,.8,2.85,2.02,4.73,2.4,1.02,.21,2.9,1.5,3.6,2.44,1.45,1.92,3.12,3.32,4.9,4.61,1.77,1.29,3.64,2.48,5.31,3.99,1,.9,1.73,1.54,2.43,2.81,1,1.77,2.12,4.22,3.2,5.44,1.99,2.16,2.73,5,3.33,7.81,.54,2.45,.67,5.03,.42,7.54-.22,2.51-.91,4.97-1.71,7.32-.99,2.67-2.45,5.03-4.01,7.24-1.58,2.21-3.31,4.19-4.96,6.3-1.77,2.26-4.48,4.89-7.56,5.69-.33,.1-.94,1.31-1.6,1.76-2.59,1.8-5.23,3.46-7.89,5-2.66,1.47-5.32,2.89-7.99,4.3-1.24,.65-3.11,.38-3.81,1.8-.75,1.51-2.93,.53-3.39,2.1-.06,.25-1.21,.78-1.85,.97-3.47,1-6.73,2.5-9.95,4.11-1.62,.79-3.2,1.67-4.84,2.41-1.65,.73-3.3,1.43-4.99,2.06-1.61,.6-3.24,1.8-4.87,1.43-.9,.67-1.91,1.17-2.96,1.59-1.06,.41-2.15,.76-3.27,1.04-2.22,.6-4.4,1.26-6.1,2.81-3.04,.78-5.87,2.87-9.11,2.7-.52-.03-1.46,.55-2.04,.56-1.98,.01-2.59,2.06-5.07,1.87-1.42-.11-3.71,.93-5.6,1.49-1.74,.56-3.52,.97-5.29,1.45l-5.84,1.52c-1.95,.51-3.92,.95-5.83,1.54-3.92,1.01-7.65,2.54-11.77,3.12-.44,.06-1.17,.35-1.29,.56-.54,.88-1.36,1.23-2.23,1.33-.87,.07-1.79-.1-2.51-.19-1.23-.16-2.24-.17-3.5,.05-3.42,.59-6.84,1.26-10.28,1.71-2.04,.21-4.15,.98-6.22,.29-.64-.21-2.26,.07-3.16,.4-2.09,.77-4.27,1.18-6.47,1.43-2.21,.21-4.44,.31-6.63,.6-1.98,.26-3.99,.42-5.99,.58-1.52,.12-2.98,.94-4.55,.4-7.31,1.68-14.95,1.48-22.43,1.83-3.72,.19-7.45,.42-11.18,.47l-11.18,.12c-1.86,.02-3.94,.54-5.61-.48-.32-.19-1.66-.18-2.05,.02-1.08,.54-1.9,.83-3.12,.1-.23-.14-1.24,.02-1.79,.16-1.52,.4-2.88,.35-4.47-.02-1.23-.29-2.89-.46-4.1-.25-3.23,.52-6.29,.96-9.51-.14-.39-.14-1.5,.52-2.22,.48-2.78-.18-5.63,.35-8.38-.54-1.12-.36-2.8-.15-4.2-.28-1.21-.11-2.39-.04-3.59,.01-.6,.03-1.2,.04-1.82,.04-.48-.02-.97-.04-1.47-.05-.56-.03-1.12-.07-1.67-.12-.56-.05-1.13-.09-1.7-.14-.28-.03-.59-.01-.84-.08l-.73-.21c-.49-.13-.99-.26-1.49-.39-.28-.05-.45-.15-.65-.24l-.58-.27c-.36-.14-.85-.44-1.31-.71l-1.4-.81-.35-.2c-.02-.11,.03-.25,.04-.38l.13-.78c.09-.52,.18-1.04,.27-1.56l1.1-6.24c.06-.49,.25-1.11,.44-1.63l.4-1.15,.68-1.97c.87-2.63,1.9-5.21,2.88-7.8,1.03-2.57,2.09-5.14,3.2-7.68,1.16-2.52,2.26-5.07,3.52-7.54l1.85-3.73,1.97-3.67c.9-1.72,1.92-3.22,3.24-4.7,3.35-3.81,6.43-8.93,10.06-15.43,.27-.46,.65-.9,.97-1.35,4.26-5.8,8.69-11.56,13.85-16.58,1.09-1.13,2.32-2.14,3.53-3.18,1.22-1.03,2.37-2.12,3.53-3.24,1.42-1.38,2.92-2.58,4.03-4.3l4.95,6.03-.23,.31c-1.05,1.45-3.51,2.18-4.54,4.13-.37,.72-1.93,1.87-2.87,2.23-3.14,1.2-5.54,3.62-8.21,5.55-3.07,2.21-6.08,4.53-9.05,6.88-1.46,1.15-3.12,2.04-4.16,3.8-.51,.87-2.45,2.02-3.73,2.6-1.97,.89-3.58,2.26-5.02,3.64-3.08,2.97-2.98,3.03-6.64,5.16-.44,.26-.87,.58-1.27,.91-2.04,1.62-4.16,3.19-6.23,4.8-2.05,1.62-4.05,3.28-5.87,5.06-3,3-6.17,5.63-9.33,8.36-1.26,1.08-2.44,2.66-4.15,2.82-.24,.02-.95,.65-1.17,1.02-1.92,3.1-5.13,5.15-7.8,7.59-2.62,2.34-4.34,5.2-7.12,7.46-2.56,2.16-4.94,4.64-7.34,7.02-3.64,3.63-4.85,3.99-6.79,2.07-1.6-1.59-1.02-2.86,1.61-6.17,5.62-6.99,12.72-12.54,17.94-17.55Z"/>
      </g>
      <g class="cls-12">
        <g class="cls-12">
          <path class="cls-5" d="M56.66,155.28c-2.35-1.91-3.96-4.7-6.19-6.1-.23-.16-.48-.33-.74-.5l.24,.37c1.82,2.81,4.29,5.59,7.06,7.66,1.81,1.19,3.84,2.06,5.77,3.38,.21,.15,.41-.1,.5-.22-.09-.3-.13-.59-.16-.87-.83-.44-1.67-.85-2.48-1.35-.83-.47-1.61-1.01-2.37-1.62-.49-.41-1.35-.49-1.63-.76Z"/>
          <polygon class="cls-8" points="63.18 159.08 63.18 159.03 62.93 158.89 63.18 159.08"/>
          <path class="cls-4" d="M59.16,156.8c-.55-.32-1.04-.7-1.51-1.1-.4-.15-.81-.25-.99-.42-2.35-1.91-3.96-4.7-6.19-6.1-.23-.16-.48-.32-.73-.49l.26,.4c.63,.97,1.34,1.94,2.11,2.88l.17,.11c.63,.34,.86,.98,1.31,1.46,1.44,1.18,2.43,2.4,3.98,3.46,.56,.37,1.3,.55,1.92,1.03,.22,.15,.42,.32,.61,.48,.9,.52,1.84,.99,2.73,1.63,.21,.15,.41-.1,.51-.22-.05-.16-.08-.31-.1-.46-.69-.54-1.45-.97-2.14-1.53-.66-.4-1.35-.77-1.98-1.25,0,.04,.02,.09,.05,.14Z"/>
          <path class="cls-8" d="M59.4,156.38c-.08-.07-.33,.02-.28,.28,.62,.48,1.32,.85,1.98,1.25-.58-.47-1.19-.92-1.7-1.53Z"/>
          <path class="cls-9" d="M60.17,155.59c-1.08-1.02-2.42-1.65-3.13-2.68-.38-.54-.67-1.15-.85-1.74-.15-.14-.3-.27-.44-.41-3.7-3.37-6.93-7.3-9.51-11.6-1.36-2.11-3.11-3.75-4.84-5.7-.92-1.23-1.31-2.48-1.91-3.83-.71-1.72-1.63-3.05-2.48-4.47-.8-1.4-1.61-3.01-1.39-4.9,.15-.97-.94-1.59-1.05-1.33-.25,.9-.37,1.82-.38,2.71,0,.9,.14,1.76,.33,2.59,.41,1.66,1.07,3.17,1.82,4.59,.75,1.42,1.62,2.77,2.48,4.07,.87,1.31,1.77,2.62,2.74,3.9,3,4,5.57,7.92,8.15,11.9,.26,.17,.5,.34,.74,.5,2.23,1.4,3.84,4.19,6.19,6.1,.28,.27,1.15,.35,1.63,.76,.75,.61,1.54,1.15,2.37,1.62,.8,.5,1.65,.91,2.48,1.35-.06-.59-.06-1.15-.18-1.64-1.03-.46-2.02-1.01-2.79-1.78Z"/>
          <path class="cls-7" d="M60.17,155.59c.77,.77,1.76,1.32,2.79,1.78-.06-.24-.15-.46-.3-.67-1.78-2.1-4.39-3.62-6.48-5.54,.18,.6,.47,1.2,.85,1.74,.72,1.03,2.06,1.66,3.13,2.68Z"/>
          <path class="cls-4" d="M60.17,155.59c.73,.74,1.68,1.27,2.65,1.72-.26-.25-.53-.5-.81-.73-1.46-1.14-2.97-2.26-4.11-3.72,1.44,1.34,2.98,2.57,4.62,3.65-1.79-1.98-4.3-3.48-6.32-5.34,.18,.6,.47,1.2,.85,1.74,.72,1.03,2.06,1.66,3.13,2.68Z"/>
          <path class="cls-3" d="M57.73,153.79c1.56,1.62,3.31,3.11,5.36,4.16-.02-.15-.03-.3-.06-.44-.07-.07-.14-.14-.2-.2-.97-.45-1.92-.97-2.65-1.72-1.08-1.02-2.42-1.65-3.13-2.68-.38-.54-.67-1.14-.85-1.74l-.42-.39c-1.89-1.71-3.66-3.59-5.28-5.57-1.72-1.48-3.1-3.52-4.24-5.59,.62,.92,1.31,1.79,2.01,2.65-.7-1.01-1.38-2.03-2-3.09-.58-.89-1.22-1.7-1.91-2.49-.36,0-.76-.15-1.14-.58-.6-.68-1.07-1.44-1.81-2.05-.07-.11,.15-.22,.01-.43,.37,.61,.82,1,1.31,1.28-.43-.47-.87-.95-1.3-1.43-.73-.96-1.11-1.94-1.55-2.97l-.21-.28c-.35-.47-.77-.91-1.21-1.34,.12,.21,.23,.43,.35,.65-.32-.26-.56-.7-.73-1.03,.13,.13,.25,.26,.38,.38-.27-.51-.51-1-.77-1.55,.31,.67,.79,1.27,1.23,1.74-.71-1.15-1.41-2.21-1.68-3.48l.07,.07c-.94-1.54-1.9-3.26-1.7-5.37,.14-.97-.94-1.59-1.06-1.32-.73,2.55-.24,5.07,.58,7.2,.83,2.16,1.98,4.09,3.18,5.93-.13-.52-.26-1.03-.39-1.54-.08-.21-.15-.42-.17-.64,.05,.21,.11,.42,.17,.64,.22,.57,.61,1.1,.83,1.71,0,.15,.19,.47,.47,.47,.31,.84,1.05,1.6,1.37,2.43,.03,.04,.02,.16,0,.29,.32,.45,.65,.9,.99,1.34,1.87,2.5,3.58,4.97,5.23,7.44-.32-.65-.59-1.31-.79-1.95-.23-.89-1.54-2.19-2.5-3.41-.27-.29-.2-.61-.4-.94,1.3,.74,1.91,2.43,2.89,3.62,1.24,1.62,2.54,4.26,4.32,5.67,.74,.57,1.08,1.41,1.39,2.13-.29-.11-.62-.49-.78-.7-1.41-1.83-2.8-3.63-4.22-5.46,1.17,2.12,2.73,3.84,3.98,5.93-.94-1.07-1.54-2.35-2.62-3.18,.02,.12,.05,.24,.08,.37,.5,.77,1.01,1.55,1.53,2.36,.25,.17,.5,.34,.73,.49,2.23,1.4,3.84,4.19,6.19,6.1,.18,.17,.59,.26,.99,.42-.7-.66-1.37-1.35-2.06-2.02,.22,.33,.42,.65,.57,1.01-.72-.57-.99-1.35-1.68-1.94,.4,.29,.77,.6,1.11,.94-.34-.49-.74-.94-1.13-1.41,1.03,.62,1.34,1.87,2.52,2.35-.19-.16-.37-.34-.54-.53l.55,.53h-.01c.58,.5,1.26,.89,1.89,1.2-1.05-.81-1.7-1.86-2.65-2.71l-.49-.41c.17,.13,.33,.27,.49,.41,2.24,1.9,4.3,4.04,6.7,5.79l.25,.13-.04-.39c-2.01-1.38-3.84-3.06-5.41-4.84Z"/>
        </g>
      </g>
      <g class="cls-12">
        <g class="cls-12">
          <path class="cls-5" d="M33.82,101.38c.04,.63-.79,1.22-.07,1.82,.07,.07,.15,.13,.23,.2l.06-.09c.51-.65,.73-1.36,.64-2.07-.17-.45-.65-.97-.48-1.44,.02-.05-.29-.11-.45-.14-.21,.02-.43,.02-.65,.03,.1,.43,.32,.86,.28,1.27-.04,.13,.46,.35,.43,.42Z"/>
          <polygon class="cls-8" points="33.16 99.68 33.11 99.68 33.13 99.74 33.16 99.68"/>
          <path class="cls-4" d="M33.47,100.72c.07,.14,.07,.28,.04,.4,.13,.1,.33,.21,.31,.26,.04,.63-.79,1.22-.07,1.82,.07,.06,.14,.13,.22,.2l.07-.09c.17-.23,.32-.46,.42-.7l-.04-.04c-.2-.16,.08-.26,.12-.39-.12-.39,.14-.68,.02-1.07-.03-.14-.38-.33-.32-.49,0-.06,.02-.11,.05-.15-.1-.23-.16-.46-.09-.67,.02-.05-.29-.11-.45-.14-.11,0-.22,.01-.34,.02-.09,.17-.11,.36-.16,.55,.05,.18,.1,.35,.12,.52,.03,0,.06,0,.08-.02Z"/>
          <path class="cls-8" d="M33,100.67s.21,.08,.39,.06c-.02-.17-.06-.35-.12-.52-.04,.16-.11,.31-.27,.46Z"/>
          <path class="cls-9" d="M31.91,100.5c-.19,.32,.19,.69-.14,.93-.15,.13-.39,.25-.71,.34,0,.05,0,.1,0,.14,.14,1.18,.17,2.32-.23,3.45-.12,.57,.41,1.11,.78,1.68,.1,.34-.27,.62-.48,.97-.6,.87,.77,1.54,1.26,2.33,.13,.22,1.39,.13,1.39,.08-.64-1.33-.13-2.65-.49-4.01-.25-1.06-.02-2.08,.68-3.01-.08-.07-.16-.13-.23-.2-.72-.6,.1-1.19,.07-1.82,.03-.08-.48-.29-.43-.42,.04-.41-.17-.84-.28-1.27-.47,0-.94,0-1.29,.03,.14,.28,.27,.55,.09,.78Z"/>
          <path class="cls-7" d="M31.91,100.5c.18-.22,.05-.5-.09-.78-.17,.02-.32,.04-.41,.08-.79,.52-.38,1.31-.35,1.96,.32-.09,.57-.21,.71-.34,.32-.24-.05-.61,.14-.93Z"/>
          <path class="cls-4" d="M31.91,100.5c.17-.21,.06-.47-.07-.74-.08,.07-.14,.15-.17,.23-.14,.41-.12,.85-.48,1.23,.07-.45,.15-.9,.15-1.37-.69,.52-.29,1.28-.27,1.92,.32-.09,.56-.21,.71-.34,.32-.24-.05-.61,.14-.93Z"/>
          <path class="cls-3" d="M32.01,101.2c.23-.48,.4-.97,.24-1.51-.12,0-.23,.01-.34,.02-.03,.02-.05,.04-.07,.05,.13,.27,.24,.52,.07,.74-.19,.32,.19,.69-.14,.93-.15,.13-.39,.25-.71,.34,0,.05,0,.09,0,.13,.07,.6,.11,1.2,.08,1.78,.36,.53,.23,1.07-.06,1.6,.02-.25,.01-.5-.03-.76-.05,.28-.12,.55-.22,.83-.05,.24,.01,.48,.13,.72,.29,.05,.54,.13,.62,.26,.12,.2,.08,.4,.36,.6,0,.03-.24,.02-.25,.08,.03-.16-.13-.29-.38-.4,.1,.14,.2,.29,.3,.43,.08,.27-.13,.5-.33,.75,.01,.03,.02,.06,.03,.08,.04,.13,.18,.26,.33,.39,0-.05,.02-.11,.03-.17,.14,.08,.13,.2,.11,.28l-.14-.11c-.02,.13-.04,.26-.06,.4,.02-.17-.11-.34-.24-.48,.03,.31,.15,.59-.05,.91l-.04-.02c.33,.42,.87,.82,1.15,1.26,.13,.22,1.39,.13,1.39,.08-.45-.92-.33-1.86-.34-2.79-.17,.11-.34,.22-.49,.33-.04,.05-.1,.1-.19,.14,.06-.05,.12-.09,.19-.14,.11-.13,.08-.27,.22-.41,.08-.03,.1-.11-.13-.14,.19-.19,0-.41,.19-.6,0-.01,.07-.03,.15-.05-.02-.12-.04-.24-.08-.36-.15-.67-.12-1.31,.09-1.93-.16,.14-.33,.28-.56,.41-.36,.17-.05,.58,.03,.91,.06,.08-.19,.13-.2,.21-.65-.3-.17-.68-.26-1.01-.05-.45,.57-1.04,.15-1.55-.18-.21,.1-.38,.38-.52,.14,.07,.11,.18,.1,.23-.13,.48-.26,.97-.22,1.47,.36-.5,.25-1,.71-1.48,0,.3-.4,.57-.07,.87,.06-.02,.12-.04,.17-.06,.1-.19,.22-.38,.36-.56-.08-.07-.16-.13-.22-.2-.72-.6,.1-1.19,.07-1.82,.02-.05-.18-.15-.31-.26-.05,.2-.18,.39-.2,.59,.09-.07,.21-.14,.38-.19,.02,.19-.34,.31-.32,.51-.06-.11-.07-.22-.06-.32-.13,.11-.19,.23-.27,.36-.24-.28,.45-.44,.07-.74,0,.05-.02,.11-.06,.16l.05-.16h0c0-.16-.12-.34-.25-.51-.02,.29-.38,.5-.4,.79,0,.04,.01,.09,.02,.14-.02-.05-.02-.1-.02-.14-.06-.66,.4-1.26,.66-1.86l-.02-.06h-.31c-.17,.52-.44,1.03-.79,1.52Z"/>
        </g>
      </g>
      <g class="cls-12">
        <g class="cls-12">
          <path class="cls-5" d="M392.05,195.66c-4.58,1.12-9.59,1.23-13.43,2.59-.42,.14-.86,.29-1.3,.44l.69-.04c5.23-.34,10.89-1.21,16.07-2.56,3.19-.95,6.31-2.28,9.87-3.13,.4-.09,.37-.41,.35-.57-.4-.1-.76-.24-1.09-.38-1.4,.46-2.82,.93-4.24,1.39-1.43,.43-2.87,.85-4.36,1.21-.99,.19-1.97,.93-2.56,1.05Z"/>
          <polygon class="cls-8" points="403.34 192.01 403.27 191.98 402.85 192.12 403.34 192.01"/>
          <path class="cls-4" d="M396.4,194.24c-.94,.32-1.89,.57-2.85,.75-.59,.28-1.12,.6-1.5,.67-4.58,1.12-9.59,1.23-13.43,2.59-.42,.14-.85,.28-1.29,.43l.74-.05c1.82-.09,3.67-.31,5.55-.54,.1-.03,.2-.07,.29-.1,1.01-.37,2.01-.32,3.02-.48,2.81-.68,5.21-.99,8-1.76,.99-.29,1.96-.9,3.16-1.15,.4-.1,.8-.18,1.18-.25,1.52-.52,3.07-1.04,4.73-1.42,.4-.09,.37-.41,.35-.57-.21-.05-.41-.12-.6-.19-1.35,.29-2.67,.65-4.04,.98-1.16,.37-2.34,.72-3.54,1.05,.06,.02,.12,.03,.21,.03Z"/>
          <path class="cls-8" d="M396.17,193.8c-.17,.04-.33,.31,.02,.4,1.2-.33,2.37-.67,3.54-1.05-1.15,.27-2.33,.49-3.56,.64Z"/>
          <path class="cls-9" d="M396.11,192.68c-2.36,.44-4.52,1.28-6.51,1.42-1.04,.08-2.08,.04-3.01-.1-.32,.07-.64,.13-.96,.2-7.91,1.77-15.95,2.91-23.94,3.19-4,.23-7.68,.94-11.77,1.45-2.44,.14-4.4-.17-6.79-.4-5.93-.63-11.08,.51-17.2,.48-1.64,0-1.97,1.24-1.56,1.28,5.22,.18,10.14,.35,15.11,.51,4.98,.09,9.97,.07,15.08-.35,7.92-.65,15.36-1.23,22.78-1.69,.45-.15,.88-.3,1.3-.44,3.83-1.36,8.84-1.47,13.43-2.59,.6-.11,1.57-.86,2.56-1.05,1.49-.36,2.93-.78,4.36-1.21,1.41-.47,2.83-.93,4.24-1.39-.69-.3-1.28-.63-1.95-.81-1.7,.65-3.41,1.23-5.15,1.49Z"/>
          <path class="cls-7" d="M396.11,192.68c1.74-.26,3.46-.84,5.15-1.49-.33-.09-.68-.14-1.08-.13-4.42,.4-9.11,2-13.6,2.94,.93,.13,1.97,.18,3.01,.1,1.98-.14,4.15-.98,6.51-1.42Z"/>
          <path class="cls-4" d="M396.11,192.68c1.66-.25,3.3-.78,4.92-1.4-.58,.08-1.16,.18-1.73,.32-2.94,.64-5.89,1.41-8.86,1.71,3.14-.64,6.26-1.35,9.36-2.2-4.31,.46-8.85,2.01-13.2,2.91,.93,.13,1.97,.18,3.01,.09,1.98-.14,4.15-.98,6.51-1.42Z"/>
          <path class="cls-3" d="M391.38,193.93c1.79-.29,3.57-.61,5.35-1.03,1.78-.39,3.55-.88,5.3-1.47-.18-.07-.36-.14-.55-.2-.16,.02-.31,.04-.46,.06-1.62,.62-3.26,1.15-4.92,1.4-2.36,.44-4.52,1.28-6.51,1.42-1.04,.08-2.08,.04-3.01-.09-.3,.06-.6,.12-.9,.19-2.02,.47-4.05,.83-6.08,1.23-2.04,.34-4.07,.69-6.11,.96-3.5,.85-7.4,1.19-11.17,1.21,1.76-.12,3.52-.32,5.29-.56-1.96,.17-3.91,.3-5.87,.36-1.69,.11-3.33,.28-4.97,.5-.32,.31-.84,.59-1.75,.73-1.43,.2-2.84,.2-4.29,.54-.2,0-.17-.23-.57-.23,1.12-.01,2.04-.21,2.83-.49-1,.14-2.01,.27-3.02,.41-1.92,.13-3.54-.07-5.3-.24l-.57,.03c-.95,.03-1.91,.16-2.87,.31,.39,.01,.78,.02,1.2,.04-.63,.14-1.44,.11-2.04,.09,.28-.04,.57-.09,.84-.13-.94-.03-1.83-.05-2.83-.11,1.21,.08,2.44-.06,3.47-.18-2.22,.03-4.26,.06-6.44-.21l.17-.04c-3.1,.2-6.22,.56-9.62,.54-1.65,0-1.97,1.24-1.56,1.28,7.18,.21,14.05,.61,21.04,.55-.8-.17-1.59-.33-2.38-.49-.35-.04-.68-.1-.99-.2,.33,.07,.66,.13,.99,.2,.94,.12,1.98,.09,3,.21,.19,.08,.8,.09,1.04-.15,1.39,.18,3.05-.05,4.44,.08,.08,0,.23,.06,.39,.14,.88-.06,1.76-.12,2.65-.18,4.95-.43,9.71-.78,14.4-1.12-1.14-.03-2.24-.09-3.27-.2-1.39-.2-4.24,.34-6.69,.62-.62,.1-.99-.12-1.6-.1,2.1-.76,4.87-.54,7.31-.84,3.23-.39,7.84-.3,11.27-1.28,1.41-.41,2.81-.33,4.01-.26-.4,.22-1.21,.31-1.61,.36-3.63,.42-7.23,.85-10.87,1.27,3.82-.05,7.45-.69,11.27-.84-2.22,.35-4.42,.31-6.45,.89,.18,.04,.37,.07,.55,.09,1.46-.1,2.92-.19,4.4-.29,.44-.15,.87-.29,1.29-.43,3.83-1.36,8.84-1.47,13.43-2.59,.38-.07,.91-.4,1.5-.67-1.49,.27-2.98,.55-4.47,.82,.61-.03,1.2-.06,1.77,0-1.39,.35-2.6,.21-4,.53,.74-.22,1.49-.38,2.23-.53-.92,.06-1.88,.2-2.83,.31,1.78-.61,3.59-.27,5.35-1.09-.39,.09-.78,.16-1.17,.21l1.19-.22h-.02c1.19-.26,2.35-.64,3.38-1.04-2.04,.47-3.96,.54-5.96,.98l-.99,.23c.33-.09,.66-.16,.99-.23,4.57-1.1,9.25-1.75,13.82-2.82l.43-.14c-.15-.07-.31-.13-.46-.2-1.89,.45-3.8,.89-5.72,1.23-1.91,.37-3.82,.68-5.71,.92Z"/>
        </g>
      </g>
      <g class="cls-12">
        <g class="cls-12">
          <path class="cls-5" d="M473.25,173.31c-1.29,.67-2.98,.54-3.83,1.7-.1,.12-.2,.25-.3,.38,.07,0,.14-.02,.22-.02,1.66-.18,3.33-.71,4.77-1.51,.85-.61,1.58-1.52,2.64-1.88,.12-.04,0-.33-.05-.48-.18-.14-.36-.3-.53-.47-.76,.52-1.49,1.13-2.34,1.51-.29,.1-.4,.71-.58,.77Z"/>
          <polygon class="cls-8" points="476.22 171.05 476.19 171.01 476.08 171.09 476.22 171.05"/>
          <path class="cls-4" d="M474.36,172.36c-.24,.2-.51,.34-.79,.44-.12,.21-.21,.47-.32,.51-1.29,.67-2.98,.54-3.83,1.7-.1,.12-.2,.24-.29,.37,.08,0,.15-.02,.23-.03,.57-.06,1.15-.17,1.72-.31l.07-.08c.22-.32,.6-.19,.9-.28,.76-.49,1.52-.57,2.28-1.07,.27-.17,.43-.64,.79-.76,.11-.06,.23-.09,.35-.12,.4-.32,.82-.61,1.31-.78,.12-.04,0-.34-.05-.48-.1-.07-.19-.15-.28-.24-.41,.11-.79,.29-1.2,.44-.31,.22-.63,.44-.96,.62,.03,.02,.05,.04,.09,.05Z"/>
          <path class="cls-8" d="M474.14,171.94c-.05,.02-.02,.25,.14,.38,.33-.18,.65-.4,.96-.62-.34,.12-.7,.23-1.1,.25Z"/>
          <path class="cls-9" d="M473.76,170.9c-.73,.16-1.22,.81-1.89,.78-.34,0-.72-.09-1.09-.27-.09,.04-.18,.09-.27,.13-2.2,1.19-4.48,2.2-6.9,2.72-1.19,.34-2.07,1.23-3.13,2-.68,.35-1.35,.2-2.07,.18-.91-.06-1.55,.25-2.26,.61-.69,.34-1.51,.72-2.43,.53-.46-.11-1.21,.9-1.09,.98,1.87,.81,3.7,.68,5.28,.38,1.62-.32,3.06-.87,4.47-1.56,2.2-1.08,4.4-1.73,6.74-1.99,.1-.13,.2-.26,.3-.38,.85-1.17,2.55-1.04,3.83-1.7,.18-.06,.29-.67,.58-.77,.86-.38,1.58-.99,2.34-1.51-.35-.35-.68-.72-.98-.96-.43,.39-.88,.76-1.43,.84Z"/>
          <path class="cls-7" d="M473.76,170.9c.55-.08,.99-.45,1.43-.84-.15-.12-.3-.2-.44-.24-1.52-.11-2.71,.96-3.97,1.58,.37,.18,.75,.27,1.09,.27,.67,.03,1.16-.62,1.89-.78Z"/>
          <path class="cls-4" d="M473.76,170.9c.53-.07,.95-.42,1.37-.78-.19,0-.37,.04-.55,.1-.88,.3-1.71,.73-2.67,.79,.91-.36,1.82-.73,2.7-1.2-1.45-.03-2.6,.99-3.83,1.6,.37,.18,.74,.27,1.09,.27,.67,.03,1.16-.62,1.89-.78Z"/>
          <path class="cls-3" d="M472.46,171.66c1.09-.27,2.15-.62,3.1-1.3-.09-.09-.18-.17-.27-.25-.06,0-.1,0-.15,0-.42,.37-.84,.71-1.37,.78-.73,.16-1.22,.81-1.89,.78-.34,0-.72-.09-1.09-.27-.09,.04-.17,.08-.26,.12-1.12,.61-2.27,1.17-3.44,1.64-.88,.77-2.04,1.11-3.21,1.26,.51-.18,1.01-.39,1.5-.64-.58,.18-1.16,.34-1.75,.47-.5,.14-.95,.39-1.38,.68,0,.31-.06,.6-.3,.77-.37,.26-.79,.38-1.12,.79-.06,.02-.13-.21-.25-.18,.33-.09,.55-.34,.69-.66-.25,.2-.51,.4-.77,.6-.53,.27-1.06,.24-1.62,.2-.05,.03-.1,.05-.15,.07-.25,.12-.48,.32-.72,.54,.11-.02,.23-.04,.35-.06-.14,.19-.38,.22-.55,.25l.21-.19c-.27,.05-.53,.08-.81,.1,.34-.03,.66-.24,.91-.44-.6,.18-1.16,.4-1.76,.24l.04-.05c-.76,.37-1.64,.86-2.67,.66-.46-.11-1.22,.9-1.09,.99,1.3,.57,2.61,.66,3.79,.57,1.19-.09,2.29-.36,3.35-.69-.3-.09-.59-.17-.87-.25-.12,0-.23-.04-.35-.1,.11,.03,.23,.07,.35,.1,.32,.02,.62-.1,.97-.07,.08,.06,.27,.01,.26-.23,.48,.04,.88-.32,1.35-.28,.02,0,.09,.04,.16,.1,.25-.11,.49-.23,.74-.35,1.38-.67,2.75-1.18,4.16-1.53-.38-.01-.75-.05-1.12-.14-.52-.18-1.23,.44-1.91,.79-.16,.13-.35-.07-.53-.02,.39-.84,1.34-.7,2.01-1.06,.91-.42,2.43-.38,3.27-1.21,.34-.35,.83-.25,1.27-.14-.07,.19-.31,.26-.43,.29-1.07,.33-2.15,.65-3.17,1.11,1.21-.11,2.21-.65,3.44-.7-.63,.28-1.39,.18-1.86,.73,.07,.04,.14,.07,.21,.09,.45-.08,.91-.15,1.37-.2,.1-.13,.19-.26,.29-.37,.85-1.17,2.55-1.04,3.83-1.7,.11-.04,.2-.3,.32-.51-.44,.16-.9,.24-1.33,.42,.2,0,.41,.03,.63,.13-.39,.21-.85,.03-1.24,.23,.19-.16,.4-.27,.61-.36-.3,0-.59,.07-.89,.12,.43-.46,1.17-.05,1.54-.65-.11,.05-.23,.09-.35,.11l.36-.12h0c.34-.15,.63-.43,.88-.7-.59,.26-1.25,.18-1.82,.44-.09,.05-.18,.1-.27,.16,.09-.06,.18-.11,.27-.16,1.28-.68,2.75-.9,4.14-1.33l.12-.08-.23-.24c-1.13,.4-2.32,.7-3.5,.88Z"/>
        </g>
      </g>
      <g class="cls-12">
        <g class="cls-12">
          <path class="cls-5" d="M296.17,199.53c1.31-.07,2.67,.73,3.8,0,.13-.07,.25-.15,.38-.23l-.19-.06c-1.44-.48-3-.68-4.48-.56-.92,.19-1.88,.7-2.89,.56-.11-.02-.14,.3-.16,.45,.09,.21,.17,.43,.23,.65,.84-.13,1.67-.37,2.52-.35,.28,.04,.61-.48,.78-.45Z"/>
          <polygon class="cls-8" points="292.83 200.29 292.85 200.34 292.97 200.32 292.83 200.29"/>
          <path class="cls-4" d="M294.88,199.91c.28-.08,.55-.08,.82-.06,.18-.14,.35-.34,.46-.33,1.31-.07,2.67,.73,3.8,0,.12-.07,.25-.15,.38-.23-.07-.02-.13-.04-.2-.07-.5-.17-1.01-.3-1.53-.4l-.09,.05c-.3,.2-.56-.07-.84-.1-.8,.14-1.46-.11-2.27,.03-.29,.04-.6,.39-.94,.35-.12,0-.23-.02-.33-.05-.45,.12-.91,.19-1.38,.12-.11-.02-.14,.3-.16,.45,.05,.11,.09,.22,.13,.34,.38,.08,.77,.08,1.16,.13,.34-.06,.69-.12,1.04-.15-.01-.03-.03-.06-.05-.08Z"/>
          <path class="cls-8" d="M294.9,200.39s.12-.22,.04-.4c-.35,.02-.69,.08-1.04,.15,.33,.03,.66,.09,1,.25Z"/>
          <path class="cls-9" d="M294.8,201.49c.67,.17,1.33-.22,1.88,.09,.29,.14,.57,.38,.81,.7,.1,0,.19,0,.28,0,2.31-.19,4.59-.25,6.86,.13,1.14,.11,2.19-.42,3.35-.79,.69-.1,1.24,.27,1.92,.48,1.69,.61,3.12-.75,4.82-1.23,.46-.13,.48-1.39,.37-1.4-2.84,.61-5.54,.08-8.39,.45-2.21,.25-4.3,.05-6.34-.62-.13,.08-.25,.16-.38,.23-1.13,.74-2.49-.06-3.8,0-.17-.02-.5,.49-.78,.45-.85-.02-1.69,.22-2.52,.35,.14,.47,.26,.94,.41,1.29,.52-.16,1.03-.3,1.52-.14Z"/>
          <path class="cls-7" d="M294.8,201.49c-.49-.17-1-.02-1.52,.14,.08,.17,.16,.31,.27,.41,1.21,.76,2.64,.3,3.94,.24-.24-.32-.52-.56-.81-.7-.55-.31-1.21,.08-1.88-.09Z"/>
          <path class="cls-4" d="M294.8,201.49c-.47-.16-.96-.03-1.45,.11,.16,.08,.32,.13,.49,.15,.85,.12,1.71,.07,2.54,.42-.91-.05-1.81-.1-2.73-.07,1.19,.66,2.57,.22,3.83,.17-.24-.31-.52-.55-.81-.69-.55-.31-1.21,.08-1.88-.09Z"/>
          <path class="cls-3" d="M296.18,201.36c-1.01-.21-2.03-.35-3.08-.15,.04,.12,.08,.23,.12,.34,.05,.02,.09,.04,.13,.07,.49-.15,.98-.27,1.45-.11,.67,.17,1.33-.22,1.88,.09,.29,.14,.57,.38,.81,.69,.09,0,.18,0,.26,0,1.18-.1,2.35-.16,3.52-.15,1.02-.37,2.12-.26,3.18,.03-.5-.01-1,0-1.51,.05,.56,.05,1.11,.11,1.66,.2,.48,.05,.95-.02,1.42-.14,.1-.29,.25-.54,.51-.62,.4-.12,.8-.09,1.21-.36,.06,0,.05,.24,.16,.25-.32-.03-.58,.13-.8,.38,.29-.1,.58-.2,.86-.3,.54-.08,1,.13,1.5,.33,.06,0,.11-.02,.16-.03,.27-.04,.54-.17,.81-.33-.11,0-.22-.02-.34-.03,.18-.14,.4-.13,.57-.11-.08,.05-.16,.09-.24,.14,.26,.02,.52,.04,.8,.06-.34-.02-.69,.1-.98,.24,.63-.03,1.2-.14,1.82,.06l-.05,.04c.87-.32,1.73-.86,2.67-1.12,.46-.13,.48-1.39,.37-1.39-1.98,.43-3.9,.3-5.84,.31,.22,.17,.44,.34,.67,.49,.1,.04,.19,.1,.28,.19-.09-.06-.19-.12-.28-.19-.26-.11-.55-.08-.84-.22-.05-.08-.22-.1-.29,.13-.39-.19-.85,0-1.24-.19-.02,0-.06-.07-.11-.15-.25,.02-.49,.04-.74,.08-1.38,.16-2.72,.14-4.02-.06,.31,.15,.61,.33,.89,.55,.38,.36,1.19,.04,1.88-.05,.17-.06,.27,.18,.44,.2-.6,.66-1.37,.18-2.06,.27-.92,.06-2.18-.55-3.18-.11-.41,.19-.79-.09-1.11-.37,.12-.14,.35-.12,.46-.1,1.01,.12,2.03,.23,3.06,.18-1.06-.35-2.09-.23-3.14-.66,.62,0,1.22,.38,1.81,.05-.05-.06-.1-.11-.15-.17-.41-.09-.81-.21-1.22-.34-.13,.08-.25,.16-.38,.23-1.13,.74-2.49-.06-3.8,0-.11-.01-.28,.19-.46,.33,.42,.04,.84,.16,1.26,.17-.17-.08-.33-.2-.47-.38,.4-.03,.71,.33,1.11,.3-.22,.07-.43,.08-.64,.08,.25,.12,.52,.18,.79,.26-.53,.25-.98-.43-1.53-.04,.11,0,.22,.01,.33,.05l-.34-.04h0c-.34,0-.68,.13-1,.27,.59,0,1.1,.36,1.68,.36,.09,0,.19-.02,.29-.03-.1,.02-.19,.03-.29,.03-1.32,.09-2.63-.34-3.94-.56l-.13,.02,.09,.31c1.09,.14,2.18,.38,3.24,.7Z"/>
        </g>
      </g>
    </g>
  </g>
</svg>