<?xml version="1.0" encoding="UTF-8"?>
<svg id="_Слой_2" data-name="Слой 2" xmlns="http://www.w3.org/2000/svg" xmlns:xlink="http://www.w3.org/1999/xlink" viewBox="0 0 451.17 224.17">
  <defs>
    <style>
      .cls-1 {
        fill: none;
      }

      .cls-2 {
        clip-path: url(#clippath);
      }

      .cls-3 {
        fill: #f3f9fb;
      }

      .cls-4 {
        fill: #f7fbfc;
      }

      .cls-5 {
        fill: #f8fcfd;
      }

      .cls-6 {
        fill: #f4fafb;
      }

      .cls-7 {
        fill: #f5fafb;
      }

      .cls-8 {
        fill: #fbfdfe;
      }

      .cls-9 {
        fill: #349039;
      }

      .cls-10 {
        fill: #6e7c6e;
      }

      .cls-11 {
        opacity: .49;
      }

      .cls-12 {
        opacity: .8;
      }
    </style>
    <clipPath id="clippath">
      <rect class="cls-1" width="451.17" height="224.17"/>
    </clipPath>
  </defs>
  <g id="_верхний_лотос" data-name="верхний лотос">
    <g class="cls-2">
      <g>
        <g class="cls-11">
          <path class="cls-10" d="M132.83,212.85c-26.99,.11-59.41-7.64-82.66-25.29-3.88-3.92-5.81-7.84-9.69-9.8-3.88-5.88-5.81-9.8-9.69-13.73-5.81-13.73-7.75-31.37,1.94-43.14,36.82-41.18,89.14-58.83,141.46-66.67,79.45-11.77,162.78,13.73,218.94,70.66l-.66,1.41c-53.06,4.03-111.04,7.78-167.34,10.64l11.98,1.17c38.19-.68,69.61,2.84,107.71,5.64,21.36,1.57,43.31,3.86,62.29,13.91h0c-4.51,17.42-21.34,29.28-39.38,37.4-38.96,17.52-78.88,26.84-121.6,23.57-41.9-3.21-76.93-1.92-118.58-7.64"/>
          <path class="cls-10" d="M102.54,211.73c-8.9-1.76-16-3.91-23-6.31-1.1-.34-2.47-.38-3.83-.92-2.71-1.05-5.42-2.21-8.11-3.39-1.32-.64-2.62-1.29-3.89-1.98-1.28-.67-2.46-1.5-3.61-2.3l-1.89-1.32-1.85-1.37c-1.23-.92-2.52-1.71-3.71-2.65-.61-.44-1.22-.88-1.83-1.32-.63-.47-1.17-.77-1.96-1.4l-.89-.88-.8-.81c-.52-.54-1.03-1.08-1.54-1.62-1.1-1.16-2.1-2.31-3.1-3.3-.5-.49-1-.93-1.51-1.33-.26-.18-.51-.38-.78-.53-.41-.27-.92-.52-1.39-.78-.24-.31-.44-.66-.66-.98l-.6-.92-.94-1.45-1.87-2.87c-1-1.49-2-2.86-2.65-4.69-.24-.68-.75-1.51-1.46-2.26-.2-.21-.32-.33-.61-.59-.26-.24-.54-.47-.83-.7-.18-.3-.36-.6-.55-.89-.1-.14-.2-.29-.29-.43-.09-.1-.18-.21-.27-.31-.28-.31-.47-1.15-.59-1.76-.15-.66-.1-1.49-.35-1.92-1.39-2.41-2.24-5.12-2.7-7.91-.29-1.38-.39-2.81-.57-4.2-.09-1.42-.27-2.82-.35-4.23-.15-1.41,.26-2.93-.48-4.18-.22-.32-.09-1.73,.13-2.13,.3-.52,.48-1.06,.66-1.62,.18-.57,.32-1.17,.43-1.85,.59-2.89,1.42-5.78,2.81-8.45,.29-.69,.7-1.33,1.08-1.98,.4-.64,.73-1.31,1.21-1.91l1.37-1.84c.47-.56,.97-1.03,1.45-1.55,1.15-2.67,3.64-4.67,5.7-6.77,1.62-1.51,3.48-2.76,5.22-4.11,.88-.68,1.65-1.55,2.47-2.35,.86-.75,1.77-1.42,2.88-1.76,.35-.11,.84-.85,1.3-1.26,1.03-.93,2.09-1.89,3.13-2.83,1.04-.94,2.2-1.71,3.34-2.37,1.18-.66,2.36-1.32,3.44-2.11,.88-.63,1.73-1.3,2.63-1.9l2.71-1.77,5.43-3.54,5.6-3.26,2.8-1.63,2.87-1.5,5.75-2.99c1.94-.94,3.91-1.82,5.87-2.73,3.88-1.89,7.93-3.4,11.9-5.08,1.38-.59,2.79-.91,4.08-2.02,1.01-.85,3.57-1.81,4.85-1.78,2.05,.02,3.7-.75,5.47-1.3,1.63-.48,3.26-1.01,4.88-1.54,1.63-.51,3.28-.96,4.92-1.39,1.96-.49,3.99-1.63,5.96-1.09,.19,.05,.81-.1,1-.25,1.93-1.49,4.25-1.22,6.45-1.63,1.6-.32,3.19-.66,4.83-1.51,1.59-.82,4.41-1.51,6.07-1.36,2.23,.24,4.12-.32,6.09-.69l4.36-.8,4.37-.69c2.92-.47,5.83-.95,8.76-1.31l4.4-.58,4.41-.47c2.94-.35,5.89-.53,8.84-.78,2.79-.23,5.55-.53,8.33-.86,2.78-.27,5.58-.43,8.41-.3,1.34,.1,2.82-.27,4.02,.46,.25,.15,1.33,.07,1.76-.1,1.55-.63,3.09-.31,4.83-.22,3.95,.18,7.9,.61,11.85,.92,3.94,.42,7.87,.7,11.74,.93,6.06,.26,11.88,1.48,17.77,2.43,1.96,.35,3.83,1.24,5.79,1.76,1.9,.48,3.84,.94,5.77,1.35,1.15,.25,2.25,.72,3.51,.45,.68-.13,2.34,.23,2.93,.65,2.01,1.41,4.47,1.73,6.74,2.46,6.54,1.95,13,4.19,19.36,6.64,1.55,.63,3.45,.94,4.52,2.31,.14,.19,1.15,.28,1.75,.44,.63,.18,1.48,.27,1.87,.57,3.62,2.75,8.08,4.11,12.13,6.12,9.76,4.92,19.35,10.24,28.36,16.42,1.26,.87,2.56,1.5,3.82,2.18,1.26,.68,2.51,1.36,3.71,2.24,2.34,1.67,4.64,3.4,6.9,5.17,1.6,1.25,3.49,2.34,4.41,4.21,.25,.51,1.4,1.43,2.01,1.63,2.28,.8,3.88,2.78,5.77,4.24,.59,.44,1.11,.96,1.64,1.46l.8,.77,.93,.87c.7,.65,1.43,1.27,2.19,1.89,.73,.61,1.74,1.26,2.37,1.81,.78,.64,1.19,2,1.93,2.97,.63,.86,1.28,1.72,1.94,2.58l.12,.16c.02,.06,.13,.1,.06,.17l-.19,.4-.38,.8c-.07,.13-.11,.28-.2,.38l-.42,.08-.84,.15c-1.07,.19-1.9,.56-3,.8l-6.4,1.38c-.14,.03-.26,.06-.41,.09l-.5,.05-1.01,.1-1.54,.16-2.81,.29c-3.74,.38-7.49,.74-11.24,1.06-7.64,.65-15.3,1.11-22.96,1.64-7.65,.52-15.31,1.11-22.97,1.5-2.88,.14-5.95,1.04-8.68,0-2.6,.89-4.95,.6-7.31-.07-.34-.1-1.15,.3-1.77,.44-1.92,.44-3.69,1.77-5.91,.58-.08-.04-.35,.03-.52,.02-1.79-.08-2.95,1.33-5.26,.67-1.44-.41-3.71-.06-5.61,0-1.96,.07-3.94,.14-5.87,.37-2,.24-4.22-.26-6.05,.85-.3,.18-1.81-.43-2.68-.33-4.47,.51-9.12-.15-13.46,1.29-.99,.33-2.59,.38-3.68,.21-3.92-.64-7.52,0-11.47,.53-5.2,.7-10.79,1.15-15.98,.17-.27-.05-.51-.1-.72-.14l.1-4.1c.64,.21,1.11,.29,1.97,.04,.75-.22,2-.03,3.02,.07l4.26,.41,2.13,.21c.44,.04,.49,.05,.79,.05h1.07c2.87-.04,5.73-.09,8.6-.07,5.73-.02,11.46,.11,17.19,.26,3.12,.11,5.98,1.15,9.19,.95,1.32-.09,2.85,.47,3.98-.28,.16-.11,.71-.14,.95-.07,3.78,1.13,7.66,.03,11.44,.66,.81,.13,1.58,.36,2.38,.52,.82,.16,1.77,.46,2.47,.37,5.92-.75,11.87,.58,17.78,.75,2.02,.06,4.18,.76,6.04-.08,.28-.13,1.17-.04,1.54,.12,3.35,1.45,7.19,.85,10.73,1.44,1.82,.3,3.92-.18,5.48,.91,.2,.14,.94,.1,1.4,.06,.8-.06,1.6-.32,2.36-.25,2.12,.21,4.38,.92,6.27,.74,2.34-.22,4.52,.12,6.74,.28,1.28,.1,2.5,.66,3.8,.88,1.21,.22,2.49,.28,3.74,.41,1.78,.21,3.66,.24,5.33,.69,1.72,.46,3.26-.37,5.09,.63,1.39,.74,3.24,.11,4.92,.31,.83,.09,1.69,.37,2.5,.65,.61,.21,1.15,.65,1.74,.74,1.34,.2,2.56,.72,4.08,.62,1.05-.08,2.63,.95,4.01,1.38,1.37,.44,2.77,.85,4.16,1.26,1.38,.44,2.79,1.17,4.11,1.38,1.44,.28,2.86,.68,4.26,1.14,.69,.26,1.37,.53,2.06,.82l1.3,.56c.46,.21,.92,.43,1.36,.66l2.67,1.39c.75,.52,2.29,.71,1.45,1.89-.64,1.94-1.15,3.81-1.91,5.71-.09,.25-.19,.5-.28,.76-.07,.2-.14,.4-.21,.6-.12,.4-.29,.78-.49,1.14-.39,.72-.87,1.37-1.55,1.76-.23,.15-.69,.89-.85,1.32-.25,.68-.53,1.36-.84,2.02-.32,.66-.72,1.26-1.11,1.88-.76,1.26-1.73,2.36-2.69,3.47-.96,1.11-2.06,2.08-3.07,3.13-1.09,.96-2.11,1.99-3.16,2.97-2.93,2.87-5.97,5.58-9.55,7.71-3.48,2.06-7.21,3.86-10.5,5.91-1.34,.88-2.72,1.65-4.1,2.42-1.38,.72-2.79,1.35-4.24,1.86-2.82,1.02-4.86,3.71-8.15,3.47-2.83,1.19-5.7,2.27-8.59,3.3-2.42,.87-4.82,2.04-7.46,2.08-.96,.02-2.63,.6-3.5,1.16-2.79,1.83-5.85,2.56-9.12,2.98-.77,.11-1.59,.79-2.44,1.05-2.59,.8-5.24,1.48-7.87,2.04-7.9,1.49-15.48,4.02-23.47,5.14-1.46,.23-3.01,1.07-4.33,1.06-4.03-.02-8.06,.28-12.07,.69-4.02,.26-8.05,.65-12.01,.32l-8.74-.5c-2.91-.1-5.81-.3-8.72-.46-2.93-.14-5.74-.33-8.59-.51-2.84-.19-5.69-.33-8.53-.57-1.48-.12-3-.92-3.7-.75-2.21,.54-4.68-.15-6.52,.26-3.32,.73-6.54-.01-9.78,.09-2.36,.06-4.87-.62-7.08,.29-.32,.13-1.13,.08-1.56-.06-3.43-1.07-6.93,.19-10.36-.38-6.59,.89-13.31-.19-19.97-.29-.98-.01-1.95,.17-2.92,.25-.5,.04-1.09,.16-1.49,.05-5.96-1.53-12.27-1.08-18.37-1.92-2.01-.3-3.96-.82-5.96-1.13-2.02-.3-4.15-.27-5.98-1.22-.57-.3-1.76-.31-2.63-.32-4.74-.09-8.02-2.12-7.73-4.63,.1-.91,1.06-.84,2.1-1.05,2.02-.41,3.96-.58,6.29-.22,1.81,.25,3.77,.76,5.48,.07,.29-.12,1.11,0,1.54,.17,3.04,1.08,6.61,.82,9.52,1.59,2.24,.59,4.35,.67,6.51,.99,1.82,.27,3.74-.06,5.52,.86,.6,.32,2.45-.28,3.73-.23,3.02,.11,6.06,.22,9.07,.48,9.14,.81,18.22-.17,27.37,.51,6.58-.89,13.34,.43,19.9,.19,7.93-.31,15.85,.63,23.68,.85,1.6,.03,2.87,.13,4.27,.51,.91,.24,1.88,.51,2.84,.53l5.56,.13c1.85,.05,3.71-.03,5.56,.01,.99,.01,2.04-.13,3.06-.15,1.02-.03,2.02,.03,2.92,.52,.25,.14,1.15,.08,1.53-.07,3.2-1.17,6.75-.86,10.12-1.27,1.29-.14,2.53-.28,3.97-.06,1.56,.22,3.95-.07,5.48-.69,1.15-.47,2.21-.64,3.33-.9,1.17-.27,2.36-.45,3.56-.6l3.6-.55c1.2-.19,2.39-.41,3.55-.71,1.16-.32,2.28-.76,3.35-1.32,1.32,.29,2.71,.18,4.06-.11,1.35-.3,2.65-.81,3.82-1.24,9-3.34,18.36-5.47,27.29-8.97,2.14-.87,4.5-1.22,6.72-1.99,2.32-.84,4.62-1.81,6.89-2.8,1.2-.55,2.76-.82,3.38-1.99,.05-.09,.24-.22,.38-.26,1.34-.44,2.8-.71,4.01-1.35,1.09-.58,1.89-1.53,2.93-2.22,1.24-.82,2.63-1.51,3.94-2.26,1.29-.69,2.54-1.63,3.93-1.59,.54-1.34,2.17-1.85,3.36-2.68,1.11-.79,2.26-1.55,3.39-2.32,1.21-.94,2.48-1.81,3.63-2.81,.58-.49,1.2-.95,1.77-1.45,.56-.51,1.11-1.03,1.63-1.57,1.4-1.52,2.55-3.2,3.74-4.81,1.28-1.69,2.51-3.42,3.66-5.16,.39-.53,.72-1.09,1.05-1.65l1.02-1.67,.22-.43c.07-.14,.16-.33,.18-.34l.22-.32c.17-.25,.31-.53,.44-.83,.11-.25,.14-.47,.09-.64-.02-.09-.03-.18-.25-.16-.17-.01-.35-.01-.52-.01-.47,0-.98,.14-1.25,.16-.14,0-.22-.01-.31-.14-.03-.04,0-.05-.09-.12-.09-.08-.19-.16-.28-.25-.18-.18-.35-.39-.51-.63-.24-.39-1.51-.86-2.28-.97-1.49-.25-2.93-.64-4.38-1.03-1.43-.43-2.87-.88-4.31-1.34-2.87-.94-5.8-1.84-8.78-2.34-3.08-1.61-6.41-1.67-9.9-1.92-5.13-.4-10.57-.86-15.59-1.87-5.32-1.08-10.67-1.11-16.03-1.74-1.51-.18-3.17,.04-4.38-.9-.28-.22-1.43-.25-2.06-.17-4.43,.54-8.64-.05-13.04-.98-2.32-.49-4.99-.34-7.6-.22-3.92,.18-8.12-.5-12.2-.8-1.69-1.18-3.14-.21-4.07,.18-1.25,.52-2.38,.55-3.82,.46-1.85-.1-3.65-.4-5.51,.16-.95,.28-3.02,.09-4.01-.33-1.32-.56-1.83-.36-3.08-.11-1.47,.3-2.92-.73-4.76-.77-1.95-.05-4.25,.4-5.93-.76-.15-.1-.75-.11-1.02-.04-3.65,.99-7.2-.72-10.81-.29-5.07-.67-10.18-.78-15.3-.67l-1.92,.04-.96,.02h-.71c-.14,.01-.27,0-.4-.02l-.32-.03-3.85-.33c-2.57-.22-5.13-.47-7.68-.78l.19-8.12c.62-.01,1.24-.02,1.86-.04,4.49-.05,9.06,.52,13.45-.21,9.23-1.53,18.58-1.32,27.85-2.05,1.96-.16,4.2-.78,6.03,.18,.25,.13,1.16,.07,1.54-.09,2.89-1.14,5.77-1.01,8.76-.53,.73,.12,2.07,.02,2.49-.27,1.19-.8,2.64-.59,3.95-.66,1.59-.08,3.74,.43,4.67,0,1.98-.91,3.18-.1,4.72-.05,.96,.03,2-.24,2.98-.42,.47-.09,1.04-.44,1.31-.38,3.18,.7,6.17-.79,9.28-.62,.67,.04,1.37-.03,2.02,.03q7.38,.71,16.56-.5c2.61,1.12,5.45-.98,8.26-.18,1.02,.29,2.95,.08,4.18-.27,5.41-1.51,11.11-1.02,16.61-1.74,1.15-.15,2.09,.65,3.51-.16,.53-.3,2.48,.32,3.74,.2,1.83-.17,3.78,.16,5.54-.82,.72-.4,2.37-.24,3.58-.41,.83-.11,1.67-.12,2.5-.2l.31-.03c.11-.01,.22-.03,.23-.04,.09-.02,.17-.05,.25-.09,.15-.08,.29-.2,.36-.38,.17-.39,.61-.44,1.33-.16,.74,.29,1.46,.42,2.03,.45,.53-.02,1.08,.12,.94-.51l-.02-.17s0-.06-.02-.08l-.1-.07-.42-.27c-.28-.17-.57-.34-.84-.49-.55-.3-1.03-.54-1.4-.72-.45-.23-.71-.3-.72-.6-.02-.22-.08-.51-.3-.82-.66-.72-1.34-1.34-1.97-1.64-2.27-1.05-3.82-2.75-5.6-4.24-3.15-2.5-6.17-5.17-9.46-7.48-.93-.67-1.84-1.36-2.75-2.06l-2.79-2c-.94-.66-1.89-1.31-2.86-1.92-.98-.61-2.01-1.14-3.07-1.65-1.14-.54-2.44-1.19-3.65-2.01-1.24-.79-2.4-1.74-3.25-2.94-.19-.27-1.45-.3-2.08-.68-2.48-1.47-4.99-2.89-7.48-4.32-2.55-1.35-5.03-2.81-7.59-4.12-1.17-.62-1.97-2.29-3.47-2.02-1.58,.27-2.03-2.03-3.52-1.44-.22,.09-1.3-.44-1.82-.81-2.79-2.03-5.96-3.38-9.12-4.73-3.23-1.22-6.46-2.42-9.64-3.7-1.52-.63-3.42-.86-4.34-2.19-2.16-.15-4.15-1.12-6.17-2.01-2.04-.84-4.1-1.58-6.29-1.35-2.8-1.11-6.13-1.06-8.62-2.91-.41-.29-1.48-.26-1.95-.55-1.64-.98-3.15,.44-5.1-.93-1.13-.78-3.54-.97-5.39-1.39-1.71-.41-3.45-.65-5.18-.98-1.9-.36-3.8-.7-5.71-.97-1.91-.28-3.82-.68-5.73-.84-1.95-.16-3.88-.18-5.82-.25-1.94-.05-3.88-.11-5.85-.45-.42-.07-1.17,0-1.34,.15-1.46,1.37-3.35,.43-4.66-.11-1.1-.44-2.05-.68-3.27-.76-3.33-.11-6.66-.23-9.98-.34-1.97-.06-4.07,.35-5.95-.55-.58-.28-2.17-.19-3.06,.04-1.04,.27-2.08,.43-3.14,.54-1.05,.14-2.11,.21-3.18,.26-2.13,.1-4.28,.06-6.39,.32-1.91,.22-3.84,.3-5.76,.45-1.46,.13-2.84,.92-4.36,.46-1.74,.47-3.49,.87-5.26,1.22-1.77,.35-3.54,.56-5.34,.84-3.59,.58-7.23,.92-10.77,1.68-3.52,.76-7.08,1.36-10.59,2.16-3.52,.75-7.06,1.45-10.54,2.34-1.75,.42-3.58,1.36-5.39,.78-.35-.12-1.59,.26-1.91,.55-.87,.81-1.55,1.3-2.88,.92-.25-.07-1.15,.35-1.62,.63-1.3,.8-2.58,1.06-4.14,1.19-1.21,.09-2.79,.41-3.84,.97-1.4,.75-2.76,1.46-4.18,1.98-1.41,.56-2.87,.95-4.52,.98-.4,0-1.17,1-1.83,1.21-1.28,.41-2.53,.92-3.77,1.46-1.24,.53-2.51,.98-3.9,1.12-1.14,.11-2.53,.95-3.83,1.38-2.22,.77-3.98,2.26-6.35,2.98-1.19,.38-2.4,.89-3.57,1.5-1.16,.63-2.31,1.3-3.47,1.9-2.31,1.22-4.68,2.35-6.9,3.72-2.25,1.33-4.53,2.6-6.75,3.98l-6.55,4.29c-1.11,.69-2.13,1.5-3.19,2.26l-3.15,2.32c-1.04,.79-2.13,1.51-3.12,2.36l-3.01,2.49c-1.41,1.16-2.8,2.13-4.45,3.03-2.05,1.22-4.11,2.84-6.23,4.82-.52,.5-1.08,1-1.57,1.57-.5,.57-1,1.16-1.51,1.77-1.01,1.22-2.03,2.53-3.08,3.92-.3,.4-.71,.75-1.06,1.13-3.95,4.48-5.73,10.48-6.32,16.68-.3,2.72-.54,5.6-.07,8.48,.15,.94,.27,1.87,.52,2.78,.11,.46,.25,.91,.41,1.36,.19,.44,.41,.88,.68,1.3,.22,.35,.37,.76,.48,1.2,.13,.44,.24,.91,.36,1.39,.22,.96,.56,1.92,1.32,2.63,.28,.26,.53,.81,.78,1.4,.12,.3,.22,.6,.3,.9,.02,.14-.02,.19-.06,.29-.08,.15-.07,.27-.05,.4v.05s.09,.13,.09,.13l.19,.28,.39,.54c.53,.75,1.09,1.47,1.62,2.2,1.09,1.44,2.14,2.85,3,4.28l1.95,3.2,.98,1.55,.31,.47c.06,.08,.11,.17,.18,.25,.09,.05,.19,.09,.27,.15l.39,.24c.18,.11,.34,.24,.51,.36,.69,.49,1.29,1.02,1.86,1.54,1.64,1.56,2.58,3.32,4.34,4.22,.43,.22,.92,.78,1.37,1.38,.23,.31,.45,.62,.64,.94,.1,.16,.19,.31,.28,.45,.01,.06,0,.12,.02,.19-.01,.14,.47,.6,.81,.92,.37,.34,.76,.65,1.15,.94,.8,.57,1.61,1.11,2.47,1.52,3.67,1.78,3.62,1.73,6.83,4.18,.38,.3,.83,.55,1.26,.8,1.09,.61,2.22,1.16,3.32,1.76,1.11,.6,2.22,1.19,3.37,1.7,1.14,.53,2.28,1.04,3.43,1.52,1.17,.43,2.34,.83,3.51,1.16,3.92,1.12,7.69,2.33,11.54,3.46,1.53,.45,3.44,.46,4.5,1.79,.15,.18,1.04,.42,1.45,.38,1.77-.15,3.5,.11,5.22,.51,1.73,.34,3.46,.81,5.17,1.13,1.67,.26,3.32,.28,4.95,.34,1.64,.03,3.29,.04,4.99,.36,3.2,.53,6.51,.62,9.77,.76,4.95,.15,6.02,.71,6.02,3.45,0,2.25-1.3,2.73-5.48,3.12-8.9,.69-17.72-1.22-24.8-2.33Z"/>
        </g>
        <g>
          <path class="cls-9" d="M147.61,166.12c-26.99,.11-59.41-7.64-82.66-25.29-3.88-3.92-5.81-7.84-9.69-9.8-3.88-5.88-5.81-9.8-9.69-13.73-5.81-13.73-7.75-31.37,1.94-43.14C84.33,32.98,136.65,15.34,188.97,7.49c79.45-11.77,162.78,13.73,218.94,70.66l-.66,1.41c-53.06,4.03-111.04,7.78-167.34,10.64l11.98,1.17c38.19-.68,69.61,2.84,107.71,5.64,21.36,1.57,43.31,3.86,62.29,13.91h0c-4.51,17.42-21.34,29.28-39.38,37.4-38.96,17.52-78.88,26.84-121.6,23.57-41.9-3.21-76.93-1.92-118.58-7.64"/>
          <path class="cls-9" d="M117.32,165c-8.9-1.76-16-3.91-23-6.31-1.1-.34-2.47-.38-3.83-.92-2.71-1.05-5.42-2.21-8.11-3.39-1.32-.64-2.62-1.29-3.89-1.98-1.28-.67-2.46-1.5-3.61-2.3l-1.89-1.32-1.85-1.37c-1.23-.92-2.52-1.71-3.71-2.65-.61-.44-1.22-.88-1.83-1.32-.63-.47-1.17-.77-1.96-1.4l-.89-.88-.8-.81c-.52-.54-1.03-1.08-1.54-1.62-1.1-1.16-2.1-2.31-3.1-3.3-.5-.49-1-.93-1.51-1.33-.26-.18-.51-.38-.78-.53-.41-.27-.92-.52-1.39-.78-.24-.31-.44-.66-.66-.98l-.6-.92-.94-1.45-1.87-2.87c-1-1.49-2-2.86-2.65-4.69-.24-.68-.75-1.51-1.46-2.26-.2-.21-.32-.33-.61-.59-.26-.24-.54-.47-.83-.7-.18-.3-.36-.6-.55-.89-.1-.14-.2-.29-.29-.43-.09-.1-.18-.21-.27-.31-.28-.31-.47-1.15-.59-1.76-.15-.66-.1-1.49-.35-1.92-1.39-2.41-2.24-5.12-2.7-7.91-.29-1.38-.39-2.81-.57-4.2-.09-1.42-.27-2.82-.35-4.23-.15-1.41,.26-2.93-.48-4.18-.22-.32-.09-1.73,.13-2.13,.3-.52,.48-1.06,.66-1.62,.18-.57,.32-1.17,.43-1.85,.59-2.89,1.42-5.78,2.81-8.45,.29-.69,.7-1.33,1.08-1.98,.4-.64,.73-1.31,1.21-1.91l1.37-1.84c.47-.56,.97-1.03,1.45-1.55,1.15-2.67,3.64-4.67,5.7-6.77,1.62-1.51,3.48-2.76,5.22-4.11,.88-.68,1.65-1.55,2.47-2.35,.86-.75,1.77-1.42,2.88-1.76,.35-.11,.84-.85,1.3-1.26,1.03-.93,2.09-1.89,3.13-2.83,1.04-.94,2.2-1.71,3.34-2.37,1.18-.66,2.36-1.32,3.44-2.11,.88-.63,1.73-1.3,2.63-1.9l2.71-1.77,5.43-3.54,5.6-3.26,2.8-1.63,2.87-1.5,5.75-2.99c1.94-.94,3.91-1.82,5.87-2.73,3.88-1.89,7.93-3.4,11.9-5.08,1.38-.59,2.79-.91,4.08-2.02,1.01-.85,3.57-1.81,4.85-1.78,2.05,.02,3.7-.75,5.47-1.3,1.63-.48,3.26-1.01,4.88-1.54,1.63-.51,3.28-.96,4.92-1.39,1.96-.49,3.99-1.63,5.96-1.09,.19,.05,.81-.1,1-.25,1.93-1.49,4.25-1.22,6.45-1.63,1.6-.32,3.19-.66,4.83-1.51,1.59-.82,4.41-1.51,6.07-1.36,2.23,.24,4.12-.32,6.09-.69l4.36-.8,4.37-.69c2.92-.47,5.83-.95,8.76-1.31l4.4-.58,4.41-.47c2.94-.35,5.89-.53,8.84-.78,2.79-.23,5.55-.53,8.33-.86,2.78-.27,5.58-.43,8.41-.3,1.34,.1,2.82-.27,4.02,.46,.25,.15,1.33,.07,1.76-.1,1.55-.63,3.09-.31,4.83-.22,3.95,.18,7.9,.61,11.85,.92,3.94,.42,7.87,.7,11.74,.93,6.06,.26,11.88,1.48,17.77,2.43,1.96,.35,3.83,1.24,5.79,1.76,1.9,.48,3.84,.94,5.77,1.35,1.15,.25,2.25,.72,3.51,.45,.68-.13,2.34,.23,2.93,.65,2.01,1.41,4.47,1.73,6.74,2.46,6.54,1.95,13,4.19,19.36,6.64,1.55,.63,3.45,.94,4.52,2.31,.14,.19,1.15,.28,1.75,.44,.63,.18,1.48,.27,1.87,.57,3.62,2.75,8.08,4.11,12.13,6.12,9.76,4.92,19.35,10.24,28.36,16.42,1.26,.87,2.56,1.5,3.82,2.18,1.26,.68,2.51,1.36,3.71,2.24,2.34,1.67,4.64,3.4,6.9,5.17,1.6,1.25,3.49,2.34,4.41,4.21,.25,.51,1.4,1.43,2.01,1.63,2.28,.8,3.88,2.78,5.77,4.24,.59,.44,1.11,.96,1.64,1.46l.8,.77,.93,.87c.7,.65,1.43,1.27,2.19,1.89,.73,.61,1.74,1.26,2.37,1.81,.78,.64,1.19,2,1.93,2.97,.63,.86,1.28,1.72,1.94,2.58l.12,.16c.02,.06,.13,.1,.06,.17l-.19,.4-.38,.8c-.07,.13-.11,.28-.2,.38l-.42,.08-.84,.15c-1.07,.19-1.9,.56-3,.8l-6.4,1.38c-.14,.03-.26,.06-.41,.09l-.5,.05-1.01,.1-1.54,.16-2.81,.29c-3.74,.38-7.49,.74-11.24,1.06-7.64,.65-15.3,1.11-22.96,1.64-7.65,.52-15.31,1.11-22.97,1.5-2.88,.14-5.95,1.04-8.68,0-2.6,.89-4.95,.6-7.31-.07-.34-.1-1.15,.3-1.77,.44-1.92,.44-3.69,1.77-5.91,.58-.08-.04-.35,.03-.52,.02-1.79-.08-2.95,1.33-5.26,.67-1.44-.41-3.71-.06-5.61,0-1.96,.07-3.94,.14-5.87,.37-2,.24-4.22-.26-6.05,.85-.3,.18-1.81-.43-2.68-.33-4.47,.51-9.12-.15-13.46,1.29-.99,.33-2.59,.38-3.68,.21-3.92-.64-7.52,0-11.47,.53-5.2,.7-10.79,1.15-15.98,.17-.27-.05-.51-.1-.72-.14l.1-4.1c.64,.21,1.11,.29,1.97,.04,.75-.22,2-.03,3.02,.07l4.26,.41,2.13,.21c.44,.04,.49,.05,.79,.05h1.07c2.87-.04,5.73-.09,8.6-.07,5.73-.02,11.46,.11,17.19,.26,3.12,.11,5.98,1.15,9.19,.95,1.32-.09,2.85,.47,3.98-.28,.16-.11,.71-.14,.95-.07,3.78,1.13,7.66,.03,11.44,.66,.81,.13,1.58,.36,2.38,.52,.82,.16,1.77,.46,2.47,.37,5.92-.75,11.87,.58,17.78,.75,2.02,.06,4.18,.76,6.04-.08,.28-.13,1.17-.04,1.54,.12,3.35,1.45,7.19,.85,10.73,1.44,1.82,.3,3.92-.18,5.48,.91,.2,.14,.94,.1,1.4,.06,.8-.06,1.6-.32,2.36-.25,2.12,.21,4.38,.92,6.27,.74,2.34-.22,4.52,.12,6.74,.28,1.28,.1,2.5,.66,3.8,.88,1.21,.22,2.49,.28,3.74,.41,1.78,.21,3.66,.24,5.33,.69,1.72,.46,3.26-.37,5.09,.63,1.39,.74,3.24,.11,4.92,.31,.83,.09,1.69,.37,2.5,.65,.61,.21,1.15,.65,1.74,.74,1.34,.2,2.56,.72,4.08,.62,1.05-.08,2.63,.95,4.01,1.38,1.37,.44,2.77,.85,4.16,1.26,1.38,.44,2.79,1.17,4.11,1.38,1.44,.28,2.86,.68,4.26,1.14,.69,.26,1.37,.53,2.06,.82l1.3,.56c.46,.21,.92,.43,1.36,.66l2.67,1.39c.75,.52,2.29,.71,1.45,1.89-.64,1.94-1.15,3.81-1.91,5.71-.09,.25-.19,.5-.28,.76-.07,.2-.14,.4-.21,.6-.12,.4-.29,.78-.49,1.14-.39,.72-.87,1.37-1.55,1.76-.23,.15-.69,.89-.85,1.32-.25,.68-.53,1.36-.84,2.02-.32,.66-.72,1.26-1.11,1.88-.76,1.26-1.73,2.36-2.69,3.47-.96,1.11-2.06,2.08-3.07,3.13-1.09,.96-2.11,1.99-3.16,2.97-2.93,2.87-5.97,5.58-9.55,7.71-3.48,2.06-7.21,3.86-10.5,5.91-1.34,.88-2.72,1.65-4.1,2.42-1.38,.72-2.79,1.35-4.24,1.86-2.82,1.02-4.86,3.71-8.15,3.47-2.83,1.19-5.7,2.27-8.59,3.3-2.42,.87-4.82,2.04-7.46,2.08-.96,.02-2.63,.6-3.5,1.16-2.79,1.83-5.85,2.56-9.12,2.98-.77,.11-1.59,.79-2.44,1.05-2.59,.8-5.24,1.48-7.87,2.04-7.9,1.49-15.48,4.02-23.47,5.14-1.46,.23-3.01,1.07-4.33,1.06-4.03-.02-8.06,.28-12.07,.69-4.02,.26-8.05,.65-12.01,.32l-8.74-.5c-2.91-.1-5.81-.3-8.72-.46-2.93-.14-5.74-.33-8.59-.51-2.84-.19-5.69-.33-8.53-.57-1.48-.12-3-.92-3.7-.75-2.21,.54-4.68-.15-6.52,.26-3.32,.73-6.54-.01-9.78,.09-2.36,.06-4.87-.62-7.08,.29-.32,.13-1.13,.08-1.56-.06-3.43-1.07-6.93,.19-10.36-.38-6.59,.89-13.31-.19-19.97-.29-.98-.01-1.95,.17-2.92,.25-.5,.04-1.09,.16-1.49,.05-5.96-1.53-12.27-1.08-18.37-1.92-2.01-.3-3.96-.82-5.96-1.13-2.02-.3-4.15-.27-5.98-1.22-.57-.3-1.76-.31-2.63-.32-4.74-.09-8.02-2.12-7.73-4.63,.1-.91,1.06-.84,2.1-1.05,2.02-.41,3.96-.58,6.29-.22,1.81,.25,3.77,.76,5.48,.07,.29-.12,1.11,0,1.54,.17,3.04,1.08,6.61,.82,9.52,1.59,2.24,.59,4.35,.67,6.51,.99,1.82,.27,3.74-.06,5.52,.86,.6,.32,2.45-.28,3.73-.23,3.02,.11,6.06,.22,9.07,.48,9.14,.81,18.22-.17,27.37,.51,6.58-.89,13.34,.43,19.9,.19,7.93-.31,15.85,.63,23.68,.85,1.6,.03,2.87,.13,4.27,.51,.91,.24,1.88,.51,2.84,.53l5.56,.13c1.85,.05,3.71-.03,5.56,.01,.99,.01,2.04-.13,3.06-.15,1.02-.03,2.02,.03,2.92,.52,.25,.14,1.15,.08,1.53-.07,3.2-1.17,6.75-.86,10.12-1.27,1.29-.14,2.53-.28,3.97-.06,1.56,.22,3.95-.07,5.48-.69,1.15-.47,2.21-.64,3.33-.9,1.17-.27,2.36-.45,3.56-.6l3.6-.55c1.2-.19,2.39-.41,3.55-.71,1.16-.32,2.28-.76,3.35-1.32,1.32,.29,2.71,.18,4.06-.11,1.35-.3,2.65-.81,3.82-1.24,9-3.34,18.36-5.47,27.29-8.97,2.14-.87,4.5-1.22,6.72-1.99,2.32-.84,4.62-1.81,6.89-2.8,1.2-.55,2.76-.82,3.38-1.99,.05-.09,.24-.22,.38-.26,1.34-.44,2.8-.71,4.01-1.35,1.09-.58,1.89-1.53,2.93-2.22,1.24-.82,2.63-1.51,3.94-2.26,1.29-.69,2.54-1.63,3.93-1.59,.54-1.34,2.17-1.85,3.36-2.68,1.11-.79,2.26-1.55,3.39-2.32,1.21-.94,2.48-1.81,3.63-2.81,.58-.49,1.2-.95,1.77-1.45,.56-.51,1.11-1.03,1.63-1.57,1.4-1.52,2.55-3.2,3.74-4.81,1.28-1.69,2.51-3.42,3.66-5.16,.39-.53,.72-1.09,1.05-1.65l1.02-1.67,.22-.43c.07-.14,.16-.33,.18-.34l.22-.32c.17-.25,.31-.53,.44-.83,.11-.25,.14-.47,.09-.64-.02-.09-.03-.18-.25-.17-.17-.01-.35-.01-.52-.01-.47,0-.98,.14-1.25,.16-.14,0-.22-.01-.31-.14-.03-.04,0-.05-.09-.12-.09-.08-.19-.16-.28-.25-.18-.18-.35-.39-.51-.63-.24-.39-1.51-.86-2.28-.97-1.49-.25-2.93-.64-4.38-1.03-1.43-.43-2.87-.88-4.31-1.34-2.87-.94-5.8-1.84-8.78-2.34-3.08-1.61-6.41-1.67-9.9-1.92-5.13-.4-10.57-.86-15.59-1.87-5.32-1.08-10.67-1.11-16.03-1.74-1.51-.18-3.17,.04-4.38-.9-.28-.22-1.43-.25-2.06-.17-4.43,.54-8.64-.05-13.04-.98-2.32-.49-4.99-.34-7.6-.22-3.92,.18-8.12-.5-12.2-.8-1.69-1.18-3.14-.21-4.07,.18-1.25,.52-2.38,.55-3.82,.46-1.85-.1-3.65-.4-5.51,.16-.95,.28-3.02,.09-4.01-.33-1.32-.56-1.83-.36-3.08-.11-1.47,.3-2.93-.73-4.76-.77-1.95-.05-4.25,.4-5.93-.76-.15-.1-.75-.11-1.02-.04-3.65,.99-7.2-.72-10.81-.29-5.07-.67-10.18-.78-15.3-.67l-1.92,.04-.96,.02h-.71c-.14,.01-.27,0-.4-.02l-.32-.03-3.85-.33c-2.57-.22-5.13-.47-7.68-.78l.19-8.12c.62-.01,1.24-.02,1.86-.04,4.49-.05,9.06,.52,13.45-.21,9.23-1.53,18.58-1.32,27.85-2.05,1.96-.16,4.2-.78,6.03,.18,.25,.13,1.16,.07,1.54-.09,2.89-1.14,5.77-1.01,8.76-.53,.73,.12,2.07,.02,2.49-.27,1.19-.8,2.64-.59,3.95-.66,1.59-.08,3.74,.43,4.67,0,1.98-.91,3.18-.1,4.72-.05,.96,.03,2-.24,2.98-.42,.47-.09,1.04-.44,1.31-.38,3.18,.7,6.17-.79,9.28-.62,.67,.04,1.37-.03,2.02,.03q7.38,.71,16.56-.5c2.61,1.12,5.45-.98,8.26-.18,1.02,.29,2.95,.08,4.18-.27,5.41-1.51,11.11-1.02,16.61-1.74,1.15-.15,2.09,.65,3.51-.16,.53-.3,2.48,.32,3.74,.2,1.83-.17,3.78,.16,5.54-.82,.72-.4,2.37-.24,3.58-.41,.83-.11,1.67-.12,2.5-.2l.31-.03c.11-.01,.22-.03,.23-.04,.09-.02,.17-.05,.25-.09,.15-.08,.29-.2,.36-.38,.17-.39,.61-.44,1.33-.16,.74,.29,1.46,.42,2.03,.45,.53-.02,1.08,.12,.94-.51l-.02-.17s0-.06-.02-.08l-.1-.07-.42-.27c-.28-.17-.57-.34-.84-.49-.55-.3-1.03-.54-1.4-.72-.45-.23-.71-.3-.72-.6-.02-.22-.08-.51-.3-.82-.66-.72-1.34-1.34-1.97-1.64-2.27-1.05-3.82-2.75-5.6-4.24-3.15-2.5-6.17-5.17-9.46-7.48-.93-.67-1.84-1.36-2.75-2.06l-2.79-2c-.94-.66-1.89-1.31-2.86-1.92-.98-.61-2.01-1.14-3.07-1.65-1.14-.54-2.44-1.19-3.65-2.01-1.24-.79-2.4-1.74-3.25-2.94-.19-.27-1.45-.3-2.08-.68-2.48-1.47-4.99-2.89-7.48-4.32-2.55-1.35-5.03-2.81-7.59-4.12-1.17-.62-1.97-2.29-3.47-2.02-1.58,.27-2.03-2.03-3.52-1.44-.22,.09-1.3-.44-1.82-.81-2.79-2.03-5.96-3.38-9.12-4.73-3.23-1.22-6.46-2.42-9.64-3.7-1.52-.63-3.42-.86-4.34-2.19-2.16-.15-4.15-1.12-6.17-2.01-2.04-.84-4.1-1.58-6.29-1.35-2.8-1.11-6.13-1.06-8.62-2.91-.41-.29-1.48-.26-1.95-.55-1.64-.98-3.15,.44-5.1-.93-1.13-.78-3.54-.97-5.39-1.39-1.71-.41-3.45-.65-5.18-.98-1.9-.36-3.8-.7-5.71-.97-1.91-.28-3.82-.68-5.73-.84-1.95-.16-3.88-.18-5.82-.25-1.94-.05-3.88-.11-5.85-.45-.42-.07-1.17,0-1.34,.15-1.46,1.37-3.35,.43-4.66-.11-1.1-.44-2.05-.68-3.27-.76-3.33-.11-6.66-.23-9.98-.34-1.97-.06-4.07,.35-5.95-.55-.58-.28-2.17-.19-3.06,.04-1.04,.27-2.08,.43-3.14,.54-1.05,.14-2.11,.21-3.18,.26-2.13,.1-4.28,.06-6.39,.32-1.91,.22-3.84,.3-5.76,.45-1.46,.13-2.84,.92-4.36,.46-1.74,.47-3.49,.87-5.26,1.22-1.77,.35-3.54,.56-5.34,.84-3.59,.58-7.23,.92-10.77,1.68-3.52,.76-7.08,1.36-10.59,2.16-3.52,.75-7.06,1.45-10.54,2.34-1.75,.42-3.58,1.36-5.39,.78-.35-.12-1.59,.26-1.91,.55-.87,.81-1.55,1.3-2.88,.92-.25-.07-1.15,.35-1.62,.63-1.3,.8-2.58,1.06-4.14,1.19-1.21,.09-2.79,.41-3.84,.97-1.4,.75-2.76,1.46-4.18,1.98-1.41,.56-2.87,.95-4.52,.98-.4,0-1.17,1-1.83,1.21-1.28,.41-2.53,.92-3.77,1.46-1.24,.53-2.51,.98-3.9,1.12-1.14,.11-2.53,.95-3.83,1.38-2.22,.77-3.98,2.26-6.35,2.98-1.19,.38-2.4,.89-3.57,1.5-1.16,.63-2.31,1.3-3.47,1.9-2.31,1.22-4.68,2.35-6.9,3.72-2.25,1.33-4.53,2.6-6.75,3.98l-6.55,4.29c-1.11,.69-2.13,1.5-3.19,2.26l-3.15,2.32c-1.04,.79-2.13,1.51-3.12,2.36l-3.01,2.49c-1.41,1.16-2.8,2.13-4.45,3.03-2.05,1.22-4.11,2.84-6.23,4.82-.52,.5-1.08,1-1.57,1.57-.5,.57-1,1.16-1.51,1.77-1.01,1.22-2.03,2.53-3.08,3.92-.3,.4-.71,.75-1.06,1.13-3.95,4.48-5.73,10.48-6.32,16.68-.3,2.72-.54,5.6-.07,8.48,.15,.94,.27,1.87,.52,2.78,.11,.46,.25,.91,.41,1.36,.19,.44,.41,.88,.68,1.3,.22,.35,.37,.76,.48,1.2,.13,.44,.24,.91,.36,1.39,.22,.96,.56,1.92,1.32,2.63,.28,.26,.53,.81,.78,1.4,.12,.3,.22,.6,.3,.9,.02,.14-.02,.19-.06,.29-.08,.15-.07,.27-.05,.4v.05s.09,.13,.09,.13l.19,.28,.39,.54c.53,.75,1.09,1.47,1.62,2.2,1.09,1.44,2.14,2.85,3,4.28l1.95,3.2,.98,1.55,.31,.47c.06,.08,.11,.17,.18,.25,.09,.05,.19,.09,.27,.15l.39,.24c.18,.11,.34,.24,.51,.36,.69,.49,1.29,1.02,1.86,1.54,1.64,1.56,2.58,3.32,4.34,4.22,.43,.22,.92,.78,1.37,1.38,.23,.31,.45,.62,.64,.94,.1,.16,.19,.31,.28,.45,.01,.06,0,.12,.02,.19-.01,.14,.47,.6,.81,.92,.37,.34,.76,.65,1.15,.94,.8,.57,1.61,1.11,2.47,1.52,3.67,1.78,3.62,1.73,6.83,4.18,.38,.3,.83,.55,1.26,.8,1.09,.61,2.22,1.16,3.32,1.76,1.11,.6,2.22,1.19,3.37,1.7,1.14,.53,2.28,1.04,3.43,1.52,1.17,.43,2.34,.83,3.51,1.16,3.92,1.12,7.69,2.33,11.54,3.46,1.53,.45,3.44,.46,4.5,1.79,.15,.18,1.04,.42,1.45,.38,1.77-.15,3.5,.11,5.22,.51,1.73,.34,3.46,.81,5.17,1.13,1.67,.26,3.32,.28,4.95,.34,1.64,.03,3.29,.04,4.99,.36,3.2,.53,6.51,.62,9.77,.76,4.95,.15,6.02,.71,6.02,3.45,0,2.25-1.3,2.73-5.48,3.12-8.9,.69-17.72-1.22-24.8-2.33Z"/>
        </g>
        <g class="cls-12">
          <g class="cls-12">
            <path class="cls-5" d="M435,136.41c-.27,.49-1.2,.38-.96,1.23,.02,.08,.04,.18,.06,.28l.1-.02c.74-.11,1.32-.52,1.59-1.12,.07-.45-.11-1.08,.21-1.36,.04-.03-.21-.22-.34-.32-.19-.09-.38-.19-.58-.3-.06,.36-.05,.79-.25,1.06-.09,.07,.23,.5,.17,.54Z"/>
            <polygon class="cls-7" points="435.13 134.82 435.09 134.8 435.08 134.85 435.13 134.82"/>
            <path class="cls-4" d="M435,135.74c0,.14-.05,.24-.14,.31,.07,.15,.18,.33,.14,.36-.27,.49-1.2,.38-.96,1.23,.02,.08,.04,.18,.06,.28l.1-.02c.26-.04,.49-.12,.71-.22v-.06c-.08-.23,.19-.14,.29-.21,.11-.36,.45-.43,.55-.79,.04-.13-.17-.46-.06-.54,.02-.04,.06-.07,.11-.09,0-.23,.04-.44,.2-.56,.04-.03-.21-.22-.34-.32-.1-.05-.2-.1-.3-.15-.14,.08-.22,.21-.34,.32-.02,.15-.05,.3-.11,.44,.03,.01,.05,.02,.07,.03Z"/>
            <path class="cls-7" d="M434.62,135.45s.15,.17,.3,.26c.06-.13,.09-.28,.11-.44-.1,.09-.22,.16-.41,.18Z"/>
            <path class="cls-8" d="M433.78,134.74c-.26,.1-.11,.55-.46,.52-.17,0-.41-.08-.7-.22-.02,.03-.04,.06-.06,.08-.35,.78-.9,1.45-1.75,1.7-.37,.18-.33,.83-.45,1.38-.15,.23-.53,.06-.86,.02-.85-.17-.54,1.21-.91,1.92-.09,.19,.51,1.29,.55,1.28,.74-1.03,1.96-1.17,2.65-2.19,.54-.76,1.26-1.16,2.3-1.33-.02-.1-.04-.19-.06-.28-.23-.85,.7-.74,.96-1.23,.06-.04-.26-.47-.17-.54,.2-.27,.2-.7,.25-1.06-.41-.22-.81-.47-1.12-.62,.03,.26,.04,.51-.19,.56Z"/>
            <path class="cls-6" d="M433.78,134.74c.23-.05,.22-.3,.19-.56-.15-.08-.28-.13-.37-.16-.82-.09-.73,.61-.97,1.02,.29,.14,.53,.21,.7,.22,.35,.03,.2-.42,.46-.52Z"/>
            <path class="cls-4" d="M433.78,134.74c.22-.05,.22-.28,.19-.53-.09,0-.16,.03-.21,.07-.25,.19-.39,.49-.83,.51,.23-.23,.44-.48,.59-.78-.74-.03-.66,.64-.89,1.03,.29,.14,.53,.21,.7,.22,.35,.03,.2-.42,.46-.52Z"/>
            <path class="cls-3" d="M433.6,135.26c.38-.18,.7-.42,.74-.88-.1-.06-.2-.11-.29-.16-.03,0-.05,0-.08,0,.03,.25,.03,.48-.19,.53-.26,.1-.11,.55-.46,.52-.17,0-.41-.08-.7-.22-.02,.03-.04,.05-.05,.08-.18,.4-.41,.77-.71,1.07,0,.54-.37,.75-.84,.79,.15-.11,.27-.24,.36-.41-.17,.11-.36,.2-.57,.26-.16,.08-.24,.24-.29,.44,.16,.25,.27,.48,.25,.6-.04,.19-.18,.25-.14,.56-.02,0-.16-.18-.2-.16,.11-.05,.09-.23,0-.48-.02,.14-.04,.29-.07,.43-.12,.18-.38,.11-.64,.06-.01,.02-.02,.04-.03,.05-.06,.09-.06,.25-.06,.43l.12-.05c.03,.15-.06,.19-.12,.21v-.16c-.1,.04-.19,.07-.29,.11,.12-.04,.16-.22,.17-.39-.17,.15-.3,.35-.6,.3v-.04c-.11,.43-.11,1.04-.31,1.43-.09,.19,.51,1.29,.55,1.28,.52-.72,1.25-1,1.91-1.46-.17-.09-.35-.17-.51-.25-.05-.01-.12-.04-.2-.09,.06,.03,.13,.06,.2,.09,.15,.03,.23-.06,.4-.01,.07,.05,.13,.03,.02-.17,.24,.06,.27-.2,.51-.15,0,0,.06,.04,.13,.09,.07-.08,.13-.16,.19-.24,.34-.47,.75-.81,1.26-1.03-.2-.02-.4-.07-.63-.15-.34-.16-.37,.28-.52,.53-.01,.09-.2-.07-.26-.04-.23-.65,.29-.49,.43-.73,.21-.29,.99-.2,.94-.8-.03-.25,.27-.16,.55-.07,.07,.14,0,.19-.05,.21-.35,.22-.7,.43-.96,.75,.54-.04,.73-.42,1.33-.44-.17,.2-.6,.1-.53,.51,.06,.03,.11,.05,.16,.07,.18-.05,.38-.09,.58-.13-.02-.1-.04-.19-.06-.28-.23-.85,.7-.74,.96-1.23,.04-.03-.08-.21-.14-.36-.13,.11-.31,.18-.43,.3,.1,0,.23,.02,.4,.09-.07,.15-.42,.02-.5,.17,0-.11,.04-.19,.1-.25-.16,0-.26,.05-.38,.08-.06-.33,.57-.03,.39-.46-.03,.04-.06,.06-.11,.08l.11-.08h0c.08-.11,.05-.3,.01-.49-.14,.19-.52,.13-.65,.3-.02,.03-.03,.07-.04,.11,0-.04,.02-.08,.04-.11,.22-.47,.84-.62,1.28-.93v-.05s-.26-.15-.26-.15c-.33,.28-.74,.49-1.22,.61Z"/>
          </g>
        </g>
        <g class="cls-12">
          <g class="cls-12">
            <path class="cls-5" d="M38.09,61.39c-1.58,1.38-3.26,2.72-4.72,4.19-1.46,1.46-2.69,3.06-3.33,4.74-.13,.36-.28,.74-.42,1.13l.37-.48c2.75-3.61,6.34-6.95,9.94-9.97,2.15-1.96,4.33-4.11,7.17-5.77,.31-.19,.19-.48,.13-.62-.38,0-.74-.03-1.07-.08-2.19,1.58-4.26,3.3-6.44,4.98-.74,.53-1.2,1.56-1.62,1.9Z"/>
            <polygon class="cls-7" points="46.26 54.49 46.19 54.48 45.86 54.72 46.26 54.49"/>
            <path class="cls-4" d="M41.05,58.55c-.67,.6-1.36,1.14-2.06,1.67-.36,.47-.64,.95-.91,1.17-1.58,1.38-3.26,2.72-4.72,4.19-1.46,1.46-2.69,3.06-3.33,4.74-.13,.36-.27,.73-.41,1.12l.39-.51c.97-1.24,2-2.47,3.13-3.65l.13-.23c.45-.82,1.22-1.27,1.86-1.88,1.66-1.9,3.42-3.1,5.34-4.77,.69-.59,1.25-1.45,2.16-2.05,.3-.22,.6-.41,.9-.59,1.11-.91,2.28-1.8,3.61-2.57,.31-.19,.19-.48,.13-.62-.2,0-.39,0-.58-.03-1.09,.61-2.13,1.3-3.2,1.99-.88,.69-1.76,1.38-2.62,2.07,.05,0,.12-.02,.19-.04Z"/>
            <path class="cls-7" d="M40.68,58.23c-.13,.09-.15,.39,.18,.36,.87-.68,1.74-1.37,2.62-2.07-.9,.58-1.82,1.16-2.8,1.71Z"/>
            <path class="cls-8" d="M40.18,57.24c-1.89,1.19-3.29,2.85-4.85,3.85-.81,.54-1.66,1.03-2.48,1.4-.22,.23-.43,.45-.64,.68-2.58,2.87-4.84,6.08-6.47,9.59-1.64,3.5-2.73,7.2-3.45,10.94-.64,3.78-.15,7.37,.51,11.12,.28,2.25,.17,4.09,.34,6.32,.39,5.61,3.01,9.87,5.1,15.01,.57,1.39,1.82,1.19,1.72,.84-3.35-8.67-5.22-17.28-5.65-26.4-.29-7.06,1.46-13.94,5.3-19.14,.14-.39,.28-.77,.42-1.13,.64-1.68,1.87-3.28,3.33-4.74,1.46-1.47,3.14-2.81,4.72-4.19,.42-.33,.87-1.36,1.62-1.9,2.18-1.68,4.25-3.4,6.44-4.98-.7-.1-1.33-.26-1.98-.24-1.3,1.06-2.59,2.13-3.98,2.96Z"/>
            <path class="cls-6" d="M40.18,57.24c1.39-.84,2.68-1.9,3.98-2.96-.32,.01-.66,.06-1,.18-3.81,1.66-7.31,4.89-10.31,8.03,.82-.37,1.66-.87,2.48-1.4,1.56-1,2.96-2.65,4.85-3.85Z"/>
            <path class="cls-4" d="M40.18,57.24c1.33-.8,2.56-1.8,3.8-2.82-.49,.23-.96,.5-1.43,.79-2.37,1.49-4.6,3.24-6.93,4.81,2.31-1.95,4.75-3.71,7.21-5.43-3.68,1.71-7.05,4.85-9.97,7.89,.82-.37,1.66-.87,2.47-1.4,1.56-1,2.96-2.65,4.85-3.85Z"/>
            <path class="cls-3" d="M36.72,60.16c2.68-2.02,5.48-3.85,8.2-5.88-.18-.02-.37-.04-.55-.04-.13,.06-.26,.12-.39,.18-1.24,1.02-2.47,2.02-3.8,2.82-1.89,1.19-3.29,2.85-4.85,3.85-.81,.53-1.65,1.03-2.47,1.4-.2,.21-.41,.43-.61,.64-2.64,2.92-4.94,6.21-6.59,9.8-1.09,3.27-2.22,6.74-3.04,10.22,.26-1.65,.62-3.3,1.02-4.94-.55,1.79-.99,3.6-1.35,5.43-.28,1.6-.33,3.17-.28,4.73,.29,.33,.5,.84,.58,1.7,.1,1.33,.13,2.65,.48,3.98,0,.19-.23,.17-.21,.54-.05-1.04-.26-1.89-.52-2.63,.12,.93,.28,1.86,.45,2.81,.22,1.77,.19,3.28,.26,4.93l.11,.52c.19,.86,.47,1.72,.8,2.56-.06-.35-.12-.72-.18-1.09,.25,.54,.37,1.28,.47,1.83-.1-.25-.19-.49-.29-.73,.15,.85,.3,1.67,.49,2.57-.23-1.09-.58-2.18-.89-3.1,.42,2.03,.95,3.84,1.25,5.84l-.08-.14c1.02,2.7,2.33,5.27,3.5,8.14,.57,1.39,1.82,1.19,1.72,.84-2.35-6.05-3.94-12.08-4.86-18.27-.06,.72-.12,1.45-.15,2.19,.01,.32,0,.62-.03,.92,0-.31,.01-.61,.03-.92-.04-.86-.22-1.78-.2-2.71,.06-.18,0-.72-.25-.91,.04-1.26-.3-2.73-.17-3.99,0-.07,.06-.2,.13-.35-.05-.79-.11-1.57-.13-2.37-.16-4.43,.43-8.75,1.87-12.66-.44,.91-.86,1.81-1.28,2.64-.63,1.12-.8,3.78-.87,5.99,.02,.56-.24,.87-.3,1.42-.56-1.99,.2-4.47,.58-6.66,.27-1.46,.85-3.17,1.54-4.84,.69-1.68,1.48-3.31,2.06-4.83,.46-1.27,1.4-2.18,2.22-2.88-.1,.41-.54,.98-.74,1.29-1.85,2.69-3.28,5.7-4.11,8.91,1.23-3.2,2.48-6.29,4.67-8.89-1.07,1.65-2.3,3.2-2.71,5.05,.12-.12,.23-.24,.34-.37,.59-1.15,1.28-2.24,2.03-3.27,.14-.38,.28-.76,.41-1.12,.64-1.68,1.87-3.28,3.33-4.74,1.46-1.47,3.14-2.81,4.72-4.19,.27-.22,.55-.7,.91-1.17-1.09,.82-2.18,1.62-3.2,2.54,.46-.31,.92-.58,1.4-.76-.93,.87-1.93,1.31-2.81,2.25,.43-.54,.92-1.02,1.42-1.49-.68,.48-1.35,1.04-2,1.61,1-1.4,2.58-1.95,3.62-3.35-.27,.24-.56,.45-.85,.67l.86-.69v.02c.82-.72,1.6-1.51,2.31-2.23-1.51,1.16-3.06,1.98-4.45,3.27-.23,.21-.44,.44-.66,.67,.21-.23,.42-.46,.66-.67,3.11-3.02,6.88-5.2,10.57-7.34l.33-.24c-.16-.02-.31-.05-.46-.07-3.05,1.83-6.13,3.72-9.01,5.76Z"/>
          </g>
        </g>
        <g class="cls-12">
          <g class="cls-12">
            <path class="cls-5" d="M331.37,189.11c-4.37,1.14-8.97,1.74-13.39,2.26-4.43,.42-8.68,.82-12.47,1.35-.85,.12-1.7,.24-2.57,.36,.44,0,.88,0,1.32,0,4.99,.02,10.22-.27,15.45-.91,1.31-.18,2.62-.31,3.92-.55,1.3-.24,2.6-.47,3.89-.7,2.57-.58,5.12-1.16,7.59-1.95,6.09-1.99,11.94-4.88,18.07-8.34,.69-.37,.62-.7,.58-.85-.71,.17-1.33,.27-1.91,.34-4.82,2.95-9.96,5.42-15.55,7.15-1.87,.48-3.77,1.61-4.92,1.84Z"/>
            <polygon class="cls-7" points="352.06 180.04 351.95 180.05 351.21 180.49 352.06 180.04"/>
            <path class="cls-4" d="M339.61,186.2c-.88,.35-1.77,.67-2.65,.99-.89,.31-1.8,.53-2.69,.78-1.14,.46-2.17,1-2.9,1.13-4.37,1.14-8.97,1.74-13.39,2.26-4.43,.42-8.68,.82-12.47,1.35-.84,.12-1.68,.24-2.54,.36h1.42c3.46-.01,7.02-.12,10.63-.42,.19-.04,.39-.07,.58-.11,1.99-.4,3.88-.41,5.81-.67,5.45-1.02,10.05-1.76,15.36-3.51,.94-.33,1.87-.77,2.85-1.2,.49-.22,.99-.43,1.51-.64,.51-.22,1.03-.46,1.58-.67,.74-.31,1.46-.58,2.17-.84,1.41-.63,2.76-1.42,4.19-2.12,.72-.34,1.41-.74,2.1-1.15,.7-.39,1.41-.79,2.13-1.19,.69-.37,.62-.7,.58-.85-.37,.09-.72,.15-1.05,.21-1.16,.63-2.32,1.25-3.48,1.88-1.2,.56-2.4,1.13-3.62,1.7-1.04,.53-2.13,.96-3.2,1.44l-1.62,.7-1.67,.6c.1,0,.22-.02,.38-.04Z"/>
            <path class="cls-7" d="M339.23,185.83c-.32,.1-.63,.45,0,.42l1.67-.6,1.62-.7c1.07-.48,2.16-.91,3.2-1.44-1.02,.47-2.1,.84-3.18,1.25-.54,.2-1.08,.39-1.63,.59-.55,.17-1.12,.32-1.69,.48Z"/>
            <path class="cls-8" d="M339.21,184.68c-1.09,.33-2.15,.69-3.19,1.06-1.06,.32-2.1,.63-3.11,.94-1.01,.33-2.01,.58-3,.8-.98,.22-1.94,.41-2.86,.55-1.96,.22-3.89,.38-5.6,.32-.62,.09-1.23,.19-1.84,.28-7.59,1.22-15.3,1.71-23,1.83-7.7,.13-15.4-.11-23.07-.42-7.7-.24-14.84,.17-22.7,.4-4.67,.01-8.41-.42-12.97-.72-11.38-.83-21.25,.33-32.87,.56-3.13,.06-3.57,1.31-2.8,1.33,19.51-.18,37.88,.7,57.33,.68,7.54,0,14.87,.12,22.06,.33,7.2,.2,14.27,.45,21.35,.49,.87-.12,1.73-.24,2.57-.36,3.8-.54,8.05-.93,12.47-1.35,4.42-.51,9.02-1.11,13.39-2.26,1.15-.23,3.05-1.36,4.92-1.84,5.59-1.74,10.73-4.21,15.55-7.15-1.22,.14-2.22,.21-3.4,.42-1.5,.79-2.97,1.68-4.53,2.35-.78,.34-1.55,.67-2.33,.98l-1.17,.45-1.2,.36Z"/>
            <path class="cls-6" d="M339.21,184.68l1.2-.36,1.17-.45c.78-.31,1.56-.64,2.33-.98,1.55-.67,3.02-1.56,4.53-2.35-.58,.09-1.2,.24-1.9,.47-7.68,2.99-16.52,5.9-25.1,7.33,1.72,.06,3.64-.1,5.6-.32,.92-.14,1.88-.33,2.86-.55,.98-.21,1.99-.47,3-.8,1.02-.31,2.06-.62,3.11-.94,1.04-.37,2.1-.73,3.19-1.06Z"/>
            <path class="cls-4" d="M339.21,184.68c3.03-.91,5.99-2.32,8.82-3.92-1.02,.41-2.04,.85-3.05,1.31-5.22,2.23-10.71,4.03-16.25,4.94,5.91-1.31,11.7-3.14,17.14-5.76l-1.41,.56-1.46,.51c-.98,.34-1.95,.71-2.94,1.08-2.02,.61-4.01,1.4-6.09,1.95-4.11,1.29-8.37,2.25-12.51,2.97,1.71,.06,3.63-.1,5.59-.32,.92-.14,1.88-.33,2.86-.55,.98-.21,1.99-.47,3-.8,1.02-.31,2.06-.62,3.11-.94,1.04-.37,2.1-.73,3.19-1.06Z"/>
            <path class="cls-3" d="M330.4,187.46c6.71-1.43,13.34-3.63,19.39-7.17-.31,.04-.62,.09-.95,.15-.27,.11-.54,.21-.81,.32-2.83,1.6-5.78,3.01-8.82,3.92-1.09,.33-2.15,.69-3.19,1.06-1.06,.32-2.1,.63-3.11,.94-1.01,.33-2.01,.58-3,.8-.98,.22-1.94,.41-2.86,.55-1.95,.22-3.88,.38-5.59,.32-.58,.09-1.16,.17-1.73,.26-7.75,1.25-15.63,1.74-23.49,1.85-6.83,.49-14.31,.25-21.51-.16,3.39,.07,6.79,.11,10.19,.1-3.76-.09-7.51-.22-11.26-.37-3.26-.1-6.42-.09-9.58-.02-.65,.28-1.68,.51-3.44,.56-2.75,.07-5.44-.01-8.24,.22-.38-.01-.3-.25-1.07-.27,2.15,.07,3.92-.06,5.46-.28-1.91,.06-3.85,.13-5.82,.19-3.67,.01-6.77-.25-10.14-.51h-1.09c-1.81,.01-3.65,.11-5.51,.23,.74,.02,1.5,.05,2.29,.07-1.21,.12-2.75,.07-3.9,.04,.54-.04,1.08-.07,1.61-.11-1.79-.06-3.5-.11-5.41-.17,2.31,.07,4.67-.01,6.65-.11-4.26-.05-8.16-.02-12.34-.3l.32-.04c-5.94,.2-11.86,.61-18.33,.74-3.13,.06-3.57,1.31-2.8,1.33,13.62-.13,26.69,.26,39.95,.5-1.5-.19-3-.38-4.51-.58-.66-.05-1.29-.12-1.89-.23,.63,.08,1.26,.15,1.89,.23,1.79,.14,3.77,.15,5.7,.33,.36,.09,1.51,.13,1.98-.1,2.64,.24,5.8,.1,8.44,.34,.16,0,.42,.08,.73,.17,1.67,0,3.35,0,5.04,.01,9.44,0,18.51,.2,27.44,.48-2.15-.17-4.22-.36-6.13-.61-2.59-.39-8.11-.17-12.78-.16-1.18,.04-1.87-.22-3.02-.25,4.1-.58,9.35-.03,14.02-.04,6.21,.05,14.91,.73,21.63,.05,2.77-.26,5.39-.16,7.64,0-.81,.2-2.35,.25-3.13,.28-6.94,.25-13.88,.17-20.86,.14,7.24,.42,14.25,.28,21.5,.31-4.27,.27-8.42-.05-12.41,.33,.33,.06,.67,.11,1.02,.15l4.2,.09,4.19,.04c.86-.12,1.71-.24,2.54-.36,3.8-.54,8.05-.93,12.47-1.35,4.42-.51,9.02-1.11,13.39-2.26,.73-.13,1.76-.67,2.9-1.13l-2.1,.56c-.7,.17-1.42,.3-2.12,.45-1.42,.29-2.83,.61-4.26,.85,1.16-.12,2.27-.25,3.32-.32-1.33,.35-2.57,.5-3.8,.64-1.24,.14-2.46,.33-3.81,.52,1.45-.25,2.87-.59,4.3-.84-1.74,.21-3.56,.5-5.39,.66,1.75-.36,3.44-.57,5.14-.8,1.7-.2,3.39-.55,5.11-1.15-.74,.17-1.48,.33-2.22,.47,.75-.16,1.51-.32,2.27-.49h-.04c1.14-.23,2.24-.6,3.32-.96,1.07-.38,2.13-.69,3.09-1.12-1.9,.61-3.76,1.02-5.6,1.43-1.86,.32-3.69,.74-5.61,1.07-.63,.13-1.27,.26-1.9,.39,.64-.14,1.27-.27,1.9-.39,4.37-.93,8.74-1.93,13-3.33,2.16-.61,4.22-1.49,6.33-2.26,2.03-.94,4.13-1.76,6.07-2.88l.73-.44c-.27,.03-.54,.06-.8,.09-6.5,3.54-13.68,5.96-20.75,7.32Z"/>
          </g>
        </g>
        <g class="cls-12">
          <g class="cls-12">
            <path class="cls-5" d="M424.82,148.46c-1.43,1.41-3.54,2.11-4.43,3.73-.11,.17-.22,.35-.32,.53l.27-.13c2.05-.96,4.06-2.38,5.64-4.03,.91-1.11,1.57-2.48,2.74-3.49,.13-.11-.07-.35-.18-.47-.25-.04-.5-.1-.74-.18-.76,1-1.49,2.04-2.44,2.92-.34,.26-.35,.96-.55,1.12Z"/>
            <polygon class="cls-7" points="427.87 144.42 427.82 144.4 427.71 144.55 427.87 144.42"/>
            <path class="cls-4" d="M425.97,146.86c-.25,.35-.54,.64-.86,.9-.11,.29-.16,.6-.29,.7-1.43,1.41-3.54,2.11-4.43,3.73-.11,.17-.21,.35-.32,.53,.1-.05,.19-.09,.29-.14,.72-.32,1.41-.73,2.1-1.15l.07-.12c.23-.44,.71-.5,1.06-.76,.85-.9,1.77-1.41,2.59-2.34,.29-.34,.38-.92,.78-1.24,.13-.12,.26-.23,.4-.32,.4-.57,.83-1.12,1.38-1.59,.13-.11-.07-.35-.18-.47-.13-.02-.26-.05-.39-.08-.46,.36-.87,.77-1.31,1.16-.32,.41-.65,.81-1.01,1.19,.03,0,.07,0,.11,0Z"/>
            <path class="cls-7" d="M425.61,146.54c-.06,.05,.03,.28,.24,.31,.36-.38,.69-.78,1.01-1.19-.37,.33-.78,.63-1.26,.88Z"/>
            <path class="cls-8" d="M424.93,145.68c-.82,.58-1.29,1.5-2.09,1.82-.41,.18-.89,.27-1.37,.26-.1,.09-.2,.18-.3,.27-2.43,2.32-5.14,4.36-8.15,5.79-1.46,.79-2.53,2-3.86,3.14-.86,.55-1.75,.61-2.73,.84-2.47,.51-3.87,2.57-6.12,3.88-.6,.35-.25,1.56-.09,1.51,3.88-2,7.83-3.22,11.44-5.67,2.79-1.88,5.51-3.44,8.41-4.8,.1-.18,.21-.36,.32-.53,.89-1.62,3-2.32,4.43-3.73,.21-.16,.22-.86,.55-1.12,.95-.88,1.67-1.92,2.44-2.92-.5-.15-.97-.35-1.39-.42-.41,.66-.85,1.29-1.49,1.67Z"/>
            <path class="cls-6" d="M424.93,145.68c.64-.38,1.08-1.01,1.49-1.67-.21-.03-.4-.04-.57,0-1.8,.74-2.95,2.48-4.37,3.75,.48,0,.96-.08,1.37-.26,.8-.32,1.27-1.24,2.09-1.82Z"/>
            <path class="cls-4" d="M424.93,145.68c.61-.37,1.04-.96,1.43-1.58-.22,.12-.43,.26-.61,.41-.97,.79-1.85,1.7-2.99,2.26,1.02-.85,2.01-1.73,2.93-2.7-1.7,.78-2.83,2.46-4.21,3.69,.48,0,.95-.09,1.36-.26,.8-.32,1.27-1.24,2.09-1.82Z"/>
            <path class="cls-3" d="M423.53,147.17c1.25-.85,2.45-1.81,3.38-3.06-.13-.04-.25-.07-.37-.1-.06,.03-.12,.06-.18,.09-.39,.63-.82,1.21-1.43,1.58-.82,.58-1.29,1.5-2.09,1.82-.41,.18-.89,.27-1.36,.26l-.29,.25c-1.24,1.19-2.56,2.29-3.94,3.29-.99,1.17-2.4,2.01-3.87,2.59,.63-.37,1.24-.79,1.82-1.24-.7,.42-1.41,.81-2.15,1.15-.62,.34-1.17,.74-1.7,1.19,.03,.32-.04,.65-.33,.91-.46,.4-1,.65-1.4,1.19-.08,.04-.17-.18-.33-.11,.43-.2,.69-.52,.86-.9-.32,.29-.65,.58-.97,.87-.67,.44-1.37,.56-2.11,.71l-.2,.13c-.34,.2-.64,.49-.94,.81,.15-.06,.3-.12,.46-.19-.18,.24-.49,.37-.72,.46,.09-.09,.17-.19,.26-.27-.36,.15-.71,.29-1.1,.43,.47-.17,.88-.52,1.21-.82-.82,.43-1.55,.86-2.47,1.04l.05-.07c-1.05,.79-2.05,1.77-3.29,2.49-.6,.35-.25,1.56-.09,1.51,2.72-1.4,5.44-2.41,8.09-3.74-.38,0-.76,0-1.12,0-.15,.03-.3,.03-.46,0,.15,0,.3,0,.46,0,.41-.07,.79-.29,1.23-.36,.11,.04,.34-.07,.33-.32,.61-.09,1.14-.59,1.75-.71,.03-.02,.12,.02,.22,.06,.31-.2,.62-.4,.95-.61,1.74-1.18,3.46-2.22,5.21-3.18-.48,.14-.96,.25-1.43,.3-.66,.03-1.53,.93-2.37,1.55-.19,.19-.45,.05-.68,.17,.45-1.01,1.66-1.23,2.49-1.85,1.1-.8,3.03-1.38,3.96-2.64,.37-.52,1-.64,1.55-.73-.05,.23-.34,.41-.49,.51-1.29,.84-2.59,1.65-3.84,2.55,1.53-.6,2.71-1.62,4.24-2.24-.75,.58-1.7,.83-2.24,1.6,.09,0,.19,0,.28,0,.54-.26,1.1-.54,1.7-.83,.1-.18,.21-.36,.32-.53,.89-1.62,3-2.32,4.43-3.73,.13-.1,.18-.42,.29-.7-.5,.4-1.04,.75-1.53,1.16,.25-.1,.5-.18,.79-.2-.43,.44-1.04,.47-1.47,.89,.21-.26,.44-.48,.68-.69-.37,.16-.71,.38-1.07,.58,.44-.7,1.42-.64,1.75-1.49-.12,.11-.26,.21-.4,.3l.41-.31h0c.38-.34,.67-.77,.91-1.2-.65,.6-1.46,.86-2.1,1.43-.1,.1-.2,.2-.3,.3,.1-.11,.2-.21,.3-.3,1.4-1.38,3.13-2.4,4.65-3.68l.12-.15-.33-.11c-1.23,1.07-2.57,2.06-3.96,2.87Z"/>
          </g>
        </g>
      </g>
    </g>
  </g>
</svg>