<?xml version="1.0" encoding="UTF-8"?>
<svg id="_Слой_2" data-name="Слой 2" xmlns="http://www.w3.org/2000/svg" xmlns:xlink="http://www.w3.org/1999/xlink" viewBox="0 0 370.13 218.28">
  <defs>
    <style>
      .cls-1 {
        fill: none;
      }

      .cls-2 {
        clip-path: url(#clippath);
      }

      .cls-3 {
        fill: #f3f9fb;
      }

      .cls-4 {
        fill: #f7fbfc;
      }

      .cls-5 {
        fill: #f8fcfd;
      }

      .cls-6 {
        fill: #f4fafb;
      }

      .cls-7 {
        fill: #f5fafb;
      }

      .cls-8 {
        fill: #fbfdfe;
      }

      .cls-9 {
        fill: #349039;
      }

      .cls-10 {
        fill: #6e7c6e;
      }

      .cls-11 {
        clip-path: url(#clippath-1);
      }

      .cls-12 {
        opacity: .49;
      }

      .cls-13 {
        opacity: .8;
      }
    </style>
    <clipPath id="clippath">
      <rect class="cls-1" width="370.13" height="218.28"/>
    </clipPath>
    <clipPath id="clippath-1">
      <rect class="cls-1" x="6.43" y="-1" width="370.13" height="218.28"/>
    </clipPath>
  </defs>
  <g id="_камыши_и_кувшинки" data-name="камыши и кувшинки">
    <g class="cls-2">
      <g class="cls-11">
        <g>
          <g>
            <g class="cls-12">
              <path class="cls-10" d="M104.07,207.84c-23.37,.1-51.44-6.61-71.58-21.9-3.36-3.4-5.03-6.79-8.39-8.49-3.36-5.09-5.03-8.49-8.39-11.89-5.03-11.89-6.71-27.17,1.68-37.36,31.88-35.66,77.19-50.94,122.5-57.73,68.8-10.19,140.96,11.89,189.6,61.19l-.58,1.22c-45.95,3.49-96.16,6.73-144.91,9.21l10.37,1.01c33.07-.59,60.28,2.46,93.27,4.88,18.5,1.36,37.51,3.34,53.94,12.05h0c-3.91,15.09-18.48,25.36-34.1,32.38-33.74,15.17-68.31,23.25-105.31,20.41-36.29-2.78-66.62-1.66-102.69-6.61"/>
              <path class="cls-10" d="M77.79,207.12c-7.72-1.52-13.88-3.4-19.96-5.47-.96-.29-2.17-.26-3.35-.73-2.35-.91-4.72-1.91-7.05-2.92-1.15-.55-2.28-1.12-3.38-1.72-1.11-.59-2.13-1.32-3.12-2.03l-1.62-1.17-1.59-1.21c-1.06-.81-2.17-1.51-3.21-2.32-.53-.39-1.06-.77-1.59-1.15-.54-.4-1.03-.68-1.71-1.22-.5-.5-1-.99-1.49-1.49-.45-.47-.9-.93-1.35-1.39-.96-1-1.83-1.98-2.69-2.82-.43-.42-.85-.79-1.28-1.12-.23-.16-.39-.29-.68-.47-.39-.24-.81-.46-1.22-.68-.4-.55-.77-1.14-1.15-1.7l-.82-1.26-1.63-2.49c-.87-1.29-1.74-2.45-2.23-4.08-.18-.6-.61-1.33-1.22-1.97l-.24-.23c-.09-.08-.22-.21-.33-.31-.23-.2-.47-.4-.73-.6-.31-.49-.69-1.07-1.04-1.43-.26-.26-.41-1-.51-1.53-.12-.57-.03-1.32-.27-1.68-1.28-2.07-2.03-4.43-2.43-6.86-.25-1.2-.33-2.45-.49-3.67-.1-1.23-.21-2.47-.31-3.69-.14-1.23,.26-2.56-.48-3.66-.22-.28-.11-1.52,.11-1.87,.55-.91,.82-1.85,1.03-3.03,.52-2.53,1.24-5.06,2.46-7.4,.26-.61,.61-1.16,.95-1.73,.35-.56,.64-1.15,1.07-1.68l1.21-1.62c.41-.49,.84-.9,1.26-1.35,.9-2.41,3.11-4.11,4.9-5.93,1.41-1.31,3.05-2.36,4.58-3.52,.77-.58,1.43-1.35,2.14-2.04,.75-.65,1.54-1.23,2.54-1.48,.32-.08,.71-.75,1.12-1.11,.91-.8,1.79-1.66,2.7-2.47,.9-.82,1.9-1.49,2.91-2.04,1.04-.55,2.07-1.11,3.01-1.8,.76-.55,1.5-1.13,2.28-1.65l2.35-1.54,4.71-3.07,4.86-2.83,2.43-1.42,2.49-1.3,4.99-2.59c1.68-.81,3.39-1.58,5.09-2.37,3.37-1.64,6.87-2.95,10.32-4.41,1.2-.51,2.42-.78,3.51-1.81,.86-.8,3.08-1.63,4.21-1.55,1.81,.11,3.23-.6,4.76-1.07,1.42-.41,2.82-.88,4.23-1.34,1.41-.44,2.84-.83,4.27-1.2,1.7-.42,3.44-1.47,5.18-.87,.17,.06,.71-.08,.87-.21,1.64-1.42,3.68-1.08,5.59-1.42,1.39-.27,2.77-.56,4.17-1.36,1.36-.78,3.81-1.38,5.26-1.18,1.95,.29,3.58-.22,5.29-.54l3.77-.69,3.79-.6c2.53-.4,5.05-.83,7.6-1.09,5.09-.57,10.17-1.34,15.29-1.55,2.42-.16,4.81-.54,7.22-.87,2.41-.26,4.84-.35,7.29-.2,1.17,.08,2.45-.31,3.49,.4,.21,.15,1.15,.06,1.52-.12,1.35-.67,2.68-.32,4.19-.22,3.42,.25,6.85,.56,10.27,.79,3.41,.41,6.8,.73,10.18,.8,2.64,0,5.2,.42,7.76,.82,2.56,.4,5.1,.85,7.67,1.2,1.7,.3,3.3,1.18,4.99,1.66,1.64,.47,3.33,.81,5.01,1.14,1,.2,1.95,.62,3.06,.3,.59-.15,2.03,.17,2.54,.58,1.7,1.36,3.83,1.63,5.82,2.22,1.42,.43,2.84,.81,4.25,1.26l4.19,1.46c2.79,.99,5.6,1.91,8.36,2.99,1.34,.57,2.99,.81,3.87,2.12,.12,.18,.99,.24,1.52,.37,.56,.14,1.3,.17,1.64,.45,.77,.63,1.6,1.16,2.46,1.62,.86,.46,1.76,.86,2.64,1.3,1.78,.85,3.63,1.58,5.37,2.46l3.18,1.58c1.06,.52,2.14,1.03,3.15,1.63l6.2,3.48c4.2,2.2,8.09,4.93,12.05,7.52,1.09,.75,2.26,1.23,3.36,1.82,1.09,.59,2.18,1.17,3.21,1.95,1.98,1.51,4.05,2.92,6.01,4.45,.71,.52,1.46,1.03,2.13,1.63,.67,.59,1.27,1.24,1.62,2.12,.19,.48,1.17,1.28,1.72,1.44,2.07,.59,3.44,2.32,5.11,3.55l.38,.29,.37,.39,.72,.8,1.43,1.62c.97,1.07,2,2.05,3.34,3.04,.73,.56,1.32,1.75,2.06,2.59l1.98,2.25,.13,.14s.11,.09,.05,.15l-.16,.34-.32,.69c-.06,.1-.09,.25-.18,.32l-.35,.07-.7,.14c-.89,.18-1.5,.54-2.41,.76-1.73,.42-3.47,.85-5.22,1.31-.11,.03-.21,.06-.34,.08l-.43,.04-.86,.09-1.74,.17-2.85,.29c-3.24,.35-6.49,.67-9.73,.95-6.62,.58-13.25,.96-19.88,1.42-6.63,.45-13.26,.97-19.89,1.29-2.49,.12-5.14,.99-7.52-.07-2.24,.87-4.28,.56-6.34-.13-.29-.1-1,.29-1.53,.43-1.66,.42-3.18,1.74-5.11,.53-.07-.04-.3,.03-.45,.02-1.55-.09-2.54,1.31-4.55,.63-1.25-.43-3.22-.1-4.86-.04-1.7,.06-3.41,.11-5.08,.32-1.73,.22-3.66-.29-5.23,.8-.25,.18-1.57-.44-2.33-.35-3.87,.47-7.9-.22-11.66,1.18-.86,.32-2.24,.37-3.19,.18-3.4-.67-6.51-.05-9.94,.45-4.5,.67-9.34,1.08-13.84,.06-.23-.05-.43-.1-.62-.14l.1-4.11c.55,.21,.96,.28,1.72,.02,.65-.23,1.74-.05,2.62,.03l3.69,.36,1.84,.18,.36,.03c.11,0,.16,0,.28,0h.93c2.48-.04,4.97-.08,7.45-.06,4.97-.01,9.93,.1,14.9,.23,2.7,.1,5.18,1.13,7.96,.9,1.15-.09,2.46,.45,3.45-.31,.14-.11,.62-.15,.83-.07,3.26,1.11,6.64-.03,9.91,.57,.7,.13,1.36,.35,2.06,.5,.71,.15,1.53,.44,2.14,.34,5.14-.8,10.28,.46,15.41,.58,1.75,.04,3.61,.71,5.24-.15,.24-.13,1.01-.05,1.34,.1,2.88,1.42,6.22,.77,9.28,1.33,1.57,.28,3.4-.23,4.74,.86,.17,.14,.82,.09,1.22,.05,.69-.07,1.39-.34,2.04-.27,1.83,.19,3.78,.88,5.43,.68,2.03-.25,3.92,.07,5.85,.21,1.11,.09,2.17,.63,3.29,.84,1.05,.21,2.16,.24,3.24,.36,1.55,.18,3.18,.19,4.62,.6,1.49,.43,2.84-.43,4.42,.53,1.2,.71,2.82,.04,4.28,.2,.73,.07,1.47,.33,2.16,.59,.53,.19,.99,.62,1.5,.7,1.16,.17,2.22,.64,3.55,.5,.92-.11,2.28,.86,3.47,1.24,1.19,.39,2.4,.74,3.61,1.1,1.2,.39,2.41,1.04,3.57,1.19,1.26,.21,2.5,.54,3.72,.93,1,.36,2.89,1.13,4.39,1.91l2.29,1.21c.65,.45,1.95,.62,1.23,1.64l-.79,2.48c-.24,.83-.6,1.62-.87,2.43-.15,.42-.29,.85-.43,1.3-.08,.22-.14,.45-.23,.67-.08,.18-.18,.37-.26,.52-.34,.63-.78,1.19-1.42,1.5-.21,.12-.62,.77-.75,1.15-.2,.61-.43,1.2-.69,1.79-.27,.58-.61,1.11-.95,1.66-.66,1.1-1.5,2.07-2.34,3.03-.84,.96-1.8,1.81-2.69,2.72-.95,.83-1.84,1.73-2.75,2.59-2.53,2.52-5.15,4.93-8.27,6.77-3.04,1.78-6.29,3.32-9.12,5.15-1.16,.79-2.34,1.48-3.54,2.15-1.2,.63-2.41,1.18-3.68,1.61-2.46,.86-4.14,3.41-7.06,3.02-2.45,1.03-4.95,1.98-7.45,2.86-2.11,.75-4.17,1.81-6.49,1.74-.84-.02-2.3,.48-3.04,1-2.39,1.7-5.05,2.3-7.91,2.61-.67,.08-1.37,.73-2.11,.95-2.24,.7-4.54,1.3-6.83,1.77-6.87,1.25-13.42,3.57-20.36,4.55-1.27,.2-2.6,1.02-3.75,.99-3.51-.09-7,.17-10.49,.53-3.49,.23-6.99,.59-10.43,.26-1.27-.11-2.54-.17-3.8-.24-1.26-.1-2.53-.18-3.79-.25-2.53-.09-5.05-.27-7.57-.41l-7.44-.43c-2.46-.16-4.92-.29-7.38-.5-1.28-.11-2.59-.9-3.2-.72-1.92,.56-4.05-.12-5.65,.3-2.88,.75-5.66,.03-8.47,.14-2.04,.08-4.22-.6-6.14,.33-.28,.14-.98,.08-1.35-.05-2.97-1.05-6,.23-8.97-.33-5.71,.92-11.53-.11-17.31-.16-.85,0-1.69,.19-2.54,.28-.43,.04-.94,.17-1.3,.06-5.16-1.49-10.64-.97-15.92-1.74-1.74-.27-3.43-.77-5.17-1.06-1.75-.28-3.6-.21-5.18-1.13-.49-.29-1.52-.28-2.28-.28-4.12-.02-6.93-1.99-6.64-4.51,.1-.91,.94-.86,1.85-1.09,1.76-.44,3.45-.65,5.46-.33,1.56,.23,3.26,.71,4.75-.01,.25-.12,.96-.01,1.33,.14,2.62,1.04,5.72,.73,8.23,1.47,1.93,.57,3.76,.62,5.63,.92,1.57,.25,3.24-.1,4.77,.81,.52,.31,2.12-.3,3.23-.26,2.61,.08,5.25,.17,7.85,.42,7.91,.75,15.78-.27,23.7,.36,5.7-.92,11.55,.36,17.24,.07,6.87-.37,13.74,.5,20.52,.65,1.38,.02,2.48,.11,3.69,.47,.79,.24,1.62,.5,2.45,.51,1.6,.06,3.2,.08,4.81,.11,1.6,.05,3.2-.03,4.8,.02,.86,.02,1.76-.13,2.65-.14,.88-.03,1.74,.04,2.53,.54,.22,.14,.99,.08,1.33-.06,2.76-1.16,5.83-.8,8.75-1.17,1.11-.13,2.18-.24,3.44,0,1.36,.25,3.43-.01,4.74-.59,.99-.45,1.9-.59,2.87-.83,1.01-.25,2.04-.4,3.08-.53l3.11-.45c1.04-.16,2.06-.35,3.06-.62,1-.29,1.96-.69,2.88-1.22,1.16,.33,2.36,.25,3.54,.01,1.17-.25,2.29-.72,3.3-1.11,7.75-3.02,15.86-4.77,23.58-7.81,1.85-.76,3.91-1,5.84-1.65,2.01-.71,4-1.56,5.96-2.42,1.04-.48,2.41-.67,2.89-1.79,.04-.08,.2-.2,.32-.24,1.17-.37,2.45-.56,3.49-1.12,.94-.5,1.6-1.4,2.48-2.01,1.06-.73,2.25-1.32,3.38-1.97,1.11-.6,2.18-1.43,3.43-1.31,.4-1.26,1.84-1.65,2.86-2.37,.95-.69,1.94-1.33,2.92-2,1.04-.81,2.14-1.56,3.12-2.42,.5-.42,1.03-.82,1.52-1.25,.48-.44,.96-.88,1.4-1.35,1.19-1.32,2.13-2.78,3.14-4.17,1.09-1.45,2.13-2.93,3.12-4.4,.34-.45,.62-.92,.91-1.4l.44-.71c.15-.23,.32-.5,.37-.56,.26-.39,.61-.83,.83-1.35,.1-.21,.12-.4,.06-.55,.05-.19-.44-.13-.73-.13-.44,.02-.95,.16-1.2,.18-.13,0-.22,0-.25-.11-.02-.05-.02-.12-.03-.23-.02-.11,.06-.2-.12-.46-.2-.36-1.29-.76-1.96-.83-1.3-.17-2.55-.48-3.8-.8-1.23-.36-2.47-.74-3.71-1.15-2.46-.82-4.98-1.62-7.56-2.03-2.62-1.52-5.51-1.49-8.53-1.67-4.43-.29-9.13-.67-13.46-1.62-4.59-1.01-9.22-.99-13.87-1.57-1.3-.16-2.75,.08-3.79-.86-.24-.21-1.23-.24-1.79-.15-3.84,.59-7.49,.04-11.29-.84-2.01-.47-4.32-.29-6.59-.14-3.4,.23-7.03-.42-10.57-.67-1.45-1.16-2.72-.18-3.53,.22-1.09,.53-2.07,.57-3.31,.5-1.6-.08-3.16-.37-4.77,.21-.83,.29-2.62,.11-3.46-.3-1.14-.55-1.58-.35-2.66-.09-1.27,.31-2.53-.71-4.11-.74-1.69-.03-3.68,.42-5.13-.73-.13-.1-.65-.11-.89-.03-3.16,1.01-6.22-.69-9.35-.25-4.38-.66-8.81-.76-13.23-.66l-1.66,.04-.83,.02h-.64c-.21,0-.51-.03-.66-.04l-3.34-.28c-2.22-.19-4.44-.4-6.65-.69l.19-8.15c.53,0,1.07-.01,1.6-.02,3.89-.02,7.85,.59,11.65-.11,7.98-1.47,16.08-1.19,24.11-1.84,1.7-.14,3.63-.74,5.23,.23,.22,.13,1,.07,1.34-.08,2.49-1.12,4.99-.97,7.59-.46,.63,.12,1.79,.03,2.15-.25,1.02-.79,2.28-.57,3.42-.63,1.38-.06,3.25,.46,4.04,.05,1.71-.9,2.75-.07,4.09-.01,.83,.04,1.73-.23,2.58-.4,.41-.08,.89-.44,1.13-.37,2.76,.73,5.34-.74,8.03-.54,.58,.04,1.19-.02,1.75,.05q6.4,.78,14.34-.36c2.27,1.15,4.71-.93,7.15-.11,.89,.3,2.55,.1,3.62-.23,4.67-1.46,9.62-.91,14.38-1.58,.99-.14,1.82,.67,3.04-.12,.46-.3,2.15,.35,3.24,.24,1.58-.16,3.28,.19,4.79-.77,.62-.39,2.05-.22,3.1-.37,.91-.12,.95-.06,1.31-.11,.29-.04,.58-.15,.59-.51,.02-.38,.4-.42,1.13-.14,.75,.29,1.44,.42,1.95,.46,.48-.01,.95,.11,.79-.44l-.03-.15-.02-.08-.1-.07-.42-.26-.85-.48-1.47-.76c-.48-.26-.78-.36-.75-.62,.02-.19-.01-.46-.17-.71-.15-.25-.4-.49-.7-.49-.15,.09-.74-.24-1.16-.49-.44-.27-.85-.57-1.24-.88-.78-.63-1.51-1.31-2.29-1.94-2.73-2.14-5.22-4.59-8.14-6.48-1.63-1.12-3.18-2.34-4.78-3.5-.8-.58-1.61-1.15-2.45-1.69-.85-.52-1.77-.95-2.7-1.35-2.02-.86-4.57-2.09-5.92-4.33-.15-.25-1.28-.22-1.81-.55-2.13-1.28-4.34-2.42-6.5-3.65l-3.24-1.84-1.62-.93c-.54-.3-1.11-.57-1.66-.85-1.02-.52-1.65-2.08-3-1.73-1.43,.38-1.69-1.87-3.04-1.23-.2,.09-1.13-.38-1.56-.72-.59-.46-1.2-.89-1.82-1.29-.63-.4-1.29-.72-1.95-1.05-1.33-.65-2.7-1.22-4.08-1.77-2.78-1.07-5.54-2.19-8.3-3.23-1.32-.54-2.99-.63-3.74-1.93-1.88-.08-3.58-.98-5.31-1.8-1.75-.73-3.55-1.36-5.48-1.02-2.42-.98-5.29-.91-7.41-2.65-.35-.27-1.28-.2-1.69-.46-1.4-.91-2.77,.6-4.43-.72-.96-.76-3.04-.91-4.63-1.3-1.47-.39-2.99-.54-4.48-.81l-4.94-.83c-1.65-.25-3.28-.67-4.94-.77-3.37-.2-6.71,.15-10.09-.51-.36-.07-1.01,0-1.16,.16-1.27,1.37-2.9,.49-4.03-.02-.94-.42-1.76-.64-2.82-.69l-4.31-.2-2.15-.12-2.15-.04c-1.7-.05-3.51,.44-5.14-.5-.5-.29-1.88-.22-2.65,0-.9,.25-1.8,.4-2.71,.49-.91,.14-1.82,.22-2.74,.28-1.84,.11-3.69,.11-5.51,.29-1.65,.18-3.32,.2-4.98,.33-1.26,.13-2.44,.92-3.76,.45-2.99,.98-6.04,1.4-9.14,1.81-3.1,.49-6.25,.77-9.31,1.43-3.04,.66-6.12,1.18-9.15,1.87-3.04,.65-6.1,1.25-9.11,2.01-1.51,.36-3.07,1.24-4.67,.6-.31-.13-1.38,.2-1.65,.48-.73,.77-1.31,1.23-2.48,.81-.22-.08-.99,.3-1.39,.56-1.11,.74-2.22,.96-3.58,1.03-1.06,.04-2.43,.3-3.33,.81-1.2,.68-2.36,1.33-3.58,1.79-1.21,.49-2.48,.81-3.93,.77-.35,0-.98,.94-1.56,1.11-1.11,.34-2.18,.8-3.25,1.27-1.07,.46-2.17,.84-3.39,.9-1,.05-2.19,.81-3.31,1.17-1.92,.65-3.42,2-5.48,2.59-1.04,.31-2.08,.75-3.09,1.27-1,.54-1.99,1.13-2.99,1.65-1.99,1.05-4.03,2.03-5.95,3.21-1.94,1.15-3.91,2.25-5.82,3.43l-5.65,3.7c-1.88,1.24-3.64,2.64-5.46,3.95-.89,.68-1.83,1.3-2.69,2.03l-2.6,2.14c-1.21,1-2.42,1.82-3.88,2.55-1.82,1-3.62,2.38-5.44,4.09-.94,.83-1.79,1.83-2.64,2.9-.86,1.06-1.73,2.21-2.6,3.42-.25,.35-.61,.65-.92,.97-3.32,3.77-4.8,8.83-5.34,14.11-.27,2.31-.55,4.78-.14,7.25,.13,.8,.23,1.6,.45,2.39,.19,.78,.48,1.55,1,2.26,.41,.59,.52,1.4,.74,2.21,.18,.82,.48,1.65,1.19,2.23,.26,.21,.49,.68,.71,1.18,.05,.13,.1,.26,.14,.38l.06,.19,.03,.1v.03c-.01,.07-.04,.15-.09,.23-.09,.14-.08,.25-.08,.37-.01,.02,.03,.09-.02,.06l.17,.26,.34,.5c.46,.67,.95,1.31,1.42,1.94,.96,1.27,1.88,2.5,2.63,3.74l1.69,2.78,.85,1.34,.2,.3c.05,.07,.09,.15,.16,.21,.08,.04,.16,.08,.24,.12-.01-.01,.45,.27,.72,.48,.62,.44,1.15,.91,1.66,1.37,1.47,1.39,2.26,2.95,3.85,3.66,.39,.18,.82,.65,1.19,1.17,.19,.27,.37,.53,.53,.81,.07,.12,.19,.3,.2,.36,0,.05,0,.11,0,.17,0,.08,.06,.18,.19,.33,.15,.16,.3,.31,.46,.46,.31,.3,.64,.57,.98,.82,.69,.49,1.39,.95,2.14,1.29,3.19,1.48,3.15,1.42,5.87,3.6,.32,.26,.71,.49,1.08,.7,3.79,1.99,7.63,4.26,11.75,5.29,3.39,.91,6.64,1.95,9.97,2.92,1.32,.39,2.98,.34,3.86,1.61,.13,.18,.89,.38,1.25,.33,1.55-.21,3.04,0,4.52,.35,1.49,.29,2.98,.72,4.46,.99,1.44,.22,2.86,.21,4.28,.23,1.42,0,2.84-.02,4.3,.27,2.75,.49,5.61,.54,8.42,.66,4.26,.13,5.18,.7,5.18,3.44,0,2.25-1.12,2.74-4.75,3.14-7.73,.73-15.37-1.02-21.52-1.95Z"/>
            </g>
            <g>
              <path class="cls-9" d="M116.87,167.37c-23.37,.1-51.44-6.61-71.58-21.9-3.36-3.4-5.03-6.79-8.39-8.49-3.36-5.09-5.03-8.49-8.39-11.89-5.03-11.89-6.71-27.17,1.68-37.36,31.88-35.66,77.19-50.94,122.5-57.73,68.8-10.19,140.96,11.89,189.6,61.19l-.58,1.22c-45.95,3.49-96.16,6.73-144.91,9.21l10.37,1.01c33.07-.59,60.28,2.46,93.27,4.88,18.5,1.36,37.51,3.34,53.94,12.05h0c-3.91,15.09-18.48,25.36-34.1,32.38-33.74,15.17-68.31,23.25-105.31,20.41-36.29-2.78-66.62-1.66-102.69-6.61"/>
              <path class="cls-9" d="M90.59,166.65c-7.72-1.52-13.88-3.4-19.96-5.47-.96-.29-2.17-.26-3.35-.73-2.35-.91-4.72-1.91-7.05-2.92-1.15-.55-2.28-1.12-3.38-1.72-1.11-.59-2.13-1.32-3.12-2.03l-1.62-1.17-1.59-1.21c-1.06-.81-2.17-1.51-3.21-2.32-.53-.39-1.06-.77-1.59-1.15-.54-.4-1.03-.68-1.71-1.22-.5-.5-1-.99-1.49-1.49-.45-.47-.9-.93-1.35-1.39-.96-1-1.83-1.98-2.69-2.82-.43-.42-.85-.79-1.28-1.12-.23-.16-.39-.29-.68-.47-.39-.24-.81-.46-1.22-.68-.4-.55-.77-1.15-1.15-1.7l-.82-1.26-1.63-2.49c-.87-1.29-1.74-2.45-2.23-4.08-.18-.6-.61-1.33-1.22-1.97l-.24-.23c-.09-.08-.22-.21-.33-.31-.23-.2-.47-.4-.73-.6-.31-.49-.69-1.07-1.04-1.43-.26-.26-.41-1-.51-1.53-.12-.57-.03-1.32-.27-1.68-1.28-2.07-2.03-4.43-2.43-6.86-.25-1.2-.33-2.45-.49-3.67-.1-1.23-.21-2.47-.31-3.69-.14-1.23,.26-2.56-.48-3.66-.22-.28-.11-1.52,.11-1.87,.55-.91,.82-1.85,1.03-3.03,.52-2.53,1.24-5.06,2.46-7.4,.26-.6,.61-1.16,.95-1.73,.35-.56,.64-1.15,1.07-1.68l1.2-1.62c.41-.49,.84-.9,1.26-1.35,.9-2.41,3.11-4.11,4.9-5.93,1.41-1.31,3.05-2.36,4.58-3.52,.77-.58,1.43-1.35,2.14-2.04,.75-.65,1.54-1.23,2.54-1.48,.32-.08,.71-.75,1.12-1.11,.91-.8,1.79-1.66,2.7-2.47,.9-.82,1.9-1.49,2.91-2.04,1.04-.55,2.07-1.11,3.01-1.8,.76-.55,1.5-1.13,2.28-1.65l2.35-1.54,4.71-3.07,4.86-2.83,2.43-1.42,2.49-1.3,4.99-2.59c1.68-.81,3.39-1.58,5.09-2.37,3.37-1.64,6.87-2.95,10.32-4.41,1.2-.51,2.42-.78,3.51-1.81,.86-.8,3.08-1.63,4.21-1.55,1.81,.11,3.23-.6,4.76-1.07,1.42-.41,2.82-.88,4.23-1.34,1.41-.44,2.84-.83,4.27-1.2,1.7-.42,3.44-1.47,5.18-.87,.17,.06,.71-.08,.87-.21,1.64-1.42,3.68-1.08,5.59-1.42,1.39-.27,2.77-.56,4.17-1.36,1.36-.78,3.81-1.38,5.26-1.18,1.95,.29,3.58-.22,5.29-.54l3.77-.69,3.79-.6c2.53-.4,5.05-.83,7.6-1.09,5.09-.57,10.17-1.34,15.29-1.55,2.42-.16,4.81-.54,7.22-.87,2.41-.26,4.84-.35,7.29-.2,1.17,.08,2.45-.31,3.49,.4,.21,.15,1.15,.06,1.52-.12,1.35-.67,2.68-.32,4.19-.22,3.42,.25,6.85,.56,10.27,.79,3.41,.41,6.8,.73,10.18,.8,2.64,0,5.2,.42,7.76,.82,2.56,.4,5.1,.84,7.67,1.2,1.7,.3,3.3,1.18,4.99,1.66,1.64,.47,3.33,.81,5.01,1.14,1,.2,1.95,.62,3.06,.3,.59-.15,2.03,.17,2.54,.58,1.7,1.36,3.83,1.63,5.82,2.22,1.42,.43,2.84,.81,4.25,1.26l4.19,1.46c2.79,.99,5.6,1.91,8.36,2.99,1.34,.57,2.99,.81,3.87,2.12,.12,.18,.99,.24,1.52,.37,.56,.14,1.3,.17,1.64,.45,.77,.63,1.6,1.16,2.46,1.62,.86,.46,1.76,.86,2.64,1.3,1.78,.85,3.63,1.58,5.37,2.46l3.18,1.58c1.06,.52,2.14,1.03,3.15,1.63l6.2,3.48c4.2,2.2,8.09,4.93,12.05,7.52,1.09,.75,2.26,1.23,3.36,1.82,1.09,.59,2.18,1.17,3.21,1.95,1.98,1.51,4.05,2.92,6.01,4.45,.71,.52,1.46,1.03,2.13,1.63,.67,.59,1.27,1.24,1.62,2.12,.19,.48,1.17,1.28,1.72,1.44,2.07,.59,3.44,2.32,5.11,3.55l.38,.29,.37,.39,.72,.8,1.43,1.61c.97,1.07,2,2.05,3.34,3.04,.73,.56,1.32,1.75,2.06,2.59l1.98,2.25,.13,.14s.11,.09,.05,.15l-.16,.34-.32,.69c-.06,.1-.09,.25-.18,.32l-.35,.07-.7,.14c-.89,.18-1.5,.54-2.41,.76-1.73,.42-3.47,.85-5.22,1.31-.11,.03-.21,.06-.34,.08l-.43,.04-.86,.09-1.74,.17-2.85,.29c-3.24,.35-6.49,.67-9.73,.95-6.62,.58-13.25,.96-19.88,1.42-6.63,.45-13.26,.97-19.89,1.29-2.49,.12-5.14,.99-7.52-.07-2.24,.87-4.28,.56-6.34-.13-.29-.1-1,.29-1.53,.43-1.66,.42-3.18,1.74-5.11,.53-.07-.04-.3,.03-.45,.02-1.55-.09-2.54,1.31-4.55,.63-1.25-.43-3.22-.1-4.86-.04-1.7,.06-3.41,.11-5.08,.32-1.73,.22-3.66-.29-5.23,.8-.25,.18-1.57-.44-2.33-.35-3.87,.47-7.9-.22-11.66,1.18-.86,.32-2.24,.37-3.19,.18-3.4-.67-6.51-.05-9.94,.45-4.5,.67-9.34,1.08-13.84,.06-.23-.05-.43-.1-.62-.14l.1-4.11c.55,.21,.96,.28,1.72,.02,.65-.23,1.74-.05,2.62,.03l3.69,.36,1.84,.18,.36,.03c.11,0,.16,0,.28,0h.93c2.48-.04,4.97-.08,7.45-.06,4.97-.01,9.93,.1,14.9,.23,2.7,.1,5.18,1.13,7.96,.9,1.15-.09,2.46,.45,3.45-.31,.14-.11,.62-.15,.83-.07,3.26,1.11,6.64-.03,9.91,.57,.7,.12,1.36,.35,2.06,.5,.71,.15,1.53,.44,2.14,.34,5.14-.8,10.28,.46,15.41,.58,1.75,.04,3.61,.71,5.24-.15,.24-.13,1.01-.05,1.34,.1,2.88,1.42,6.22,.78,9.28,1.33,1.57,.28,3.4-.23,4.74,.86,.17,.14,.82,.09,1.22,.05,.69-.07,1.39-.34,2.04-.27,1.83,.19,3.78,.88,5.43,.68,2.03-.25,3.92,.07,5.85,.21,1.11,.09,2.17,.63,3.28,.84,1.05,.21,2.16,.24,3.24,.36,1.55,.18,3.18,.19,4.62,.6,1.49,.43,2.84-.43,4.42,.53,1.2,.71,2.82,.04,4.28,.2,.73,.07,1.47,.33,2.16,.59,.53,.19,.99,.62,1.5,.7,1.16,.17,2.22,.64,3.55,.5,.92-.11,2.28,.86,3.47,1.24,1.19,.39,2.4,.74,3.61,1.1,1.2,.39,2.41,1.04,3.57,1.19,1.26,.21,2.5,.54,3.72,.93,1,.36,2.89,1.13,4.39,1.91l2.29,1.21c.65,.45,1.95,.62,1.23,1.64l-.79,2.48c-.24,.83-.6,1.62-.87,2.43-.15,.41-.29,.85-.43,1.3-.08,.22-.14,.45-.23,.67-.08,.18-.18,.37-.26,.52-.34,.63-.78,1.19-1.42,1.5-.21,.12-.62,.77-.75,1.15-.2,.61-.43,1.2-.69,1.79-.27,.58-.61,1.11-.95,1.66-.66,1.1-1.5,2.07-2.34,3.03-.84,.96-1.8,1.81-2.69,2.72-.95,.83-1.84,1.73-2.75,2.59-2.53,2.52-5.15,4.93-8.27,6.77-3.04,1.78-6.29,3.32-9.12,5.15-1.16,.79-2.34,1.48-3.54,2.15-1.2,.63-2.41,1.18-3.68,1.61-2.46,.86-4.14,3.41-7.06,3.02-2.45,1.03-4.95,1.98-7.45,2.86-2.11,.75-4.17,1.81-6.49,1.74-.84-.02-2.3,.48-3.04,1-2.39,1.7-5.05,2.3-7.91,2.61-.67,.08-1.37,.73-2.11,.95-2.24,.7-4.54,1.3-6.83,1.77-6.87,1.25-13.42,3.57-20.36,4.55-1.27,.2-2.6,1.02-3.75,.99-3.51-.09-7,.17-10.49,.53-3.49,.23-6.99,.59-10.43,.26-1.27-.11-2.54-.17-3.8-.24-1.26-.1-2.53-.18-3.79-.25-2.53-.09-5.05-.27-7.57-.41l-7.44-.43c-2.46-.16-4.92-.29-7.38-.5-1.28-.11-2.59-.9-3.2-.72-1.92,.56-4.05-.12-5.65,.3-2.88,.75-5.66,.03-8.47,.14-2.04,.08-4.22-.6-6.14,.33-.28,.14-.98,.08-1.35-.05-2.97-1.05-6,.23-8.97-.33-5.71,.92-11.53-.11-17.31-.16-.85,0-1.69,.19-2.54,.28-.43,.04-.94,.17-1.3,.06-5.16-1.49-10.64-.97-15.92-1.74-1.74-.27-3.43-.77-5.17-1.06-1.75-.28-3.6-.21-5.18-1.13-.49-.29-1.52-.28-2.28-.28-4.12-.02-6.93-1.99-6.64-4.51,.1-.91,.94-.86,1.85-1.09,1.76-.44,3.45-.65,5.46-.33,1.56,.23,3.26,.71,4.75-.02,.25-.12,.96-.01,1.33,.14,2.62,1.04,5.72,.73,8.23,1.47,1.93,.57,3.76,.62,5.63,.92,1.57,.25,3.24-.1,4.77,.81,.52,.31,2.12-.3,3.23-.26,2.61,.08,5.25,.17,7.85,.42,7.91,.75,15.78-.27,23.7,.36,5.7-.92,11.55,.36,17.24,.07,6.87-.36,13.74,.5,20.52,.65,1.38,.02,2.48,.11,3.69,.47,.79,.24,1.62,.5,2.45,.51,1.6,.06,3.2,.08,4.81,.11,1.6,.05,3.2-.03,4.8,.02,.86,.02,1.76-.13,2.65-.14,.88-.03,1.74,.04,2.53,.54,.22,.14,.99,.08,1.33-.06,2.76-1.16,5.83-.8,8.75-1.17,1.11-.13,2.18-.24,3.44,0,1.36,.25,3.43-.01,4.74-.59,.99-.45,1.9-.59,2.87-.83,1.01-.25,2.04-.4,3.08-.53l3.11-.45c1.04-.16,2.06-.35,3.06-.62,1-.29,1.96-.69,2.88-1.22,1.16,.33,2.36,.25,3.54,.01,1.17-.25,2.29-.72,3.3-1.11,7.75-3.02,15.86-4.77,23.58-7.81,1.85-.76,3.91-1,5.84-1.65,2.01-.71,4-1.56,5.96-2.42,1.04-.48,2.41-.67,2.89-1.79,.04-.08,.2-.2,.32-.24,1.17-.37,2.45-.56,3.49-1.12,.94-.5,1.6-1.4,2.48-2.01,1.06-.73,2.25-1.32,3.38-1.97,1.11-.6,2.18-1.43,3.43-1.31,.4-1.26,1.84-1.65,2.86-2.37,.95-.69,1.94-1.33,2.92-2,1.04-.81,2.14-1.56,3.12-2.42,.5-.42,1.03-.82,1.52-1.25,.48-.44,.96-.88,1.4-1.35,1.19-1.32,2.13-2.78,3.14-4.17,1.09-1.45,2.13-2.93,3.12-4.4,.34-.45,.62-.92,.91-1.4l.44-.71c.15-.23,.32-.5,.37-.56,.26-.39,.61-.83,.83-1.35,.1-.21,.12-.4,.06-.55,.05-.19-.44-.13-.73-.13-.44,.02-.95,.16-1.2,.18-.13,0-.22,0-.25-.11-.02-.05-.02-.12-.03-.22-.02-.11,.06-.2-.12-.46-.2-.36-1.29-.76-1.96-.83-1.3-.17-2.55-.48-3.8-.8-1.23-.36-2.47-.74-3.71-1.15-2.46-.82-4.98-1.62-7.56-2.03-2.62-1.52-5.51-1.49-8.53-1.67-4.43-.29-9.13-.67-13.46-1.62-4.59-1.01-9.22-.99-13.87-1.57-1.3-.16-2.75,.08-3.79-.86-.24-.21-1.23-.24-1.79-.15-3.84,.59-7.49,.04-11.29-.84-2.01-.47-4.32-.29-6.59-.14-3.4,.23-7.03-.42-10.57-.67-1.45-1.16-2.72-.18-3.53,.22-1.09,.53-2.07,.57-3.31,.5-1.6-.08-3.16-.37-4.77,.21-.83,.29-2.62,.11-3.46-.3-1.14-.55-1.58-.35-2.66-.09-1.27,.31-2.53-.71-4.11-.74-1.69-.03-3.68,.42-5.13-.73-.13-.1-.65-.11-.89-.03-3.16,1.01-6.22-.69-9.35-.25-4.38-.66-8.81-.76-13.23-.66l-1.66,.04-.83,.02h-.64c-.21,0-.51-.03-.66-.04l-3.34-.28c-2.22-.19-4.44-.4-6.65-.68l.19-8.15c.53,0,1.07-.01,1.6-.02,3.89-.02,7.85,.59,11.65-.11,7.98-1.47,16.08-1.19,24.11-1.84,1.7-.14,3.63-.74,5.23,.23,.22,.13,1,.07,1.34-.08,2.49-1.12,4.99-.97,7.59-.46,.63,.12,1.79,.03,2.15-.25,1.02-.79,2.28-.57,3.42-.63,1.38-.06,3.25,.46,4.04,.05,1.71-.9,2.75-.07,4.09-.01,.83,.04,1.73-.23,2.58-.4,.4-.08,.89-.44,1.13-.37,2.76,.73,5.34-.74,8.03-.54,.58,.04,1.19-.02,1.75,.05q6.4,.78,14.34-.36c2.27,1.15,4.71-.93,7.15-.11,.89,.3,2.55,.1,3.62-.23,4.67-1.46,9.62-.91,14.38-1.58,.99-.14,1.82,.67,3.04-.12,.46-.3,2.15,.35,3.24,.24,1.58-.16,3.28,.19,4.79-.77,.62-.39,2.05-.22,3.1-.37,.91-.12,.95-.06,1.31-.11,.29-.04,.58-.15,.59-.51,.02-.38,.4-.42,1.13-.14,.75,.29,1.44,.42,1.95,.46,.48-.01,.95,.11,.79-.44l-.03-.15-.02-.08-.1-.07-.42-.26-.85-.48-1.47-.76c-.48-.26-.78-.36-.75-.62,.02-.19-.01-.46-.17-.71-.15-.25-.4-.49-.7-.49-.15,.09-.74-.24-1.16-.49-.44-.27-.85-.57-1.24-.88-.78-.63-1.51-1.31-2.29-1.94-2.73-2.14-5.22-4.59-8.14-6.48-1.63-1.12-3.18-2.34-4.78-3.5-.8-.58-1.61-1.15-2.45-1.69-.85-.52-1.77-.95-2.7-1.35-2.02-.86-4.57-2.09-5.92-4.33-.15-.25-1.28-.22-1.81-.55-2.13-1.28-4.34-2.42-6.5-3.65l-3.24-1.84-1.62-.93c-.54-.31-1.11-.57-1.66-.85-1.02-.52-1.65-2.08-3-1.73-1.43,.38-1.69-1.87-3.04-1.23-.2,.09-1.13-.38-1.56-.72-.59-.46-1.2-.89-1.82-1.29-.63-.4-1.29-.72-1.95-1.05-1.33-.65-2.7-1.22-4.08-1.77-2.78-1.07-5.54-2.19-8.3-3.23-1.32-.54-2.99-.63-3.74-1.93-1.88-.08-3.58-.98-5.31-1.8-1.75-.73-3.55-1.36-5.48-1.02-2.42-.98-5.29-.91-7.41-2.65-.35-.27-1.28-.2-1.69-.46-1.4-.91-2.77,.6-4.43-.72-.96-.76-3.04-.91-4.63-1.3-1.47-.39-2.98-.54-4.48-.81l-4.94-.83c-1.65-.25-3.28-.67-4.94-.77-3.37-.2-6.71,.15-10.09-.51-.36-.07-1.01,0-1.16,.16-1.27,1.37-2.9,.49-4.03-.02-.94-.42-1.76-.64-2.82-.69l-4.31-.2-2.15-.12-2.15-.04c-1.7-.05-3.51,.44-5.14-.5-.5-.29-1.88-.22-2.65,0-.9,.25-1.8,.4-2.71,.49-.91,.14-1.82,.22-2.74,.28-1.84,.11-3.69,.11-5.51,.29-1.65,.18-3.32,.2-4.98,.33-1.26,.13-2.44,.92-3.76,.45-2.99,.98-6.04,1.4-9.14,1.81-3.1,.49-6.25,.77-9.31,1.43-3.04,.66-6.12,1.18-9.15,1.87-3.04,.65-6.1,1.25-9.11,2.01-1.51,.36-3.07,1.24-4.67,.6-.31-.13-1.38,.2-1.65,.48-.73,.77-1.31,1.23-2.48,.81-.22-.08-.99,.3-1.39,.56-1.11,.74-2.22,.96-3.58,1.03-1.06,.04-2.43,.3-3.33,.81-1.2,.68-2.36,1.33-3.58,1.79-1.21,.49-2.48,.81-3.93,.77-.35,0-.98,.94-1.56,1.11-1.11,.34-2.18,.8-3.25,1.27-1.07,.46-2.17,.84-3.39,.9-1,.05-2.19,.81-3.31,1.17-1.92,.65-3.42,2-5.48,2.59-1.04,.31-2.08,.75-3.09,1.27-1,.54-1.99,1.13-2.99,1.65-1.99,1.05-4.03,2.03-5.95,3.21-1.94,1.15-3.91,2.25-5.82,3.43l-5.65,3.7c-1.88,1.24-3.64,2.64-5.46,3.95-.89,.68-1.83,1.3-2.69,2.03l-2.6,2.14c-1.21,1-2.42,1.82-3.88,2.55-1.82,1-3.62,2.38-5.44,4.09-.94,.83-1.78,1.83-2.64,2.9-.86,1.07-1.73,2.21-2.6,3.42-.25,.35-.61,.65-.92,.97-3.32,3.77-4.8,8.83-5.34,14.11-.27,2.31-.55,4.78-.14,7.25,.13,.8,.23,1.6,.45,2.39,.19,.78,.48,1.55,1,2.26,.41,.59,.53,1.4,.74,2.21,.18,.82,.48,1.65,1.19,2.23,.26,.21,.49,.68,.71,1.18,.05,.13,.1,.26,.14,.38l.06,.19,.03,.1v.03c-.01,.07-.04,.15-.09,.23-.09,.14-.08,.25-.08,.37-.01,.02,.03,.09-.02,.06l.17,.26,.35,.5c.46,.67,.95,1.31,1.42,1.94,.96,1.27,1.88,2.5,2.63,3.74l1.69,2.78,.85,1.34,.2,.3c.05,.07,.09,.15,.16,.21,.08,.04,.16,.08,.24,.13-.01-.01,.45,.27,.72,.48,.62,.44,1.15,.91,1.66,1.37,1.47,1.39,2.26,2.95,3.85,3.66,.39,.18,.82,.65,1.19,1.17,.19,.27,.37,.53,.53,.81,.07,.12,.19,.3,.2,.36,0,.05,0,.11,0,.17,0,.08,.06,.18,.19,.33,.15,.16,.3,.31,.46,.46,.31,.3,.64,.57,.98,.82,.69,.49,1.39,.95,2.14,1.29,3.19,1.48,3.15,1.42,5.87,3.6,.32,.26,.71,.49,1.08,.7,3.79,1.99,7.63,4.26,11.75,5.29,3.39,.91,6.64,1.95,9.97,2.92,1.32,.39,2.98,.34,3.86,1.61,.13,.18,.89,.38,1.25,.33,1.55-.21,3.04,0,4.52,.35,1.49,.29,2.98,.72,4.46,.99,1.44,.22,2.86,.21,4.28,.23,1.42,0,2.84-.02,4.3,.27,2.75,.49,5.61,.54,8.42,.66,4.26,.13,5.18,.7,5.18,3.44,0,2.25-1.12,2.74-4.75,3.14-7.73,.73-15.37-1.02-21.52-1.95Z"/>
            </g>
          </g>
          <g class="cls-13">
            <g class="cls-13">
              <path class="cls-5" d="M164.5,11.92c-1.47,.5-3.25,.17-4.33,1.24-.13,.11-.25,.22-.37,.34h.23c1.78,0,3.63-.32,5.28-.93,1-.49,1.93-1.3,3.12-1.51,.13-.02,.07-.33,.04-.49-.17-.17-.32-.35-.47-.54-.91,.41-1.78,.92-2.76,1.19-.33,.06-.55,.66-.75,.69Z"/>
              <polygon class="cls-7" points="168.06 10.07 168.03 10.03 167.9 10.09 168.06 10.07"/>
              <path class="cls-4" d="M165.85,11.12c-.29,.17-.6,.27-.92,.33-.17,.19-.3,.44-.43,.47-1.47,.5-3.25,.17-4.33,1.24-.12,.11-.25,.22-.37,.34,.08,0,.17,0,.25,0,.62,0,1.24-.04,1.86-.11l.08-.07c.28-.29,.66-.12,.99-.17,.88-.39,1.7-.38,2.58-.77,.31-.14,.57-.58,.96-.65,.13-.04,.26-.06,.39-.07,.48-.26,.97-.49,1.53-.59,.13-.02,.07-.33,.04-.49-.09-.09-.17-.18-.25-.28-.46,.05-.89,.18-1.35,.27-.37,.18-.74,.35-1.13,.49,.02,.02,.05,.04,.08,.06Z"/>
              <path class="cls-7" d="M165.69,10.67c-.06,.01-.07,.25,.08,.39,.39-.14,.76-.31,1.13-.49-.38,.08-.78,.13-1.21,.1Z"/>
              <path class="cls-8" d="M165.48,9.59c-.81,.06-1.44,.65-2.15,.54-.37-.04-.75-.18-1.11-.4-.11,.03-.21,.06-.31,.1-2.55,.93-5.13,1.7-7.8,2.01-1.32,.23-2.39,1.06-3.62,1.76-.76,.29-1.48,.09-2.28,.05-1.99-.21-3.29,1.38-5.34,1.76-.53,.09-.71,1.34-.57,1.35,3.66-.29,6.9-.72,10.08-1.89,2.47-.9,4.91-1.34,7.43-1.35,.12-.12,.25-.24,.37-.34,1.09-1.07,2.86-.74,4.33-1.24,.2-.03,.42-.63,.75-.69,.97-.27,1.85-.78,2.76-1.19-.31-.4-.58-.81-.86-1.09-.54,.33-1.07,.64-1.67,.64Z"/>
              <path class="cls-6" d="M165.48,9.59c.6,0,1.14-.31,1.67-.64-.14-.14-.28-.24-.43-.3-1.59-.32-3.06,.6-4.51,1.07,.36,.22,.75,.36,1.11,.4,.71,.12,1.34-.48,2.15-.54Z"/>
              <path class="cls-4" d="M165.48,9.59c.57,0,1.09-.29,1.6-.6-.2-.02-.4-.01-.6,.02-.99,.17-1.95,.5-2.99,.45,1.04-.25,2.08-.5,3.1-.84-1.54-.23-2.96,.65-4.37,1.11,.36,.22,.75,.36,1.11,.4,.71,.12,1.34-.48,2.15-.54Z"/>
              <path class="cls-3" d="M163.95,10.18c1.21-.14,2.4-.34,3.53-.88-.08-.1-.16-.2-.24-.28-.06,0-.11-.01-.16-.02-.51,.31-1.03,.59-1.6,.6-.81,.06-1.44,.65-2.15,.54-.36-.04-.75-.18-1.11-.4-.1,.03-.2,.06-.29,.09-1.3,.47-2.61,.91-3.94,1.26-1.06,.68-2.34,.91-3.62,.95,.57-.14,1.14-.3,1.7-.5-.64,.13-1.29,.23-1.94,.31-.56,.1-1.07,.3-1.57,.56-.04,.31-.15,.6-.42,.75-.43,.24-.89,.32-1.29,.71-.07,.01-.11-.22-.24-.2,.37-.06,.63-.3,.82-.6-.3,.18-.61,.36-.9,.54-.6,.23-1.17,.16-1.77,.09-.06,.02-.12,.05-.17,.07-.29,.11-.57,.3-.84,.52,.13-.02,.25-.03,.39-.05-.17,.18-.43,.22-.63,.24,.08-.06,.16-.13,.24-.19-.3,.03-.59,.07-.91,.1,.39-.04,.76-.24,1.05-.44-.7,.17-1.33,.4-2.04,.28l.05-.05c-.92,.44-1.86,1.04-2.98,1.24-.53,.09-.71,1.34-.57,1.36,2.57-.19,4.89-.49,7.17-1.03-.3-.1-.6-.21-.89-.31-.12-.01-.24-.05-.37-.12,.12,.04,.24,.08,.37,.12,.33,.04,.66-.07,1.03,0,.08,.07,.28,.03,.3-.21,.5,.08,.98-.25,1.47-.18,.03,0,.09,.05,.16,.12,.28-.09,.55-.19,.83-.29,1.55-.56,3.08-.94,4.62-1.15-.4-.05-.79-.13-1.17-.25-.52-.23-1.37,.32-2.13,.61-.18,.11-.36-.1-.56-.06,.52-.81,1.52-.59,2.29-.88,1.03-.34,2.64-.14,3.65-.88,.42-.31,.92-.16,1.37,0-.1,.18-.37,.22-.5,.25-1.19,.21-2.38,.42-3.54,.78,1.3,.01,2.44-.43,3.76-.34-.71,.21-1.5,.02-2.08,.53,.07,.04,.14,.08,.21,.11,.49-.04,.99-.05,1.48-.06,.12-.12,.24-.23,.37-.34,1.09-1.07,2.86-.74,4.33-1.24,.13-.02,.26-.27,.43-.47-.49,.1-1,.13-1.48,.25,.21,.02,.43,.08,.64,.2-.45,.16-.91-.08-1.35,.08,.23-.13,.47-.22,.71-.28-.32-.04-.64,0-.97,0,.53-.41,1.24,.1,1.75-.46-.13,.04-.26,.06-.39,.06l.4-.07h0c.39-.11,.74-.35,1.05-.58-.67,.19-1.36,.02-2.01,.21-.1,.04-.21,.08-.32,.12,.1-.05,.21-.09,.32-.12,1.47-.52,3.08-.55,4.62-.78l.14-.06-.2-.27c-1.27,.23-2.58,.38-3.88,.41Z"/>
            </g>
          </g>
          <g class="cls-13">
            <g class="cls-13">
              <path class="cls-5" d="M248.56,21.27c-2.18-.77-4.18-2.38-6.29-2.37-.23-.01-.47-.01-.71-.01l.3,.18c2.23,1.34,4.76,2.51,7.24,3.34,1.58,.41,3.32,.54,4.93,1.34,.18,.09,.33-.19,.4-.33-.08-.26-.14-.52-.18-.77-1.42-.42-2.87-.74-4.27-1.3-.45-.22-1.16,.06-1.43-.07Z"/>
              <polygon class="cls-7" points="254.3 22.7 254.29 22.65 254.07 22.59 254.3 22.7"/>
              <path class="cls-4" d="M250.8,21.73c-.49-.1-.94-.27-1.37-.47-.35,.02-.69,.1-.86,.02-2.18-.77-4.18-2.38-6.29-2.37-.23-.01-.46-.01-.7-.01l.32,.19c.77,.47,1.58,.91,2.41,1.32h.16c.56,0,.91,.42,1.36,.63,1.37,.38,2.38,1.02,3.75,1.42,.49,.15,1.12,0,1.66,.27,.19,.07,.37,.16,.53,.26,.78,.18,1.55,.41,2.3,.78,.18,.09,.33-.19,.4-.33-.04-.13-.08-.27-.11-.41-.6-.32-1.23-.58-1.86-.87-.59-.16-1.17-.33-1.75-.53,.01,.04,.03,.07,.06,.11Z"/>
              <path class="cls-7" d="M250.93,21.27c-.08-.04-.26,.13-.19,.35,.58,.2,1.17,.37,1.75,.53-.53-.24-1.06-.52-1.57-.88Z"/>
              <path class="cls-8" d="M251.44,20.29c-1.05-.59-2.27-.64-3.07-1.28-.43-.31-.81-.72-1.11-1.17-.16-.06-.31-.11-.46-.17-3.87-1.26-7.69-2.59-11.34-4.28-1.86-.78-3.8-.88-5.86-1.19-1.19-.3-1.99-.95-3.07-1.53-2.68-1.5-5.85-.99-8.81-.22-.82,.23-.66,1.5-.47,1.47,2.2-.68,4.62-.26,6.9,.42,2.29,.7,4.62,1.57,7.06,2.2,3.78,1.03,7.19,2.47,10.37,4.35,.24,0,.48,0,.71,.01,2.11,0,4.11,1.6,6.29,2.37,.27,.13,.98-.15,1.43,.07,1.4,.56,2.85,.88,4.27,1.3-.09-.54-.12-1.07-.27-1.5-.9-.19-1.8-.38-2.54-.85Z"/>
              <path class="cls-6" d="M251.44,20.29c.75,.47,1.64,.67,2.54,.85-.07-.21-.17-.4-.31-.56-1.75-1.51-4.25-1.98-6.42-2.74,.3,.45,.68,.86,1.11,1.17,.8,.64,2.02,.69,3.07,1.28Z"/>
              <path class="cls-4" d="M251.44,20.29c.72,.45,1.56,.65,2.42,.83-.24-.18-.49-.33-.76-.46-1.36-.66-2.79-1.17-4.05-2.02,1.48,.62,2.96,1.26,4.47,1.82-1.75-1.4-4.17-1.86-6.26-2.61,.3,.45,.68,.85,1.11,1.17,.8,.64,2.02,.69,3.07,1.28Z"/>
              <path class="cls-3" d="M249.12,19.53c1.61,.84,3.24,1.63,5.02,2.13-.02-.14-.05-.27-.09-.4-.07-.05-.13-.1-.19-.15-.86-.18-1.71-.38-2.42-.83-1.05-.59-2.27-.64-3.07-1.28-.43-.31-.81-.72-1.11-1.17-.15-.05-.29-.11-.43-.16-1.98-.64-3.94-1.31-5.88-2.03-1.82-.27-3.61-1.03-5.29-1.93,.83,.31,1.67,.59,2.53,.85-.91-.37-1.81-.77-2.71-1.18-.79-.33-1.59-.54-2.41-.69-.26,.22-.59,.37-1.05,.29-.72-.12-1.37-.38-2.15-.35-.09-.04,0-.25-.19-.33,.52,.21,1.01,.2,1.47,.1-.51-.07-1.03-.14-1.53-.21-.93-.24-1.63-.69-2.41-1.16l-.28-.06c-.46-.11-.97-.13-1.48-.13,.18,.07,.37,.14,.57,.21-.35,.04-.73-.1-1.02-.2,.15,0,.3,0,.45,0-.45-.16-.88-.31-1.36-.47,.59,.19,1.23,.24,1.76,.28-1.09-.31-2.12-.5-3.19-.93l.09-.02c-1.66-.04-3.35,.3-5.02,.73-.82,.23-.66,1.49-.48,1.47,1.53-.47,3.2-.4,4.81-.09,1.62,.32,3.21,.87,4.84,1.41-.31-.29-.63-.57-.96-.84-.15-.09-.29-.2-.41-.33,.13,.11,.27,.22,.41,.33,.41,.25,.9,.38,1.33,.67,.06,.11,.34,.22,.53,.04,.59,.4,1.43,.48,2.02,.88,.04,.02,.08,.1,.13,.21,.41,.12,.83,.23,1.26,.35,2.36,.65,4.58,1.45,6.69,2.42-.47-.33-.92-.68-1.31-1.05-.51-.56-1.97-.75-3.15-1.06-.31-.04-.4-.33-.68-.45,1.22-.27,2.35,.63,3.53,.95,1.55,.48,3.46,1.82,5.25,2.01,.75,.07,1.28,.57,1.73,1.03-.25,.06-.62-.1-.8-.19-1.65-.73-3.3-1.46-5.02-2.02,1.65,.96,3.4,1.47,5,2.53-1.04-.38-1.91-1.11-2.99-1.15,.06,.09,.12,.17,.19,.25,.65,.34,1.28,.69,1.91,1.06,.24,0,.47,0,.7,.01,2.11,0,4.11,1.6,6.29,2.37,.17,.08,.52,0,.86-.02-.68-.31-1.33-.68-2.03-.96,.25,.18,.47,.39,.66,.65-.67-.23-1.07-.76-1.74-.99,.38,.07,.74,.19,1.08,.33-.37-.28-.8-.5-1.22-.74,.96,.1,1.49,1.03,2.51,1-.18-.07-.36-.16-.53-.26l.54,.26h-.01c.56,.22,1.17,.31,1.73,.38-.96-.39-1.71-1.04-2.66-1.41-.16-.05-.32-.1-.48-.15,.17,.04,.33,.09,.48,.15,2.22,.75,4.23,2,6.3,3.06l.21,.06-.05-.36c-1.74-.85-3.47-1.78-5.11-2.76Z"/>
            </g>
          </g>
          <g class="cls-13">
            <g class="cls-13">
              <path class="cls-5" d="M364.39,106.62c-.17-2.25,.31-4.77-.79-6.56-.11-.2-.23-.4-.35-.6v.34c.02,2.55,.12,5.22,.32,7.75,.24,1.56,.73,3.21,.46,4.96-.03,.19,.28,.25,.44,.28,.22-.15,.45-.28,.68-.4-.03-1.48-.23-2.94-.25-4.44,.03-.5-.51-1.03-.5-1.32Z"/>
              <polygon class="cls-7" points="365.1 112.44 365.15 112.41 365.14 112.19 365.1 112.44"/>
              <path class="cls-4" d="M364.84,108.83c-.08-.49-.1-.96-.09-1.44-.14-.31-.37-.59-.36-.78-.17-2.25,.31-4.77-.79-6.56-.11-.2-.23-.4-.35-.59,0,.12,0,.24,0,.36,0,.88,.02,1.78,.05,2.68l.07,.14c.26,.48,.05,.97,.07,1.45,.28,1.36,.11,2.51,.27,3.88,.06,.49,.41,1.01,.36,1.6,0,.2-.02,.39-.06,.58,.1,.77,.14,1.57,.01,2.38-.03,.19,.28,.25,.44,.28,.11-.08,.23-.15,.35-.22,.13-.67,.17-1.35,.24-2.04-.05-.61-.09-1.21-.13-1.82-.03,.02-.06,.05-.08,.09Z"/>
              <path class="cls-7" d="M365.32,108.78c0-.09-.22-.19-.4-.04,.03,.61,.08,1.21,.13,1.82,.05-.58,.12-1.17,.27-1.78Z"/>
              <path class="cls-8" d="M366.42,108.9c.17-1.23-.27-2.39-.04-3.4,.11-.53,.3-1.07,.57-1.55-.02-.17-.04-.34-.06-.51-.65-4.16-1.7-8.2-2.74-12.18-.58-1.97-1.77-3.52-2.82-5.3-.51-1.11-.49-2.15-.66-3.32-.16-1.48-.69-2.7-1.29-3.94-.61-1.24-1.25-2.52-1.57-4.01-.17-.8-1.43-.87-1.43-.67,.74,5.29,2.04,10.04,4.17,14.67,1.65,3.57,2.68,7.15,2.71,10.77,.12,.2,.24,.4,.35,.6,1.1,1.79,.62,4.31,.79,6.56,0,.29,.53,.82,.5,1.32,.02,1.5,.22,2.96,.25,4.44,.48-.25,.98-.45,1.34-.74-.12-.94-.23-1.86-.07-2.75Z"/>
              <path class="cls-6" d="M366.42,108.9c-.16,.89-.04,1.81,.07,2.75,.18-.14,.33-.3,.43-.49,.86-2.24,.33-4.87,.03-7.21-.27,.49-.46,1.02-.57,1.55-.23,1.01,.21,2.17,.04,3.4Z"/>
              <path class="cls-4" d="M366.42,108.9c-.15,.85-.05,1.72,.06,2.62,.09-.29,.16-.59,.19-.89,.17-1.55,.1-3.11,.35-4.65,.05,1.66,.02,3.32-.01,4.99,.75-2.2,.23-4.74-.05-7.01-.27,.48-.46,1.02-.56,1.55-.23,1.01,.21,2.17,.04,3.4Z"/>
              <path class="cls-3" d="M366.21,106.41c-.11,1.84-.25,3.66-.17,5.55,.13-.07,.25-.14,.35-.22,.03-.08,.05-.16,.08-.23-.11-.89-.21-1.77-.06-2.62,.17-1.23-.27-2.39-.04-3.4,.11-.53,.3-1.07,.56-1.55-.02-.16-.03-.32-.05-.48-.34-2.12-.76-4.22-1.25-6.29-.79-1.71-1.26-3.64-1.63-5.54,.28,.86,.58,1.71,.9,2.57-.25-.96-.5-1.92-.76-2.93-.25-.83-.6-1.59-1.01-2.33-.33-.06-.66-.22-.9-.62-.37-.63-.58-1.3-1.1-1.88-.03-.1,.2-.16,.14-.35,.17,.53,.48,.91,.86,1.2-.27-.44-.54-.88-.81-1.31-.4-.87-.48-1.7-.57-2.58l-.12-.26c-.19-.43-.45-.84-.74-1.24,.05,.19,.1,.37,.15,.57-.23-.25-.33-.64-.4-.93,.09,.12,.17,.24,.25,.35-.12-.44-.21-.88-.33-1.35,.13,.58,.42,1.12,.71,1.56-.36-1.03-.72-1.96-.77-3.04l.06,.07c-.64-1.38-1.42-2.77-1.77-4.43-.17-.79-1.43-.88-1.43-.67,.5,3.71,1.32,7.11,2.47,10.43,.03-.44,.06-.87,.09-1.29-.01-.18,0-.36,.03-.53-.01,.17-.02,.35-.03,.53,.05,.48,.24,.97,.27,1.49-.05,.12,.04,.41,.3,.44,.05,.72,.52,1.43,.59,2.14,.01,.04-.03,.13-.08,.23,.18,.4,.35,.8,.54,1.21,1.02,2.24,1.83,4.46,2.28,6.71,0-.57,0-1.13,.06-1.67,.14-.75-.64-2.01-1.14-3.12-.17-.27,0-.52-.09-.81,.99,.77,1.02,2.23,1.49,3.35,.59,1.53,.61,3.86,1.39,5.48,.34,.67,.19,1.4,.02,2.01-.17-.19-.22-.58-.25-.78-.22-1.78-.54-3.56-1.12-5.28,.22,1.89,.76,3.62,.67,5.52-.2-1.07-.07-2.19-.63-3.1-.04,.1-.07,.19-.1,.29,.08,.71,.12,1.43,.14,2.14,.12,.2,.24,.39,.35,.59,1.1,1.79,.62,4.31,.79,6.56,0,.19,.22,.47,.36,.78,.02-.74,.09-1.48,.04-2.23-.06,.3-.15,.59-.31,.86-.08-.69,.24-1.28,.13-1.98,.1,.37,.16,.74,.18,1.11,.1-.45,.09-.93,.13-1.41,.34,.9-.27,1.78,.17,2.69-.01-.2,0-.39,.02-.59v.6s-.02-.01-.02-.01c.04,.6,.18,1.2,.34,1.74-.02-1.04,.3-1.99,.22-3.02-.02-.17-.04-.34-.07-.51,.04,.17,.06,.34,.07,.51,.28,2.35-.13,4.72-.51,7.02v.22s.33-.16,.33-.16c.27-1.93,.52-3.9,.74-5.84Z"/>
            </g>
          </g>
          <g class="cls-13">
            <g class="cls-13">
              <path class="cls-5" d="M327.41,171.33c-2.02,1.39-4.61,1.81-6.1,3.36-.16,.16-.34,.33-.52,.51l.34-.09c2.57-.7,5.3-1.87,7.56-3.6,1.34-1.17,2.4-2.68,3.8-3.99,.16-.15-.05-.38-.15-.5-.28,0-.55-.05-.8-.1-.93,1.18-1.94,2.35-3.22,3.25-.44,.27-.63,1.01-.91,1.17Z"/>
              <polygon class="cls-7" points="331.62 166.9 331.56 166.89 331.42 167.07 331.62 166.9"/>
              <path class="cls-4" d="M329.11,169.66c-.35,.38-.76,.67-1.18,.94-.19,.3-.34,.64-.51,.73-2.02,1.39-4.61,1.81-6.1,3.36-.16,.16-.33,.32-.51,.5,.12-.03,.24-.07,.36-.1,.89-.24,1.8-.54,2.7-.9l.12-.11c.39-.43,.95-.42,1.43-.65,1.23-.85,2.44-1.3,3.61-2.3,.42-.35,.67-.98,1.19-1.35,.17-.14,.34-.26,.52-.37,.56-.65,1.14-1.29,1.8-1.91,.16-.15-.05-.38-.15-.5-.15,0-.29-.02-.43-.04-.54,.46-1.04,.95-1.6,1.39-.42,.47-.87,.91-1.36,1.31,.04,0,.08,.01,.13,0Z"/>
              <path class="cls-7" d="M328.78,169.31c-.07,.05-.03,.3,.21,.34,.49-.4,.94-.84,1.36-1.31-.47,.38-.98,.72-1.56,.97Z"/>
              <path class="cls-8" d="M328.2,168.37c-1.02,.57-1.74,1.53-2.73,1.77-.51,.14-1.05,.19-1.58,.12-.14,.08-.28,.16-.42,.24-3.41,2.06-7.18,3.79-10.98,5.16-1.89,.75-3.34,2.02-5.1,3.13-1.09,.55-2.13,.54-3.3,.68-1.47,.13-2.68,.61-3.95,1.11-1.26,.5-2.61,1.02-4.14,1.1-.81,.03-1.11,1.26-.91,1.3,5.51,.18,10.48-1.13,15.07-3.52,3.54-1.88,6.99-3.28,10.63-4.27,.18-.18,.35-.35,.52-.51,1.49-1.55,4.09-1.96,6.1-3.36,.28-.16,.47-.9,.91-1.17,1.28-.89,2.29-2.07,3.22-3.25-.54-.11-1.03-.29-1.48-.34-.5,.72-1.09,1.41-1.86,1.8Z"/>
              <path class="cls-6" d="M328.2,168.37c.77-.39,1.36-1.07,1.86-1.8-.22-.03-.43-.02-.62,.03-1.98,.82-3.62,2.49-5.57,3.65,.53,.07,1.08,.02,1.58-.12,.99-.24,1.72-1.2,2.73-1.77Z"/>
              <path class="cls-4" d="M328.2,168.37c.74-.37,1.31-1.01,1.79-1.7-.25,.14-.49,.29-.72,.46-1.14,.87-2.31,1.77-3.71,2.24,1.34-.78,2.61-1.66,3.7-2.7-1.89,.85-3.49,2.46-5.38,3.59,.53,.07,1.07,.02,1.58-.12,.99-.24,1.72-1.2,2.73-1.77Z"/>
              <path class="cls-3" d="M326.33,169.86c1.6-.79,3.13-1.79,4.27-3.21-.14-.03-.27-.06-.4-.08-.07,.04-.14,.07-.2,.1-.49,.69-1.06,1.33-1.79,1.7-1.02,.57-1.74,1.53-2.73,1.77-.51,.14-1.05,.19-1.58,.12l-.39,.23c-1.73,1.06-3.57,2.01-5.46,2.89-1.48,1.11-3.31,1.84-5.15,2.39,.82-.36,1.62-.75,2.41-1.18-.92,.38-1.84,.74-2.78,1.07-.8,.32-1.52,.73-2.22,1.18-.03,.34-.17,.67-.56,.93-.61,.4-1.27,.65-1.83,1.18-.09,.03-.17-.19-.36-.13,.53-.18,.89-.51,1.16-.9-.42,.29-.84,.58-1.28,.86-.86,.43-1.69,.52-2.57,.6l-.26,.12c-.43,.17-.83,.45-1.25,.72,.19-.04,.38-.09,.57-.14-.25,.23-.64,.31-.93,.38,.12-.08,.24-.16,.36-.24-.45,.1-.88,.2-1.35,.27,.58-.09,1.13-.39,1.57-.65-1.03,.32-1.97,.66-3.04,.63l.07-.06c-1.39,.55-2.86,1.19-4.57,1.27-.81,.03-1.12,1.26-.9,1.3,3.86,.13,7.42-.5,10.81-1.68-.45-.03-.88-.06-1.31-.09-.18,.01-.36,0-.54-.03,.18,.01,.36,.02,.54,.03,.49-.03,.98-.24,1.52-.27,.12,.05,.41-.05,.45-.31,.73-.06,1.44-.56,2.16-.65,.04-.01,.13,.02,.24,.07,.41-.19,.8-.39,1.2-.6,2.22-1.17,4.38-2.17,6.6-2.98-.58,.1-1.14,.18-1.69,.19-.77-.03-1.95,.86-3.03,1.46-.26,.19-.53,.04-.81,.15,.71-1.04,2.16-1.2,3.24-1.8,1.46-.75,3.79-1.17,5.2-2.33,.58-.49,1.32-.53,1.97-.54-.13,.23-.51,.38-.7,.46-1.7,.69-3.4,1.36-5.04,2.18,1.87-.49,3.49-1.38,5.39-1.82-1.01,.5-2.16,.61-2.97,1.36,.1,.02,.21,.03,.31,.04,.71-.23,1.42-.44,2.13-.64,.18-.18,.35-.34,.51-.5,1.49-1.55,4.09-1.96,6.1-3.36,.17-.1,.32-.43,.51-.73-.67,.4-1.37,.72-2.04,1.1,.31-.08,.62-.14,.94-.14-.61,.42-1.3,.41-1.91,.79,.31-.25,.64-.46,.97-.65-.46,.13-.91,.32-1.37,.49,.7-.67,1.78-.52,2.39-1.38-.17,.11-.35,.2-.53,.28l.54-.29h0c.52-.32,.95-.79,1.32-1.22-.86,.61-1.84,.83-2.72,1.35-.14,.09-.28,.19-.42,.28,.14-.11,.28-.2,.42-.28,1.96-1.28,4.1-2.3,5.92-3.86l.14-.18-.36-.08c-1.44,1.3-3.15,2.31-4.88,3.05Z"/>
            </g>
          </g>
          <g class="cls-13">
            <g class="cls-13">
              <path class="cls-5" d="M83.16,183.77c-3.02-.13-6.01-1.37-8.65-1.13-.28,.02-.59,.04-.9,.06l.42,.15c3.18,1.14,6.83,1.79,10.28,1.85,2.15-.09,4.3-.55,6.63-.52,.26,0,.29-.31,.3-.46-.23-.2-.44-.42-.62-.63-1.87,.22-3.75,.42-5.7,.33-.64-.07-1.38,.4-1.77,.36Z"/>
              <polygon class="cls-7" points="90.7 183.12 90.67 183.08 90.38 183.11 90.7 183.12"/>
              <path class="cls-4" d="M86.08,183.52c-.63,.07-1.26,.05-1.87-.02-.41,.12-.81,.3-1.05,.27-3.02-.13-6.01-1.37-8.65-1.13-.28,.02-.58,.04-.89,.06l.45,.16c1.1,.4,2.26,.73,3.45,1l.2-.02c.7-.1,1.28,.26,1.93,.36,1.86,.09,3.39,.44,5.25,.4,.67-.01,1.38-.36,2.15-.29,.27,0,.52,.02,.77,.05,1.03-.11,2.07-.21,3.16-.18,.26,0,.29-.31,.3-.46-.12-.1-.24-.21-.34-.33-.87-.05-1.75-.02-2.64-.07-.77,.07-1.55,.12-2.34,.12,.03,.03,.07,.06,.12,.08Z"/>
              <path class="cls-7" d="M86.03,183.04c-.11,0-.26,.21-.06,.4,.79,0,1.57-.04,2.34-.12-.75-.03-1.51-.1-2.28-.28Z"/>
              <path class="cls-8" d="M86.2,181.95c-1.49-.2-2.96,.09-4.16-.32-.63-.19-1.24-.5-1.75-.88-.21-.02-.41-.04-.61-.06-5.03-.43-10.02-1.55-14.59-3.57-2.31-.94-4.64-1.33-7.14-2.1-1.44-.57-2.39-1.45-3.66-2.3-3.16-2.2-6.82-2.42-10.66-2.96-1.05-.13-1.44,1.07-1.2,1.14,3.1,.41,5.99,1.6,8.79,2.92,2.81,1.32,5.59,2.82,8.66,3.94,4.75,1.77,9.2,3.34,13.71,4.96,.31-.02,.61-.04,.9-.06,2.64-.24,5.63,.99,8.65,1.13,.39,.04,1.13-.43,1.77-.36,1.94,.09,3.83-.12,5.7-.33-.38-.46-.69-.92-1.07-1.26-1.13,.18-2.27,.33-3.36,.13Z"/>
              <path class="cls-6" d="M86.2,181.95c1.09,.2,2.23,.05,3.36-.13-.19-.16-.39-.3-.63-.4-2.72-.72-5.78-.41-8.63-.68,.51,.38,1.11,.69,1.75,.88,1.2,.42,2.67,.12,4.16,.32Z"/>
              <path class="cls-4" d="M86.2,181.95c1.04,.2,2.13,.06,3.2-.1-.36-.07-.73-.12-1.1-.14-1.88-.1-3.78-.14-5.6-.62,1.98,.2,3.98,.34,5.98,.28-2.65-.63-5.63-.34-8.39-.61,.51,.38,1.11,.69,1.74,.87,1.2,.42,2.67,.12,4.16,.32Z"/>
              <path class="cls-3" d="M83.13,181.94c2.25,.36,4.54,.55,6.86,.3-.1-.12-.2-.23-.3-.33-.1-.02-.19-.04-.29-.06-1.08,.16-2.16,.3-3.2,.1-1.49-.2-2.96,.09-4.16-.32-.63-.19-1.23-.5-1.74-.87-.19-.02-.38-.04-.57-.06-2.57-.22-5.13-.61-7.62-1.22-2.26-.15-4.6-.95-6.72-1.99,1.04,.37,2.09,.71,3.17,.97-1.16-.38-2.3-.83-3.42-1.32-.98-.39-1.96-.7-2.96-.96-.31,.19-.71,.29-1.27,.14-.88-.24-1.67-.63-2.62-.77-.11-.06,0-.26-.22-.38,.63,.33,1.23,.42,1.79,.4-.61-.16-1.23-.33-1.86-.53-1.13-.45-1.96-1.09-2.88-1.75l-.34-.13c-.56-.23-1.17-.38-1.79-.5,.22,.12,.44,.23,.68,.36-.42-.04-.88-.28-1.22-.46,.18,.04,.37,.07,.54,.1-.53-.27-1.04-.53-1.61-.82,.69,.35,1.46,.57,2.11,.73-1.3-.59-2.52-1.04-3.74-1.79h.12c-1.98-.5-4.04-.7-6.18-1-1.05-.13-1.44,1.07-1.2,1.14,4.35,.58,8.2,2.64,12.14,4.55-.38-.37-.76-.74-1.13-1.1-.18-.13-.34-.28-.48-.44,.16,.15,.32,.29,.48,.44,.49,.36,1.09,.62,1.6,1.02,.07,.13,.41,.31,.65,.17,.71,.56,1.74,.83,2.46,1.38,.05,.02,.1,.12,.16,.24,.52,.21,1.04,.42,1.58,.61,3.01,1.09,5.77,2.1,8.65,3.14-.65-.35-1.27-.7-1.81-1.11-.71-.6-2.55-.88-4.04-1.36-.39-.09-.51-.4-.87-.55,1.5-.11,2.96,.94,4.47,1.33,1.96,.58,4.6,1.93,6.89,1.97,.94-.01,1.73,.46,2.41,.84-.3,.1-.8-.02-1.05-.09-2.25-.55-4.46-1.21-6.7-1.83,2.22,1.02,4.52,1.47,6.81,2.34-1.41-.27-2.67-.94-4.04-.94,.09,.09,.19,.17,.29,.24,.87,.31,1.75,.62,2.67,.95,.31-.02,.61-.04,.89-.06,2.64-.24,5.63,.99,8.65,1.13,.25,.03,.64-.15,1.05-.27-.96-.08-1.9-.29-2.87-.38,.38,.12,.73,.26,1.06,.47-.92-.04-1.61-.47-2.52-.55,.5-.01,.98,.03,1.46,.08-.56-.17-1.17-.31-1.76-.45,1.2-.1,2.21,.67,3.44,.38-.25-.02-.5-.06-.75-.11l.76,.11h-.02c.77,.05,1.55-.04,2.25-.14-1.33-.07-2.49-.49-3.77-.62-.21-.01-.43-.02-.64-.03,.22,0,.43,.02,.64,.03,2.96,.18,5.9,.7,8.88,.83l.28-.03-.25-.31c-2.45-.06-4.94-.34-7.28-.83Z"/>
            </g>
          </g>
        </g>
      </g>
    </g>
  </g>
</svg>