<?xml version="1.0" encoding="UTF-8"?>
<svg id="_Слой_2" data-name="Слой 2" xmlns="http://www.w3.org/2000/svg" xmlns:xlink="http://www.w3.org/1999/xlink" viewBox="0 0 444.29 248.43">
  <defs>
    <style>
      .cls-1 {
        fill: none;
      }

      .cls-2 {
        clip-path: url(#clippath);
      }

      .cls-3 {
        fill: #f3f9fb;
      }

      .cls-4 {
        fill: #f7fbfc;
      }

      .cls-5 {
        fill: #f8fcfd;
      }

      .cls-6 {
        fill: #f4fafb;
      }

      .cls-7 {
        fill: #f5fafb;
      }

      .cls-8 {
        fill: #fbfdfe;
      }

      .cls-9 {
        fill: #349039;
      }

      .cls-10 {
        fill: #6e7c6e;
      }

      .cls-11 {
        opacity: .49;
      }

      .cls-12 {
        opacity: .8;
      }
    </style>
    <clipPath id="clippath">
      <rect class="cls-1" width="444.29" height="248.43"/>
    </clipPath>
  </defs>
  <g id="_нижний_лотос" data-name="нижний лотос">
    <g class="cls-2">
      <g class="cls-11">
        <path class="cls-10" d="M252.97,72.29c-45.8-3.2-93-5.95-136.13,10.53-22.78,8.93-41.5,22.67-52.89,41.9-9.76,17.86-12.21,39.84,2.82,55.94l-.54-.59c9.62-.03,15.45-3.42,23.75-7.08,31.42-13.84,64.19-25.47,97.91-34.67,2.98-.74,1.63,1.75-1.15,3.02-29.54,14.56-55.24,25.96-82.1,44.51-4.07,2.75-5.98,9.08-6.87,13.49l.56-.67c14.46,4.6,29.75,6.71,45.01,8.33,20.26,2.16,40.65,3.47,61.07,3.94,20.12,.46,40.3,.21,60.36-1.22,19.73-1.4,39.39-4.02,58.47-8.55,16.64-3.95,33.4-9.43,46.52-19.22,12.4-9.25,20.44-22.25,22.69-36.07,2.18-13.43-1.47-27.09-10.05-38.53-8.88-11.85-22.24-20.25-37.9-24.73-15.63-4.47-32.49-5.95-48.75-8.07-10.82-1.41-21.61-2.02-32.55-2.22-4.39-.08-8.78-.13-13.17-.18"/>
        <path class="cls-10" d="M227.77,72.55c-7.45-.38-13.54-.68-19.62-.66-.95,0-2.01,.51-3.2,.49-2.37-.06-4.78,.03-7.15,.1-2.38,.08-4.74,0-7.02-.2-2.5-.24-5-.38-7.47-.32-2.46,.09-4.9,.32-7.26,.66-4.47,.77-8.9,.97-13.3,1.69-1.48,.23-2.92,.49-4.62,.13-1.23-.24-3.4,.06-4.87,1.07-.28,.2-.98,.15-1.47,.16-.54,0-1.21-.22-1.58-.05-2.04,1.01-4.2,1.52-6.4,1.92-2.21,.35-4.4,.84-6.52,1.48-1.05,.33-2.31,.29-3.02,1.27-.19,.23-1.2,.59-1.55,.5-.94-.22-1.8-.07-2.8,.24-2.18,.67-4.37,1.28-6.5,2.08-2.14,.77-4.3,1.47-6.41,2.3-.84,.89-1.87,1.46-2.97,1.93-1.09,.49-2.24,.89-3.32,1.36-1.63,.71-3.35,1.21-5.04,1.81-1.68,.68-3.09,2.1-5.01,2.19-.31,.01-.77,.59-1.2,.86-.96,.59-1.9,1.26-2.83,1.91-.93,.65-1.89,1.21-2.85,1.68-.99,.47-1.98,.95-2.88,1.56-5.73,4.06-11.03,8.71-15.74,13.89-2.29,2.65-4.54,5.33-6.48,8.24-1.04,1.42-1.9,2.91-2.84,4.37-.47,.73-.81,1.53-1.22,2.29-.39,.77-.8,1.53-1.13,2.34-.47,1.11-1.13,2.1-1.01,3.53,.07,1.1-.69,3.1-1.38,3.88-.58,.62-.92,1.31-1.17,2.01-.2,.72-.32,1.45-.52,2.16-.75,2.64-1.03,5.37-1.37,8.07-.1,.8,.02,1.66-.02,2.49-.04,.83-.19,1.62-.64,2.34-.09,.14-.07,.66,.04,.83,1,1.75,.49,3.49,.59,5.33,.1,.65,.22,1.29,.42,1.94,.21,.64,.43,1.29,.91,1.89,.44,.59,.85,1.41,1.13,2.26,.3,.84,.6,1.67,.61,2.36,0,1.88,1.09,3.13,1.83,4.55,.55,.89,1.17,1.73,1.75,2.6l.44,.65c.15,.21,.28,.34,.42,.51l.83,.99,.73,.87,.09,.11,.05,.05s-.03-.03-.04-.04l-.19-.21-.19-.21c.08,0,.19,0,.28,0,.75,0,1.52-.04,2.31-.11,1.78-.16,3.65-.47,5.43-.93,3.59-.92,7.04-2.46,10.51-4.06,4.22-1.97,8.1-4.61,12.57-6.12,1.06-.36,2.04-1.19,3.24-.92,.25,.05,1.04-.37,1.31-.67,.94-1.07,2.22-1.34,3.57-1.86,6.13-2.35,12.47-4.45,18.29-7.28,4.53-2.21,9.23-3.7,13.86-5.49,1.54-.59,3.28-.69,4.9-1.15,1.57-.44,3.13-1.01,4.67-1.58,.92-.33,1.91-.47,2.64-1.3,.39-.45,1.7-.97,2.32-.91,2.08,.2,3.92-.75,5.82-1.33,5.41-1.7,10.83-3.39,16.29-4.95,1.34-.37,2.72-1.21,4.17-.71,.2,.07,.89-.42,1.36-.65,.5-.24,1.08-.67,1.5-.65,1.93,.05,3.77-.34,5.6-.86,.5-.11,1.03-.32,1.92-.2,.11,.02,.28,.08,.42,.13l.21,.09c.08,.05,.17,.12,.26,.2,.17,.15,.31,.3,.4,.52,.09,.2,.17,.47,.16,.61,0,.16,0,.36-.03,.5-.03,.12-.06,.23-.1,.35-.08,.24-.17,.36-.26,.54-.75,1.13-1.63,1.74-2.58,2.26-8.27,3.96-16.34,8.02-24.57,11.89-2.3,1.08-3.96,2.73-6.18,3.78-2.15,1.01-4.24,2.17-6.39,3.17-1.52,.72-2.92,1.89-4.72,1.82-.5-.02-1.57,.55-1.9,.99-1.25,1.65-3.29,2.19-4.96,3.26-2.04,1.28-4.49,1.98-6.09,3.95-.43,.53-1.76,.7-2.62,1.14-1.5,.78-2.98,1.6-4.42,2.48-.69,.43-1.2,1.12-1.88,1.56-5.25,3.38-10.36,6.92-15.46,10.51l-1.96,1.36c-.38,.25-.49,.38-.74,.55-.2,.19-.42,.37-.61,.58-.8,.85-1.53,1.95-2.13,3.19l-.22,.47-.11,.24-.07,.15c-.09,.2-.18,.41-.24,.59-.15,.37-.27,.74-.39,1.12-.11,.38-.22,.76-.31,1.15l-.13,.58c-.06,.17,.04,.03,.1-.04,.07-.05,.11-.21,.21-.17,.76,.23,1.52,.46,2.28,.67l1.87,.49c.76,.2,1.52,.39,2.28,.57,3.05,.75,6.13,1.42,9.22,2.06,2.32,.48,4.96,.23,6.94,1.76,2.28-.38,4.11,.33,5.9,1.4,.26,.15,.99-.1,1.52-.13,1.64-.1,3.3-1.13,4.91,.4,.06,.06,.29,.02,.43,.06,1.45,.36,2.62-.86,4.41,.15,1.11,.63,3.03,.62,4.6,.82,1.62,.22,3.25,.42,4.87,.47,1.67,.04,3.43,.83,5.09-.03,.27-.14,1.43,.66,2.16,.68,3.74,.07,7.5,1.28,11.25,.36,.86-.21,2.18-.09,3.06,.2,3.16,1.07,6.21,.8,9.53,.66,4.37-.19,9.02-.15,13.24,1.25,.9,.3,1.29,.52,2.23,.1,.61-.27,1.66-.17,2.51-.15,9.5,.25,19,.37,28.5,.28,2.58-.02,5.01,.9,7.66,.48,1.09-.17,2.39,.29,3.27-.55,.12-.12,.58-.19,.78-.14,3.21,.85,6.33-.6,9.5-.34,.68,.05,1.33,.2,2.01,.27,.69,.07,1.5,.27,2.08,.1,4.79-1.4,9.83-.85,14.7-1.53,1.66-.24,3.53,.14,4.93-.99,.21-.17,.95-.22,1.28-.12,2.96,.91,6-.32,8.98-.36,1.53-.02,3.15-.86,4.63-.08,.19,.1,.79-.08,1.15-.19,.64-.2,1.23-.61,1.86-.68,1.75-.18,3.74,.07,5.22-.48,1.84-.68,3.65-.8,5.46-1.13,1.04-.19,2.15,.08,3.23-.02,1.02-.09,2.04-.35,3.06-.53,1.45-.29,2.93-.73,4.35-.8,1.47-.08,2.4-1.29,4.11-.97,1.31,.26,2.5-.96,3.81-1.38,.65-.21,1.39-.26,2.08-.31,.53-.05,1.09,.15,1.56,0,1.06-.31,2.14-.4,3.18-1.11,.72-.48,2.25-.33,3.41-.58,1.15-.23,2.27-.63,3.41-.95,1.13-.32,2.41-.52,3.36-1.05,4.16-2.37,8.83-3.41,13.1-5.4,1.1-.5,2.22-1.39,3.52-1.07,.23,.06,.87-.23,1.14-.46,3.45-3.04,7.91-4.51,11.38-7.4,2.46-2.06,4.56-4.35,6.91-6.51,2.29-2.09,4.6-4.39,6.03-7.05,1.2-2.17,2.18-4.37,3.52-6.33,.32-.49,.53-1.03,.7-1.58,.16-.56,.25-1.14,.39-1.69,.3-1.1,.6-2.16,1.73-2.94,.81-2.22,1.48-4.48,2.05-6.76,.24-.96,.34-1.96,.53-2.93,.13-.98,.44-1.92,.91-2.85,.18-.34,.3-.85,.34-1.38,.03-.53-.04-1.07-.17-1.46-.84-2.5-.69-4.81-.6-7.37,.05-.61-.52-1.28-.66-1.94-.41-2.03-1.02-4.02-1.53-6.02-.78-2.99-2.18-5.77-3.83-8.34-1.66-2.58-3.58-4.95-5.5-7.33-.7-.9-2.06-1.36-2.56-2.22-1.63-2.61-3.93-4.73-6.39-6.6-2.46-1.88-5.07-3.51-7.53-5.35-3.66-2.69-7.81-4.7-12.11-6.25-4.29-1.55-8.81-2.61-13.34-3.75-1.17-.31-2.28-1.26-2.89-1.18-1.89,.28-3.8-.65-5.37-.42-2.81,.39-5.36-.6-8.04-.77-1.95-.12-3.95-.99-5.87-.23-.28,.11-.94,0-1.28-.16-2.74-1.3-5.76-.27-8.56-1.05-2.78,.24-5.55-.02-8.33-.4-2.72-.38-5.39-.82-8.1-.96-.8-.04-1.59,.14-2.39,.2-.4,.04-.89,.15-1.21,.04-4.8-1.6-9.96-.95-14.94-1.44-1.65-.16-3.26-.54-4.92-.69-1.67-.16-3.42,.13-5-.65-.49-.24-1.47-.13-2.18-.05-3.89,.45-6.77-1.18-6.81-3.72-.01-.92,.79-.96,1.64-1.29,1.63-.64,3.24-1.04,5.22-.95,1.53,.07,3.21,.38,4.59-.48,.23-.14,.93-.1,1.3,.01,2.62,.83,5.61,.28,8.09,.92,1.9,.49,3.68,.46,5.49,.73,1.53,.22,3.15-.14,4.63,.77,.5,.3,2.06-.28,3.13-.22,2.53,.13,5.09,.32,7.59,.72,3.81,.62,7.59,.9,11.4,1.12,3.8,.23,7.61,.44,11.39,1.1,5.59-.4,11.1,1.43,16.61,1.91,3.34,.28,6.64,.9,9.9,1.7,3.25,.8,6.51,1.71,9.76,2.73,1.34,.41,2.38,.85,3.42,1.57,.67,.49,1.37,1.01,2.14,1.35,2.92,1.35,5.84,2.73,8.57,4.45,.72,.48,1.57,.84,2.33,1.31,.74,.49,1.4,1.08,1.72,1.95,.1,.23,.73,.67,1.08,.77,2.94,.77,4.92,3.3,7.16,5.22,.86,.74,1.62,1.53,2.17,2.7,.63,1.23,2,2.76,3.18,3.6,.87,.65,1.49,1.35,2.13,2.14,.68,.8,1.31,1.65,1.85,2.58l.81,1.37,.75,1.41c1.03,1.87,1.98,3.73,3.42,5.35-.19,2.45,1.1,4.77,1.93,6.83,1.68,3.92,2.46,8.21,2.54,12.49,.09,4.29-.43,8.57-1.27,12.74-.42,2.02-1.43,3.89-2.2,5.8-.4,1.01-.78,2.02-1.21,3.02-.39,1.02-.83,2.01-1.28,3-.45,1.08-1.45,2.05-1.14,3.26,.02,.09-.03,.29-.11,.39-.77,1-1.63,1.95-2.27,2.97-.55,.94-.64,2.1-1.2,3.08-.62,1.2-1.51,2.3-2.36,3.38-.85,1.02-1.65,2.23-2.93,2.5-.06,1.37-1.45,2.18-2.37,3.11-.85,.92-1.85,1.7-2.81,2.52-1.08,.92-2.21,1.77-3.33,2.62-1.15,.81-2.32,1.6-3.45,2.41-1.51,1.17-2.96,2.4-4.57,3.44-1.7,1.08-3.52,2.02-5.35,2.83-2.32,.98-4.69,1.75-7.06,2.53-.98,.32-1.7,.88-2.53,1.52-1.08,.87-2.37,2.36-4.41,1.75-.4-.11-1.52,.34-2.11,.7-4.65,2.88-10.24,3.34-15.29,4.95-3.07-.22-5.69,.98-8.6,1.88-4.27,1.32-8.9,2.36-13.3,2.55-4.65,.2-9.06,1.21-13.59,1.59-1.27,.1-2.6,.63-3.78-.08-.27-.16-1.22,0-1.73,.2-3.55,1.33-7.15,1.44-10.94,1.22-2-.12-4.19,.43-6.34,.93-3.24,.74-6.84,.63-10.28,.82-1.55-.96-2.65,.16-3.39,.66-.99,.66-1.94,.81-3.16,.88-1.56,.1-3.11-.04-4.63,.71-.78,.38-2.55,.35-3.41,.02-1.16-.45-1.58-.21-2.61,.14-1.22,.42-2.53-.52-4.08-.44-1.65,.09-3.58,.65-5.06-.43-.13-.1-.64-.08-.87,.01-3.06,1.15-6.12-.45-9.16,.04-9.11-1.25-18.34-.37-27.47-1.14-3.76-.32-7.53-1.29-11.26-.99-7.85,.64-15.63-.63-23.43-1.08-1.65-.09-3.6,.22-4.98-.97-.19-.16-.95-.22-1.29-.12-2.56,.75-4.93,.21-7.34-.7-.58-.22-1.71-.32-2.1-.1-1.11,.62-2.28,.19-3.38,.06-1.33-.17-3.03-1.01-3.86-.74-1.8,.58-2.65-.41-3.92-.72-.79-.19-1.7-.1-2.54-.1-.4,0-.94,.26-1.16,.15-2.49-1.26-5.26-.35-7.8-1.15-.54-.17-1.14-.25-1.66-.45-2.96-1.13-4.42-1.72-6.13-2.15-1.7-.44-3.65-.67-7.55-1.33-.44-.44-.95-.71-1.51-.88-.28-.08-.56-.14-.86-.19l-.45-.06c-.18-.02-.42-.07-.63-.11-1.74-.29-3.71-.67-5.06-1.51-.46-.31-1.27-.59-2.2-.83l-.18-.04c-.06-.02-.13-.04-.13,.01l-.12,.2c-.09,.14-.17,.28-.26,.42-.02,.03-.05,.08-.06,.09v-.15c.02-.1,.03-.19,.04-.29,.01-.19,.02-.36,.02-.53,.03-1.45,.21-3.08,.57-4.78,.36-1.69,.97-3.53,1.68-5.1,1.14-2.41,2.68-4.8,5.01-6.94,.25-.21,.52-.37,.8-.5,.27-.12,.46-.15,.7-.24,.45-.16,.88-.4,1.2-1.04,.24-.48,1.99-.74,2.85-1.36,1.26-.9,2.89-1.37,3.71-2.92,.34-.63,1.65-1.16,2.49-1.76,1.15-.83,2.51-1.3,3.36-2.65,.45-.75,2.01-1.67,2.94-1.84,3.84-.7,6.11-3.44,8.84-5.54,.82-.63,1.38-1.09,2.42-1.43,1.45-.48,3.4-1.08,4.22-1.99,1.46-1.63,3.34-2.28,5.09-3.25,3.02-1.68,6.16-3.13,9.19-4.77,3.45-1.87,7.11-3.28,10.37-5.65,1.75-1.27,4.12-2.82,6.7-2.79,.28,0,.85-.98,1.41-1.26,4.41-2.2,8.78-4.35,13.27-6.45,1.04-.49,2.65-.01,3.2-1.3,.12-.6,.32-.45,.61-.39,.12,.04,.24,.07,.26,.05h0s-.03-.03,.07,.07c.14,.14,.29,.28,.44,.4,.31,.24,.6,.53,.93,.75,.1,.06,.34,.22,.68,.45,.16,.1,.41,.19,.59,.29,.16,.1,.41,.15,.6,.19,.06,.02,.14,.04,.22,.03,.04,0,.08,0,.12-.02,0,0,.02,0,.03,0,.01,0,.06-.02,.06-.02-.04,.02-.06,.05-.08,.08-.14,.16-.23,.59-.29,1.07-.01,.15,0,.3,0,.44,0,.16-.01,.39,0,.58,0,.4,.05,.8,.14,1.19,.04,.19,.06,.47,.11,.7l.07,.36,.03,.16h0s0-.04,.01-.06c-.35,.04-.71,.08-1.07,.13-.71,.1-1.42,.23-2.12,.38-1.41,.31-2.79,.67-4.19,1.1-2.78,.85-5.54,1.8-8.36,2.49-1.35,.33-2.73,1.22-4.07,.61-3.05,2.06-7.46,1.11-10.21,3.82-2.5,.49-4.78,2.22-7.46,1.87-.43-.05-1.17,.49-1.65,.48-1.64-.05-1.98,1.93-4.05,1.66-1.19-.15-2.99,.81-4.51,1.31-1.41,.46-2.8,.97-4.19,1.48l-4.6,1.66c-1.53,.57-3.09,1.07-4.58,1.71-3.01,1.32-5.76,3.11-8.99,4.07-.35,.1-.88,.45-.94,.67-.5,1.82-2.37,1.63-3.58,1.66-1.02,.01-1.83,.15-2.79,.55-2.61,1.05-5.18,2.2-7.81,3.18-1.56,.59-3,1.74-4.83,1.48-.57-.08-1.78,.5-2.38,1-1.42,1.16-3.02,1.96-4.67,2.68-1.63,.71-3.29,1.35-4.93,2.17-1.47,.74-3.06,1.41-4.69,2.04-1.22,.48-2.31,1.55-3.82,1.4-2.26,1.2-4.84,1.97-7.46,2.32l-.98,.13-1.49,.09-1.54,.08c-.08,.04-.1-.08-.13-.15l-.1-.22-.21-.45-.41-.89-.82-1.78c-.15-.17,.07-.23,.16-.34l.34-.28,.69-.56-3.95,3.36-2.77-3.33-1.51-2.15c-2.05-2.78-3.58-5.94-4.88-9.16-1.11-3.29-2.04-6.66-2.37-10.07-.27-1.69-.79-3.6,.15-5.14,.09-.15,.11-.52,.1-.9,0-.38-.03-.77-.13-.95-.51-.99-.77-1.77,0-2.82,.13-.2,.09-1.11,0-1.62-.24-1.4-.11-2.65,.55-3.97,.49-1.03,.87-2.46,.96-3.53,.1-2.91,.44-5.73,2.43-8.04,.24-.28-.04-1.42,.22-2.01,1.05-2.22,1.58-4.74,3.48-6.58,.38-.37,.67-.92,.98-1.5,.34-.56,.66-1.15,1.03-1.66,1.24-1.76,1.95-3.69,3.48-5.33,1.61-1.59,2.87-3.7,4.44-5.47,1.5-1.81,3.15-3.5,4.78-5.19l2.53-2.45c.86-.8,1.75-1.56,2.62-2.34,.86-.79,1.78-1.51,2.69-2.25,.91-.74,1.81-1.48,2.76-2.17,.94-.69,1.86-1.41,2.82-2.08l2.88-1.97c.96-.66,1.96-1.25,2.94-1.88,.98-.63,1.98-1.23,2.99-1.79,1.41-.81,2.77-1.46,4.4-1.85,4.14-1.07,8.51-3.34,13.92-6.38,.39-.22,.85-.36,1.28-.52,2.81-1.01,5.62-2.01,8.42-3.02,2.85-.85,5.7-1.71,8.57-2.38,2.55-.51,5.17-.69,7.73-1.4,1.68-.43,3.36-.58,4.92-1.55,1.32-.78,3.45-.35,4.94-1.52,.55-.44,2.16-.68,3.01-.53,1.41,.25,2.8,.14,4.17-.07,1.38-.19,2.75-.44,4.13-.58,1.58-.15,3.16-.32,4.74-.51l4.74-.48c1.55-.16,3.12,0,4.66-.88,.75-.42,2.65-.27,3.81,0,1.79,.41,3.54,.19,5.19-.07,3.54-.56,3.52-.65,7.04-.17,.42,.06,.87,.04,1.31,.05,4.37-.02,8.82,.29,13.06-.09,3.54-.38,6.99-.28,10.48-.19,1.39,.03,3.02-.36,4.14,.7,.16,.15,.95,.17,1.29,.06,2.96-.96,6.08-.24,9.09-.08,2.92,.14,5.66-.59,8.64-.17,2.79,.38,5.66,.4,8.49,.6,4.3,.3,5.18,.96,4.97,3.69-.17,2.25-1.29,2.66-4.76,2.9-7.36,.49-14.64-.7-20.58-.73Z"/>
      </g>
      <g>
        <path class="cls-9" d="M252.97,29.06c-45.8-3.2-93-5.95-136.13,10.53-22.78,8.93-41.5,22.67-52.89,41.9-9.76,17.86-12.21,39.84,2.82,55.94l-.54-.59c9.62-.03,15.45-3.42,23.75-7.08,31.42-13.84,64.19-25.47,97.91-34.67,2.98-.74,1.63,1.75-1.15,3.02-29.54,14.56-55.24,25.96-82.1,44.51-4.07,2.75-5.98,9.08-6.87,13.49l.56-.67c14.46,4.6,29.75,6.71,45.01,8.33,20.26,2.16,40.65,3.47,61.07,3.94,20.12,.46,40.3,.21,60.36-1.22,19.73-1.4,39.39-4.02,58.47-8.55,16.64-3.95,33.4-9.43,46.52-19.22,12.4-9.25,20.44-22.25,22.69-36.07s-1.47-27.09-10.05-38.53c-8.88-11.85-22.24-20.25-37.9-24.73-15.63-4.47-32.49-5.95-48.75-8.07-10.82-1.41-21.61-2.02-32.55-2.22-4.39-.08-8.78-.13-13.17-.18"/>
        <path class="cls-9" d="M227.77,29.32c-7.45-.38-13.54-.68-19.62-.66-.95,0-2.01,.51-3.2,.49-2.37-.06-4.78,.03-7.15,.1-2.38,.08-4.74,0-7.02-.2-2.5-.24-5-.38-7.47-.32-2.46,.09-4.9,.32-7.26,.66-4.47,.77-8.9,.97-13.3,1.69-1.48,.23-2.92,.49-4.62,.13-1.23-.24-3.4,.06-4.87,1.07-.28,.2-.98,.15-1.47,.16-.54,0-1.21-.22-1.58-.05-2.04,1.01-4.2,1.52-6.4,1.92-2.21,.35-4.4,.84-6.52,1.48-1.05,.33-2.31,.29-3.02,1.27-.19,.23-1.2,.59-1.55,.5-.94-.23-1.8-.07-2.8,.24-2.18,.67-4.37,1.28-6.5,2.08-2.14,.77-4.3,1.47-6.41,2.3-.84,.89-1.87,1.46-2.97,1.93-1.09,.49-2.24,.89-3.32,1.36-1.63,.71-3.35,1.21-5.04,1.81-1.68,.68-3.09,2.1-5.01,2.19-.31,.01-.77,.59-1.2,.86-.96,.59-1.9,1.26-2.83,1.91-.93,.65-1.89,1.21-2.85,1.68-.99,.47-1.98,.95-2.88,1.56-5.73,4.06-11.03,8.71-15.74,13.89-2.29,2.65-4.54,5.33-6.48,8.24-1.04,1.42-1.9,2.91-2.84,4.37-.47,.73-.81,1.53-1.22,2.29-.39,.77-.8,1.53-1.13,2.34-.47,1.11-1.13,2.1-1.01,3.53,.07,1.1-.69,3.1-1.38,3.88-.58,.62-.92,1.31-1.17,2.01-.2,.72-.32,1.45-.52,2.16-.75,2.64-1.03,5.37-1.37,8.07-.1,.8,.02,1.66-.02,2.49-.04,.83-.19,1.62-.64,2.34-.09,.14-.07,.66,.04,.83,1,1.75,.49,3.49,.59,5.33,.1,.65,.22,1.29,.42,1.94,.21,.64,.43,1.29,.91,1.89,.44,.59,.85,1.41,1.13,2.26,.3,.84,.6,1.67,.61,2.36,0,1.88,1.09,3.13,1.83,4.55,.55,.89,1.17,1.73,1.75,2.6l.44,.65c.15,.21,.28,.34,.42,.51l.83,.99,.73,.87,.09,.11,.05,.05s-.03-.03-.04-.04l-.19-.21-.19-.21c.08,0,.19,0,.28,0,.75,0,1.52-.04,2.31-.11,1.78-.16,3.65-.47,5.43-.93,3.59-.92,7.04-2.46,10.51-4.06,4.22-1.97,8.1-4.61,12.57-6.12,1.06-.36,2.04-1.19,3.24-.92,.25,.05,1.04-.37,1.31-.67,.94-1.07,2.22-1.34,3.57-1.86,6.13-2.35,12.47-4.45,18.29-7.28,4.53-2.21,9.23-3.7,13.86-5.49,1.54-.59,3.28-.69,4.9-1.15,1.57-.44,3.13-1.01,4.67-1.58,.92-.33,1.91-.47,2.64-1.3,.39-.45,1.7-.97,2.32-.91,2.08,.2,3.92-.75,5.82-1.33,5.41-1.7,10.83-3.39,16.29-4.95,1.34-.37,2.72-1.21,4.17-.71,.2,.07,.89-.42,1.36-.65,.5-.24,1.08-.67,1.5-.65,1.93,.05,3.77-.34,5.6-.86,.5-.11,1.03-.32,1.92-.2,.11,.02,.28,.08,.42,.13l.21,.09c.08,.05,.17,.12,.26,.2,.17,.15,.31,.3,.4,.52,.09,.2,.17,.47,.16,.61,0,.16,0,.36-.03,.5-.03,.12-.06,.23-.1,.35-.08,.24-.17,.36-.26,.54-.75,1.13-1.63,1.74-2.58,2.26-8.27,3.96-16.34,8.02-24.57,11.89-2.3,1.08-3.96,2.73-6.18,3.78-2.15,1.01-4.24,2.17-6.39,3.17-1.52,.72-2.92,1.89-4.72,1.82-.5-.02-1.57,.55-1.9,.99-1.25,1.65-3.29,2.19-4.96,3.26-2.04,1.28-4.49,1.98-6.09,3.95-.43,.53-1.76,.7-2.62,1.14-1.5,.78-2.98,1.6-4.42,2.48-.69,.43-1.2,1.12-1.88,1.56-5.25,3.38-10.36,6.92-15.46,10.51l-1.96,1.36c-.38,.25-.49,.38-.74,.55-.2,.19-.42,.37-.61,.58-.8,.85-1.53,1.95-2.13,3.19l-.22,.47-.11,.24-.07,.15c-.09,.2-.18,.41-.24,.59-.15,.37-.27,.74-.39,1.12-.11,.38-.22,.76-.31,1.15l-.13,.58c-.06,.17,.04,.03,.1-.04,.07-.05,.11-.21,.21-.17,.76,.23,1.52,.46,2.28,.67l1.87,.49c.76,.2,1.52,.39,2.28,.57,3.05,.75,6.13,1.42,9.22,2.06,2.32,.48,4.96,.23,6.94,1.76,2.28-.38,4.11,.33,5.9,1.4,.26,.15,.99-.1,1.52-.13,1.64-.1,3.3-1.13,4.91,.4,.06,.06,.29,.02,.43,.06,1.45,.36,2.62-.86,4.41,.15,1.11,.63,3.03,.62,4.6,.82,1.62,.22,3.25,.42,4.87,.47,1.67,.04,3.43,.83,5.09-.03,.27-.14,1.43,.66,2.16,.68,3.74,.07,7.5,1.28,11.25,.36,.86-.21,2.18-.09,3.06,.2,3.16,1.07,6.21,.8,9.53,.66,4.37-.19,9.02-.15,13.24,1.25,.9,.3,1.29,.52,2.23,.1,.61-.27,1.66-.17,2.51-.15,9.5,.25,19,.37,28.5,.28,2.58-.02,5.01,.9,7.66,.48,1.09-.17,2.39,.29,3.27-.55,.12-.12,.58-.19,.78-.14,3.21,.85,6.33-.6,9.5-.34,.68,.05,1.33,.2,2.01,.27,.69,.07,1.5,.27,2.08,.1,4.79-1.4,9.83-.85,14.7-1.53,1.66-.24,3.53,.14,4.93-.99,.21-.17,.95-.22,1.28-.12,2.96,.91,6-.32,8.98-.36,1.53-.02,3.15-.86,4.63-.08,.19,.1,.79-.08,1.15-.19,.64-.2,1.23-.61,1.86-.68,1.75-.18,3.74,.07,5.22-.48,1.84-.68,3.65-.8,5.46-1.13,1.04-.19,2.15,.08,3.23-.02,1.02-.09,2.04-.35,3.06-.53,1.45-.29,2.93-.73,4.35-.8,1.47-.08,2.4-1.29,4.11-.97,1.31,.26,2.5-.96,3.81-1.38,.65-.21,1.39-.26,2.08-.31,.53-.05,1.09,.15,1.56,0,1.06-.31,2.14-.4,3.18-1.11,.72-.48,2.25-.33,3.41-.58,1.15-.23,2.27-.63,3.41-.95,1.13-.32,2.41-.52,3.36-1.05,4.16-2.37,8.83-3.41,13.1-5.4,1.1-.5,2.22-1.39,3.52-1.07,.23,.06,.87-.23,1.14-.46,3.45-3.04,7.91-4.51,11.38-7.4,2.46-2.06,4.56-4.35,6.91-6.51,2.29-2.09,4.6-4.39,6.03-7.05,1.2-2.17,2.18-4.37,3.52-6.33,.32-.49,.53-1.03,.7-1.58,.16-.56,.25-1.14,.39-1.69,.3-1.1,.6-2.16,1.73-2.94,.81-2.22,1.48-4.48,2.05-6.76,.24-.96,.34-1.96,.53-2.93,.13-.98,.44-1.92,.91-2.85,.18-.34,.3-.85,.34-1.38,.03-.53-.04-1.07-.17-1.46-.84-2.5-.69-4.81-.6-7.37,.05-.61-.52-1.28-.66-1.94-.41-2.03-1.02-4.02-1.53-6.02-.78-2.99-2.18-5.77-3.83-8.34-1.66-2.58-3.58-4.95-5.5-7.33-.7-.9-2.06-1.36-2.56-2.22-1.63-2.61-3.93-4.73-6.39-6.6-2.46-1.88-5.07-3.51-7.53-5.35-3.66-2.69-7.81-4.7-12.11-6.25-4.29-1.55-8.81-2.61-13.34-3.75-1.17-.31-2.28-1.26-2.89-1.18-1.89,.28-3.8-.65-5.37-.42-2.81,.39-5.36-.6-8.04-.77-1.95-.12-3.95-.99-5.87-.23-.28,.11-.94,0-1.28-.16-2.74-1.3-5.76-.27-8.56-1.05-2.78,.24-5.55-.02-8.33-.4-2.72-.38-5.39-.82-8.1-.96-.8-.04-1.59,.14-2.39,.2-.4,.04-.89,.15-1.21,.04-4.8-1.6-9.96-.95-14.94-1.44-1.65-.16-3.26-.54-4.92-.69-1.67-.16-3.42,.13-5-.65-.49-.24-1.47-.13-2.18-.05-3.89,.45-6.77-1.18-6.81-3.72-.01-.92,.79-.96,1.64-1.29,1.63-.64,3.24-1.04,5.22-.95,1.53,.07,3.21,.38,4.59-.48,.23-.14,.93-.1,1.3,.01,2.62,.83,5.61,.28,8.09,.92,1.9,.49,3.68,.46,5.49,.73,1.53,.22,3.15-.14,4.63,.77,.5,.3,2.06-.28,3.13-.22,2.53,.13,5.09,.32,7.59,.72,3.81,.62,7.59,.9,11.4,1.12,3.8,.23,7.61,.44,11.39,1.1,5.59-.4,11.1,1.43,16.61,1.91,3.34,.28,6.64,.9,9.9,1.7,3.25,.8,6.51,1.71,9.76,2.73,1.34,.41,2.38,.85,3.42,1.57,.67,.49,1.37,1.01,2.14,1.35,2.92,1.35,5.84,2.73,8.57,4.45,.72,.48,1.57,.84,2.33,1.31,.74,.49,1.4,1.08,1.72,1.95,.1,.23,.73,.67,1.08,.77,2.94,.77,4.92,3.3,7.16,5.22,.86,.74,1.62,1.53,2.17,2.7,.63,1.23,2,2.76,3.18,3.6,.87,.65,1.49,1.35,2.13,2.14,.68,.8,1.31,1.65,1.85,2.58l.81,1.37,.75,1.41c1.03,1.87,1.98,3.73,3.42,5.35-.19,2.45,1.1,4.77,1.93,6.83,1.68,3.92,2.46,8.21,2.54,12.49,.09,4.29-.43,8.57-1.27,12.74-.42,2.02-1.43,3.89-2.2,5.8-.4,1.01-.78,2.02-1.21,3.02-.39,1.02-.83,2.01-1.28,3-.45,1.08-1.45,2.05-1.14,3.26,.02,.09-.03,.29-.11,.39-.77,1-1.63,1.95-2.27,2.97-.55,.94-.64,2.1-1.2,3.08-.62,1.2-1.51,2.3-2.36,3.38-.85,1.02-1.65,2.23-2.93,2.5-.06,1.37-1.45,2.18-2.37,3.11-.85,.92-1.85,1.7-2.81,2.52-1.08,.92-2.21,1.77-3.33,2.62-1.15,.81-2.32,1.6-3.45,2.41-1.51,1.17-2.96,2.4-4.57,3.44-1.7,1.08-3.52,2.02-5.35,2.83-2.32,.98-4.69,1.75-7.06,2.53-.98,.32-1.7,.88-2.53,1.52-1.08,.87-2.37,2.36-4.41,1.75-.4-.11-1.52,.34-2.11,.7-4.65,2.88-10.24,3.34-15.29,4.95-3.07-.22-5.69,.98-8.6,1.88-4.27,1.32-8.9,2.36-13.3,2.55-4.65,.2-9.06,1.21-13.59,1.59-1.27,.1-2.6,.63-3.78-.08-.27-.16-1.22,0-1.73,.2-3.55,1.33-7.15,1.44-10.94,1.22-2-.12-4.19,.43-6.34,.93-3.24,.74-6.84,.63-10.28,.82-1.55-.96-2.65,.16-3.39,.66-.99,.66-1.94,.81-3.16,.88-1.56,.1-3.11-.04-4.63,.71-.78,.38-2.55,.35-3.41,.02-1.16-.45-1.58-.21-2.61,.14-1.22,.42-2.53-.52-4.08-.44-1.65,.09-3.58,.65-5.06-.43-.13-.1-.64-.08-.87,.01-3.06,1.15-6.12-.45-9.16,.04-9.11-1.25-18.34-.37-27.47-1.14-3.76-.32-7.53-1.29-11.26-.99-7.85,.64-15.63-.63-23.43-1.08-1.65-.09-3.6,.22-4.98-.97-.19-.16-.95-.22-1.29-.12-2.56,.75-4.93,.21-7.34-.7-.58-.22-1.71-.32-2.1-.1-1.11,.62-2.28,.19-3.38,.06-1.33-.17-3.03-1.01-3.86-.74-1.8,.58-2.65-.41-3.92-.72-.79-.19-1.7-.1-2.54-.1-.4,0-.94,.26-1.16,.15-2.49-1.26-5.26-.35-7.8-1.15-.54-.17-1.14-.25-1.66-.45-2.96-1.13-4.42-1.72-6.13-2.15-1.7-.44-3.65-.67-7.55-1.33-.44-.44-.95-.71-1.51-.88-.28-.08-.56-.14-.86-.19l-.45-.06c-.18-.02-.42-.07-.63-.11-1.74-.29-3.71-.67-5.06-1.51-.46-.31-1.27-.59-2.2-.83l-.18-.04c-.06-.02-.13-.04-.13,.01l-.12,.2c-.09,.14-.17,.28-.26,.42-.02,.03-.05,.08-.06,.09v-.15c.02-.1,.03-.19,.04-.29,.01-.19,.02-.36,.02-.53,.03-1.45,.21-3.08,.57-4.78,.36-1.69,.97-3.53,1.68-5.1,1.14-2.41,2.68-4.8,5.01-6.94,.25-.21,.52-.37,.8-.5,.27-.12,.46-.15,.7-.24,.45-.16,.88-.4,1.2-1.04,.24-.48,1.99-.74,2.85-1.36,1.26-.9,2.89-1.37,3.71-2.92,.34-.63,1.65-1.16,2.49-1.76,1.15-.83,2.51-1.3,3.36-2.65,.45-.75,2.01-1.67,2.94-1.84,3.84-.7,6.11-3.44,8.84-5.54,.82-.63,1.38-1.09,2.42-1.43,1.45-.48,3.4-1.08,4.22-1.99,1.46-1.63,3.34-2.28,5.09-3.25,3.02-1.68,6.16-3.13,9.19-4.77,3.45-1.87,7.11-3.28,10.37-5.65,1.75-1.27,4.12-2.82,6.7-2.79,.28,0,.85-.98,1.41-1.26,4.41-2.2,8.78-4.35,13.27-6.45,1.04-.49,2.65-.01,3.2-1.3,.12-.6,.32-.45,.61-.39,.12,.04,.24,.07,.26,.05h0s-.03-.03,.07,.07c.14,.14,.29,.28,.44,.4,.31,.24,.6,.53,.93,.75,.1,.06,.34,.22,.68,.45,.16,.1,.41,.19,.59,.29,.16,.1,.41,.15,.6,.19,.06,.02,.14,.04,.22,.03,.04,0,.08,0,.12-.02,0,0,.02,0,.03,0,.01,0,.06-.02,.06-.02-.04,.02-.06,.05-.08,.08-.14,.16-.23,.59-.29,1.07-.01,.15,0,.3,0,.44,0,.16-.01,.39,0,.58,0,.4,.05,.8,.14,1.19,.04,.19,.06,.47,.11,.7l.07,.36,.03,.16h0s0-.04,.01-.06c-.35,.04-.71,.08-1.07,.13-.71,.1-1.42,.23-2.12,.38-1.41,.31-2.79,.67-4.19,1.1-2.78,.85-5.54,1.8-8.36,2.49-1.35,.33-2.73,1.22-4.07,.61-3.05,2.06-7.46,1.11-10.21,3.82-2.5,.49-4.78,2.22-7.46,1.87-.43-.05-1.17,.49-1.65,.48-1.64-.05-1.98,1.93-4.05,1.66-1.19-.15-2.99,.81-4.51,1.31-1.41,.46-2.8,.97-4.19,1.48l-4.6,1.66c-1.53,.57-3.09,1.07-4.58,1.71-3.01,1.32-5.76,3.11-8.99,4.07-.35,.1-.88,.45-.94,.67-.5,1.82-2.37,1.63-3.58,1.66-1.02,.01-1.83,.15-2.79,.55-2.61,1.05-5.18,2.2-7.81,3.18-1.56,.59-3,1.74-4.83,1.48-.57-.08-1.78,.5-2.38,1-1.42,1.16-3.02,1.96-4.67,2.68-1.63,.71-3.29,1.35-4.93,2.17-1.47,.74-3.06,1.41-4.69,2.04-1.22,.48-2.31,1.55-3.82,1.4-2.26,1.2-4.84,1.97-7.46,2.32l-.98,.13-1.49,.09-1.54,.08c-.08,.04-.1-.08-.13-.15l-.1-.22-.21-.45-.41-.89-.82-1.78c-.15-.17,.07-.23,.16-.34l.34-.28,.69-.56-3.95,3.36-2.77-3.33-1.51-2.15c-2.05-2.78-3.58-5.94-4.88-9.16-1.11-3.29-2.04-6.66-2.37-10.07-.27-1.69-.79-3.6,.15-5.14,.09-.15,.11-.52,.1-.9,0-.38-.03-.77-.13-.95-.51-.99-.77-1.77,0-2.82,.13-.2,.09-1.11,0-1.62-.24-1.4-.11-2.65,.55-3.97,.49-1.03,.87-2.46,.96-3.53,.1-2.91,.44-5.73,2.43-8.04,.24-.28-.04-1.42,.22-2.01,1.05-2.22,1.58-4.74,3.48-6.58,.38-.37,.67-.92,.98-1.5,.34-.56,.66-1.15,1.03-1.66,1.24-1.76,1.95-3.69,3.48-5.33,1.61-1.59,2.87-3.7,4.44-5.47,1.5-1.81,3.15-3.5,4.78-5.19l2.53-2.45c.86-.8,1.75-1.56,2.62-2.34,.86-.79,1.78-1.51,2.69-2.25,.91-.74,1.81-1.48,2.76-2.17,.94-.69,1.86-1.41,2.82-2.08l2.88-1.97c.96-.66,1.96-1.25,2.94-1.88,.98-.63,1.98-1.23,2.99-1.79,1.41-.81,2.77-1.46,4.4-1.85,4.14-1.07,8.51-3.34,13.92-6.38,.39-.22,.85-.36,1.28-.52,2.81-1.01,5.62-2.01,8.42-3.02,2.85-.85,5.7-1.71,8.57-2.38,2.55-.51,5.17-.69,7.73-1.4,1.68-.43,3.36-.58,4.92-1.55,1.32-.78,3.45-.35,4.94-1.52,.55-.44,2.16-.68,3.01-.53,1.41,.25,2.8,.14,4.17-.07,1.38-.19,2.75-.44,4.13-.58,1.58-.15,3.16-.32,4.74-.51l4.74-.48c1.55-.16,3.12,0,4.66-.88,.75-.42,2.65-.27,3.81,0,1.79,.41,3.54,.19,5.19-.07,3.54-.56,3.52-.65,7.04-.17,.42,.06,.87,.04,1.31,.05,4.37-.02,8.82,.29,13.06-.09,3.54-.38,6.99-.28,10.48-.19,1.39,.03,3.02-.36,4.14,.7,.16,.15,.95,.17,1.29,.06,2.96-.96,6.08-.24,9.09-.08,2.92,.14,5.66-.59,8.64-.17,2.79,.38,5.66,.4,8.49,.6,4.3,.3,5.18,.96,4.97,3.69-.17,2.25-1.29,2.66-4.76,2.9-7.36,.49-14.64-.7-20.58-.73Z"/>
      </g>
      <g class="cls-12">
        <g class="cls-12">
          <path class="cls-5" d="M90.89,40.94c-1.55,1.24-3.69,1.86-4.59,3.49-.11,.17-.21,.35-.31,.53l.27-.13c2.03-.95,4.04-2.23,5.77-3.67,1-.99,1.84-2.25,3.16-3.04,.15-.09-.01-.36-.09-.5-.24-.08-.47-.18-.7-.3-.94,.85-1.8,1.8-2.85,2.55-.36,.23-.44,.93-.66,1.06Z"/>
          <polygon class="cls-7" points="94.47 37.32 94.43 37.3 94.28 37.43 94.47 37.32"/>
          <path class="cls-4" d="M92.21,39.47c-.29,.32-.62,.57-.96,.79-.13,.28-.22,.59-.35,.67-1.55,1.24-3.69,1.86-4.59,3.49-.11,.17-.21,.35-.31,.53,.1-.05,.19-.09,.29-.14,.7-.33,1.41-.7,2.09-1.1l.07-.11c.23-.43,.72-.46,1.08-.69,.88-.84,1.84-1.25,2.73-2.09,.32-.29,.48-.85,.92-1.12,.14-.11,.28-.19,.43-.27,.47-.5,.99-.97,1.6-1.34,.15-.09-.01-.36-.09-.5-.13-.04-.25-.09-.37-.15-.51,.28-.99,.62-1.49,.94-.38,.36-.76,.72-1.17,1.05,.03,.01,.07,.02,.11,.02Z"/>
          <path class="cls-7" d="M91.89,39.11c-.06,.04,0,.28,.2,.34,.41-.33,.79-.69,1.17-1.05-.42,.27-.86,.52-1.37,.71Z"/>
          <path class="cls-8" d="M91.33,38.16c-.92,.47-1.48,1.38-2.33,1.64-.44,.15-.92,.22-1.41,.2-.11,.09-.22,.17-.33,.26-2.67,2.26-5.37,4.42-8.31,6.24-1.43,.98-2.35,2.39-3.49,3.77-.75,.73-1.64,.97-2.56,1.45-2.38,1.13-3.21,3.58-4.89,5.59-.46,.54,.3,1.55,.44,1.45,2.94-3.23,6.45-5.4,9.6-8.37,2.47-2.28,5.09-4.07,7.97-5.43,.1-.18,.21-.36,.31-.53,.9-1.62,3.04-2.24,4.59-3.49,.22-.14,.29-.83,.66-1.06,1.05-.76,1.91-1.7,2.85-2.55-.47-.24-.91-.5-1.31-.64-.53,.59-1.07,1.17-1.76,1.48Z"/>
          <path class="cls-6" d="M91.33,38.16c.7-.31,1.23-.89,1.76-1.48-.2-.06-.4-.1-.58-.08-1.95,.5-3.4,2.15-4.93,3.39,.49,.02,.98-.04,1.41-.2,.86-.25,1.41-1.17,2.33-1.64Z"/>
          <path class="cls-4" d="M91.33,38.16c.66-.3,1.18-.84,1.69-1.4-.24,.08-.48,.19-.69,.32-1.1,.68-2.12,1.49-3.34,1.98,1.13-.79,2.26-1.57,3.36-2.42-1.86,.56-3.27,2.16-4.75,3.35,.49,.02,.97-.04,1.41-.2,.86-.25,1.41-1.17,2.33-1.64Z"/>
          <path class="cls-3" d="M89.73,39.52c1.36-.76,2.68-1.57,3.84-2.67-.12-.06-.24-.11-.36-.16-.07,.02-.13,.04-.2,.06-.51,.56-1.03,1.1-1.69,1.4-.92,.47-1.48,1.38-2.33,1.64-.43,.15-.92,.22-1.41,.2l-.31,.24c-1.36,1.15-2.73,2.28-4.14,3.35-.99,1.24-2.38,2.17-3.82,2.94,.6-.46,1.2-.94,1.77-1.44-.69,.48-1.4,.95-2.11,1.39-.61,.41-1.12,.91-1.6,1.44,.07,.32,.04,.66-.22,.96-.41,.48-.9,.82-1.21,1.43-.07,.05-.2-.15-.35-.05,.39-.28,.6-.65,.71-1.06-.28,.35-.56,.7-.83,1.04-.59,.57-1.26,.85-1.98,1.17l-.17,.17c-.29,.29-.52,.65-.75,1.03,.14-.1,.27-.2,.42-.3-.12,.28-.4,.48-.61,.63,.06-.11,.13-.22,.19-.33-.32,.24-.63,.46-.98,.71,.42-.31,.74-.74,1-1.12-.72,.62-1.33,1.26-2.18,1.69l.03-.08c-.82,1.09-1.5,2.33-2.43,3.45-.46,.54,.3,1.55,.44,1.45,2.05-2.25,4.39-3.99,6.68-5.85-.37,.07-.73,.16-1.1,.25-.14,.06-.29,.11-.45,.12,.15-.04,.3-.08,.45-.12,.38-.17,.7-.47,1.13-.63,.12,.01,.32-.13,.26-.38,.58-.22,1-.81,1.58-1.03,.03-.02,.12,0,.22,.02,.27-.25,.55-.5,.83-.76,1.54-1.42,3.15-2.66,4.83-3.72-.47,.17-.94,.32-1.41,.41-.67,.07-1.45,1.08-2.21,1.79-.17,.21-.44,.11-.65,.26,.31-1.08,1.52-1.43,2.29-2.14,1.05-.9,2.95-1.6,3.88-2.87,.38-.53,1.01-.66,1.57-.74-.06,.23-.35,.41-.49,.51-1.29,.84-2.58,1.7-3.78,2.69,1.48-.71,2.64-1.76,4.18-2.39-.75,.58-1.71,.83-2.21,1.64,.09,0,.19,0,.28,0,.55-.3,1.11-.59,1.67-.86,.1-.18,.2-.36,.31-.53,.9-1.62,3.04-2.24,4.59-3.49,.14-.09,.22-.4,.35-.67-.54,.35-1.11,.64-1.64,1.01,.25-.09,.52-.14,.8-.13-.47,.38-1.07,.39-1.53,.78,.22-.25,.47-.46,.73-.65-.38,.13-.74,.34-1.11,.52,.49-.68,1.46-.56,1.87-1.36-.14,.1-.28,.19-.43,.26l.44-.27h0c.41-.3,.75-.72,1.04-1.11-.72,.53-1.56,.72-2.26,1.24-.11,.09-.22,.19-.33,.28,.1-.11,.21-.2,.33-.28,1.55-1.28,3.4-2.13,5.13-3.12l.14-.13-.31-.16c-1.41,.87-2.9,1.67-4.38,2.38Z"/>
        </g>
      </g>
      <g class="cls-12">
        <g class="cls-12">
          <path class="cls-5" d="M113.09,32.31c-.93,.38-2.15-.07-2.75,.9-.07,.1-.14,.2-.21,.31,.05,0,.1,.01,.16,.02,1.19,.13,2.38-.05,3.42-.53,.61-.41,1.14-1.13,1.91-1.25,.09-.01,.01-.32-.03-.47-.13-.17-.25-.37-.37-.56-.56,.34-1.09,.77-1.71,.96-.21,.03-.3,.6-.43,.62Z"/>
          <path class="cls-7" d="M115.26,30.76s-.02-.03-.02-.04c-.03,.02-.06,.03-.08,.05,.04,0,.07,0,.11-.01Z"/>
          <path class="cls-4" d="M113.9,31.63c-.18,.15-.37,.22-.58,.26-.09,.18-.15,.41-.23,.42-.93,.38-2.15-.07-2.75,.9-.07,.1-.14,.2-.21,.31,.06,0,.11,.01,.17,.02,.41,.05,.82,.05,1.23,.03,.02-.02,.03-.04,.05-.06,.16-.26,.43-.07,.64-.1,.54-.32,1.09-.25,1.64-.57,.2-.11,.32-.52,.57-.56,.08-.03,.17-.04,.25-.04,.29-.22,.6-.41,.95-.46,.09-.01,.01-.32-.03-.47-.07-.09-.13-.19-.2-.29-.3,.02-.58,.11-.87,.17-.23,.15-.46,.29-.7,.4,.02,.02,.04,.05,.06,.06Z"/>
          <path class="cls-7" d="M113.75,31.18s-.02,.24,.09,.39c.24-.11,.47-.25,.7-.4-.25,.05-.5,.07-.79,0Z"/>
          <path class="cls-8" d="M113.49,30.11c-.53,0-.89,.53-1.37,.37-.25-.06-.52-.23-.79-.47-.07,.03-.13,.05-.2,.07-1.6,.72-3.23,1.29-4.98,1.4-.85,.13-1.48,.86-2.22,1.45-.48,.23-.98,0-1.53-.08-1.39-.26-2.09,1.32-3.22,2.08-.3,.21,0,1.43,.08,1.42,1.95-1.09,4.08-1.1,6.07-2.04,1.55-.7,3.13-.96,4.8-.78,.07-.11,.14-.21,.21-.31,.61-.97,1.83-.52,2.75-.9,.13-.02,.21-.59,.43-.62,.62-.19,1.15-.62,1.71-.96-.25-.41-.47-.83-.69-1.13-.32,.28-.65,.54-1.05,.51Z"/>
          <path class="cls-6" d="M113.49,30.11c.4,.04,.72-.23,1.05-.51-.11-.14-.21-.26-.32-.32-1.1-.42-1.98,.36-2.89,.72,.27,.24,.54,.41,.79,.47,.48,.16,.84-.37,1.37-.37Z"/>
          <path class="cls-4" d="M113.49,30.11c.38,.04,.7-.2,1-.47-.14-.03-.27-.04-.4-.02-.64,.1-1.25,.35-1.94,.22,.66-.17,1.33-.34,1.97-.6-1.05-.33-1.9,.42-2.79,.77,.27,.24,.54,.41,.78,.47,.48,.16,.84-.37,1.37-.37Z"/>
          <path class="cls-3" d="M112.54,30.57c.79-.05,1.56-.16,2.25-.61-.06-.1-.13-.2-.19-.29-.04-.01-.07-.02-.11-.03-.31,.27-.62,.5-1,.47-.53,0-.89,.53-1.37,.37-.25-.06-.52-.23-.78-.47-.06,.02-.12,.05-.19,.07-.82,.37-1.64,.7-2.49,.95-.63,.59-1.46,.71-2.31,.67,.37-.09,.73-.21,1.08-.37-.41,.08-.83,.13-1.26,.16-.36,.06-.68,.22-.99,.43,.01,.3-.03,.57-.2,.7-.26,.2-.56,.25-.79,.6-.04,0-.1-.22-.18-.21,.24-.04,.39-.24,.48-.53-.18,.15-.36,.31-.54,.46-.37,.18-.76,.07-1.18-.02-.04,.02-.07,.04-.11,.06-.18,.09-.35,.27-.5,.47,.08-.01,.17-.03,.25-.04-.09,.17-.26,.2-.39,.22,.05-.06,.09-.12,.14-.18-.2,.03-.39,.06-.6,.09,.26-.04,.48-.23,.65-.42-.45,.15-.84,.37-1.35,.29,0-.02,.02-.03,.02-.05-.55,.47-1.05,1.15-1.68,1.57-.3,.21,0,1.43,.08,1.42,1.36-.76,2.81-1,4.24-1.39-.21-.12-.41-.24-.62-.35-.08-.02-.17-.06-.26-.13,.08,.04,.17,.08,.26,.13,.22,.05,.43-.03,.67,.05,.06,.07,.19,.05,.18-.19,.34,.11,.62-.18,.96-.07,.02,0,.06,.06,.12,.13,.17-.07,.35-.14,.52-.23,.97-.44,1.95-.7,2.96-.79-.27-.08-.54-.18-.8-.33-.37-.26-.88,.21-1.36,.45-.11,.1-.25-.12-.38-.1,.26-.75,.95-.46,1.43-.7,.65-.26,1.74,.05,2.34-.6,.24-.28,.6-.09,.91,.1-.05,.17-.22,.19-.3,.21-.77,.12-1.54,.24-2.27,.51,.87,.1,1.58-.24,2.47-.06-.45,.15-1-.08-1.33,.36,.05,.05,.1,.09,.15,.13,.32,0,.65,.02,.98,.05,.07-.11,.14-.21,.21-.31,.61-.97,1.83-.52,2.75-.9,.08-.01,.15-.25,.23-.42-.32,.06-.65,.05-.96,.14,.15,.04,.29,.11,.45,.25-.28,.12-.61-.14-.89-.02,.14-.11,.29-.18,.44-.23-.22-.06-.43-.05-.64-.06,.31-.36,.84,.18,1.11-.32-.08,.03-.16,.04-.25,.03,.09-.01,.17-.03,.26-.04,0,0,0,0,0,0,.25-.08,.45-.29,.64-.5-.43,.13-.9-.08-1.32,.06-.07,.03-.13,.06-.2,.1,.06-.04,.13-.07,.2-.1,.93-.41,1.99-.31,3-.43,.03-.02,.06-.03,.08-.05-.06-.09-.11-.18-.16-.28-.82,.14-1.68,.18-2.54,.12Z"/>
        </g>
      </g>
      <g class="cls-12">
        <g class="cls-12">
          <path class="cls-5" d="M151.07,177.15c-3.27-.28-6.55-1.58-9.42-1.33-.31,.02-.63,.04-.97,.06l.46,.15c3.49,1.1,7.41,1.87,11.13,2.12,2.32,.04,4.7-.28,7.22,.01,.28,.03,.34-.28,.37-.43-.24-.22-.43-.46-.61-.69-2.06,.02-4.13,.09-6.25-.13-.69-.11-1.52,.31-1.94,.24Z"/>
          <polygon class="cls-7" points="159.33 177.08 159.3 177.03 158.99 177.03 159.33 177.08"/>
          <path class="cls-4" d="M154.26,177.08c-.69,.02-1.37-.03-2.04-.14-.46,.09-.89,.25-1.15,.2-3.27-.28-6.55-1.58-9.42-1.33-.31,.02-.63,.04-.96,.06l.5,.16c1.21,.4,2.47,.71,3.75,1.02h.22c.76-.09,1.39,.26,2.09,.39,2.01,.15,3.65,.56,5.67,.65,.72,.02,1.51-.26,2.35-.15,.29,.02,.56,.06,.83,.12,1.12-.03,2.26-.04,3.44,.1,.28,.03,.34-.28,.37-.43-.12-.12-.23-.24-.34-.36-.95-.14-1.9-.21-2.87-.31-.85,0-1.7-.02-2.56-.07,.03,.03,.07,.06,.13,.09Z"/>
          <path class="cls-7" d="M154.23,176.6c-.12-.02-.29,.2-.09,.39,.86,.05,1.71,.07,2.56,.07-.81-.09-1.64-.23-2.47-.46Z"/>
          <path class="cls-8" d="M154.48,175.52c-1.64-.3-3.26-.11-4.58-.56-.69-.22-1.36-.56-1.92-.95-.23-.03-.45-.06-.67-.08-5.59-.56-11.12-1.6-16.39-3.32-2.66-.78-5.28-.98-8.11-1.45-1.64-.43-2.83-1.17-4.32-1.92-3.68-1.91-7.46-1.91-11.53-3.16-1.1-.33-1.73,.77-1.48,.89,3.4,1.15,6.62,2.42,9.87,3.62,3.26,1.18,6.55,2.29,10.02,3.11,5.38,1.27,10.38,2.62,15.33,4.2,.34-.02,.66-.04,.97-.06,2.87-.25,6.14,1.05,9.42,1.33,.42,.07,1.25-.35,1.94-.24,2.11,.21,4.18,.14,6.25,.13-.38-.49-.67-.99-1.06-1.37-1.26,.09-2.52,.12-3.72-.15Z"/>
          <path class="cls-6" d="M154.48,175.52c1.19,.27,2.45,.24,3.72,.15-.19-.18-.41-.34-.67-.45-2.96-.97-6.4-.83-9.55-1.21,.56,.39,1.23,.73,1.92,.95,1.32,.45,2.94,.26,4.58,.56Z"/>
          <path class="cls-4" d="M154.48,175.52c1.14,.26,2.34,.24,3.54,.16-.4-.1-.8-.18-1.2-.23-2.07-.28-4.17-.43-6.17-1.01,2.2,.31,4.4,.56,6.63,.69-2.9-.88-6.24-.75-9.29-1.12,.56,.39,1.22,.73,1.92,.95,1.32,.45,2.94,.26,4.58,.56Z"/>
          <path class="cls-3" d="M151.09,175.31c2.47,.49,4.97,.85,7.54,.81-.1-.13-.2-.25-.3-.36-.11-.03-.21-.06-.31-.09-1.2,.08-2.4,.1-3.54-.16-1.64-.3-3.26-.11-4.58-.56-.69-.22-1.35-.56-1.92-.95-.21-.03-.42-.05-.63-.08-2.85-.29-5.69-.7-8.49-1.26-2.51-.12-5.14-.8-7.59-1.72,1.18,.32,2.38,.58,3.59,.8-1.32-.34-2.62-.71-3.91-1.14-1.13-.32-2.25-.55-3.38-.74-.3,.22-.73,.36-1.36,.27-.99-.15-1.91-.48-2.97-.5-.13-.04-.04-.26-.3-.35,.74,.25,1.4,.28,2,.2-.7-.11-1.4-.21-2.1-.32-1.29-.32-2.3-.88-3.4-1.44l-.38-.1c-.63-.18-1.3-.27-1.99-.34,.25,.1,.51,.2,.78,.3-.46,0-.98-.21-1.37-.36,.2,.02,.4,.04,.6,.06-.61-.23-1.19-.45-1.82-.72,.77,.33,1.63,.47,2.35,.58-1.47-.47-2.83-.87-4.17-1.59h.12c-2.11-.47-4.3-.77-6.56-1.46-1.1-.33-1.73,.77-1.48,.89,4.73,1.62,9.15,3.45,13.77,4.97-.48-.34-.95-.67-1.41-1-.21-.12-.42-.25-.59-.41,.19,.13,.39,.27,.59,.41,.58,.32,1.28,.53,1.91,.87,.1,.12,.5,.26,.73,.1,.86,.48,2.02,.65,2.89,1.1,.05,.02,.13,.11,.21,.22,.59,.15,1.19,.3,1.79,.46,3.37,.78,6.57,1.62,9.72,2.51-.73-.32-1.43-.66-2.06-1.03-.84-.55-2.86-.74-4.54-1.08-.43-.05-.61-.36-1.01-.49,1.6-.22,3.34,.68,5.01,1.01,2.21,.45,5.18,1.72,7.68,1.73,1.03-.01,1.91,.44,2.67,.84-.32,.1-.87-.03-1.15-.09-2.47-.55-4.93-1.15-7.42-1.66,2.5,.93,5.04,1.29,7.56,2.18-1.54-.27-2.95-.91-4.44-.88,.11,.08,.22,.16,.33,.24,.96,.3,1.94,.6,2.94,.9,.33-.02,.65-.04,.96-.06,2.87-.25,6.14,1.05,9.42,1.33,.27,.04,.7-.11,1.15-.2-1.04-.16-2.07-.38-3.12-.52,.41,.14,.8,.29,1.15,.51-1-.07-1.75-.55-2.74-.65,.54,0,1.07,.06,1.59,.13-.61-.21-1.27-.35-1.92-.52,1.32-.08,2.4,.77,3.76,.51-.27-.03-.55-.08-.82-.14l.83,.14h-.02c.84,.09,1.69,.06,2.47,0-1.45-.15-2.71-.65-4.12-.82l-.7-.06c.24,.01,.47,.03,.7,.06,3.25,.29,6.45,1.04,9.69,1.45h.31s-.25-.33-.25-.33c-2.68-.31-5.39-.76-7.96-1.39Z"/>
        </g>
      </g>
      <g class="cls-12">
        <g class="cls-12">
          <path class="cls-5" d="M179.94,178.63c-1.11,.29-2.18-.5-3.01,.27-.09,.07-.19,.15-.28,.24l.14,.06c1.05,.45,2.4,.65,3.77,.17,.83-.43,1.48-1.24,2.29-1.79,.1-.06-.1-.31-.2-.43-.2-.1-.4-.22-.58-.36-.39,.52-.93,1.07-1.61,1.25-.22,.03-.37,.59-.52,.6Z"/>
          <polygon class="cls-7" points="182.12 176.8 182.08 176.77 182.02 176.85 182.12 176.8"/>
          <path class="cls-4" d="M180.88,177.96c-.19,.16-.41,.23-.63,.26-.11,.17-.21,.4-.31,.41-1.11,.29-2.18-.5-3.01,.27-.09,.07-.19,.15-.28,.24,.05,.02,.1,.04,.15,.06,.37,.16,.76,.28,1.19,.36l.07-.05c.23-.21,.46,.04,.7,.06,.66-.2,1.29-.04,2.01-.38,.26-.12,.42-.55,.73-.64,.1-.04,.2-.08,.31-.1,.34-.31,.67-.61,1.05-.88,.09-.06-.1-.31-.2-.43-.11-.05-.21-.11-.31-.17-.28,.16-.54,.33-.84,.46-.21,.19-.45,.37-.71,.49,.02,.02,.04,.04,.07,.06Z"/>
          <path class="cls-7" d="M180.71,177.51s-.02,.24,.1,.38c.26-.12,.5-.3,.71-.49-.25,.1-.52,.16-.81,.1Z"/>
          <path class="cls-8" d="M180.4,176.45c-.42-.01-.76,.47-1.18,.22-.21-.11-.42-.32-.6-.62-.06,.01-.12,.02-.18,.02-.75,.16-1.63,.23-2.47,.24-.85,0-1.69-.06-2.53-.25-.84-.11-1.63,.42-2.49,.78-.51,.09-.92-.28-1.42-.5-1.25-.64-2.33,.69-3.6,1.11-.34,.11-.39,1.37-.31,1.38,2.14-.51,4.15,.07,6.28-.29,1.65-.24,3.21-.05,4.75,.58,.09-.09,.19-.17,.28-.24,.83-.76,1.9,.02,3.01-.27,.15,0,.3-.57,.52-.6,.68-.18,1.23-.72,1.61-1.25-.38-.28-.72-.63-.98-.86-.12,.29-.35,.58-.69,.54Z"/>
          <path class="cls-6" d="M180.4,176.45c.33,.05,.57-.24,.69-.54-.12-.12-.24-.21-.32-.27-.41-.17-.67-.13-1,0-.33,.13-.72,.33-1.14,.4,.18,.3,.39,.51,.6,.62,.42,.24,.76-.24,1.18-.22Z"/>
          <path class="cls-4" d="M180.4,176.45c.32,.04,.55-.22,.67-.5-.11-.02-.21-.01-.29,.01-.42,.12-.9,.33-1.46,.08,.55-.05,1.04-.17,1.37-.44-.38-.14-.63-.08-.96,.05-.32,.13-.7,.32-1.11,.39,.18,.3,.39,.51,.6,.62,.42,.24,.76-.24,1.18-.22Z"/>
          <path class="cls-3" d="M179.59,176.83c.69,.07,1.44-.06,1.83-.63-.09-.08-.17-.16-.25-.23-.03,0-.06,0-.09-.01-.12,.28-.35,.54-.67,.5-.42-.01-.76,.47-1.18,.22-.21-.11-.42-.32-.6-.62-.06,0-.11,.02-.17,.02-.76,.16-1.66,.23-2.52,.24-.75,.39-1.57,.28-2.36,0,.37,.01,.74,0,1.12-.06-.41-.04-.82-.1-1.23-.2-.36-.05-.7,.02-1.05,.14-.07,.29-.19,.54-.38,.62-.3,.12-.6,.08-.9,.36-.04,0-.03-.24-.12-.25,.24,.03,.43-.13,.6-.38-.21,.1-.42,.2-.64,.29-.4,.07-.74-.14-1.11-.34-.04,0-.08,.02-.12,.02-.2,.04-.4,.17-.6,.32,.08,.01,.16,.02,.25,.03-.13,.14-.3,.12-.43,.1l.18-.13c-.2-.03-.38-.05-.59-.08,.25,.03,.51-.09,.73-.22-.47,.02-.89,.12-1.35-.1l.03-.04c-.65,.3-1.3,.81-2.01,1.05-.34,.11-.4,1.37-.31,1.38,1.49-.36,2.92-.18,4.38-.17-.17-.17-.33-.34-.49-.5-.07-.04-.14-.1-.21-.19,.07,.06,.14,.13,.21,.19,.2,.11,.41,.09,.62,.23,.04,.08,.17,.1,.22-.13,.29,.2,.64,0,.92,.2,.02,0,.05,.07,.08,.15,.18-.02,.37-.04,.55-.07,1.03-.15,2.03-.13,3.01,.05-.23-.15-.46-.32-.67-.54-.28-.35-.89-.04-1.4,.05-.13,.06-.2-.19-.33-.2,.45-.65,1.02-.18,1.54-.27,.68-.07,1.63,.53,2.37,.07,.3-.2,.59,.08,.83,.35-.09,.15-.26,.12-.34,.11-.76-.1-1.52-.2-2.28-.14,.79,.34,1.56,.2,2.35,.62-.47,.02-.92-.36-1.35-.02,.04,.06,.07,.11,.11,.16,.31,.09,.61,.2,.91,.32,.09-.08,.19-.16,.28-.24,.83-.76,1.9,.02,3.01-.27,.09,0,.19-.23,.31-.41-.35,.05-.69,0-1.03,.02,.14,.07,.28,.16,.43,.31-.33,.08-.61-.24-.92-.18,.16-.08,.33-.12,.49-.13-.21-.1-.42-.13-.63-.19,.37-.28,.81,.35,1.17-.12-.08,.02-.17,.02-.26,0h.26s0,0,0,0c.26-.05,.49-.25,.68-.45-.43,.13-.87-.14-1.27-.08-.06,.02-.13,.04-.2,.06,.07-.03,.14-.05,.2-.06,.92-.23,1.91-.06,2.86-.54l.06-.08-.25-.2c-.68,.39-1.49,.44-2.24,.26Z"/>
        </g>
      </g>
      <g class="cls-12">
        <g class="cls-12">
          <path class="cls-5" d="M381.63,144.97c-1.46,1.4-3.6,2.08-4.52,3.71-.11,.17-.22,.35-.33,.53l.27-.13c2.07-.95,4.11-2.36,5.73-4,.93-1.11,1.63-2.47,2.82-3.48,.13-.11-.07-.35-.17-.48-.25-.04-.5-.11-.74-.19-.79,.99-1.54,2.03-2.51,2.9-.34,.26-.37,.96-.57,1.12Z"/>
          <polygon class="cls-7" points="384.78 140.95 384.73 140.93 384.61 141.08 384.78 140.95"/>
          <path class="cls-4" d="M382.82,143.38c-.25,.35-.55,.64-.88,.89-.11,.29-.17,.61-.3,.7-1.46,1.4-3.6,2.08-4.52,3.71-.11,.17-.22,.35-.32,.53,.1-.04,.19-.09,.29-.14,.73-.32,1.43-.72,2.12-1.14l.07-.12c.24-.44,.72-.5,1.08-.75,.87-.89,1.8-1.4,2.64-2.33,.3-.33,.4-.92,.81-1.24,.13-.12,.27-.23,.41-.32,.41-.56,.85-1.11,1.42-1.58,.13-.11-.07-.35-.17-.48-.13-.02-.26-.05-.39-.09-.47,.35-.89,.76-1.34,1.15-.33,.41-.67,.8-1.04,1.19,.03,0,.07,0,.11,0Z"/>
          <path class="cls-7" d="M382.46,143.05c-.06,.05,.03,.28,.24,.32,.37-.38,.71-.78,1.04-1.19-.38,.32-.8,.62-1.28,.87Z"/>
          <path class="cls-8" d="M381.79,142.17c-.84,.57-1.32,1.49-2.14,1.81-.42,.18-.9,.26-1.38,.25-.11,.09-.21,.18-.31,.27-2.49,2.32-5.24,4.35-8.29,5.78-1.48,.79-2.57,2.01-3.92,3.16-.87,.55-1.77,.62-2.76,.85-2.5,.52-3.91,2.59-6.18,3.93-.6,.36-.25,1.57-.08,1.52,3.9-2.04,7.89-3.28,11.54-5.73,2.82-1.88,5.57-3.44,8.51-4.79,.11-.18,.22-.36,.33-.53,.92-1.62,3.05-2.31,4.52-3.71,.21-.16,.23-.86,.57-1.12,.97-.87,1.72-1.91,2.51-2.9-.5-.16-.97-.37-1.39-.44-.42,.66-.88,1.29-1.53,1.66Z"/>
          <path class="cls-6" d="M381.79,142.17c.65-.38,1.11-1.01,1.53-1.66-.21-.04-.4-.04-.58,0-1.82,.72-3.03,2.46-4.47,3.73,.48,0,.96-.08,1.38-.25,.81-.32,1.3-1.24,2.14-1.81Z"/>
          <path class="cls-4" d="M381.79,142.17c.62-.36,1.07-.95,1.47-1.57-.23,.12-.44,.25-.63,.41-.99,.79-1.9,1.69-3.06,2.25,1.04-.84,2.06-1.72,3-2.68-1.73,.76-2.9,2.44-4.31,3.67,.48,0,.96-.08,1.38-.25,.81-.32,1.3-1.24,2.14-1.81Z"/>
          <path class="cls-3" d="M380.36,143.66c1.28-.85,2.5-1.8,3.46-3.04-.13-.04-.25-.08-.38-.1-.06,.03-.12,.06-.18,.09-.4,.63-.85,1.21-1.47,1.57-.84,.57-1.32,1.49-2.14,1.81-.42,.18-.9,.26-1.38,.25l-.29,.25c-1.27,1.18-2.61,2.29-4.02,3.28-1.01,1.18-2.44,2.01-3.93,2.59,.64-.37,1.25-.79,1.85-1.25-.71,.42-1.43,.81-2.18,1.15-.63,.34-1.18,.75-1.72,1.2,.02,.32-.05,.65-.34,.92-.47,.4-1.01,.65-1.42,1.19-.08,.04-.17-.18-.33-.11,.43-.2,.7-.53,.87-.91-.33,.29-.66,.59-.98,.87-.68,.44-1.39,.56-2.13,.72l-.2,.13c-.34,.21-.65,.5-.95,.81,.15-.06,.31-.12,.47-.19-.18,.24-.49,.37-.73,.47,.09-.09,.18-.19,.26-.28-.37,.15-.71,.29-1.11,.44,.48-.17,.89-.52,1.22-.83-.83,.43-1.57,.87-2.49,1.05l.05-.07c-1.06,.8-2.07,1.78-3.32,2.52-.6,.36-.25,1.57-.08,1.52,2.74-1.43,5.48-2.46,8.15-3.79-.39,0-.76,0-1.13,0-.15,.03-.3,.04-.46,0,.15,0,.31,0,.46,0,.41-.07,.8-.29,1.24-.37,.11,.04,.35-.07,.33-.32,.62-.1,1.15-.59,1.76-.71,.03-.02,.12,.02,.22,.06,.31-.2,.63-.4,.96-.61,1.76-1.19,3.5-2.23,5.27-3.18-.49,.14-.97,.25-1.44,.3-.67,.02-1.55,.93-2.4,1.55-.2,.19-.45,.05-.69,.17,.46-1.01,1.68-1.23,2.52-1.85,1.12-.8,3.07-1.38,4.02-2.63,.38-.52,1.02-.64,1.57-.72-.06,.23-.35,.41-.5,.51-1.31,.84-2.63,1.64-3.9,2.54,1.54-.6,2.75-1.61,4.3-2.23-.77,.58-1.73,.82-2.27,1.6,.09,0,.19,0,.28,0,.55-.26,1.12-.54,1.72-.83,.11-.18,.21-.36,.32-.53,.92-1.62,3.05-2.31,4.52-3.71,.13-.1,.19-.42,.3-.7-.51,.4-1.06,.74-1.56,1.15,.25-.1,.51-.18,.8-.2-.44,.43-1.05,.46-1.5,.88,.21-.26,.45-.48,.7-.69-.38,.15-.72,.37-1.09,.57,.45-.7,1.44-.63,1.79-1.48-.13,.11-.26,.21-.41,.3l.41-.31h0c.39-.33,.69-.77,.94-1.19-.66,.59-1.49,.85-2.14,1.42-.1,.1-.21,.2-.31,.3,.1-.11,.2-.21,.31-.3,1.44-1.38,3.19-2.38,4.75-3.65l.12-.15-.33-.11c-1.26,1.06-2.62,2.04-4.04,2.84Z"/>
        </g>
      </g>
    </g>
  </g>
</svg>