<?xml version="1.0" encoding="UTF-8"?>
<svg id="_Слой_2" data-name="Слой 2" xmlns="http://www.w3.org/2000/svg" xmlns:xlink="http://www.w3.org/1999/xlink" viewBox="0 0 284.61 718.7">
  <defs>
    <style>
      .cls-1 {
        fill: none;
      }

      .cls-2 {
        clip-path: url(#clippath);
      }

      .cls-3 {
        fill: #f3f9fb;
      }

      .cls-4 {
        fill: #f7fbfc;
      }

      .cls-5 {
        fill: #f8fcfd;
      }

      .cls-6 {
        fill: #f4fafb;
      }

      .cls-7 {
        fill: #f5fafb;
      }

      .cls-8 {
        fill: #fbfdfe;
      }

      .cls-9 {
        fill: #8f3b39;
      }

      .cls-10 {
        fill: #349039;
      }

      .cls-11 {
        fill: #a2dbed;
      }

      .cls-12 {
        fill: #6e7c6e;
      }

      .cls-13 {
        fill: #2c7e31;
      }

      .cls-14 {
        opacity: .58;
      }

      .cls-15 {
        opacity: .49;
      }

      .cls-16 {
        opacity: .8;
      }
    </style>
    <clipPath id="clippath">
      <rect class="cls-1" width="284.61" height="718.7"/>
    </clipPath>
  </defs>
  <g id="_камыши_и_кувшинки" data-name="камыши и кувшинки">
    <g class="cls-2">
      <g>
        <g class="cls-15">
          <path class="cls-12" d="M169.59,742.49c-1.01-.5-1.8-.98-2.69-1.26-.14-.05-.53,.35-.68,.25-.61-.38-1.49-.32-1.8-1.18-.33-.94-.96-1.35-1.77-1.38-.78-.01-1.29-.47-1.93-.71-.21-.08-.46-.11-.36-.74,.08-.46-.17-.67-.79-.15-.12,.1-.12-.09-.14-.19-.03-.11,.07-.43-.03-.38-1.18,.63-1.28-.49-1.99-.62-.18-.03-.14-.42-.69,.16-.14,.15-.3,.08-.23-.09,.16-.47,.1-.62-.03-.71-.6-.34-1.14-.76-1.71-1.14-.85,.65-.91,.06-1.2-.15-.22-.16-.24-.6-.35-.91-.11-.31-.72,.05-.43-.83,.05-.14-.19,.02-.26-.01-.32-.14-.79-.08-.86-.53-.04-.23-.07-.46-.21-.56l-5.14-3.67c-.15-.11-.22-.3-.72,.06-.39,.28-.67,.1-.52-.35,.25-.74-.11-.63-.27-.79-.29-.31-.69-.46-.98-.77-.17-.19-.69,.07-.27-.88,.04-.09-.02-.14-.1-.07-.8,.63-.53-.19-.68-.45-.1-.19-.27-.3-.73-.04-.45,.25-.78,.11-.64-.41,.19-.7-.14-.66-.33-.81-1.13-.9-2.28-1.76-3.49-2.54-.57-.37-1.63-.04-1.98-.73-.08-.16-.45,.05-.16-.62,.06-.14-.1-.14-.24-.03-.52,.41-.53,.1-.69-.04-.7-.66-1.27-1.54-2.38-1.58-.86-.02-1.33-.59-2.01-.88-.22-.09-.16-.63-.3-.85-.14-.21-.36-.31-.59-.4-.13-.05-.14-.3-.57,.1-.23,.22-.45,.18-.38-.07,.23-.85-.2-.74-.43-.91-.66-.48-1.38-.88-2.05-1.32-.17-.11-.57,.14-.28-.71,.04-.12-.2,.07-.31,.1-.11,.04-.32,.21-.31,.07,.11-1.24-.69-.98-1.14-1.25-1.09-.69-2.31-1.14-3.48-1.9-.32-.21-.96,.3-1.27,.09-.3-.2-.66-.29-.95-.52-.21-.15-.63,.05-.4-.85,.07-.25-.1-.33-.28-.17-.68,.61-.72,.06-1.05,.02-.4-.05-.43-.72-1.23-.12-.22,.16-.12-.35-.22-.46-.18-.19-.39-.35-.63-.45-.11-.05-.39,.15-.51,.1-.91-.37-1.86-.71-2.72-1.2-.88-.49-1.57-1.23-2.35-1.84-.38-.32-.79-.61-1.16-.94-.37-.34-.72-.69-1.05-1.08-.24-.29-1.03-.07-.43-1.17-.76,.28-.68-.24-.29-1.02,.06-.11-.26,.05-.39,.06-.39,.04-1.45,.69-.67-.42,.03-.04-.04-.03-.04-.06-.01-.3-1.11,.49-.72-.27,.25-.47-.11-.55-.24-.76-.14-.22-.27-.44-.52-.55-.27-.11,.05-.74-.88-.29-.15,.07,.27-.52,.16-.58-.55-.31-.2-1.33-1.49-1.06-.3,.06-.4-.12-.3-.38,.38-.91-.22-1.04-.78-1.28-.73-.32-1.29-.86-.6-2.08,.15-.26,.3-.42-.15-.31-.29,.07-.32-.1-.39-.22l-1.12-1.9c-.37-.64-.67-1.31-1.01-1.96-.18-.36,.52-1.1,.02-1.31-.21-.09,.16-.47-.63-.26-.11,.03-.2,0-.15-.06,.66-.83-.74-.74-.58-1.35,.04-.13,.16-.29,.21-.42,.05-.13,.22-.34,.06-.37-1.38-.25-.8-1.31-1.34-1.91-.18-.21,.22-.65-.79-.54-.15,.02-.18-.1-.07-.19,.96-.79-.03-.97,.13-1.5,.08-.27-.61-.33,.26-.82,.11-.06-.01-.12-.09-.16-.14-.06-.48-.07-.49-.16-.03-.28,.4-.7,.03-.84-.47-.17-.37-.49-.47-.76-.05-.15,.34-.42,.4-.61,.06-.17-.06-.31-.09-.46-.05-.22-.28-.41-.12-.66,.17-.26-.87-.21-.26-.6,.47-.3-.49-.3-.63-.49-.07-.09,.02-.23,.1-.35,.06-.1,.36-.24,.32-.3-.09-.15,.06-.35-.4-.44-.32-.06,.18-.39,.21-.58,.03-.19-.06-.35-.09-.53-.03-.18,.12-.4-.14-.52-1.12-.53-.63-1.36-.87-2.05-.06-.18-.44-.34,.39-.63,.15-.05,.14-.16,.04-.2-1.28-.51-.42-1.36-.85-2-.31-.46-.83-.9-.76-1.42,.06-.5,.24-1.03-.22-1.47-.38-.36-.73-.73-.53-1.13,.19-.39-1.56-.63-.13-1.1-.03-.38-.1-.76-.06-1.15,.04-.32-.35-.63,.48-.99,.3-.13,.27-.35-.01-.46-.92-.36-.68-.76-.24-1.18,.1-.1-.33-.21-.35-.32-.06-.33-.14-.67-.02-1,.34-1-.68-1.96-.69-2.95,0-.18-.7-.38-.52-.54,1.09-.99-.04-1.98,.6-2.95,.96-1.41,.29-2.83,.51-4.22,.03-.18,.76-.37,.55-.45-.65-.27-.1-.57-.58-.79-.88-.4-.29-.79-.51-1.18-.16-.29,.43-.59-.58-.84-.15-.04-.12-.13,0-.18,.94-.42-.46-.81-.03-1.22-1.16-.72-.39-1.52-.68-2.23-.04-.1-.3-.19-.44-.28-.07-.05-.23-.1-.15-.15,1.17-.75,.16-1.27,.42-1.9,.08-.21,.37-.41,.46-.61,.09-.2-.24-.32,.47-.65,.22-.11,.07-.16-.03-.21-.57-.18,.89-.91,3.27-1.79,.87-.3,.95-.21,1.31-.19,.7,.04,1.18,.2,1.21,.54,.03,.27-.22,.58,.69,.63,.15,0,.14,.13,.04,.21-.71,.56,.01,.93-.49,1.39-.38,.34-.24,.6-.38,.89-.12,.24,.38,.45-.42,.74-.26,.1,.44,.27,.49,.43,.1,.37,.18,.76,.07,1.14-.32,1.15,1.01,2.25,.68,3.39,1.14,.81,.1,1.65,.66,2.46,.67,.97,.29,1.94,.59,2.9,.06,.2,.03,.36-.26,.53-.19,.11-.39,.23-.41,.35-.05,.46,.04,.92-.06,1.37-.05,.24,.52,.52-.54,.73-.15,.03-.13,.14,0,.19,1.07,.4,.41,.83,.55,1.25,.05,.16,.01,.31-.37,.49-.41,.19-.37,.48,.02,.68,.29,.15,.3,.28,.39,.42,.36,.58-.72,1.21,.6,1.75-1.13,.32-.74,.69-.47,.98,1.07,1.13,.37,2.31,.62,3.46,.07,.27-.4,.58-.48,.87-.08,.3-.02,.6,.05,.9,.04,.16-.32,.37,.51,.43,.06,0,.11,.03,.09,.05-.12,.18-.42,.38-.35,.54,.07,.14,.64,.23,.8,.37,.19,.16,.23,.35,.26,.53,.03,.18,.24,.35-.48,.56,.92,.05,.49,.3,.57,.47,.08,.16,.05,.33,.06,.5l.07,.56c.02,.19-.03,.38,.09,.56,.16,.24,.52,.45,.64,.69,.13,.25,.16,.52,.1,.8-.07,.35-.29,.72-.39,1.08-.04,.15,.2,.23,.54,.31,.45,.11,1.42,.17,.23,.61-.23,.09-.14,.24,.04,.3,1.37,.48,.49,1.38,.97,2.02-.84,.58-.21,.85,.15,1.18,.52,.49,.82,1.06,.42,1.77-.43,.76,.08,1.25,.04,1.9,0,.18,.38,.26-.39,.65-.18,.09-.08,.2,.06,.23,1,.21,.88,.75,.52,1.41-.2,.35,.25,.52,.66,.69,.61,.25,.43,.83,.59,1.26-.9,.57,.16,.32,.62,.25,.62-.1,.76-.03,.84,.11,.1,.18,0,.44,.71,.36,.36-.04,.37,.2,.08,.45-.39,.33-.16,.3,.19,.29,.41-.01-.42,.55-.28,.71,.14,.17,.73,.17-.17,.81-.08,.06-.04,.11,.05,.1,1.18-.14-.09,.94,.53,1.08-.3,.84-.02,1.39,.33,1.89,.36,.5,.78,.96,.92,1.59,.13,.51-.26,1.38,.44,1.52,1.42,.29,1.47,1.51,2.27,2.22,.17,.15,.7,.03,0,.87-.1,.12-.02,.19,.11,.14,.95-.36,.94,.05,.67,.74-.07,.17,.05,.27,.28,.13,.64-.38,.53-.07,.61,.05,.1,.15-.21,.76,.13,.59,.73-.37,.17,.33,.18,.56,0,.14,.24,.09,.4,.09,.08,0,.35-.18,.32-.1-.39,.88,.79,.19,.78,.69,0,.11,.07,.15,.05,.27-.23,1.43-.21,1.45,.96,1.72-.63,1.17,.89-.07,.49,.88-.14,.35,.08,.43,.36,.32,1.21-.48,1.14,.62,1.83,.76,.15,.02-.29,.77,.27,.31,.21-.18-.07,.56,.07,.63,.2,.09,.11,.6,.77,.03,.27-.23,.26,.1,.42,.12,.21,.03,.18,.41,.74-.06,.3-.26,.5-.13,.41,.22-.37,1.45,.72,.64,1.37,.46,.2-.05,.35-.12,.36,.14,.01,.36,.05,.83,.39,.56,.61-.49,.68-.09,.93,0,.43,.17,.75,.54,1.22,.65,.52,.14,.83,.7,1.62,.32,.42-.2,.9-.34,.68,.83-.02,.13,.37-.39,.44-.35l.47,.21,.55,.27c.36,.18,.72,.38,1.05,.61,.16,.11-.2,1.2,.38,.47,.63-.77-.12,1,.58,.05,.1-.14,.25-.04,.26,.1,.18,1.52,1.45,1.16,2.08,1.9,.15,.18,.62-.1,.24,.83,1.03-.62,.35,1.58,1.72,.4,.17,.45,1.02-.09,.7,1.09-.05,.19,.21,.03,.18,.21-.12,.61,.98-.79,.71,.14-.16,.53,.27,.44,.45,.6,.17,.15,.37,.26,.55,.38l.61,.42c.2,.14,.37,.34,.62,.4,.51,.14,1.31-.17,1.56,.36,.03,.06,.18,0,.3-.13,1-1.14,.73-.3,.61,.15-.1,.38-.1,.6,.03,.68,.36,.23,.73,.43,1.02,.75,.17,.19,.67-.05,.31,.86-.11,.28,.09,.34,.3,.24,1-.5,1.1,.3,1.62,.49,.23,.09,.41,.26,.59,.42,.14,.13,.67-.29,.45,.32,1.45-.46,1.71,.72,2.52,1.14,.81,.42,1.49,1.01,2.18,1.58,.17,.14,.66-.1,.22,.83-.08,.18,.06,.26,.21,.13,.43-.36,.67-.54,.36,.14-.06,.12,.13,.07,.27,0,.38-.21,.49-.08,.42,.33-.05,.32,0,.58,.25,.49,.65-.23,1.23-.41,.92,.68-.04,.13,.47-.34,.52-.26,.19,.3,.79,.06,.58,.91-.08,.35,.22,.26,.31,.43,.14,.3,.69,0,.75,.44,.06,.44,.48,.44,.75,.63l.79,.57,.79,.56,.79,.56,.79,.56c.26,.19,.53,.36,.79,.56,.18,.14,.29,.35,.25,.8-.1,1.16,.56,1.45,1.73,1.27,.08-.01,.11,.07,.16,.1,.69,.48,1.49,.79,2.03,1.46,.24,.3,.29,.88,.65,1.02,.23,.09,.35,.35,.89-.05,.45-.33,.2,.59,.9-.08,.26-.24,.44-.1,.38,.19-.18,.99,.42,.78,.7,1.05,.33,.31,.72,.52,1.13,.7,.2,.09,.23,.47,.81-.08,.29-.27,.37,.09,.35,.46-.04,.56,.22,.59,.52,.52,.66-.15,.69-.23,.83,.51,.02,.09,.07,.12,.12,.15,.52,.3,.89,.93,1.63,.79,.62-.14,1.05,.04,1.48,.23,.17,.08,.56-.23,.26,.74-.04,.14,.06,.17,.16,.08,.83-.8,.95-.09,1.33,.07,.37,.13,1.04-.54,1.31-.19,.25,.33,.66,.32,.99,.47,.51,.23,.41,.83-.56,3.39-.8,2.11-1.11,2.51-1.77,2.75-1.39,.49-2.16-.61-3.09-.74Z"/>
          <g>
            <path class="cls-12" d="M128.34,708.63c-7.31-.17-14.49,1.43-16.4,2.89s-.58,3.09,.94,4.64c5.62,5.77,13.76,11.47,24.05,17.03,2.16,1.17,4.49,2.36,8.36,3.33s9.62,1.7,15.21,1.61c6.52-.11,11.2-1.34,12.62-2.69,1.42-1.35,.23-2.81-1.07-4.23-5.84-6.34-14.28-12.41-26.86-18.42-1.86-.89-7.42-2.07-11.4-2.55-4.56-.56-7.12-1-11.44-.92"/>
            <path class="cls-12" d="M124.72,710.54c-1.07,.06-1.94,.07-2.79,.3-.13,.04-.22,.57-.39,.59-.33,.03-.66,.17-.98,.27-.16,.05-.33,.08-.5,.06-.12-.02-.23-.09-.37-.22-.6-.56-1.3-.51-1.51-.03-.18,.46-.64,.44-.92,.66-.1,.08-.09,.2-.85-.23-.42-.24-.7-.25-.5,.02,.06,.09,.18,.21,.36,.36,.14,.12-.09,.02-.22,0-.13-.04-.59-.25-.5-.16,.51,.5,.46,.63,.22,.7-.22,.07-.61,.1-.54,.33,.04,.1-.56,.02,.6,.47,.3,.11,.31,.19,.02,.13-.78-.16-.97-.12-.97-.02-.03,.42,.15,.81,.38,1.13,1.61,.21,1.03,.3,1.16,.45,.08,.1-.3,.24-.43,.39-.12,.16,.76,.12-.18,.46-.15,.06,.22,.03,.27,.06,.24,.14,.74,.16,.53,.43-.1,.14-.19,.29-.1,.37,.26,.26,.53,.5,.8,.75,.27,.25,.51,.45,.95,.83,.78,.67,1.59,1.32,2.41,1.94,.14,.11,.21,.31,.72-.04,.4-.27,.66-.09,.5,.36-.26,.73,.09,.62,.25,.79,.28,.31,.68,.46,.96,.77,.17,.18,.69-.08,.27,.88-.04,.09,.02,.14,.1,.07,.79-.64,.53,.18,.68,.44,.11,.19,.28,.29,.73,.02,.44-.27,.77-.13,.64,.4-.17,.71,.16,.65,.36,.8,1.16,.85,2.36,1.65,3.62,2.35,.6,.34,1.63-.08,2.04,.58,.1,.16,.44-.08,.21,.61-.05,.14,.11,.14,.24,.01,.48-.45,.52-.15,.69-.01,.75,.6,1.41,1.42,2.53,1.36,.86-.04,1.39,.48,2.1,.7,.23,.07,.22,.61,.39,.82,.16,.2,.4,.27,.62,.35,.14,.04,.17,.29,.55-.15,.21-.24,.42-.22,.38,.04-.14,.87,.27,.71,.51,.85,.69,.39,1.44,.65,2.15,.98,.18,.08,.52-.23,.38,.65-.02,.12,.18-.1,.28-.16,.1-.06,.27-.27,.29-.13,.12,1.24,.86,.8,1.35,.99,1.22,.47,2.52,.61,3.78,1,.36,.11,.8-.56,1.14-.47,.33,.1,.68,.07,1.01,.19,.23,.08,.54-.28,.64,.64,.03,.25,.21,.26,.31,.04,.38-.83,.62-.35,.92-.45,.36-.12,.66,.47,1.1-.42,.12-.24,.24,.27,.38,.32,.24,.09,.48,.14,.72,.12,.12-.01,.26-.33,.38-.35,.91-.15,1.82-.36,2.71-.43,.91-.07,1.81,.03,2.7,.02,.9,0,1.79-.11,2.68-.05,.34,.02,.64-.7,1.05,.48,.24-.75,.55-.34,.9,.45,.04,.11,.09-.24,.12-.34,.14-.33-.06-1.54,.4-.26,.02,.05,.02-.01,.04,0,.21,.17-.17-1.15,.25-.39,.29,.47,.38,.24,.53,.26,.16,.02,.34,.04,.41-.09,.05-.13,.67,.39,.07-.54-.11-.15,.51,.45,.55,.39,.06-.15,.35-.03,.56-.04,.2,0,.33-.11-.16-.64-.23-.24-.12-.24,.21-.08,1.21,.58,1,.11,.77-.22-.27-.48-.36-.62,1.77-.38,.44,.05,.79,.08,.1-.19-.46-.17-.33-.24-.35-.31-.04-.43-.3-.79-.55-1.11-.26-.33-.55-.63-.84-.93-.14-.14,.78-.62,.17-.7-.23-.02,.17-.31-.72-.04-.12,.04-.21,.04-.17,0,.36-.3,.14-.39-.11-.4-.26-.02-.56,.03-.5-.18,.03-.09,.13-.24,.16-.35,.03-.11,.15-.32,0-.27-.62,.21-.76,.19-1.04-.12-.24-.26-.41-.61-.77-.73-.25-.08-.11-.65-.91-.03-.12,.09-.19,.02-.14-.12,.44-1.17-.48-.77-.62-1.26-.07-.26-.67,.1-.22-.79,.06-.11-.07-.09-.16-.07-.15,.04-.42,.23-.48,.16-.17-.2-.07-.79-.44-.67-.46,.15-.57-.14-.8-.28-.13-.08,.01-.53-.05-.71-.06-.17-.23-.19-.36-.28-.18-.12-.46-.12-.5-.41-.04-.31-.77,.43-.56-.27,.16-.54-.55,.11-.77,.09-.11-.01-.14-.16-.16-.31-.02-.11,.1-.42,.03-.44-.17-.04-.19-.28-.58-.02-.26,.18-.13-.39-.24-.55-.1-.16-.28-.2-.43-.3-.15-.09-.2-.36-.45-.25-1.13,.48-1.38-.42-2.05-.66-.17-.06-.53,.12-.21-.69,.06-.15-.03-.21-.12-.15-1.18,.69-1.29-.48-2.04-.52-.53-.03-1.17,.14-1.54-.19-.36-.32-.67-.77-1.27-.62-.49,.12-.97,.23-1.19-.14-.22-.36-1.33,1.01-.95-.45-.32-.17-.67-.29-.97-.52-.25-.19-.7,0-.58-.89,.04-.33-.16-.4-.39-.21-.75,.63-.96,.24-1.11-.34-.04-.14-.33,.2-.43,.17-.31-.1-.64-.17-.87-.43-.09-.09-.19-.17-.28-.23-.05-.03-.1-.04-.16-.05-.16-.01-.33,.01-.56,.05-.42,.07-.89,.2-1.31,.09-.15-.04-.5,.58-.59,.37-.58-1.29-1.75-.38-2.49-1.2-1.13-1.21-2.6-.77-3.88-1.18-.17-.05-.24-.8-.36-.6-.34,.61-.56,.03-.83,.48-.49,.83-.84,.19-1.27,.36-.31,.12-.55-.5-.95,.46-.06,.14-.15,.1-.19-.02-.31-.99-.9,.34-1.26-.14-.92,1.04-1.61,.17-2.38,.34-.11,.03-.24,.26-.36,.39-.06,.06-.14,.21-.18,.12-.56-1.25-1.31-.37-1.95-.71-.21-.11-.42-.46-.64-.58-.22-.12-.45,.17-.66-.58-.07-.23-.2-.12-.3-.02-.52,.5-.94-1.08-1-3.62-.02-.92,.1-.98,.22-1.32,.23-.66,.48-1.09,.78-1.02,.24,.05,.49,.34,.71-.54,.04-.15,.15-.11,.2,0,.39,.79,.86,.18,1.22,.74,.27,.43,.55,.33,.81,.52,.22,.16,.5-.29,.67,.53,.06,.28,.34-.4,.5-.42,.39-.04,.78-.06,1.14,.1,1.1,.48,2.38-.67,3.46-.2,.96-1.02,1.62,.1,2.53-.35,1.1-.54,2.05-.01,3.1-.14,.21-.02,.38,.03,.5,.35,.08,.21,.17,.43,.29,.47,.46,.13,.95,.13,1.39,.32,.24,.1,.64-.4,.64,.69,0,.15,.11,.16,.19,.04,.64-.95,.95-.21,1.4-.24,.18-.01,.33,.07,.41,.49,.09,.45,.4,.48,.7,.17,.23-.24,.37-.21,.54-.25,.75-.15,1,1.06,2.16,.13,0,1.23,.43,1.04,.85,.93,1.55-.41,2.31,.82,3.48,1.2,.28,.09,.33,.66,.55,.88,.23,.23,.53,.35,.83,.45,.16,.05,.16,.48,.66-.19,.04-.05,.08-.07,.09-.05,.09,.21,.11,.56,.29,.59,.16,.03,.56-.4,.77-.45,.25-.06,.44,.02,.62,.1,.17,.08,.45,.01,.22,.73,.58-.73,.55-.22,.75-.19,.19,.03,.32,.16,.48,.25l.53,.31c.18,.1,.32,.27,.54,.29,.3,.03,.71-.12,1-.05,.31,.06,.56,.22,.77,.46,.26,.3,.42,.73,.65,1.06,.1,.14,.33,.01,.63-.18,.4-.26,1.12-.92,.67,.27-.09,.23,.1,.27,.27,.19,1.37-.65,1.48,.7,2.35,.87-.16,1.04,.53,.79,1.06,.85,.78,.08,1.48,.38,1.69,1.23,.22,.91,.98,1.04,1.4,1.66,.12,.17,.5,.03,.11,.8-.09,.18,.06,.22,.2,.17,1-.35,1.28,.21,1.36,1.03,.04,.43,.54,.37,1.01,.34,.35-.02,.58,.14,.76,.34,.09,.1,.17,.21,.26,.32,.05,.06,.08,.1,.14,.17,.07,.07,.14,.14,.21,.21-.47,.99,.47,.42,.96,.26,.64-.22,.92-.1,1.18,.12,.33,.29,.46,.67,1.37,.61,.48-.03,.77,.39,.58,.74-.25,.46,.04,.43,.55,.51,.61,.1-.12,.75,.2,1.03,.35,.29,1.29,.55,.25,1.13-.09,.05-.01,.14,.11,.17,.82,.16,.89,.51,.86,.84-.04,.33-.12,.65,.29,.91-.29,.9-.04,1.62,.17,2.45,.23,.8,.34,1.82-.22,2.66-.45,.7-1.66,.91-1.66,1.61,0,.76-.54,1.29-1.22,1.71-.72,.4-1.57,.67-2.33,1.04-.3,.16-.4,.74-1.45-.08-.14-.11-.29-.06-.28,.08,.1,1.01-.74,.89-1.61,.41-.21-.12-.44-.04-.42,.21,.08,.72-.35,.51-.62,.53-.34,.04-.94-.51-1.02-.13-.21,.82-.67,0-.98-.11-.19-.06-.38,.17-.55,.3-.09,.06-.15,.4-.18,.32-.51-.86-.8,.48-1.25,.14-.09-.07-.19-.05-.28-.14-1.06-1.12-1.03-1.13-2.22-.47-.36-1.29-.71,.64-1.09-.35-.14-.36-.38-.28-.54-.02-.72,1.14-1.46,.24-2.18,.55-.15,.06-.24-.81-.45-.11-.08,.26-.3-.52-.46-.49-.24,.03-.46-.45-.74,.38-.12,.34-.31,.05-.48,.11-.22,.09-.42-.25-.69,.43-.15,.37-.43,.36-.54,.02-.45-1.43-1.06-.23-1.65,.21-.17,.13-.3,.25-.44,.02-.2-.32-.47-.74-.69-.35-.4,.69-.68,.36-.99,.36-.55,0-1.07-.21-1.63-.19-.64,.02-1.18-.44-1.94,.13-.41,.3-.94,.55-1.07-.65-.01-.13-.3,.46-.4,.44-.81-.12-1.63-.3-2.4-.6-.18-.07-.07-1.22-.49-.39-.46,.88-.1-1.01-.59,.06-.07,.15-.24,.09-.29-.05-.56-1.46-1.81-.89-2.63-1.57-.19-.16-.63,.16-.41-.81-1,.75-.66-1.55-1.92-.24-.25-.44-1.07,.16-.87-1.05,.03-.2-.22-.01-.2-.2,.06-.62-.91,.87-.73-.08,.11-.54-.31-.42-.51-.56-.18-.13-.39-.22-.59-.33l-.65-.36c-.22-.12-.4-.31-.66-.35-.52-.1-1.3,.28-1.61-.23-.03-.05-.18,.01-.29,.16-.9,1.22-.71,.36-.64-.11,.06-.39,.04-.6-.1-.68-.38-.2-.79-.37-1.11-.67-.19-.18-.68,.1-.39-.84,.09-.29-.12-.34-.33-.22-.98,.57-1.15-.23-1.7-.4-.25-.08-.44-.24-.64-.39-.15-.12-.66,.33-.49-.3-1.44,.52-1.82-.67-2.68-1.08-.87-.4-1.6-1.02-2.35-1.6-.18-.15-.68,.08-.27-.86,.08-.18-.07-.27-.22-.14-.43,.36-.68,.53-.38-.15,.06-.13-.14-.08-.28,0-.39,.21-.51,.07-.45-.35,.04-.32-.02-.59-.27-.51-.67,.21-1.28,.36-.97-.74,.04-.13-.48,.31-.54,.23-.2-.32-.83-.12-.61-.98,.09-.35-.23-.28-.32-.47-.14-.32-.72-.08-.78-.53-.05-.46-.5-.49-.76-.73l-.88-.75c-.43-.37-.86-.79-1.29-1.18-.43-.4-.87-.79-1.28-1.19l-1.2-1.23-.6-.61-.46-.64c-.21-.3-.29-.61-.06-.97,.28-.46,.3-.85,.07-1.25-.23-.41-.72-.83-1.32-1.38-.09-.08-.06-.16-.07-.24-.14-.52-.26-1.06-.26-1.65,0-.58,.17-1.21,.55-1.7,.32-.44,1.03-.68,1.28-1.06,.15-.27,.52-.39,.14-.92-.33-.48,.87-.2,.21-.95-.24-.28,.05-.48,.44-.4l.12,.02c1.22,.23,1.32-.31,1.9-.53,.33-.13,.71-.22,1.03-.36,.33-.13,.65-.28,.99-.41,.34-.14,.86,.04,.78-.76-.03-.39,.6-.27,1.03-.04,.67,.36,1,.17,1.33-.11,.7-.6,.73-.69,1.72-.29,.12,.05,.23,.03,.33,.02,.29-.04,.44-.04,.62-.04,.18,0,.35,0,.53,0,.35-.01,.68-.08,.99-.36,.51-.47,1.06-.54,1.62-.62,.22-.03,.45-.49,.71,.49,.04,.14,.16,.12,.21-.01,.39-1.12,.94-.57,1.42-.61,.47-.04,.88-.94,1.37-.73,.46,.19,.93,.02,1.39,.04,.71,.02,.85,.61,.78,3.34-.06,2.26-.23,2.74-.73,3.21-1.05,.99-2.1,.27-2.94,.61Z"/>
          </g>
          <g>
            <path class="cls-12" d="M73.98,649.98c10.16,14.86-14.38,29.25-17.91,43.99-3.54,14.78,13.5,29.47,36.64,43.64,3.49,2.14,7.13,4.26,10.88,6.39-5.06-2.87-19.42-5.81-26.96-8.57-8.36-3.07-15.66-6.22-21.88-9.43-12.43-6.43-20.52-13.1-23.99-19.85-7.32-14.24,2.81-28.3,9.33-42.52,1.39-3.03,2.59-6.07,3.39-9.11,.42-1.59-.21-3.46,2.71-5,2.03-1.07,9.88-1.34,16.21-1.08,6.33,.26,14.48,1.23,12.39,2.29"/>
            <path class="cls-12" d="M78.25,656.76c.1,2.53-.44,4.5-.92,6.39-.08,.29,.28,.79,.14,1.16-.6,1.41-.87,3.06-2.12,4.01-1.33,1.03-2.23,2.22-2.71,3.66-.47,1.35-1.36,2.37-2.08,3.51-.24,.38-.42,.81-1.19,.83-.56,.01-.99,.5-.69,1.35,.06,.16-.19,.23-.33,.3-.16,.08-.53,.02-.52,.18,.12,1.75-1.41,2.25-1.98,3.46-.14,.3-.63,.37-.17,1.06,.12,.18-.05,.45-.25,.41-.54-.1-.77,.05-.94,.3-.76,1.08-1.55,2.14-2.25,3.22,.49,1.08-.24,1.42-.6,1.98-.25,.42-.79,.67-1.21,1.01-.4,.35-.07,1.1-1.08,1.14-.16,0,0,.3-.03,.43-.09,.3-.13,.62-.21,.92-.06,.3-.16,.58-.42,.79-.27,.21-.52,.44-.59,.73-1.12,3.6-.76,7.5,.8,11.06,.14,.31,.16,.66,.83,.74,.53,.06,.82,.56,.53,1.02-.47,.74,.03,.95,.19,1.34,.31,.72,.86,1.31,1.22,2.02,.23,.42,.94,.53,.36,1.48-.05,.09,.04,.21,.15,.19,1.11-.18,.75,.73,.99,1.23,.17,.36,.44,.65,1.07,.66,.61,.01,1.13,.45,1,1.08-.17,.83,.32,1.03,.65,1.38,1.9,2.09,3.99,4.04,6.2,5.83,1.05,.85,2.64,.99,3.48,2.1,.2,.27,.71,.19,.51,.92-.04,.15,.22,.24,.41,.16,.68-.28,.83,.14,1.14,.42,1.43,1.25,2.78,2.69,4.66,3.27,1.45,.45,2.52,1.42,3.79,2.09,.43,.22,.57,.89,.92,1.24,.34,.34,.77,.56,1.19,.79,.25,.13,.38,.46,.92,.13,.29-.18,.68-.03,.68,.27,.02,1,.7,1.05,1.18,1.37,1.37,.92,2.81,1.74,4.21,2.61,.34,.22,.95,.09,.81,1.02-.02,.13,.33,0,.5,0,.18,0,.48-.11,.52,.05,.34,1.51,1.65,1.53,2.57,2.12,1.5,.96,3.06,1.82,4.59,2.73l-1.25,2.2-1.08-.56-1.14-.54c-.67-.3-1.5,.17-2.16-.09-.62-.27-1.3-.4-1.93-.67-.45-.2-1.06,.04-1.23-.95-.05-.27-.39-.36-.6-.18-.77,.68-1.22,.09-1.81,.05-.72-.04-1.27-.77-2.18-.07-.25,.19-.46-.38-.73-.5-.46-.2-.93-.36-1.42-.45-.24-.04-.55,.21-.79,.18-1.83-.27-3.69-.51-5.51-.93-1.86-.43-3.68-1.05-5.54-1.68-1.9-.65-3.63-1.25-5.39-2.04-.65-.29-1.63,.07-1.8-1.3-.88,.43-1.25-.19-1.48-1.17-.03-.14-.35,.1-.53,.14-.56,.11-1.46,1.07-1.44-.37,0-.05-.08-.02-.12-.06-.33-.34-1.14,.78-1.34-.19-.12-.6-.73-.62-1.15-.85-.43-.24-.86-.48-1.34-.57-.5-.1-.75-.88-1.58-.16-.14,.12-.18-.67-.4-.72-1.12-.24-1.76-1.55-3.27-.96-.34,.13-.69-.07-.83-.4-.49-1.2-1.49-1.2-2.53-1.37-1.35-.24-2.69-.75-3.2-2.47-.11-.37-.11-.6-.57-.35-.3,.17-.54-.05-.77-.17-2.49-1.41-4.92-2.94-7.29-4.6-.66-.44-.67-1.66-1.52-1.85-.36-.08-.37-.7-1.08-.24-.1,.06-.25,.03-.26-.06-.18-1.32-1.77-.92-2.26-1.86-.1-.2-.14-.46-.22-.67-.09-.22-.11-.56-.33-.58-1.9-.16-2.4-1.93-3.62-2.88-.43-.34-.38-1.12-1.45-.88-.16,.04-.31-.16-.26-.32,.39-1.46-.93-1.73-1.19-2.74-.14-.48-.96-.68-.33-1.53,.08-.11-.1-.23-.22-.31-.21-.13-.57-.18-.64-.38-.19-.55,.06-1.33-.44-1.66-.31-.21-.48-.47-.61-.74-.12-.28-.16-.58-.26-.86-.11-.33,.21-.79,.21-1.15,0-.34-.17-.64-.26-.96-.13-.45-.34-.92-.22-1.4,.14-.49-.92-.71-.32-1.32,.44-.44-.49-.79-.62-1.24-.06-.22,.04-.47,.13-.69,.07-.17,.39-.35,.36-.5-.06-.35,.07-.69-.33-1.07-.28-.27,.29-.72,.38-1.09,.09-.37,.06-.75,.08-1.12,0-.38,.28-.74,.1-1.11-.39-.8-.38-1.58-.24-2.33,.18-.73,.48-1.44,.59-2.18,.05-.39-.16-.91,.77-.98,.17-.01,.24-.21,.18-.35-.37-.84-.22-1.56,.06-2.22,.29-.66,.69-1.27,.77-1.99,.12-1.04,.1-2.11,.6-3.02,.48-.88,1.14-1.68,1.15-2.73,.01-.86,.07-1.68,.6-2.27,.52-.57-.72-1.99,.91-1.98,.33-.67,.63-1.37,1.02-2,.33-.53,.28-1.27,1.31-1.43,.38-.06,.55-.45,.41-.79-.47-1.1,.09-1.64,.85-2.14,.18-.12-.11-.52-.03-.71,.23-.6,.44-1.21,.82-1.73,1.16-1.56,.96-3.63,1.59-5.3,.12-.31-.4-.89-.14-1.1,1.09-.84,1.21-2.12,1.43-3.17,0-.11,0-.11,.06-.36,.06-.26,.15-.64,.33-1.11,.21-.54,.46-1.19,.8-1.84,.35-.66,.8-1.28,1.28-1.8,.99-1.04,1.92-1.6,2.86-2.11,1.43-.67,2.16-.77,3.02-.96,.83-.17,1.59-.26,2.36-.28,.4-.02,.87,.68,1.03,.46,.52-.7,1.2-.18,1.65-.7,.81-.93,1.67-.36,2.49-.61,.6-.18,1.26,.4,1.8-.6,.08-.15,.29-.12,.4,0,.89,.94,1.77-.45,2.65,0,1.7-1.11,3.43-.26,5.13-.4,.25-.02,.51-.25,.77-.37,.13-.06,.29-.2,.39-.11,1.45,1.31,3.12,.53,4.7,1.05,.52,.17,1,.58,1.52,.78,.53,.21,1.18,.02,1.6,.88,.12,.26,.5,.23,.81,.22,.43,0,.83,.11,1.3,.43,.1,.07,.27,.19,.39,.3l.19,.18c.09,.08,.18,.17,.26,.25,.08,.09,.16,.17,.23,.26,.11,.12,.26,.3,.37,.45,.12,.17,.19,.3,.31,.5,.18,.29,.32,.61,.41,.93,.05,.16,.08,.31,.1,.46,.03,.18,.05,.41,.05,.62,0,.43-.08,.85-.2,1.19-.23,.54-.57,.93-.92,1.22-.24,.13-.45,.17-.66,.21-.21,.03-.4,.02-.51-.06-.52-.26-.88-.73-1.17-1.29-.21-.41-.26-.66-.3-.84,0-.09-.05-.16-.09-.21l.1,.07s.03,.04,.05,.05c.02,.03,.14,.05,.1,.04-.02,0,.04,0-.03,.01-.05,.01-.1,.04-.12,.08-.08,.05-.16,.12-.22,.2-.05,.07-.1,.16-.21,.28l-.11,.15-.02,.04s-.03,.05-.06,.07c-.05,.04-.08,.08-.13,.11-.2,.11-.4,.14-.63,.05-.34-.15-.75-.53-1.28,.28-.09,.13-.27,.07-.35-.06-.59-.9-1.52-.39-2.15-1.01-.5-.48-1.02-.42-1.52-.64-.43-.19-.93,.24-1.3-.6-.13-.28-.62,.38-.94,.39-.74,.02-1.48,.02-2.2-.14-2.22-.48-4.44,.77-6.64,.46-1.55,1.15-3.21,.16-4.73,.82-.91,.4-1.81,.56-2.67,.7-.44,.07-.85,.14-1.23,.23-.35,.09-.75,.23-.79,.34,0,0,0,.02-.01,.02l-.17-.33-.1-.17-.05-.08v-.02s.3,.6,.3,.6h0s0,0,0,0h0s0,0,0,0h0s-.09,.05-.15,.06c-.11,.02-.24,0-.39-.06-.22-.09-.44-.17-.54-.1-.36,.31-.32,.39-.53,1.02-.11,.32,.43,1.02-.74,1.46-.15,.04-.2,.27-.13,.43,0,.02,.01,.03,.02,.05,.81,1.11-.08,1.82-.23,2.69-.06,.34-.2,.63-.68,.84-.52,.23-.69,.81-.47,1.33,.16,.39,.07,.65,.04,.96-.12,1.29-1.62,2.01-.93,3.62-1.29,.1-1.28,.94-1.3,1.62-.09,2.64-1.86,4.44-2.74,6.65-.21,.53-.9,.82-1.25,1.3-.36,.5-.6,1.06-.82,1.63-.12,.3-.62,.48,.02,1.06,.05,.04,.06,.11,.03,.14-.27,.25-.7,.43-.8,.76-.09,.3,.3,.79,.31,1.12,.01,.4-.13,.75-.27,1.09-.13,.33-.12,.75-.91,.72,.71,.63,.15,.81,.07,1.17-.07,.33-.25,.62-.38,.93-.14,.35-.3,.69-.43,1.04-.13,.35-.33,.67-.37,1.05-.05,.52,.07,1.09,0,1.58-.06,.52-.21,1.02-.46,1.48-.32,.58-.75,1.12-1.04,1.71-.13,.24,.04,.52,.3,.83,.33,.43,1.17,1-.1,1.19-.25,.04-.23,.35-.1,.54,.53,.74,.47,1.38,.4,2-.07,.62-.37,1.28-.13,1.89-.89,.7-.34,1.4,.04,2.04,.28,.48,.5,.97,.6,1.47,.1,.51,.2,1,.06,1.57-.07,.3-.08,.59-.05,.86,.03,.28,.15,.52,.24,.78,.21,.5,.45,.99,.56,1.54,.08,.31,.56,.4-.06,1.06-.14,.15,.02,.33,.2,.38,.64,.15,.99,.43,1.23,.81,.25,.38,.34,.87,.41,1.43,.1,.58,.72,.82,1.35,1.02,.92,.31,1.3,1.21,1.94,1.86-.44,1.03,.53,.47,.98,.27,.61-.26,.85-.18,1.1,.02,.32,.25,.51,.66,1.25,.4,.37-.13,.67,.22,.62,.64-.07,.57,.16,.46,.57,.38,.49-.1,.15,.88,.52,1.09,.39,.23,1.11,.11,.78,1.23-.03,.1,.09,.17,.19,.14,1.33-.44,1.06,1.38,2.06,1.43,1.41,2.44,4.2,2.89,6.23,4.5,.83,.68,1.42,1.89,2.58,1.95,2.44,.09,4.11,1.72,6.22,2.48,.45,.16,1.14-.06,1.09,1.08,0,.16,.2,.23,.34,.15,1.05-.6,1.54-.05,1.94,.84,.1,.22,.4,.33,.6,.13,.56-.55,.76-.15,1.05,0,.34,.17,.57,.96,.92,.71,.76-.54,.67,.38,.96,.65,.18,.17,.49,.08,.76,.06,.13,0,.38-.25,.41-.16,.36,1.12,1.54,.19,2.09,.8,.12,.13,.29,.18,.39,.33,1.21,1.75,1.22,1.76,3.53,1.98,.12,1.43,1.47-.11,1.72,1.02,.1,.42,.55,.49,.92,.34,1.58-.68,2.59,.57,3.97,.62,.29,.01,.25,.91,.79,.33,.2-.22,.43,.65,.74,.7,.44,.08,.76,.66,1.42-.03,.27-.28,.58,.09,.88,.1,.42,.01,.72,.44,1.31-.13,.32-.31,.83-.18,.99,.21,.65,1.62,1.93,.68,3.02,.47,.33-.06,.57-.13,.81,.16,.35,.41,.8,.94,1.25,.64,.79-.53,1.27-.08,1.85,.04,1.02,.22,1.97,.66,3.01,.89,1.19,.26,2.22,1,3.69,.83,.39-.06,.88-.03,1.28,.15,.2,.09,.39,.23,.54,.43,.17,.22,.3,.5,.36,.86,.03,.16,.65-.25,.87-.13l.15,.08-5.15,9.1c-1.25-.68-2.48-1.38-3.66-2.17-.28-.19-.03-1.35-.75-.73-.78,.67-.12-1.16-.94-.29-.12,.13-.38-.05-.45-.22-.86-1.92-2.86-1.99-4.19-3.14-.32-.27-.97-.11-.74-1.12-1.47,.36-1.29-2.14-3.08-1.22-.49-.65-1.67-.31-1.66-1.69,0-.22-.37-.13-.39-.34-.07-.73-1.28,.59-1.25-.48,.02-.62-.66-.69-1.04-.98-.36-.27-.74-.49-1.11-.75l-1.22-.83c-.41-.27-.77-.61-1.22-.82-.91-.42-2.12-.4-2.78-1.23-.07-.09-.3-.09-.44,.03-1.16,1.02-1.09,.04-1.11-.52-.02-.47-.11-.76-.37-.94-.7-.49-1.42-.97-2.04-1.57-.37-.35-1.1-.31-.89-1.36,.06-.32-.3-.52-.61-.5-1.46,.1-1.97-1.07-2.9-1.68-.42-.28-.79-.63-1.15-.98-.27-.27-.99-.05-.86-.76-2.22-.35-3.1-2.3-4.54-3.59-1.45-1.29-2.69-2.84-3.89-4.43-.29-.4-1.02-.57-.48-1.52,.1-.18-.11-.47-.34-.44-.61,.08-.98,.05-.57-.63,.08-.13-.21-.26-.41-.3-.56-.13-.73-.48-.65-1.04,.06-.44-.03-.91-.38-1.09-.47-.24-.92-.5-1.19-.86-.26-.37-.34-.85-.07-1.49,.07-.16-.69-.14-.74-.35-.2-.79-1.06-1.34-.56-2.41,.2-.43-.21-.79-.24-1.22-.04-.73-.8-1.23-.63-2.07,.08-.42,0-.81-.09-1.21-.08-.41-.2-.81-.25-1.22-.1-.82-.13-1.66-.14-2.49,.01-.84,.04-1.67,.15-2.51,.07-.84,.27-1.65,.43-2.47,.23-.79,.42-1.62,.71-2.35l.41-1.13,.47-1.06c.22-.5,.55-.89,1.15-1.17,1.51-.74,2.14-2.08,2.5-4.11,.03-.14,.15-.24,.23-.35,1.01-1.52,1.92-3.08,3.2-4.3,.56-.54,1.38-.86,1.8-1.52,.27-.43,.69-.71,.5-1.5-.16-.66,.92-.55,.47-1.51-.16-.35,.14-.71,.5-.72,1.21-.03,1.32-.97,1.85-1.53,.62-.65,1.12-1.38,1.59-2.13,.22-.37,.73-.53,.34-1.33-.18-.39,.3-.65,.75-.73,.69-.11,.87-.56,.92-1.05,.12-1.04,.02-1.06,.97-1.56,.11-.06,.18-.16,.23-.26,.52-.96,1.37-1.84,1.26-2.95-.03-.46,0-.86,.03-1.24,.07-.38,.13-.74,.19-1.09,.07-.3-.34-.65,.67-.76,.15-.02,.15-.19,.03-.27-1.04-.66-.46-1.17-.55-1.74-.01-.27-.31-.48-.55-.67-.12-.1-.23-.19-.3-.3-.09-.1-.15-.21-.14-.35,.07-.53-.35-.95-.56-1.42-.44-.71-.03-1.21,2.22-2.76,1.86-1.28,2.43-1.29,3.41-.59,.53,.37,.88,.88,1.21,1.38,.32,.52,.49,1.1,.68,1.66,.15,.57,.22,1.15,.32,1.68,.06,.55,.11,1.07,.23,1.57Z"/>
          </g>
          <g>
            <path class="cls-12" d="M106.24,647.4c6.68,11.75,15.22,23.68,17.76,35.46,2.1,9.76,35.79,20.73,68.22,28.57,34.71,8.39,81.43,15.39,135.97,19.62-29.77-3.3-55.49-7.56-80.74-11.83-9.28-1.57-18.53-3.15-27.2-4.81-59.51-11.46-77.46-25.31-87.34-40.1-3.7-5.54-7.09-21.26-5.05-26.83,.91-2.48-1.15-2.65-7.95-2.84-8.2-.24-13.68-.34-13.41,3.24"/>
            <path class="cls-12" d="M114.32,657.39c1.95,3.26,3.45,5.99,5.05,8.68,.26,.41,.96,.66,1.24,1.22,1.1,2.19,2.65,4.32,3,6.79,.39,2.67,1.16,5.15,2.13,7.52,.1,.25,.2,.51,.31,.76,.29,.59,.62,1.15,1.11,1.77,.25,.3,.53,.61,.83,.91,.33,.29,.62,.59,.99,.86,.28,.2,.56,.39,.8,.64,.26,.24,.48,.56,.61,1.03,.2,.69,1.08,1.33,2.15,1.09,.21-.05,.41,.26,.58,.44,.18,.2,.27,.65,.5,.65,2.43,.06,4.01,1.84,6.15,2.53,.53,.16,.93,.74,1.68,.21,.19-.13,.7,.05,.77,.28,.19,.61,.55,.88,1.04,1.08,2.12,.86,4.26,1.72,6.42,2.53,1.41-.56,2.44,.3,3.58,.71,.85,.3,1.59,.94,2.39,1.42,.81,.48,1.94,.19,2.49,1.31,.09,.18,.51,.03,.76,.1,1.12,.29,2.36,.35,3.29,.99,.48,.33,.96,.66,1.49,.82,6.86,2.15,13.81,4.07,20.79,5.85,.61,.15,1.16,.42,1.95,.01,.61-.31,1.72-.06,2.09,.51,.6,.92,1.41,.81,2.15,1.03,1.36,.42,2.78,.64,4.15,1.04,.81,.24,1.84-.04,2.33,1.12,.05,.11,.31,.17,.42,.1,1.13-.74,1.84,.27,2.73,.59,.65,.24,1.32,.37,2.15,.06,.81-.3,2.01-.12,2.55,.52,.73,.85,1.59,.81,2.41,.98,4.84,1.07,9.71,2.05,14.6,2.9,2.32,.39,4.75-.07,7.02,.69,.54,.18,1.21-.09,1.59,.69,.08,.16,.54,.15,.75,0,.74-.52,1.34-.17,2.05-.02,3.23,.71,6.49,1.59,9.78,1.52,2.56-.06,4.98,.5,7.47,.73,.83,.07,1.59,.67,2.41,.9,.8,.21,1.63,.28,2.45,.35,.49,.04,.95,.31,1.51-.18,.3-.27,1.01-.25,1.26,.03,.84,.96,1.9,.79,2.89,.94,2.82,.43,5.67,.74,8.49,1.16,.69,.11,1.52-.21,2.04,.73,.07,.13,.51-.1,.77-.15,.28-.05,.65-.27,.84-.12,1.7,1.35,3.71,.94,5.58,1.22,4.54,.63,9.12,1.01,13.67,1.63,1.27,.18,2.47-.45,3.7-.27,1.19,.17,2.4,.21,3.59,.39,.84,.13,1.78-.18,2.48,.78,.19,.26,.81,.31,1.08,.11,1.03-.78,2.02-.23,3.03-.27,1.23-.04,2.43,.63,3.71-.19,.34-.22,.92,.32,1.41,.41,.85,.15,1.7,.25,2.56,.28,.41,.02,.84-.28,1.25-.27,3.17,.07,6.36,.05,9.52,.21,1.18,.06,2.35,.14,3.52,.24l-.57,6.1-6.15-.73c-3.23-.38-6.46-.7-9.67-1.22-1.2-.19-2.6,.32-3.56-1.02-1.21,.57-2.13,.01-2.99-.93-.12-.14-.52,.16-.79,.22-.86,.2-1.8,1.31-2.51-.13-.03-.05-.15-.01-.22-.04-.72-.29-1.43,.97-2.26,.04-.52-.58-1.51-.5-2.3-.66-.81-.16-1.64-.33-2.47-.34-.86,0-1.69-.75-2.62,.12-.15,.14-.67-.64-1.04-.64-1.91-.03-3.71-1.22-5.73-.33-.46,.2-1.13,.07-1.54-.23-1.49-1.1-3.08-.88-4.79-.83-2.25,.08-4.62-.13-6.56-1.71-.41-.34-.58-.57-1.11-.21-.35,.24-.87,.09-1.29,.02l-14.28-2.34c-1.3-.22-2.34-1.36-3.73-1.23-.57,.05-1.13-.53-1.72,.19-.08,.1-.32,.12-.41,.05-1.44-1.19-3.24-.14-4.76-.81-.32-.14-.62-.38-.94-.53-.33-.16-.69-.46-1-.38-2.63,.7-4.99-.59-7.5-.74-.86-.05-1.68-.73-2.61,.11-.14,.13-.51,.05-.65-.11-1.23-1.42-2.97-.81-4.4-1.37-.74-.29-1.71,.19-2.22-.89-.06-.14-.39-.09-.59-.06-.35,.06-.74,.32-1.05,.24-.88-.21-1.74-.91-2.58-.73-1.04,.21-1.92-.09-2.85-.26-.53-.09-.97-.64-1.49-.85-.49-.2-1.03-.23-1.55-.34-.74-.15-1.54-.14-2.2-.5-.68-.37-1.47,.51-2.13-.33-.51-.64-1.41,.13-2.12,.09-.35-.01-.7-.21-1.02-.39-.25-.14-.43-.51-.68-.54-.56-.07-1.06-.37-1.74-.08-.47,.2-1.08-.5-1.65-.71-.57-.2-1.18-.28-1.77-.42-.59-.14-1.18-.47-1.77-.37-2.59,.47-4.83-.81-7.23-1.27-.62-.12-1.41,.03-1.71-.94-.05-.17-.4-.27-.6-.23-2.56,.57-4.63-1.07-6.99-1.38-1.69-.21-3.41-.28-5.02-.93-1.56-.62-3.13-1.38-4.8-1.5-1.36-.14-2.72-.3-3.87-.97-1.12-.66-2.92,.56-3.55-1.29-1.21-.51-2.44-.97-3.63-1.54-1-.47-2.2-.57-2.81-1.83-.22-.45-.92-.76-1.42-.69-1.63,.2-2.77-.56-3.78-1.67-.24-.25-.81-.08-1.16-.25-1.05-.53-2.13-1.01-3.08-1.71-1.38-1.1-2.95-1.85-4.51-2.66l-2.31-1.29c-.77-.44-1.53-.9-2.21-1.49-.51-.42-1.51-.35-1.84-.86-.25-.39-.53-.75-.82-1.1-.28-.36-.57-.71-.88-1.04-.61-.66-1.27-1.27-1.95-1.87-.65-.62-1.28-1.27-1.89-1.92-.61-.66-1.17-1.36-1.58-2.16-.62-1.17-1.35-2.24-2.01-3.34-.34-.54-.69-1.08-1.05-1.61-.18-.24-.37-.57-.57-.9-.19-.32-.4-.65-.57-.97-1.34-2.51-2.29-4.92-2.93-7.43-.16-.65,.35-1.52,.07-1.76-.87-.78-.61-2-1.25-2.69-1.18-1.26-.87-2.83-1.3-4.24-.33-1.04,.14-2.26-.96-3.17-.16-.14-.16-.53-.05-.74,.4-.83,.26-1.62,.1-2.47-.09-.42-.21-.82-.23-1.28-.01-.3-.04-.24-.03-.32,0-.04,.02-.07,.07-.11l.02-.02c-.56-.19-.58-.14-.59-.31-.04-.12-.14-.24-.35-.14-.06,.03-.18,.27-.22,.41-.03,.07-.05,.22-.04,.14,.01-.08,.01-.14,.01-.2-.02-.03,.04-.06-.05-.09l-.23-.08c-.31-.1-.62-.17-.94-.23-.63-.1-1.27-.13-1.91-.12-1.27,.01-2.52,.14-3.7-.02-.78-.1-1.52-.41-2.24-.49-.7-.06-1.34,.29-1.9-.33-.11-.1-.22-.1-.28-.06-.06,.04-.19,.11-.17,.17,0,.04,0,.06,0,.08,.03,.08-.11-.19-.18-.31l-.15-.31c-.17-.37-.58-.79-.62-.88-.07-.08-.15-.15-.23-.21-.06-.04-.05-.04-.05-.04,0,0,0,0,0-.01,0,0-.02-.02-.04-.03-.03-.01,0,0,.04,.02l.09,.03c.13,.04,.17,.03,.33,.05l.15,.03s.07,0,.05,0h-.08c-.11,0-.23,0-.36,0-.5,.02-1.08,.13-1.72,.19-.89,.09-1.02-.32-1.23-.93-.1-.3-.17-.64-.1-.98,.02-.17,.06-.35,.11-.53,.07-.16,.14-.31,.24-.47,.37-.63,.95-1.04,1.57-1.26,.98-.31,1.95-.21,2.59-1.17,.11-.17,.52-.19,.73-.09,1.5,.65,3.01,0,4.3,.55,.98,.42,1.88,.33,2.8,.52,.77,.16,1.59-.28,2.34,.55,.28,.28,.97-.4,1.68-.4,1.5-.01,3.12,.02,4.42,.46,.57,.18,1.13,.39,1.65,.72,.26,.16,.49,.4,.63,.67,.14,.28,.2,.57,.2,.84l-.18,3.67c-.03,1.13,.06,1.78,.12,2.57,.03,.76,.13,1.55,.09,2.34,1.36,2.5,.81,5.37,1.98,7.86,.71,1.48,1.2,2.99,1.73,4.46,.53,1.46,1.07,2.95,1.86,4.15,.31,.53,.52,.83,.52,1.44,.06,.41,.13,.85,.34,1.18,.42,.63,.86,1.26,1.32,1.86,.48,.59,.95,1.18,1.39,1.8,.45,.69,1.51,.95,1.2,2.2-.04,.17,.22,.44,.42,.47,1.64,.29,2.25,1.68,3.35,2.56,.42,.33,.75,.71,.96,1.36,.21,.71,1.02,1.32,1.76,1.44,.57,.08,.89,.38,1.34,.58,1.81,.84,2.83,3,5.2,2.89,.26,1.48,1.52,1.89,2.56,2.14,3.96,1.04,7.14,3.49,10.91,4.88,.91,.33,1.61,1.16,2.48,1.62,.91,.5,1.89,.86,2.89,1.15,.53,.17,1,.74,1.7,.12,.05-.05,.16-.05,.21-.02,.51,.33,.96,.83,1.52,.98,.51,.13,1.14-.23,1.68-.19,.65,.05,1.29,.22,1.9,.41,.6,.18,1.29,.21,1.54,1.06,.75-.72,1.29-.06,1.91,.07,.58,.12,1.13,.35,1.69,.54,.63,.21,1.28,.38,1.92,.57,.64,.19,1.27,.44,1.93,.54,.91,.13,1.86,.06,2.76,.22,.95,.17,1.87,.46,2.79,.77,1.14,.41,2.23,.99,3.36,1.44,.47,.19,.94,.08,1.49-.12,.73-.25,1.75-.97,2.26,.45,.1,.28,.69,.36,1.04,.28,2.82-.67,5.17,.96,7.8,1.2,1.2,1.26,2.7,.97,4.22,1,2.23,.06,4.54,.38,6.55,1.35,2.12,1.06,4.42,1.06,6.6,1.69,.62,.17,1.36-.05,1.73,.88,.09,.21,.57,.24,.85,.16,1.97-.56,3.68,0,5.43,.9,.92,.47,2.08,.31,3.22,.18,1.7-.2,3.4,.47,5.1,.77,.55,1.16,1.31,.21,1.76-.17,.61-.51,1.09-.53,1.7-.44,.77,.12,1.5,.44,2.37-.1,.45-.28,1.31-.05,1.67,.38,.48,.58,.73,.39,1.3,.16,.67-.27,1.14,.79,1.92,.88,.83,.09,1.87-.27,2.41,.93,.05,.11,.3,.14,.43,.07,1.7-.85,2.94,1,4.53,.77,4.31,1.98,9.05,1.7,13.51,2.85,1.84,.48,3.6,1.58,5.52,1.37,4.03-.42,7.8,.89,11.7,1.27,.83,.08,1.84-.27,2.43,.89,.08,.16,.46,.2,.64,.1,1.37-.79,2.52-.31,3.66,.51,.28,.2,.84,.26,1.06,.03,.62-.65,1.17-.27,1.72-.18,.66,.12,1.46,.87,1.9,.56,.96-.67,1.31,.27,1.94,.5,.39,.14,.85,0,1.28-.06,.2-.03,.49-.32,.6-.22,1.19,1.07,2.64-.06,3.88,.48,.27,.12,.56,.13,.82,.27q2.9,1.57,6.84,1.45c.9,1.42,2.37-.33,3.4,.79,.38,.41,1.19,.43,1.75,.23,1.82-.65,3.55-.16,5.3,.09l-.64,6.82c-.59-.07-1.17-.11-1.76-.08-.49,.03-.8-.87-1.48-.21-.26,.25-1-.58-1.53-.6-.78-.02-1.55-.56-2.39,.22-.34,.32-1.01-.01-1.53,.02-.71,.04-1.39-.34-2.16,.29-.42,.35-1.32,.28-1.74-.1-1.71-1.55-3.5-.45-5.24-.11-.52,.1-.89,.2-1.41-.06-.72-.36-1.69-.85-2.31-.49-1.1,.63-2.06,.23-3.06,.18-1.74-.09-3.46-.4-5.19-.46-1.98-.09-3.9-.65-5.98-.17-1.11,.26-2.57,.45-3.6-.81-.11-.14-.66,.44-.97,.41-2.49-.24-4.97-.49-7.44-.86-.57-.09-1.06-1.28-1.69-.44-.67,.9-1.05-1.07-1.66,.03-.09,.16-.61,.08-.86-.07-2.76-1.58-5.86-.97-8.75-1.68-.69-.17-1.56,.19-1.99-.85-1.93,.83-3.62-1.62-5.59-.15-1.24-.47-2.74,.25-3.81-1.08-.17-.21-.65,0-.85-.2-.69-.68-1.43,1-2.25-.04-.47-.59-1.53-.45-2.33-.59-.74-.14-1.5-.23-2.24-.34l-2.47-.37c-.82-.13-1.64-.31-2.47-.36-1.68-.1-3.42,.35-5.07-.21-.18-.06-.51,.02-.61,.19-.82,1.4-1.53,.43-2.03-.09-.42-.44-.8-.69-1.32-.77-1.42-.22-2.85-.41-4.25-.75-.83-.2-1.81,.13-2.44-.95-.2-.33-.88-.39-1.3-.25-1.94,.65-3.68-.26-5.51-.45-.83-.08-1.65-.27-2.46-.46-.62-.14-1.36,.37-1.87-.35-3.26,.62-6.22-.79-9.3-1.3-3.08-.47-6.11-1.26-9.14-1.97-.76-.19-1.71,.08-2.16-1.06-.09-.22-.64-.33-.84-.18-.57,.43-.97,.63-1.3-.2-.06-.15-.51-.1-.77-.01-.71,.24-1.26,.07-1.82-.44-.43-.4-1.06-.74-1.61-.65-1.45,.23-2.81,.39-3.86-.96-.13-.17-.74,.38-1.03,.27-1.1-.42-2.39-.18-3.31-1.26-.38-.44-1.12-.38-1.66-.62-.94-.41-2.02-.13-2.97-.71-.96-.59-2.17-.67-3.27-.97l-3.3-.93-3.29-.96-3.29-.99-3.28-1.02c-1.09-.34-2.19-.68-3.27-1.06-.76-.26-1.43-.6-2.07-1.24-1.63-1.62-4.02-2.31-7.18-2.62-.23-.02-.43-.16-.65-.24-2.8-1.06-5.69-2.01-8.34-3.5-1.16-.66-2.18-1.62-3.44-2.17-.83-.34-1.52-.9-2.62-.75-.92,.1-1.4-1.21-2.66-.86-.46,.12-1.22-.35-1.44-.83-.74-1.61-2.29-2.06-3.49-3.21-1.35-1.31-2.82-2.66-4.04-4.84-.43-.71-.55-1.61-.93-2.42-.12-.21-.31-.41-.62-.57-.46-.25-.37-1.12-.23-1.71,.24-.9-.05-1.66-.53-2.3-.97-1.39-1.05-1.32-1.13-3.06-.01-.21-.08-.41-.17-.59-.82-1.88-1.4-3.97-2.79-5.56-1.14-1.32-1.98-2.77-2.84-4.25-.33-.59-1.13-1.04-.55-2.05,.08-.14-.13-.47-.32-.55-1.67-.69-1.97-2.32-2.77-3.61-.77-1.25-2.23-1.95-2.82-3.37-.56-1.32-1.45-2.5-2.18-3.76-1.11-1.93-.83-2.64,1.55-3.98,1.97-1.11,2.66-.88,3.94,.39,2.72,2.66,4.01,6.21,5.81,8.65Z"/>
          </g>
        </g>
        <g>
          <path class="cls-10" d="M169.58,21.41c-.8,2.2-1.38,4.27-1.99,6.21-.59,1.94-1.14,3.79-1.63,5.64-.16,.58,.15,1.36-.05,2.09-.85,2.88-1.21,5.99-2.57,8.61-1.51,2.86-2.34,5.93-2.72,8.96-.34,2.88-1.21,5.57-1.77,8.36-.19,.94-.31,1.87-1.14,2.73-.6,.63-.99,1.96-.5,3.15,.1,.23-.16,.61-.31,.9-.16,.31-.57,.62-.53,.88,.45,2.99-1.11,5.59-1.5,8.42-.1,.7-.61,1.37,0,2.14,.16,.2,.03,.87-.2,1.03-.6,.41-.82,.93-.98,1.58l-2.04,8.51c.66,1.62-.16,3.09-.52,4.57-.27,1.11-.88,2.15-1.34,3.22-.46,1.08-.12,2.44-1.24,3.31-.18,.14-.02,.63-.08,.95-.26,1.43-.3,2.98-.93,4.23-.33,.64-.65,1.29-.81,1.97l-6.24,26.41c-.18,.77-.47,1.47-.09,2.42,.29,.74-.02,2.13-.61,2.64-.96,.81-.88,1.81-1.15,2.74-.49,1.72-.8,3.49-1.31,5.21-.3,1.02-.08,2.29-1.29,2.95-.12,.06-.19,.39-.13,.53,.67,1.38-.39,2.3-.8,3.41-.29,.81-.48,1.65-.24,2.68,.23,1-.07,2.49-.76,3.19-.93,.93-.97,1.99-1.24,3.01-1.55,6.03-3.19,12.04-4.79,18.07-.8,2.84-.73,5.9-1.95,8.66-.31,.65-.19,1.51-1.07,1.9-.18,.08-.28,.65-.18,.92,.34,.98-.14,1.68-.46,2.54-1.45,3.92-3.13,7.72-3.84,11.74-.49,3.13-1.48,6.05-2.2,9.07-.24,1.01-.99,1.89-1.37,2.88-.36,.96-.55,1.99-.76,3-.12,.6-.46,1.15-.06,1.87,.22,.39,.09,1.26-.23,1.55-1.1,.97-1.09,2.29-1.4,3.5l-.65,2.59-.55,2.62-1.12,5.23c-.19,.85,.02,1.89-1,2.49-.14,.08,.03,.63,.05,.96,.02,.35,.18,.82,0,1.04-1.57,2.05-1.33,4.58-1.81,6.89-.56,2.81-1.09,5.63-1.54,8.46-.44,2.84-.88,5.67-1.39,8.49-.29,1.58,.23,3.08-.05,4.6-.25,1.48-.37,2.99-.64,4.47-.19,1.05,.06,2.22-.96,3.08-.28,.24-.37,1-.18,1.34,.71,1.29,.09,2.52,.05,3.78-.05,1.53-.8,3.02-.04,4.62,.2,.43-.38,1.15-.49,1.76-.19,1.05-.35,2.12-.43,3.19-.04,.51,.23,1.05,.2,1.56l-.35,5.94c-.11,1.98-.21,3.96-.36,5.94-.29,4.03-.81,8.04-1.16,12.06-.35,4.03-.62,8.06-1.08,12.07-.18,1.51,.4,3.2-.91,4.5,.62,1.45,.09,2.64-.81,3.79-.13,.17,.18,.63,.26,.97,.24,1.05,1.39,2.1-.02,3.13-.05,.04,0,.18-.03,.27-.26,.92,1.04,1.67,.14,2.81-.55,.71-.44,1.92-.54,2.92-.11,1.03-.23,2.07-.18,3.1,.05,1.06-.64,2.18,.3,3.23,.15,.17-.59,.91-.57,1.37,.1,2.38-.96,4.75,.08,7.14,.24,.55,.16,1.39-.11,1.94-.96,1.99-.62,3.93-.41,6.04,.28,2.78,.29,5.73-1.1,8.37-.29,.56-.52,.81-.1,1.41,.27,.39,.18,1.06,.16,1.6-.23,6.02-.54,12.03-.74,18.05-.06,1.64-1.07,3.13-.77,4.83,.12,.7-.39,1.5,.4,2.1,.11,.08,.16,.38,.1,.5-1.01,1.98,.25,4.04-.2,6.03-.09,.43-.29,.83-.4,1.26-.11,.43-.36,.93-.23,1.31,1.06,3.12,.11,6.27,.31,9.39,.07,1.06-.49,2.22,.47,3.19,.14,.15,.12,.62-.02,.82-1.23,1.79-.36,3.81-.71,5.69-.18,.97,.44,2.07-.55,2.91-.13,.11-.04,.5,.03,.74,.11,.42,.42,.84,.4,1.24-.07,1.12-.64,2.33-.34,3.33,.37,1.23,.18,2.38,.18,3.55,0,.67-.45,1.33-.57,2.02-.11,.64-.04,1.31-.05,1.97-.02,.94,.14,1.92-.09,2.81-.24,.92,.77,1.68,.06,2.69-.54,.77,.38,1.69,.47,2.57,.05,.44-.07,.9-.19,1.34-.09,.33-.42,.65-.39,.96,.05,.7-.15,1.38,.28,2.14,.29,.52-.27,1.44-.34,2.19-.08,.75-.03,1.5-.04,2.26,0,.75-.22,1.57,0,2.25,.99,3.01,.33,6.07,.43,9.1,.03,.78,.37,1.68-.5,2.35-.15,.12-.17,.56-.08,.79,1.19,2.89,.2,5.89,.52,8.82,.23,2.09,.68,4.14,.56,6.27-.11,2.07-.36,4.2,.05,6.2,.34,1.64,.65,3.26,.42,4.86-.23,1.57,1.51,3.09,.05,4.62,0,1.6,.05,3.2-.02,4.8-.06,1.35,.32,2.72-.53,4.03-.31,.48-.29,1.4,0,1.93,.9,1.68,.64,3.31,.19,5.01-.11,.4,.32,.91,.34,1.37,.05,1.41,.12,2.83,0,4.24-.37,4.19,.64,8.31,.65,12.48,0,.77,.69,1.62,.51,2.3-1.1,4.14,.05,8.38-.59,12.49-.95,6.06-.26,12.11-.47,18.16-.03,.79-.76,1.61-.55,1.98,.65,1.16,.09,2.48,.58,3.45,.88,1.74,.28,3.47,.5,5.18,.16,1.25-.44,2.59,.55,3.75,.14,.17,.12,.6,0,.83-.95,1.83,.43,3.66-.01,5.49,1.11,3.47,.29,7.03,.49,10.55,.03,.52,.27,1.02,.39,1.54,.06,.26,.21,.57,.12,.79-1.26,3.17-.37,6.48-.81,9.72-.14,1.07-.5,2.1-.66,3.17-.15,1.07,.11,2.2-.69,3.19-.25,.31-.16,.94-.09,1.4,.38,2.52-1.3,4.29-3.83,4.17-.92-.04-.95-.55-1.26-1.1-.61-1.06-.99-2.09-.86-3.33,.1-.96,.44-2.01-.4-2.9-.14-.15-.1-.59,.02-.82,.84-1.62,.27-3.51,.85-5.06,.45-1.19,.38-2.31,.56-3.46,.16-.97-.29-1.98,.53-2.93,.28-.32-.4-1.29-.42-1.97-.05-1.6-.06-3.21,.07-4.8,.42-4.84-.84-9.62-.49-14.46-1.11-3.46-.07-7.04-.63-10.49-.67-4.17-.3-8.33-.6-12.48-.06-.85-.04-1.54,.25-2.3,.19-.49,.39-1.02,.4-1.53,.05-1.98-.06-3.96,.04-5.93,.05-1.06-.53-2.24,.54-3.18,.15-.13,.13-.61,0-.82-1.07-1.73-.42-3.62-.56-5.43-.05-.69-.01-1.36,.37-2.11,.41-.81,.37-2.09-.02-2.94-.29-.64-.3-1.21-.39-1.83-.36-2.55,.72-5.2-.57-7.69,1.13-1.31,.76-2.94,.49-4.27-1.04-5.1-.28-10.23-.47-15.33-.05-1.23,.44-2.48,.54-3.72,.1-1.31,.06-2.64,.01-3.96-.03-.7,.35-1.52-.47-2.07-.06-.04-.1-.17-.09-.24,.14-.75,.45-1.51,.4-2.25-.05-.66-.61-1.27-.75-1.94-.17-.8-.19-1.64-.2-2.46-.01-.79-.2-1.65,.54-2.29-.91-.63-.45-1.54-.52-2.33-.06-.75,0-1.51,0-2.26l.02-2.55c0-.85,.09-1.7,0-2.54-.12-1.16-.44-2.29-.53-3.45-.09-1.22-.08-2.46,.02-3.68,.13-1.53,.42-3.05,.6-4.57,.07-.63-.15-1.17-.46-1.79-.42-.82-1.35-1.87-.1-2.92,.25-.21,.19-.95,.03-1.37-1.24-3.29-.14-6.65-.45-9.97,.98-1.81,.42-3.59,.19-5.49-.34-2.79-.45-5.74,.16-8.46,.64-2.88,.37-5.71,.65-8.55,.08-.8-.25-1.67,.61-2.33,.2-.15,.16-.76,.03-1.09-.84-2.33-.54-4.57,.09-6.91,.34-1.24,.02-2.65-.27-4.03-.43-2.08,0-4.32,.05-6.48,1.07-.91,.03-1.67-.41-2.16-.59-.66-.68-1.27-.67-2.03,0-.98,.23-1.95-.41-2.94-.33-.51-.21-1.62,.18-2.14,.51-.7,.3-.98,0-1.64-.35-.79,.65-1.56,.63-2.53-.02-1.04-.5-2.28,.63-3.16,.1-.08,.1-.4,.02-.55-1.05-1.97,.63-3.83,.22-5.76,1.5-5.69,.68-11.54,1.4-17.28,.3-2.37,1.24-4.72,.86-7.09-.39-2.49-.34-4.95-.18-7.42,.18-2.46,.47-4.92,.52-7.38,.02-1.04-.39-2.28,.73-3.15,.16-.12,.17-.6,.05-.82-.88-1.62-.48-3.12,.28-4.64,.18-.37,.21-1.08-.03-1.33-.68-.7-.33-1.44-.26-2.14,.08-.84,.8-1.91,.47-2.44-.71-1.13,.22-1.67,.42-2.48,.13-.5-.04-1.07-.12-1.6-.04-.25-.34-.59-.25-.73,1.02-1.59-.16-3.31,.33-4.92,.11-.34,.11-.72,.24-1.05q1.52-3.77,1.34-8.7c1.41-1.22-.36-2.96,.75-4.32,.4-.5,.41-1.52,.21-2.21-.87-3.01,.34-5.91,.3-8.86,0-.62,.9-.99,.28-1.84-.23-.32,.63-1.24,.67-1.91,.06-.97,.63-1.94-.12-2.99-.31-.43,.06-1.27,.07-1.92,0-.89,.43-1.74-.16-2.7-.32-.53-.2-1.66,.2-2.17,1.65-2.12,.65-4.37,.41-6.55-.07-.66-.15-1.12,.14-1.76,.4-.9,.95-2.1,.64-2.88-.55-1.38-.09-2.57,.04-3.82,.21-2.17,.64-4.32,.83-6.49,.2-2.48,.94-4.87,.65-7.47-.16-1.39-.22-3.22,1.13-4.49,.15-.14-.39-.83-.33-1.22,.22-1.55,.43-3.1,.69-4.65,.28-1.55,.57-3.09,.9-4.62,.15-.71,1.41-1.29,.63-2.1-.83-.87,1.19-1.28,.15-2.07-.15-.12-.02-.76,.16-1.07,1.81-3.4,1.72-7.27,2.78-10.86,.26-.86,0-1.95,1.11-2.44-.29-1.22,.22-2.33,.68-3.45,.48-1.11,.88-2.23,.3-3.51,.67-1.52,.2-3.43,1.7-4.67,.24-.2,.1-.81,.34-1.05,.79-.81-.77-1.86,.4-2.8,.68-.54,.75-1.87,1.06-2.85,.29-.91,.53-1.84,.79-2.75l.87-3.03c.29-1.01,.65-2.01,.85-3.03,.48-2.07,.49-4.27,1.45-6.24,.1-.21,.11-.64-.04-.78-1.19-1.19-.05-1.96,.6-2.5,.54-.46,.88-.9,1.08-1.54,.54-1.69,1.03-3.34,1.67-4.96,.38-.96,.27-2.14,1.47-2.8,.37-.21,.54-1.04,.47-1.56-.33-2.41,.87-4.44,1.36-6.64,.23-.99,.52-1.99,.81-2.97,.22-.75-.2-1.67,.6-2.26-.19-3.99,1.59-7.54,2.38-11.33,.8-3.76,1.83-7.46,2.79-11.2,.24-.93,.03-2.09,1.21-2.69,.22-.11,.38-.79,.23-1.04-.4-.68-.57-1.15,.29-1.59,.16-.08,.13-.63,.06-.94-.2-.86,0-1.53,.56-2.24,.43-.55,.8-1.35,.74-2.01-.16-1.76-.27-3.42,1.15-4.8,.17-.17-.35-.88-.23-1.24,.46-1.37,.27-2.93,1.39-4.15,.46-.5,.42-1.4,.67-2.09,.44-1.19,.18-2.49,.79-3.7,.62-1.23,.71-2.72,1.04-4.09l.97-4.13,.97-4.13,.97-4.13,.97-4.13,.98-4.13c.24-.96,.56-1.83,1.18-2.7,1.58-2.24,2.16-5.27,2.26-9.14,0-.28,.12-.55,.19-.83,.85-3.58,1.56-7.21,2.69-10.7,.5-1.53,1.32-2.99,1.64-4.61,.2-1.06,.61-2.04,.26-3.23-.29-1,.9-1.99,.24-3.23-.24-.45,.02-1.43,.42-1.86,1.32-1.41,1.28-3.24,1.77-4.89,.56-1.9,1.05-3.83,1.49-5.76,.22-.95,.77-1.81,.28-2.97-.24-.57,.31-1.64,.81-2.25,.77-.94,.96-2.03,1.02-3.09,.12-2.28,.06-2.28,1.21-4.26,.14-.24,.22-.51,.29-.77,.75-2.65,1.86-5.25,2.12-7.95,.24-2.25,.88-4.35,1.5-6.48,.25-.84,.12-1.96,1.29-2.37,.17-.06,.3-.54,.24-.79-.53-2.1,.72-3.84,1.33-5.67,.59-1.78,.33-3.71,1.16-5.47,.83-1.64,1.43-3.45,2.13-5.19,1.09-2.64,1.86-2.95,4.34-1.81,2.05,.95,2.23,1.79,1.85,3.97-.2,1.16-.5,2.27-.85,3.34-.18,.54-.37,1.06-.57,1.58-.18,.53-.36,1.05-.54,1.57-.74,2.06-1.53,4-2,5.81Z"/>
          <g>
            <path class="cls-9" d="M128.01,201.3c-7.31,.99-14.49-8.29-16.4-16.78-1.9-8.49-.58-17.93,.94-26.97,5.62-33.48,13.76-66.61,24.05-98.9,2.16-6.78,4.49-13.68,8.36-19.32,3.87-5.64,9.62-9.89,15.21-9.32,6.52,.67,11.2,7.76,12.62,15.6,1.42,7.84,.23,16.34-1.07,24.55-5.84,36.82-14.28,72.04-26.86,106.98-1.86,5.16-7.42,12.02-11.4,14.83-4.56,3.23-7.12,5.8-11.44,5.32"/>
            <path class="cls-9" d="M117.88,199.8c-2.37-2.12-3.76-4.21-5.2-6.25-.21-.32-.99-.38-1.22-.83-.88-1.75-2.28-3.46-2.13-5.55,.17-2.28-.06-4.17-.82-6.02-.72-1.76-.65-3.57-.83-5.35-.05-.6-.2-1.2,.56-1.83,.55-.46,.63-1.3-.29-1.98-.18-.13,.03-.39,.13-.58,.1-.21,.53-.42,.41-.59-1.35-1.83-.06-3.53-.21-5.28-.03-.44,.45-.85-.47-1.34-.24-.13-.22-.55,.02-.65,.64-.25,.81-.56,.86-.97,.21-1.76,.51-3.5,.8-5.23-1.11-1.05-.38-1.91-.22-2.81,.12-.68,.68-1.28,1.03-1.91,.36-.64-.3-1.51,.9-1.97,.19-.07-.09-.39-.07-.59,.07-.87-.17-1.83,.39-2.56,.28-.37,.56-.75,.64-1.16,1-5.31,2.05-10.62,3.12-15.92,.09-.46,.33-.87-.28-1.51-.48-.5-.33-1.34,.31-1.59,1.03-.4,.78-1.03,.95-1.59,.32-1.02,.41-2.1,.75-3.12,.2-.61-.28-1.44,1.09-1.7,.13-.03,.17-.22,.07-.32-1.05-.96,.1-1.4,.42-2.05,.23-.47,.33-.98-.14-1.66-.45-.66-.34-1.57,.39-1.92,.97-.47,.84-1.13,.99-1.74,.92-3.6,1.82-7.2,2.64-10.82,.38-1.71-.26-3.67,.61-5.28,.21-.38-.14-.95,.82-1.09,.2-.03,.18-.38,0-.57-.65-.67-.23-1.06-.05-1.58,.81-2.35,1.89-4.66,1.83-7.19-.05-1.98,.68-3.7,1.02-5.55,.11-.62,.86-1.06,1.16-1.63,.29-.56,.4-1.17,.52-1.78,.07-.36,.42-.65-.17-1.19-.31-.29-.27-.83,.09-.95,1.21-.4,1.04-1.25,1.27-1.97,.66-2.04,1.2-4.11,1.89-6.14,.17-.5-.16-1.21,1.02-1.34,.16-.02-.09-.41-.13-.62-.05-.23-.28-.56-.08-.66,1.75-.91,1.42-2.53,1.9-3.87,1.15-3.23,1.99-6.58,3.35-9.78,.38-.89-.19-2.02,.22-2.89,.39-.84,.65-1.74,1.11-2.55,.31-.58,.17-1.43,1.43-1.5,.35-.02,.55-.44,.37-.75-.65-1.15,.24-1.62,.47-2.38,.3-.95,1.39-1.41,.95-2.84-.11-.39,.66-.48,.95-.77,.47-.52,.92-1.05,1.31-1.63,.18-.28,.09-.79,.28-1.07,1.49-2.17,3.28-4.26,5.64-5.88,2.39-1.63,5.43-2.73,8.74-2.79,1.66-.02,3.34,.27,4.91,.81,1.56,.58,2.95,1.43,4.14,2.43,.41,.39,1.02,.62,1.46,1.02,.42,.4,.73,.93,.48,1.8,.65,.08,1.04,.4,1.2,.85,.14,.46,.07,1.04-.12,1.65-.05,.17,.47,.19,.69,.31,.69,.36,2.4,.24,1.28,1.71-.04,.05,.07,.11,.08,.17,.09,.65,1.77,.37,1.19,1.53-.38,.71,.15,1.35,.32,2,.15,.67,.32,1.34,.62,1.96,.34,.65-.25,1.54,1.1,1.94,.22,.07-.52,.75-.42,1.02,.57,1.49-.41,3.13,1.18,4.51,.36,.32,.35,.87,.07,1.25-1.02,1.34-.46,2.51-.09,3.86,.49,1.75,.55,3.67-1.16,5.18-.36,.32-.64,.45-.12,.86,.34,.27,.21,.67,.17,1-.4,3.67-.98,7.26-1.56,10.81-.16,.97-1.49,1.68-1.21,2.74,.11,.44-.56,.82,.38,1.33,.13,.07,.18,.25,.09,.32-1.35,1,.07,2.46-.61,3.56-.15,.24-.41,.44-.57,.67-.17,.24-.51,.48-.38,.73,1.11,2.07-.31,3.75-.29,5.65,0,.65-.76,1.21,.34,2,.17,.12,.1,.39-.09,.48-1.65,.8-.77,2.18-1.36,3.22-.3,.53,.36,1.33-.93,1.6-.16,.04-.09,.29-.03,.45,.1,.28,.45,.59,.38,.83-.19,.65-.99,1.24-.72,1.89,.34,.81,0,1.45-.11,2.14-.06,.4-.69,.68-.9,1.06-.2,.35-.18,.77-.26,1.15-.11,.55-.02,1.17-.4,1.64-.38,.48,.76,1.18-.21,1.6-.74,.32,.29,1.09,.31,1.63,0,.27-.19,.51-.37,.74-.14,.17-.58,.28-.59,.46-.02,.43-.33,.78,.1,1.33,.3,.38-.49,.78-.67,1.2-.18,.42-.22,.87-.32,1.31-.1,.44-.45,.86-.26,1.32,.84,2.03-.32,3.66-.58,5.46-.07,.46,.23,1.09-.92,1.23-.2,.03-.28,.28-.2,.44,1.06,2.03-.52,3.5-.54,5.3,0,1.29,.25,2.62-.2,3.83-.43,1.17-1.04,2.33-.85,3.62,.16,1.06,.29,2.1-.23,2.96-.51,.84,1.35,2.29-.66,2.7-.26,.93-.46,1.87-.8,2.77-.29,.76-.05,1.69-1.29,2.15-.45,.17-.57,.71-.32,1.11,.8,1.28,.21,2.13-.62,2.95-.2,.19,.23,.64,.17,.91-.18,.83-.33,1.68-.72,2.44-1.18,2.27-.71,5.01-1.45,7.41-.14,.44,.52,1.19,.18,1.51-2.09,1.95-1.49,4.83-3.06,6.91-2.28,3.07-2.67,6.78-4.14,10.12-.2,.45-1.19,.56-1.06,.93,.46,1.11-.57,1.7-.32,2.58,.42,1.6-.82,2.32-1.2,3.43-.28,.84-1.39,1.16-.81,2.51,.08,.2-.11,.42-.32,.46-1.66,.3-1.03,2.31-2.26,2.92-.21,1.35-.94,2.34-1.82,3.2-.9,.87-1.91,1.61-2.86,2.6-.26,.29-.4,.78-.65,1.18-.12,.2-.22,.51-.42,.53-2.29-.23-3.08,1.89-5.31,2.9-.74,.32-1.68,.41-2.56,.69-.44,.14-.88,.4-1.35,.56-.5,.14-1.02,.2-1.63-.12-.37-.19-.89,.1-1.31,.29-.56,.28-1.15,.32-1.67,.22-.51-.13-.96-.41-1.29-.82-.66-.86-.87-2.17-.7-3.74,.12-1.14,.43-1.19,.73-1.6,.6-.8,.96-1.35,1.5-1.37,.41,0,1.05,.16,.99-1-.01-.18,.17-.24,.33-.15,1.13,.57,1.61-.65,2.69-.58,.86,.04,1.31-.46,1.98-.69,.57-.2,.71-1.02,1.77-.56,.35,.16,.31-.88,.62-1.16,.67-.61,1.31-1.19,2.08-1.71,1.17-.77,1.93-2,2.6-3.23,.68-1.24,1.27-2.49,2.23-3.49,0-1.2,.48-2.02,1.03-2.82,.53-.79,1.13-1.58,1.16-2.54,.03-.6,.06-1.01,.2-1.68,.13-.61,.3-1.2,.49-1.79,.37-1.17,.8-2.33,1.03-3.55,.1-.5,.26-.87,.75-1.18,.32-.2,.66-.41,.77-.69,.43-1.09,.69-2.24,1.18-3.31,.26-.57-.2-1.46,1.25-1.57,.2-.01,.27-.29,.15-.46-.95-1.39,.17-2.2,.34-3.28,.07-.41,.24-.77,.83-1.05,.64-.3,.82-1.04,.52-1.67-.23-.47-.14-.8-.14-1.18,.02-1.58,1.78-2.68,.67-4.56,1.59-.33,1.42-1.39,1.32-2.24-.4-3.27,1.39-5.9,1.95-8.89,.14-.72,.92-1.26,1.24-1.94,.33-.72,.49-1.49,.63-2.26,.07-.41,.65-.76-.26-1.34-.07-.04-.1-.13-.07-.17,.28-.39,.77-.72,.81-1.16,.04-.4-.55-.92-.62-1.35-.09-.51,.02-1,.12-1.47,.1-.46,0-1.01,.98-1.14-1.02-.64-.33-1.02-.3-1.5,.03-.45,.2-.87,.31-1.3l.37-1.46c.12-.49,.34-.95,.35-1.46,.01-.7-.24-1.45-.19-2.14,.05-.73,.22-1.44,.51-2.11,.36-.84,.91-1.63,1.32-2.46,.17-.34-.04-.72-.35-1.17-.41-.59-1.43-1.46,.23-1.72,.33-.05,.34-.5,.2-.78-1.13-2.24,.62-3.88,.59-5.89,1.39-.8,.9-1.98,.81-3.13-.12-1.7,.03-3.44,1.04-4.88,1.07-1.52,.99-3.24,1.58-4.83,.17-.45-.17-1.04,.95-1.23,.26-.04,.26-.41,.14-.63-.84-1.55-.26-2.79,.69-4.03,.51-.65,.21-1.55-.04-2.42-.39-1.31,.31-2.53,.53-3.79,1.39-.32,.15-.98-.36-1.35-.68-.5-.75-.88-.69-1.32,.08-.57,.41-1.1-.33-1.8-.38-.36-.16-.99,.34-1.22,.67-.31,.43-.52,.09-.96-.4-.53,.88-.79,.91-1.37,.04-.62-.5-1.43,.94-1.74,.13-.03,.14-.22,.05-.32-1.2-1.35,.99-2.14,.56-3.35,2.07-3.1,1.26-6.61,2.09-9.75,.34-1.3,1.45-2.59,.87-3.92-.6-1.38-.7-2.7-.73-4-.02-1.31,.02-2.61-.29-3.85-.07-.26-.28-.52-.31-.79-.05-.26,.08-.55,.68-.92,.17-.1,.1-.34-.08-.4-1.38-.48-1.18-1.22-.66-2.23,.14-.25-.02-.57-.36-.56-.97,.03-.73-.44-.86-.75-.14-.36,.37-1.22-.16-1.22-1.11,.01-.25-.76-.31-1.18-.03-.26-.38-.35-.63-.48-.13-.05-.54,.06-.49-.04,.25-.62-.06-.88-.46-1-.38-.15-.81-.2-.87-.58-.03-.17-.15-.26-.15-.46-.03-.5-.07-.94-.16-1.25-.09-.3-.2-.52-.35-.7-.33-.3-.89-.44-1.83-.36,.02-.82-.33-.78-.64-.56-.32,.2-.57,.42-.81-.19-.17-.48-.62-.36-.85-.02-.25,.35-.49,.63-.74,.75-.25,.17-.52,.23-.81,.29-.57,.14-1.23,.19-1.71,.69-.19,.18-.92-.65-.78,.3,.06,.34-.84-.23-1.1,0-.35,.29-1.12,.17-.83,1.27,.13,.46-.41,.47-.58,.74-.22,.38-.84,.4-.52,1.32,.18,.51-.18,.89-.66,.82-1.02-.15-1.43,.27-1.56,.86-.14,.59,0,1.33-.04,1.94-.02,.38-.01,.65-.42,.79-.56,.21-1.33,.52-1.07,1.12,.46,1.03-.16,1.41-.42,2.02-.43,1.06-1.07,2.04-1.42,3.17-.39,1.28-1.31,2.4-.97,4.02,.18,.87,.26,1.94-1.36,2.26-.18,.04,.47,.61,.4,.83-.51,1.7-1.03,3.45-1.69,5.18-.15,.4-1.64,.41-.67,1.13,1.03,.76-1.38,.47-.09,1.24,.19,.11,.05,.47-.14,.62-2.11,1.6-1.6,4.08-2.62,6.04-.24,.47,.14,1.21-1.15,1.26,.92,1.66-2.16,2.28-.45,4.14-.61,.81,.19,2.11-1.46,2.58-.27,.08-.02,.49-.27,.59-.85,.36,1.17,1.32-.12,1.68-.74,.21-.58,1.05-.78,1.61-.19,.53-.31,1.07-.47,1.61l-.49,1.77c-.16,.59-.41,1.16-.47,1.78-.12,1.25,.41,2.65-.26,3.77-.07,.12,.03,.39,.23,.5,1.71,.9,.53,1.23-.11,1.5-.54,.23-.83,.47-.92,.84-.25,1.03-.46,2.07-.83,3.06-.22,.59,.2,1.39-1.1,1.67-.4,.09-.45,.6-.26,.94,.87,1.59-.19,2.74-.33,4.09-.07,.61-.26,1.2-.44,1.78-.14,.44,.54,1.09-.33,1.35,.93,2.56-.56,4.58-.93,6.85-.36,2.26-.95,4.46-1.53,6.67-.15,.55,.31,1.31-1.03,1.53-.25,.04-.33,.45-.11,.62,.59,.47,.89,.79-.08,.96-.18,.03-.06,.38,.08,.58,.39,.56,.24,.96-.31,1.33-.43,.29-.75,.74-.57,1.16,.48,1.12,.89,2.16-.61,2.86-.18,.09,.57,.59,.49,.8-.34,.8,.15,1.79-1.01,2.42-.48,.26-.27,.82-.47,1.22-.34,.69,.2,1.52-.34,2.21-.55,.7-.41,1.61-.58,2.43l-.48,2.46-.47,2.46-.47,2.46-.45,2.46c-.15,.82-.29,1.65-.45,2.46-.12,.57-.35,1.08-.94,1.57-1.51,1.26-1.65,3.1-1.03,5.46,.05,.17-.04,.33-.07,.49-.35,2.13-.45,4.28-1.07,6.31-.27,.89-.94,1.74-.95,2.68,0,.61-.25,1.19,.48,1.86,.62,.55-.57,1.16,.57,1.81,.42,.23,.37,.78,0,1.04-1.21,.87-.63,1.87-.71,2.79-.11,1.07-.04,2.13,.13,3.17,.07,.51-.25,1.06,.76,1.46,.49,.2,.26,.81-.09,1.23-.55,.66-.3,1.2,.06,1.66,.82,.94,.87,.81,.5,2.03-.04,.15,0,.28,.04,.4,.41,1.23,.57,2.72,1.74,3.57,.47,.36,.86,.73,1.2,1.12,.33,.41,.65,.79,.96,1.19,.24,.34,.97,.28,.23,1.36-.1,.15,.06,.32,.24,.29,.79-.16,1.18,0,1.46,.31,.29,.24,.47,.66,.77,.88,.29,.18,.73,.19,1.1,.11,.37-.1,.7-.07,.85,.1,.15,.19,.36,.34,.53,.33,.09,.01,.17,.02,.26,.04,.07-.01,.14-.03,.2-.02,.05,0,.09,.03,.13,.08,.04,.03,.06,.05,.09,.11,.06,.11,.11,.32,.18,.62,.14,.62,.33,1.65,.56,3.34,.19,1.4,.22,2.25,0,2.84-.23,.57-.71,.98-1.5,1.18-1.73,.56-3.46-.03-4.82-.74-.67-.4-1.31-.8-1.85-1.24-.28-.21-.56-.41-.84-.61-.26-.21-.52-.4-.79-.57Z"/>
          </g>
          <g>
            <path class="cls-13" d="M73.94,646.95c10.16-86.29-14.38-169.85-17.91-255.5-3.54-85.86,13.5-171.14,36.64-253.41,3.49-12.4,7.13-24.76,10.88-37.09-5.06,16.64-19.42,33.74-26.96,49.78-8.36,17.8-15.66,36.1-21.88,54.76-12.43,37.32-20.52,76.1-23.99,115.28-7.32,82.73,2.81,164.34,9.33,246.94,1.39,17.63,2.59,35.27,3.39,52.93,.42,9.24-.21,20.12,2.71,29.04,2.03,6.19,9.88,7.8,16.21,6.28s14.48-7.12,12.39-13.28"/>
            <path class="cls-13" d="M75.59,618.4c.28-4.24,.18-8.11,.25-11.77,.01-1.83,.03-3.62,.04-5.37,0-.88,0-1.75,.01-2.62-.03-.87-.05-1.74-.08-2.6-.04-1.08-.2-2.28-.23-3.64-.09-2.71-.17-5.45-.26-8.17-.08-2.72-.29-5.41-.35-8.02-.08-2.85-.2-5.7-.35-8.52-.18-2.82-.46-5.59-.73-8.3-.26-2.57-.49-5.12-.72-7.67-.24-2.54-.53-5.08-.8-7.62-.19-1.71-.39-3.38-.44-5.26-.04-1.37-.26-3.86-.69-5.67-.08-.35-.13-1.13-.18-1.69-.05-.61-.06-1.33-.14-1.77-.9-4.95-1.26-10.17-2-15.22-.18-1.26-.27-2.65-.61-3.69-.09-.27-.25-1.5-.25-1.87,0-.98-.11-1.97-.27-3.18l-2.09-15.62c-.59-2.51-.87-5.4-1.23-8.13-.27-2.05-.46-4.1-.69-6.15-.23-2.07-.69-4.27-.72-6.27,0-.32-.17-1.1-.25-1.68-.35-2.59-.78-5.28-1.01-7.73-.12-1.25-.24-2.51-.4-3.76-1.99-16.15-3.72-32.34-4.93-48.57-.09-1.41-.13-2.77-.36-4.26-.18-1.16-.33-3.73-.28-4.86,.08-1.83-.09-3.54-.17-5.28-.18-3.21-.21-6.44-.3-9.66-.04-1.91-.22-4.03-.01-5.71,.02-.16,0-.77-.03-.98-.33-2.12-.06-4.18-.04-6.3,.03-1.54,.03-3.09-.09-4.77-.11-1.64-.13-4.38,0-5.89,.18-2.02,.22-3.88,.26-5.78,.19-5.59,.28-11.19,.66-16.77,.31-5.59,.58-11.18,1.08-16.75,.21-2.64,.36-5.26,.53-7.89,.15-2.63,.45-5.26,.75-7.91,.15-1.26,.2-2.65,.5-3.77,.06-.23,.15-1.25,.14-1.65,0-1.46,.2-2.9,.39-4.54,.98-7.39,1.97-14.9,2.93-22.15,.36-2.83,.76-5.62,1.16-8.4,.42-2.78,.92-5.54,1.36-8.32,.3-1.85,.73-3.7,1.07-5.58,.32-1.82,.65-3.67,.97-5.51,.2-1.09,.45-2.18,.51-3.27,.03-.59,.31-2.16,.49-2.79,.61-2.1,.95-4.4,1.37-6.61,1.3-6.31,2.54-12.63,3.92-18.93,.35-1.54,.62-3.29,1.15-4.63,.07-.18,.2-1.08,.3-1.66,.11-.61,.22-1.37,.34-1.81,1.15-4.02,2.01-8.32,3.01-12.47l1.8-7.54,1.88-7.52c1.25-5.02,2.5-10.03,3.87-15.02,.75-2.79,1.21-5.29,1.94-8,.72-2.61,1.44-5.23,2.15-7.84,.52-1.85,.96-3.83,1.65-5.49,.19-.45,.56-1.8,.65-2.36,.35-2.12,1.15-4.34,1.74-6.51,.73-2.65,1.67-5.33,2.2-7.98,.14-.72,.66-2.04,.98-3.1,.55-1.85,1.1-3.71,1.65-5.56,.26-.89,.43-1.78,.69-2.67,1.19-4.18,2.38-8.37,3.58-12.55l1.36,.41c-.86,2.7-1.82,5.37-3,7.93-1.49,3.36-3.21,6.6-5.04,9.77-1.81,3.18-3.73,6.29-5.65,9.39-3.84,6.2-7.79,12.32-11.2,18.7-1.29,2.39-2.37,5.13-3.71,7.3-.88,2.36-1.89,4.33-2.97,6.25-.16,.28-.4,1.04-.61,1.59-.67,1.72-1.09,3.44-2.19,5.18-.04,.06-.13,.31-.2,.45-.7,1.54-.86,2.75-1.86,4.66-.63,1.19-1.4,3.22-2.08,4.89-.7,1.72-1.41,3.46-2.05,5.19-.66,1.79-1.55,3.67-1.94,5.44-.07,.28-.72,1.54-.99,2.32-1.42,4.01-3.1,8.06-4.17,12.12-.24,.93-.73,2.36-1.12,3.31-1.33,3.43-2.33,6.73-3.34,10.37-.69,2.38-1.41,4.85-2.12,7.3-.75,2.45-1.51,4.87-2.3,7.18-.34,.98-.51,1.41-.69,2.45-.12,.68-.44,1.84-.68,2.78-2.77,10.47-5.22,21.03-7.33,31.65-.6,2.89-1.3,5.55-1.77,8.54-.2,1.23-.55,2.66-.53,3.71,0,.15-.07,.66-.12,.89-.86,3.53-1.07,7.16-1.72,10.71-.14,.76-.27,1.49-.41,2.24-.13,.77-.32,1.67-.38,2.33-.5,5.53-1.38,11.17-1.91,16.75-.19,1.9-.5,3.98-.42,5.69,.01,.26-.07,1.1-.14,1.46-.59,3.23-.6,6.84-.94,10.22-.17,1.74-.16,3.7-.52,5.24-.04,.2-.08,.9-.08,1.33,0,.75,.03,1.49,0,2.22-.12,2.01-.36,4.2-.37,5.98-.01,2.2-.16,4.27-.26,6.37-.08,1.2-.17,2.4-.25,3.64-.06,1.16-.07,2.36-.11,3.55-.05,1.69-.06,3.45-.16,5.06-.1,1.66,.09,2.99-.09,4.83-.14,1.4,.08,3.03,.09,4.6,0,.78-.03,1.62-.06,2.41-.03,.6-.11,1.18-.11,1.73,0,1.27-.05,2.49,.04,3.85,.06,.93-.08,2.6-.08,3.95,.01,1.34,.02,2.71,.04,4.06,.01,1.35-.02,2.82,.05,4.05,.27,5.39,.31,10.91,.48,16.36,.05,1.4,.18,3.02,0,4.24-.03,.22,0,1.02,.04,1.43,.53,5.17,.47,10.58,.82,15.83,.26,3.74,.58,7.42,.75,11.25,.16,3.71,.39,7.55,.71,11.12,.28,2.94,.52,5.84,.69,8.72,.15,2.82,.78,5.51,.62,8.29,.22,2.87,.43,5.75,.65,8.61,.18,2.42,.47,4.87,.44,7.24,0,.86,.13,2.53,.27,3.46,.47,3,.65,5.92,.79,8.98,.03,.72,.22,1.62,.29,2.46,.21,2.53,.43,5.08,.64,7.59,.55,7.52,1.44,14.88,2.09,22.36,.12,1.38,.42,2.89,.48,4.1,.35,7.45,1.31,15.02,1.74,22.4,.66,10.87,1.68,21.71,2.36,32.57,.09,1.41,0,2.91,.1,3.57,.3,2.07,.31,4.45,.54,6.18,.41,3.11,.45,6.22,.67,9.29,.16,2.24,.14,4.66,.49,6.71,.05,.3,.08,1.07,.07,1.48-.07,3.3,.41,6.6,.34,9.88,.41,6.19,.29,12.56,1.62,18.54,.19,.88,.46,1.7,.74,2.54,.15,.42,.33,.93,.42,1.27,.59,2.34,2.6,4.16,5.07,5.02,2.47,.88,5.28,1.02,7.93,.64,1.75-.23,3.46-.69,5.13-1.42,1.68-.73,3.25-1.78,4.67-2.72,.45-.29,1.2-1.02,1.66-1.61,1.29-1.58,1.96-3.12,2.14-4.3,.02-.29,.06-.57,.1-.81,.05-.25,.01-.46,.05-.65,.04-.37,.13-.62,.27-.69,.11-.05,.21,.15,.34,.48,.06,.17,.12,.36,.19,.58,.04,.22,.06,.46,.09,.71,.26,1.92-.52,3.89-2.03,5.63-1.18,1.37-2.77,2.5-4,3.52-.2,.19-.91,.58-1.31,.76-1.39,.63-2.88,1.26-4.42,1.72-1.54,.46-3.12,.73-4.56,.73-2.21,.02-4.27-.2-6.28-.86-1.67-.56-3.41-1.41-4.53-2.84-.21-.22-.59-.66-1.02-1.17-.39-.54-.8-1.18-1.01-1.78-1.02-2.74-1.56-5.61-1.92-8.47-.53-4.35-.71-8.69-.85-13.01-.07-2.16-.15-4.32-.22-6.48-.1-2.16-.2-4.33-.3-6.5-.59-6.19-.7-12.65-1.23-18.83-.57-7.48-1.15-14.95-1.72-22.39-.13-1.53-.22-2.76-.25-4.12-.02-.89-.04-1.83-.11-2.75-.28-3.54-.57-7.1-.85-10.64-.14-1.9-.45-4.01-.33-5.71,.02-.23-.06-1.09-.12-1.46-.53-3.08-.65-6.48-.96-9.72-.12-1.24-.21-2.43-.23-3.79-.02-1.47-.23-3.76-.46-5.27-.17-1.15-.26-2.17-.38-3.27-.49-4.56-.62-9.34-1.33-13.77,.08-2.38-.26-5.28-.54-7.65-1.03-9.12-1.61-18.32-2.37-27.47-.19-2.21-.24-4.45-.38-6.69-.15-2.36-.33-4.73-.51-7.1-.1-1.26-.11-2.74-.39-3.71-.02-.07-.05-.29-.05-.43-.07-1.35-.07-2.72-.17-4.04-.09-1.18-.3-2.27-.41-3.47-.14-1.43-.24-2.94-.34-4.42-.1-1.43-.24-2.95-.13-4.12-.3-1.1-.27-2.76-.36-4.18-.07-1.34-.15-2.71-.22-4.06l-.25-4.57c-.08-1.52-.16-3.06-.23-4.57-.13-2.07-.26-4.11-.39-6.19-.11-2.19-.21-4.41-.27-6.6-.08-2.75-.06-5.49-.1-8.23-.01-1.14-.1-2.11-.21-3.21-.15-1.46-.43-3.33-.17-5.25,.06-.38,.03-1.72-.02-2.46-.35-5.88-.24-11.96-.23-17.92,.26-3.28,.15-6.47,.11-9.87,.02-5,.16-10.31,.43-15.21,.37-5.18,.58-10.27,.89-15.38,.07-1.44,.14-3,.43-4.2,.07-.27,.14-1.36,.15-1.96,.11-4.16,.42-8.19,.96-12.4,.3-2.22,.41-4.74,.62-7.21,.15-1.85,.35-3.78,.58-5.73,.25-1.95,.51-3.92,.77-5.86,.46-1.64,.4-2.98,.4-3.85,.01-1.17,.13-2.24,.32-3.61,.23-1.76,.57-3.46,.67-5.22,.06-.9,.37-2.87,.63-3.8,.34-1.25,.36-1.74,.48-2.92,.14-1.39,.61-2.78,.92-4.51,.33-1.84,.6-4.02,1.17-5.59,.05-.14,.15-.71,.18-.97,.42-3.46,1.45-6.77,2.09-10.16,2.47-10.03,4.72-20.25,7.61-30.21,.58-2.06,1.24-4.1,1.89-6.14,.64-2.04,1.26-4.08,1.83-6.11,2.35-8.54,5.34-16.92,8.33-25.25,.64-1.76,1.27-3.84,2.12-5.32,.12-.21,.42-1.01,.52-1.38,.77-2.71,1.84-5.23,3.04-7.79,.29-.62,.77-1.81,.86-2.22,.27-1.16,.86-2.39,1.34-3.55,.58-1.4,1.52-3.19,1.78-4.06,.59-1.86,1.21-2.77,1.83-4.1,.38-.82,.74-1.77,1.1-2.64,.17-.42,.33-.96,.45-1.19,1.42-2.63,2.34-5.43,3.67-8.06,.28-.56,.57-1.18,.87-1.72,.83-1.55,1.48-2.7,2.06-3.66,.56-.97,1.03-1.78,1.53-2.63,.99-1.71,2.05-3.65,4.29-7.43,1.53-1.88,2.63-4.53,4.23-6.61,.58-.76,1.53-2.33,2.1-3.37,2.5-4.58,5.44-9.07,7.71-13.78,.46-.99,1.07-1.62,1.46-2.97,.14-.51,1.1-2.04,1.5-3.16,.3-.81,.69-1.61,.97-2.44,.28-.83,.54-1.68,.71-2.52,.01-.06,.03-.12,.05-.21l1.63,.5c-.15,.73-.6,2.05-.88,3.08-.42,1.53-.95,3.03-1.23,4.62-.15,.86-.72,2.81-1.08,3.74-1.49,3.85-2.26,7.57-3.21,11.27-.29,1.11-.48,1.9-.87,3.04-.55,1.6-1.28,3.74-1.54,5.02-.47,2.27-1.18,4.38-1.79,6.54-1.03,3.75-2.07,7.52-3.09,11.26-1.17,4.28-2.35,8.53-3.34,12.92-.52,2.36-1.27,5.46-2.19,7.92-.1,.27-.2,1.34-.38,2.03-1.32,5.43-2.76,10.83-4.03,16.26-.3,1.25-.9,2.56-.95,3.76-.05,1.28-.83,2.5-.79,3.59,0,.16-.27,1.3-.43,1.88-1.78,6.32-2.98,12.94-4.46,19.39-.34,1.55-.59,3.35-1.08,4.53-.53,4-2.03,8.28-2.31,12.23-.6,2.83-.95,5.92-1.75,8.6-.13,.43-.24,1.42-.38,1.92-.46,1.7-.25,2.86-.81,4.93-.33,1.19-.64,3.48-.95,5.28l-.84,5.01c-.31,1.84-.63,3.67-.89,5.51-.27,1.84-.54,3.69-.81,5.52-.48,3.72-.95,7.36-1.45,11.17-.06,.41-.12,1.12-.09,1.27,.21,1.33-.24,3.21-.51,4.47-.23,1.07-.39,1.98-.54,3.15l-.59,4.79c-.17,1.6-.34,3.2-.51,4.79-.21,1.89-.3,3.92-.73,5.7-.13,.55-.27,2.07-.31,2.94-.17,4.02-.58,8.18-.9,12.26-.15,1.85-.3,3.71-.45,5.56-.09,1.41,0,2.83-.24,4.23-.04,3.44-.21,6.92-.41,10.41-.19,3.49-.28,6.99-.38,10.47-.25,6.92-.19,13.86-.24,20.79-.03,1.73,.14,3.67-.06,5.21-.04,.29,0,1.55,.06,1.91,.16,1.01,.25,1.77,.1,2.91-.03,.21,.04,1.16,.09,1.67,.14,1.41,.16,2.68,.11,4.16-.04,1.15-.06,2.7,.08,3.82,.31,3,.59,5.83,.49,8.86-.01,.37,.21,1.38,.24,2.05,.06,1.3,.15,2.6,.24,3.91,.11,1.3,.2,2.61,.21,3.91,0,1.06,.19,2.61,.28,3.92,.14,2.26,.46,4.39,.57,6.78,.12,2.41,.48,5.03,.73,7.55l.78,7.58c.24,2.53,.58,5.05,.86,7.57l.89,7.57c.29,2.52,.62,5.04,.94,7.56l.97,7.56c.23,1.76,.4,3.4,.54,5.19,.36,4.56,1.13,10.06,2.23,16.76,.08,.48,.14,1,.2,1.51,.88,6.55,1.82,13.12,2.58,19.65,.34,2.87,.6,5.75,.99,8.69,.24,1.92,.43,3.79,.81,5.69,.32,1.58,.36,3.84,.82,5.68,.17,.67,.38,2.48,.42,3.39,.1,3.04,.54,6.18,.84,9.25,.33,3.54,.76,7.09,1.04,10.64,.15,1.74,.22,3.49,.56,5.25,.17,.87,.28,2.97,.3,4.26,.05,1.99,.22,3.96,.37,5.82,.35,3.99,.37,3.96,.45,7.92,.01,.47,.04,.98,.07,1.47,.07,1.23,.13,2.46,.2,3.7,.03,1.24,.06,2.48,.09,3.71,.06,2.47,.13,4.92,.26,7.31,.09,1.99,.21,3.96,.23,5.93,0,1.97-.02,3.93-.03,5.91-.01,1.57,.09,3.39-.17,4.72-.04,.19-.04,1.08-.01,1.47,.31,3.31-.09,6.87-.23,10.3-.17,3.32-.06,6.39-.33,9.78-.35,3.17-.61,6.43-.91,9.64-.46,4.89-.71,5.92-1.38,5.82-.56-.08-.56-1.32-.32-5.24,.24-4.15,.69-8.29,.96-12.26,.2-3.97,.41-7.74,.54-11.11Z"/>
          </g>
          <g>
            <path class="cls-13" d="M106.2,631.72c6.68-68.23,15.22-137.52,17.76-205.94,2.1-56.71,35.79-120.38,68.22-165.92,34.71-48.74,81.43-89.38,135.97-113.95-29.77,19.16-55.49,43.89-80.74,68.7-9.28,9.11-18.53,18.27-27.2,27.96-59.51,66.53-77.46,146.98-87.34,232.88-3.7,32.2-7.09,123.47-5.05,155.8,.91,14.38-1.15,15.37-7.95,16.51-8.2,1.37-13.68,1.96-13.41-18.8"/>
            <path class="cls-13" d="M108.66,602.77c.88-8.59,1.6-15.61,2.32-22.61,.11-1.09,.1-2.32,.25-3.7,.58-5.47,1.04-11.12,1.72-16.37,.76-5.74,1.34-11.51,1.79-17.02,.42-5.23,.95-10.37,1.41-15.54,.15-1.74,.28-3.45,.61-5.32,.24-1.37,.48-3.89,.47-5.78,0-.37,.11-1.15,.17-1.72,.07-.62,.22-1.33,.23-1.79,.16-5.11,.86-10.37,1.21-15.54,.09-1.29,.29-2.68,.19-3.79-.03-.29,.07-1.54,.15-1.91,.2-.98,.31-1.98,.4-3.21,.39-5.31,.84-10.62,1.19-15.94-.07-2.62,.25-5.55,.44-8.33,.13-2.09,.35-4.17,.52-6.26,.18-2.11,.16-4.38,.5-6.38,.05-.32,.03-1.13,.06-1.72,.12-2.65,.18-5.41,.4-7.89,.11-1.27,.22-2.55,.28-3.82l.53-12.37,.44-6.19,.22-3.1,.12-1.55,.21-1.54c1-8.21,2.38-16.38,4.37-24.41,.34-1.4,.7-2.72,.92-4.25,.09-.59,.28-1.52,.51-2.44,.25-.91,.55-1.8,.77-2.34,.7-1.72,1.12-3.42,1.63-5.11,.49-1.56,.89-3.15,1.44-4.69,.53-1.55,1.06-3.1,1.59-4.64,.64-1.83,1.2-3.92,2.01-5.44,.08-.15,.3-.72,.35-.93,.54-2.1,1.48-3.98,2.28-5.98,.59-1.45,1.12-2.93,1.67-4.55,.54-1.58,1.61-4.14,2.33-5.51,.97-1.82,1.62-3.6,2.42-5.35,4.68-10.35,9.79-20.5,15.21-30.48,1.29-2.35,2.58-4.69,3.86-7.04,.65-1.17,1.29-2.34,1.94-3.52,.68-1.16,1.38-2.31,2.1-3.46,.68-1.09,1.33-2.35,2.08-3.26,.15-.19,.67-1.08,.84-1.46,.61-1.36,1.46-2.57,2.36-3.98,4.04-6.4,8.34-12.77,12.44-18.96,1.62-2.4,3.2-4.79,4.88-7.1,1.69-2.31,3.37-4.6,5.06-6.91,1.1-1.56,2.43-2.97,3.63-4.49,1.18-1.46,2.34-2.97,3.5-4.47,.68-.9,1.45-1.73,2.05-2.67,.32-.51,1.34-1.77,1.81-2.23,1.58-1.55,3.01-3.44,4.51-5.17l6.52-7.34c2.21-2.41,4.48-4.77,6.72-7.15,1.09-1.18,2.28-2.52,3.47-3.38,.16-.12,.77-.82,1.17-1.25,.43-.46,.93-1.05,1.28-1.35,1.62-1.38,3.13-2.94,4.74-4.41,1.59-1.5,3.19-3.01,4.76-4.49,1.9-1.81,3.88-3.53,5.86-5.25,1.99-1.71,3.92-3.49,5.95-5.15,4.06-3.32,8.09-6.7,12.31-9.81,2.34-1.77,4.25-3.52,6.6-5.13,2.24-1.6,4.49-3.2,6.73-4.79,1.63-1.07,3.3-2.29,4.93-3.11,.45-.22,1.62-1,2.07-1.37,.85-.69,1.77-1.36,2.75-1.97,.98-.6,1.98-1.21,2.96-1.81,2.37-1.48,4.87-2.91,7.13-4.48,.61-.42,1.93-1.02,2.91-1.57,1.71-.96,3.43-1.93,5.14-2.89,.81-.48,1.6-.96,2.43-1.4,3.04-1.59,6.04-3.23,9.1-4.77l9.27-4.45,.71,1.31-1.02,.68c-6.18,4.02-12.19,8.3-18.08,12.75-5.88,4.46-11.62,9.11-17.25,13.87-2.11,1.79-4.27,3.89-6.39,5.35-1.78,1.84-3.54,3.23-5.33,4.58-.26,.19-.8,.8-1.22,1.22-1.33,1.32-2.44,2.73-4.18,3.9-.06,.04-.25,.23-.37,.34-1.29,1.14-1.94,2.18-3.67,3.53-1.08,.84-2.64,2.39-3.98,3.64-1.37,1.29-2.76,2.61-4.09,3.92-1.38,1.36-3,2.72-4.13,4.16-.18,.23-1.33,1.1-1.93,1.7-3.06,3.06-6.39,6-9.22,9.2-.65,.73-1.75,1.81-2.53,2.49-2.81,2.47-5.22,5.01-7.86,7.78-3.48,3.64-7.22,7.53-10.82,10.91-.77,.72-1.12,1.02-1.76,1.88-.42,.56-1.26,1.44-1.92,2.17-1.87,2.01-3.62,4.12-5.4,6.22l-5.32,6.29c-.87,1.06-1.81,2.07-2.62,3.18l-2.48,3.29-4.96,6.58c-1.86,2.35-3.53,4.58-5.18,7.17-.67,1.07-1.6,2.24-2.02,3.22-.06,.14-.34,.58-.48,.77-1.12,1.47-2.13,3-3.1,4.55-.9,1.6-1.79,3.2-2.76,4.75-.43,.66-.83,1.29-1.26,1.94-.43,.67-.95,1.44-1.27,2.03-2.74,4.91-5.45,10.02-8.08,15.06-.88,1.73-2.01,3.53-2.48,5.23-.08,.25-.44,1.03-.63,1.35-1.67,2.88-3,6.28-4.52,9.37-.82,1.57-1.36,3.49-2.2,4.86-.1,.17-.35,.84-.5,1.26-.26,.72-.47,1.44-.75,2.12-.79,1.89-1.76,3.9-2.36,5.6-.79,2.08-1.48,4.07-2.21,6.08-.41,1.15-.93,2.26-1.38,3.44-.42,1.1-.82,2.26-1.22,3.39-.56,1.62-1.19,3.3-1.69,4.85-.56,1.59-.72,2.96-1.44,4.68-.55,1.32-.82,2.96-1.28,4.49-.23,.76-.51,1.56-.77,2.32-.2,.58-.46,1.11-.62,1.65-.35,1.23-.71,2.43-.97,3.78-.18,.93-.76,2.52-1.14,3.84-.36,1.31-.73,2.65-1.09,3.97-.36,1.33-.81,2.74-1.07,3.96-1.01,5.39-2.51,10.78-3.69,16.18-.28,1.39-.53,3.02-.99,4.18-.08,.21-.25,1-.31,1.41-.39,2.6-.92,5.23-1.48,7.87-.53,2.64-1.02,5.3-1.46,7.93-.61,3.76-1.2,7.45-1.82,11.29-.61,3.72-1.28,7.56-1.74,11.17-.39,2.97-.67,5.91-1.14,8.8-.45,2.83-.39,5.62-1.14,8.36-.36,2.9-.71,5.8-1.07,8.7-.31,2.44-.52,4.94-1.02,7.29-.18,.85-.34,2.54-.37,3.49-.11,3.07-.42,6.01-.79,9.09-.09,.73-.06,1.66-.13,2.5-.17,2.57-.34,5.16-.56,7.71-.62,7.62-.8,15.14-1.19,22.74-.07,1.4,.03,2.96-.08,4.19-.33,3.77-.5,7.59-.64,11.4-.15,3.81-.27,7.61-.49,11.35-.66,11.03-.8,22.07-1.06,33.09-.03,1.43-.24,2.94-.2,3.61,.12,2.11-.05,4.52,.06,6.29,.2,3.18-.02,6.32,.05,9.43,.04,2.27-.11,4.72,.13,6.82,.03,.3,.03,1.09,0,1.5-.19,3.35,.15,6.65,.13,9.97,.23,3.14,.3,6.33,.47,9.51,.12,3.17,.36,6.42,.35,9.7,0,.97,.02,1.92-.05,2.91-.04,.5-.05,1.1-.18,1.53-.34,1.52-.91,3.26-2.29,4.61-.66,.68-1.49,1.11-2.28,1.47-.79,.31-1.58,.53-2.34,.7-1.53,.33-2.96,.57-4.48,.79-1.52,.19-3.1,.38-4.8,.07-.55-.13-1.12-.26-1.66-.5-.53-.27-1.08-.5-1.51-.91l-.67-.57-.54-.66c-.39-.43-.64-.92-.9-1.4-.3-.48-.48-.98-.67-1.48-.21-.5-.39-1-.5-1.5-.12-.5-.26-1-.35-1.5-.06-.49-.12-.98-.15-1.46-.07-.59-.21-1.73-.31-2.58-.52-4.58,.04-7.96,.63-8.01,.23-.02,.25,.91,.34,1.88,.16,1.87,.32,3.7,.51,5.96,.08,.87,.13,1.79,.31,2.66,.08,.44,.16,.87,.26,1.28,.13,.4,.27,.79,.42,1.14,.05,.12,.12,.37,.19,.64,.08,.27,.19,.54,.25,.74,.37,1.41,1.2,2.78,2.4,3.61,1.2,.85,2.74,1.03,4.12,1.06,2.15,.04,4.18-.38,6.24-.71,1.73-.31,3.45-.88,4.71-2.05,.19-.21,.55-.67,.76-1.29,.14-.29,.22-.63,.3-.96,.1-.32,.17-.65,.21-.95,.55-2.82,.4-5.78,.33-8.67-.43-8.83-.91-17.56-.87-26.4-.13-3.15-.14-6.37-.12-9.59,.05-3.22,.11-6.43,.07-9.58-.02-3.81,.03-7.61,.09-11.42,.08-3.8,.16-7.6,.24-11.39,.03-1.56,.08-2.81,.19-4.19,.08-.9,.16-1.85,.19-2.79,.12-3.61,.22-7.23,.39-10.83,.09-1.93,.02-4.1,.35-5.8,.05-.23,.08-1.1,.06-1.49-.13-3.17,.18-6.61,.29-9.91,.05-1.26,.12-2.47,.28-3.84,.18-1.48,.28-3.81,.26-5.37-.02-1.18,.04-2.22,.08-3.34,.17-4.66,.7-9.47,.68-14.03,.43-2.37,.53-5.34,.65-7.76,.19-4.66,.56-9.31,.99-13.97l.75-6.97,.84-6.94c.26-2.24,.66-4.47,.95-6.73,.32-2.38,.64-4.77,.96-7.16,.17-1.27,.47-2.74,.4-3.76,0-.08,.02-.3,.04-.44,.22-1.35,.49-2.72,.66-4.05,.15-1.2,.16-2.32,.32-3.53,.18-1.45,.42-2.96,.65-4.45,.22-1.43,.42-2.98,.78-4.11-.05-1.16,.33-2.8,.53-4.23,.18-1.35,.45-2.72,.69-4.07l.83-4.57c.27-1.53,.55-3.06,.82-4.57,.35-2.08,.61-4.14,1.04-6.21,.43-2.18,.89-4.4,1.37-6.57,.62-2.73,1.19-5.44,1.88-8.15,.29-1.12,.46-2.09,.64-3.21,.24-1.47,.46-3.38,1.21-5.2,.15-.36,.45-1.69,.58-2.43,.5-2.96,1.34-5.88,2.15-8.82,.82-2.94,1.67-5.87,2.43-8.8,1.2-3.12,2.05-6.25,3.02-9.57,.36-1.22,.73-2.46,1.1-3.7,.36-1.25,.76-2.49,1.22-3.71,.88-2.46,1.78-4.89,2.69-7.21,.47-1.23,.94-2.46,1.4-3.68l.68-1.84,.74-1.81c.99-2.41,1.98-4.8,2.98-7.21,.57-1.35,1.09-2.85,1.75-3.91,.16-.24,.54-1.28,.77-1.84,1.57-3.92,3.37-7.62,5.31-11.47,1-2.04,2.12-4.34,3.22-6.6,1.67-3.38,3.6-7.02,5.54-10.48,1.1-1.34,1.56-2.62,1.91-3.44,.47-1.09,1.01-2.05,1.72-3.25,.92-1.55,1.86-3.05,2.63-4.67,.2-.41,.56-1.06,.94-1.69,.42-.62,.86-1.23,1.17-1.61,.83-1.02,1.06-1.46,1.66-2.5,.71-1.23,1.73-2.32,2.71-3.81,1.05-1.59,2.18-3.51,3.34-4.75,.1-.11,.43-.6,.58-.81,1.9-2.98,4.33-5.55,6.35-8.42,3.18-4.18,6.73-8.1,10.1-12.17,1.72-2,3.35-4.09,5.15-6.03,1.77-1.96,3.56-3.89,5.39-5.79,3.01-3.12,6.21-6.12,9.14-9.24,6.14-6.55,12.71-12.71,19.1-19.02,1.35-1.34,2.84-2.95,4.26-3.95,.2-.14,.82-.75,1.07-1.04,1.87-2.16,3.94-4.01,6.12-5.87,.53-.45,1.47-1.34,1.74-1.68,.74-.95,1.8-1.85,2.73-2.72,1.13-1.05,2.74-2.32,3.35-3.01,1.31-1.48,2.26-2.07,3.4-3.04,.7-.6,1.42-1.33,2.11-1.99,.33-.32,.7-.76,.9-.92,2.41-1.84,4.4-4.08,6.72-5.96,.49-.41,1.02-.85,1.5-1.25,2.76-2.21,4.18-3.27,5.72-4.55,1.53-1.29,3.24-2.72,6.66-5.6,2.12-1.25,4.07-3.43,6.33-4.84,.83-.51,2.3-1.66,3.23-2.44,2.03-1.72,4.23-3.29,6.41-4.88,2.23-1.53,4.46-3.07,6.66-4.59,.92-.63,1.75-.92,2.85-1.85,.24-.21,.91-.59,1.63-1.01l.75,1.39c-.53,.21-1.08,.44-1.53,.66-1.59,.76-3.32,1.45-4.81,2.39-.61,.38-2.06,1-3.12,1.51-1.44,.72-2.89,1.42-4.25,2.31-.74,.49-2.56,1.44-3.49,1.83-.97,.4-1.89,.83-2.79,1.28-.88,.48-1.74,.98-2.58,1.48-1.67,1.03-3.31,2.04-4.96,3.05-.99,.62-1.7,1.01-2.76,1.61-1.49,.83-3.49,1.94-4.56,2.72-1.89,1.4-3.88,2.44-5.75,3.74-1.64,1.09-3.28,2.18-4.93,3.27-1.65,1.08-3.29,2.17-4.87,3.34-3.63,2.63-7.36,5.1-10.84,8.06-.94,.78-2.04,1.67-3.19,2.55-.57,.44-1.16,.87-1.74,1.28-.57,.42-1.14,.83-1.7,1.19-.25,.16-.98,.97-1.53,1.42-2.17,1.81-4.4,3.55-6.53,5.41l-6.39,5.57c-1,.84-2.22,1.62-2.94,2.6-.77,1.05-2.1,1.64-2.68,2.58-.08,.14-.95,.94-1.42,1.34-2.56,2.11-4.9,4.54-7.3,6.91-1.18,1.2-2.4,2.37-3.55,3.61-1.16,1.22-2.32,2.44-3.47,3.66-1.12,1.16-2.29,2.57-3.35,3.33-2.51,3.22-5.97,6.24-8.24,9.54-1.93,2.21-3.76,4.76-5.79,6.74-.33,.32-.92,1.13-1.27,1.52-1.21,1.31-1.55,2.46-3.06,4.03-.87,.9-2.25,2.79-3.4,4.24l-3.05,4.14-3.35,4.56c-1.1,1.54-2.18,3.09-3.24,4.64-1.05,1.59-2.09,3.15-3.14,4.73-1.01,1.6-2.04,3.2-3.15,4.8-.24,.34-.61,.96-.66,1.12-.4,1.31-1.68,2.79-2.46,3.84-.67,.88-1.21,1.65-1.85,2.67-1.72,2.77-3.51,5.5-5.18,8.29-1.01,1.65-1.96,3.47-3.11,4.93-.35,.45-1.14,1.79-1.54,2.57-1.79,3.67-4.04,7.26-6.01,10.92-.89,1.66-1.78,3.33-2.67,4.99-.68,1.26-1.21,2.6-2.02,3.79-1.46,3.17-2.98,6.35-4.58,9.51-1.59,3.16-3.05,6.4-4.54,9.6-1.51,3.17-2.78,6.44-4.18,9.67-.67,1.62-1.41,3.22-2.03,4.86l-1.9,4.91c-.63,1.64-1.22,3.51-2.02,4.89-.14,.27-.55,1.47-.62,1.84-.2,1.02-.38,1.77-.93,2.8-.1,.19-.37,1.11-.51,1.61-.37,1.39-.79,2.6-1.36,3.99-.45,1.07-.9,2.58-1.18,3.68-.71,2.97-1.45,5.75-2.5,8.62-.12,.35-.2,1.41-.37,2.06-.66,2.54-1.16,5.17-1.98,7.67-.33,1.02-.53,2.59-.82,3.89-.47,2.24-.74,4.4-1.27,6.75-.48,2.39-.71,5.05-1.07,7.58l-.51,3.81-.28,3.83c-.17,2.56-.38,5.1-.52,7.67l-.33,7.74c-.1,2.58-.22,5.16-.36,7.74l-.41,7.73c-.09,1.81-.23,3.48-.44,5.28-.54,4.62-.84,10.24-1.14,17.13-.02,.5-.07,1.03-.11,1.54-.47,6.69-.95,13.41-1.56,20.06-.27,2.92-.63,5.84-.86,8.83-.16,1.96-.37,3.85-.38,5.81-.01,1.63-.44,3.89-.38,5.8,.03,.7-.14,2.54-.3,3.45-.52,3.04-.7,6.25-1.01,9.37-.35,3.59-.7,7.19-1.04,10.78-.17,1.77-.41,3.52-.4,5.34,0,.89-.27,3.01-.48,4.3-.33,1.99-.5,3.99-.64,5.88-.29,4.05-.27,4.02-.82,7.99-.07,.48-.12,.99-.17,1.49-.51,4.96-1.12,10.02-1.5,14.85-.32,4.03-.72,7.96-1.12,11.94-.16,1.58-.24,3.43-.63,4.74-.06,.19-.14,1.09-.15,1.48-.07,3.35-.59,6.93-.94,10.38-.34,3.35-.43,6.44-.83,9.86-.38,3.2-.66,6.49-.99,9.74-.49,4.94-.75,5.98-1.42,5.9-.56-.07-.56-1.33-.28-5.3,.58-8.43,1.63-16.86,2.26-23.69Z"/>
          </g>
        </g>
        <g class="cls-14">
          <path class="cls-11" d="M56.84,606.34c1.84,0,11.37-.39,16.21-6.21,2.96-3.56,4.44-8.18,4.78-12.8,.09-1.16,.12-2.4,.77-3.38,1.53-2.32,4.99-1.61,7.74-1.22,5.59,.79,11.5-1.09,15.6-4.98,3.26,3.6,7.95,5.99,12.81,6,4.85,0,9.75-2.56,12.08-6.82,3.17-5.8,1.21-12.94,1.74-19.52,.07-.88,.22-1.82,.86-2.43,.89-.84,2.3-.66,3.48-.35,7.9,2.06,14.74,7.84,18.1,15.29,1.56,3.45,2.38,7.18,3.1,10.9,2.28,11.8,2.99,20.83,3.01,21.19,1.39,22.01,207.82,117.48,204.56,149.98-1.82,18.14-103.65,17.89-307.23,16.64-36.99-.23-82.8-1.11-103.32-30.72-5.54-8,13.49-16.97-9.23-104.24-1.47-5.65,2.83-57.4,7.13-61.34,14.49-13.25,53.32-4.99,75.9,14.12,9.65,8.17,18.16,19.92,31.91,19.89Z"/>
          <path class="cls-11" d="M76.91,590.66c.21-1.01,.34-2.02,.43-3,.1-.97,.09-2.01,.43-3.03,.32-1.04,1.16-1.9,2.12-2.31,.97-.4,1.97-.47,2.91-.44,1.89,.06,3.61,.5,5.29,.56,1.7,.08,3.38-.1,5-.49,1.01-.25,2.09-.7,3.28-1.23,1.19-.52,2.33-1.18,3.38-1.95,.27-.18,.51-.4,.77-.6,.39-.31,.73-.64,1.09-.96,.37-.63,.69,.11,1.03,.38,.31,.34,.74,.74,.92,.91,1.92,1.76,4.18,3.1,6.52,3.94,2.56,.94,5.4,1.13,8.03,.48,2.63-.64,5.03-2.09,6.73-4.05,1.63-1.85,2.52-4.19,2.94-6.6,.39-2.43,.33-4.93,.22-7.44-.08-1.69-.2-3.37-.03-5.25,.06-.69,.13-1.66,.22-2.69,.07-.53,.17-1.1,.45-1.64,.28-.55,.78-.99,1.3-1.22,.41-.22,1.33-.26,1.92-.14,.66,.09,1.34,.38,1.77,.48,4.99,1.11,9.54,4.23,13.04,7.98,.9,.92,1.68,2.09,2.47,2.87,.23,.19,.89,1.26,1.06,1.6,.19,.46,.4,.92,.64,1.39,.22,.48,.46,.99,.72,1.54,2.17,4.88,2.95,10.1,3.89,15.2,.68,2.47,1.02,5.33,1.38,8.04,.27,2.03,.43,4.07,.6,6.11,.09,1.01,.2,2.13,.31,3.12,.12,.89,.58,1.79,.98,2.64,.13,.27,.62,.87,.97,1.3,1.58,1.97,3.59,3.74,5.34,5.39,.9,.85,1.83,1.67,2.79,2.45,6.26,5.01,12.93,9.51,19.64,13.91,6.73,4.39,13.56,8.63,20.42,12.82,1.19,.73,2.32,1.45,3.66,2.09,1.05,.5,3.22,1.81,4.12,2.49,1.44,1.09,2.94,1.9,4.41,2.79,2.73,1.63,5.46,3.27,8.19,4.91,1.62,.98,3.48,1.94,4.78,3,.12,.1,.64,.41,.83,.49,1.93,.86,3.57,2.07,5.36,3.17,1.3,.8,2.61,1.57,4.11,2.32,1.45,.73,3.79,2.09,5.01,2.96,1.64,1.17,3.25,2.06,4.85,3.02,9.5,5.66,18.99,11.34,28.43,17.09,4.47,2.72,8.97,5.24,13.4,8.12,1.05,.68,2.27,1.33,3.13,2.09,.18,.15,1.04,.68,1.4,.85,1.3,.64,2.48,1.46,3.85,2.34,6.19,4,12.39,8.2,18.43,12.18,4.71,3.1,9.18,6.36,13.64,9.69,1.49,1.11,2.9,2.36,4.37,3.55,1.42,1.16,2.86,2.34,4.29,3.5,.84,.7,1.65,1.46,2.55,2.07,.49,.32,1.69,1.37,2.11,1.84,1.45,1.61,3.16,3.15,4.71,4.78,2.2,2.32,4.29,4.78,6,7.53,.84,1.38,1.61,2.83,2.09,4.41,.48,1.57,.74,3.26,.3,4.97-.49,1.65-1.78,3.14-3.08,3.8-.17,.1-.89,.67-1.39,.98-.53,.33-1.18,.75-1.61,.91-3.9,1.53-8.07,2.75-12.21,3.64-5.02,1.04-10.09,1.78-15.16,2.4-5.08,.62-10.17,1.1-15.27,1.48-2.85,.21-5.34,.58-8.1,.75-2.68,.16-5.36,.31-8.03,.47-1.9,.08-3.89,.3-5.67,.15-.49-.04-1.86,.03-2.42,.11-2.1,.31-4.43,.3-6.65,.42-2.71,.15-5.52,.1-8.18,.43-.72,.09-2.12,0-3.22,.03-1.91,.05-3.83,.1-5.73,.15-.92,.03-1.81,.14-2.72,.17-7.06,.23-14.12,.44-21.19,.57-7.2,.14-14.41,.2-21.62,.26-7.21,.06-14.41,.12-21.61,.12-2.7,0-5.63,.18-8.13-.11-2.49,.19-4.67,.08-6.85-.12-.31-.03-1.1,.06-1.68,.08-1.82,.08-3.56,.39-5.57,.06-.07-.01-.33,0-.49,0-1.67-.05-2.84,.29-4.97,.09-1.33-.13-3.47-.07-5.26-.09-1.84-.01-3.7-.03-5.52,0-1.89,.03-3.94-.13-5.72,.11-.29,.04-1.68-.14-2.5-.13-4.21,.05-8.54-.19-12.69,.09-.95,.06-2.45,.05-3.46-.01-3.64-.23-7.05-.13-10.78-.06-4.91,.08-10.18,.1-14.99-.23-1.02-.07-1.48-.13-2.51-.02-.68,.07-1.87,.05-2.83,.04l-32.17-.18c-2.92-.02-5.64-.27-8.63-.2-1.23,.03-2.68-.1-3.71,.09-.14,.03-.66,.04-.89,.02-3.59-.26-7.16,.06-10.74-.08-.76-.04-1.5-.08-2.26-.12-.78-.04-1.68-.1-2.34-.08-5.49,.2-11.15-.18-16.7-.42-1.89-.08-3.96-.35-5.66-.23-.26,.02-1.09-.05-1.45-.11-3.21-.55-6.78-.68-10.12-1.19-1.71-.25-3.66-.38-5.15-.85-.19-.06-.88-.14-1.31-.2-.74-.1-1.48-.14-2.19-.27-1.97-.38-4.09-.92-5.82-1.25-2.15-.37-4.14-.93-6.16-1.48-1.15-.34-2.28-.74-3.44-1.17-1.09-.39-2.24-.71-3.34-1.13-.79-.29-1.6-.58-2.4-.87-.79-.32-1.56-.64-2.29-.97-.77-.32-1.45-.6-2.16-.9-.7-.3-1.45-.58-2.22-1.09-1.18-.76-2.73-1.28-4.09-2.07-.68-.38-1.4-.81-2.03-1.28-.49-.34-.93-.73-1.4-1.02-1.07-.67-2-1.47-3.17-2.17-.77-.53-1.99-1.67-2.99-2.58-.96-.93-2.01-1.8-2.92-2.81-.46-.49-.95-1-1.42-1.5-.44-.53-.88-1.04-1.29-1.49-.95-.96-1.75-2.06-2.59-3.13-.4-.52-.86-1.14-1.12-1.84-.31-.69-.42-1.44-.48-2.17-.07-1.46,.19-2.84,.45-4.18,.27-1.33,.54-2.66,.81-3.98,.27-1.36,.46-2.94,.87-4.08,.08-.2,.19-.98,.23-1.39,.44-5.08,1.02-10.37,.93-15.56-.04-3.69-.34-7.32-.55-11.08-.25-3.65-.54-7.43-1.09-10.93-.42-2.88-.93-5.7-1.28-8.53-.41-2.76-1.23-5.34-1.39-8.08l-.78-4.19-.84-4.18c-.44-2.35-1.09-4.71-1.37-7.03-.11-.84-.46-2.45-.75-3.34-.92-2.85-1.48-5.68-2.13-8.64-.15-.7-.47-1.55-.68-2.35-.31-1.23-.64-2.38-.93-3.7-.24-1.42-.23-2.65-.25-3.93,.11-7.53,.42-14.85,1.05-22.27,.12-1.37,.09-2.89,.26-4.09,1.02-7.32,1.6-14.86,3.12-22.08,.6-2.66,1.13-5.3,2.24-7.97,.18-.35,.33-.67,.57-1.03,.14-.18,.29-.36,.44-.54,.14-.14,.27-.23,.41-.35,.55-.44,1.07-.92,1.67-1.29,.58-.39,1.16-.8,1.78-1.11,.61-.34,1.22-.68,1.87-.95,5.1-2.29,10.67-3.06,16.11-3.04,1.42,0,2.9,.25,3.57,.23,2.09-.03,4.45,.33,6.18,.48,3.13,.23,6.16,.97,9.15,1.69,1.09,.25,2.2,.61,3.3,.91,1.09,.34,2.17,.63,3.19,.84,.3,.06,1.03,.32,1.4,.48,3.04,1.31,6.19,2.21,9.14,3.68,5.76,2.38,11.27,5.76,16.34,9.53,.76,.54,1.51,1.05,2.24,1.62,.37,.28,.83,.6,1.12,.87,4.18,3.95,8.35,8.02,12.58,11.71,1.41,1.19,2.77,2.39,4.28,3.43,.38,.26,.77,.52,1.15,.78,.4,.23,.8,.46,1.2,.69,.78,.49,1.59,.86,2.33,1.33,.45,.32,1.47,.6,2.2,.87,4,1.26,7.16,1.39,7.24,2.11,.03,.23-.88,.2-1.84,.24l-.7,.02-.69-.06c-.47-.05-.94-.09-1.42-.14-.49-.03-.96-.19-1.47-.3-.5-.14-1.04-.23-1.56-.44-1.66-.59-3.37-1.43-4.82-2.02-.24-.1-.94-.5-1.29-.74-2.45-1.73-5.16-3.72-7.17-5.69-1.55-1.49-2.99-2.87-4.47-4.3-1.23-1.21-2.59-2.36-3.73-3.67-.38-.45-1.76-1.45-2.67-2.23-2.18-1.81-4.45-3.53-6.78-5.14-7.09-4.88-14.95-8.26-23.03-11.06-5.88-1.65-12.03-3.36-18.11-3.85-3.67-.3-7.34-.4-10.98-.1-3.62,.33-7.24,1.02-10.55,2.42-1.35,.6-2.4,1.13-3.54,1.77-.36,.22-.74,.45-1.12,.67-.36,.25-.71,.54-1.05,.81-.15,.13-.36,.27-.47,.41-.1,.14-.21,.24-.31,.41-.19,.35-.38,.7-.52,1.11-.31,.78-.56,1.61-.78,2.45-.45,1.68-.81,3.39-1.14,5.1-.37,1.84-.55,3.93-1.07,5.54-.07,.22-.19,1.06-.21,1.43-.18,3.08-.75,6.38-1.07,9.58-.13,1.22-.26,2.4-.49,3.71-.25,1.43-.46,3.69-.49,5.21-.03,1.15-.11,2.15-.18,3.24-.28,4.52-.86,9.2-.7,13.63-.37,2.31-.35,5.21-.16,7.52,.05,.54,.1,1.12,.22,1.59,.11,.51,.29,1.08,.43,1.62l.88,3.3c.59,2.2,1.13,4.41,1.64,6.63,1.06,4.43,2,8.88,2.94,13.33,.44,2.15,.79,4.34,1.15,6.53,.41,2.3,.82,4.63,1.22,6.94,.21,1.24,.36,2.69,.71,3.62,.03,.07,.07,.29,.08,.42,.16,1.33,.28,2.68,.48,3.98,.19,1.16,.44,2.22,.63,3.4,.22,1.41,.41,2.9,.55,4.36,.14,1.41,.36,2.92,.26,4.08,.31,1.09,.35,2.73,.44,4.14,.08,1.33,.17,2.69,.21,4.03,.04,1.52,.12,3.03,.11,4.55,.02,1.52-.01,3.05-.03,4.55-.02,2.07-.04,4.1-.18,6.17-.15,2.18-.39,4.39-.75,6.55-.43,2.71-1.04,5.38-1.63,8.02-.23,1.09-.38,2.04-.44,3.08-.04,.69-.02,1.46,.06,2.2,.07,.75,.26,1.42,.53,2.17,.03,.07,.08,.19,.16,.33,.11,.15,.24,.33,.37,.51,.28,.37,.59,.77,.82,1.04,3.61,4.39,7.8,8.57,12.58,11.82,2.51,1.97,5.26,3.44,8.25,4.85,4.4,2.08,9.26,3.83,13.81,5.32,4.83,1.58,9.73,2.57,14.66,3.47,1.39,.27,2.91,.39,4.07,.79,.26,.09,1.33,.23,1.91,.27,4.07,.33,8.01,.79,12.16,1.25,2.19,.25,4.67,.32,7.11,.36,3.65,.07,7.63,.31,11.47,.39,1.65,.31,2.96,.05,3.81-.04,1.14-.13,2.21-.15,3.56-.13,1.74,.02,3.46,.08,5.18-.08,.88-.08,2.85-.05,3.8,.05,1.27,.13,1.75,.08,2.91,0,1.37-.09,2.8,.17,4.53,.16,1.84,0,4-.12,5.63,.16,.15,.02,.71,.03,.97,0,3.43-.26,6.83,.17,10.23,.06,10.19,.37,20.51,.17,30.74,.32,4.22,.06,8.48,.29,12.64,.18,8.74-.22,17.5,0,26.24-.04,1.85,0,3.98-.12,5.65,.15,.23,.04,1.08,.04,1.45,0,2.77-.24,5.47-.16,8.25,0,.68,.04,1.94,.04,2.35-.03,1.16-.18,2.51-.11,3.75-.1,1.5,0,3.48,.17,4.38,.07,1.91-.2,2.98,.02,4.43,.06,.89,.02,1.89-.03,2.82-.06,.44-.01,1-.1,1.25-.08,2.94,.22,5.83-.11,8.74-.03,.62,.01,1.29,.02,1.9,.04q6.88,.27,15.56,.07c2.38,.31,5.17-.19,7.75,.04,.94,.08,2.76,.05,3.93-.03,5.16-.33,10.48-.17,15.68-.33,1.09-.03,1.92,.17,3.3-.02,.52-.07,2.31,.09,3.49,.06,1.72-.04,3.53,.05,5.24-.2,.7-.1,2.24-.06,3.38-.1,1.57-.06,3.14-.01,4.72-.22,.86-.11,2.87-.17,3.85-.11,4.08,.25,7.81-.17,11.58-.41,1.14-.07,1.93-.13,3.12-.12,1.67,.02,3.91,.04,5.19-.12,2.28-.27,4.47-.29,6.69-.39,3.84-.19,7.7-.34,11.53-.59,4.37-.28,8.73-.47,13.15-.99,2.37-.27,5.49-.63,8.09-.59,.29,0,1.31-.26,2.01-.33,5.48-.57,10.94-1.26,16.34-2.18,1.24-.22,2.66-.19,3.75-.65,1.16-.48,2.56-.32,3.49-.84,.13-.08,1.24-.35,1.81-.48,3.09-.7,6.21-1.7,8.87-3.28,1.31-.79,2.48-1.79,3.11-2.95,.19-.28,.25-.59,.37-.88,.04-.31,.14-.59,.13-.96,.04-.7-.03-1.41-.19-2.13-.27-1.39-1.1-2.87-1.47-4.02-2.07-3.18-4.58-6.84-7.59-9.28-1.93-2.07-4.33-3.94-6.2-5.95-.3-.33-1.09-.9-1.45-1.27-1.23-1.22-2.34-1.58-3.84-3.07-.86-.87-2.7-2.21-4.12-3.31-1.32-1.02-2.66-2.02-4-3.01l-4.46-3.24c-1.5-1.07-3-2.15-4.51-3.17-3.07-2.08-6.17-3.97-9.29-6.13-.33-.23-.94-.59-1.09-.64-1.27-.39-2.74-1.61-3.75-2.4-.85-.66-1.59-1.2-2.58-1.83-2.68-1.71-5.36-3.43-8.03-5.14-1.58-1.02-3.35-1.98-4.74-3.13-.43-.36-1.72-1.15-2.48-1.55-3.51-1.89-6.95-4.18-10.43-6.26-1.57-.95-3.15-1.91-4.72-2.87-1.19-.73-2.47-1.31-3.59-2.17-5.99-3.26-11.88-7.01-17.82-10.51-5.9-3.5-11.81-7.01-17.72-10.52-1.47-.88-3.19-1.76-4.37-2.75-.23-.19-1.29-.82-1.63-.97-.93-.4-1.62-.72-2.49-1.45-.16-.14-.99-.58-1.44-.81-1.26-.63-2.33-1.29-3.54-2.12-.94-.64-2.23-1.47-3.22-2-2.63-1.41-5.11-2.76-7.53-4.54-.3-.22-1.25-.6-1.82-.95-2.18-1.36-4.49-2.61-6.57-4.13-.85-.62-2.2-1.38-3.29-2.08-1.89-1.22-3.77-2.23-5.73-3.56-1.98-1.34-4.22-2.7-6.33-4.06-2.11-1.37-4.22-2.75-6.32-4.15-2.09-1.4-4.18-2.82-6.24-4.28-2.06-1.45-4.11-2.94-6.12-4.47-2.02-1.53-4-3.11-5.92-4.79-1.92-1.69-3.79-3.44-5.44-5.51-.57-.73-1.1-1.47-1.53-2.31-.42-.84-.8-1.77-.84-2.91-.12-4.45-.83-9.92-2.14-16.47-.08-.47-.17-.98-.26-1.48-1.16-6.39-2.33-12.87-6-18.01-1.55-2.27-3.42-4.36-5.68-6.08-1.48-1.11-3.01-2.09-4.74-2.74-.35-.14-.74-.3-1.15-.47-.41-.18-.83-.36-1.28-.52-.44-.17-.9-.33-1.36-.44-.46-.12-.93-.24-1.32-.25-.29-.02-.82-.08-1.22-.02-.42,.05-.62,.18-.77,.31-.58,.46-.62,2.3-.66,3.72-.02,1.5,.07,3.03,.13,4.56,.11,3.49,.29,7.2-.85,10.82-.57,1.77-1.55,3.39-2.68,4.94-.52,.81-2.33,2.24-3.58,2.81-1.89,.95-3.88,1.61-5.83,1.92-2.11,.28-3.18,.16-4.21,.04-1.03-.16-2.07-.36-3.97-1.17-.46-.19-.94-.42-1.4-.64-1.15-.57-2.24-1.26-3.26-2.05-.51-.4-1-.81-1.46-1.26l-.22-.21-.11-.11c-.07-.04-.14-.24-.22-.1l-.24,.2-.65,.52c-.52,.37-1.04,.74-1.58,1.07-1.08,.66-2.21,1.23-3.36,1.7-1.93,.77-3.95,1.24-6.01,1.36-2.04,.19-4.19-.21-5.99-.43-1.49-.18-3.03-.03-3.86,.27-.14,.02-.59,.44-.7,.7-.24,.49-.33,1.15-.38,1.93-.04,.77-.09,1.71-.21,2.58-.24,1.77-.67,3.53-1.25,5.21-.56,1.62-1.22,3.16-2.08,4.61-.42,.73-.92,1.42-1.45,2.1-.3,.33-.6,.66-.91,.99-.31,.33-.68,.6-1.03,.9-2.71,2.13-5.96,3.41-9.21,4.09-2.48,.5-4.01,.55-4.91,.48-.9-.08-1.18-.3-1.17-.64,0-.29,.32-.45,1.1-.6,.78-.16,2.04-.3,3.92-.71,3.95-.85,7.87-2.45,10.45-5.26,2.59-2.83,3.99-6.38,4.6-9.59Z"/>
        </g>
        <g class="cls-16">
          <g class="cls-16">
            <path class="cls-5" d="M86.54,633.76c-2.65,1.85-5.5,3.67-8.38,5.24-2.87,1.58-5.79,2.87-8.52,3.87-.61,.23-1.24,.44-1.87,.63l1-.12c1.89-.25,3.8-.8,5.65-1.49,1.84-.72,3.62-1.6,5.3-2.59,3.39-1.97,6.45-4.25,9.45-6.26,1.82-1.29,3.64-2.57,5.64-3.62,1.99-1.06,4.21-1.79,6.57-1.92,.52-.04,.58-.36,.61-.52-.49-.16-.92-.34-1.33-.52-2.02,.32-3.98,.94-5.81,1.84-1.85,.86-3.63,1.9-5.41,3.02-1.21,.7-2.18,1.99-2.89,2.44Z"/>
            <polygon class="cls-7" points="100.81 626.49 100.73 626.45 100.12 626.53 100.81 626.49"/>
            <path class="cls-4" d="M91.61,630.1c-1.18,.74-2.29,1.45-3.41,2.15-.65,.6-1.22,1.21-1.66,1.51-2.65,1.85-5.5,3.67-8.38,5.24-2.87,1.58-5.79,2.87-8.52,3.87-.61,.23-1.22,.43-1.85,.62l1.07-.13c2.61-.38,5.27-1.25,7.73-2.42,.12-.08,.25-.17,.37-.25,1.26-.88,2.57-1.38,3.81-2.12,3.36-2.32,6.14-4.14,9.36-6.3,.57-.39,1.13-.84,1.73-1.27,.59-.46,1.24-.87,1.97-1.2,.49-.26,.98-.45,1.47-.61,1.88-.93,3.95-1.62,6.16-1.7,.52-.04,.58-.36,.61-.52-.26-.08-.49-.17-.72-.26l-1.4,.1-1.38,.26c-.47,.07-.92,.21-1.37,.35-.45,.14-.92,.26-1.37,.42-1.53,.68-3.03,1.43-4.48,2.31,.07,0,.16-.03,.27-.06Z"/>
            <path class="cls-7" d="M91.23,629.76c-.21,.11-.36,.46,.11,.4,1.45-.88,2.95-1.63,4.48-2.31-1.51,.56-3.04,1.19-4.59,1.92Z"/>
            <path class="cls-8" d="M90.94,628.67c-3.08,1.53-5.49,3.74-7.93,5.03-1.27,.7-2.56,1.3-3.76,1.69-.38,.25-.75,.5-1.13,.73-2.32,1.5-4.71,2.81-7.24,3.67-2.53,.85-5.21,1.28-7.92,1.35-5.44,.15-10.92-.96-16.32-2.27-2.7-.62-5.28-1.13-7.78-1.89-2.49-.75-4.92-1.75-7.16-3.38-2.58-2.06-3.97-4.43-5.31-7.28-1.61-3.61-2.71-7.08-3.33-10.8-.61-3.7-.7-7.64,.16-11.78,.49-2.21-.57-2.89-.76-2.35-1.93,7.02-2.33,14.39-.15,21.23,1.09,3.4,2.81,6.6,5.15,9.36,2.33,2.75,5.36,5,8.75,6.38,2.61,1.1,5.29,1.81,7.92,2.41,2.64,.59,5.23,1.12,7.83,1.62,5.19,.97,10.44,1.7,15.8,1.11,.64-.19,1.26-.4,1.87-.63,2.74-1,5.65-2.3,8.52-3.87,2.88-1.57,5.73-3.39,8.38-5.24,.7-.45,1.68-1.74,2.89-2.44,1.78-1.12,3.55-2.16,5.41-3.02,1.84-.89,3.79-1.52,5.81-1.84-.87-.42-1.63-.68-2.59-.85-2.56,.79-4.86,1.99-7.12,3.06Z"/>
            <path class="cls-6" d="M90.94,628.67c2.26-1.06,4.57-2.27,7.12-3.06-.48-.09-.97-.07-1.55,.02-3.27,.61-6.4,2.24-9.21,4.1-2.82,1.87-5.43,3.94-8.05,5.67,1.2-.39,2.49-.99,3.76-1.69,2.43-1.29,4.85-3.5,7.93-5.03Z"/>
            <path class="cls-4" d="M90.94,628.67c2.16-1.01,4.35-2.16,6.77-2.96-.83,.17-1.68,.37-2.51,.65-4.19,1.48-7.79,4-11.4,6.08,3.73-2.49,7.58-5.11,12.15-6.7-3.17,.71-6.18,2.34-8.88,4.16-2.73,1.82-5.26,3.83-7.8,5.5,1.19-.39,2.49-.99,3.75-1.69,2.43-1.29,4.85-3.5,7.93-5.03Z"/>
            <path class="cls-3" d="M85.18,632.47c4.29-2.66,8.71-5.45,13.95-6.65-.24-.07-.49-.14-.75-.19-.23,.03-.45,.05-.67,.08-2.42,.8-4.61,1.94-6.77,2.96-3.08,1.53-5.49,3.74-7.93,5.03-1.26,.7-2.56,1.3-3.75,1.69-.36,.23-.71,.46-1.06,.69-2.37,1.54-4.81,2.88-7.39,3.75-1.29,.43-2.63,.74-3.98,.98-1.36,.2-2.74,.33-4.12,.36-4.85,.5-10.22-.53-15.26-1.85,2.41,.51,4.82,.95,7.24,1.24-2.66-.42-5.31-1-7.96-1.64-2.29-.53-4.49-.97-6.63-1.55-.52,.13-1.3,.15-2.48-.26-1.85-.63-3.5-1.57-5.25-2.54-.21-.17-.04-.31-.45-.67,1.17,.97,2.32,1.5,3.37,1.79-1.21-.54-2.38-1.21-3.51-2.02-2.04-1.59-3.33-3.43-4.45-5.49-.15-.2-.3-.41-.43-.63-.7-1.05-1.4-2.14-2.05-3.28,.19,.49,.41,.98,.65,1.48-.51-.7-.94-1.72-1.2-2.49,.18,.34,.35,.68,.55,1.01-.47-1.18-.86-2.33-1.17-3.63,.38,1.58,1.09,3.11,1.79,4.31-1.26-2.69-2.09-5.36-2.23-8.3l.07,.22c-.82-4.07-1.04-8.42-.1-13.02,.49-2.21-.57-2.9-.77-2.35-1.35,4.92-1.92,9.96-1.41,14.92,.5,4.94,2.18,9.8,5.11,13.89-.52-1.02-.98-2.06-1.37-3.13-.2-.45-.36-.9-.46-1.33,.14,.45,.29,.9,.46,1.33,.54,1.22,1.35,2.46,2.12,3.69,.1,.26,.63,.96,1.04,1.06,1.15,1.63,3.04,3.1,4.59,4.34,.1,.07,.23,.23,.38,.43,1.08,.67,2.22,1.24,3.39,1.73,3.28,1.36,6.63,2.13,9.9,2.82,3.27,.68,6.5,1.37,9.76,1.85-1.56-.33-3.04-.74-4.38-1.2-1.8-.68-5.81-1.1-9.16-1.86-.86-.16-1.28-.54-2.08-.79,3.03,.26,6.66,1.46,10.03,2.01,2.23,.38,4.89,.94,7.64,1.27,2.75,.31,5.61,.37,8.02-.17,1.98-.43,3.87-.59,5.53-.85-.53,.32-1.64,.63-2.2,.73-5.04,1.1-10.21,.71-15.25,.04,5.2,1.1,10.45,1.23,15.82,.32-3.14,.81-6.25,.64-9.2,.89,.24,.07,.5,.13,.76,.18,2.09,.11,4.2,.09,6.31-.15,.63-.19,1.24-.39,1.85-.62,2.74-1,5.65-2.3,8.52-3.87,2.88-1.57,5.73-3.39,8.38-5.24,.45-.29,1.01-.9,1.66-1.51-1.77,1.1-3.53,2.22-5.29,3.4,.75-.41,1.47-.77,2.19-1.05-1.62,1.15-3.14,1.78-4.81,2.89,.88-.63,1.74-1.24,2.62-1.83-1.15,.65-2.28,1.3-3.44,1.97,2.06-1.6,4.38-2.41,6.32-4.21-.45,.31-.92,.61-1.39,.9l1.41-.92-.02,.02c1.39-.96,2.72-1.99,3.95-2.91-2.49,1.51-4.82,2.75-7.18,4.36l-1.15,.82c.38-.29,.77-.56,1.15-.82,2.67-1.88,5.39-3.74,8.3-5.26,2.91-1.51,6.02-2.71,9.26-3.06l.61-.08c-.19-.09-.39-.17-.58-.26-2.72,.32-5.37,1.21-7.85,2.37-2.49,1.16-4.84,2.55-7.12,3.91Z"/>
          </g>
        </g>
        <g class="cls-16">
          <g class="cls-16">
            <path class="cls-5" d="M157.07,613.84c-2.2,2.59-5.39,4.15-7.28,6.31-.21,.23-.43,.48-.66,.73l.44-.22c3.32-1.62,6.66-4.16,9.03-7.3,1.36-2.04,2.25-4.37,3.3-6.8,.12-.27-.16-.42-.3-.49-.29,.17-.57,.29-.85,.39-.62,1.96-1.48,3.91-2.81,5.6-.45,.54-.57,1.47-.88,1.79Z"/>
            <polygon class="cls-7" points="160.82 606.39 160.77 606.41 160.67 606.71 160.82 606.39"/>
            <path class="cls-4" d="M158.76,611.06c-.33,.62-.75,1.18-1.2,1.7-.18,.43-.29,.89-.49,1.09-2.2,2.59-5.39,4.15-7.28,6.31-.21,.23-.43,.47-.65,.72l.47-.24c1.15-.57,2.3-1.24,3.41-2.01l.14-.17c.46-.63,1.16-.87,1.73-1.34,1.44-1.49,2.83-2.6,4.02-4.36,.43-.62,.59-1.48,1.1-2.2,.17-.25,.32-.5,.49-.73,.49-1.15,.94-2.2,1.42-3.31,.12-.27-.16-.42-.3-.49-.15,.09-.3,.16-.45,.23-.4,.88-.83,1.75-1.32,2.6-.36,.77-.76,1.55-1.24,2.27,.04-.01,.09-.03,.14-.06Z"/>
            <path class="cls-7" d="M158.32,610.85c-.07,.09,.02,.35,.29,.27,.48-.73,.88-1.5,1.24-2.27-.43,.7-.92,1.39-1.53,2Z"/>
            <path class="cls-8" d="M157.5,610.11c-1.03,1.21-1.75,2.64-2.89,3.38-.58,.4-1.24,.7-1.88,.86-.16,.15-.32,.3-.48,.44-3.94,3.7-8.79,6.59-13.91,8.27-2.54,.91-4.76,2.17-7.41,3.18-1.6,.48-2.99,.38-4.61,.39-4.03-.03-7.39,1.44-11.64,1.59-1.13,.04-1.4,1.28-1.12,1.31,3.61,.05,7.1,.02,10.57-.31,3.46-.33,6.92-.96,10.3-2.16,2.62-.92,5.12-1.89,7.56-2.91,2.43-1.04,4.8-2.13,7.16-3.28,.23-.25,.45-.5,.66-.73,1.89-2.16,5.08-3.72,7.28-6.31,.3-.32,.43-1.24,.88-1.79,1.33-1.7,2.18-3.65,2.81-5.6-.57,.21-1.15,.3-1.62,.51-.35,1.14-.84,2.27-1.63,3.14Z"/>
            <path class="cls-6" d="M157.5,610.11c.79-.87,1.28-2,1.63-3.14-.23,.1-.45,.23-.65,.41-.97,1.08-1.82,2.27-2.75,3.49-.92,1.21-1.91,2.43-3.01,3.48,.65-.16,1.3-.46,1.88-.86,1.15-.74,1.86-2.17,2.89-3.38Z"/>
            <path class="cls-4" d="M157.5,610.11c.76-.83,1.24-1.9,1.58-2.98-.23,.31-.46,.62-.65,.96-1.04,1.66-2.22,3.32-3.8,4.52,1.46-1.52,2.76-3.18,3.68-5.04-.92,1.06-1.75,2.23-2.65,3.41-.9,1.18-1.86,2.36-2.93,3.38,.64-.16,1.3-.46,1.88-.86,1.15-.74,1.86-2.17,2.89-3.38Z"/>
            <path class="cls-3" d="M155.58,612.76c1.77-1.67,3.32-3.68,4.12-6.03-.15,.05-.3,.09-.44,.15-.06,.09-.12,.17-.18,.25-.35,1.08-.83,2.15-1.58,2.98-1.03,1.21-1.75,2.64-2.89,3.38-.58,.4-1.23,.7-1.88,.86l-.45,.42c-2,1.9-4.26,3.57-6.66,4.99-1.89,1.56-4.34,2.68-6.79,3.39,1.1-.47,2.2-.94,3.25-1.54-1.2,.57-2.45,1.03-3.7,1.44-1.08,.38-2.09,.84-3.11,1.29-.13,.34-.39,.72-.97,.96-.91,.38-1.83,.64-2.74,1.13-.14,.03-.17-.21-.43-.15,.75-.16,1.33-.45,1.78-.85-.62,.3-1.27,.54-1.93,.8-1.25,.4-2.39,.37-3.6,.4l-.38,.08c-.63,.13-1.25,.38-1.89,.6,.27-.01,.53-.04,.81-.08-.4,.22-.96,.24-1.37,.28,.19-.07,.37-.13,.56-.2-.64,.05-1.25,.09-1.92,.14,.82-.06,1.64-.27,2.32-.49-.75,.1-1.47,.19-2.18,.29-.72,.07-1.44,.08-2.18,.02l.11-.05c-2.07,.4-4.19,.95-6.54,1-1.13,.04-1.4,1.28-1.12,1.31,2.53,.03,4.98,.01,7.42-.09,2.44-.12,4.85-.37,7.26-.78-.58-.08-1.16-.16-1.72-.23-.24,0-.48-.03-.71-.09,.23,.03,.47,.06,.71,.09,.66,0,1.38-.11,2.1-.12,.14,.06,.56-.01,.68-.27,.99,.02,2.07-.46,3.06-.5,.06-.01,.17,.03,.3,.09,.59-.18,1.18-.38,1.76-.58,3.27-1.15,6.36-2.38,9.37-3.7-.78,.21-1.53,.41-2.25,.5-.51,.03-1.18,.32-1.92,.69-.75,.35-1.58,.78-2.36,1.13-.39,.2-.71,.04-1.11,.16,.6-.54,1.37-.87,2.19-1.17,.82-.28,1.68-.55,2.44-.94,2.01-.96,5.11-1.9,6.93-3.62,.74-.71,1.66-1.01,2.49-1.25-.16,.29-.64,.58-.88,.73-2.14,1.35-4.38,2.52-6.64,3.68,2.53-.85,4.69-2.25,7.1-3.41-1.29,.91-2.77,1.38-3.87,2.39,.14,0,.27-.02,.41-.04,.92-.46,1.88-.88,2.8-1.35,.23-.25,.44-.49,.65-.72,1.89-2.16,5.08-3.72,7.28-6.31,.2-.19,.31-.65,.49-1.09-.71,.81-1.51,1.5-2.27,2.25,.36-.24,.72-.46,1.11-.61-.68,.76-1.5,1.08-2.23,1.77,.36-.41,.73-.8,1.11-1.16-.54,.36-1.07,.78-1.62,1.17,.79-1.04,2.12-1.39,2.72-2.65-.19,.2-.38,.41-.59,.58l.6-.59v.02c.56-.63,.99-1.38,1.33-2.07-.88,1.16-2,1.9-2.98,2.89l-.48,.51c.15-.18,.32-.35,.48-.51,2.19-2.34,4.47-4.68,5.92-7.63l.09-.3-.39,.13c-1.13,2.41-2.86,4.54-4.8,6.22Z"/>
          </g>
        </g>
      </g>
    </g>
  </g>
</svg>