<?xml version="1.0" encoding="UTF-8"?>
<svg id="_Слой_2" data-name="Слой 2" xmlns="http://www.w3.org/2000/svg" xmlns:xlink="http://www.w3.org/1999/xlink" viewBox="0 0 284.61 718.7">
  <defs>
    <style>
      .cls-1 {
        fill: none;
      }

      .cls-2 {
        clip-path: url(#clippath);
      }

      .cls-3 {
        fill: #f3f9fb;
      }

      .cls-4 {
        fill: #f7fbfc;
      }

      .cls-5 {
        fill: #f8fcfd;
      }

      .cls-6 {
        fill: #f4fafb;
      }

      .cls-7 {
        fill: #f5fafb;
      }

      .cls-8 {
        fill: #fbfdfe;
      }

      .cls-9 {
        fill: #8f3b39;
      }

      .cls-10 {
        fill: #349039;
      }

      .cls-11 {
        fill: #a2dbed;
      }

      .cls-12 {
        fill: #6e7c6e;
      }

      .cls-13 {
        fill: #2c7e31;
      }

      .cls-14 {
        opacity: .58;
      }

      .cls-15 {
        opacity: .49;
      }

      .cls-16 {
        opacity: .8;
      }
    </style>
    <clipPath id="clippath">
      <rect class="cls-1" width="284.61" height="718.7"/>
    </clipPath>
  </defs>
  <g id="_камыши_и_кувшинки" data-name="камыши и кувшинки">
    <g class="cls-2">
      <g>
        <g class="cls-15">
          <path class="cls-12" d="M142.11,733.18c-.82-.31-1.45-.64-2.16-.78-.11-.02-.43,.41-.55,.35-.5-.25-1.23-.03-1.48-.8-.27-.84-.76-1.14-1.44-1-.65,.13-1.07-.2-1.59-.32-.18-.04-.38-.02-.29-.64,.07-.45-.14-.6-.65,0-.1,.12-.1-.06-.12-.15-.02-.1,.06-.42-.03-.35-.99,.8-1.06-.23-1.65-.23-.15,0-.11-.37-.58,.26-.12,.16-.25,.13-.19-.05,.14-.47,.1-.61-.01-.66-.49-.23-.95-.5-1.42-.77-.73,.75-.77,.21-1.01,.06-.18-.11-.19-.52-.27-.8-.08-.28-.61,.16-.33-.71,.04-.14-.16,.05-.22,.03-.27-.07-.67,.06-.71-.35-.02-.21-.04-.42-.15-.49-1.4-.88-2.79-1.78-4.18-2.69-.12-.08-.17-.25-.62,.14-.36,.31-.59,.18-.42-.26,.27-.71-.04-.57-.17-.71-.22-.25-.56-.35-.78-.6-.13-.15-.61,.14-.15-.79,.04-.09,0-.12-.08-.06-.75,.67-.44-.12-.53-.35-.07-.17-.2-.25-.63,.04-.41,.28-.68,.17-.5-.33,.24-.66-.04-.6-.19-.72-.87-.73-1.74-1.46-2.66-2.13-.43-.33-1.42,.01-1.6-.63-.04-.15-.4,.04-.02-.57,.08-.12-.06-.13-.2-.03-.53,.37-.49,.09-.59-.04-.48-.63-.78-1.43-1.74-1.55-.75-.1-1.02-.67-1.54-1.02-.17-.12,.05-.59,0-.81-.06-.21-.22-.34-.38-.47-.1-.08-.01-.3-.53-.03-.28,.14-.46,.06-.31-.16,.52-.71,.11-.71-.03-.93-.38-.62-.83-1.21-1.14-2.03-.06-.19-.56-.27,.22-.73,.11-.06-.19-.08-.29-.13-.11-.05-.37-.08-.27-.17,.24-.21,.37-.37,.44-.52,.22-.43-.18-.64-.21-.97-.08-1.04-.44-2.02-.48-3.06-.01-.29-.79-.4-.8-.69,0-.27-.14-.53-.12-.8,.01-.2-.42-.32,.42-.66,.23-.09,.2-.23-.04-.24-.9-.05-.5-.36-.67-.56-.21-.24,.29-.62-.68-.71-.26-.03,.2-.25,.22-.37,.03-.2,.03-.4-.05-.58-.04-.09-.38-.11-.42-.2-.35-.66-.74-1.31-.97-2-.23-.7-.29-1.43-.43-2.14-.14-.71-.34-1.42-.37-2.15-.01-.28-.75-.44,.39-.91-.76-.11-.37-.41,.39-.78,.11-.05-.25-.07-.35-.11-.34-.12-1.58-.06-.31-.51,.05-.02-.02-.03,0-.05,.15-.2-1.19-.06-.43-.43,.47-.23,.22-.4,.23-.58,0-.19,.03-.39-.12-.54-.15-.17,.42-.49-.6-.47-.16,0,.49-.27,.43-.34-.32-.37,.49-.97-.75-1.16-.28-.04-.28-.2-.07-.34,.77-.52,.27-.78-.12-1.09-.51-.41-.77-.9,.37-1.61,.24-.15,.43-.24-.02-.25-.3-.01-.25-.14-.27-.24l-.63-3.19c-.06-.29,.83-.74,.42-.97-.17-.09,.28-.33-.53-.28-.11,0-.19-.03-.13-.07,.85-.54-.53-.63-.22-1.06,.07-.09,.23-.2,.31-.29,.08-.1,.3-.23,.15-.27-1.24-.32-.5-1.05-.89-1.54-.13-.17,.34-.48-.66-.45-.15,0-.15-.08-.03-.14,1.1-.55,.13-.73,.37-1.12,.12-.2-.55-.27,.37-.61,.12-.04,0-.09-.07-.12-.13-.05-.46-.06-.46-.13,0-.21,.49-.53,.15-.64-.43-.14-.31-.37-.38-.57-.04-.12,.37-.32,.45-.46,.07-.13-.03-.24-.05-.35-.03-.17-.23-.3-.05-.5,.19-.21-.84-.13-.2-.45,.49-.24-.46-.21-.6-.35-.07-.07,.03-.17,.11-.27,.07-.08,.37-.2,.34-.25-.08-.11,.07-.27-.38-.31-.31-.03,.19-.3,.23-.45,.04-.15-.04-.27-.07-.4-.03-.13,.14-.32-.12-.39-1.11-.32-.61-.98-.85-1.49-.06-.13-.43-.22,.38-.51,.15-.05,.14-.13,.04-.15-1.29-.26-.46-.98-.91-1.42-.32-.31-.85-.58-.82-.97,.03-.38,.18-.81-.31-1.07-.4-.21-.77-.43-.61-.76,.15-.32-1.6-.22-.23-.8-.06-.28-.17-.55-.17-.84,0-.25-.42-.4,.36-.82,.28-.15,.22-.31-.07-.34-.95-.1-.76-.44-.38-.83,.09-.09-.35-.09-.38-.17-.1-.23-.23-.47-.16-.74,.2-.82-.95-1.3-1.12-2.02-.03-.13-.74-.12-.59-.28,.91-.97-.38-1.44,.09-2.3,.67-1.27-.26-2.14-.31-3.23,0-.14,.67-.46,.45-.48-.68-.04-.2-.4-.72-.45-.93-.07-.44-.51-.73-.74-.21-.17,.29-.55-.72-.48-.15,.01-.14-.07-.04-.14,.82-.56-.6-.49-.26-.92-1.25-.28-.67-1.06-1.08-1.55-.06-.07-.32-.08-.48-.12-.08-.02-.24-.03-.17-.08,.99-.85-.05-1.14,.09-1.7,.05-.19,.31-.45,.37-.64,.06-.2-.28-.26,.37-.67,.2-.13,.06-.18-.05-.22-.59-.19,.79-1.04,3.14-2,.85-.34,.94-.28,1.29-.31,.68-.06,1.14-.04,1.16,.21,.01,.19-.19,.48,.69,.33,.15-.02,.15,.07,.06,.15-.64,.56,.07,.69-.34,1.14-.32,.34-.17,.5-.26,.75-.08,.21,.41,.25-.3,.66-.24,.14,.47,.1,.54,.21,.16,.26,.29,.52,.26,.84-.08,.94,1.38,1.43,1.3,2.37,1.26,.31,.44,1.21,1.13,1.68,.84,.57,.67,1.39,1.14,2.05,.1,.14,.1,.26-.15,.47-.16,.13-.34,.27-.33,.37,.04,.36,.23,.69,.21,1.06,0,.2,.6,.27-.4,.69-.14,.06-.1,.14,.03,.14,1.11,.06,.55,.54,.76,.83,.08,.11,.06,.24-.28,.46-.37,.24-.28,.45,.13,.52,.31,.05,.34,.15,.45,.23,.45,.37-.5,1.08,.87,1.23-1.05,.48-.63,.69-.31,.86,1.22,.67,.67,1.74,1.07,2.6,.1,.21-.33,.53-.37,.77-.05,.25,.05,.48,.15,.7,.05,.12-.28,.34,.55,.26,.06,0,.11,0,.1,.02-.11,.16-.38,.36-.29,.48,.08,.1,.65,.09,.82,.18,.2,.1,.25,.25,.3,.39,.05,.14,.26,.25-.43,.52,.92-.08,.5,.18,.6,.3,.09,.12,.07,.26,.1,.4l.1,.45c.03,.15,0,.32,.11,.45,.17,.18,.53,.31,.67,.49,.14,.19,.19,.41,.14,.65-.06,.29-.28,.62-.38,.92-.04,.13,.2,.17,.54,.22,.45,.06,1.41,.05,.24,.49-.23,.09-.14,.2,.04,.24,1.38,.32,.45,1.13,.92,1.64-.86,.51-.22,.71,.1,.99,.48,.41,.73,.9,.28,1.5-.48,.63-.04,1.06-.16,1.61-.03,.15,.34,.24-.47,.53-.18,.07-.11,.16,.03,.2,.96,.23,.79,.68,.31,1.21-.25,.28,.15,.46,.52,.63,.55,.27,.28,.74,.35,1.12-1,.37,.08,.29,.54,.29,.62,0,.74,.08,.78,.21,.05,.17-.1,.38,.6,.42,.36,.02,.32,.23-.02,.4-.46,.22-.22,.23,.12,.28,.4,.06-.53,.39-.44,.56,.09,.17,.65,.29-.4,.66-.09,.03-.07,.09,.02,.1,1.17,.12-.36,.78,.19,1.02-1.03,1.25,.2,2.08-.03,3.18-.09,.45-.81,1.03-.24,1.35,1.19,.67,.64,1.68,.99,2.52,.08,.18,.6,.3-.42,.66-.14,.05-.11,.13,.03,.15,1.01,.09,.76,.42,.17,.82-.14,.1-.1,.22,.16,.21,.74-.02,.48,.17,.48,.29,0,.15-.58,.47-.21,.49,.81,.04-.03,.31-.15,.49-.07,.11,.15,.17,.28,.24,.06,.03,.39,.03,.32,.07-.83,.46,.5,.5,.19,.86-.07,.08-.03,.14-.13,.22q-1.04,.91-.28,1.66c-1.23,.48,.7,.4-.22,.84-.34,.16-.22,.33,.05,.4,1.22,.3,.44,1,.86,1.45,.09,.1-.75,.34-.03,.35,.27,0-.45,.32-.4,.44,.07,.16-.36,.43,.51,.44,.35,0,.11,.21,.2,.31,.13,.14-.16,.35,.55,.38,.39,.02,.44,.21,.13,.37-1.29,.66,.01,.8,.56,1.09,.17,.09,.31,.14,.12,.3-.26,.22-.6,.52-.17,.57,.76,.09,.51,.37,.59,.58,.15,.37,.09,.78,.26,1.14,.2,.42-.07,.92,.69,1.23,.41,.17,.81,.42-.27,.89-.12,.05,.53,.04,.55,.11,.15,.54,.28,1.08,.3,1.65,0,.13-1.09,.48-.17,.43,.98-.06-.87,.43,.29,.32,.17-.02,.17,.1,.07,.18-.26,.19-.38,.44-.47,.44-.26,.2,.25,.14,.08,.33-.05,.06,.39-.1-.43,.44,1.04-.39-.67,1.1,.95,.35-.11,.34,.74-.05-.02,.85-.12,.15,.15,.03,.04,.17-.35,.48,1.05-.59,.47,.14-.33,.42,.04,.37,.12,.5,.08,.13,.18,.22,.29,.33l.34,.36c.11,.12,.17,.29,.35,.35,.37,.12,1.1-.16,1.14,.29,0,.05,.15,0,.28-.12,1.13-1.01,.67-.29,.45,.11-.18,.33-.24,.52-.15,.59,.22,.19,.48,.34,.64,.61,.09,.16,.55-.08,.05,.74-.16,.26,0,.3,.2,.19,.93-.51,.84,.19,1.23,.33,.18,.06,.29,.2,.41,.33,.09,.1,.6-.32,.31,.25,1.26-.54,1.28,.48,1.89,.77,.6,.28,1.07,.74,1.57,1.17,.12,.11,.55-.17,.08,.73-.09,.17,.01,.23,.16,.09,.4-.38,.62-.58,.28,.08-.06,.12,.1,.05,.22-.04,.34-.25,.41-.14,.31,.24-.08,.3-.06,.53,.15,.41,.56-.3,1.05-.55,.69,.48-.04,.13,.42-.38,.45-.31,.13,.25,.64-.06,.39,.75-.1,.33,.16,.21,.22,.35,.09,.25,.57-.1,.59,.29,.02,.39,.36,.32,.57,.46l.61,.39,.61,.39,.62,.38,.62,.38c.21,.13,.42,.24,.62,.38,.14,.1,.22,.27,.16,.7-.14,1.1,.4,1.26,1.37,.88,.07-.03,.09,.04,.13,.07,.55,.32,1.2,.45,1.62,1,.18,.24,.22,.77,.51,.84,.19,.04,.28,.27,.73-.21,.38-.4,.15,.51,.74-.24,.22-.28,.36-.19,.31,.1-.17,.96,.33,.66,.55,.86,.26,.23,.58,.36,.91,.45,.16,.04,.18,.4,.66-.23,.24-.31,.3,.01,.28,.36-.04,.54,.17,.53,.42,.41,.54-.26,.56-.34,.67,.34,.01,.08,.06,.1,.1,.12,.42,.2,.72,.71,1.32,.45,.5-.22,.85-.11,1.2,0,.14,.05,.46-.31,.21,.67-.04,.14,.05,.16,.13,.05,.68-.9,.78-.25,1.09-.15,.3,.09,.86-.64,1.08-.33,.2,.29,.54,.23,.82,.33,.42,.15,.32,.75-.52,3.35-.7,2.15-.97,2.57-1.5,2.89-1.14,.69-1.7-.33-2.45-.29Z"/>
          <g>
            <path class="cls-12" d="M115.93,703.15c-7.15-.27-15.35,.98-18.2,2.21-2.86,1.22-2.61,2.64-2.13,4.01,1.78,5.05,6.11,10.09,12.68,15.04,1.38,1.04,2.91,2.1,6.12,3s8.44,1.63,14.06,1.64c6.56,.01,12.01-.96,14.31-2.1,2.3-1.14,2.09-2.41,1.72-3.65-1.62-5.55-6.02-10.9-14.55-16.29-1.26-.8-6.01-1.9-9.64-2.39-4.16-.55-6.42-.98-10.76-.98"/>
            <path class="cls-12" d="M112.82,704.98c-.91,.01-1.65-.02-2.38,.16-.11,.03-.21,.56-.36,.56-.58,0-1.13,.53-1.73-.01-.66-.6-1.29-.61-1.82-.13-.5,.46-1.05,.4-1.57,.61-.17,.07-.33,.2-.62-.36-.21-.41-.48-.41-.55,.38-.01,.15-.12,.01-.19-.05-.08-.06-.21-.38-.23-.26-.17,.62-.41,.74-.68,.75-.14,0-.28-.02-.41-.02-.12,0-.21,.01-.3,.1-.08,.09-.28-.22-.14,.55,.04,.2-.03,.24-.12,.07-.21-.45-.31-.53-.38-.5-.32,.11-.66,.18-.99,.28,.51,.93,.09,.57-.07,.63-.11,.03-.5-.2-.8-.29-.31-.08,.19,.45-.8-.12-.16-.09,.06,.13,.04,.17-.09,.16,.13,.48-.35,.39-.25-.04-.5-.06-.56,.02-.38,.52-.25,1.21-.03,1.77,.22,.58,.46,1.15,.77,1.69,.05,.09-.01,.24,.6,.12,.48-.09,.56,.01,.18,.28-.6,.44-.28,.41-.22,.57,.1,.3,.36,.5,.46,.81,.07,.19,.62,.07-.12,.8-.07,.07-.03,.12,.06,.08,.92-.39,.38,.26,.41,.52,.02,.18,.13,.31,.62,.15,.47-.15,.7,.02,.41,.45-.39,.59-.09,.6,.03,.76,.72,.94,1.51,1.84,2.41,2.62,.42,.39,1.45,.1,1.61,.75,.04,.15,.41-.03,.02,.58-.08,.12,.06,.13,.21,.03,.54-.37,.49-.09,.6,.05,.5,.62,.88,1.44,1.86,1.46,.76,.02,1.1,.54,1.66,.79,.19,.08,.06,.59,.16,.79,.1,.2,.28,.27,.46,.35,.1,.04,.08,.28,.49-.13,.22-.22,.39-.21,.3,.03-.29,.81,.08,.67,.26,.79,.51,.35,1.08,.58,1.65,.86,.14,.07,.45-.25,.27,.61-.02,.12,.16-.11,.25-.17,.09-.06,.25-.27,.25-.14,.02,1.21,.68,.74,1.09,.9,1,.41,2.11,.48,3.17,.83,.3,.1,.69-.59,.97-.5,.28,.09,.57,.05,.85,.16,.2,.08,.46-.29,.53,.62,.02,.25,.17,.26,.26,.04,.34-.84,.53-.36,.78-.47,.31-.13,.55,.46,.93-.44,.1-.24,.2,.26,.32,.31,.2,.09,.4,.14,.61,.11,.1-.01,.22-.33,.32-.35,.77-.16,1.54-.38,2.29-.44,.77-.07,1.53,.04,2.29,.04,.76,0,1.53-.07,2.29,.02,.29,.03,.57-.67,.88,.53,.24-.74,.48-.31,.76,.5,.04,.12,.11-.23,.16-.34,.18-.33,.28-1.56,.58-.25,.01,.05,.03-.01,.05,0,.19,.18,.22-1.17,.5-.38,.18,.49,.39,.26,.58,.29,.2,.03,.4,.07,.58-.07,.19-.14,.47,.46,.55-.56,.01-.16,.23,.51,.32,.46,.41-.3,.99,.55,1.25-.69,.06-.28,.21-.28,.35-.05,.49,.79,.82,.29,1.08-.09,.09-.12,.18-.23,.28-.31,.05-.04,.1-.07,.15-.08,.03-.02,.06-.02,.1-.01,.15,.03,.35,.27,.76,.81,.17,.23,.31,.41,.18-.02-.08-.28,.02-.23,.08-.25,.67-.2,1.36-.41,1.92-.85,.13-.11,1.33,.33,1.06-.09-.13-.16,.49-.02-.43-.49-.13-.07-.19-.13-.12-.11,.58,.11,.49-.09,.29-.27-.2-.19-.49-.37-.28-.43,.09-.03,.29-.03,.39-.06,.1-.03,.36-.05,.19-.12-.72-.31-.86-.46-.87-.64,0-.17,.07-.35-.15-.51-.14-.09,.34-.33-.71-.24-.16,.02-.16-.03-.04-.07,.56-.21,.57-.35,.49-.44-.09-.09-.28-.14-.19-.31,.08-.18-.56-.01,.26-.55,.1-.07-.01-.08-.09-.07-.14,0-.43,.12-.46,.05-.06-.19,.29-.66-.07-.64-.45,.02-.41-.24-.55-.4-.08-.09,.22-.43,.24-.6,.01-.15-.12-.21-.18-.31-.09-.14-.34-.19-.26-.44,.08-.27-.82,.24-.38-.33,.33-.44-.5,0-.69-.05-.09-.03-.06-.16-.03-.29,.02-.1,.24-.35,.18-.38-.13-.06-.07-.28-.49-.1-.29,.12,.02-.37-.02-.52-.04-.15-.18-.22-.27-.32-.09-.1-.05-.35-.31-.28-1.11,.29-1.07-.52-1.56-.83-.13-.07-.49,.07,0-.65,.09-.13,.03-.19-.06-.15-1.21,.52-.97-.56-1.62-.65-.45-.07-1.03,.05-1.28-.28-.23-.32-.4-.76-.95-.65-.45,.09-.88,.17-.98-.18-.11-.35-1.33,.89-.72-.46-.24-.17-.52-.3-.72-.52-.18-.19-.59-.02-.33-.86,.1-.31-.06-.38-.3-.2-.75,.59-.9,.18-.86-.33,0-.04-.02-.03-.05,0-.07,.06-.2,.23-.23,.23-.12-.01-.24,.01-.31-.14-.4-.55-1.42,.19-2.11,.02-.13-.03-.45,.6-.52,.39-.46-1.25-1.47-.31-2.07-1.09-.91-1.16-2.16-.68-3.2-1.04-.14-.05-.22-.79-.31-.6-.32,.62-.51,.03-.76,.49-.46,.83-.72,.19-1.09,.37-.27,.13-.44-.49-.8,.47-.05,.14-.13,.1-.16-.02-.23-.98-.75,.36-1.03-.12-.78,1.05-1.32,.2-1.96,.39-.09,.03-.2,.27-.3,.39-.05,.06-.12,.21-.15,.13-.45-1.24-1.1-.35-1.63-.69-.18-.12-.35-.45-.54-.58-.19-.13-.39,.17-.56-.59-.05-.23-.17-.12-.25-.03-.45,.49-.79-1.1-.8-3.64,0-.92,.1-.97,.21-1.31,.21-.66,.42-1.08,.67-1.01,.2,.06,.4,.35,.6-.53,.03-.15,.12-.11,.17,0,.32,.8,.72,.18,1.02,.74,.23,.42,.46,.33,.68,.51,.19,.15,.42-.3,.56,.52,.04,.27,.29-.41,.43-.43,.33-.05,.66-.07,.97,.08,.92,.46,2.04-.71,2.95-.25,.84-1.03,1.4,.09,2.14-.37,.87-.57,1.74-.08,2.62-.23,.18-.03,.32,.02,.43,.33,.07,.2,.14,.42,.24,.45,.39,.12,.81,.1,1.19,.28,.2,.1,.56-.42,.52,.66,0,.15,.09,.16,.16,.04,.57-.97,.82-.25,1.21-.29,.15-.02,.28,.06,.33,.47,.06,.44,.32,.46,.59,.14,.2-.25,.32-.22,.47-.27,.63-.2,.83,.99,1.77-.06-.08,1.17,.35,.93,.82,.83,.45-.11,.87-.06,1.24,.08,.86,.32,1.24,.99,1.98,1.33,.24,.11,.17,.65,.33,.88,.16,.24,.41,.35,.66,.48,.13,.06,.05,.47,.63-.13,.04-.04,.09-.06,.09-.04,.05,.2-.01,.55,.14,.59,.14,.04,.58-.33,.78-.37,.24-.04,.39,.06,.54,.15,.14,.09,.4,.06,.05,.72,.67-.64,.54-.15,.71-.11,.17,.05,.26,.19,.38,.29l.41,.35c.14,.12,.23,.29,.43,.34,.27,.07,.68-.03,.92,.07,.26,.11,.46,.29,.59,.54,.17,.31,.22,.74,.34,1.09,.05,.15,.29,.07,.62-.07,.43-.18,1.27-.67,.55,.36-.14,.2,.02,.27,.2,.23,1.43-.33,1.18,.95,1.92,1.31-.46,.93,.24,.85,.72,1.05,.7,.27,1.25,.77,1.13,1.62-.1,.89,.49,1.25,.67,1.99,.06,.25,.5,.34-.17,.89-.15,.12-.02,.25,.14,.29,1.15,.24,1.21,1.14,.93,1.91-.14,.41,.32,.74,.8,1.14,.75,.61,.48,1.32,.6,1.96-1.04,.15,.12,.49,.58,.72,.64,.3,.74,.52,.75,.77,0,.32-.21,.56,.4,1.07,.31,.26,.14,.62-.26,.67-.53,.07-.34,.22-.12,.55,.26,.4-.74,.27-.84,.57-.1,.32,.14,.94-.99,.63-.1-.03-.15,.05-.11,.13,.31,.54-.02,.72-.39,.81-.39,.09-.82,.12-.87,.46-1.19,.16-1.95,.52-2.77,.93-.78,.42-1.65,.84-2.65,.89-.41,.02-.87-.14-1.27-.21-.44-.06-.66-.11-.91,.2-.95,1.24-2.08,.67-3.11,.98-.21,.07-.42,.58-.73-.46-.04-.14-.14-.12-.17,.02-.23,1-.59,.74-.97,.1-.09-.15-.24-.12-.27,.14-.08,.74-.26,.46-.41,.45-.18,0-.46-.63-.54-.26-.18,.8-.36-.07-.54-.2-.11-.08-.22,.13-.32,.25-.05,.06-.1,.38-.13,.31-.39-.89-.67,.43-1.03,.07-.08-.08-.15-.06-.23-.16-.84-1.17-.83-1.17-1.84-.56-.28-1.3-.6,.62-.9-.38-.11-.36-.32-.28-.46-.02-.62,1.13-1.23,.22-1.84,.52-.13,.06-.19-.81-.38-.11-.07,.26-.24-.51-.38-.49-.2,.03-.38-.45-.63,.38-.1,.34-.27,.05-.4,.12-.19,.09-.35-.25-.59,.43-.13,.37-.37,.37-.46,.02-.36-1.43-.9-.21-1.4,.23-.15,.13-.26,.26-.38,.03-.17-.32-.38-.73-.58-.34-.35,.7-.58,.37-.85,.38-.47,.02-.91-.18-1.38-.15-.55,.04-1-.4-1.66,.18-.35,.32-.82,.58-.91-.61,0-.13-.27,.47-.35,.46-.7-.1-1.39-.23-2.09-.51-.16-.06-.03-1.2-.43-.37-.43,.88-.06-1-.53,.08-.07,.16-.22,.09-.26-.04-.45-1.42-1.61-.83-2.37-1.51-.17-.16-.61,.15-.35-.81-.49,.36-.65-.03-.81-.36-.17-.32-.35-.57-1.04,.02-.2-.46-1.08,.05-.74-1.12,.06-.19-.21-.04-.17-.21,.15-.6-1,.74-.68-.15,.19-.51-.21-.43-.36-.58-.14-.14-.31-.25-.46-.37l-.51-.4c-.17-.14-.3-.33-.52-.4-.45-.14-1.24,.14-1.4-.38-.02-.06-.17,0-.3,.12-1.09,1.05-.73,.26-.56-.17,.14-.36,.17-.57,.06-.65-.3-.24-.62-.46-.85-.78-.13-.19-.64,0-.16-.85,.15-.26-.03-.34-.25-.25-1.03,.39-1-.38-1.45-.63-.21-.11-.34-.3-.48-.48-.11-.13-.69,.19-.36-.37-1.47,.23-1.49-.99-2.16-1.55-.67-.58-1.17-1.33-1.65-2.09-.12-.18-.66-.13,.05-.87,.14-.14,.03-.26-.16-.19-.52,.2-.82,.28-.3-.25,.1-.1-.1-.1-.26-.09-.44,.05-.51-.14-.31-.52,.15-.29,.19-.57-.08-.6-.35,0-.72-.16-.93-.4-.2-.24-.22-.58,.13-1.04,.09-.11-.64-.04-.68-.18-.11-.5-.85-.87-.27-1.52,.25-.26-.14-.48-.12-.73,.02-.41-.69-.75-.52-1.2,.18-.43-.14-.88-.24-1.33-.1-.45-.14-.88-.14-1.3,0-.43,.03-.85,.1-1.28,.08-.42,.2-.86,.37-1.27,.16-.42,.39-.8,.63-1.17,.25-.36,.51-.71,.83-1,.22-.21,.53-.34,1.09-.26,1.43,.2,1.94-.26,2.54-1.39,.04-.08,.16-.08,.24-.11,.54-.22,1.09-.44,1.66-.63,.56-.15,1.23-.33,1.76-.29,.47,.02,1.1,.35,1.41,.21,.22-.09,.46,.02,.57-.64,.1-.56,.51,.3,.58-.67,.02-.35,.24-.37,.39-.11,.5,.87,.79,.33,1.16,.36,.42,.03,.83-.05,1.24-.16,.2-.06,.44,.23,.55-.56,.06-.39,.34-.16,.52,.15,.28,.48,.5,.36,.7,.12,.42-.5,.41-.59,.92-.05,.06,.06,.12,.06,.18,.06,.57-.05,1.17,.28,1.7-.23,.44-.43,.9-.48,1.36-.52,.18-.02,.38-.47,.57,.52,.03,.14,.13,.13,.17,0,.35-1.1,.79-.53,1.19-.56,.39-.02,.75-.9,1.16-.68,.38,.2,.77,.05,1.16,.06,.59,.02,.7,.62,.59,3.35-.09,2.26-.24,2.74-.68,3.2-.91,.98-1.78,.23-2.51,.54Z"/>
          </g>
          <g>
            <path class="cls-12" d="M77.31,652.01c10.02,12.66-11.69,25.55-19.13,38.1-8.58,14.46-12.46,29.14,4.39,43.51,.67,.57,1.38,1.15,2.11,1.72-26.78-13.61-35.73-27.86-35-42,.65-12.63,13.31-24.9,17.12-37.41,.42-1.38-.21-3,2.72-4.33,2.03-.92,9.88-1.16,16.21-.94,6.33,.23,14.49,1.06,12.4,1.98"/>
            <path class="cls-12" d="M81.56,656.84c.35,2.01,.1,3.66-.11,5.24-.04,.24,.38,.64,.29,.96-.38,1.2-.46,2.6-1.52,3.37-1.16,.82-1.83,1.79-2.14,2.98-.29,1.14-1.04,1.94-1.6,2.85-.19,.31-.33,.66-1.03,.58-.52-.06-.87,.31-.53,1.1,.07,.15-.16,.17-.29,.22-.14,.05-.48-.05-.47,.08,.21,1.56-1.17,1.78-1.66,2.73-.12,.24-.57,.22-.14,.91,.11,.18-.04,.38-.22,.32-.49-.18-.7-.1-.86,.09-.7,.8-1.44,1.57-2.16,2.34,.39,1.07-.34,1.18-.71,1.58-.28,.3-.82,.36-1.24,.53-.42,.17-.25,.93-1.17,.63-.15-.05-.05,.25-.12,.35-.29,.43-.41,1.04-.97,1.19-.29,.07-.58,.15-.74,.34-1.05,1.21-2.05,2.43-2.96,3.7-.45,.64-.88,1.28-1.27,1.93-.4,.66-.79,1.39-1.18,2.08-.14,.24-.37,.42,0,.96,.29,.42,.09,.87-.42,.85-.82-.03-.71,.41-.9,.69-.36,.52-.55,1.13-.88,1.67-.2,.32,.09,.9-.97,.78-.1-.01-.15,.1-.08,.17,.72,.78-.2,.8-.47,1.14-.2,.24-.3,.53,.03,1.02,.32,.47,.2,.98-.38,1.07-.79,.13-.67,.56-.8,.9-.36,1.03-.73,2.05-.95,3.11-.12,.53-.27,1.05-.35,1.58l-.2,1.6c-.17,1.03,.78,2.05,.35,3.03-.1,.24,.27,.49-.41,.72-.14,.05-.04,.24,.14,.31,.65,.25,.43,.52,.42,.83l-.06,1.05c.01,.35,.04,.7,.08,1.04,.05,.35,.11,.69,.22,1.02,.05,.17,.12,.33,.19,.48,.1,.15,.21,.3,.33,.44,.78,.86,.8,1.91,1.41,2.78,.18,.29-.11,.8-.06,1.17,.05,.36,.22,.67,.45,.94,.13,.17,.06,.45,.66,.34,.32-.06,.54,.15,.39,.38-.52,.78-.01,.99,.19,1.36,.68,1.01,1.44,1.97,2.17,2.95,.2,.23,.74,.21,.26,.99-.06,.11,.26,.05,.4,.08,.15,.03,.43-.03,.4,.11-.29,1.36,.75,1.58,1.35,2.15,.65,.67,1.35,1.3,2.04,1.93,.72,.6,1.47,1.18,2.16,1.81l-1.31,2.06-.4-.24c-.5-.31-1.29,.11-1.78-.2-.47-.3-.99-.48-1.45-.8-.32-.23-.88-.07-.77-1.02,.03-.26-.22-.38-.44-.23-.8,.55-1-.09-1.46-.2-.57-.14-.78-.91-1.73-.39-.26,.14-.26-.43-.43-.58-.3-.26-.63-.49-.99-.65-.18-.08-.51,.11-.68,.03-1.35-.6-2.74-1.18-4.03-1.9-1.3-.78-2.48-1.74-3.72-2.62-1.21-.92-2.43-1.84-3.56-2.87-.4-.4-1.33-.31-.92-1.57-.87,.19-.93-.46-.71-1.36,.03-.13-.33,.01-.49,0-.5-.02-1.63,.6-1-.66,.02-.05-.06-.04-.07-.08-.11-.39-1.24,.38-.98-.51,.16-.55-.31-.73-.54-1.03-.24-.31-.48-.62-.82-.84-.35-.23-.16-.97-1.17-.61-.16,.06,.17-.62,.02-.73-.78-.54-.66-1.79-2.11-1.82-.34,0-.51-.29-.44-.61,.25-1.15-.58-1.44-1.26-1.99-.89-.7-1.72-1.63-1.06-3.16,.14-.32,.28-.5-.21-.5-.32,0-.38-.27-.47-.45-1.07-2.08-1.81-4.34-2.4-6.63-.18-.63,.7-1.41,.22-1.97-.19-.24,.23-.62-.6-.72-.12-.01-.2-.12-.15-.18,.8-.89-.54-1.52-.24-2.35,.07-.17,.24-.34,.32-.51,.09-.17,.3-.38,.17-.51-.57-.57-.64-1.2-.6-1.81l.1-.92c.05-.31,.09-.62,.05-.94-.05-.44,.52-.83-.41-1.35-.14-.08-.1-.27,.04-.34,1.3-.52,.58-1.45,1.04-2.13,.22-.34-.27-.92,.77-.98,.13,0,.08-.18,.04-.29-.07-.19-.33-.43-.26-.58,.18-.41,.83-.69,.65-1.15-.2-.57,.11-.93,.25-1.36,.08-.25,.59-.32,.78-.52,.18-.19,.2-.46,.31-.68,.15-.32,.15-.73,.48-.94,.35-.22-.46-.91,.33-.96,.59-.04-.09-.74-.04-1.09,.03-.17,.21-.27,.38-.37,.13-.07,.47-.03,.5-.15,.07-.26,.35-.4,.09-.85-.17-.31,.47-.36,.67-.57,.2-.21,.28-.48,.42-.72,.14-.24,.45-.41,.38-.74-.35-1.48,.78-2.12,1.22-3.15,.12-.26,0-.72,.86-.49,.15,.04,.25-.09,.21-.21-.49-1.52,.9-1.96,1.15-3.03,.18-.77,.17-1.64,.65-2.24,.47-.58,1.07-1.11,1.05-1.93,0-.67,0-1.32,.47-1.7,.47-.38-.82-1.66,.72-1.43,.25-.49,.5-1,.78-1.45,.25-.39,.11-.97,1.07-1,.35-.01,.47-.31,.29-.59-.6-.89-.17-1.27,.48-1.62,.15-.08-.18-.4-.14-.55,.13-.45,.19-.91,.46-1.29,.19-.26,.32-.62,.36-.85,0-.12-.03-.25-.08-.36-.05-.17-.09-.57-.08-1.05,.02-.52,.1-1.15,.34-1.81,.24-.66,.62-1.32,1.06-1.8,.22-.25,.32-.6,.46-.91,.14-.33,.29-.6,.54-.67,.78-.23,1.38-.39,1.92-.59l.49-.18,.57-.2,.88-.27c1.02-.3,1.88-.54,2.75-.31,2.49,.69,4.67-.07,6.95,.1,.3,.02,.61,.75,.74,.54,.42-.66,.92-.11,1.28-.59,.65-.88,1.29-.28,1.93-.5,.47-.16,.96,.45,1.41-.55,.07-.15,.23-.12,.31,0,.66,.96,1.39-.41,2.06,.06,1.35-1.08,2.65-.22,3.99-.37,.2-.02,.41-.25,.61-.37,.1-.06,.23-.2,.31-.11,1.1,1.3,2.43,.49,3.68,.97,.41,.16,.78,.55,1.2,.74,.42,.19,.95-.02,1.28,.82,.09,.26,.41,.21,.69,.19,.19-.01,.36,0,.57,.08,.1,.04,.18,.07,.29,.13,.12,.06,.24,.14,.34,.22,.08,.06,.29,.21,.42,.34,.07,.07,.14,.14,.21,.21,.06,.07,.25,.23,.35,.35,.12,.13,.23,.27,.32,.41l.21,.3c.1,.15,.19,.3,.27,.46,.16,.32,.27,.64,.33,.95,.1,.46,.12,.99,.04,1.46-.04,.24-.1,.46-.18,.66-.08,.2-.13,.27-.21,.41-.15,.24-.33,.46-.51,.64-.45,.44-.58,.36-.8,.43-.21,.04-.4,.04-.58,.02-.14-.05-.24-.13-.35-.21-.44-.33-.74-.83-1-1.41-.18-.42-.24-.67-.27-.84-.02-.09-.02-.16-.06-.22l-.03-.04,.07,.08c.09,.07,.09,.1,.13,.13,.12,.06,.09,.04,.09,.05-.12,.03-.11,.07-.28,.22-.12,.13-.18,.28-.35,.53-.19,.31-.11,.25-.17,.31-.12,.14-.27,.19-.43,.11-.24-.12-.54-.48-.98,.34-.07,.14-.21,.08-.26-.04-.42-.87-1.16-.34-1.63-.94-.37-.46-.78-.4-1.17-.61-.33-.18-.73,.25-1-.58-.09-.28-.5,.38-.74,.4-.58,.03-1.15,.03-1.71-.12-1.72-.48-3.49,.74-5.19,.37-1.25,1.1-2.51,.06-3.74,.62-1.47,.68-2.95,.35-4.38,.72-.29,.08-.53,.06-.81-.21-.18-.18-.38-.37-.56-.37-.69,0-1.37,.15-2.04,.13-.37-.01-.66,.61-1.13-.4-.06-.14-.23-.1-.27,.04-.17,.58-.43,.73-.64,.77-.06,.01-.11,.02-.17,.02h-.11s-.07,0-.1,0c-.05,.02-.1,.05-.15,.1-.15,.12-.28,.16-.64-.07-.38-.25-.65,.01-.43,.37,.15,.26,.15,.29,.2,.38,.13,.14-.08,.14-.2,.52-.11,.32-.12,1.06,.31,1.83l-.06,.02c-1.22,.24-1.04,.86-.97,1.45,.32,2.24-1.22,3.76-1.89,5.56-.16,.45-.81,.63-1.12,1-.32,.38-.52,.84-.7,1.29-.1,.25-.57,.32,.05,.91,.05,.04,.06,.1,.03,.12-.26,.17-.67,.27-.75,.53-.07,.24,.3,.71,.3,1,0,.35-.14,.63-.28,.9-.14,.26-.13,.62-.89,.45,.67,.66,.1,.72,.01,1-.08,.27-.27,.48-.41,.72l-.48,.79c-.16,.26-.38,.49-.46,.8-.11,.42-.04,.95-.17,1.35-.14,.42-.37,.8-.68,1.12-.38,.41-.91,.73-1.32,1.11-.17,.16-.07,.44,.1,.79,.22,.47,.85,1.25-.41,.95-.25-.06-.32,.2-.25,.41,.58,1.62-.96,2.11-1.14,3.27-1.12,.11-.9,.92-.92,1.59-.02,1-.33,1.91-1.13,2.51-.44,.32-.67,.73-.86,1.15-.16,.42-.25,.85-.49,1.24-.14,.22,.12,.57-.76,.55-.21,0-.21,.2-.1,.33,.73,.92,.31,1.48-.37,2.11-.34,.33-.03,.81,.25,1.23,.38,.61,.08,1.32,.06,2-1.05,.3,.01,.53,.46,.66,.59,.18,.74,.35,.76,.57,.04,.29-.12,.59,.58,.81,.36,.11,.3,.43-.05,.63-.48,.27-.24,.32,.12,.46,.42,.16-.5,.54-.41,.82,.11,.3,.68,.54-.35,1.03-.09,.04-.06,.14,.03,.16,1.22,.3-.18,1.24,.45,1.69-.09,.25-.15,.5-.18,.75-.01,.24,.01,.47,.05,.69,.08,.45,.24,.87,.43,1.29,.37,.83,.97,1.56,1.15,2.48,.18,.75-.07,1.82,.73,2.23,.82,.42,1.39,1,1.83,1.67,.22,.33,.42,.68,.63,1.02,.23,.33,.5,.64,.79,.92,.26,.24,.88,.22,.27,1.15-.08,.13,.03,.24,.17,.21,1.06-.24,1.16,.32,1.06,1.14-.03,.2,.16,.36,.4,.24,.68-.35,.64,.04,.79,.22,.18,.22,0,.94,.37,.8,.81-.31,.32,.48,.43,.76,.07,.18,.35,.16,.56,.19,.1,.02,.4-.15,.38-.06-.19,1.04,1.1,.45,1.25,1.09,.04,.14,.14,.21,.16,.37,.2,1.78,.27,1.77,1.95,2.36-.44,1.31,1.16,.14,.95,1.24-.07,.4,.27,.54,.61,.47,1.5-.33,1.81,1,2.83,1.32,.21,.06-.15,.88,.47,.45,.23-.17,.1,.66,.31,.77,.31,.15,.35,.74,1.1,.21,.3-.22,.41,.18,.64,.24,.31,.08,.4,.53,1.03,.1,.35-.23,.68-.03,.66,.36-.06,1.62,1.26,.9,2.14,.86,.27-.01,.47-.05,.56,.25,.13,.42,.32,.98,.74,.75,.75-.41,.97,.07,1.37,.25,.7,.3,1.31,.77,2.03,1.03,.82,.3,1.41,1.02,2.5,.82,.21-.04,.43-.07,.63-.03l-5.82,9.18c-.37-.16-.63-.52-.45-1.33,.03-.14-.55,.21-.68,.12-.99-.71-1.92-1.55-2.78-2.46-.2-.21,.36-1.24-.47-.76-.88,.5,.23-1.07-.76-.39-.14,.09-.33-.09-.34-.27-.11-1.96-1.85-2.37-2.57-3.76-.16-.33-.78-.39-.17-1.21-.71-.04-.77-.61-.89-1.11-.12-.5-.3-.94-1.25-.87-.1-.73-1.26-.9-.58-2.03,.11-.18-.25-.24-.16-.43,.31-.61-1.39-.02-.78-.9,.35-.49-.14-.85-.29-1.25-.14-.37-.31-.72-.47-1.09-.19-.39-.3-.82-.44-1.23-.13-.42-.2-.86-.4-1.25-.2-.4-.57-.76-.82-1.16-.24-.4-.43-.83-.37-1.32,.01-.1-.15-.25-.33-.25-1.54-.06-.8-.69-.42-1.05,.31-.31,.46-.55,.44-.83-.07-.77-.18-1.54-.13-2.31,.01-.45-.45-.95,.52-1.36,.3-.13,.25-.48,.04-.69-.47-.49-.55-.99-.52-1.48,.03-.49,.23-.94,.22-1.43,0-.44,.09-.87,.18-1.29,.07-.32-.53-.78,.16-.97-.42-.89-.33-1.72-.11-2.5,.2-.8,.65-1.48,.81-2.26,.32-1.58,1.02-2.95,1.63-4.38,.17-.34-.09-.92,.97-.82,.2,.02,.3-.23,.16-.39-.4-.43-.59-.7,.18-.62,.14,.02,.09-.24,0-.4-.23-.45-.08-.7,.4-.81,.37-.09,.68-.31,.6-.62-.21-.83-.35-1.61,.88-1.69,.15,0-.34-.53-.24-.64,.39-.41,.2-1.18,1.17-1.25,.4-.03,.34-.44,.56-.64,.19-.17,.21-.42,.27-.67,.07-.26,.16-.52,.44-.67,.57-.31,.69-.94,1.02-1.42,.32-.48,.67-.93,1-1.38,.34-.46,.68-.88,1.03-1.32,.34-.44,.7-.85,1.04-1.27l1.05-1.23c.35-.41,.7-.81,1.06-1.19,.26-.27,.57-.45,1.11-.45,1.39,0,2.05-.93,2.39-2.48,.02-.11,.13-.15,.2-.23,.91-.98,1.67-2.07,2.75-2.83,.47-.34,1.19-.45,1.52-.93,.21-.31,.57-.49,.34-1.18-.19-.58,.77-.31,.29-1.19-.18-.32,.06-.57,.39-.52,1.07,.16,1.09-.61,1.5-1.01,.48-.46,.87-1,1.18-1.56,.16-.27,.61-.35,.13-1.05-.23-.34,.19-.49,.59-.5,.6-.02,.7-.37,.68-.75-.05-.81-.17-.83,.66-1.14,.1-.04,.13-.11,.16-.18,.33-.69,.99-1.32,.69-2.11-.1-.33-.15-.6-.18-.85,0-.26,.02-.49,.01-.72,0-.19-.41-.39,.57-.54,.14-.02,.12-.14,0-.18-.55-.18-.67-.33-.71-.51-.04-.18,.12-.39,.03-.57-.06-.17-.33-.28-.55-.37-.26-.09-.48-.17-.44-.38,.05-.2-.06-.37-.16-.52-.12-.16-.2-.3-.34-.47-.35-.5,.05-.99,2.18-2.69,1.77-1.4,2.29-1.51,3.18-1.08,.49,.22,.83,.57,1.13,.95,.31,.37,.51,.8,.68,1.24,.08,.22,.16,.44,.24,.65,.05,.22,.11,.44,.16,.66,.11,.43,.24,.83,.36,1.22Z"/>
          </g>
          <g>
            <path class="cls-12" d="M109.59,644.13c6.79,10.32,11.53,20.66,18.81,30.97,7.32,10.36,15.48,19.78,51.35,28.9,27.23,6.92,55.37,14,97.3,19.03-42.05-7.77-84.9-15.75-106.56-25.19-22.22-9.69-26.41-20.32-34.22-30.42-3.71-4.8-7.1-18.39-5.05-23.21,.91-2.14-1.15-2.29-7.95-2.46-8.2-.2-13.68-.29-13.41,2.8"/>
            <path class="cls-12" d="M116.39,651.66c1.49,2.57,2.62,4.71,3.94,6.73,.2,.32,.86,.42,1.09,.83,.9,1.65,2.29,3.06,2.69,4.91,.45,2.01,1.41,3.74,2.77,5.08,1.28,1.28,2.15,2.78,3.25,4.14,.36,.46,.8,.85,.68,1.72-.08,.63,.39,1.36,1.38,1.39,.19,0,.23,.31,.29,.5,.06,.21-.05,.6,.13,.66,.99,.3,1.58,.9,2.09,1.59,.54,.65,.99,1.4,1.67,1.92,.34,.24,.43,.81,1.23,.51,.21-.08,.51,.18,.47,.4-.12,.58,.06,.87,.37,1.13,1.29,1.14,2.64,2.23,4.03,3.26,1.29-.35,1.8,.55,2.55,1.07,.58,.35,.98,1.01,1.47,1.53,.5,.53,1.44,.36,1.61,1.44,.03,.17,.39,.07,.57,.14,.82,.34,1.75,.51,2.35,1.16,.31,.33,.63,.67,1.01,.85,4.99,2.38,10.23,4.32,15.56,5.98,.46,.16,.87,.4,1.54-.02,.52-.32,1.37-.1,1.61,.46,.39,.89,1.04,.77,1.6,.98,1.03,.4,2.14,.59,3.19,.94,.62,.22,1.46-.09,1.76,1.04,.03,.11,.23,.16,.33,.09,.96-.76,1.43,.21,2.11,.53,.49,.23,1.02,.34,1.7,.02,.67-.32,1.6-.16,1.99,.46,.52,.83,1.2,.77,1.83,.94,3.75,1,7.51,1.97,11.29,2.82,1.79,.4,3.76-.03,5.47,.74,.41,.18,.96-.08,1.19,.71,.05,.16,.41,.16,.59,.02,.64-.5,1.07-.15,1.62,.01,2.48,.72,4.95,1.68,7.55,1.65,2.03-.03,3.86,.6,5.8,.86,.64,.09,1.19,.69,1.81,.93,.61,.23,1.25,.32,1.89,.41,.38,.05,.72,.34,1.2-.15,.26-.26,.82-.23,.99,.05,.57,.97,1.42,.81,2.18,.98,2.17,.5,4.37,.85,6.55,1.33,.54,.12,1.21-.18,1.53,.77,.04,.13,.4-.08,.62-.13,.23-.05,.53-.25,.67-.1,1.21,1.37,2.83,1.01,4.27,1.31,3.51,.72,7.06,1.18,10.57,1.88,.98,.2,1.96-.4,2.92-.2,.92,.19,1.86,.25,2.78,.45,.65,.14,1.4-.15,1.88,.82,.13,.27,.61,.33,.84,.13,.86-.76,1.6-.19,2.39-.21,.96-.02,1.86,.66,2.91-.14,.28-.21,.7,.34,1.08,.43,.65,.16,1.31,.28,1.98,.33,.32,.02,.67-.26,1-.25,2.48,.1,4.96,.14,7.43,.35l1.21,.12-.92,6.02c-2.09-.35-4.17-.78-6.26-1.17-2.49-.46-4.99-.85-7.46-1.42-.93-.22-2.07,.28-2.71-1.07-.99,.55-1.67-.02-2.27-.97-.09-.14-.42,.15-.64,.21-.69,.19-1.51,1.28-1.96-.16-.02-.05-.12-.01-.17-.04-.54-.29-1.2,.95-1.78,.02-.36-.58-1.15-.51-1.75-.67-.63-.17-1.26-.34-1.91-.35-.67,0-1.27-.76-2.07,.11-.13,.14-.48-.64-.77-.64-1.5-.04-2.82-1.23-4.48-.34-.38,.2-.89,.07-1.2-.23-1.09-1.09-2.35-.88-3.7-.82-1.78,.07-3.63-.14-5.04-1.7-.3-.33-.42-.57-.86-.2-.29,.24-.69,.09-1.02,.02-3.7-.76-7.39-1.52-11.08-2.33-1.01-.22-1.73-1.36-2.84-1.23-.46,.05-.85-.53-1.38,.18-.07,.1-.26,.12-.33,.04-1.03-1.19-2.55-.18-3.69-.83-.24-.14-.45-.37-.69-.53-.24-.16-.5-.46-.76-.37-2.15,.69-3.89-.63-5.86-.8-.67-.06-1.26-.74-2.07,.08-.12,.12-.41,.04-.5-.12-.82-1.43-2.26-.86-3.33-1.45-.55-.3-1.38,.15-1.66-.93-.04-.14-.3-.1-.46-.07-.28,.05-.62,.29-.86,.2-.67-.24-1.27-.96-1.95-.81-.85,.18-1.5-.17-2.22-.34-.41-.1-.7-.63-1.08-.85-.36-.21-.79-.26-1.19-.37-.57-.17-1.21-.18-1.68-.55-.49-.38-1.23,.46-1.65-.38-.32-.65-1.14,.1-1.69,.02-.28-.03-.52-.23-.76-.42-.18-.14-.27-.51-.46-.55-.44-.08-.79-.39-1.38-.13-.41,.18-.79-.52-1.22-.73-.43-.21-.9-.31-1.34-.48-.45-.16-.87-.52-1.35-.45-1.07,.16-2.01-.08-2.92-.42-.9-.36-1.76-.86-2.68-1.16-.47-.16-1.15-.06-1.2-1.01-.01-.17-.27-.29-.44-.25-2.15,.31-3.53-1.3-5.34-1.87-1.29-.41-2.72-.56-3.85-1.38-1.11-.78-2.2-1.63-3.5-2.02-1.08-.31-2.18-.59-2.9-1.42-.69-.79-2.59,.02-2.49-1.79-.82-.68-1.7-1.29-2.45-2.06-.62-.65-1.57-.99-1.61-2.2,0-.45-.45-.86-.89-.91-1.44-.15-1.99-1.15-2.39-2.29-.09-.27-.65-.23-.86-.46-.62-.69-1.29-1.36-1.76-2.16-1.4-2.38-3.72-3.95-5.23-6.08-.28-.39-1.14-.42-1.24-.87-.28-1.34-1.03-2.38-1.84-3.32l-.62-.74c-.27-.35-.53-.71-.77-1.07-.43-.71-.81-1.43-.98-2.17-.56-2.19-1.22-4.09-1.85-6.04-.63-1.93-1.25-3.87-1.54-5.9-.06-.54,.56-1.21,.32-1.41-.79-.67-.32-1.66-.89-2.26-.49-.57-.61-1.19-.63-1.81l.03-.88c0-.15,0-.29,0-.44l-.02-.22s-.02-.05-.03-.07c-.02-.03-.03-.07-.02-.11,.01-.16,.36-.55-.5-.34-.15,.04-.11,0,.03-.1,.53-.36,.52-.49,.27-.47-.26,0-.6,.21-.49-.02-.71,.49-.76,.59-.87,.56-.04-.01-.09-.05-.14-.08h-.02s-.01,0-.01,0h-.1s-.4-.02-.4-.02c-.27,0-.54,0-.81,.03-.32,.03-.63,.27-.95,.4-.16,.06-.35,.21-.49,.13-1.92-1.24-3.94-.35-5.69-.61-.58-.09-1.14-.38-1.66-.45-.25-.03-.51,.04-.7,.04-.1,0-.21-.02-.33-.08-.08-.06-.18-.16-.3-.32-.2-.2-.22-.04-.23,.04h0s-.05-.09-.05-.09l-.06-.16c-.04-.11-.09-.21-.14-.31-.1-.2-.22-.4-.35-.58-.17-.21-.2-.29-.27-.39-.07-.1-.15-.19-.25-.28l-.14-.11-.03-.04s-.05-.05-.09-.07c-.14-.07,0,0,.04,0,.03,0,.05,0,.07,0,.01,0,0,0,.03,0l.11,.02c.12,.03,.3,.03,.31,.02-.5-.02-1.09,.08-1.72,.14-.9,.1-1-.23-1.25-.74-.23-.51-.21-1.17,.07-1.73,.14-.24,.33-.53,.54-.71,.21-.17,.46-.34,.72-.44,.8-.28,1.6-.18,2.05-1.14,.08-.16,.42-.2,.59-.1,1.25,.62,2.4-.05,3.45,.46,.78,.4,1.49,.29,2.22,.46,.61,.15,1.25-.31,1.84,.5,.2,.27,.81-.41,1.24-.43,1.01-.05,1.99-.08,3.02,.07,.89,.12,1.75,.13,2.66,.14,.9,0,1.85-.01,2.75,.11,.87,.14,1.86,.31,2.38,1.09,.23,.38,.25,.79,.2,1.15-.04,.39-.1,.82-.19,1.25,.28,.67,.37,1.54,.19,2.5l-.05,.78v.54c-.01,.36-.06,.73-.04,1.08,.01,.7,.07,1.4,.36,2.08,.98,2.3,1.16,4.77,2.17,7.02,.21,.45,.31,.84,.18,1.36-.09,.34-.17,.69-.07,.98,.35,1.12,.91,2.13,1.32,3.17,.24,.56,1.03,.82,.41,1.8-.08,.14,.08,.35,.25,.36,1.41,.16,1.71,1.57,2.46,2.41,.3,.33,.51,.69,.47,1.3-.04,.66,.45,1.29,1.08,1.5,.47,.16,.68,.45,.97,.71,1.2,1.08,1.28,3.06,3.22,3.5-.42,1.3,.47,1.9,1.19,2.33,2.72,1.72,4.18,4.43,6.61,6.29,.56,.46,.84,1.27,1.35,1.83,.27,.29,.57,.55,.88,.8,.32,.23,.66,.45,.99,.66,.35,.23,.54,.82,1.28,.34,.05-.04,.14-.03,.17,.01,.27,.38,.49,.88,.89,1.07,.36,.17,.98-.1,1.39,0,.5,.11,.91,.38,1.34,.61,.42,.22,.95,.31,.91,1.14,.78-.6,1.02,.07,1.47,.24,.41,.17,.79,.43,1.19,.63l1.35,.7c.45,.23,.87,.54,1.36,.68,.69,.18,1.45,.16,2.12,.37,.7,.21,1.37,.53,2,.92,.8,.45,1.54,1.06,2.33,1.55,.33,.21,.71,.12,1.17-.04,.6-.2,1.53-.88,1.69,.5,.03,.27,.48,.36,.78,.29,1.15-.27,2.1,.02,3.03,.42,.94,.37,1.86,.86,2.87,1,.77,1.24,1.97,1.04,3.16,1.1,1.75,.11,3.5,.49,4.96,1.48,1.55,1.04,3.32,1.17,4.95,1.85,.46,.19,1.07-.02,1.26,.91,.04,.21,.42,.25,.65,.18,1.61-.51,2.88,.08,4.16,1,.67,.48,1.61,.33,2.51,.21,1.36-.18,2.62,.5,3.93,.81,.32,1.16,1.01,.22,1.4-.16,.53-.5,.91-.52,1.38-.43,.6,.12,1.14,.43,1.88-.1,.38-.27,1.03-.04,1.27,.39,.32,.58,.54,.39,1,.17,.55-.27,.82,.8,1.42,.88,.64,.09,1.49-.27,1.81,.92,.03,.11,.23,.14,.33,.07,1.4-.84,2.22,1,3.49,.77,3.23,1.95,6.97,1.68,10.39,2.8,1.41,.47,2.71,1.56,4.24,1.36,3.2-.43,6.07,.88,9.12,1.28,.64,.08,1.47-.26,1.84,.9,.05,.16,.35,.2,.5,.1,1.14-.78,2.01-.3,2.84,.53,.2,.2,.64,.27,.83,.04,.54-.64,.94-.26,1.37-.16,.51,.12,1.08,.88,1.45,.57,.81-.65,1.01,.29,1.48,.52,.29,.15,.67,0,1.02-.05,.16-.03,.41-.31,.49-.21,.85,1.08,2.08-.02,3.02,.54,.2,.12,.43,.14,.62,.28q2.15,1.61,5.26,1.58c.58,1.43,1.89-.27,2.61,.87,.26,.42,.9,.45,1.35,.27,1.99-.79,3.66,.43,5.52,.44,.06,0,.11,.02,.16,.05l-1.04,6.86c-.29-.17-.5-.74-.98-.19-.21,.24-.75-.6-1.16-.62-.61-.03-1.18-.58-1.89,.18-.29,.31-.79-.03-1.2,0-.56,.03-1.07-.36-1.72,.26-.35,.34-1.06,.26-1.36-.12-1.24-1.57-2.71-.51-4.1-.21-.42,.09-.72,.19-1.1-.08-.54-.38-1.27-.87-1.78-.52-.9,.61-1.63,.19-2.41,.12-1.36-.12-2.69-.46-4.05-.56-1.55-.11-3.02-.72-4.69-.28-.89,.23-2.05,.4-2.77-.87-.08-.14-.55,.43-.8,.39-1.94-.28-3.87-.58-5.79-1-.44-.09-.73-1.3-1.3-.48-.61,.88-.74-1.09-1.31,0-.08,.16-.48,.07-.67-.08-2.04-1.61-4.53-1.1-6.74-1.85-.53-.18-1.24,.16-1.49-.88-1.6,.8-2.7-1.7-4.39-.27-.93-.48-2.18,.2-2.9-1.14-.12-.22-.51-.02-.65-.22-.48-.69-1.22,.96-1.77-.09-.31-.6-1.16-.47-1.78-.63-.57-.15-1.16-.25-1.74-.38l-1.91-.42c-.64-.14-1.26-.35-1.91-.41-1.32-.11-2.73,.3-3.97-.29-.13-.06-.41,.01-.5,.18-.78,1.37-1.25,.4-1.59-.13-.29-.44-.56-.69-.97-.77-1.1-.24-2.21-.45-3.27-.79-.63-.21-1.44,.1-1.83-.97-.12-.33-.66-.39-1-.26-1.6,.63-2.88-.28-4.3-.48-.65-.09-1.27-.28-1.89-.46-.47-.14-1.11,.37-1.44-.35-2.63,.6-4.82-.77-7.2-1.23-2.38-.46-4.68-1.1-7.04-1.79-.59-.17-1.38,.11-1.65-1-.05-.21-.48-.31-.66-.16-.49,.43-.83,.64-1.02-.17-.04-.15-.4-.09-.61,0-.59,.25-1.01,.1-1.42-.4-.31-.39-.79-.72-1.23-.63-1.18,.24-2.3,.41-3.02-.9-.09-.16-.64,.38-.86,.28-.85-.38-1.92-.18-2.55-1.23-.26-.43-.86-.37-1.28-.61-.72-.41-1.63-.12-2.33-.69-.71-.6-1.68-.7-2.54-1.01-.85-.32-1.71-.62-2.57-.97l-2.55-1.06c-.85-.35-1.7-.7-2.54-1.11l-2.52-1.19c-.84-.4-1.67-.86-2.49-1.31-.57-.33-1.06-.69-1.43-1.38-.47-.88-1.15-1.54-2.03-2.07-.89-.52-1.93-1.01-3.22-1.38-.18-.06-.32-.21-.47-.32-1.97-1.5-4.06-2.95-5.62-4.92-.34-.43-.63-.91-.92-1.38-.28-.48-.57-.95-.97-1.34-.53-.5-.85-1.12-1.79-1.28-.78-.13-.62-1.34-1.76-1.31-.42,.01-.82-.54-.79-.97,.08-1.45-.95-2.06-1.54-3.02-.66-1.1-1.4-2.14-2.15-3.17-.38-.5-.44-1.2-1.44-1.32-.49-.06-.68-.84-.64-1.4,.06-.87-.39-1.41-.92-1.87-1.12-.98-1.2-.93-1.41-2.42-.03-.18-.11-.33-.2-.48-.88-1.5-1.44-3.2-2.68-4.41-1.04-1.01-1.73-2.17-2.42-3.34-.28-.47-.97-.79-.33-1.68,.09-.13-.07-.39-.25-.44-1.51-.44-1.62-1.78-2.22-2.78-.59-.96-1.88-1.4-2.28-2.49-.38-1.03-1.1-1.86-1.67-2.78-.88-1.38-.57-2,1.71-3.5,1.89-1.24,2.53-1.15,3.67-.25,2.43,1.92,3.29,4.84,4.72,6.73Z"/>
          </g>
        </g>
        <g>
          <path class="cls-10" d="M137.86,20.77c-.78,2.19-1.4,4.23-2.03,6.14-.6,1.92-1.21,3.72-1.66,5.58-.14,.58,.17,1.36-.05,2.08-.85,2.85-1.28,5.91-2.6,8.52-1.44,2.85-2.32,5.88-2.69,8.88-.33,2.85-1.1,5.54-1.66,8.3-.19,.93-.3,1.85-1.13,2.71-.61,.63-.98,1.95-.45,3.12,.1,.23-.15,.61-.28,.89-.15,.31-.56,.62-.51,.89,.52,2.96-.99,5.56-1.35,8.36-.09,.69-.58,1.37,.06,2.12,.16,.19,.05,.87-.17,1.03-.58,.42-.8,.94-.93,1.59l-1.8,8.48c.72,1.59-.04,3.06-.35,4.54-.23,1.11-.8,2.15-1.21,3.23-.42,1.09-.03,2.42-1.12,3.32-.17,.14,0,.63-.04,.94-.19,1.43-.15,2.96-.72,4.23-.29,.65-.58,1.3-.71,1.98-.85,4.4-1.62,8.81-2.36,13.22-.79,4.41-1.42,8.84-2.11,13.26-.12,.77-.35,1.49,.1,2.39,.36,.7,.2,2.1-.35,2.65-.87,.89-.7,1.86-.87,2.81-.32,1.74-.44,3.52-.77,5.26-.17,1.04,.21,2.26-.91,3.05-.11,.08-.14,.41-.06,.53,.84,1.27-.1,2.3-.37,3.45-.19,.83-.28,1.68,.1,2.65,.39,.94,.33,2.44-.25,3.22-.77,1.05-.64,2.09-.74,3.12l-.22,2.29-.14,2.29-.26,4.59c-.13,3.07-.18,6.17-.24,9.25-.05,2.92,.76,5.82,.32,8.76-.1,.7,.26,1.47-.47,2.08-.15,.13-.08,.69,.09,.92,.61,.82,.35,1.61,.29,2.52-.25,4.1-.75,8.27-.26,12.32,.38,3.15,.09,6.23,.15,9.33,.02,1.04-.49,2.07-.62,3.12-.13,1.02-.11,2.05-.1,3.08,0,.61-.21,1.22,.34,1.84,.3,.33,.36,1.21,.1,1.56-.87,1.17-.58,2.46-.63,3.71l-.34,10.65c-.04,.87,.35,1.86-.54,2.62-.12,.1,.14,.61,.22,.94,.08,.34,.32,.77,.19,1.02-1.2,2.27-.62,4.71-.73,7.06-.27,5.7-.27,11.41-.58,17.1-.09,1.59,.62,3.01,.53,4.55-.08,1.49-.04,2.99-.15,4.48-.08,1.06,.29,2.19-.63,3.15-.25,.26-.26,1.03-.04,1.35,.84,1.2,.36,2.49,.45,3.73,.12,1.52-.48,3.07,.4,4.58,.24,.41-.27,1.17-.33,1.79-.1,1.06-.16,2.13-.15,3.2,0,.51,.32,1.02,.34,1.53,.11,3.95,.26,7.89,.25,11.84-.02,4.02-.21,8.04-.32,12.06-.12,4.02-.16,8.04-.39,12.05-.09,1.51,.56,3.16-.69,4.52,.69,1.41,.21,2.62-.64,3.8-.12,.17,.21,.62,.3,.95,.28,1.03,1.48,2.03,.12,3.11-.05,.04,0,.18-.02,.27-.22,.93,1.11,1.62,.26,2.78-.53,.72-.35,1.93-.42,2.92-.07,1.02-.16,2.06-.07,3.08,.09,1.06-.57,2.19,.4,3.2,.16,.17-.56,.92-.53,1.38,.17,2.36-.81,4.75,.31,7.09,.26,.54,.2,1.37-.05,1.93-.92,2-.53,3.92-.27,6.01,.34,2.75,.41,5.69-.91,8.34-.28,.56-.5,.81-.07,1.4,.28,.39,.19,1.05,.18,1.59l-.53,17.94c-.05,1.63-1.05,3.12-.74,4.8,.13,.69-.38,1.49,.41,2.08,.11,.08,.16,.37,.1,.5-1,1.97,.27,4.01-.17,5.99-.1,.42-.29,.83-.4,1.25-.11,.43-.36,.93-.24,1.3,1.06,3.1,.1,6.22,.29,9.33,.07,1.06-.49,2.2,.46,3.17,.14,.15,.12,.61-.02,.81-1.24,1.77-.39,3.78-.76,5.65-.19,.96,.43,2.06-.58,2.89-.13,.11-.04,.5,.02,.74,.11,.42,.42,.84,.39,1.24-.08,1.11-.66,2.31-.37,3.3,.36,1.22,.16,2.36,.15,3.53,0,.67-.47,1.32-.59,2-.12,.64-.06,1.3-.08,1.96-.03,.93,.11,1.91-.13,2.79-.25,.91,.74,1.68,.02,2.67-.55,.76,.36,1.68,.44,2.56,.04,.43-.09,.89-.21,1.32-.09,.33-.43,.64-.41,.95,.04,.7-.17,1.37,.24,2.13,.28,.53-.3,1.43-.39,2.17-.09,.74-.06,1.49-.09,2.24s-.25,1.55-.04,2.23c.92,3.01,.21,6.04,.24,9.05,0,.77,.33,1.68-.56,2.32-.16,.11-.18,.56-.09,.79,1.12,2.9,.06,5.85,.31,8.76,.18,2.08,.57,4.13,.39,6.24-.17,2.05-.48,4.16-.13,6.15,.29,1.64,.55,3.26,.28,4.84-.27,1.55,1.41,3.11-.1,4.59-.05,1.59-.06,3.18-.17,4.77-.1,1.33,.24,2.71-.66,3.99-.33,.46-.33,1.38-.07,1.91,.84,1.7,.53,3.3,.02,4.98-.12,.4,.29,.91,.29,1.38,0,1.4,.02,2.82-.15,4.2-.52,4.15,.34,8.27,.21,12.41-.03,.76,.64,1.63,.43,2.3-1.25,4.07-.27,8.32-1.07,12.37-1.18,5.97-.7,12-1.16,17.99-.06,.78-.82,1.57-.63,1.95,.61,1.17,0,2.46,.45,3.44,.81,1.76,.15,3.45,.3,5.15,.11,1.24-.53,2.55,.42,3.73,.14,.17,.1,.6-.03,.82-1.01,1.78,.31,3.64-.21,5.43,.99,3.48,.04,6.97,.14,10.46,.01,.51,.24,1.02,.35,1.53,.06,.26,.2,.57,.1,.78-1.34,3.09-.54,6.39-1.05,9.57-.16,1.05-.55,2.07-.73,3.11-.18,1.06,.06,2.17-.74,3.13-.25,.3-.16,.92-.1,1.38,.37,2.48-1.32,4.21-3.85,4.1-.92-.04-.95-.55-1.26-1.1-.6-1.06-.98-2.09-.84-3.32,.1-.96,.45-1.99-.39-2.89-.14-.15-.09-.59,.04-.81,.88-1.6,.35-3.49,.97-5.02,.48-1.17,.43-2.29,.65-3.42,.19-.95-.23-1.97,.61-2.89,.28-.31-.37-1.29-.37-1.96,0-1.59,.02-3.19,.21-4.76,.58-4.79-.51-9.58,0-14.36-1-3.47,.18-6.99-.24-10.43-.51-4.16,.02-8.27-.13-12.4-.03-.85,.02-1.53,.34-2.27,.21-.48,.43-.99,.46-1.5,.12-1.96,.09-3.93,.27-5.88,.09-1.05-.44-2.24,.66-3.13,.15-.12,.15-.6,.03-.81-1-1.76-.28-3.6-.35-5.4-.03-.69,.04-1.35,.45-2.08,.44-.79,.44-2.06,.09-2.92-.27-.65-.26-1.21-.32-1.83-.27-2.54,.91-5.13-.3-7.65,1.18-1.26,.86-2.89,.64-4.21-.87-5.1,.08-10.15,.05-15.21,0-1.22,.52-2.44,.66-3.67,.14-1.3,.15-2.61,.14-3.92,0-.7,.4-1.5-.41-2.07-.06-.04-.1-.17-.08-.24,.16-.74,.5-1.49,.46-2.22-.03-.66-.57-1.28-.7-1.95-.15-.8-.14-1.63-.13-2.45,0-.79-.15-1.64,.61-2.25-.89-.65-.41-1.54-.45-2.33-.04-.74,.04-1.49,.06-2.24l.08-2.52c.03-.84,.13-1.69,.07-2.52-.09-1.15-.39-2.29-.44-3.43-.06-1.21-.02-2.44,.11-3.64,.17-1.51,.5-3.01,.71-4.52,.09-.63-.12-1.17-.43-1.79-.4-.82-1.31-1.88-.04-2.9,.25-.2,.21-.94,.06-1.36-1.18-3.28,0-6.6-.25-9.88,1.01-1.78,.48-3.55,.27-5.43-.3-2.77-.36-5.69,.28-8.37,.68-2.84,.43-5.65,.74-8.47,.09-.79-.24-1.66,.63-2.31,.2-.15,.16-.75,.04-1.08-.82-2.31-.5-4.53,.15-6.85,.34-1.22,.02-2.62-.26-3.99-.43-2.06,0-4.27,.07-6.42,1.08-.9,.03-1.65-.41-2.14-.59-.65-.68-1.25-.67-2.01,.01-.97,.23-1.93-.42-2.91-.33-.5-.22-1.6,.16-2.12,.51-.7,.29-.97-.01-1.63-.36-.78,.64-1.54,.62-2.51-.02-1.03-.51-2.25,.61-3.13,.1-.08,.1-.4,.02-.54-1.06-1.94,.62-3.79,.18-5.71,1.42-5.65,.54-11.44,1.15-17.13,.25-2.35,1.13-4.7,.7-7.03-.9-4.9-.02-9.77-.07-14.65-.01-1.03-.46-2.24,.63-3.14,.15-.12,.15-.6,.03-.81-.93-1.57-.58-3.07,.12-4.6,.17-.37,.17-1.08-.08-1.31-.71-.67-.39-1.41-.36-2.1,.05-.83,.72-1.92,.37-2.43-.76-1.09,.14-1.66,.31-2.47,.1-.5-.09-1.06-.19-1.58-.05-.25-.36-.57-.28-.71,.95-1.61-.31-3.26,.11-4.88,.09-.35,.08-.72,.2-1.05q1.3-3.8,.84-8.66c1.34-1.29-.53-2.9,.5-4.31,.38-.51,.32-1.53,.08-2.19-1.06-2.91-.08-5.85-.32-8.77-.05-.61,.83-1.04,.15-1.84-.26-.3,.54-1.27,.53-1.93-.01-.96,.49-1.96-.33-2.94-.33-.4-.03-1.25-.09-1.89-.07-.88,.28-1.75-.4-2.65-.37-.49-.35-1.61,0-2.15,1.45-2.23,.26-4.36-.17-6.48-.13-.64-.25-1.09-.02-1.75,.32-.92,.75-2.16,.36-2.89-.7-1.3-.36-2.51-.37-3.76-.02-2.15,.18-4.3,.14-6.45-.05-2.45,.38-4.88-.24-7.38-.33-1.34-.63-3.11,.55-4.52,.13-.16-.49-.76-.49-1.15,.04-3.08,.1-6.17,.27-9.25,.04-.71,1.2-1.46,.3-2.14-.95-.72,.98-1.42-.17-2.03-.17-.09-.13-.74,0-1.06,1.32-3.58,.47-7.33,.89-10.97,.1-.87-.34-1.89,.66-2.56-1.02-2.25,1.27-4.67-.4-6.89,.33-1.59-.53-3.33,.67-4.83,.2-.24-.07-.8,.11-1.08,.6-.95-1.15-1.61-.2-2.77,.55-.66,.27-1.95,.33-2.95,.05-.93,.06-1.87,.08-2.8l.09-3.08c.03-1.03,.13-2.06,.07-3.08-.11-2.08-.77-4.12-.42-6.24,.04-.23-.09-.62-.26-.71-1.49-.76-.62-1.79-.16-2.49,.38-.59,.57-1.1,.58-1.75,.03-1.78,.02-3.56,.17-5.33,.08-1.05-.37-2.18,.61-3.16,.3-.3,.26-1.15,.06-1.63-.93-2.25-.28-4.54-.36-6.81-.04-1.03,.02-2.06,.08-3.08,.04-.78-.58-1.58,.06-2.34-.27-.96-.44-1.91-.49-2.89-.05-.99-.02-1.98,.05-2.98,.16-1.98,.32-3.96,.48-5.93,.21-3.89,.59-7.8,1.13-11.63,.13-.96-.23-2.1,.87-2.84,.21-.14,.28-.84,.1-1.07-.48-.63-.71-1.09,.09-1.63,.15-.1,.06-.65-.04-.94-.29-.83-.15-1.53,.33-2.3,.37-.6,.66-1.43,.54-2.08-.33-1.74-.6-3.38,.68-4.9,.16-.19-.44-.85-.35-1.21,.35-1.41,.04-2.95,1.06-4.25,.42-.53,.3-1.43,.51-2.14,.35-1.22-.01-2.49,.5-3.75,.51-1.28,.53-2.76,.76-4.15l.71-4.17,.71-4.17,.77-4.16,.77-4.16,.78-4.16c.2-.97,.49-1.84,1.08-2.74,1.5-2.29,1.97-5.32,1.91-9.18,0-.28,.1-.55,.16-.83,.77-3.58,1.36-7.22,2.39-10.72,.44-1.54,1.26-3,1.55-4.62,.19-1.05,.58-2.03,.2-3.22-.31-.99,.85-2,.17-3.22-.25-.45,0-1.43,.38-1.85,1.29-1.42,1.25-3.23,1.74-4.88,.56-1.89,1.02-3.82,1.43-5.75,.2-.95,.73-1.81,.24-2.96-.24-.57,.31-1.63,.81-2.24,.77-.94,.96-2.02,1.03-3.08,.13-2.27,.05-2.27,1.17-4.24,.14-.23,.21-.51,.28-.77,.77-2.63,1.9-5.21,2.18-7.89,.21-2.25,.86-4.33,1.52-6.44,.26-.84,.15-1.94,1.32-2.34,.17-.06,.31-.53,.25-.78-.24-1.05-.06-2,.24-2.92,.34-.92,.8-1.8,1.12-2.7,.62-1.76,.37-3.68,1.23-5.41,.82-1.62,1.44-3.39,2.14-5.1,1.09-2.59,1.87-2.9,4.35-1.75,2.05,.95,2.23,1.78,1.84,3.95-.21,1.15-.51,2.25-.88,3.31-.38,1.06-.76,2.1-1.13,3.12-.76,2.04-1.57,3.95-2.06,5.73Z"/>
          <g>
            <path class="cls-9" d="M112.3,201.85c-7.15,1.82-15.35-6.59-18.2-14.81-2.86-8.22-2.61-17.75-2.13-26.91,1.78-33.91,6.11-67.74,12.68-101,1.38-6.98,2.91-14.1,6.12-20.15,3.21-6.05,8.44-10.92,14.06-10.99,6.56-.08,12.01,6.44,14.31,14.07,2.3,7.63,2.09,16.2,1.72,24.52-1.62,37.24-6.02,73.2-14.55,109.34-1.26,5.34-6.01,12.78-9.64,16.03-4.16,3.73-6.42,6.57-10.76,6.59"/>
            <path class="cls-9" d="M102.07,201.5c-2.6-1.83-4.22-3.76-5.87-5.62-.25-.3-1.03-.27-1.31-.69-1.07-1.64-2.66-3.18-2.75-5.27-.09-2.28-.54-4.13-1.5-5.89-.92-1.66-1.05-3.47-1.44-5.22-.12-.59-.34-1.17,.35-1.88,.49-.52,.48-1.36-.51-1.94-.19-.11-.02-.39,.06-.59,.08-.22,.48-.48,.34-.63-1.55-1.67-.46-3.5-.8-5.22-.08-.43,.35-.9-.62-1.28-.25-.1-.28-.52-.05-.64,.61-.32,.74-.65,.74-1.06,.01-1.77,.11-3.54,.21-5.28-1.22-.92-.6-1.86-.54-2.77,.05-.69,.53-1.35,.81-2.02,.29-.68-.47-1.47,.67-2.06,.18-.09-.13-.38-.14-.57-.03-.87-.38-1.8,.09-2.59,.24-.4,.48-.81,.51-1.23,.4-5.39,.83-10.78,1.3-16.17,.04-.47,.23-.9-.45-1.47-.53-.44-.48-1.29,.13-1.61,.98-.51,.66-1.12,.77-1.69,.21-1.05,.17-2.14,.39-3.19,.13-.62-.44-1.39,.89-1.81,.13-.04,.15-.24,.03-.32-1.15-.83-.06-1.4,.19-2.08,.17-.5,.21-1.01-.32-1.63-.52-.61-.51-1.52,.17-1.95,.91-.57,.7-1.22,.79-1.84,.51-3.68,.99-7.36,1.4-11.05,.18-1.75-.67-3.61,.01-5.31,.16-.4-.25-.93,.69-1.18,.19-.05,.13-.4-.07-.57-.72-.59-.35-1.03-.23-1.56,.54-2.42,1.35-4.84,1-7.35-.28-1.96,.25-3.76,.38-5.63,.04-.62,.74-1.15,.97-1.75,.22-.59,.27-1.21,.32-1.83,.03-.37,.34-.69-.3-1.17-.35-.26-.36-.8-.02-.96,1.16-.53,.89-1.36,1.04-2.1,.42-2.1,.72-4.22,1.18-6.31,.11-.51-.3-1.19,.87-1.45,.16-.04-.13-.4-.2-.61-.07-.22-.34-.53-.16-.65,1.64-1.1,1.13-2.68,1.45-4.06,.78-3.34,1.23-6.76,2.22-10.1,.28-.93-.42-1.99-.11-2.9,.29-.88,.45-1.8,.81-2.66,.24-.61,0-1.44,1.25-1.65,.34-.06,.49-.5,.29-.78-.78-1.07,.05-1.64,.2-2.42,.19-.98,1.22-1.56,.62-2.93-.16-.38,.61-.55,.85-.87,.41-.57,.79-1.15,1.12-1.77,.15-.3,0-.79,.16-1.1,1.23-2.32,2.77-4.61,4.94-6.48,2.18-1.89,5.08-3.33,8.37-3.76,1.64-.21,3.35-.11,4.97,.25,1.61,.4,3.09,1.08,4.39,1.94,.46,.34,1.08,.5,1.57,.85,.46,.35,.83,.84,.68,1.74,.66,0,1.08,.28,1.28,.7,.19,.44,.18,1.02,.07,1.66-.03,.18,.49,.13,.72,.23,.72,.28,2.41-.03,1.46,1.55-.04,.06,.08,.1,.1,.16,.16,.63,1.8,.17,1.36,1.38-.3,.75,.3,1.32,.55,1.95,.23,.65,.47,1.3,.84,1.88,.41,.61-.08,1.56,1.31,1.81,.23,.04-.43,.8-.31,1.07,.74,1.42-.05,3.15,1.68,4.34,.39,.28,.44,.83,.21,1.23-.86,1.45-.17,2.55,.35,3.84,.68,1.69,.96,3.58-.57,5.28-.33,.36-.58,.52-.02,.87,.37,.23,.28,.64,.28,.97,.02,3.7-.15,7.32-.32,10.92-.05,.98-1.29,1.84-.89,2.86,.16,.42-.47,.88,.53,1.28,.14,.06,.21,.23,.13,.31-1.23,1.14,.35,2.43-.2,3.61-.12,.25-.36,.48-.49,.73-.14,.25-.45,.54-.29,.77,1.34,1.93,.12,3.76,.35,5.65,.08,.64-.62,1.29,.57,1.95,.18,.1,.14,.38-.03,.49-1.55,.98-.51,2.26-.98,3.36-.24,.56,.51,1.28-.74,1.7-.16,.05-.05,.3,.02,.45,.13,.26,.51,.54,.47,.78-.12,.67-.84,1.34-.5,1.96,.43,.77,.16,1.44,.13,2.14-.02,.4-.61,.75-.77,1.15-.16,.37-.1,.78-.13,1.17-.05,.56,.11,1.16-.21,1.67-.33,.52,.89,1.09-.03,1.61-.7,.4,.41,1.05,.49,1.59,.04,.27-.13,.53-.29,.78-.12,.19-.54,.34-.53,.53,.03,.43-.24,.81,.25,1.31,.34,.35-.4,.83-.53,1.27-.13,.44-.12,.89-.17,1.34-.05,.45-.35,.91-.11,1.34,1.06,1.93,.1,3.67,.04,5.49-.02,.47,.35,1.06-.77,1.33-.2,.05-.25,.31-.14,.46,1.28,1.9-.12,3.54,.07,5.33,.14,1.28,.54,2.58,.24,3.82-.29,1.21-.77,2.44-.43,3.69,.28,1.04,.53,2.06,.11,2.97-.41,.89,1.61,2.12-.35,2.76-.15,.95-.24,1.91-.48,2.85-.2,.79,.14,1.68-1.04,2.29-.43,.22-.49,.77-.19,1.14,.94,1.18,.45,2.09-.28,3-.17,.21,.3,.61,.28,.89-.08,.85-.14,1.7-.44,2.51-.91,2.39-.14,5.06-.6,7.53-.09,.45,.66,1.12,.35,1.48-1.85,2.17-.93,4.96-2.26,7.21-1.92,3.31-1.88,7.04-2.96,10.52-.15,.47-1.12,.69-.95,1.04,.58,1.05-.38,1.76-.02,2.6,.6,1.54-.55,2.4-.81,3.54-.19,.87-1.25,1.31-.52,2.59,.1,.19-.06,.43-.27,.49-1.62,.48-.76,2.42-1.91,3.16-.05,1.37-.67,2.43-1.45,3.39-.79,.97-1.71,1.82-2.55,2.91-.23,.31-.31,.82-.51,1.24-.1,.21-.17,.54-.36,.58-2.3,.03-2.84,2.23-4.95,3.48-.7,.41-1.62,.59-2.47,.98-.42,.19-.83,.5-1.28,.71-.48,.2-.99,.32-1.63,.07-.39-.15-.87,.2-1.27,.44-.53,.35-1.11,.44-1.63,.41-.52-.07-1-.3-1.38-.67-.76-.77-1.11-2.06-1.12-3.64,0-1.15,.29-1.23,.55-1.67,.5-.86,.8-1.45,1.34-1.53,.41-.04,1.06,.04,.87-1.1-.03-.18,.15-.26,.31-.19,1.19,.44,1.53-.82,2.61-.88,.85-.05,1.25-.61,1.89-.91,.54-.26,.59-1.1,1.7-.75,.37,.12,.21-.91,.49-1.22,.6-.69,1.17-1.33,1.87-1.93,1.08-.9,1.69-2.2,2.22-3.5,.53-1.31,.98-2.62,1.82-3.72-.15-1.19,.25-2.07,.7-2.92,.43-.85,.94-1.7,.87-2.65-.04-.6-.06-1.01,0-1.69,.06-.62,.16-1.23,.28-1.83,.24-1.21,.53-2.4,.62-3.64,.04-.51,.16-.9,.61-1.26,.29-.23,.61-.48,.68-.78,.3-1.13,.43-2.31,.8-3.43,.2-.6-.36-1.43,1.06-1.7,.2-.04,.23-.32,.1-.47-1.1-1.28-.09-2.21-.04-3.29,.02-.41,.15-.79,.71-1.13,.6-.37,.7-1.13,.33-1.71-.28-.44-.23-.78-.27-1.16-.16-1.57,1.46-2.86,.15-4.61,1.54-.51,1.26-1.54,1.06-2.38-.77-3.2,.71-6.02,.93-9.05,.06-.73,.78-1.36,1.01-2.07,.25-.75,.32-1.53,.37-2.31,.03-.42,.56-.83-.41-1.3-.07-.04-.11-.12-.09-.16,.23-.41,.68-.8,.67-1.24,0-.4-.65-.86-.77-1.27-.15-.5-.1-.99-.05-1.48,.05-.47-.12-1,.85-1.25-1.08-.52-.44-.98-.47-1.46-.02-.45,.1-.88,.16-1.33l.2-1.49c.07-.5,.23-.99,.18-1.49-.07-.7-.4-1.42-.43-2.11-.03-.73,.06-1.45,.26-2.15,.26-.88,.72-1.73,1.03-2.6,.13-.36-.12-.71-.48-1.12-.48-.54-1.58-1.28,.03-1.73,.32-.09,.28-.54,.11-.8-1.37-2.09,.18-3.93-.08-5.92,1.29-.95,.67-2.06,.45-3.21-.31-1.68-.36-3.42,.48-4.96,.89-1.63,.62-3.33,1.02-4.98,.12-.46-.28-1.01,.81-1.33,.25-.07,.21-.44,.06-.64-1.01-1.45-.58-2.74,.23-4.08,.43-.71,.03-1.57-.32-2.4-.53-1.26,.02-2.55,.09-3.83,1.34-.47,.04-.99-.51-1.3-.73-.42-.85-.79-.84-1.24,.01-.58,.28-1.14-.54-1.76-.42-.32-.28-.96,.2-1.25,.63-.39,.37-.56-.02-.97-.46-.48,.79-.89,.75-1.47-.03-.62-.66-1.36,.74-1.84,.12-.04,.12-.23,.02-.32-1.34-1.2,.74-2.24,.18-3.4,1.7-3.32,.5-6.71,.97-9.93,.19-1.33,1.15-2.74,.42-3.99-.76-1.3-1-2.6-1.18-3.9-.17-1.3-.28-2.6-.73-3.79-.1-.25-.33-.48-.4-.75-.08-.25,.01-.55,.57-.99,.15-.12,.06-.35-.13-.39-1.42-.32-1.31-1.08-.91-2.14,.11-.26-.09-.57-.43-.52-.96,.14-.78-.36-.94-.65-.18-.34,.23-1.25-.3-1.19-1.1,.14-.33-.72-.44-1.14-.06-.26-.42-.31-.68-.41-.13-.04-.53,.12-.5,.01,.18-.64-.16-.86-.57-.94-.4-.11-.83-.11-.94-.48-.05-.17-.18-.25-.2-.44-.09-.5-.18-.92-.3-1.22-.12-.29-.25-.5-.43-.65-.36-.26-.94-.33-1.86-.15-.07-.82-.42-.74-.7-.48-.3,.23-.52,.48-.82-.1-.23-.46-.65-.29-.84,.08-.21,.38-.42,.68-.65,.83-.23,.2-.49,.28-.77,.38-.55,.2-1.2,.33-1.62,.88-.16,.21-.99-.54-.74,.39,.1,.33-.86-.13-1.09,.13-.32,.33-1.1,.29-.68,1.36,.18,.44-.35,.51-.5,.8-.18,.41-.79,.49-.36,1.37,.24,.49-.07,.9-.57,.89-1.03-.04-1.39,.43-1.45,1.03-.07,.6,.16,1.32,.18,1.93,.02,.38,.06,.64-.33,.83-.53,.27-1.27,.67-.94,1.23,.57,.97,0,1.42-.19,2.06-.31,1.1-.83,2.15-1.05,3.31-.24,1.32-1.02,2.53-.51,4.1,.27,.84,.48,1.89-1.1,2.4-.17,.06,.54,.56,.49,.78-.31,1.75-.63,3.55-1.09,5.33-.11,.41-1.59,.6-.54,1.19,1.11,.64-1.32,.62,.05,1.24,.2,.09,.1,.46-.07,.63-1.92,1.83-1.13,4.23-1.92,6.3-.19,.5,.28,1.19-1,1.38,1.1,1.54-1.89,2.52,.02,4.17-.52,.88,.42,2.07-1.16,2.73-.26,.11,.04,.49-.2,.62-.81,.45,1.31,1.17,.07,1.68-.72,.29-.46,1.1-.59,1.69-.12,.54-.19,1.1-.28,1.65l-.29,1.82c-.1,.61-.28,1.2-.27,1.82,.02,1.26,.71,2.58,.17,3.78-.06,.13,.07,.38,.29,.47,1.8,.7,.67,1.17,.07,1.51-.51,.29-.77,.56-.82,.94-.13,1.05-.22,2.11-.48,3.14-.16,.61,.35,1.36-.91,1.78-.39,.13-.38,.64-.15,.96,1.04,1.48,.12,2.74,.14,4.1,0,.62-.12,1.22-.23,1.82-.09,.46,.66,1.02-.17,1.38,1.21,2.44-.04,4.61-.15,6.91-.1,2.28-.44,4.54-.76,6.8-.08,.56,.45,1.26-.85,1.63-.25,.07-.27,.48-.04,.63,.64,.4,.97,.69,.03,.97-.17,.05-.01,.38,.15,.57,.45,.52,.35,.92-.16,1.36-.39,.34-.67,.82-.44,1.22,.61,1.06,1.13,2.04-.28,2.91-.17,.11,.64,.52,.57,.74-.24,.83,.35,1.76-.73,2.52-.45,.31-.18,.85-.33,1.27-.26,.73,.37,1.49-.09,2.24-.47,.76-.23,1.65-.3,2.48l-.2,2.5-.19,2.5-.18,2.5-.17,2.5c-.06,.83-.1,1.67-.17,2.5-.05,.58-.23,1.11-.76,1.67-1.36,1.42-1.29,3.26-.41,5.54,.06,.16,0,.33-.02,.5-.11,2.16,.04,4.3-.34,6.39-.17,.92-.74,1.83-.64,2.77,.07,.61-.11,1.21,.69,1.79,.68,.47-.43,1.22,.77,1.74,.44,.19,.46,.73,.12,1.03-1.1,1-.41,1.93-.39,2.85,.01,1.08,.21,2.12,.49,3.13,.12,.5-.13,1.08,.92,1.36,.51,.14,.35,.77,.05,1.24-.47,.72-.17,1.23,.24,1.64,.92,.84,.96,.7,.73,1.96-.03,.15,.03,.27,.08,.39,.55,1.17,.87,2.64,2.13,3.35,1.02,.59,1.7,1.33,2.41,2.05,.28,.31,1,.17,.39,1.33-.09,.17,.1,.32,.27,.27,.77-.25,1.18-.13,1.49,.14,.32,.21,.54,.6,.86,.79,.31,.14,.74,.1,1.11-.01,.36-.14,.69-.15,.86,0,.17,.17,.4,.3,.56,.26,.09,0,.18,0,.26,.01,.07-.02,.13-.05,.2-.04,.05,0,.09,.02,.14,.06,.04,.02,.07,.05,.1,.1,.07,.11,.15,.3,.25,.6,.21,.6,.52,1.6,.94,3.26,.35,1.37,.48,2.21,.32,2.83-.16,.59-.6,1.05-1.36,1.35-1.66,.75-3.44,.36-4.88-.18-.71-.32-1.39-.64-1.98-1.02-.31-.17-.61-.34-.9-.51-.28-.18-.56-.34-.85-.48Z"/>
          </g>
          <g>
            <path class="cls-13" d="M73.69,646.47c10.02-85.02-11.69-171.55-19.13-255.8-8.58-97.09-12.46-195.66,4.39-292.11,.67-3.85,1.38-7.69,2.11-11.53-26.78,91.38-35.73,187.01-35,281.96,.65,84.77,13.31,167.15,17.12,251.18,.42,9.24-.21,20.12,2.72,29.04,2.03,6.19,9.88,7.8,16.21,6.28,6.33-1.53,14.49-7.12,12.4-13.28"/>
            <path class="cls-13" d="M75.43,617.62c.06-1.07,.11-2.12,.17-3.15,.02-1.03,.03-2.03,.05-3.02,.03-1.98,.06-3.88,.09-5.73,.04-3.7,.15-7.21,.02-10.71-.03-1.09-.18-2.31-.2-3.68-.06-2.74-.13-5.51-.19-8.26-.11-2.75-.26-5.47-.31-8.11-.06-2.88-.15-5.76-.28-8.61-.2-2.84-.43-5.65-.68-8.4-.22-2.6-.44-5.18-.66-7.76-.25-2.57-.51-5.13-.76-7.71-.18-1.73-.36-3.42-.4-5.32-.01-1.38-.26-3.9-.67-5.73-.08-.36-.13-1.14-.17-1.71-.05-.62-.05-1.34-.13-1.79-.86-5.01-1.21-10.29-1.94-15.39-.18-1.27-.27-2.67-.59-3.74-.08-.27-.25-1.51-.25-1.89,0-.99-.1-1.99-.26-3.21l-2.1-15.78c-.59-2.54-.89-5.46-1.27-8.21-.28-2.07-.48-4.14-.72-6.21-.24-2.09-.71-4.31-.76-6.33,0-.32-.19-1.11-.27-1.7-.38-2.61-.84-5.33-1.1-7.8-.13-1.27-.27-2.53-.44-3.8-2.23-16.29-4.33-32.6-6.09-48.95-.14-1.42-.24-2.79-.54-4.28-.23-1.17-.49-3.75-.48-4.9,0-1.85-.24-3.57-.4-5.32-.27-3.24-.54-6.49-.82-9.72-.15-1.92-.46-4.05-.35-5.76,.01-.16-.04-.77-.08-.98-.43-2.11-.37-4.21-.51-6.35-.1-1.55-.22-3.11-.47-4.8-.25-1.64-.48-4.39-.47-5.93,0-2.05-.18-3.92-.31-5.83l-1.14-16.92-1-16.93c-.26-5.34-.74-10.6-.91-15.99-.05-1.28-.2-2.68-.06-3.84,.03-.24-.03-1.27-.09-1.68-.21-1.46-.2-2.93-.25-4.59-.11-3.76-.22-7.56-.32-11.33-.07-3.78-.17-7.54-.32-11.23-.28-5.75-.22-11.4-.3-17.08-.02-1.89,.08-3.81,.09-5.74,.01-1.87,.02-3.77,.03-5.65,0-1.12,.07-2.25-.07-3.35-.07-.59-.08-2.21,0-2.86,.23-2.19,.17-4.54,.2-6.82l.53-19.52c.08-1.6,.05-3.38,.34-4.81,.04-.19,.01-1.11,.02-1.7,0-.62-.02-1.4,.03-1.86,.24-2.1,.37-4.26,.46-6.43l.13-3.26c.07-1.09,.13-2.17,.2-3.24l1.06-15.64c.46-5.2,.93-10.41,1.39-15.61,.24-2.91,.4-5.47,.71-8.29,.3-2.72,.61-5.45,.91-8.17,.23-1.93,.34-3.98,.82-5.74,.13-.48,.31-1.87,.33-2.45,.07-2.17,.5-4.51,.78-6.77,.35-2.76,.82-5.58,1.02-8.31,.06-.74,.4-2.13,.59-3.24,.32-1.93,.63-3.86,.95-5.79,.14-.93,.21-1.84,.35-2.77,.79-5.54,1.84-11.04,2.8-16.57l1.42,.34-1.29,4.7-2.96,10.63c-1,3.54-1.85,7.12-2.78,10.68-.89,3.57-1.87,7.12-2.67,10.71l-2.5,10.75c-.3,1.35-.61,2.75-.91,4.13-.29,1.38-.6,2.73-1.01,3.95-.34,2.53-.9,4.69-1.56,6.82-.09,.31-.17,1.11-.27,1.7-.3,1.84-.37,3.63-1.1,5.58-.03,.07-.06,.33-.09,.49-.36,1.67-.25,2.91-.84,5-.37,1.31-.72,3.47-1.07,5.26-.36,1.85-.72,3.71-1.03,5.55-.31,1.9-.79,3.95-.84,5.78,0,.3-.41,1.67-.54,2.5-.62,4.26-1.64,8.57-1.93,12.82-.07,.97-.3,2.49-.51,3.5-.75,3.65-1.14,7.11-1.6,10.9-.54,4.99-1.16,10.33-2.08,15.17-.2,1.03-.31,1.49-.33,2.55-.02,.7-.15,1.9-.26,2.88l-1.73,16.34-1.47,16.36c-.22,2.97-.66,5.73-.79,8.78-.05,1.26-.28,2.73-.16,3.79,.02,.15,0,.67-.04,.91-.52,3.64-.39,7.31-.69,10.94-.07,.78-.15,1.52-.22,2.3-.07,.79-.18,1.71-.18,2.38-.06,5.61-.5,11.37-.66,17.04-.05,1.93-.27,4.04-.1,5.77,.03,.26-.01,1.12-.06,1.48-.39,3.3-.25,6.94-.42,10.37-.09,1.76,.02,3.74-.26,5.31-.04,.2-.03,.91-.02,1.35,0,.76,.08,1.51,.06,2.24-.04,2.04-.2,4.26-.14,6.06,.07,2.22,0,4.32-.01,6.45-.01,1.22-.14,2.43-.18,3.69-.03,1.17,0,2.39,0,3.59,0,1.71,.05,3.49,0,5.12-.05,1.68,.2,3.02,.03,4.88-.13,1.42,.11,3.06,.14,4.65,.03,.79,.01,1.64,0,2.43-.01,.61-.08,1.19-.07,1.75,.04,1.28,0,2.52,.14,3.89,.09,.94-.02,2.63-.02,4,.02,1.36,.05,2.74,.07,4.1,.04,1.37,.04,2.85,.14,4.09,.44,5.44,.41,11.02,.74,16.52,.07,1.41,.24,3.05,.08,4.28-.03,.22,0,1.03,.05,1.44,.51,5.22,.64,10.68,1.02,15.98,.27,3.78,.64,7.5,.88,11.36,.24,3.75,.42,7.63,.81,11.23,.31,2.97,.62,5.89,.79,8.81,.16,2.85,.81,5.56,.68,8.38,.24,2.9,.48,5.8,.72,8.7,.19,2.44,.5,4.92,.5,7.32,0,.87,.15,2.55,.3,3.49,.49,3.03,.68,5.97,.85,9.07,.04,.73,.23,1.64,.31,2.48,.24,2.55,.49,5.13,.69,7.67,.59,7.6,1.52,15.03,2.2,22.59,.12,1.39,.43,2.92,.5,4.15,.4,7.53,1.34,15.18,1.81,22.63,.34,5.49,.75,10.98,1.2,16.46,.4,5.49,.81,10.97,1.21,16.45,.09,1.43,0,2.94,.09,3.61,.3,2.09,.31,4.5,.54,6.25,.42,3.15,.48,6.28,.68,9.38,.16,2.26,.14,4.71,.49,6.78,.05,.3,.09,1.08,.08,1.5-.05,3.33,.46,6.65,.39,9.98,.41,6.26,.26,12.7,1.55,18.77,.18,.89,.46,1.72,.71,2.58,.15,.43,.34,.92,.42,1.29,.31,1.25,.86,2.3,1.73,3.21,.86,.9,1.97,1.59,3.2,2.07,2.47,.96,5.3,1.11,7.99,.76,1.77-.22,3.5-.66,5.19-1.38,1.7-.73,3.29-1.78,4.74-2.72,.46-.29,1.22-1.02,1.69-1.62,1.31-1.6,2.01-3.15,2.19-4.34,.02-.3,.06-.57,.1-.82,.05-.25,.01-.46,.05-.65,.04-.37,.13-.63,.27-.7,.11-.05,.22,.15,.34,.48,.06,.17,.12,.37,.2,.58,.03,.23,.06,.47,.09,.71,.25,1.94-.55,3.93-2.08,5.68-1.2,1.38-2.82,2.51-4.07,3.53-.2,.19-.93,.58-1.33,.76-1.41,.63-2.92,1.25-4.48,1.7-1.56,.45-3.16,.69-4.62,.69-2.23-.04-4.32-.24-6.33-.98-1.67-.61-3.41-1.51-4.49-3-.17-.25-.57-.69-.96-1.24-.18-.29-.4-.58-.55-.9-.15-.32-.29-.64-.41-.94-.93-2.78-1.5-5.69-1.83-8.58-.49-4.4-.66-8.78-.8-13.15-.08-2.18-.16-4.36-.24-6.55-.11-2.18-.22-4.37-.33-6.57-.3-3.13-.48-6.32-.63-9.52-.18-3.19-.36-6.39-.62-9.51-.58-7.56-1.16-15.1-1.73-22.62-.14-1.54-.23-2.79-.27-4.17-.02-.9-.05-1.85-.12-2.78-.29-3.58-.57-7.17-.86-10.75-.15-1.92-.48-4.05-.36-5.77,.02-.24-.06-1.1-.13-1.48-.53-3.12-.66-6.55-.99-9.82-.12-1.25-.22-2.46-.25-3.82-.03-1.48-.24-3.79-.48-5.33-.18-1.16-.27-2.19-.39-3.3-.51-4.61-.67-9.43-1.4-13.91,.07-2.4-.29-5.34-.57-7.73-1.1-9.21-1.73-18.5-2.56-27.74-.2-2.23-.26-4.49-.43-6.76-.19-2.38-.39-4.78-.59-7.17-.1-1.27-.13-2.76-.41-3.74-.02-.07-.05-.3-.06-.43-.07-1.36-.1-2.75-.22-4.08-.11-1.2-.33-2.29-.46-3.5-.16-1.45-.28-2.97-.38-4.46-.1-1.44-.26-2.98-.15-4.16-.31-1.11-.31-2.78-.42-4.22-.09-1.36-.19-2.73-.28-4.1l-.28-4.62c-.09-1.54-.18-3.09-.27-4.62-.17-2.09-.33-4.15-.5-6.24-.17-2.21-.24-4.46-.33-6.67-.08-2.78-.16-5.54-.24-8.32-.03-1.15-.15-2.13-.26-3.24-.15-1.48-.45-3.36-.2-5.3,.05-.38-.01-1.74-.08-2.49-.24-2.97-.39-5.99-.42-9.02-.03-3.03-.04-6.07-.13-9.08,.09-1.66,.09-3.29,.05-4.94-.04-1.65-.07-3.31-.11-5.03-.09-5.05-.18-10.41,.02-15.36,.21-5.24,.19-10.38,.31-15.55,.05-1.45,0-3.03,.25-4.26,.06-.28,.07-1.38,.05-1.98-.11-4.2,.04-8.28,.33-12.55,.17-2.25,.18-4.8,.2-7.3,.05-3.75,.25-7.83,.49-11.77,.36-1.69,.17-3.03,.1-3.9-.09-1.17-.05-2.27,.02-3.65,.1-1.78,.24-3.54,.17-5.31-.03-.91,.09-2.92,.27-3.88,.22-1.29,.2-1.78,.2-2.97,0-1.41,.36-2.85,.47-4.62,.12-1.88,.15-4.1,.55-5.74,.04-.15,.07-.73,.07-.99-.04-3.52,.73-6.95,.9-10.43,.62-5.18,1.08-10.4,1.66-15.62l.82-7.83,.42-3.91,.52-3.89c.58-4.28,1.33-8.58,1.74-12.81,.48-4.44,1.13-8.88,1.77-13.31,.62-4.44,1.39-8.85,2.1-13.26,.3-1.87,.53-4.04,1.07-5.68,.07-.23,.21-1.09,.24-1.47,.2-2.84,.83-5.53,1.5-8.31,.17-.67,.4-1.94,.41-2.37,.04-1.2,.36-2.54,.6-3.79,.29-1.51,.82-3.47,.89-4.39,.16-1.96,.63-2.99,.96-4.44,.21-.89,.37-1.9,.53-2.84,.08-.45,.12-1.02,.19-1.27,.83-2.9,1.12-5.86,1.82-8.76,.15-.62,.28-1.29,.45-1.89q1.88-6.79,3.73-15.48c.86-2.29,1.14-5.16,2.03-7.67,.33-.91,.76-2.72,1-3.9,.52-2.59,1.14-5.2,1.86-7.79,.73-2.58,1.49-5.17,2.17-7.74,.28-1.08,.72-1.83,.93-3.25,.08-.53,.76-2.24,1.08-3.41,.18-.63,.37-1.26,.55-1.91l1.39,.34c-.22,1.11-.42,2.23-.49,3.34-.04,.72-.4,2.25-.59,3.41-.26,1.58-.63,3.14-.75,4.77-.05,.89-.37,2.91-.61,3.89-1,4.05-1.3,7.87-1.8,11.7-.14,1.15-.26,1.96-.48,3.15-.3,1.68-.7,3.92-.78,5.24-.13,2.34-.51,4.55-.8,6.8-.26,1.95-.52,3.9-.78,5.85-.21,1.96-.43,3.91-.64,5.86-.45,4.46-1.08,8.87-1.34,13.41-.12,2.44-.32,5.65-.83,8.26-.06,.29,0,1.37-.05,2.08-.53,5.62-.87,11.25-1.26,16.88-.09,1.3-.47,2.7-.32,3.91,.16,1.28-.41,2.63-.19,3.71,.03,.16-.03,1.34-.08,1.94-.31,3.3-.48,6.65-.62,10.01-.13,3.36-.26,6.73-.38,10.07-.06,1.6,0,3.44-.27,4.7,.18,4.07-.57,8.6-.15,12.58-.1,2.92,.1,6.06-.22,8.86-.05,.45,0,1.46-.04,1.98-.16,1.77,.27,2.89,.02,5.05-.12,1.24-.03,3.57-.03,5.42l.03,5.13,.04,5.65c0,1.88,.04,3.77,.1,5.64,.12,3.8,.38,7.5,.39,11.38,0,.42,.05,1.13,.1,1.29,.4,1.3,.25,3.24,.19,4.55-.05,1.1-.06,2.04-.02,3.23,.11,3.25,.23,6.5,.34,9.74,.04,1.92,.26,3.97,.11,5.81-.05,.57,.04,2.12,.14,2.98,.44,4.05,.49,8.28,.73,12.41,.11,1.87,.22,3.76,.33,5.64,.08,1.43,.32,2.84,.25,4.28,.68,6.93,.99,14.06,1.51,21.08,.53,6.99,1.06,13.99,1.58,20.99,.13,1.75,.41,3.69,.29,5.27-.02,.3,.09,1.56,.17,1.93,.22,1.01,.36,1.77,.27,2.93-.02,.21,.1,1.17,.18,1.68,.22,1.42,.32,2.7,.35,4.2,.03,1.16,.12,2.73,.27,3.86,.42,3.02,.83,5.87,.86,8.93,0,.37,.27,1.39,.33,2.07,.23,2.61,.59,5.27,.71,7.88,.04,1.07,.28,2.63,.41,3.96,.22,2.28,.61,4.43,.8,6.83,.19,2.43,.59,5.07,.91,7.62l.97,7.64c.32,2.55,.65,5.09,1,7.64l1.03,7.63,1.04,7.63,1.06,7.63c.24,1.78,.45,3.44,.59,5.24,.38,4.61,1.19,10.16,2.32,16.93,.08,.49,.14,1.02,.21,1.53,.88,6.62,1.85,13.26,2.58,19.87,.33,2.9,.58,5.82,.97,8.78,.25,1.94,.41,3.83,.79,5.75,.31,1.6,.34,3.89,.79,5.74,.16,.68,.36,2.51,.4,3.43,.12,3.07,.5,6.24,.79,9.36,.3,3.58,.71,7.17,.98,10.75,.14,1.76,.19,3.53,.52,5.31,.16,.88,.25,3.01,.27,4.31,.01,2.01,.22,4,.35,5.88,.31,4.04,.33,4,.38,8,0,.48,.03,.99,.05,1.49,.31,4.97,.23,10.06,.46,14.88,.09,2.01,.15,4.01,.21,5.99-.02,1.99-.04,3.97-.06,5.97-.02,1.58,.06,3.43-.21,4.77-.04,.19-.05,1.09-.02,1.48,.09,1.67,.16,3.41,.05,5.16-.1,1.75-.21,3.52-.31,5.24-.18,3.35-.1,6.45-.36,9.88-.36,3.21-.63,6.49-.94,9.74-.47,4.94-.72,5.98-1.4,5.88-.56-.08-.56-1.34-.3-5.29,.14-2.1,.3-4.19,.48-6.26,.15-2.07,.43-4.11,.5-6.12,.22-4.01,.45-7.82,.59-11.23Z"/>
          </g>
          <g>
            <path class="cls-13" d="M105.97,631.24c6.79-69.26,11.53-138.7,18.81-207.91,7.32-69.58,15.48-132.82,51.35-194.02,27.23-46.44,55.37-93.96,97.3-127.73-42.05,52.15-84.9,105.73-106.56,169.13-22.22,65.06-26.41,136.41-34.22,204.26-3.71,32.2-7.1,123.47-5.05,155.8,.91,14.38-1.15,15.37-7.95,16.51-8.2,1.37-13.68,1.96-13.41-18.8"/>
            <path class="cls-13" d="M108.27,601.9c.79-8.71,1.44-15.83,2.02-22.93,.09-1.11,.07-2.35,.19-3.75,.49-5.55,.86-11.28,1.46-16.61,.66-5.83,1.18-11.68,1.55-17.27,.35-5.31,.82-10.51,1.24-15.76,.14-1.76,.26-3.49,.57-5.4,.23-1.39,.46-3.95,.43-5.86,0-.37,.1-1.16,.17-1.74,.07-.62,.22-1.35,.23-1.81,.15-5.17,.83-10.51,1.22-15.74,.1-1.3,.31-2.72,.21-3.84-.02-.29,.08-1.56,.16-1.93,.21-.99,.32-2.01,.43-3.25l1.46-16.13c0-2.65,.37-5.61,.64-8.43,.2-2.11,.49-4.21,.74-6.32,.25-2.13,.31-4.43,.73-6.45,.07-.32,.08-1.15,.14-1.74,.25-2.67,.44-5.47,.77-7.97,.17-1.28,.34-2.57,.47-3.86,1.71-16.63,3.45-33.27,5.54-49.86,.18-1.44,.4-2.81,.46-4.37,.05-1.21,.39-3.82,.66-4.96,.44-1.83,.58-3.59,.87-5.36,.49-3.27,.99-6.55,1.48-9.82,.3-1.94,.56-4.11,1.09-5.77,.05-.16,.16-.77,.17-.99,.12-2.19,.67-4.24,1.07-6.39,.31-1.55,.61-3.11,.82-4.84,.2-1.68,.71-4.44,1.13-5.95,.53-2.02,.93-3.89,1.33-5.79,2.32-11.27,5.29-22.39,8.52-33.43,1.66-5.18,2.96-10.4,4.98-15.52,.46-1.22,.85-2.6,1.41-3.65,.12-.21,.45-1.21,.55-1.62,.33-1.47,.98-2.82,1.61-4.4,.72-1.77,1.45-3.56,2.18-5.34,.73-1.78,1.44-3.57,2.26-5.31,1.57-3.51,3.13-7.01,4.66-10.45,2.56-5.27,5.04-10.47,7.92-15.49,.93-1.69,1.98-3.34,2.96-5.04,.95-1.65,1.92-3.32,2.87-4.98,.57-.99,1.19-1.95,1.64-2.98,.24-.56,1.05-1.98,1.44-2.52,1.32-1.81,2.46-3.91,3.65-5.9,3.39-5.69,6.78-11.38,10.25-17.01,.85-1.38,1.7-2.99,2.67-4.11,.13-.15,.57-.98,.87-1.5,.32-.55,.68-1.25,.96-1.63,2.5-3.49,4.81-7.36,7.21-11.04,5.85-8.87,11.84-17.67,18.24-26.15,1.8-2.37,3.26-4.53,5.03-6.8,1.68-2.22,3.5-4.35,5.26-6.51,1.27-1.52,2.49-3.22,3.89-4.44,.38-.34,1.32-1.42,1.65-1.9,1.3-1.79,2.93-3.58,4.49-5.29,1.9-2.09,3.99-4.13,5.72-6.32,.47-.58,1.6-1.52,2.42-2.32,1.41-1.4,2.83-2.8,4.25-4.2,.66-.69,1.3-1.36,2-2.02,2.24-2.06,4.43-4.19,6.72-6.2l6.96-5.94,1.04,1.04-2.37,2.96c-4.68,5.84-9.36,11.69-14.05,17.53l-6.96,8.81-6.9,8.85c-1.74,2.21-3.42,4.75-5.24,6.63-1.41,2.17-2.89,3.9-4.4,5.59-.22,.24-.63,.95-.97,1.45-1.06,1.57-1.89,3.2-3.4,4.69-.06,.05-.2,.28-.3,.41-1.07,1.37-1.53,2.53-2.97,4.22-.9,1.05-2.16,2.89-3.24,4.4-1.12,1.55-2.26,3.11-3.32,4.68-1.08,1.63-2.42,3.31-3.26,4.96-.13,.27-1.09,1.36-1.57,2.07-2.46,3.62-5.04,7.3-7.17,11.05-.48,.86-1.35,2.15-1.95,3.01-2.17,3.09-3.95,6.16-5.92,9.5-1.27,2.21-2.55,4.52-3.89,6.78-1.33,2.27-2.75,4.47-4.05,6.6-.57,.9-.84,1.29-1.25,2.29-.27,.65-.88,1.73-1.35,2.61l-1.99,3.67c-.65,1.23-1.25,2.48-1.88,3.72l-3.74,7.46-3.49,7.58-1.74,3.79-1.6,3.85c-1.15,2.8-2.47,5.31-3.54,8.23-.41,1.22-1.04,2.59-1.21,3.66-.02,.15-.19,.66-.29,.88-1.49,3.42-2.52,6.99-3.69,10.51-.27,.74-.53,1.46-.8,2.2-.27,.76-.62,1.64-.79,2.3-1.57,5.48-3.19,11.12-4.78,16.65-.46,1.91-1.12,3.96-1.32,5.72-.03,.26-.25,1.11-.37,1.46-.56,1.59-1.02,3.3-1.45,5.02-.4,1.73-.75,3.5-1.18,5.19-.44,1.74-.73,3.73-1.32,5.24-.08,.19-.21,.9-.29,1.34-.15,.76-.23,1.52-.38,2.25-.43,2.03-1.01,4.22-1.29,6.02-.34,2.23-.84,4.31-1.22,6.44-.22,1.22-.55,2.42-.8,3.66-.24,1.17-.44,2.39-.66,3.59-.31,1.71-.6,3.5-.93,5.12-.33,1.68-.3,3.07-.77,4.9-.36,1.4-.4,3.09-.63,4.69-.12,.8-.28,1.64-.44,2.44-.12,.61-.28,1.18-.36,1.75-.17,1.29-.4,2.53-.5,3.93-.07,.96-.45,2.63-.67,4.01-.21,1.37-.42,2.75-.6,4.13-.18,1.38-.43,2.87-.54,4.12-.24,2.77-.59,5.55-.96,8.34-.35,2.79-.69,5.59-1.04,8.37-.17,1.43-.28,3.1-.65,4.31-.06,.22-.16,1.03-.18,1.46-.3,5.33-1.19,10.82-1.68,16.21-.35,3.84-.66,7.62-1.09,11.54-.43,3.8-.9,7.72-1.18,11.4-.23,3.02-.47,6.01-.83,8.96-.35,2.88-.23,5.72-.89,8.51-.32,2.94-.61,5.9-.96,8.83-.29,2.47-.48,5.01-.96,7.4-.17,.87-.36,2.58-.39,3.54-.08,3.11-.49,6.08-.85,9.2-.09,.74-.06,1.68-.13,2.54-.2,2.6-.4,5.22-.6,7.8-.66,7.72-.84,15.33-1.26,23.03-.08,1.42,.02,3-.09,4.24-.66,7.63-.72,15.47-1.16,23.04-.68,11.17-.82,22.35-1.1,33.51-.03,1.45-.24,2.98-.2,3.66,.12,2.14-.06,4.58,.05,6.37,.19,3.22,0,6.4,.04,9.56,.04,2.3-.11,4.78,.13,6.9,.04,.31,.03,1.1,0,1.52-.2,3.39,.16,6.74,.12,10.1,.24,3.18,.28,6.41,.46,9.63l.22,4.86c.09,1.64,.16,3.28,.16,4.94,.02,.97,.03,1.94,0,2.92-.04,.51-.07,1.11-.14,1.54-.33,1.54-.76,3.25-1.99,4.74-.64,.69-1.41,1.31-2.23,1.66-.81,.4-1.61,.62-2.39,.82-1.56,.37-3.02,.6-4.54,.83-1.51,.22-3.12,.4-4.83,.15-.55-.03-1.13-.27-1.68-.41-.27-.1-.54-.26-.81-.39-.26-.14-.54-.26-.76-.46-.46-.38-.95-.73-1.28-1.21l-.54-.68c-.16-.23-.28-.48-.42-.72l-.41-.74c-.11-.25-.2-.51-.31-.76-.19-.51-.42-1.01-.53-1.52-.13-.51-.25-1.01-.36-1.51-.08-.5-.12-.99-.16-1.48-.07-.59-.22-1.76-.33-2.61-.53-4.64,.03-8.06,.62-8.12,.23-.02,.25,.92,.34,1.9,.16,1.89,.32,3.75,.52,6.03,.07,.88,.14,1.81,.33,2.7,.08,.44,.15,.88,.27,1.29,.13,.41,.27,.8,.42,1.15,.05,.12,.12,.38,.2,.64,.1,.26,.2,.54,.26,.74,.42,1.4,1.24,2.81,2.52,3.58,1.27,.78,2.83,.92,4.24,.92,2.18-.02,4.24-.44,6.32-.79,1.74-.33,3.48-.99,4.6-2.33,.09-.12,.24-.28,.35-.52,.1-.24,.23-.53,.34-.83,.08-.32,.17-.66,.25-.99,.06-.34,.11-.67,.16-.98,.44-2.88,.3-5.87,.2-8.8-.44-8.95-.88-17.79-.84-26.74-.29-6.39,.03-13.03-.03-19.41-.04-7.72,.22-15.42,.37-23.09,.03-1.58,.08-2.85,.2-4.24,.08-.91,.16-1.87,.19-2.82,.13-3.65,.27-7.32,.4-10.97,.08-1.95,.02-4.15,.37-5.87,.05-.24,.08-1.12,.07-1.51-.12-3.21,.17-6.69,.31-10.04,.05-1.28,.12-2.51,.28-3.89,.18-1.5,.28-3.86,.27-5.44,0-1.19,.05-2.24,.09-3.38,.16-4.72,.73-9.59,.71-14.21,.42-2.4,.57-5.41,.68-7.86,.1-2.36,.25-4.72,.44-7.07,.18-2.36,.38-4.71,.64-7.07,.47-4.72,1.07-9.39,1.56-14.09,.25-2.26,.61-4.54,.88-6.83,.28-2.41,.53-4.85,.78-7.27,.13-1.29,.38-2.79,.28-3.82,0-.08,0-.31,.02-.44,.18-1.38,.4-2.77,.53-4.12,.11-1.22,.09-2.35,.18-3.58,.11-1.47,.27-3.02,.42-4.53,.15-1.46,.27-3.03,.58-4.2-.11-1.17,.19-2.84,.32-4.3,.15-1.38,.29-2.77,.44-4.16l.51-4.68c.17-1.56,.34-3.13,.5-4.67,.19-2.13,.38-4.22,.58-6.34,.23-2.24,.49-4.51,.77-6.75,.35-2.81,.78-5.58,1.16-8.38,.16-1.16,.22-2.16,.28-3.3,.07-1.51,.08-3.45,.65-5.36,.11-.38,.28-1.74,.34-2.51,.25-3.02,.61-6.07,1.07-9.12,.46-3.05,.95-6.1,1.35-9.13,.7-3.3,1.14-6.55,1.62-10.02,.69-5.1,1.68-10.46,2.7-15.4,1.09-5.23,2.15-10.35,3.22-15.5,.34-1.44,.62-3.02,1.1-4.2,.11-.27,.35-1.36,.45-1.97,.37-2.11,.8-4.17,1.27-6.23,.53-2.05,1.11-4.1,1.72-6.2,.66-2.21,1.18-4.75,1.78-7.22,.94-3.7,2.18-7.68,3.29-11.54,.78-1.57,.94-2.94,1.11-3.82,.22-1.18,.54-2.25,.97-3.59,.56-1.73,1.15-3.42,1.55-5.19,.23-.89,.96-2.82,1.39-3.72,.57-1.21,.69-1.69,1.03-2.86,.4-1.38,1.14-2.7,1.75-4.4,.67-1.81,1.44-3.92,2.33-5.4,.08-.13,.3-.68,.39-.94,.55-1.7,1.26-3.34,1.99-4.96,.71-1.63,1.57-3.19,2.24-4.84,1.18-2.38,2.33-4.79,3.46-7.21,1.2-2.39,2.4-4.77,3.6-7.17,2.32-4.83,4.96-9.48,7.52-14.16,2.19-3.81,4.65-7.52,6.71-11.33,2.26-3.95,4.66-7.83,7.08-11.69,2.51-3.8,5.02-7.61,7.53-11.41,1.08-1.59,2.24-3.5,3.44-4.78,.17-.18,.66-.91,.86-1.25,1.41-2.53,3.11-4.77,4.93-7.03,.44-.55,1.2-1.62,1.4-2.01,.55-1.09,1.43-2.19,2.18-3.23,.9-1.27,2.28-2.83,2.75-3.63,1.03-1.72,1.86-2.48,2.79-3.68,.57-.74,1.15-1.6,1.7-2.4,.26-.38,.54-.89,.71-1.09,2.02-2.31,3.59-4.89,5.49-7.25,.4-.51,.83-1.05,1.23-1.55q4.6-5.49,10.04-12.7c1.79-1.74,3.21-4.31,5.07-6.27,.68-.71,1.83-2.21,2.54-3.2,3.14-4.37,6.75-8.56,10.09-12.82,.7-.89,1.4-1.42,2.17-2.66,.29-.46,1.6-1.79,2.37-2.75,.18-.22,.35-.44,.54-.66l1.03,1.03c-1.17,.97-2.41,1.94-3.44,3.04-.5,.53-1.76,1.51-2.66,2.29-1.24,1.04-2.49,2.09-3.58,3.34-.59,.67-2.12,2.08-2.93,2.71-.84,.65-1.63,1.31-2.39,1.99-.73,.71-1.44,1.42-2.13,2.14-1.36,1.45-2.69,2.88-4.02,4.31-.82,.84-1.34,1.49-2.23,2.35-1.23,1.21-2.89,2.84-3.72,3.88-1.51,1.83-3.03,3.52-4.54,5.26-1.31,1.51-2.61,3.01-3.92,4.52-1.26,1.55-2.53,3.09-3.79,4.63l-2.16,2.64-2.09,2.69c-1.39,1.8-2.77,3.62-4.11,5.5-1.39,2.05-3.25,4.74-5.07,6.73-.2,.22-.73,1.18-1.13,1.79l-4.92,7.05-4.82,7.12c-.74,1.09-1.79,2.14-2.25,3.29-.5,1.22-1.66,2.13-2,3.2-.05,.15-.71,1.16-1.07,1.67-3.9,5.5-7.34,11.5-10.95,17.27-.87,1.38-1.74,3.03-2.61,4.02-1.9,3.69-4.75,7.36-6.43,11.07-1.58,2.52-3,5.38-4.7,7.7-.28,.38-.73,1.29-1.04,1.73-1.03,1.48-1.25,2.68-2.53,4.47-.73,1.03-1.81,3.14-2.73,4.77l-2.54,4.55c-.96,1.65-1.76,3.39-2.63,5.09-.86,1.71-1.72,3.42-2.57,5.12-.42,.87-.83,1.73-1.24,2.59l-1.12,2.64c-.75,1.76-1.51,3.53-2.35,5.31-.18,.38-.45,1.06-.47,1.22-.2,1.36-1.21,3.06-1.78,4.26-.5,1-.9,1.86-1.35,2.99l-1.84,4.59-.92,2.29-.85,2.32c-.67,1.83-1.26,3.83-2.11,5.5-.26,.52-.78,2-1.02,2.85-1.09,3.98-2.47,8.04-3.72,12.05-.56,1.82-1.04,3.68-1.57,5.51-.4,1.4-.63,2.83-1.17,4.19-.86,3.43-1.6,6.92-2.49,10.4-.43,1.74-.89,3.48-1.3,5.22-.38,1.75-.77,3.51-1.15,5.25-.74,3.48-1.51,6.96-2.14,10.46-.65,3.5-1.4,6.99-1.97,10.5-.3,1.76-.51,3.74-1.02,5.26-.1,.29-.31,1.56-.32,1.94-.04,1.05-.11,1.83-.47,2.95-.07,.21-.17,1.18-.21,1.7-.12,1.46-.32,2.74-.64,4.23-.24,1.15-.52,2.72-.64,3.88-.34,3.08-.56,6-1.25,9.04-.08,.37-.06,1.44-.16,2.12-.4,2.64-.6,5.36-1.12,7.98-.21,1.07-.35,2.67-.53,4.01-.32,2.31-.46,4.52-.8,6.95-.36,2.46-.6,5.16-.89,7.75l-.85,7.79-.83,7.79-.8,7.79-.79,7.79-.77,7.8c-.18,1.82-.38,3.5-.65,5.32-.7,4.65-1.21,10.33-1.64,17.3-.03,.5-.09,1.04-.14,1.56-.62,6.76-1.18,13.56-1.85,20.28-.29,2.95-.66,5.91-.91,8.94-.16,1.98-.36,3.9-.38,5.89-.01,1.65-.44,3.94-.37,5.88,.03,.71-.14,2.57-.29,3.49-.5,3.08-.65,6.33-.94,9.49-.31,3.64-.62,7.29-.93,10.93-.14,1.79-.37,3.57-.34,5.41,.02,.9-.23,3.06-.42,4.36-.3,2.02-.45,4.05-.55,5.96-.23,4.11-.21,4.07-.7,8.1-.06,.48-.1,1-.15,1.51-.43,5.03-.97,10.17-1.27,15.07-.25,4.08-.6,8.07-.95,12.11-.14,1.6-.19,3.48-.56,4.81-.05,.19-.13,1.1-.14,1.5-.03,3.39-.51,7.03-.82,10.53-.31,3.39-.38,6.53-.76,10-.35,3.25-.64,6.58-.95,9.88-.48,5-.74,6.06-1.41,5.98-.56-.07-.56-1.34-.29-5.37,.58-8.53,1.55-17.08,2.11-24.01Z"/>
          </g>
        </g>
        <g class="cls-14">
          <path class="cls-11" d="M43.07,595.34c7.01,5.52,8.23,9.5,13.78,10.58,5.84,1.14,12.57-1.83,16.22-6.21,2.97-3.56,4.44-8.18,4.78-12.8,.09-1.16,.12-2.4,.77-3.38,1.53-2.32,5-1.61,7.74-1.22,5.59,.79,11.51-1.09,15.61-4.98,3.26,3.6,7.96,5.99,12.81,6,4.86,0,9.76-2.56,12.08-6.82,3.17-5.8,1.21-12.94,1.74-19.52,.07-.88,.22-1.82,.86-2.43,.89-.84,2.3-.66,3.48-.35,7.9,2.06,14.75,7.84,18.11,15.29,1.56,3.45,2.38,7.18,3.1,10.9,2.25,11.67,2.63,18.99,3.01,21.19,3.23,18.57,79.39,6.56,113.01,35.85,27.76,24.19,32.2,81.5,9.92,114.05-26.78,39.13-86.48,34.17-200.78,24.66-106.28-8.84-122.89-30.25-128.23-38.65-5.33-8.39,6.85-42.46-9.24-104.24-1.47-5.65,2.83-57.4,7.14-61.34,13.31-12.16,43.02,.85,75.93,14.12,8.64,3.48,12.96,5.23,18.15,9.31Z"/>
          <path class="cls-11" d="M64.99,604.68c3.56-1.29,6.42-3.45,8.34-6.05,1.94-2.62,3.05-5.6,3.63-8.64,.18-.95,.2-2.03,.29-3.24,.05-.61,.08-1.25,.22-1.92,.13-.66,.4-1.38,.88-1.95,.46-.58,1.11-1.01,1.78-1.25,.67-.24,1.36-.33,2.02-.36,1.33-.04,2.58,.16,3.79,.34,1.19,.18,2.33,.31,3.49,.3,2.52,0,5.05-.56,7.33-1.6,1.14-.52,2.23-1.15,3.21-1.9,.26-.19,.47-.37,.74-.59,.33-.26,.62-.55,.93-.83l.23-.21,.12-.1,.11,.11,.43,.44c.27,.28,.62,.62,.85,.82,3.39,3.05,7.83,4.97,12.32,4.65,1.49-.13,2.93-.46,4.5-.97,.58-.17,1.36-.54,2.12-1.02,.76-.5,1.48-1.14,1.99-1.77,.19-.25,.69-.71,1-1.09,.34-.4,.77-.88,.94-1.23,2.03-3.95,2.01-8.75,1.74-13.36-.06-1.16-.03-2.43-.22-3.43-.06-.25-.04-1.41,.02-1.75,.21-.9,.12-1.81,.63-3.07,.28-.67,.92-1.28,1.65-1.5,.72-.23,1.42-.2,2.06-.11,.65,.09,1.24,.28,1.82,.45,.59,.16,1.16,.37,1.74,.58,2.3,.84,4.46,2.01,6.46,3.43,2.1,1.17,4.08,3.1,5.69,5.09,1.23,1.49,2.23,3.15,3.08,4.87,.86,1.74,1.76,3.63,2.07,5.46,.05,.29,.32,.98,.46,1.49,.64,2.32,1.19,4.75,1.51,6.97l.52,3.41c.62,3.66,1.12,7.34,1.53,11.02,.22,1.83,.35,3.72,.64,5.47,.33,1.7,1.42,3.18,2.82,4.26,1.4,1.11,3.04,1.92,4.73,2.59,1.7,.67,3.46,1.2,5.23,1.66,3.56,.91,7.2,1.55,10.85,2.11,1.27,.2,2.48,.4,3.85,.44,1.07,.04,3.38,.34,4.38,.58,1.62,.39,3.17,.51,4.75,.72,2.9,.36,5.82,.73,8.72,1.09,1.72,.23,3.66,.35,5.13,.81,.14,.04,.69,.12,.88,.12,1.95,.02,3.77,.48,5.68,.81,1.38,.23,2.77,.45,4.31,.58,1.49,.12,3.95,.53,5.28,.92,1.78,.5,3.46,.78,5.15,1.14,9.95,2.15,19.84,5.01,28.95,9.68,4.29,2.2,8.45,4.65,12.12,7.93,.84,.81,1.84,1.61,2.48,2.45,.12,.18,.78,.85,1.06,1.09,.51,.43,.99,.9,1.46,1.4,.44,.53,.89,1.08,1.36,1.67,.55,.65,1.08,1.32,1.57,2.03l1.5,2.09c.92,1.45,1.9,2.86,2.71,4.36,1.75,2.94,3.21,6.02,4.6,9.06,2.12,4.77,3.61,9.68,4.83,14.68,.37,1.68,.66,3.39,.92,5.12,.14,.83,.28,1.67,.42,2.51,.12,.84,.24,1.69,.37,2.53,.16,1,.21,2.02,.45,2.99,.12,.52,.31,1.98,.28,2.57-.07,2,.15,4.11,.18,6.17,.13,5.88-.17,11.78-.98,17.61-.23,1.43-.37,3.04-.81,4.28-.06,.17-.16,.99-.24,1.52-.09,.56-.16,1.25-.28,1.66-1.11,3.65-1.97,7.56-3.29,11.23-1.59,4.44-3.52,8.77-5.86,12.87-2.34,4.1-5.12,7.96-8.29,11.46-.92,.94-1.77,1.85-2.6,2.76-.84,.9-1.77,1.7-2.73,2.55-.91,.85-1.94,1.55-2.93,2.31-.5,.37-.99,.76-1.49,1.12l-1.57,1.01c-.75,.47-1.48,1-2.25,1.45-.78,.43-1.56,.83-2.33,1.13-.42,.16-1.52,.8-1.97,1.05-1.67,1.04-3.65,1.89-5.57,2.65-2.3,1.03-4.82,1.67-7.09,2.67-.62,.24-1.9,.48-2.88,.75-1.69,.5-3.44,.84-5.15,1.27-.82,.21-1.61,.47-2.44,.62-6.39,1.38-12.87,2.27-19.37,2.83-6.62,.56-13.28,.87-19.92,.93-6.64,.08-13.29,.05-19.92-.19-2.49-.07-5.2,0-7.48-.39-2.3,.09-4.31-.09-6.3-.41-.29-.04-1.01,0-1.55,0-1.68,0-3.29,.23-5.13-.21-.07-.02-.3-.02-.45-.03-1.54-.14-2.63,.14-4.57-.18-1.21-.19-3.19-.26-4.83-.38-1.69-.12-3.4-.25-5.08-.33-1.74-.08-3.61-.38-5.26-.24-.27,.02-1.53-.24-2.29-.28-3.88-.2-7.83-.75-11.66-.73-.88,0-2.25-.11-3.18-.25-3.32-.48-6.46-.6-9.89-.81-4.52-.26-9.35-.61-13.74-1.29-.93-.14-1.35-.23-2.31-.2-.63,.02-1.72-.09-2.6-.16-9.84-.78-19.67-1.74-29.5-2.73-2.67-.32-5.13-.86-7.88-1.11-1.13-.1-2.44-.38-3.41-.3-.13,.01-.61-.03-.82-.07-3.26-.59-6.55-.8-9.79-1.38-.69-.14-1.35-.27-2.04-.4-.7-.13-1.52-.31-2.12-.37-5.06-.39-10.13-1.69-15.17-2.51-.86-.16-1.75-.33-2.63-.5-.87-.19-1.72-.35-2.51-.4-.24-.02-.99-.19-1.31-.29-2.85-.96-6.12-1.38-9.1-2.24-1.53-.45-3.29-.76-4.61-1.36-.17-.08-.79-.22-1.18-.3-.67-.15-1.34-.25-1.98-.42-1.78-.47-3.64-1.28-5.21-1.68-1.93-.54-3.75-1.08-5.55-1.76-1.03-.39-2.02-.88-3.07-1.31-.98-.4-2.02-.77-3.03-1.16-1.43-.59-2.9-1.25-4.22-1.89-1.36-.68-2.59-.92-3.98-1.91-1.07-.73-2.49-1.21-3.77-1.89-.61-.38-1.25-.82-1.84-1.23-.45-.31-.86-.67-1.29-.94-1.01-.58-1.84-1.35-2.91-2.01-.36-.23-.83-.61-1.33-1.02-.46-.45-.96-.94-1.41-1.37-.45-.42-.91-.85-1.37-1.27l-1.27-1.38c-.88-.89-1.6-2.05-2.35-2.9l-1.11-1.51c-.36-.55-.68-1.17-.87-1.79-.4-1.25-.61-2.53-.69-3.8-.19-2.54-.09-5.05-.02-7.54,.04-1.28,.02-2.76,.29-3.85,.05-.2,.09-.92,.08-1.3-.07-4.73,.41-9.62,.42-14.41,0-3.41-.11-6.76-.13-10.23-.05-3.37-.09-6.87-.4-10.1-.12-1.33-.25-2.66-.37-3.97-.11-1.32-.22-2.63-.33-3.93-.16-2.56-.88-4.97-.8-7.5-.32-2.59-.68-5.18-1.06-7.76-.3-2.18-.8-4.37-.93-6.52-.07-.78-.35-2.27-.58-3.09-.71-2.66-1.22-5.26-1.68-8-.12-.65-.41-1.43-.58-2.17-.54-2.24-1.08-4.5-1.62-6.72-.18-.85-.43-1.6-.56-2.62-.1-.91-.14-1.78-.16-2.64-.04-1.73-.04-3.44,0-5.15,.06-3.42,.19-6.82,.43-10.24,.09-1.26,.02-2.66,.16-3.77,.82-6.75,1.24-13.7,2.3-20.37,.8-4.91,1.54-9.82,2.82-14.71,.36-1.23,.67-2.43,1.4-3.7,.09-.16,.25-.34,.38-.5l.21-.24,.19-.16,.75-.63c.49-.44,1.06-.76,1.6-1.13,2.21-1.4,4.72-2.26,7.24-2.69,.66-.09,1.34-.17,1.93-.19,.59-.01,1.09-.02,1.4-.07,1.93-.27,4.15-.11,5.76-.07,2.92,0,5.74,.63,8.51,1.15,2.03,.38,4.14,1.07,6.04,1.33,.28,.03,.96,.23,1.31,.37,2.85,1.05,5.8,1.64,8.6,2.71,5.48,1.56,10.86,3.84,16.22,5.88,.79,.3,1.57,.55,2.36,.82,.4,.14,.88,.29,1.2,.44,4.71,2.21,9.77,4.02,14.62,6.06,1.6,.68,3.15,1.39,4.75,2.09,1.61,.71,3.32,1.38,4.75,2.28,.44,.28,1.38,.72,2.06,1.07,3.72,1.88,5.85,4.23,5.5,4.73-.13,.2-.79-.31-1.54-.75-1.45-.85-2.88-1.66-4.65-2.65-1.37-.77-2.91-1.57-4.27-1.94-.23-.06-.88-.36-1.23-.54-2.41-1.25-5.32-2.24-7.65-3.33-1.79-.84-3.5-1.5-5.23-2.24-1.46-.63-3.02-1.14-4.42-1.92-.47-.26-1.99-.69-3.02-1.09-2.43-.96-4.88-1.93-7.31-2.88-7.37-2.94-14.81-5.34-22.4-7.52-5.49-1.21-11.2-2.68-16.8-2.69-3.36-.01-6.72,.39-9.81,1.51-1.54,.58-2.97,1.38-4.28,2.35l-.94,.78c-.19,.13-.22,.25-.33,.37-.1,.09-.18,.29-.27,.45-.35,.66-.6,1.47-.84,2.25-.36,1.33-.65,2.39-.97,3.57-.21,.77-.44,1.59-.59,2.42-.61,3.16-1.06,6.37-1.52,9.56-.24,1.71-.34,3.65-.78,5.14-.06,.21-.15,.98-.15,1.33-.06,2.85-.53,5.89-.76,8.85-.09,1.13-.19,2.21-.39,3.43-.21,1.32-.36,3.4-.36,4.8,0,1.05-.06,1.98-.1,2.99-.16,4.16-.65,8.49-.26,12.52-.1,1.05-.16,2.28,.12,3.34,.29,1.17,.62,2.34,.92,3.38,2.26,8.07,3.77,16.35,5.06,24.62,.31,2,.49,4.03,.72,6.07,.25,2.14,.5,4.3,.75,6.44,.13,1.15,.15,2.49,.44,3.37,.02,.06,.05,.27,.06,.39,.09,1.23,.09,2.48,.19,3.68,.1,1.08,.31,2.07,.4,3.16,.12,1.31,.21,2.68,.26,4.04,.05,1.3,.17,2.7,0,3.76,.25,1.01,.19,2.52,.21,3.82,.03,1.23,.04,2.47,.02,3.71,0,1.39,0,2.78-.04,4.18-.03,1.39-.06,2.79-.09,4.17-.03,1.89-.01,3.76-.07,5.65-.06,2-.16,4.02-.29,6.01-.15,2.5-.34,4.97-.43,7.45-.04,1.03,.02,1.9,.12,2.89,.15,1.31,.45,2.93,.48,4.54,0,.33,.3,1.41,.63,1.87,.24,.45,.72,1.02,1.08,1.54,.37,.54,.8,1.03,1.2,1.55l.61,.77c.21,.25,.44,.48,.66,.73l1.33,1.46c.98,.89,1.91,1.84,2.94,2.67,1.06,.8,2.09,1.64,3.19,2.38,1.17,.89,2.37,1.69,3.61,2.46,1.28,.7,2.62,1.34,3.97,2.03,.5,.25,.99,.52,1.51,.76,.52,.23,1.05,.45,1.57,.68,1.05,.46,2.11,.93,3.16,1.4,1.04,.5,2.12,.9,3.18,1.32,1.06,.43,2.1,.85,3.12,1.27,2.14,.95,4.37,1.62,6.57,2.33,2.21,.7,4.39,1.44,6.63,2.02,1.25,.35,2.64,.63,3.65,1.12,.23,.11,1.19,.35,1.72,.46,1.84,.4,3.65,.79,5.48,1.18,1.82,.41,3.64,.87,5.5,1.36,.98,.26,2.03,.5,3.12,.7,1.09,.17,2.21,.34,3.32,.51,3.33,.48,6.91,1.27,10.4,1.87,1.47,.49,2.69,.4,3.48,.41,1.06,0,2.03,.13,3.26,.31,1.59,.24,3.14,.52,4.73,.59,.81,.03,2.59,.34,3.45,.53,1.14,.26,1.59,.26,2.66,.31,1.26,.06,2.53,.46,4.11,.64,1.68,.19,3.67,.3,5.12,.75,.13,.04,.65,.1,.88,.11,3.15,.13,6.22,.81,9.35,.99,4.65,.59,9.34,1.07,14.04,1.48,4.71,.38,9.42,.73,14.11,1.17,3.86,.37,7.76,.89,11.58,1.07,8.03,.39,16.06,1.19,24.09,1.73,1.7,.11,3.67,.13,5.18,.5,.21,.05,.99,.1,1.33,.09,2.56-.06,5.03,.16,7.58,.5,.62,.08,1.78,.15,2.16,.11,1.08-.11,2.31,.03,3.45,.1,1.38,.08,3.19,.35,4.02,.31,1.77-.09,2.74,.17,4.07,.27,.82,.06,1.74,.06,2.6,.07,.41,0,.92-.05,1.15-.02,2.69,.37,5.36,.12,8.03,.33,.57,.04,1.18,.07,1.74,.11,6.31,.47,6.31,.5,14.29,.45,2.18,.33,4.75-.16,7.12,.09,.87,.08,2.53,.02,3.61-.06,2.37-.17,4.77-.27,7.18-.36,2.41-.06,4.82-.2,7.2-.39,.99-.08,1.77,.1,3.02-.2,.47-.11,2.12-.06,3.2-.17,1.58-.13,3.23-.25,4.77-.63,.62-.17,2.04-.23,3.07-.43,1.42-.24,2.85-.38,4.26-.77,.76-.21,2.56-.58,3.46-.66,1.87-.15,3.61-.57,5.3-1.02,1.7-.42,3.31-1.03,4.95-1.55,.99-.31,1.67-.54,2.71-.86,1.45-.43,3.44-.95,4.47-1.52,.93-.48,1.86-.88,2.8-1.26,.92-.41,1.82-.85,2.73-1.28,1.59-.71,3.08-1.62,4.62-2.45,.78-.4,1.48-.92,2.22-1.38,.72-.48,1.47-.94,2.17-1.44,3.19-2.34,6.26-4.85,8.88-7.9,1.37-1.67,3.15-3.85,4.71-5.61,.17-.19,.62-1.04,.97-1.56,2.79-4.13,5.1-8.59,7.02-13.22,.42-1.07,1.15-2.16,1.31-3.23,.13-1.15,.97-2.16,.99-3.15,.02-.14,.31-1.15,.49-1.66,1.96-5.57,2.88-11.6,3.59-17.51,.17-1.42,.16-3.06,.51-4.17-.07-3.63,.6-7.68,0-11.22-.02-2.61-.46-5.38-.45-7.9,0-.41-.15-1.29-.19-1.76-.1-1.59-.61-2.52-.74-4.44-.06-1.11-.5-3.15-.87-4.75-.3-1.5-.7-2.97-1.08-4.45-.4-1.63-.95-3.22-1.43-4.83-.58-1.57-1.05-3.2-1.72-4.72-1.24-3.15-2.86-6.03-4.41-9.1-.18-.32-.53-.86-.64-.95-.45-.41-.85-1.01-1.19-1.63-.36-.62-.69-1.25-.96-1.77-.45-.86-.86-1.59-1.51-2.43l-1.28-1.73c-.44-.57-.92-1.11-1.37-1.66-.89-1.13-1.9-2.15-2.87-3.2-.56-.64-1.26-1.18-1.88-1.78-.63-.6-1.24-1.2-1.79-1.79-.33-.39-1.42-1.22-2.06-1.64-3.01-1.96-6.14-4.01-9.43-5.65-1.5-.73-3.01-1.46-4.55-2.12-1.16-.51-2.4-.83-3.53-1.44-5.89-1.92-11.97-3.82-18.13-5.17-6.13-1.33-12.33-2.41-18.57-3.32-1.56-.23-3.32-.35-4.68-.79-.26-.08-1.39-.23-1.73-.22-.93,.02-1.63,0-2.63-.31-.19-.06-1.05-.13-1.51-.15-1.29-.06-2.44-.21-3.76-.47-1.03-.2-2.42-.41-3.45-.49-2.74-.2-5.34-.4-8.04-1.03-.33-.08-1.28-.03-1.89-.13-2.35-.36-4.77-.59-7.08-1.19-.94-.25-2.36-.45-3.55-.71-2.03-.46-4.01-.77-6.12-1.48-2.13-.73-4.5-1.49-6.63-2.74-1.06-.63-2.1-1.36-3-2.3-.9-.93-1.66-2.1-2.05-3.41l-.23-.99c-.05-.31-.09-.62-.13-.91l-.19-1.75-.37-3.44c-.26-2.29-.56-4.57-.9-6.84-.34-2.27-.72-4.54-1.14-6.8-.42-2.26-.86-4.51-1.43-6.7-.41-1.53-.81-2.92-1.31-4.42-1.26-3.78-4.08-8.13-9.04-11.5-.36-.23-.72-.53-1.1-.76-2.42-1.59-5.13-2.77-7.9-3.48-.65-.16-1.3-.23-1.76-.12-.46,.12-.68,.31-.87,.79-.19,.48-.23,1.18-.28,1.92-.05,.72-.06,1.45-.07,2.18-.02,2.57,.09,5.21,.08,7.96,0,1.8-.18,3.56-.45,5.4-.21,1.56-1.24,3.54-2.17,5.16-.3,.62-1.54,1.97-2.3,2.47-2.44,1.72-5.29,3.06-8.31,3.34-3.47,.35-6.95-.53-9.95-2.14-1.47-.81-2.79-1.84-4.16-2.88-.04-.03-.08-.07-.13-.1l-.04-.02s-.05-.03-.07-.05l-.07-.07s-.02-.03-.04-.04l-.04,.03c-.06,.04-.11,.08-.21,.13-.31,.22-.59,.44-.86,.59-1.62,1.01-3.28,1.92-4.95,2.57-1.79,.68-2.73,.9-3.67,1.06-.94,.14-1.88,.27-3.78,.17-.45-.05-.94-.05-1.41-.11-1.2-.12-2.26-.34-3.33-.44-1.05-.11-2.1-.12-2.93,.16-.82,.27-1.36,.84-1.6,1.67-.24,.84-.21,1.95-.31,3.09-.3,3.74-1.39,7.41-3.44,10.62-.79,1.27-1.87,2.74-3,3.41-.15,.11-.8,.66-1.07,.92-2.31,2.2-5.59,3.61-8.85,4.19-1.58,.29-3.15,.42-4.74,.29-1.58-.12-3.22-.54-4.74-1.42-1.43-.82-2.59-1.91-3.67-2.96-1.04-1.03-2.08-2.07-3.11-3.1-1.57-1.51-2.55-2.38-3.07-2.97-.52-.58-.57-.89-.36-1.16,.34-.41,1.36,.11,4.07,2.47,1.43,1.26,2.75,2.64,4.1,3.91,1.34,1.27,2.77,2.37,4.42,2.93,3.3,1.16,6.84,.69,9.63-.35Z"/>
        </g>
        <g class="cls-16">
          <g class="cls-16">
            <path class="cls-5" d="M59.73,635.51c-2.05,.17-4.18,.04-6.21-.15-2.04-.19-3.97-.44-5.79-.42-.4,0-.81-.02-1.23-.03l.59,.2c4.49,1.47,9.7,1.7,14.35,1.13,2.89-.46,5.7-1.39,8.83-1.76,.35-.04,.35-.36,.35-.52-.34-.15-.64-.33-.91-.51-2.5,.55-5,1.16-7.64,1.42-.87,.05-1.8,.64-2.33,.65Z"/>
            <polygon class="cls-7" points="69.82 633.47 69.77 633.43 69.39 633.51 69.82 633.47"/>
            <path class="cls-4" d="M63.65,634.75c-.85,.18-1.69,.28-2.53,.32-.54,.19-1.04,.42-1.38,.44-2.05,.17-4.18,.04-6.21-.15-2.04-.19-3.97-.44-5.79-.42-.39,0-.8-.02-1.22-.03l.64,.21c1.55,.5,3.19,.86,4.87,1.09,.09,0,.19-.02,.28-.03,.96-.13,1.81,.17,2.71,.22,2.57-.11,4.7,0,7.22-.37,.89-.14,1.8-.6,2.85-.69,.36-.05,.7-.08,1.04-.1,1.36-.31,2.75-.6,4.2-.78,.35-.04,.35-.36,.35-.52-.18-.08-.34-.17-.5-.26-1.18,.12-2.36,.3-3.57,.44-1.03,.22-2.08,.41-3.14,.57,.05,.02,.1,.04,.18,.06Z"/>
            <path class="cls-7" d="M63.49,634.29c-.15,.01-.31,.26-.02,.4,1.06-.15,2.11-.35,3.14-.57-1.01,.11-2.05,.19-3.12,.17Z"/>
            <path class="cls-8" d="M63.54,633.17c-2.06,.08-3.99,.63-5.69,.39-.89-.11-1.75-.33-2.49-.66-.28,0-.55,0-.83,0-3.4,0-6.8-.39-9.96-1.47-3.16-1.07-6.12-2.76-8.42-5.04-2.32-2.22-4.5-4.33-5.96-7.46-.72-1.91-.64-3.62-.56-5.58,.13-2.38,.15-4.6,.12-6.91-.02-2.3-.02-4.68,.21-7.19l-.53-.08v.54c-.02,1.42,1.21,1.73,1.25,1.38,.03-.61,.05-1.2,.08-1.79l-2.12-.3c-.58,4.06-1.31,8.05-1.37,12.17-.03,2.05,.11,4.14,.59,6.19,.47,2.05,1.27,4.06,2.45,5.87,1.94,3.01,4.49,5.39,7.27,7.27,2.78,1.9,5.79,3.34,8.95,4.42,.42,0,.84,.02,1.23,.03,1.81-.02,3.75,.23,5.79,.42,2.03,.19,4.16,.33,6.21,.15,.53-.01,1.46-.6,2.33-.65,2.64-.26,5.14-.87,7.64-1.42-.58-.38-1.06-.79-1.62-1.05-1.52,.4-3.04,.77-4.55,.78Z"/>
            <path class="cls-6" d="M63.54,633.17c1.51-.01,3.03-.38,4.55-.78-.28-.13-.58-.22-.92-.27-3.83-.18-7.95,.76-11.81,.78,.74,.32,1.61,.55,2.49,.66,1.7,.24,3.63-.31,5.69-.39Z"/>
            <path class="cls-4" d="M63.54,633.17c1.44-.01,2.9-.35,4.34-.73-.51,0-1.01,.02-1.52,.08-2.58,.26-5.17,.61-7.7,.4,2.71-.1,5.44-.37,8.18-.82-3.74-.1-7.72,.79-11.47,.8,.74,.32,1.6,.55,2.49,.66,1.7,.24,3.63-.31,5.69-.39Z"/>
            <path class="cls-3" d="M59.38,633.7c3.1,0,6.24-.28,9.36-.98-.15-.1-.3-.19-.46-.27-.14,0-.27,0-.4,0-1.45,.38-2.9,.71-4.34,.73-2.06,.08-3.99,.63-5.69,.39-.88-.11-1.75-.33-2.49-.66-.26,0-.52,0-.78,0-3.48,.01-6.95-.39-10.17-1.52-2.93-.6-5.89-2.26-8.04-4.47,1.09,.94,2.31,1.76,3.61,2.42-1.39-.83-2.68-1.79-3.8-2.9-.99-.95-1.94-1.86-2.84-2.83-.38-.05-.85-.25-1.33-.85-.72-.95-1.23-2-1.92-3.05-.05-.16,.16-.21,.07-.53,.29,.89,.74,1.54,1.27,2.01-.46-.67-.87-1.4-1.24-2.18-.59-1.49-.65-2.88-.62-4.35l-.08-.47c-.1-.78-.28-1.57-.44-2.39,0,.33,0,.66,0,1.01-.15-.53-.17-1.21-.13-1.72,.05,.24,.08,.48,.13,.71,.02-.79,.05-1.55,.13-2.39-.09,1.02,.02,2.07,.18,2.93-.07-1.85-.07-3.59,.34-5.41l.03,.14c-.02-2.5-.05-5.07,.2-7.81l-.52-.07c0,.16,0,.32,0,.48-.02,1.42,1.21,1.73,1.26,1.38,.03-.59,.05-1.17,.08-1.73l-2.12-.3c-.77,5.5-1.89,10.94-1.11,16.59,.08-.72,.16-1.43,.28-2.15,.01-.31,.06-.6,.15-.88-.06,.29-.11,.58-.15,.88-.06,.83,.07,1.74,.08,2.65-.05,.18,.03,.72,.3,.88,.08,1.25,.66,2.62,.98,3.83,.03,.07,0,.21-.01,.38,.36,.71,.72,1.43,1.18,2.09,2.44,3.77,5.81,6.51,9.42,8.59-.82-.59-1.57-1.23-2.18-1.9-.8-.92-3-2.19-4.52-3.75-.43-.35-.42-.78-.75-1.19,1.64,1.05,3.01,2.98,4.82,4.14,1.17,.77,2.55,1.75,4.08,2.55,1.52,.81,3.2,1.43,4.73,1.6,1.26,.15,2.35,.63,3.32,1.07-.39,.08-1.09-.07-1.43-.14-3.1-.75-6.08-1.91-8.88-3.46,2.73,1.96,5.87,2.93,9.06,3.98-1.97-.36-3.69-1.26-5.53-1.62,.12,.11,.25,.22,.39,.32,1.19,.55,2.42,1.03,3.67,1.46,.42,0,.83,.02,1.22,.03,1.81-.02,3.75,.23,5.79,.42,2.03,.19,4.16,.33,6.21,.15,.34-.01,.84-.24,1.38-.44-1.32,.08-2.63,.04-3.95,.06,.53,.08,1.04,.16,1.52,.32-1.25,.1-2.27-.24-3.52-.22,.67-.06,1.34-.08,2-.09-.86-.09-1.64-.17-2.47-.25,1.62-.22,3.11,.42,4.74-.07-.34,.03-.69,.02-1.03,0h1.05s-.02,0-.02,0c1.05-.07,2.09-.29,3.02-.53-1.81,.18-3.45-.05-5.21,0l-.88,.05c.3-.03,.59-.04,.88-.05,4.03-.21,8.11-.33,12.15-.77l.38-.08-.38-.26c-3.33,.4-6.75,.65-10.01,.53Z"/>
          </g>
        </g>
        <g class="cls-16">
          <g class="cls-16">
            <path class="cls-5" d="M122.71,614.14c-3.68,1.18-7.76,1.18-10.96,2.18-.36,.11-.74,.19-1.11,.3l.58,.04c2.18,.08,4.47-.07,6.71-.45,2.24-.39,4.44-.97,6.5-1.68,2.52-1,4.91-2.39,7.71-3.29,.31-.1,.25-.41,.21-.57-.34-.09-.65-.21-.94-.35-2.19,.96-4.35,2-6.72,2.74-.78,.22-1.51,.96-1.99,1.09Z"/>
            <polygon class="cls-7" points="131.51 610.32 131.46 610.3 131.13 610.44 131.51 610.32"/>
            <path class="cls-4" d="M126.11,612.66c-.74,.32-1.49,.58-2.25,.79-.45,.28-.86,.61-1.16,.69-3.68,1.18-7.76,1.18-10.96,2.18-.36,.11-.73,.19-1.1,.29l.62,.04c.76,.04,1.52,.01,2.3,0,.77-.03,1.55-.1,2.33-.17l.24-.09c.82-.37,1.67-.24,2.49-.4,2.29-.65,4.25-.99,6.46-1.82,.79-.3,1.52-.91,2.46-1.19,.32-.11,.63-.2,.94-.28,1.18-.55,2.39-1.07,3.7-1.49,.31-.1,.25-.41,.21-.57-.18-.05-.35-.11-.51-.17-1.06,.31-2.11,.69-3.19,1.04-.9,.4-1.82,.77-2.76,1.12,.05,.01,.1,.02,.17,.03Z"/>
            <path class="cls-7" d="M125.88,612.24c-.14,.04-.23,.31,.07,.4,.94-.35,1.86-.72,2.76-1.12-.91,.29-1.84,.55-2.83,.72Z"/>
            <path class="cls-8" d="M125.69,611.14c-1.88,.44-3.52,1.38-5.13,1.48-.83,.09-1.67,.04-2.43-.11-.25,.06-.51,.12-.75,.18-3.1,.77-6.27,1.22-9.4,1.13-.79,.01-1.55-.11-2.33-.17-.77-.1-1.53-.25-2.28-.4-1.5-.38-2.93-.88-4.32-1.54-1.43-.64-3.03-1.29-4.86-1.46-.91-.12-1.86,.05-2.75,.17-.44,.14-.87,.27-1.31,.41-.44,.13-.82,.38-1.24,.57-1.92,.9-3.45,1.63-5.13,2.76-2.1,1.4-3.54,3.12-5.01,4.75-.73,.82-1.49,1.61-2.34,2.34-.42,.37-.9,.65-1.38,.99-.51,.23-1.03,.55-1.61,.7-1.23,.33-1.37,1.59-1.02,1.56,2.34-.32,4.35-1.42,6.05-2.65,1.71-1.24,3.19-2.65,4.66-4,1.47-1.35,2.92-2.67,4.51-3.71,1.58-1.04,3.3-1.75,5.15-1.74,1.43-.03,2.86,.5,4.28,1.08,1.41,.61,2.92,1.19,4.41,1.64,3.01,.9,6.09,1.35,9.19,1.53,.37-.11,.75-.18,1.11-.3,3.2-1,7.29-1.01,10.96-2.18,.48-.13,1.2-.86,1.99-1.09,2.36-.74,4.52-1.78,6.72-2.74-.61-.27-1.13-.59-1.7-.75-1.31,.65-2.64,1.28-4.02,1.57Z"/>
            <path class="cls-6" d="M125.69,611.14c1.38-.3,2.71-.92,4.02-1.57-.28-.08-.58-.12-.9-.11-3.57,.5-7.15,2.18-10.67,3.05,.75,.15,1.6,.2,2.43,.11,1.6-.1,3.25-1.03,5.13-1.48Z"/>
            <path class="cls-4" d="M125.69,611.14c1.32-.28,2.59-.86,3.84-1.48-.47,.09-.93,.2-1.38,.34-2.32,.71-4.62,1.52-6.99,1.84,2.46-.65,4.91-1.42,7.34-2.33-3.46,.56-6.94,2.17-10.36,3.01,.75,.15,1.59,.2,2.42,.11,1.6-.1,3.25-1.03,5.13-1.48Z"/>
            <path class="cls-3" d="M121.99,612.45c2.84-.61,5.65-1.45,8.38-2.67-.16-.07-.32-.13-.48-.18-.13,.02-.25,.04-.37,.06-1.25,.62-2.52,1.2-3.84,1.48-1.88,.44-3.52,1.38-5.13,1.48-.83,.09-1.67,.04-2.42-.11-.24,.06-.47,.12-.71,.17-3.17,.79-6.4,1.25-9.6,1.14-2.79,.3-5.87-.36-8.43-1.7,.63,.25,1.28,.44,1.92,.66,.65,.19,1.33,.31,1.99,.45-1.46-.37-2.86-.86-4.22-1.51-1.21-.55-2.53-1.08-4.03-1.36-.38,.21-.89,.32-1.72,.31-.65,0-1.28,.08-1.91,.12-.61,.18-1.24,.29-1.78,.65-.16,.05-.21-.18-.54-.07,.91-.36,1.69-.6,2.39-.98-.9,.24-1.78,.51-2.57,.96-1.52,.7-2.79,1.29-4.08,2.07l-.36,.32c-.59,.53-1.11,1.16-1.58,1.81,.24-.21,.49-.42,.75-.63-.31,.44-.79,.88-1.17,1.2,.14-.19,.28-.38,.41-.57-.57,.5-1.12,.98-1.73,1.51,.73-.64,1.38-1.42,1.92-2.09-1.34,1.25-2.45,2.48-3.89,3.45l.07-.12c-.82,.9-1.61,1.84-2.55,2.64-.91,.84-2,1.52-3.27,1.96-1.22,.32-1.37,1.6-1.01,1.56,1.62-.27,3.1-.85,4.42-1.61,1.28-.79,2.48-1.67,3.55-2.62,2.18-1.87,4.11-3.87,6.26-5.49-.57,.24-1.18,.47-1.76,.78-.23,.15-.47,.28-.72,.38,.24-.12,.48-.25,.72-.38,.63-.41,1.27-.94,1.99-1.28,.17-.01,.56-.26,.59-.56,.49-.23,1.02-.46,1.53-.75,.54-.18,1.06-.45,1.59-.44,.06,0,.18,.04,.31,.1,.61-.19,1.24-.19,1.88-.24,1.79-.01,3.56,.8,5.36,1.55,.9,.39,1.86,.68,2.78,1.02,.95,.24,1.88,.58,2.84,.75-.9-.27-1.73-.71-2.47-1.1-.49-.31-1.29-.62-2.24-.88-.91-.3-1.96-.66-2.88-.96-.48-.12-.66-.45-1.12-.61,1.87-.13,3.7,1.38,5.63,1.82,1.26,.37,2.76,.83,4.35,1.14,.79,.13,1.6,.23,2.39,.28,.79,0,1.56,0,2.27-.14,.58-.12,1.15-.13,1.7-.07,.54,.03,1.07,.11,1.55,.2-.33,.18-.99,.22-1.32,.24-2.96,.12-5.94-.11-8.87-.69,2.98,1.01,6.04,.98,9.16,1.15-.92,.09-1.83,.02-2.73,0-.89-.09-1.77-.05-2.64,0,.14,.07,.28,.14,.43,.2,1.21,.14,2.44,.29,3.66,.34,.37-.11,.74-.18,1.1-.29,3.2-1,7.29-1.01,10.96-2.18,.3-.08,.71-.41,1.16-.69-1.19,.33-2.39,.55-3.58,.85,.5-.05,.98-.06,1.45,0-1.12,.34-2.12,.23-3.24,.52,.59-.21,1.2-.36,1.79-.51-.74,.07-1.52,.18-2.3,.29,1.41-.58,2.92-.26,4.29-1.07-.31,.1-.62,.16-.94,.21,.32-.07,.64-.14,.96-.22h-.02c.94-.27,1.85-.68,2.64-1.09-1.61,.52-3.17,.61-4.76,1.03l-.79,.23c.28-.08,.53-.16,.79-.23,3.63-1.05,7.34-1.89,10.96-3.01l.33-.15-.4-.19c-2.98,.96-6.06,1.8-9.07,2.34Z"/>
          </g>
        </g>
        <g class="cls-16">
          <g class="cls-16">
            <path class="cls-5" d="M155.94,585.65c.21,1.85-.53,3.77,.08,5.41,.06,.18,.12,.37,.19,.57l.09-.27c.67-2.09,.74-4.43,.44-6.5-.15-.65-.39-1.25-.59-1.94-.22-.7-.41-1.48-.76-2.36-.08-.2-.38-.08-.52-.01-.1,.25-.24,.46-.41,.64,.59,1.06,.83,2.27,.94,3.42,0,.39,.55,.79,.54,1.03Z"/>
            <polygon class="cls-7" points="154.48 581.14 154.45 581.17 154.54 581.33 154.48 581.14"/>
            <path class="cls-4" d="M155.41,583.91c.12,.38,.16,.75,.16,1.13,.16,.24,.38,.46,.38,.61,.21,1.85-.53,3.77,.08,5.41,.06,.18,.12,.36,.19,.56,.03-.1,.06-.19,.09-.29,.23-.72,.39-1.48,.48-2.24l-.04-.12c-.2-.43,.06-.82,.08-1.23-.18-1.15,0-2.11-.24-3.22-.08-.4-.47-.79-.47-1.27-.02-.17-.02-.33,0-.5-.21-.66-.4-1.4-.73-2.22-.09-.2-.38-.07-.52,0-.05,.13-.12,.25-.19,.36,.19,.56,.32,1.12,.36,1.68,.14,.48,.23,.95,.3,1.42,.03-.02,.05-.05,.07-.08Z"/>
            <path class="cls-7" d="M154.93,583.99c0,.07,.23,.14,.4,0-.07-.47-.17-.95-.3-1.42,.04,.47,.01,.94-.1,1.42Z"/>
            <path class="cls-8" d="M153.83,583.99c-.08,.93,.38,1.79,.12,2.56-.11,.4-.34,.79-.64,1.13,0,.12,.02,.25,.02,.37,.3,2.99,.01,6.1-1.59,8.38-.73,1.14-1.06,2.48-1.88,3.83-.58,.71-1.39,.91-2.2,1.28-2.08,.82-3.02,2.92-4.88,4.47-.5,.41,.04,1.55,.18,1.48,1.61-1.2,3.31-2.16,4.94-3.28,1.63-1.1,3.23-2.39,4.41-4.13,1.87-2.66,2.97-5.51,3.91-8.44-.07-.2-.13-.39-.19-.57-.61-1.64,.13-3.56-.08-5.41,0-.24-.54-.64-.54-1.03-.11-1.15-.35-2.36-.94-3.42-.34,.39-.75,.67-1.04,.93,.31,.49,.51,1.18,.41,1.86Z"/>
            <path class="cls-6" d="M153.83,583.99c.1-.69-.1-1.37-.41-1.86-.14,.13-.26,.25-.33,.38-.25,.67-.26,1.64-.15,2.53,.11,.9,.3,1.79,.36,2.65,.3-.34,.53-.73,.64-1.13,.26-.77-.2-1.63-.12-2.56Z"/>
            <path class="cls-4" d="M153.83,583.99c.1-.66-.08-1.31-.37-1.79-.03,.19-.05,.38-.04,.58,.02,1.05,.17,2.31-.09,3.43-.02-.61-.05-1.22-.09-1.84-.05-.62-.09-1.26-.2-1.74-.21,.67-.2,1.63-.09,2.48,.11,.87,.3,1.74,.35,2.57,.3-.34,.52-.73,.64-1.13,.26-.77-.2-1.63-.12-2.56Z"/>
            <path class="cls-3" d="M154.13,585.85c.05-.7,.07-1.4,.04-2.11-.03-.7-.11-1.4-.4-1.94-.1,.08-.19,.16-.28,.23,0,.05-.02,.1-.03,.15,.28,.49,.46,1.14,.37,1.79-.08,.93,.38,1.79,.12,2.56-.11,.4-.33,.79-.64,1.13,0,.12,.01,.23,.02,.35,.14,1.54,.16,3.08-.09,4.55,.18,1.35-.35,2.73-1.18,3.78,.28-.55,.5-1.13,.64-1.74-.23,.65-.58,1.25-.94,1.81-.31,.49-.54,1-.77,1.54,.17,.26,.25,.57,.11,.89-.24,.49-.6,.85-.78,1.44-.06,.05-.21-.12-.33-.02,.31-.28,.43-.64,.43-1.02-.16,.34-.34,.68-.54,1.01-.46,.55-1.05,.81-1.68,1.06l-.15,.15c-.24,.25-.46,.56-.65,.91,.12-.08,.25-.16,.38-.25-.1,.25-.36,.43-.56,.54,.06-.1,.12-.2,.18-.3-.3,.18-.59,.36-.91,.56,.39-.24,.7-.6,.93-.94-.65,.51-1.23,1.04-2.04,1.3l.03-.07c-.82,.89-1.58,1.93-2.61,2.78-.5,.41,.04,1.55,.18,1.48,2.25-1.67,4.67-2.9,6.84-4.7-.36,.07-.71,.14-1.05,.21-.13,.05-.27,.08-.43,.08,.14-.03,.28-.05,.43-.08,.36-.14,.66-.42,1.06-.58,.11,.01,.3-.14,.22-.37,.54-.22,.89-.82,1.4-1.1,.02-.02,.11-.02,.22,0,.24-.27,.44-.57,.65-.87,1.15-1.67,2.04-3.4,2.74-5.19-.28,.4-.57,.77-.92,1.06-.5,.38-.68,1.52-1.13,2.41-.08,.24-.37,.23-.51,.42-.07-1.04,.83-1.71,1.11-2.64,.42-1.15,1.44-2.77,1.14-4.22-.12-.58,.19-1.07,.49-1.52,.14,.18,.09,.49,.06,.65-.22,1.42-.56,2.81-.95,4.2,.8-1.34,.91-2.83,1.44-4.29-.05,.9-.54,1.7-.38,2.59,.07-.06,.14-.12,.21-.18,.18-.55,.37-1.12,.58-1.73-.07-.2-.13-.39-.19-.56-.61-1.64,.13-3.56-.08-5.41,0-.15-.21-.37-.38-.61,0,.59-.06,1.18-.04,1.77,.07-.24,.17-.47,.33-.69,.06,.56-.27,1.02-.22,1.58-.08-.3-.11-.6-.12-.89-.1,.36-.14,.74-.21,1.11-.28-.72,.37-1.4-.08-2.12,.01,.15,.01,.31-.01,.46v-.47s.01,0,.01,0c-.03-.47-.21-.93-.38-1.35,.06,.81-.23,1.56-.18,2.34,.02,.13,.03,.26,.05,.39-.03-.13-.04-.26-.05-.39-.1-.9-.09-1.81-.05-2.73,.03-.91,.16-1.83-.07-2.75l-.09-.16c-.08,.09-.16,.17-.24,.25,.2,.69,.18,1.43,.14,2.19-.05,.76-.11,1.51-.22,2.25Z"/>
          </g>
        </g>
        <g class="cls-16">
          <g class="cls-16">
            <path class="cls-5" d="M145.29,612.74c-2.18,1.28-4.85,1.73-6.49,3.27-.18,.16-.37,.33-.57,.51l.36-.09c2.75-.7,5.53-1.86,8-3.45,1.48-1.12,2.75-2.62,4.23-4.1,.17-.17-.05-.4-.16-.51-.29,.02-.56,0-.82-.04-.95,1.26-2.11,2.44-3.52,3.29-.48,.25-.74,1-1.04,1.14Z"/>
            <polygon class="cls-7" points="149.92 608.29 149.86 608.29 149.72 608.47 149.92 608.29"/>
            <path class="cls-4" d="M147.19,611.12c-.4,.37-.85,.65-1.31,.9-.22,.29-.4,.63-.59,.72-2.18,1.28-4.85,1.73-6.49,3.27-.18,.16-.36,.33-.56,.5,.13-.03,.26-.06,.39-.1,.94-.25,1.91-.53,2.85-.9l.13-.11c.42-.43,1.01-.41,1.5-.63,1.3-.84,2.56-1.2,3.86-2.17,.47-.34,.78-.97,1.36-1.34,.19-.14,.38-.26,.57-.38,.71-.74,1.32-1.37,1.96-2.04,.17-.17-.05-.4-.16-.51-.15,.01-.3,0-.44,0-.55,.51-1.08,1.03-1.69,1.48-.46,.47-.96,.91-1.5,1.3,.04,0,.08,.01,.13,0Z"/>
            <path class="cls-7" d="M146.87,610.76c-.08,.04-.05,.3,.18,.36,.54-.39,1.04-.83,1.5-1.3-.51,.38-1.06,.71-1.69,.95Z"/>
            <path class="cls-8" d="M146.36,609.78c-1.09,.54-1.94,1.46-2.99,1.68-.54,.13-1.12,.16-1.67,.09-.15,.08-.3,.16-.45,.24-3.68,2.08-7.59,3.78-11.67,4.73-2.02,.54-3.72,1.61-5.72,2.49-1.22,.4-2.3,.29-3.57,.33-3.15,.03-5.55,1.78-8.7,2.58-.84,.22-.83,1.48-.61,1.47,5.35-1.11,10.5-1.53,15.65-3.36,3.98-1.39,7.74-2.55,11.61-3.51,.2-.18,.39-.35,.57-.51,1.64-1.54,4.31-1.98,6.49-3.27,.3-.14,.56-.89,1.04-1.14,1.4-.85,2.56-2.03,3.52-3.29-.55-.09-1.05-.25-1.5-.31-.52,.72-1.16,1.41-1.98,1.77Z"/>
            <path class="cls-6" d="M146.36,609.78c.82-.36,1.47-1.05,1.98-1.77-.22-.03-.43-.03-.62,.03-1.02,.4-1.95,.97-2.95,1.61-.99,.64-2.03,1.33-3.08,1.91,.55,.07,1.13,.04,1.67-.09,1.05-.22,1.9-1.14,2.99-1.68Z"/>
            <path class="cls-4" d="M146.36,609.78c.79-.34,1.41-.98,1.91-1.67-.26,.14-.5,.29-.74,.45-1.19,.85-2.49,1.69-3.99,2.12,1.47-.75,2.87-1.55,4-2.59-.97,.41-1.88,.98-2.85,1.6-.96,.62-1.98,1.29-2.99,1.85,.55,.07,1.13,.03,1.67-.09,1.05-.22,1.9-1.14,2.99-1.68Z"/>
            <path class="cls-3" d="M144.29,611.21c1.73-.73,3.43-1.66,4.59-3.13-.14-.03-.27-.06-.4-.08-.07,.04-.14,.07-.2,.11-.5,.69-1.13,1.33-1.91,1.67-1.09,.54-1.94,1.46-2.99,1.68-.54,.13-1.12,.16-1.67,.09l-.42,.23c-1.88,1.06-3.82,2.02-5.81,2.85-1.59,1.05-3.55,1.69-5.51,2.03,.88-.28,1.75-.6,2.6-.97-.97,.32-1.96,.59-2.96,.83-.86,.23-1.65,.55-2.44,.92-.09,.33-.28,.65-.73,.85-.69,.33-1.41,.48-2.09,.95-.1,.02-.14-.21-.35-.17,.58-.12,1.01-.4,1.35-.75-.49,.23-.98,.46-1.46,.69-.96,.33-1.84,.31-2.78,.32l-.29,.09c-.48,.14-.94,.37-1.4,.63,.2-.03,.41-.07,.62-.1-.29,.21-.71,.28-1.03,.32,.14-.07,.27-.15,.41-.22-.49,.07-.95,.13-1.47,.21,.63-.09,1.24-.32,1.74-.57-1.13,.25-2.17,.56-3.33,.54l.08-.06c-1.54,.57-3.07,1.33-4.82,1.76-.84,.22-.83,1.48-.61,1.47,3.74-.78,7.36-1.21,10.98-2.03-.45-.07-.9-.15-1.34-.22-.19,0-.37-.02-.55-.08,.18,.03,.37,.05,.55,.08,.51,0,1.04-.13,1.6-.12,.12,.06,.43,0,.51-.25,.76,.02,1.57-.38,2.33-.39,.04,0,.13,.04,.24,.1,.45-.13,.89-.28,1.34-.45,2.49-.87,4.89-1.64,7.29-2.34-.62,.06-1.22,.1-1.79,.08-.8-.1-2.13,.71-3.35,1.17-.29,.16-.55-.02-.86,.06,.89-.96,2.41-.95,3.6-1.46,1.59-.63,4.07-.92,5.6-2.08,.63-.47,1.4-.52,2.07-.53-.15,.23-.55,.38-.75,.46-1.81,.68-3.62,1.31-5.42,2.02,2.01-.37,3.76-1.23,5.77-1.65-1.08,.49-2.29,.6-3.19,1.32,.11,.02,.22,.04,.33,.05,.76-.2,1.52-.42,2.28-.6,.2-.18,.38-.34,.56-.5,1.64-1.54,4.31-1.98,6.49-3.27,.19-.09,.37-.42,.59-.72-.72,.38-1.47,.66-2.19,1.02,.32-.07,.65-.12,.98-.1-.66,.39-1.37,.35-2.02,.73,.33-.25,.68-.45,1.04-.63-.48,.11-.96,.3-1.45,.46,.76-.68,1.88-.48,2.57-1.32-.18,.1-.38,.19-.57,.26l.58-.27h0c.56-.3,1.05-.75,1.47-1.18-.94,.59-1.98,.76-2.93,1.26-.15,.09-.31,.18-.46,.27,.15-.1,.3-.19,.46-.27,2.13-1.24,4.48-2.1,6.37-3.78l.15-.19-.37-.07c-1.48,1.39-3.34,2.31-5.21,2.99Z"/>
          </g>
        </g>
      </g>
    </g>
  </g>
</svg>