<?xml version="1.0" encoding="UTF-8"?>
<svg id="_Слой_2" data-name="Слой 2" xmlns="http://www.w3.org/2000/svg" xmlns:xlink="http://www.w3.org/1999/xlink" viewBox="0 0 228.36 252.51">
  <defs>
    <style>
      .cls-1 {
        fill: none;
      }

      .cls-2 {
        clip-path: url(#clippath);
      }

      .cls-3 {
        fill: #f3f9fb;
      }

      .cls-4 {
        fill: #f7fbfc;
      }

      .cls-5 {
        fill: #f8fcfd;
      }

      .cls-6 {
        fill: #f4fafb;
      }

      .cls-7 {
        fill: #f5fafb;
      }

      .cls-8 {
        fill: #eab7c9;
      }

      .cls-9 {
        fill: #fbfdfe;
      }

      .cls-10 {
        fill: #e29fb4;
      }

      .cls-11 {
        fill: #6e7c6e;
      }

      .cls-12 {
        opacity: .49;
      }

      .cls-13 {
        opacity: .8;
      }
    </style>
    <clipPath id="clippath">
      <rect class="cls-1" width="228.36" height="252.51"/>
    </clipPath>
  </defs>
  <g id="_лепестки" data-name="лепестки">
    <g class="cls-2">
      <g>
        <g class="cls-12">
          <path class="cls-11" d="M184.93,203.36c-23.44,8.13-43.72,4.19-50.03,2.74-20.95-4.8-32.45-16.99-43.52-28.1-3.34-3.35-5.92-6.37-5.11-8.93,1.65-5.22,15.96-3.93,36.76-3.87,41.71,.13,57.22-4.83,81.08,5.02,11.9,4.92,13.61,8.45,13.83,10.7,1.09,11.19-31.65,21.96-33,22.43Z"/>
          <path class="cls-11" d="M178.41,207.23c-2.13,.61-3.93,.82-5.66,1.36-.27,.09-.49,.64-.84,.69-1.4,.18-2.77,.95-4.21,.52-1.57-.49-3.02-.33-4.4,.17-1.31,.49-2.64,.51-3.97,.66-.45,.06-.89,.19-1.39-.39-.37-.42-1.01-.43-1.48,.33-.09,.15-.3,0-.44-.08-.16-.08-.35-.4-.46-.3-1.31,1.19-2.67,.28-4.01,.5-.34,.06-.68-.3-1,.47-.08,.2-.41,.22-.5,.03-.23-.5-.48-.61-.8-.63-1.37-.05-2.74-.17-4.1-.32-.78,.95-1.49,.4-2.2,.3-.54-.08-1.03-.48-1.53-.76-.51-.28-1.19,.27-1.56-.69-.06-.15-.31,.08-.46,.07-.68-.05-1.44,.15-2.01-.3-.29-.23-.58-.46-.9-.53-2.07-.42-4.12-.99-6.17-1.54l-3.04-.96c-1.01-.33-2-.73-3-1.09-.35-.13-.63-.36-1.22,.03-.46,.3-1.09,.04-1.18-.5-.14-.87-.67-.78-1.07-1-.74-.39-1.54-.69-2.25-1.14-.42-.27-1.16-.07-1.07-1.17,0-.11-.13-.17-.23-.11-.95,.6-1.02-.4-1.44-.78-.3-.28-.65-.47-1.28-.27-.62,.2-1.27-.12-1.33-.76-.09-.85-.61-.92-1.02-1.2-1.22-.78-2.36-1.68-3.55-2.5-1.14-.89-2.32-1.72-3.44-2.62-1.08-.83-2.69-1.02-3.49-2.21-.19-.28-.72-.23-.46-.96,.05-.15-.2-.26-.39-.2-.7,.22-.82-.22-1.11-.53-1.33-1.4-2.46-3.02-4.22-3.9-1.37-.69-2.24-1.85-3.36-2.76-.38-.3-.38-.98-.65-1.4-.26-.4-.63-.71-1-1.01-.22-.18-.27-.52-.87-.32-.32,.11-.68-.13-.62-.42,.2-.99-.45-1.2-.84-1.66-.5-.58-1.29-1.48-1.9-2.32-.63-.86-1.17-1.77-1.51-2.72-.08-.23-.26-.48-.33-.73-.05-.25,0-.5,.42-.68,.11-.05-.21-.34-.31-.53-.11-.2-.35-.48-.23-.6,.37-.34,.61-.68,.79-1.04,.41-.76,.66-1.62,1.35-2.16,1.21-.96,2.69-1.5,4.22-1.89,.38-.1,.78-.17,1.16-.25,.19-.04,.39-.07,.58-.1l.51-.07c.68-.08,1.35-.14,2.03-.16,.75-.02,1.36-.81,2.09-.81,.71,0,1.41-.11,2.11-.06,.5,.03,1.01-.38,1.49,.5,.13,.24,.49,.22,.63-.01,.54-.88,1.15-.44,1.72-.58,.71-.17,1.43,.39,2.12-.54,.19-.25,.55,.24,.83,.29,.49,.07,.99,.11,1.48,.07,.24-.02,.47-.35,.71-.37,1.83-.21,3.65-.44,5.47-.52,1.85-.07,3.7,.03,5.55,.05,1.85,.01,3.69-.04,5.53,.06,.69,.04,1.44-.66,2.08,.55,.63-.73,1.19-.29,1.76,.52,.08,.12,.28-.23,.43-.33,.47-.32,.9-1.54,1.43-.22,.02,.05,.08,0,.13,0,.43,.18,.71-1.17,1.27-.37,.35,.5,.89,.27,1.35,.31,.47,.04,.95,.08,1.42-.04,.48-.12,1.02,.49,1.45-.52,.07-.16,.44,.53,.65,.48,1.07-.26,2.21,.61,3.24-.6,.24-.28,.62-.26,.89-.03,.96,.83,1.82,.36,2.77,.01,1.25-.46,2.59-.67,3.87,.53,.27,.26,.4,.46,.65,0,.16-.3,.47-.24,.72-.25l8.27-.32c.75-.03,1.49,.9,2.25,.52,.31-.16,.7,.31,.94-.5,.03-.11,.16-.18,.23-.12,.96,.91,1.84-.44,2.78-.08,.2,.08,.39,.25,.59,.34,.2,.09,.44,.32,.61,.18,1.39-1.2,2.89-.33,4.32-.64,.49-.1,1.03,.41,1.47-.58,.07-.15,.29-.13,.38,0,.84,1.2,1.78,.3,2.65,.62,.45,.16,.97-.48,1.35,.51,.05,.12,.23,.03,.35-.03,.2-.11,.4-.42,.59-.4,.52,.08,1.07,.64,1.54,.34,.59-.37,1.12-.18,1.67-.18,.31,0,.6,.47,.91,.6,.29,.12,.61,.08,.92,.1,.44,.04,.91-.09,1.31,.17,.41,.26,.86-.72,1.26,.01,.3,.56,.83-.3,1.25-.35,.21-.02,.41,.12,.6,.25,.15,.1,.25,.44,.4,.44,.34-.01,.62,.21,1.04-.16,.29-.26,.63,.34,.97,.46,.33,.13,.69,.15,1.04,.21,.35,.07,.68,.34,1.04,.17,.79-.36,1.52-.32,2.22-.17,.7,.17,1.37,.49,2.08,.6,.36,.06,.87-.17,.95,.74,.01,.16,.21,.23,.34,.16,1.65-.85,2.72,.58,4.14,.65,1.02,.05,2.09-.05,2.99,.42,.88,.45,1.73,1.03,2.77,.98,.85-.03,1.69,0,2.3,.5,.59,.49,1.99-.76,2.05,.87,.7,.33,1.42,.65,2.09,1.05,.56,.37,1.35,.36,1.49,1.43,.05,.39,.45,.61,.82,.5,1.2-.33,1.79,.37,2.24,1.28,.1,.21,.58,.03,.79,.17,.63,.45,1.3,.93,1.8,1.63,.28,.41,.59,.79,.92,1.19l.54,.69,.51,.72c.66,.97,1.22,2.08,1.46,3.29,.04,.37,.08,.74,.1,1.12l.03,.57c-.01,.19-.04,.38-.06,.56-.09,.57,.5,1.41,.12,1.89-.27,.37-.49,.68-.69,1.01-.21,.31-.42,.59-.6,.89l-1.04,1.72c-.33,.57-.69,1.04-1.08,1.53-.39,.46-.83,.83-1.34,1.14-1.51,.81-2.72,1.76-3.93,2.67-1.2,.93-2.38,1.85-3.68,2.53-.34,.18-1.06-.24-1.1,.03-.14,.86-.98,.68-1.14,1.34-.3,1.19-1.32,1.06-1.94,1.64-.46,.42-1.29,.19-1.33,1.33,0,.17-.2,.24-.35,.18-1.2-.45-1.37,1.18-2.35,1.15-1.02,1.73-2.9,1.72-4.32,2.59-.21,.13-.33,.45-.51,.67-.09,.11-.16,.31-.29,.27-1.85-.53-2.94,.91-4.48,1.15-.51,.08-1.09-.06-1.6,0-.52,.06-.9,.52-1.6-.02-.22-.17-.45,.04-.62,.2-.94,.86-2.27-.37-3.09-2.77-.31-.87-.1-1,.02-1.4,.23-.78,.52-1.33,1.08-1.45,.43-.1,.98,.01,1.05-.95,.01-.16,.21-.2,.35-.13,.98,.48,1.55-.41,2.41-.16,.66,.19,1.09-.1,1.64-.13,.46-.03,.71-.63,1.42-.05,.24,.2,.38-.62,.65-.76,.64-.35,1.29-.68,2.01-.85,2.18-.54,3.59-2.63,5.67-3.31,.86-1.71,2.76-1.54,3.81-2.8,1.24-1.51,2.97-2.16,4.22-3.45,.25-.27,.49-.42,.93-.38,.29,.03,.58,.04,.76-.09,.68-.49,1.23-1.12,1.87-1.62,.33-.29,.24-.99,1.27-.59,.15,.05,.26-.11,.21-.26-.19-.6-.07-.93,.11-1.21,.1-.14,.22-.26,.34-.39,.09-.13,.18-.27,.22-.42,.07-.24,.21-.41,.63-.52,.24-.06,.39-.2,.44-.37,.02-.18-.05-.38-.22-.53-.24-.23-.25-.38-.34-.56-.06-.11-.08-.22-.08-.33-.03-.29,.04-.63-.05-.94-.11-.29-.39-.56-.99-.44,.4-.43,.35-.8,.19-1-.15-.21-.49-.3-.75-.37-1.06-.27-1.86-.8-2.73-1.41-.85-.6-1.74-1.26-2.75-1.69-.5-.2-.76-.87-1.21-1.2-.48-.34-1.03-.55-1.58-.75-.29-.11-.47-.6-1.03,.07-.04,.05-.11,.07-.13,.04-.25-.26-.44-.67-.76-.75-.29-.06-.75,.34-1.08,.37-.4,.04-.75-.08-1.09-.19-.33-.11-.75-.07-.75-.86-.58,.76-.79,.18-1.15,.13-.33-.06-.62-.22-.93-.34-.35-.14-.71-.23-1.06-.35-.35-.11-.69-.3-1.06-.32-.52-.03-1.09,.13-1.59,.07-.53-.08-1.04-.22-1.53-.43-.61-.28-1.17-.72-1.78-1.04-.25-.13-.53,.03-.87,.28-.44,.32-1.08,1.16-1.26-.14-.04-.26-.37-.25-.58-.13-.82,.49-1.52,.41-2.21,.2-.69-.2-1.38-.45-2.11-.38-.65-1.04-1.49-.59-2.33-.42-1.25,.28-2.52,.31-3.65-.35-1.23-.66-2.49-.37-3.73-.66-.35-.08-.74,.26-1.02-.59-.06-.2-.34-.14-.49-.02-1.05,.88-2.03,.61-3.09,.02-.56-.31-1.19,.07-1.8,.4-.92,.5-1.93,.15-2.91,.16-.45-1.04-.75,.04-.96,.5-.28,.61-.54,.73-.89,.75-.44,.03-.88-.15-1.3,.55-.21,.35-.71,.28-.97-.07-.34-.48-.45-.25-.74,.08-.34,.4-.74-.57-1.18-.5-.47,.07-1,.62-1.46-.47-.04-.1-.19-.08-.25,0-.84,1.15-1.76-.44-2.62,.08-2.67-1.15-5.28,0-7.94-.34-1.1-.14-2.22-.91-3.28-.38-2.23,1.11-4.52,.44-6.77,.69-.48,.05-1.02,.55-1.48-.51-.06-.15-.28-.13-.38,0-.7,.99-1.41,.69-2.14,.05-.18-.16-.5-.13-.61,.13-.29,.73-.64,.45-.96,.43-.39-.02-.91-.65-1.14-.27-.49,.79-.77-.09-1.15-.23-.23-.09-.49,.12-.73,.24-.11,.06-.26,.38-.32,.3-.77-.9-1.51,.41-2.27,.04-.16-.08-.33-.06-.49-.16-1.78-1.19-1.78-1.18-4.03-.58-.61-1.3-1.34,.6-2-.39-.24-.36-.71-.29-1.02-.03-1.35,1.13-2.71,.21-4.06,.52-.28,.06-.48-.81-.85-.11-.14,.26-.59-.51-.89-.49-.44,.03-.9-.44-1.35,.4-.18,.34-.58,.06-.87,.13-.4,.09-.8-.24-1.22,.46-.23,.38-.74,.38-.99,.05-1.03-1.4-2-.16-2.96,.33-.29,.15-.49,.28-.79,.07-.42-.3-.99-.69-1.31-.27-.58,.73-1.12,.44-1.68,.49-.96,.09-1.92-.02-2.86,.11-1.06,.16-2.15-.14-3.13,.64-.52,.42-1.16,.84-1.87-.22-.08-.12-.21,.55-.35,.58-.21,.08-.31,.13-.56,.14-.02-.02-1.17-.81-.35-.11,.46,.36,.22,.2-.02,.08-.24-.12-.47-.21,.15,.17,.18,.11,.14,.12,0,.07-.29-.1-.51-.11-.65-.08-.29,.06-.24,.27-.12,.42,.12,.16,.27,.26,.21,.42-.02,.12,.48,0-.41,.46,.61-.1,.39,.09,.37,.38,0,.07-.01,.14,0,.19,.06,.1,.13,.2,.23,.27,.19,.14,.49,.19,.96,.06,.24,.69,1.42,.57,1.07,1.88-.05,.21,.32,.2,.3,.41-.09,.72,1.36-.32,1.09,.71-.15,.59,.48,.79,.79,1.14,.28,.32,.6,.61,.9,.91l1,1c.33,.33,.62,.71,1.01,.97,.79,.54,1.94,.67,2.43,1.53,.05,.09,.27,.12,.42,.01,1.27-.87,1.03,.06,.96,.6-.06,.46,0,.74,.21,.93,.6,.52,1.22,1.02,1.73,1.62,.31,.35,1.01,.31,.71,1.32-.09,.31,.24,.51,.54,.49,1.38-.09,1.79,.98,2.65,1.5,.39,.23,.71,.55,1.06,.84,.26,.22,.92-.08,.82,.61,2.03,.05,2.93,1.62,4.38,2.44,.73,.38,1.43,.81,2.11,1.25l2.09,1.28c.35,.22,.96,.03,.82,1.07-.03,.2,.24,.32,.41,.19,.47-.37,.75-.55,.66,.22-.02,.14,.25,.11,.43,.03,.48-.21,.72-.03,.87,.46,.11,.39,.38,.68,.71,.6,.89-.23,1.68-.41,1.92,.85,.03,.15,.51-.37,.64-.28,.52,.34,1.3,.05,1.58,1.02,.12,.4,.55,.3,.81,.49,.45,.35,1.11-.02,1.55,.45,.45,.48,1.12,.43,1.7,.61,.57,.2,1.16,.35,1.74,.49l1.76,.45c.58,.16,1.18,.3,1.78,.42l1.79,.37,1.81,.33c.42,.08,.8,.25,1.16,.71,.94,1.18,2.34,1.23,4.06,.6,.12-.05,.25,.02,.37,.03,1.6,.17,3.22,.08,4.8,.44,.7,.14,1.39,.62,2.12,.57,.47-.03,.93,.12,1.41-.51,.39-.53,.94,.38,1.39-.56,.16-.34,.6-.33,.82-.05,.75,.92,1.51,.39,2.27,.44,.87,.07,1.74,0,2.59-.15,.42-.07,.87,.22,1.24-.59,.18-.4,.71-.17,1.05,.13,.53,.44,1,.29,1.42,.02,.91-.57,.88-.65,1.91-.2,.12,.05,.25,.04,.37,.03,1.18-.19,2.45-.03,3.51-.69,.88-.56,1.78-.81,2.71-1.02,.37-.09,.69-.61,1.23,.29,.08,.13,.29,.07,.35-.07,.52-1.26,1.48-.92,2.28-1.15,.77-.24,1.25-1.23,2.07-1.28,.79-.03,1.48-.43,2.21-.66,1.12-.35,1.55,.14,2.45,2.72,.74,2.13,.6,2.69-.22,3.45-.87,.8-1.89,1.19-2.88,1.48-1,.25-1.98,.38-2.79,.75Z"/>
        </g>
        <g>
          <path class="cls-8" d="M194.7,183.02c-23.44,8.13-43.72,4.19-50.03,2.74-20.95-4.8-32.45-16.99-43.52-28.1-3.34-3.35-5.92-6.37-5.11-8.93,1.65-5.22,15.96-3.93,36.76-3.87,41.71,.13,57.22-4.83,81.08,5.02,11.9,4.92,13.61,8.45,13.83,10.7,1.09,11.19-31.65,21.96-33,22.43Z"/>
          <path class="cls-8" d="M187.84,185.55c-2.1,.6-3.86,.86-5.58,1.29-.27,.07-.55,.24-.9,.29-1.37,.2-2.76,.6-4.11,.61-1.47,0-2.92,.21-4.3,.39-1.31,.19-2.61,.3-3.92,.36-.44,.03-.87,.07-1.35-.06-.35-.1-.99-.07-1.46,.11-.09,.04-.29,0-.44-.02-.16-.02-.34-.1-.46-.07-1.29,.31-2.63,.07-3.93,.08-.33,0-.68-.09-.96,.09-.07,.05-.39,.05-.48,0-.24-.14-.5-.18-.81-.2-1.34-.07-2.69-.18-4.02-.33-.68,.2-1.41-.01-2.11-.1-.52-.07-1.04-.21-1.55-.35-.52-.13-1.11-.06-1.58-.36-.07-.05-.29-.01-.44-.03-.66-.1-1.36-.14-1.97-.34-.31-.11-.62-.21-.93-.27-2.04-.4-4.05-.96-6.06-1.5l-2.98-.94c-.99-.32-1.95-.72-2.93-1.08-.34-.13-.65-.27-1.07-.28-.32-.02-.93-.28-1.14-.5-.35-.36-.78-.47-1.19-.66-.75-.33-1.49-.7-2.22-1.09-.43-.23-.98-.36-1.24-.78-.02-.04-.16-.11-.22-.11-.59-.04-.95-.49-1.41-.79-.33-.22-.67-.41-1.11-.52-.43-.1-1.03-.45-1.29-.77-.35-.42-.78-.63-1.19-.89-1.21-.76-2.35-1.63-3.53-2.44-1.13-.88-2.29-1.7-3.39-2.62-1.06-.84-2.22-1.53-3.18-2.51-.23-.23-.56-.39-.66-.72-.02-.07-.23-.23-.33-.26-.38-.13-.61-.43-.92-.72-1.39-1.3-2.71-2.71-4.14-3.91-1.12-.93-2.09-1.97-3.13-2.96-.35-.33-.6-.76-.93-1.12-.31-.35-.66-.68-1-1.01-.2-.2-.37-.43-.66-.53-.16-.05-.46-.33-.53-.49-.24-.54-.71-.92-1.1-1.35-1.1-1.24-2.22-2.5-2.97-4.06-.18-.38-.45-.81-.33-1.25,.02-.06-.1-.29-.15-.44-.05-.16-.12-.38-.1-.51,.13-.6,.28-1.17,.55-1.71,.27-.53,.67-1,1.13-1.35,1.14-.83,2.46-1.21,3.76-1.52,1.3-.29,2.62-.46,3.94-.56,.74-.05,1.37-.29,2.09-.31,.69-.03,1.39-.08,2.08-.08,.49,0,1.01-.12,1.47,.1,.13,.06,.48,.05,.62-.01,.54-.22,1.14-.12,1.72-.16,.7-.04,1.42,.09,2.11-.14,.19-.06,.55,.06,.83,.07,.49,.02,.99,.03,1.48,.02,.24,0,.47-.08,.7-.09,1.82-.04,3.64-.08,5.46-.08l5.56,.06,5.55,.03c.7,0,1.45-.17,2.09,.13,.64-.18,1.2-.08,1.76,.13,.08,.03,.28-.06,.43-.08,.47-.08,.91-.39,1.43-.06,.02,.01,.08,0,.13,0,.43,.04,.73-.3,1.28-.11,.34,.12,.89,.06,1.35,.06,.47,0,.95,0,1.42-.03,.48-.04,1.02,.11,1.47-.15,.07-.04,.43,.13,.64,.11,1.08-.07,2.2,.11,3.26-.21,.24-.07,.63-.08,.89-.03,.94,.19,1.81,.05,2.77-.06,1.26-.15,2.61-.24,3.86,.03,.27,.06,.38,.1,.65-.02,.17-.08,.48-.07,.73-.08l8.27-.32c.75-.03,1.46,.19,2.23,.07,.32-.05,.69,.06,.95-.15,.04-.03,.17-.05,.23-.04,.93,.21,1.84-.15,2.77-.08,.2,.02,.39,.05,.58,.07,.2,.02,.44,.07,.6,.03,1.41-.34,2.87-.11,4.3-.21,.49-.03,1.02,.1,1.46-.16,.07-.04,.28-.03,.38,0,.84,.31,1.76,.09,2.62,.18,.44,.05,.95-.11,1.34,.14,.05,.03,.23,.01,.34,0,.19-.02,.38-.09,.57-.08,.52,.04,1.07,.2,1.53,.14,.57-.07,1.09,0,1.63,.01,.31,0,.61,.15,.92,.2,.29,.05,.6,.06,.9,.09,.43,.04,.88,.04,1.29,.13,.42,.09,.78-.13,1.23,.09,.34,.17,.78,0,1.18,.03,.2,.02,.41,.07,.61,.13,.15,.04,.29,.14,.43,.16,.32,.03,.63,.12,.99,.06,.25-.04,.65,.16,.99,.22,.34,.07,.68,.13,1.02,.2,.34,.07,.7,.19,1.02,.19,.7,0,1.4,.12,2.08,.26,.68,.16,1.35,.38,2.04,.54,.35,.08,.78,.1,1.02,.39,.04,.05,.24,.1,.35,.11,1.38,.02,2.61,.74,3.93,1.05,.94,.22,1.87,.44,2.78,.82,.88,.37,1.78,.77,2.68,1.01,.74,.2,1.45,.44,2.11,.77,.64,.33,1.46,.25,1.96,.88,.67,.31,1.34,.65,2,1,.54,.32,1.16,.54,1.58,1.03,.15,.18,.53,.4,.77,.47,.79,.22,1.41,.7,1.99,1.28,.14,.14,.4,.2,.58,.33,.53,.42,1.07,.86,1.53,1.38,.68,.78,1.35,1.6,1.83,2.62,.22,.51,.41,1.06,.48,1.62,.03,.28,.03,.56,.04,.84,.02,.28,0,.56-.05,.84-.07,.4,.04,.9-.14,1.23-.92,1.99-2.01,3.8-3.52,5.11-2.23,1.85-4.42,3.63-6.85,5.06-.32,.18-.74,.23-.86,.36-.37,.42-.98,.6-1.31,.93-.59,.59-1.37,.84-2.04,1.26-.49,.3-1.11,.46-1.47,.92-.05,.07-.23,.15-.34,.17-.86,.17-1.47,.85-2.28,1.11-1.33,.93-2.91,1.43-4.38,2.11-.22,.1-.4,.25-.61,.37-.1,.06-.22,.15-.32,.17-1.47,.29-2.79,1.06-4.2,1.51-.47,.15-.95,.24-1.42,.38-.47,.14-.93,.39-1.43,.37-.16,0-.41,.12-.6,.21-1.03,.5-1.96,.39-2.18-.21-.08-.21,.14-.3,.34-.46,.39-.31,.79-.56,1.34-.73,.42-.14,.9-.23,1.2-.57,.05-.06,.24-.12,.35-.13,.78-.08,1.52-.52,2.24-.65,.55-.1,1.02-.31,1.52-.47,.42-.13,.81-.41,1.29-.39,.16,0,.5-.32,.78-.45,.67-.29,1.34-.6,2.02-.85,2.07-.8,3.91-2.01,5.92-2.92,1.27-.97,2.84-1.49,4.12-2.41,1.55-1.1,3.19-2.03,4.65-3.19,.3-.24,.54-.42,.86-.57,.21-.09,.42-.2,.6-.35,.7-.55,1.34-1.17,1.98-1.77,.32-.34,.6-.8,1.05-.95,.06-.02,.19-.19,.23-.28,.15-.38,.36-.71,.57-1.05l.34-.49c.09-.17,.19-.35,.27-.52,.13-.27,.26-.52,.44-.79,.1-.15,.2-.36,.27-.57,.04-.22,.05-.46,.03-.64,0-.28,0-.51-.04-.76-.02-1.02-.18-2.19-1.07-2.87-.07-.62-.65-1.1-1.11-1.45-1.8-1.32-3.66-2.67-5.72-3.71-.5-.24-.95-.6-1.44-.88-.52-.28-1.08-.52-1.62-.76-.29-.13-.59-.37-.91-.27-.02,0-.08,0-.11-.02-.3-.17-.59-.37-.9-.49-.28-.1-.59-.09-.89-.16-.36-.09-.71-.22-1.06-.35-.34-.12-.71-.22-.92-.5-.34,.11-.69-.14-1.03-.25-.32-.11-.64-.24-.96-.36-.36-.14-.73-.24-1.09-.36-.37-.12-.73-.25-1.1-.35-.51-.13-1.02-.21-1.52-.34-.53-.15-1.06-.3-1.59-.46-.66-.2-1.31-.44-1.97-.65-.27-.09-.52-.09-.81-.08-.38,0-.89,.15-1.29-.25-.08-.08-.41-.13-.6-.12-1.51,.02-2.95-.54-4.44-.63-.78-.34-1.59-.33-2.45-.36-1.26-.02-2.58-.1-3.8-.35-1.29-.22-2.58-.19-3.86-.31-.36-.04-.76,.05-1.06-.17-.07-.05-.34-.04-.5,0-1.05,.21-2.07,.13-3.14-.03-.57-.08-1.2,.03-1.83,.11-.94,.13-1.96,.05-2.95,.06-.43-.25-.76,.03-.98,.14-.29,.16-.56,.19-.91,.21-.45,.02-.89-.02-1.33,.16-.22,.09-.73,.09-.98,0-.33-.11-.45-.05-.75,.04-.35,.11-.72-.12-1.17-.09-.47,.03-1.02,.18-1.45-.08-.04-.02-.18-.02-.25,0-.87,.31-1.76-.06-2.63,.09-2.63-.21-5.28,.16-7.92,.14-1.09,0-2.19-.17-3.26,0-2.24,.32-4.51,.21-6.76,.31-.48,.02-1.02,.15-1.46-.11-.06-.04-.28-.03-.37,0-.71,.26-1.41,.19-2.13,.04-.18-.04-.5-.03-.61,.04-.3,.19-.64,.12-.96,.12-.39,0-.9-.15-1.13-.05-.49,.2-.77-.02-1.14-.05-.23-.02-.49,.03-.73,.06-.11,.01-.26,.1-.32,.08-.76-.22-1.5,.11-2.25,.02-.16-.02-.33-.01-.49-.04-1.77-.3-1.77-.28-4.01-.14-.61-.33-1.33,.14-2-.11-.24-.09-.71-.08-1.01-.01-1.33,.27-2.7,.03-4.04,.09-.28,.01-.49-.21-.85-.04-.14,.06-.59-.13-.9-.13-.44,0-.91-.12-1.35,.09-.18,.08-.58,0-.87,.02-.4,.02-.81-.07-1.22,.1-.22,.09-.74,.09-.99,0-1.04-.36-2.01-.05-2.98,.06-.29,.04-.5,.07-.8,.02-.43-.08-1-.17-1.33-.07-.59,.18-1.15,.12-1.72,.13-.98,.03-1.97,.02-2.95,.08-1.11,.07-2.23,.04-3.33,.31-.59,.15-1.35,.32-2.03,.12-.07-.02-.31,.18-.48,.21-1.34,.22-2.65,.53-3.73,1.02-.23,.12-.65,.02-.7,.35-.04,.16-.16,.19-.27,.23-.12,.04-.25,.08-.18,.24,.02,.05-.12,.18-.18,.25-.4,.34-.58,.9-.44,1.5,.12,.61,.45,1.25,.81,1.92,.17,.32,.51,.6,.49,.99,.78,.6,1.09,1.8,2.08,2.23,.44,.58,1.15,.97,1.43,1.67,.05,.11,.28,.24,.34,.37,.21,.42,.72,.31,.95,.85,.13,.31,.6,.68,.92,1.01l.91,.91,1,1c.34,.33,.66,.68,1.01,.99,.71,.64,1.5,1.16,2.15,1.88,.07,.08,.22,.18,.28,.17,.5-.05,.7,.44,.86,.75,.13,.26,.28,.45,.5,.65,.6,.55,1.21,1.09,1.79,1.65,.35,.33,.82,.57,1,1.05,.06,.15,.36,.39,.56,.49,.92,.49,1.65,1.25,2.46,1.88l1.1,.88c.28,.22,.66,.31,.85,.64,1.54,.82,2.88,1.98,4.35,2.93l2.21,1.38,2.24,1.31c.38,.22,.85,.36,1.08,.75,.04,.08,.32,.21,.43,.21,.29,0,.49,.02,.66,.31,.03,.05,.26,.13,.39,.15,.36,.07,.64,.22,.93,.47,.22,.2,.56,.39,.84,.46,.75,.18,1.44,.35,2.03,.9,.07,.07,.37,.02,.52,.09,.59,.27,1.26,.37,1.79,.79,.22,.17,.61,.25,.91,.39,.51,.25,1.07,.28,1.62,.53,.55,.26,1.2,.4,1.81,.59,.6,.21,1.22,.37,1.84,.52l1.85,.48c.61,.17,1.23,.31,1.86,.44l1.87,.38,1.88,.34c.44,.08,.85,.16,1.27,.33,1.1,.43,2.5,.58,4.22,.56,.12,0,.25,.02,.38,.04,1.65,.18,3.32,.23,4.97,.39,.72,.05,1.45,.19,2.2,.2,.49,.01,.96,.04,1.45-.11,.4-.13,.97,.09,1.44-.14,.17-.09,.63-.08,.86-.01,.77,.22,1.56,.06,2.34,.05,.89,0,1.79-.06,2.68-.15,.44-.04,.88,0,1.31-.23,.21-.11,.74-.09,1.07-.03,.51,.07,1-.02,1.46-.13,.99-.23,.97-.25,1.98-.23,.12,0,.25-.01,.37-.03,1.22-.2,2.48-.31,3.65-.63,.97-.27,1.92-.51,2.89-.71,.38-.08,.81-.29,1.19-.11,.05,.02,.27-.02,.36-.08,.74-.47,1.63-.56,2.47-.78,.8-.23,1.49-.59,2.31-.82,.77-.19,1.54-.48,2.31-.72,1.17-.37,1.47-.31,1.69,.34,.18,.53-.08,.74-1,1.16-.97,.44-1.99,.78-2.96,1.08-.98,.27-1.93,.48-2.75,.73Z"/>
        </g>
        <g class="cls-13">
          <g class="cls-13">
            <path class="cls-5" d="M195.74,210.76c-2.51,1.05-5.42,1.05-7.48,2.25-.22,.12-.46,.26-.71,.39l.4-.02c3.02-.14,6.29-.9,9.11-2.23,1.71-.93,3.23-2.24,5.1-3.19,.21-.1,.08-.39,.01-.54-.28-.07-.54-.18-.79-.29-1.37,.96-2.76,1.95-4.37,2.62-.54,.18-.94,.91-1.28,1.01Z"/>
            <polygon class="cls-7" points="201.47 207.12 201.42 207.1 201.21 207.25 201.47 207.12"/>
            <path class="cls-4" d="M197.99,209.38c-.48,.31-.99,.54-1.51,.72-.28,.27-.52,.59-.74,.65-2.51,1.05-5.42,1.05-7.48,2.25-.22,.12-.46,.25-.7,.39,.14,0,.28-.02,.43-.02,1.05-.05,2.12-.17,3.2-.37l.16-.09c.54-.35,1.14-.26,1.72-.4,1.55-.64,2.94-.9,4.44-1.68,.53-.29,.97-.85,1.61-1.13,.21-.11,.43-.19,.65-.27,.77-.53,1.56-1.05,2.44-1.49,.21-.1,.08-.39,.01-.54-.15-.04-.29-.09-.43-.14-.73,.36-1.4,.69-2.11,1.04-.59,.37-1.18,.74-1.81,1.05,.04,.01,.08,.02,.13,.03Z"/>
            <path class="cls-7" d="M197.74,208.97c-.09,.03-.11,.29,.12,.38,.63-.31,1.23-.68,1.81-1.05-.61,.27-1.24,.53-1.94,.67Z"/>
            <path class="cls-9" d="M197.39,207.92c-1.26,.4-2.31,1.23-3.43,1.32-.58,.06-1.19,0-1.74-.14-.17,.06-.34,.11-.51,.16-4.19,1.5-8.67,2.27-13.11,2.2-2.22,.04-4.27,.62-6.58,.99-1.37,.09-2.46-.3-3.79-.56-3.3-.73-6.25,.43-9.7,.64-.93,.06-1.13,1.31-.9,1.33,5.77-.17,11.19,.74,16.98,.27,4.48-.35,8.67-.54,12.95-.73,.25-.14,.49-.27,.71-.39,2.06-1.2,4.96-1.2,7.48-2.25,.33-.11,.73-.83,1.28-1.01,1.6-.67,3-1.66,4.37-2.62-.52-.24-.97-.52-1.43-.67-.79,.62-1.62,1.21-2.57,1.46Z"/>
            <path class="cls-6" d="M197.39,207.92c.94-.25,1.78-.84,2.57-1.46-.22-.07-.45-.11-.67-.1-2.42,.46-4.68,1.9-7.07,2.74,.55,.15,1.16,.2,1.74,.14,1.13-.09,2.17-.91,3.43-1.32Z"/>
            <path class="cls-4" d="M197.39,207.92c.9-.24,1.7-.79,2.46-1.38-.32,.08-.62,.19-.92,.32-1.51,.66-3.03,1.37-4.67,1.62,1.65-.57,3.28-1.24,4.8-2.09-2.33,.52-4.54,1.9-6.85,2.7,.55,.15,1.16,.2,1.74,.14,1.13-.09,2.17-.91,3.43-1.32Z"/>
            <path class="cls-3" d="M194.96,209.1c1.94-.53,3.85-1.26,5.53-2.46-.13-.06-.26-.12-.39-.16-.09,.02-.17,.04-.25,.06-.76,.59-1.56,1.13-2.46,1.38-1.26,.4-2.31,1.23-3.43,1.32-.58,.06-1.19,0-1.74-.14-.16,.05-.32,.1-.48,.15-2.14,.77-4.35,1.35-6.6,1.72-1.89,.71-4.08,.85-6.18,.72,.98-.06,1.96-.16,2.93-.33-1.08,.08-2.17,.11-3.26,.1-.94,.01-1.85,.13-2.76,.29-.18,.3-.47,.56-.98,.65-.8,.14-1.59,.11-2.41,.39-.11,0-.09-.24-.32-.25,.63,.03,1.15-.13,1.59-.39-.55,.11-1.12,.21-1.7,.3-1.08,.07-1.98-.16-2.96-.38l-.32,.02c-.53,.02-1.07,.14-1.62,.27,.22,.02,.44,.04,.67,.05-.36,.13-.81,.09-1.15,.06,.16-.04,.32-.08,.48-.12-.52-.05-1.03-.09-1.58-.14,.68,.06,1.37-.04,1.96-.15-1.25-.03-2.4,.03-3.61-.25l.1-.04c-1.76,.22-3.53,.63-5.44,.75-.93,.06-1.13,1.31-.9,1.33,4.03-.12,7.88,.29,11.82,.38-.45-.18-.89-.36-1.33-.54-.19-.05-.38-.11-.55-.21,.18,.07,.37,.14,.55,.21,.53,.13,1.11,.12,1.68,.27,.11,.09,.45,.11,.59-.12,.78,.2,1.72,.02,2.5,.21,.05,0,.13,.07,.22,.15,.49-.03,.99-.06,1.5-.1,2.8-.22,5.49-.37,8.16-.51-.65-.07-1.29-.17-1.87-.34-.79-.27-2.39,.17-3.77,.33-.35,.08-.56-.16-.9-.16,1.18-.7,2.74-.32,4.11-.53,1.81-.22,4.45,.04,6.32-.79,.77-.34,1.57-.24,2.28-.11-.2,.2-.66,.27-.89,.31-2.04,.32-4.08,.54-6.12,.83,2.17,.1,4.21-.36,6.4-.39-1.25,.29-2.52,.12-3.65,.64,.11,.04,.22,.08,.33,.11,.82-.04,1.66-.08,2.53-.11,.25-.14,.48-.27,.7-.39,2.06-1.2,4.96-1.2,7.48-2.25,.21-.07,.45-.39,.74-.65-.81,.3-1.65,.49-2.47,.76,.35-.03,.7-.04,1.05,.02-.76,.32-1.5,.18-2.26,.47,.4-.19,.8-.36,1.21-.49-.53,.05-1.06,.18-1.61,.26,.93-.55,2.06-.22,2.93-.97-.21,.08-.43,.14-.65,.19l.66-.2s0,0-.01,0c.64-.25,1.23-.63,1.74-1.01-1.09,.47-2.19,.52-3.27,.9-.17,.07-.35,.14-.53,.21,.18-.08,.35-.15,.53-.21,2.44-.96,5.01-1.63,7.41-2.79l.21-.15-.34-.16c-1.95,.98-4.04,1.72-6.12,2.16Z"/>
          </g>
        </g>
        <g class="cls-13">
          <g class="cls-13">
            <path class="cls-5" d="M148.85,210.98c-1.04-.38-1.82-1.56-2.99-1.23-.13,.03-.26,.06-.39,.1l.13,.12c.96,.89,2.09,1.57,3.29,1.96,.79,.13,1.75,.01,2.46,.51,.08,.05,.24-.22,.32-.35,.02-.22,.06-.44,.11-.67-.71-.19-1.46-.27-2.12-.59-.21-.13-.67,.22-.8,.15Z"/>
            <polygon class="cls-7" points="151.77 211.47 151.78 211.42 151.68 211.39 151.77 211.47"/>
            <path class="cls-4" d="M150.01,211.07c-.25-.03-.47-.11-.67-.23-.2,.06-.42,.19-.5,.14-1.04-.38-1.82-1.56-2.99-1.23-.13,.03-.25,.06-.38,.1l.14,.12c.33,.31,.68,.59,1.05,.84l.08-.02c.31-.09,.41,.24,.62,.37,.68,.13,1.09,.58,1.77,.73,.24,.06,.63-.15,.87,0,.09,.04,.17,.09,.24,.16,.4,.05,.78,.15,1.11,.38,.08,.05,.24-.21,.32-.35,.01-.11,.03-.23,.05-.35-.26-.21-.56-.36-.85-.54-.3-.06-.59-.14-.87-.23,0,.03,0,.06,0,.09Z"/>
            <path class="cls-7" d="M150.2,210.63s-.18,.16-.2,.35c.28,.1,.58,.17,.87,.23-.24-.15-.48-.32-.68-.58Z"/>
            <path class="cls-9" d="M150.74,209.67c-.47-.4-1.15-.27-1.47-.74-.17-.23-.3-.54-.38-.92-.08-.03-.15-.06-.23-.09-1.96-.6-3.84-1.25-5.61-2.25-.92-.43-1.98-.2-3.06-.12-.61-.07-.98-.54-1.52-.9-1.34-.96-2.89,.12-4.39,.38-.41,.07-.58,1.32-.49,1.34,2.45-.28,4.58,.77,6.98,1.12,1.87,.31,3.51,1.11,4.88,2.35,.13-.04,.26-.07,.39-.1,1.18-.34,1.95,.84,2.99,1.23,.12,.08,.59-.28,.8-.15,.66,.31,1.41,.4,2.12,.59,.09-.47,.21-.94,.24-1.32-.48-.05-.95-.11-1.27-.43Z"/>
            <path class="cls-6" d="M150.74,209.67c.32,.32,.79,.38,1.27,.43,.01-.18,0-.34-.04-.47-.64-1.14-2-1.24-3.08-1.62,.07,.37,.2,.69,.38,.92,.31,.47,1,.34,1.47,.74Z"/>
            <path class="cls-4" d="M150.74,209.67c.31,.31,.74,.38,1.2,.43-.09-.13-.2-.24-.33-.32-.63-.42-1.33-.69-1.87-1.29,.71,.36,1.42,.74,2.17,1.05-.67-1.04-1.98-1.14-3.02-1.52,.07,.37,.2,.69,.38,.91,.31,.47,1,.34,1.47,.74Z"/>
            <path class="cls-3" d="M149.58,209.31c.73,.54,1.47,1.03,2.38,1.25,.02-.12,.04-.24,.05-.35-.03-.04-.05-.07-.07-.11-.46-.05-.9-.12-1.2-.43-.47-.4-1.15-.27-1.47-.74-.17-.23-.3-.54-.38-.91-.07-.03-.15-.06-.22-.09-1-.31-1.98-.63-2.93-1-.97,.03-1.83-.4-2.63-.97,.41,.16,.83,.29,1.27,.39-.45-.21-.89-.43-1.32-.67-.39-.18-.81-.24-1.24-.25-.17,.25-.37,.45-.61,.46-.37,.01-.7-.12-1.12,.05-.05-.02,.03-.24-.07-.28,.26,.1,.52,.01,.78-.17-.27,.03-.55,.05-.81,.08-.48-.06-.81-.36-1.19-.66-.05,0-.1,0-.14,0-.24-.02-.5,.06-.77,.15,.09,.03,.19,.06,.28,.1-.18,.1-.37,.04-.52,0,.08-.03,.16-.06,.23-.09-.22-.07-.44-.14-.67-.22,.29,.09,.61,.03,.89-.04-.55-.1-1.07-.1-1.57-.41l.05-.03c-.83,.16-1.66,.56-2.5,.7-.41,.07-.58,1.32-.49,1.34,1.7-.2,3.28,.26,4.86,.67-.14-.21-.28-.42-.43-.62-.07-.06-.14-.13-.19-.24,.06,.08,.12,.16,.19,.24,.19,.16,.44,.19,.64,.39,.02,.09,.16,.14,.27-.06,.27,.27,.7,.19,.97,.47,.02,0,.03,.08,.04,.17,.2,.04,.41,.08,.62,.11,1.17,.19,2.25,.58,3.23,1.15-.2-.24-.38-.48-.54-.77-.19-.44-.96-.38-1.54-.47-.16,.01-.17-.25-.3-.31,.69-.47,1.19,.19,1.77,.3,.77,.2,1.58,1.14,2.54,1.04,.4-.05,.61,.33,.76,.69-.15,.09-.32,0-.41-.05-.77-.43-1.55-.84-2.4-1.09,.74,.63,1.61,.83,2.28,1.56-.5-.19-.84-.73-1.43-.59,.02,.07,.04,.14,.06,.2,.29,.21,.57,.44,.84,.68,.13-.04,.26-.07,.38-.1,1.18-.34,1.95,.84,2.99,1.23,.08,.05,.29-.08,.5-.14-.31-.18-.59-.43-.92-.58,.1,.13,.18,.29,.22,.5-.32-.11-.43-.54-.76-.64,.2,.01,.37,.06,.54,.14-.15-.2-.34-.34-.52-.5,.52-.05,.61,.73,1.19,.55-.09-.04-.17-.09-.24-.16l.25,.16h0c.27,.12,.59,.12,.9,.1-.46-.21-.73-.71-1.19-.91-.08-.02-.15-.05-.24-.07,.09,.01,.17,.04,.24,.07,1.1,.36,1.95,1.22,2.87,1.9l.11,.03,.06-.32c-.79-.53-1.55-1.14-2.27-1.8Z"/>
          </g>
        </g>
      </g>
      <g>
        <g class="cls-12">
          <path class="cls-11" d="M6.06,63.43c.8-1.16,3.4-.37,8.06,.7,17.53,4.04,27.65,6.38,37.2,4.18,9.06-2.09,10.04-6.53,21.3-8.03,6.18-.82,10.2-.06,13.49,1.75,2.99,1.65,4.6,3.74,6.83,6.66,3.38,4.41,8.11,10.57,6.35,15.65-.95,2.72-3.57,4.57-8.46,6.42-10.44,3.96-21.47,4.27-35.54,2.28-13.8-1.95-20.69-2.93-28.38-7.19-12.79-7.09-22.81-19.6-20.84-22.42Z"/>
          <path class="cls-11" d="M11.65,61.66c1.59,.37,2.82,.73,4.14,.89,.2,.02,.54-.43,.79-.37,.99,.27,2.12,.02,2.95,.82,.9,.88,1.94,1.19,3.03,1,1.04-.17,1.94,.15,2.91,.23,.32,.03,.66-.01,.88,.64,.16,.48,.61,.62,1.11-.06,.1-.13,.21,.05,.3,.14,.1,.1,.16,.45,.27,.36,1.15-.95,1.93,.09,2.92,0,.24-.03,.44,.36,.77-.37,.09-.19,.32-.18,.35,.01,.09,.51,.26,.63,.48,.67l2.87,.45c.61-.93,1.07-.41,1.56-.35,.37,.05,.7,.45,1.05,.69,.36,.24,.82-.37,1.1,.55,.04,.15,.21-.11,.32-.11,.48-.02,.99-.31,1.41,.04,.22,.18,.44,.36,.67,.38,2.95,.17,5.88,0,8.71-.62,.24-.05,.51,.02,.64-.61,.09-.5,.5-.63,.81-.23,.5,.64,.72,.27,1.02,.21,.56-.1,1.07-.37,1.62-.51,.34-.08,.48-.67,1.15,.13,.07,.08,.17,.03,.16-.07-.06-1.05,.61-.44,1.02-.51,.29-.04,.54-.18,.59-.75,.04-.56,.44-.86,.92-.55,.66,.41,.85,.04,1.17-.13,1.85-1,3.81-2.05,5.87-2.88,.96-.38,1.71-1.55,2.85-1.47,.26,.01,.45-.42,.83,.23,.08,.13,.25,0,.29-.18,.15-.68,.49-.5,.81-.54,1.49-.13,2.98,.02,4.37-.69,1.1-.56,2.25-.41,3.4-.53,.39-.04,.77,.46,1.14,.58,.37,.13,.75,.1,1.14,.11,.23,0,.43,.23,.73-.3,.17-.28,.52-.31,.61-.04,.31,.9,.83,.68,1.29,.81,1.29,.37,2.61,.78,3.79,1.45,.28,.16,.83-.02,.64,.89-.03,.12,.28-.03,.43-.03,.15,0,.43-.14,.44,.02,.11,1.41,1.16,1.41,1.8,2.04,1.49,1.5,2.84,3.01,3.92,4.65,.3,.46,1.18,.39,1.47,.84,.28,.44,.66,.8,.92,1.27,.18,.32,.74,.41,.21,1.21-.14,.22,.02,.43,.27,.39,.96-.16,.85,.48,1.2,.77,.43,.38,.27,1.12,1.33,1.12,.29,0,.02,.5,.09,.71,.14,.37,.29,.74,.52,1.06,.11,.15,.49,.17,.6,.34,.86,1.24,1.71,2.62,2.13,4.32,.43,1.71,.35,3.76-.34,5.65-.65,1.92-1.99,3.6-3.43,4.58-.52,.38-.74,1.35-1.86,.63-.09,.91-.76,.78-1.54,.26-.11-.07-.1,.31-.16,.46-.19,.44-.02,1.72-.95,.69-.03-.04-.06,.04-.1,.03-.39-.03-.08,1.3-.8,.72-.44-.36-.76,0-1.11,.09-.36,.1-.73,.17-1.03,.4-.32,.24-.91-.21-.92,.85,0,.17-.49-.39-.63-.3-.74,.48-1.81-.12-2.29,1.24-.11,.31-.42,.36-.68,.18-.93-.63-1.47-.04-2.14,.43-.87,.64-1.92,.99-3.07-.07-.24-.22-.36-.41-.5,.05-.09,.31-.33,.27-.52,.3-2.11,.35-4.24,.51-6.36,.63-.58,.02-1.15-.91-1.72-.53-.24,.15-.53-.33-.72,.48-.03,.11-.13,.18-.17,.12-.71-.93-1.41,.42-2.12,0-.15-.09-.29-.27-.44-.37-.15-.1-.32-.34-.45-.21-1.11,1.14-2.19,.2-3.29,.44-.38,.07-.74-.48-1.14,.48-.06,.14-.22,.12-.29-.02-.55-1.22-1.31-.37-1.93-.74-.32-.19-.76,.42-.96-.58-.03-.13-.17-.04-.26,.02-.16,.1-.33,.41-.47,.38-.38-.09-.74-.68-1.12-.4-.46,.35-.84,.14-1.25,.12-.23-.01-.41-.48-.63-.62-.21-.13-.45-.08-.67-.11-.32-.04-.68,.08-.95-.17-.29-.26-.68,.71-.92-.02-.19-.56-.62,.33-.93,.39-.15,.03-.3-.1-.43-.23-.1-.1-.16-.43-.27-.42-.25,.02-.45-.19-.76,.2-.22,.27-.45-.32-.7-.42-.24-.1-.51-.09-.76-.12-.25-.04-.5-.27-.76-.08-1.16,.86-2.11,.09-3.16,.06-.27,0-.63,.29-.72-.6-.02-.16-.17-.19-.26-.11-1.17,1.03-2.04-.08-3.09,.07-.75,.12-1.55,.44-2.26,.18-.69-.24-1.38-.64-2.16-.38-.64,.21-1.29,.37-1.79,.01-.48-.35-1.49,1.17-1.63-.39-.56-.16-1.14-.3-1.68-.53-.45-.2-1.06-.02-1.23-.98-.06-.35-.38-.44-.66-.25-.89,.61-1.38,.17-1.77-.51-.09-.16-.43,.16-.6,.11-.5-.16-1.01-.32-1.42-.66-1.22-.99-3.02-.85-4.34-1.62-.24-.14-.87,.28-.99,0-.7-1.73-2.6-1.63-3.45-3.04-1.21-2.05-3.31-2.85-4.82-4.45-.2-.21,.07-.95-.17-.88-.74,.21-.72-.52-1.31-.39-1.06,.22-1.11-.65-1.71-.92-.44-.2-.36-.96-1.37-.56-.15,.06-.24-.07-.22-.21,.21-1.14-1.26-.66-1.39-1.47-1.72-.2-2-1.75-3.02-2.67-.15-.14-.47-.15-.7-.23-.12-.04-.31-.05-.3-.17,.23-1.72-1.27-2.29-1.7-3.77-.13-.48-.05-1.07-.15-1.6-.09-.52-.59-1.03-.03-1.81,.18-.26-.02-.57-.17-.88-.18-.45-.24-.86-.09-1.4,.07-.26,.16-.44,.32-.69,.16-.25,.35-.45,.56-.61,.4-.29,1-.51,1.52-.42,.54,.06,1.05,.33,1.57,.69,.75,.53,.73,.7,1.02,.89,.6,.38,1.03,.35,.99,.6-.02,.18-.22,.56,.69,.47,.15-.02,.15,.09,.07,.19-.58,.7,.25,.95,0,1.62-.18,.53,.1,.79,.16,1.19,.05,.34,.61,.35,.14,1.07-.16,.24,.59,.11,.75,.26,.37,.38,.73,.77,.96,1.25,.73,1.5,2.77,1.81,3.63,3.16,1.59,.01,1.72,1.56,2.94,1.92,1.46,.42,2.24,1.57,3.49,2.18,.26,.12,.41,.29,.43,.66,.01,.25,.02,.51,.15,.62,.48,.44,1.07,.73,1.53,1.2,.25,.24,.9,0,.54,1.05-.05,.15,.09,.23,.22,.16,1.08-.57,1.21,.32,1.79,.53,.22,.08,.38,.23,.38,.69,0,.49,.4,.68,.83,.49,.33-.14,.49-.05,.71-.03,.89,.1,1.13,1.47,2.44,.7-.15,1.21,.51,1.1,1,1.04,1.9-.26,3.08,1.03,4.71,1.35,.39,.07,.62,.65,.98,.86,.38,.22,.81,.29,1.23,.35,.23,.03,.39,.47,.77-.29,.03-.06,.08-.09,.1-.07,.2,.19,.37,.55,.62,.55,.22,0,.54-.5,.79-.59,.29-.12,.56-.07,.83-.03,.26,.04,.56-.09,.62,.68,.39-.86,.59-.35,.86-.37,.25-.02,.49,.08,.73,.13l.82,.15c.28,.05,.54,.17,.83,.13,.4-.06,.82-.32,1.22-.35,.42-.03,.82,.04,1.2,.2,.49,.2,.94,.55,1.43,.79,.2,.1,.41-.1,.66-.39,.34-.38,.82-1.27,.99,.01,.03,.25,.29,.22,.45,.08,1.27-1.11,2.25,.11,3.41-.08,.48,1.03,1.15,.53,1.83,.36,.99-.25,1.94-.28,2.77,.39,.87,.7,1.83,.47,2.74,.79,.25,.09,.57-.24,.71,.63,.03,.2,.24,.16,.36,.04,.84-.81,1.54-.5,2.27,.12,.39,.33,.87,0,1.34-.29,.7-.46,1.4-.06,2.11-.03,.27,1.06,.54,0,.71-.46,.22-.6,.41-.71,.66-.72,.31-.01,.62,.19,.93-.49,.16-.35,.5-.27,.67,.09,.23,.49,.31,.26,.51-.06,.24-.38,.5,.59,.81,.54,.33-.06,.68-.61,1.02,.48,.03,.1,.13,.08,.17,0,.55-1.14,1.24,.45,1.82-.09,1.92,1.13,3.64-.15,5.48-.02,.76,.04,1.68,.71,2.3,.05,1.28-1.33,2.93-1.04,4.35-1.69,.3-.13,.49-.72,1.12,.19,.09,.13,.23,.06,.24-.08,.13-1.09,.68-.94,1.37-.51,.17,.11,.37,0,.34-.26-.08-.75,.23-.57,.44-.63,.25-.07,.81,.37,.8-.03-.03-.85,.48-.12,.77-.1,.17,.02,.23-.24,.3-.41,.04-.08-.04-.41,.03-.36,.85,.58,.57-.78,1.08-.67,.12,.02,.17-.05,.3,0,.72,.22,1.09,.29,1.33,.18,.24-.11,.35-.44,.37-.97,.61,.28,.57,.05,.46-.16-.1-.22-.26-.41,.25-.33,.37,.05,.38-.19,.15-.39-.24-.22-.35-.36-.41-.5-.07-.15-.06-.27-.02-.4,.05-.12,.06-.28,.09-.42,.02-.14,.02-.29-.1-.44-.08-.11,.76-.35,.04-.41-.26,0,.42-.4,.36-.56-.08-.22,.29-.63-.6-.61-.36,.01-.15-.28-.29-.42-.18-.18,.03-.53-.7-.48-.4,.03-.54-.23-.3-.51,.5-.58,.37-.9,.04-1.08-.32-.18-.85-.24-1.23-.38-.22-.09-.4-.13-.32-.41,.1-.39,.22-.93-.24-.89-.82,.08-.79-.4-1.04-.69-.45-.5-.74-1.14-1.24-1.64-.57-.57-.78-1.43-1.85-1.68-.57-.13-1.2-.38-.58-1.45,.07-.12-.55,.13-.63,.04-.64-.72-1.21-1.36-1.68-1.94-.1-.14,.53-1.09-.2-.53-.76,.62,.36-.94-.5-.14-.12,.12-.22,.02-.21-.12,.1-1.49-1.25-1.19-1.88-1.81-.17-.17-.56,.19-.36-.79-.46,.41-.62,.04-.85-.23-.22-.29-.51-.48-.97,.3-.35-.37-.91,.45-1.15-.75-.04-.19-.23,.07-.28-.11-.21-.61-.54,1.14-.78,.2-.15-.55-.54-.25-.82-.29-.26-.04-.54-.01-.81-.02l-.91,.02c-.31,.01-.62-.03-.92,.07-.62,.22-1.15,.99-1.82,.79-.07-.02-.17,.12-.18,.31,0,1.53-.42,.74-.7,.34-.23-.34-.42-.48-.61-.45-.54,.09-1.02,.28-1.56,.29-.33,0-.51,.55-1.03-.29-.16-.26-.39-.13-.47,.11-.36,1.11-1.12,.77-1.68,1.12-.24,.17-.52,.24-.8,.32-.21,.07-.15,.75-.6,.28-.46,1.55-1.77,1.35-2.86,2.14-1.06,.76-2.39,1.43-3.81,2.04-.36,.15-.57,.77-1.29-.01-.14-.15-.38-.02-.38,.19,0,.59-.07,.92-.57,.33-.09-.11-.23,.11-.29,.29-.16,.49-.45,.56-.89,.3-.34-.19-.71-.25-.89,.03-.47,.76-.98,1.37-1.89,.52-.11-.11-.17,.61-.32,.61-.58,0-1.06,.64-1.76-.04-.28-.28-.57,.03-.87-.02-.5-.09-.89,.53-1.45,.29-.55-.25-1.08,.03-1.63,.08-.54,.06-1.08,.08-1.62,.09-.54,.01-1.08,.05-1.61,.04l-1.59-.02c-.53-.01-1.05-.05-1.57-.08-.53-.02-1.05-.05-1.56-.12-.36-.04-.68-.19-1-.62-.81-1.1-1.89-1.1-3.33-.49-.1,.04-.2-.02-.3-.04-1.29-.18-2.6-.22-3.82-.72-.53-.22-.99-.78-1.57-.81-.38-.02-.7-.24-1.19,.31-.41,.46-.65-.52-1.19,.33-.2,.31-.54,.22-.65-.09-.38-1.03-1.07-.68-1.63-.88-.64-.23-1.32-.35-1.99-.43-.33-.04-.59-.42-1.09,.26-.25,.34-.58,0-.75-.38-.26-.57-.65-.56-1.04-.43-.84,.28-.85,.36-1.46-.37-.07-.09-.17-.11-.26-.13-.91-.21-1.75-.78-2.74-.52-.83,.22-1.54,.09-2.29-.07-.3-.06-.74,.3-.75-.73,0-.15-.17-.17-.27-.07-.85,.92-1.36,.2-1.95,.09-.57-.11-1.24,.66-1.61,.38-.1-.07-.17-.1-.24-.13-.09-.03-.14-.03-.17-.02-.01,0-.05,0-.04,.01,0,0,0,.02,0-.01v-.28s0-.57,0-.57l-.04-.57v-.42c-.03-.27-.07-.55-.13-.82-.03-.3-.09-.55-.18-.78-.03-.14-.08-.26-.14-.37-.06-.09-.04-.09-.08-.14-.02-.03-.06-.07-.04-.05,.03,.02,.03,.02,.03,.02,0,0,0,0,0,0-.19-.13-.35-.26-.49-.37-.28-.24-.47-.46-.56-.7-.19-.47,.09-1,.63-1.35,1.16-.74,2.13-.59,2.92-.45,.8,.17,1.49,.44,2.16,.44Z"/>
        </g>
        <g>
          <path class="cls-10" d="M11.1,41.81c.8-1.16,3.4-.37,8.06,.7,17.53,4.04,27.65,6.38,37.2,4.18,9.06-2.09,10.04-6.53,21.3-8.03,6.18-.82,10.2-.06,13.49,1.75,2.99,1.65,4.6,3.74,6.83,6.66,3.38,4.41,8.11,10.57,6.35,15.65-.95,2.72-3.57,4.57-8.46,6.42-10.44,3.96-21.47,4.27-35.54,2.28-13.8-1.95-20.69-2.93-28.38-7.19-12.79-7.09-22.81-19.6-20.84-22.42Z"/>
          <path class="cls-10" d="M16.38,41.39c1.57,.37,2.84,.68,4.13,.94,.2,.04,.45-.04,.7,.02,1,.24,2.05,.35,2.98,.72,1.01,.4,2.06,.65,3.09,.78,.97,.12,1.91,.35,2.85,.52,.32,.06,.64,.1,.95,.32,.23,.16,.69,.26,1.07,.15,.07-.02,.21,.04,.31,.08,.11,.04,.23,.15,.31,.14,.99-.09,1.91,.3,2.87,.42,.24,.03,.48,.16,.71,0,.06-.04,.29,0,.35,.05,.16,.15,.34,.21,.56,.24,.97,.17,1.95,.32,2.92,.47,.51-.17,1.03,0,1.54,.07,.38,.05,.75,.18,1.13,.28,.38,.09,.81-.04,1.17,.22,.06,.04,.21-.01,.32,0,.49,.03,1-.01,1.45,.09,.23,.06,.47,.11,.7,.12,3.04,.16,6.09-.02,9.05-.65,.26-.05,.51-.07,.75-.28,.18-.17,.64-.29,.87-.23,.38,.09,.67-.05,.97-.15,.57-.17,1.14-.36,1.7-.57,.34-.12,.65-.37,1.04-.27,.04,.01,.14-.04,.17-.07,.26-.39,.7-.35,1.06-.5,.27-.11,.53-.24,.75-.49,.21-.25,.65-.51,.96-.53,.41-.04,.69-.26,1-.43,1.84-1.04,3.72-2.07,5.73-2.82,.94-.35,1.84-.86,2.86-1.03,.24-.05,.48-.2,.73-.07,.05,.03,.24-.03,.3-.09,.24-.21,.52-.21,.83-.27,1.41-.22,2.84-.35,4.22-.6,1.08-.2,2.16-.21,3.24-.22,.36,0,.73,.13,1.09,.18,.35,.06,.72,.06,1.07,.1,.21,.02,.42,.1,.65-.02,.12-.06,.44-.03,.55,.05,.38,.28,.83,.29,1.26,.4,1.21,.32,2.4,.73,3.51,1.32,.27,.14,.63,.21,.75,.55,.02,.05,.21,.07,.31,.11,.11,.04,.27,.07,.33,.14,.52,.67,1.28,1.05,1.89,1.61,1.46,1.36,2.69,2.91,3.85,4.48,.32,.44,.76,.71,1.08,1.14,.3,.42,.63,.81,.92,1.24,.21,.3,.52,.55,.53,.96,0,.11,.16,.32,.27,.38,.41,.21,.57,.65,.84,.98,.31,.42,.5,.94,.96,1.27,.13,.09,.16,.39,.26,.57,.17,.33,.33,.67,.52,.99,.09,.15,.24,.27,.33,.43,.66,1.22,1.25,2.51,1.54,3.94,.3,1.44,.27,3.02-.26,4.47-.5,1.46-1.53,2.71-2.69,3.59-.43,.34-.84,.82-1.42,.82-.33,.41-.77,.54-1.24,.55-.07,0-.16,.15-.25,.23-.28,.22-.46,.66-.96,.52-.02,0-.06,.03-.09,.04-.32,.09-.39,.49-.85,.46-.29-.02-.65,.19-.98,.3-.33,.12-.68,.23-1,.38-.33,.15-.76,.14-1,.49-.04,.06-.35-.02-.5,.04-.76,.29-1.62,.35-2.31,.84-.16,.11-.44,.18-.65,.17-.73-.02-1.34,.25-2.03,.48-.9,.33-1.91,.54-2.87,.4-.21-.03-.3-.06-.48,.07-.12,.09-.35,.11-.53,.13-2.05,.33-4.11,.49-6.17,.61-.56,.02-1.09-.2-1.67-.08-.24,.04-.52-.08-.71,.12-.03,.03-.13,.05-.17,.03-.69-.23-1.38,.12-2.07,0-.15-.02-.29-.07-.43-.1-.15-.03-.32-.09-.45-.06-1.06,.28-2.14-.02-3.21,.01-.36,0-.75-.16-1.09,.06-.05,.03-.21,.02-.28-.02-.6-.34-1.3-.16-1.93-.3-.33-.07-.71,.06-.98-.21-.03-.03-.17-.02-.25-.01-.15,.02-.29,.09-.43,.06-.38-.06-.78-.24-1.12-.2-.43,.05-.81-.03-1.21-.07-.23-.02-.44-.17-.67-.22-.21-.05-.44-.06-.67-.09-.32-.04-.66-.04-.95-.14-.31-.1-.59,.12-.91-.1-.24-.17-.58,.02-.88,0-.15,0-.3-.06-.45-.1-.11-.04-.21-.13-.31-.14-.24-.02-.46-.1-.73-.03-.19,.05-.48-.13-.73-.19-.25-.05-.51-.08-.76-.11s-.52-.12-.76-.1c-1.05,.1-2.06-.2-3.08-.33-.26-.03-.58,0-.77-.24-.03-.04-.18-.07-.26-.06-1.02,.14-1.99-.26-2.99-.36-.71-.06-1.42-.08-2.13-.25-.69-.16-1.39-.38-2.08-.42-.57-.04-1.13-.1-1.65-.29-.51-.19-1.13,.08-1.55-.41-.53-.15-1.06-.31-1.59-.49-.44-.16-.92-.23-1.28-.58-.13-.13-.43-.23-.62-.23-.62,0-1.14-.26-1.63-.61-.12-.08-.32-.05-.47-.11-.46-.18-.91-.37-1.33-.62-1.27-.71-2.64-1.18-3.88-1.92-.23-.14-.57-.14-.75-.3-1.07-.99-2.45-1.57-3.51-2.53-1.55-1.41-3.29-2.58-4.82-3.99-.2-.18-.29-.51-.42-.55-.4-.15-.65-.55-.98-.69-.59-.25-.92-.77-1.38-1.14-.34-.27-.56-.71-1.02-.81-.07-.02-.17-.13-.2-.2-.27-.62-.96-.84-1.3-1.39-1.02-.7-1.68-1.78-2.47-2.72-.12-.14-.27-.24-.41-.37-.07-.06-.16-.13-.19-.2-.42-1.08-1.26-1.93-1.75-3.02-.16-.36-.26-.74-.38-1.13-.13-.38-.35-.77-.28-1.22,.03-.14-.06-.37-.12-.56-.14-.52-.07-1.09,.22-1.45,.28-.36,.66-.41,.9-.23,.19,.13,.12,.29,.14,.46,.07,.35,.18,.6,.21,.98,.04,.29,.06,.64,.36,.83,.05,.03,.08,.16,.09,.24,0,.57,.43,1.06,.56,1.58,.11,.4,.32,.71,.5,1.06,.15,.29,.42,.51,.45,.89,0,.13,.33,.3,.47,.47,.33,.42,.67,.85,.98,1.29,.95,1.34,2.28,2.32,3.35,3.55,1.01,.64,1.7,1.65,2.66,2.34,1.15,.82,2.15,1.8,3.29,2.61,.23,.17,.41,.32,.57,.53,.1,.14,.21,.29,.35,.39,.52,.42,1.07,.79,1.6,1.2,.28,.22,.69,.33,.8,.73,.02,.05,.15,.15,.23,.16,.64,.1,1.07,.6,1.6,.89,.2,.11,.39,.24,.55,.46,.18,.23,.55,.45,.85,.51,.22,.05,.39,.15,.58,.23,.78,.35,1.44,1.02,2.33,1.12,.26,.46,.8,.6,1.23,.74,1.65,.49,3.16,1.29,4.81,1.78,.4,.11,.76,.35,1.15,.5,.42,.15,.85,.25,1.28,.36,.23,.06,.47,.22,.7,.06,.02-.01,.06-.01,.08,0,.24,.09,.47,.23,.71,.27,.22,.04,.45-.04,.68-.03,.27,.01,.55,.07,.82,.13,.26,.05,.55,.07,.72,.29,.25-.18,.53-.01,.8,.02,.25,.03,.5,.09,.75,.14l.84,.16c.28,.05,.56,.12,.85,.15,.39,.04,.78,.02,1.17,.06,.41,.04,.82,.11,1.22,.2,.51,.11,1,.26,1.51,.38,.21,.05,.4,.02,.62-.03,.29-.06,.67-.25,.98,.11,.06,.07,.31,.09,.46,.07,1.14-.15,2.24,.27,3.36,.34,.58,.32,1.19,.26,1.84,.29,.95,.04,1.93,.12,2.82,.38,.95,.26,1.9,.29,2.85,.45,.27,.04,.56-.02,.77,.21,.05,.05,.25,.06,.37,.04,.79-.14,1.54-.02,2.32,.18,.41,.1,.89,.05,1.35,0,.7-.09,1.45,.04,2.17,.07,.31,.27,.56,0,.72-.1,.22-.15,.42-.17,.67-.17,.33,0,.65,.06,.98-.11,.17-.09,.53-.07,.71,.02,.24,.12,.33,.06,.55-.02,.26-.1,.53,.14,.85,.13,.35-.03,.74-.17,1.06,.09,.03,.02,.13,.02,.18,0,.63-.3,1.29,.07,1.92-.11,1.94,.19,3.84-.32,5.74-.53,.78-.1,1.62-.03,2.35-.34,1.55-.59,3.17-.86,4.72-1.4,.33-.11,.67-.36,1.05-.21,.05,.02,.2-.04,.26-.09,.41-.41,.91-.49,1.45-.53,.13,0,.35-.1,.4-.19,.13-.25,.39-.28,.61-.36,.26-.1,.66-.11,.77-.26,.24-.32,.51-.21,.77-.29,.16-.05,.3-.18,.44-.28,.07-.05,.12-.17,.17-.17,.59-.05,.87-.6,1.35-.8,.1-.04,.19-.12,.3-.16,.58-.23,.86-.37,1.13-.59,.26-.22,.52-.51,.9-1.14,.52-.15,.33-.81,.72-1.09,.14-.11,.24-.41,.22-.63,0-.89,.23-1.76,.07-2.66-.04-.18,.15-.36-.05-.57-.07-.08,.03-.42-.02-.63-.07-.3-.05-.65-.35-.88-.12-.09-.13-.38-.23-.56-.13-.25-.16-.55-.43-.75-.14-.11-.31-.43-.31-.63,0-.83-.62-1.3-1.08-1.83-.14-.16-.24-.27-.31-.49-.1-.3-.25-.7-.46-.85-.38-.26-.56-.63-.8-.97-.43-.58-.83-1.19-1.28-1.75-.52-.65-.95-1.36-1.61-1.93-.35-.31-.78-.73-.86-1.28,0-.06-.26-.12-.34-.22-.65-.8-1.31-1.57-1.98-2.27-.15-.17-.14-.54-.45-.51-.32,.04-.19-.48-.52-.38-.05,.02-.2-.11-.26-.2-.7-.95-1.86-1.37-2.87-1.92-.24-.14-.58-.14-.7-.46-.74,0-1.35-.76-2.14-.5-.49-.18-1.06-.06-1.51-.41-.07-.06-.26,0-.35-.06-.3-.19-.54,.24-.9-.02-.21-.16-.64-.09-.96-.11-.31-.02-.62,0-.92-.01l-1.02,.02c-.34,.01-.68,.02-1.02,.06-.69,.1-1.34,.34-2.05,.36-.08,0-.2,.05-.22,.1-.18,.41-.56,.26-.81,.19-.21-.06-.39-.08-.6-.04-.59,.08-1.15,.24-1.73,.33-.35,.05-.67,.26-1.05,.12-.12-.04-.38,.04-.52,.14-.64,.42-1.39,.53-2.08,.82-.31,.14-.62,.25-.94,.37-.24,.1-.4,.35-.7,.32-1,.79-2.21,1.23-3.34,1.92-1.12,.68-2.31,1.33-3.55,1.91-.31,.14-.62,.4-1,.3-.07-.02-.29,.09-.35,.15-.13,.2-.25,.32-.53,.23-.05-.02-.21,.09-.29,.16-.23,.2-.47,.28-.78,.28-.24,0-.54,.05-.74,.17-.52,.33-1.05,.56-1.68,.47-.08-.01-.23,.2-.36,.23-.51,.08-.99,.31-1.53,.21-.22-.04-.51,.08-.77,.09-.44,.02-.84,.22-1.32,.21-.48-.01-.98,.08-1.48,.12-.49,.05-.99,.07-1.48,.09-.49,.01-.99,.05-1.48,.04l-1.48-.02c-.49-.01-.98-.05-1.47-.07-.49-.02-.98-.05-1.47-.11-.34-.03-.65-.09-.99-.22-.85-.34-1.9-.43-3.21-.42-.09,0-.19-.03-.29-.04-1.25-.18-2.5-.35-3.72-.63-.53-.13-1.05-.35-1.61-.43-.36-.06-.71-.16-1.1-.08-.32,.07-.7-.24-1.09-.08-.14,.06-.48-.02-.64-.12-.52-.34-1.13-.35-1.7-.49-.65-.16-1.32-.3-1.98-.43-.32-.06-.63-.21-1-.1-.18,.06-.56-.09-.78-.23-.34-.21-.71-.26-1.06-.29-.76-.06-.76-.03-1.46-.34-.08-.04-.18-.06-.27-.08-.91-.21-1.81-.51-2.72-.59-.76-.07-1.47-.23-2.2-.39-.29-.06-.65-.03-.84-.34-.03-.04-.19-.08-.27-.06-.67,.12-1.29-.17-1.91-.3-.6-.13-1.19-.03-1.76-.17-.52-.14-1.09-.13-1.4-.09-.04,.01-.08,.02-.12,.02-.01,0-.02,0-.04-.01,0,0-.12-.17-.09-.13-.03-.04-.26-.19-.53-.37-.23-.16-.34-.29-.32-.5,.03-.19,.25-.45,.66-.59,.87-.3,1.71-.16,2.46-.04,.76,.14,1.45,.33,2.08,.43Z"/>
        </g>
        <g class="cls-13">
          <g class="cls-13">
            <path class="cls-5" d="M86.91,85.03c1.48-.05,3-.03,4.48-.04,1.47-.08,2.89-.21,4.07-.8,.25-.12,.52-.25,.8-.38h-.44c-3.29,.07-6.79,.25-10.1,.4-.97,.12-2.08,.25-3.14,.39-1.07,.11-2.18,.1-3.32-.03-.25-.03-.32,.28-.35,.43,.21,.22,.38,.45,.54,.69,.96-.01,1.9-.03,2.86-.07,.95-.06,1.91-.1,2.88-.08,.64,.02,1.34-.52,1.72-.51Z"/>
            <polygon class="cls-7" points="79.37 85.64 79.4 85.69 79.69 85.68 79.37 85.64"/>
            <path class="cls-4" d="M84.03,85.45c.63-.07,1.25-.06,1.86-.06,.4-.15,.77-.37,1.01-.36,1.48-.05,3-.03,4.48-.04,1.47-.08,2.89-.21,4.07-.8,.25-.12,.52-.24,.79-.37h-.47c-1.14,.07-2.31,.05-3.48,.11l-.18,.07c-.63,.3-1.26,.05-1.89,.08-1.78,.31-3.28,.09-5.07,.28-.64,.03-1.32,.38-2.08,.32-.26,0-.51-.02-.75-.06-1,.08-2.04,.07-3.09-.06-.25-.03-.32,.28-.36,.43,.11,.11,.21,.23,.3,.36,.87,.13,1.74,.19,2.63,.29,.78-.03,1.56-.1,2.35-.1-.03-.03-.07-.06-.12-.08Z"/>
            <path class="cls-7" d="M84.09,85.93c.11,0,.25-.22,.06-.4-.79,0-1.57,.07-2.35,.1,.75,.07,1.51,.12,2.3,.29Z"/>
            <path class="cls-9" d="M83.94,87.03c1.57,.23,3.07-.28,4.36,0,.68,.1,1.36,.28,1.97,.55,.22-.02,.44-.04,.65-.06,5.34-.65,10.53-1.83,15.68-3.09,2.58-.69,4.68-2.12,6.98-3.52,1.39-.78,2.72-.96,4.2-1.53,3.78-1.3,5.97-4.3,8.78-7.03,.77-.73,.09-1.8-.12-1.65-2.37,2.2-5,3.97-7.72,5.55-2.75,1.53-5.59,2.86-8.51,4.25-4.57,2.08-9.29,3.17-13.96,3.31-.28,.13-.55,.26-.8,.38-1.18,.59-2.61,.72-4.07,.8-1.48,.01-3,0-4.48,.04-.38-.01-1.08,.53-1.72,.51-.97-.02-1.93,.02-2.88,.08-.95,.04-1.9,.05-2.86,.07,.33,.49,.61,.98,.98,1.36,1.2-.06,2.38-.19,3.52-.01Z"/>
            <path class="cls-6" d="M83.94,87.03c-1.14-.17-2.32-.05-3.52,.01,.18,.18,.39,.34,.64,.45,2.87,.9,6.21,.43,9.21,.09-.61-.27-1.29-.44-1.97-.55-1.3-.29-2.79,.23-4.36,0Z"/>
            <path class="cls-4" d="M83.94,87.03c-1.09-.17-2.21-.06-3.36,0,.38,.1,.76,.18,1.14,.22,1.98,.17,3.98,.15,5.95,.39-2.12,.05-4.24-.01-6.38-.07,2.82,.78,6.05,.33,8.96,0-.61-.27-1.28-.44-1.96-.55-1.3-.29-2.79,.23-4.36,0Z"/>
            <path class="cls-3" d="M87.13,86.85c-.6-.03-1.19-.05-1.77-.08-.6-.04-1.18-.07-1.77-.11-.59-.03-1.19-.03-1.78-.05-.6-.03-1.19-.04-1.8-.03,.09,.13,.18,.25,.29,.36,.1,.03,.2,.06,.29,.08,1.14-.06,2.27-.17,3.36,0,1.57,.23,3.07-.28,4.36,0,.68,.1,1.35,.28,1.96,.55,.21-.02,.41-.04,.61-.05,1.37-.13,2.71-.41,4.06-.59,1.34-.26,2.69-.48,4.01-.76,2.23-.86,4.73-1.36,7.17-1.86-1.11,.34-2.22,.68-3.35,1.03,.63-.14,1.26-.28,1.9-.43,.62-.16,1.25-.31,1.89-.47,1.09-.28,2.1-.72,3.07-1.22,.11-.35,.35-.71,.88-.99,.83-.45,1.68-.8,2.45-1.42,.12-.05,.19,.18,.44,.09-.69,.26-1.17,.64-1.56,1.08,.57-.35,1.14-.7,1.71-1.05,1.11-.59,2.14-.88,3.28-1.2l.32-.2c.53-.33,1.02-.75,1.5-1.19-.23,.11-.46,.23-.7,.35,.29-.32,.76-.56,1.12-.73-.14,.13-.28,.26-.42,.38,.55-.27,1.08-.53,1.64-.85-.68,.4-1.34,.87-1.87,1.32,1.29-.7,2.36-1.5,3.69-2.07l-.07,.09c1.56-1.36,2.92-2.92,4.5-4.45,.78-.73,.09-1.8-.12-1.65-3.3,3.1-7.1,5.31-11.03,7.29,.53-.05,1.04-.15,1.57-.25,.21-.07,.43-.12,.65-.13-.21,.04-.43,.09-.65,.13-.57,.2-1.15,.52-1.8,.67-.15-.02-.5,.13-.54,.41-.87,.22-1.74,.85-2.64,1-.05,.02-.16-.01-.28-.05-.5,.24-1,.48-1.51,.73-2.87,1.28-5.77,2.22-8.7,2.75,.73-.04,1.44-.05,2.12,0,.94,.13,2.62-.76,4.07-1.34,.35-.2,.65-.05,1.02-.17-1.06,1.13-2.92,1.19-4.39,1.76-1.01,.3-2.25,.52-3.51,.73-1.27,.17-2.53,.47-3.61,.85-.89,.34-1.81,.24-2.58,.07,.25-.17,.76-.25,1.02-.27,2.3-.27,4.61-.62,6.86-1.29-2.42,.31-4.7,.89-7.13,.85,1.39-.25,2.82-.09,4.04-.73-.12-.04-.24-.06-.36-.09-.92,.13-1.85,.17-2.77,.19-.28,.13-.54,.25-.79,.37-1.18,.59-2.61,.72-4.07,.8-1.48,.01-3,0-4.48,.04-.24,0-.61,.21-1.01,.36,.96,0,1.92,.11,2.88,.06-.39-.04-.76-.16-1.11-.32,.9-.04,1.65,.22,2.55,.13-.48,.1-.96,.16-1.44,.19,.58,.08,1.2,.08,1.82,.11-1.18,.35-2.29-.23-3.48,.18,.25,0,.51,0,.76,.02l-.78-.02h.02c-.78,.01-1.55,.2-2.26,.32,1.34,0,2.56,.3,3.89,.24,.22-.03,.43-.05,.65-.08-.22,.04-.44,.06-.65,.08-3.03,.23-6.08-.14-9.05-.62h-.29s.22,.33,.22,.33c1.25,.15,2.5,.34,3.76,.45,.62,.07,1.25,.15,1.88,.22,.62,.05,1.24,.11,1.87,.16Z"/>
          </g>
        </g>
      </g>
    </g>
  </g>
</svg>