<?xml version="1.0" encoding="UTF-8"?>
<svg id="_Слой_2" data-name="Слой 2" xmlns="http://www.w3.org/2000/svg" xmlns:xlink="http://www.w3.org/1999/xlink" viewBox="0 0 228.36 252.51">
  <defs>
    <style>
      .cls-1 {
        fill: none;
      }

      .cls-2 {
        clip-path: url(#clippath);
      }

      .cls-3 {
        fill: #f3f9fb;
      }

      .cls-4 {
        fill: #f7fbfc;
      }

      .cls-5 {
        fill: #f8fcfd;
      }

      .cls-6 {
        fill: #f4fafb;
      }

      .cls-7 {
        fill: #f5fafb;
      }

      .cls-8 {
        fill: #eab7c9;
      }

      .cls-9 {
        fill: #fbfdfe;
      }

      .cls-10 {
        fill: #e29fb4;
      }

      .cls-11 {
        fill: #6e7c6e;
      }

      .cls-12 {
        opacity: .49;
      }

      .cls-13 {
        opacity: .8;
      }
    </style>
    <clipPath id="clippath">
      <rect class="cls-1" width="228.36" height="252.51"/>
    </clipPath>
  </defs>
  <g id="_лепестки" data-name="лепестки">
    <g class="cls-2">
      <g>
        <g class="cls-12">
          <path class="cls-11" d="M160.81,202.92c-11.99-.73-23.37-3.87-38.92-11.19-12.96-6.11-31.34-16.33-51.12-33.27,21.52-7.08,36.47-6.35,46.42-4.11,.64,.14,7.12,1.34,20.07,3.87,20.91,4.08,28.91,5.73,39.04,9.4,18.22,6.62,20.63,11.57,21.37,14.24,1.58,5.75-1.75,11.11-2.17,11.77-7.04,10.98-26.18,9.81-34.68,9.29Z"/>
          <path class="cls-11" d="M153.5,204.02c-2.13-.33-3.85-.7-5.59-.94-.27-.04-.68,.41-1.02,.33-1.33-.35-2.84-.21-3.96-1.15-1.22-1.01-2.56-1.49-4-1.51-1.37-.02-2.55-.55-3.81-.87-.43-.1-.86-.15-1.1-.87-.17-.53-.74-.79-1.45-.24-.14,.11-.27-.11-.37-.22-.12-.12-.16-.5-.31-.44-1.6,.62-2.51-.68-3.79-.93-.32-.06-.51-.51-1.07,.1-.14,.16-.44,.06-.46-.14-.04-.54-.22-.73-.51-.85-1.22-.5-2.42-1.05-3.61-1.61-1.01,.65-1.49-.06-2.1-.37-.47-.23-.78-.77-1.16-1.17-.38-.4-1.17-.07-1.23-1.09,0-.16-.31-.01-.44-.06-.62-.23-1.37-.24-1.77-.81-.2-.3-.41-.59-.69-.73-3.61-1.87-7.18-3.81-10.7-5.82-.31-.18-.54-.45-1.16-.14-.48,.24-1.05-.06-1.06-.6-.01-.87-.53-.83-.89-1.09-.65-.48-1.39-.81-2.03-1.3-.38-.29-1.1-.13-.92-1.22,.02-.1-.11-.18-.21-.13-.97,.55-.96-.42-1.34-.82-.27-.29-.6-.48-1.22-.3-.6,.17-1.22-.13-1.26-.76-.05-.84-.56-.91-.95-1.18l-6.88-4.74c-1.09-.74-2.68-.77-3.53-1.86-.2-.26-.71-.16-.51-.9,.04-.15-.21-.23-.4-.15-.67,.29-.82-.12-1.13-.39-.71-.62-1.35-1.29-2.08-1.9-.92-.76-1.86-1.41-3.06-2.01-.95-.47-1.77-1.07-2.54-1.66-.77-.6-1.49-1.2-2.34-1.81-.58-.42-.33-.83-.62-1.21-.29-.37-.82-.76-1.36-1.16-.33-.24-.2-.4-1.57-.81-.74-.22-1.35-.62-1.02-.67,.24-.03,.37-.08,.43-.15,.12-.04,.45-.05,.62-.08,.19-.03,.34-.07,.47-.11,.26-.09,.45-.2,.73-.28,2.04-.59,3.92-1.25,5.95-1.78,.47-.12,.64-.61,1.9-.06,.17,.08,.17-.21,.27-.33,.1-.12,.12-.39,.36-.34,1.11,.29,1.76,.25,2.37,.08,.6-.17,1.16-.46,1.79-.6l3.92-.83c1.27-.26,2.55-.47,3.83-.63,.72-.06,1.24-.89,1.95-.95,.68-.06,1.35-.24,2.04-.24,.49,0,.96-.46,1.49,.38,.15,.23,.49,.18,.61-.06,.46-.93,1.09-.51,1.65-.69,.69-.21,1.43,.28,2.07-.67,.17-.26,.56,.22,.84,.25,.49,.05,.99,.06,1.47,0,.23-.03,.46-.35,.7-.38,1.82-.24,3.67-.47,5.52-.45,1.89,.02,3.76,.27,5.63,.56,.94,.12,1.87,.29,2.8,.44,.92,.17,1.88,.4,2.74,.62,.65,.17,1.52-.37,1.87,.92,.77-.59,1.21-.06,1.56,.84,.05,.13,.32-.17,.48-.24,.51-.22,1.2-1.33,1.41,.06,0,.05,.08,0,.12,.03,.37,.26,.94-1,1.29-.1,.22,.56,.79,.45,1.22,.57,.44,.13,.89,.27,1.36,.25,.49-.03,.86,.68,1.5-.22,.1-.15,.3,.6,.51,.59,1.08-.04,1.96,1.06,3.21,.09,.29-.22,.65-.12,.85,.16,.72,1.01,1.65,.74,2.62,.6,1.28-.18,2.61-.09,3.55,1.37,.2,.31,.27,.53,.61,.15,.22-.25,.5-.13,.74-.08l7.92,1.56c.72,.14,1.2,1.22,2.01,1.02,.33-.08,.59,.47,1.01-.27,.06-.1,.2-.14,.24-.07,.69,1.1,1.84-.02,2.65,.55,.17,.12,.31,.33,.48,.47,.17,.14,.34,.42,.53,.31,1.6-.83,2.81,.32,4.24,.35,.49,.01,.88,.64,1.52-.22,.1-.13,.3-.07,.36,.08,.52,1.34,1.61,.67,2.37,1.19,.38,.26,1.03-.25,1.16,.8,.02,.13,.21,.08,.34,.04,.21-.07,.48-.33,.65-.26,.48,.18,.87,.85,1.38,.66,.64-.23,1.1,.07,1.62,.2,.3,.07,.46,.59,.73,.78,.25,.18,.56,.19,.85,.28,.41,.13,.88,.1,1.2,.43,.33,.34,.97-.52,1.19,.28,.17,.61,.85-.14,1.26-.12,.21,.01,.37,.19,.52,.36,.12,.13,.15,.48,.29,.5,.32,.05,.55,.33,1.02,.03,.32-.2,.53,.46,.82,.65,.29,.18,.63,.25,.95,.37,.32,.12,.59,.43,.96,.33,1.64-.47,2.71,.66,4.03,1.07,.34,.11,.86-.03,.79,.88-.01,.16,.17,.26,.3,.21,1.71-.58,2.55,.93,3.91,1.22,.97,.25,2.05,.27,2.87,.91,.8,.58,1.52,1.35,2.57,1.56,.85,.22,1.72,.43,2.22,1.18,.24,.36,.8,.31,1.26,.47,.46,.14,.83,.41,.59,1.22,.6,.68,1.24,1.39,1.7,2.29,.39,.71,1.12,1.45,.59,2.49-.21,.37-.03,.86,.3,1.08,1.11,.72,1.01,1.79,.6,2.76-.1,.23,.35,.5,.37,.77,.04,.8,.07,1.62-.15,2.38-.67,2.21-.4,4.59-1.41,6.69-.18,.38,.2,1.12-.15,1.38-.27,.19-.51,.41-.76,.64-.24,.2-.46,.41-.66,.63-.4,.44-.75,.93-1.09,1.42-.71,.93-1.53,1.83-2.57,2.36-.81,.31-1.55,.68-2.25,1.09-.7,.39-1.41,.72-2.09,1.13-.68,.43-1.38,.72-2.08,1.05-.35,.16-.7,.32-1.06,.46-.36,.13-.72,.23-1.09,.32-.39,.1-.99-.47-1.1-.22-.35,.82-1.13,.44-1.46,1.02-.62,1.05-1.6,.72-2.36,1.06-.57,.27-1.31-.2-1.71,.89-.06,.16-.27,.17-.4,.07-1.01-.82-1.7,.67-2.64,.35-.77,.64-1.62,.79-2.47,.84-.85,.03-1.69-.08-2.53,.08-.25,.05-.48,.3-.72,.44-.12,.07-.26,.22-.37,.14-1.52-1.17-3.06-.26-4.56-.62-.49-.12-.96-.48-1.45-.61-.49-.14-1.01,.13-1.43-.64-.13-.24-.42-.14-.63-.06-1.15,.43-1.87-1.2-1.73-3.74,.05-.92,.28-.96,.54-1.29,.5-.63,.97-1.03,1.52-.93,.42,.07,.88,.39,1.3-.48,.07-.14,.26-.1,.36,.01,.69,.82,1.54,.22,2.21,.78,.52,.42,1.01,.32,1.52,.5,.43,.15,.87-.31,1.3,.48,.15,.27,.56-.43,.86-.47,.7-.08,1.4-.16,2.11-.07,2.17,.29,4.11-1.23,6.19-1.2,.64-.69,1.36-.84,2.1-.93,.72-.13,1.47-.19,2.1-.63,.73-.58,1.5-.91,2.28-1.21,.73-.37,1.54-.63,2.17-1.15,.26-.22,.49-.32,.9-.21,.26,.07,.55,.14,.73,.06,.69-.37,1.22-.94,1.92-1.3,.33-.25,.24-.97,1.26-.47,.14,.07,.27-.08,.24-.22-.07-.3-.06-.53,0-.71,.04-.2,.12-.35,.23-.48,.22-.27,.53-.47,.69-.78,.12-.24,.32-.4,.78-.44,.52-.05,.74-.55,.54-1.02-.15-.36-.06-.56-.04-.82,.04-.52,.38-.92,.61-1.38,.22-.45,.31-.97-.22-1.56,1.22-.23,.96-.97,.73-1.47-.44-.98-.54-1.81-.64-2.67-.08-.41-.12-.86-.22-1.23-.11-.36-.23-.7-.49-1.01-.1-.15-.13-.37-.15-.61,0-.24-.03-.51-.15-.71-.21-.43-.63-.76-1.01-1.08-.22-.16-.23-.66-.92-.16-.05,.04-.11,.04-.13,0-.12-.3-.18-.72-.45-.85-.25-.12-.77,.19-1.06,.15-.37-.03-.65-.2-.93-.37-.27-.16-.65-.19-.49-.95-.7,.65-.78,.07-1.09-.04-.29-.1-.53-.3-.81-.45l-.93-.5c-.31-.17-.59-.4-.95-.47-.5-.1-1.07-.01-1.54-.14-.49-.14-.98-.34-1.41-.64-.55-.37-1.01-.9-1.56-1.3-.23-.16-.53-.04-.9,.16-.49,.26-1.25,.97-1.21-.35,0-.26-.31-.32-.54-.23-1.78,.71-2.74-.83-4.21-.96-.42-1.16-1.34-.86-2.19-.86-1.25-.01-2.49-.24-3.44-1.11-1.02-.92-2.28-.93-3.41-1.46-.32-.15-.77,.09-.84-.8-.02-.2-.29-.22-.46-.13-1.19,.61-2.07,.14-2.94-.66-.46-.43-1.14-.21-1.8-.02-.99,.27-1.87-.29-2.8-.5-.18-1.11-.72-.14-1.02,.26-.4,.53-.68,.58-1.02,.53-.43-.07-.8-.34-1.36,.23-.28,.29-.75,.12-.9-.29-.21-.54-.37-.35-.72-.09-.41,.31-.56-.72-.99-.76-.46-.04-1.09,.37-1.27-.79-.02-.1-.16-.12-.24-.05-1.06,.93-1.57-.83-2.5-.51-2.25-1.72-4.99-1.19-7.41-2.11-1-.38-1.89-1.38-3.02-1.09-2.36,.61-4.39-.53-6.59-.76-.47-.05-1.09,.33-1.29-.79-.03-.16-.24-.18-.36-.07-.88,.82-1.49,.4-2.04-.38-.13-.19-.45-.23-.61,0-.44,.66-.71,.31-1.01,.23-.37-.09-.72-.81-1.02-.5-.64,.68-.72-.23-1.05-.44-.2-.13-.49,.02-.75,.09-.12,.03-.33,.32-.37,.23-.53-1.02-1.53,.11-2.17-.39-.14-.11-.31-.12-.43-.25-1.45-1.48-1.44-1.51-3.58-1.31-.33-1.37-1.31,.39-1.76-.68-.17-.39-.61-.37-.93-.15-1.36,.95-2.51-.06-3.78,.17-.26,.05-.4-.83-.78-.15-.14,.26-.52-.54-.8-.53-.41,.03-.83-.46-1.27,.37-.18,.34-.54,.05-.81,.11-.37,.08-.75-.24-1.13,.46-.21,.38-.68,.4-.91,.06-.98-1.4-1.88-.09-2.74,.42-.26,.16-.44,.3-.74,.09-.41-.27-.97-.62-1.25-.19-.49,.77-1.03,.51-1.55,.59-.9,.18-1.83,.14-2.72,.34-1.02,.25-2.1,.05-3.04,.88-.5,.46-1.17,.94-1.98-.09-.09-.11-.22,.56-.39,.6-1.29,.25-2.56,.6-3.88,.77-.15,.02-.37-.23-.56-.36-.07-.16-.14-.2-.03,.24,.12,.47,.04,.25-.06,.06-.1-.19-.23-.35,.01,.19,.07,.16,.04,.15-.04,.05-.43-.52-.76-.52-.89-.43-.15,.09-.12,.25-.49,.19-.21-.02,.42,.3-1.13-.3,.68,.39,.14,.24-.39,.18-.5-.07-.99-.05,.62,.4-.29-.03-.23,.02-.1,.08,.25,.1,.32,.13-.9,0-.34-.03,.26,.1-.03,.08-.49-.02,.12,.09,.63,.17,.51,.08,.9,.13,.16,.12-.84,0-.15,.16-.1,.25,.06,.09,.2,.17,.3,.26l.35,.28c.11,.09,.16,.22,.36,.27,.21,.06,.53,.03,.75,0,.23-.03,.37-.05,.35,.12,0,.04,.12-.04,.23-.17,.44-.61,.72-.6,.83-.42,.11,.18,.06,.55,.06,.82-.02,.45,.06,.73,.29,.9,.63,.47,1.3,.88,1.86,1.42,.34,.32,1.02,.22,.81,1.25-.07,.32,.27,.49,.57,.44,1.37-.22,1.86,.84,2.75,1.3,.4,.21,.75,.5,1.11,.79,.27,.22,.92-.12,.85,.58,2.07-.06,3.01,1.58,4.51,2.39,1.47,.82,2.84,1.79,4.23,2.74,.35,.24,1,.09,.78,1.14-.04,.2,.23,.35,.41,.23,.5-.33,.8-.48,.65,.29-.03,.14,.25,.13,.43,.07,.5-.16,.74,.04,.85,.54,.09,.39,.32,.74,.66,.7,.92-.11,1.76-.18,1.85,1.1,.01,.16,.57-.3,.69-.19,.47,.44,1.3,.29,1.44,1.29,.06,.41,.51,.38,.74,.62,.4,.41,1.12,.19,1.48,.75,.36,.56,1.04,.65,1.58,.95l1.62,.88,1.63,.87,1.64,.85,1.64,.84c.55,.27,1.11,.54,1.65,.82,.38,.2,.69,.48,.91,1.03,.56,1.39,1.84,1.87,3.68,1.82,.13,0,.23,.1,.34,.15,1.46,.68,3,1.15,4.35,2.03,.59,.38,1.06,1.07,1.75,1.28,.45,.13,.82,.44,1.48,.03,.55-.35,.72,.7,1.48,0,.28-.26,.68-.1,.78,.24,.35,1.13,1.23,.95,1.9,1.27,.77,.36,1.58,.64,2.41,.84,.4,.1,.71,.53,1.34-.08,.31-.3,.7,.11,.9,.51,.3,.61,.78,.66,1.27,.58,1.04-.16,1.05-.26,1.79,.54,.09,.1,.21,.13,.32,.16,1.12,.32,2.19,.94,3.4,.72,1-.2,1.89-.02,2.81,.11,.36,.06,.85-.31,.99,.74,.02,.15,.23,.17,.34,.06,.94-.96,1.66-.24,2.46-.16,.78,.07,1.58-.69,2.34-.4,.71,.28,1.48,.2,2.23,.25,1.13,.09,1.34,.71,1.17,3.43-.14,2.25-.47,2.72-1.49,3.12-2.18,.86-4.22-.15-5.94-.1Z"/>
        </g>
        <g>
          <path class="cls-8" d="M168.84,183.25c-11.99-.73-23.37-3.87-38.92-11.19-12.96-6.11-31.34-16.33-51.12-33.27,21.52-7.08,36.47-6.35,46.42-4.11,.64,.14,7.12,1.34,20.07,3.87,20.91,4.08,28.91,5.73,39.04,9.4,18.22,6.62,20.63,11.57,21.37,14.24,1.58,5.75-1.75,11.11-2.17,11.77-7.04,10.98-26.18,9.81-34.68,9.29Z"/>
          <path class="cls-8" d="M161.72,182.98c-2.1-.32-3.8-.64-5.49-.98-.26-.05-.59,.01-.92-.06-1.31-.32-2.7-.53-3.91-1.03-1.33-.53-2.68-.96-4-1.27-1.26-.29-2.45-.74-3.65-1.14-.41-.13-.81-.25-1.2-.55-.28-.22-.86-.45-1.36-.43-.1,0-.26-.1-.39-.17-.14-.07-.27-.21-.38-.23-1.27-.19-2.4-.87-3.59-1.31-.3-.11-.58-.32-.91-.25-.08,.02-.37-.09-.44-.17-.18-.2-.39-.33-.67-.45-1.2-.52-2.39-1.05-3.57-1.6-.68-.04-1.29-.44-1.91-.74-.46-.22-.89-.52-1.33-.79-.44-.27-1.02-.36-1.36-.78-.05-.07-.26-.1-.39-.16-.59-.27-1.23-.5-1.74-.84-.26-.18-.52-.36-.8-.5-3.59-1.84-7.14-3.77-10.64-5.79-.3-.18-.58-.37-.97-.44-.31-.05-.86-.37-1.04-.61-.29-.39-.7-.54-1.06-.77l-2.04-1.26c-.4-.26-.91-.43-1.13-.86-.02-.04-.15-.12-.21-.13-.57-.07-.9-.52-1.32-.83-.31-.23-.63-.43-1.05-.55-.41-.12-.99-.47-1.23-.78-.33-.42-.74-.63-1.13-.89-1.16-.77-2.3-1.54-3.44-2.34-1.15-.78-2.28-1.57-3.41-2.38-1.07-.76-2.26-1.33-3.26-2.2-.24-.21-.57-.33-.69-.65-.02-.06-.24-.2-.35-.22-.38-.09-.64-.35-.96-.6-1.45-1.15-2.88-2.37-4.39-3.38-1.17-.8-2.22-1.71-3.33-2.55-.36-.29-.65-.68-1-1.01-.18-.16-.32-.29-.54-.47l-.7-.57c-.29-.23-.48-.46-.97-.68-.26-.12-.74-.5-.8-.63-.05-.11-.12-.22-.22-.33-.06-.03,.05-.03,.09-.05l.15-.04,.28-.08c.34-.11,.69-.22,1.04-.34l2.74-.85c.76-.25,1.54-.44,2.31-.66,.38-.1,.77-.32,1.17-.21,.05,.02,.25-.11,.39-.17,.14-.06,.31-.17,.43-.18,1.08,.02,2.09-.39,3.12-.63,1.25-.29,2.51-.53,3.76-.81,1.26-.25,2.53-.46,3.79-.67,.71-.09,1.31-.36,2-.45,.67-.09,1.33-.2,2.01-.25,.48-.04,.97-.19,1.43-.02,.13,.05,.47,0,.6-.06,.51-.27,1.1-.19,1.66-.27,.68-.08,1.39-.02,2.05-.26,.18-.07,.54,.04,.81,.04,.48,0,.96-.01,1.45-.04,.23,0,.45-.09,.69-.1,1.78-.07,3.57-.1,5.36-.01,1.82,.09,3.64,.28,5.44,.55,1.81,.24,3.61,.61,5.38,1,.66,.14,1.42,.11,1.97,.52,.65-.06,1.16,.15,1.65,.45,.07,.04,.28,0,.43,0,.46,0,.96-.21,1.38,.21,.02,.02,.08,.01,.12,.03,.4,.13,.76-.15,1.24,.15,.3,.19,.84,.24,1.27,.33,.45,.1,.9,.2,1.36,.26,.47,.06,.94,.31,1.43,.15,.08-.03,.38,.21,.59,.24,1.05,.14,2.07,.57,3.14,.47,.25-.02,.61,.06,.85,.16,.85,.38,1.71,.44,2.64,.53,1.23,.13,2.53,.34,3.65,.88,.24,.11,.34,.19,.62,.13,.18-.04,.47,.04,.71,.08l7.91,1.56c.72,.15,1.34,.51,2.09,.58,.31,.03,.64,.22,.93,.07,.04-.02,.17,0,.22,.02,.83,.41,1.78,.27,2.64,.55l.53,.21c.19,.06,.39,.17,.56,.17,1.41,.01,2.75,.52,4.12,.77,.47,.08,.95,.32,1.41,.19,.07-.02,.27,.03,.36,.08,.72,.48,1.64,.47,2.44,.75,.41,.15,.92,.1,1.24,.44,.04,.04,.21,.06,.32,.08,.19,.02,.39-.01,.56,.04,.48,.14,.97,.42,1.42,.46,.55,.06,1.04,.23,1.54,.38,.29,.08,.54,.28,.83,.39,.27,.11,.56,.17,.84,.26,.4,.13,.83,.22,1.2,.4,.38,.18,.77,.04,1.15,.35,.29,.24,.75,.14,1.13,.24,.19,.05,.38,.15,.55,.24,.13,.07,.24,.19,.38,.23,.3,.09,.57,.24,.93,.25,.25,0,.58,.29,.89,.42,.31,.13,.63,.24,.94,.36,.32,.12,.64,.29,.94,.35,1.35,.24,2.56,.92,3.82,1.41,.32,.13,.73,.22,.92,.54,.03,.06,.21,.14,.32,.16,1.31,.24,2.42,1.07,3.63,1.58,.85,.4,1.74,.71,2.55,1.25,.8,.49,1.57,1.08,2.38,1.51,.65,.39,1.32,.74,1.84,1.29,.52,.5,1.34,.71,1.58,1.49,.5,.57,1,1.17,1.39,1.85,.34,.56,.7,1.17,.72,1.84,0,.24,.13,.66,.25,.89,.41,.73,.47,1.53,.4,2.34-.02,.19,.1,.43,.11,.65,0,.67-.01,1.35-.13,2.01-.35,1.94-.72,3.86-1.58,5.64-.16,.33-.2,.76-.4,1.02-.29,.41-.62,.8-.94,1.18-.31,.39-.61,.79-.91,1.19-.63,.76-1.36,1.45-2.12,2.05-2.35,1.62-4.81,2.99-7.46,3.85-.35,.11-.76,.05-.91,.15-.45,.34-1.08,.35-1.47,.57-.72,.39-1.52,.48-2.27,.65-.55,.14-1.18,.1-1.66,.44-.07,.05-.26,.08-.37,.06-.86-.13-1.64,.32-2.47,.31-.77,.2-1.56,.29-2.36,.35-.8,.04-1.6,.03-2.39,.1-.23,.02-.46,.09-.69,.12-.12,.02-.25,.06-.35,.04-1.44-.27-2.92-.06-4.37-.18-.48-.04-.94-.14-1.42-.19-.48-.05-.98,0-1.42-.21-.14-.07-.42-.05-.62-.04-1.11,.06-1.9-.39-1.88-1.02,0-.23,.24-.23,.48-.3,.47-.14,.92-.22,1.48-.17,.43,.03,.9,.13,1.29-.07,.07-.03,.26-.02,.36,.02,.73,.22,1.56,.1,2.26,.25,.53,.11,1.03,.09,1.54,.14,.43,.05,.88-.07,1.31,.12,.15,.07,.57-.11,.87-.12,.71-.02,1.42-.06,2.13-.07,2.16,.01,4.24-.53,6.36-.75,.73-.28,1.49-.42,2.25-.54,.75-.17,1.51-.33,2.23-.58,.85-.35,1.7-.65,2.56-.95,.81-.38,1.68-.67,2.44-1.14,.31-.19,.57-.33,.89-.43,.21-.06,.43-.13,.63-.24,.73-.44,1.38-1,2.09-1.47,.34-.31,.6-.76,1.08-.85,.07-.01,.21-.16,.25-.25,.09-.18,.19-.34,.32-.49,.1-.17,.21-.33,.33-.48,.24-.31,.5-.61,.73-.93,.17-.25,.36-.46,.6-.69,.27-.24,.53-.74,.6-1.12,.06-.28,.16-.5,.25-.76,.36-1.03,.99-2.05,.9-3.17,.4-.48,.42-1.21,.41-1.77-.03-1.09-.08-2.16-.25-3.22-.19-1.06-.46-2.08-1.04-2.95-.13-.22-.25-.44-.38-.67-.12-.23-.25-.46-.42-.67-.33-.45-.75-.84-1.16-1.23-.23-.2-.44-.5-.75-.49-.02,0-.07-.03-.09-.05-.21-.24-.44-.5-.7-.68-.24-.16-.53-.21-.78-.35-.31-.16-.62-.36-.92-.55-.29-.19-.62-.36-.77-.65-.35,.06-.64-.25-.94-.41l-.86-.49-.98-.53c-.33-.18-.65-.37-.99-.51-.47-.19-.95-.34-1.42-.54-.49-.22-.99-.43-1.47-.67-.6-.3-1.18-.65-1.79-.94-.25-.12-.49-.16-.78-.19-.37-.04-.89,0-1.2-.46-.06-.09-.37-.2-.56-.23-1.47-.2-2.76-1-4.17-1.4-.68-.5-1.47-.61-2.28-.81-1.19-.3-2.44-.65-3.55-1.13-1.18-.51-2.4-.77-3.6-1.14-.34-.11-.73-.12-.97-.4-.05-.06-.32-.12-.47-.12-1.04-.04-1.99-.34-2.97-.72-.52-.21-1.14-.25-1.76-.31-.92-.09-1.87-.39-2.81-.6-.35-.35-.72-.16-.96-.09-.31,.09-.58,.06-.91,0-.43-.09-.84-.22-1.29-.14-.23,.04-.71-.08-.92-.22-.29-.18-.41-.15-.72-.13-.35,.02-.65-.29-1.08-.36-.45-.08-1.01-.06-1.35-.41-.03-.03-.17-.06-.24-.05-.89,.1-1.65-.46-2.51-.51-2.44-.8-5.03-1.05-7.52-1.64-1.03-.25-2.04-.65-3.08-.73-2.2-.16-4.33-.76-6.49-1.12-.46-.08-1.01-.06-1.36-.4-.05-.05-.26-.08-.36-.07-.73,.11-1.38-.1-2.03-.39-.16-.07-.47-.13-.58-.08-.32,.12-.64-.01-.94-.08-.37-.08-.82-.33-1.06-.28-.51,.1-.73-.16-1.08-.27-.22-.06-.47-.06-.71-.08-.11,0-.27,.05-.32,.01-.68-.36-1.46-.18-2.15-.41-.15-.05-.31-.08-.46-.13-1.63-.61-1.62-.63-3.76-.9-.52-.42-1.28-.08-1.87-.41-.22-.12-.67-.16-.96-.14-1.3,.1-2.58-.25-3.87-.27-.27,0-.46-.23-.81-.08-.13,.06-.56-.17-.86-.18-.43,0-.87-.14-1.3,.06-.18,.08-.55,0-.84,0-.39,0-.78-.07-1.17,.11-.21,.1-.71,.1-.95,.02-1.01-.36-1.94,.01-2.86,.16-.28,.05-.47,.09-.77,.05-.42-.05-.97-.1-1.28,.02-.55,.22-1.1,.19-1.64,.24l-2.84,.32c-1.07,.17-2.15,.24-3.22,.57-.57,.18-1.32,.41-2,.24-.08-.02-.3,.18-.47,.22-1.35,.23-2.68,.57-4.02,.81-.31,.06-.71-.14-.94,.15-.24,.31-.68-.07-.86,.27-.03,.05-.31,.11-.46,.12-1.64,.07-3.17,.75-4.76,1.12-.38,.09-.78,.31-1.14,.17-1.05,.61-1.7,.23-1.47,.61-.07,0-.11,.02-.14,.03l-.03,.02,.07,.04c.09,.06,.09,.08-.03,.17-.03,.03,.11,.06,.09,.1-.02,.08,.11,.09,.2,.08,.05,0,.09,0,.11,0,.05,.03,.16,.14,.21,.26,.15,.3,.63,.6,.97,.9,.31,.28,.64,.53,.97,.79l1.07,.87c.36,.29,.71,.59,1.08,.86,.74,.55,1.57,.97,2.28,1.6,.08,.07,.23,.15,.29,.14,.48-.1,.73,.35,.91,.63,.16,.24,.31,.41,.54,.59,.63,.49,1.28,.94,1.9,1.43,.37,.29,.84,.49,1.06,.95,.07,.14,.38,.35,.58,.44,.94,.39,1.7,1.1,2.54,1.66,.38,.25,.75,.53,1.12,.8,.28,.21,.66,.27,.86,.6,1.57,.71,2.88,1.87,4.34,2.78l4.3,2.79c.36,.23,.82,.39,1.01,.8,.04,.08,.3,.24,.41,.24,.29,.02,.48,.05,.62,.35,.03,.06,.25,.15,.37,.18,.35,.1,.61,.27,.87,.54,.2,.21,.51,.45,.77,.55,.71,.26,1.38,.51,1.88,1.12,.06,.07,.37,.06,.5,.15,.53,.36,1.17,.57,1.62,1.06,.19,.2,.55,.34,.82,.52,.47,.31,.99,.46,1.47,.81,.48,.36,1.08,.62,1.63,.92l1.65,.9,1.66,.88,1.67,.87,1.67,.86,1.68,.83c.39,.2,.74,.41,1.09,.69,.91,.71,2.15,1.29,3.76,1.8,.12,.04,.23,.1,.34,.16,1.48,.69,2.99,1.3,4.45,2,.64,.3,1.25,.69,1.93,.95,.45,.17,.86,.37,1.36,.4,.42,.02,.85,.44,1.36,.39,.19-.02,.6,.14,.79,.28,.61,.48,1.38,.65,2.09,.92,.82,.31,1.64,.6,2.47,.86,.41,.12,.79,.33,1.27,.28,.23-.03,.7,.2,.98,.37,.43,.26,.9,.38,1.35,.46,.97,.17,.97,.14,1.86,.53,.11,.05,.23,.08,.34,.11,1.16,.33,2.34,.69,3.5,.84,.97,.1,1.9,.31,2.85,.47,.38,.07,.83,.04,1.11,.34,.04,.05,.25,.08,.35,.06,.84-.15,1.67,.15,2.5,.24,.81,.09,1.56-.01,2.38,.12,.77,.13,1.56,.18,2.34,.23,1.19,.09,1.43,.26,1.39,.94-.04,.56-.35,.66-1.33,.71-2.09,.11-4.14-.33-5.81-.5Z"/>
        </g>
        <g class="cls-13">
          <g class="cls-13">
            <path class="cls-5" d="M164.06,199.6c-2.18-.18-4.38-.72-6.5-1.12-2.11-.47-4.16-.82-6.06-.85-.41-.01-.84-.02-1.28-.04l.62,.2c4.66,1.46,9.9,2.52,14.88,2.87,3.1,.11,6.25-.19,9.64,.08,.38,.03,.44-.28,.47-.43-.33-.22-.6-.46-.85-.69-1.38,0-2.75,.05-4.14,.04-1.39-.03-2.78-.09-4.2-.21-.93-.14-2.01,.26-2.57,.17Z"/>
            <polygon class="cls-7" points="175.09 199.64 175.04 199.6 174.62 199.6 175.09 199.64"/>
            <path class="cls-4" d="M168.32,199.62c-.93,0-1.83-.05-2.73-.19-.6,.07-1.17,.21-1.53,.16-2.18-.18-4.38-.72-6.5-1.12-2.11-.47-4.16-.82-6.06-.85-.41-.01-.83-.02-1.27-.04l.66,.21c1.61,.54,3.3,.94,5.02,1.36,.1,0,.19,0,.29,0,1-.01,1.86,.37,2.79,.54,2.68,.28,4.89,.75,7.58,.91,.96,.03,2-.24,3.13-.11,.39,.03,.76,.07,1.12,.13,1.5-.03,3.02-.05,4.6,.09,.38,.03,.44-.28,.47-.44-.17-.12-.33-.24-.47-.36-1.27-.14-2.55-.2-3.85-.3-1.13,0-2.27-.05-3.42-.11,.04,.03,.1,.06,.17,.09Z"/>
            <path class="cls-7" d="M168.25,199.14c-.16-.02-.38,.19-.1,.39,1.15,.06,2.29,.11,3.42,.11-1.09-.1-2.2-.26-3.32-.5Z"/>
            <path class="cls-9" d="M168.53,198.06c-2.2-.31-4.35-.22-6.12-.71-.93-.26-1.82-.65-2.59-1.07-.3-.04-.6-.08-.9-.12-7.43-.91-14.77-2.63-21.68-5.25-3.5-1.22-6.89-1.93-10.56-3-2.12-.8-3.65-1.82-5.55-2.96-4.71-2.85-9.5-3.87-14.58-6.42-1.37-.67-2.2,.29-1.88,.49,4.23,2.26,8.29,4.48,12.43,6.57,4.16,2.03,8.4,3.93,12.92,5.45,7.01,2.34,13.61,4.45,20.21,6.55,.44,.01,.87,.02,1.28,.04,1.9,.03,3.94,.38,6.06,.85,2.12,.4,4.32,.95,6.5,1.12,.56,.08,1.65-.31,2.57-.17,1.42,.12,2.81,.17,4.2,.21,1.39,.01,2.77-.04,4.14-.04-.53-.49-.95-.99-1.49-1.36-1.68,.11-3.36,.12-4.96-.18Z"/>
            <path class="cls-6" d="M168.53,198.06c1.6,.3,3.28,.28,4.96,.18-.27-.18-.56-.34-.91-.45-3.99-.98-8.56-.92-12.76-1.51,.76,.43,1.66,.81,2.59,1.07,1.78,.49,3.93,.4,6.12,.71Z"/>
            <path class="cls-4" d="M168.53,198.06c1.53,.28,3.13,.29,4.73,.19-.53-.1-1.07-.18-1.61-.22-2.77-.3-5.58-.49-8.26-1.17,2.93,.4,5.88,.71,8.85,.84-3.91-.89-8.34-.84-12.41-1.42,.76,.42,1.65,.81,2.58,1.07,1.78,.49,3.93,.4,6.12,.71Z"/>
            <path class="cls-3" d="M164.02,197.75c.83,.14,1.66,.28,2.48,.42,.83,.12,1.67,.2,2.51,.29,1.68,.19,3.38,.26,5.09,.23-.14-.13-.28-.25-.43-.36-.14-.03-.28-.06-.42-.08-1.6,.1-3.2,.09-4.73-.19-2.2-.31-4.35-.22-6.12-.71-.93-.26-1.82-.64-2.58-1.07-.28-.04-.56-.08-.85-.12-1.9-.2-3.78-.56-5.67-.85-1.87-.37-3.75-.73-5.6-1.18-3.31-.42-6.79-1.46-10-2.81,1.55,.53,3.13,.96,4.72,1.36-.86-.27-1.73-.55-2.59-.82-.86-.3-1.7-.62-2.55-.93-1.48-.51-2.94-.94-4.41-1.35-.39,.17-.94,.24-1.77,.02-1.29-.35-2.48-.88-3.85-1.11-.17-.07-.05-.28-.39-.42,.96,.41,1.81,.57,2.59,.61-.9-.25-1.81-.5-2.72-.75-1.67-.61-2.96-1.42-4.38-2.24-.17-.06-.33-.13-.49-.2-.81-.34-1.67-.6-2.54-.84,.32,.16,.65,.33,.99,.5-.59-.12-1.26-.46-1.76-.71,.26,.07,.51,.14,.77,.21-.77-.39-1.52-.75-2.32-1.21,.97,.55,2.08,.9,2.99,1.19-1.88-.83-3.6-1.61-5.3-2.71l.16,.03c-2.68-1.05-5.44-1.98-8.25-3.4-1.37-.67-2.2,.29-1.88,.49,5.89,3.17,11.48,6.26,17.43,8.9-.61-.44-1.2-.91-1.81-1.37-.27-.17-.53-.36-.75-.57,.25,.19,.5,.38,.75,.57,.74,.48,1.64,.85,2.45,1.35,.13,.15,.64,.38,.94,.26,1.11,.7,2.6,1.12,3.74,1.76,.07,.03,.17,.14,.28,.27,.77,.28,1.54,.55,2.33,.83,4.41,1.44,8.57,2.8,12.76,4.17-.97-.43-1.9-.88-2.73-1.34-1.12-.67-3.76-1.21-5.96-1.84-.56-.13-.8-.48-1.33-.69,2.08,.08,4.37,1.27,6.57,1.88,1.46,.37,3.16,1.03,4.93,1.58,1.77,.52,3.58,1.06,5.23,1.17,1.36,.09,2.54,.65,3.56,1.12-.43,.08-1.15-.12-1.52-.21-3.29-.8-6.55-1.69-9.83-2.58,3.3,1.31,6.67,1.97,10.03,3.12-2.04-.43-3.93-1.21-5.9-1.38,.14,.1,.29,.19,.44,.28,1.3,.44,2.61,.84,3.92,1.24,.44,.01,.86,.02,1.27,.04,1.9,.03,3.94,.38,6.06,.85,2.12,.4,4.32,.95,6.5,1.12,.36,.05,.92-.08,1.53-.16-1.39-.22-2.78-.44-4.17-.65,.55,.17,1.07,.33,1.55,.57-1.33-.1-2.35-.65-3.67-.8,.72,.04,1.42,.12,2.12,.23-.82-.25-1.7-.43-2.57-.64,1.75,0,3.22,.92,5.02,.71-.37-.04-.73-.1-1.09-.17l1.11,.17h-.02c1.12,.12,2.26,.14,3.29,.08-1.94-.19-3.63-.74-5.52-.98l-.94-.11c.32,.02,.63,.06,.94,.11,4.33,.43,8.63,1.3,12.98,1.65h.42s-.34-.33-.34-.33c-1.8-.15-3.61-.31-5.39-.59-.89-.13-1.78-.27-2.67-.4l-2.61-.52Z"/>
          </g>
        </g>
        <g class="cls-13">
          <g class="cls-13">
            <path class="cls-5" d="M97.82,174.32c-.47-.27-.42-1.23-1.27-.94-.09,.02-.18,.06-.27,.09l.02,.09c.17,.73,.55,1.24,1.1,1.52,.42,.08,1.08-.05,1.31,.32,.03,.04,.25-.18,.37-.29,.11-.17,.24-.35,.37-.53-.37-.13-.81-.17-1.08-.41-.07-.1-.52,.2-.56,.14Z"/>
            <polygon class="cls-7" points="99.44 174.62 99.47 174.58 99.41 174.56 99.44 174.62"/>
            <path class="cls-4" d="M98.5,174.36c-.15-.01-.24-.08-.31-.17-.15,.06-.34,.17-.37,.13-.47-.27-.42-1.23-1.27-.94-.09,.02-.18,.05-.27,.09l.03,.1c.06,.25,.14,.48,.25,.68h.06c.23-.1,.14,.17,.21,.27,.35,.09,.4,.44,.75,.54,.12,.04,.46-.14,.54-.02,.04,.03,.06,.07,.08,.12,.23,.03,.42,.09,.53,.26,.03,.04,.25-.18,.37-.29,.06-.09,.12-.18,.19-.28-.07-.16-.2-.26-.3-.4-.16-.04-.31-.09-.45-.16-.02,.02-.03,.05-.04,.07Z"/>
            <path class="cls-7" d="M98.82,174s-.19,.13-.28,.28c.13,.07,.29,.12,.45,.16-.09-.11-.16-.24-.17-.45Z"/>
            <path class="cls-9" d="M99.59,173.21c-.12-.31-.61-.19-.6-.57,0-.18,.05-.44,.17-.75-.04-.03-.07-.05-.1-.07-.95-.48-1.8-1.01-2.41-1.9-.36-.38-1.05-.21-1.67-.17-.31-.08-.31-.52-.46-.87-.33-.93-1.56-.1-2.4-.05-.23,.01-.82,1.12-.78,1.15,1.3,.08,1.99,1.14,3.16,1.48,.91,.3,1.52,.99,1.78,2,.09-.03,.19-.07,.27-.09,.85-.3,.8,.66,1.27,.94,.04,.06,.49-.24,.56-.14,.27,.23,.71,.28,1.08,.41,.28-.38,.56-.75,.75-1.05-.29-.03-.56-.06-.62-.32Z"/>
            <path class="cls-6" d="M99.59,173.21c.06,.25,.33,.29,.62,.32,.09-.15,.16-.27,.19-.37,.09-.9-.74-.96-1.24-1.27-.12,.31-.18,.56-.17,.75-.01,.38,.48,.26,.6,.57Z"/>
            <path class="cls-4" d="M99.59,173.21c.06,.24,.31,.28,.58,.31,0-.1-.02-.18-.07-.25-.22-.32-.55-.52-.62-1.01,.29,.29,.57,.58,.92,.81,.03-.82-.77-.89-1.25-1.18-.12,.31-.17,.56-.17,.74-.01,.38,.48,.26,.6,.57Z"/>
            <path class="cls-3" d="M99.02,172.94c.22,.43,.47,.8,.96,.95,.07-.1,.13-.19,.19-.28,0-.03,0-.06,0-.08-.27-.03-.53-.07-.58-.31-.12-.31-.61-.19-.6-.57,0-.18,.05-.44,.17-.74-.04-.02-.07-.05-.1-.07-.48-.24-.94-.5-1.36-.82-.6,.03-.92-.34-1.14-.84,.18,.14,.36,.26,.58,.35-.18-.18-.34-.38-.49-.59-.15-.16-.36-.22-.6-.24-.2,.22-.4,.39-.53,.39-.21,0-.34-.12-.64,.01-.02-.02,.11-.21,.08-.25,.1,.1,.28,.03,.5-.12-.16,.01-.33,.03-.48,.04-.24-.07-.3-.35-.38-.64-.03,0-.05-.01-.07-.02-.12-.03-.29,.02-.47,.09l.11,.1c-.14,.08-.21,.01-.27-.04l.16-.06c-.09-.08-.17-.16-.26-.24,.11,.1,.31,.07,.49,.03-.25-.13-.52-.16-.65-.48l.04-.03c-.49,.07-1.07,.35-1.54,.37-.23,0-.82,1.12-.78,1.15,.9,.05,1.52,.59,2.2,1.02,.01-.2,.02-.39,.02-.57-.01-.06-.02-.13,0-.23,0,.07,0,.15,0,.23,.04,.15,.16,.19,.18,.38-.03,.08,.03,.13,.17-.05,.03,.25,.3,.19,.33,.44,0,0-.02,.07-.05,.15,.1,.04,.19,.08,.3,.11,.56,.19,1.02,.53,1.34,1-.01-.2-.02-.41,.02-.66,.08-.38-.39-.32-.68-.41-.1,.01,0-.22-.04-.27,.58-.4,.59,.18,.88,.28,.36,.18,.43,.97,1.04,.87,.26-.05,.22,.27,.15,.56-.13,.08-.19,0-.22-.03-.27-.34-.55-.69-.94-.9,.16,.54,.58,.69,.66,1.29-.21-.15-.18-.6-.58-.48-.02,.06-.04,.12-.05,.17,.08,.17,.14,.36,.2,.56,.09-.03,.18-.06,.27-.09,.85-.3,.8,.66,1.27,.94,.03,.04,.22-.07,.37-.13-.11-.14-.18-.33-.31-.45,0,.1-.02,.23-.09,.4-.15-.08-.02-.43-.18-.51,.12,0,.2,.05,.27,.1,0-.16-.06-.27-.1-.4,.34-.05,.05,.58,.49,.42-.04-.03-.06-.07-.08-.12l.08,.12h0c.11,.09,.32,.08,.52,.06-.19-.16-.14-.56-.33-.71-.04-.02-.08-.04-.12-.05,.05,0,.08,.03,.12,.05,.52,.28,.68,.94,.96,1.46l.06,.02,.19-.25c-.27-.4-.48-.86-.63-1.39Z"/>
          </g>
        </g>
      </g>
      <g>
        <g class="cls-12">
          <path class="cls-11" d="M21.81,71.17c.99-12.73,51.08-14.68,62.85-15.14,4.19-.16,6.58,.47,7.86,1.58,2.51,2.17,4.58,4.52,5.71,5.56,1.83,1.69,3.04,2.97,3.98,4.09,.44,.53,1.11,1.31,1.88,2.41,2.04,2.9,3.07,4.36,2.99,6.28-.07,1.79-1.03,3.14-1.5,3.79-.98,1.37-2.12,2.08-2.93,2.57-4.47,2.73-6.68,4.17-8.39,4.66-4.6,1.32-8.5,.88-10.48,.65-10.57-1.25-17.13,2.69-25.13,3.4-16.75,1.47-37.5-11.44-36.84-19.85Z"/>
          <path class="cls-11" d="M22.94,65.63c1.28-1.12,2.45-1.71,3.51-2.45,.17-.11,.13-.69,.36-.79,.92-.42,1.68-1.27,2.79-1.07,1.2,.23,2.16-.03,2.95-.72,.75-.66,1.66-.8,2.49-1.17,.28-.12,.54-.31,1.01,.18,.34,.36,.77,.3,.9-.53,.02-.16,.2-.04,.31,0,.12,.05,.32,.34,.37,.22,.58-1.35,1.68-.69,2.49-1.15,.2-.12,.51,.17,.54-.63,0-.21,.21-.28,.31-.12,.27,.44,.46,.5,.66,.45,.89-.21,1.8-.37,2.7-.53,.26-1.08,.84-.72,1.32-.79,.36-.06,.77,.23,1.15,.37,.39,.14,.67-.56,1.15,.26,.08,.13,.17-.15,.27-.19,.44-.14,.86-.53,1.33-.26,.24,.14,.48,.27,.7,.24,2.79-.38,5.57-.71,8.36-1.04,.24-.03,.49,.07,.68-.54,.15-.48,.59-.54,.83-.1,.39,.71,.65,.38,.95,.39,.56,.03,1.1-.15,1.66-.11,.33,.02,.65-.53,1.03,.47,.04,.1,.14,.08,.17-.01,.28-1.01,.7-.22,1.08-.12,.27,.07,.53,.04,.78-.47,.24-.49,.71-.6,1.01-.12,.4,.64,.7,.4,1.03,.38,1.92-.09,3.84-.2,5.75-.38,.9-.09,1.75-1.03,2.69-.72,.22,.07,.44-.32,.67,.38,.05,.14,.22,.05,.28-.13,.22-.65,.48-.42,.76-.4,1.29,.08,2.6,.39,3.83-.26,.96-.51,1.92-.34,2.89-.52,.34-.06,.7,.41,1.05,.51,.34,.09,.68,.06,1.02,.02,.21-.02,.4,.19,.63-.36,.12-.3,.44-.37,.55-.11,.34,.87,.8,.59,1.24,.67,.61,.12,1.24,.24,1.89,.44,.66,.21,1.35,.5,1.94,.91,.25,.17,.74,.14,.62,.75-.01,.08-.04,.16-.08,.25-.04,.12,.26,.02,.4,.02,.14,0,.41-.09,.39,.05-.21,1.33,.78,1.37,1.28,1.93,1.22,1.33,2.54,2.56,3.67,3.8,.34,.37,1.17,.14,1.5,.52,.31,.36,.71,.65,1,1.04,.2,.28,.75,.27,.31,1.11-.12,.23,.05,.4,.29,.32,.91-.3,.85,.32,1.21,.54,.44,.29,.31,1.03,1.34,.85,.28-.05,.05,.46,.14,.64,.16,.32,.35,.61,.6,.86,.12,.12,.47,.06,.59,.17,.89,.9,1.83,1.71,2.69,3.06,1.01,1.6,1.36,3.56,1.05,5.4-.15,.92-.42,1.83-.84,2.67-.46,.92-.88,1.49-1.4,2.09-.4,.46-.43,1.5-1.68,1,.07,.92-.65,.92-1.48,.5-.12-.06-.05,.31-.1,.46-.13,.46,.2,1.7-.78,.74-.04-.04-.04,.04-.08,.04-.35,0,.19,1.24-.55,.74-.46-.31-.66,.07-.95,.19-.29,.13-.6,.25-.81,.51-.22,.27-.85-.07-.59,.94,.04,.17-.53-.3-.63-.19-.52,.6-1.62,.2-1.72,1.6-.03,.32-.29,.44-.58,.32-1.03-.43-1.39,.26-2.11,.86-.2,.19-.56,.4-.76,.5-.22,.12-.46,.2-.71,.23-.5,.05-1.05-.09-1.62-.63-.24-.23-.36-.41-.47,.06-.08,.31-.32,.27-.5,.3-2.02,.32-4.08,.37-6.09,.23-.55-.04-.96-1.04-1.52-.74-.23,.12-.44-.4-.69,.4-.04,.11-.12,.17-.16,.1-.49-.98-1.19,.27-1.72-.14-.12-.09-.23-.27-.35-.37-.12-.1-.26-.34-.37-.21-.92,1.1-1.8,.27-2.7,.59-.29,.12-.67-.38-.86,.62-.03,.15-.16,.15-.23,.02-.63-1.14-1.11-.15-1.68-.4-.3-.12-.52,.57-.91-.35-.05-.12-.15,0-.21,.08-.1,.14-.17,.47-.29,.47-.33,0-.78-.45-1.01-.09-.28,.46-.64,.35-.98,.46-.19,.06-.48-.33-.7-.39-.21-.05-.39,.06-.58,.11-.28,.07-.53,.3-.84,.15-.33-.15-.3,.89-.77,.29-.36-.45-.4,.52-.63,.69-.12,.08-.28,0-.44-.06-.12-.05-.3-.34-.38-.29-.2,.11-.45-.02-.57,.46-.08,.33-.49-.13-.74-.14-.24-.01-.46,.1-.69,.15-.23,.06-.52-.08-.68,.2-.7,1.21-1.8,.81-2.74,1.12-.24,.08-.48,.47-.84-.35-.06-.15-.21-.13-.26-.03-.37,.68-.85,.8-1.35,.81-.49,.01-.99-.09-1.47,.1-.67,.3-1.36,.79-2.08,.68-.7-.09-1.4-.36-2.08,.03-.57,.33-1.14,.58-1.66,.32-.5-.25-1.21,1.4-1.55-.12-.54-.06-1.08-.09-1.59-.25-.43-.13-.96,.18-1.22-.75-.09-.33-.39-.37-.62-.13-.73,.78-1.22,.4-1.65-.18-.1-.14-.37,.24-.52,.22-.47-.06-.94-.13-1.35-.37-1.22-.72-2.82-.21-4.14-.68-.24-.08-.75,.46-.9,.2-.88-1.52-2.62-1.02-3.6-2.21-1.39-1.72-3.45-2.05-5.07-3.31-.21-.17-.05-.93-.26-.82-.68,.35-.74-.36-1.28-.14-.98,.4-1.13-.42-1.72-.6-.44-.13-.45-.86-1.38-.33-.14,.08-.24-.04-.23-.18,.09-1.12-1.28-.47-1.49-1.24-1.7,.02-2.12-1.49-3.18-2.34-.16-.13-.47-.12-.71-.19-.12-.04-.32-.03-.31-.15,.16-1.76-1.38-2.28-1.78-3.83-.13-.46-.01-1.1-.08-1.59-.08-.48-.51-1.01,.09-1.66,.18-.19,.02-.48-.11-.7-.17-.3-.21-.61-.12-.89,.11-.3,.34-.56,.66-.76,.65-.41,1.69-.52,2.95-.42,.92,.07,.97,.23,1.31,.38,.33,.14,.6,.25,.78,.36,.2,.11,.31,.22,.29,.36-.04,.21-.22,.56,.67,.49,.15-.01,.14,.08,.05,.17-.6,.63,.15,.83-.12,1.42-.23,.49,.05,.7,.08,1.06,.02,.32,.57,.27,.09,.97-.16,.24,.56,.05,.71,.18,.37,.3,.68,.64,.92,1.05,.73,1.32,2.65,1.3,3.54,2.41,1.48-.28,1.71,1.15,2.87,1.26,1.39,.09,2.21,1.03,3.42,1.34,.25,.06,.41,.18,.46,.54,.04,.24,.08,.48,.21,.56,.5,.3,1.06,.49,1.54,.81,.26,.18,.81-.2,.62,.89-.03,.15,.11,.19,.22,.1,.9-.78,1.14,.05,1.69,.12,.21,.03,.37,.14,.44,.58,.07,.47,.45,.58,.82,.3,.28-.21,.44-.16,.64-.18,.81-.08,1.23,1.19,2.31,.17,.03,1.2,.61,.97,1.06,.81,1.7-.61,2.94,.46,4.44,.5,.35,0,.63,.56,.98,.69,.36,.15,.75,.15,1.14,.15,.2,0,.41,.38,.64-.43,.02-.06,.06-.1,.08-.08,.2,.15,.39,.48,.61,.44,.19-.04,.4-.58,.59-.73,.23-.17,.46-.18,.69-.18,.22-.01,.46-.18,.63,.55,.18-.92,.43-.46,.65-.53,.21-.07,.41-.02,.62-.02l.69-.04c.23-.01,.47,.05,.69-.06,.3-.16,.57-.53,.87-.65,.31-.13,.64-.18,.98-.14,.43,.05,.89,.27,1.35,.33,.19,.03,.3-.22,.4-.57,.14-.46,.22-1.45,.79-.3,.11,.23,.31,.11,.39-.07,.63-1.45,1.84-.66,2.74-1.25,.77,.78,1.17,.08,1.68-.32,.76-.59,1.66-.96,2.66-.6,1.04,.37,1.91-.14,2.89-.07,.27,.02,.51-.37,.86,.43,.08,.18,.27,.1,.36-.05,.65-.98,1.46-.83,2.3-.31,.44,.27,.88-.12,1.34-.48,.69-.52,1.48-.16,2.22-.17,.3,1.06,.57,0,.75-.44,.24-.6,.46-.7,.73-.7,.35,0,.68,.2,1.07-.45,.2-.33,.6-.21,.75,.17,.21,.51,.32,.29,.59,0,.16-.18,.28-.02,.41,.19,.1,.2,.2,.45,.34,.44,.3-.02,.66-.51,.8,.6,.01,.1,.1,.09,.14,.01,.58-1.08,.96,.57,1.48,.09,.72,.64,1.49,.67,2.22,.55,.74-.12,1.43-.36,2.19-.29,.31,.03,.66,.2,1.01,.29,.17,.04,.34,.06,.49,.03,.08-.02,.15-.04,.21-.09,.04-.04,.07-.09,.09-.16,.34-1.2,1.92-1.26,3.07-2.18,.25-.2,.3-.8,1.09-.04,.11,.11,.23,.02,.21-.13-.1-1.08,.45-1.06,1.21-.75,.18,.08,.36-.06,.28-.31-.21-.73,.14-.6,.34-.7,.23-.12,.86,.25,.8-.15-.12-.85,.48-.19,.73-.17,.15,0,.15-.23,.17-.39,.01-.08-.13-.37-.06-.33,.39,.28,.46,.09,.46-.12,0-.22-.07-.47,.15-.43,.1,.02,.12-.04,.24,0,1.25,.38,1.62-.13,1.35-.93,.64,.17,.56-.02,.4-.18-.14-.17-.35-.3,.17-.31,.38-.01,.33-.22,.08-.34-.55-.27-.62-.41-.61-.61,.01-.19,.08-.42-.15-.54-.09-.03,.67-.46-.02-.26-.13,.04-.03-.03,.07-.18,.1-.14,.2-.33,.15-.39-.15-.18,.1-.67-.76-.43-.35,.1-.24-.25-.41-.36-.22-.15-.1-.55-.82-.37-.4,.1-.6-.17-.42-.5,.73-1.4-.65-1.08-1.39-1.25-.22-.05-.4-.06-.34-.33,.08-.38,.17-.9-.27-.8-.78,.2-.76-.23-1.02-.46-.44-.38-.75-.9-1.24-1.26-.56-.4-.82-1.15-1.81-1.13-.27,0-.52,.02-.8-.26-.22-.23-.29-.58-.06-1.15,.05-.13-.54,.18-.64,.09-.74-.69-1.39-1.32-1.97-2.02-.13-.16,.5-1.13-.27-.61-.82,.56,.36-.96-.57-.24-.13,.1-.25-.03-.24-.18,.03-.47-.08-.81-.26-1.06-.09-.13-.2-.24-.31-.33-.11-.09-.28-.22-.29-.19-.12-.02-.23,0-.27-.16-.04-.1-.24,.32,.03-.62-.32,.46-.41,.15-.59-.11-.18-.25-.44-.41-.78,.41-.33-.33-.77,.54-1.09-.63-.05-.19-.2,.08-.27-.09-.25-.58-.43,1.18-.72,.27-.18-.53-.52-.22-.8-.23-.24-.02-.53,.01-.82,.02l-.95,.04c-.32,.01-.64-.04-.95,.05-.63,.2-1.22,.94-1.89,.68-.07-.03-.19,.11-.2,.29-.15,1.52-.51,.69-.75,.26-.2-.36-.37-.52-.57-.51-.54,.05-1.09,.13-1.63,.06-.33-.04-.64,.46-1-.47-.11-.29-.37-.21-.5,.01-.62,1.03-1.36,.48-2.05,.67-.31,.08-.63,.07-.94,.06-.24,0-.44,.66-.72,.05-1.08,1.29-2.32,.58-3.49,.81-1.16,.23-2.33,.24-3.5,.29-.29,.01-.58,.52-.92-.46-.07-.19-.28-.15-.32,.05-.12,.56-.22,.85-.48,.14-.05-.13-.19,.04-.27,.19-.2,.42-.42,.4-.7,.05-.22-.27-.5-.42-.67-.19-.45,.61-.88,1.15-1.49,.14-.08-.12-.18,.57-.29,.55-.45-.09-.83,.5-1.35-.25-.21-.31-.45-.03-.68-.1-.4-.12-.69,.48-1.13,.21-.44-.27-.85,.03-1.27,.08l-1.27,.16-1.27,.17-1.26,.17-1.26,.18-1.26,.19c-.29,.04-.58-.04-.94-.38-.91-.88-1.82-.6-2.79,.4-.07,.07-.16,.04-.25,.05-1.08,.19-2.12,.59-3.24,.54-.49-.02-1.06-.37-1.52-.18-.3,.12-.64,.03-.8,.72-.13,.58-.71-.22-.78,.76-.03,.36-.31,.42-.52,.18-.71-.79-1.08-.18-1.58-.12-.57,.07-1.13,.24-1.65,.48-.25,.11-.62-.11-.65,.72-.01,.41-.4,.26-.7,.01-.46-.38-.72-.18-.92,.12-.43,.64-.38,.72-1.15,.4-.09-.04-.17-.01-.23,.02-.7,.27-1.53,.26-1.94,1-.32,.62-.76,.89-1.17,1.18-.17,.12-.1,.6-.79-.13-.1-.1-.19-.03-.15,.1,.33,1.1-.27,.87-.51,1.11-.19,.24,.34,.95,.14,.9-.14,0-.13,.02-.15,.05,0,.01,.03,.02,.03,.03l-.17-.05s-.18-.04-.15-.04h0c-.11-.01-.21-.02-.31-.04-.72-.05-1.42-.1-2.69-.2-2.23-.16-2.75-.41-3.01-1.35-.26-1.01,.15-1.97,.68-2.63,.54-.67,1.15-1.15,1.56-1.7Z"/>
        </g>
        <g>
          <path class="cls-10" d="M27.48,49.57c.99-12.73,51.08-14.68,62.85-15.14,4.19-.16,6.58,.47,7.86,1.58,2.51,2.17,4.58,4.52,5.71,5.56,1.83,1.69,3.04,2.97,3.98,4.09,.44,.53,1.11,1.31,1.88,2.41,2.04,2.9,3.07,4.36,2.99,6.28-.07,1.79-1.03,3.14-1.5,3.79-.98,1.37-2.12,2.08-2.93,2.57-4.47,2.73-6.68,4.17-8.39,4.66-4.6,1.32-8.5,.88-10.48,.65-10.57-1.25-17.13,2.69-25.13,3.4-16.75,1.47-37.5-11.44-36.84-19.85Z"/>
          <path class="cls-10" d="M29.53,45.07c1.14-1,2.21-1.6,3.26-2.21,.17-.09,.29-.31,.51-.41,.85-.42,1.7-.91,2.6-1.11,.98-.21,1.91-.52,2.78-.91,.82-.37,1.67-.59,2.51-.86,.28-.09,.56-.19,.91-.13,.25,.04,.67-.05,.94-.31,.05-.05,.19-.05,.29-.05,.11,0,.25,.04,.32,0,.77-.49,1.7-.48,2.54-.73,.21-.06,.46-.03,.6-.26,.04-.06,.24-.11,.32-.08,.19,.08,.36,.07,.57,.03,.88-.19,1.77-.35,2.66-.51,.39-.33,.9-.3,1.37-.38,.35-.06,.71-.03,1.07-.04,.36,0,.72-.23,1.09-.06,.06,.03,.18-.06,.28-.08,.44-.09,.89-.24,1.32-.22,.22,.01,.44,.02,.65-.01,2.76-.39,5.54-.73,8.31-1.03,.24-.03,.47-.02,.72-.19,.19-.14,.63-.18,.83-.09,.33,.15,.61,.05,.91,.03,.55-.03,1.1-.12,1.65-.14,.33-.02,.68-.18,.99,.05,.03,.02,.13,.01,.17-.01,.34-.28,.71-.1,1.07-.1,.27,0,.53-.02,.81-.17,.27-.14,.74-.2,1-.09,.36,.14,.67,.06,1,.04l5.74-.39c.9-.06,1.78-.34,2.7-.3,.22,0,.45-.1,.66,.07,.04,.03,.22,0,.28-.04,.24-.17,.49-.12,.77-.13,1.28-.03,2.58,0,3.82-.2,.97-.16,1.93-.14,2.89-.22,.33-.02,.66,.09,.99,.11,.32,.02,.65,.02,.97,.01,.19,0,.38,.06,.58-.07,.11-.07,.39-.07,.5,0,.36,.24,.77,.2,1.17,.27,1.12,.18,2.27,.46,3.29,1.12,.24,.16,.59,.31,.62,.63,0,.04,.17,.1,.26,.15,.1,.05,.24,.1,.27,.17,.35,.69,1,1.09,1.52,1.61,1.26,1.25,2.48,2.55,3.73,3.77,.36,.35,.8,.51,1.14,.86,.33,.33,.67,.65,.99,1,.22,.25,.54,.43,.58,.81,.01,.1,.18,.28,.28,.31,.41,.13,.6,.51,.87,.79,.33,.35,.52,.82,.99,1.05,.13,.06,.18,.33,.29,.49,.19,.27,.39,.55,.61,.8,.11,.12,.25,.21,.35,.33,.75,.97,1.52,1.93,2.17,3.06,.33,.58,.61,1.22,.76,1.93,.16,.71,.14,1.45,.03,2.14-.23,1.41-.94,2.66-1.76,3.67-.31,.39-.58,.93-1.13,1.03-.22,.45-.63,.62-1.06,.68-.06,0-.13,.16-.2,.24-.23,.25-.34,.67-.81,.57-.02,0-.05,.03-.07,.04-.27,.11-.27,.5-.69,.52-.26,.01-.55,.25-.82,.41-.28,.16-.56,.31-.81,.5-.26,.2-.65,.25-.78,.62-.02,.06-.32,.04-.44,.12-.6,.43-1.36,.62-1.85,1.23-.11,.14-.35,.26-.54,.29-.67,.11-1.16,.48-1.8,.8-.86,.41-1.74,.65-2.66,.51-.19-.03-.28-.07-.44,.08-.11,.09-.32,.11-.49,.13-1.88,.29-3.8,.34-5.69,.21-.52-.04-.97-.32-1.5-.29-.22,.01-.46-.14-.65,.05-.03,.03-.12,.03-.15,.01-.59-.28-1.22-.02-1.82-.15-.13-.03-.25-.07-.38-.1-.13-.03-.28-.09-.4-.06-.94,.24-1.9,.06-2.84,.16-.32,.05-.68-.06-.95,.2-.04,.04-.18,.05-.25,.02-.58-.25-1.16,.06-1.73,.04-.3,0-.6,.22-.9,.01-.04-.03-.15,.02-.22,.05-.12,.05-.23,.15-.35,.16-.34,.04-.73-.01-1.01,.12-.35,.17-.7,.19-1.05,.28-.2,.05-.42-.02-.63,0-.2,.02-.39,.08-.59,.13-.28,.07-.56,.18-.84,.19-.29,.01-.45,.31-.79,.22-.27-.07-.48,.23-.73,.32-.13,.05-.27,.05-.41,.06-.1,0-.22-.05-.31-.02-.21,.07-.42,.07-.62,.24-.14,.11-.45,.05-.68,.09-.23,.04-.45,.11-.68,.16s-.48,.07-.67,.17c-.85,.46-1.82,.51-2.74,.71-.24,.05-.5,.18-.75,0-.04-.03-.18-.01-.25,.02-.84,.44-1.82,.31-2.73,.45-.65,.11-1.29,.25-1.97,.22-.65,0-1.32-.11-1.95-.02-.52,.08-1.04,.09-1.54,0-.49-.09-1.01,.27-1.45-.15-.5-.06-1-.12-1.5-.23-.41-.09-.86-.05-1.22-.35-.13-.11-.42-.16-.59-.12-.56,.12-1.05-.06-1.54-.3-.12-.06-.3,.01-.44-.02-.44-.09-.87-.2-1.28-.35-1.24-.44-2.54-.62-3.78-1.06-.23-.08-.54-.02-.72-.14-1.11-.73-2.45-.98-3.55-1.69-1.61-1.03-3.36-1.78-4.95-2.83-.21-.14-.33-.43-.45-.45-.4-.05-.67-.4-.98-.47-.58-.13-.94-.56-1.41-.84-.34-.21-.6-.57-1.03-.6-.06,0-.17-.1-.21-.16-.31-.54-.97-.65-1.34-1.12-1.02-.52-1.71-1.48-2.5-2.31-.12-.12-.27-.21-.4-.32-.07-.05-.16-.11-.19-.18-.41-1.02-1.24-1.76-1.66-2.82-.16-.33-.2-.72-.31-1.07-.12-.35-.27-.73-.2-1.11,.02-.12-.04-.33-.09-.49-.06-.22-.09-.43-.09-.61,.02-.19,.08-.37,.16-.51,.16-.28,.42-.42,.74-.4,.23,.01,.24,.17,.33,.33,.08,.15,.15,.3,.19,.45,.07,.15,.11,.31,.13,.48,0,.28,.05,.6,.32,.77,.05,.03,.07,.15,.06,.22-.01,.52,.34,.97,.45,1.43,.06,.37,.28,.64,.43,.96,.12,.27,.4,.45,.41,.8,0,.12,.31,.25,.45,.41,.33,.35,.64,.74,.96,1.1,.94,1.15,2.24,1.89,3.35,2.85,.99,.43,1.73,1.26,2.68,1.74,1.16,.54,2.18,1.29,3.33,1.82,.23,.11,.41,.22,.58,.39,.11,.11,.23,.23,.37,.3l1.61,.81c.29,.15,.67,.17,.82,.53,.02,.05,.16,.1,.23,.1,.59-.04,1.05,.35,1.58,.52,.2,.06,.39,.15,.56,.32,.19,.19,.56,.33,.84,.32,.21,0,.37,.05,.56,.1,.76,.19,1.44,.68,2.26,.61,.3,.39,.81,.43,1.21,.48,1.56,.16,3.03,.69,4.56,.89,.37,.05,.72,.24,1.09,.31,.39,.07,.79,.11,1.19,.15,.21,.02,.45,.13,.64-.06,.01-.01,.05-.02,.07-.02,.22,.05,.45,.15,.67,.15,.2,0,.39-.12,.6-.15,.24-.04,.49-.03,.74-.02,.24,0,.49-.03,.69,.15,.19-.23,.46-.12,.7-.14,.22-.02,.45,0,.68-.01l.76-.04c.25-.02,.51-.01,.76-.05,.34-.06,.67-.19,1.01-.25,.36-.06,.72-.11,1.09-.15,.46-.04,.92-.04,1.38-.1,.19-.02,.34-.11,.51-.22,.22-.15,.48-.45,.86-.22,.08,.05,.29-.02,.4-.09,.89-.53,1.95-.52,2.92-.86,.6,.09,1.1-.18,1.65-.39,.81-.3,1.7-.55,2.56-.6,.91-.05,1.77-.3,2.66-.39,.25-.02,.51-.15,.75,.02,.06,.04,.24,0,.34-.05,.69-.31,1.41-.34,2.16-.25,.4,.05,.83-.07,1.26-.18,.65-.15,1.37-.06,2.05-.07,.29,.27,.53,.01,.68-.09,.21-.14,.4-.16,.65-.16,.31,0,.62,.07,.94-.07,.16-.07,.52-.02,.68,.09,.22,.14,.31,.09,.52,.03,.26-.07,.48,.19,.77,.22,.31,.02,.68-.07,.93,.22,.02,.03,.12,.03,.16,.01,.59-.23,1.12,.21,1.7,.09,1.69,.35,3.4-.05,5.07-.28,.68-.09,1.46-.07,2.04-.38,1.16-.68,2.53-1.3,3.79-2.1,.27-.17,.52-.47,.9-.39,.05,.01,.18-.07,.21-.13,.28-.46,.72-.64,1.22-.75,.12-.03,.3-.15,.33-.24,.08-.26,.31-.32,.5-.43,.22-.13,.6-.17,.69-.33,.18-.34,.45-.25,.67-.34,.14-.06,.24-.19,.35-.3,.05-.05,.07-.17,.12-.18,.51-.09,.65-.63,1.02-.87,.08-.05,.14-.13,.23-.18,.46-.29,.67-.47,.88-.73,.19-.25,.37-.56,.59-1.19,.46-.21,.16-.78,.48-1.08,.12-.12,.15-.4,.1-.58-.2-.78-.11-1.49-.52-2.22-.08-.14,.05-.36-.2-.47-.1-.04-.06-.38-.17-.55-.15-.24-.21-.56-.55-.69-.14-.05-.22-.31-.35-.46-.17-.21-.26-.47-.55-.6-.16-.07-.36-.35-.39-.54-.11-.79-.78-1.08-1.26-1.51-.15-.13-.25-.21-.34-.4-.11-.27-.27-.63-.48-.73-.38-.19-.56-.5-.82-.78-.44-.47-.86-.96-1.34-1.41-.54-.51-1.01-1.09-1.68-1.48-.34-.19-.87-.56-.98-1.08-.01-.06-.26-.08-.34-.17l-2-2.04c-.15-.16-.12-.53-.42-.5-.32,.03-.15-.48-.48-.39-.05,.01-.19-.13-.24-.22-.29-.49-.69-.88-1.11-1.24l-.32-.27c-.09-.06-.16-.13-.26-.18-.17-.12-.36-.23-.56-.34-.19-.11-.47-.1-.56-.39-.62,.07-1.21-.62-1.9-.27-.45-.13-.96,.05-1.4-.25-.07-.05-.24,.01-.32-.03-.29-.15-.47,.28-.82,.06-.2-.13-.58-.05-.89-.05-.28,0-.57,.02-.86,.03l-.96,.04c-.32,.01-.64,0-.95,.04-.64,.07-1.26,.27-1.92,.23-.07,0-.19,.03-.21,.08-.2,.39-.54,.19-.77,.09-.19-.08-.35-.12-.55-.11-.55,.03-1.1,.07-1.65,.08-.33,0-.67,.14-.99-.08-.1-.07-.36-.04-.5,.02-.67,.29-1.39,.18-2.09,.26-.32,.04-.63,.05-.95,.06-.24,0-.47,.19-.72,.05-1.15,.38-2.37,.27-3.55,.39-1.18,.12-2.36,.2-3.54,.29-.3,.02-.61,.17-.9-.06-.05-.04-.27-.02-.33,.03-.16,.15-.28,.23-.49,.07-.04-.03-.2,.02-.28,.07-.23,.12-.45,.13-.71,.06-.2-.05-.47-.07-.66,0-.5,.19-.97,.36-1.51,.15-.07-.03-.22,.16-.34,.16-.44,.01-.88,.19-1.34,.04-.19-.06-.45,.03-.67,.03-.39,0-.74,.18-1.15,.15-.42-.03-.86,.08-1.29,.14l-1.29,.16-1.29,.17-1.29,.18-1.28,.19-1.28,.19c-.3,.04-.58,.06-.9,0-.81-.13-1.74,.06-2.84,.46-.08,.03-.17,.03-.25,.05-1.11,.2-2.2,.46-3.31,.62-.48,.07-.99,.06-1.48,.19-.32,.09-.64,.11-.92,.35-.23,.19-.66,.06-.91,.36-.09,.11-.39,.18-.55,.15-.55-.1-1.04,.16-1.55,.27-.58,.14-1.16,.31-1.73,.5-.28,.1-.59,.1-.81,.38-.11,.14-.46,.18-.7,.17-.36-.01-.66,.12-.94,.28-.59,.34-.57,.36-1.24,.46-.08,.01-.16,.04-.23,.08-.76,.3-1.56,.57-2.21,1.02-.53,.39-1.08,.7-1.61,1.04-.21,.14-.39,.38-.7,.3-.04-.01-.16,.07-.19,.13-.26,.52-.76,.76-1.14,1.12-.34,.37-.48,.83-.76,1.19-.29,.34-.43,.75-.55,1.14-.16,.59-.27,.72-.97,.66-.55-.04-.69-.27-.64-.99,.07-.77,.42-1.49,.85-2.07,.44-.58,.93-1.05,1.36-1.47Z"/>
        </g>
        <g class="cls-13">
          <g class="cls-13">
            <path class="cls-5" d="M115.85,72.89c-1.94,.71-4.24,.62-5.69,1.87-.17,.13-.33,.26-.5,.4l.31-.03c2.32-.24,4.74-.83,6.92-1.68,1.31-.64,2.56-1.59,4.12-1.97,.17-.04,.1-.35,.07-.5-.21-.15-.4-.32-.59-.49-1.2,.55-2.35,1.19-3.63,1.6-.43,.1-.74,.75-1,.81Z"/>
            <polygon class="cls-7" points="120.55 70.51 120.52 70.48 120.34 70.56 120.55 70.51"/>
            <path class="cls-4" d="M117.64,71.89c-.39,.22-.79,.36-1.21,.46-.22,.22-.41,.5-.57,.54-1.94,.71-4.24,.62-5.69,1.87-.16,.13-.33,.26-.49,.4,.11-.01,.22-.02,.33-.04,.8-.08,1.62-.21,2.43-.37l.11-.08c.38-.34,.87-.21,1.3-.31,1.16-.52,2.23-.62,3.39-1.15,.42-.18,.76-.67,1.28-.8,.17-.06,.34-.1,.51-.12,.63-.34,1.29-.64,2.01-.81,.17-.04,.1-.35,.07-.5-.11-.08-.22-.16-.32-.25-.6,.12-1.17,.31-1.77,.46-.49,.23-.98,.46-1.49,.66,.03,.02,.06,.04,.1,.05Z"/>
            <path class="cls-7" d="M117.45,71.45c-.07,.02-.1,.26,.09,.39,.51-.2,1-.42,1.49-.66-.5,.13-1.02,.24-1.58,.27Z"/>
            <path class="cls-9" d="M117.2,70.38c-1.06,.18-1.9,.87-2.82,.85-.48,0-.97-.08-1.44-.26-.14,.05-.28,.09-.41,.14-3.34,1.29-6.77,2.47-10.21,3.11-1.69,.36-3.05,1.24-4.75,1.76-1.02,.18-1.85-.21-2.83-.49-2.42-.79-4.99,.06-7.66,.67-.73,.19-.65,1.45-.48,1.44,2.02-.51,4.19-.22,6.36,.04,1.1,.12,2.22,.24,3.38,.23,1.16-.01,2.33-.17,3.45-.47,1.75-.45,3.38-.96,5-1.36,1.62-.4,3.23-.68,4.87-.86,.16-.14,.33-.28,.5-.4,1.45-1.24,3.75-1.15,5.69-1.87,.26-.06,.57-.71,1-.81,1.28-.41,2.44-1.05,3.63-1.6-.39-.36-.73-.75-1.08-1-.71,.41-1.42,.8-2.2,.89Z"/>
            <path class="cls-6" d="M117.2,70.38c.78-.09,1.5-.48,2.2-.89-.17-.12-.35-.21-.54-.25-2.07-.1-4.01,1.03-5.92,1.72,.47,.18,.96,.27,1.44,.26,.92,.02,1.76-.67,2.82-.85Z"/>
            <path class="cls-4" d="M117.2,70.38c.75-.08,1.43-.44,2.11-.83-.27,0-.53,.04-.78,.1-1.3,.31-2.56,.78-3.91,.87,1.36-.4,2.72-.8,4.06-1.29-2-.02-3.88,1.07-5.73,1.74,.47,.18,.96,.27,1.44,.26,.92,.02,1.76-.67,2.82-.85Z"/>
            <path class="cls-3" d="M115.2,71.19c1.58-.31,3.14-.68,4.62-1.39-.1-.09-.2-.18-.3-.26-.08,0-.14,0-.21,0-.68,.39-1.36,.75-2.11,.83-1.06,.18-1.9,.87-2.82,.85-.47,0-.97-.08-1.44-.26-.13,.04-.26,.09-.39,.13-1.71,.66-3.44,1.29-5.18,1.83-1.4,.83-3.09,1.26-4.73,1.45,.74-.2,1.48-.45,2.21-.73-.84,.22-1.68,.41-2.52,.56-.72,.16-1.37,.4-2.02,.67-.07,.32-.24,.61-.61,.76-.58,.24-1.17,.29-1.76,.63-.09,0-.09-.23-.26-.23,.48-.01,.85-.22,1.14-.52-.4,.16-.8,.32-1.23,.45-.8,.14-1.49-.07-2.22-.3l-.24,.02c-.4,.02-.82,.12-1.25,.23,.17,.02,.34,.05,.51,.07-.28,.12-.63,.07-.89,.03,.13-.03,.25-.07,.38-.1-.4-.06-.79-.13-1.22-.19,.53,.09,1.07,.01,1.53-.08-.96-.06-1.85-.06-2.81-.37l.08-.03c-1.42,.16-2.87,.57-4.36,.91-.73,.19-.65,1.45-.48,1.44,2.86-.71,5.85,.16,9.03,.26-.36-.19-.71-.37-1.05-.55-.15-.05-.3-.12-.43-.22,.14,.07,.28,.15,.43,.22,.41,.14,.88,.14,1.34,.28,.08,.09,.36,.11,.47-.13,.64,.19,1.38-.06,2.03,.06,.04,0,.11,.06,.19,.13,.4-.07,.79-.16,1.18-.27,2.18-.57,4.19-1.22,6.21-1.64-.52,0-1.02-.02-1.51-.1-.68-.16-1.8,.51-2.84,.87-.25,.13-.47-.07-.73-.03,.76-.85,2.04-.72,3.05-1.13,1.35-.49,3.44-.51,4.79-1.4,.55-.38,1.21-.29,1.78-.19-.14,.2-.48,.28-.66,.32-1.56,.38-3.11,.76-4.63,1.29,1.7-.17,3.2-.78,4.91-.87-.93,.31-1.95,.23-2.73,.83,.09,.03,.18,.06,.27,.09,.64-.1,1.29-.19,1.94-.26,.16-.14,.33-.27,.49-.4,1.45-1.24,3.75-1.15,5.69-1.87,.17-.04,.35-.31,.57-.54-.64,.17-1.3,.27-1.94,.46,.28,0,.56,.03,.83,.12-.59,.22-1.18,.04-1.76,.27,.3-.17,.61-.29,.93-.39-.42,0-.84,.09-1.26,.14,.71-.49,1.62-.07,2.29-.71-.17,.05-.34,.1-.51,.12l.52-.13h0c.51-.16,.97-.46,1.39-.74-.88,.28-1.77,.21-2.63,.49-.14,.06-.28,.11-.42,.17,.14-.07,.28-.12,.42-.17,1.94-.74,4.03-.98,6.05-1.43l.18-.08-.25-.25c-1.66,.41-3.38,.74-5.06,.96Z"/>
          </g>
        </g>
        <g class="cls-13">
          <g class="cls-13">
            <path class="cls-5" d="M130.74,60.66c-.05,.51-.94,.7-.39,1.37,.05,.07,.11,.15,.16,.23l.08-.04c.63-.33,1-.88,1.01-1.48-.11-.42-.54-.9-.35-1.24,.02-.04-.28-.12-.44-.16-.21-.01-.43-.03-.65-.06,.1,.32,.28,.68,.2,.98-.06,.09,.41,.36,.37,.41Z"/>
            <polygon class="cls-7" points="130.21 59.26 130.16 59.26 130.18 59.31 130.21 59.26"/>
            <path class="cls-4" d="M130.47,60.09c.06,.12,.05,.22,0,.31,.12,.11,.3,.23,.27,.26-.05,.51-.94,.7-.39,1.37,.05,.07,.1,.14,.16,.22l.09-.05c.22-.11,.4-.26,.56-.41l-.03-.05c-.15-.18,.13-.19,.19-.28-.04-.35,.25-.52,.19-.87-.02-.12-.34-.34-.27-.45,0-.04,.03-.08,.07-.11-.09-.2-.14-.39-.05-.55,.02-.04-.28-.12-.44-.16-.11,0-.22-.02-.33-.03-.1,.12-.12,.25-.18,.38,.04,.14,.08,.28,.08,.41,.03,0,.06,0,.08,0Z"/>
            <path class="cls-7" d="M130,59.96s.2,.1,.38,.12c0-.13-.04-.27-.08-.41-.05,.11-.13,.21-.3,.29Z"/>
            <path class="cls-9" d="M128.95,59.63c-.19,.17,.13,.5-.2,.58-.15,.05-.41,.06-.72,.02,0,.03,0,.06-.02,.09,0,.76-.23,1.49-.9,1.92-.26,.25,.03,.8,.13,1.32-.05,.24-.45,.19-.76,.23-.81,.05-.04,1.21-.12,1.95-.02,.19,.89,1.06,.93,1.04,.32-1.12,1.37-1.57,1.63-2.68,.21-.82,.7-1.38,1.59-1.85-.06-.08-.11-.16-.16-.23-.54-.67,.35-.86,.39-1.37,.04-.06-.43-.32-.37-.41,.08-.3-.11-.66-.2-.98-.46-.06-.93-.12-1.27-.16,.14,.2,.25,.41,.06,.52Z"/>
            <path class="cls-6" d="M128.95,59.63c.19-.11,.07-.32-.06-.52-.17-.02-.31-.02-.4-.01-.78,.18-.4,.72-.46,1.14,.32,.03,.57,.02,.72-.02,.33-.08,0-.41,.2-.58Z"/>
            <path class="cls-4" d="M128.95,59.63c.18-.11,.09-.3-.04-.5-.08,.03-.14,.07-.17,.12-.15,.24-.15,.53-.54,.67,.11-.26,.21-.53,.21-.82-.68,.2-.33,.72-.38,1.12,.31,.03,.56,.02,.72-.02,.33-.08,0-.41,.2-.58Z"/>
            <path class="cls-3" d="M129,60.12c.27-.26,.46-.57,.31-.97-.12-.01-.23-.03-.33-.04-.03,0-.05,.02-.07,.03,.13,.19,.22,.39,.04,.5-.19,.17,.13,.5-.2,.58-.15,.05-.4,.06-.72,.02,0,.03,0,.05-.02,.08,0,.39-.06,.76-.21,1.1,.22,.46-.04,.74-.44,.9,.09-.13,.15-.28,.17-.45-.11,.14-.25,.26-.41,.37-.11,.11-.12,.27-.09,.46,.24,.18,.43,.35,.45,.46,.03,.18-.07,.27,.09,.53-.01,.01-.21-.12-.24-.09,.08-.07,0-.23-.18-.43,.04,.13,.07,.26,.1,.39-.04,.19-.3,.19-.55,.21,0,.02,0,.04,0,.06-.02,.09,.03,.24,.1,.4l.09-.07c.08,.13,.02,.18-.03,.22l-.06-.14c-.07,.05-.14,.11-.22,.16,.09-.07,.06-.24,0-.39-.1,.18-.14,.39-.43,.41l-.02-.04c.07,.4,.28,.96,.23,1.36-.02,.19,.89,1.06,.93,1.04,.23-.79,.79-1.23,1.22-1.82-.19-.03-.37-.06-.55-.09-.05,0-.12,0-.21-.03,.07,.01,.14,.02,.21,.03,.15-.01,.19-.11,.36-.12,.08,.03,.13-.01-.05-.16,.24,0,.17-.25,.41-.27,0,0,.07,.02,.15,.05,.03-.09,.06-.18,.08-.27,.13-.52,.37-.93,.75-1.27-.19,.04-.39,.06-.63,.05-.37-.04-.23,.35-.27,.62,.02,.08-.21,0-.25,.03-.46-.51,.07-.51,.11-.76,.08-.31,.82-.46,.54-.97-.13-.21,.18-.22,.47-.23,.12,.1,.07,.16,.04,.2-.23,.3-.47,.58-.58,.93,.48-.19,.5-.58,1.04-.77-.07,.22-.5,.27-.29,.61,.06,0,.12,.01,.17,.02,.15-.1,.31-.2,.48-.29-.06-.08-.11-.16-.16-.22-.54-.67,.35-.86,.39-1.37,.02-.03-.16-.16-.27-.26-.07,.14-.21,.25-.27,.4,.1-.03,.22-.05,.4-.05,0,.16-.38,.15-.38,.3-.04-.1-.04-.18-.01-.25-.14,.05-.22,.12-.32,.19-.19-.26,.51-.2,.17-.52,0,.04-.03,.07-.07,.1l.07-.1h0c.03-.12-.07-.27-.19-.42-.05,.2-.42,.27-.47,.46,0,.03,0,.07,0,.1-.01-.04-.01-.07,0-.1,.01-.47,.51-.78,.78-1.19v-.05s-.32-.04-.32-.04c-.18,.34-.47,.65-.85,.9Z"/>
          </g>
        </g>
      </g>
    </g>
  </g>
</svg>