<?xml version="1.0" encoding="UTF-8"?>
<svg id="_Слой_2" data-name="Слой 2" xmlns="http://www.w3.org/2000/svg" xmlns:xlink="http://www.w3.org/1999/xlink" viewBox="0 0 150.01 131.06">
  <defs>
    <style>
      .cls-1 {
        fill: none;
      }

      .cls-2 {
        clip-path: url(#clippath);
      }

      .cls-3 {
        fill: #f3f9fb;
      }

      .cls-4 {
        fill: #f7fbfc;
      }

      .cls-5 {
        fill: #f8fcfd;
      }

      .cls-6 {
        fill: #f4fafb;
      }

      .cls-7 {
        fill: #f5fafb;
      }

      .cls-8 {
        fill: #eab7c9;
      }

      .cls-9 {
        fill: #fbfdfe;
      }

      .cls-10 {
        fill: #6e7c6e;
      }

      .cls-11 {
        opacity: .49;
      }

      .cls-12 {
        opacity: .8;
      }
    </style>
    <clipPath id="clippath">
      <rect class="cls-1" width="150.01" height="131.06"/>
    </clipPath>
  </defs>
  <g id="_лепестки" data-name="лепестки">
    <g class="cls-2">
      <g>
        <g class="cls-11">
          <path class="cls-10" d="M18.98,76.68c.03-2.97,11.4-1.85,28.35-12,12.42-7.44,11.36-11.05,22.55-17.69,4.91-2.91,23.25-13.79,42.92-8.07,3.4,.99,17.07,4.96,18.3,12.99,1.71,11.09-21.17,24.25-37.72,29.96-36.37,12.55-74.46,.25-74.4-5.19Z"/>
          <path class="cls-10" d="M23.95,72.22c1.83-.48,3.31-.81,4.71-1.38,.22-.09,.32-.66,.6-.74,1.13-.31,2.1-1.16,3.36-.98,1.38,.2,2.58-.19,3.51-1.03,.88-.8,1.93-1.13,2.87-1.71,.32-.2,.59-.45,1.22-.09,.46,.26,.97,.05,.98-.81,0-.17,.22-.1,.36-.1,.15,0,.44,.23,.48,.09,.42-1.54,1.82-1.29,2.65-2.09,.2-.2,.63-.05,.44-.85-.05-.2,.16-.36,.32-.25,.43,.31,.66,.29,.88,.14,.94-.63,1.92-1.19,2.84-1.83-.11-1.14,.65-1.11,1.11-1.45,.35-.25,.92-.22,1.38-.32,.47-.12,.44-.91,1.33-.48,.14,.07,.11-.24,.19-.33,.38-.42,.61-1.03,1.22-1.12,.31-.05,.62-.11,.82-.29,2.57-2.3,5.06-5.12,8.07-7.44,.25-.21,.58-.29,.51-.97-.05-.53,.43-.91,.91-.69,.77,.36,.93-.1,1.28-.29,.65-.36,1.21-.85,1.89-1.16,.4-.18,.55-.89,1.39-.2,.08,.07,.2,0,.19-.11-.09-1.09,.72-.62,1.21-.74,.35-.09,.64-.27,.74-.89,.09-.59,.61-.95,1.15-.68,.72,.37,.99-.02,1.37-.2,2.27-1.12,4.58-2.15,6.91-3.13,.55-.23,1.03-.66,1.52-1.05,.5-.37,1.04-.69,1.67-.71,.3-.01,.49-.48,.95,.12,.09,.12,.29-.03,.32-.23,.13-.7,.53-.56,.9-.63,.84-.15,1.69-.3,2.54-.45,.84-.15,1.66-.39,2.42-.87,1.2-.7,2.53-.69,3.8-1.03,.43-.09,.92,.35,1.37,.41,.43,.06,.86-.03,1.28-.11,.25-.05,.52,.13,.74-.46,.12-.31,.49-.4,.65-.16,.54,.83,1.06,.49,1.58,.5,1.49-.03,2.98,.08,4.47,.2,.36,.03,.82-.35,1.05,.58,.03,.12,.27-.12,.41-.19,.15-.07,.36-.29,.45-.16,.79,1.28,1.87,.72,2.83,.99,1.14,.33,2.3,.59,3.44,.87,1.11,.31,2.24,.66,3.32,1.11,.6,.25,1.4-.25,1.99,.02,.57,.25,1.18,.43,1.73,.72,.39,.21,.98,.05,.99,1.03,0,.27,.29,.39,.51,.23,.82-.57,1.12,.08,1.65,.2,.65,.16,.94,.98,1.97,.49,.28-.13,.31,.49,.51,.66,.35,.32,.73,.57,1.13,.82,.19,.12,.56-.01,.77,.1,.79,.41,1.54,.97,2.3,1.52,.71,.64,1.46,1.26,2.05,2.12,.65,.8,1.11,1.83,1.5,2.85,.15,.54,.28,1.09,.4,1.64,.1,.55,.12,1.12,.16,1.68,.02,2.24-.57,4.34-1.53,6.03-.34,.63-.17,1.68-1.53,1.58,.27,.93-.45,1.15-1.41,1.09-.14-.01,.02,.35,0,.52-.03,.53,.64,1.68-.7,1.19-.05-.02-.05,.07-.09,.08-.41,.17,.4,1.3-.55,1.14-.59-.11-.79,.4-1.13,.68-.34,.29-.7,.54-.94,.93-.25,.4-1.02,.26-.68,1.29,.05,.17-.65-.14-.77,.03-.61,.84-1.95,.77-2,2.29-.01,.35-.31,.55-.64,.5-1.2-.19-1.56,.65-2.11,1.4-.7,1-1.66,1.83-3.27,1.37-.34-.1-.54-.22-.51,.28,.02,.33-.25,.42-.43,.54-2.1,1.31-4.26,2.51-6.44,3.65-.6,.31-1.59-.27-2.03,.37-.19,.26-.7-.03-.55,.79,.02,.11-.06,.22-.13,.19-1.14-.48-1.31,1.07-2.22,1.06-.19,0-.42-.09-.62-.11-.2-.02-.49-.15-.57,.04-.67,1.57-2.22,1.3-3.28,2.04-.37,.26-1-.05-.99,1.01,0,.16-.18,.22-.31,.13-1.13-.83-1.56,.32-2.39,.3-.42,0-.62,.76-1.29-.05-.08-.1-.2,.05-.27,.14-.12,.17-.17,.53-.33,.57-.45,.11-1.1-.25-1.38,.18-.35,.54-.85,.53-1.3,.7-.26,.1-.65-.24-.95-.26-.28-.01-.52,.14-.78,.21-.37,.11-.7,.38-1.11,.28-.42-.11-.44,.94-1.03,.39-.45-.43-.55,.58-.88,.77-.16,.1-.37,.03-.57-.03-.15-.04-.36-.33-.48-.27-.26,.13-.58,.02-.77,.51-.14,.34-.63-.11-.95-.11-.31,0-.6,.13-.9,.19-.3,.06-.67-.06-.89,.23-.99,1.26-2.35,.89-3.54,1.24-.31,.09-.61,.5-1.03-.31-.07-.14-.25-.13-.33-.02-.97,1.39-2.34,.62-3.47,1.11-.81,.36-1.6,.91-2.48,.9-.86-.02-1.75-.16-2.53,.31-.64,.4-1.29,.76-1.97,.59-.66-.17-1.19,1.59-1.9,.17-.66,.04-1.32,.1-1.98,.07-.56-.04-1.12,.35-1.67-.49-.2-.31-.58-.28-.79,0-.68,.91-1.36,.65-2.06,.2-.16-.11-.38,.32-.57,.34-.58,.04-1.17,.11-1.75-.04-1.71-.41-3.45,.5-5.19,.39-.32-.02-.72,.64-.99,.44-1.62-1.23-3.48-.28-5.1-1.13-2.36-1.25-4.92-.97-7.36-1.66-.32-.09-.5-.88-.7-.7-.6,.55-1.02-.12-1.52,.28-.9,.7-1.47-.04-2.22,0-.55,.04-.94-.68-1.67,.17-.11,.12-.28,.05-.34-.09-.5-1.11-1.62,.02-2.25-.63-1.76,.66-2.99-.58-4.52-.9-.23-.05-.52,.1-.79,.14-.13,.02-.32,.11-.38,0-.86-1.65-2.61-1.42-3.89-2.51-.42-.36-.7-.93-1.11-1.34-.4-.42-1.12-.58-1.12-1.57,0-.3-.36-.47-.66-.66-.79-.45-1.26-1.6-.96-2.71,.14-.58,.48-1.03,.96-1.34,.47-.3,1.05-.38,1.68-.37,.93,.03,.97,.18,1.35,.2,.71,0,1.1-.19,1.28,.11,.12,.22,.24,.69,.99,.15,.12-.09,.22,.01,.21,.15,0,.97,.92,.79,1.16,1.53,.2,.58,.64,.68,.96,1.02,.28,.29,.82,.03,.84,.91,.01,.3,.63-.19,.88-.12,.61,.16,1.21,.35,1.75,.67,1.68,1,3.86,.29,5.58,1.1,1.58-.75,2.69,.57,4.14,.31,1.72-.32,3.24,.33,4.88,.29,.34,0,.59,.06,.84,.39,.16,.22,.33,.45,.53,.49,.76,.16,1.54,.17,2.29,.36,.41,.1,.93-.41,1.18,.69,.03,.15,.22,.16,.32,.04,.79-.98,1.45-.27,2.17-.33,.27-.03,.53,.04,.79,.44,.28,.44,.79,.44,1.15,.07,.27-.27,.5-.27,.74-.33,1.01-.29,2,.84,3.03-.41,.47,1.15,1.13,.8,1.65,.54,2.01-1,3.99-.24,5.98-.5,.48-.07,.98,.4,1.47,.48,.52,.07,1.03,0,1.55-.07,.27-.04,.62,.31,.78-.53,.01-.06,.06-.11,.09-.1,.3,.12,.62,.41,.9,.33,.25-.08,.45-.65,.69-.82,.29-.2,.62-.24,.93-.29,.3-.05,.61-.27,.93,.44,.15-.94,.55-.51,.84-.62,.28-.1,.58-.08,.87-.11l.98-.12c.32-.04,.66-.01,.97-.14,.42-.19,.81-.58,1.23-.74,.45-.16,.92-.24,1.39-.22,.6,.03,1.22,.2,1.83,.25,.25,.02,.42-.24,.59-.6,.23-.48,.43-1.48,1.07-.35,.13,.22,.4,.1,.52-.09,.95-1.51,2.43-.75,3.58-1.4,.91,.75,1.42,.02,2.04-.43,.92-.65,1.94-1.11,3.09-.89,1.23,.24,2.15-.43,3.24-.58,.31-.04,.5-.49,1.04,.23,.12,.16,.32,.03,.4-.14,.52-1.14,1.41-1.21,2.47-1.01,.56,.11,.93-.44,1.29-.94,.54-.75,1.48-.77,2.24-1.1,.76,.81,.58-.28,.56-.77-.03-.65,.14-.84,.4-.98,.33-.18,.75-.16,.79-.93,.02-.39,.44-.5,.78-.26,.46,.32,.45,.07,.53-.33,.09-.47,.8,.27,1.11,.06,.33-.23,.5-.9,1.31-.09,.07,.07,.18,0,.19-.09,.14-1.33,1.53-.24,1.95-1.02,2.54,.05,3.95-1.99,6.01-2.79,.85-.34,2.08-.16,2.52-1.09,.93-1.91,2.83-2.41,4.1-3.74,.27-.28,.26-.93,1.23-.36,.13,.08,.26-.05,.23-.2-.24-1.11,.35-1.24,1.22-1.17,.21,.02,.37-.18,.25-.42-.36-.67,.03-.66,.22-.82,.2-.2,.94-.07,.78-.44-.34-.79,.44-.38,.73-.51,.18-.08,.14-.36,.15-.57,.01-.1-.19-.38-.1-.37,1.05,.08,.29-1.1,.84-1.31,.12-.05,.17-.16,.32-.2,.77-.22,1.23-.38,1.4-.66,.09-.14,.14-.31,.17-.55,.02-.23-.04-.52-.08-.87,.67-.03,.55-.28,.4-.5-.14-.23-.39-.41,.12-.57,.38-.12,.3-.42,.01-.56-.56-.32-.75-.57-.78-.9,0-.17-.03-.34-.1-.51-.06-.17-.14-.33-.28-.46-.11-.09,.52-.66-.19-.46-.26,.09,.22-.57,.09-.73-.2-.2-.09-.75-.9-.4-.34,.15-.27-.24-.5-.32-.27-.11-.27-.55-.93-.2-.34,.18-.63-.01-.57-.38,.26-1.57-1.12-.98-1.95-.93-.25,0-.46,.05-.55-.24-.13-.41-.33-.97-.74-.73-.75,.44-.99-.01-1.4-.17-.73-.25-1.37-.7-2.14-.9-.86-.23-1.59-.88-2.68-.53-.58,.19-1.29,.32-1.46-.93-.02-.14-.42,.41-.56,.37-.54-.13-1.17-.33-1.67-.43-.53-.12-1.05-.26-1.56-.43-.23-.08-.27-1.25-.68-.42-.43,.9-.32-1.05-.74,.07-.06,.16-.28,.11-.38-.01-1.08-1.37-2.53-.7-3.8-1.03-.31-.09-.69,.35-.9-.64-.82,1-1.72-1.19-2.5,.56-.59-.27-1.16,.63-1.78-.5-.1-.18-.29,.12-.4-.04-.4-.54-.48,1.24-.99,.37-.3-.5-.74-.15-1.11-.15-.35,0-.69,.07-1.03,.13l-1.13,.18c-.38,.06-.77,.05-1.13,.19-.73,.32-1.3,1.19-2.13,1.08-.09-.01-.2,.15-.19,.33,.1,1.52-.46,.79-.83,.44-.31-.3-.53-.41-.77-.34-.63,.2-1.25,.42-1.91,.53-.39,.07-.63,.67-1.29-.12-.2-.24-.49-.08-.59,.18-.47,1.18-1.46,.97-2.2,1.4-.33,.2-.71,.3-1.07,.43-.28,.1-.29,.81-.8,.35-.42,.83-1.02,1.22-1.68,1.51-.66,.28-1.39,.44-2,.84-1.22,.76-2.51,1.41-3.8,2.08-.33,.18-.44,.8-1.24,.1-.15-.13-.36,.02-.33,.22,.1,.58,.12,.9-.46,.4-.11-.09-.19,.14-.21,.32-.04,.49-.28,.58-.73,.44-.35-.11-.7-.08-.78,.22-.2,.81-.37,1.51-1.47,1.02-.14-.06,.1,.6-.03,.65-.5,.19-.55,.95-1.46,.63-.37-.13-.46,.26-.71,.36-.44,.18-.4,.86-.97,.95-.58,.1-.8,.63-1.18,1.01l-1.17,1.14-1.22,1.2-1.29,1.24-1.36,1.24c-.47,.4-.94,.81-1.42,1.2-.34,.26-.73,.42-1.32,.38-.74-.05-1.35,.13-1.89,.52-.53,.4-.98,1.02-1.43,1.79-.06,.11-.19,.14-.29,.21-1.29,.88-2.52,1.84-3.98,2.38-.64,.24-1.45,.18-2.01,.57-.37,.26-.82,.34-.92,1.1-.08,.64-.97,.08-.93,1.12,.01,.38-.38,.56-.69,.4-1.05-.51-1.5,.24-2.19,.48-.79,.27-1.54,.64-2.27,1.03-.36,.19-.86,.06-.95,.94-.04,.43-.61,.38-1.01,.19-.62-.29-1.01-.04-1.34,.32-.71,.76-.69,.84-1.75,.61-.13-.03-.24,0-.35,.04-1.09,.38-2.31,.39-3.23,1.18-.77,.65-1.64,.94-2.51,1.2-.35,.11-.63,.65-1.19-.24-.08-.13-.27-.06-.32,.08-.44,1.25-1.37,.89-2.08,1.1-.68,.2-1.08,1.22-1.68,1.18-.28-.02-.52,.05-.66,.13-.06,.03-.09,.07-.11,.08h0l-.07-.15-.15-.3c-.1-.2-.21-.4-.33-.6-.1-.18-.27-.42-.33-.54-.07-.14-.16-.28-.25-.41-.13-.2-.29-.39-.42-.55-.08-.12-.17-.23-.26-.32-.08-.09-.22-.19-.26-.24-.04-.05-.09-.09-.14-.12-.05-.03-.11-.07-.15-.08,0,0-.02-.02-.03-.02-.01-.01-.07-.03-.06-.02,.11,.03,.12,0,.13,0h-.01c-.23,0-.43-.01-.62-.04-.37-.04-.65-.14-.85-.31-.4-.32-.35-1.06,.07-1.66,.88-1.23,1.89-1.52,2.78-1.79,.9-.24,1.75-.34,2.44-.67Z"/>
        </g>
        <g>
          <path class="cls-8" d="M18.98,51.66c.03-2.97,11.4-1.85,28.35-12,12.42-7.44,11.36-11.05,22.55-17.69,4.91-2.91,23.25-13.79,42.92-8.07,3.4,.99,17.07,4.96,18.3,12.99,1.71,11.09-21.17,24.25-37.72,29.96-36.37,12.55-74.46,.25-74.4-5.19Z"/>
          <path class="cls-8" d="M24.3,48.54c1.83-.48,3.32-.86,4.78-1.34,.23-.08,.44-.27,.73-.36,1.15-.34,2.27-.86,3.4-1.1,1.24-.27,2.43-.72,3.5-1.27,1.01-.53,2.05-.96,3.06-1.46,.34-.17,.66-.36,1.1-.4,.32-.03,.82-.27,1.1-.63,.05-.07,.22-.11,.34-.15,.13-.04,.31-.04,.38-.11,.85-.77,1.96-1.13,2.91-1.75,.23-.16,.54-.24,.65-.53,.03-.07,.26-.22,.35-.22,.25,0,.45-.09,.68-.24,.98-.62,1.97-1.21,2.92-1.87,.33-.52,.92-.78,1.4-1.14,.37-.27,.79-.45,1.18-.69,.39-.24,.68-.67,1.16-.77,.08-.02,.17-.17,.27-.26,.43-.39,.83-.83,1.29-1.12,.23-.15,.47-.31,.67-.5,2.64-2.4,5.07-5.15,7.99-7.37,.24-.2,.51-.35,.7-.67,.14-.25,.61-.59,.88-.65,.44-.09,.72-.35,1.05-.57,.6-.39,1.2-.81,1.82-1.16,.37-.21,.71-.58,1.16-.55,.04,0,.16-.07,.19-.11,.28-.45,.78-.51,1.21-.71,.31-.15,.61-.32,.87-.62,.26-.28,.79-.59,1.15-.64,.48-.07,.82-.31,1.2-.5,2.22-1.14,4.5-2.17,6.81-3.09,.55-.22,1.08-.48,1.61-.73,.54-.23,1.09-.45,1.67-.6,.28-.07,.54-.26,.84-.17,.06,.02,.27-.07,.34-.15,.27-.24,.6-.27,.95-.36,.81-.2,1.62-.43,2.44-.6,.82-.17,1.63-.37,2.41-.62,1.23-.35,2.49-.49,3.73-.71,.42-.05,.86,.03,1.28,.01,.42-.01,.83-.06,1.25-.11,.25-.03,.5,0,.73-.16,.13-.08,.49-.11,.63-.05,.5,.2,1.01,.11,1.52,.1,1.45-.07,2.89,.08,4.33,.16,.35,.02,.76-.05,1.05,.22,.04,.04,.25,0,.38,0,.14,0,.32-.04,.41,0,.88,.43,1.88,.36,2.81,.59l3.37,.83c1.11,.32,2.21,.66,3.29,1.05,.61,.21,1.2,.24,1.79,.47,.57,.21,1.13,.44,1.69,.68,.39,.17,.85,.28,1.12,.64,.07,.1,.36,.23,.5,.22,.52,.02,.95,.36,1.42,.55,.57,.25,1.05,.7,1.7,.79,.18,.03,.38,.31,.58,.46,.35,.26,.73,.48,1.09,.74,.17,.12,.38,.18,.56,.3,.69,.44,1.3,1.01,1.93,1.54,.57,.61,1.19,1.18,1.64,1.91,.53,.68,.87,1.51,1.2,2.33l.33,1.29c.08,.43,.09,.88,.13,1.32,.01,1.78-.49,3.5-1.27,5-.28,.57-.49,1.25-1.06,1.59-.16,.58-.56,.94-1.01,1.22-.07,.04-.11,.23-.17,.35-.2,.37-.2,.9-.77,1.02-.02,0-.05,.06-.08,.08-.29,.25-.22,.68-.69,.91-.3,.13-.61,.52-.9,.81-.3,.3-.63,.57-.91,.88-.29,.32-.74,.52-.88,.97-.02,.07-.38,.15-.51,.28-.69,.67-1.59,1.12-2.16,1.92-.13,.19-.4,.39-.62,.48-.8,.31-1.34,.87-2,1.41-.85,.73-1.83,1.42-2.92,1.74-.23,.07-.35,.08-.49,.3-.09,.14-.33,.27-.51,.39-2.06,1.27-4.18,2.46-6.33,3.58-.58,.31-1.24,.37-1.8,.75-.23,.16-.58,.19-.7,.47-.02,.04-.11,.1-.17,.11-.83,.15-1.42,.79-2.19,1.04-.17,.05-.33,.08-.5,.13-.17,.05-.38,.08-.5,.17-1.01,.77-2.27,1.09-3.4,1.63-.39,.18-.87,.24-1.13,.61-.04,.06-.22,.12-.31,.12-.79,0-1.46,.5-2.2,.69-.38,.1-.73,.41-1.15,.29-.05-.01-.19,.06-.28,.11-.15,.08-.28,.22-.43,.27-.43,.14-.94,.16-1.29,.37-.43,.25-.89,.36-1.34,.5-.26,.08-.55,.06-.82,.12-.25,.06-.51,.15-.76,.23-.36,.11-.73,.26-1.09,.31-.37,.05-.59,.37-1.03,.31-.34-.05-.62,.28-.96,.39-.17,.06-.36,.07-.53,.09-.14,.01-.28-.03-.4,0-.27,.08-.55,.11-.82,.28-.19,.12-.58,.07-.88,.12-.3,.05-.59,.14-.88,.2-.3,.06-.63,.08-.88,.2-1.13,.51-2.37,.59-3.56,.83-.31,.06-.65,.21-.95,.04-.05-.03-.23,0-.32,.03-1.09,.49-2.33,.43-3.48,.66-.82,.17-1.63,.38-2.49,.45-.83,.05-1.69,.09-2.48,.25-.65,.14-1.3,.27-1.95,.25-.63,0-1.22,.45-1.86,.12-.64,.03-1.29,.07-1.93,.08-.54,0-1.1,.11-1.63-.09-.19-.07-.57-.07-.78,0-.67,.24-1.33,.17-2.02,.05-.16-.03-.37,.08-.55,.08-.57,0-1.14,.02-1.71-.03-1.68-.13-3.35,.03-5.03-.09-.31-.02-.66,.13-.93,.06-1.64-.4-3.37-.3-5-.66-2.39-.53-4.82-.75-7.21-1.27-.31-.07-.6-.31-.76-.29-.49,.07-.98-.18-1.39-.15-.73,.06-1.38-.24-2.06-.35-.5-.08-.99-.36-1.5-.24-.08,.02-.24-.03-.32-.09-.66-.42-1.46-.29-2.14-.61-1.43-.14-2.75-.79-4.11-1.24-.2-.07-.42-.08-.62-.13-.11-.02-.24-.04-.31-.09-1.1-.77-2.43-1.12-3.58-1.87-.38-.25-.72-.55-1.08-.83-.37-.29-.81-.52-1.04-.97-.07-.14-.3-.3-.46-.45-.45-.38-.75-.94-.76-1.44,0-.51,.29-.82,.59-.8,.24,0,.24,.2,.39,.35,.27,.3,.55,.5,.85,.85,.23,.27,.51,.58,.9,.61,.06,0,.2,.11,.25,.18,.4,.53,1.12,.78,1.59,1.19,.37,.32,.78,.49,1.17,.73,.33,.2,.74,.26,1.01,.59,.09,.11,.51,.11,.76,.2,.59,.22,1.19,.44,1.78,.69,1.78,.75,3.7,.99,5.53,1.56,1.4,.08,2.72,.66,4.09,.81,1.65,.18,3.26,.57,4.9,.76,.34,.04,.6,.09,.89,.21,.19,.08,.38,.16,.59,.19l2.34,.33c.42,.06,.9-.02,1.24,.28,.05,.04,.24,.06,.32,.04,.71-.19,1.44,.04,2.16,.08,.28,.01,.54,.04,.83,.16,.31,.13,.82,.16,1.17,.09,.26-.05,.49-.04,.73-.04,1.02-.03,2.06,.3,3.06,.01,.51,.3,1.16,.23,1.69,.17,2.03-.22,4.06-.03,6.09-.15,.49-.03,.99,.07,1.48,.08,.52,0,1.05-.04,1.57-.08,.28-.02,.61,.05,.81-.17,.01-.02,.06-.03,.09-.03,.3,.01,.61,.07,.9,.04,.26-.04,.49-.19,.75-.25,.31-.07,.64-.1,.97-.14,.31-.03,.64-.11,.92,.04,.22-.25,.6-.17,.91-.23,.29-.05,.59-.07,.89-.1l1-.12c.33-.04,.67-.07,1-.13,.45-.09,.88-.24,1.33-.33,.47-.09,.96-.17,1.43-.23l1.81-.17c.25-.03,.45-.12,.67-.25,.3-.17,.65-.48,1.13-.26,.09,.04,.38-.03,.53-.1,1.2-.58,2.55-.61,3.8-1.02,.76,.06,1.4-.26,2.1-.52,1.03-.38,2.13-.74,3.2-.93,1.13-.19,2.17-.63,3.24-.95,.3-.09,.6-.29,.92-.18,.07,.03,.29-.07,.41-.15,.78-.52,1.63-.78,2.55-1,.49-.11,.96-.41,1.44-.69,.71-.42,1.56-.69,2.34-1.04,.44,.09,.6-.27,.73-.46,.17-.24,.38-.36,.65-.49,.35-.17,.72-.29,.99-.6,.14-.16,.54-.33,.77-.34,.31-.01,.38-.11,.57-.3,.23-.22,.62-.14,.96-.32,.36-.2,.73-.53,1.18-.45,.04,0,.15-.05,.19-.1,.55-.6,1.4-.59,2.01-1.06,2.15-.8,4-2.19,5.97-3.32,.81-.47,1.72-.82,2.4-1.45,1.44-1.32,3.11-2.32,4.54-3.61,.31-.27,.57-.68,1.02-.72,.06,0,.2-.13,.24-.21,.28-.59,.76-.94,1.31-1.25,.13-.08,.32-.28,.34-.39,.05-.31,.3-.47,.49-.66,.22-.24,.63-.46,.69-.66,.13-.44,.44-.48,.66-.7,.14-.14,.23-.34,.33-.51,.05-.08,.06-.23,.1-.26,.55-.38,.65-1.07,1.02-1.55,.09-.1,.15-.23,.24-.32,.45-.57,.72-.86,.88-1.24,.18-.37,.32-.82,.48-1.7,.41-.42,.06-1.06,.3-1.56,.11-.19,.09-.57,0-.8-.35-1.01-.49-2.05-1.04-2.98-.11-.19-.04-.44-.35-.58-.11-.05-.16-.47-.31-.67-.22-.28-.41-.64-.8-.77-.17-.05-.31-.35-.52-.49-.26-.2-.46-.49-.82-.59-.19-.06-.53-.31-.65-.5-.47-.82-1.35-1.02-2.09-1.34-.22-.11-.39-.15-.59-.33-.28-.24-.65-.57-.95-.61-.53-.06-.92-.34-1.36-.55-.77-.34-1.52-.73-2.32-1.01-.9-.34-1.77-.76-2.75-.92-.53-.09-1.21-.22-1.67-.66-.05-.05-.32,.04-.47,0-1.18-.37-2.35-.62-3.51-.92-.27-.07-.51-.42-.8-.26-.31,.18-.5-.37-.78-.11-.04,.04-.29,0-.41-.05-1.35-.49-2.82-.54-4.25-.65-.34-.04-.74,.05-1-.21-.88,.19-1.85-.34-2.7,.12-.63-.06-1.29,.17-1.91-.09-.1-.04-.31,.05-.43,.02-.39-.11-.59,.35-1.08,.17-.28-.11-.77,.02-1.17,.05-.37,.02-.73,.08-1.1,.14l-1.2,.19c-.4,.06-.81,.11-1.2,.2-.8,.2-1.54,.56-2.37,.67-.09,.01-.23,.08-.25,.13-.19,.42-.64,.31-.94,.29-.25-.02-.46-.01-.71,.06l-2.02,.58c-.4,.12-.78,.38-1.23,.28-.14-.03-.45,.09-.61,.2-.76,.49-1.65,.72-2.47,1.06l-1.13,.46c-.29,.12-.51,.39-.85,.37-.63,.43-1.32,.76-2.01,1.09-.69,.32-1.4,.61-2.07,.98-1.34,.71-2.67,1.44-4,2.18-.33,.19-.64,.51-1.06,.47-.08,0-.31,.14-.35,.22-.12,.23-.22,.38-.53,.35-.06,0-.21,.14-.29,.23-.21,.25-.45,.38-.77,.47-.25,.08-.55,.23-.72,.41-.47,.48-.91,.92-1.58,1.1-.08,.02-.16,.29-.28,.37-.48,.3-.83,.77-1.4,.96-.23,.08-.46,.33-.68,.51-.4,.29-.66,.69-1.1,.98-.44,.3-.82,.72-1.22,1.12l-1.2,1.17-1.21,1.19-1.24,1.19-1.28,1.17-1.32,1.12c-.32,.25-.63,.46-1.01,.63-.48,.23-.97,.52-1.49,.89-.51,.38-1.04,.83-1.62,1.33-.08,.07-.19,.13-.28,.19-1.23,.84-2.49,1.65-3.79,2.34-.57,.3-1.19,.53-1.77,.86-.37,.22-.76,.39-1.07,.73-.26,.29-.81,.32-1.08,.73-.1,.15-.47,.33-.68,.36-.71,.1-1.3,.52-1.94,.8l-2.19,.99c-.36,.16-.75,.25-1.04,.58-.15,.16-.61,.28-.91,.31-.46,.05-.87,.23-1.24,.43-.8,.43-.79,.44-1.67,.61-.11,.02-.21,.06-.32,.09-1.04,.37-2.15,.63-3.13,1.06-.83,.36-1.67,.61-2.52,.85-.34,.1-.7,.31-1.05,.15-.05-.02-.24,.03-.32,.08-.64,.45-1.45,.51-2.17,.71-.7,.19-1.29,.58-1.99,.74-.63,.15-1.29,.43-1.62,.66-.07,.04-.11,.07-.13,.09-.04,.02-.04,.02-.05,0-.02-.02-.1-.06-.14-.08,0,0-.02-.02-.03-.02-.01-.01-.07-.03-.06-.02,.11,.02-.03,0-.13,0-.12,0-.25,0-.42,0-.28,0-.45-.05-.53-.27-.06-.2,.03-.6,.4-.95,.79-.72,1.73-.97,2.58-1.24,.86-.25,1.68-.43,2.4-.66Z"/>
        </g>
        <g class="cls-12">
          <g class="cls-12">
            <path class="cls-5" d="M50.48,83.72c-2.72-.39-5.48-1.63-7.97-1.47-.27,0-.55,.02-.85,.03l.39,.16c1.46,.61,3.06,1.1,4.66,1.47,1.59,.37,3.17,.63,4.68,.85,1.88,.16,3.87,.1,5.73,.97,.2,.1,.36-.18,.43-.32-.11-.26-.19-.53-.26-.8-1.69-.49-3.41-.68-5.16-1.04-.57-.15-1.31,.24-1.65,.15Z"/>
            <polygon class="cls-7" points="57.34 84.68 57.32 84.62 57.07 84.55 57.34 84.68"/>
            <path class="cls-4" d="M53.16,83.85c-.58-.04-1.14-.15-1.69-.28-.39,.07-.77,.2-.99,.15-2.72-.39-5.48-1.63-7.97-1.47-.26,0-.54,.02-.84,.03l.42,.17c1.01,.43,2.09,.77,3.19,1.09h.19c.66-.09,1.18,.27,1.77,.4,1.71,.15,3.05,.6,4.68,.79,.58,.07,1.27-.14,1.93,.07,.23,.06,.44,.13,.65,.21,.9,.12,1.81,.33,2.66,.73,.2,.1,.36-.18,.44-.32-.06-.14-.11-.28-.15-.42-.71-.37-1.47-.62-2.25-.88-.72-.13-1.43-.25-2.12-.38,.02,.03,.05,.07,.09,.1Z"/>
            <path class="cls-7" d="M53.2,83.37c-.1-.03-.27,.17-.13,.38,.69,.12,1.4,.25,2.12,.38-.65-.23-1.32-.44-1.99-.76Z"/>
            <path class="cls-9" d="M53.57,82.33c-1.39-.48-2.82-.33-3.93-.83-.58-.24-1.14-.57-1.6-.97-.19-.03-.38-.06-.57-.09-4.7-.58-9.3-1.8-13.46-3.93-2.1-.99-4.27-1.43-6.57-2.26-1.3-.61-2.11-1.51-3.17-2.43-2.57-2.36-5.73-3.05-8.75-5.09-.81-.54-1.75,.3-1.57,.47,4.92,3.68,9.44,7.39,15.11,9.8,4.37,1.86,8.45,3.56,12.6,5.28,.29-.01,.58-.02,.85-.03,2.49-.16,5.25,1.08,7.97,1.47,.34,.08,1.08-.31,1.65-.15,1.74,.36,3.47,.55,5.16,1.04-.15-.56-.26-1.1-.5-1.55-1.12-.2-2.22-.34-3.22-.73Z"/>
            <path class="cls-6" d="M53.57,82.33c1,.39,2.09,.53,3.22,.73-.12-.22-.27-.41-.47-.58-2.45-1.56-5.61-1.57-8.27-1.95,.46,.4,1.02,.73,1.6,.97,1.1,.5,2.54,.34,3.93,.83Z"/>
            <path class="cls-4" d="M53.57,82.33c.95,.37,1.99,.52,3.06,.71-.32-.18-.65-.34-1-.46-1.77-.63-3.6-.92-5.3-1.56,1.9,.37,3.82,.79,5.77,1.33-2.43-1.41-5.48-1.44-8.06-1.81,.46,.39,1.02,.73,1.6,.97,1.1,.5,2.54,.34,3.93,.83Z"/>
            <path class="cls-3" d="M50.65,81.9c2.1,.58,4.19,1.14,6.39,1.7-.05-.14-.1-.28-.16-.42-.08-.05-.16-.1-.25-.15-1.07-.19-2.11-.33-3.06-.71-1.39-.48-2.82-.33-3.93-.83-.58-.24-1.13-.57-1.6-.97-.18-.03-.36-.06-.54-.09-2.42-.29-4.77-.75-7.08-1.42-2.11-.2-4.26-1.05-6.18-2.15,.94,.41,1.92,.74,2.91,1.05-1.06-.42-2.11-.88-3.12-1.4-.9-.41-1.79-.75-2.72-1.03-.3,.18-.69,.27-1.21,.1-.82-.25-1.52-.68-2.42-.83-.1-.06,.03-.26-.17-.38,.57,.33,1.13,.44,1.65,.44-.57-.19-1.14-.38-1.71-.56-1.01-.49-1.75-1.13-2.51-1.85l-.3-.15c-.49-.25-1.04-.44-1.59-.63,.19,.13,.37,.27,.57,.41-.39-.08-.77-.36-1.06-.57,.16,.05,.33,.11,.49,.16-.44-.33-.88-.62-1.34-.98,.56,.43,1.24,.71,1.82,.94-1.1-.68-2.14-1.28-3.06-2.19l.1,.02c-1.63-.83-3.39-1.52-5.05-2.67-.81-.54-1.75,.3-1.57,.47,3.46,2.57,6.66,5.13,10.25,7.29-.32-.4-.64-.79-.95-1.17-.16-.14-.29-.3-.39-.48,.13,.16,.26,.32,.39,.48,.42,.39,.96,.69,1.41,1.12,.05,.13,.36,.32,.6,.2,.63,.57,1.58,.9,2.22,1.45,.04,.02,.08,.12,.13,.24,.48,.23,.95,.46,1.45,.65,2.77,1.16,5.3,2.23,7.94,3.34-.59-.35-1.14-.75-1.63-1.15-.63-.61-2.35-.93-3.71-1.45-.36-.09-.46-.4-.78-.56,.72-.04,1.39,.21,2.07,.53,.68,.3,1.36,.68,2.05,.9,1.81,.62,4.21,2.03,6.36,2.13,.89,.01,1.59,.5,2.22,.91-.28,.09-.75-.04-.98-.12-2.08-.6-4.11-1.34-6.19-1.99,2.02,1.06,4.16,1.57,6.26,2.51-1.31-.3-2.46-1.01-3.75-1.04,.08,.09,.17,.17,.26,.25,.8,.33,1.61,.67,2.46,1.02,.29-.01,.57-.02,.84-.03,2.49-.16,5.25,1.08,7.97,1.47,.22,.05,.59-.08,.99-.15-.86-.2-1.71-.46-2.59-.62,.34,.14,.66,.31,.94,.54-.83-.11-1.44-.57-2.28-.68,.46,0,.91,.06,1.35,.14-.51-.21-1.06-.35-1.61-.53,1.13-.06,2,.77,3.17,.57-.23-.04-.46-.1-.68-.17l.7,.16h-.01c.71,.12,1.43,.12,2.1,.12-1.21-.26-2.25-.78-3.45-.99-.2-.02-.4-.05-.6-.07,.2,.01,.4,.04,.6,.07,2.76,.36,5.47,1.28,7.98,2.43l.25,.08-.1-.38c-2.13-.93-4.4-1.64-6.57-2.35Z"/>
          </g>
        </g>
        <g class="cls-12">
          <g class="cls-12">
            <path class="cls-5" d="M9.45,50.56c-.14,.25-.41,.43-.63,.64-.19,.23-.34,.5-.06,.87,.05,.08,.11,.16,.17,.24l.08-.06c.64-.41,1.02-.82,1.23-1.35,.03-.4-.07-1.07,.33-1.27,.04-.02-.14-.28-.23-.41-.15-.13-.32-.28-.49-.42-.23,.4-.31,.87-.57,1.18-.11,.09,.22,.53,.17,.58Z"/>
            <polygon class="cls-7" points="9.88 48.83 9.85 48.8 9.81 48.86 9.88 48.83"/>
            <path class="cls-4" d="M9.48,49.84c-.02,.16-.1,.25-.18,.35,.06,.16,.19,.34,.15,.37-.14,.25-.41,.43-.63,.64-.19,.23-.34,.5-.06,.87,.05,.08,.11,.16,.17,.23l.09-.06c.21-.15,.42-.28,.57-.43l-.03-.05c-.14-.21,.15-.17,.23-.25,.01-.36,.36-.43,.41-.77,.03-.11-.16-.44-.04-.52,.03-.04,.07-.06,.11-.08,.04-.22,.13-.41,.3-.51,.04-.02-.14-.28-.23-.41-.08-.07-.17-.14-.25-.22-.18,.07-.32,.2-.48,.31-.07,.17-.12,.35-.21,.49,.03,.01,.05,.03,.08,.03Z"/>
            <path class="cls-7" d="M9.11,49.54s.13,.19,.29,.27c.09-.14,.14-.32,.21-.49-.13,.09-.27,.19-.5,.22Z"/>
            <path class="cls-9" d="M8.32,48.77c-.4,.2-.27,.77-.71,.86-.2,.07-.48,.09-.83,.07-.03,.06-.05,.11-.08,.16-.5,1.4-.72,2.7-1.18,4.07-.16,.71,.43,1.37,.89,1.95,.17,.37-.14,.75-.22,1.22-.16,.59,.23,1.01,.7,1.3,.51,.28,1.11,.42,1.57,.64,.24,.13,1.21-.68,1.18-.73-.59-.3-.91-.87-1.12-1.45-.19-.6-.27-1.2-.52-1.84-.33-1,.02-2.1,.91-2.71-.06-.08-.12-.16-.17-.24-.28-.37-.13-.64,.06-.87,.23-.21,.5-.39,.63-.64,.05-.05-.28-.48-.17-.58,.26-.31,.33-.78,.57-1.18-.35-.31-.71-.62-1.01-.81-.13,.33-.21,.66-.51,.78Z"/>
            <path class="cls-6" d="M8.32,48.77c.3-.12,.38-.44,.51-.78-.15-.09-.28-.16-.4-.18-1.09,.03-1.36,1.15-1.66,1.89,.35,.02,.63,0,.83-.07,.44-.09,.3-.66,.71-.86Z"/>
            <path class="cls-4" d="M8.32,48.77c.29-.11,.37-.41,.5-.73-.12,.01-.23,.05-.32,.1-.43,.32-.73,.75-1.28,1,.35-.46,.74-.88,1.12-1.33-1.01,.11-1.27,1.17-1.55,1.89,.35,.02,.62,0,.83-.07,.44-.09,.3-.66,.71-.86Z"/>
            <path class="cls-3" d="M7.95,49.51c.24-.19,.47-.37,.69-.56,.2-.21,.39-.42,.55-.71-.09-.07-.19-.14-.27-.2-.04,0-.07,0-.1,0-.12,.32-.21,.62-.5,.73-.4,.2-.27,.77-.71,.86-.2,.07-.48,.09-.83,.07-.03,.05-.05,.1-.07,.15-.25,.71-.43,1.41-.62,2.09,.22,.7,0,1.27-.31,1.9,.02-.3,.05-.6,.04-.91-.09,.28-.18,.6-.3,1-.07,.3,0,.59,.14,.87,.29,.05,.55,.13,.63,.27,.13,.22,.14,.45,.44,.64,0,.03-.24,.06-.24,.13,0-.18-.17-.31-.43-.41,.12,.15,.24,.31,.36,.46,.12,.29-.02,.58-.14,.93,.02,.03,.04,.06,.05,.09,.09,.14,.26,.26,.45,.36-.01-.06-.02-.13-.03-.19,.17,.05,.19,.18,.2,.28l-.17-.08c.03,.15,.05,.3,.1,.46-.06-.19-.23-.34-.41-.46,.13,.36,.37,.62,.33,1.05h-.05c.52,.34,1.22,.5,1.72,.73,.24,.13,1.2-.68,1.18-.73-.84-.42-1.11-1.34-1.31-2.16-.15,.14-.28,.28-.4,.43-.02,.06-.07,.12-.14,.19,.05-.06,.09-.12,.14-.19,.06-.15,0-.28,.11-.44,.08-.04,.07-.12-.16-.1,.14-.22-.09-.4,.09-.61,0-.01,.07-.04,.15-.07-.03-.11-.07-.22-.12-.33-.19-.63-.15-1.29,.14-1.85-.17,.12-.36,.23-.59,.34-.39,.15-.08,.6,0,.93,.07,.08-.18,.14-.19,.22-.68-.3-.17-.71-.24-1.07,0-.51,.69-1,.41-1.6-.12-.26,.2-.37,.51-.41,.11,.11,.06,.21,.03,.25-.26,.43-.5,.9-.51,1.42,.4-.45,.42-.97,.97-1.29-.07,.27-.53,.43-.26,.78,.06,0,.12-.02,.17-.02,.12-.16,.28-.29,.46-.42-.06-.08-.12-.16-.17-.23-.28-.37-.13-.64,.06-.87,.23-.21,.5-.39,.63-.64,.04-.03-.09-.21-.15-.37-.13,.14-.34,.23-.45,.41,.1-.03,.24-.02,.42,.02-.08,.16-.43,.11-.5,.29-.01-.12,.02-.22,.07-.31-.16,.04-.27,.13-.4,.21-.09-.37,.58-.2,.4-.63-.03,.05-.07,.08-.13,.11l.13-.12h0c.09-.13,.07-.37,.06-.58-.18,.23-.61,.26-.78,.53-.01,.05-.03,.1-.05,.15,0-.06,.02-.11,.05-.15,.3-.67,1.05-.99,1.68-1.26l.03-.06-.24-.21c-.39,.22-.92,.51-1.66,.92Z"/>
          </g>
        </g>
      </g>
    </g>
  </g>
</svg>