<?xml version="1.0" encoding="UTF-8"?>
<svg id="_Слой_2" data-name="Слой 2" xmlns="http://www.w3.org/2000/svg" xmlns:xlink="http://www.w3.org/1999/xlink" viewBox="0 0 152.86 118.85">
  <defs>
    <style>
      .cls-1 {
        fill: none;
      }

      .cls-2 {
        clip-path: url(#clippath);
      }

      .cls-3 {
        fill: #f3f9fb;
      }

      .cls-4 {
        fill: #f7fbfc;
      }

      .cls-5 {
        fill: #f8fcfd;
      }

      .cls-6 {
        fill: #f4fafb;
      }

      .cls-7 {
        fill: #f5fafb;
      }

      .cls-8 {
        fill: #eab7c9;
      }

      .cls-9 {
        fill: #fbfdfe;
      }

      .cls-10 {
        fill: #6e7c6e;
      }

      .cls-11 {
        opacity: .49;
      }

      .cls-12 {
        opacity: .8;
      }
    </style>
    <clipPath id="clippath">
      <rect class="cls-1" width="152.86" height="118.85"/>
    </clipPath>
  </defs>
  <g id="_лепестки" data-name="лепестки">
    <g class="cls-2">
      <g>
        <g class="cls-11">
          <path class="cls-10" d="M13.85,82.21c-1.61-7.54,3.94-14.29,10.92-19.02,6.37-4.33,14.55-7.04,21.95-9.2,19.29-5.63,41.91,3.15,63.04-4.94,9.92-3.8,20.64-6.81,21.7-2.67-9.98,13.49-13.61,18.86-27.4,28.19-17.96,12.16-26.95,17.74-41.51,22.9s-37.96,7.93-48.69-15.25"/>
          <path class="cls-10" d="M12.51,74.83c.76-2.19,1.76-3.74,2.7-5.29,.14-.25-.08-.8,.15-1.09,.89-1.12,1.57-2.52,2.95-3.05,1.53-.53,2.63-1.4,3.48-2.55,.8-1.12,1.95-1.74,2.98-2.55,.35-.26,.67-.58,1.37-.31,.52,.2,1.07-.05,1.11-.95,0-.18,.25-.13,.41-.14,.17,0,.48,.2,.53,.06,.58-1.64,2.17-1.4,3.2-2.18,.26-.2,.71-.01,.65-.84-.02-.21,.26-.36,.42-.23,.41,.35,.68,.34,.95,.22,1.19-.53,2.42-.97,3.63-1.42,.25-1.17,1.09-.98,1.73-1.2,.48-.16,1.08,.02,1.62,.04,.54,.03,.87-.75,1.6-.05,.12,.11,.22-.2,.35-.26,.59-.26,1.13-.76,1.8-.62,.34,.07,.68,.15,.98,.06,3.86-1.08,7.93-1.91,11.92-2.17,.35-.03,.69,.04,1.02-.55,.26-.47,.9-.52,1.2-.07,.48,.72,.89,.41,1.32,.43,.79,.03,1.58-.09,2.37,0,.47,.05,.99-.46,1.39,.56,.04,.1,.19,.1,.24,0,.52-.98,1.02-.17,1.53-.02,.37,.1,.74,.1,1.17-.37,.41-.46,1.08-.52,1.43,0,.47,.69,.93,.48,1.38,.51,2.7,.17,5.39,.31,8.07,.37,1.27,.01,2.55-.82,3.81-.43,.3,.09,.64-.28,.89,.43,.05,.15,.3,.07,.4-.11,.36-.63,.7-.38,1.09-.34,1.77,.2,3.57,.5,5.29-.1,1.32-.54,2.63-.39,3.94-.61,.43-.09,.91,.34,1.36,.39,.44,.05,.87-.04,1.3-.12,.25-.05,.54,.12,.72-.47,.1-.32,.45-.44,.63-.22,.61,.75,1.11,.33,1.62,.26,.74-.1,1.49-.22,2.22-.36,.73-.18,1.45-.36,2.18-.51,.36-.08,.65-.57,1.2,.19,.08,.1,.21-.22,.32-.33,.12-.11,.21-.42,.35-.33,1.24,.78,2.04-.17,3-.44,2.35-.71,4.67-1.8,7.1-2.41,.68-.18,1.05-1.07,1.72-1.23,.71-.17,1.59-.51,2.4-.65,.55-.09,1.28-.68,1.62,.16,.09,.23,.46,.13,.69-.15,.89-1.07,1.47-.71,2.17-.94,.92-.26,1.32,.22,2.74-.72,.4-.26,.42,.26,.69,.3,.46,.1,.94,.17,1.47,.21,.25,.03,.76-.2,1.02-.16,.97,.16,1.94,.42,2.76,1.05,.41,.31,.77,.71,1.03,1.17l.17,.35c.03,.09,0,.17,0,.25l-.06,.5-.15,1.05-.09,.53c0,.07-.08,.21-.15,.33l-.2,.37-.81,1.47-.4,.73c-.07,.12-.13,.24-.21,.37l-.29,.4c-1.55,2.09-3.08,4.27-4.77,6.28-.48,.54-.35,1.52-1.7,1.26,.18,.93-.51,1.09-1.48,.99-.14-.01,0,.36,0,.53-.05,.55,.6,1.67-.74,1.2-.05-.02-.05,.07-.09,.09-.41,.19,.42,1.3-.56,1.17-.6-.08-.8,.46-1.13,.76-.34,.32-.71,.61-.94,1.03-.25,.43-1.04,.37-.65,1.39,.06,.17-.68-.08-.8,.1-.59,.94-2,1.01-1.98,2.59,0,.36-.3,.6-.65,.59-1.27-.05-1.6,.86-2.14,1.69-.69,1.11-1.65,2.07-3.37,1.79-.36-.06-.58-.16-.52,.36,.04,.34-.24,.45-.43,.6-2.14,1.59-4.35,3.07-6.51,4.53-.59,.4-1.67-.02-2.08,.68-.17,.29-.73,.08-.49,.89,.03,.11-.04,.24-.12,.22-1.25-.29-1.23,1.3-2.18,1.46-.2,.03-.45-.02-.66,0-.21,.02-.53-.05-.59,.15-.48,1.7-2.12,1.73-3.1,2.72-.34,.34-1.04,.17-.86,1.22,.03,.16-.15,.26-.3,.19-1.31-.57-1.56,.67-2.42,.84-.44,.09-.51,.89-1.34,.26-.11-.08-.2,.09-.25,.21-.09,.2-.08,.57-.24,.64-.44,.22-1.18,.03-1.39,.53-.25,.61-.77,.73-1.2,1.02-.24,.16-.72-.07-1.04,0-.29,.06-.51,.27-.76,.41-.36,.21-.65,.57-1.09,.58-.46,0-.25,1.05-.98,.66-.56-.3-.45,.71-.74,1-.14,.14-.38,.14-.6,.14-.17,0-.45-.22-.55-.13-.25,.2-.6,.17-.69,.71-.07,.37-.68,.07-1,.17-.32,.09-.59,.29-.89,.44-.3,.15-.71,.13-.87,.47-.73,1.52-2.25,1.52-3.4,2.2-.3,.17-.53,.65-1.15-.02-.11-.12-.29-.05-.35,.08-.68,1.64-2.3,1.23-3.35,2.05-.77,.56-1.45,1.32-2.37,1.56-.9,.21-1.86,.32-2.55,1.01-.58,.56-1.18,1.12-1.95,1.12-.74,.01-.91,1.88-2,.67-.7,.21-1.4,.44-2.12,.57-.61,.09-1.14,.61-1.91-.08-.28-.26-.68-.15-.86,.18-.56,1.05-1.37,.93-2.21,.62-.2-.07-.36,.39-.57,.44-.63,.15-1.27,.33-1.93,.28-1.95-.12-3.77,1.03-5.77,1.08-.36,0-.76,.72-1.09,.52-1.95-1.1-4.04-.11-5.95-1.02-2.72-1.35-5.67-1.38-8.37-2.68-.35-.16-.43-1.01-.67-.88-.77,.37-1.14-.38-1.76-.17-1.16,.39-1.66-.52-2.48-.78-.63-.18-.86-1.02-1.89-.53-.15,.07-.32-.07-.35-.23-.22-1.27-1.75-.74-2.21-1.67-1.04-.12-1.77-.68-2.41-1.31-.6-.67-1.16-1.38-1.82-1.98-.2-.17-.55-.21-.82-.32-.14-.06-.36-.08-.37-.22-.09-1.99-1.79-2.75-2.39-4.3-.21-.5-.18-1.11-.33-1.62-.15-.51-.68-.84-.26-1.62,.13-.24-.1-.45-.28-.6-.97-.84,.07-2.31,2.37-3.38,.83-.39,.98-.22,1.39-.16,.79,.11,1.36,.29,1.53,.79,.12,.39,.1,.91,1.04,.79,.16-.02,.22,.15,.17,.29-.18,.49-.03,.83,.14,1.15,.19,.3,.4,.59,.35,1.01-.07,.64,.26,.99,.42,1.47,.13,.41,.75,.46,.36,1.28-.13,.28,.66,.17,.88,.36,.5,.45,.94,.96,1.33,1.5,.29,.42,.64,.79,1.05,1.09,.42,.29,.87,.54,1.31,.78,.92,.45,1.82,.87,2.54,1.54,.88-.05,1.5,.25,2.08,.66,.59,.38,1.17,.82,1.91,.86,1.76,.09,3.17,.95,4.84,1.1,.34,.02,.59,.11,.82,.47,.14,.24,.31,.47,.51,.53,.77,.21,1.58,.26,2.36,.46,.42,.13,.96-.41,1.23,.69,.04,.15,.24,.16,.34,.04,.8-.99,1.51-.31,2.26-.41,.29-.05,.55,0,.86,.39,.33,.43,.87,.38,1.22-.02,.26-.3,.49-.31,.74-.4,1.02-.4,2.21,.61,3.11-.79,.65,1.08,1.3,.61,1.8,.28,1.92-1.32,4.11-.98,6.13-1.7,.48-.18,1.1,.16,1.63,.11,.55-.06,1.08-.25,1.59-.46,.27-.11,.71,.14,.68-.72,0-.06,.03-.12,.07-.12,.34,.04,.74,.23,1.01,.07,.24-.14,.3-.75,.51-.98,.26-.28,.59-.42,.91-.55,.31-.13,.58-.43,1.09,.17-.07-.95,.45-.65,.74-.84,.27-.18,.59-.24,.88-.36l1-.39c.33-.13,.69-.2,.99-.42,.4-.3,.71-.79,1.12-1.06,.43-.28,.9-.49,1.41-.61,.63-.15,1.33-.14,1.98-.27,.27-.05,.38-.35,.47-.76,.13-.53,.11-1.57,1.05-.63,.19,.19,.43-.02,.52-.24,.65-1.74,2.38-1.42,3.43-2.39,1.12,.49,1.49-.4,2.06-1.01,.83-.89,1.81-1.66,3.09-1.74,1.34-.12,2.2-1.01,3.34-1.46,.32-.13,.45-.62,1.14-.05,.16,.13,.35-.05,.4-.24,.36-1.27,1.3-1.58,2.46-1.63,.61-.03,.92-.66,1.24-1.25,.47-.89,1.48-1.11,2.25-1.62,.91,.65,.59-.41,.51-.9-.1-.66,.05-.89,.32-1.08,.34-.25,.79-.32,.76-1.12-.02-.41,.43-.6,.82-.43,.53,.24,.5-.02,.55-.44,.06-.5,.89,.12,1.21-.16,.34-.29,.48-1.02,1.42-.33,.08,.06,.19-.03,.2-.13,.06-1.39,1.65-.51,2.06-1.38,2.73-.34,4.12-2.59,6.28-3.68,.9-.44,2.19-.43,2.62-1.43,.91-2.08,2.89-2.84,4.19-4.39,.27-.33,.27-1.01,1.3-.53,.14,.06,.27-.09,.23-.24-.26-1.15,.38-1.36,1.3-1.39,.22,0,.4-.24,.28-.49-.36-.69,.06-.72,.27-.92,.25-.24,1.03-.18,.89-.58-.31-.85,.52-.47,.85-.63,.2-.1,.2-.41,.24-.66,.02-.12-.15-.42-.05-.42,1.14,.03,.55-1.31,1.26-1.62,.15-.07,.24-.2,.41-.25,.24-.07,.45-.13,.64-.19,.19-.06,.36-.12,.45-.1,.21-.01,.36-.05,.46-.13,.21-.15,.26-.47,.22-.92,.79,.04,.74-.16,.61-.3-.13-.15-.34-.25,.38-.39,.53-.1,.59-.32,.32-.39-.59-.16-.56-.31-.34-.54,.21-.22,.63-.54,.5-.65-.07-.02,1.56-.75,.37-.34-.46,.18,1.08-.6,1.12-.72,0-.04,.12-.09,.14-.17,.03-.08,.07-.16,.05-.21-.04-.11-.28-.12-1.13,.27-.68,.31-.29-.08-.53-.06-.3,.05,.06-.41-1.19,.41-.67,.45-.79,.45-.4,.02,.81-.88,.57-.93,.15-.67-.44,.26-1.06,.82-1.41,1.13-.22,.19-.36,.36-.26,.11,.16-.35,.2-.78-.16-.27-.59,.89-.49,.55-.66,.64-.22,.13-.41,.04-.61,.2-.05,.04-.12,.06-.18,.07-.04,0-.04,0-.12,.02l-.36,.11c-.48,.16-.94,.39-1.32,.88-.41,.52-.98,1.08-1.93,.2-.1-.1-.13,.59-.28,.65-1.2,.47-2.41,.94-3.66,1.32-.27,.09-1.06-.85-1.03,.1,0,1.02-.97-.66-.85,.53,.02,.17-.29,.26-.48,.2-1.02-.31-1.86-.08-2.69,.21-.83,.25-1.65,.62-2.53,.67-.42,.02-.79,.6-1.31-.28-.82,1.29-2.35-.74-3.06,1.14-.78-.17-1.46,.9-2.31-.2-.14-.18-.35,.13-.51-.03-.51-.53-.6,1.26-1.24,.41-.36-.49-.92-.12-1.38-.11l-1.28,.08-1.41,.07c-.47,.02-.94-.02-1.41,.08-.94,.23-1.84,.92-2.81,.65-.1-.03-.28,.11-.32,.29-.32,1.51-.81,.67-1.13,.24-.27-.37-.51-.53-.8-.54-.8,0-1.6,.04-2.39-.07-.47-.07-.99,.41-1.41-.55-.13-.3-.5-.25-.72-.04-1.02,.95-2.02,.32-3.02,.43-.46,.05-.9,0-1.35-.06-.34-.04-.71,.59-1.02-.04-1.73,1.14-3.36,.27-5.03,.34-1.66,.06-3.26-.03-4.89-.14-.4-.01-.85,.47-1.2-.54-.07-.19-.36-.18-.44,.02-.23,.54-.41,.83-.67,.1-.05-.14-.27,.02-.38,.16-.32,.4-.61,.35-.96-.01-.26-.28-.62-.44-.87-.21-.67,.59-1.28,1.11-2.02,.08-.09-.13-.29,.56-.44,.53-.6-.11-1.12,.51-1.77-.24-.27-.31-.59-.03-.89-.09-.52-.1-.94,.46-1.49,.24-.57-.23-1.1,.11-1.65,.2-.55,.1-1.11,.16-1.64,.28l-1.59,.39-1.61,.4-1.72,.51-1.71,.52c-.4,.11-.8,.12-1.32-.13-1.33-.65-2.54-.1-3.74,1.19-.09,.09-.22,.09-.33,.13-1.44,.52-2.77,1.25-4.25,1.59-.65,.14-1.43,0-2.02,.36-.37,.23-.83,.28-.93,1.04-.08,.63-.94,.06-.87,1.08,.03,.37-.32,.54-.63,.4-1.04-.5-1.4,.28-2.01,.56-.7,.34-1.33,.77-1.92,1.28-.29,.24-.79,.21-.62,1.07,.08,.42-.43,.47-.85,.39-.64-.12-.91,.23-1.07,.64-.32,.91-.25,.95-1.24,1.1-.12,.02-.19,.09-.27,.17-.73,.7-1.69,1.26-1.89,2.31-.15,.86-.53,1.48-.86,2.11-.16,.25,.13,.73-.87,.5-.14-.03-.21,.12-.12,.24,.76,.97,.02,1.27-.1,1.83-.08,.26,.09,.56,.25,.83,.16,.27,.26,.51,.15,.73-.26,.43-.06,.9-.05,1.34,.11,.67-.47,.94-3.13,1.52-2.21,.47-2.73,.29-3.36-.68-.32-.52-.46-1.09-.56-1.65-.05-.57-.02-1.13,.04-1.68,.11-.54,.22-1.06,.34-1.55,.15-.48,.27-.95,.33-1.42Z"/>
        </g>
        <g>
          <path class="cls-8" d="M13.85,55.8c-1.61-7.54,3.94-14.29,10.92-19.02,6.37-4.33,14.55-7.04,21.95-9.2,19.29-5.63,41.91,3.15,63.04-4.94,9.92-3.8,20.64-6.81,21.7-2.67-9.98,13.49-13.61,18.86-27.4,28.19-17.96,12.16-26.95,17.74-41.51,22.9s-37.96,7.93-48.69-15.25"/>
          <path class="cls-8" d="M13.82,48.86c.69-2,1.59-3.49,2.55-4.89,.14-.23,.23-.53,.44-.8,.81-1.06,1.69-2.13,2.7-2.93,1.14-.83,2.19-1.73,3.19-2.6,.94-.85,1.99-1.52,3.03-2.21,.35-.23,.69-.46,1.16-.57,.34-.07,.88-.36,1.18-.75,.06-.08,.24-.13,.37-.18,.14-.05,.33-.06,.42-.13,.94-.84,2.2-1.18,3.29-1.75,.27-.15,.62-.19,.78-.48,.04-.07,.32-.2,.42-.19,.26,.02,.5-.05,.77-.17,1.17-.49,2.37-.94,3.56-1.38,.5-.45,1.2-.57,1.83-.79,.47-.16,.98-.23,1.46-.34,.49-.11,.96-.43,1.49-.36,.08,.01,.25-.11,.38-.16,.6-.21,1.2-.48,1.79-.57,.3-.05,.61-.1,.9-.18,3.79-1.07,7.69-1.87,11.63-2.11,.34-.03,.67-.04,1.02-.2,.28-.13,.9-.16,1.18-.05,.45,.17,.86,.08,1.28,.07,.78-.02,1.56-.06,2.33-.03,.46,.01,.97-.12,1.38,.14,.04,.02,.19,.02,.24,0,.51-.24,1.01-.05,1.52,0,.37,.03,.74,.04,1.15-.07,.4-.11,1.06-.11,1.42,.03,.48,.18,.93,.14,1.39,.16l8.07,.36c1.27,.04,2.53-.13,3.81,0,.3,.03,.64-.06,.91,.12,.06,.04,.3,.02,.4-.02,.35-.15,.7-.08,1.09-.07,1.79,.09,3.6,.12,5.35-.04,1.36-.19,2.69-.2,4.03-.31,.44-.06,.9,.01,1.36,0,.44-.02,.89-.08,1.33-.13,.26-.03,.53-.01,.77-.18,.13-.09,.51-.15,.66-.12,.54,.12,1.08-.05,1.61-.14l2.27-.38,2.24-.54c.37-.09,.75-.29,1.14-.16,.05,.02,.25-.1,.37-.15,.14-.05,.29-.17,.4-.18,1.03-.04,1.98-.53,2.94-.84,2.34-.8,4.67-1.75,7.05-2.47,.67-.21,1.19-.57,1.85-.75,.63-.18,1.26-.38,1.89-.54,.45-.11,.9-.33,1.38-.22,.13,.03,.45-.05,.58-.14,.46-.33,1.04-.34,1.57-.48,.65-.17,1.35-.15,1.98-.46,.17-.09,.53,0,.81-.02l1.44-.06c.23,0,.46-.08,.7-.07,.91,.05,1.86,.12,2.82,.72,.52,.35,.93,.85,1.15,1.42l.16,.44c-.02,.14-.13,.26-.19,.39-.12,.26-.34,.52-.52,.78-1.06,1.48-2.09,2.84-3.15,4.26-1.05,1.41-2.09,2.83-3.19,4.2-.42,.51-.72,1.19-1.33,1.48-.24,.59-.67,.93-1.16,1.22-.07,.04-.12,.25-.2,.37-.23,.39-.27,.91-.84,1.07-.02,0-.05,.06-.08,.09-.3,.28-.23,.72-.73,.98-.31,.16-.62,.59-.92,.91-.31,.33-.64,.65-.92,.99-.3,.35-.75,.62-.89,1.1-.02,.08-.39,.19-.52,.34-.69,.78-1.62,1.34-2.18,2.24-.13,.21-.4,.45-.63,.57-.82,.41-1.37,1.06-2.04,1.7-.86,.85-1.86,1.68-2.99,2.14-.24,.1-.36,.12-.49,.37-.09,.16-.34,.31-.53,.45-2.11,1.56-4.29,3.02-6.45,4.48-.59,.4-1.27,.57-1.83,1.05-.23,.2-.59,.29-.69,.6-.01,.04-.11,.13-.16,.14-.86,.29-1.39,1.05-2.18,1.45-.17,.09-.34,.15-.51,.23-.17,.08-.39,.16-.5,.27-.95,.98-2.23,1.55-3.32,2.35-.37,.27-.87,.44-1.08,.86-.03,.06-.21,.17-.3,.19-.83,.17-1.43,.83-2.17,1.2-.38,.19-.7,.57-1.14,.57-.06,0-.19,.11-.27,.18-.14,.12-.25,.28-.4,.37-.42,.25-.95,.41-1.27,.69-.4,.36-.85,.58-1.29,.85-.25,.15-.55,.21-.83,.33-.26,.12-.5,.28-.75,.42-.35,.2-.7,.45-1.06,.6-.37,.15-.53,.53-1.01,.59-.36,.05-.59,.44-.91,.65-.16,.1-.35,.18-.53,.24-.14,.05-.3,.05-.42,.11-.26,.15-.55,.25-.79,.5-.17,.17-.59,.24-.88,.37-.29,.15-.58,.3-.88,.44-.29,.15-.63,.26-.87,.44-1.05,.82-2.34,1.23-3.52,1.82-.31,.14-.63,.38-.99,.3-.06-.01-.24,.06-.32,.12-1.02,.79-2.34,1.05-3.48,1.62-.82,.38-1.61,.82-2.49,1.13-.85,.28-1.75,.55-2.53,.94-.65,.31-1.29,.63-1.98,.78-.67,.16-1.18,.77-1.94,.61-.67,.21-1.35,.38-2.03,.55-.58,.13-1.14,.36-1.75,.29-.22-.03-.62,.06-.83,.18-.67,.38-1.4,.44-2.15,.47-.18,0-.38,.14-.58,.18-.61,.11-1.23,.23-1.84,.27-1.84,.15-3.63,.54-5.48,.57-.34,0-.72,.2-1.02,.14-1.83-.27-3.73-.13-5.53-.54-2.62-.61-5.28-1.1-7.78-2.15-.33-.12-.59-.46-.76-.47-.53-.07-1.03-.41-1.46-.51-.79-.16-1.42-.64-2.09-1-.51-.25-.94-.69-1.49-.79-.08-.01-.24-.13-.31-.21-.55-.64-1.39-.9-1.97-1.49-.69-.39-1.29-.92-1.87-1.46-.54-.58-1.1-1.15-1.63-1.74-.16-.17-.35-.3-.53-.46-.09-.08-.21-.16-.26-.25-.68-1.29-1.73-2.35-2.43-3.61-.25-.41-.41-.85-.62-1.28-.21-.43-.52-.82-.58-1.3-.02-.15-.16-.38-.28-.55-.6-.93-.6-1.83-.03-2.11,.21-.1,.32,.09,.5,.26,.35,.33,.63,.67,.86,1.15,.16,.38,.33,.81,.71,1.02,.06,.04,.15,.2,.17,.3,.09,.36,.27,.69,.45,1.01,.2,.31,.41,.62,.54,.94,.2,.49,.47,.89,.74,1.3,.22,.36,.57,.63,.66,1.09,.03,.16,.42,.37,.62,.59,.47,.5,.89,1.05,1.36,1.55,1.35,1.6,3.14,2.68,4.78,3.9,1.36,.6,2.56,1.56,3.95,2.07,1.66,.61,3.3,1.26,5.02,1.65,.35,.07,.63,.15,.93,.3,.19,.1,.4,.19,.61,.24,.82,.19,1.66,.31,2.49,.44,.44,.09,.96-.02,1.33,.29,.05,.04,.26,.06,.35,.04,.76-.19,1.55,0,2.32,0,.3,0,.58,0,.9,.11,.35,.12,.9,.1,1.26,0,.27-.08,.52-.09,.78-.11,1.08-.13,2.24,.06,3.27-.37,.59,.23,1.27,.04,1.82-.1,2.12-.56,4.3-.8,6.41-1.39,.51-.15,1.05-.17,1.58-.28,.55-.14,1.09-.3,1.63-.48,.29-.1,.65-.12,.81-.38,.01-.02,.06-.05,.09-.05,.32-.06,.65-.1,.94-.21,.26-.1,.46-.32,.72-.45,.31-.16,.65-.29,.98-.41,.32-.12,.65-.29,.97-.21,.17-.31,.58-.33,.89-.47,.29-.13,.6-.24,.9-.35l1.02-.4c.34-.13,.69-.25,1.01-.41,.45-.22,.87-.48,1.31-.69,.48-.22,.96-.44,1.45-.62,.61-.24,1.24-.43,1.85-.67,.25-.1,.44-.25,.64-.44,.27-.25,.57-.65,1.12-.56,.11,.02,.39-.14,.53-.26,1.12-.9,2.52-1.32,3.74-2.07,.81-.15,1.4-.66,2.08-1.1,1-.65,2.07-1.33,3.15-1.8,1.14-.52,2.15-1.2,3.21-1.8,.3-.17,.57-.44,.93-.41,.08,0,.3-.14,.4-.25,.73-.71,1.57-1.19,2.51-1.61,.49-.22,.95-.63,1.4-1.02,.68-.59,1.54-1.04,2.32-1.55,.48,0,.6-.4,.71-.61,.15-.28,.35-.44,.62-.63,.35-.24,.73-.43,.98-.8,.13-.19,.54-.44,.78-.49,.32-.07,.39-.18,.58-.41,.22-.26,.65-.25,.99-.5,.37-.26,.73-.66,1.21-.66,.04,0,.16-.08,.2-.13,.53-.7,1.45-.82,2.06-1.39,2.22-1.13,4.12-2.76,6.14-4.17,.84-.57,1.78-1.05,2.47-1.78,1.47-1.52,3.16-2.77,4.63-4.28,.31-.32,.59-.76,1.06-.86,.06-.01,.2-.17,.24-.25,.28-.66,.79-1.06,1.36-1.44,.14-.09,.34-.32,.36-.44,.05-.33,.32-.52,.52-.74,.25-.26,.67-.53,.74-.75,.15-.48,.48-.53,.74-.78,.16-.15,.27-.37,.39-.56,.06-.09,.08-.25,.13-.28,.62-.41,.81-1.15,1.32-1.65,.11-.11,.2-.24,.31-.34,1.26-1.13,1.26-1.13,2.41-2.9,.61-.27,.63-1.1,1.2-1.45,.21-.13,.46-.49,.58-.76,.52-1.18,1.47-2.08,2.16-3.15,.14-.22,.44-.26,.5-.63,.03-.1,.08-.11,.16-.15,.08-.04,.18-.1,.22-.16,.02-.05,.1-.08,.08-.14-.01-.05-.02-.11-.04-.16-.05-.1-.14-.2-.3-.21-.13-.02-.15-.13-.33-.21-.25-.1-.51-.3-.87-.19-.18,.05-.59-.01-.79-.11-.87-.42-1.76-.06-2.6,.16-.26,.06-.44,.13-.72,.11-.4-.02-.93-.03-1.21,.13-.5,.28-1.02,.31-1.53,.44-.89,.22-1.79,.42-2.67,.7-1,.31-2.03,.53-3,1.03-.52,.27-1.21,.59-1.89,.52-.08,0-.26,.23-.42,.28l-3.76,1.37c-.28,.11-.73-.05-.92,.25-.21,.33-.69-.02-.84,.34-.02,.05-.3,.14-.45,.16-.82,.1-1.59,.37-2.38,.61-.79,.21-1.58,.44-2.38,.59-.38,.07-.79,.29-1.14,.13-.91,.48-2.1,.08-2.98,.68-.71,.04-1.43,.42-2.15,.18-.11-.04-.35,.06-.48,.03-.44-.1-.66,.37-1.21,.19-.31-.1-.86,.03-1.31,.07-.41,.04-.82,.06-1.24,.08l-1.36,.07c-.45,.02-.91,.03-1.36,.07-.91,.1-1.8,.25-2.74,.2-.1,0-.27,.03-.31,.07-.31,.38-.78,.17-1.1,.07-.26-.09-.49-.13-.78-.13-.78-.01-1.56-.01-2.34-.05-.46-.02-.96,.09-1.39-.16-.13-.08-.5-.08-.71-.03-.98,.21-1.99,.02-2.98,.02-.45,0-.9-.03-1.35-.06-.34-.02-.69,.12-1.02-.05-1.67,.22-3.36-.05-5.03-.08l-4.98-.15c-.41,0-.88,.12-1.24-.13-.07-.05-.37-.04-.46,0-.24,.14-.42,.21-.69,.03-.05-.03-.28,0-.4,.04-.34,.1-.64,.09-.99,0-.27-.06-.64-.09-.91-.03-.71,.17-1.38,.32-2.11,.08-.09-.03-.32,.15-.48,.15-.62,0-1.23,.21-1.85,.06-.26-.06-.62,.04-.93,.04-.54,.02-1.03,.17-1.6,.19-.57,.01-1.18,.17-1.77,.27-.59,.1-1.19,.17-1.77,.31l-1.73,.43-1.74,.43-1.75,.52-1.74,.53c-.41,.12-.79,.22-1.23,.25-1.12,.09-2.37,.55-3.83,1.28-.1,.05-.23,.08-.34,.13-1.48,.54-2.93,1.16-4.39,1.71-.64,.24-1.31,.43-1.94,.73-.41,.21-.82,.37-1.16,.71-.28,.28-.85,.33-1.14,.74-.1,.15-.48,.35-.7,.39-.74,.14-1.32,.62-1.95,.99-.72,.43-1.42,.88-2.08,1.39-.33,.24-.71,.42-.92,.83-.1,.2-.53,.45-.82,.57-.43,.2-.78,.52-1.07,.83-.62,.71-.6,.71-1.36,1.24-.09,.07-.17,.15-.25,.23-.82,.79-1.65,1.62-2.23,2.57-.47,.79-.96,1.52-1.39,2.3-.19,.3-.25,.72-.61,.88-.05,.02-.14,.21-.15,.3-.05,.78-.48,1.46-.66,2.2-.11,.35-.13,.71-.13,1.06,0,.35-.05,.7-.08,1.06-.13,.68-.05,1.38-.02,2.07,.16,1.04,.05,1.29-.62,1.44-.55,.12-.72-.15-.98-1.09-.51-2.04,.03-4.16,.49-5.75Z"/>
        </g>
        <g class="cls-12">
          <g class="cls-12">
            <path class="cls-5" d="M18.81,88.52c-1.13-.54-2.11-1.41-3.04-2.2-.91-.83-1.78-1.59-2.79-2.1-.21-.11-.44-.23-.68-.36l.21,.31c1.58,2.38,4.09,4.44,6.8,5.58,1.74,.61,3.62,.71,5.49,1.23,.21,.06,.3-.24,.35-.39-.14-.24-.25-.49-.34-.74-1.51-.17-3.07-.43-4.52-1.1-.47-.23-1.22-.05-1.5-.22Z"/>
            <polygon class="cls-7" points="24.88 89.9 24.86 89.85 24.63 89.82 24.88 89.9"/>
            <path class="cls-4" d="M21.15,89.18c-.51-.12-.98-.33-1.44-.56-.36-.02-.73,0-.91-.1-1.13-.54-2.11-1.41-3.04-2.2-.91-.83-1.78-1.59-2.79-2.1-.21-.11-.43-.23-.67-.35l.23,.33c.55,.82,1.21,1.6,1.95,2.32l.16,.07c.57,.21,.83,.73,1.27,1.08,1.37,.78,2.4,1.65,3.9,2.17,.53,.2,1.21,.09,1.81,.35,.21,.07,.41,.17,.6,.26,.43,.07,.87,.14,1.3,.24,.43,.08,.87,.17,1.31,.3,.21,.06,.3-.24,.35-.39-.08-.13-.14-.26-.2-.39-.68-.22-1.37-.39-2.05-.65-.63-.1-1.24-.3-1.86-.49,.01,.04,.03,.07,.06,.11Z"/>
            <path class="cls-7" d="M21.28,88.72c-.08-.04-.27,.12-.19,.35,.62,.19,1.23,.39,1.86,.49-.58-.19-1.13-.49-1.67-.84Z"/>
            <path class="cls-9" d="M21.8,87.74c-1.01-.59-2.21-.74-2.89-1.51-.36-.38-.66-.83-.82-1.34-.13-.09-.26-.18-.39-.26-3.27-2.06-5.94-5.27-7.02-8.94-.62-1.78-1.57-3.37-2.24-5.35-.27-1.19,0-2.21,.17-3.4,.49-2.95-.72-5.55-.97-8.7-.07-.84-1.32-1.03-1.34-.82,.11,2.62-.05,5.17-.05,7.75,0,2.57,.16,5.2,.95,7.78,1.16,4.01,2.89,7.55,5.11,10.91,.24,.13,.46,.25,.68,.36,1.01,.51,1.88,1.27,2.79,2.1,.93,.8,1.9,1.67,3.04,2.2,.28,.17,1.03,0,1.5,.22,1.45,.67,3,.93,4.52,1.1-.19-.52-.3-1.03-.5-1.43-.44-.04-.89-.09-1.32-.18-.43-.11-.83-.27-1.21-.49Z"/>
            <path class="cls-6" d="M21.8,87.74c.37,.22,.78,.38,1.21,.49,.43,.09,.88,.14,1.32,.18-.09-.2-.2-.38-.35-.52-1.76-1.27-4.02-1.78-5.89-3,.16,.51,.46,.96,.82,1.34,.68,.76,1.88,.92,2.89,1.51Z"/>
            <path class="cls-4" d="M21.8,87.74c.35,.21,.74,.37,1.15,.48,.41,.09,.84,.14,1.26,.18-.25-.15-.51-.28-.77-.38-1.35-.53-2.74-1.07-3.81-2.06,1.31,.79,2.72,1.42,4.2,1.81-1.73-1.17-3.93-1.7-5.73-2.88,.16,.51,.46,.95,.82,1.34,.68,.76,1.88,.92,2.89,1.51Z"/>
            <path class="cls-3" d="M19.56,86.85c1.47,1.02,3.16,1.82,4.99,2.04-.05-.13-.09-.26-.14-.38-.07-.04-.13-.08-.2-.12-.42-.04-.85-.1-1.26-.18-.4-.11-.79-.27-1.15-.48-1.01-.59-2.21-.74-2.89-1.51-.36-.38-.66-.83-.82-1.34l-.36-.25c-1.67-1.06-3.2-2.39-4.42-3.96-1.38-1.12-2.31-2.86-2.76-4.63,.33,.78,.72,1.54,1.2,2.25-.44-.83-.81-1.7-1.07-2.59-.27-.76-.59-1.47-.92-2.2-.32-.08-.65-.26-.82-.69-.29-.66-.39-1.35-.78-2.03,0-.1,.23-.12,.21-.32,.05,.56,.3,.99,.62,1.32-.19-.46-.39-.93-.55-1.43-.22-.94-.08-1.77,.05-2.66l-.04-.28c-.06-.47-.22-.94-.39-1.42,0,.2,0,.4-.01,.6-.15-.31-.14-.72-.14-1.02,.05,.14,.1,.28,.15,.42,0-.47,.03-.92,.05-1.42-.03,.61,.11,1.23,.26,1.74-.07-1.11-.16-2.14,.07-3.23l.04,.08c-.27-1.57-.71-3.17-.85-4.91-.07-.84-1.32-1.03-1.34-.82,.15,3.66-.22,7.19,.07,10.83,.14-.43,.28-.85,.42-1.26,.03-.18,.08-.35,.17-.52-.05,.17-.11,.34-.17,.52-.09,.49-.03,1.02-.12,1.56-.07,.1-.07,.42,.18,.52-.12,.74,.19,1.57,.12,2.31,0,.04-.05,.13-.11,.23,.1,.45,.21,.9,.36,1.35,.74,2.5,1.68,4.84,2.84,7.04-.19-.58-.31-1.18-.38-1.73,0-.4-.23-.89-.53-1.43-.27-.56-.65-1.15-.88-1.75-.16-.29,0-.54-.06-.84,.95,.85,.96,2.31,1.63,3.4,.76,1.43,1.58,3.76,3.15,4.82,.63,.43,.92,1.1,1.16,1.72-.27-.04-.54-.37-.68-.52-1.24-1.43-2.31-2.98-3.31-4.59,.7,1.88,1.98,3.34,3.08,5.05-.42-.42-.76-.9-1.08-1.38-.34-.46-.67-.91-1.13-1.25,0,.11,.02,.22,.04,.33,.38,.69,.83,1.34,1.25,2.02,.23,.12,.46,.24,.67,.35,1.01,.51,1.88,1.27,2.79,2.1,.93,.8,1.9,1.67,3.04,2.2,.18,.11,.55,.08,.91,.1-.69-.4-1.34-.85-2-1.29,.23,.23,.43,.49,.58,.79-.66-.37-1.01-.96-1.63-1.38,.36,.18,.71,.38,1.05,.59-.41-.39-.73-.69-1.09-1.02,.92,.35,1.31,1.39,2.38,1.51-.18-.1-.36-.2-.52-.33,.17,.12,.35,.22,.53,.33h-.01c.55,.3,1.18,.45,1.75,.54-.49-.22-.91-.51-1.31-.83-.41-.3-.79-.62-1.23-.9-.15-.08-.3-.16-.46-.24,.16,.07,.31,.15,.46,.24,2.06,1.15,4.08,2.45,6.4,3.18l.23,.03-.12-.35c-1.89-.55-3.68-1.48-5.18-2.65Z"/>
          </g>
        </g>
        <g class="cls-12">
          <g class="cls-12">
            <path class="cls-5" d="M93.22,75.76c-1.85,1.14-4.22,1.58-5.47,3.14-.15,.16-.29,.34-.43,.51l.31-.1c2.33-.76,4.7-1.89,6.77-3.23,1.22-.93,2.32-2.16,3.84-2.88,.17-.08,.04-.37-.02-.51-.24-.1-.47-.22-.69-.35-1.12,.81-2.19,1.71-3.42,2.4-.42,.2-.62,.91-.87,1.03Z"/>
            <polygon class="cls-7" points="97.58 72.34 97.53 72.31 97.36 72.44 97.58 72.34"/>
            <path class="cls-4" d="M94.85,74.37c-.36,.3-.75,.53-1.15,.73-.19,.27-.33,.58-.49,.66-1.85,1.14-4.22,1.58-5.47,3.14-.15,.16-.29,.33-.43,.51,.11-.04,.22-.07,.33-.11,.81-.26,1.62-.57,2.42-.92l.1-.11c.33-.42,.85-.4,1.27-.6,1.09-.78,2.17-1.12,3.25-1.9,.39-.27,.65-.84,1.16-1.08,.16-.1,.33-.18,.5-.24,.58-.47,1.2-.92,1.91-1.26,.17-.08,.04-.37-.02-.51-.13-.05-.25-.11-.37-.17-.59,.25-1.14,.57-1.72,.86-.46,.34-.92,.68-1.4,.99,.03,.01,.07,.02,.12,.03Z"/>
            <path class="cls-7" d="M94.57,73.98c-.07,.03-.05,.28,.16,.37,.48-.31,.95-.65,1.4-.99-.49,.24-1,.47-1.56,.62Z"/>
            <path class="cls-9" d="M94.12,72.97c-1.05,.41-1.78,1.29-2.73,1.48-.48,.12-1.01,.14-1.52,.07-.13,.08-.27,.16-.4,.23-3.19,2.05-6.44,3.95-9.89,5.42-1.69,.81-2.96,2.11-4.45,3.35-.95,.63-1.92,.74-2.97,1.01-1.33,.3-2.34,.9-3.4,1.5-1.05,.59-2.23,1.19-3.64,1.19-.73-.03-1.17,1.15-.98,1.21,2.74,.4,5.22-.25,7.44-1.12,2.24-.9,4.24-2.05,6.23-3.32,3.09-1.98,6.21-3.49,9.51-4.58,.14-.18,.28-.35,.43-.51,1.25-1.56,3.62-1.99,5.47-3.14,.25-.12,.45-.83,.87-1.03,1.23-.69,2.3-1.59,3.42-2.4-.46-.27-.89-.58-1.3-.74-.65,.56-1.31,1.11-2.09,1.38Z"/>
            <path class="cls-6" d="M94.12,72.97c.78-.26,1.44-.81,2.09-1.38-.2-.08-.4-.13-.6-.12-2.14,.37-3.91,1.93-5.74,3.04,.51,.07,1.04,.05,1.52-.07,.94-.19,1.68-1.06,2.73-1.48Z"/>
            <path class="cls-4" d="M94.12,72.97c.75-.25,1.38-.76,2-1.3-.27,.07-.53,.16-.78,.28-1.27,.61-2.47,1.35-3.84,1.74,1.32-.7,2.64-1.41,3.92-2.19-2.05,.43-3.77,1.94-5.54,3.01,.51,.07,1.03,.04,1.52-.07,.94-.19,1.68-1.06,2.73-1.48Z"/>
            <path class="cls-3" d="M92.22,74.22c1.56-.66,3.08-1.39,4.47-2.42-.12-.07-.24-.13-.36-.18-.08,.02-.15,.03-.22,.05-.62,.54-1.25,1.05-2,1.3-1.05,.41-1.78,1.29-2.73,1.48-.48,.12-1.01,.14-1.52,.07l-.37,.22c-1.63,1.04-3.27,2.05-4.95,2.98-1.28,1.15-2.92,1.93-4.59,2.53,.73-.39,1.44-.8,2.14-1.25-.82,.41-1.65,.79-2.49,1.15-.72,.34-1.36,.77-1.97,1.25,0,.33-.09,.67-.43,.94-.53,.43-1.12,.71-1.58,1.28-.08,.04-.18-.18-.35-.09,.47-.23,.77-.57,.98-.97-.37,.31-.74,.63-1.1,.94-.75,.5-1.5,.67-2.31,.85l-.22,.14c-.37,.22-.7,.53-1.03,.85,.16-.06,.33-.13,.5-.2-.2,.24-.54,.39-.8,.48,.1-.09,.2-.19,.29-.28-.39,.15-.77,.29-1.19,.42,.51-.16,.97-.5,1.33-.81-.89,.44-1.7,.87-2.66,.93l.06-.06c-1.16,.67-2.43,1.39-4,1.41-.73-.02-1.18,1.16-.97,1.21,1.9,.28,3.71,.02,5.36-.43,1.65-.47,3.18-1.14,4.64-1.89-.42,.02-.83,.04-1.22,.06-.16,.04-.33,.05-.5,.03,.16,0,.33-.02,.5-.03,.45-.09,.87-.34,1.36-.44,.12,.03,.38-.09,.37-.34,.66-.14,1.24-.68,1.9-.82,.03-.02,.12,.01,.23,.05,.34-.22,.69-.43,1.04-.66,1.93-1.24,3.88-2.29,5.87-3.17-.53,.12-1.05,.21-1.57,.25-.72,0-1.74,.92-2.7,1.55-.22,.19-.49,.06-.74,.18,.56-1.05,1.9-1.26,2.85-1.88,1.29-.79,3.43-1.29,4.64-2.48,.5-.5,1.18-.57,1.79-.59-.1,.22-.44,.39-.61,.47-1.52,.73-3.04,1.45-4.5,2.32,1.7-.55,3.13-1.49,4.87-1.97-.9,.52-1.96,.67-2.64,1.44,.1,.01,.2,.02,.3,.02,.64-.25,1.28-.48,1.93-.7,.14-.17,.28-.34,.43-.51,1.25-1.56,3.62-1.99,5.47-3.14,.16-.08,.3-.39,.49-.66-.63,.31-1.28,.56-1.9,.9,.28-.07,.57-.1,.87-.07-.56,.35-1.2,.31-1.76,.66,.28-.23,.57-.43,.88-.59-.43,.1-.84,.28-1.26,.43,.63-.65,1.64-.44,2.21-1.22-.16,.09-.33,.17-.5,.23l.51-.24h0c.49-.27,.91-.67,1.28-1.05-.85,.48-1.77,.61-2.6,1.08-.13,.09-.26,.17-.4,.26,.13-.1,.26-.18,.4-.26,1.85-1.17,3.94-1.89,5.93-2.79l.17-.12-.31-.18c-1.63,.79-3.32,1.5-5.01,2.1Z"/>
          </g>
        </g>
        <g class="cls-12">
          <g class="cls-12">
            <path class="cls-5" d="M109.21,65.44c-.51,.41-1.48,.08-1.59,1.01-.02,.09-.03,.2-.05,.3h.11c.85,.05,1.61-.2,2.16-.71,.28-.42,.42-1.12,.91-1.28,.05-.02-.1-.29-.17-.43-.14-.15-.29-.32-.43-.49-.27,.35-.49,.78-.85,1-.14,.04,0,.57-.09,.6Z"/>
            <polygon class="cls-7" points="110.19 63.87 110.16 63.83 110.12 63.89 110.19 63.87"/>
            <path class="cls-4" d="M109.54,64.76c-.07,.15-.18,.22-.31,.27,0,.17,.03,.39-.02,.41-.51,.41-1.48,.08-1.59,1.01-.01,.09-.03,.19-.04,.3,.04,0,.08,0,.12,0,.29,.02,.58,0,.84-.06v-.06c.04-.25,.28-.09,.42-.13,.27-.33,.67-.3,.93-.63,.1-.11,.05-.5,.21-.56,.05-.03,.1-.05,.16-.05,.12-.23,.27-.42,.5-.49,.05-.02-.1-.29-.17-.43-.07-.08-.15-.17-.23-.25-.2,.04-.36,.14-.54,.21-.11,.15-.22,.29-.35,.41,.02,.02,.04,.04,.06,.06Z"/>
            <path class="cls-7" d="M109.29,64.35s.06,.22,.19,.35c.13-.12,.24-.26,.35-.41-.15,.06-.32,.1-.54,.06Z"/>
            <path class="cls-9" d="M108.77,63.38c-.36,.04-.43,.55-.81,.43-.19-.04-.43-.18-.68-.39-.04,.03-.08,.05-.11,.08-.85,.77-1.78,1.4-2.92,1.61-.54,.18-.73,.89-1.05,1.49-.25,.25-.66,.05-1.05,.02-1.02-.16-1,1.36-1.54,2.14-.14,.21,.42,1.34,.48,1.32,.99-1.14,2.42-1.29,3.48-2.29,.83-.75,1.82-1.09,3.02-1.03,.01-.1,.03-.21,.05-.3,.11-.93,1.08-.6,1.59-1.01,.08-.03-.04-.56,.09-.6,.36-.22,.58-.65,.85-1-.3-.36-.59-.74-.84-.99-.13,.28-.26,.54-.55,.53Z"/>
            <path class="cls-6" d="M108.77,63.38c.28,0,.42-.25,.55-.53-.12-.13-.23-.22-.32-.27-.88-.32-1.22,.46-1.73,.85,.26,.21,.5,.34,.68,.39,.38,.12,.45-.39,.81-.43Z"/>
            <path class="cls-4" d="M108.77,63.38c.27,0,.41-.23,.53-.49-.1-.02-.2-.02-.28,0-.4,.13-.73,.4-1.25,.33,.4-.2,.79-.4,1.14-.68-.82-.24-1.15,.51-1.64,.88,.26,.21,.49,.34,.68,.39,.38,.12,.45-.39,.81-.43Z"/>
            <path class="cls-3" d="M108.27,63.87c.52-.09,1.01-.25,1.33-.71-.08-.09-.15-.18-.22-.26-.03,0-.06-.01-.08-.02-.12,.26-.26,.5-.53,.49-.36,.04-.43,.55-.81,.43-.19-.04-.42-.18-.68-.39-.04,.03-.07,.05-.11,.07-.43,.39-.89,.75-1.38,1.03-.24,.58-.76,.75-1.35,.76,.22-.11,.42-.24,.61-.41-.26,.1-.52,.17-.8,.23-.23,.07-.39,.25-.53,.46,.1,.28,.16,.53,.08,.66-.12,.2-.3,.26-.35,.6-.03,0-.14-.2-.19-.18,.15-.05,.19-.25,.16-.52-.07,.15-.14,.31-.22,.46-.2,.19-.49,.12-.8,.06-.02,.02-.04,.04-.06,.06-.1,.1-.15,.27-.19,.47,.05-.02,.1-.03,.16-.05,0,.17-.12,.2-.2,.23l.04-.18c-.12,.04-.24,.08-.38,.12,.16-.05,.25-.25,.31-.43-.26,.17-.46,.39-.82,.35v-.05c-.23,.47-.36,1.14-.65,1.57-.14,.21,.42,1.34,.48,1.32,.69-.8,1.6-1.11,2.45-1.57-.18-.1-.36-.19-.53-.28-.06-.01-.13-.04-.21-.1,.07,.03,.14,.07,.21,.1,.17,.03,.28-.06,.47,0,.06,.06,.14,.03,.06-.18,.26,.08,.37-.2,.63-.12,.01,0,.06,.05,.12,.11,.1-.08,.19-.16,.28-.24,.52-.47,1.1-.78,1.76-.93-.21-.06-.42-.13-.65-.25-.33-.22-.53,.26-.78,.5-.04,.1-.21-.1-.29-.07-.06-.72,.5-.49,.75-.74,.36-.28,1.2-.07,1.4-.7,.08-.27,.38-.12,.65,.03,.02,.16-.09,.19-.14,.21-.49,.16-.97,.32-1.38,.62,.62,.04,1-.33,1.66-.22-.26,.17-.7-.01-.79,.42,.05,.04,.1,.07,.14,.11,.22-.02,.45-.03,.68-.02,.02-.11,.03-.21,.04-.3,.11-.93,1.08-.6,1.59-1.01,.05-.02,.02-.24,.02-.41-.2,.08-.43,.09-.61,.19,.11,.03,.24,.08,.39,.2-.15,.13-.46-.09-.61,.04,.06-.11,.14-.19,.23-.24-.17-.04-.31-.02-.46-.01,.09-.36,.63,.11,.65-.37-.05,.03-.1,.05-.16,.05l.16-.05h0c.14-.09,.21-.29,.27-.5-.25,.15-.64-.01-.88,.14-.03,.03-.06,.06-.1,.1,.03-.04,.06-.08,.1-.1,.5-.43,1.25-.42,1.9-.59l.04-.05-.2-.24c-.51,.18-1.08,.28-1.68,.28Z"/>
          </g>
        </g>
      </g>
    </g>
  </g>
</svg>