<?xml version="1.0" encoding="UTF-8"?>
<svg id="_Слой_2" data-name="Слой 2" xmlns="http://www.w3.org/2000/svg" xmlns:xlink="http://www.w3.org/1999/xlink" viewBox="0 0 228.36 252.51">
  <defs>
    <style>
      .cls-1 {
        fill: none;
      }

      .cls-2 {
        clip-path: url(#clippath);
      }

      .cls-3 {
        fill: #f3f9fb;
      }

      .cls-4 {
        fill: #f7fbfc;
      }

      .cls-5 {
        fill: #f8fcfd;
      }

      .cls-6 {
        fill: #f4fafb;
      }

      .cls-7 {
        fill: #f5fafb;
      }

      .cls-8 {
        fill: #eab7c9;
      }

      .cls-9 {
        fill: #fbfdfe;
      }

      .cls-10 {
        fill: #e29fb4;
      }

      .cls-11 {
        fill: #6e7c6e;
      }

      .cls-12 {
        opacity: .49;
      }

      .cls-13 {
        opacity: .8;
      }
    </style>
    <clipPath id="clippath">
      <rect class="cls-1" width="228.36" height="252.51"/>
    </clipPath>
  </defs>
  <g id="_лепестки" data-name="лепестки">
    <g class="cls-2">
      <g>
        <g class="cls-12">
          <path class="cls-11" d="M175.1,200.33c-5.23,1.3-26.05,5.97-52-1.81-26.61-7.97-43.4-24.48-51.12-33.27,21.52-7.08,36.47-6.35,46.42-4.11,4.08,.92,10.23,2.75,20.07,3.87,10.02,1.14,10.82,.07,23.76,.97,8.04,.56,14.76,1.98,28.22,4.83,2.4,.51,7.17,1.58,11.6,5.32,2.19,1.85,4.37,3.69,4.59,5.8,.69,6.5-17.09,14.8-31.54,18.39Z"/>
          <path class="cls-11" d="M168.27,203.58c-2.18,.33-3.97,.48-5.74,.79-.28,.05-.54,.59-.9,.61-1.4,.11-2.83,.65-4.21,.13-1.51-.59-2.97-.64-4.38-.21-1.34,.37-2.66,.26-3.99,.33-.45,.02-.89,.11-1.35-.51-.33-.45-.97-.53-1.49,.21-.1,.14-.29-.02-.44-.1-.15-.08-.32-.42-.44-.33-1.39,1.05-2.67,.04-4.01,.2-.34,.04-.65-.36-1.02,.38-.1,.19-.42,.18-.49-.02-.19-.51-.44-.64-.75-.68-1.36-.14-2.71-.34-4.05-.6-.83,.88-1.5,.3-2.21,.17-.53-.09-.99-.54-1.47-.86-.48-.31-1.19,.19-1.5-.79-.05-.16-.31,.06-.46,.04-.67-.08-1.44,.08-1.98-.38-.27-.25-.55-.5-.86-.59-2.02-.57-4.06-1.09-6.04-1.78l-2.99-.98-2.95-1.11c-.34-.13-.62-.36-1.2,.04-.46,.32-1.09,.1-1.18-.46-.15-.87-.67-.77-1.06-.99-.73-.4-1.54-.63-2.27-1.03-.43-.23-1.14-.02-1.09-1.13,0-.11-.14-.17-.23-.11-.91,.65-1.04-.33-1.47-.68-.31-.26-.67-.42-1.28-.18-.6,.24-1.26-.03-1.36-.66-.14-.84-.67-.88-1.09-1.12l-1.88-1.06-1.84-1.11-1.85-1.1-1.83-1.14c-1.16-.7-2.78-.71-3.7-1.81-.22-.26-.73-.15-.56-.9,.04-.15-.23-.23-.42-.15-.67,.29-.85-.11-1.16-.39-1.45-1.28-2.77-2.73-4.6-3.47-1.45-.55-2.4-1.67-3.6-2.51-.4-.28-.45-.96-.74-1.37-.28-.4-.67-.69-1.05-.98-.23-.17-.3-.52-.9-.29-.16,.06-.33,.04-.46-.04-.15-.11-.26-.27-.25-.44,.1-1.07-.63-1.34-1.15-1.87-.71-.71-1.44-1.47-2.17-2.24-.73-.76-1.46-1.53-2.13-2.3-.31-.36-1.34-.87-.34-1.06,.14-.02-.47-.27-.72-.43-.27-.16-.83-.42-.74-.49,.25-.19,.3-.4,.22-.63-.04-.12-.12-.24-.22-.37l-.17-.2-.09-.1s-.07-.07-.03-.08c.48-.19,.85-.43,1.44-.59,1.59-.44,3.06-.93,4.57-1.36,1.5-.43,3.02-.91,4.58-1.2,.22-.04,.41-.13,.6-.24,.2-.11,.37-.25,.5-.37,.29-.25,.59-.51,.94-.57,.69-.13,1.36-.34,2.05-.42,.49-.06,.93-.56,1.55,.22,.17,.21,.52,.13,.62-.12,.38-.96,1.06-.62,1.61-.85,.67-.28,1.48,.12,2.03-.88,.15-.27,.59,.16,.88,.16,.51,0,1.01-.04,1.5-.16,.23-.06,.43-.42,.66-.47l2.75-.64c.92-.18,1.85-.33,2.79-.45,1.91-.21,3.83-.18,5.76-.16l2.89,.06c.96,.06,1.93,.13,2.88,.27,.71,.12,1.58-.5,2.1,.78,.75-.63,1.28-.11,1.73,.78,.06,.13,.32-.19,.49-.26,.52-.23,1.2-1.35,1.5,.05,.01,.05,.09,0,.13,.03,.4,.26,.97-.99,1.37-.08,.24,.57,.85,.47,1.3,.62,.47,.15,.93,.32,1.41,.32,.5,0,.87,.73,1.55-.13,.11-.14,.29,.62,.5,.62,1.1,.02,1.96,1.15,3.24,.23,.29-.21,.65-.1,.85,.18,.71,1.03,1.65,.77,2.63,.64,1.29-.18,2.59-.1,3.59,1.32,.21,.3,.29,.53,.62,.13,.21-.26,.5-.15,.74-.11,2.66,.38,5.36,.72,8.02,.93,.72,.05,1.34,1.06,2.11,.73,.31-.13,.66,.37,.94-.43,.04-.11,.17-.17,.22-.11,.87,.96,1.79-.36,2.68,.03,.19,.08,.38,.26,.57,.36,.2,.1,.43,.33,.6,.2,1.4-1.16,2.88-.3,4.33-.56,.5-.09,1.02,.44,1.49-.53,.07-.15,.29-.13,.38,0,.81,1.21,1.77,.34,2.63,.68,.44,.18,.98-.44,1.33,.56,.04,.13,.23,.04,.34-.03,.2-.11,.41-.42,.59-.39,.52,.08,1.04,.66,1.52,.37,.59-.36,1.12-.15,1.67-.14,.31,0,.59,.48,.9,.61,.29,.13,.61,.07,.91,.11,.44,.05,.91-.07,1.3,.19,.4,.27,.86-.69,1.25,.05,.29,.57,.83-.3,1.25-.35,.21-.02,.41,.12,.6,.25,.14,.1,.24,.45,.39,.44,.33,0,.62,.22,1.03-.16,.29-.26,.62,.35,.95,.48,.33,.13,.69,.12,1.03,.19,.34,.06,.68,.32,1.03,.14,1.55-.76,2.83,.11,4.22,.25,.36,.04,.83-.22,.97,.68,.02,.16,.22,.21,.34,.14,1.54-.93,2.69,.3,4.07,.23,.98-.05,2-.31,2.93,0,.9,.3,1.81,.73,2.79,.51,.81-.18,1.57-.35,2.3,.05,.69,.38,1.9-1.11,2.28,.52,.79,.23,1.6,.44,2.35,.8,.63,.3,1.46,.24,1.72,1.3,.09,.38,.52,.57,.89,.44,1.19-.4,1.85,.28,2.34,1.14,.12,.21,.57,0,.79,.12,.64,.39,1.3,.78,1.79,1.35,.69,.8,1.49,1.28,2.45,1.88,.4,.24,1.13,.78,1.7,1.32,.58,.55,1.13,1.16,1.51,1.86,.28,.49,1.22,.88,1.21,1.46,0,.61-.03,1.19-.02,1.76-.07,1.31-.17,2.59-.57,3.83-.39,1.24-1.11,2.43-2.14,3.28-1,.84-1.62,1.2-2.29,1.73l-1.89,1.46c-1.22,.95-2.43,1.87-3.76,2.54-.35,.17-1.06-.26-1.11,.01-.17,.84-1,.67-1.17,1.32-.33,1.18-1.35,1.03-1.99,1.6-.47,.41-1.3,.16-1.38,1.29-.01,.17-.21,.23-.36,.17-1.19-.48-1.42,1.13-2.4,1.08-1.09,1.71-2.98,1.6-4.46,2.42-.22,.12-.36,.44-.54,.65-.09,.11-.18,.3-.31,.26-1.83-.62-3.02,.76-4.59,.91-.52,.05-1.09-.12-1.61-.1-.52,.02-.95,.46-1.62-.13-.21-.19-.46,0-.64,.15-1.01,.79-2.26-.54-2.88-3-.23-.89-.02-1,.13-1.39,.29-.76,.62-1.28,1.17-1.36,.43-.06,.97,.09,1.1-.87,.02-.16,.22-.19,.35-.11,.94,.56,1.56-.3,2.39,0,.64,.23,1.09-.02,1.64-.03,.46,0,.74-.59,1.42,.03,.23,.21,.41-.59,.68-.73,.65-.32,1.32-.61,2.03-.75,2.19-.44,3.67-2.47,5.76-3.07,.91-1.67,2.78-1.45,3.85-2.68,1.26-1.47,2.97-2.09,4.19-3.35,.24-.26,.47-.41,.9-.37,.27,.02,.56,.04,.73-.09,.62-.46,1.21-1.18,1.58-1.49,.12-.1,.11-.3,.19-.42,.09-.12,.27-.18,.86-.1,.16,.02,.23-.12,.14-.23-.4-.43-.42-.66-.34-.9,.08-.24,.26-.5,.17-.76-.02-.06-.02-.11-.02-.17,0-.14,.08-.28,.32-.49,.37-.33,.1-.76-.42-.82-.39-.04-.49-.16-.67-.26-.39-.19-.43-.5-.74-.88-.34-.41-.79-.74-1.62-.6,.3-1.24-.52-1.44-1.09-1.54-1.14-.23-2-.71-2.88-1.25-.87-.53-1.75-1.09-2.76-1.37-.48-.13-.8-.76-1.27-1.01-.49-.26-1.05-.37-1.6-.45-.3-.04-.56-.49-.97,.27-.03,.06-.09,.09-.12,.07-.29-.2-.56-.58-.9-.59-.31,0-.69,.48-1.02,.56-.39,.1-.77,.03-1.14-.03-.36-.06-.78,.05-.91-.73-.47,.84-.78,.3-1.15,.3-.35,0-.67-.13-1.01-.2l-1.13-.24c-.38-.08-.74-.23-1.13-.22-.54,.02-1.11,.24-1.64,.23-.56-.01-1.11-.13-1.63-.33-.65-.25-1.27-.66-1.91-.95-.27-.12-.55,.06-.88,.32-.44,.35-1.07,1.19-1.31-.11-.05-.26-.39-.25-.6-.12-1.66,1-2.94-.3-4.44-.16-.65-1.06-1.51-.58-2.36-.43-1.25,.23-2.52,.25-3.65-.41-1.19-.7-2.48-.44-3.74-.74-.35-.08-.76,.25-1.01-.62-.06-.2-.33-.16-.49-.04-1.07,.84-2.04,.54-3.07-.06-.54-.32-1.18,.03-1.79,.35-.92,.48-1.91,.11-2.88,.12-.43-1.05-.76,.02-.97,.47-.29,.61-.57,.72-.93,.73-.46,.02-.92-.17-1.39,.51-.24,.35-.78,.25-1.04-.12-.34-.5-.47-.27-.81,.04-.4,.37-.76-.62-1.23-.59-.51,.02-1.14,.52-1.51-.61-.03-.1-.19-.1-.26-.02-1.02,1.05-1.8-.65-2.75-.24-2.57-1.51-5.38-.83-8.01-1.7-1.08-.36-2.04-1.36-3.21-1.08-2.47,.59-4.6-.65-6.85-.99-.48-.07-1.13,.27-1.29-.86-.02-.16-.24-.2-.36-.09-.92,.78-1.5,.32-2.01-.47-.13-.2-.43-.24-.58,0-.43,.65-.68,.3-.97,.22-.34-.1-.69-.82-.98-.49-.59,.7-.69-.21-1.01-.42-.2-.12-.47,.03-.71,.12-.11,.04-.29,.34-.34,.26-.58-.99-1.44,.19-2.09-.24-.14-.09-.3-.09-.44-.21-1.53-1.36-1.58-1.35-3.72-.88-.53-1.32-1.28,.57-1.89-.44-.22-.38-.68-.28-.97-.03-.64,.57-1.27,.63-1.92,.6-.64-.02-1.3-.13-1.93,.06-.26,.08-.51-.79-.81-.06-.11,.27-.6-.46-.89-.41-.42,.07-.91-.36-1.26,.51-.14,.36-.54,.1-.82,.21-.37,.14-.79-.14-1.11,.6-.17,.4-.65,.47-.93,.16-1.17-1.28-1.93,.13-2.77,.73-.25,.19-.42,.34-.75,.17-.45-.23-1.06-.51-1.3-.05-.43,.82-1.01,.62-1.54,.76-.91,.25-1.87,.33-2.77,.62-.51,.17-1.05,.22-1.58,.36-.26,.07-.52,.16-.77,.29-.05,.03-.14,.07-.17,.1,0,.02-.01,.05-.02,.08,0,.06,0,.13,0,.22,.01,.38,.31,.66-.58-.29-.05-.05,.02,.06,.1,.19,.09,.13,.19,.27,.18,.27-.15,.09-.24,.15-.54,.15-.03-.01-1.89-.67-.51-.1,.76,.29,.37,.16-.01,.05-.38-.11-.75-.2,.26,.12,.29,.09,.23,.09,0,.04l-.27-.06c-.89-.17-.76,.02-.56,.16,.22,.16,.53,.27,.44,.41-.02,.09,.6,.04-.51,.32,.75-.02,.49,.13,.41,.34-.08,.21,.07,.52,.94,.16-.02,.18,.21,.19,.34,.25,.07,.04,.1,.07,.11,.19,.07,.18,.09,.41,.02,.74-.05,.21,.32,.17,.3,.38-.07,.72,1.32-.4,1.09,.62-.13,.59,.49,.75,.81,1.06,.29,.29,.62,.55,.94,.82l1.03,.9c.34,.3,.66,.64,1.06,.86,.83,.45,1.96,.46,2.51,1.27,.06,.08,.28,.08,.42-.03,1.18-1,1.02-.06,1.01,.48-.01,.45,.06,.73,.3,.9,.63,.46,1.29,.89,1.88,1.41,.35,.31,1.03,.2,.84,1.23-.06,.32,.29,.48,.58,.43,1.35-.24,1.89,.77,2.8,1.2,.41,.19,.78,.47,1.14,.74,.27,.21,.91-.17,.88,.53,2.07-.2,3.09,1.4,4.67,2.06,.77,.34,1.51,.72,2.24,1.13l2.22,1.17c.37,.2,1-.03,.9,1.04-.02,.2,.26,.33,.43,.19,.45-.38,.73-.56,.68,.21,0,.14,.27,.09,.44,.01,.48-.23,.74-.07,.92,.41,.14,.37,.42,.68,.75,.6,.9-.23,1.7-.4,1.98,.85,.04,.15,.52-.39,.66-.3,.54,.35,1.33,.06,1.63,1.04,.12,.4,.56,.3,.83,.5,.46,.34,1.13,.03,1.58,.49,.45,.48,1.14,.45,1.73,.64l1.76,.57c.58,.2,1.18,.36,1.77,.52l1.78,.49,1.78,.49c.6,.13,1.2,.26,1.8,.41,.42,.1,.78,.3,1.12,.79,.87,1.26,2.26,1.37,4.03,.86,.13-.04,.24,.04,.37,.06,1.58,.32,3.22,.28,4.77,.78,.68,.23,1.34,.73,2.07,.72,.48,0,.92,.19,1.44-.4,.43-.49,.91,.48,1.43-.44,.19-.34,.63-.3,.83,0,.68,.97,1.48,.52,2.23,.64,.86,.15,1.73,.1,2.6,.06,.42-.03,.85,.3,1.28-.47,.21-.37,.72-.12,1.04,.2,.49,.49,.97,.39,1.42,.16,.96-.48,.94-.55,1.92-.03,.12,.06,.24,.06,.36,.05,1.19-.06,2.45,.24,3.56-.36,.93-.47,1.86-.6,2.8-.74,.38-.05,.75-.55,1.2,.41,.06,.14,.28,.09,.35-.05,.64-1.2,1.56-.74,2.37-.9,.78-.16,1.35-1.14,2.17-1.09,.78,.06,1.5-.26,2.25-.43,1.13-.25,1.51,.26,2.17,2.92,.54,2.19,.36,2.74-.52,3.43-1.88,1.47-4.18,1.12-5.85,1.68Z"/>
        </g>
        <g>
          <path class="cls-8" d="M181.92,173.86c-5.23,1.3-26.05,5.97-52-1.81-26.61-7.97-43.4-24.48-51.12-33.27,21.52-7.08,36.47-6.35,46.42-4.11,4.08,.92,10.23,2.75,20.07,3.87,10.02,1.14,10.82,.07,23.76,.97,8.04,.56,14.76,1.98,28.22,4.83,2.4,.51,7.17,1.58,11.6,5.32,2.19,1.85,4.37,3.69,4.59,5.8,.69,6.5-17.09,14.8-31.54,18.39Z"/>
          <path class="cls-8" d="M174.88,175.74c-2.15,.33-3.91,.52-5.66,.72-.27,.03-.57,.19-.92,.21-1.38,.13-2.8,.3-4.13,.24-1.46-.1-2.91-.1-4.3,.02-1.32,.07-2.62,.05-3.92,.03-.44-.01-.87,0-1.34-.18-.34-.13-.98-.17-1.46,0-.09,.03-.29-.02-.43-.04-.15-.03-.33-.12-.45-.1-1.3,.18-2.61-.17-3.91-.22-.33-.01-.67-.15-.96,0-.08,.04-.39,0-.48-.05-.23-.15-.48-.21-.79-.25-1.33-.16-2.66-.34-3.97-.6-.69,.14-1.4-.11-2.09-.23-.52-.09-1.02-.27-1.52-.45-.51-.16-1.1-.13-1.55-.46-.07-.05-.28-.03-.43-.06-.65-.13-1.35-.2-1.94-.42-.3-.12-.6-.25-.91-.34-2-.56-4.01-1.06-5.96-1.75l-2.95-.97-2.91-1.1c-.34-.13-.65-.28-1.06-.28-.32,0-.94-.23-1.15-.46-.35-.36-.78-.46-1.19-.65l-2.25-.99c-.44-.2-.98-.33-1.25-.74-.03-.04-.17-.11-.22-.11-.59-.02-.97-.43-1.44-.7-.34-.19-.7-.36-1.14-.44-.43-.07-1.06-.38-1.33-.68-.37-.4-.82-.57-1.24-.8l-1.87-1.03-1.83-1.1-1.83-1.09-1.8-1.15c-1.14-.72-2.37-1.27-3.42-2.14-.25-.2-.6-.33-.73-.64-.03-.06-.25-.2-.36-.22-.39-.09-.67-.34-.99-.6-1.49-1.18-2.98-2.4-4.5-3.48-1.21-.81-2.24-1.8-3.35-2.71-.37-.3-.66-.71-.99-1.06-.33-.34-.69-.65-1.05-.96-.21-.19-.39-.41-.69-.5-.16-.04-.48-.31-.55-.47-.25-.54-.73-.89-1.14-1.29-1.17-1.15-2.32-2.31-3.43-3.52-.27-.3-.66-.55-.74-.97-.02-.06-.21-.16-.36-.3-.15-.13-.38-.29-.45-.42-.31-.56-.67-1.01-1.12-1.5l-.08-.09s.05-.03,.07-.05l.23-.08,.45-.15c.31-.1,.62-.2,.93-.31l2.05-.63c.62-.2,1.26-.37,1.89-.55,1.27-.35,2.53-.73,3.81-1.01,.72-.17,1.3-.5,1.99-.66,.67-.16,1.35-.3,2.02-.44,.48-.09,.97-.29,1.46-.17,.13,.04,.48-.05,.61-.12,.49-.31,1.11-.3,1.66-.44,.68-.16,1.41-.17,2.06-.48,.17-.09,.55-.02,.83-.05,.49-.05,.98-.11,1.47-.2,.23-.04,.45-.15,.69-.18l2.71-.38,2.73-.26c1.86-.13,3.73-.16,5.6-.14l2.8,.08c.93,.06,1.87,.12,2.79,.22,.7,.08,1.47-.01,2.08,.36,.66-.09,1.21,.1,1.74,.38,.08,.04,.29-.02,.44-.02,.48,0,.97-.22,1.43,.2,.02,.02,.08,.01,.12,.02,.42,.12,.78-.15,1.28,.16,.31,.2,.87,.25,1.32,.36,.46,.12,.92,.24,1.39,.32,.48,.09,.95,.36,1.46,.23,.08-.02,.39,.23,.59,.27,1.06,.2,2.09,.67,3.19,.62,.25-.01,.62,.08,.86,.19,.86,.41,1.74,.48,2.69,.58,1.25,.13,2.57,.34,3.74,.84,.25,.11,.35,.18,.63,.11,.18-.04,.48,.02,.72,.05,2.71,.4,5.43,.74,8.15,.95,.74,.06,1.42,.34,2.19,.29,.31-.02,.68,.11,.95-.08,.04-.03,.17-.04,.23-.02,.91,.26,1.82-.06,2.74,.04,.19,.03,.38,.06,.58,.09,.2,.02,.43,.08,.6,.05,1.4-.3,2.86-.08,4.29-.13,.49-.02,1.02,.12,1.46-.11,.07-.04,.28-.03,.38,0,.83,.32,1.75,.13,2.61,.25,.44,.06,.95-.07,1.33,.19,.05,.03,.23,.02,.34,0,.19-.02,.39-.09,.57-.07,.51,.05,1.06,.22,1.52,.17,.56-.06,1.09,.02,1.63,.06,.31,.02,.6,.16,.92,.22,.29,.05,.6,.06,.9,.09,.43,.05,.88,.05,1.28,.15,.41,.11,.78-.1,1.22,.12,.34,.17,.78,0,1.18,.03,.2,.01,.41,.07,.6,.12,.15,.04,.28,.15,.42,.16,.32,.03,.62,.12,.98,.07,.25-.04,.64,.17,.98,.24,.33,.07,.68,.11,1.02,.17,.34,.06,.7,.17,1.02,.17,1.4-.01,2.75,.4,4.12,.64,.35,.06,.77,.06,1.03,.33,.05,.05,.25,.09,.35,.09,1.35-.04,2.65,.48,3.97,.66,.94,.13,1.89,.21,2.83,.44,.92,.22,1.86,.48,2.77,.57,.75,.07,1.48,.14,2.2,.36,.7,.21,1.5-.03,2.1,.52,.72,.22,1.45,.44,2.15,.72,.59,.24,1.23,.41,1.7,.86,.17,.16,.56,.36,.81,.4,.81,.17,1.46,.61,2.07,1.14,.14,.13,.4,.17,.59,.29,.56,.37,1.11,.76,1.6,1.21,1.41,1.32,3.09,2.29,4.35,4.1,.22,.33,.6,.66,.71,1.05,.37,1.14,.34,2.5-.03,3.59-.36,1.1-.97,2.01-1.69,2.74-2.13,2.09-4.38,3.77-6.82,5.19-.32,.18-.74,.22-.86,.35-.39,.4-.99,.58-1.33,.9-.61,.58-1.39,.81-2.07,1.21-.5,.29-1.12,.42-1.5,.87-.05,.06-.24,.14-.35,.16-.87,.14-1.5,.79-2.31,1.03-1.36,.89-2.97,1.31-4.46,1.92-.22,.09-.42,.23-.63,.34-.11,.06-.23,.14-.33,.15-1.48,.21-2.84,.91-4.29,1.27-.48,.12-.96,.18-1.44,.29-.48,.11-.95,.32-1.45,.27-.15-.02-.42,.09-.62,.16-1.07,.42-1.99,.23-2.16-.37-.06-.22,.16-.29,.37-.44,.41-.28,.83-.49,1.38-.63,.43-.1,.91-.16,1.23-.48,.05-.05,.25-.1,.36-.1,.78-.02,1.55-.42,2.27-.5,.55-.07,1.03-.25,1.54-.37,.43-.11,.83-.36,1.31-.32,.16,.01,.52-.29,.8-.4,.68-.26,1.36-.53,2.05-.75,2.1-.7,3.98-1.84,6-2.68,1.3-.92,2.87-1.41,4.17-2.29,1.56-1.06,3.21-1.96,4.66-3.11,.29-.24,.54-.42,.85-.57,.2-.1,.41-.21,.58-.36,.67-.56,1.3-1.18,1.86-1.83,.31-.34,.49-.83,.91-1.03,.06-.03,.16-.21,.18-.3,.1-.76,.48-1.42,.41-2.14,0-.27-.06-.51-.05-.83,0-.35-.26-.84-.54-1.09-.21-.19-.36-.38-.54-.57-.75-.79-1.46-1.78-2.52-2.27-.26-.6-.9-1.01-1.4-1.32-1.93-1.18-3.82-2.45-5.96-3.21-.51-.18-1-.48-1.52-.67-.55-.2-1.13-.34-1.7-.48-.31-.07-.65-.24-.93-.09-.02,.01-.08,0-.11,0-.32-.11-.65-.25-.98-.31-.3-.05-.6,.03-.91,0-.37-.03-.74-.11-1.11-.18-.35-.07-.74-.1-.99-.35-.32,.17-.71-.03-1.07-.09-.34-.05-.67-.14-1.01-.21l-1.14-.24c-.38-.08-.76-.18-1.13-.23-.52-.08-1.04-.1-1.56-.18-.55-.09-1.1-.2-1.64-.33l-2.01-.54c-.28-.07-.53-.06-.82-.03-.38,.03-.89,.18-1.31-.21-.08-.08-.42-.12-.61-.12-1.51,.05-2.98-.47-4.47-.6-.78-.36-1.59-.32-2.45-.36-1.26-.06-2.58-.16-3.79-.41-1.28-.26-2.57-.25-3.85-.39-.36-.04-.76,.03-1.05-.2-.07-.05-.34-.05-.49-.03-1.06,.17-2.07,.06-3.13-.11-.56-.09-1.2-.02-1.82,.06-.93,.11-1.95,.02-2.94,.02-.43-.26-.76,0-.98,.12-.29,.15-.57,.18-.92,.19-.45,0-.9-.04-1.35,.12-.23,.09-.74,.06-.99-.04-.33-.13-.45-.07-.76,0-.36,.08-.73-.17-1.18-.18-.48-.02-1.06,.09-1.46-.21-.04-.03-.18-.03-.25-.02-.91,.22-1.76-.27-2.65-.23-2.59-.58-5.27-.66-7.87-1.2-1.07-.22-2.12-.62-3.2-.7-2.27-.17-4.45-.85-6.64-1.33-.47-.1-1.03-.11-1.38-.47-.05-.05-.26-.1-.36-.09-.75,.07-1.4-.17-2.05-.49-.16-.08-.47-.14-.59-.1-.33,.12-.64-.02-.95-.09-.37-.08-.83-.34-1.07-.28-.51,.11-.74-.15-1.09-.25-.22-.06-.47-.06-.71-.06-.11,0-.26,.06-.32,.03-.71-.32-1.47-.12-2.19-.28-.15-.04-.32-.05-.47-.09-1.7-.48-1.71-.46-3.92-.45-.59-.35-1.31,.11-1.96-.16-.24-.1-.7-.07-1-.01-1.31,.27-2.66,.08-3.98,.23-.27,.03-.5-.19-.84,.01-.13,.08-.59-.08-.89-.05-.44,.04-.91-.04-1.32,.2-.17,.1-.57,.05-.85,.11-.39,.07-.8,.03-1.18,.25-.21,.12-.71,.18-.97,.12-1.07-.24-1.97,.24-2.9,.48-.28,.08-.47,.14-.78,.13-.43,0-1,0-1.31,.16-.54,.28-1.1,.3-1.65,.41-.96,.2-1.92,.38-2.87,.61-1.09,.24-2.18,.45-3.24,.88-.57,.24-1.32,.5-2.03,.41-.08-.01-.29,.22-.46,.26-1.35,.39-2.7,.76-4.04,1.17-.15,.04-.38,.04-.37,0-.05-.03-.11-.03-.05,.08,.07,.11,.02,.06-.07,.03-.08-.03-.18-.05,0,.05,.05,.03,.02,.03-.05,.02-.21-.03-.14,.04-.13,.11,.03,.07,.1,.15,.17,.22,.51,.52,1.16,1.17,1.68,1.78,.26,.3,.67,.54,.71,.94,.9,.54,1.3,1.73,2.32,2.11,.48,.56,1.18,.95,1.5,1.62,.05,.11,.28,.23,.35,.35,.23,.4,.73,.27,.97,.8,.14,.3,.61,.65,.96,.95l.96,.84,1.06,.92c.35,.31,.71,.61,1.09,.89,.76,.56,1.58,1.01,2.3,1.67,.08,.07,.24,.15,.3,.14,.49-.1,.74,.35,.94,.64,.16,.24,.32,.41,.56,.59,.64,.49,1.3,.96,1.95,1.44,.38,.29,.87,.48,1.11,.94,.07,.14,.4,.35,.6,.43,.96,.39,1.78,1.05,2.65,1.6,.4,.24,.79,.5,1.18,.77,.29,.2,.68,.24,.91,.56,1.65,.62,3.04,1.74,4.61,2.51l2.3,1.23,2.33,1.17c.39,.19,.88,.3,1.12,.7,.05,.08,.33,.21,.43,.21,.29-.01,.49,.01,.67,.29,.03,.05,.27,.11,.4,.13,.37,.05,.65,.19,.96,.42,.23,.18,.57,.38,.86,.44,.75,.17,1.45,.35,2.05,.88,.07,.06,.38,0,.53,.07,.6,.26,1.27,.37,1.8,.79,.22,.17,.61,.25,.91,.39,.52,.23,1.06,.32,1.61,.57,.55,.26,1.2,.41,1.81,.61l1.82,.59c.6,.21,1.22,.38,1.83,.54l1.84,.51,1.84,.5,1.87,.42c.44,.1,.83,.22,1.25,.41,1.06,.52,2.45,.73,4.17,.83,.12,0,.25,.04,.38,.07,1.63,.32,3.3,.43,4.92,.74,.71,.14,1.43,.3,2.17,.35,.48,.03,.95,.11,1.45,0,.41-.1,.96,.19,1.44-.02,.18-.08,.63-.05,.85,.03,.74,.27,1.55,.19,2.32,.25,.89,.08,1.79,.05,2.68,.06,.44,0,.88,.08,1.32-.1,.22-.08,.75-.04,1.07,.04,.5,.11,1,.08,1.46,.02,1-.14,.99-.14,1.99-.06,.12,.01,.25,0,.37,0,1.23-.06,2.5-.04,3.68-.28,.99-.18,1.96-.29,2.94-.42,.39-.05,.83-.21,1.19,0,.05,.03,.27,0,.36-.05,.78-.39,1.68-.37,2.53-.52,.82-.15,1.53-.48,2.37-.6,.79-.1,1.58-.31,2.36-.49,1.19-.27,1.48-.2,1.64,.47,.13,.55-.14,.74-1.09,1.09-2.01,.73-4.15,.92-5.84,1.26Z"/>
        </g>
        <g class="cls-13">
          <g class="cls-13">
            <path class="cls-5" d="M164.06,199.6c-2.18-.18-4.38-.72-6.5-1.12-2.11-.47-4.16-.82-6.06-.85-.41-.01-.84-.02-1.28-.04l.62,.2c4.66,1.46,9.9,2.52,14.88,2.87,3.1,.11,6.25-.19,9.64,.08,.38,.03,.44-.28,.47-.43-.33-.22-.6-.46-.85-.69-1.38,0-2.75,.05-4.14,.04-1.39-.03-2.78-.09-4.2-.21-.93-.14-2.01,.26-2.57,.17Z"/>
            <polygon class="cls-7" points="175.09 199.64 175.04 199.6 174.62 199.6 175.09 199.64"/>
            <path class="cls-4" d="M168.32,199.62c-.93,0-1.83-.05-2.73-.19-.6,.07-1.17,.21-1.53,.16-2.18-.18-4.38-.72-6.5-1.12-2.11-.47-4.16-.82-6.06-.85-.41-.01-.83-.02-1.27-.04l.66,.21c1.61,.54,3.3,.94,5.02,1.36,.1,0,.19,0,.29,0,1-.01,1.86,.37,2.79,.54,2.68,.28,4.89,.75,7.58,.91,.96,.03,2-.24,3.13-.11,.39,.03,.76,.07,1.12,.13,1.5-.03,3.02-.05,4.6,.09,.38,.03,.44-.28,.47-.44-.17-.12-.33-.24-.47-.36-1.27-.14-2.55-.2-3.85-.3-1.13,0-2.27-.05-3.42-.11,.04,.03,.1,.06,.17,.09Z"/>
            <path class="cls-7" d="M168.25,199.14c-.16-.02-.38,.19-.1,.39,1.15,.06,2.29,.11,3.42,.11-1.09-.1-2.2-.26-3.32-.5Z"/>
            <path class="cls-9" d="M168.53,198.06c-2.2-.31-4.35-.22-6.12-.71-.93-.26-1.82-.65-2.59-1.07-.3-.04-.6-.08-.9-.12-7.43-.91-14.77-2.63-21.68-5.25-3.5-1.22-6.89-1.93-10.56-3-2.12-.8-3.65-1.82-5.55-2.96-4.71-2.85-9.5-3.87-14.58-6.42-1.37-.67-2.2,.29-1.88,.49,4.23,2.26,8.29,4.48,12.43,6.57,4.16,2.03,8.4,3.93,12.92,5.45,7.01,2.34,13.61,4.45,20.21,6.55,.44,.01,.87,.02,1.28,.04,1.9,.03,3.94,.38,6.06,.85,2.12,.4,4.32,.95,6.5,1.12,.56,.08,1.65-.31,2.57-.17,1.42,.12,2.81,.17,4.2,.21,1.39,.01,2.77-.04,4.14-.04-.53-.49-.95-.99-1.49-1.36-1.68,.11-3.36,.12-4.96-.18Z"/>
            <path class="cls-6" d="M168.53,198.06c1.6,.3,3.28,.28,4.96,.18-.27-.18-.56-.34-.91-.45-3.99-.98-8.56-.92-12.76-1.51,.76,.43,1.66,.81,2.59,1.07,1.78,.49,3.93,.4,6.12,.71Z"/>
            <path class="cls-4" d="M168.53,198.06c1.53,.28,3.13,.29,4.73,.19-.53-.1-1.07-.18-1.61-.22-2.77-.3-5.58-.49-8.26-1.17,2.93,.4,5.88,.71,8.85,.84-3.91-.89-8.34-.84-12.41-1.42,.76,.42,1.65,.81,2.58,1.07,1.78,.49,3.93,.4,6.12,.71Z"/>
            <path class="cls-3" d="M164.02,197.75c.83,.14,1.66,.28,2.48,.42,.83,.12,1.67,.2,2.51,.29,1.68,.19,3.38,.26,5.09,.23-.14-.13-.28-.25-.43-.36-.14-.03-.28-.06-.42-.08-1.6,.1-3.2,.09-4.73-.19-2.2-.31-4.35-.22-6.12-.71-.93-.26-1.82-.64-2.58-1.07-.28-.04-.56-.08-.85-.12-1.9-.2-3.78-.56-5.67-.85-1.87-.37-3.75-.73-5.6-1.18-3.31-.42-6.79-1.46-10-2.81,1.55,.53,3.13,.96,4.72,1.36-.86-.27-1.73-.55-2.59-.82-.86-.3-1.7-.62-2.55-.93-1.48-.51-2.94-.94-4.41-1.35-.39,.17-.94,.24-1.77,.02-1.29-.35-2.48-.88-3.85-1.11-.17-.07-.05-.28-.39-.42,.96,.41,1.81,.57,2.59,.61-.9-.25-1.81-.5-2.72-.75-1.67-.61-2.96-1.42-4.38-2.24-.17-.06-.33-.13-.49-.2-.81-.34-1.67-.6-2.54-.84,.32,.16,.65,.33,.99,.5-.59-.12-1.26-.46-1.76-.71,.26,.07,.51,.14,.77,.21-.77-.39-1.52-.75-2.32-1.21,.97,.55,2.08,.9,2.99,1.19-1.88-.83-3.6-1.61-5.3-2.71l.16,.03c-2.68-1.05-5.44-1.98-8.25-3.4-1.37-.67-2.2,.29-1.88,.49,5.89,3.17,11.48,6.26,17.43,8.9-.61-.44-1.2-.91-1.81-1.37-.27-.17-.53-.36-.75-.57,.25,.19,.5,.38,.75,.57,.74,.48,1.64,.85,2.45,1.35,.13,.15,.64,.38,.94,.26,1.11,.7,2.6,1.12,3.74,1.76,.07,.03,.17,.14,.28,.27,.77,.28,1.54,.55,2.33,.83,4.41,1.44,8.57,2.8,12.76,4.17-.97-.43-1.9-.88-2.73-1.34-1.12-.67-3.76-1.21-5.96-1.84-.56-.13-.8-.48-1.33-.69,2.08,.08,4.37,1.27,6.57,1.88,1.46,.37,3.16,1.03,4.93,1.58,1.77,.52,3.58,1.06,5.23,1.17,1.36,.09,2.54,.65,3.56,1.12-.43,.08-1.15-.12-1.52-.21-3.29-.8-6.55-1.69-9.83-2.58,3.3,1.31,6.67,1.97,10.03,3.12-2.04-.43-3.93-1.21-5.9-1.38,.14,.1,.29,.19,.44,.28,1.3,.44,2.61,.84,3.92,1.24,.44,.01,.86,.02,1.27,.04,1.9,.03,3.94,.38,6.06,.85,2.12,.4,4.32,.95,6.5,1.12,.36,.05,.92-.08,1.53-.16-1.39-.22-2.78-.44-4.17-.65,.55,.17,1.07,.33,1.55,.57-1.33-.1-2.35-.65-3.67-.8,.72,.04,1.42,.12,2.12,.23-.82-.25-1.7-.43-2.57-.64,1.75,0,3.22,.92,5.02,.71-.37-.04-.73-.1-1.09-.17l1.11,.17h-.02c1.12,.12,2.26,.14,3.29,.08-1.94-.19-3.63-.74-5.52-.98l-.94-.11c.32,.02,.63,.06,.94,.11,4.33,.43,8.63,1.3,12.98,1.65h.42s-.34-.33-.34-.33c-1.8-.15-3.61-.31-5.39-.59-.89-.13-1.78-.27-2.67-.4l-2.61-.52Z"/>
          </g>
        </g>
        <g class="cls-13">
          <g class="cls-13">
            <path class="cls-5" d="M97.82,174.32c-.47-.27-.42-1.23-1.27-.94-.09,.02-.18,.06-.27,.09l.02,.09c.17,.73,.55,1.24,1.1,1.52,.42,.08,1.08-.05,1.31,.32,.03,.04,.25-.18,.37-.29,.11-.17,.24-.35,.37-.53-.37-.13-.81-.17-1.08-.41-.07-.1-.52,.2-.56,.14Z"/>
            <polygon class="cls-7" points="99.44 174.62 99.47 174.58 99.41 174.56 99.44 174.62"/>
            <path class="cls-4" d="M98.5,174.36c-.15-.01-.24-.08-.31-.17-.15,.06-.34,.17-.37,.13-.47-.27-.42-1.23-1.27-.94-.09,.02-.18,.05-.27,.09l.03,.1c.06,.25,.14,.48,.25,.68h.06c.23-.1,.14,.17,.21,.27,.35,.09,.4,.44,.75,.54,.12,.04,.46-.14,.54-.02,.04,.03,.06,.07,.08,.12,.23,.03,.42,.09,.53,.26,.03,.04,.25-.18,.37-.29,.06-.09,.12-.18,.19-.28-.07-.16-.2-.26-.3-.4-.16-.04-.31-.09-.45-.16-.02,.02-.03,.05-.04,.07Z"/>
            <path class="cls-7" d="M98.82,174s-.19,.13-.28,.28c.13,.07,.29,.12,.45,.16-.09-.11-.16-.24-.17-.45Z"/>
            <path class="cls-9" d="M99.59,173.21c-.12-.31-.61-.19-.6-.57,0-.18,.05-.44,.17-.75-.04-.03-.07-.05-.1-.07-.95-.48-1.8-1.01-2.41-1.9-.36-.38-1.05-.21-1.67-.17-.31-.08-.31-.52-.46-.87-.33-.93-1.56-.1-2.4-.05-.23,.01-.82,1.12-.78,1.15,1.3,.08,1.99,1.14,3.16,1.48,.91,.3,1.52,.99,1.78,2,.09-.03,.19-.07,.27-.09,.85-.3,.8,.66,1.27,.94,.04,.06,.49-.24,.56-.14,.27,.23,.71,.28,1.08,.41,.28-.38,.56-.75,.75-1.05-.29-.03-.56-.06-.62-.32Z"/>
            <path class="cls-6" d="M99.59,173.21c.06,.25,.33,.29,.62,.32,.09-.15,.16-.27,.19-.37,.09-.9-.74-.96-1.24-1.27-.12,.31-.18,.56-.17,.75-.01,.38,.48,.26,.6,.57Z"/>
            <path class="cls-4" d="M99.59,173.21c.06,.24,.31,.28,.58,.31,0-.1-.02-.18-.07-.25-.22-.32-.55-.52-.62-1.01,.29,.29,.57,.58,.92,.81,.03-.82-.77-.89-1.25-1.18-.12,.31-.17,.56-.17,.74-.01,.38,.48,.26,.6,.57Z"/>
            <path class="cls-3" d="M99.02,172.94c.22,.43,.47,.8,.96,.95,.07-.1,.13-.19,.19-.28,0-.03,0-.06,0-.08-.27-.03-.53-.07-.58-.31-.12-.31-.61-.19-.6-.57,0-.18,.05-.44,.17-.74-.04-.02-.07-.05-.1-.07-.48-.24-.94-.5-1.36-.82-.6,.03-.92-.34-1.14-.84,.18,.14,.36,.26,.58,.35-.18-.18-.34-.38-.49-.59-.15-.16-.36-.22-.6-.24-.2,.22-.4,.39-.53,.39-.21,0-.34-.12-.64,.01-.02-.02,.11-.21,.08-.25,.1,.1,.28,.03,.5-.12-.16,.01-.33,.03-.48,.04-.24-.07-.3-.35-.38-.64-.03,0-.05-.01-.07-.02-.12-.03-.29,.02-.47,.09l.11,.1c-.14,.08-.21,.01-.27-.04l.16-.06c-.09-.08-.17-.16-.26-.24,.11,.1,.31,.07,.49,.03-.25-.13-.52-.16-.65-.48l.04-.03c-.49,.07-1.07,.35-1.54,.37-.23,0-.82,1.12-.78,1.15,.9,.05,1.52,.59,2.2,1.02,.01-.2,.02-.39,.02-.57-.01-.06-.02-.13,0-.23,0,.07,0,.15,0,.23,.04,.15,.16,.19,.18,.38-.03,.08,.03,.13,.17-.05,.03,.25,.3,.19,.33,.44,0,0-.02,.07-.05,.15,.1,.04,.19,.08,.3,.11,.56,.19,1.02,.53,1.34,1-.01-.2-.02-.41,.02-.66,.08-.38-.39-.32-.68-.41-.1,.01,0-.22-.04-.27,.58-.4,.59,.18,.88,.28,.36,.18,.43,.97,1.04,.87,.26-.05,.22,.27,.15,.56-.13,.08-.19,0-.22-.03-.27-.34-.55-.69-.94-.9,.16,.54,.58,.69,.66,1.29-.21-.15-.18-.6-.58-.48-.02,.06-.04,.12-.05,.17,.08,.17,.14,.36,.2,.56,.09-.03,.18-.06,.27-.09,.85-.3,.8,.66,1.27,.94,.03,.04,.22-.07,.37-.13-.11-.14-.18-.33-.31-.45,0,.1-.02,.23-.09,.4-.15-.08-.02-.43-.18-.51,.12,0,.2,.05,.27,.1,0-.16-.06-.27-.1-.4,.34-.05,.05,.58,.49,.42-.04-.03-.06-.07-.08-.12l.08,.12h0c.11,.09,.32,.08,.52,.06-.19-.16-.14-.56-.33-.71-.04-.02-.08-.04-.12-.05,.05,0,.08,.03,.12,.05,.52,.28,.68,.94,.96,1.46l.06,.02,.19-.25c-.27-.4-.48-.86-.63-1.39Z"/>
          </g>
        </g>
      </g>
      <g>
        <g class="cls-12">
          <path class="cls-11" d="M21.81,71.17c.99-12.73,51.08-14.68,62.85-15.14,4.19-.16,6.58,.47,7.86,1.58,2.51,2.17,4.58,4.52,5.71,5.56,1.83,1.69,3.04,2.97,3.98,4.09,.44,.53,1.11,1.31,1.88,2.41,2.04,2.9,3.07,4.36,2.99,6.28-.07,1.79-1.03,3.14-1.5,3.79-.98,1.37-2.12,2.08-2.93,2.57-4.47,2.73-6.68,4.17-8.39,4.66-4.6,1.32-8.5,.88-10.48,.65-10.57-1.25-17.13,2.69-25.13,3.4-16.75,1.47-37.5-11.44-36.84-19.85Z"/>
          <path class="cls-11" d="M22.94,65.63c1.28-1.12,2.45-1.71,3.51-2.45,.17-.11,.13-.69,.36-.79,.92-.42,1.68-1.27,2.79-1.07,1.2,.23,2.16-.03,2.95-.72,.75-.66,1.66-.8,2.49-1.17,.28-.12,.54-.31,1.01,.18,.34,.36,.77,.3,.9-.53,.02-.16,.2-.04,.31,0,.12,.05,.32,.34,.37,.22,.58-1.35,1.68-.69,2.49-1.15,.2-.12,.51,.17,.54-.63,0-.21,.21-.28,.31-.12,.27,.44,.46,.5,.66,.45,.89-.21,1.8-.37,2.7-.53,.26-1.08,.84-.72,1.32-.79,.36-.06,.77,.23,1.15,.37,.39,.14,.67-.56,1.15,.26,.08,.13,.17-.15,.27-.19,.44-.14,.86-.53,1.33-.26,.24,.14,.48,.27,.7,.24,2.79-.38,5.57-.71,8.36-1.04,.24-.03,.49,.07,.68-.54,.15-.48,.59-.54,.83-.1,.39,.71,.65,.38,.95,.39,.56,.03,1.1-.15,1.66-.11,.33,.02,.65-.53,1.03,.47,.04,.1,.14,.08,.17-.01,.28-1.01,.7-.22,1.08-.12,.27,.07,.53,.04,.78-.47,.24-.49,.71-.6,1.01-.12,.4,.64,.7,.4,1.03,.38,1.92-.09,3.84-.2,5.75-.38,.9-.09,1.75-1.03,2.69-.72,.22,.07,.44-.32,.67,.38,.05,.14,.22,.05,.28-.13,.22-.65,.48-.42,.76-.4,1.29,.08,2.6,.39,3.83-.26,.96-.51,1.92-.34,2.89-.52,.34-.06,.7,.41,1.05,.51,.34,.09,.68,.06,1.02,.02,.21-.02,.4,.19,.63-.36,.12-.3,.44-.37,.55-.11,.34,.87,.8,.59,1.24,.67,.61,.12,1.24,.24,1.89,.44,.66,.21,1.35,.5,1.94,.91,.25,.17,.74,.14,.62,.75-.01,.08-.04,.16-.08,.25-.04,.12,.26,.02,.4,.02,.14,0,.41-.09,.39,.05-.21,1.33,.78,1.37,1.28,1.93,1.22,1.33,2.54,2.56,3.67,3.8,.34,.37,1.17,.14,1.5,.52,.31,.36,.71,.65,1,1.04,.2,.28,.75,.27,.31,1.11-.12,.23,.05,.4,.29,.32,.91-.3,.85,.32,1.21,.54,.44,.29,.31,1.03,1.34,.85,.28-.05,.05,.46,.14,.64,.16,.32,.35,.61,.6,.86,.12,.12,.47,.06,.59,.17,.89,.9,1.83,1.71,2.69,3.06,1.01,1.6,1.36,3.56,1.05,5.4-.15,.92-.42,1.83-.84,2.67-.46,.92-.88,1.49-1.4,2.09-.4,.46-.43,1.5-1.68,1,.07,.92-.65,.92-1.48,.5-.12-.06-.05,.31-.1,.46-.13,.46,.2,1.7-.78,.74-.04-.04-.04,.04-.08,.04-.35,0,.19,1.24-.55,.74-.46-.31-.66,.07-.95,.19-.29,.13-.6,.25-.81,.51-.22,.27-.85-.07-.59,.94,.04,.17-.53-.3-.63-.19-.52,.6-1.62,.2-1.72,1.6-.03,.32-.29,.44-.58,.32-1.03-.43-1.39,.26-2.11,.86-.2,.19-.56,.4-.76,.5-.22,.12-.46,.2-.71,.23-.5,.05-1.05-.09-1.62-.63-.24-.23-.36-.41-.47,.06-.08,.31-.32,.27-.5,.3-2.02,.32-4.08,.37-6.09,.23-.55-.04-.96-1.04-1.52-.74-.23,.12-.44-.4-.69,.4-.04,.11-.12,.17-.16,.1-.49-.98-1.19,.27-1.72-.14-.12-.09-.23-.27-.35-.37-.12-.1-.26-.34-.37-.21-.92,1.1-1.8,.27-2.7,.59-.29,.12-.67-.38-.86,.62-.03,.15-.16,.15-.23,.02-.63-1.14-1.11-.15-1.68-.4-.3-.12-.52,.57-.91-.35-.05-.12-.15,0-.21,.08-.1,.14-.17,.47-.29,.47-.33,0-.78-.45-1.01-.09-.28,.46-.64,.35-.98,.46-.19,.06-.48-.33-.7-.39-.21-.05-.39,.06-.58,.11-.28,.07-.53,.3-.84,.15-.33-.15-.3,.89-.77,.29-.36-.45-.4,.52-.63,.69-.12,.08-.28,0-.44-.06-.12-.05-.3-.34-.38-.29-.2,.11-.45-.02-.57,.46-.08,.33-.49-.13-.74-.14-.24-.01-.46,.1-.69,.15-.23,.06-.52-.08-.68,.2-.7,1.21-1.8,.81-2.74,1.12-.24,.08-.48,.47-.84-.35-.06-.15-.21-.13-.26-.03-.37,.68-.85,.8-1.35,.81-.49,.01-.99-.09-1.47,.1-.67,.3-1.36,.79-2.08,.68-.7-.09-1.4-.36-2.08,.03-.57,.33-1.14,.58-1.66,.32-.5-.25-1.21,1.4-1.55-.12-.54-.06-1.08-.09-1.59-.25-.43-.13-.96,.18-1.22-.75-.09-.33-.39-.37-.62-.13-.73,.78-1.22,.4-1.65-.18-.1-.14-.37,.24-.52,.22-.47-.06-.94-.13-1.35-.37-1.22-.72-2.82-.21-4.14-.68-.24-.08-.75,.46-.9,.2-.88-1.52-2.62-1.02-3.6-2.21-1.39-1.72-3.45-2.05-5.07-3.31-.21-.17-.05-.93-.26-.82-.68,.35-.74-.36-1.28-.14-.98,.4-1.13-.42-1.72-.6-.44-.13-.45-.86-1.38-.33-.14,.08-.24-.04-.23-.18,.09-1.12-1.28-.47-1.49-1.24-1.7,.02-2.12-1.49-3.18-2.34-.16-.13-.47-.12-.71-.19-.12-.04-.32-.03-.31-.15,.16-1.76-1.38-2.28-1.78-3.83-.13-.46-.01-1.1-.08-1.59-.08-.48-.51-1.01,.09-1.66,.18-.19,.02-.48-.11-.7-.17-.3-.21-.61-.12-.89,.11-.3,.34-.56,.66-.76,.65-.41,1.69-.52,2.95-.42,.92,.07,.97,.23,1.31,.38,.33,.14,.6,.25,.78,.36,.2,.11,.31,.22,.29,.36-.04,.21-.22,.56,.67,.49,.15-.01,.14,.08,.05,.17-.6,.63,.15,.83-.12,1.42-.23,.49,.05,.7,.08,1.06,.02,.32,.57,.27,.09,.97-.16,.24,.56,.05,.71,.18,.37,.3,.68,.64,.92,1.05,.73,1.32,2.65,1.3,3.54,2.41,1.48-.28,1.71,1.15,2.87,1.26,1.39,.09,2.21,1.03,3.42,1.34,.25,.06,.41,.18,.46,.54,.04,.24,.08,.48,.21,.56,.5,.3,1.06,.49,1.54,.81,.26,.18,.81-.2,.62,.89-.03,.15,.11,.19,.22,.1,.9-.78,1.14,.05,1.69,.12,.21,.03,.37,.14,.44,.58,.07,.47,.45,.58,.82,.3,.28-.21,.44-.16,.64-.18,.81-.08,1.23,1.19,2.31,.17,.03,1.2,.61,.97,1.06,.81,1.7-.61,2.94,.46,4.44,.5,.35,0,.63,.56,.98,.69,.36,.15,.75,.15,1.14,.15,.2,0,.41,.38,.64-.43,.02-.06,.06-.1,.08-.08,.2,.15,.39,.48,.61,.44,.19-.04,.4-.58,.59-.73,.23-.17,.46-.18,.69-.18,.22-.01,.46-.18,.63,.55,.18-.92,.43-.46,.65-.53,.21-.07,.41-.02,.62-.02l.69-.04c.23-.01,.47,.05,.69-.06,.3-.16,.57-.53,.87-.65,.31-.13,.64-.18,.98-.14,.43,.05,.89,.27,1.35,.33,.19,.03,.3-.22,.4-.57,.14-.46,.22-1.45,.79-.3,.11,.23,.31,.11,.39-.07,.63-1.45,1.84-.66,2.74-1.25,.77,.78,1.17,.08,1.68-.32,.76-.59,1.66-.96,2.66-.6,1.04,.37,1.91-.14,2.89-.07,.27,.02,.51-.37,.86,.43,.08,.18,.27,.1,.36-.05,.65-.98,1.46-.83,2.3-.31,.44,.27,.88-.12,1.34-.48,.69-.52,1.48-.16,2.22-.17,.3,1.06,.57,0,.75-.44,.24-.6,.46-.7,.73-.7,.35,0,.68,.2,1.07-.45,.2-.33,.6-.21,.75,.17,.21,.51,.32,.29,.59,0,.16-.18,.28-.02,.41,.19,.1,.2,.2,.45,.34,.44,.3-.02,.66-.51,.8,.6,.01,.1,.1,.09,.14,.01,.58-1.08,.96,.57,1.48,.09,.72,.64,1.49,.67,2.22,.55,.74-.12,1.43-.36,2.19-.29,.31,.03,.66,.2,1.01,.29,.17,.04,.34,.06,.49,.03,.08-.02,.15-.04,.21-.09,.04-.04,.07-.09,.09-.16,.34-1.2,1.92-1.26,3.07-2.18,.25-.2,.3-.8,1.09-.04,.11,.11,.23,.02,.21-.13-.1-1.08,.45-1.06,1.21-.75,.18,.08,.36-.06,.28-.31-.21-.73,.14-.6,.34-.7,.23-.12,.86,.25,.8-.15-.12-.85,.48-.19,.73-.17,.15,0,.15-.23,.17-.39,.01-.08-.13-.37-.06-.33,.39,.28,.46,.09,.46-.12,0-.22-.07-.47,.15-.43,.1,.02,.12-.04,.24,0,1.25,.38,1.62-.13,1.35-.93,.64,.17,.56-.02,.4-.18-.14-.17-.35-.3,.17-.31,.38-.01,.33-.22,.08-.34-.55-.27-.62-.41-.61-.61,.01-.19,.08-.42-.15-.54-.09-.03,.67-.46-.02-.26-.13,.04-.03-.03,.07-.18,.1-.14,.2-.33,.15-.39-.15-.18,.1-.67-.76-.43-.35,.1-.24-.25-.41-.36-.22-.15-.1-.55-.82-.37-.4,.1-.6-.17-.42-.5,.73-1.4-.65-1.08-1.39-1.25-.22-.05-.4-.06-.34-.33,.08-.38,.17-.9-.27-.8-.78,.2-.76-.23-1.02-.46-.44-.38-.75-.9-1.24-1.26-.56-.4-.82-1.15-1.81-1.13-.27,0-.52,.02-.8-.26-.22-.23-.29-.58-.06-1.15,.05-.13-.54,.18-.64,.09-.74-.69-1.39-1.32-1.97-2.02-.13-.16,.5-1.13-.27-.61-.82,.56,.36-.96-.57-.24-.13,.1-.25-.03-.24-.18,.03-.47-.08-.81-.26-1.06-.09-.13-.2-.24-.31-.33-.11-.09-.28-.22-.29-.19-.12-.02-.23,0-.27-.16-.04-.1-.24,.32,.03-.62-.32,.46-.41,.15-.59-.11-.18-.25-.44-.41-.78,.41-.33-.33-.77,.54-1.09-.63-.05-.19-.2,.08-.27-.09-.25-.58-.43,1.18-.72,.27-.18-.53-.52-.22-.8-.23-.24-.02-.53,.01-.82,.02l-.95,.04c-.32,.01-.64-.04-.95,.05-.63,.2-1.22,.94-1.89,.68-.07-.03-.19,.11-.2,.29-.15,1.52-.51,.69-.75,.26-.2-.36-.37-.52-.57-.51-.54,.05-1.09,.13-1.63,.06-.33-.04-.64,.46-1-.47-.11-.29-.37-.21-.5,.01-.62,1.03-1.36,.48-2.05,.67-.31,.08-.63,.07-.94,.06-.24,0-.44,.66-.72,.05-1.08,1.29-2.32,.58-3.49,.81-1.16,.23-2.33,.24-3.5,.29-.29,.01-.58,.52-.92-.46-.07-.19-.28-.15-.32,.05-.12,.56-.22,.85-.48,.14-.05-.13-.19,.04-.27,.19-.2,.42-.42,.4-.7,.05-.22-.27-.5-.42-.67-.19-.45,.61-.88,1.15-1.49,.14-.08-.12-.18,.57-.29,.55-.45-.09-.83,.5-1.35-.25-.21-.31-.45-.03-.68-.1-.4-.12-.69,.48-1.13,.21-.44-.27-.85,.03-1.27,.08l-1.27,.16-1.27,.17-1.26,.17-1.26,.18-1.26,.19c-.29,.04-.58-.04-.94-.38-.91-.88-1.82-.6-2.79,.4-.07,.07-.16,.04-.25,.05-1.08,.19-2.12,.59-3.24,.54-.49-.02-1.06-.37-1.52-.18-.3,.12-.64,.03-.8,.72-.13,.58-.71-.22-.78,.76-.03,.36-.31,.42-.52,.18-.71-.79-1.08-.18-1.58-.12-.57,.07-1.13,.24-1.65,.48-.25,.11-.62-.11-.65,.72-.01,.41-.4,.26-.7,.01-.46-.38-.72-.18-.92,.12-.43,.64-.38,.72-1.15,.4-.09-.04-.17-.01-.23,.02-.7,.27-1.53,.26-1.94,1-.32,.62-.76,.89-1.17,1.18-.17,.12-.1,.6-.79-.13-.1-.1-.19-.03-.15,.1,.33,1.1-.27,.87-.51,1.11-.19,.24,.34,.95,.14,.9-.14,0-.13,.02-.15,.05,0,.01,.03,.02,.03,.03l-.17-.05s-.18-.04-.15-.04h0c-.11-.01-.21-.02-.31-.04-.72-.05-1.42-.1-2.69-.2-2.23-.16-2.75-.41-3.01-1.35-.26-1.01,.15-1.97,.68-2.63,.54-.67,1.15-1.15,1.56-1.7Z"/>
        </g>
        <g>
          <path class="cls-10" d="M27.48,49.57c.99-12.73,51.08-14.68,62.85-15.14,4.19-.16,6.58,.47,7.86,1.58,2.51,2.17,4.58,4.52,5.71,5.56,1.83,1.69,3.04,2.97,3.98,4.09,.44,.53,1.11,1.31,1.88,2.41,2.04,2.9,3.07,4.36,2.99,6.28-.07,1.79-1.03,3.14-1.5,3.79-.98,1.37-2.12,2.08-2.93,2.57-4.47,2.73-6.68,4.17-8.39,4.66-4.6,1.32-8.5,.88-10.48,.65-10.57-1.25-17.13,2.69-25.13,3.4-16.75,1.47-37.5-11.44-36.84-19.85Z"/>
          <path class="cls-10" d="M29.53,45.07c1.14-1,2.21-1.6,3.26-2.21,.17-.09,.29-.31,.51-.41,.85-.42,1.7-.91,2.6-1.11,.98-.21,1.91-.52,2.78-.91,.82-.37,1.67-.59,2.51-.86,.28-.09,.56-.19,.91-.13,.25,.04,.67-.05,.94-.31,.05-.05,.19-.05,.29-.05,.11,0,.25,.04,.32,0,.77-.49,1.7-.48,2.54-.73,.21-.06,.46-.03,.6-.26,.04-.06,.24-.11,.32-.08,.19,.08,.36,.07,.57,.03,.88-.19,1.77-.35,2.66-.51,.39-.33,.9-.3,1.37-.38,.35-.06,.71-.03,1.07-.04,.36,0,.72-.23,1.09-.06,.06,.03,.18-.06,.28-.08,.44-.09,.89-.24,1.32-.22,.22,.01,.44,.02,.65-.01,2.76-.39,5.54-.73,8.31-1.03,.24-.03,.47-.02,.72-.19,.19-.14,.63-.18,.83-.09,.33,.15,.61,.05,.91,.03,.55-.03,1.1-.12,1.65-.14,.33-.02,.68-.18,.99,.05,.03,.02,.13,.01,.17-.01,.34-.28,.71-.1,1.07-.1,.27,0,.53-.02,.81-.17,.27-.14,.74-.2,1-.09,.36,.14,.67,.06,1,.04l5.74-.39c.9-.06,1.78-.34,2.7-.3,.22,0,.45-.1,.66,.07,.04,.03,.22,0,.28-.04,.24-.17,.49-.12,.77-.13,1.28-.03,2.58,0,3.82-.2,.97-.16,1.93-.14,2.89-.22,.33-.02,.66,.09,.99,.11,.32,.02,.65,.02,.97,.01,.19,0,.38,.06,.58-.07,.11-.07,.39-.07,.5,0,.36,.24,.77,.2,1.17,.27,1.12,.18,2.27,.46,3.29,1.12,.24,.16,.59,.31,.62,.63,0,.04,.17,.1,.26,.15,.1,.05,.24,.1,.27,.17,.35,.69,1,1.09,1.52,1.61,1.26,1.25,2.48,2.55,3.73,3.77,.36,.35,.8,.51,1.14,.86,.33,.33,.67,.65,.99,1,.22,.25,.54,.43,.58,.81,.01,.1,.18,.28,.28,.31,.41,.13,.6,.51,.87,.79,.33,.35,.52,.82,.99,1.05,.13,.06,.18,.33,.29,.49,.19,.27,.39,.55,.61,.8,.11,.12,.25,.21,.35,.33,.75,.97,1.52,1.93,2.17,3.06,.33,.58,.61,1.22,.76,1.93,.16,.71,.14,1.45,.03,2.14-.23,1.41-.94,2.66-1.76,3.67-.31,.39-.58,.93-1.13,1.03-.22,.45-.63,.62-1.06,.68-.06,0-.13,.16-.2,.24-.23,.25-.34,.67-.81,.57-.02,0-.05,.03-.07,.04-.27,.11-.27,.5-.69,.52-.26,.01-.55,.25-.82,.41-.28,.16-.56,.31-.81,.5-.26,.2-.65,.25-.78,.62-.02,.06-.32,.04-.44,.12-.6,.43-1.36,.62-1.85,1.23-.11,.14-.35,.26-.54,.29-.67,.11-1.16,.48-1.8,.8-.86,.41-1.74,.65-2.66,.51-.19-.03-.28-.07-.44,.08-.11,.09-.32,.11-.49,.13-1.88,.29-3.8,.34-5.69,.21-.52-.04-.97-.32-1.5-.29-.22,.01-.46-.14-.65,.05-.03,.03-.12,.03-.15,.01-.59-.28-1.22-.02-1.82-.15-.13-.03-.25-.07-.38-.1-.13-.03-.28-.09-.4-.06-.94,.24-1.9,.06-2.84,.16-.32,.05-.68-.06-.95,.2-.04,.04-.18,.05-.25,.02-.58-.25-1.16,.06-1.73,.04-.3,0-.6,.22-.9,.01-.04-.03-.15,.02-.22,.05-.12,.05-.23,.15-.35,.16-.34,.04-.73-.01-1.01,.12-.35,.17-.7,.19-1.05,.28-.2,.05-.42-.02-.63,0-.2,.02-.39,.08-.59,.13-.28,.07-.56,.18-.84,.19-.29,.01-.45,.31-.79,.22-.27-.07-.48,.23-.73,.32-.13,.05-.27,.05-.41,.06-.1,0-.22-.05-.31-.02-.21,.07-.42,.07-.62,.24-.14,.11-.45,.05-.68,.09-.23,.04-.45,.11-.68,.16s-.48,.07-.67,.17c-.85,.46-1.82,.51-2.74,.71-.24,.05-.5,.18-.75,0-.04-.03-.18-.01-.25,.02-.84,.44-1.82,.31-2.73,.45-.65,.11-1.29,.25-1.97,.22-.65,0-1.32-.11-1.95-.02-.52,.08-1.04,.09-1.54,0-.49-.09-1.01,.27-1.45-.15-.5-.06-1-.12-1.5-.23-.41-.09-.86-.05-1.22-.35-.13-.11-.42-.16-.59-.12-.56,.12-1.05-.06-1.54-.3-.12-.06-.3,.01-.44-.02-.44-.09-.87-.2-1.28-.35-1.24-.44-2.54-.62-3.78-1.06-.23-.08-.54-.02-.72-.14-1.11-.73-2.45-.98-3.55-1.69-1.61-1.03-3.36-1.78-4.95-2.83-.21-.14-.33-.43-.45-.45-.4-.05-.67-.4-.98-.47-.58-.13-.94-.56-1.41-.84-.34-.21-.6-.57-1.03-.6-.06,0-.17-.1-.21-.16-.31-.54-.97-.65-1.34-1.12-1.02-.52-1.71-1.48-2.5-2.31-.12-.12-.27-.21-.4-.32-.07-.05-.16-.11-.19-.18-.41-1.02-1.24-1.76-1.66-2.82-.16-.33-.2-.72-.31-1.07-.12-.35-.27-.73-.2-1.11,.02-.12-.04-.33-.09-.49-.06-.22-.09-.43-.09-.61,.02-.19,.08-.37,.16-.51,.16-.28,.42-.42,.74-.4,.23,.01,.24,.17,.33,.33,.08,.15,.15,.3,.19,.45,.07,.15,.11,.31,.13,.48,0,.28,.05,.6,.32,.77,.05,.03,.07,.15,.06,.22-.01,.52,.34,.97,.45,1.43,.06,.37,.28,.64,.43,.96,.12,.27,.4,.45,.41,.8,0,.12,.31,.25,.45,.41,.33,.35,.64,.74,.96,1.1,.94,1.15,2.24,1.89,3.35,2.85,.99,.43,1.73,1.26,2.68,1.74,1.16,.54,2.18,1.29,3.33,1.82,.23,.11,.41,.22,.58,.39,.11,.11,.23,.23,.37,.3l1.61,.81c.29,.15,.67,.17,.82,.53,.02,.05,.16,.1,.23,.1,.59-.04,1.05,.35,1.58,.52,.2,.06,.39,.15,.56,.32,.19,.19,.56,.33,.84,.32,.21,0,.37,.05,.56,.1,.76,.19,1.44,.68,2.26,.61,.3,.39,.81,.43,1.21,.48,1.56,.16,3.03,.69,4.56,.89,.37,.05,.72,.24,1.09,.31,.39,.07,.79,.11,1.19,.15,.21,.02,.45,.13,.64-.06,.01-.01,.05-.02,.07-.02,.22,.05,.45,.15,.67,.15,.2,0,.39-.12,.6-.15,.24-.04,.49-.03,.74-.02,.24,0,.49-.03,.69,.15,.19-.23,.46-.12,.7-.14,.22-.02,.45,0,.68-.01l.76-.04c.25-.02,.51-.01,.76-.05,.34-.06,.67-.19,1.01-.25,.36-.06,.72-.11,1.09-.15,.46-.04,.92-.04,1.38-.1,.19-.02,.34-.11,.51-.22,.22-.15,.48-.45,.86-.22,.08,.05,.29-.02,.4-.09,.89-.53,1.95-.52,2.92-.86,.6,.09,1.1-.18,1.65-.39,.81-.3,1.7-.55,2.56-.6,.91-.05,1.77-.3,2.66-.39,.25-.02,.51-.15,.75,.02,.06,.04,.24,0,.34-.05,.69-.31,1.41-.34,2.16-.25,.4,.05,.83-.07,1.26-.18,.65-.15,1.37-.06,2.05-.07,.29,.27,.53,.01,.68-.09,.21-.14,.4-.16,.65-.16,.31,0,.62,.07,.94-.07,.16-.07,.52-.02,.68,.09,.22,.14,.31,.09,.52,.03,.26-.07,.48,.19,.77,.22,.31,.02,.68-.07,.93,.22,.02,.03,.12,.03,.16,.01,.59-.23,1.12,.21,1.7,.09,1.69,.35,3.4-.05,5.07-.28,.68-.09,1.46-.07,2.04-.38,1.16-.68,2.53-1.3,3.79-2.1,.27-.17,.52-.47,.9-.39,.05,.01,.18-.07,.21-.13,.28-.46,.72-.64,1.22-.75,.12-.03,.3-.15,.33-.24,.08-.26,.31-.32,.5-.43,.22-.13,.6-.17,.69-.33,.18-.34,.45-.25,.67-.34,.14-.06,.24-.19,.35-.3,.05-.05,.07-.17,.12-.18,.51-.09,.65-.63,1.02-.87,.08-.05,.14-.13,.23-.18,.46-.29,.67-.47,.88-.73,.19-.25,.37-.56,.59-1.19,.46-.21,.16-.78,.48-1.08,.12-.12,.15-.4,.1-.58-.2-.78-.11-1.49-.52-2.22-.08-.14,.05-.36-.2-.47-.1-.04-.06-.38-.17-.55-.15-.24-.21-.56-.55-.69-.14-.05-.22-.31-.35-.46-.17-.21-.26-.47-.55-.6-.16-.07-.36-.35-.39-.54-.11-.79-.78-1.08-1.26-1.51-.15-.13-.25-.21-.34-.4-.11-.27-.27-.63-.48-.73-.38-.19-.56-.5-.82-.78-.44-.47-.86-.96-1.34-1.41-.54-.51-1.01-1.09-1.68-1.48-.34-.19-.87-.56-.98-1.08-.01-.06-.26-.08-.34-.17l-2-2.04c-.15-.16-.12-.53-.42-.5-.32,.03-.15-.48-.48-.39-.05,.01-.19-.13-.24-.22-.29-.49-.69-.88-1.11-1.24l-.32-.27c-.09-.06-.16-.13-.26-.18-.17-.12-.36-.23-.56-.34-.19-.11-.47-.1-.56-.39-.62,.07-1.21-.62-1.9-.27-.45-.13-.96,.05-1.4-.25-.07-.05-.24,.01-.32-.03-.29-.15-.47,.28-.82,.06-.2-.13-.58-.05-.89-.05-.28,0-.57,.02-.86,.03l-.96,.04c-.32,.01-.64,0-.95,.04-.64,.07-1.26,.27-1.92,.23-.07,0-.19,.03-.21,.08-.2,.39-.54,.19-.77,.09-.19-.08-.35-.12-.55-.11-.55,.03-1.1,.07-1.65,.08-.33,0-.67,.14-.99-.08-.1-.07-.36-.04-.5,.02-.67,.29-1.39,.18-2.09,.26-.32,.04-.63,.05-.95,.06-.24,0-.47,.19-.72,.05-1.15,.38-2.37,.27-3.55,.39-1.18,.12-2.36,.2-3.54,.29-.3,.02-.61,.17-.9-.06-.05-.04-.27-.02-.33,.03-.16,.15-.28,.23-.49,.07-.04-.03-.2,.02-.28,.07-.23,.12-.45,.13-.71,.06-.2-.05-.47-.07-.66,0-.5,.19-.97,.36-1.51,.15-.07-.03-.22,.16-.34,.16-.44,.01-.88,.19-1.34,.04-.19-.06-.45,.03-.67,.03-.39,0-.74,.18-1.15,.15-.42-.03-.86,.08-1.29,.14l-1.29,.16-1.29,.17-1.29,.18-1.28,.19-1.28,.19c-.3,.04-.58,.06-.9,0-.81-.13-1.74,.06-2.84,.46-.08,.03-.17,.03-.25,.05-1.11,.2-2.2,.46-3.31,.62-.48,.07-.99,.06-1.48,.19-.32,.09-.64,.11-.92,.35-.23,.19-.66,.06-.91,.36-.09,.11-.39,.18-.55,.15-.55-.1-1.04,.16-1.55,.27-.58,.14-1.16,.31-1.73,.5-.28,.1-.59,.1-.81,.38-.11,.14-.46,.18-.7,.17-.36-.01-.66,.12-.94,.28-.59,.34-.57,.36-1.24,.46-.08,.01-.16,.04-.23,.08-.76,.3-1.56,.57-2.21,1.02-.53,.39-1.08,.7-1.61,1.04-.21,.14-.39,.38-.7,.3-.04-.01-.16,.07-.19,.13-.26,.52-.76,.76-1.14,1.12-.34,.37-.48,.83-.76,1.19-.29,.34-.43,.75-.55,1.14-.16,.59-.27,.72-.97,.66-.55-.04-.69-.27-.64-.99,.07-.77,.42-1.49,.85-2.07,.44-.58,.93-1.05,1.36-1.47Z"/>
        </g>
        <g class="cls-13">
          <g class="cls-13">
            <path class="cls-5" d="M115.85,72.89c-1.94,.71-4.24,.62-5.69,1.87-.17,.13-.33,.26-.5,.4l.31-.03c2.32-.24,4.74-.83,6.92-1.68,1.31-.64,2.56-1.59,4.12-1.97,.17-.04,.1-.35,.07-.5-.21-.15-.4-.32-.59-.49-1.2,.55-2.35,1.19-3.63,1.6-.43,.1-.74,.75-1,.81Z"/>
            <polygon class="cls-7" points="120.55 70.51 120.52 70.48 120.34 70.56 120.55 70.51"/>
            <path class="cls-4" d="M117.64,71.89c-.39,.22-.79,.36-1.21,.46-.22,.22-.41,.5-.57,.54-1.94,.71-4.24,.62-5.69,1.87-.16,.13-.33,.26-.49,.4,.11-.01,.22-.02,.33-.04,.8-.08,1.62-.21,2.43-.37l.11-.08c.38-.34,.87-.21,1.3-.31,1.16-.52,2.23-.62,3.39-1.15,.42-.18,.76-.67,1.28-.8,.17-.06,.34-.1,.51-.12,.63-.34,1.29-.64,2.01-.81,.17-.04,.1-.35,.07-.5-.11-.08-.22-.16-.32-.25-.6,.12-1.17,.31-1.77,.46-.49,.23-.98,.46-1.49,.66,.03,.02,.06,.04,.1,.05Z"/>
            <path class="cls-7" d="M117.45,71.45c-.07,.02-.1,.26,.09,.39,.51-.2,1-.42,1.49-.66-.5,.13-1.02,.24-1.58,.27Z"/>
            <path class="cls-9" d="M117.2,70.38c-1.06,.18-1.9,.87-2.82,.85-.48,0-.97-.08-1.44-.26-.14,.05-.28,.09-.41,.14-3.34,1.29-6.77,2.47-10.21,3.11-1.69,.36-3.05,1.24-4.75,1.76-1.02,.18-1.85-.21-2.83-.49-2.42-.79-4.99,.06-7.66,.67-.73,.19-.65,1.45-.48,1.44,2.02-.51,4.19-.22,6.36,.04,1.1,.12,2.22,.24,3.38,.23,1.16-.01,2.33-.17,3.45-.47,1.75-.45,3.38-.96,5-1.36,1.62-.4,3.23-.68,4.87-.86,.16-.14,.33-.28,.5-.4,1.45-1.24,3.75-1.15,5.69-1.87,.26-.06,.57-.71,1-.81,1.28-.41,2.44-1.05,3.63-1.6-.39-.36-.73-.75-1.08-1-.71,.41-1.42,.8-2.2,.89Z"/>
            <path class="cls-6" d="M117.2,70.38c.78-.09,1.5-.48,2.2-.89-.17-.12-.35-.21-.54-.25-2.07-.1-4.01,1.03-5.92,1.72,.47,.18,.96,.27,1.44,.26,.92,.02,1.76-.67,2.82-.85Z"/>
            <path class="cls-4" d="M117.2,70.38c.75-.08,1.43-.44,2.11-.83-.27,0-.53,.04-.78,.1-1.3,.31-2.56,.78-3.91,.87,1.36-.4,2.72-.8,4.06-1.29-2-.02-3.88,1.07-5.73,1.74,.47,.18,.96,.27,1.44,.26,.92,.02,1.76-.67,2.82-.85Z"/>
            <path class="cls-3" d="M115.2,71.19c1.58-.31,3.14-.68,4.62-1.39-.1-.09-.2-.18-.3-.26-.08,0-.14,0-.21,0-.68,.39-1.36,.75-2.11,.83-1.06,.18-1.9,.87-2.82,.85-.47,0-.97-.08-1.44-.26-.13,.04-.26,.09-.39,.13-1.71,.66-3.44,1.29-5.18,1.83-1.4,.83-3.09,1.26-4.73,1.45,.74-.2,1.48-.45,2.21-.73-.84,.22-1.68,.41-2.52,.56-.72,.16-1.37,.4-2.02,.67-.07,.32-.24,.61-.61,.76-.58,.24-1.17,.29-1.76,.63-.09,0-.09-.23-.26-.23,.48-.01,.85-.22,1.14-.52-.4,.16-.8,.32-1.23,.45-.8,.14-1.49-.07-2.22-.3l-.24,.02c-.4,.02-.82,.12-1.25,.23,.17,.02,.34,.05,.51,.07-.28,.12-.63,.07-.89,.03,.13-.03,.25-.07,.38-.1-.4-.06-.79-.13-1.22-.19,.53,.09,1.07,.01,1.53-.08-.96-.06-1.85-.06-2.81-.37l.08-.03c-1.42,.16-2.87,.57-4.36,.91-.73,.19-.65,1.45-.48,1.44,2.86-.71,5.85,.16,9.03,.26-.36-.19-.71-.37-1.05-.55-.15-.05-.3-.12-.43-.22,.14,.07,.28,.15,.43,.22,.41,.14,.88,.14,1.34,.28,.08,.09,.36,.11,.47-.13,.64,.19,1.38-.06,2.03,.06,.04,0,.11,.06,.19,.13,.4-.07,.79-.16,1.18-.27,2.18-.57,4.19-1.22,6.21-1.64-.52,0-1.02-.02-1.51-.1-.68-.16-1.8,.51-2.84,.87-.25,.13-.47-.07-.73-.03,.76-.85,2.04-.72,3.05-1.13,1.35-.49,3.44-.51,4.79-1.4,.55-.38,1.21-.29,1.78-.19-.14,.2-.48,.28-.66,.32-1.56,.38-3.11,.76-4.63,1.29,1.7-.17,3.2-.78,4.91-.87-.93,.31-1.95,.23-2.73,.83,.09,.03,.18,.06,.27,.09,.64-.1,1.29-.19,1.94-.26,.16-.14,.33-.27,.49-.4,1.45-1.24,3.75-1.15,5.69-1.87,.17-.04,.35-.31,.57-.54-.64,.17-1.3,.27-1.94,.46,.28,0,.56,.03,.83,.12-.59,.22-1.18,.04-1.76,.27,.3-.17,.61-.29,.93-.39-.42,0-.84,.09-1.26,.14,.71-.49,1.62-.07,2.29-.71-.17,.05-.34,.1-.51,.12l.52-.13h0c.51-.16,.97-.46,1.39-.74-.88,.28-1.77,.21-2.63,.49-.14,.06-.28,.11-.42,.17,.14-.07,.28-.12,.42-.17,1.94-.74,4.03-.98,6.05-1.43l.18-.08-.25-.25c-1.66,.41-3.38,.74-5.06,.96Z"/>
          </g>
        </g>
        <g class="cls-13">
          <g class="cls-13">
            <path class="cls-5" d="M130.74,60.66c-.05,.51-.94,.7-.39,1.37,.05,.07,.11,.15,.16,.23l.08-.04c.63-.33,1-.88,1.01-1.48-.11-.42-.54-.9-.35-1.24,.02-.04-.28-.12-.44-.16-.21-.01-.43-.03-.65-.06,.1,.32,.28,.68,.2,.98-.06,.09,.41,.36,.37,.41Z"/>
            <polygon class="cls-7" points="130.21 59.26 130.16 59.26 130.18 59.31 130.21 59.26"/>
            <path class="cls-4" d="M130.47,60.09c.06,.12,.05,.22,0,.31,.12,.11,.3,.23,.27,.26-.05,.51-.94,.7-.39,1.37,.05,.07,.1,.14,.16,.22l.09-.05c.22-.11,.4-.26,.56-.41l-.03-.05c-.15-.18,.13-.19,.19-.28-.04-.35,.25-.52,.19-.87-.02-.12-.34-.34-.27-.45,0-.04,.03-.08,.07-.11-.09-.2-.14-.39-.05-.55,.02-.04-.28-.12-.44-.16-.11,0-.22-.02-.33-.03-.1,.12-.12,.25-.18,.38,.04,.14,.08,.28,.08,.41,.03,0,.06,0,.08,0Z"/>
            <path class="cls-7" d="M130,59.96s.2,.1,.38,.12c0-.13-.04-.27-.08-.41-.05,.11-.13,.21-.3,.29Z"/>
            <path class="cls-9" d="M128.95,59.63c-.19,.17,.13,.5-.2,.58-.15,.05-.41,.06-.72,.02,0,.03,0,.06-.02,.09,0,.76-.23,1.49-.9,1.92-.26,.25,.03,.8,.13,1.32-.05,.24-.45,.19-.76,.23-.81,.05-.04,1.21-.12,1.95-.02,.19,.89,1.06,.93,1.04,.32-1.12,1.37-1.57,1.63-2.68,.21-.82,.7-1.38,1.59-1.85-.06-.08-.11-.16-.16-.23-.54-.67,.35-.86,.39-1.37,.04-.06-.43-.32-.37-.41,.08-.3-.11-.66-.2-.98-.46-.06-.93-.12-1.27-.16,.14,.2,.25,.41,.06,.52Z"/>
            <path class="cls-6" d="M128.95,59.63c.19-.11,.07-.32-.06-.52-.17-.02-.31-.02-.4-.01-.78,.18-.4,.72-.46,1.14,.32,.03,.57,.02,.72-.02,.33-.08,0-.41,.2-.58Z"/>
            <path class="cls-4" d="M128.95,59.63c.18-.11,.09-.3-.04-.5-.08,.03-.14,.07-.17,.12-.15,.24-.15,.53-.54,.67,.11-.26,.21-.53,.21-.82-.68,.2-.33,.72-.38,1.12,.31,.03,.56,.02,.72-.02,.33-.08,0-.41,.2-.58Z"/>
            <path class="cls-3" d="M129,60.12c.27-.26,.46-.57,.31-.97-.12-.01-.23-.03-.33-.04-.03,0-.05,.02-.07,.03,.13,.19,.22,.39,.04,.5-.19,.17,.13,.5-.2,.58-.15,.05-.4,.06-.72,.02,0,.03,0,.05-.02,.08,0,.39-.06,.76-.21,1.1,.22,.46-.04,.74-.44,.9,.09-.13,.15-.28,.17-.45-.11,.14-.25,.26-.41,.37-.11,.11-.12,.27-.09,.46,.24,.18,.43,.35,.45,.46,.03,.18-.07,.27,.09,.53-.01,.01-.21-.12-.24-.09,.08-.07,0-.23-.18-.43,.04,.13,.07,.26,.1,.39-.04,.19-.3,.19-.55,.21,0,.02,0,.04,0,.06-.02,.09,.03,.24,.1,.4l.09-.07c.08,.13,.02,.18-.03,.22l-.06-.14c-.07,.05-.14,.11-.22,.16,.09-.07,.06-.24,0-.39-.1,.18-.14,.39-.43,.41l-.02-.04c.07,.4,.28,.96,.23,1.36-.02,.19,.89,1.06,.93,1.04,.23-.79,.79-1.23,1.22-1.82-.19-.03-.37-.06-.55-.09-.05,0-.12,0-.21-.03,.07,.01,.14,.02,.21,.03,.15-.01,.19-.11,.36-.12,.08,.03,.13-.01-.05-.16,.24,0,.17-.25,.41-.27,0,0,.07,.02,.15,.05,.03-.09,.06-.18,.08-.27,.13-.52,.37-.93,.75-1.27-.19,.04-.39,.06-.63,.05-.37-.04-.23,.35-.27,.62,.02,.08-.21,0-.25,.03-.46-.51,.07-.51,.11-.76,.08-.31,.82-.46,.54-.97-.13-.21,.18-.22,.47-.23,.12,.1,.07,.16,.04,.2-.23,.3-.47,.58-.58,.93,.48-.19,.5-.58,1.04-.77-.07,.22-.5,.27-.29,.61,.06,0,.12,.01,.17,.02,.15-.1,.31-.2,.48-.29-.06-.08-.11-.16-.16-.22-.54-.67,.35-.86,.39-1.37,.02-.03-.16-.16-.27-.26-.07,.14-.21,.25-.27,.4,.1-.03,.22-.05,.4-.05,0,.16-.38,.15-.38,.3-.04-.1-.04-.18-.01-.25-.14,.05-.22,.12-.32,.19-.19-.26,.51-.2,.17-.52,0,.04-.03,.07-.07,.1l.07-.1h0c.03-.12-.07-.27-.19-.42-.05,.2-.42,.27-.47,.46,0,.03,0,.07,0,.1-.01-.04-.01-.07,0-.1,.01-.47,.51-.78,.78-1.19v-.05s-.32-.04-.32-.04c-.18,.34-.47,.65-.85,.9Z"/>
          </g>
        </g>
      </g>
    </g>
  </g>
</svg>