<?xml version="1.0" encoding="UTF-8"?>
<svg id="_Слой_2" data-name="Слой 2" xmlns="http://www.w3.org/2000/svg" xmlns:xlink="http://www.w3.org/1999/xlink" viewBox="0 0 228.36 252.51">
  <defs>
    <style>
      .cls-1 {
        fill: none;
      }

      .cls-2 {
        clip-path: url(#clippath);
      }

      .cls-3 {
        fill: #f3f9fb;
      }

      .cls-4 {
        fill: #f7fbfc;
      }

      .cls-5 {
        fill: #f8fcfd;
      }

      .cls-6 {
        fill: #f4fafb;
      }

      .cls-7 {
        fill: #f5fafb;
      }

      .cls-8 {
        fill: #eab7c9;
      }

      .cls-9 {
        fill: #fbfdfe;
      }

      .cls-10 {
        fill: #e29fb4;
      }

      .cls-11 {
        fill: #6e7c6e;
      }

      .cls-12 {
        opacity: .49;
      }

      .cls-13 {
        opacity: .8;
      }
    </style>
    <clipPath id="clippath">
      <rect class="cls-1" width="228.36" height="252.51"/>
    </clipPath>
  </defs>
  <g id="_лепестки" data-name="лепестки">
    <g class="cls-2">
      <g>
        <g class="cls-12">
          <path class="cls-11" d="M186.57,221.32c-22.71,3.04-45.89-1.85-67.16-11.44-21.27-9.59-40.76-23.77-58.96-39.6,16.6,.19,33.22-1.66,49.47-5.52,15.12-3.59,30.97-8.9,45.66-3.43,17.66,6.57,28.64,27.31,32.65,48.04,.75,3.85,1.26,8.08-.37,11.55-1.63,3.47-6.29,5.2-8.59,2.27"/>
          <path class="cls-11" d="M178.79,223.89c-1.2,.09-2.29,.06-3.32,.1-1.03,.04-2.01,.08-2.99,.12-.3,.02-.65,.54-1.04,.52-1.53-.03-3.13,.39-4.58-.3-1.58-.71-3.15-.94-4.72-.66-1.49,.29-2.9-.04-4.35-.09-.49-.02-.98,.03-1.42-.62-.32-.49-1-.65-1.63,.03-.12,.13-.31-.06-.46-.15-.16-.1-.3-.46-.45-.38-1.6,.95-2.89-.22-4.35-.22-.37,0-.68-.41-1.14,.29-.12,.18-.47,.14-.53-.06-.17-.52-.42-.69-.76-.76-1.45-.31-2.89-.64-4.32-1.02-.95,.8-1.64,.14-2.38-.06-.56-.16-1.03-.64-1.53-1-.5-.36-1.29,.07-1.57-.94-.04-.16-.34,.03-.5,0-.72-.15-1.56-.05-2.11-.58-.28-.27-.57-.54-.9-.66-4.33-1.43-8.58-3.08-12.77-4.86-.36-.16-.66-.41-1.29-.05-.49,.29-1.16,.02-1.26-.53-.16-.89-.71-.82-1.14-1.06-.78-.45-1.65-.73-2.43-1.18-.46-.27-1.22-.08-1.19-1.2,0-.11-.15-.18-.24-.12-.96,.62-1.12-.37-1.59-.75-.34-.28-.74-.45-1.37-.24-.62,.2-1.33-.09-1.47-.73-.19-.86-.75-.91-1.21-1.16l-8.12-4.62c-1.28-.73-2.98-.74-4.06-1.83-.26-.26-.79-.14-.67-.92,.02-.16-.26-.24-.45-.15-.68,.31-.89-.11-1.26-.38-1.68-1.23-3.21-2.73-5.24-3.37-1.57-.51-2.73-1.59-4.1-2.36-.46-.26-.6-.97-.98-1.36-.36-.38-.81-.65-1.26-.92-.27-.16-.4-.51-.98-.23-.31,.15-.73-.04-.72-.35,.01-1.04-.7-1.16-1.19-1.55-1.41-1.1-2.87-2.15-4.25-3.29-.34-.28-.99-.25-.76-1.18,.03-.13-.34-.06-.52-.1-.19-.04-.51,.03-.53-.15-.05-.4-.17-.72-.34-.98-.16-.25-.39-.47-.68-.7-.56-.43-1.25-.78-1.79-1.25-1.29-1.12-2.61-2.21-3.96-3.3-1.33-1.1-2.65-2.22-3.8-3.29-.61-.57-2.82-1.49-3.51-2.14-.64-.6-1.58-1.3-2.15-1.88-.17-.17-.54-.42-.79-.62-.09-.06-.05-.07-.02-.09,.03-.02,.07-.03,.14-.03,.13,0,.34,.02,.69,.1,.34,.08,.74,.19,1.22,.33,.84,.25,1.26,.24,.84,0-.79-.44-.63-.55-.25-.56,.39-.01,1,.07,1.26,0,.33-.08,1.08,.01,1.6,.01,.53,0,.83-.09,.51-.56-.16-.25,1.3,.24,1.79,.27,.87,.06,1.65,.09,2.33,.03,.32-.03,.25-.35,.59-.38,2.57-.27,5.37-.61,8.33-.88l1.15-.09,.75-.07,1.48-.11c.99-.06,1.98-.14,2.97-.22,1.98-.18,3.94-.46,5.93-.6,.75-.04,1.46-.84,2.3,.27,.59-.81,1.24-.46,1.95,.27,.1,.1,.27-.27,.41-.39,.46-.39,.74-1.67,1.49-.44,.03,.05,.09-.02,.14-.01,.49,.11,.6-1.25,1.3-.55,.44,.44,.99,.13,1.49,.09,.51-.04,1.03-.07,1.5-.27,.49-.21,1.16,.3,1.46-.77,.05-.17,.55,.44,.77,.36,1.1-.45,2.45,.2,3.34-1.18,.2-.32,.61-.38,.93-.2,1.16,.63,1.99,0,2.93-.54,1.23-.71,2.6-1.19,4.19-.3,.34,.19,.51,.36,.69-.14,.11-.33,.45-.34,.71-.41,2.9-.73,5.82-1.47,8.76-2.17,.81-.19,1.77,.57,2.51,.03,.31-.22,.81,.17,.93-.68,.02-.12,.15-.21,.22-.17,1.19,.7,1.91-.81,3-.61,.23,.04,.47,.18,.7,.23,.24,.06,.53,.24,.69,.07,1.35-1.39,3.1-.82,4.65-1.28,.54-.16,1.18,.28,1.57-.75,.06-.15,.31-.16,.42-.04,1.05,1.12,1.99,.09,3,.37,.51,.14,1.06-.52,1.53,.44,.06,.12,.26,.02,.38-.06,.21-.12,.42-.46,.64-.44,.59,.06,1.21,.62,1.73,.31,.65-.38,1.25-.21,1.86-.17,.35,.02,.67,.49,1.01,.62,.32,.13,.68,.08,1.02,.11,.49,.05,1.01-.02,1.44,.26,.43,.3,.99-.64,1.4,.12,.3,.57,.94-.21,1.42-.22,.24,0,.45,.17,.65,.33,.15,.12,.24,.47,.4,.49,.37,.04,.67,.27,1.17,0,.35-.2,.66,.47,1.01,.66,.35,.19,.74,.26,1.12,.38,.38,.11,.7,.48,1.11,.4,.91-.16,1.71,.07,2.44,.4,.75,.31,1.37,.87,2.12,1.18,.38,.17,.98,.11,.85,1.02-.02,.16,.17,.29,.33,.26,.96-.12,1.63,.29,2.25,.77,.61,.49,1.19,1.02,1.88,1.39,.99,.5,2.16,.83,2.94,1.66,.72,.84,1.36,1.79,2.42,2.23,.86,.37,1.65,.83,2.06,1.61,.37,.76,2.28,.25,1.64,1.83,.52,.67,1.08,1.31,1.54,2.02,.41,.58,1.1,.98,.8,2.04-.11,.38,.17,.77,.56,.84,1.25,.23,1.52,1.09,1.57,2.1,.02,.24,.52,.24,.66,.44,.42,.61,.87,1.22,1.13,1.91,.69,2.1,2.6,3.54,3.49,5.55,.17,.36,.99,.49,.97,.89-.05,1.21,.33,2.23,.81,3.22,.49,.98,.97,1.97,1.01,3.09,.04,.82,.17,1.61,.35,2.37,.16,.77,.38,1.52,.61,2.27,.5,1.48,.99,2.97,1.28,4.51,.07,.4-.53,.98-.28,1.12,.78,.43,.37,1.22,.96,1.6,1.05,.69,.66,1.69,1.06,2.52,.28,.62-.17,1.42,.91,1.89,.16,.07,.17,.31,.07,.45-.78,1.13,.72,2.01,.33,3.16,.62,1.01,.71,2.17,.57,3.35-.13,1.19-.48,2.39-.75,3.67-.09,.38,.03,.82,0,1.24-.01,.21,.03,.5-.11,.62-.25,.21-.52,.49-.78,.78l-.73,.85-1.39,1.65c-.95,1.05-2.05,2.06-3.46,2.57-.92,.34-1.97,.33-2.97,.41-.53,.02-1.04,.14-1.6,.1-.55-.03-1.1-.17-1.56-.64-.14-.14-.36-.21-.61-.25-.25-.06-.53-.1-.78-.13-.66-.07-1.22-.43-1.64-.8-.38-.42-.62-.9-.66-1.38-.06-1,.54-1.9,1.53-2.68,.72-.57,.93-.43,1.32-.5,.77-.17,1.18-.42,1.46-.25,.18,.15,.57,.48,.81-.41,.03-.14,.13-.11,.21-.02,.26,.38,.58,.35,.86,.26,.29-.08,.54-.24,.93-.15,.62,.12,.93-.27,1.38-.48,.41-.21,.27-.79,1.17-.7,.32,0-.08-.7,0-.97,.23-.68,.38-1.36,.64-2.05,.41-1.05,.24-2.22-.03-3.32-.27-1.11-.63-2.19-.65-3.35-1.36-1.42-.75-3.33-1.65-4.86-.52-.92-.89-1.86-1.16-2.83-.27-.97-.52-1.94-.97-2.85-.18-.38-.25-.7-.08-1.13,.11-.28,.23-.59,.17-.83-.22-.94-.67-1.8-.88-2.74-.12-.5-.85-.84,0-1.65,.12-.11,.01-.32-.14-.37-1.31-.4-1.04-1.48-1.5-2.24-.17-.29-.25-.61-.04-1.09,.22-.52-.09-1.08-.61-1.29-.4-.16-.52-.41-.72-.64-.81-.97-.45-2.59-2.16-3.05,.7-1.09,.03-1.63-.55-2.03-1.09-.78-1.73-1.81-2.37-2.84-.66-1.01-1.19-2.13-2-3.03-.39-.43-.37-1.19-.66-1.72-.31-.55-.71-1.05-1.18-1.47-.24-.23-.22-.77-1.01-.42-.06,.03-.13,.01-.14-.02-.13-.35-.14-.83-.42-1.05-.25-.19-.83-.04-1.17-.14-.39-.13-.68-.39-.97-.64-.28-.24-.68-.38-.4-1.12-.83,.47-.81-.17-1.14-.35-.31-.17-.54-.42-.81-.64l-.9-.74c-.3-.24-.54-.57-.92-.71-.51-.19-1.12-.21-1.6-.42-.51-.22-.94-.56-1.36-.91-.53-.43-.98-1-1.51-1.48-.22-.2-.54-.12-.92,.04-.52,.22-1.32,.92-1.23-.39,.02-.26-.32-.33-.55-.25-.9,.3-1.55,.06-2.23-.19-.67-.26-1.29-.72-2.04-.69-.54-1.09-1.45-.75-2.31-.63-.64,.1-1.27,.13-1.89,.05-.61-.08-1.23-.2-1.81-.55-.31-.18-.62-.3-.94-.38-.32-.07-.64-.09-.97-.11-.65-.02-1.28-.04-1.94-.13-.37-.05-.76,.31-1.09-.53-.08-.19-.36-.13-.51,0-1.03,.9-2.06,.79-3.22,.28-.61-.26-1.24,.2-1.84,.6-.9,.59-1.99,.41-3.02,.57-.61-.96-.78,.14-.93,.63-.19,.65-.45,.81-.81,.89-.45,.1-.94,0-1.26,.76-.16,.38-.69,.41-1.02,.11-.43-.41-.52-.16-.75,.22-.28,.45-.86-.42-1.31-.28-.48,.16-.93,.81-1.61-.16-.06-.09-.21-.04-.26,.06-.65,1.3-1.94-.06-2.74,.64-3.03-.55-5.58,1.19-8.5,1.45-1.2,.11-2.57-.4-3.61,.34-2.2,1.58-4.81,1.36-7.22,2.02-.51,.14-1.02,.73-1.68-.24-.09-.13-.33-.08-.41,.07-.6,1.11-1.42,.94-2.31,.41-.22-.13-.57-.05-.64,.23-.21,.77-.64,.55-.99,.59-.43,.05-1.08-.5-1.28-.1-.42,.86-.86,.03-1.28-.05-.26-.05-.51,.19-.76,.35-.12,.07-.23,.42-.31,.35-.96-.78-1.59,.62-2.47,.36-.19-.06-.37,0-.56-.09-2.1-.96-2.08-.94-4.47-.08-.8-1.23-1.4,.77-2.23-.15-.3-.34-.8-.21-1.11,.08-1.36,1.27-2.95,.49-4.4,.92-.35,.1-.49-.77-.58-.06,0,.27-.39-.48-.58-.44-.2,.05-.75-.39-.51,.45,.12,.34-.22,.08-.31,.15-.09,.1-.6-.2-.1,.47,.28,.37,.17,.38-.3,.07-.98-.65-1.36-.67-1.29-.48,.05,.19,.53,.61,.81,.84,.16,.14,.35,.26-.11,.07-.65-.28-1.67-.63-.94-.25,1.35,.68,.62,.4,.56,.44-.02,.03-.11,.03-.22,.02h-.14c-.06-.02,.02,.02,.03,.04,.05,.05,.14,.11,.27,.18,.25,.13,.2,.17,.33,.27,.12,.09,.43,.24,1.2,.43,.86,.23,1.41,.23-.49,.16-.2,0,.94,.11,.96,.11,.23,.14,.39,.22,.45,.39-.02,.01-1.04,.65-.12,.22,.47-.25,.26-.11,.11,.03-.16,.14-.27,.29,.21-.07,.14-.1,.15-.08,.08,.02-.09,.12-.14,.24-.17,.33-.04,.02,.05,.15,.12,.24,.07,.1,.14,.19,.21,.27,.3,.35,.65,.64,1.02,.9,.75,.52,1.56,.95,2.18,1.63,.3,.33,.97,.25,.65,1.24,1.52-.19,1.17,2.31,3.07,1.57,.46,.71,1.67,.48,1.6,1.86-.01,.22,.37,.16,.39,.38,.05,.75,1.33-.51,1.26,.58-.04,.62,.66,.74,1.04,1.06,.36,.29,.75,.53,1.13,.8l1.25,.87c.42,.29,.79,.64,1.26,.86,.94,.43,2.17,.4,2.87,1.22,.08,.09,.31,.08,.44-.04,1.13-1.06,1.09-.07,1.14,.49,.05,.47,.16,.75,.44,.92,.74,.46,1.51,.88,2.19,1.43,.4,.33,1.13,.21,1.04,1.27-.03,.33,.36,.49,.68,.43,1.45-.28,2.1,.83,3.13,1.27,.47,.2,.89,.48,1.31,.76,.32,.21,.97-.15,.99,.58,2.21-.11,3.48,1.48,5.19,2.28,1.72,.74,3.32,1.71,4.97,2.58,.41,.22,1.09,.02,1.02,1.11-.01,.21,.3,.35,.47,.21,.48-.37,.79-.53,.75,.26,0,.15,.29,.11,.48,.04,.52-.2,.8-.02,1.01,.49,.16,.39,.46,.73,.83,.66,.98-.17,1.86-.28,2.17,1,.04,.16,.57-.35,.72-.25,.59,.4,1.45,.18,1.77,1.2,.13,.41,.61,.36,.91,.57,.5,.37,1.25,.07,1.73,.61,.48,.54,1.23,.57,1.87,.83l1.92,.71,1.92,.71,1.93,.66,1.94,.65,1.95,.6c.45,.15,.84,.38,1.19,.9,.88,1.35,2.39,1.58,4.35,1.28,.14-.02,.26,.06,.4,.1,1.72,.41,3.49,.65,5.16,1.28,.73,.27,1.41,.87,2.2,.95,.52,.05,.99,.31,1.61-.23,.51-.45,.96,.54,1.6-.31,.24-.31,.71-.22,.9,.1,.65,1.06,1.57,.7,2.37,.87,.93,.21,1.88,.31,2.83,.36,.47,.01,.9,.37,1.45-.36,.27-.36,.8-.05,1.11,.31,.48,.55,1.02,.5,1.53,.33,1.1-.4,1.08-.49,2.1,.14,.12,.08,.26,.09,.39,.09,1.3,.09,2.64,.48,3.92,0,1.06-.39,2.09-.4,3.13-.46,.42-.02,.88-.48,1.26,.51,.05,.14,.29,.12,.39,0,.83-1.1,1.79-.58,2.69-.67,.88-.08,1.6-1.02,2.51-.86,.85,.11,1.68-.15,2.52-.24,1.27-.13,1.63,.43,1.99,3.14,.3,2.24,.02,2.76-1.01,3.35-1.1,.62-2.27,.85-3.38,.9-1.12,.05-2.19,.01-3.13,.22Z"/>
        </g>
        <g>
          <path class="cls-8" d="M194.08,179.06c-22.71,2.65-45.89-1.61-67.16-10s-40.76-20.79-58.96-34.62c16.6,.17,33.22-1.45,49.47-4.83,15.12-3.14,30.97-7.78,45.66-3,17.66,5.74,28.64,23.88,32.65,42,.75,3.36,1.26,7.07-.37,10.1-1.63,3.03-6.29,4.54-8.59,1.98"/>
          <path class="cls-8" d="M186.47,180.14c-1.14,.09-2.18,.07-3.17,.11-.99,.02-1.92,.07-2.85,.06-.29,0-.62,.13-.98,.12-1.46-.02-2.97,.09-4.36-.15-.76-.12-1.53-.19-2.28-.24-.76-.06-1.5-.11-2.24-.11-1.4,0-2.76-.15-4.13-.28-.46-.04-.92-.06-1.4-.27-.35-.15-1.02-.23-1.53-.12-.1,.02-.3-.04-.45-.08-.16-.04-.34-.15-.46-.14-1.38,.1-2.74-.3-4.1-.48-.34-.04-.69-.19-1.01-.05-.08,.04-.41-.01-.5-.07-.24-.16-.5-.23-.82-.29-1.39-.24-2.77-.55-4.16-.83-.73,.12-1.47-.19-2.19-.35-.54-.13-1.06-.34-1.59-.51-.53-.17-1.16-.15-1.62-.51-.07-.06-.3-.05-.45-.08-.68-.16-1.41-.27-2.03-.52-.32-.13-.63-.25-.96-.34-4.2-1.19-8.36-2.54-12.48-4.02-.36-.13-.68-.29-1.11-.3-.33,0-.98-.24-1.22-.46-.39-.35-.85-.44-1.28-.62-.8-.33-1.61-.64-2.4-.98-.47-.21-1.05-.3-1.36-.71-.03-.04-.18-.1-.24-.1-.62,.01-1.05-.41-1.56-.66-.37-.19-.75-.35-1.21-.42-.45-.07-1.13-.34-1.45-.62-.42-.38-.9-.54-1.36-.76-2.72-1.26-5.42-2.57-8.09-3.93-1.27-.64-2.61-1.08-3.83-1.85-.29-.18-.66-.27-.85-.58-.04-.06-.29-.17-.41-.19-.42-.05-.74-.28-1.12-.51-1.72-1.02-3.45-2.08-5.21-2.96-1.38-.67-2.64-1.48-3.94-2.24-.44-.25-.81-.62-1.23-.91-.41-.28-.84-.54-1.27-.8-.25-.15-.48-.36-.8-.39-.17-.02-.55-.23-.66-.38-.38-.49-.95-.75-1.46-1.08-1.43-.96-2.9-1.88-4.32-2.86-.35-.24-.8-.42-.99-.81-.03-.05-.27-.13-.41-.2-.15-.07-.35-.14-.44-.23-.77-.85-1.82-1.4-2.75-2.06-2.26-1.6-4.54-3.18-6.74-4.86-.31-.23-.63-.41-.94-.59l-.47-.27c-.15-.09-.31-.19-.52-.35l-2.27-1.71c-.49-.38-1.35-.91-1.24-1.1,.02-.02-.06-.1-.18-.19-.07-.05-.15-.1-.21-.14-.06-.03-.03-.03-.01-.04,.01,0,.02-.01,.02-.02,.1-.22,1.26-.1,1.95-.13,.45-.02,.98,0,1.46,0,.49,0,.94-.02,1.41-.15,.12-.03,.36-.02,.53,0,.16,.02,.33,.05,.47,.06,.52,.01,1.03,.02,1.55,0,.25-.01,.49-.1,.73-.11l5.72-.34,5.83-.35,5.82-.48c.73-.06,1.5-.32,2.2-.09,.65-.25,1.25-.2,1.85-.07,.09,.02,.29-.09,.44-.13,.48-.14,.91-.49,1.49-.23,.02,0,.09-.01,.13-.01,.46,0,.72-.38,1.32-.26,.37,.08,.94-.05,1.42-.1,.49-.05,.99-.11,1.48-.21,.5-.1,1.07-.03,1.51-.34,.07-.05,.47,.07,.69,.02,1.11-.24,2.31-.19,3.36-.67,.24-.11,.64-.17,.92-.16,1,.04,1.9-.22,2.87-.49,1.29-.34,2.67-.65,4.01-.61,.28,.01,.42,.04,.67-.13,.17-.11,.48-.15,.74-.21l8.51-1.84c.77-.17,1.55-.08,2.32-.34,.32-.11,.73-.06,.96-.32,.03-.04,.17-.08,.23-.08,1,.04,1.89-.49,2.86-.57,.21,0,.41-.02,.62-.02,.21-.01,.46,0,.63-.07,1.42-.55,2.97-.6,4.46-.88,.51-.1,1.08-.04,1.51-.35,.06-.05,.29-.07,.39-.06,.91,.19,1.85-.13,2.77-.16,.47-.01,.99-.2,1.43,.01,.06,.03,.24-.01,.36-.04,.2-.04,.39-.14,.59-.15,.54-.03,1.14,.08,1.62-.01,.59-.11,1.15-.09,1.72-.11,.33-.02,.65,.11,.99,.14,.31,.03,.64,.02,.96,.03,.46,.01,.94-.03,1.37,.05,.44,.09,.82-.13,1.3,.08,.37,.16,.82-.04,1.25-.03,.21,0,.44,.06,.64,.12,.16,.04,.3,.15,.45,.16,.34,.03,.66,.12,1.04,.07,.26-.03,.69,.15,1.05,.24,.35,.09,.72,.15,1.08,.23,.36,.08,.74,.2,1.07,.22,.75,0,1.46,.23,2.18,.42,.72,.2,1.42,.44,2.12,.71,.36,.13,.81,.2,1.04,.52,.04,.06,.24,.14,.36,.15,.36,.06,.71,.13,1.05,.26,.33,.14,.66,.29,.98,.46,.65,.33,1.28,.68,1.95,.95,.92,.45,1.83,.88,2.72,1.44,.86,.54,1.64,1.25,2.51,1.72,.72,.38,1.37,.84,1.94,1.4,.55,.54,1.42,.68,1.73,1.47,.56,.55,1.13,1.09,1.68,1.65,.47,.46,1,.9,1.26,1.53,.1,.23,.4,.56,.62,.71,.72,.47,1.21,1.1,1.61,1.85,.1,.17,.34,.3,.48,.48,.43,.54,.88,1.07,1.26,1.65,.54,.87,1.14,1.69,1.76,2.5,.59,.83,1.15,1.68,1.68,2.55,.19,.33,.57,.59,.67,.91,.35,.97,.83,1.87,1.32,2.77,.46,.91,.91,1.83,1.26,2.78,.51,1.39,1,2.78,1.56,4.15,.47,1.4,1.04,2.76,1.42,4.19,.1,.37,.04,.81,.14,.97,.32,.49,.37,1.15,.62,1.57,.42,.77,.47,1.62,.73,2.42,.19,.58,.2,1.25,.55,1.76,.05,.07,.09,.28,.08,.4-.06,.93,.43,1.78,.41,2.73,.44,1.74,.21,3.69-.35,5.54l-.21,.84c-.04,.14-.09,.31-.16,.42-1.07,1.56-2.41,3.03-4.17,3.67-.57,.22-1.19,.29-1.79,.37-.62,.04-1.29,.16-1.86-.13-.18-.07-.54-.12-.81-.19-.37-.06-.69-.25-.96-.4-.26-.19-.46-.4-.59-.6-.24-.44-.22-.79,0-1.01,.17-.16,.35,0,.59,.1,.47,.18,.88,.31,1.39,.48,.38,.15,.87,.26,1.24,.04,.06-.03,.25-.03,.35-.02,.75,.15,1.53-.26,2.21-.46,.53-.16,.96-.47,1.38-.79,.37-.27,.58-.68,1.01-.92,.15-.09,.25-.55,.37-.84,.32-.67,.55-1.39,.73-2.11,.53-2.25-.08-4.52-.46-6.77-.63-1.55-.78-3.28-1.37-4.83-.37-.93-.65-1.88-.96-2.83-.33-.94-.65-1.88-1.01-2.8-.14-.38-.27-.68-.33-1.04-.04-.24-.09-.49-.18-.71-.35-.88-.69-1.76-1.08-2.62-.2-.46-.57-.92-.51-1.44,0-.07-.09-.28-.16-.36-.57-.65-.87-1.5-1.3-2.25-.17-.29-.3-.57-.39-.94-.08-.4-.39-.93-.69-1.22-.22-.23-.36-.46-.53-.7-.35-.5-.63-1.06-.93-1.59-.33-.52-.69-1.02-1.16-1.42-.13-.67-.61-1.28-1.06-1.74-.86-.87-1.58-1.86-2.37-2.77-.82-.9-1.54-1.89-2.44-2.7-.43-.4-.76-.9-1.17-1.33-.42-.47-.91-.87-1.4-1.26-.26-.21-.5-.53-.83-.54-.02,0-.08-.03-.1-.06-.25-.26-.48-.55-.75-.76-.25-.18-.58-.23-.86-.39-.33-.18-.66-.41-.98-.63-.31-.22-.66-.41-.8-.74-.36,0-.68-.29-1-.47-.31-.17-.61-.36-.92-.54l-1.03-.62c-.34-.21-.71-.38-1.07-.54-.5-.21-1.02-.37-1.52-.58-.52-.25-1.06-.45-1.58-.67-.66-.28-1.3-.6-1.96-.89-.27-.13-.54-.13-.84-.13-.4,0-.93,.09-1.33-.34-.08-.09-.42-.17-.62-.18-1.57-.02-3.05-.63-4.61-.72-.81-.37-1.67-.29-2.56-.29-1.31-.04-2.69,.01-3.98-.17-1.36-.11-2.7-.03-4.05,.03-.38,.01-.78,.13-1.12-.06-.08-.04-.36,0-.52,.03-1.07,.34-2.14,.38-3.27,.38-.6,0-1.25,.19-1.88,.36-.96,.25-2.03,.36-3.05,.52-.49-.19-.78,.14-.99,.3-.27,.21-.55,.28-.91,.35-.46,.09-.92,.13-1.35,.38-.22,.13-.74,.22-1.01,.18-.36-.05-.48,.03-.77,.17-.34,.17-.77,0-1.22,.11-.48,.12-1.03,.37-1.52,.19-.04-.02-.19,.02-.26,.05-.84,.46-1.83,.27-2.71,.58-2.76,.28-5.44,1.15-8.19,1.58-1.13,.19-2.31,.21-3.4,.53-2.29,.7-4.67,.91-7.02,1.32-.49,.09-1.05,.29-1.54,.1-.07-.03-.3,0-.39,.06-.71,.35-1.45,.39-2.22,.32-.19-.02-.53,.03-.63,.11-.29,.22-.66,.2-1,.24-.41,.05-.96-.04-1.19,.08-.49,.26-.81,.07-1.2,.08-.24,0-.51,.09-.76,.15-.12,.03-.26,.13-.33,.11-.82-.13-1.57,.27-2.36,.26-.17,0-.35,.02-.52,.01-1.89-.11-1.89-.12-4.23,.24-.67-.27-1.39,.26-2.11,.07-.26-.07-.75,0-1.07,.07-1.38,.37-2.84,.25-4.25,.4-.29,.03-.53-.17-.9,.02-.14,.07-.63-.09-.95-.07-.47,.03-.96-.07-1.42,.16-.19,.09-.61,.04-.92,.07-.43,.04-.85-.03-1.28,.16-.23,.1-.78,.12-1.05,.04-1.11-.32-2.13,0-3.15,.14-.09,.04-.11,.07-.22,.02-.14-.07-.51-.17-.47-.07,.12,.18-.1,.11-.23,.12h-.07s.07,.06,.07,.06l.13,.1c.09,.07,.18,.14,.29,.21,.13,.08,.2,.15,.32,.24,.48,.35,.97,.68,1.51,.97,.58,.31,1.31,.74,1.71,1.39,.04,.07,.37,.11,.52,.22l3.64,2.6c.28,.2,.43,.65,.82,.64,.41,0,.44,.59,.84,.51,.06-.01,.31,.17,.43,.29,1.26,1.26,2.9,2.05,4.31,3.11,.34,.25,.81,.42,.96,.8,1.05,.36,1.75,1.49,2.86,1.69,.61,.47,1.43,.72,1.91,1.37,.08,.1,.34,.19,.43,.3,.32,.37,.8,.16,1.17,.65,.21,.28,.78,.54,1.19,.8l1.16,.71,1.27,.77c.43,.25,.85,.52,1.29,.75,.89,.47,1.82,.82,2.67,1.39,.09,.06,.27,.12,.33,.11,.49-.16,.83,.28,1.07,.54,.21,.22,.4,.38,.68,.54l2.25,1.25c.44,.25,.97,.4,1.29,.84,.1,.14,.46,.32,.69,.38,1.06,.3,1.99,.92,2.97,1.39,.45,.21,.89,.45,1.32,.68,.33,.18,.75,.19,1.01,.5,1.78,.53,3.38,1.54,5.09,2.28l5.06,2.25c.42,.19,.94,.28,1.23,.67,.05,.07,.36,.2,.47,.19,.3-.02,.52-.01,.73,.27,.04,.05,.29,.11,.43,.13,.39,.05,.69,.19,1.03,.42,.26,.18,.62,.38,.92,.44,.8,.15,1.55,.31,2.21,.84,.08,.06,.4,0,.56,.08,.63,.28,1.34,.4,1.92,.81,.24,.17,.65,.25,.97,.39,.56,.24,1.14,.3,1.72,.58,.58,.3,1.27,.44,1.91,.65l1.93,.62c.64,.22,1.29,.4,1.94,.59l1.95,.57c.65,.2,1.3,.37,1.95,.54l1.96,.52c.46,.12,.87,.27,1.31,.47,1.12,.52,2.57,.84,4.38,1.03,.13,.01,.26,.05,.4,.08,1.72,.34,3.45,.68,5.17,1.02,.75,.16,1.49,.41,2.27,.52,.51,.06,1,.17,1.53,.08,.44-.07,1,.24,1.53,.08,.19-.06,.67,.01,.9,.12,.77,.34,1.62,.3,2.43,.41,.94,.12,1.88,.25,2.82,.29,.46,.03,.92,.14,1.41-.01,.24-.08,.79,.03,1.13,.14,.52,.17,1.04,.19,1.54,.15,1.07-.07,1.06-.09,2.1,.1,.12,.02,.26,.03,.39,.04,1.3,.08,2.64,.15,3.91,.05,1.06-.08,2.09-.1,3.13-.14,.42-.01,.89-.14,1.25,.11,.05,.03,.29,.03,.39,0,.86-.28,1.81-.2,2.72-.26,.88-.06,1.67-.32,2.57-.33,.84-.03,1.7-.16,2.54-.24,1.29-.12,1.58,0,1.66,.68,.06,.56-.25,.71-1.29,.93-1.1,.23-2.21,.37-3.28,.44-1.07,.06-2.08,.09-2.99,.18Z"/>
        </g>
        <g class="cls-13">
          <g class="cls-13">
            <path class="cls-5" d="M148.7,187.42c-6.4-1.1-12.57-4-17.87-5.41-.6-.16-1.2-.32-1.8-.5l.84,.44c6.39,3.18,13.89,5.86,21.26,6.74,4.57,.47,9.24,.25,14.26-.05,.56-.02,.61-.34,.63-.49-.51-.18-.95-.37-1.34-.57-4,.48-8.07,.5-12.21-.02-1.36-.23-2.95,.09-3.76-.12Z"/>
            <polygon class="cls-7" points="164.84 187.59 164.76 187.55 164.15 187.61 164.84 187.59"/>
            <path class="cls-4" d="M154.93,187.88c-1.36,.02-2.68-.23-4-.42-.43,.02-.88,.03-1.26,.05-.38,0-.72-.03-.98-.09-6.4-1.1-12.57-4-17.87-5.41-.59-.16-1.19-.32-1.78-.5,.3,.15,.6,.32,.9,.47,1.13,.53,2.27,1.07,3.41,1.61,1.17,.51,2.37,.98,3.57,1.46,.14,.03,.28,.07,.41,.1,1.45,.25,2.65,.89,3.98,1.34,.97,.22,1.9,.44,2.81,.68,.45,.12,.9,.23,1.34,.35l1.34,.29c.9,.19,1.79,.38,2.71,.57,.93,.13,1.88,.26,2.87,.36,1.41,.2,2.95-.11,4.62,.08,.57,.05,1.12,.09,1.66,.12,1.11-.05,2.22-.08,3.35-.1,1.13-.09,2.28-.16,3.45-.2,.56-.02,.61-.34,.63-.49-.27-.09-.51-.19-.74-.29-.94,.02-1.88,.05-2.82,.09-.94,.06-1.89-.02-2.85-.04-1.67,.09-3.34-.01-5.03-.11,.07,.03,.15,.07,.26,.1Z"/>
            <path class="cls-7" d="M154.81,187.39c-.23-.02-.55,.18-.14,.39,1.69,.1,3.36,.21,5.03,.11-1.61,0-3.24-.22-4.89-.5Z"/>
            <path class="cls-9" d="M155.17,186.32c-.4-.05-.8-.09-1.19-.13-.39-.06-.78-.11-1.17-.16-.78-.09-1.54-.18-2.29-.27-1.49-.2-2.9-.5-4.17-.89-1.33-.45-2.58-1.04-3.65-1.63-.43-.1-.85-.24-1.27-.37-10.5-2.9-20.39-7.89-29.52-13.75-4.62-2.88-9.18-5.16-14.06-7.9-2.83-1.74-4.85-3.52-7.41-5.53-6.33-5.07-12.8-8.02-19.7-12.62-1.85-1.24-2.85-.41-2.41-.08,11.45,7.93,21.91,15.86,33.82,23.02,9.22,5.55,17.85,10.89,26.88,15.5,.6,.18,1.2,.34,1.8,.5,5.3,1.41,11.47,4.3,17.87,5.41,.81,.22,2.41-.11,3.76,.12,4.14,.52,8.21,.5,12.21,.02-.83-.42-1.5-.86-2.32-1.16-2.41,.2-4.85,.31-7.18-.09Z"/>
            <path class="cls-6" d="M155.17,186.32c2.33,.39,4.77,.29,7.18,.09-.4-.13-.84-.3-1.36-.39-5.81-.69-12.35-1.19-18.31-2.78,1.07,.59,2.33,1.18,3.65,1.63,1.27,.39,2.68,.7,4.17,.89,.75,.09,1.52,.18,2.29,.27,.39,.05,.78,.11,1.17,.16,.4,.04,.79,.08,1.19,.13Z"/>
            <path class="cls-4" d="M155.17,186.32c1.11,.14,2.25,.3,3.39,.27,1.15-.02,2.3-.07,3.45-.15-.78-.07-1.56-.14-2.35-.17-4.01-.17-8.09-.57-11.91-1.74,2.09,.49,4.21,.78,6.33,1.08l3.2,.26c1.07,.1,2.14,.04,3.21,.07-5.68-.64-12.02-1.16-17.79-2.7,1.07,.59,2.32,1.18,3.64,1.63,1.27,.39,2.68,.7,4.17,.89,.75,.09,1.52,.18,2.29,.27,.39,.05,.78,.11,1.17,.16,.4,.04,.79,.08,1.19,.13Z"/>
            <path class="cls-3" d="M148.65,185.54c4.74,1.1,9.68,1.66,14.64,1.23-.21-.11-.43-.21-.66-.3-.21,0-.41-.02-.61-.03-1.15,.08-2.31,.12-3.45,.15-1.15,.03-2.28-.13-3.39-.27-.4-.05-.8-.09-1.19-.13-.39-.06-.78-.11-1.17-.16-.78-.09-1.54-.18-2.29-.27-1.49-.2-2.9-.5-4.17-.89-1.32-.45-2.58-1.04-3.64-1.63-.41-.09-.79-.23-1.19-.34-5.36-1.47-10.57-3.5-15.59-5.9-4.54-1.74-9.16-4.38-13.41-7.22,2.07,1.22,4.16,2.41,6.3,3.51-2.32-1.31-4.59-2.69-6.83-4.12-1.96-1.22-3.9-2.33-5.87-3.42-.55,0-1.29-.17-2.39-.78-1.71-.94-3.3-2.01-5.13-2.86-.23-.15-.05-.32-.51-.63,1.27,.86,2.41,1.41,3.46,1.79-1.19-.66-2.4-1.32-3.63-2-2.23-1.37-3.95-2.76-5.83-4.27l-.66-.41c-1.09-.69-2.24-1.32-3.41-1.94,.43,.31,.87,.62,1.33,.95-.79-.37-1.68-1-2.35-1.48,.34,.18,.68,.36,1.02,.54-1.03-.74-2.02-1.46-3.12-2.25,1.33,.96,2.79,1.81,4.02,2.5-2.51-1.69-4.85-3.19-7.15-5.08l.21,.1c-3.62-2.19-7.33-4.23-11.16-6.79-1.86-1.24-2.85-.42-2.41-.08,8,5.54,15.5,11.06,23.37,16.34l-2.39-2.22c-.37-.3-.71-.6-1.01-.92l1.01,.92c.99,.81,2.18,1.58,3.25,2.46,.17,.21,.84,.68,1.25,.67,1.46,1.2,3.45,2.28,4.93,3.46,.09,.06,.21,.22,.35,.41,1.02,.62,2.04,1.25,3.07,1.88,5.77,3.47,11.29,6.87,16.85,10.03-1.28-.86-2.49-1.74-3.58-2.58-1.43-1.21-4.99-2.92-7.88-4.59-.75-.39-1.04-.86-1.73-1.31,2.81,.99,5.77,3.33,8.7,4.9,3.86,2.14,9.08,5.57,13.66,7.11,1.87,.65,3.49,1.59,4.87,2.44-.6-.08-1.61-.52-2.12-.74-4.53-2.01-8.92-4.29-13.32-6.63,4.38,2.77,8.93,4.87,13.54,7.24-2.84-1.15-5.36-2.74-8.06-3.7,.19,.16,.38,.31,.58,.47,1.75,.98,3.53,1.9,5.31,2.82,.59,.18,1.19,.34,1.78,.5,5.3,1.41,11.47,4.3,17.87,5.41,.26,.06,.6,.08,.98,.09,.38-.01,.83-.03,1.26-.05-1.03-.14-2.03-.39-3.04-.63-1-.25-2.02-.44-3.02-.72,.78,.3,1.54,.56,2.23,.87-.48-.09-.94-.2-1.38-.31-.44-.13-.86-.29-1.27-.44-.84-.3-1.67-.59-2.62-.82,1.04,.2,2.05,.44,3.05,.7-1.17-.44-2.45-.77-3.68-1.24,2.5,.44,4.6,1.69,7.22,1.77-.53-.11-1.06-.23-1.58-.36l1.61,.36h-.03c1.62,.37,3.29,.38,4.78,.47-1.41-.22-2.74-.44-4.04-.79-1.3-.37-2.6-.66-3.94-1l-1.34-.31c.46,.09,.9,.2,1.34,.31,6.19,1.42,12.53,2.46,18.93,2.3l.61-.06c-.18-.1-.37-.19-.54-.28-5.27,.2-10.61-.45-15.56-1.72Z"/>
          </g>
        </g>
      </g>
      <g>
        <g class="cls-12">
          <path class="cls-11" d="M26.91,83.61c10.39-23.02,34.03-37.21,56.5-33.92,1.42,.21,2.86,.49,4.16,1.2,1.39,.76,2.55,1.97,3.68,3.17,6.53,6.89,13.06,13.78,19.58,20.66,.83,.88,1.74,2.12,1.3,3.31-.2,.54-.64,.91-1.06,1.24-8.22,6.45-18.16,9.99-28.13,10-5.83,0-11.61-1.15-17.35-2.31-12.85-2.59-25.7-5.18-38.55-7.77"/>
          <path class="cls-11" d="M27.53,78.27c.78-1.31,1.48-2.34,2-3.48,.08-.18-.25-.65-.1-.85,.59-.78,.78-1.89,1.81-2.31,.56-.23,1-.54,1.33-.92,.34-.37,.6-.8,.75-1.31,.28-.97,.96-1.6,1.46-2.39,.17-.27,.27-.58,.96-.42,.49,.11,.83-.17,.5-.94-.06-.15,.15-.14,.27-.17,.13-.03,.46,.1,.44-.03-.22-1.46,1.07-1.54,1.52-2.39,.12-.21,.54-.12,.16-.82-.1-.18,.05-.36,.22-.27,.46,.23,.66,.19,.82,.03,.69-.66,1.41-1.28,2.12-1.91-.29-1.08,.43-1.05,.83-1.35,.3-.23,.82-.18,1.23-.25,.42-.07,.36-.83,1.17-.34,.13,.08,.09-.22,.16-.3,.32-.35,.54-.9,1.11-.86,.29,.02,.57,.03,.76-.09,2.43-1.63,4.98-3.07,7.6-4.35,.23-.11,.5-.1,.5-.74,0-.5,.43-.72,.8-.38,.6,.54,.76,.14,1.06,.05,.55-.18,1.05-.49,1.63-.6,.34-.07,.53-.68,1.16,.18,.06,.08,.16,.04,.16-.06,.03-1.05,.65-.41,1.05-.41,.29,0,.54-.11,.68-.67,.13-.56,.6-.74,1-.33,.54,.55,.8,.26,1.13,.18,.97-.21,1.93-.5,2.91-.68,.98-.17,1.96-.36,2.94-.56,.91-.23,1.75-1.15,2.76-.89,.23,.06,.46-.34,.72,.35,.05,.14,.23,.04,.29-.14,.22-.65,.5-.44,.79-.43,1.36,.03,2.71,.49,4.04-.13,1.05-.5,2.06-.14,3.1-.2,.35-.02,.64,.5,.97,.63,.32,.13,.66,.12,1.01,.11,.2,0,.37,.21,.66-.31,.15-.29,.47-.32,.55-.06,.26,.9,.75,.66,1.19,.78,1.21,.33,2.59,.81,3.67,1.65,.25,.19,.81,.1,.47,.95-.05,.11,.26,.01,.41,.02,.15,.01,.43-.08,.41,.07-.18,1.37,.8,1.45,1.3,2.03,1.16,1.38,2.52,2.57,3.64,3.98,.31,.39,1.16,.2,1.46,.58,.29,.37,.68,.66,.95,1.04,.2,.27,.73,.25,.3,1.09-.12,.23,.05,.4,.29,.31,.89-.33,.85,.27,1.21,.47,.45,.23,.38,.98,1.38,.68,.27-.08,.08,.44,.18,.6,.18,.29,.39,.56,.65,.77,.13,.1,.47,0,.61,.09,1.02,.75,2.06,1.47,2.99,2.3,.94,.85,1.76,1.82,2.63,2.74,.87,.92,1.8,1.79,2.59,2.79,.37,.45,1.58,.71,.96,1.82,1.08,.07,1.09,.78,.58,1.45-.07,.1,.38,.11,.57,.18,.57,.19,2.07,.3,.92,.99-.04,.02,.05,.06,.05,.1-.02,.34,1.49,.43,.81,.98-.42,.32-.07,.76-.09,1.18,0,.42-.09,.84-.08,1.26,.02,.47-.81,.69-.03,1.3,.13,.11-.74,.15-.81,.29-.14,.41-.76,.66-1.15,.97-.42,.31-.71,.65-.58,1.36,.02,.31-.34,.54-.74,.53-.71-.02-1.12,.15-1.46,.44-.31,.29-.64,.73-.81,1.02-.54,.85-1.32,1.52-2.72,.87-.3-.14-.47-.28-.42,.21,.03,.32-.19,.37-.35,.45-1.73,.96-3.54,1.79-5.38,2.54-.51,.2-1.31-.53-1.7,0-.16,.22-.57-.16-.49,.67,.01,.11-.06,.2-.12,.16-.92-.68-1.13,.8-1.89,.61-.16-.04-.34-.18-.5-.23-.16-.06-.39-.24-.47-.07-.68,1.38-1.92,.8-2.86,1.28-.33,.17-.8-.27-.93,.76-.02,.15-.18,.17-.27,.06-.8-1.07-1.3-.08-1.96-.29-.33-.11-.62,.56-1.02-.37-.05-.12-.17,0-.24,.07-.12,.13-.22,.47-.36,.47-.38,0-.82-.51-1.12-.17-.37,.42-.77,.28-1.15,.34-.22,.03-.46-.41-.69-.51-.21-.09-.43-.01-.65,0-.31,0-.63,.19-.92-.03-.3-.23-.55,.79-.88,.09-.24-.53-.56,.39-.85,.49-.15,.05-.29-.07-.43-.18-.11-.09-.19-.42-.3-.4-.23,.04-.44-.15-.71,.27-.19,.29-.45-.28-.69-.37-.24-.09-.48-.05-.73-.07-.24-.02-.48-.24-.73-.04-1.07,.92-2,.18-2.98,.17-.25,0-.59,.3-.68-.58-.02-.16-.15-.19-.24-.11-1.1,1.06-1.9-.06-2.87,.12-.7,.12-1.43,.46-2.07,.23-.63-.23-1.24-.59-1.94-.3-.57,.24-1.14,.45-1.59,.13-.44-.31-1.25,1.29-1.43-.23-.49-.1-.99-.15-1.47-.31-.4-.14-.9,.15-1.13-.77-.08-.33-.37-.37-.59-.13-.69,.78-1.14,.43-1.57-.12-.1-.13-.34,.26-.49,.25-.44-.04-.89-.06-1.3-.26-1.21-.62-2.67,.1-3.96-.15-.24-.05-.63,.58-.81,.36-1.05-1.34-2.58-.48-3.71-1.37-1.67-1.31-3.66-1.01-5.47-1.6-.24-.08-.34-.84-.5-.66-.48,.57-.78-.06-1.17,.36-.71,.76-1.12,.07-1.69,.18-.41,.08-.71-.58-1.26,.33-.08,.13-.21,.08-.25-.05-.38-1.03-1.21,.22-1.68-.32-1.28,.91-2.22-.08-3.34-.05-.17,0-.37,.22-.55,.32-.09,.05-.22,.18-.27,.09-.74-1.37-1.93-.66-2.85-1.17-.3-.17-.56-.56-.86-.74-.3-.19-.7,.04-.86-.76-.05-.25-.26-.17-.42-.11-.85,.33-1.1-1.34-.61-3.83,.18-.9,.34-.93,.57-1.23,.45-.58,.84-.94,1.21-.79,.29,.11,.56,.46,.99-.35,.07-.14,.2-.08,.25,.05,.35,.88,1.05,.38,1.43,1,.29,.48,.65,.44,.97,.68,.27,.2,.67-.19,.81,.65,.05,.29,.48-.34,.69-.33,.51,.02,1.01,.07,1.47,.29,1.41,.66,3.14-.33,4.56,.29,1.28-.9,2.18,.34,3.35,0,1.41-.41,2.62,.21,3.95,.17,.27,0,.48,.06,.65,.39,.11,.22,.23,.45,.39,.49,.6,.17,1.22,.19,1.81,.41,.31,.12,.79-.38,.87,.73,.01,.15,.16,.17,.25,.05,.74-.94,1.19-.18,1.77-.2,.22,0,.42,.07,.57,.5,.17,.46,.57,.49,.91,.17,.25-.25,.43-.22,.64-.27,.85-.19,1.45,1.04,2.47-.08,.18,1.19,.75,.93,1.21,.74,1.77-.71,3.19,.36,4.79,.48,.39,.03,.67,.58,1.04,.75,.38,.18,.8,.22,1.21,.25,.22,.02,.4,.43,.73-.34,.02-.06,.07-.09,.09-.07,.2,.18,.38,.53,.61,.52,.21-.01,.51-.52,.74-.63,.28-.13,.54-.09,.79-.06,.24,.03,.54-.1,.59,.66,.36-.86,.55-.36,.8-.38,.24-.02,.46,.07,.68,.11l.77,.14c.25,.05,.5,.16,.77,.12,.37-.06,.76-.33,1.12-.37,.38-.04,.74,.02,1.09,.17,.43,.19,.84,.53,1.27,.75,.18,.09,.37-.11,.59-.41,.3-.39,.71-1.29,.87-.03,.03,.25,.26,.21,.4,.06,1.08-1.18,1.94-.02,2.91-.33,.47,.98,1.01,.41,1.55,.16,.79-.37,1.58-.55,2.36,0,.84,.53,1.62,.17,2.43,.29,.23,.04,.43-.34,.73,.48,.07,.19,.24,.11,.31-.02,.54-.98,1.18-.82,1.95-.37,.41,.23,.74-.21,1.05-.6,.47-.58,1.16-.4,1.77-.54,.53,.96,.46-.14,.47-.61,.01-.63,.14-.78,.34-.86,.25-.09,.57,.01,.62-.71,.03-.38,.33-.39,.59-.09,.34,.4,.34,.17,.41-.2,.07-.43,.6,.43,.84,.29,.25-.15,.38-.76,1.01,.17,.06,.08,.14,.04,.14-.05,.09-1.22,1.19,.06,1.5-.6,2.01,.5,3.06-1.2,4.67-1.64,.68-.17,1.7,.15,2.01-.64,.06-.19,.21-.41,.24-.52,.05-.12,.04-.19,.08-.26,.05-.13,.14-.21,.25-.27,.22-.11,.56-.21,.66-.41,.06-.1-.47-.31,.9-.04,.19,.04,.22-.02,.07-.08-1.13-.45-.73-.41,.11-.58,.2-.04,.15-.14-.19-.17-.96-.07-.61-.12-.62-.2,0-.06,.68-.29,.21-.27-.98,.09,0-.16,.07-.3,.05-.08-.22-.06-.38-.06-.08,0-.43,.1-.36,.06,.39-.24,.21-.29,0-.27-.22,.01-.47,.09-.37-.07,.04-.07,0-.09,.06-.18,.38-.47,.24-1.04,.09-1.31-.18-.3-.55-.47-1.3-.82,.66-1.2-1.07-.24-.66-1.25,.15-.37-.13-.54-.46-.52-1.45,.12-1.45-1.17-2.31-1.61-.18-.09,.35-.79-.33-.49-.26,.12,.09-.64-.08-.77-.24-.19-.12-.75-.94-.38-.34,.15-.32-.24-.51-.33-.26-.13-.22-.56-.92-.28-.38,.15-.63-.1-.51-.45,.52-1.48-.85-1.09-1.66-1.24-.24-.04-.44-.05-.43-.35,.01-.42,.03-.97-.43-.85-.81,.21-.86-.28-1.16-.53-.52-.44-.89-1.03-1.43-1.45-.62-.48-.88-1.28-1.93-1.38-.56-.05-1.19-.21-.67-1.33,.06-.12-.53,.18-.62,.1-.7-.67-1.39-1.36-2-2.13-.14-.18,.51-1.14-.29-.66-.85,.51,.38-.96-.58-.28-.14,.1-.25-.04-.23-.18,.1-.77-.19-1.14-.51-1.36-.33-.22-.66-.26-.78-.51-.07-.13-.36,.25-.04-.68-.37,.43-.41,.1-.57-.16-.14-.26-.39-.45-.81,.35-.29-.36-.85,.47-1.1-.74-.04-.2-.24,.06-.29-.11-.2-.6-.6,1.14-.82,.2-.13-.54-.53-.27-.81-.33-.26-.05-.53-.06-.8-.09l-.88-.09c-.29-.04-.59-.1-.88-.02-.61,.17-1.19,.88-1.78,.59-.06-.03-.17,.1-.2,.28-.18,1.51-.48,.66-.69,.22-.18-.37-.33-.54-.52-.54-.5,.05-1,.16-1.51,.11-.31-.03-.57,.48-.95-.44-.12-.29-.36-.2-.47,.03-.26,.52-.57,.65-.89,.67-.32,.04-.66,0-.96,.13-.28,.12-.57,.14-.87,.16-.23,.02-.32,.69-.66,.12-.42,.7-.93,.86-1.46,.97-.53,.11-1.1,.1-1.61,.3-.51,.21-1.02,.36-1.55,.49-.53,.12-1.04,.32-1.56,.46-.26,.08-.38,.63-.95-.23-.11-.16-.29-.08-.28,.12,.04,.56,.03,.87-.4,.25-.08-.12-.17,.08-.19,.24-.07,.45-.27,.47-.62,.21-.27-.2-.57-.25-.65,.02-.22,.72-.42,1.35-1.29,.58-.11-.09,.02,.59-.09,.6-.43,.05-.57,.71-1.3,.15-.3-.23-.42,.09-.64,.12-.39,.03-.43,.69-.91,.6-.49-.1-.74,.33-1.1,.52l-1.07,.58c-.36,.19-.68,.44-1.03,.65l-1.02,.67-1.02,.67c-.35,.21-.67,.45-1,.7-.23,.17-.51,.23-.97,.09-1.2-.36-1.86,.31-2.22,1.61-.02,.1-.12,.12-.18,.17-.8,.72-1.47,1.57-2.45,2.08-.44,.21-1.09,.22-1.37,.63-.18,.26-.51,.38-.27,1.05,.2,.55-.71,.19-.24,1.05,.17,.32-.04,.51-.35,.43-1.02-.28-1.04,.4-1.4,.75-.43,.39-.79,.85-1.1,1.33-.15,.24-.58,.26-.16,.97,.21,.35-.21,.44-.6,.4-.61-.07-.73,.25-.73,.63,0,.8,.07,.84-.77,1.03-.1,.02-.15,.09-.2,.15-.46,.65-1.24,1.11-1.29,2.01,0,.77-.29,1.32-.59,1.88-.12,.22,.11,.7-.86,.37-.14-.05-.2,.09-.12,.2,.68,1.01-.14,1.19-.37,1.69-.22,.49,.35,1.33-.09,1.71-.41,.36-.49,.9-.73,1.35-.36,.69-.97,.59-3.46-.53-2.06-.93-2.41-1.32-2.52-2.15-.24-1.76,1.08-2.79,1.4-3.98Z"/>
        </g>
        <g>
          <path class="cls-10" d="M34.42,57.06c10.39-20.13,34.03-32.54,56.5-29.65,1.42,.18,2.86,.43,4.16,1.05,1.39,.66,2.55,1.72,3.68,2.77,6.53,6.02,13.06,12.04,19.58,18.07,.83,.77,1.74,1.85,1.3,2.9-.2,.47-.64,.79-1.06,1.08-8.22,5.64-18.16,8.73-28.13,8.74-5.83,0-11.61-1.01-17.35-2.02-12.85-2.26-25.7-4.53-38.55-6.79"/>
          <path class="cls-10" d="M36.46,52.65c.82-1.2,1.48-2.17,2.15-3.15,.11-.15,.14-.38,.28-.56,.59-.71,1.09-1.53,1.77-2.13,.71-.67,1.44-1.31,1.99-2.07,.54-.7,1.13-1.34,1.75-1.95,.21-.2,.4-.42,.74-.52,.25-.08,.57-.35,.67-.71,.02-.07,.14-.13,.23-.18,.09-.06,.23-.08,.27-.15,.22-.4,.53-.71,.86-.99,.35-.27,.72-.51,1.04-.8,.16-.15,.4-.23,.42-.49,0-.07,.17-.21,.25-.21,.21,0,.35-.09,.52-.22l1.05-.83c.36-.27,.74-.5,1.11-.76,.22-.45,.7-.64,1.09-.9,.29-.2,.63-.32,.95-.47,.32-.16,.55-.51,.97-.48,.06,0,.15-.12,.23-.17,.38-.24,.74-.54,1.14-.67,.21-.07,.41-.14,.6-.25,1.18-.72,2.44-1.29,3.69-1.89,.63-.29,1.24-.62,1.88-.87l1.93-.76c.22-.09,.45-.15,.63-.38,.15-.18,.55-.35,.77-.31,.35,.05,.6-.09,.89-.17l1.57-.48c.31-.08,.62-.32,.96-.16,.03,.02,.13-.02,.16-.05,.28-.34,.66-.26,1.02-.31,.26-.04,.51-.1,.76-.28,.24-.18,.69-.3,.97-.24,.37,.09,.67-.04,.98-.11,.46-.1,.92-.22,1.39-.3l1.41-.21,2.81-.43c.89-.08,1.76-.37,2.67-.35,.22,0,.45-.11,.65,.05,.04,.03,.21,0,.28-.05,.24-.18,.49-.14,.77-.13,1.27,.04,2.55,.14,3.8,0,.97-.06,1.92,.09,2.88,.13,.32,.02,.63,.16,.95,.22,.31,.05,.63,.06,.95,.1,.19,.02,.37,.1,.58-.02,.11-.06,.39-.04,.49,.05,.33,.27,.74,.27,1.12,.38,1.09,.28,2.18,.75,3.09,1.41,.22,.16,.54,.26,.6,.59,0,.04,.17,.09,.26,.13,.1,.05,.24,.09,.28,.16,.36,.68,1.01,1.06,1.53,1.56l3.83,3.56c.35,.34,.79,.49,1.13,.82l1,.93c.23,.23,.55,.39,.62,.75,.02,.1,.19,.26,.3,.28,.41,.08,.63,.43,.93,.67,.37,.28,.62,.71,1.12,.85,.13,.04,.22,.29,.36,.42,.23,.23,.46,.46,.71,.67,.12,.1,.29,.14,.41,.25,.92,.78,1.85,1.54,2.76,2.34,.92,.81,1.81,1.66,2.71,2.5s1.82,1.65,2.7,2.51c.33,.32,.82,.53,.93,1.04,.45,.17,.67,.56,.76,1.01,.01,.06,.17,.13,.25,.21,.25,.23,.73,.47,.53,1.03,0,.02,.02,.07,.02,.11,.02,.36,.36,.73-.02,1.2-.22,.27-.49,.7-.78,.92-.29,.24-.58,.41-.82,.6-.26,.2-.64,.27-.76,.65-.02,.06-.31,.05-.43,.14-.58,.44-1.34,.63-1.81,1.25-.11,.14-.34,.26-.52,.29-.66,.12-1.11,.51-1.65,.86-.7,.49-1.52,.92-2.4,.97-.19,.01-.28,0-.4,.17-.08,.12-.27,.18-.43,.24-1.7,.74-3.45,1.35-5.21,1.91-.48,.14-1,.04-1.47,.27-.19,.1-.47,.03-.59,.27-.02,.03-.1,.07-.14,.06-.66-.08-1.17,.41-1.8,.43-.13,0-.27-.01-.4,0-.14,0-.3-.02-.4,.04-.87,.47-1.88,.43-2.81,.63-.32,.07-.69-.01-.95,.27-.04,.04-.18,.06-.25,.03-.59-.23-1.18,.05-1.76,.03-.3,0-.62,.17-.9-.06-.04-.03-.15,0-.23,.02-.13,.04-.25,.12-.37,.13-.35,0-.72-.1-1.02-.02-.37,.11-.73,.07-1.09,.09-.21,0-.41-.09-.62-.13-.2-.03-.4,0-.6-.01-.29,0-.59,.03-.86-.03-.28-.07-.52,.19-.82,0-.23-.14-.52,.08-.79,.09-.13,0-.27-.03-.41-.07-.1-.03-.19-.11-.29-.11-.22,0-.42-.06-.66,.03-.16,.06-.44-.1-.66-.14-.23-.04-.46-.05-.69-.07-.23-.02-.47-.1-.68-.06-.94,.15-1.85-.11-2.77-.21-.24-.02-.52,.03-.69-.22-.03-.04-.16-.07-.24-.05-.91,.17-1.78-.21-2.67-.27-.64-.04-1.27-.03-1.91-.17-.62-.13-1.24-.3-1.86-.3-.51,0-1,0-1.47-.15-.46-.14-.99,.21-1.38-.23-.48-.08-.96-.16-1.43-.26-.4-.08-.83-.06-1.18-.34-.13-.1-.41-.14-.58-.1-.54,.13-1.02-.02-1.5-.22-.12-.05-.29,.03-.43,.01-.42-.06-.85-.12-1.27-.22-1.24-.31-2.51-.28-3.76-.5-.23-.04-.51,.08-.71,0-1.19-.49-2.51-.43-3.7-.81-1.77-.55-3.6-.7-5.4-1.07-.23-.05-.45-.27-.57-.24-.37,.1-.75-.11-1.05-.04-.56,.13-1.05-.11-1.57-.15-.38-.03-.75-.24-1.14-.06-.06,.03-.18,0-.25-.04-.51-.33-1.11-.08-1.64-.28-1.08,.1-2.11-.28-3.16-.4-.16-.02-.32,.02-.47,.02-.08,0-.18,.02-.24,0-.9-.46-1.92-.41-2.86-.65-.31-.08-.61-.22-.92-.3-.31-.09-.66-.07-.93-.31-.08-.07-.27-.08-.41-.08-.76,0-1.24-.5-1.14-1.12,.04-.23,.19-.21,.36-.27,.34-.11,.66-.16,1.03-.08,.29,.06,.59,.19,.89,.02,.05-.03,.18,0,.25,.04,.46,.28,1.05,.23,1.49,.44,.34,.17,.68,.2,1.02,.3,.28,.09,.6,.02,.86,.27,.09,.08,.4-.04,.61,0,.48,.06,.96,.14,1.43,.25,1.43,.34,2.92,.27,4.35,.61,1.08-.1,2.11,.35,3.16,.39,1.28,.05,2.5,.36,3.76,.51,.26,.03,.46,.07,.67,.18,.14,.07,.29,.15,.44,.18,.59,.12,1.19,.2,1.77,.32,.31,.07,.69-.01,.93,.3,.03,.04,.18,.06,.24,.04,.56-.17,1.1,.09,1.65,.15,.21,.02,.41,.07,.61,.2,.22,.15,.61,.2,.88,.15,.2-.04,.38-.01,.56,0,.78,.05,1.52,.45,2.32,.27,.34,.35,.84,.34,1.25,.34,1.57,.01,3.07,.47,4.6,.69,.37,.05,.72,.24,1.09,.33,.39,.09,.79,.15,1.18,.21,.21,.03,.44,.17,.64,0,.01-.01,.05-.02,.08,0,.22,.07,.43,.19,.65,.21,.2,.02,.41-.08,.61-.09,.25,0,.5,.04,.74,.08,.24,.04,.5,.04,.66,.25,.22-.19,.48-.03,.72-.01,.23,.02,.45,.07,.67,.11l.76,.13c.25,.04,.5,.1,.76,.12,.35,.03,.7,0,1.05,.03,.37,.03,.73,.09,1.09,.16l1.34,.33c.19,.04,.35,0,.55-.05,.26-.08,.59-.27,.87,.07,.06,.07,.28,.08,.41,.05,1.01-.21,1.98,.15,2.97,.13,.53,.28,1.06,.16,1.63,.12,.83-.06,1.7-.08,2.51,.05,.86,.13,1.69,.04,2.54,.03,.24,0,.49-.1,.7,.1,.05,.04,.23,.02,.32-.02,.66-.29,1.33-.28,2.04-.23,.38,.03,.78-.12,1.17-.26,.59-.2,1.26-.24,1.89-.35,.32,.21,.49-.1,.6-.24,.16-.19,.32-.25,.54-.3,.28-.06,.57-.08,.81-.3,.12-.12,.44-.18,.62-.13,.23,.07,.3,0,.46-.13,.2-.15,.49,.03,.76-.05,.29-.1,.6-.32,.94-.14,.03,.02,.12-.01,.16-.04,.47-.42,1.12-.21,1.63-.51,1.72-.24,3.24-1.12,4.83-1.73,.66-.25,1.4-.37,1.96-.81,1.19-.88,2.54-1.46,3.76-2.26,.26-.17,.48-.47,.86-.4,.05,0,.17-.07,.2-.13,.24-.46,.71-.65,1.07-.74,.09-.03,.2-.13,.17-.2-.07-.21,0-.19,.04-.27,.03-.06,.19-.2,.09-.26-.22-.1-.05-.26-.11-.44-.04-.11-.15-.19-.25-.27-.05-.04-.15-.05-.16-.09-.1-.48-.64-.53-.95-.95-.06-.09-.15-.16-.21-.25q-.66-1.01-1.85-1.91c-.08-.51-.75-.48-.91-.97-.06-.18-.3-.37-.49-.46-.84-.39-1.36-1.17-2.06-1.71-.15-.11-.1-.37-.4-.4-.11-.01-.2-.36-.36-.49-.22-.19-.37-.49-.73-.53-.15-.02-.29-.25-.45-.37-.21-.16-.36-.4-.67-.46-.17-.03-.43-.26-.49-.44-.27-.73-.96-.93-1.51-1.28-.17-.1-.29-.17-.4-.35-.16-.25-.37-.58-.6-.65-.41-.13-.64-.44-.92-.69-.5-.43-.96-.9-1.46-1.33-.57-.49-1.06-1.06-1.73-1.44-.36-.21-.82-.51-.95-1.02-.01-.06-.25-.06-.34-.14-.7-.63-1.4-1.27-2.08-1.92-.16-.15-.14-.52-.44-.49-.32,.03-.17-.47-.49-.38-.05,.01-.19-.12-.24-.21-.6-.96-1.56-1.48-2.35-2.05-.19-.14-.47-.15-.53-.46-.62,0-1.1-.74-1.81-.46-.42-.17-.94-.03-1.34-.39-.07-.06-.24-.01-.31-.06-.27-.19-.5,.23-.83-.02-.19-.15-.58-.1-.88-.14l-.84-.07-.92-.08c-.31-.03-.61-.07-.92-.08-.62,.01-1.23,.21-1.87,.13-.07,0-.19,.02-.21,.07-.22,.38-.53,.16-.74,.05-.18-.09-.33-.14-.53-.14-.53,0-1.06,0-1.59,.04-.31,.01-.64,.16-.96-.06-.1-.07-.35-.03-.49,.03-.64,.3-1.34,.2-2.02,.29-.3,.06-.61,.1-.91,.14-.23,.03-.44,.23-.69,.11-1.07,.5-2.27,.39-3.37,.73-1.1,.3-2.23,.52-3.34,.79-.27,.08-.55,.29-.86,.13-.06-.03-.26,.03-.3,.1-.12,.18-.22,.29-.45,.17-.04-.02-.18,.06-.25,.12-.19,.16-.4,.22-.66,.2-.2-.01-.46,.02-.62,.13-.44,.27-.83,.55-1.38,.49-.07,0-.17,.21-.27,.25-.41,.13-.77,.41-1.24,.38-.19-.01-.41,.14-.62,.2-.36,.1-.64,.36-1.04,.43-.39,.1-.76,.35-1.14,.53l-1.14,.55-1.14,.54c-.39,.17-.74,.4-1.11,.6l-1.09,.63-1.09,.62c-.25,.15-.51,.25-.81,.33-.76,.21-1.52,.75-2.34,1.55-.06,.06-.14,.1-.21,.14-.93,.58-1.73,1.35-2.64,1.95-.4,.27-.85,.48-1.22,.8-.25,.2-.51,.38-.64,.72-.11,.28-.54,.36-.61,.74-.03,.14-.25,.34-.41,.39-.53,.16-.83,.61-1.23,.94-.47,.36-.85,.82-1.24,1.25-.19,.22-.45,.37-.51,.72-.03,.17-.32,.38-.52,.48-.32,.15-.53,.41-.7,.67-.38,.55-.32,.59-.85,.99-.06,.05-.12,.11-.17,.18-.51,.63-1.11,1.22-1.51,1.91-.35,.56-.67,1.12-1.05,1.65-.14,.21-.22,.52-.55,.56-.05,0-.13,.13-.14,.2-.08,.6-.53,1-.85,1.47-.27,.48-.33,1.03-.65,1.48-.3,.43-.53,.91-.8,1.37-.4,.7-.62,.78-1.22,.46-.5-.26-.51-.5-.28-1.13,.5-1.34,1.31-2.52,1.9-3.5Z"/>
        </g>
        <g class="cls-13">
          <g class="cls-13">
            <path class="cls-5" d="M121.75,43.87c.79,.87,1.42,1.9,2.09,2.85,.33,.48,.68,.9,1.07,1.38,.39,.48,.81,1.01,1.11,1.73,.12,.32,.21,.66,.25,1,.04-.16,.06-.34,.08-.52,.05-.51-.02-1.09-.18-1.57-.16-.49-.38-.9-.59-1.25-.44-.7-.79-1.19-1.2-1.76-.81-1.1-1.68-2.16-2.59-3.13-1.22-1.13-2.7-2.07-3.77-3.54-.12-.16-.38,.01-.51,.1-.04,.27-.11,.52-.2,.77,1.07,1.04,2.21,2.01,3.19,3.18,.3,.41,1.05,.5,1.23,.75Z"/>
            <polygon class="cls-7" points="117.32 39.88 117.31 39.93 117.47 40.08 117.32 39.88"/>
            <path class="cls-4" d="M119.98,42.39c.38,.32,.7,.69,1,1.08,.31,.15,.66,.25,.77,.4,.79,.87,1.42,1.9,2.09,2.85,.33,.48,.68,.9,1.07,1.38,.39,.48,.81,1.01,1.11,1.73,.12,.32,.2,.65,.25,.99,.04-.18,.07-.36,.09-.56,.07-.73-.14-1.52-.41-2.09-.28-.59-.6-1.05-.86-1.44l-.13-.09c-.49-.27-.6-.82-.9-1.22-1.03-1.01-1.62-2.08-2.65-3.08-.36-.36-.99-.55-1.35-1.04-.14-.16-.25-.32-.36-.48-.61-.53-1.2-1.1-1.7-1.78-.12-.16-.38,.01-.51,.1-.02,.14-.05,.28-.09,.41,.39,.57,.83,1.09,1.25,1.65,.45,.42,.89,.85,1.31,1.3,0-.04,0-.08,0-.12Z"/>
            <path class="cls-7" d="M119.65,42.74c.05,.07,.3,0,.33-.22-.42-.45-.86-.88-1.31-1.3,.36,.47,.7,.96,.98,1.53Z"/>
            <path class="cls-9" d="M118.74,43.36c.65,1.02,1.7,1.65,2.1,2.6,.23,.48,.37,1.03,.42,1.57,.11,.13,.22,.25,.32,.37,.67,.74,1.5,1.57,1.74,2.03,.13,.24,.16,.36,.14,.66-.03,.28-.14,.63-.34,1-.73,1.46-2.24,2.6-3.93,3.57-1.69,1.07-2.92,2.59-4.39,4.08-.95,.78-1.96,1.05-3.07,1.56-.7,.3-1.31,.69-1.87,1.14-.54,.44-1.01,.9-1.49,1.35-.94,.88-1.99,1.86-3.48,1.84-.75-.06-1.39,.98-1.18,1.09,1.66,.53,3.26,.1,4.49-.46,1.26-.57,2.34-1.32,3.36-2.03,2.04-1.41,4.1-2.8,6.08-4.42,1.53-1.27,3.11-2.3,4.7-3.48,.78-.6,1.56-1.24,2.25-2.03,.67-.81,1.34-1.63,1.68-2.95-.05-.34-.13-.68-.25-1-.3-.72-.73-1.26-1.11-1.73-.4-.48-.74-.9-1.07-1.38-.67-.95-1.31-1.98-2.09-2.85-.18-.24-.94-.34-1.23-.75-.98-1.17-2.12-2.14-3.19-3.18-.17,.52-.38,1.01-.45,1.46,.72,.59,1.42,1.18,1.86,1.96Z"/>
            <path class="cls-6" d="M118.74,43.36c-.44-.77-1.14-1.37-1.86-1.96-.04,.22-.04,.44,.02,.64,.85,2.16,2.83,3.76,4.36,5.48-.05-.54-.19-1.08-.42-1.57-.4-.95-1.45-1.58-2.1-2.6Z"/>
            <path class="cls-4" d="M118.74,43.36c-.42-.74-1.08-1.31-1.76-1.88,.13,.27,.28,.53,.46,.77,.9,1.22,1.92,2.36,2.62,3.71-1.01-1.26-2.01-2.52-3.09-3.73,.9,2.06,2.81,3.62,4.29,5.29-.05-.54-.19-1.08-.42-1.56-.4-.95-1.45-1.58-2.1-2.6Z"/>
            <path class="cls-3" d="M120.43,45.14c-1.02-1.51-2.09-2.99-3.45-4.27-.04,.14-.08,.27-.1,.4,.04,.08,.07,.15,.1,.22,.68,.56,1.34,1.14,1.76,1.88,.65,1.02,1.7,1.65,2.1,2.6,.23,.48,.37,1.02,.42,1.56l.3,.35c.68,.76,1.54,1.61,1.77,2.07,.12,.24,.16,.37,.13,.68-.04,.29-.17,.65-.37,1.03-.33,1.5-1.87,2.72-3.5,3.53,.7-.5,1.36-1.02,1.9-1.61-.67,.57-1.44,1.08-2.27,1.57-.7,.45-1.35,.99-1.96,1.57,.03,.34-.04,.7-.38,1.03-.52,.51-1.12,.89-1.56,1.54-.09,.05-.21-.15-.38-.04,.48-.3,.76-.7,.95-1.14-.36,.37-.72,.75-1.07,1.12-.74,.62-1.53,.91-2.37,1.26l-.22,.19c-.37,.3-.69,.69-.99,1.09,.17-.1,.33-.21,.51-.32-.18,.3-.52,.51-.78,.68,.09-.12,.18-.24,.27-.35-.4,.25-.78,.49-1.2,.76,.51-.32,.95-.78,1.29-1.19-.9,.66-1.68,1.37-2.65,1.71l.04-.08c-.53,.5-1.05,1.03-1.66,1.44-.6,.42-1.32,.74-2.13,.72-.74-.05-1.4,.98-1.17,1.1,1.14,.35,2.31,.26,3.28-.04,.98-.29,1.83-.74,2.62-1.21,1.58-.98,2.92-1.97,4.37-2.96-.43,.09-.85,.19-1.26,.27-.17,.07-.33,.11-.52,.13,.17-.04,.34-.09,.52-.13,.45-.18,.86-.5,1.35-.68,.13,.01,.38-.15,.35-.41,.68-.24,1.24-.88,1.92-1.12,.03-.02,.13,0,.25,.02,.34-.27,.68-.54,1.04-.82,.97-.78,1.93-1.5,2.92-2.2,.99-.7,1.99-1.4,2.94-2.24-.53,.33-1.07,.58-1.6,.74-.75,.17-1.73,1.27-2.68,2.05-.22,.23-.51,.13-.76,.3,.49-1.16,1.9-1.55,2.81-2.38,.62-.53,1.44-1.06,2.15-1.78,.71-.7,1.3-1.64,1.32-2.56,0-.73,.23-1.36,.17-2.09,.24,.15,.37,.62,.38,.87,.08,1.1-.41,2.01-.9,2.8-.51,.8-1.15,1.5-1.81,2.16,.83-.54,1.53-1.25,2.09-2.09,.53-.83,1.1-1.78,1.06-3.15,.17,.79-.07,1.51-.32,2.08-.26,.58-.54,1.07-.72,1.65,.1-.05,.2-.1,.3-.17,.5-.67,1-1.39,1.25-2.44-.05-.33-.13-.67-.25-.99-.3-.72-.73-1.26-1.11-1.73-.4-.48-.74-.9-1.07-1.38-.67-.95-1.31-1.98-2.09-2.85-.11-.16-.46-.25-.77-.4,.46,.6,.85,1.25,1.33,1.83-.13-.28-.23-.58-.27-.9,.48,.53,.58,1.19,1.07,1.72-.3-.25-.56-.53-.8-.82,.2,.43,.47,.83,.72,1.25-.8-.55-.81-1.64-1.73-2.11,.13,.15,.25,.31,.35,.48l-.36-.49h.01c-.39-.46-.89-.83-1.35-1.16,.67,.8,1.01,1.74,1.68,2.53,.12,.12,.23,.24,.35,.37-.13-.12-.24-.24-.35-.37-1.6-1.73-2.79-3.8-4.15-5.72l-.16-.16-.12,.35c1.16,1.56,2.26,3.21,3.24,4.87Z"/>
          </g>
        </g>
        <g class="cls-13">
          <g class="cls-13">
            <path class="cls-5" d="M91.23,65.12c.61-.09,1.24,.68,1.77-.08,.06-.07,.12-.15,.18-.24l-.09-.06c-.67-.46-1.39-.62-2.07-.47-.43,.21-.89,.74-1.36,.62-.05-.01-.08,.3-.09,.46,.04,.2,.06,.42,.09,.65,.4-.15,.8-.41,1.2-.4,.13,.03,.29-.49,.37-.47Z"/>
            <polygon class="cls-7" points="89.65 65.95 89.66 66 89.72 65.97 89.65 65.95"/>
            <path class="cls-4" d="M90.63,65.53c.13-.09,.26-.1,.39-.08,.09-.14,.17-.35,.22-.34,.61-.09,1.24,.68,1.77-.08,.06-.07,.12-.15,.17-.24l-.09-.06c-.23-.16-.47-.28-.71-.37l-.04,.05c-.14,.21-.26-.06-.39-.09-.37,.15-.67-.08-1.05,.07-.13,.05-.29,.41-.44,.37-.05,0-.1-.01-.15-.04-.21,.13-.43,.21-.65,.15-.05-.01-.08,.3-.09,.46,.02,.11,.03,.22,.05,.33,.18,.07,.36,.07,.54,.1,.16-.07,.33-.14,.49-.17,0-.03-.01-.06-.02-.08Z"/>
            <path class="cls-7" d="M90.62,66.01s.06-.22,.03-.4c-.16,.03-.33,.1-.49,.17,.15,.03,.31,.08,.46,.23Z"/>
            <path class="cls-9" d="M90.55,67.11c.32,.16,.64-.25,.89,.05,.14,.13,.27,.37,.38,.68,.05,0,.09,0,.13-.01,1.11-.23,2.19-.34,3.29,0,.55,.09,1.04-.46,1.57-.85,.32-.11,.6,.25,.94,.45,.85,.58,1.45-.8,2.21-1.29,.21-.13,.12-1.39,.07-1.39-1.28,.64-2.58,.15-3.89,.57-1.02,.29-2.01,.12-2.96-.51-.06,.09-.12,.17-.18,.24-.53,.76-1.16-.01-1.77,.08-.08-.02-.24,.5-.37,.47-.4,0-.8,.25-1.2,.4,.05,.46,.09,.94,.16,1.28,.25-.17,.5-.32,.73-.17Z"/>
            <path class="cls-6" d="M90.55,67.11c-.23-.16-.48,0-.73,.17,.03,.17,.07,.31,.12,.4,.56,.73,1.27,.25,1.89,.16-.11-.31-.24-.55-.38-.68-.25-.3-.58,.11-.89-.05Z"/>
            <path class="cls-4" d="M90.55,67.11c-.22-.15-.45-.01-.7,.14,.07,.07,.15,.12,.23,.14,.4,.1,.82,.04,1.21,.37-.43-.03-.87-.07-1.31-.01,.56,.63,1.23,.17,1.84,.09-.11-.31-.24-.54-.38-.68-.25-.3-.58,.11-.89-.05Z"/>
            <path class="cls-3" d="M91.21,66.95c-.48-.19-.96-.31-1.46-.09,.02,.12,.03,.23,.05,.34,.02,.02,.04,.04,.06,.06,.24-.16,.48-.29,.7-.14,.32,.16,.64-.25,.89,.05,.13,.13,.26,.37,.38,.68,.05,0,.09,0,.13,0,.57-.12,1.13-.21,1.68-.21,.48-.39,1.01-.3,1.52-.03-.24,0-.48,.02-.72,.07,.27,.04,.53,.09,.8,.18,.23,.04,.45-.04,.67-.17,.04-.29,.1-.55,.22-.63,.19-.13,.38-.1,.56-.38,.03,0,.03,.24,.09,.25-.15-.02-.27,.14-.37,.39,.13-.11,.26-.21,.4-.31,.25-.08,.48,.11,.73,.3,.03-.01,.05-.02,.08-.03,.13-.04,.25-.18,.37-.34-.05,0-.11-.01-.16-.02,.08-.15,.18-.13,.27-.12l-.1,.14c.13,.02,.25,.03,.38,.05-.16-.02-.32,.11-.45,.25,.3-.04,.56-.16,.87,.03l-.02,.04c.4-.33,.77-.88,1.19-1.16,.21-.13,.12-1.39,.07-1.4-.89,.45-1.8,.34-2.7,.38,.12,.17,.23,.33,.34,.48,.05,.04,.09,.09,.14,.19-.05-.06-.09-.12-.14-.19-.13-.1-.26-.07-.4-.21-.03-.08-.11-.09-.13,.14-.19-.18-.4,.02-.59-.17-.01,0-.03-.07-.06-.15-.11,.02-.23,.05-.34,.09-.64,.18-1.27,.18-1.88,0,.15,.15,.29,.32,.43,.53,.18,.35,.56,.02,.88-.08,.08-.06,.13,.18,.21,.19-.26,.66-.64,.2-.96,.3-.43,.08-1.03-.51-1.5-.05-.19,.2-.37-.08-.52-.35,.06-.15,.16-.12,.22-.11,.48,.1,.95,.19,1.44,.13-.5-.33-.98-.19-1.47-.61,.29-.02,.57,.36,.85,.01-.03-.06-.05-.11-.07-.16-.19-.09-.38-.19-.57-.32-.06,.08-.12,.16-.17,.24-.53,.76-1.16-.01-1.77,.08-.05-.01-.13,.19-.22,.34,.2,.03,.39,.14,.59,.15-.08-.08-.15-.19-.21-.37,.19-.03,.33,.31,.52,.28-.1,.07-.2,.09-.3,.09,.12,.12,.24,.17,.37,.24-.25,.26-.46-.41-.72-.01,.05,0,.1,.01,.16,.04l-.16-.04h0c-.16,0-.32,.14-.48,.29,.28,0,.51,.34,.79,.33,.05,0,.09-.02,.14-.04-.05,.02-.09,.03-.14,.04-.63,.12-1.24-.28-1.85-.48l-.06,.02,.03,.31c.51,.12,1.02,.33,1.52,.64Z"/>
          </g>
        </g>
      </g>
    </g>
  </g>
</svg>