<?xml version="1.0" encoding="UTF-8"?>
<svg id="_Слой_2" data-name="Слой 2" xmlns="http://www.w3.org/2000/svg" xmlns:xlink="http://www.w3.org/1999/xlink" viewBox="0 0 150.01 131.06">
  <defs>
    <style>
      .cls-1 {
        fill: none;
      }

      .cls-2 {
        clip-path: url(#clippath);
      }

      .cls-3 {
        fill: #f3f9fb;
      }

      .cls-4 {
        fill: #f7fbfc;
      }

      .cls-5 {
        fill: #f8fcfd;
      }

      .cls-6 {
        fill: #f4fafb;
      }

      .cls-7 {
        fill: #f5fafb;
      }

      .cls-8 {
        fill: #eab7c9;
      }

      .cls-9 {
        fill: #fbfdfe;
      }

      .cls-10 {
        fill: #6e7c6e;
      }

      .cls-11 {
        opacity: .49;
      }

      .cls-12 {
        opacity: .8;
      }
    </style>
    <clipPath id="clippath">
      <rect class="cls-1" width="150.01" height="131.06"/>
    </clipPath>
  </defs>
  <g id="_лепестки" data-name="лепестки">
    <g class="cls-2">
      <g>
        <g class="cls-11">
          <path class="cls-10" d="M14.84,60.1c.71-1.99,3.86-1.9,14.4-3.08,28.08-3.16,27.08-6.22,47.92-7.61,18.93-1.26,28.57-1.76,37.39,4.7,1.23,.9,12.08,8.84,10.84,17.3-1.9,12.96-31.48,22.06-56.04,19.54-30.31-3.11-56.82-24.32-54.5-30.85Z"/>
          <path class="cls-10" d="M20.2,56.12c1.88-.22,3.4-.3,4.89-.6,.23-.05,.44-.59,.74-.61,1.18-.09,2.33-.71,3.52-.24,1.3,.5,2.55,.43,3.67-.13,1.07-.52,2.17-.56,3.25-.83,.36-.09,.71-.25,1.19,.28,.35,.39,.9,.37,1.18-.46,.06-.16,.24-.03,.37,.02,.14,.06,.34,.36,.42,.24,.9-1.33,2.15-.6,3.19-1.07,.26-.12,.61,.17,.71-.64,.03-.21,.28-.28,.39-.12,.29,.44,.52,.5,.77,.45l3.34-.63c.35-1.1,1.04-.78,1.62-.9,.44-.09,.94,.17,1.42,.27,.48,.1,.82-.63,1.43,.14,.1,.12,.21-.18,.33-.22,.54-.19,1.04-.64,1.64-.43,.3,.11,.61,.21,.88,.15,3.46-.77,7.01-1.54,10.59-2.09,.31-.05,.62,.02,.87-.6,.2-.5,.76-.59,1.07-.16,.5,.69,.84,.34,1.23,.34,.72-.01,1.42-.21,2.13-.19,.42,0,.84-.55,1.31,.43,.04,.09,.18,.08,.21-.02,.38-1.02,.9-.25,1.38-.15,.35,.07,.68,.03,1.01-.48,.32-.5,.92-.62,1.29-.14,.49,.64,.88,.39,1.3,.37,2.44-.1,4.88-.25,7.33-.45,1.15-.1,2.26-1.05,3.45-.73,.28,.07,.57-.32,.85,.38,.06,.14,.28,.05,.36-.13,.3-.65,.63-.41,1-.39,1.66,.09,3.32,.46,4.97-.11,.64-.21,1.28-.26,1.92-.27,.64,.01,1.27,.07,1.92,.04,.43-.03,.82,.5,1.24,.65,.41,.15,.84,.15,1.26,.15,.26,0,.47,.25,.81-.27,.18-.28,.57-.3,.67-.03,.35,.91,.93,.67,1.44,.82,1.44,.37,2.91,.71,4.3,1.31,.34,.14,.89-.09,.85,.84,0,.12,.29-.04,.45-.06,.17-.02,.43-.17,.48-.01,.2,.73,.59,1.03,1.02,1.25,.43,.23,.94,.35,1.35,.61,1.96,1.34,3.9,2.63,5.52,4.32,.44,.48,1.38,.32,1.8,.82,.41,.47,.9,.86,1.27,1.38,.26,.35,.88,.45,.45,1.35-.12,.24,.09,.48,.35,.43,1.01-.17,.97,.57,1.38,.92,.53,.43,.38,1.3,1.53,1.38,.31,.03,.07,.56,.14,.83,.15,.46,.33,.89,.58,1.29,.11,.2,.49,.29,.6,.5,.91,1.57,1.58,3.5,1.61,5.56,.08,2.12-.68,4.2-1.64,5.92-.97,1.73-2.16,3.23-3.54,4.41-.51,.44-.62,1.47-1.87,.91,0,.96-.72,.95-1.62,.58-.13-.05-.08,.34-.13,.5-.16,.51,.16,1.77-.97,.91-.04-.03-.06,.05-.1,.06-.43,.05,.05,1.35-.81,.92-.53-.27-.85,.16-1.24,.33-.39,.19-.8,.33-1.13,.63-.34,.31-1.04-.02-.96,1.06,.01,.17-.59-.31-.74-.19-.79,.66-2.06,.21-2.48,1.67-.1,.34-.44,.45-.74,.31-1.1-.5-1.65,.22-2.37,.79-.92,.79-2.05,1.31-3.47,.45-.3-.18-.46-.36-.56,.14-.07,.32-.35,.33-.56,.39-2.34,.69-4.72,1.26-7.1,1.73-.65,.14-1.43-.7-2.03-.23-.25,.19-.65-.23-.75,.61-.01,.12-.12,.2-.18,.15-.95-.79-1.54,.63-2.4,.37-.18-.05-.37-.21-.55-.29-.19-.08-.42-.29-.55-.13-1.09,1.31-2.47,.58-3.69,.98-.42,.14-.93-.35-1.23,.66-.05,.15-.24,.15-.33,.03-.82-1.12-1.56-.17-2.34-.44-.4-.14-.81,.53-1.2-.43-.05-.12-.2-.02-.3,.05-.16,.12-.32,.45-.48,.43-.46-.04-.96-.57-1.35-.24-.49,.41-.96,.23-1.43,.26-.27,.01-.54-.43-.81-.54-.26-.1-.53-.02-.79-.03-.38-.01-.78,.15-1.13-.08-.36-.24-.7,.78-1.08,.07-.29-.55-.69,.37-1.06,.46-.18,.04-.36-.08-.53-.2-.13-.09-.24-.42-.36-.4-.29,.04-.55-.16-.88,.24-.23,.28-.56-.3-.86-.4-.29-.1-.6-.07-.9-.09-.3-.03-.6-.27-.9-.07-1.32,.87-2.49,.1-3.71,.03-.32-.02-.74,.27-.86-.62-.02-.16-.2-.2-.3-.12-1.35,.97-2.38-.19-3.6-.12-.87,.05-1.8,.33-2.61,.01-.79-.32-1.56-.76-2.46-.57-.73,.15-1.46,.26-2.02-.14-.55-.38-1.67,1.08-1.82-.51-.62-.2-1.26-.36-1.86-.63-.5-.24-1.16-.07-1.37-1.05-.08-.36-.44-.46-.73-.27-.96,.62-1.49,.12-1.96-.55-.11-.16-.46,.16-.65,.11-.56-.16-1.11-.33-1.59-.66-1.42-1-3.36-.78-4.91-1.52-.28-.14-.9,.33-1.07,.04-1.03-1.74-3.09-1.53-4.26-2.93-1.69-2.05-4.15-2.72-6.09-4.3-.25-.2-.13-.99-.37-.91-.76,.27-.89-.5-1.49-.33-1.11,.31-1.33-.62-2.03-.86-.52-.18-.59-.99-1.59-.51-.15,.07-.27-.06-.28-.21-.02-1.2-1.49-.63-1.8-1.47-1.88-.11-2.5-1.76-3.77-2.71-.19-.15-.52-.14-.78-.22-.13-.04-.34-.04-.35-.17-.06-.93-.49-1.57-1.01-2.14-.52-.61-1.13-1.15-1.46-1.99-.22-.51-.22-1.21-.39-1.8-.17-.53-.72-1.21-.23-2.01,.16-.28-.06-.67-.22-.98-.11-.21-.19-.4-.21-.64-.02-.25,0-.5,.04-.73,.1-.46,.32-.84,.73-1.18,.78-.66,1.87-.62,3.05-.18,.86,.31,.89,.51,1.19,.72,.28,.19,.56,.32,.75,.44,.18,.11,.26,.19,.29,.37,0,.13-.06,.28,.01,.4,.09,.13,.28,.22,.74,.16,.15-.02,.16,.1,.08,.21-.24,.39-.13,.68,0,.93,.15,.26,.33,.49,.26,.87-.11,.59,.25,.86,.37,1.31,.11,.38,.72,.36,.34,1.16-.12,.27,.63,.1,.84,.26,.48,.39,.91,.81,1.27,1.31,1.08,1.58,3.32,1.8,4.56,3.19,1.72-.08,2.19,1.56,3.61,1.86,1.68,.36,2.8,1.52,4.3,2.09,.31,.12,.51,.28,.61,.67,.06,.26,.13,.53,.3,.64,.63,.42,1.33,.73,1.95,1.17,.33,.24,1-.04,.81,1.07-.03,.15,.14,.23,.27,.15,1.09-.63,1.43,.27,2.11,.48,.26,.08,.47,.23,.56,.7,.1,.51,.56,.69,1.02,.49,.35-.15,.55-.07,.8-.04,1.03,.08,1.52,1.5,2.91,.7,0,1.24,.74,1.14,1.31,1.09,2.19-.21,3.73,1.18,5.64,1.64,.46,.1,.76,.71,1.18,.95,.45,.25,.94,.38,1.44,.47,.27,.05,.46,.5,.9-.24,.03-.05,.09-.08,.11-.06,.23,.21,.43,.59,.71,.61,.26,.02,.63-.45,.92-.53,.34-.09,.65-.03,.96,.03,.3,.06,.65-.04,.7,.73,.45-.83,.67-.29,.98-.29,.29,0,.56,.11,.83,.18l.93,.21c.31,.07,.61,.22,.94,.19,.45-.04,.94-.29,1.38-.3,.47-.01,.92,.08,1.35,.26,.54,.21,1.06,.57,1.6,.82,.22,.1,.46-.09,.73-.37,.36-.37,.86-1.27,1.09,0,.05,.25,.33,.22,.5,.07,1.35-1.11,2.47,.05,3.72-.2,.61,.98,1.31,.44,2.02,.22,1.05-.36,2.13-.46,3.14,.09,1.08,.61,2.14,.24,3.2,.44,.3,.06,.61-.31,.9,.53,.07,.19,.29,.12,.41,0,.83-.93,1.67-.72,2.6-.22,.49,.26,.99-.12,1.48-.51,.72-.57,1.6-.27,2.41-.38,.47,1,.62-.1,.74-.57,.16-.63,.37-.77,.65-.81,.36-.07,.74,.06,1-.66,.13-.37,.54-.35,.79-.02,.34,.44,.4,.21,.59-.15,.22-.43,.67,.48,1.02,.37,.37-.12,.71-.71,1.25,.3,.05,.09,.16,.05,.2-.04,.48-1.24,1.5,.22,2.1-.42,2.37,.76,4.23-.81,6.38-1.01,.89-.09,2.01,.41,2.66-.36,1.37-1.58,3.29-1.56,4.83-2.5,.32-.2,.5-.82,1.27-.01,.11,.11,.26,.02,.26-.14,.05-1.14,.67-1.09,1.47-.8,.2,.07,.41-.07,.35-.34-.17-.75,.21-.62,.43-.73,.26-.13,.93,.19,.88-.21-.12-.87,.55-.23,.86-.28,.19-.03,.23-.31,.31-.51,.04-.1-.07-.42,.02-.38,1.02,.4,.62-.99,1.26-1.03,.14-.01,.23-.1,.37-.1,1.7,.03,1.84-.05,2.33-1.61,.64,.23,.68-.05,.65-.35-.04-.3-.12-.6,.42-.53,.41,.05,.49-.28,.33-.57-.16-.32-.21-.56-.2-.78-.02-.21,.04-.39,.12-.56,.1-.17,.17-.34,.22-.52,.05-.18,.12-.36,.03-.55-.07-.15,.81-.21,.11-.45-.27-.08,.54-.31,.5-.51-.07-.26,.36-.62-.5-.77-.33-.05-.11-.32-.23-.48-.16-.21,.1-.55-.63-.58-.39-.01-.53-.29-.27-.55,.53-.55,.46-.9,.1-1.11-.34-.22-.85-.3-1.22-.46-.23-.1-.42-.14-.34-.43,.1-.4,.23-.97-.27-.92-.85,.08-.81-.41-1.1-.7-.5-.5-.86-1.15-1.44-1.61-.65-.53-1-1.39-2.11-1.46-.59-.04-1.26-.17-.9-1.36,.04-.13-.53,.23-.64,.14-.84-.65-1.72-1.25-2.48-1.85-.17-.14,.22-1.26-.45-.58-.69,.73,.07-1.04-.68-.12-.11,.13-.27,.02-.31-.13-.19-.84-.74-1.12-1.28-1.35-.56-.2-1.18-.24-1.68-.61-.26-.16-.7,.2-.64-.8-.52,.41-.79,0-1.14-.27-.34-.29-.72-.5-1.25,.26-.48-.4-1.22,.43-1.56-.82-.06-.2-.29,.04-.36-.14-.28-.61-.71,1.12-1.02,.16-.18-.55-.67-.3-1.03-.36-.34-.05-.68-.05-1.02-.07-.38-.02-.75-.06-1.13-.07-.38-.01-.77-.09-1.15-.02-.78,.14-1.55,.86-2.34,.57-.09-.03-.23,.1-.26,.28-.26,1.51-.65,.66-.93,.23-.23-.36-.43-.53-.68-.52-.68,.04-1.35,.1-2.04,.03-.41-.04-.82,.46-1.25-.47-.13-.29-.46-.21-.63,.01-.81,1.02-1.74,.49-2.61,.68-.4,.09-.8,.07-1.2,.07-.31,0-.57,.66-.92,.06-1.41,1.3-2.99,.61-4.5,.85-1.51,.23-2.95,.28-4.43,.33-.37,.02-.73,.54-1.15-.43-.08-.19-.34-.15-.4,.06-.16,.56-.29,.86-.6,.16-.06-.13-.24,.04-.33,.2-.26,.43-.53,.4-.87,.08-.27-.25-.61-.39-.82-.15-.56,.64-1.08,1.19-1.85,.22-.09-.12-.21,.58-.35,.57-.55-.05-1.01,.57-1.67-.15-.27-.3-.55,0-.84-.04-.49-.07-.84,.55-1.38,.32-.55-.23-1.05,.13-1.57,.23l-1.57,.32-1.58,.34-1.61,.36-1.63,.37c-.55,.12-1.08,.26-1.64,.36-.39,.07-.77,.04-1.24-.26-1.2-.77-2.38-.4-3.71,.69-.1,.08-.22,.05-.33,.07-1.45,.28-2.88,.74-4.37,.7-.66-.01-1.36-.35-2-.17-.42,.11-.85,.02-1.18,.71-.27,.58-.9-.25-1.18,.75-.1,.36-.5,.41-.74,.16-.8-.83-1.42-.26-2.11-.24-.79,.02-1.57,.14-2.35,.32-.38,.09-.8-.19-1.1,.63-.15,.4-.64,.2-.96-.09-.5-.45-.92-.3-1.3-.04-.82,.56-.81,.64-1.74,.17-.11-.06-.22-.05-.33-.04-1.08,.11-2.22-.13-3.21,.46-.83,.49-1.67,.61-2.52,.72-.34,.04-.68,.53-1.07-.43-.06-.14-.24-.1-.31,.03-.58,1.16-1.39,.67-2.06,.78-.67,.1-1.07,1.07-1.61,.95-.19-.06-.43-.02-.46,.02-.01,0-.05,.03-.04,.01-.1-.32-.22-.63-.36-.93-.07-.15-.15-.3-.23-.45-.08-.15-.17-.3-.2-.38-.08-.18-.19-.36-.31-.54-.24-.31-.24-.34-.34-.45-.04-.05-.09-.09-.14-.13-.02-.02,0,0-.01-.01,0,0-.01-.01-.02-.02,0,0,.09,.06,.12,.07,.09,.04,.14,.06,.18,.07h.04s.16,.06-.3-.1c-1.06-.37-1.7-.63-2.03-1.02-.34-.39-.3-.93,.09-1.55,.41-.61,.99-1.01,1.49-1.23,.52-.24,1.01-.35,1.48-.43,.94-.15,1.79-.14,2.53-.38Z"/>
        </g>
        <g>
          <path class="cls-8" d="M7.56,32.66c.71-1.99,3.86-1.9,14.4-3.08,28.08-3.16,27.08-6.22,47.92-7.61,18.93-1.26,28.57-1.76,37.39,4.7,1.23,.9,12.08,8.84,10.84,17.3-1.9,12.96-31.48,22.06-56.04,19.54C31.75,60.4,5.24,39.19,7.56,32.66Z"/>
          <path class="cls-8" d="M13.08,30.07c1.85-.22,3.37-.35,4.87-.54,.23-.03,.48-.19,.78-.22,1.18-.12,2.37-.37,3.52-.35,1.25,.01,2.49-.12,3.66-.36,1.11-.22,2.21-.36,3.31-.53,.37-.06,.73-.14,1.16-.04,.31,.07,.85,0,1.22-.25,.07-.05,.25-.04,.37-.04,.13,0,.3,.06,.39,.02,1.04-.46,2.2-.39,3.28-.66,.27-.06,.58-.03,.78-.26,.05-.06,.32-.11,.4-.08,.23,.08,.45,.07,.71,.02l3.37-.63c.5-.35,1.14-.37,1.73-.49,.44-.09,.9-.09,1.35-.14,.45-.05,.9-.31,1.37-.19,.07,.02,.23-.08,.35-.11,.55-.14,1.11-.35,1.65-.39,.28-.02,.55-.04,.82-.1,3.46-.79,6.96-1.55,10.49-2.07,.31-.05,.6-.06,.91-.25,.24-.16,.8-.23,1.06-.15,.42,.14,.78,.02,1.16-.02,.7-.07,1.4-.18,2.1-.22,.42-.03,.87-.2,1.26,.02,.04,.02,.17,0,.21-.02,.44-.29,.91-.13,1.37-.13,.34,0,.67-.03,1.03-.18,.35-.14,.94-.21,1.28-.11,.45,.13,.86,.05,1.27,.02l7.32-.45c1.15-.07,2.28-.35,3.46-.31,.28,0,.58-.1,.84,.07,.05,.03,.27,0,.36-.04,.31-.17,.63-.11,.99-.12,1.63-.01,3.29,.07,4.9-.05,.63-.04,1.25-.04,1.87-.02l1.86,.1c.41,0,.82,.18,1.24,.25,.4,.07,.82,.11,1.23,.14,.24,.01,.48,.12,.74,.02,.14-.05,.49-.02,.62,.07,.44,.29,.96,.28,1.44,.41,1.39,.32,2.78,.69,4.1,1.22,.33,.13,.73,.18,.94,.49,.03,.04,.24,.07,.36,.1,.13,.04,.31,.05,.39,.13,.36,.33,.78,.55,1.19,.77,.41,.23,.85,.44,1.25,.68,1.93,1.22,3.76,2.59,5.41,4.15,.45,.45,1,.68,1.42,1.14,.42,.43,.85,.85,1.23,1.31,.28,.32,.65,.59,.72,1.05,.02,.12,.22,.36,.34,.42,.48,.22,.68,.73,1.01,1.11,.41,.46,.6,1.09,1.12,1.48,.14,.11,.2,.44,.3,.67,.18,.4,.37,.79,.57,1.17,.09,.19,.23,.35,.31,.55,.69,1.47,1.07,3.13,1.05,4.81,.02,1.73-.56,3.42-1.37,4.89-.83,1.48-1.9,2.77-3.11,3.89-.45,.42-.84,1-1.48,1.12-.32,.51-.78,.72-1.3,.84-.07,.02-.17,.19-.26,.29-.28,.31-.44,.78-1.01,.75-.02,0-.06,.04-.09,.06-.34,.16-.38,.6-.9,.67-.32,.04-.71,.33-1.06,.52-.36,.2-.74,.38-1.09,.59-.36,.22-.84,.3-1.08,.7-.04,.06-.4,.04-.56,.13-.82,.47-1.8,.64-2.54,1.28-.17,.15-.48,.27-.72,.29-.84,.09-1.5,.49-2.26,.83-.99,.48-2.11,.87-3.22,.89-.24,0-.35-.02-.54,.15-.12,.11-.38,.17-.59,.23-2.29,.67-4.61,1.23-6.95,1.68-.64,.13-1.27,0-1.91,.21-.26,.08-.6,.02-.79,.26-.03,.03-.14,.07-.19,.06-.82-.1-1.56,.34-2.36,.36-.17,0-.34-.02-.51-.02-.17,0-.38-.04-.52,.02-1.17,.45-2.45,.36-3.67,.55-.42,.07-.89-.04-1.24,.24-.05,.04-.24,.05-.32,.02-.74-.24-1.51,.04-2.26,0-.38-.02-.81,.16-1.16-.06-.04-.03-.2,0-.29,.02-.16,.03-.32,.12-.48,.12-.44,0-.93-.13-1.32-.04-.48,.11-.94,.06-1.4,.07-.27,0-.53-.11-.8-.14-.25-.03-.52,0-.78-.02-.37-.01-.76,.02-1.11-.04-.36-.07-.66,.18-1.06,0-.3-.15-.67,.06-1.02,.07-.17,0-.36-.04-.53-.07-.13-.03-.25-.12-.37-.12-.28,0-.54-.07-.85,.01-.21,.06-.56-.11-.86-.16-.29-.04-.59-.06-.89-.08-.3-.03-.61-.12-.88-.1-1.21,.12-2.4-.19-3.58-.36-.31-.04-.67-.01-.9-.26-.04-.05-.21-.08-.31-.07-1.17,.08-2.3-.36-3.45-.54-.82-.13-1.64-.19-2.45-.42-.79-.23-1.59-.51-2.38-.61-.65-.1-1.29-.21-1.88-.44-.58-.22-1.29,.01-1.76-.53-.6-.2-1.21-.38-1.81-.6-.5-.19-1.04-.29-1.46-.67-.15-.14-.5-.26-.72-.26-.71-.01-1.28-.32-1.87-.67-.14-.08-.37-.06-.54-.12-.53-.19-1.05-.4-1.55-.64-1.5-.72-3.08-1.18-4.58-1.89-.27-.13-.65-.13-.88-.29-1.35-.97-2.97-1.5-4.32-2.45-1.98-1.39-4.12-2.47-6.08-3.87-.26-.18-.43-.51-.58-.55-.47-.13-.82-.55-1.2-.67-.7-.21-1.15-.76-1.74-1.11-.43-.26-.75-.71-1.27-.8-.07-.01-.21-.12-.26-.2-.43-.63-1.2-.84-1.69-1.4-1.24-.69-2.16-1.82-3.2-2.79-.15-.15-.33-.25-.5-.38-.08-.07-.2-.13-.24-.21-.65-1.16-1.7-2.05-2.37-3.27-.23-.38-.37-.83-.56-1.26-.21-.4-.43-.89-.43-1.36,.02-.16-.08-.44-.15-.64-.11-.27-.13-.57-.11-.84,.02-.27,.06-.5,.2-.7,.24-.39,.54-.51,.84-.41,.22,.07,.19,.27,.24,.48,.03,.19,.1,.38,.16,.57,.05,.19,.07,.37,.13,.59,.04,.17,.05,.35,.11,.52,.08,.17,.18,.32,.34,.43,.05,.03,.1,.19,.11,.28,.05,.32,.2,.62,.35,.91,.17,.28,.36,.55,.46,.84,.16,.45,.47,.77,.7,1.15,.2,.32,.55,.54,.64,.96,.03,.14,.4,.32,.59,.5l1.3,1.35c1.28,1.4,2.91,2.38,4.34,3.61,1.23,.62,2.2,1.65,3.38,2.31,1.42,.8,2.74,1.75,4.15,2.54,.29,.16,.51,.31,.73,.52,.14,.14,.29,.29,.46,.39l2,1.17c.35,.21,.83,.31,1.02,.72,.03,.06,.19,.15,.28,.15,.73,.08,1.3,.56,1.95,.86,.24,.12,.47,.24,.69,.45,.24,.23,.69,.44,1.04,.5,.26,.04,.46,.14,.68,.23,.94,.34,1.77,1.02,2.79,1.11,.36,.46,.98,.62,1.48,.76,1.93,.53,3.73,1.4,5.63,2.02,.46,.14,.88,.41,1.34,.58,.48,.18,.97,.34,1.47,.48,.27,.07,.54,.25,.81,.11,.02-.01,.07,0,.1,0,.27,.12,.53,.27,.81,.34,.25,.06,.52,0,.78,.03,.31,.04,.63,.12,.94,.19,.3,.07,.63,.11,.83,.35,.29-.16,.61,.04,.91,.1,.29,.05,.57,.13,.86,.19l.96,.22c.32,.07,.64,.17,.97,.21,.45,.05,.9,.06,1.34,.12,.47,.06,.94,.16,1.4,.27,.58,.12,1.15,.28,1.73,.42,.24,.05,.46,.03,.7-.01,.33-.05,.76-.25,1.13,.11,.07,.07,.36,.09,.53,.07,1.29-.15,2.56,.22,3.85,.24,.69,.28,1.38,.17,2.12,.15,1.08-.07,2.22-.05,3.27,.08,1.12,.16,2.22,.05,3.32,.08,.31,.01,.64-.09,.92,.11,.06,.05,.3,.02,.42-.02,.89-.26,1.76-.25,2.68-.18,.49,.04,1.03-.08,1.55-.22,.78-.21,1.66-.18,2.5-.3,.39,.22,.64-.08,.81-.22,.23-.18,.45-.24,.75-.28,.38-.06,.75-.07,1.1-.29,.18-.11,.6-.16,.82-.1,.29,.08,.39,.01,.62-.11,.28-.15,.62,.04,.99-.04,.39-.08,.83-.29,1.23-.09,.04,.02,.16,0,.21-.04,.68-.43,1.49-.16,2.19-.45,2.24-.17,4.36-1,6.52-1.54,.89-.23,1.84-.32,2.65-.75,1.71-.87,3.54-1.41,5.23-2.26,.36-.18,.72-.48,1.16-.41,.06,0,.22-.08,.28-.15,.42-.5,.98-.68,1.57-.84,.15-.04,.38-.18,.42-.28,.12-.28,.41-.36,.65-.49,.28-.16,.72-.26,.83-.44,.23-.39,.55-.32,.83-.47,.17-.09,.31-.26,.46-.4,.07-.07,.12-.2,.17-.22,.66-.18,.92-.84,1.45-1.15,.11-.07,.22-.16,.33-.23,1.25-.78,1.31-.77,2.35-2.27,.28-.1,.42-.34,.54-.59,.11-.26,.2-.52,.45-.69,.19-.11,.36-.46,.4-.71,.26-1.05,.74-2.01,.82-3.07,0-.22,.22-.37,.06-.66-.07-.11,.17-.46,.15-.7-.05-.35,.03-.74-.21-1.06-.08-.13-.07-.45-.16-.67-.1-.3-.1-.64-.34-.91-.13-.14-.3-.52-.29-.74,.06-.93-.63-1.5-1.09-2.13-.16-.18-.27-.31-.36-.55-.12-.33-.28-.8-.53-.95-.44-.28-.63-.71-.93-1.07-.52-.63-1.02-1.28-1.6-1.86-.66-.67-1.26-1.39-2.08-1.91-.44-.28-1-.66-1.24-1.23-.03-.06-.3-.09-.42-.18-.91-.75-1.87-1.44-2.83-2.1-.22-.15-.31-.57-.65-.49-.35,.08-.35-.47-.69-.33-.05,.02-.26-.1-.35-.19-.51-.49-1.15-.76-1.78-1.06-.64-.27-1.31-.46-1.94-.76-.31-.11-.71-.11-.89-.42-.87-.01-1.67-.74-2.57-.51-.59-.2-1.27-.06-1.81-.45-.09-.06-.3-.03-.41-.08-.35-.19-.64,.23-1.07-.05-.25-.16-.74-.15-1.13-.18l-1.09-.07c-.4-.02-.8-.06-1.2-.07-.4-.01-.8-.04-1.2-.03-.81,0-1.6,.19-2.43,.12-.09,0-.24,.03-.28,.07-.28,.38-.69,.16-.97,.06-.24-.09-.44-.12-.69-.12-.7,.02-1.39,.05-2.09,.05-.41,0-.85,.14-1.25-.08-.12-.07-.46-.04-.64,.02-.86,.28-1.78,.19-2.67,.27-.4,.04-.81,.05-1.21,.07-.31,.01-.61,.19-.92,.06-1.48,.39-3.03,.29-4.55,.43-1.51,.13-3.01,.24-4.51,.34-.38,.03-.78,.19-1.14-.03-.07-.04-.34-.01-.41,.05-.21,.16-.36,.24-.63,.09-.05-.03-.25,.03-.36,.08-.3,.13-.57,.14-.9,.09-.25-.04-.59-.04-.83,.04-.63,.22-1.22,.41-1.91,.23-.08-.02-.28,.18-.42,.19-.56,.05-1.1,.27-1.69,.15-.24-.05-.56,.07-.85,.09-.49,.05-.92,.26-1.44,.27-.53,0-1.08,.19-1.62,.29l-1.62,.33-1.62,.35-1.62,.37-1.63,.37-1.63,.36c-.38,.08-.74,.13-1.15,.12-1.03-.03-2.22,.24-3.64,.74-.1,.03-.22,.04-.33,.06-1.43,.27-2.85,.59-4.29,.75-.63,.07-1.27,.08-1.91,.19-.42,.08-.83,.1-1.22,.32-.33,.18-.85,.03-1.22,.33-.14,.11-.53,.16-.74,.12-.69-.14-1.36,.07-2.03,.15-.77,.08-1.55,.19-2.32,.31-.38,.06-.77,.02-1.13,.26-.18,.12-.65,.11-.93,.06-.45-.07-.87,0-1.27,.1-.86,.22-.85,.24-1.72,.2-.1,0-.22,0-.32,.02-1.07,.12-2.17,.15-3.2,.37-.85,.19-1.7,.29-2.55,.38-.34,.04-.72,.19-1.03-.03-.04-.03-.24,0-.32,.03-.68,.35-1.46,.29-2.19,.39-.71,.09-1.3,.41-1.98,.49-.62,.08-1.22,.31-1.51,.51-.2,.15-.25,.16-.4,.19-.14,.02-.36-.02-.68-.13-.27-.09-.4-.2-.43-.42-.04-.22,.09-.54,.44-.89,.79-.71,1.77-.91,2.63-1.08,.88-.16,1.7-.23,2.44-.36Z"/>
        </g>
        <g class="cls-12">
          <g class="cls-12">
            <path class="cls-5" d="M26.81,87.62c-1.81-.69-3.55-1.67-5.19-2.65-1.63-.99-3.2-1.93-4.76-2.55-.34-.14-.7-.28-1.06-.43l.44,.37c3.28,2.85,7.49,5.25,11.74,6.61,2.68,.74,5.49,.99,8.42,1.66,.33,.08,.43-.22,.48-.37-.25-.26-.46-.52-.64-.78-2.38-.3-4.79-.67-7.15-1.5-.76-.31-1.8-.15-2.26-.35Z"/>
            <polygon class="cls-7" points="36.31 89.52 36.27 89.47 35.91 89.42 36.31 89.52"/>
            <path class="cls-4" d="M30.46,88.48c-.8-.17-1.57-.4-2.3-.71-.54-.05-1.07-.02-1.36-.15-1.81-.69-3.55-1.67-5.19-2.65-1.63-.99-3.2-1.93-4.76-2.55-.34-.14-.69-.28-1.05-.43l.47,.4c1.14,.98,2.38,1.92,3.71,2.77l.24,.08c.86,.27,1.46,.85,2.2,1.27,2.22,.93,3.98,1.92,6.3,2.59,.84,.21,1.79,.19,2.75,.48,.33,.09,.65,.19,.95,.31,1.31,.21,2.64,.43,4.01,.74,.33,.08,.43-.22,.48-.37-.13-.14-.25-.27-.36-.41-.54-.14-1.09-.27-1.64-.39-.54-.14-1.09-.29-1.65-.43-.98-.19-1.96-.38-2.93-.67,.03,.04,.07,.08,.13,.13Z"/>
            <path class="cls-7" d="M30.52,88c-.13-.05-.37,.11-.18,.36,.97,.29,1.96,.48,2.93,.67-.92-.28-1.85-.58-2.75-1.03Z"/>
            <path class="cls-9" d="M31,87c-1.77-.71-3.62-1.02-4.96-1.91-.7-.46-1.33-1.02-1.82-1.6-.23-.12-.46-.23-.69-.35-5.8-2.7-11.03-6.74-14.83-11.78-1.95-2.48-4.06-4.57-6.01-7.25-1.03-1.67-1.42-3.23-1.95-5.05-.64-2.29-1.53-4.27-2.43-6.32-.88-2.05-1.79-4.16-2.33-6.57-.29-1.29-1.56-1.34-1.53-1.01,.37,2.09,.8,4.13,1.29,6.13,.51,2,1.09,3.96,1.77,5.89,.7,1.92,1.49,3.81,2.42,5.65,.95,1.83,2.01,3.62,3.24,5.32,3.83,5.27,8.01,9.75,12.62,13.82,.37,.15,.72,.29,1.06,.43,1.57,.62,3.13,1.56,4.76,2.55,1.64,.98,3.38,1.96,5.19,2.65,.46,.2,1.5,.03,2.26,.35,2.36,.82,4.77,1.19,7.15,1.5-.38-.55-.66-1.08-1.06-1.52-1.43-.15-2.88-.37-4.16-.94Z"/>
            <path class="cls-6" d="M31,87c1.28,.57,2.73,.79,4.16,.94-.19-.22-.41-.42-.69-.58-3.18-1.48-6.95-2.34-10.25-3.87,.49,.58,1.12,1.14,1.82,1.6,1.33,.89,3.18,1.2,4.96,1.91Z"/>
            <path class="cls-4" d="M31,87c1.23,.54,2.6,.77,3.97,.92-.43-.18-.87-.33-1.32-.46-2.28-.69-4.6-1.41-6.64-2.62,2.32,1.01,4.72,1.84,7.2,2.39-3.12-1.38-6.78-2.25-9.97-3.73,.49,.57,1.12,1.14,1.82,1.59,1.33,.89,3.18,1.2,4.96,1.91Z"/>
            <path class="cls-3" d="M27.28,85.83c2.61,1.26,5.39,2.24,8.33,2.63-.1-.14-.2-.28-.3-.4-.12-.05-.23-.1-.34-.15-1.37-.15-2.74-.38-3.97-.92-1.77-.71-3.62-1.02-4.96-1.91-.7-.45-1.32-1.02-1.82-1.59-.22-.11-.44-.22-.65-.33-2.96-1.39-5.78-3.09-8.33-5.13-2.47-1.46-4.69-3.71-6.42-6.14,.91,1.06,1.89,2.07,2.94,3.01-1.09-1.1-2.1-2.28-3.04-3.51-.83-1.05-1.68-2.03-2.55-3.01-.39-.05-.84-.25-1.32-.81-.73-.89-1.32-1.85-2.14-2.73-.08-.14,.14-.23,0-.52,.43,.79,.93,1.35,1.5,1.75-.52-.61-1-1.26-1.5-1.92-.82-1.3-1.22-2.56-1.63-3.91-.08-.13-.14-.27-.21-.4-.32-.68-.78-1.32-1.18-1.99,.1,.29,.2,.59,.33,.9-.34-.41-.53-1.02-.7-1.48,.12,.19,.25,.39,.37,.58-.25-.71-.49-1.38-.72-2.14,.27,.93,.77,1.79,1.18,2.51-.66-1.64-1.34-3.13-1.6-4.86l.08,.11c-.99-2.26-2.04-4.58-2.65-7.26-.29-1.29-1.56-1.34-1.53-1.01,1.03,5.82,2.48,11.32,4.94,16.52-.13-.65-.23-1.31-.35-1.98-.08-.28-.13-.55-.14-.82,.05,.27,.1,.54,.14,.82,.19,.75,.57,1.51,.82,2.32,0,.18,.19,.63,.49,.71,.35,1.1,1.17,2.2,1.59,3.27,.03,.06,.03,.19,.03,.35,.4,.61,.81,1.2,1.23,1.8,2.4,3.29,4.92,6.28,7.62,9.04-.58-.74-1.1-1.48-1.5-2.23-.53-1.02-2.32-2.56-3.62-4.09-.35-.37-.34-.75-.62-1.15,1.55,1.01,2.59,3.01,4.02,4.41,1.82,1.88,4.21,4.81,6.81,6.13,1.05,.55,1.82,1.38,2.47,2.13-.38-.06-.91-.46-1.18-.65-2.4-1.75-4.63-3.7-6.81-5.73,1.99,2.41,4.42,4.2,6.76,6.28-1.56-1-2.72-2.4-4.27-3.22,.07,.14,.15,.27,.24,.4,.88,.84,1.78,1.65,2.68,2.47,.36,.15,.71,.29,1.05,.43,1.57,.62,3.13,1.56,4.76,2.55,1.64,.98,3.38,1.96,5.19,2.65,.29,.13,.82,.1,1.36,.15-1.16-.45-2.25-1.03-3.38-1.54,.41,.29,.81,.56,1.15,.9-1.11-.41-1.81-1.15-2.88-1.62,.59,.22,1.17,.45,1.73,.72-.62-.43-1.32-.79-1.98-1.23,1.46,.46,2.45,1.64,4.04,1.86-.3-.12-.59-.26-.88-.41l.9,.42h-.02c.92,.36,1.9,.58,2.79,.72-1.61-.54-2.9-1.43-4.41-2.09l-.76-.32c.26,.1,.51,.2,.76,.32,3.5,1.43,6.98,3.01,10.69,3.93l.36,.05-.25-.37c-3.05-.72-6.06-1.83-8.75-3.27Z"/>
          </g>
        </g>
      </g>
    </g>
  </g>
</svg>