<?xml version="1.0" encoding="UTF-8"?>
<svg id="_Слой_2" data-name="Слой 2" xmlns="http://www.w3.org/2000/svg" xmlns:xlink="http://www.w3.org/1999/xlink" viewBox="0 0 140.7 183.52">
  <defs>
    <style>
      .cls-1 {
        fill: none;
      }

      .cls-2 {
        clip-path: url(#clippath);
      }

      .cls-3 {
        fill: #f3f9fb;
      }

      .cls-4 {
        fill: #f7fbfc;
      }

      .cls-5 {
        fill: #f8fcfd;
      }

      .cls-6 {
        fill: #f4fafb;
      }

      .cls-7 {
        fill: #f5fafb;
      }

      .cls-8 {
        fill: #eab7c9;
      }

      .cls-9 {
        fill: #fbfdfe;
      }

      .cls-10 {
        fill: #e29fb4;
      }

      .cls-11 {
        fill: #6e7c6e;
      }

      .cls-12 {
        opacity: .49;
      }

      .cls-13 {
        opacity: .8;
      }
    </style>
    <clipPath id="clippath">
      <rect class="cls-1" width="140.7" height="183.52"/>
    </clipPath>
  </defs>
  <g id="_лепестки" data-name="лепестки">
    <g class="cls-2">
      <g>
        <g>
          <g class="cls-12">
            <path class="cls-11" d="M66.86,76.34c-9.71,10.54-27.51,13.17-44.6,6.59,8.1-15.75,20.44-28.29,32.67-40.68,3.41-3.45,6.92-6.97,11.76-8.63,4.84-1.66,11.35-1.1,16.52,2.88,.91,.7,1.79,1.54,2.21,2.53,.43,1.03,.28,2.03,.13,2.97-1.41,8.43-2.86,16.96-6.6,24.11-3.74,7.15-10.11,12.88-18.88,13.88"/>
            <path class="cls-11" d="M64.54,80.94c-.56,.49-1.14,.82-1.67,1.18-.53,.35-1.01,.72-1.49,1.08-.15,.11-.07,.66-.29,.77-.85,.41-1.48,1.38-2.59,1.18-1.19-.21-2.06,.17-2.82,.84-.71,.65-1.58,.87-2.4,1.22-.27,.12-.53,.3-1-.19-.34-.36-.75-.3-.88,.53-.02,.16-.19,.04-.3,0-.12-.05-.31-.34-.36-.21-.59,1.32-1.68,.61-2.48,1.05-.21,.11-.49-.18-.56,.62-.02,.2-.23,.26-.32,.09-.24-.46-.42-.54-.62-.51-.9,.12-1.8,.25-2.7,.28-.38,1.03-.92,.6-1.39,.61-.36,.01-.73-.33-1.08-.51-.36-.17-.74,.44-1.08-.45-.05-.14-.19,.12-.29,.14-.44,.06-.92,.37-1.33,.03-.21-.18-.41-.35-.63-.35-2.74-.22-5.48-.53-8.16-1.12-.25-.05-.4-.21-.84,.3-.36,.39-.98,.28-1.07-.22-.12-.79-.56-.6-.9-.76-.6-.26-1.33-.36-1.92-.63-.33-.15-1.21,.11-.67-.77,.05-.08-.06-.11-.18-.05-1.29,.61-.97-.16-1.2-.38-.19-.17-.47-.25-1.35-.05-.86,.2-1.56,.03-1.2-.38,.22-.26,.22-.39,.1-.47-.06-.04-.14-.07-.23-.09-.07-.03-.24-.03-.2-.1l.03-.06c1.12-1.98,2.15-3.87,3.2-5.78,.24-.45,.26-.97,.38-1.52,.1-.53,.35-1.15,.7-1.38,.18-.13-.02-.53,.69-.31,.14,.05,.16-.14,.05-.29-.41-.55-.07-.62,.1-.83,.81-.95,1.8-1.78,2-3.12,.17-1.04,.88-1.67,1.3-2.52,.14-.29,.72-.25,.99-.44,.26-.19,.41-.46,.56-.73,.09-.16,.36-.19,.02-.67-.18-.26-.09-.53,.17-.46,.88,.22,.85-.28,1.1-.56,.7-.8,1.31-1.68,2.02-2.47,.18-.19,.04-.68,.86-.31,.11,.05,0-.24-.01-.37,0-.13-.12-.39,.02-.37,1.31,.2,1.26-.78,1.76-1.28,1.19-1.22,2.17-2.61,3.42-3.77,.35-.32,.07-1.14,.41-1.45,.33-.3,.57-.68,.92-.97,.25-.2,.18-.72,1.03-.33,.23,.11,.38-.07,.27-.29-.41-.86,.19-.83,.34-1.19,.19-.44,.91-.4,.54-1.36-.1-.26,.42-.09,.57-.2,.27-.18,.51-.39,.69-.65,.09-.12-.05-.46,.04-.59,.65-1,1.27-2.04,2.02-2.94,.76-.93,1.65-1.73,2.48-2.58,.83-.85,1.62-1.75,2.53-2.52,.34-.29,.19-1.12,1.34-.57-.23-.8,.34-.75,1.18-.43,.12,.05-.03-.29-.04-.43,0-.44-.67-1.51,.51-.81,.04,.03,.03-.05,.06-.05,.33-.06-.47-1.16,.36-.84,.52,.2,.63-.2,.88-.38,.26-.18,.53-.36,.69-.66,.17-.31,.84-.08,.41-1.04-.07-.16,.58,.21,.65,.08,.41-.68,1.57-.43,1.44-1.83-.03-.32,.22-.46,.51-.38,1.04,.31,1.28-.39,1.71-1.03,.55-.84,1.44-1.48,2.77-.72,.28,.17,.44,.32,.44-.16,0-.32,.23-.35,.4-.41,1.87-.75,3.91-1.21,5.91-1.32,.56-.04,1.07,.92,1.6,.56,.23-.15,.47,.35,.7-.44,.03-.11,.13-.17,.17-.11,.59,.96,1.36-.27,1.99,.2,.13,.11,.23,.31,.35,.43,.12,.12,.24,.38,.38,.27,.6-.47,1.14-.4,1.63-.24,.49,.2,.95,.46,1.48,.52,.37,.04,.53,.65,1.2-.14,.1-.12,.25-.04,.26,.11,.08,1.32,1.05,.79,1.47,1.37,.21,.28,.85-.07,.58,.91-.03,.12,.12,.11,.23,.09,.18-.03,.47-.23,.57-.14,.29,.25,.29,.93,.74,.86,.54-.11,.86,.35,1.22,.64,.22,.18,.09,.67,.19,.92,.1,.24,.33,.38,.49,.57,.23,.27,.59,.5,.58,.89-.02,.28,.52,.27,.65,.5,.05,.09,.03,.21-.11,.37-.4,.44,.58,.48,.76,.83,.08,.16,0,.38-.09,.57-.07,.15-.38,.32-.35,.43,.06,.27-.13,.53,.28,.81,.28,.21-.31,.57-.42,.84-.11,.26-.11,.6-.15,.79-.04,.22-.27,.42-.08,.66,.86,1.04,.1,1.83,.07,2.73,0,.23,.29,.56-.59,.6-.16,0-.19,.14-.11,.22,1.04,1.05-.07,1.76,.1,2.68,.13,.66,.46,1.35,.22,1.96-.22,.59-.6,1.16-.32,1.84,.23,.56,.42,1.12,.09,1.54-.32,.41,1.24,1.29-.29,1.39-.12,.48-.2,.97-.4,1.42-.17,.38,.09,.9-.85,1.05-.34,.05-.4,.33-.18,.57,.72,.77,.3,1.18-.3,1.53-.14,.08,.22,.37,.18,.52-.09,.43-.19,.88-.46,1.25-.8,1.09-.4,2.68-.97,3.93-.11,.22,.39,.78,.12,.9-1.57,.71-1.29,2.49-2.58,3.31-1.88,1.14-2.55,3.11-4.11,4.45-.2,.17-.91-.14-.85,.09,.2,.74-.52,.63-.42,1.21,.17,1.06-.68,1.01-.99,1.54-.23,.4-.94,.23-.67,1.26,.04,.15-.1,.22-.23,.17-1.06-.38-.78,1.12-1.59,1.1-.21,.82-.72,1.22-1.3,1.5-.57,.3-1.2,.46-1.73,.83-.16,.11-.22,.41-.34,.62-.06,.1-.1,.29-.21,.25-.78-.34-1.34-.2-1.88,.05-.54,.23-1.07,.54-1.68,.55-.4,.02-.85-.24-1.24-.27-.4-.04-.73,.34-1.21-.32-.15-.21-.34-.06-.48,.05-.78,.62-1.63-.86-1.9-3.38-.11-.91,.03-.99,.14-1.35,.21-.7,.41-1.16,.75-1.14,.27,.02,.61,.24,.66-.68,0-.15,.13-.15,.21-.05,.61,.68,.95-.04,1.5,.34,.43,.3,.7,.11,1.06,.17,.3,.04,.4-.5,.94,.16,.19,.22,.19-.52,.35-.62,.38-.26,.76-.49,1.21-.56,.68-.16,1.18-.67,1.61-1.23,.22-.28,.43-.56,.67-.79,.23-.25,.48-.46,.79-.59,.05-1.45,1.42-1.27,1.72-2.33,.17-.62,.47-1.08,.83-1.49,.33-.44,.71-.83,.93-1.36,.09-.22,.22-.34,.57-.33,.23,.01,.48,.02,.57-.08,.34-.41,.57-.91,.95-1.3,.2-.22-.13-.79,.92-.46,.15,.05,.2-.08,.12-.19-.68-.95,.12-1.07,.25-1.57,.05-.19,.16-.34,.6-.35,.47-.01,.6-.36,.35-.74-.18-.28-.13-.43-.14-.62-.03-.78,1.26-1.04,.32-2.17,1.2,.09,1-.49,.88-.93-.49-1.68,.66-2.78,.86-4.23,.04-.35,.62-.55,.79-.87,.19-.34,.24-.71,.29-1.09,.02-.2,.44-.34-.33-.69-.06-.03-.09-.07-.07-.09,.18-.18,.53-.32,.52-.53-.01-.2-.51-.49-.62-.71-.12-.26-.09-.5-.06-.73,.03-.22-.1-.5,.66-.52-.86-.36-.36-.52-.38-.76-.02-.22,.07-.42,.12-.63l.14-.71c.05-.24,.16-.47,.12-.72-.06-.35-.33-.73-.36-1.07-.03-.36,.03-.71,.19-1.04,.19-.41,.55-.8,.78-1.2,.1-.17-.1-.36-.39-.59-.38-.31-1.26-.76,.01-.86,.25-.02,.22-.24,.08-.39-.28-.29-.41-.55-.45-.81-.02-.13-.02-.25,0-.37,.01-.12,.05-.27,.06-.25,.08-.09,.28-.22,.1-.31,.98-.25,.35-.39,.04-.39h-.1c-.4-.04-.5-.01-.24-.49,.07-.14,.09-.24,.07-.32,0-.04-.02-.07-.03-.1-.05-.06-.12-.11-.18-.16-.26-.19-.52-.38-.74-.63-.12-.15-.47,.05-.17-.76,.07-.19-.08-.22-.22-.14-.91,.52-1.2,.09-1.49-.67-.15-.41-.61-.17-1.01,.02-.6,.32-.96-.19-1.46-.29,.03-1.07-.38-.08-.57,.35-.26,.57-.4,.66-.56,.64-.2-.02-.39-.24-.67,.42-.14,.33-.34,.22-.42-.15-.1-.49-.18-.27-.33,.04-.17,.38-.29-.62-.5-.57-.23,.05-.45,.58-.68-.52-.02-.1-.09-.08-.12,0-.18,.57-.38,.46-.6,.26-.22-.18-.46-.43-.63-.17-.69-.53-1.37-.45-1.94-.22-.58,.21-1.14,.62-1.83,.68-.56,.07-1.48-.37-1.73,.36-.47,1.5-1.84,1.59-2.72,2.58-.18,.21-.09,.78-.98,.14-.12-.09-.21,.01-.17,.15,.34,1.01-.16,1.05-.92,.86-.19-.05-.32,.1-.18,.34,.37,.65,.02,.58-.13,.71-.18,.15-.86-.09-.7,.27,.34,.77-.4,.27-.67,.33-.17,.04-.13,.3-.16,.49-.01,.09,.16,.38,.07,.36-.98-.3-.38,.96-.98,1.04-.13,.02-.19,.11-.34,.11-1.64-.03-1.65-.03-2.22,1.41-1.2-.63-.16,1.04-1.16,.64-.37-.14-.52,.13-.47,.45,.22,1.4-1.03,1.4-1.39,2.24-.07,.18-.79-.33-.44,.32,.13,.25-.62-.08-.74,.08-.17,.23-.71,.12-.3,.91,.17,.32-.2,.31-.28,.5-.11,.25-.52,.21-.19,.89,.18,.37-.04,.61-.39,.49-1.47-.48-.98,.83-1.04,1.61-.02,.24-.01,.42-.3,.42-.4,0-.94,0-.78,.43,.28,.77-.19,.82-.4,1.12-.36,.51-.89,.88-1.23,1.41-.39,.6-1.14,.88-1.1,1.88,.02,.54-.05,1.14-1.19,.69-.13-.05,.24,.5,.17,.59-.56,.69-1.1,1.39-1.75,2-.15,.14-1.16-.43-.59,.31,.61,.78-.99-.29-.21,.59,.11,.13-.02,.26-.16,.26-1.6,.01-1.55,1.44-2.45,2.06-.21,.15-.03,.67-.91,.21,.45,1.17-1.74,.35-.76,1.91-.51,.18-.07,1.13-1.26,.77-.19-.06-.06,.24-.25,.2-.63-.13,.68,1.08-.25,.79-.54-.16-.51,.32-.71,.53-.18,.2-.31,.43-.47,.65l-.51,.72c-.17,.24-.4,.44-.5,.72-.21,.58,.06,1.46-.51,1.79-.06,.04-.01,.2,.12,.32,1.14,1.01,.28,.78-.2,.71-.4-.06-.63-.04-.72,.12-.27,.42-.49,.88-.83,1.25-.21,.22,.04,.75-.92,.48-.14-.05-.25,.01-.27,.06-.01,.03,.03,.1,.11,.17,.37,.34,.44,.42,.39,.48-.04,.06-.19,.1-.15,.18,.04,.07-.03,.12-.1,.18-.06,.06,.68,.09-.07,.13,.66,.09,.79,.08,.72,.15-.06,.06-.33,.19-.27,.23,.02,0,.03,.01,.04,.02,.21,0,.23,.07,.3,.15,.04,.03,.48-.35-.38,.46-.16,.16-.1,.16,.08,0,.5-.43,.7-.67,.17-.05-.1,.11,.06,0,.17-.12,.32-.33,.29-.29,.1,.04-.15,.26-.17,.44-.02,.26,.42-.48,.5-.96,.32,.08-.01,.13,.2-.52,.2-.48,.27,.19,.81-.25,1.01,.62,.09,.36,.36,.16,.54,.3,.3,.23,.72-.29,1.01,.08,.3,.37,.73,.18,1.1,.24,.37,.05,.74,.13,1.12,.16l1.12,.1,1.12,.1c.37,.05,.75,.05,1.12,.05,.37,0,.75,0,1.12,.03,.26,.02,.5,.14,.77,.54,.68,1.02,1.55,.82,2.51-.02,.07-.06,.15-.01,.22-.02,.98-.08,1.91-.4,2.92-.22,.43,.05,.93,.41,1.35,.26,.27-.1,.58,0,.73-.67,.12-.56,.65,.28,.69-.72,.02-.36,.27-.41,.46-.17,.65,.8,.98,.2,1.43,.17,.53-.02,1-.26,1.47-.48,.23-.11,.58,.1,.55-.71-.02-.4,.36-.25,.65,0,.44,.35,.67,.15,.83-.16,.34-.65,.29-.72,1.05-.43,.09,.04,.16,0,.22-.02,.63-.29,1.42-.35,1.79-1.08,.31-.59,.71-.94,1.16-1.26,.18-.13,.12-.63,.85,.09,.1,.1,.2,.02,.17-.11-.24-1.12,.43-.99,.8-1.29,.34-.31,.1-1.22,.57-1.35,.44-.15,.63-.57,.93-.86,.46-.44,1-.13,3.02,1.72,1.66,1.53,1.88,2,1.74,2.8-.15,.85-.62,1.43-1.15,1.87-.55,.42-1.13,.74-1.5,1.22Z"/>
          </g>
          <g>
            <path class="cls-10" d="M70.11,52.69c-9.71,10.54-27.51,13.17-44.6,6.59,8.1-15.75,20.44-28.29,32.67-40.68,3.41-3.45,6.92-6.97,11.76-8.63,4.84-1.66,11.35-1.1,16.52,2.88,.91,.7,1.79,1.54,2.21,2.53,.43,1.03,.28,2.03,.13,2.97-1.41,8.43-2.86,16.96-6.6,24.11s-10.11,12.88-18.88,13.88"/>
            <path class="cls-10" d="M66.95,56.19c-.53,.46-1.08,.79-1.59,1.14-.51,.33-.97,.68-1.46,.98-.15,.09-.26,.3-.46,.41-.8,.41-1.53,1.02-2.41,1.21-.94,.21-1.78,.64-2.61,1-.78,.36-1.57,.65-2.38,.9-.27,.08-.54,.18-.87,.12-.25-.05-.65,.05-.9,.31-.05,.05-.18,.05-.28,.05-.1,0-.23-.04-.3,0-.75,.46-1.65,.38-2.47,.61-.2,.05-.44,.02-.59,.23-.04,.05-.24,.09-.31,.05-.18-.1-.34-.11-.54-.08-.86,.09-1.72,.23-2.59,.26-.41,.27-.9,.18-1.35,.2-.34,.01-.69-.06-1.03-.09-.34-.03-.71,.1-1.04-.12-.05-.04-.18,.03-.28,.03-.43,0-.88,.08-1.28-.02-.21-.05-.41-.09-.62-.1-2.67-.2-5.33-.5-7.94-1.09-.23-.05-.44-.12-.71-.04-.21,.07-.63-.01-.78-.17-.25-.24-.54-.24-.81-.33l-1.52-.44c-.3-.1-.67-.07-.86-.39-.02-.03-.11-.06-.15-.04-.41,.14-.66-.18-.98-.32-.23-.11-.47-.19-.77-.16-.34,0-.98-.2-1.17-.4-.12-.13-.27-.21-.44-.28l-.27-.09s-.1-.03-.13-.05l.06-.12,1.47-2.71c.43-.81,.91-1.59,1.36-2.38,.42-.76,.69-1.59,1.23-2.29,.13-.16,.17-.41,.42-.47,.05-.01,.12-.17,.12-.25,0-.29,.17-.46,.32-.68,.71-.99,1.47-1.97,2.03-3.04,.45-.83,1.02-1.54,1.53-2.31,.17-.26,.46-.43,.66-.67,.2-.23,.38-.48,.55-.73,.1-.15,.25-.26,.25-.49,0-.12,.14-.34,.25-.39,.38-.16,.54-.51,.78-.79,.67-.82,1.3-1.66,1.98-2.46,.17-.2,.27-.49,.59-.53,.04,0,.08-.16,.13-.25,.05-.09,.08-.23,.15-.27,.66-.34,.98-1,1.44-1.52,1.12-1.26,2.19-2.57,3.35-3.79,.32-.34,.45-.78,.77-1.11,.31-.32,.59-.66,.9-.97,.22-.22,.37-.53,.73-.6,.1-.02,.25-.19,.27-.29,.07-.41,.42-.61,.65-.9,.28-.35,.7-.6,.83-1.08,.04-.13,.28-.21,.42-.34,.23-.22,.45-.44,.66-.68,.1-.11,.14-.28,.24-.39,.77-.88,1.52-1.77,2.32-2.62,.81-.87,1.65-1.71,2.49-2.56,.83-.85,1.65-1.71,2.51-2.53,.32-.31,.54-.78,1.04-.86,.16-.42,.49-.6,.89-.71,.06-.02,.09-.17,.14-.26,.16-.27,.14-.69,.62-.69,.02,0,.04-.04,.06-.06,.23-.16,.13-.54,.53-.64,.25-.06,.46-.35,.69-.55,.23-.2,.46-.41,.67-.63,.22-.23,.57-.35,.63-.73,.01-.06,.3-.08,.4-.18,.5-.51,1.2-.78,1.58-1.44,.09-.15,.3-.29,.47-.35,.62-.19,1.03-.6,1.54-.99,.65-.53,1.45-.99,2.33-1.05,.19,0,.28,0,.39-.16,.08-.11,.27-.18,.42-.24,1.7-.68,3.52-1.09,5.34-1.18,.5-.04,.96,.2,1.47,.12,.21-.04,.45,.1,.63-.09,.03-.03,.11-.04,.15-.02,.59,.26,1.22,.01,1.82,.19,.12,.04,.24,.11,.36,.16,.13,.05,.26,.13,.38,.12,.97-.1,1.86,.37,2.76,.62,.31,.09,.59,.33,.95,.22,.05-.02,.18,.05,.23,.1,.39,.49,1.03,.55,1.49,.9,.24,.16,.6,.21,.7,.55,.01,.04,.12,.08,.2,.11,.12,.04,.27,.04,.37,.11,.28,.2,.49,.53,.78,.64,.36,.13,.61,.39,.89,.62,.16,.13,.24,.36,.37,.52,.13,.16,.28,.3,.42,.45,.19,.22,.42,.45,.53,.72,.1,.27,.45,.39,.42,.78-.03,.28,.27,.5,.34,.8,.04,.14,.02,.31,0,.45-.01,.11-.09,.22-.09,.32,.01,.23-.05,.44,.03,.68,.06,.17-.12,.44-.17,.65-.05,.22-.08,.44-.11,.66-.04,.22-.12,.45-.1,.65,.1,.91-.2,1.77-.32,2.66-.03,.23,0,.5-.24,.66-.04,.03-.07,.16-.06,.23,.15,.89-.25,1.71-.33,2.58-.05,.61-.06,1.23-.22,1.84-.14,.59-.35,1.19-.37,1.79-.02,.49-.06,.98-.22,1.43-.16,.44,.14,.98-.32,1.33-.11,.46-.23,.92-.38,1.38-.12,.38-.14,.8-.46,1.11-.12,.11-.19,.38-.17,.55,.07,.55-.15,.99-.42,1.43-.06,.1-.01,.28-.05,.42-.12,.4-.26,.81-.43,1.19-.52,1.14-.78,2.37-1.31,3.51-.1,.21-.06,.51-.19,.68-.79,1-1.19,2.25-2,3.22-1.2,1.4-2.18,2.94-3.49,4.24-.17,.17-.47,.22-.51,.34-.12,.37-.53,.53-.65,.83-.23,.53-.73,.76-1.1,1.13-.27,.28-.67,.42-.81,.82-.02,.06-.13,.13-.2,.15-.59,.15-.85,.75-1.39,.95-.37,.42-.83,.71-1.32,.96-.48,.27-.98,.48-1.47,.72-.14,.08-.26,.2-.39,.29-.07,.05-.14,.12-.21,.13-.52,.04-.99,.2-1.46,.39-.47,.18-.95,.34-1.44,.45-.32,.08-.66,.06-.98,.1-.33,.04-.65,.19-.99,.07-.1-.04-.29,.02-.42,.06-.73,.24-1.34-.08-1.42-.7-.03-.23,.12-.26,.26-.37,.28-.21,.55-.36,.9-.39,.28-.02,.59-.02,.79-.29,.03-.05,.16-.07,.23-.05,.51,.09,1-.18,1.46-.19,.36,0,.67-.11,1-.18,.28-.07,.5-.28,.84-.19,.11,.03,.31-.23,.49-.31,.41-.21,.83-.42,1.26-.58,1.29-.57,2.33-1.53,3.47-2.32,.62-.81,1.56-1.29,2.19-2.08,.38-.46,.76-.93,1.17-1.36,.38-.46,.78-.9,1.11-1.39,.14-.2,.26-.35,.45-.48,.12-.08,.26-.17,.35-.29l.97-1.4c.17-.25,.23-.62,.6-.71,.05-.01,.12-.13,.12-.2,.03-.56,.42-.96,.65-1.43,.08-.18,.17-.35,.36-.5,.2-.16,.35-.5,.38-.76,.02-.2,.08-.35,.13-.52,.23-.7,.78-1.3,.75-2.1,.41-.24,.48-.73,.55-1.11,.27-1.47,.9-2.82,1.25-4.26,.08-.35,.3-.66,.42-1.01,.12-.36,.21-.74,.29-1.11,.05-.2,.19-.41,.03-.61-.01-.02-.01-.05,0-.07,.08-.2,.21-.4,.24-.61,.03-.19-.06-.39-.06-.59,0-.24,.05-.48,.1-.71,.05-.23,.05-.48,.27-.62-.19-.22-.02-.46,0-.69,.03-.22,.08-.43,.13-.65l.14-.73c.05-.24,.11-.48,.14-.73,.03-.34,.01-.68,.05-1.01,.04-.35,.11-.71,.19-1.05,.11-.43,.25-.86,.37-1.29,.05-.18,.02-.34-.03-.54-.07-.25-.25-.59,.11-.85,.07-.05,.09-.27,.07-.39-.18-.98,.32-2,.26-2.75,.25-.42,.05-.81-.15-1.12-.28-.47-.74-.97-1.17-1.54-.45-.62-1.17-1.01-1.79-1.49-.18-.13-.43-.18-.48-.46-.01-.06-.16-.15-.26-.16-.67-.12-1.18-.45-1.73-.84-.29-.22-.69-.25-1.07-.32-.58-.06-1.14-.34-1.73-.47-.19-.31-.45-.11-.6-.02-.2,.12-.37,.12-.57,.08-.26-.05-.52-.13-.8,.01-.14,.07-.44,.01-.57-.09-.18-.13-.26-.08-.44-.01-.21,.09-.42-.18-.68-.17-.28,.01-.61,.14-.87-.13-.02-.02-.11-.02-.15,0-.51,.3-1.06-.06-1.57,.13-1.62-.11-3.09,.63-4.57,1.19-.61,.24-1.31,.38-1.81,.82-1.04,.93-2.26,1.6-3.31,2.54-.22,.2-.4,.52-.77,.49-.05,0-.15,.09-.17,.16-.17,.48-.54,.72-.98,.91-.11,.05-.25,.19-.26,.28-.01,.26-.22,.36-.37,.5-.18,.17-.52,.28-.56,.45-.08,.36-.36,.33-.56,.47-.12,.09-.2,.24-.29,.37-.04,.06-.05,.18-.09,.2-.5,.18-.6,.75-1.01,1.03-.09,.06-.16,.14-.25,.19q-1.01,.6-1.9,1.72c-.51,.05-.49,.72-.96,.85-.17,.05-.37,.28-.46,.46-.39,.81-1.16,1.28-1.7,1.95-.11,.14-.36,.09-.4,.37-.01,.11-.35,.18-.49,.33-.19,.21-.48,.34-.53,.69-.02,.14-.24,.28-.36,.43-.16,.2-.4,.33-.45,.64-.03,.17-.26,.41-.43,.47-.72,.24-.91,.91-1.25,1.44-.1,.16-.17,.28-.34,.39-.24,.15-.56,.35-.63,.57-.12,.4-.43,.61-.67,.89-.41,.48-.87,.92-1.27,1.4-.47,.55-1.02,1.02-1.37,1.68-.19,.35-.47,.8-.97,.92-.05,.01-.05,.25-.13,.34-.6,.68-1.17,1.38-1.78,2.05-.14,.15-.51,.14-.46,.44,.05,.31-.46,.17-.34,.49,.02,.05-.11,.19-.19,.25-.91,.62-1.43,1.61-2.16,2.39-.17,.19-.26,.49-.58,.5-.19,.68-1.08,.9-1.14,1.67-.35,.32-.46,.87-.97,1.05-.08,.03-.12,.2-.21,.24-.29,.14-.04,.55-.43,.69-.23,.08-.39,.42-.57,.66l-.48,.67-.53,.74c-.18,.25-.37,.48-.52,.74-.32,.52-.5,1.11-.91,1.58-.04,.05-.08,.16-.06,.21,.2,.38-.15,.52-.36,.63-.17,.09-.29,.19-.4,.35-.29,.43-.55,.88-.85,1.31-.18,.25-.25,.59-.6,.72-.11,.04-.23,.26-.26,.4-.14,.68-.61,1.18-.91,1.77-.14,.27-.3,.52-.45,.78-.12,.19-.09,.47-.34,.59-.16,.55-.39,1.06-.66,1.55l-.21,.36-.04,.04s-.05,.07-.06,.1c-.02,.03-.01,.06,.04,.06l.1,.03,1.14,.42c.26,.1,.59,.08,.75,.38,.03,.06,.22,.11,.3,.08,.2-.09,.33-.12,.45,.1,.02,.04,.18,.05,.27,.03,.25-.03,.44,.03,.64,.18,.16,.12,.38,.23,.57,.23,.5,0,.97-.02,1.38,.34,.05,.04,.25-.09,.35-.05,.4,.12,.84,.08,1.2,.36,.15,.12,.4,.11,.6,.18,.35,.11,.71,.01,1.07,.15,.37,.14,.79,.14,1.19,.2,.4,.06,.8,.14,1.2,.17l1.21,.11,1.21,.11c.4,.05,.81,.05,1.21,.06l1.21,.03c.28,0,.54,.04,.83,.15,.73,.25,1.62,.16,2.69-.08,.08-.02,.16,0,.24-.01,1.05-.08,2.09-.27,3.14-.31,.46-.05,.93-.02,1.39-.13,.3-.07,.6-.08,.87-.3,.22-.18,.63,0,.86-.33,.09-.11,.36-.18,.52-.15,.52,.1,.98-.14,1.46-.25,.56-.1,1.08-.33,1.61-.52,.26-.1,.55-.12,.75-.39,.1-.13,.43-.18,.65-.17,.33,0,.61-.16,.86-.33,.53-.36,.52-.38,1.15-.5,.08-.01,.15-.05,.22-.08,.7-.33,1.43-.66,2.03-1.12,.51-.37,1-.74,1.51-1.08,.2-.14,.38-.39,.69-.3,.05,.01,.16-.07,.19-.13,.29-.49,.77-.76,1.19-1.09,.4-.34,.63-.79,1.06-1.1,.39-.31,.72-.69,1.07-1.04,.54-.53,.77-.54,1.27-.08,.41,.38,.36,.61-.02,1.14-.4,.56-.87,1.08-1.37,1.51-.52,.41-1.02,.78-1.43,1.16Z"/>
          </g>
          <g class="cls-13">
            <g class="cls-13">
              <path class="cls-5" d="M46.38,74.15c-2.09-.04-4.19-1.01-6.03-.44-.19,.05-.4,.11-.62,.17l.3,.09c2.25,.71,4.76,1.09,7.13,1.08,1.48-.13,2.99-.58,4.6-.41,.18,.02,.22-.29,.24-.45-.15-.21-.28-.43-.39-.66-1.31,.11-2.63,.31-3.98,.23-.44-.06-.97,.43-1.24,.39Z"/>
              <polygon class="cls-7" points="51.65 73.57 51.63 73.52 51.43 73.54 51.65 73.57"/>
              <path class="cls-4" d="M48.42,73.86c-.44,.06-.88,.05-1.3,0-.29,.13-.57,.31-.74,.29-2.09-.04-4.19-1.01-6.03-.44-.19,.05-.4,.11-.62,.17,.11,.03,.21,.07,.32,.1,.78,.24,1.59,.45,2.41,.61l.14-.03c.49-.16,.89,.14,1.34,.2,1.29-.05,2.34,.26,3.63,.18,.46-.02,.96-.36,1.5-.29,.18,0,.36,.03,.53,.06,.71-.09,1.44-.15,2.19-.07,.18,.02,.22-.29,.24-.45-.08-.11-.15-.22-.22-.34-.6-.09-1.21-.1-1.83-.17-.54,.05-1.09,.09-1.64,.09,.02,.03,.05,.06,.08,.08Z"/>
              <path class="cls-7" d="M48.4,73.38c-.08,0-.19,.21-.06,.4,.55,0,1.09-.04,1.64-.09-.52-.05-1.05-.12-1.58-.3Z"/>
              <path class="cls-9" d="M48.55,72.29c-1.05-.21-2.09,.13-2.93-.23-.44-.17-.87-.43-1.23-.78-.15,0-.29-.02-.43-.03-3.58-.06-7.14-.39-10.57-1.29-1.73-.37-3.43-.11-5.28-.08-1.07-.1-1.84-.63-2.72-1.1-1.11-.64-2-.85-3.22-1.24-1.2-.34-2.65-.78-4.1-.63-.8,.13-.6,1.44-.46,1.41,.69-.26,1.62,0,2.54,.5,.91,.48,1.88,1.15,3,1.62,2.21,.92,4.42,1.24,6.66,1.48,3.5,.35,6.74,.98,9.93,1.98,.22-.06,.43-.12,.62-.17,1.84-.56,3.94,.4,6.03,.44,.27,.04,.79-.45,1.24-.39,1.35,.07,2.67-.12,3.98-.23-.24-.47-.43-.95-.68-1.31-.8,.14-1.61,.26-2.37,.07Z"/>
              <path class="cls-6" d="M48.55,72.29c.76,.2,1.57,.07,2.37-.07-.12-.17-.26-.32-.43-.42-1.89-.81-4.09-.44-6.11-.52,.36,.34,.79,.61,1.23,.78,.84,.36,1.88,.02,2.93,.23Z"/>
              <path class="cls-4" d="M48.55,72.29c.73,.19,1.49,.08,2.26-.05-.25-.08-.51-.14-.77-.17-1.32-.15-2.66-.17-3.94-.58,1.41,.12,2.81,.24,4.23,.24-1.85-.71-3.98-.36-5.94-.44,.36,.34,.79,.6,1.23,.77,.84,.36,1.88,.02,2.93,.23Z"/>
              <path class="cls-3" d="M46.39,72.32c1.58,.29,3.18,.49,4.82,.33-.06-.12-.13-.24-.2-.34-.07-.02-.14-.05-.2-.07-.77,.13-1.53,.24-2.26,.05-1.05-.21-2.09,.13-2.93-.23-.44-.17-.87-.43-1.23-.77-.14,0-.27-.02-.41-.02-1.83-.03-3.65-.13-5.45-.34-1.61,.2-3.31-.14-4.91-.66,.77,.13,1.54,.22,2.33,.27-.85-.16-1.7-.34-2.54-.56-.73-.15-1.46-.2-2.2-.2-.19,.26-.47,.47-.88,.48-.64,.01-1.25-.13-1.94,.03-.09-.02-.03-.25-.2-.29,.48,.12,.91,.03,1.3-.15-.46,.02-.92,.04-1.37,.05-.84-.08-1.5-.42-2.17-.79l-.24-.03c-.39-.06-.81-.05-1.24-.03,.15,.06,.31,.12,.47,.18-.3,.06-.61-.07-.84-.17,.13,0,.25,0,.38,0-.36-.15-.7-.31-1.05-.5,.43,.24,.96,.3,1.4,.3-.88-.26-1.64-.49-2.33-1.15h.08c-1.28-.37-2.87-.9-4.49-.76-.82,.13-.6,1.43-.47,1.41,.48-.17,1.08-.11,1.71,.13,.63,.24,1.27,.62,1.95,1.02,1.36,.85,2.98,1.47,4.52,1.82-.31-.26-.62-.51-.92-.75-.14-.08-.27-.18-.37-.31,.12,.1,.25,.21,.37,.31,.38,.22,.85,.31,1.26,.55,.07,.1,.33,.17,.48-.03,.57,.32,1.33,.26,1.9,.56,.04,0,.08,.09,.14,.18,.39,.05,.78,.1,1.17,.13,2.19,.22,4.27,.54,6.31,1-.48-.21-.93-.45-1.34-.73-.55-.43-1.86-.3-2.94-.38-.28,.02-.4-.25-.66-.31,1.04-.49,2.17,.16,3.25,.22,1.43,.14,3.36,.99,4.96,.71,.66-.12,1.23,.21,1.72,.54-.21,.13-.56,.07-.74,.04-1.59-.27-3.17-.56-4.79-.72,1.62,.56,3.25,.62,4.88,1.22-.99-.09-1.9-.57-2.86-.35,.07,.07,.14,.13,.22,.19,.63,.17,1.27,.35,1.9,.55,.22-.06,.42-.12,.62-.17,1.84-.56,3.94,.4,6.03,.44,.17,.02,.45-.16,.74-.29-.67-.07-1.32-.22-1.99-.28,.26,.1,.51,.23,.74,.42-.64-.01-1.12-.4-1.75-.41,.35-.04,.68-.04,1.02-.01-.39-.15-.81-.23-1.23-.34,.84-.19,1.54,.54,2.41,.19-.18,0-.35-.03-.52-.08l.53,.07h-.01c.54,.03,1.08-.07,1.58-.19-.93-.05-1.73-.44-2.63-.5-.15,0-.3,0-.45,0,.15-.01,.3-.01,.45,0,2.08,.03,4.12,.55,6.19,.81l.2-.02-.16-.32c-1.71-.17-3.44-.47-5.08-.88Z"/>
            </g>
          </g>
          <g class="cls-13">
            <g class="cls-13">
              <path class="cls-5" d="M92.48,42.44c.66-1.47,2.07-2.72,1.9-4.3,0-.17-.03-.35-.05-.52l-.14,.2c-1.1,1.47-2.04,3.13-2.75,4.8-.33,1.09-.45,2.36-1.2,3.37-.08,.11,.17,.3,.3,.39,.24,0,.48,.03,.72,.06,.42-.97,.7-2,1.21-2.93,.19-.3-.09-.89,.02-1.06Z"/>
              <polygon class="cls-7" points="91.19 46.45 91.24 46.46 91.3 46.31 91.19 46.45"/>
              <path class="cls-4" d="M92.1,44.03c.09-.34,.25-.64,.42-.94-.03-.27-.11-.54-.04-.65,.66-1.47,2.07-2.72,1.9-4.3,0-.17-.03-.34-.05-.52-.05,.07-.1,.14-.15,.21-.37,.52-.75,1.04-1.08,1.59v.11c.05,.42-.34,.6-.51,.9-.27,.96-.86,1.57-1.18,2.51-.13,.33,0,.83-.23,1.17-.06,.13-.14,.24-.23,.34-.16,.54-.39,1.06-.73,1.54-.08,.11,.17,.3,.3,.39,.12,0,.25,.01,.37,.02,.31-.37,.55-.79,.83-1.2,.15-.41,.3-.82,.48-1.21-.03,0-.07,0-.1,.02Z"/>
              <path class="cls-7" d="M92.54,44.23c.03-.05-.13-.23-.33-.22-.18,.39-.33,.8-.48,1.21,.23-.34,.47-.69,.81-.99Z"/>
              <path class="cls-9" d="M93.46,44.83c.57-.68,.57-1.62,1.16-2.11,.29-.27,.65-.5,1.07-.66,.05-.11,.1-.22,.14-.33,1.06-2.79,1.98-5.56,3.16-8.26,.52-1.38,.32-2.85,.27-4.36,.07-.88,.58-1.5,.92-2.33,.97-2.06-.17-4.1-.51-6.25-.09-.59-1.34-.7-1.36-.56,.2,1.77,.04,3.5-.21,5.2-.27,1.7-.63,3.38-.86,5.14-.4,2.73-1.4,5.19-2.93,7.3,.02,.18,.04,.35,.05,.52,.17,1.58-1.24,2.83-1.9,4.3-.11,.18,.17,.76-.02,1.06-.51,.93-.79,1.96-1.21,2.93,.5,.07,.99,.17,1.4,.17,.2-.65,.38-1.29,.82-1.77Z"/>
              <path class="cls-6" d="M93.46,44.83c-.44,.48-.62,1.12-.82,1.77,.2,0,.38-.03,.53-.11,1.44-1.01,1.89-2.88,2.52-4.43-.42,.16-.79,.39-1.07,.66-.6,.49-.59,1.43-1.16,2.11Z"/>
              <path class="cls-4" d="M93.46,44.83c-.42,.45-.6,1.06-.79,1.68,.17-.14,.32-.3,.45-.47,.63-.91,1.1-1.9,1.88-2.72-.56,1.03-1.15,2.04-1.69,3.09,1.33-1.04,1.78-2.84,2.39-4.34-.42,.16-.78,.39-1.07,.66-.6,.49-.59,1.43-1.16,2.11Z"/>
              <path class="cls-3" d="M94.14,43.2c-.75,1.07-1.48,2.15-1.98,3.39,.13,.02,.26,.03,.37,.03,.05-.04,.09-.07,.14-.11,.19-.62,.37-1.23,.79-1.68,.57-.68,.57-1.62,1.16-2.11,.29-.27,.65-.5,1.07-.66,.05-.1,.09-.21,.14-.31,.54-1.47,1.06-2.87,1.57-4.25,.09-1.36,.65-2.65,1.29-3.89-.18,.62-.37,1.23-.52,1.87,.26-.64,.53-1.29,.82-1.99,.23-.58,.31-1.19,.34-1.8-.25-.19-.45-.44-.44-.78,0-.53,.14-1.02-.01-1.59,.02-.07,.25,0,.29-.15-.12,.39-.03,.74,.15,1.08-.02-.38-.03-.77-.05-1.13,.06-.69,.37-1.22,.69-1.82,0-.07,0-.14,0-.21,.02-.35-.06-.71-.16-1.08-.03,.14-.06,.28-.1,.42-.11-.25-.04-.53,0-.74,.03,.11,.06,.21,.09,.32,.07-.33,.15-.64,.21-1-.07,.43-.03,.88,.05,1.27,.11-.8,.08-1.54,.39-2.31l.03,.06c-.19-1.15-.61-2.3-.8-3.51-.09-.59-1.34-.7-1.36-.56,.28,2.48-.13,4.85-.56,7.22,.22-.24,.43-.48,.63-.73,.06-.11,.13-.22,.24-.31-.08,.1-.16,.21-.24,.31-.15,.31-.19,.67-.4,.99-.09,.05-.15,.25,.06,.38-.28,.44-.2,1.04-.5,1.47,0,.03-.09,.06-.18,.1-.04,.3-.08,.6-.13,.91-.26,1.7-.73,3.31-1.43,4.78,.26-.32,.54-.63,.86-.9,.49-.34,.47-1.42,.61-2.27,0-.23,.26-.29,.33-.49,.46,.9-.28,1.72-.44,2.57-.28,1.13-1.36,2.44-1.4,3.75-.01,.55-.44,.9-.85,1.17-.07-.19,.05-.45,.12-.58,.57-1.14,1.12-2.3,1.46-3.54-.73,1.15-1.06,2.4-1.95,3.46,.27-.72,.91-1.29,.83-2.09-.08,.04-.15,.08-.22,.12-.25,.45-.54,.87-.84,1.29,.02,.17,.04,.35,.05,.52,.17,1.58-1.24,2.83-1.9,4.3-.07,.11,.02,.39,.04,.65,.27-.45,.61-.87,.85-1.34-.16,.16-.36,.28-.6,.37,.2-.45,.67-.66,.86-1.13-.05,.27-.15,.52-.26,.76,.24-.23,.43-.52,.64-.79-.05,.71-.9,.94-.85,1.71,.06-.12,.14-.24,.23-.35l-.23,.36h0c-.19,.37-.25,.82-.32,1.23,.34-.65,.95-1.09,1.27-1.74,.04-.11,.08-.22,.12-.34-.03,.12-.07,.23-.12,.34-.65,1.55-1.78,2.84-2.81,4.14l-.06,.15,.33,.05c.81-1.12,1.69-2.23,2.57-3.31Z"/>
            </g>
          </g>
        </g>
        <g>
          <g class="cls-12">
            <path class="cls-11" d="M24.26,129.66c5.79,9.45,12.49,18.34,19.97,26.53,4.53,4.96,9.48,9.75,15.55,12.62,6.5,3.07,13.85,3.75,21.03,4.05,14.98,.63,31.78-.98,41.69-12.23-6.94,.84-13.85-2.04-19.61-6-5.76-3.97-10.67-9.02-16.18-13.33-18.1-14.17-42.73-19.62-65.12-14.42,1.66,1.83,3.31,3.67,4.97,5.5"/>
            <path class="cls-11" d="M28.98,133.62c.96,1.45,1.7,2.66,2.63,3.74,.15,.17,.71,.07,.87,.3,.6,.93,1.67,1.55,1.81,2.76,.17,1.32,.81,2.31,1.82,2.93,.95,.6,1.5,1.48,2.24,2.22,.25,.25,.55,.44,.33,1.11-.17,.49,.12,.92,.96,.72,.16-.04,.14,.18,.16,.32,.02,.14-.14,.47,0,.47,1.55,.05,1.55,1.42,2.44,2.03,.22,.15,.15,.59,.88,.25,.19-.09,.38,.08,.29,.26-.24,.47-.18,.69,0,.86,.73,.78,1.42,1.59,2.14,2.38,1.1-.29,1.16,.44,1.53,.86,.28,.31,.3,.85,.45,1.29,.15,.45,.92,.32,.56,1.23-.06,.14,.25,.08,.34,.15,.42,.32,1.03,.49,1.15,1.06,.06,.3,.13,.59,.3,.77,2.33,2.28,4.82,4.37,7.53,6.04,.23,.14,.41,.38,.95,.03,.42-.27,.85-.06,.82,.45-.05,.82,.39,.72,.67,.9,.52,.36,1.14,.51,1.68,.84,.32,.2,.89-.14,.83,.94,0,.1,.11,.15,.18,.07,.73-.76,.83,.12,1.19,.39,.25,.2,.56,.27,1.02-.09,.45-.35,.97-.27,1.12,.29,.21,.76,.63,.64,.99,.74,2.16,.59,4.39,.97,6.65,1.15,1.07,.09,2.2-.71,3.24-.27,.25,.11,.56-.26,.74,.47,.04,.15,.25,.08,.34-.09,.33-.61,.61-.36,.95-.31,1.5,.23,3.04,.65,4.54,.09,1.16-.44,2.29-.23,3.42-.37,.38-.06,.76,.42,1.15,.51,.38,.09,.76,.04,1.13,0,.22-.03,.46,.17,.66-.41,.11-.31,.42-.41,.56-.17,.47,.82,.93,.47,1.38,.47,1.3-.03,2.59-.19,3.88-.27,.32-.03,.62-.48,1.01,.36,.05,.11,.2-.19,.31-.28,.11-.1,.23-.37,.34-.26,.99,1.04,1.78,.22,2.63,.14,1.05-.09,2.05-.37,3.07-.57,1.01-.23,2.01-.53,3.04-.72,.57-.14,.82-1.01,1.36-1.14,.51-.13,1.06-.38,1.41-.46,.31-.07,.33-.52,1.11,.13,.22,.18,.44,.07,.38-.15-.26-.83,.32-.61,.52-.86,.17-.27,1.16-.12,.47-.84-.2-.18,.5,.01,.69-.05,.31-.09,.58-.22,.75-.37,.08-.08-.28-.27-.23-.34,.41-.58,.58-1.05,.92-1.53,.18-.24,.45-.46,.72-.74l.42-.4,.21-.2,.1-.1s-.07,0-.1,0c-.75,.09-1.62,.11-2.16-.02-.12-.02-.63,.07-.74,.03-.09-.03,.06-.14,.73-.46-1.37,.36-.87,.08-.16-.5,.1-.08-.44,.1-.63,.15-.31,.07-.86,.29-1.15,.39-.3,.09-.33,.06,.23-.43,.04-.04-.05,0-.05-.02-.05-.21-1.38,.74-.88,.07,.27-.43-.16-.36-.33-.47-.18-.12-.37-.26-.64-.24-.15,0-.15-.14-.31-.23-.19-.1-.42-.1-.81,.27-.13,.12-.12-.64-.3-.68-.96-.2-1.37-1.44-2.75-.86-.32,.13-.6-.07-.67-.39-.26-1.15-1.11-1.16-1.99-1.35-1.14-.25-2.2-.81-2.29-2.43-.02-.35,.03-.56-.42-.35-.29,.14-.45-.07-.62-.19-1.84-1.4-3.57-2.89-5.28-4.36-.47-.4-.26-1.5-.97-1.64-.29-.06-.2-.62-.89-.16-.1,.06-.22,.04-.22-.04,.05-1.2-1.38-.68-1.68-1.46-.06-.17-.06-.4-.12-.58-.06-.18-.04-.48-.24-.46-1.6,.14-1.93-1.26-2.99-1.75-.36-.16-.36-.83-1.24-.27-.13,.08-.25-.03-.23-.18,.2-1.32-.93-1.03-1.29-1.67-.19-.33-.88-.04-.56-1.02,.04-.12-.13-.13-.24-.12-.19,0-.49,.18-.6,.08-.29-.29-.37-.96-.84-.89-.59,.09-.84-.27-1.21-.48-.21-.12-.17-.62-.32-.85-.14-.21-.39-.28-.59-.41-.28-.19-.67-.24-.84-.58-.18-.36-.93,.38-.9-.39,.02-.6-.73,.05-1.06-.01-.16-.03-.25-.21-.34-.38-.06-.13,0-.47-.12-.5-.25-.08-.38-.36-.82-.11-.3,.16-.34-.47-.55-.65-.21-.18-.48-.26-.72-.38-.24-.12-.42-.43-.74-.33-1.42,.43-2.12-.63-3.19-.92-.27-.08-.71,.11-.59-.78,.02-.16-.12-.23-.24-.18-1.42,.69-2.04-.62-3.17-.64-.79-.03-1.64,.15-2.31-.21-.65-.38-1.32-.78-2.13-.61-.66,.16-1.3,.29-1.78-.09-.48-.39-1.45,1.15-1.59-.38-.55-.14-1.11-.23-1.65-.43-.45-.17-1,.08-1.27-.86-.1-.34-.43-.38-.67-.14-.78,.77-1.28,.41-1.79-.15-.12-.13-.38,.26-.54,.24-.5-.04-1-.08-1.47-.27-1.42-.55-3,.19-4.45,.06-.27-.02-.63,.64-.85,.44-1.35-1.22-2.92-.23-4.32-.88-2.11-1.07-4.26-.29-6.39-.44-.28-.02-.61-.71-.73-.49-.37,.69-.87,.17-1.17,.69-.54,.93-1.19,.39-1.76,.66-.42,.19-.95-.32-1.23,.73-.04,.15-.19,.15-.28,.04-.76-.84-1.19,.63-1.88,.28-1.01,1.26-2.31,.79-3.45,1.26-.17,.07-.28,.35-.42,.51-.07,.08-.14,.25-.23,.19-.24-.17-.47-.28-.69-.33l2.84-9.07c.33,1.02,1.42,1.36,1.88,2.26,.18,.36,.2,.87,.37,1.25,.18,.38,.67,.48,.37,1.26-.09,.24,.15,.33,.33,.4,.98,.34,.26,1.92-1.61,3.63-.68,.62-.85,.52-1.23,.6-.75,.16-1.31,.17-1.57-.22-.2-.3-.25-.79-1.12-.43-.15,.06-.23-.08-.21-.22,.17-.99-.76-1.08-.75-1.87,0-.61-.35-.84-.51-1.27-.14-.36-.73-.33-.38-1.13,.04-.08,0-.12-.09-.14l-.5-.13,.81-.85c.13-.14,.28-.53,.45-.59,.57-.2,1.16-.36,1.77-.36,1.83-.04,3.42-1.55,5.29-1.48,1.17-1.34,2.65-.35,3.91-1.04,1.55-.85,3.17-.45,4.76-.82,.33-.07,.59-.05,.88,.23,.19,.18,.39,.4,.58,.41,.75,.07,1.51-.01,2.26,.11,.4,.06,.88-.5,1.19,.58,.04,.15,.22,.14,.31,.01,.72-1.03,1.4-.31,2.09-.39,.27-.03,.52,.03,.77,.44,.27,.44,.75,.44,1.12,.08,.27-.27,.49-.26,.73-.32,1.01-.22,1.86,.99,2.99-.16,.33,1.2,.99,.9,1.54,.72,2.09-.63,3.92,.4,5.84,.73,.47,.07,.82,.66,1.25,.86,.46,.22,.96,.3,1.46,.38,.26,.05,.46,.5,.89-.23,.03-.05,.09-.08,.11-.06,.24,.22,.43,.6,.71,.62,.26,.02,.64-.44,.94-.51,.35-.08,.66,0,.97,.08,.3,.07,.67,0,.68,.76,.52-.79,.71-.23,1.02-.19,.29,.04,.55,.19,.83,.29l.92,.34c.31,.11,.59,.3,.93,.32,.47,.04,1-.12,1.45-.02,.47,.1,.92,.29,1.32,.56,.5,.35,.93,.84,1.4,1.22,.2,.16,.48,.03,.84-.16,.46-.25,1.24-.92,1.08,.39-.03,.26,.26,.32,.47,.25,1.71-.56,2.45,.93,3.72,1.29,.16,1.18,1.04,1.01,1.82,1.16,1.15,.19,2.22,.69,2.82,1.76,.62,1.13,1.76,1.4,2.52,2.25,.21,.24,.7,.15,.41,1-.07,.19,.16,.29,.34,.26,1.25-.19,1.82,.54,2.19,1.55,.18,.54,.84,.59,1.45,.67,.93,.12,1.36,.96,1.99,1.49-.41,1.03,.49,.4,.93,.17,.58-.3,.83-.23,1.05-.06,.29,.23,.45,.61,1.17,.34,.37-.14,.63,.2,.54,.6-.12,.54,.1,.44,.5,.36,.47-.1,.05,.83,.35,1.03,.32,.21,1,.11,.54,1.16-.04,.09,.05,.16,.15,.13,1.26-.39,.73,1.3,1.57,1.37,.77,2.3,3.03,2.8,4.36,4.33,.55,.63,.77,1.79,1.72,1.82,1.96,.06,2.98,1.51,4.54,2.07,.33,.12,.88-.16,.72,.93-.02,.15,.13,.21,.25,.11,.5-.29,1.13-.25,1.55-.06,.44,.2,.75,.58,.98,1,.13,.19,.56,.28,.9,.11,.98-.5,1.27-.13,1.7-.01,.71,.06,.87,.65,1.69,.37,1.79-.58,1.47,.09,2.01,.21,.37,.06,1.3-.15,2.1-.29,.38-.07,1.36-.4,1.43-.34,.18,.38,1.34,.24,2.9-.01,1.46-.24,3.58-.61,4.24-.48,.14,.03,.36,.03,.57,.03-.14,.12-.28,.25-.53,.4-.69,.43-1.27,.8-1.67,1.01-.38,.22-.72,.42-1.04,.61-.55,.34-.85,.56-1,.74-.15,.2-.02,.22,.15,.32,.11,.04,.22,.08,.36,.13,.07,.02,.14,.06,.23,.08,.09,0,.19,.02,.3,.03-1.42,.41-.95,.38-.5,.36,.47-.01,.99-.11,.14,.14-.3,.08-.37,.12-.29,.13,.04,0,.11,0,.21,0,.07,0,.05,.09,.12,.11,.48,.32,.03,.88-.57,1.43-.6,.57-1.34,1.13-1.6,1.59-.12,.21-1.55,.41-.78,.63,.28,.1-1.17,.45-1.35,.65-.27,.33-1.25,.6-.45,.97,.33,.16-.36,.41-.5,.63-.19,.31-.93,.51-.35,.97,.3,.25-.08,.67-.77,.74-1.36,.15-1.83,.43-2.07,.85-.23,.41-.21,.95-.44,1.44-.14,.29-.29,.49-.84,.58-.8,.12-1.76,.21-1.78,.7-.08,.86-.99,1.13-1.66,1.44-1.19,.6-2.5,1.02-3.7,1.64-.97,.46-1.99,.41-2.78,1.4-.42,.51-1.05,1.03-1.91,.07-.09-.11-.17,.57-.32,.62-1.22,.39-2.45,.62-3.7,.81-.29,.04-.8-1.04-.9-.1-.12,1-.73-.83-.77,.35,0,.17-.27,.2-.42,.11-1.62-.95-2.94,.11-4.43-.03-.35-.05-.71,.45-1.06-.5-.8,1.15-1.91-.98-2.66,.77-.64-.26-1.28,.68-1.92-.45-.1-.18-.31,.1-.42-.06-.39-.57-.59,1.2-1.07,.29-.27-.52-.76-.2-1.15-.23-.36-.02-.73,0-1.09,0h-1.19c-.4-.01-.8-.09-1.19,0-.8,.15-1.61,.83-2.42,.52-.09-.03-.24,.1-.28,.27-.34,1.5-.71,.64-.97,.19-.21-.38-.4-.56-.65-.56-.69-.02-1.37,0-2.06-.14-.4-.08-.88,.38-1.2-.6-.1-.3-.43-.26-.63-.06-.95,.92-1.81,.25-2.72,.29-.41,.02-.82-.06-1.22-.15-.31-.06-.71,.54-.93-.12-1.71,.99-3.18-.1-4.76-.32-1.59-.22-3.15-.75-4.68-1.36-.38-.15-.99,.14-.97-.94,0-.2-.27-.3-.43-.15-.43,.41-.71,.61-.68-.17,0-.14-.26-.09-.43-.01-.47,.23-.74,.06-.9-.42-.12-.38-.37-.7-.71-.63-.9,.2-1.75,.27-1.85-1,0-.16-.56,.3-.68,.19-.46-.42-1.29-.3-1.36-1.31-.03-.41-.47-.4-.66-.65-.34-.43-1.07-.26-1.32-.84-.26-.58-.88-.75-1.33-1.11-.46-.35-.89-.73-1.33-1.09l-1.28-1.12-1.24-1.15-1.2-1.16c-.4-.39-.79-.78-1.17-1.18-.26-.28-.43-.62-.4-1.17,.06-1.41-.83-2.16-2.39-2.69-.11-.04-.15-.15-.22-.23-.94-1.03-2-1.96-2.7-3.19-.31-.54-.36-1.3-.81-1.72-.3-.28-.43-.68-1.18-.59-.63,.08-.22-.87-1.2-.58-.36,.11-.59-.2-.49-.53,.32-1.08-.47-1.3-.82-1.86-.4-.64-.87-1.22-1.39-1.77-.25-.27-.23-.75-1.07-.58-.41,.08-.48-.43-.38-.84,.15-.64-.18-.91-.58-1.1-.87-.4-.94-.35-.97-1.36,0-.12-.06-.21-.12-.29-.61-.84-.93-1.91-1.9-2.46-.82-.45-1.3-1.12-1.79-1.79-.2-.27-.78-.34-.11-1.13,.1-.11-.02-.26-.17-.26-1.29,.03-1.23-.92-1.64-1.52-.4-.57-1.49-.64-1.7-1.37-.19-.68-.7-1.17-1.06-1.76-.54-.89-.15-1.39,2.18-2.81,1.93-1.18,2.48-1.22,3.3-.78,1.75,.91,2.04,2.74,3.04,3.74Z"/>
          </g>
          <g>
            <path class="cls-8" d="M21.28,105.97c5.79,9.45,12.49,18.34,19.97,26.53,4.53,4.96,9.48,9.75,15.55,12.62,6.5,3.07,13.85,3.75,21.03,4.05,14.98,.63,31.78-.98,41.69-12.23-6.94,.84-13.85-2.04-19.61-6-5.76-3.97-10.67-9.02-16.18-13.33-18.1-14.17-42.73-19.62-65.12-14.42,1.66,1.83,3.31,3.67,4.97,5.5"/>
            <path class="cls-8" d="M24.84,110.69c.97,1.46,1.76,2.65,2.6,3.8,.13,.18,.38,.31,.54,.54,.63,.92,1.41,1.77,1.92,2.73,.57,1.04,1.25,1.99,2.02,2.82,.72,.78,1.34,1.63,2.02,2.43,.23,.27,.47,.52,.59,.92,.09,.29,.41,.7,.8,.87,.08,.03,.15,.18,.21,.28,.06,.11,.1,.28,.17,.33,.88,.61,1.4,1.57,2.14,2.33,.18,.19,.3,.46,.6,.5,.08,.01,.25,.2,.26,.29,.04,.23,.15,.4,.32,.59l2.15,2.42c.54,.22,.86,.74,1.24,1.15,.28,.31,.51,.68,.77,1.02,.26,.35,.69,.56,.81,1.01,.02,.07,.18,.14,.27,.23,.39,.37,.83,.71,1.14,1.12,.15,.21,.31,.42,.49,.6,2.39,2.32,4.95,4.47,7.76,6.22,.24,.15,.47,.32,.8,.35,.26,.03,.71,.28,.86,.48,.23,.34,.57,.45,.89,.61,.57,.32,1.18,.56,1.77,.84,.35,.17,.8,.2,1.02,.57,.02,.03,.14,.08,.19,.07,.49-.07,.81,.25,1.21,.43,.29,.13,.59,.21,.96,.2,.35,0,.89,.13,1.15,.33,.35,.27,.74,.32,1.11,.41,2.22,.56,4.49,.93,6.77,1.17,1.08,.12,2.17-.02,3.25,.16,.26,.04,.55-.04,.77,.16,.05,.04,.26,.03,.34,0,.31-.14,.6-.06,.94-.04,1.53,.13,3.08,.26,4.58,.16,1.17-.09,2.32-.03,3.47-.07,.38-.02,.77,.09,1.17,.11,.38,.02,.77,0,1.15-.02,.23,0,.46,.03,.68-.12,.12-.08,.44-.12,.58-.06,.45,.19,.93,.09,1.39,.07,1.32-.07,2.63-.18,3.95-.31,.32-.03,.67-.18,.98,0,.04,.02,.22-.07,.34-.1,.12-.04,.27-.12,.37-.1,.89,.19,1.75-.15,2.62-.26,1.05-.13,2.08-.4,3.12-.61,1.03-.23,2.05-.53,3.08-.78,.57-.17,1-.51,1.55-.68,.53-.17,1.05-.34,1.56-.55,.37-.14,.71-.38,1.14-.31,.12,.02,.38-.09,.46-.19,.32-.35,.79-.47,1.19-.7,.48-.28,1.07-.41,1.45-.86,.11-.11,.41-.16,.61-.26,.35-.18,.69-.38,1.02-.59,.16-.1,.27-.26,.43-.36,.61-.38,1.15-.87,1.74-1.29,.59-.42,1.12-.9,1.65-1.39l.55-.48c.14-.11,.26-.25,.39-.38l.39-.4,.2-.2,.1-.1s-.07,0-.1,0h-.02c-.37,.04-.74,.06-1.11,.07l-.63-.02h-.16s-.29-.04-.29-.04l-.57-.06c-.58-.05-1.23,0-1.71-.37-.55,.08-1-.13-1.4-.43-.06-.05-.24,0-.37,0-.39-.03-.84,.19-1.16-.26-.01-.02-.07-.02-.1-.03-.32-.15-.67,.1-1.04-.24-.23-.21-.67-.32-1.03-.46-.36-.15-.72-.32-1.09-.43-.39-.12-.71-.45-1.16-.38-.07,0-.27-.26-.43-.33-.83-.34-1.54-.96-2.45-1.13-.21-.04-.48-.21-.63-.37-.56-.57-1.22-.86-1.93-1.23-.93-.48-1.86-1.1-2.49-1.96-.13-.18-.18-.28-.42-.32-.16-.03-.34-.2-.51-.32-1.79-1.37-3.5-2.83-5.19-4.3-.46-.4-.73-.95-1.26-1.3-.22-.14-.37-.43-.66-.42-.04,0-.13-.06-.16-.1-.41-.67-1.19-.91-1.69-1.47-.11-.12-.19-.25-.3-.38-.11-.13-.21-.29-.34-.35-1.05-.52-1.81-1.44-2.75-2.11-.32-.23-.58-.6-1-.62-.06,0-.2-.11-.24-.19-.36-.63-1.09-.89-1.6-1.36-.26-.24-.68-.35-.8-.74-.01-.05-.15-.11-.23-.15-.14-.07-.31-.09-.43-.18-.32-.26-.63-.6-.98-.74-.43-.16-.77-.43-1.13-.66-.21-.13-.36-.36-.55-.52-.19-.15-.4-.27-.61-.4-.29-.19-.61-.35-.88-.55-.27-.22-.63-.13-.87-.47-.18-.26-.59-.22-.88-.36-.15-.07-.28-.18-.41-.28-.1-.08-.16-.21-.26-.26-.23-.12-.43-.28-.72-.32-.2-.04-.44-.31-.68-.45-.24-.14-.49-.25-.74-.38-.25-.12-.5-.3-.75-.36-1.1-.27-2.03-.93-3.09-1.31-.27-.11-.61-.16-.75-.45-.03-.05-.18-.12-.26-.13-1.09-.15-2.01-.81-3.06-1.08-.74-.21-1.49-.36-2.21-.66-.7-.31-1.44-.55-2.17-.68-.6-.1-1.19-.19-1.74-.42-.53-.23-1.18,.05-1.64-.44-.57-.14-1.14-.27-1.71-.43-.48-.13-.99-.16-1.41-.49-.15-.12-.49-.17-.69-.14-.65,.1-1.22-.07-1.82-.3-.14-.05-.34,.02-.51-.01-.51-.08-1.02-.18-1.53-.28-1.51-.29-3.04-.29-4.55-.43-.28-.02-.61,.12-.85,.06-1.49-.4-3.05-.27-4.54-.43-2.21-.35-4.43-.09-6.64-.08-.29,0-.6-.14-.73-.08-.41,.2-.91,.1-1.25,.25-.62,.27-1.26,.18-1.87,.29-.45,.07-.95,0-1.34,.31-.06,.04-.21,.06-.3,.04-.7-.14-1.3,.3-1.98,.28-.6,.22-1.23,.34-1.85,.47l-.8,.14s-.07,0-.08,.03c-.01,.01,.04,.06,.08,.09,.02,.01,.07,.04,.04,.03-.1-.05-.25-.09-.25-.07-.02,.01,0,.04,.03,.06l.09,.06s-.04-.05,.23,.27c.24,.31,.44,.65,.68,.96,.24,.31,.57,.57,.68,.97,.03,.12,.21,.28,.34,.39,.71,.59,.87,1.37,.41,1.8-.17,.16-.3,.03-.5-.06-.38-.17-.71-.38-1.01-.73-.23-.28-.44-.62-.82-.71-.06-.01-.17-.14-.21-.23-.27-.6-.83-.98-1.16-1.54-.29-.47-.64-.82-.93-1.21-.22-.3-.73-.69-.65-.89-.2-.13,.08-.25,.32-.34,.65-.15,1.36-.31,2.06-.42,1-.14,1.78-.41,2.69-.57,.88-.18,1.76-.37,2.66-.46,1.24-.49,2.61-.27,3.88-.54,1.54-.34,3.11-.22,4.66-.36,.32-.02,.58-.02,.86,.04,.18,.04,.38,.1,.57,.11,.74,.03,1.48,.03,2.22,.07,.39,.02,.84-.11,1.18,.17,.05,.04,.22,.04,.3,0,.66-.23,1.35,0,2.03,.02,.26,0,.51,.04,.78,.16,.29,.13,.77,.16,1.09,.09,.25-.05,.46-.04,.69-.04,.96,.04,1.9,.45,2.87,.25,.44,.35,1.06,.33,1.56,.35,1.91,.13,3.78,.59,5.63,1.05,.45,.1,.87,.33,1.32,.47,.47,.15,.95,.25,1.43,.37,.25,.07,.52,.25,.77,.11,.02-.01,.07,0,.09,0,.26,.12,.51,.27,.78,.34,.24,.06,.5,0,.75,.03,.3,.05,.6,.13,.9,.22,.29,.08,.61,.13,.78,.38,.29-.14,.58,.09,.86,.18,.27,.08,.53,.19,.8,.29l.89,.33c.3,.11,.59,.24,.9,.33,.42,.12,.85,.19,1.25,.35,.43,.16,.86,.34,1.27,.55,.52,.26,1.01,.55,1.52,.81,.21,.11,.42,.14,.67,.16,.32,.03,.77,0,1,.46,.04,.09,.3,.2,.46,.23,1.23,.28,2.28,1.02,3.39,1.59,.48,.55,1.13,.75,1.78,1.05,.97,.42,1.92,.99,2.7,1.67,.82,.73,1.79,1.19,2.61,1.88,.23,.19,.55,.31,.63,.64,.02,.07,.21,.2,.33,.24,.83,.33,1.48,.88,2.09,1.53,.32,.35,.79,.6,1.23,.87,.68,.39,1.26,1,1.88,1.52,.1,.43,.48,.4,.69,.43,.28,.04,.47,.17,.69,.35,.28,.24,.52,.51,.91,.62,.2,.06,.49,.34,.58,.54,.12,.27,.23,.29,.47,.39,.28,.12,.34,.5,.62,.73,.3,.24,.72,.44,.8,.87,0,.04,.1,.11,.15,.13,.72,.25,.99,1.03,1.6,1.39,1.4,1.61,3.22,2.76,4.83,4.1,.67,.55,1.26,1.23,2.04,1.6,1.62,.77,3.06,1.83,4.68,2.58,.34,.16,.78,.23,.98,.61,.03,.05,.19,.12,.27,.12,.61,.01,1.08,.27,1.55,.64,.11,.08,.36,.17,.46,.13,.28-.09,.51,.07,.75,.16,.28,.09,.62,.37,.82,.33,.42-.07,.57,.19,.84,.3,.17,.07,.38,.07,.56,.09,.09,0,.22-.04,.26-.01,.53,.34,1.16,.15,1.72,.32,.12,.04,.25,.05,.37,.1,.66,.25,1,.33,1.39,.39,.17,.03,.56,.02,.94,.01,.21,0,.43-.01,.7-.02,.25,0,.59-.03,1.01-.09,.23,.14,.67,.08,1.23-.01,.54-.09,1.15-.2,1.28-.09,.04,.04,.19,.04,.41,.02,0,.04,.02,.07,.04,.11,.03,.03-.07,.12-.08,.16-.23,.44-.82,1.07-1.42,1.68-.6,.59-1.19,1.19-1.78,1.78-.13,.12-.29,.19-.44,.28-.07,.04-.15,.09-.21,.15-.04,.04-.08,.1-.11,.18-.04,.12-.46,.23-.64,.39-.27,.25-.63,.41-.81,.78-.07,.16-.38,.29-.57,.45-.26,.22-.58,.34-.76,.68-.1,.18-.44,.45-.68,.48-.94,.15-1.46,.82-2.1,1.34-.19,.15-.34,.25-.59,.32-.36,.09-.83,.22-1.03,.43-.37,.37-.81,.54-1.25,.72l-2.3,.94c-.88,.33-1.8,.53-2.65,1-.46,.23-1.1,.48-1.71,.35-.07-.02-.24,.2-.39,.24-1.14,.33-2.3,.53-3.46,.76-.27,.05-.61-.19-.82,.08-.22,.28-.58-.14-.75,.18-.02,.05-.27,.08-.4,.07-1.4-.06-2.77,.29-4.16,.38-.33,0-.7,.15-.98-.07-.82,.33-1.79-.13-2.59,.32-.61-.04-1.25,.21-1.84-.05-.1-.04-.3,.04-.41,0-.37-.14-.59,.31-1.04,.09-.26-.13-.74-.04-1.12-.04h-1.06s-1.16,0-1.16,0c-.39,0-.78-.02-1.16,0-.78,.02-1.55,.17-2.35,.08-.09-.01-.23,.02-.27,.06-.29,.37-.68,.14-.94,.02-.22-.1-.41-.15-.66-.16-.67-.03-1.34-.05-2-.12-.39-.04-.83,.06-1.19-.21-.11-.08-.43-.09-.61-.05-.86,.18-1.72-.05-2.57-.11-.39-.02-.78-.08-1.16-.14-.29-.05-.61,.08-.88-.12-1.48,.1-2.92-.38-4.37-.68-1.44-.3-2.87-.73-4.26-1.24-.35-.12-.78-.15-1-.52-.04-.07-.29-.16-.38-.15-.25,.04-.44,.06-.59-.21-.03-.05-.23-.1-.34-.11-.32-.03-.56-.15-.81-.37-.19-.17-.47-.36-.71-.42-.65-.15-1.24-.36-1.67-.9-.05-.07-.32-.03-.44-.12-.46-.31-1.02-.5-1.37-.97-.15-.19-.46-.32-.67-.5-.37-.31-.83-.45-1.19-.82-.37-.36-.84-.66-1.27-.99-.43-.33-.83-.68-1.25-1.02l-1.21-1.06-1.18-1.09-1.15-1.11-1.12-1.13c-.26-.27-.47-.54-.66-.87-.47-.86-1.28-1.68-2.37-2.59-.08-.07-.14-.15-.21-.23-.92-1.02-1.87-2.02-2.7-3.1-.37-.47-.67-1-1.08-1.46-.27-.3-.49-.62-.87-.83-.32-.17-.43-.68-.86-.83-.16-.06-.39-.35-.46-.54-.22-.63-.72-1.07-1.1-1.58-.45-.59-.9-1.17-1.37-1.74-.23-.28-.39-.62-.76-.79-.19-.09-.4-.47-.5-.74-.15-.4-.42-.72-.69-.99-.59-.6-.6-.58-.97-1.32-.04-.09-.1-.18-.16-.26-.6-.82-1.13-1.72-1.8-2.46-.56-.61-1.02-1.28-1.49-1.95-.19-.26-.49-.52-.44-.88,0-.05-.1-.2-.17-.25-.61-.41-.9-1.11-1.29-1.7-.38-.57-.91-.98-1.24-1.61-.31-.58-.71-1.13-1.06-1.7-.53-.86-.52-1.13,.06-1.48,.48-.29,.72-.14,1.25,.48,1.11,1.32,1.89,2.86,2.72,3.99Z"/>
          </g>
          <g class="cls-13">
            <g class="cls-13">
              <path class="cls-5" d="M126.73,148.09c-1.56,1.83-3.92,2.85-5.04,4.66-.13,.19-.26,.39-.41,.59l.32-.16c2.38-1.2,4.72-3.05,6.41-5.23,.96-1.44,1.58-3.11,2.65-4.61,.12-.17-.13-.36-.25-.45-.27,.04-.54,.05-.8,.05-.33,.65-.64,1.33-1.03,1.96-.36,.65-.79,1.28-1.28,1.85-.34,.37-.33,1.12-.56,1.34Z"/>
              <polygon class="cls-7" points="129.67 142.91 129.62 142.91 129.52 143.1 129.67 142.91"/>
              <path class="cls-4" d="M127.92,146.09c-.25,.43-.56,.82-.89,1.18-.1,.33-.16,.69-.3,.82-1.56,1.83-3.92,2.85-5.04,4.66-.13,.18-.26,.38-.4,.59,.11-.06,.22-.11,.34-.17,.82-.42,1.64-.91,2.43-1.47l.09-.14c.27-.52,.83-.62,1.22-.97,.96-1.12,2-1.85,2.85-3.08,.3-.45,.4-1.08,.79-1.56,.12-.17,.26-.33,.4-.47,.4-.72,.77-1.47,1.29-2.17,.12-.17-.13-.36-.25-.45-.14,.02-.28,.03-.43,.04-.44,.53-.78,1.12-1.23,1.66-.31,.52-.6,1.07-.98,1.56,.04,0,.08,0,.12-.02Z"/>
              <path class="cls-7" d="M127.51,145.83c-.06,.06,.05,.29,.28,.28,.38-.49,.67-1.04,.98-1.56-.38,.45-.75,.91-1.26,1.28Z"/>
              <path class="cls-9" d="M126.72,145.06c-.43,.39-.73,.87-1.06,1.3-.33,.42-.67,.82-1.09,1.06-.45,.26-.97,.42-1.48,.48-.11,.11-.22,.22-.33,.33-2.69,2.75-5.92,5.05-9.49,6.56-1.74,.83-3.12,2.11-4.8,3.27-1.04,.58-2.08,.63-3.23,.87-1.44,.25-2.57,.85-3.74,1.44-1.16,.57-2.43,1.19-3.92,1.19-.78-.02-1.2,1.16-1,1.22,2.86,.38,5.45-.26,7.82-1.06,2.37-.85,4.6-1.81,6.82-3.07,3.42-1.94,6.69-3.6,10.06-5.3,.14-.21,.28-.41,.41-.59,1.12-1.81,3.48-2.83,5.04-4.66,.23-.21,.22-.97,.56-1.34,.5-.58,.92-1.2,1.28-1.85,.39-.63,.7-1.31,1.03-1.96-.55,0-1.07-.08-1.51-.03-.32,.81-.74,1.6-1.37,2.16Z"/>
              <path class="cls-6" d="M126.72,145.06c.63-.56,1.05-1.35,1.37-2.16-.22,.02-.42,.07-.59,.17-1.76,1.25-2.87,3.27-4.42,4.83,.51-.07,1.03-.23,1.48-.48,.43-.24,.76-.64,1.09-1.06,.33-.43,.63-.91,1.06-1.3Z"/>
              <path class="cls-4" d="M126.72,145.06c.61-.54,1.01-1.28,1.33-2.05-.21,.19-.41,.39-.59,.6-.91,1.1-1.79,2.26-3,3.04,1.08-1.06,2.05-2.23,2.89-3.48-1.65,1.27-2.76,3.22-4.25,4.73,.51-.07,1.03-.23,1.47-.48,.43-.24,.76-.64,1.09-1.06,.33-.43,.63-.91,1.06-1.3Z"/>
              <path class="cls-3" d="M125.31,146.94c1.33-1.14,2.53-2.46,3.32-4.08-.14,0-.27,0-.4,0-.06,.05-.12,.1-.17,.15-.32,.77-.72,1.51-1.33,2.05-.43,.39-.73,.87-1.06,1.3-.33,.42-.67,.82-1.09,1.06-.45,.25-.96,.42-1.47,.48l-.31,.31c-1.37,1.41-2.89,2.69-4.52,3.82-1.19,1.31-2.9,2.2-4.62,2.84,.76-.39,1.48-.85,2.19-1.33-.84,.45-1.68,.88-2.55,1.24-.74,.36-1.41,.78-2.07,1.25-.01,.34-.13,.68-.5,.94-.58,.41-1.21,.68-1.75,1.23-.09,.04-.17-.19-.36-.11,.51-.2,.86-.53,1.1-.93-.39,.31-.8,.6-1.22,.89-.82,.46-1.64,.58-2.5,.74l-.24,.13c-.41,.21-.79,.51-1.17,.82,.18-.06,.36-.12,.55-.18-.23,.25-.6,.37-.88,.46,.11-.09,.22-.18,.33-.27-.43,.14-.84,.27-1.3,.39,.55-.15,1.07-.48,1.48-.78-.98,.41-1.87,.84-2.9,.88l.06-.06c-1.28,.65-2.65,1.38-4.31,1.4-.78-.01-1.21,1.16-.99,1.22,1.99,.27,3.87,.01,5.61-.42,1.74-.44,3.38-1.06,4.97-1.74-.43,0-.86,0-1.28,0-.17,.03-.35,.03-.53,0,.17,0,.35,0,.53,0,.47-.07,.94-.3,1.45-.37,.12,.04,.4-.07,.42-.32,.71-.09,1.37-.62,2.08-.72,.04-.01,.13,.02,.24,.06,.39-.2,.77-.42,1.15-.64,2.14-1.21,4.22-2.33,6.3-3.4-.55,.17-1.1,.31-1.64,.36-.75,.04-1.84,1.01-2.87,1.65-.24,.19-.52,.06-.79,.18,.64-1.06,2.05-1.28,3.05-1.96,1.35-.83,3.57-1.56,4.72-2.95,.46-.58,1.17-.75,1.78-.91-.08,.25-.4,.48-.57,.59-1.5,1-3.05,1.92-4.56,2.91,1.78-.69,3.22-1.82,4.98-2.62-.89,.68-1.98,1.01-2.66,1.86,.1,0,.21,0,.31-.01,.64-.32,1.3-.66,1.99-1,.14-.21,.28-.4,.4-.59,1.12-1.81,3.48-2.83,5.04-4.66,.14-.14,.2-.49,.3-.82-.54,.53-1.12,1.02-1.66,1.54,.28-.15,.55-.29,.86-.36-.46,.56-1.14,.69-1.62,1.22,.23-.32,.49-.6,.76-.86-.41,.23-.79,.53-1.18,.8,.48-.83,1.58-.92,1.92-1.9-.13,.14-.28,.28-.43,.4l.44-.41h0c.42-.43,.71-.97,.94-1.49-.65,.81-1.55,1.23-2.23,1.95-.11,.12-.22,.24-.33,.37,.1-.13,.22-.25,.33-.37,1.53-1.7,3.29-3.21,4.71-5.06l.1-.2h-.37c-1.1,1.54-2.48,2.91-3.95,4.03Z"/>
            </g>
          </g>
        </g>
      </g>
    </g>
  </g>
</svg>