<?xml version="1.0" encoding="UTF-8"?>
<svg id="_Слой_2" data-name="Слой 2" xmlns="http://www.w3.org/2000/svg" xmlns:xlink="http://www.w3.org/1999/xlink" viewBox="0 0 150.01 131.06">
  <defs>
    <style>
      .cls-1 {
        fill: none;
      }

      .cls-2 {
        clip-path: url(#clippath);
      }

      .cls-3 {
        fill: #f3f9fb;
      }

      .cls-4 {
        fill: #f7fbfc;
      }

      .cls-5 {
        fill: #f8fcfd;
      }

      .cls-6 {
        fill: #f4fafb;
      }

      .cls-7 {
        fill: #f5fafb;
      }

      .cls-8 {
        fill: #eab7c9;
      }

      .cls-9 {
        fill: #fbfdfe;
      }

      .cls-10 {
        fill: #6e7c6e;
      }

      .cls-11 {
        opacity: .49;
      }

      .cls-12 {
        opacity: .8;
      }
    </style>
    <clipPath id="clippath">
      <rect class="cls-1" width="150.01" height="131.06"/>
    </clipPath>
  </defs>
  <g id="_лепестки" data-name="лепестки">
    <g class="cls-2">
      <g>
        <g class="cls-11">
          <path class="cls-10" d="M26.4,80.13c7.91-4.27,15.96-8.66,22.76-15.83,5.98-6.3,10.78-14.55,17.01-20.35,12.62-11.73,28.57-11.36,42.92-9.23,8.59,1.28,17.11,3.01,25.53,5.18-16.11,12.17-28.66,32.27-44.95,43.95-20.9,14.99-46.83,13.53-64.19-3.61"/>
          <path class="cls-10" d="M31.11,75.43c1.64-.93,3-1.65,4.22-2.58,.19-.14,.14-.72,.39-.88,1.02-.61,1.76-1.68,3.02-1.84,1.39-.18,2.46-.87,3.13-1.93,.64-1,1.55-1.61,2.29-2.43,.25-.28,.44-.59,1.14-.43,.51,.12,.94-.23,.7-1.06-.05-.16,.18-.16,.32-.2,.15-.04,.48,.08,.48-.06-.07-1.59,1.33-1.78,1.86-2.8,.13-.25,.58-.26,.15-.94-.11-.18,.04-.4,.23-.34,.5,.15,.72,.05,.88-.16l2.16-2.7c-.45-1.07,.3-1.29,.68-1.78,.28-.36,.84-.51,1.28-.76,.44-.25,.23-1.04,1.21-.86,.16,.03,.05-.28,.12-.39,.3-.51,.41-1.19,1.02-1.43,.31-.12,.61-.25,.79-.47,2.28-2.89,4.62-5.81,7.37-8.46,.23-.24,.54-.36,.42-1.02-.1-.52,.36-.94,.87-.77,.81,.28,.92-.2,1.26-.44,.62-.44,1.19-.94,1.85-1.33,.39-.22,.51-.94,1.4-.32,.08,.06,.2-.01,.19-.12-.11-1.08,.75-.65,1.23-.79,.36-.1,.65-.3,.75-.93,.09-.62,.66-.96,1.2-.68,.73,.39,1.01,0,1.41-.19,.58-.3,1.2-.5,1.8-.75,.61-.23,1.2-.5,1.81-.69,1.23-.39,2.45-.84,3.7-1.15,.59-.16,1.12-.55,1.69-.85,.56-.29,1.15-.53,1.8-.47,.3,.03,.57-.41,.93,.26,.08,.14,.3,.02,.36-.16,.25-.67,.62-.47,1-.49,.87-.05,1.75,0,2.61-.02,.86-.02,1.72-.15,2.55-.45,.65-.25,1.31-.33,1.96-.36,.65-.01,1.3,.02,1.95-.04,.44-.04,.86,.44,1.29,.57,.42,.12,.85,.1,1.28,.08,.26-.01,.5,.21,.79-.35,.16-.3,.53-.36,.66-.1,.43,.88,.98,.6,1.5,.67,1.46,.17,2.92,.3,4.37,.53,.35,.06,.81-.3,1.01,.62,.03,.12,.27-.12,.41-.19,.15-.07,.36-.3,.44-.16,.77,1.25,1.84,.76,2.78,.96,2.28,.47,4.61,.71,6.87,1.29,.63,.16,1.33-.46,1.95-.3,.59,.16,1.21,.2,1.8,.39,.44,.14,.89-.18,1.22,.8,.07,.26,.42,.33,.65,.14,.9-.7,1.44-.13,2.12-.11,.93,.04,1.24,.68,2.83,.1,.45-.15,.43,.35,.7,.46,.5,.19,1.01,.35,1.62,.45,.29,.05,.96-.12,1.28-.08,2.42,.37,5.11,.77,7.63,1.32,.47,.06,.46,.21,.64,.33-1.61,1.35-3.42,2.68-5.13,4.09l-2.98,2.47c-.52,.41-.98,.83-1.44,1.24-.46,.41-.94,.82-1.41,1.22-.36,.3-.57,.71-.91,1.05-.34,.33-.8,.58-1.53,.42,.02,.98-.56,.96-1.5,.73-.13-.03-.01,.34-.04,.5-.07,.51,.53,1.65-.73,1.03-.05-.02-.05,.06-.08,.07-.4,.13,.37,1.25-.53,1.03-.57-.14-.75,.36-1.05,.62-.32,.27-.65,.53-.85,.9-.21,.39-.98,.29-.52,1.27,.07,.16-.65-.09-.74,.08-.46,.86-1.8,.96-1.56,2.44,.05,.34-.2,.57-.52,.58-1.19,.03-1.37,.9-1.7,1.74-.43,1.1-1.11,2.1-2.77,2.07-.35,0-.58-.07-.4,.4,.11,.31-.12,.46-.26,.63l-4.91,5.44c-.45,.49-1.57,.3-1.78,1.04-.09,.31-.67,.22-.24,.94,.06,.1,.03,.23-.06,.23-1.24-.04-.84,1.47-1.68,1.8-.18,.07-.43,.06-.62,.12-.2,.06-.51,.04-.52,.25-.06,1.7-1.57,2.05-2.29,3.13-.25,.38-.95,.33-.55,1.31,.06,.15-.09,.27-.24,.24-1.36-.33-1.31,.9-2.11,1.2-.4,.15-.3,.93-1.22,.45-.12-.06-.17,.12-.2,.24-.05,.2,.04,.56-.09,.66-.38,.27-1.1,.22-1.21,.71-.13,.62-.6,.81-.96,1.14-.2,.19-.7,.03-.98,.13-.27,.1-.43,.33-.64,.51-.29,.25-.51,.63-.94,.68-.44,.05-.07,1.05-.82,.75-.58-.23-.31,.75-.54,1.06-.11,.15-.34,.18-.54,.2-.16,.02-.45-.16-.54-.07-.21,.21-.55,.22-.57,.74-.01,.36-.65,.13-.95,.24-.3,.11-.53,.33-.79,.5-.26,.17-.65,.19-.76,.54-.49,1.59-1.98,1.65-3.02,2.38-.27,.19-.44,.68-1.09,.05-.12-.11-.28-.03-.32,.1-.12,.41-.32,.71-.55,.93-.24,.21-.53,.33-.82,.44-.59,.21-1.22,.32-1.72,.73-.71,.56-1.31,1.42-2.22,1.59-.87,.19-1.8,.27-2.47,.94-.56,.55-1.12,1.11-1.86,1.05-.7-.04-.91,1.8-1.92,.55-.67,.17-1.33,.4-2.02,.49-.58,.04-1.11,.52-1.81-.23-.26-.27-.64-.18-.82,.13-.57,1-1.32,.88-2.1,.52-.18-.09-.35,.35-.55,.38-.6,.1-1.22,.22-1.83,.14-1.82-.17-3.58,.77-5.43,.75-.34,0-.74,.68-1.04,.5-.89-.62-1.79-.71-2.72-.74-.92-.05-1.87,.05-2.7-.48-1.23-.73-2.5-1.02-3.79-1.28-1.27-.34-2.57-.59-3.8-1.06-.33-.11-.42-.93-.64-.79-.68,.44-1.03-.29-1.59,.01-1.03,.55-1.52-.29-2.3-.35-.59-.03-.85-.87-1.73-.18-.13,.1-.29,0-.33-.16-.31-1.2-1.66-.32-2.18-1.08-.97,.18-1.67-.2-2.34-.62-.66-.44-1.26-.96-1.99-1.28-.22-.09-.54,0-.82-.02-.14,0-.34,.04-.37-.08-.45-1.83-2.17-1.96-3.12-3.09-.32-.36-.43-.95-.71-1.34-.27-.41-.83-.51-.66-1.37,.05-.26-.22-.36-.43-.42-1.15-.37-.64-2.05,1.15-3.86,.64-.66,.83-.56,1.23-.66,.76-.2,1.35-.25,1.66,.13,.24,.29,.36,.79,1.19,.35,.14-.07,.24,.06,.24,.21-.04,1.03,.9,1.05,1.06,1.81,.12,.61,.54,.79,.8,1.2,.22,.35,.81,.21,.65,1.09-.05,.3,.65-.04,.88,.09,.56,.31,1.14,.57,1.6,1.01,.72,.65,1.64,.98,2.58,1.23,.96,.21,1.9,.41,2.67,.98,.42-.11,.78-.09,1.11,0,.34,.07,.65,.19,.96,.33,.61,.29,1.2,.65,1.92,.63,.43-.02,.83,.04,1.23,.11,.4,.05,.79,.13,1.17,.23,.77,.19,1.52,.43,2.31,.5,.32,.04,.57,.1,.79,.44,.14,.22,.3,.46,.49,.5,.74,.19,1.5,.24,2.23,.48,.39,.15,.92-.37,1.14,.71,.03,.15,.22,.15,.32,.03,.79-.99,1.43-.27,2.14-.33,.27-.02,.52,.04,.78,.46,.29,.45,.8,.39,1.14,.01,.26-.29,.48-.29,.72-.38,.97-.37,2.03,.81,2.93-.58,.55,1.09,1.17,.67,1.65,.36,1.85-1.11,3.83-.79,5.73-1.27,.45-.15,1.01,.2,1.5,.17,.51-.03,1-.2,1.48-.37,.25-.09,.67,.19,.64-.66,0-.06,.03-.12,.06-.11,.32,.07,.69,.28,.93,.12,.22-.14,.27-.75,.47-.97,.23-.27,.52-.39,.81-.51,.28-.11,.51-.4,1,.21-.09-.94,.39-.62,.65-.78,.25-.14,.52-.22,.78-.34l.88-.39c.29-.13,.62-.2,.87-.41,.35-.29,.6-.77,.95-1.02,.38-.26,.78-.49,1.22-.63,.56-.17,1.19-.2,1.78-.34,.24-.06,.31-.35,.35-.74,.06-.52-.09-1.51,.89-.64,.19,.17,.39-.05,.44-.27,.34-1.76,1.96-1.54,2.79-2.52,1.11,.37,1.3-.53,1.71-1.16,.3-.47,.65-.9,1.06-1.24,.4-.36,.88-.63,1.46-.75,1.23-.25,1.85-1.2,2.8-1.79,.27-.16,.28-.65,1.05-.2,.18,.1,.31-.1,.32-.28,.07-1.25,.86-1.67,1.92-1.9,.56-.12,.71-.77,.86-1.37,.24-.9,1.1-1.29,1.7-1.9,1.01,.47,.45-.48,.25-.93-.26-.6-.17-.84,.03-1.07,.26-.28,.65-.44,.42-1.18-.12-.38,.24-.64,.65-.54,.55,.13,.46-.1,.4-.51-.07-.48,.86-.05,1.09-.36,.24-.33,.18-1.04,1.24-.57,.09,.04,.17-.06,.15-.16-.31-1.32,1.4-.79,1.56-1.69,2.47-.86,3.25-3.3,5.13-4.74,.78-.59,2.02-.77,2.29-1.81,.56-2.18,2.46-3.17,3.69-4.77,.26-.34,.23-1.04,1.27-.59,.14,.06,.27-.09,.23-.24-.27-1.13,.39-1.38,1.31-1.38,.22,0,.41-.23,.29-.47-.34-.7,.09-.72,.3-.92,.25-.24,1.04-.11,.93-.52-.24-.87,.56-.43,.9-.56,.21-.08,.23-.39,.3-.63,.03-.11-.1-.43,0-.42,.56,.08,.73-.23,.85-.59l.09-.27c.01-.07,0-.1,0-.15,0-.08,.03-.12,.14-.1,.1,.02,.12-.03,.25,0,1.47,.27,1.76-.03,1.68-.76,.91,.05,.86-.11,.7-.22-.14-.12-.39-.21,.44-.29,.61-.07,.68-.24,.37-.3-.69-.15-.64-.24-.36-.41,.26-.16,.75-.38,.61-.47-.02,0,.1-.05,.27-.1,.22-.07,.52-.15,.64-.2,.09-.04,.11-.07-.51,.06-.6,.13,.82-.33,.61-.35-.25-.02,.38-.37-1.34,.11-.69,.2-.33,0-.57,0-.29,.03,.04-.23-1.15,.22-.64,.25-.75,.23-.37-.03,.79-.54,.58-.62,.18-.51-.41,.11-1.02,.42-1.35,.6-.21,.1-.35,.21-.24,.01,.16-.27,.23-.65-.13-.31-.59,.62-.48,.34-.64,.35-.06,0-.1,0-.15,0l-.3-.07c-.42-.1-.84-.2-1.27-.23-.98-.08-1.87-.62-2.97-.12-.59,.27-1.34,.48-1.7-.75-.04-.14-.38,.45-.54,.43-1.22-.17-2.43-.35-3.63-.63-.28-.07-.4-1.23-.8-.38-.43,.92-.42-1.02-.83,.1-.06,.16-.31,.1-.42-.03-1.25-1.43-2.83-.68-4.21-1.18-.33-.11-.77,.31-.93-.7-.98,.97-1.72-1.35-2.72,.31-.59-.34-1.32,.5-1.83-.69-.08-.19-.31,.07-.41-.1-.34-.6-.67,1.15-1.08,.21-.24-.54-.74-.26-1.13-.29-.36-.03-.72-.02-1.07-.03-.39,0-.79-.02-1.18-.02-.39,0-.78-.05-1.17,.04-.79,.18-1.52,.91-2.31,.69-.09-.03-.22,.12-.24,.3-.16,1.52-.59,.71-.9,.29-.25-.36-.46-.51-.7-.47-.65,.1-1.29,.23-1.95,.22-.4-.01-.71,.56-1.23-.32-.16-.27-.46-.15-.6,.09-.62,1.1-1.54,.73-2.3,1.08-.34,.16-.72,.2-1.08,.28-.28,.07-.35,.77-.8,.27-.93,1.53-2.41,1.31-3.62,1.97-.57,.37-1.15,.68-1.75,.97-.61,.28-1.17,.64-1.76,.95-.3,.17-.35,.75-1.16,.07-.15-.13-.35,.03-.29,.24,.15,.57,.2,.88-.4,.42-.11-.09-.17,.15-.17,.32,.01,.48-.21,.59-.67,.46-.35-.1-.72-.06-.75,.26-.1,.84-.18,1.55-1.33,1.14-.14-.05,.16,.59,.03,.64-.49,.22-.46,1-1.4,.77-.39-.09-.43,.32-.68,.44-.44,.23-.34,.91-.9,1.07-.57,.16-.76,.72-1.1,1.13-.35,.4-.7,.8-1.04,1.23l-1.03,1.26-1.02,1.3-1.02,1.32-1.03,1.34c-.25,.31-.56,.53-1.12,.61-1.44,.2-2.08,1.28-2.41,3.01-.02,.12-.14,.19-.21,.28-.94,1.2-1.77,2.53-3,3.53-.54,.44-1.33,.65-1.76,1.22-.28,.37-.69,.6-.56,1.36,.1,.65-.92,.39-.58,1.39,.13,.37-.21,.66-.57,.61-1.18-.17-1.39,.7-2.01,1.14-.69,.51-1.34,1.07-1.95,1.66-.3,.3-.83,.3-.68,1.17,.07,.43-.49,.54-.94,.47-.68-.12-1,.24-1.23,.67-.5,.93-.46,.99-1.55,1.06-.13,0-.23,.08-.33,.14-.96,.65-2.15,.99-2.83,1.99-.58,.83-1.34,1.34-2.12,1.82-.31,.19-.45,.8-1.22,.09-.11-.1-.28,.01-.29,.17-.11,1.33-1.12,1.24-1.79,1.63-.66,.39-.84,1.5-1.62,1.68-.73,.17-1.3,.67-1.95,1.01-.97,.52-1.47,.11-2.76-2.3-1.07-1.99-1.06-2.55-.51-3.38,1.16-1.77,3.15-2,4.31-3Z"/>
        </g>
        <g>
          <path class="cls-8" d="M33.1,52.6c7.91-3.74,15.96-7.57,22.76-13.84,5.98-5.51,10.78-12.72,17.01-17.79,12.62-10.25,28.57-9.94,42.92-8.07,8.59,1.12,17.11,2.63,25.53,4.53-16.11,10.64-28.66,28.21-44.95,38.42-20.9,13.1-46.83,11.83-64.19-3.15"/>
          <path class="cls-8" d="M38.48,49.5c1.65-.82,2.99-1.49,4.29-2.24,.2-.12,.37-.35,.63-.49,1.03-.56,2-1.26,3.04-1.72,1.13-.5,2.18-1.15,3.09-1.9,.86-.71,1.76-1.32,2.61-2.02,.28-.24,.56-.47,.96-.61,.29-.1,.72-.44,.9-.84,.03-.08,.19-.15,.29-.22,.11-.07,.28-.11,.33-.2,.62-.93,1.58-1.52,2.31-2.35,.18-.21,.45-.36,.48-.66,0-.08,.19-.27,.27-.3,.23-.07,.4-.21,.58-.4,.77-.82,1.54-1.66,2.29-2.5,.18-.58,.68-.98,1.07-1.42,.29-.34,.65-.61,.98-.92,.33-.31,.53-.78,.98-.96,.07-.03,.14-.2,.22-.3,.36-.44,.69-.94,1.1-1.28,.21-.18,.43-.35,.61-.56,2.36-2.63,4.81-5.23,7.64-7.41,.25-.19,.5-.34,.68-.66,.14-.25,.59-.59,.85-.65,.42-.1,.71-.34,1.03-.54l1.8-1.12c.37-.19,.73-.52,1.17-.46,.04,0,.16-.06,.19-.1,.3-.43,.79-.46,1.21-.65,.31-.12,.62-.25,.91-.52,.28-.25,.82-.51,1.18-.53,.47-.03,.82-.23,1.22-.36,1.15-.41,2.3-.82,3.48-1.12,1.17-.36,2.37-.6,3.56-.87,1.13-.23,2.22-.61,3.39-.7,.28,0,.57-.14,.84,.01,.05,.03,.27-.01,.36-.07,.3-.19,.62-.17,.98-.2,1.63-.1,3.28-.1,4.87-.26,1.24-.16,2.46-.05,3.69-.08,.41,0,.82,.14,1.23,.19,.4,.04,.81,.05,1.22,.06,.24,0,.48,.07,.73-.06,.13-.07,.48-.06,.62,.01,.46,.25,.97,.21,1.46,.25,1.39,.13,2.79,.26,4.18,.44,.34,.04,.73-.01,1.01,.24,.04,.04,.24-.01,.37-.02,.14,0,.31-.05,.4,0,.86,.4,1.82,.36,2.74,.5,2.22,.34,4.44,.63,6.65,1.03,.62,.11,1.19,.02,1.79,.13l1.74,.31c.41,.08,.86,.06,1.2,.35,.09,.08,.39,.13,.52,.1,.5-.13,.98,.07,1.46,.13,.59,.07,1.17,.33,1.79,.21,.17-.03,.44,.15,.68,.21,.41,.1,.82,.19,1.23,.26,.2,.03,.41,0,.61,.03l1.15,.19,1.31,.23,3.43,.69,.88,.19,.22,.05s-.09,.08-.13,.12l-.35,.25-1.43,1-1.44,1-.72,.5-.34,.24-.23,.18c-1.24,.96-2.5,1.89-3.71,2.88-.46,.37-.84,.9-1.46,1.02-.31,.48-.73,.72-1.22,.87-.07,.02-.14,.2-.22,.3-.25,.32-.33,.8-.88,.84-.02,0-.05,.05-.08,.07-.31,.21-.28,.62-.76,.78-.3,.1-.61,.46-.9,.71-.3,.26-.61,.53-.89,.82-.28,.3-.72,.49-.84,.93-.02,.07-.36,.15-.48,.29-.63,.68-1.47,1.16-1.93,2-.1,.19-.35,.41-.55,.52-.72,.4-1.18,1-1.72,1.62-.7,.82-1.5,1.66-2.47,2.17-.21,.11-.31,.14-.4,.38-.06,.16-.25,.33-.41,.47l-5.08,4.9c-.46,.45-1.06,.68-1.48,1.19-.17,.21-.49,.34-.52,.64,0,.04-.08,.13-.12,.15-.74,.36-1.08,1.15-1.74,1.6-.14,.1-.29,.17-.43,.26-.14,.1-.33,.18-.42,.31-.7,1.02-1.78,1.69-2.67,2.52-.3,.29-.73,.48-.86,.91-.02,.06-.16,.18-.24,.21-.73,.24-1.21,.89-1.84,1.29-.32,.21-.56,.6-.97,.62-.05,0-.16,.12-.22,.19-.11,.13-.19,.29-.31,.38-.36,.25-.83,.43-1.1,.72-.33,.36-.72,.6-1.09,.87-.21,.16-.49,.22-.72,.36-.22,.13-.43,.28-.64,.43-.31,.2-.6,.45-.93,.6-.33,.15-.44,.53-.86,.6-.33,.06-.49,.46-.77,.66-.14,.1-.32,.16-.48,.23-.12,.05-.28,.04-.38,.11-.23,.15-.49,.25-.69,.49-.14,.17-.52,.23-.79,.36-.26,.13-.51,.29-.77,.44-.26,.15-.56,.26-.76,.45-.94,.75-2.11,1.13-3.17,1.67-.27,.14-.56,.37-.89,.29-.06-.01-.22,.06-.29,.11-.94,.69-2.14,.9-3.18,1.4-.74,.38-1.48,.7-2.3,.93-.79,.21-1.61,.4-2.34,.73-.59,.28-1.21,.46-1.84,.56-.62,.08-1.11,.64-1.78,.41-.62,.15-1.24,.29-1.87,.35-.53,.06-1.06,.24-1.6,.1-.2-.05-.56,0-.75,.11-.63,.32-1.28,.36-1.96,.27-.16-.02-.35,.1-.54,.12-.56,.05-1.12,.11-1.67,.11-.42,0-.83,.03-1.24,.07l-1.23,.05c-.82,.04-1.65,.1-2.48,.09-.31,0-.65,.18-.92,.1-.81-.21-1.64-.28-2.47-.34-.83-.06-1.66-.08-2.45-.32-1.17-.33-2.35-.52-3.53-.75-1.16-.29-2.34-.55-3.49-.87-.3-.08-.56-.35-.72-.35-.48,0-.94-.29-1.34-.3-.72-.01-1.33-.38-1.99-.55-.49-.11-.92-.48-1.43-.43-.07,0-.23-.07-.3-.13-.58-.51-1.38-.48-2-.87-.7-.13-1.32-.46-1.94-.8-.62-.34-1.22-.71-1.85-1.01-.19-.09-.39-.13-.59-.2-.1-.04-.23-.06-.29-.12-.91-.95-2.13-1.48-3.16-2.25-.35-.24-.62-.58-.93-.87-.32-.29-.71-.5-.91-.9-.06-.12-.27-.25-.43-.35-.85-.51-1.17-1.27-.76-1.76,.15-.18,.31-.06,.53,0,.42,.12,.79,.28,1.16,.59,.29,.24,.56,.55,.96,.59,.07,0,.2,.12,.25,.19,.38,.56,1.04,.88,1.49,1.3,.33,.34,.71,.56,1.06,.84,.3,.24,.68,.35,.89,.73,.07,.13,.47,.18,.7,.32,.55,.29,1.11,.57,1.63,.89,.81,.48,1.64,.91,2.51,1.24,.88,.32,1.75,.64,2.59,1.05,.33,.07,.65,.17,.97,.29,.33,.09,.65,.2,.97,.32,.64,.23,1.27,.48,1.92,.63,.39,.08,.78,.21,1.17,.3l1.17,.27c.78,.19,1.55,.39,2.33,.55,.32,.07,.58,.12,.85,.24,.18,.08,.37,.16,.56,.2,.75,.14,1.51,.24,2.25,.39,.4,.08,.87,.02,1.2,.3,.05,.04,.23,.05,.31,.03,.7-.21,1.4,.02,2.1,.05,.27,.01,.52,.04,.8,.17,.31,.14,.8,.15,1.14,.05,.25-.07,.47-.07,.71-.09,.98-.08,2.01,.21,2.96-.12,.51,.25,1.14,.11,1.64,.01,.97-.21,1.95-.24,2.93-.37,.97-.13,1.95-.24,2.92-.4,.47-.08,.96-.02,1.44-.12,.5-.09,1-.21,1.49-.33,.26-.07,.59-.04,.75-.29,.01-.02,.06-.04,.08-.04,.29-.03,.6-.02,.87-.1,.25-.07,.44-.25,.67-.37,.28-.13,.59-.23,.89-.33,.29-.09,.59-.23,.88-.13,.16-.29,.53-.28,.82-.39,.27-.1,.55-.17,.83-.26,.31-.09,.62-.2,.92-.32,.3-.12,.62-.22,.91-.36,.4-.19,.78-.43,1.18-.61,.43-.19,.87-.36,1.31-.51l1.64-.62c.23-.09,.39-.23,.57-.41,.24-.23,.49-.61,.99-.51,.1,.02,.35-.12,.47-.22,.97-.84,2.19-1.3,3.25-1.99,.73-.14,1.24-.6,1.8-1.08,.83-.68,1.77-1.3,2.69-1.81,.98-.54,1.82-1.24,2.72-1.86,.25-.18,.46-.46,.79-.45,.08,0,.25-.16,.33-.26,.55-.74,1.29-1.2,2.07-1.69,.42-.25,.77-.67,1.12-1.08,.53-.61,1.25-1.1,1.87-1.67,.44-.05,.48-.43,.54-.64,.08-.28,.24-.45,.46-.65,.28-.26,.59-.47,.75-.85,.08-.19,.41-.47,.62-.55,.29-.1,.32-.21,.45-.44,.15-.27,.55-.31,.82-.57,.29-.28,.54-.7,.99-.74,.04,0,.13-.09,.15-.15,.35-.72,1.16-.94,1.62-1.54,1.83-1.31,3.26-3.08,4.95-4.57,.7-.61,1.5-1.12,2.08-1.84,1.2-1.52,2.72-2.72,4.09-4.07,.29-.29,.54-.7,1-.75,.06,0,.2-.14,.24-.22,.29-.59,.78-.94,1.34-1.23,.14-.07,.34-.26,.36-.37,.07-.31,.34-.45,.54-.63,.25-.21,.69-.38,.78-.58,.19-.43,.51-.42,.78-.6,.16-.11,.3-.3,.43-.45,.06-.08,.1-.22,.16-.24,.63-.26,.91-.92,1.47-1.25,.12-.07,.23-.17,.35-.23,1.38-.72,1.34-.76,2.78-2.03,.61-.06,.82-.81,1.42-.96,.21-.04,.55-.34,.67-.5,.16-.28,.31-.41,.54-.56,.22-.14,.53-.31,.65-.45,.06-.04,.08-.06,.11-.09,.02-.03-.03-.05-.27-.01-.17,.03,.02-.12-.14-.15-.18-.03-.3-.18-.66-.04-.13,.06-.22-.03-.33-.04-.03,0-.25-.05-.41-.08-.17-.03-.34-.04-.53,0-.2,.05-.63-.03-.83-.16-.8-.52-1.67-.38-2.5-.41-.25-.01-.43-.01-.67-.11-.34-.14-.8-.33-1.1-.28-.53,.09-.98-.07-1.46-.15-.83-.13-1.65-.32-2.49-.44-.95-.14-1.87-.38-2.86-.37-.53,0-1.22-.02-1.74-.39-.06-.04-.31,.08-.46,.06l-3.58-.54c-.27-.05-.54-.37-.82-.18-.3,.2-.53-.31-.79-.05-.04,.04-.29,0-.41-.05-1.36-.5-2.83-.43-4.24-.68-.34-.05-.74,.02-.98-.25-.89,.18-1.8-.48-2.68-.1-.61-.12-1.29,.05-1.87-.28-.09-.05-.31,0-.42-.04-.37-.16-.63,.27-1.07,.01-.26-.15-.76-.09-1.15-.12l-1.09-.02-1.2-.02c-.4-.01-.8-.02-1.19,0-.8,.06-1.58,.23-2.4,.21-.09,0-.24,.04-.27,.09-.26,.39-.67,.21-.95,.11-.24-.08-.44-.11-.69-.09-.69,.03-1.36,.15-2.04,.19-.4,.03-.82,.19-1.23,0-.13-.05-.45,.01-.62,.1-.8,.39-1.71,.34-2.55,.58-.38,.1-.77,.18-1.15,.25-.29,.06-.55,.28-.88,.19-1.32,.69-2.81,.87-4.16,1.44l-1.02,.38-1,.44c-.66,.31-1.36,.54-1.99,.9-.32,.17-.62,.46-1.03,.39-.08-.01-.31,.11-.35,.19-.12,.22-.23,.35-.53,.31-.06-.01-.21,.13-.28,.22-.2,.25-.43,.38-.74,.46-.24,.07-.54,.21-.71,.38-.23,.23-.45,.45-.7,.62-.24,.2-.5,.35-.83,.44-.08,.02-.15,.29-.27,.36-.45,.3-.82,.73-1.37,.91-.22,.08-.43,.34-.66,.5-.4,.27-.64,.69-1.06,.97-.44,.28-.79,.72-1.18,1.09-.39,.37-.76,.77-1.15,1.15l-1.12,1.18-1.1,1.2-1.09,1.22-1.09,1.24c-.26,.29-.51,.54-.84,.77-.84,.58-1.61,1.51-2.44,2.75-.06,.09-.15,.17-.22,.25-.96,1.08-1.92,2.18-2.97,3.16-.47,.43-.99,.81-1.46,1.26-.3,.3-.62,.56-.83,.96-.18,.33-.7,.5-.85,.95-.05,.17-.37,.42-.57,.5-.66,.25-1.12,.79-1.68,1.19l-1.89,1.41c-.31,.24-.67,.38-.88,.77-.11,.19-.52,.4-.81,.49-.44,.13-.79,.39-1.1,.66-.68,.57-.67,.58-1.48,.91-.1,.04-.19,.1-.29,.15-.93,.55-1.93,1.02-2.78,1.63-.72,.5-1.46,.92-2.23,1.32-.3,.16-.6,.45-.98,.35-.05-.01-.23,.08-.29,.14-.52,.57-1.28,.79-1.95,1.12-.65,.33-1.15,.81-1.84,1.08-.65,.25-1.27,.59-1.9,.89-.96,.45-1.23,.41-1.52-.2-.24-.51-.05-.74,.67-1.21,1.52-1,3.24-1.61,4.51-2.33Z"/>
        </g>
        <g class="cls-12">
          <g class="cls-12">
            <path class="cls-5" d="M67.25,76.77c-1.42,.02-2.84-.34-4.18-.66-1.33-.36-2.6-.66-3.84-.67-.26,0-.55,0-.84-.01,.12,.06,.25,.12,.37,.18,2.81,1.37,6.29,2.27,9.65,1.99,2.08-.28,4.04-1.12,6.17-1.75,.24-.07,.17-.37,.13-.53-.28-.12-.52-.27-.75-.43-1.57,.7-3.27,1.29-5.08,1.38-.59-.02-1.26,.53-1.63,.49Z"/>
            <polygon class="cls-7" points="74.04 74.91 74 74.88 73.76 74.99 74.04 74.91"/>
            <path class="cls-4" d="M69.96,76.25c-.58,.14-1.16,.21-1.74,.18-.38,.15-.74,.37-.97,.34-1.42,.02-2.84-.34-4.18-.66-1.33-.36-2.6-.66-3.84-.67-.26,0-.54,0-.83-.01l.4,.19c.98,.47,2.03,.89,3.13,1.22h.19c.67-.07,1.2,.29,1.81,.41,1.76,.1,3.24,.43,5.04,.21,.64-.11,1.28-.49,2.02-.58,.25-.05,.5-.07,.74-.08,.95-.32,1.89-.65,2.89-.95,.24-.07,.16-.37,.13-.53-.14-.06-.28-.14-.41-.21-.4,.09-.78,.21-1.18,.32-.4,.09-.8,.17-1.2,.26-.69,.2-1.39,.42-2.12,.49,.03,.03,.07,.05,.12,.07Z"/>
            <path class="cls-7" d="M69.85,75.78c-.1,0-.21,.24,0,.4,.73-.08,1.43-.3,2.12-.49-.69,.1-1.39,.19-2.12,.09Z"/>
            <path class="cls-9" d="M69.85,74.67c-1.31,.01-2.6,.35-3.69,0-.56-.2-1.1-.47-1.53-.86-.18-.02-.36-.05-.53-.07-4.45-.48-8.8-2.24-12.73-4.6-2.02-1.12-4.19-1.65-6.5-2.38-1.32-.54-2.19-1.37-3.4-2.13-3-1.99-6.46-1.81-9.99-1.93-.97-.03-1.23,1.21-1.01,1.25,2.84,.1,5.57,.92,8.17,1.98,2.61,1.07,5.13,2.37,7.84,3.54,4.19,1.84,7.93,4,11.91,5.96,.29,0,.57,0,.84,.01,1.24,0,2.51,.3,3.84,.67,1.34,.32,2.76,.68,4.18,.66,.37,.04,1.03-.51,1.63-.49,1.81-.09,3.51-.68,5.08-1.38-.47-.34-.86-.69-1.27-.94-.9,.42-1.87,.77-2.85,.71Z"/>
            <path class="cls-6" d="M69.85,74.67c.98,.06,1.95-.3,2.85-.71-.2-.13-.41-.22-.63-.26-1.21-.06-2.41,.02-3.65,.11-1.24,.1-2.54,.13-3.78,0,.43,.39,.97,.66,1.53,.86,1.08,.35,2.37,0,3.69,0Z"/>
            <path class="cls-4" d="M69.85,74.67c.93,.05,1.86-.26,2.72-.66-.33,0-.64,.03-.96,.09-1.6,.24-3.28,.41-4.87,0,1.73,.12,3.47,.03,5.12-.42-.58,0-1.18-.04-1.76,.03-.59,0-1.18,.09-1.79,.11-1.21,.1-2.47,.12-3.67,0,.43,.38,.97,.65,1.53,.85,1.08,.35,2.37,0,3.69,0Z"/>
            <path class="cls-3" d="M67.15,74.93c2.01,.25,4.12,.15,6.03-.68-.12-.09-.23-.17-.34-.24-.09,0-.17,0-.26,0-.86,.4-1.79,.71-2.72,.66-1.31,.01-2.6,.35-3.69,0-.56-.2-1.09-.47-1.53-.85-.17-.02-.34-.05-.5-.07-2.26-.24-4.52-.82-6.7-1.64-2.04-.35-4.04-1.37-5.85-2.58,.91,.46,1.83,.88,2.77,1.25-1-.49-1.98-1.03-2.95-1.61-.86-.48-1.74-.84-2.65-1.16-.31,.17-.7,.25-1.21,.08-.8-.27-1.51-.67-2.4-.8-.1-.06,.02-.26-.18-.37,.57,.32,1.13,.41,1.66,.4-.57-.17-1.15-.35-1.72-.52-1.04-.43-1.8-1.02-2.66-1.64l-.32-.11c-.53-.19-1.09-.31-1.68-.38,.21,.1,.42,.2,.64,.3-.39-.02-.83-.21-1.15-.37,.17,.02,.34,.04,.51,.06-.5-.23-.98-.46-1.52-.69,.66,.27,1.37,.45,1.99,.56-1.23-.48-2.38-.84-3.55-1.45h.11c-1.86-.31-3.77-.29-5.75-.36-.97-.03-1.23,1.21-1.01,1.25,3.99,.14,7.66,1.69,11.24,3.35-.33-.35-.67-.68-1.03-1.01-.17-.12-.32-.25-.45-.41,.15,.13,.29,.27,.45,.41,.45,.31,1,.54,1.47,.91,.06,.12,.37,.28,.59,.13,.64,.52,1.58,.76,2.2,1.29,.04,.02,.08,.12,.13,.24,.46,.2,.92,.41,1.39,.62,2.62,1.15,5.06,2.43,7.5,3.7-.55-.4-1.05-.82-1.49-1.26-.57-.65-2.2-1.1-3.51-1.66-.35-.11-.42-.42-.73-.59,1.4-.02,2.61,1.11,3.93,1.64,1.71,.75,3.93,2.35,6.02,2.57,.85,.1,1.53,.57,2.11,1.03-.28,.07-.73-.09-.95-.17-2-.72-3.93-1.59-5.89-2.41,1.88,1.21,3.92,1.88,5.93,2.92-1.28-.36-2.34-1.16-3.6-1.28,.07,.1,.15,.18,.23,.27,.76,.38,1.53,.78,2.33,1.18,.29,0,.57,0,.83,.01,1.24,0,2.51,.3,3.84,.67,1.34,.32,2.76,.68,4.18,.66,.23,.03,.59-.19,.97-.34-.45,0-.9-.04-1.34-.1-.45-.05-.89-.1-1.33-.15,.35,.12,.68,.26,1,.44-.86,0-1.51-.44-2.35-.51,.46,.01,.91,.02,1.35,.07-.52-.17-1.08-.28-1.62-.45,1.1-.08,2.03,.68,3.18,.32-.23,0-.47-.03-.69-.07l.71,.07h-.01c.71,.03,1.43-.14,2.05-.32-1.22,.07-2.29-.28-3.46-.39-.19,0-.39-.02-.58-.03,.2,0,.39,0,.58,.03,1.34,.06,2.68,.16,4.03,.13,1.35,0,2.72-.13,4.04-.48l.24-.1-.31-.23c-2.15,.6-4.44,.67-6.54,.28Z"/>
          </g>
        </g>
        <g class="cls-12">
          <g class="cls-12">
            <path class="cls-5" d="M98.28,63.39c-.72,1.09-2.19,1.5-2.43,2.79-.04,.14-.08,.28-.11,.42l.18-.08c1.35-.65,2.57-1.73,3.35-3.01,.38-.87,.47-1.93,1.08-2.71,.07-.09-.19-.27-.32-.36-.22-.03-.45-.08-.68-.13-.27,.75-.51,1.54-.99,2.2-.18,.2,.03,.75-.08,.87Z"/>
            <polygon class="cls-7" points="99.4 60.31 99.36 60.3 99.31 60.41 99.4 60.31"/>
            <path class="cls-4" d="M98.69,62.16c-.09,.27-.22,.49-.4,.68,0,.22,.07,.48,0,.55-.72,1.09-2.19,1.5-2.43,2.79-.04,.13-.08,.27-.11,.42,.06-.03,.13-.06,.19-.09,.48-.22,.91-.51,1.35-.82l.03-.09c.05-.35,.42-.38,.63-.57,.42-.69,1-1.08,1.38-1.8,.13-.26,.01-.72,.23-.97,.06-.1,.14-.18,.22-.25,.13-.44,.3-.86,.59-1.22,.07-.09-.19-.27-.32-.36-.12-.01-.24-.04-.36-.06-.25,.27-.44,.58-.67,.88-.11,.31-.26,.61-.42,.9,.03,0,.06,0,.09,0Z"/>
            <path class="cls-7" d="M98.29,61.9s.12,.22,.31,.25c.16-.29,.31-.59,.42-.9-.19,.25-.43,.47-.73,.65Z"/>
            <path class="cls-9" d="M97.43,61.2c-.46,.41-.52,1.11-1.06,1.31-.26,.12-.62,.15-.99,.11-.05,.07-.1,.13-.15,.19-1.15,1.66-2.67,3.1-4.52,3.88-.87,.47-1.39,1.37-2.15,2.17-.51,.36-1.13,.23-1.75,.26-1.57-.03-2.34,1.59-3.84,2.33-.39,.2-.24,1.45-.13,1.44,1.34-.51,2.63-.86,3.92-1.28,1.28-.43,2.53-.97,3.65-1.8,1.73-1.28,3.41-2.29,5.33-3.2,.03-.15,.07-.29,.11-.42,.24-1.3,1.71-1.71,2.43-2.79,.12-.12-.1-.67,.08-.87,.48-.66,.71-1.46,.99-2.2-.47-.12-.94-.27-1.3-.34-.09,.48-.23,.96-.61,1.22Z"/>
            <path class="cls-6" d="M97.43,61.2c.39-.27,.52-.74,.61-1.22-.18-.03-.34-.04-.47,0-1.19,.49-1.5,1.74-2.2,2.65,.37,.04,.73,.01,.99-.11,.54-.21,.6-.9,1.06-1.31Z"/>
            <path class="cls-4" d="M97.43,61.2c.37-.26,.51-.7,.6-1.16-.14,.08-.26,.18-.35,.29-.5,.57-.9,1.23-1.62,1.59,.53-.59,1.02-1.23,1.41-1.92-1.1,.52-1.4,1.73-2.09,2.61,.37,.04,.73,.01,.99-.11,.54-.21,.6-.9,1.06-1.31Z"/>
            <path class="cls-3" d="M96.82,62.3c.72-.6,1.36-1.31,1.67-2.23-.12-.03-.24-.06-.35-.08-.04,.02-.08,.04-.11,.06-.09,.46-.23,.9-.6,1.16-.46,.41-.52,1.11-1.06,1.31-.26,.12-.62,.15-.99,.11l-.14,.18c-.58,.85-1.28,1.62-2.04,2.31-.43,.87-1.29,1.42-2.22,1.7,.38-.22,.71-.52,1.04-.82-.42,.26-.84,.51-1.3,.69-.37,.19-.67,.48-.96,.78,.08,.29,.09,.58-.07,.76-.25,.3-.59,.41-.79,.84-.05,.02-.15-.2-.24-.16,.27-.1,.4-.36,.46-.67-.17,.2-.35,.41-.54,.61-.4,.29-.87,.25-1.35,.26-.04,.03-.08,.06-.12,.08-.2,.12-.38,.33-.55,.56,.1-.03,.19-.05,.29-.08-.1,.19-.3,.24-.44,.29l.15-.2c-.23,.06-.45,.13-.69,.18,.3-.06,.54-.31,.74-.52-.5,.23-.96,.49-1.54,.45l.03-.05c-.64,.52-1.27,1.22-2.09,1.62-.39,.2-.24,1.45-.13,1.44,1.86-.71,3.67-1.11,5.42-1.86-.27-.07-.53-.14-.78-.21-.1,0-.21-.03-.32-.08,.1,.03,.21,.05,.32,.08,.28,.02,.52-.13,.82-.11,.08,.06,.24,0,.2-.23,.43,.03,.73-.35,1.15-.35,.02,0,.09,.04,.16,.09,.2-.13,.41-.25,.59-.41,1.09-.79,2.14-1.5,3.26-2.12-.34,.06-.67,.1-1.02,.08-.49-.06-.94,.61-1.44,1.05-.11,.14-.32-.02-.47,.05,.14-.84,.98-.84,1.46-1.29,.64-.55,1.97-.83,2.35-1.81,.15-.4,.6-.43,1-.47,.02,.19-.14,.32-.23,.39-.78,.59-1.56,1.14-2.3,1.77,1.01-.34,1.67-1.09,2.7-1.48-.44,.42-1.1,.55-1.32,1.15,.07,.02,.15,.03,.22,.03,.37-.18,.72-.38,1.11-.55,.03-.15,.07-.29,.11-.42,.24-1.3,1.71-1.71,2.43-2.79,.07-.07,.01-.33,0-.55-.28,.3-.61,.54-.87,.86,.16-.07,.34-.12,.57-.13-.21,.33-.68,.34-.91,.64,.08-.2,.2-.37,.34-.52-.25,.1-.46,.26-.68,.4,.13-.53,.94-.44,.94-1.1-.06,.08-.14,.16-.23,.22l.23-.23h0c.19-.25,.29-.58,.34-.91-.32,.45-.9,.61-1.22,1.03-.05,.07-.1,.14-.15,.22,.04-.08,.09-.15,.15-.22,.67-1.02,1.72-1.75,2.52-2.71l.04-.11-.32-.08c-.63,.8-1.38,1.52-2.22,2.08Z"/>
          </g>
        </g>
      </g>
    </g>
  </g>
</svg>