<?xml version="1.0" encoding="UTF-8"?>
<svg id="_Слой_2" data-name="Слой 2" xmlns="http://www.w3.org/2000/svg" xmlns:xlink="http://www.w3.org/1999/xlink" viewBox="0 0 140.7 183.52">
  <defs>
    <style>
      .cls-1 {
        fill: none;
      }

      .cls-2 {
        clip-path: url(#clippath);
      }

      .cls-3 {
        fill: #f3f9fb;
      }

      .cls-4 {
        fill: #f7fbfc;
      }

      .cls-5 {
        fill: #f8fcfd;
      }

      .cls-6 {
        fill: #f4fafb;
      }

      .cls-7 {
        fill: #f5fafb;
      }

      .cls-8 {
        fill: #eab7c9;
      }

      .cls-9 {
        fill: #fbfdfe;
      }

      .cls-10 {
        fill: #e29fb4;
      }

      .cls-11 {
        fill: #6e7c6e;
      }

      .cls-12 {
        opacity: .49;
      }

      .cls-13 {
        opacity: .8;
      }
    </style>
    <clipPath id="clippath">
      <rect class="cls-1" width="140.7" height="183.52"/>
    </clipPath>
  </defs>
  <g id="_лепестки" data-name="лепестки">
    <g class="cls-2">
      <g>
        <g>
          <g class="cls-12">
            <path class="cls-11" d="M48.16,80.84c-12.22,7.48-30.06,5.15-44.7-5.85,12.09-12.94,27.39-21.63,42.55-30.2,4.22-2.39,8.57-4.82,13.67-5.09,5.11-.27,11.22,2.05,15.11,7.28,.68,.92,1.3,1.97,1.43,3.03,.13,1.11-.28,2.03-.69,2.89-3.66,7.72-7.39,15.53-12.94,21.39-5.56,5.85-13.24,9.62-21.95,8.19"/>
            <path class="cls-11" d="M44.68,84.63c-.67,.31-1.32,.48-1.92,.68-.61,.19-1.17,.42-1.73,.63-.18,.06-.25,.61-.49,.66-.93,.16-1.8,.92-2.81,.43-1.09-.53-2.03-.4-2.94,.04-.86,.44-1.76,.41-2.64,.52-.3,.04-.59,.14-.91-.46-.23-.44-.64-.49-.99,.27-.07,.15-.2-.01-.29-.08-.1-.08-.21-.41-.29-.3-.93,1.11-1.78,.13-2.68,.33-.23,.05-.42-.31-.71,.44-.07,.19-.29,.19-.33,0-.1-.51-.25-.63-.46-.66-.89-.13-1.8-.25-2.67-.47-.64,.89-1.05,.33-1.51,.21-.35-.09-.61-.51-.9-.79-.3-.26-.83,.22-.91-.73-.01-.15-.22,.06-.32,.05-.44-.06-.99,.11-1.29-.33-.15-.23-.3-.45-.51-.51-2.58-.96-5.13-2.01-7.55-3.3-.22-.12-.33-.31-.89,.06-.45,.27-1.02,0-.96-.51,.1-.79-.37-.73-.66-.97-.51-.42-1.18-.71-1.67-1.13-.27-.23-1.19-.23-.43-.92,.07-.07-.03-.13-.16-.1-1.41,.24-.89-.42-1.05-.69-.14-.21-.38-.37-1.28-.41-.88-.04-1.51-.4-1.05-.69,.28-.19,.31-.31,.22-.42-.04-.05-.12-.1-.2-.15-.06-.05-.22-.09-.17-.15l.05-.05c1.62-1.6,3.13-3.14,4.66-4.68,.36-.37,.52-.86,.78-1.36,.24-.48,.65-1.01,1.05-1.14,.21-.08,.13-.52,.74-.11,.13,.08,.19-.09,.13-.27-.24-.64,.1-.62,.32-.78,1.04-.7,2.22-1.22,2.78-2.45,.44-.95,1.3-1.37,1.94-2.07,.21-.24,.76-.04,1.07-.15,.3-.11,.52-.33,.74-.55,.13-.13,.4-.08,.2-.64-.11-.3,.05-.53,.29-.4,.79,.46,.9-.04,1.21-.24,.89-.58,1.72-1.26,2.61-1.83,.22-.14,.22-.65,.92-.06,.09,.08,.06-.23,.09-.36,.03-.13,0-.41,.12-.35,1.21,.55,1.43-.4,2.04-.75,1.47-.85,2.8-1.92,4.32-2.69,.42-.22,.37-1.08,.79-1.28,.4-.2,.74-.5,1.15-.68,.29-.12,.37-.64,1.08-.03,.2,.17,.38,.04,.34-.21-.16-.93,.41-.74,.66-1.05,.3-.37,.99-.13,.89-1.16-.03-.28,.43,.03,.6-.03,.31-.1,.6-.24,.85-.44,.12-.1,.08-.45,.2-.56,.9-.78,1.77-1.61,2.74-2.28,.98-.68,2.06-1.21,3.09-1.8,1.04-.59,2.04-1.24,3.12-1.73,.41-.18,.49-1.03,1.44-.18,0-.83,.54-.63,1.25-.09,.1,.08,.05-.29,.08-.42,.11-.42-.23-1.64,.71-.64,.03,.04,.04-.03,.08-.03,.34,.03-.13-1.25,.58-.71,.44,.34,.66-.03,.95-.13,.3-.11,.61-.21,.84-.45,.25-.25,.83,.15,.68-.88-.02-.17,.5,.36,.61,.26,.58-.54,1.62,.01,1.89-1.36,.06-.32,.34-.38,.59-.22,.91,.58,1.34-.03,1.93-.52,.75-.66,1.79-1.03,2.86,.07,.23,.24,.33,.43,.46-.03,.09-.3,.32-.27,.5-.29,2-.22,4.09-.09,6.04,.35,.55,.11,.78,1.17,1.39,.98,.26-.08,.35,.47,.79-.24,.06-.1,.17-.13,.19-.05,.3,1.08,1.39,.11,1.86,.74,.09,.14,.14,.36,.22,.51,.09,.15,.13,.43,.3,.36,.71-.29,1.21-.08,1.64,.22,.42,.32,.79,.7,1.28,.9,.35,.14,.33,.77,1.19,.2,.13-.08,.25,.03,.22,.18-.28,1.29,.79,1.05,1.04,1.72,.12,.32,.84,.16,.31,1.03-.07,.11,.09,.14,.2,.15,.18,.02,.51-.09,.59,.02,.21,.32,.03,.97,.48,1.03,.55,.04,.73,.58,1,.95,.16,.23-.09,.67-.07,.93,.03,.26,.21,.45,.31,.69,.14,.32,.44,.64,.31,1.02-.1,.27,.42,.4,.49,.66,.02,.1-.03,.21-.21,.33-.5,.31,.43,.62,.5,1,.04,.18-.11,.36-.24,.52-.1,.12-.46,.2-.46,.32-.01,.28-.27,.47,.05,.86,.22,.28-.45,.47-.64,.69-.18,.22-.28,.55-.36,.72-.09,.2-.38,.33-.25,.61,.54,1.23-.41,1.78-.68,2.65-.07,.22,.13,.61-.74,.42-.15-.04-.22,.08-.16,.18,.71,1.3-.55,1.67-.63,2.6-.06,.67,.07,1.43-.32,1.94-.38,.5-.9,.96-.81,1.69,.07,.6,.1,1.19-.34,1.51-.42,.31,.84,1.58-.66,1.26-.24,.43-.46,.87-.78,1.26-.26,.32-.16,.89-1.11,.77-.34-.04-.48,.21-.33,.5,.48,.93-.04,1.22-.71,1.39-.16,.04,.1,.42,.04,.55-.21,.39-.42,.79-.78,1.08-1.07,.83-1.11,2.47-2,3.51-.17,.19,.16,.85-.13,.9-1.7,.25-1.92,2.04-3.38,2.48-2.12,.58-3.3,2.29-5.17,3.15-.24,.11-.84-.39-.84-.14,0,.77-.68,.47-.73,1.05-.12,1.07-.93,.78-1.37,1.21-.33,.33-.97-.04-.98,1.02,0,.16-.16,.19-.27,.1-.91-.66-1.06,.87-1.83,.63-.42,.73-1.03,.98-1.66,1.09-.63,.13-1.28,.11-1.89,.32-.18,.06-.33,.34-.49,.5-.09,.08-.18,.25-.27,.18-.66-.54-1.24-.56-1.82-.47-.58,.08-1.18,.22-1.76,.07-.39-.09-.75-.46-1.12-.6-.37-.14-.79,.13-1.08-.64-.09-.24-.31-.15-.48-.08-.93,.38-1.33-1.27-.9-3.78,.15-.91,.3-.94,.5-1.26,.39-.62,.71-1,1.04-.89,.25,.09,.53,.4,.82-.47,.05-.15,.16-.11,.22,0,.4,.82,.93,.22,1.35,.74,.33,.41,.65,.3,.97,.46,.28,.12,.52-.37,.86,.41,.12,.26,.32-.45,.5-.5,.43-.14,.86-.26,1.32-.21,.7,.04,1.32-.32,1.88-.74,.29-.21,.56-.42,.86-.58,.29-.18,.58-.31,.92-.35,.44-1.38,1.72-.83,2.29-1.77,.34-.55,.75-.91,1.21-1.21,.44-.34,.92-.61,1.27-1.06,.14-.18,.3-.27,.64-.16,.22,.07,.46,.15,.58,.08,.44-.3,.8-.72,1.27-.99,.25-.16,.09-.79,1.01-.19,.13,.08,.22-.02,.17-.15-.39-1.1,.41-1,.67-1.44,.1-.17,.24-.28,.67-.17,.46,.11,.67-.18,.54-.61-.1-.32,0-.45,.04-.64,.18-.76,1.5-.66,.9-2,1.13,.41,1.1-.2,1.1-.65-.01-1.75,1.4-2.49,1.98-3.83,.14-.32,.74-.36,1-.62,.27-.27,.43-.62,.57-.97,.08-.18,.52-.21-.13-.75-.05-.04-.07-.09-.05-.1,.22-.12,.6-.16,.65-.37,.04-.19-.36-.61-.4-.85-.05-.29,.05-.5,.15-.72,.09-.21,.04-.51,.78-.32-.73-.58-.2-.6-.16-.84,.04-.22,.19-.39,.28-.58l.33-.65c.11-.22,.29-.4,.31-.66,.04-.35-.12-.79-.05-1.13,.07-.36,.22-.67,.46-.95,.3-.35,.74-.62,1.08-.95,.14-.14,0-.38-.21-.68-.28-.4-1.01-1.08,.25-.82,.25,.05,.28-.17,.18-.35-.19-.35-.24-.65-.21-.9,.01-.13,.05-.25,.09-.36,.05-.11,.12-.24,.13-.23,.1-.06,.33-.13,.18-.28,1.01,.03,.44-.28,.15-.36l-.09-.03c-.37-.14-.48-.14-.1-.52,.11-.11,.15-.21,.16-.29,0-.04,0-.07,0-.11-.03-.07-.08-.14-.13-.2-.19-.25-.39-.5-.53-.81-.08-.18-.46-.08,.05-.78,.12-.16-.02-.23-.17-.19-1.02,.25-1.17-.24-1.25-1.05-.03-.43-.54-.33-.98-.26-.67,.14-.88-.44-1.32-.68,.32-1.02-.34-.18-.64,.18-.41,.48-.56,.52-.71,.46-.19-.08-.31-.33-.76,.22-.23,.28-.39,.12-.36-.26,.04-.5-.1-.31-.33-.05-.27,.32-.11-.68-.32-.68-.23,0-.59,.43-.51-.68,0-.1-.06-.1-.11-.03-.33,.5-.49,.34-.65,.09-.16-.23-.32-.54-.56-.33-.52-.7-1.19-.81-1.81-.74-.61,.04-1.27,.28-1.94,.16-.56-.09-1.32-.76-1.76-.12-.86,1.31-2.2,1.03-3.32,1.74-.23,.15-.3,.73-.99-.13-.1-.12-.21-.05-.2,.1,.05,1.06-.43,.96-1.12,.58-.17-.1-.33,.01-.27,.27,.18,.73-.14,.57-.32,.64-.22,.09-.8-.32-.75,.07,.12,.83-.46,.15-.74,.14-.17,0-.21,.25-.28,.43-.04,.08,.04,.41-.03,.36-.86-.55-.63,.82-1.23,.73-.13-.02-.21,.05-.35,.01q-1.57-.48-2.52,.75c-.98-.94-.43,.95-1.29,.3-.31-.24-.53-.02-.57,.3-.17,1.41-1.37,1.07-1.95,1.78-.12,.15-.67-.54-.52,.19,.06,.27-.58-.25-.73-.12-.22,.18-.72-.08-.53,.79,.08,.36-.28,.24-.41,.4-.17,.22-.56,.06-.43,.8,.07,.4-.2,.58-.51,.37-1.28-.86-1.17,.53-1.44,1.26-.08,.22-.13,.4-.4,.32-.39-.12-.9-.26-.86,.2,.06,.82-.4,.74-.69,.97-.49,.39-1.09,.6-1.57,1.02-.54,.47-1.34,.54-1.57,1.51-.13,.52-.36,1.08-1.33,.34-.11-.08,.09,.55,0,.61-.73,.51-1.44,1.03-2.23,1.44-.18,.09-1-.73-.65,.14,.37,.92-.87-.55-.36,.51,.07,.15-.09,.24-.23,.2-1.54-.42-1.89,.96-2.92,1.31-.25,.08-.21,.63-.94-.05,.12,1.25-1.77-.13-1.25,1.63-.54,.04-.38,1.07-1.43,.4-.17-.11-.13,.21-.29,.12-.57-.29,.36,1.22-.46,.7-.47-.3-.58,.17-.83,.32-.23,.14-.42,.33-.63,.49l-.69,.55c-.23,.18-.5,.31-.68,.56-.36,.5-.34,1.42-.98,1.59-.07,.02-.07,.19,.03,.34,.82,1.28,.05,.83-.39,.63-.37-.17-.59-.21-.73-.08-.38,.33-.71,.72-1.14,.98-.26,.16-.17,.73-1.01,.21-.13-.08-.24-.06-.28-.01-.02,.03,0,.1,.06,.19,.26,.43,.31,.52,.25,.57-.05,.05-.21,.04-.2,.13,.01,.08-.06,.11-.14,.14-.07,.04,.63,.27-.1,.11,.61,.26,.74,.29,.65,.34-.08,.04-.37,.1-.32,.15,.01,.01,.02,.02,.03,.03,.2,.06,.2,.13,.25,.23,.03,.04,.56-.2-.49,.34-.2,.11-.14,.13,.08,.02,.59-.28,.86-.45,.18,0-.12,.08,.05,0,.2-.07,.4-.23,.36-.2,.09,.07-.21,.21-.28,.37-.09,.24,.54-.34,.75-.79,.28,.16-.05,.12,.33-.44,.33-.41,.2,.26,.85-.01,.8,.88-.01,.37,.31,.26,.44,.43,.23,.3,.77-.08,.95,.36,.19,.44,.65,.38,.99,.53,.34,.15,.68,.33,1.03,.46l1.05,.4,1.05,.4c.35,.15,.71,.25,1.06,.36,.36,.11,.72,.21,1.07,.34,.25,.09,.44,.27,.59,.73,.38,1.17,1.27,1.21,2.42,.67,.08-.04,.15,.03,.22,.05,.96,.19,1.95,.14,2.87,.59,.4,.16,.78,.65,1.23,.62,.29-.02,.56,.16,.89-.44,.27-.51,.54,.45,.86-.5,.11-.34,.37-.32,.49-.04,.41,.94,.89,.46,1.33,.55,.52,.12,1.03,.03,1.54-.06,.25-.05,.53,.25,.72-.53,.09-.39,.41-.14,.63,.17,.33,.46,.61,.32,.84,.08,.51-.53,.47-.62,1.12-.12,.08,.06,.15,.05,.22,.04,.69-.1,1.46,.05,2.02-.55,.46-.49,.94-.71,1.46-.89,.21-.07,.29-.57,.8,.32,.07,.13,.19,.08,.2-.06,.08-1.14,.69-.83,1.13-1.02,.41-.2,.43-1.15,.92-1.14,.46-.02,.76-.38,1.14-.57,.57-.3,1,.15,2.43,2.48,1.18,1.93,1.26,2.44,.91,3.17-.38,.77-.99,1.2-1.62,1.48-.65,.25-1.29,.4-1.77,.77Z"/>
          </g>
          <g>
            <path class="cls-10" d="M57.76,58.98c-12.22,7.48-30.06,5.15-44.7-5.85,12.09-12.94,27.39-21.63,42.55-30.2,4.22-2.39,8.57-4.82,13.67-5.09,5.11-.27,11.22,2.05,15.11,7.28,.68,.92,1.3,1.97,1.43,3.03,.13,1.11-.28,2.03-.69,2.89-3.66,7.72-7.39,15.53-12.94,21.39-5.56,5.85-13.24,9.62-21.95,8.19"/>
            <path class="cls-10" d="M53.75,61.48c-.64,.3-1.26,.47-1.84,.66-.58,.18-1.12,.39-1.67,.54-.17,.05-.34,.22-.56,.26-.88,.17-1.76,.56-2.64,.5-.96-.05-1.89,.13-2.78,.25-.85,.14-1.69,.2-2.54,.22-.28,0-.57,.03-.87-.13-.22-.11-.63-.13-.95,.05-.06,.04-.19,0-.28-.02-.1-.02-.21-.11-.29-.08-.85,.24-1.69-.08-2.54-.09-.21,0-.43-.11-.63,.06-.05,.04-.26,.02-.31-.04-.14-.15-.3-.2-.5-.23-.85-.15-1.72-.25-2.56-.46-.47,.15-.91-.07-1.35-.18-.33-.08-.64-.25-.96-.37-.32-.12-.71-.1-.97-.4-.04-.05-.18-.02-.28-.05-.42-.11-.87-.17-1.23-.37-.18-.1-.37-.2-.57-.27-2.51-.92-4.99-1.94-7.34-3.22-.21-.11-.39-.24-.68-.23-.23,0-.6-.19-.71-.37-.18-.3-.45-.38-.69-.54l-1.34-.84c-.26-.18-.63-.25-.72-.61,0-.03-.09-.09-.14-.08-.43,.02-.59-.36-.85-.58-.19-.17-.4-.31-.7-.37-.33-.09-.89-.46-1.01-.7-.08-.16-.2-.28-.34-.39l-.23-.16s-.09-.05-.11-.08l.1-.1,2.16-2.21c.64-.66,1.31-1.28,1.96-1.92,.61-.61,1.1-1.35,1.81-1.86,.17-.12,.27-.35,.53-.34,.05,0,.16-.13,.18-.2,.07-.28,.29-.39,.49-.57,.95-.76,1.95-1.5,2.78-2.37,.65-.67,1.4-1.2,2.1-1.81,.23-.2,.56-.29,.82-.46,.26-.16,.49-.36,.73-.55,.14-.11,.32-.18,.37-.4,.03-.12,.23-.29,.35-.31,.41-.05,.66-.34,.97-.55,.86-.6,1.7-1.24,2.57-1.83,.21-.14,.39-.39,.71-.34,.04,0,.13-.13,.19-.21,.07-.08,.14-.2,.22-.21,.72-.15,1.21-.7,1.81-1.07,1.42-.91,2.81-1.87,4.26-2.73,.4-.24,.65-.63,1.05-.86,.38-.22,.75-.47,1.13-.69,.27-.15,.5-.41,.87-.38,.1,.01,.29-.11,.34-.21,.18-.37,.57-.47,.87-.69,.36-.27,.83-.38,1.09-.81,.07-.11,.33-.13,.49-.21,.28-.15,.55-.3,.82-.47,.13-.08,.21-.23,.34-.31,.98-.64,1.95-1.29,2.95-1.89,1.02-.62,2.06-1.19,3.09-1.78,1.03-.59,2.06-1.19,3.1-1.75,.39-.21,.73-.6,1.23-.54,.27-.36,.64-.44,1.05-.44,.06,0,.13-.14,.2-.21,.23-.21,.33-.62,.78-.49,.02,0,.05-.03,.07-.04,.27-.09,.27-.48,.68-.47,.25,0,.54-.21,.81-.34,.28-.13,.56-.26,.82-.42,.27-.16,.64-.18,.81-.53,.03-.06,.31,0,.43-.07,.62-.36,1.37-.42,1.92-.95,.12-.12,.37-.2,.55-.2,.65,0,1.16-.29,1.75-.54,.77-.33,1.67-.56,2.52-.37,.18,.04,.26,.08,.42-.05,.11-.09,.31-.1,.47-.11,1.82-.19,3.68-.08,5.46,.32,.49,.1,.87,.46,1.38,.51,.21,.02,.4,.22,.63,.08,.03-.02,.12,0,.15,.02,.5,.41,1.17,.35,1.7,.68,.11,.08,.2,.17,.31,.25,.11,.08,.22,.2,.33,.22,.96,.17,1.69,.86,2.49,1.36,.27,.18,.48,.48,.86,.47,.06,0,.16,.09,.19,.16,.24,.57,.84,.81,1.19,1.27,.19,.22,.52,.36,.52,.72,0,.05,.1,.12,.16,.16,.11,.07,.25,.11,.33,.21,.21,.27,.33,.65,.58,.83,.31,.22,.48,.54,.69,.84,.12,.17,.13,.41,.21,.6,.08,.19,.19,.36,.28,.55,.13,.27,.28,.55,.31,.84,.03,.29,.33,.49,.19,.86-.11,.26,.12,.56,.11,.86,0,.15-.06,.3-.12,.43-.04,.1-.15,.18-.17,.28-.05,.22-.17,.41-.15,.66,0,.18-.23,.39-.34,.58-.11,.19-.19,.4-.29,.6-.09,.2-.24,.39-.28,.6-.15,.9-.68,1.65-1.03,2.47-.09,.21-.13,.49-.41,.57-.05,.01-.11,.13-.12,.2-.1,.89-.71,1.58-1.02,2.39-.22,.58-.4,1.17-.71,1.71-.3,.53-.66,1.05-.84,1.62-.15,.47-.32,.92-.6,1.31-.27,.38-.13,.98-.67,1.19-.24,.41-.47,.82-.74,1.22-.22,.33-.35,.73-.75,.95-.14,.08-.29,.31-.31,.48-.08,.55-.41,.91-.79,1.26-.09,.08-.09,.27-.16,.39-.23,.35-.47,.7-.74,1.02-.81,.95-1.4,2.06-2.22,3.02-.16,.17-.2,.48-.37,.6-1.03,.74-1.76,1.83-2.8,2.55-1.53,1.02-2.91,2.24-4.52,3.13-.21,.12-.52,.08-.59,.19-.22,.32-.65,.37-.85,.62-.37,.45-.91,.53-1.37,.79-.33,.19-.76,.22-1.01,.57-.04,.05-.16,.09-.24,.09-.6-.02-1.02,.49-1.6,.54-.47,.3-.99,.46-1.53,.56-.53,.13-1.08,.19-1.61,.29-.16,.03-.3,.12-.45,.18-.08,.03-.17,.08-.24,.07-.51-.1-1.01-.08-1.51-.03-.5,.04-1.01,.07-1.51,.04-.33-.01-.65-.13-.97-.17-.33-.05-.68,0-.97-.2-.09-.06-.28-.06-.42-.06-.77,.03-1.27-.44-1.17-1.07,.03-.23,.18-.22,.35-.29,.32-.12,.62-.19,.98-.13,.27,.06,.58,.15,.84-.06,.04-.03,.17-.02,.23,.01,.46,.23,1.01,.1,1.46,.22,.35,.1,.67,.07,1.01,.1,.28,.01,.56-.13,.86,.05,.1,.06,.36-.14,.55-.16,.46-.09,.91-.17,1.37-.21,1.4-.19,2.66-.84,3.97-1.28,.82-.61,1.86-.81,2.67-1.4,.49-.34,.98-.69,1.49-.99,.49-.34,1-.65,1.45-1.03,.19-.16,.35-.27,.56-.34,.14-.05,.29-.1,.41-.18l1.32-1.08c.23-.2,.39-.53,.77-.52,.05,0,.15-.09,.17-.16,.18-.54,.67-.81,1.01-1.2,.13-.15,.26-.29,.48-.38,.23-.1,.48-.39,.57-.63,.07-.18,.17-.32,.27-.46,.41-.61,1.11-1.04,1.29-1.81,.46-.12,.66-.57,.84-.91,.66-1.34,1.63-2.47,2.37-3.76,.17-.31,.47-.55,.68-.86,.21-.32,.4-.66,.58-.99,.1-.18,.29-.34,.19-.58,0-.02,0-.05,.01-.07,.14-.17,.31-.33,.4-.52,.08-.18,.05-.4,.11-.59,.07-.23,.18-.44,.29-.66,.11-.21,.18-.45,.43-.52-.12-.27,.11-.45,.2-.66,.09-.2,.2-.39,.3-.59l.34-.66c.11-.22,.24-.44,.33-.66,.12-.31,.2-.65,.32-.96,.13-.33,.29-.65,.47-.96,.22-.39,.48-.76,.71-1.14,.1-.16,.11-.33,.12-.52,0-.26-.08-.64,.34-.78,.08-.03,.16-.23,.18-.36,.1-.99,.85-1.83,1.01-2.57,.36-.34,.27-.77,.17-1.12-.14-.53-.45-1.13-.7-1.8-.27-.72-.85-1.29-1.31-1.92-.14-.17-.36-.29-.33-.58,0-.06-.11-.18-.21-.22-.61-.3-1.02-.75-1.44-1.28-.22-.28-.6-.43-.95-.6-.54-.22-1-.64-1.53-.93-.1-.35-.4-.23-.57-.18-.23,.06-.39,.01-.57-.08-.24-.12-.46-.27-.77-.21-.16,.03-.42-.11-.52-.25-.14-.18-.23-.15-.42-.13-.23,.03-.35-.29-.61-.35-.28-.06-.62-.03-.8-.36-.02-.03-.1-.04-.15-.03-.57,.15-1-.35-1.55-.3-1.53-.55-3.14-.24-4.72-.1-.65,.07-1.36,0-1.97,.3-1.26,.61-2.61,.92-3.88,1.54-.27,.14-.52,.39-.88,.26-.05-.02-.17,.05-.21,.1-.3,.41-.71,.54-1.19,.6-.12,.01-.3,.11-.32,.2-.08,.25-.31,.29-.49,.38-.22,.11-.58,.13-.66,.28-.18,.32-.44,.22-.66,.3-.14,.05-.26,.18-.38,.28-.06,.05-.1,.16-.14,.17-.53,.04-.79,.56-1.25,.71-.1,.03-.19,.09-.29,.12q-1.13,.3-2.3,1.14c-.5-.09-.66,.55-1.16,.55-.18,0-.43,.16-.57,.32-.6,.67-1.47,.91-2.17,1.41-.15,.1-.37-.02-.48,.25-.04,.1-.39,.08-.56,.18-.24,.15-.56,.2-.69,.52-.06,.13-.31,.2-.46,.31-.21,.15-.47,.21-.61,.5-.07,.15-.36,.32-.54,.33-.75,.04-1.13,.62-1.59,1.05-.14,.13-.24,.22-.43,.28-.27,.08-.64,.18-.77,.38-.23,.35-.58,.47-.88,.67-.53,.35-1.09,.65-1.61,1-.6,.4-1.26,.7-1.78,1.24-.28,.29-.67,.64-1.18,.62-.06,0-.12,.23-.21,.29-.76,.49-1.5,1.01-2.27,1.48-.18,.11-.53,0-.56,.3-.04,.31-.49,.04-.47,.37,0,.05-.16,.15-.25,.18-1.04,.35-1.81,1.16-2.73,1.71-.22,.13-.39,.4-.7,.32-.37,.6-1.29,.57-1.55,1.3-.42,.22-.68,.71-1.21,.74-.09,0-.17,.16-.26,.18-.31,.06-.19,.52-.6,.54-.24,.02-.49,.3-.73,.47l-.64,.51-.71,.56c-.24,.19-.48,.36-.7,.57-.45,.41-.79,.93-1.31,1.28-.06,.04-.12,.14-.11,.19,.08,.42-.29,.46-.52,.51-.19,.04-.34,.11-.48,.23-.4,.33-.77,.7-1.17,1.02-.24,.2-.4,.5-.78,.52-.12,0-.29,.18-.36,.32-.32,.61-.91,.97-1.36,1.46-.2,.22-.43,.42-.65,.62-.17,.15-.22,.43-.49,.47-.3,.49-.66,.91-1.06,1.31l-.3,.29-.05,.03s-.07,.05-.08,.08c-.03,.03-.03,.05,.02,.07l.08,.06,.98,.71c.22,.17,.54,.24,.62,.57,.01,.06,.19,.17,.26,.16,.21-.03,.35-.03,.41,.22,.01,.05,.16,.09,.25,.11,.25,.03,.41,.15,.56,.35,.12,.16,.31,.32,.49,.37,.48,.14,.93,.25,1.23,.7,.04,.06,.26-.01,.35,.04,.35,.22,.78,.3,1.05,.68,.11,.15,.36,.22,.53,.34,.3,.2,.68,.21,.99,.44,.32,.23,.73,.35,1.09,.52,.37,.16,.73,.35,1.11,.49l1.13,.43,1.13,.43c.37,.16,.76,.27,1.15,.39l1.16,.36c.27,.09,.51,.19,.76,.37,.63,.44,1.52,.6,2.61,.66,.08,0,.16,.04,.24,.05,1.03,.21,2.08,.31,3.1,.56,.45,.08,.9,.23,1.37,.26,.31,.02,.6,.08,.92-.05,.26-.11,.6,.16,.91-.08,.11-.08,.4-.07,.54,0,.47,.24,.98,.13,1.47,.16,.56,.06,1.13-.03,1.69-.06,.27-.02,.56,.04,.82-.17,.13-.1,.47-.06,.68,.01,.32,.08,.63,.01,.92-.08,.61-.2,.6-.22,1.24-.16,.08,0,.16,0,.23-.01,.76-.12,1.55-.25,2.26-.52,.59-.21,1.16-.44,1.75-.63,.23-.08,.47-.27,.75-.1,.04,.02,.17-.02,.22-.07,.41-.39,.95-.52,1.45-.72,.47-.21,.83-.58,1.32-.76,.46-.19,.88-.47,1.32-.71,.67-.36,.89-.31,1.24,.27,.29,.48,.18,.68-.33,1.1-.54,.43-1.14,.8-1.73,1.08-.61,.25-1.19,.47-1.7,.73Z"/>
          </g>
          <g class="cls-13">
            <g class="cls-13">
              <path class="cls-5" d="M31.39,78.16c-1.06-.06-2.02-1-3.04-.41-.11,.05-.23,.11-.34,.18l.14,.09c1.07,.66,2.31,1.03,3.53,1.05,.77-.11,1.6-.53,2.4-.32,.09,.02,.15-.29,.17-.44-.05-.21-.09-.44-.12-.67-.68,.07-1.38,.24-2.06,.15-.22-.06-.55,.41-.68,.38Z"/>
              <polygon class="cls-7" points="34.15 77.68 34.14 77.64 34.04 77.65 34.15 77.68"/>
              <path class="cls-4" d="M32.47,77.9c-.23,.06-.45,.04-.67-.01-.16,.12-.33,.3-.41,.28-1.06-.06-2.02-1-3.04-.41-.11,.05-.22,.11-.34,.18,.05,.03,.1,.06,.15,.09,.37,.23,.76,.42,1.17,.58l.08-.04c.27-.16,.44,.13,.66,.2,.67-.05,1.17,.26,1.83,.2,.24-.02,.54-.34,.8-.27,.09,0,.18,.03,.26,.07,.38-.08,.75-.12,1.12-.02,.09,.02,.15-.29,.18-.44-.03-.11-.05-.23-.07-.34-.3-.11-.6-.14-.91-.21-.28,.04-.56,.06-.84,.06,0,.03,.02,.06,.03,.08Z"/>
              <path class="cls-7" d="M32.51,77.42s-.12,.21-.08,.39c.28,0,.56-.02,.84-.06-.26-.06-.52-.15-.77-.33Z"/>
              <path class="cls-9" d="M32.73,76.34c-.51-.22-1.08,.1-1.47-.26-.21-.17-.39-.44-.53-.77-.08,0-.15-.02-.22-.02-1.82-.05-3.62-.3-5.29-1.03-.85-.29-1.77,.06-2.75,.21-.55-.03-.9-.49-1.36-.83-1.14-.92-2.57,.09-4,.15-.38,.02-.76,1.22-.67,1.25,2.36,.09,4.33,1.16,6.65,1.3,1.79,.14,3.39,.65,4.91,1.57,.12-.07,.23-.13,.34-.18,1.02-.59,1.98,.36,3.04,.41,.13,.04,.46-.44,.68-.38,.68,.09,1.38-.08,2.06-.15-.06-.48-.1-.96-.18-1.31-.43,.12-.85,.22-1.21,.02Z"/>
              <path class="cls-6" d="M32.73,76.34c.36,.21,.79,.1,1.21-.02-.04-.18-.09-.32-.16-.42-.86-.84-2.02-.51-3.05-.59,.14,.34,.33,.61,.53,.77,.39,.36,.96,.03,1.47,.26Z"/>
              <path class="cls-4" d="M32.73,76.34c.35,.2,.75,.11,1.15,0-.12-.09-.24-.15-.37-.19-.65-.18-1.33-.21-1.94-.63,.7,.14,1.4,.26,2.12,.3-.85-.74-1.98-.43-2.97-.51,.14,.33,.33,.6,.53,.77,.39,.36,.96,.03,1.47,.26Z"/>
              <path class="cls-3" d="M31.62,76.35c.77,.3,1.56,.52,2.41,.41-.02-.12-.04-.24-.06-.35-.03-.03-.06-.05-.09-.07-.41,.11-.81,.2-1.15,0-.51-.22-1.08,.1-1.47-.26-.21-.17-.39-.43-.53-.77-.07,0-.14-.02-.2-.02-.93-.03-1.86-.1-2.76-.27-.86,.23-1.7-.04-2.46-.48,.38,.09,.77,.15,1.17,.18-.42-.12-.84-.27-1.24-.45-.36-.12-.73-.13-1.12-.09-.14,.27-.31,.49-.52,.52-.34,.05-.64-.06-1.02,.14-.04-.01,.02-.24-.07-.27,.24,.08,.47-.03,.7-.23-.24,.05-.48,.1-.73,.14-.43-.02-.74-.31-1.08-.6-.05,0-.09,0-.13,0-.21-.01-.45,.06-.7,.16,.08,.03,.17,.06,.25,.09-.17,.1-.34,.04-.47,0,.07-.03,.15-.06,.22-.09-.2-.07-.39-.14-.6-.22,.25,.1,.55,.04,.81-.03-.49-.09-.95-.11-1.37-.43l.05-.03c-.74,.13-1.54,.45-2.34,.49-.38,.02-.76,1.22-.67,1.25,1.65,.06,3.1,.6,4.63,.97-.14-.21-.27-.42-.4-.61-.07-.06-.12-.13-.17-.24,.06,.08,.11,.16,.17,.24,.18,.16,.41,.19,.6,.38,.02,.09,.15,.14,.26-.07,.26,.26,.67,.16,.93,.41,.02,0,.03,.08,.05,.17,.2,.02,.4,.05,.6,.06,1.12,.09,2.16,.32,3.16,.71-.22-.2-.43-.41-.6-.67-.23-.4-.93-.23-1.48-.25-.15,.03-.18-.23-.31-.27,.61-.54,1.11,.05,1.67,.07,.73,.07,1.62,.86,2.48,.55,.36-.14,.61,.19,.82,.5-.12,.13-.3,.07-.38,.05-.78-.24-1.57-.49-2.38-.59,.77,.5,1.61,.52,2.37,1.08-.5-.07-.91-.53-1.43-.29,.03,.07,.06,.13,.09,.18,.31,.15,.61,.32,.91,.5,.11-.07,.23-.13,.34-.18,1.02-.59,1.98,.36,3.04,.41,.08,.02,.25-.16,.41-.28-.33-.08-.65-.23-.98-.29,.12,.1,.23,.23,.32,.42-.32-.01-.52-.4-.85-.41,.18-.04,.35-.04,.52,0-.18-.15-.39-.23-.59-.34,.46-.19,.72,.54,1.21,.2-.09-.01-.17-.04-.26-.08l.26,.08h0c.27,.04,.56-.06,.83-.17-.47-.06-.83-.46-1.28-.52-.07,0-.15,0-.23,0,.08-.01,.16,0,.23,0,1.06,.04,2.04,.58,3.05,.89h.1s-.04-.33-.04-.33c-.85-.22-1.69-.54-2.48-.97Z"/>
            </g>
          </g>
          <g class="cls-13">
            <g class="cls-13">
              <path class="cls-5" d="M91.74,58.8c-.82,1.1-2.35,1.61-2.65,2.97-.04,.14-.08,.3-.12,.45l.19-.1c1.43-.75,2.69-1.9,3.57-3.17,.46-.87,.67-1.96,1.41-2.69,.08-.08-.15-.3-.26-.4-.22-.05-.44-.13-.67-.21-.42,.76-.75,1.58-1.32,2.25-.21,.2-.03,.79-.16,.91Z"/>
              <polygon class="cls-7" points="93.27 55.64 93.23 55.62 93.16 55.74 93.27 55.64"/>
              <path class="cls-4" d="M92.28,57.53c-.12,.27-.29,.5-.49,.7-.01,.23,.03,.5-.05,.58-.82,1.1-2.35,1.61-2.65,2.97-.04,.14-.08,.29-.12,.45,.07-.04,.13-.07,.2-.11,.49-.26,.97-.57,1.41-.91l.03-.1c.07-.37,.45-.4,.67-.6,.45-.73,1.09-1.11,1.51-1.84,.15-.26,.08-.73,.33-.98,.07-.1,.16-.17,.25-.24,.19-.44,.42-.85,.77-1.2,.08-.08-.15-.3-.26-.4-.12-.03-.23-.06-.35-.1-.3,.26-.55,.57-.82,.86-.17,.32-.34,.63-.54,.92,.03,0,.06,.01,.1,0Z"/>
              <path class="cls-7" d="M91.89,57.24s.1,.23,.29,.28c.2-.29,.38-.61,.54-.92-.23,.24-.49,.47-.83,.65Z"/>
              <path class="cls-9" d="M91.09,56.48c-.55,.42-.67,1.19-1.26,1.41-.29,.13-.66,.19-1.05,.16-.06,.07-.12,.14-.18,.21-1.34,1.83-2.95,3.47-4.92,4.4-.94,.52-1.5,1.48-2.36,2.3-.57,.37-1.21,.25-1.88,.25-.84-.04-1.46,.31-2.13,.75-.66,.43-1.39,.95-2.25,1.17-.46,.12-.57,1.37-.45,1.38,1.6-.22,3.08-.43,4.55-.8,1.45-.38,2.87-.94,4.11-1.84,1.92-1.38,3.7-2.59,5.72-3.65,.04-.16,.07-.31,.12-.45,.3-1.35,1.82-1.87,2.65-2.97,.13-.12-.06-.71,.16-.91,.56-.67,.9-1.49,1.32-2.25-.46-.17-.91-.37-1.28-.45-.19,.51-.4,1.01-.84,1.3Z"/>
              <path class="cls-6" d="M91.09,56.48c.44-.28,.65-.78,.84-1.3-.18-.04-.35-.06-.49-.03-1.35,.5-1.87,1.89-2.67,2.9,.39,.02,.76-.03,1.05-.16,.59-.22,.71-.99,1.26-1.41Z"/>
              <path class="cls-4" d="M91.09,56.48c.42-.27,.63-.74,.81-1.23-.16,.08-.3,.18-.42,.3-.62,.6-1.13,1.31-1.92,1.73,.61-.66,1.22-1.34,1.76-2.09-1.26,.54-1.77,1.88-2.54,2.86,.39,.02,.76-.03,1.05-.16,.59-.22,.71-.99,1.26-1.41Z"/>
              <path class="cls-3" d="M90.32,57.65c.81-.66,1.56-1.38,2.06-2.35-.12-.04-.23-.08-.34-.11-.05,.02-.09,.04-.13,.06-.19,.49-.4,.95-.81,1.23-.55,.42-.67,1.19-1.26,1.41-.29,.13-.66,.19-1.05,.16l-.17,.2c-.69,.94-1.44,1.82-2.28,2.58-.47,.95-1.39,1.58-2.38,1.94,.39-.27,.77-.57,1.11-.92-.44,.31-.9,.58-1.38,.8-.4,.22-.73,.52-1.04,.85,.07,.3,.08,.58-.1,.78-.29,.3-.64,.46-.88,.88-.05,.02-.15-.2-.25-.16,.29-.11,.45-.37,.52-.69-.19,.22-.39,.43-.6,.64-.44,.3-.94,.28-1.45,.26-.04,.03-.09,.05-.13,.08-.23,.11-.42,.34-.63,.55,.1-.02,.21-.04,.32-.07-.12,.2-.34,.23-.5,.27l.18-.2c-.25,.05-.49,.1-.76,.14,.33-.04,.61-.28,.83-.48-.56,.19-1.06,.45-1.68,.35l.03-.05c-.73,.46-1.51,1.08-2.47,1.32-.46,.11-.57,1.37-.45,1.38,2.22-.31,4.27-.6,6.24-1.36-.29-.08-.57-.15-.84-.22-.11,0-.22-.03-.34-.09,.11,.03,.22,.06,.34,.09,.3,.02,.58-.12,.91-.1,.08,.06,.26,0,.23-.24,.45,.01,.82-.37,1.27-.38,.02,0,.09,.03,.17,.09,.22-.14,.44-.29,.66-.44,1.2-.86,2.34-1.66,3.52-2.4-.35,.1-.71,.16-1.07,.17-.52-.03-1,.71-1.55,1.18-.12,.15-.34,0-.5,.08,.17-.88,1.07-.92,1.58-1.42,.69-.6,2.08-1.01,2.51-2.05,.17-.43,.63-.5,1.06-.55,.02,.19-.17,.34-.26,.41-.82,.67-1.66,1.29-2.45,2,1.07-.43,1.78-1.25,2.85-1.73-.45,.48-1.17,.63-1.4,1.29,.08,.01,.15,.02,.23,.02,.38-.22,.77-.44,1.17-.65,.04-.15,.07-.3,.12-.45,.3-1.35,1.82-1.87,2.65-2.97,.08-.08,.04-.34,.05-.58-.31,.31-.67,.57-.96,.89,.18-.08,.37-.13,.6-.13-.24,.34-.73,.35-.98,.68,.1-.21,.23-.39,.37-.55-.26,.12-.48,.29-.73,.44,.17-.57,.99-.49,1.05-1.17-.07,.09-.16,.17-.25,.23l.26-.24h0c.22-.26,.34-.62,.43-.95-.38,.46-.99,.65-1.37,1.09-.05,.08-.11,.16-.17,.24,.05-.09,.1-.17,.17-.24,.79-1.08,1.95-1.86,2.95-2.78l.06-.11-.31-.11c-.79,.79-1.67,1.53-2.6,2.14Z"/>
            </g>
          </g>
          <g class="cls-13">
            <g class="cls-13">
              <path class="cls-5" d="M49.2,79.91c-.76,.11-1.55-.67-2.21,.08-.07,.07-.15,.15-.23,.23l.11,.06c.83,.48,1.76,.64,2.63,.47,.54-.23,1.08-.77,1.67-.68,.07,.01,.07-.3,.07-.46-.06-.2-.11-.42-.16-.64-.47,.18-.95,.45-1.44,.46-.16-.03-.34,.5-.44,.48Z"/>
              <polygon class="cls-7" points="51.1 79.01 51.09 78.97 51.02 78.99 51.1 79.01"/>
              <path class="cls-4" d="M49.94,79.48c-.16,.09-.32,.11-.47,.09-.1,.15-.2,.35-.26,.34-.76,.11-1.55-.67-2.21,.08-.07,.07-.15,.15-.22,.23,.04,.02,.08,.04,.12,.07,.29,.17,.59,.29,.89,.38l.05-.05c.18-.2,.33,.06,.49,.09,.47-.15,.86,.07,1.33-.09,.17-.05,.34-.42,.54-.39,.07,0,.13,0,.2,.03,.26-.14,.52-.24,.8-.19,.07,.01,.07-.3,.07-.46-.03-.11-.06-.22-.09-.33-.22-.06-.44-.05-.67-.07-.2,.08-.39,.15-.59,.19,0,.03,.02,.05,.03,.08Z"/>
              <path class="cls-7" d="M49.92,79s-.06,.22-.01,.4c.2-.04,.4-.11,.59-.19-.19-.02-.38-.07-.58-.21Z"/>
              <path class="cls-9" d="M49.95,77.9c-.38-.14-.75,.27-1.06-.02-.16-.13-.32-.37-.46-.68-.06,0-.11,0-.16,.01-1.29,.24-2.59,.3-3.85-.14-.63-.14-1.25,.36-1.93,.68-.4,.06-.68-.32-1.04-.57-.89-.7-1.82,.55-2.84,.87-.27,.09-.44,1.33-.38,1.35,1.7-.34,3.21,.36,4.88,.1,1.29-.17,2.48,.06,3.66,.73,.08-.08,.15-.16,.23-.23,.66-.75,1.45,.03,2.21-.08,.1,.02,.28-.51,.44-.48,.49-.01,.97-.29,1.44-.46-.1-.46-.18-.93-.28-1.27-.29,.19-.58,.35-.86,.21Z"/>
              <path class="cls-6" d="M49.95,77.9c.28,.15,.57-.02,.86-.21-.05-.17-.1-.3-.16-.39-.7-.7-1.48-.19-2.22-.1,.14,.31,.3,.54,.46,.68,.31,.29,.68-.12,1.06,.02Z"/>
              <path class="cls-4" d="M49.95,77.9c.27,.14,.54,0,.82-.18-.09-.07-.19-.11-.28-.13-.48-.08-.97,0-1.44-.32,.51,.02,1.02,.04,1.53-.04-.69-.6-1.44-.11-2.15-.03,.14,.31,.3,.54,.46,.67,.31,.29,.68-.12,1.06,.02Z"/>
              <path class="cls-3" d="M49.17,78.09c.58,.18,1.16,.27,1.75,.03-.03-.12-.06-.23-.08-.33-.03-.02-.05-.04-.07-.06-.27,.18-.55,.32-.82,.18-.38-.14-.75,.27-1.06-.02-.16-.13-.32-.37-.46-.67-.05,0-.1,0-.15,.01-.66,.12-1.32,.2-1.98,.18-.58,.37-1.21,.24-1.79-.06,.28,.03,.56,.02,.85-.02-.31-.05-.62-.13-.93-.23-.27-.06-.53,0-.8,.1-.07,.29-.17,.53-.32,.6-.24,.11-.46,.05-.71,.31-.03,0,0-.24-.07-.26,.18,.04,.34-.11,.48-.35-.17,.09-.33,.18-.5,.26-.31,.05-.56-.18-.82-.4-.03,0-.06,.01-.09,.02-.15,.02-.32,.14-.48,.28,.06,.02,.12,.03,.19,.05-.11,.13-.24,.1-.33,.08l.15-.12c-.15-.04-.29-.07-.44-.11,.19,.05,.4-.06,.57-.18-.36,0-.69,.07-1.02-.18l.03-.04c-.52,.26-1.06,.72-1.63,.9-.27,.09-.44,1.33-.38,1.35,1.19-.24,2.28,.03,3.4,.13-.12-.18-.23-.36-.34-.53-.05-.05-.1-.11-.14-.21,.05,.07,.09,.14,.14,.21,.14,.12,.31,.11,.46,.26,.02,.09,.12,.11,.18-.12,.21,.21,.49,.04,.7,.25,.01,0,.03,.07,.05,.16,.14,0,.29-.02,.43-.05,.81-.11,1.58-.05,2.33,.16-.18-.16-.34-.33-.5-.56-.2-.36-.68-.07-1.08,0-.1,.06-.15-.19-.24-.21,.38-.63,.8-.14,1.19-.22,.52-.05,1.24,.58,1.82,.13,.24-.19,.45,.09,.63,.36-.07,.15-.2,.12-.27,.11-.58-.11-1.16-.23-1.76-.19,.6,.36,1.2,.24,1.8,.68-.36,0-.7-.37-1.05-.05,.03,.06,.05,.12,.08,.17,.23,.1,.47,.21,.7,.34,.07-.08,.15-.16,.22-.23,.66-.75,1.45,.03,2.21-.08,.06,.01,.16-.2,.26-.34-.24-.03-.49-.13-.73-.13,.1,.08,.19,.19,.28,.36-.23,.04-.42-.31-.65-.27,.13-.07,.25-.09,.37-.09-.15-.12-.3-.17-.45-.24,.3-.26,.57,.41,.88,0-.06,0-.13,0-.19-.04l.2,.03h0c.2,0,.39-.15,.57-.3-.34,.01-.64-.32-.97-.31-.05,.01-.1,.02-.16,.04,.06-.02,.11-.03,.16-.04,.75-.13,1.51,.25,2.26,.41l.07-.03-.07-.31c-.62-.09-1.26-.28-1.86-.57Z"/>
            </g>
          </g>
        </g>
        <g>
          <g class="cls-12">
            <path class="cls-11" d="M29.06,144.72c7.53,8.14,15.83,15.56,24.75,22.13,5.41,3.98,11.19,7.72,17.71,9.35,6.97,1.75,14.31,.98,21.42-.13,14.81-2.31,30.98-7.15,38.5-20.12-6.64,2.18-13.99,.7-20.4-2.06-6.42-2.77-12.23-6.76-18.47-9.92-20.52-10.37-45.74-10.91-66.68-1.45,1.98,1.47,3.97,2.95,5.95,4.42"/>
            <path class="cls-11" d="M34.45,147.68c1.22,1.23,2.19,2.28,3.31,3.15,.18,.14,.71-.07,.91,.13,.77,.79,1.94,1.2,2.31,2.36,.42,1.26,1.24,2.1,2.35,2.52,1.05,.4,1.76,1.16,2.63,1.74,.29,.19,.63,.33,.54,1.03-.07,.51,.3,.88,1.08,.52,.15-.07,.17,.15,.22,.28,.05,.14-.05,.48,.09,.46,1.53-.26,1.8,1.09,2.79,1.52,.25,.1,.26,.55,.91,.07,.17-.12,.39,0,.33,.2-.14,.5-.04,.71,.16,.85,.87,.62,1.7,1.29,2.56,1.92,1.02-.5,1.22,.21,1.67,.54,.33,.25,.46,.77,.69,1.18,.23,.41,.97,.13,.79,1.09-.03,.15,.26,.03,.36,.08,.48,.23,1.1,.28,1.33,.82,.12,.28,.24,.56,.45,.7,2.73,1.79,5.58,3.35,8.56,4.45,.26,.1,.47,.29,.94-.16,.36-.35,.82-.22,.89,.28,.11,.81,.52,.63,.83,.76,.58,.25,1.22,.28,1.81,.49,.35,.14,.85-.31,.99,.76,.01,.1,.13,.12,.19,.04,.57-.89,.84-.04,1.24,.15,.29,.14,.6,.15,.98-.29,.37-.43,.9-.46,1.16,.06,.35,.7,.74,.51,1.12,.53,2.23,.15,4.49,.09,6.74-.17,1.07-.12,2.02-1.13,3.13-.9,.27,.05,.5-.36,.82,.31,.07,.14,.26,.03,.32-.16,.21-.67,.53-.47,.87-.49,1.52-.07,3.11,.04,4.47-.79,1.06-.66,2.2-.67,3.29-1.03,.36-.13,.83,.26,1.23,.28,.39,.02,.75-.11,1.11-.23,.21-.07,.48,.07,.56-.53,.04-.33,.33-.49,.52-.28,.62,.71,1,.28,1.45,.19,1.27-.28,2.5-.69,3.75-1.03,.31-.09,.51-.59,1.06,.15,.07,.1,.16-.22,.25-.34,.09-.12,.16-.41,.28-.32,1.17,.83,1.78-.13,2.61-.38,1.01-.29,1.94-.76,2.9-1.16,.95-.43,1.86-.91,2.84-1.3,.53-.25,.61-1.15,1.11-1.38,.47-.22,.97-.58,1.29-.73,.29-.13,.23-.57,1.11-.09,.25,.13,.45-.01,.34-.22-.41-.76,.2-.66,.35-.95,.11-.3,1.11-.34,.29-.91-.23-.14,.5-.09,.67-.18,.28-.15,.53-.33,.66-.51,.07-.09-.33-.21-.29-.29,.29-.65,.36-1.14,.6-1.68,.13-.27,.35-.54,.56-.87l.34-.48,.17-.24,.08-.12s-.07,.01-.1,.01c-.72,.23-1.57,.43-2.12,.4-.12,0-.61,.19-.72,.17-.09-.01,.03-.14,.62-.6-1.27,.62-.84,.24-.25-.46,.08-.1-.41,.19-.59,.27-.29,.13-.78,.45-1.05,.6-.27,.15-.31,.12,.14-.47,.03-.04-.05,0-.05-.01-.09-.19-1.21,.99-.84,.24,.19-.47-.23-.32-.42-.39-.2-.08-.42-.18-.67-.11-.15,.03-.18-.1-.35-.16-.21-.06-.43-.02-.75,.42-.1,.14-.24-.6-.43-.6-.98,0-1.62-1.14-2.86-.3-.29,.19-.6,.05-.73-.25-.48-1.07-1.32-.92-2.21-.94-1.17-.02-2.32-.36-2.72-1.94-.08-.34-.08-.56-.48-.26-.26,.2-.46,.02-.64-.07-2.08-1.02-4.07-2.13-6.03-3.25-.54-.3-.55-1.42-1.27-1.42-.3,0-.32-.57-.9,.02-.08,.08-.21,.08-.22,0-.18-1.18-1.49-.4-1.93-1.1-.1-.15-.14-.38-.23-.54-.09-.17-.14-.46-.32-.41-1.55,.45-2.14-.86-3.27-1.14-.38-.09-.52-.75-1.27-.03-.11,.11-.26,.02-.26-.13-.06-1.33-1.11-.83-1.59-1.39-.25-.29-.87,.13-.75-.89,.01-.13-.15-.1-.26-.07-.19,.05-.45,.28-.57,.2-.34-.23-.55-.87-1-.71-.56,.2-.88-.1-1.28-.23-.23-.08-.29-.58-.48-.77-.18-.18-.43-.2-.66-.29-.32-.13-.7-.1-.94-.4-.24-.32-.83,.56-.96-.21-.1-.59-.71,.19-1.04,.2-.17,0-.29-.16-.41-.31-.09-.11-.1-.46-.21-.47-.26-.03-.44-.28-.82,.05-.26,.22-.42-.39-.67-.53-.24-.14-.52-.16-.78-.23-.26-.07-.5-.34-.79-.18-1.31,.7-2.2-.21-3.31-.28-.28-.03-.67,.25-.73-.65-.01-.16-.17-.2-.27-.13-1.26,.96-2.12-.21-3.23-.01-.78,.13-1.57,.47-2.31,.24-.71-.24-1.45-.51-2.2-.18-.62,.28-1.22,.54-1.76,.26-.54-.29-1.19,1.41-1.64-.06-.57-.03-1.14,0-1.7-.1-.48-.08-.97,.28-1.41-.6-.16-.32-.5-.29-.69,0-.61,.91-1.17,.65-1.78,.2-.14-.11-.32,.32-.48,.34-.5,.06-1,.11-1.5,.02-1.5-.27-2.9,.77-4.35,.93-.27,.03-.49,.75-.75,.6-1.57-.93-2.9,.35-4.41-.02-2.28-.63-4.24,.55-6.36,.81-.28,.04-.74-.58-.81-.34-.22,.75-.82,.34-1.02,.91-.34,1.02-1.09,.61-1.6,.99-.37,.26-1-.13-1.06,.95,0,.16-.16,.18-.27,.1-.91-.68-1.05,.85-1.79,.64-.74,1.43-2.11,1.23-3.14,1.9-.15,.1-.21,.39-.32,.59-.05,.1-.09,.28-.19,.23-.27-.12-.51-.18-.74-.19l1.02-9.45c.52,.93,1.66,1.06,2.28,1.85,.25,.32,.36,.82,.61,1.15,.25,.33,.75,.34,.6,1.16-.05,.26,.21,.3,.4,.33,1.03,.15,.63,1.83-.87,3.87-.54,.74-.73,.67-1.09,.83-.7,.3-1.26,.42-1.59,.09-.26-.26-.4-.72-1.18-.21-.13,.09-.24-.04-.25-.18-.02-1-.96-.91-1.1-1.69-.11-.6-.51-.76-.75-1.15-.2-.33-.78-.18-.59-1.04,.02-.09-.03-.12-.11-.12l-.52-.02,.63-1c.1-.16,.17-.58,.33-.67,.52-.3,1.07-.58,1.67-.7,1.79-.4,3.05-2.19,4.9-2.49,.88-1.54,2.53-.86,3.63-1.79,1.35-1.14,3.02-1.06,4.51-1.73,.31-.13,.57-.17,.91,.05,.22,.14,.46,.32,.65,.29,.75-.08,1.48-.31,2.24-.33,.4-.01,.77-.66,1.28,.33,.07,.14,.25,.09,.31-.05,.5-1.15,1.31-.57,1.98-.79,.26-.08,.51-.07,.84,.28,.35,.38,.82,.28,1.11-.14,.22-.32,.43-.35,.66-.46,.95-.42,2.02,.61,2.9-.74,.56,1.11,1.15,.68,1.65,.4,1.93-1.03,3.92-.37,5.87-.42,.48-.03,.93,.48,1.4,.6,.49,.13,1,.1,1.51,.09,.27,0,.55,.41,.83-.4,.02-.06,.07-.1,.1-.08,.28,.17,.54,.5,.82,.47,.26-.03,.55-.56,.82-.68,.33-.15,.65-.13,.97-.11,.31,.02,.66-.14,.81,.62,.36-.87,.65-.36,.96-.38,.3-.02,.58,.08,.87,.12l.97,.15c.32,.05,.64,.18,.97,.14,.46-.06,.96-.31,1.42-.3,.48,0,.96,.1,1.4,.3,.56,.24,1.07,.64,1.62,.92,.22,.12,.48-.06,.79-.32,.41-.34,1.04-1.14,1.13,.17,.02,.26,.31,.27,.51,.15,1.57-.88,2.58,.44,3.9,.53,.39,1.13,1.22,.79,2.01,.78,1.17-.04,2.32,.25,3.1,1.17,.83,.99,2,1.03,2.91,1.72,.26,.19,.71,.01,.6,.9-.03,.2,.21,.25,.38,.19,1.19-.43,1.89,.18,2.45,1.09,.29,.49,.94,.41,1.56,.37,.94-.06,1.52,.67,2.24,1.07-.2,1.09,.56,.29,.94-.01,.51-.41,.76-.39,1.02-.26,.33,.17,.56,.51,1.21,.1,.33-.21,.65,.07,.65,.49-.01,.56,.19,.41,.56,.25,.44-.19,.21,.81,.55,.94,.36,.15,1.01-.09,.75,1.03-.02,.1,.09,.15,.17,.1,1.16-.62,.97,1.13,1.81,1.04,1.2,2.11,3.52,2.16,5.12,3.4,.66,.51,1.11,1.6,2.04,1.45,1.93-.33,3.22,.9,4.86,1.14,.35,.06,.83-.33,.89,.77,0,.15,.17,.18,.26,.06,.43-.39,1.06-.46,1.51-.36,.47,.11,.85,.42,1.16,.79,.16,.16,.6,.17,.9-.07,.86-.68,1.22-.38,1.66-.34,.71-.08,.98,.47,1.73,.04,1.65-.92,1.46-.19,2.01-.19,.38-.01,1.24-.4,2.01-.69,.36-.14,1.26-.66,1.34-.61,.25,.34,1.36-.03,2.85-.58,1.39-.52,3.39-1.3,4.06-1.3,.14,0,.36-.04,.56-.08-.11,.15-.23,.3-.44,.5-.6,.56-1.09,1.03-1.44,1.32-.33,.29-.63,.56-.9,.8-.48,.44-.73,.71-.83,.92-.11,.22,.02,.22,.21,.28,.11,.02,.24,.04,.38,.06,.08,0,.15,.03,.24,.03,.09,0,.2-.02,.3-.03-1.31,.68-.86,.56-.42,.45,.45-.1,.95-.3,.16,.11-.28,.14-.34,.19-.26,.18,.04,0,.11-.02,.2-.05,.07,0,.07,.08,.14,.09,.54,.22,.2,.85-.28,1.52-.48,.67-1.1,1.37-1.26,1.87-.07,.23-1.44,.7-.65,.77,.29,.04-1.06,.67-1.2,.9-.21,.37-1.11,.83-.25,1.04,.35,.1-.28,.48-.36,.71-.13,.34-.81,.68-.16,1.02,.34,.19,.06,.67-.61,.87-1.31,.41-1.72,.78-1.86,1.23-.14,.45-.02,.97-.15,1.49-.08,.31-.19,.54-.71,.73-.76,.27-1.69,.55-1.61,1.03,.09,.86-.75,1.3-1.35,1.73-1.05,.82-2.26,1.48-3.3,2.33-.86,.64-1.88,.79-2.46,1.92-.31,.58-.83,1.21-1.86,.45-.11-.09-.05,.6-.2,.67-1.12,.62-2.28,1.09-3.47,1.51-.28,.09-.98-.86-.9,.08,.08,1.01-.88-.68-.69,.5,.03,.17-.23,.25-.39,.19-1.77-.62-2.87,.69-4.35,.84-.35,.02-.61,.58-1.14-.29-.56,1.28-2.07-.59-2.45,1.28-.68-.13-1.12,.92-1.97-.07-.14-.16-.28,.16-.43,.02-.49-.48-.34,1.29-.99,.5-.37-.46-.79-.05-1.18,0-.36,.05-.71,.15-1.07,.21l-1.17,.22c-.39,.07-.8,.08-1.17,.24-.76,.3-1.41,1.13-2.27,.98-.09-.02-.22,.14-.22,.32-.04,1.54-.58,.76-.91,.37-.28-.33-.5-.47-.75-.43-.68,.12-1.35,.27-2.04,.27-.41,0-.79,.54-1.29-.36-.16-.28-.47-.17-.63,.06-.75,1.08-1.73,.59-2.61,.81-.4,.1-.82,.1-1.23,.1-.31,0-.59,.67-.94,.06-1.48,1.3-3.14,.52-4.73,.61-1.6,.09-3.23-.12-4.85-.42-.4-.07-.95,.33-1.13-.73-.03-.2-.32-.24-.45-.06-.34,.49-.58,.74-.7-.03-.02-.14-.27-.04-.42,.07-.42,.31-.71,.2-.97-.24-.2-.35-.5-.61-.82-.48-.84,.37-1.66,.6-2.01-.62-.04-.15-.49,.41-.63,.32-.53-.32-1.32-.04-1.58-1.02-.11-.39-.53-.3-.78-.51-.41-.35-1.1-.04-1.46-.57-.37-.52-1.01-.56-1.52-.83-.52-.26-1.01-.54-1.52-.81l-1.48-.85-1.44-.88-1.41-.91c-.47-.3-.92-.61-1.38-.93-.31-.23-.54-.53-.62-1.07-.22-1.4-1.24-1.96-2.87-2.17-.12-.01-.18-.12-.26-.19-1.12-.83-2.35-1.53-3.27-2.6-.4-.47-.6-1.2-1.13-1.53-.35-.22-.56-.58-1.27-.34-.6,.2-.39-.81-1.29-.33-.33,.17-.62-.08-.59-.42,.1-1.12-.72-1.18-1.17-1.66-.52-.55-1.1-1.03-1.71-1.47-.3-.22-.37-.7-1.16-.36-.39,.16-.55-.33-.54-.75,.02-.65-.35-.86-.79-.97-.93-.23-.99-.16-1.22-1.15-.03-.12-.1-.19-.18-.26-.76-.71-1.28-1.69-2.34-2.04-.89-.28-1.5-.85-2.11-1.41-.24-.22-.83-.18-.33-1.09,.07-.13-.07-.25-.22-.22-1.26,.28-1.39-.66-1.91-1.17-.5-.49-1.59-.33-1.93-1.01-.32-.63-.92-1.01-1.38-1.52-.7-.76-.42-1.33,1.59-3.18,1.66-1.53,2.19-1.67,3.09-1.41,1.89,.55,2.53,2.29,3.71,3.07Z"/>
          </g>
          <g>
            <path class="cls-8" d="M21.52,122.07c7.53,8.14,15.83,15.56,24.75,22.13,5.41,3.98,11.19,7.72,17.71,9.35,6.97,1.75,14.31,.98,21.42-.13,14.81-2.31,30.98-7.15,38.5-20.12-6.64,2.18-13.99,.7-20.4-2.06-6.42-2.77-12.23-6.76-18.47-9.92-20.52-10.37-45.74-10.91-66.68-1.45,1.98,1.47,3.97,2.95,5.95,4.42"/>
            <path class="cls-8" d="M25.93,126.01c1.23,1.24,2.24,2.26,3.29,3.22,.17,.15,.43,.23,.64,.42,.8,.78,1.73,1.46,2.41,2.3,.76,.91,1.62,1.71,2.53,2.37,.86,.63,1.64,1.33,2.46,1.99,.28,.22,.56,.42,.76,.78,.14,.26,.53,.6,.95,.7,.08,.02,.18,.15,.26,.24,.08,.09,.15,.25,.24,.29,.98,.43,1.68,1.27,2.55,1.87,.22,.15,.39,.39,.68,.37,.08,0,.28,.15,.31,.23,.08,.22,.23,.37,.43,.52l2.58,1.95c.57,.11,.98,.56,1.44,.89,.34,.25,.63,.57,.95,.85,.32,.29,.79,.42,1,.83,.03,.07,.21,.11,.31,.17,.45,.28,.96,.54,1.33,.88,.19,.18,.39,.35,.6,.49,2.8,1.81,5.73,3.42,8.82,4.59,.27,.1,.52,.22,.86,.18,.26-.02,.75,.13,.94,.31,.3,.29,.65,.33,.99,.42,.62,.2,1.27,.32,1.9,.48,.38,.1,.82,.04,1.11,.36,.03,.03,.15,.05,.2,.04,.47-.16,.85,.09,1.27,.18,.31,.07,.62,.09,.98,.01,.34-.08,.9-.05,1.2,.1,.4,.2,.78,.17,1.17,.18,2.29,.11,4.58,.04,6.87-.18,1.08-.09,2.12-.44,3.22-.48,.26,0,.53-.14,.79,0,.05,.03,.26-.02,.33-.07,.27-.2,.58-.18,.91-.22,1.52-.17,3.07-.34,4.53-.74,1.13-.32,2.26-.48,3.39-.74,.37-.09,.78-.06,1.17-.12,.38-.06,.75-.15,1.12-.24,.22-.05,.46-.06,.64-.25,.1-.1,.41-.2,.55-.17,.48,.1,.93-.1,1.38-.2,1.28-.32,2.55-.69,3.81-1.07,.31-.1,.62-.31,.97-.19,.05,.02,.2-.11,.31-.16,.11-.06,.24-.17,.34-.17,.91,.02,1.69-.48,2.52-.77,1.01-.33,1.96-.8,2.94-1.2,.97-.43,1.91-.92,2.87-1.36,.52-.28,.88-.7,1.38-.97,.48-.27,.97-.54,1.43-.84,.33-.2,.62-.51,1.05-.53,.12,0,.35-.16,.42-.27,.25-.41,.69-.61,1.03-.92,.42-.37,.97-.61,1.26-1.12,.08-.13,.37-.24,.54-.38,.3-.25,.6-.5,.89-.77,.14-.13,.22-.31,.35-.44,.53-.49,.96-1.08,1.45-1.61,.49-.53,.92-1.1,1.35-1.68l.44-.58c.12-.14,.21-.3,.31-.45l.31-.47,.15-.24,.08-.12s-.07,.01-.1,.01h-.02c-.35,.12-.71,.21-1.07,.29l-.62,.1-.16,.02-.29,.03-.57,.05c-.58,.06-1.21,.24-1.75-.03-.53,.18-1,.07-1.46-.15-.06-.03-.24,.04-.36,.06-.39,.05-.79,.35-1.19-.03-.01-.01-.07,0-.1-.01-.35-.09-.64,.23-1.06-.03-.26-.17-.72-.18-1.09-.25-.38-.08-.77-.17-1.15-.21-.4-.04-.79-.31-1.21-.14-.07,.02-.32-.21-.49-.24-.88-.17-1.69-.64-2.62-.64-.21,0-.51-.11-.69-.24-.66-.45-1.37-.61-2.13-.83-1-.29-2.04-.72-2.82-1.44-.17-.15-.23-.24-.47-.23-.16,0-.38-.12-.56-.21-2.02-1-3.98-2.1-5.93-3.21-.53-.3-.9-.79-1.49-1.03-.24-.1-.44-.35-.73-.28-.04,0-.14-.03-.18-.07-.53-.58-1.34-.66-1.94-1.11-.13-.1-.24-.21-.36-.31-.13-.1-.26-.24-.4-.28-1.13-.31-2.06-1.06-3.11-1.54-.36-.16-.68-.47-1.1-.41-.06,0-.22-.07-.27-.14-.47-.55-1.24-.66-1.84-1.02-.31-.19-.74-.21-.92-.57-.02-.05-.16-.08-.25-.11-.15-.04-.32-.03-.45-.1-.36-.2-.74-.47-1.1-.54-.46-.08-.83-.27-1.24-.43-.23-.09-.42-.28-.65-.4-.21-.11-.45-.19-.67-.28-.32-.13-.67-.23-.97-.37-.31-.16-.65,0-.95-.29-.23-.22-.62-.1-.94-.18-.16-.04-.31-.12-.45-.2-.11-.06-.2-.17-.31-.2-.25-.07-.48-.19-.77-.18-.2,0-.49-.22-.75-.31-.26-.09-.53-.15-.8-.22-.27-.07-.54-.2-.8-.21-1.13-.05-2.18-.51-3.28-.69-.28-.05-.62-.04-.82-.3-.04-.05-.2-.08-.28-.08-1.1,.06-2.13-.4-3.22-.46-.77-.06-1.53-.06-2.3-.21-.74-.17-1.52-.26-2.26-.25-.61,.02-1.21,.04-1.79-.07-.57-.12-1.15,.27-1.69-.11-.59-.03-1.17-.04-1.76-.09-.49-.04-1,.03-1.47-.2-.17-.09-.52-.07-.71,0-.62,.23-1.21,.17-1.84,.06-.15-.03-.33,.08-.5,.09-.52,.02-1.04,.02-1.55,.02-1.54,.01-3.04,.31-4.55,.46-.28,.03-.57,.24-.82,.22-1.54-.1-3.04,.33-4.54,.46-2.24,.09-4.36,.78-6.53,1.22-.28,.06-.62-.02-.74,.06-.36,.28-.87,.28-1.18,.49-.55,.39-1.2,.42-1.78,.65-.43,.15-.94,.19-1.25,.56-.05,.05-.2,.1-.28,.1-.71,0-1.22,.55-1.88,.66-.55,.34-1.14,.57-1.73,.83l-.76,.3s-.07,.02-.08,.04c0,.01,.06,.05,.1,.07,.02,0,.08,.03,.05,.02-.11-.03-.26-.04-.26-.02-.02,.01,.01,.04,.04,.06l.1,.04s-.05-.04,.28,.23c.3,.26,.56,.55,.86,.81,.3,.26,.67,.45,.86,.82,.06,.12,.26,.23,.41,.31,.81,.45,1.12,1.17,.75,1.69-.13,.19-.29,.09-.5,.04-.4-.1-.77-.23-1.13-.52-.28-.22-.55-.52-.94-.53-.06,0-.19-.11-.25-.18-.38-.53-1.01-.8-1.43-1.28-.38-.41-.79-.68-1.15-1-.27-.25-.85-.53-.81-.75-.23-.09,.03-.26,.24-.39,.61-.28,1.28-.57,1.94-.81,.95-.33,1.67-.75,2.52-1.09,.82-.35,1.65-.71,2.52-.97,1.12-.72,2.51-.78,3.7-1.29,1.44-.63,3.01-.82,4.5-1.26,.31-.09,.56-.14,.85-.13,.19,0,.39,.03,.58,0,.73-.11,1.46-.26,2.19-.36,.39-.05,.81-.27,1.19-.06,.05,.03,.23,0,.3-.05,.6-.36,1.33-.26,1.99-.38,.26-.04,.5-.06,.79,0,.31,.07,.78,0,1.09-.13,.23-.1,.44-.13,.67-.17,.95-.15,1.95,.07,2.86-.31,.5,.26,1.1,.11,1.6,.04,1.9-.24,3.82-.16,5.73-.06,.46,.01,.92,.15,1.38,.2,.49,.05,.98,.06,1.47,.08,.26,.02,.56,.14,.78-.04,.02-.01,.06-.02,.09-.01,.28,.06,.55,.17,.83,.18,.25,.01,.49-.1,.74-.12,.3-.01,.62,.02,.92,.04,.3,.03,.62,.01,.84,.22,.26-.19,.58-.02,.88,0,.28,.03,.56,.08,.84,.13l.94,.15c.31,.05,.63,.12,.94,.14,.43,.03,.87,.02,1.3,.1,.45,.07,.91,.17,1.35,.29,.56,.15,1.1,.34,1.65,.5,.23,.07,.44,.05,.68,.02,.32-.03,.76-.15,1.07,.25,.06,.08,.33,.14,.49,.14,1.26,.04,2.44,.56,3.63,.9,.58,.44,1.25,.51,1.95,.68,1.03,.22,2.08,.59,2.98,1.11,.95,.56,1.98,.82,2.93,1.34,.27,.14,.6,.2,.74,.5,.03,.07,.24,.15,.37,.18,.88,.17,1.62,.58,2.35,1.09,.38,.28,.89,.44,1.38,.61,.74,.25,1.44,.74,2.14,1.13,.18,.4,.54,.3,.76,.29,.28-.02,.49,.07,.74,.21,.32,.18,.61,.4,1.01,.43,.2,.02,.55,.24,.68,.42,.17,.24,.28,.24,.53,.29,.3,.06,.43,.42,.75,.59,.34,.18,.79,.29,.95,.7,.01,.04,.12,.09,.17,.1,.76,.11,1.17,.81,1.85,1.05,1.69,1.31,3.69,2.08,5.54,3.08,.76,.41,1.48,.96,2.32,1.17,1.74,.44,3.36,1.2,5.09,1.62,.36,.09,.81,.07,1.08,.41,.04,.05,.21,.08,.29,.07,.6-.11,1.12,.05,1.64,.33,.13,.06,.38,.09,.48,.04,.26-.15,.52-.03,.76,0,.3,.04,.68,.24,.87,.17,.4-.15,.6,.08,.89,.13,.18,.03,.38,0,.57-.03,.09,0,.2-.08,.25-.06,.59,.23,1.17-.08,1.75-.02,.13,.01,.26,0,.38,.02,.7,.11,1.05,.13,1.44,.11,.18,0,.55-.09,.92-.17,.2-.05,.42-.1,.68-.16,.25-.05,.57-.15,.97-.28,.26,.09,.68-.05,1.2-.25,.51-.19,1.08-.42,1.24-.34,.05,.03,.2,0,.41-.06,0,.04,.03,.07,.06,.1,.03,.02-.05,.13-.05,.18-.14,.47-.6,1.21-1.07,1.93-.47,.7-.94,1.4-1.4,2.09-.1,.14-.25,.25-.37,.36-.06,.05-.13,.12-.17,.19-.03,.05-.06,.12-.07,.2-.02,.13-.4,.31-.55,.51-.22,.3-.54,.53-.65,.92-.04,.17-.32,.36-.47,.55-.21,.26-.5,.45-.61,.82-.06,.2-.35,.53-.57,.6-.89,.33-1.27,1.09-1.8,1.73-.16,.19-.28,.31-.52,.43-.33,.16-.77,.37-.93,.62-.29,.44-.69,.69-1.09,.95l-2.07,1.37c-.8,.49-1.66,.87-2.41,1.49-.41,.31-.98,.69-1.61,.67-.07,0-.2,.24-.34,.31-1.05,.55-2.15,.96-3.24,1.42-.25,.1-.64-.07-.79,.23-.16,.32-.6-.03-.7,.32-.02,.05-.25,.13-.38,.15-1.39,.22-2.66,.83-4.01,1.18-.32,.07-.66,.29-.98,.12-.74,.49-1.78,.22-2.47,.82-.6,.07-1.18,.45-1.81,.31-.1-.02-.29,.09-.4,.07-.39-.06-.52,.42-1,.29-.28-.07-.73,.1-1.1,.18l-1.04,.21-1.14,.22c-.38,.07-.77,.13-1.14,.22-.76,.17-1.49,.47-2.29,.53-.09,0-.23,.06-.25,.11-.21,.42-.64,.27-.92,.2-.24-.06-.43-.07-.68-.03-.66,.1-1.32,.21-1.99,.27-.39,.04-.8,.22-1.2,.02-.12-.06-.44,0-.61,.07-.81,.34-1.69,.29-2.55,.39-.39,.05-.78,.07-1.17,.09-.3,.01-.58,.2-.89,.06-1.43,.38-2.94,.2-4.42,.19-1.47,0-2.95-.15-4.42-.38-.37-.05-.8,0-1.08-.31-.05-.06-.32-.1-.4-.07-.24,.09-.42,.14-.62-.09-.04-.04-.24-.05-.36-.04-.32,.03-.58-.04-.87-.2-.22-.13-.53-.26-.78-.27-.66-.02-1.28-.11-1.82-.56-.06-.06-.32,.03-.46-.03-.51-.21-1.09-.29-1.53-.68-.18-.16-.51-.23-.76-.36-.43-.23-.9-.28-1.33-.57-.43-.29-.96-.48-1.43-.73-.48-.24-.95-.51-1.42-.76l-1.39-.8-1.37-.84-1.34-.86-1.32-.89c-.3-.21-.57-.43-.82-.73-.63-.76-1.59-1.4-2.83-2.08-.09-.05-.17-.12-.25-.19-1.1-.82-2.22-1.61-3.25-2.51-.45-.39-.86-.85-1.34-1.22-.32-.24-.6-.51-1.01-.64-.34-.1-.56-.58-1.01-.64-.16-.02-.45-.27-.55-.44-.34-.58-.91-.91-1.39-1.34-.55-.49-1.11-.97-1.68-1.44-.28-.23-.5-.53-.9-.63-.2-.05-.48-.39-.63-.62-.23-.36-.55-.62-.87-.84-.69-.47-.7-.45-1.21-1.11-.06-.08-.14-.15-.21-.22-.75-.69-1.45-1.47-2.24-2.07-.67-.49-1.25-1.06-1.84-1.62-.24-.22-.58-.41-.6-.78,0-.05-.14-.18-.21-.21-.68-.29-1.1-.91-1.6-1.42-.49-.49-1.09-.78-1.53-1.33-.42-.51-.92-.97-1.37-1.46-.69-.74-.73-1-.23-1.46,.42-.38,.68-.28,1.32,.23,1.35,1.08,2.41,2.44,3.44,3.38Z"/>
          </g>
          <g class="cls-13">
            <g class="cls-13">
              <path class="cls-5" d="M115.96,167.24c-1.54,.63-3.28,.12-4.47,1.03-.13,.09-.27,.19-.41,.29,.08,.01,.15,.02,.23,.03,1.73,.26,3.77,.1,5.57-.79,1.08-.68,1.89-1.74,2.93-2.59,.12-.09-.09-.33-.19-.45-.23-.06-.46-.15-.68-.25-.59,.78-1.33,1.54-2.28,1.95-.32,.11-.49,.73-.7,.78Z"/>
              <polygon class="cls-7" points="119 164.52 118.96 164.49 118.87 164.61 119 164.52"/>
              <path class="cls-4" d="M117.25,166.25c-.26,.23-.57,.38-.88,.48-.15,.21-.27,.48-.4,.51-1.54,.63-3.28,.12-4.47,1.03-.13,.09-.26,.19-.41,.29,.08,.01,.16,.02,.25,.04,.61,.09,1.24,.12,1.89,.1l.09-.06c.32-.27,.69-.07,1.05-.12,.94-.37,1.85-.4,2.78-.96,.34-.2,.54-.7,.94-.89,.13-.08,.26-.15,.4-.2,.43-.44,.86-.86,1.34-1.27,.12-.1-.09-.33-.19-.45-.12-.03-.24-.07-.36-.12-.38,.27-.73,.57-1.14,.81-.29,.29-.62,.56-.98,.77,.03,.02,.06,.03,.09,.04Z"/>
              <path class="cls-7" d="M117,165.84c-.05,.02-.02,.26,.15,.37,.36-.22,.69-.48,.98-.77-.34,.2-.71,.36-1.14,.4Z"/>
              <path class="cls-9" d="M116.57,164.83c-.67,.17-1.18,.79-1.85,.68-.33-.04-.69-.2-1.01-.44-.1,.02-.19,.05-.28,.07-1.16,.37-2.41,.6-3.7,.74-1.28,.15-2.57,.2-3.86,.12-1.29,0-2.43,.62-3.73,1.06-.78,.14-1.42-.19-2.2-.38-1.93-.54-3.51,.85-5.47,1.31-.52,.12-.58,1.38-.45,1.39,3.29-.58,6.42-.14,9.68-.73,2.53-.43,4.92-.46,7.37-.1,.15-.1,.28-.2,.41-.29,1.19-.91,2.92-.4,4.47-1.03,.21-.05,.39-.67,.7-.78,.95-.42,1.69-1.18,2.28-1.95-.45-.21-.86-.48-1.2-.65-.27,.45-.65,.88-1.17,.97Z"/>
              <path class="cls-6" d="M116.57,164.83c.53-.09,.9-.52,1.17-.97-.17-.08-.31-.14-.45-.15-.66,.04-1.18,.26-1.75,.55-.57,.28-1.18,.62-1.83,.81,.32,.24,.68,.4,1.01,.44,.66,.11,1.18-.5,1.85-.68Z"/>
              <path class="cls-4" d="M116.57,164.83c.5-.08,.86-.48,1.13-.9-.16,.05-.33,.09-.47,.17-.71,.39-1.5,.79-2.41,.74,.88-.25,1.71-.59,2.34-1.13-.62,.06-1.13,.29-1.68,.57-.55,.28-1.14,.6-1.77,.79,.32,.24,.67,.4,1.01,.43,.66,.11,1.18-.5,1.85-.68Z"/>
              <path class="cls-3" d="M115.3,165.54c1.09-.17,2.18-.6,2.86-1.47-.11-.06-.22-.12-.32-.17-.05,.01-.09,.02-.14,.03-.27,.42-.63,.82-1.13,.9-.67,.17-1.18,.79-1.85,.68-.33-.04-.69-.2-1.01-.43-.09,.02-.18,.05-.27,.07-1.18,.38-2.46,.61-3.78,.75-1.1,.51-2.36,.52-3.58,.35,.57-.04,1.13-.1,1.69-.21-.63,.02-1.26,.01-1.89-.03-.55,0-1.07,.11-1.58,.27-.09,.3-.24,.56-.53,.66-.45,.15-.9,.14-1.35,.45-.06,0-.07-.24-.2-.24,.36,0,.65-.17,.89-.44-.31,.12-.63,.25-.95,.36-.61,.11-1.14-.07-1.71-.24-.06,.01-.12,.02-.18,.04-.3,.05-.6,.2-.9,.36,.12,0,.25,0,.39,.01-.2,.15-.45,.14-.65,.13,.09-.05,.18-.1,.26-.15-.3-.01-.59-.02-.91-.04,.39,.02,.78-.13,1.1-.27-.71,.05-1.36,.18-2.07,0l.05-.04c-.98,.34-1.96,.88-3.04,1.14-.52,.12-.58,1.38-.44,1.39,2.3-.4,4.51-.31,6.75-.42-.27-.16-.53-.31-.79-.46-.11-.04-.22-.09-.33-.18,.11,.06,.22,.12,.33,.18,.31,.1,.64,.05,.97,.18,.07,.08,.26,.09,.33-.15,.46,.17,.98-.06,1.44,.11,.03,0,.08,.07,.13,.15,.28-.04,.56-.08,.85-.13,1.58-.27,3.11-.38,4.63-.34-.38-.12-.74-.25-1.08-.44-.47-.31-1.36,.09-2.14,.24-.19,.08-.33-.16-.52-.16,.64-.7,1.55-.31,2.33-.47,1.03-.16,2.55,.29,3.63-.29,.44-.25,.91-.03,1.32,.19-.12,.16-.38,.17-.51,.18-1.18,.04-2.35,.06-3.51,.23,1.25,.22,2.4-.03,3.68,.23-.73,.11-1.45-.19-2.09,.21,.06,.05,.12,.1,.19,.15,.48,.04,.96,.1,1.44,.17,.14-.1,.28-.2,.41-.29,1.19-.91,2.92-.4,4.47-1.03,.13-.03,.25-.3,.4-.51-.49,.17-1,.21-1.49,.34,.21,.02,.43,.08,.66,.19-.46,.18-.92-.06-1.37,.08,.23-.13,.47-.21,.72-.27-.32-.04-.64,0-.96-.02,.53-.38,1.25,.13,1.73-.46-.12,.04-.25,.08-.38,.08l.39-.09h0c.38-.13,.7-.41,.96-.69-.62,.28-1.29,.16-1.91,.34-.1,.04-.2,.08-.3,.12,.1-.05,.2-.08,.3-.12,1.38-.51,2.89-.73,4.18-1.63l.09-.12-.3-.15c-.98,.74-2.18,1.12-3.36,1.19Z"/>
            </g>
          </g>
          <g class="cls-13">
            <g class="cls-13">
              <path class="cls-5" d="M132.29,156.7c-.46,.79-1.63,.98-1.58,2.05,0,.11,0,.23,0,.35l.13-.06c1.01-.42,1.86-1.18,2.34-2.13,.2-.66,.11-1.49,.57-2.02,.05-.06-.21-.24-.34-.32-.21-.05-.42-.12-.64-.2-.15,.55-.23,1.15-.56,1.62-.13,.13,.16,.61,.08,.7Z"/>
              <polygon class="cls-7" points="132.81 154.38 132.77 154.37 132.75 154.45 132.81 154.38"/>
              <path class="cls-4" d="M132.45,155.76c-.03,.2-.12,.36-.25,.5,.05,.18,.14,.4,.09,.45-.46,.79-1.63,.98-1.58,2.05,0,.11,0,.22,0,.35,.05-.02,.09-.04,.14-.06,.36-.14,.68-.33,.98-.55v-.08c-.02-.29,.3-.26,.44-.4,.23-.53,.69-.77,.9-1.31,.07-.19-.1-.58,.06-.75,.04-.07,.1-.12,.16-.17,.06-.33,.15-.64,.36-.89,.05-.06-.21-.24-.34-.32-.11-.03-.22-.06-.33-.1-.19,.18-.32,.4-.48,.6-.06,.23-.14,.46-.24,.67,.03,0,.06,.01,.09,.02Z"/>
              <path class="cls-7" d="M132.04,155.5s.14,.19,.32,.24c.1-.21,.18-.44,.24-.67-.14,.17-.31,.32-.55,.42Z"/>
              <path class="cls-9" d="M131.17,154.83c-.35,.26-.28,.83-.72,.93-.22,.06-.51,.05-.84-.03-.03,.05-.07,.09-.1,.14-.69,1.24-1.64,2.33-2.93,2.94-.59,.37-.76,1.17-1.14,1.9-.3,.32-.79,.22-1.26,.26-1.19,.02-1.27,1.59-2.1,2.47-.21,.23,.28,1.39,.35,1.37,1.51-1.29,3.36-1.75,4.69-3.22,1.03-1.11,2.15-1.88,3.58-2.47,0-.12,0-.24,0-.35-.05-1.06,1.12-1.26,1.58-2.05,.08-.08-.21-.56-.08-.7,.32-.47,.41-1.08,.56-1.62-.45-.16-.89-.34-1.23-.44-.02,.37-.07,.72-.36,.89Z"/>
              <path class="cls-6" d="M131.17,154.83c.3-.17,.35-.52,.36-.89-.17-.05-.31-.08-.42-.07-1,.22-1.06,1.19-1.5,1.86,.33,.08,.63,.09,.84,.03,.44-.1,.36-.67,.72-.93Z"/>
              <path class="cls-4" d="M131.17,154.83c.28-.16,.34-.49,.36-.84-.11,.05-.21,.11-.28,.18-.36,.38-.61,.86-1.18,1.07,.35-.42,.69-.86,.94-1.36-.91,.26-.98,1.19-1.41,1.84,.33,.08,.63,.09,.84,.02,.44-.1,.36-.67,.72-.93Z"/>
              <path class="cls-3" d="M130.81,155.63c.53-.4,.99-.88,1.14-1.56-.12-.04-.23-.08-.32-.11-.03,.01-.06,.02-.09,.03-.02,.35-.08,.68-.36,.84-.35,.26-.28,.83-.72,.93-.21,.06-.51,.05-.84-.02-.03,.05-.06,.09-.09,.13-.35,.63-.77,1.22-1.27,1.74-.16,.72-.74,1.12-1.42,1.33,.24-.19,.46-.41,.65-.66-.27,.2-.57,.38-.88,.53-.25,.16-.42,.39-.57,.66,.14,.27,.22,.52,.14,.68-.13,.25-.35,.37-.4,.75-.03,.02-.16-.18-.23-.14,.18-.09,.22-.32,.18-.6-.08,.18-.16,.37-.26,.56-.23,.26-.6,.24-.96,.25-.02,.03-.05,.05-.07,.08-.12,.12-.19,.32-.25,.54,.06-.03,.13-.06,.2-.09-.02,.18-.15,.24-.25,.28l.05-.2c-.15,.07-.3,.13-.46,.2,.2-.08,.32-.31,.4-.51-.31,.23-.57,.5-1.01,.5v-.05c-.31,.53-.55,1.25-1,1.73-.21,.23,.28,1.39,.35,1.37,1.07-.91,2.26-1.39,3.37-2.12-.22-.06-.44-.12-.65-.18-.08,0-.16-.02-.26-.06,.08,.02,.17,.04,.26,.06,.21,0,.36-.13,.59-.12,.08,.05,.18,0,.09-.22,.33,.01,.47-.32,.79-.32,.01,0,.08,.03,.15,.08,.12-.11,.24-.23,.36-.36,.64-.7,1.32-1.25,2.09-1.72-.26,.03-.52,.05-.81,0-.42-.09-.61,.49-.9,.85-.05,.12-.26-.03-.35,.03-.1-.75,.57-.71,.85-1.08,.39-.44,1.41-.59,1.53-1.39,.04-.33,.41-.32,.75-.3,.06,.16-.06,.25-.12,.3-.53,.43-1.07,.83-1.52,1.33,.75-.23,1.13-.81,1.92-1.05-.28,.32-.82,.36-.86,.87,.07,.02,.13,.03,.19,.05,.26-.13,.53-.26,.81-.37,0-.12,0-.24,0-.35-.05-1.06,1.12-1.26,1.58-2.05,.05-.05-.04-.27-.09-.45-.19,.21-.44,.37-.62,.59,.13-.04,.28-.06,.48-.03-.13,.24-.54,.19-.68,.42,.04-.16,.11-.28,.2-.39-.2,.06-.35,.17-.52,.26,.01-.43,.74-.25,.62-.79-.04,.06-.09,.11-.16,.15l.16-.16h0c.13-.18,.15-.44,.14-.69-.22,.32-.69,.39-.9,.69-.03,.05-.06,.11-.09,.17,.02-.06,.05-.12,.09-.17,.41-.75,1.22-1.2,1.82-1.84l.02-.08-.3-.11c-.46,.54-1.02,1.02-1.66,1.37Z"/>
            </g>
          </g>
        </g>
      </g>
    </g>
  </g>
</svg>