<?xml version="1.0" encoding="UTF-8"?>
<svg id="_Слой_2" data-name="Слой 2" xmlns="http://www.w3.org/2000/svg" xmlns:xlink="http://www.w3.org/1999/xlink" viewBox="0 0 152.86 118.85">
  <defs>
    <style>
      .cls-1 {
        fill: none;
      }

      .cls-2 {
        clip-path: url(#clippath);
      }

      .cls-3 {
        fill: #f3f9fb;
      }

      .cls-4 {
        fill: #f7fbfc;
      }

      .cls-5 {
        fill: #f8fcfd;
      }

      .cls-6 {
        fill: #f4fafb;
      }

      .cls-7 {
        fill: #f5fafb;
      }

      .cls-8 {
        fill: #eab7c9;
      }

      .cls-9 {
        fill: #fbfdfe;
      }

      .cls-10 {
        fill: #6e7c6e;
      }

      .cls-11 {
        opacity: .49;
      }

      .cls-12 {
        opacity: .8;
      }
    </style>
    <clipPath id="clippath">
      <rect class="cls-1" width="152.86" height="118.85"/>
    </clipPath>
  </defs>
  <g id="_лепестки" data-name="лепестки">
    <g class="cls-2">
      <g>
        <g class="cls-11">
          <path class="cls-10" d="M20.02,90.52c-1.61-7.54,3.95-16.17,8.81-22.15,4.86-5.98,11.54-10.2,18.41-13.7,25.68-13.07,41.78,1.57,67.59-11.25,9.51-4.72,24.02-10.07,25.09-5.93-9.98,13.49-20.16,30.26-35.34,37.76-13.85,6.85-26.95,17.74-41.51,22.9-14.56,5.16-32.64,3.79-43.05-7.63"/>
          <path class="cls-10" d="M18.54,82.94c.59-2.25,1.4-3.92,2.08-5.63,.11-.26-.22-.79-.04-1.11,.71-1.25,1.04-2.8,2.3-3.62,1.36-.9,2.26-2.04,2.78-3.42,.49-1.32,1.4-2.25,2.21-3.38,.27-.37,.5-.78,1.27-.74,.56,.03,1.05-.39,.85-1.28-.04-.17,.22-.21,.38-.26,.17-.06,.53,.05,.55-.11,.16-1.78,1.82-2.02,2.68-3.08,.22-.26,.72-.21,.47-1.01-.06-.2,.18-.44,.37-.34,.5,.23,.77,.16,1.02-.04,1.09-.84,2.24-1.59,3.4-2.32,.02-1.22,.92-1.23,1.54-1.59,.47-.27,1.11-.23,1.67-.33,.56-.09,.76-.93,1.63-.4,.14,.08,.19-.25,.32-.33,.55-.38,1.02-.99,1.74-.98,.36,0,.72,0,1.03-.13l2.89-1.3,1.44-.65c.49-.2,1-.36,1.49-.54l3-1.05c1.01-.32,2.05-.54,3.07-.82,.36-.09,.72-.06,.98-.73,.2-.53,.86-.7,1.25-.28,.61,.65,.99,.29,1.45,.26,.84-.05,1.65-.31,2.48-.35,.49,0,1-.55,1.52,.43,.05,.09,.21,.08,.25-.02,.46-1.02,1.06-.25,1.61-.17,.4,.07,.79,0,1.2-.48,.4-.48,1.1-.57,1.51-.08,.54,.66,1,.43,1.49,.42l8.49,.19c1.33,.02,2.66-.83,3.98-.42,.31,.09,.67-.28,.93,.43,.05,.15,.31,.07,.41-.11,.37-.63,.73-.38,1.13-.34,1.84,.21,3.71,.47,5.49-.15,1.35-.58,2.71-.47,4.05-.74,.44-.12,.95,.29,1.42,.32,.46,.03,.9-.09,1.34-.2,.26-.07,.57,.09,.72-.51,.08-.32,.44-.46,.64-.26,.67,.7,1.16,.25,1.69,.14,.76-.16,1.52-.34,2.28-.53,.74-.24,1.48-.5,2.23-.72,.37-.11,.63-.64,1.25,.07,.09,.1,.2-.24,.31-.36,.11-.13,.2-.43,.35-.35,1.36,.71,2.11-.39,3.08-.75,2.35-.87,4.66-2.29,7.12-3.17,.69-.25,.99-1.19,1.67-1.43,.65-.23,1.27-.56,1.94-.76,.47-.13,.82-.7,1.56-.02,.21,.18,.51,.06,.6-.22,.35-1.06,1.25-.91,1.9-1.26,.42-.23,.86-.27,1.29-.4,.43-.13,.86-.36,1.41-.99,.31-.34,.64,.07,.96,.04,.58-.08,1.16-.18,1.77-.34,.3-.09,.76-.5,1.07-.57,2.38-.61,4.58-.8,6.38-.32,.9,.26,1.82,.69,2.45,1.65,.08,.11,.15,.23,.2,.36,.05,.13,.14,.26,.09,.33l-.12,.52-.23,1.03c-.17,.62-.21,1.47-.29,2.28-.82,1.14-1.67,2.28-2.55,3.42-.33,.42-.44,.85-.73,1.29-.29,.43-.77,.88-1.71,1.15,.28,.85-.74,1.51-1.93,1.77-.17,.04,0,.39-.03,.6-.04,.32,.11,.77,.06,1.15-.02,.19-.1,.35-.26,.46-.15,.09-.35,.07-.69-.02-.05-.01-.04,.07-.08,.1-.4,.23,.5,1.27-.47,1.23-.61-.02-.76,.55-1.06,.89-.31,.35-.65,.7-.84,1.14-.2,.46-1.01,.51-.48,1.47,.08,.16-.68,.02-.77,.22-.47,1.01-1.87,1.33-1.6,2.91,.07,.36-.21,.65-.56,.7-1.27,.19-1.47,1.16-1.84,2.11-.52,1.24-1.28,2.41-3.06,2.51-.38,.02-.61-.03-.46,.46,.1,.33-.17,.51-.33,.69-1.87,2.08-3.91,4.03-6.02,5.91-.6,.5-1.76,.22-2.13,.99-.16,.32-.74,.19-.47,.98,.04,.11-.03,.24-.12,.23-1.33-.18-1.3,1.44-2.3,1.7-.21,.05-.48,0-.7,.03-.23,.03-.56-.04-.63,.17-.3,.87-.89,1.34-1.54,1.71-.68,.33-1.41,.56-1.99,1.04-.4,.32-1.14,.14-1.06,1.2,.01,.16-.18,.24-.32,.17-1.25-.69-1.62,.51-2.5,.64-.45,.07-.56,.87-1.37,.2-.1-.08-.21,.09-.27,.2-.11,.19-.11,.56-.27,.63-.46,.19-1.2,0-1.42,.5-.27,.62-.8,.73-1.24,1.01-.25,.16-.73-.06-1.05,0-.3,.06-.52,.28-.77,.44-.36,.22-.65,.59-1.11,.61-.47,.03-.22,1.07-.97,.72-.58-.27-.43,.74-.71,1.04-.14,.15-.38,.16-.6,.17-.17,.01-.46-.19-.57-.09-.24,.22-.6,.22-.66,.77-.04,.38-.68,.13-1.01,.25-.32,.12-.58,.35-.87,.53-.29,.18-.71,.21-.84,.57-.61,1.58-2.12,1.79-3.22,2.63-.28,.22-.45,.73-1.16,.15-.13-.1-.31,0-.34,.13-.48,1.72-2.16,1.61-3.13,2.58-.69,.7-1.28,1.58-2.18,1.97-.87,.39-1.85,.66-2.46,1.46-.5,.66-1.01,1.31-1.79,1.45-.75,.14-.6,2.01-1.9,1.04-.68,.33-1.34,.69-2.05,.96-.59,.23-1.03,.84-1.95,.3-.33-.19-.72,0-.84,.35-.37,1.15-1.2,1.21-2.12,1.06-.22-.03-.29,.46-.49,.55-.61,.29-1.22,.6-1.92,.68-2.03,.3-3.68,1.78-5.69,2.23-.37,.07-.64,.83-1.01,.72-.56-.17-1.08-.2-1.59-.17-.52,.01-1.02,.1-1.52,.2-.5,.1-1.01,.22-1.51,.29-.51,.04-1.02,.03-1.54-.09-3-.69-5.91-.06-8.87-.54-.38-.07-.7-.84-.9-.65-.64,.58-1.21-.02-1.75,.37-.99,.72-1.74-.02-2.61,.04-.65,.04-1.15-.73-1.96,.11-.12,.12-.32,.04-.41-.1-.64-1.11-1.92-.07-2.67-.81-1.02,.26-1.93,.05-2.76-.37-.83-.41-1.64-.84-2.5-1.18-.26-.1-.6,0-.91-.01-.15,0-.37,.05-.43-.08-.46-.93-1.16-1.38-1.89-1.85-.73-.45-1.56-.78-2.14-1.43-.38-.44-.6-1.05-.95-1.5-.35-.46-1.02-.57-.89-1.51,.04-.29-.26-.42-.5-.52-1.27-.56-.79-2.33,1.09-4.03,.68-.62,.88-.5,1.29-.57,.8-.13,1.41-.14,1.73,.29,.26,.32,.37,.88,1.25,.43,.14-.07,.27,.07,.27,.21,.04,1.04,1.03,1.07,1.25,1.89,.19,.62,.66,.81,.98,1.22,.28,.35,.86,.22,.84,1.1,0,.3,.71-.1,.99,.01,.66,.25,1.26,.6,1.86,.96,.9,.57,1.94,.85,3.03,.92,.53,.06,1.06,.11,1.57,.21,.51,.1,1.03,.18,1.51,.4,.86-.36,1.58-.18,2.31-.03,.73,.17,1.45,.46,2.22,.27,.93-.25,1.81-.2,2.69-.16,.88,0,1.76,.08,2.64-.05,.36-.07,.65-.05,.98,.24,.21,.19,.44,.39,.66,.39,.85,.06,1.7-.12,2.55-.09,.46,.01,.91-.59,1.43,.43,.07,.14,.28,.09,.35-.05,.62-1.16,1.5-.62,2.26-.86,.28-.11,.57-.12,.96,.19,.42,.34,.97,.19,1.25-.26,.21-.34,.45-.38,.69-.54,.96-.64,2.39,.18,3.03-1.41,.87,.91,1.44,.34,1.89-.09,.87-.87,1.86-1.32,2.9-1.7,1.03-.42,2.12-.68,3.08-1.27,.46-.27,1.17-.07,1.7-.22,.57-.15,1.07-.47,1.56-.78,.26-.17,.76,0,.59-.84-.01-.06,.02-.13,.05-.13,.36-.03,.8,.09,1.06-.12,.23-.19,.2-.81,.39-1.08,.22-.32,.54-.51,.85-.7,.3-.18,.53-.53,1.14-.03-.21-.93,.36-.74,.63-.97,.25-.22,.57-.34,.86-.51l.97-.57c.32-.19,.69-.32,.96-.59,.38-.37,.64-.91,1.03-1.26,.41-.37,.88-.65,1.39-.86,.64-.25,1.37-.37,2.04-.6,.28-.09,.36-.41,.43-.84,.09-.56-.02-1.6,1.04-.8,.21,.16,.46-.08,.53-.32,.57-1.87,2.43-1.77,3.52-2.87,1.2,.37,1.59-.55,2.19-1.23,.87-1,1.98-1.82,3.34-1.99,1.46-.16,2.41-1.12,3.68-1.56,.36-.12,.54-.63,1.23-.03,.16,.14,.38-.05,.45-.23,.51-1.31,1.6-1.55,2.83-1.55,.68,0,.99-.59,1.34-1.15,.5-.84,1.49-.92,2.24-1.43,.88,.68,.57-.39,.49-.87-.11-.65,.03-.87,.28-1.04,.32-.22,.74-.32,.66-1.1-.04-.4,.36-.59,.75-.43,.53,.22,.48-.02,.49-.44,.02-.48,.87,.08,1.15-.22,.3-.32,.34-1.03,1.34-.44,.09,.05,.18-.04,.18-.14-.11-1.34,1.53-.68,1.81-1.59,2.65-.72,3.64-3.3,5.62-4.83,.81-.65,2.11-.93,2.4-2.02,.58-2.32,2.49-3.54,3.66-5.39,.25-.38,.17-1.11,1.28-.8,.15,.04,.27-.14,.22-.29-.37-1.14,.28-1.49,1.23-1.66,.23-.04,.4-.31,.25-.55-.42-.67,.02-.77,.22-1.01,.24-.29,1.05-.32,.89-.71-.09-.21-.1-.35-.06-.45,.02-.05,.05-.08,.09-.11,.03-.01,.06,0,.09,0,.15,.03,.4,.12,.51,.09,.14-.04,.02-.22-.04-.34-.03-.06-.31-.22-.22-.21,.52,.06,.52-.12,.42-.26-.1-.15-.31-.26-.02-.34,.12-.04,.13-.08,.29-.13,1.78-.54,2.12-.91,1.82-1.39-.03,0-.05-.03-.07-.05,1.13-.46,1.01-.55,.77-.55-.23-.02-.56,.06,.42-.46,.72-.39,.74-.55,.34-.43-.44,.13-.67,.18-.75,.15-.11-.03,.06-.12,0-.28-.02-.31-.06-.64-.63-.47-.21,.07,1.15-1.16-.19-.18-.48,.37,.55-.72,.33-.67-.26,.06,.09-.57-1.21,.63-.51,.49-.32,.13-.54,.25-.26,.16-.12-.24-.94,.72-.44,.53-.55,.56-.37,.15,.37-.86,.1-.82-.19-.52-.31,.3-.66,.87-.85,1.2-.12,.2-.19,.36-.22,.14-.03-.3-.24-.65-.33-.18-.12,.82-.22,.53-.35,.63-.02,.02-.05,.04-.08,.05l-.32,.12-.66,.24c-.44,.16-.88,.32-1.29,.54-.94,.5-2.07,.58-2.78,1.66-.38,.57-.93,1.2-1.98,.42-.12-.09-.08,.6-.23,.68l-1.79,.9c-.31,.15-.58,.29-.92,.43l-1.07,.43c-.34,.13-1.16-.75-1.07,.21,.08,1.03-1.03-.57-.83,.61,.03,.17-.27,.29-.47,.25-2.07-.35-3.49,1.04-5.32,1.35-.43,.07-.77,.67-1.37-.16-.78,1.34-2.51-.55-3.15,1.39-.83-.11-1.48,1.03-2.44-.03-.15-.17-.37,.15-.54,0-.56-.5-.57,1.29-1.29,.48-.41-.47-.98-.07-1.47-.02-.46,.05-.9,.11-1.36,.14l-1.49,.12c-.5,.04-1,0-1.49,.13-.99,.26-1.93,.95-2.97,.7-.11-.03-.3,.11-.33,.29-.32,1.51-.86,.68-1.2,.25-.29-.36-.53-.54-.84-.54-.84,0-1.68,.05-2.51-.06-.49-.07-1.04,.42-1.47-.55-.13-.3-.52-.25-.75-.04-1.05,.95-2.11,.33-3.14,.43-.46,.05-.92,0-1.38-.05-.35-.03-.72,.6-1.05-.03-1.75,1.15-3.39,.35-5.08,.47-.81,.09-1.63,.13-2.44,.14h-1.22s-1.19,.07-1.19,.07c-.4,.02-.8,.54-1.25-.44-.09-.19-.38-.15-.44,.06-.18,.56-.32,.86-.66,.16-.07-.13-.27,.05-.36,.21-.27,.45-.55,.45-.94,.14-.3-.24-.68-.36-.9-.11-.59,.68-1.12,1.22-2.01,.33-.11-.11-.2,.61-.35,.62-.6,.02-1.04,.69-1.81,.05-.32-.26-.6,.07-.92,.05-.55-.05-.86,.64-1.46,.53-.62-.12-1.11,.32-1.66,.51l-1.65,.57-1.6,.73-1.6,.73c-.54,.25-1.06,.46-1.61,.76l-1.62,.85c-.38,.19-.78,.28-1.35,.14-1.45-.36-2.57,.44-3.5,1.98-.07,.11-.2,.13-.3,.2-1.32,.84-2.47,1.87-3.85,2.58-.6,.31-1.42,.37-1.89,.88-.32,.32-.74,.5-.65,1.26,.08,.62-.9,.32-.57,1.29,.12,.35-.17,.62-.51,.57-1.15-.18-1.28,.69-1.8,1.14-.29,.27-.56,.56-.81,.87-.26,.32-.51,.67-.74,1.02-.23,.34-.73,.48-.37,1.28,.18,.39-.32,.62-.76,.68-.68,.08-.88,.51-.95,.99-.15,1.03-.07,1.05-1.05,1.51-.12,.05-.18,.15-.25,.25-.61,.95-1.5,1.77-1.57,2.95-.01,.49-.11,.92-.25,1.33-.11,.41-.27,.8-.43,1.19-.11,.31,.19,.81-.86,.73-.15-.01-.2,.17-.11,.29,.83,.99,.07,1.47-.04,2.14-.08,.32,.1,.65,.26,.96,.15,.31,.26,.61,.15,.87-.11,.25-.16,.53-.13,.79,.03,.25,.08,.5,.08,.75,.11,.7-.47,.98-3.13,1.56-2.21,.47-2.73,.28-3.37-.74-.31-.54-.46-1.13-.56-1.71-.05-.58-.03-1.15,.02-1.71,.1-.54,.2-1.07,.29-1.58,.13-.49,.23-.97,.26-1.44Z"/>
        </g>
        <g>
          <path class="cls-8" d="M19.49,63.43c-1.61-7.54,3.95-16.17,8.81-22.15s11.54-10.2,18.41-13.7c25.68-13.07,41.78,1.57,67.59-11.25,9.51-4.72,24.02-10.07,25.09-5.93-9.98,13.49-20.16,30.26-35.34,37.76-13.85,6.85-26.95,17.74-41.51,22.9s-32.64,3.79-43.05-7.63"/>
          <path class="cls-8" d="M19.36,56.19c.56-2.11,1.29-3.74,2.03-5.34,.12-.25,.13-.59,.3-.89,.66-1.21,1.27-2.51,2.13-3.54,.92-1.13,1.77-2.29,2.52-3.45,.71-1.11,1.54-2.09,2.37-3.1,.28-.34,.56-.67,.99-.92,.31-.19,.77-.62,.96-1.09,.04-.09,.2-.21,.32-.29,.13-.09,.32-.16,.38-.26,.72-1.1,1.89-1.8,2.85-2.66,.24-.21,.57-.36,.67-.69,.03-.08,.27-.29,.38-.3,.27-.05,.49-.18,.74-.36,1.07-.79,2.18-1.54,3.31-2.24,.41-.57,1.11-.85,1.7-1.21,.45-.27,.95-.45,1.43-.67,.48-.22,.9-.63,1.45-.68,.09,0,.23-.16,.36-.23,.57-.33,1.14-.72,1.73-.93,.3-.11,.6-.22,.9-.34l2.81-1.28,1.41-.64c.47-.2,.97-.35,1.45-.52l2.92-1.02c.98-.31,1.99-.52,2.99-.78,.35-.09,.69-.14,1.02-.38,.26-.19,.9-.34,1.21-.26,.49,.11,.9-.03,1.34-.09l2.42-.38c.48-.03,1.01-.2,1.45,.02,.04,.02,.2,0,.25-.02,.51-.29,1.05-.13,1.58-.14,.39,0,.78-.06,1.2-.18,.41-.13,1.1-.17,1.48-.05,.52,.15,.98,.09,1.46,.08,2.82-.01,5.63,.09,8.44,.18,1.33,.04,2.64-.13,3.98,0,.32,.03,.67-.06,.95,.12,.06,.04,.31,.02,.42-.02,.37-.15,.73-.09,1.14-.07,1.86,.1,3.76,.09,5.58-.09,1.41-.24,2.8-.28,4.18-.45,.46-.08,.94-.04,1.41-.08,.46-.05,.92-.13,1.38-.21,.27-.05,.56-.04,.8-.22,.13-.1,.52-.18,.68-.16,.57,.08,1.11-.14,1.66-.26l2.34-.56,2.28-.76c.37-.12,.75-.36,1.16-.27,.06,.01,.25-.13,.38-.19,.14-.07,.3-.19,.41-.2,1.08-.09,2.01-.74,2.99-1.14,2.38-.97,4.68-2.25,7.09-3.23,.67-.28,1.18-.7,1.84-.97,.64-.25,1.26-.53,1.9-.76,.46-.16,.9-.45,1.4-.39,.14,.01,.46-.11,.58-.22,.43-.39,1.03-.49,1.55-.71,.64-.27,1.36-.36,1.95-.79,.16-.11,.53-.11,.81-.18l1.42-.39c.22-.07,.43-.2,.66-.27,1.75-.49,3.54-.94,5.5-.91,.25,0,.51,.03,.76,.06,.25,.04,.52,.08,.86,.2,.66,.21,1.21,.64,1.52,1.19,.09,.13,.15,.28,.2,.43,.06,.15,.15,.3,.03,.44-.15,.28-.21,.54-.45,.82l-.94,1.29-3.21,4.44c-.41,.55-.7,1.26-1.31,1.6-.22,.62-.64,1.01-1.12,1.34-.07,.05-.12,.26-.18,.4-.21,.42-.21,.96-.79,1.18-.02,0-.05,.07-.08,.1-.29,.32-.19,.75-.68,1.07-.3,.2-.58,.67-.86,1.03-.28,.37-.58,.74-.84,1.13-.26,.4-.7,.73-.77,1.24-.01,.08-.36,.26-.48,.44-.61,.89-1.47,1.62-1.88,2.64-.09,.24-.34,.53-.55,.69-.75,.59-1.21,1.33-1.76,2.12-.74,1.01-1.58,2.08-2.64,2.78-.23,.15-.34,.2-.44,.47-.06,.18-.28,.39-.45,.57-1.84,2.03-3.83,3.93-5.88,5.76-.58,.48-1.27,.74-1.8,1.3-.22,.23-.58,.38-.66,.69-.01,.04-.11,.13-.17,.16-.88,.36-1.42,1.17-2.22,1.63-.17,.1-.36,.16-.54,.24-.18,.09-.41,.16-.53,.28-.51,.5-1.11,.9-1.72,1.28-.64,.34-1.29,.65-1.9,1.02-.42,.25-.95,.4-1.21,.81-.04,.06-.23,.16-.33,.17-.86,.11-1.56,.71-2.34,1.05-.4,.17-.75,.55-1.21,.53-.06,0-.2,.1-.29,.17-.15,.12-.27,.28-.43,.36-.45,.23-.99,.4-1.34,.68-.43,.36-.9,.58-1.35,.85-.26,.15-.57,.22-.85,.35-.26,.13-.51,.3-.77,.45-.36,.22-.72,.48-1.1,.64-.39,.17-.54,.56-1.02,.66-.37,.07-.59,.48-.92,.71-.16,.11-.35,.2-.54,.28-.14,.06-.3,.07-.42,.15-.26,.18-.55,.3-.78,.58-.16,.19-.59,.29-.88,.46-.3,.16-.58,.36-.87,.54-.29,.18-.63,.33-.86,.55-1.01,.94-2.27,1.54-3.42,2.29-.29,.19-.6,.48-.97,.46-.07,0-.24,.1-.32,.17-.95,.94-2.24,1.44-3.34,2.19-.78,.54-1.53,1.11-2.38,1.56-.82,.45-1.7,.87-2.45,1.39-.61,.43-1.22,.86-1.9,1.14-.66,.28-1.08,.98-1.87,.97-.66,.32-1.32,.64-1.98,.94-.56,.26-1.09,.6-1.73,.64-.23,.02-.62,.19-.81,.35-.61,.52-1.33,.74-2.1,.9-.18,.04-.36,.22-.56,.3-.6,.24-1.2,.5-1.83,.65-1.85,.53-3.62,1.26-5.5,1.68-.35,.07-.7,.31-1.01,.33-.48,.02-.96,.09-1.44,.16-.48,.05-.96,.12-1.43,.2-.48,.07-.95,.14-1.43,.22-.48,.04-.96,.06-1.43,.06-2.79,.01-5.58,.13-8.36-.18-.36-.05-.72-.27-.89-.24-.55,.09-1.14-.08-1.59-.05-.83,.07-1.59-.22-2.38-.31-.58-.07-1.14-.39-1.72-.28-.08,.02-.28-.04-.37-.1-.77-.42-1.67-.36-2.44-.75-.81-.12-1.6-.36-2.35-.72-.75-.35-1.52-.66-2.25-1.04-.22-.11-.45-.16-.68-.25-.12-.04-.26-.08-.34-.15-.59-.48-1.25-.86-1.87-1.29-.63-.42-1.31-.79-1.89-1.28-.37-.34-.7-.71-1.07-1.05-.36-.35-.84-.59-1.04-1.07-.06-.15-.29-.33-.46-.46-.91-.73-1.23-1.61-.77-2.04,.17-.16,.34,0,.57,.1,.45,.21,.84,.45,1.22,.86,.3,.31,.57,.72,1.03,.78,.07,.01,.22,.14,.28,.23,.45,.61,1.18,1.04,1.66,1.55,.39,.38,.82,.64,1.23,.96,.35,.26,.76,.44,1.05,.81,.1,.13,.56,.18,.83,.32,.65,.31,1.26,.7,1.91,.99,.98,.46,1.97,.9,3.02,1.16l1.55,.45c.51,.15,1.04,.26,1.56,.42,1.55,.15,3.08,.65,4.62,.76,.94,.01,1.85,.12,2.78,.18,.93,.03,1.85,.09,2.77,.08,.38-.02,.68-.02,1.02,.05,.22,.04,.45,.09,.68,.09,.88,.02,1.76-.09,2.64-.13,.47-.03,.99-.2,1.43,.02,.06,.03,.27,0,.36-.05,.74-.37,1.59-.32,2.39-.47,.3-.07,.59-.12,.94-.09,.38,.03,.94-.09,1.29-.26,.27-.13,.52-.17,.78-.26,1.07-.39,2.31-.36,3.27-1.03,.64,.09,1.31-.22,1.85-.46,1.03-.51,2.09-.93,3.15-1.35,1.05-.46,2.13-.83,3.15-1.36,.49-.25,1.05-.38,1.57-.59,.55-.22,1.06-.52,1.59-.8,.28-.15,.65-.23,.77-.53,0-.02,.05-.06,.09-.07,.32-.12,.66-.21,.94-.39,.25-.15,.43-.41,.67-.59,.29-.21,.62-.39,.94-.58,.31-.17,.62-.4,.96-.39,.13-.34,.54-.44,.84-.64,.28-.18,.58-.34,.88-.51l.99-.58c.33-.2,.67-.38,.98-.59l1.26-.92c.45-.31,.93-.6,1.41-.86l1.83-.97c.25-.14,.43-.31,.62-.53,.26-.29,.53-.73,1.1-.72,.11,0,.39-.19,.53-.32,1.08-1.06,2.52-1.64,3.74-2.5,.82-.24,1.43-.78,2.13-1.28,1.02-.75,2.16-1.46,3.29-1.97,1.21-.53,2.27-1.25,3.43-1.83,.33-.16,.63-.43,1-.39,.08,0,.32-.14,.44-.24,.81-.71,1.77-1.1,2.78-1.47,.55-.19,1.04-.57,1.54-.93,.74-.55,1.67-.91,2.46-1.45,.49,0,.62-.4,.73-.61,.16-.28,.36-.44,.64-.63,.36-.23,.72-.47,.97-.85,.12-.2,.53-.47,.77-.54,.33-.09,.39-.2,.57-.44,.22-.27,.64-.3,.96-.59,.35-.3,.67-.75,1.16-.79,.04,0,.15-.1,.19-.15,.48-.74,1.36-1.03,1.91-1.69,2.1-1.48,3.7-3.56,5.5-5.39,.74-.76,1.58-1.45,2.17-2.33,1.21-1.86,2.73-3.47,4.04-5.25,.28-.37,.5-.88,.97-1.06,.06-.02,.19-.2,.22-.29,.22-.71,.7-1.2,1.25-1.67,.13-.11,.32-.38,.33-.5,.03-.34,.29-.58,.48-.83,.23-.3,.65-.62,.71-.85,.13-.51,.46-.6,.71-.88,.15-.17,.26-.41,.37-.62,.05-.1,.07-.26,.12-.3,.62-.47,.78-1.26,1.29-1.81,.11-.12,.2-.26,.31-.37q1.26-1.25,2.42-3.13c.62-.3,.64-1.16,1.23-1.54,.21-.14,.47-.53,.6-.81l.2-.42c.03-.07,.05-.14,.09-.2,.04-.12,.21-.22,.11-.35-.11-.26-.34-.42-.7-.46-.2-.04-.38-.26-.7-.12-.12,.06-.52-.15-.81-.13-.4,.02-.86-.06-1.25,.21-.16,.1-.54,.09-.81,.16-.37,.08-.77,.09-1.12,.33-.19,.14-.67,.25-.92,.23-1.07-.1-1.89,.47-2.75,.86-.26,.12-.44,.21-.74,.25-.42,.06-.98,.14-1.25,.35-.48,.36-1.02,.47-1.54,.67-.9,.35-1.82,.66-2.7,1.05-1.01,.44-2.06,.78-3.02,1.39-.51,.32-1.2,.73-1.91,.74-.08,0-.25,.26-.41,.33-1.27,.58-2.45,1.23-3.81,1.78-.31,.13-.75,.02-.94,.35-.2,.35-.71,.06-.84,.43-.02,.05-.3,.17-.45,.21-1.63,.46-3.21,1.15-4.84,1.64-.39,.11-.8,.37-1.18,.24-.93,.54-2.19,.24-3.07,.91-.74,.09-1.46,.55-2.23,.34-.12-.03-.36,.08-.5,.06-.47-.07-.68,.41-1.25,.26-.33-.08-.9,.08-1.37,.15-.43,.07-.86,.11-1.29,.14l-1.42,.11c-.47,.04-.95,.06-1.42,.12-.95,.13-1.88,.28-2.86,.24-.11,0-.29,.03-.32,.08-.33,.38-.82,.18-1.15,.08-.28-.08-.51-.13-.81-.14-.82,0-1.63,0-2.45-.05-.48-.02-1,.09-1.45-.16-.14-.08-.53-.08-.74-.03-1.02,.21-2.07,.02-3.1,.02-.47,0-.93-.03-1.4-.05-.35-.02-.71,.13-1.06-.04-1.74,.23-3.48,.03-5.21,.04-1.71,.11-3.44,.04-5.13,.22-.43,.03-.89,.19-1.29-.02-.08-.04-.38-.01-.47,.04-.24,.16-.41,.24-.71,.09-.06-.03-.28,.03-.4,.09-.33,.15-.64,.19-1.01,.16-.29-.03-.67,0-.94,.09-.71,.27-1.38,.47-2.15,.36-.09,0-.3,.22-.47,.25-.63,.12-1.22,.41-1.89,.37-.27-.02-.63,.14-.95,.19-.56,.08-1.02,.38-1.59,.5-.58,.12-1.18,.39-1.77,.6l-1.77,.61-1.71,.78-1.71,.78c-.57,.27-1.14,.5-1.7,.8l-1.68,.88c-.39,.2-.76,.38-1.2,.51-1.12,.33-2.3,1.05-3.62,2.12-.09,.08-.21,.14-.32,.2-1.38,.88-2.69,1.85-4.02,2.78-.58,.41-1.21,.76-1.76,1.25-.36,.31-.73,.6-.98,1.02-.21,.35-.76,.57-.93,1.06-.07,.17-.38,.48-.58,.59-.69,.35-1.13,1.01-1.65,1.56-.58,.64-1.14,1.31-1.67,2.02-.26,.34-.58,.64-.7,1.11-.06,.23-.42,.6-.67,.81-.39,.32-.66,.73-.87,1.14-.47,.88-.44,.88-1.09,1.62-.08,.09-.15,.19-.21,.29-.65,1.02-1.34,2.05-1.77,3.14-.17,.46-.36,.9-.55,1.33l-.55,1.31c-.13,.35-.18,.8-.53,1.01-.05,.03-.12,.23-.12,.33,.02,.84-.37,1.6-.53,2.4-.1,.38-.1,.76-.1,1.14,0,.38-.03,.75-.07,1.14-.04,.36-.09,.73-.07,1.1l.06,1.1c.16,1.09,.05,1.35-.62,1.49-.55,.12-.72-.16-.99-1.15-.5-2.13,.02-4.32,.39-5.99Z"/>
        </g>
        <g class="cls-12">
          <g class="cls-12">
            <path class="cls-5" d="M66.99,80.94c-5.25,2.01-11.13,2.42-15.7,3.73-.51,.13-1.03,.26-1.57,.4l.82-.02c6.19-.2,12.97-1.57,18.86-4.12,3.61-1.7,6.93-4,10.57-6.37,.41-.26,.28-.55,.22-.7-.47,.07-.9,.09-1.3,.09-2.78,2.07-5.74,3.98-9.06,5.37-1.1,.45-2.15,1.36-2.83,1.62Z"/>
            <polygon class="cls-7" points="79.03 73.91 78.95 73.91 78.53 74.22 79.03 73.91"/>
            <path class="cls-4" d="M71.81,78.51c-1.04,.54-2.07,1.06-3.16,1.44-.65,.4-1.23,.84-1.66,.99-5.25,2.01-11.13,2.42-15.7,3.73-.5,.13-1.02,.26-1.55,.39l.88-.03c2.15-.08,4.36-.29,6.58-.63,.12-.04,.23-.08,.35-.11,1.19-.48,2.38-.46,3.56-.73,3.29-1,6.1-1.73,9.24-3.18,1.11-.55,2.16-1.37,3.45-2.02,.44-.23,.87-.43,1.3-.62,1.64-1.07,3.25-2.12,4.93-3.22,.41-.26,.28-.55,.22-.7-.25,.04-.48,.06-.71,.07-.69,.42-1.38,.85-2.06,1.29-.71,.4-1.42,.8-2.14,1.21-.59,.41-1.23,.74-1.86,1.1-.64,.34-1.25,.73-1.92,1.03,.07,0,.15,0,.24-.02Z"/>
            <path class="cls-7" d="M71.48,78.13c-.19,.08-.32,.39,.09,.4,.67-.29,1.29-.68,1.92-1.03,.63-.36,1.26-.69,1.86-1.1-.6,.35-1.24,.63-1.88,.93-.65,.28-1.29,.59-1.99,.81Z"/>
            <path class="cls-9" d="M71.22,77.04c-1.3,.48-2.5,1.13-3.71,1.6-.6,.25-1.18,.5-1.76,.7-.59,.18-1.16,.34-1.72,.44-1.17,.27-2.38,.31-3.44,.29-.36,.11-.72,.22-1.09,.29-9.01,2.4-18.58,2.9-27.77,1.7-2.29-.26-4.46-.5-6.63-.87-2.16-.38-4.3-.94-6.36-1.98-2.36-1.4-3.65-3.31-4.57-5.65-1.09-2.95-1.38-5.92-1.36-9.08,.07-3.15,.53-6.45,1.48-9.88,.52-1.85-.57-2.52-.74-2.07-.89,2.88-1.76,5.75-2.36,8.69-.58,2.94-.89,5.98-.43,9.02,.25,1.51,.69,3.02,1.37,4.42,.71,1.39,1.61,2.68,2.72,3.79,2.23,2.23,5.1,3.61,8.05,4.47,4.6,1.3,9.17,1.59,13.59,1.89,4.44,.27,8.83,.37,13.22,.25,.53-.14,1.06-.27,1.57-.4,4.57-1.32,10.45-1.72,15.7-3.73,.68-.25,1.73-1.16,2.83-1.62,3.33-1.39,6.28-3.3,9.06-5.37-.84,0-1.55-.09-2.32,0-.85,.59-1.7,1.2-2.59,1.74-.9,.5-1.81,.99-2.76,1.35Z"/>
            <path class="cls-6" d="M71.22,77.04c.94-.36,1.85-.85,2.76-1.35,.88-.54,1.73-1.15,2.59-1.74-.38,.03-.78,.1-1.21,.24-2.32,1-4.75,2.05-7.2,3.15-2.48,1.02-5.02,2.05-7.56,2.73,1.06,.02,2.27-.02,3.44-.29,.56-.11,1.14-.26,1.72-.44,.58-.2,1.16-.45,1.76-.7,1.21-.47,2.4-1.12,3.71-1.6Z"/>
            <path class="cls-4" d="M71.22,77.04c.9-.35,1.77-.81,2.63-1.28,.85-.5,1.66-1.08,2.48-1.65-.62,.27-1.22,.57-1.82,.9-3.06,1.6-6.26,3.06-9.6,3.85,3.49-1.15,6.88-2.62,10.03-4.51-2.43,1.07-4.66,2.05-7.01,3.08-2.41,1.01-4.88,1.97-7.34,2.65,1.06,.02,2.26-.03,3.43-.29,.56-.11,1.14-.26,1.72-.44,.58-.2,1.16-.45,1.76-.7,1.21-.47,2.4-1.12,3.71-1.6Z"/>
            <path class="cls-3" d="M66.06,79.35c4.01-1.23,7.92-2.97,11.39-5.47-.21,0-.43,0-.64,.02-.16,.08-.32,.15-.48,.22-.82,.56-1.62,1.15-2.48,1.65-.86,.47-1.73,.93-2.63,1.28-1.3,.48-2.5,1.13-3.71,1.6-.6,.25-1.18,.5-1.76,.7-.59,.18-1.16,.34-1.72,.44-1.17,.27-2.37,.31-3.43,.29-.34,.1-.68,.2-1.03,.28-4.6,1.23-9.35,1.96-14.12,2.23-4.13,.61-8.71,.45-13.03-.19,1.02,.08,2.05,.14,3.08,.2,1.03,.04,2.06,.05,3.09,.06-2.27-.1-4.55-.28-6.79-.56-1.94-.23-3.8-.42-5.64-.7-.43,.18-1.09,.32-2.12,.09-1.61-.35-3.08-.95-4.67-1.51-.2-.12-.04-.3-.43-.53,1.08,.67,2.11,.96,3.03,1.05-1.08-.3-2.12-.73-3.17-1.23-1.85-1.08-3.06-2.52-3.95-4.18-.14-.15-.23-.34-.34-.51-.28-.43-.57-.85-.81-1.32-.28-.44-.51-.92-.74-1.41,.13,.41,.22,.84,.42,1.26-.22-.28-.36-.66-.49-1.04-.14-.37-.24-.75-.29-1.09,.11,.3,.22,.59,.37,.87-.29-.99-.42-1.99-.52-3.09,.1,1.34,.51,2.67,1.02,3.67-.81-2.25-1.11-4.56-.69-6.99l.03,.19c-.06-3.47,.41-7.12,1.46-10.94,.52-1.85-.57-2.52-.74-2.07-1.23,4.03-2.46,8.04-2.87,12.23-.19,2.09-.16,4.24,.29,6.35,.44,2.1,1.35,4.14,2.68,5.88-.46-.89-.82-1.81-1.11-2.75-.13-.4-.24-.79-.3-1.17,.1,.39,.2,.78,.3,1.17,.19,.54,.5,1.06,.78,1.61,.35,.51,.65,1.06,1.03,1.56,.09,.23,.57,.81,.96,.83,1.08,1.34,2.89,2.31,4.31,3.21,.09,.05,.21,.18,.36,.34,.98,.44,2,.78,3.02,1.08,2.87,.8,5.74,1.22,8.56,1.49,2.82,.25,5.59,.44,8.35,.54-1.33-.14-2.6-.38-3.77-.63-1.57-.43-4.98-.28-7.86-.65-.73-.06-1.11-.36-1.81-.53,2.57-.11,5.7,.64,8.58,.7,3.79,.16,9.17,.75,13.26-.1,1.68-.36,3.3-.25,4.7-.2-.48,.21-1.43,.33-1.9,.38-4.26,.4-8.53,.48-12.83,.44,4.46,.44,8.78,.13,13.26,0-2.63,.32-5.2,.16-7.65,.57,.21,.05,.42,.1,.64,.14,1.74,0,3.47,.02,5.21-.05,.53-.13,1.05-.27,1.55-.39,4.57-1.32,10.45-1.72,15.7-3.73,.43-.15,1.01-.59,1.66-.99-.84,.3-1.68,.6-2.53,.86-.86,.25-1.71,.49-2.57,.77,.7-.15,1.39-.25,2.06-.28-.8,.28-1.55,.45-2.31,.59-.76,.13-1.52,.25-2.32,.49,.86-.31,1.72-.56,2.58-.8-1.07,.18-2.17,.43-3.29,.65,1.03-.41,2.06-.59,3.1-.78,1.02-.25,2.06-.5,3.05-1.05-.44,.16-.89,.28-1.34,.4,.45-.14,.91-.26,1.36-.41h-.02c1.33-.51,2.63-1.11,3.74-1.79-2.25,1-4.45,1.4-6.72,2.13-.37,.14-.76,.24-1.13,.36,.39-.12,.76-.24,1.13-.36,5.18-1.74,10.4-3.58,15.09-6.51l.42-.31c-.19,0-.37,0-.55,0-3.84,2.42-8.1,4.25-12.34,5.44Z"/>
          </g>
        </g>
        <g class="cls-12">
          <g class="cls-12">
            <path class="cls-5" d="M113.99,50c-2,1.05-4.51,1.62-5.75,3.34-.15,.18-.29,.37-.42,.56l.31-.13c2.38-1.01,4.79-2.22,7.04-3.36,1.33-.82,2.67-1.9,4.41-2.23,.19-.04,.14-.35,.11-.51-.22-.15-.42-.32-.61-.5-1.39,.52-2.67,1.28-4.05,1.86-.47,.18-.76,.86-1.03,.97Z"/>
            <polygon class="cls-7" points="119.14 47.19 119.1 47.15 118.89 47.24 119.14 47.19"/>
            <path class="cls-4" d="M115.87,48.74c-.42,.25-.85,.46-1.3,.63-.23,.26-.41,.55-.58,.63-2,1.05-4.51,1.62-5.75,3.34-.14,.18-.28,.36-.42,.55,.11-.05,.22-.09,.34-.14,.82-.35,1.65-.72,2.47-1.11l.1-.11c.34-.43,.87-.44,1.31-.64,1.14-.79,2.27-1.1,3.46-1.77,.42-.25,.78-.75,1.34-.93,.18-.08,.37-.12,.55-.16,.68-.38,1.4-.69,2.2-.85,.19-.04,.14-.35,.12-.51-.11-.08-.22-.16-.33-.25-.67,.12-1.33,.3-1.99,.5-.57,.27-1.12,.54-1.65,.79,.03,.02,.07,.03,.12,.04Z"/>
            <path class="cls-7" d="M115.64,48.31c-.08,.03-.1,.28,.11,.38,.53-.25,1.08-.52,1.65-.79-.56,.15-1.13,.32-1.76,.41Z"/>
            <path class="cls-9" d="M115.33,47.25c-1.22,.31-2.12,1.18-3.15,1.36-.54,.11-1.1,.16-1.66,.1-.15,.09-.3,.17-.45,.25-3.58,2.27-6.84,4.79-10.28,6.98-1.68,1.17-2.81,2.75-4.21,4.31-.91,.83-1.91,1.15-2.98,1.72-2.74,1.36-3.95,4-6.08,6.23-.57,.6,.12,1.66,.28,1.54,3.7-3.58,7.84-6.12,11.63-9.57,2.95-2.65,6.02-4.81,9.38-6.28,.14-.19,.28-.38,.42-.56,1.24-1.72,3.75-2.29,5.75-3.34,.27-.11,.56-.8,1.03-.97,1.38-.58,2.66-1.34,4.05-1.86-.4-.37-.77-.76-1.17-1-.85,.45-1.68,.89-2.57,1.09Z"/>
            <path class="cls-6" d="M115.33,47.25c.89-.2,1.72-.64,2.57-1.09-.2-.12-.4-.2-.62-.22-2.46,.02-4.73,1.57-6.76,2.77,.56,.06,1.12,0,1.66-.1,1.03-.18,1.93-1.05,3.15-1.36Z"/>
            <path class="cls-4" d="M115.33,47.25c.85-.19,1.64-.59,2.45-1.03-.31,.02-.61,.08-.91,.16-1.53,.41-2.97,1.08-4.5,1.47,1.52-.71,3.09-1.33,4.7-1.91-2.38,.11-4.57,1.61-6.55,2.78,.56,.06,1.12,0,1.66-.1,1.03-.18,1.93-1.05,3.15-1.36Z"/>
            <path class="cls-3" d="M113.09,48.4c1.76-.62,3.51-1.19,5.27-1.93-.11-.09-.22-.18-.33-.25-.09,0-.17,0-.25,0-.81,.44-1.6,.84-2.45,1.03-1.22,.31-2.12,1.18-3.15,1.36-.54,.11-1.1,.16-1.66,.1-.14,.08-.28,.16-.42,.24-1.83,1.16-3.57,2.38-5.3,3.59-1.28,1.37-2.92,2.47-4.6,3.41,.72-.54,1.43-1.1,2.12-1.68-.82,.57-1.66,1.12-2.5,1.66-.71,.49-1.33,1.06-1.9,1.67,.05,.34-.01,.7-.33,1.05-.49,.54-1.07,.95-1.48,1.62-.08,.06-.21-.14-.38-.02,.46-.33,.73-.74,.89-1.18-.34,.39-.68,.79-1.02,1.18-.71,.65-1.48,.99-2.3,1.38l-.21,.2c-.35,.32-.65,.73-.94,1.15,.16-.11,.32-.23,.49-.35-.16,.31-.49,.54-.74,.72,.08-.12,.17-.25,.25-.37-.38,.27-.75,.53-1.16,.82,.5-.35,.91-.83,1.23-1.26-.87,.71-1.61,1.43-2.6,1.94l.04-.08c-1.04,1.2-1.94,2.57-3.12,3.81-.58,.6,.12,1.66,.28,1.54,2.58-2.5,5.38-4.49,8.12-6.64-.42,.12-.84,.23-1.24,.34-.16,.08-.33,.13-.51,.16,.17-.05,.34-.1,.51-.16,.44-.2,.83-.55,1.32-.75,.13,0,.37-.17,.33-.42,.67-.28,1.2-.94,1.86-1.22,.03-.02,.13-.01,.25,0,.33-.29,.66-.58,.99-.88,1.85-1.66,3.73-3.12,5.71-4.34-.54,.21-1.07,.4-1.61,.53-.76,.12-1.71,1.26-2.62,2.09-.21,.24-.5,.16-.75,.33,.44-1.18,1.82-1.66,2.74-2.48,1.26-1.05,3.44-1.91,4.65-3.27,.49-.58,1.23-.71,1.86-.8-.1,.24-.45,.44-.63,.54-1.57,.9-3.11,1.87-4.54,3.01,1.72-.86,3.14-2.03,4.94-2.69-.91,.61-2.02,.91-2.66,1.79,.1,0,.21,0,.31-.02,.64-.35,1.3-.66,1.96-.95,.14-.19,.28-.38,.42-.55,1.24-1.72,3.75-2.29,5.75-3.34,.17-.08,.35-.37,.58-.63-.7,.26-1.4,.51-2.07,.83,.3-.07,.61-.09,.92-.05-.61,.33-1.27,.29-1.88,.66,.3-.24,.62-.44,.95-.61-.45,.1-.9,.29-1.35,.45,.7-.67,1.75-.46,2.42-1.23-.18,.09-.36,.16-.55,.22l.56-.23h0c.54-.26,1.04-.62,1.49-.98-.96,.41-1.96,.51-2.88,.98-.14,.09-.29,.18-.44,.27,.14-.1,.29-.19,.44-.27,2.06-1.19,4.44-1.73,6.74-2.17l.21-.08-.27-.25c-1.92,.42-3.86,.94-5.74,1.5Z"/>
          </g>
        </g>
      </g>
    </g>
  </g>
</svg>