<?xml version="1.0" encoding="UTF-8"?>
<svg id="_Слой_2" data-name="Слой 2" xmlns="http://www.w3.org/2000/svg" xmlns:xlink="http://www.w3.org/1999/xlink" viewBox="0 0 228.36 252.51">
  <defs>
    <style>
      .cls-1 {
        fill: none;
      }

      .cls-2 {
        clip-path: url(#clippath);
      }

      .cls-3 {
        fill: #f3f9fb;
      }

      .cls-4 {
        fill: #f7fbfc;
      }

      .cls-5 {
        fill: #f8fcfd;
      }

      .cls-6 {
        fill: #f4fafb;
      }

      .cls-7 {
        fill: #f5fafb;
      }

      .cls-8 {
        fill: #eab7c9;
      }

      .cls-9 {
        fill: #fbfdfe;
      }

      .cls-10 {
        fill: #e29fb4;
      }

      .cls-11 {
        fill: #6e7c6e;
      }

      .cls-12 {
        opacity: .49;
      }

      .cls-13 {
        opacity: .8;
      }
    </style>
    <clipPath id="clippath">
      <rect class="cls-1" width="228.36" height="252.51"/>
    </clipPath>
  </defs>
  <g id="_лепестки" data-name="лепестки">
    <g class="cls-2">
      <g>
        <g class="cls-12">
          <path class="cls-11" d="M186.48,204.65c-23.44,8.13-43.72,4.19-50.03,2.74-4.72-1.08-42.23-9.68-43.52-28.1-.57-8.13,6.09-15.59,11.31-19.19,10.9-7.52,23.22-3.55,24.88-2.98,6.56,2.24,6.25,5.01,15.95,11.05,9.35,5.83,17.74,8.3,22.78,9.75,11.14,3.2,20.27,3.66,26.72,3.94,16.91,.75,23.98-1.95,24.92,.36,1.52,3.72-14.63,16.06-33,22.43Z"/>
          <path class="cls-11" d="M180,208.51c-2.12,.6-3.91,.82-5.63,1.36-.27,.09-.48,.64-.83,.69-1.39,.18-2.76,.94-4.19,.52-1.56-.49-3.01-.33-4.38,.17-1.3,.49-2.63,.51-3.95,.67-.44,.06-.88,.19-1.38-.39-.37-.42-1-.43-1.47,.33-.09,.15-.29,0-.44-.08-.16-.08-.35-.4-.46-.3-1.3,1.18-2.66,.29-3.98,.51-.33,.06-.68-.3-.99,.47-.08,.2-.41,.22-.5,.03-.23-.49-.48-.61-.8-.62-1.36-.05-2.72-.17-4.08-.31-.77,.95-1.48,.41-2.19,.31-.54-.07-1.02-.49-1.53-.75-.5-.28-1.18,.27-1.55-.69-.06-.15-.31,.08-.46,.07-.68-.04-1.43,.15-2-.29-.29-.23-.58-.46-.9-.52-4.12-.87-8.13-1.93-12.14-3.12-.35-.1-.64-.32-1.19,.12-.42,.34-1.07,.17-1.2-.36-.21-.85-.72-.71-1.14-.89-.76-.33-1.58-.51-2.33-.86-.44-.22-1.14,.08-1.18-1.03,0-.11-.15-.16-.23-.09-.86,.73-1.06-.24-1.52-.55-.33-.23-.71-.36-1.29-.08-.57,.27-1.25,.07-1.42-.54-.21-.83-.74-.82-1.18-1.02-2.6-1.22-5.17-2.52-7.69-3.94-1.18-.67-2.83-.66-3.78-1.77-.23-.25-.75-.16-.57-.92,.04-.15-.22-.25-.42-.17-.69,.27-.85-.16-1.18-.45-1.46-1.38-2.63-3.01-4.38-4.13-1.34-.94-2.13-2.34-2.98-3.72-.29-.47-.13-1.14-.21-1.69-.09-.53-.35-.99-.54-1.49-.11-.3,.01-.65-.62-.82-.34-.09-.55-.54-.34-.78,.74-.78,.33-1.36,.27-2.02-.07-1.85,.1-3.69,.6-5.43,.13-.41-.14-1.04,.82-1.13,.13-.01-.05-.33-.07-.51-.02-.19-.19-.48-.03-.55,1.46-.64,1.37-1.91,1.98-2.9,1.47-2.32,3.08-4.56,5.13-6.36,.57-.49,.56-1.5,1.17-1.96,.57-.45,1.1-.96,1.72-1.34,.44-.26,.66-.93,1.57-.43,.25,.13,.55-.07,.55-.34,.03-1.03,.79-1.04,1.28-1.4,.61-.48,1.51-.33,1.81-1.47,.09-.31,.65,0,.94-.07,.52-.12,1.02-.31,1.51-.5,.23-.09,.38-.48,.61-.58,1.82-.82,3.76-1.39,5.74-1.7,2.02-.28,4.06-.18,6.07,0,2.01,.18,4.01,.46,5.95,1.1,.7,.23,1.78-.17,2.04,1.23,.91-.45,1.38,.24,1.59,1.23,.03,.14,.38-.06,.58-.08,.6-.06,1.71-.83,1.54,.62,0,.05,.09,.04,.12,.08,.29,.43,1.38-.48,1.4,.56,.01,.63,.61,.84,.96,1.19,.35,.36,.7,.73,1.12,.95,.44,.24,.42,1.05,1.41,.59,.16-.07-.04,.68,.15,.77,.93,.49,1.2,1.87,2.72,1.54,.34-.07,.61,.16,.67,.5,.2,1.22,1.17,1.34,2.09,1.58,1.24,.31,2.39,.85,2.78,2.53,.08,.36,.08,.6,.52,.34,.29-.17,.51,.04,.72,.15,2.32,1.31,4.69,2.51,7.13,3.58,.66,.28,.91,1.44,1.75,1.39,.34-.02,.5,.57,1.03-.09,.07-.09,.22-.1,.25-.03,.5,1.2,1.81,.27,2.51,.93,.15,.14,.26,.37,.41,.53,.15,.16,.29,.45,.49,.38,1.66-.65,2.74,.6,4.17,.72,.49,.04,.84,.69,1.53-.14,.1-.12,.3-.05,.35,.1,.46,1.36,1.56,.72,2.29,1.23,.38,.26,1-.25,1.14,.79,.02,.13,.21,.08,.33,.04,.21-.07,.46-.34,.63-.29,.47,.16,.89,.81,1.38,.59,.62-.27,1.08-.01,1.6,.07,.29,.05,.5,.54,.78,.7,.27,.15,.57,.13,.86,.18,.41,.08,.87-.02,1.23,.26,.37,.29,.86-.66,1.2,.09,.27,.57,.81-.29,1.21-.34,.2-.02,.39,.12,.57,.25,.14,.1,.24,.44,.38,.43,.32-.02,.6,.2,.99-.18,.27-.26,.61,.32,.94,.43,.33,.11,.67,.1,1,.13,.34,.03,.68,.27,1.01,.07,1.43-.89,2.73-.16,4.11-.21,.35-.01,.77-.33,1.03,.54,.05,.16,.25,.18,.35,.09,1.35-1.14,2.68-.11,4-.4,.94-.21,1.87-.65,2.81-.52,.92,.12,1.87,.37,2.76-.06,.73-.34,1.44-.67,2.15-.46,.71,.2,1.32-1.55,2.05-.11l1.22-.07c.59-.03,1.17-.06,1.75-.06,.94,0,2.17-.46,2.7,.35,.18,.3,.79,.23,1.33-.08,.87-.52,1.6-.7,2.19-.72,.55,.01,1,.17,1.28,.45,.13,.12,.9-.31,1.17-.28,.89,.04,1.67,.15,2.17,.43,.73,.43,1.68,.57,2.59,.92,.46,.18,.92,.43,1.3,.89,.44,.45,.59,1.09,.67,1.61,.03,.2,.22,.35,.39,.48,.18,.14,.33,.29,.21,.48-.65,1.18-.97,2.1-1.31,3.09-.36,.97-.89,2.05-2.12,3.04-1.85,1.45-3.45,2.79-5.1,4.18-.82,.69-1.67,1.38-2.56,2.05l-.67,.5-.59,.41c-.3,.2-.6,.4-.92,.57-.33,.19-1.06-.21-1.09,.06-.1,.85-.93,.72-1.05,1.38-.23,1.18-1.24,1.12-1.83,1.72-.43,.45-1.27,.26-1.25,1.39,0,.17-.19,.25-.34,.2-1.22-.38-1.3,1.24-2.28,1.28-.92,1.79-2.81,1.86-4.2,2.81-.21,.14-.32,.46-.48,.69-.08,.11-.15,.32-.28,.29-1.88-.44-2.94,1.03-4.49,1.33-.51,.09-1.1-.03-1.62,.05-.52,.08-.91,.54-1.62,.01-.22-.17-.45,.05-.62,.21-.94,.87-2.3-.33-3.13-2.73-.31-.87-.11-1,0-1.4,.22-.78,.5-1.33,1.04-1.46,.42-.1,.97,0,1.01-.96,0-.16,.2-.2,.34-.14,.98,.45,1.52-.43,2.37-.21,.66,.17,1.08-.12,1.62-.18,.46-.05,.68-.66,1.41-.1,.25,.19,.35-.63,.61-.79,.62-.37,1.25-.73,1.95-.94,2.13-.64,3.42-2.8,5.45-3.58,.77-1.74,2.66-1.68,3.66-2.99,.6-.78,1.31-1.35,2.05-1.9l.36-.27,.29-.23c.19-.16,.36-.33,.48-.51,.1-.15,.24-.22,.69-.21,.3,.01,.64,0,.77-.08,.49-.34,.78-.71,1.34-1.07,.33-.23-.42-.39,1.56-.66,.28-.04,.37-.16,.19-.19-.73-.14-.76-.27-.57-.47,.19-.19,.61-.44,.63-.63,.02-.14,.19-.3,1.11-.71,.99-.45,1.12-.87,.32-.83-.58,.04-.59-.12-.82-.21-.44-.21-.43-.57-.66-.71-.23-.14-.76-.09-2.15,.62,1.55-1.25,.33-.81-.36-.49-1.39,.61-1.95,.73-2.53,.73-.55,0-1.13-.1-1.77,.03-.15,.03-.28-.07-.43-.19-.08-.06-.16-.12-.24-.18-.07-.06-.27-.1-.4-.11-.61-.07-1.22-.02-1.83,.05-.33,.04-.71-.33-.95,.5-.02,.06-.07,.11-.11,.09-.35-.13-.71-.44-1.05-.37-.31,.06-.58,.62-.9,.77-.37,.18-.76,.2-1.15,.21-.37,.01-.77,.2-1.06-.54-.3,.91-.72,.44-1.09,.51-.35,.06-.7,0-1.06-.01l-1.19-.04c-.4-.02-.79-.1-1.19-.03-.54,.1-1.07,.41-1.61,.48-.57,.07-1.14,.04-1.7-.08-.7-.16-1.39-.49-2.09-.69-.29-.09-.56,.12-.87,.42-.41,.4-.98,1.3-1.38,.02-.08-.25-.43-.21-.64-.07-1.66,1.13-3.15-.1-4.75,.05-.73-1.05-1.63-.6-2.57-.47-1.37,.18-2.79,.08-3.96-.72-1.23-.85-2.61-.8-3.87-1.33-.35-.15-.84,.09-.94-.81-.02-.21-.31-.22-.5-.14-1.27,.6-2.26,.05-3.15-.8-.46-.45-1.19-.29-1.9-.15-1.07,.19-1.98-.47-2.95-.79-.09-1.13-.75-.23-1.12,.12-.48,.47-.79,.48-1.15,.38-.45-.14-.82-.48-1.5,0-.35,.25-.82-.02-.94-.46-.15-.58-.35-.42-.77-.23-.49,.22-.49-.84-.95-.97-.48-.13-1.23,.12-1.21-1.07,0-.11-.14-.15-.24-.1-1.31,.66-1.49-1.21-2.52-1.15-1.94-2.29-4.87-2.66-7.03-4.47-.89-.73-1.41-2.03-2.62-2.22-2.55-.44-4.11-2.49-6.04-3.89-.41-.3-1.18-.31-.8-1.4,.05-.15-.13-.29-.29-.26-1.19,.25-1.48-.42-1.54-1.34-.01-.22-.25-.39-.48-.24-.66,.39-.68,.02-.87-.15-.22-.2-.18-.93-.53-.73-.73,.49-.42-.37-.62-.64-.12-.16-.39-.07-.6-.05-.1,0-.34,.26-.35,.17-.18-1.08-1.26-.08-1.69-.63-.1-.12-.23-.14-.33-.28-1.11-1.55-1.21-1.6-3.27-1.37-.35-1.36-1.26,.42-1.73-.61-.18-.38-.62-.35-.91-.11-1.25,1.06-2.42,.13-3.6,.54-.24,.08-.49-.77-.75-.05-.09,.26-.57-.46-.84-.39-.38,.09-.87-.32-1.12,.57-.1,.35-.48,.17-.72,.29-.32,.17-.74-.08-.92,.67-.09,.41-.49,.55-.79,.29-.61-.53-1.07-.47-1.39-.12-.33,.35-.55,.9-.83,1.27-.17,.23-.27,.39-.58,.32-.43-.11-1.05-.24-1.1,.25-.1,.84-.62,.82-1,1.12-.32,.25-.67,.44-1.02,.65-.33,.24-.68,.45-.97,.76-.67,.66-1.64,1.04-1.85,2.21-.12,.63-.31,1.33-1.53,.97-.14-.04,.19,.56,.1,.67-.75,.91-1.42,1.85-2.09,2.75-.15,.2-1.29-.14-.63,.54,.73,.7-1.07,0-.15,.75,.13,.11,0,.3-.15,.35-.81,.29-1.17,.89-1.32,1.5-.11,.31-.13,.62-.19,.92-.06,.3-.15,.59-.26,.87-.12,.28,.25,.65-.72,.75,.52,.43,.16,.76-.03,1.14-.18,.37-.35,.81,.59,1.06-.11,.26,.08,.49,.15,.73,.06,.24,.11,.48-.41,.86-.16,.13,.15,.23,.01,.36-.49,.51,1.3,.1,.57,.77-.41,.41,.02,.7,.18,1.01,.13,.3,.28,.59,.45,.87l.6,.94c.21,.31,.41,.65,.71,.9,.29,.26,.73,.4,1.11,.58,.39,.18,.7,.4,.9,.78,.04,.08,.25,.09,.39-.01,1.25-.9,.93-.03,.84,.49-.07,.42-.03,.69,.18,.85,.53,.45,1.13,.85,1.65,1.35,.3,.31,.96,.17,.75,1.19-.06,.31,.27,.46,.55,.4,1.32-.31,1.8,.7,2.71,1.06,.41,.16,.77,.41,1.13,.65,.28,.18,.88-.23,.88,.47,1.98-.3,3.11,1.12,4.69,1.69,1.57,.54,3.06,1.27,4.61,1.91,.38,.17,.99-.11,.99,.95,0,.2,.29,.3,.44,.14,.42-.43,.69-.63,.7,.15,0,.15,.27,.08,.44-.02,.46-.26,.73-.12,.95,.35,.17,.36,.47,.65,.8,.54,.88-.31,1.68-.55,2.06,.68,.05,.15,.49-.42,.64-.34,.56,.32,1.34-.02,1.71,.94,.15,.39,.59,.26,.88,.44,.49,.31,1.15-.08,1.62,.38,.48,.47,1.18,.39,1.78,.55l1.81,.46,1.81,.44,1.8,.4,1.79,.36,1.8,.32c.42,.08,.79,.25,1.16,.71,.94,1.18,2.33,1.22,4.05,.58,.12-.05,.25,.02,.37,.03,1.59,.17,3.2,.07,4.78,.43,.69,.14,1.38,.62,2.11,.57,.47-.03,.93,.11,1.4-.52,.39-.53,.94,.38,1.38-.56,.16-.34,.6-.33,.82-.05,.75,.91,1.51,.39,2.25,.44,.86,.07,1.73-.01,2.58-.15,.42-.07,.87,.22,1.23-.59,.18-.4,.7-.17,1.04,.12,.52,.44,.99,.29,1.42,.03,.91-.57,.88-.65,1.9-.19,.12,.05,.25,.04,.36,.03,1.17-.19,2.44-.03,3.49-.69,.87-.57,1.77-.81,2.7-1.02,.37-.09,.69-.61,1.23,.3,.08,.13,.29,.07,.35-.07,.51-1.26,1.47-.92,2.26-1.14,.76-.23,1.24-1.22,2.06-1.28,.78-.03,1.47-.43,2.2-.65,1.11-.34,1.54,.14,2.44,2.73,.74,2.13,.6,2.69-.21,3.44-.86,.8-1.88,1.19-2.86,1.48-1,.25-1.97,.38-2.78,.75Z"/>
        </g>
        <g>
          <path class="cls-8" d="M194.7,183.02c-23.44,8.13-43.72,4.19-50.03,2.74-4.72-1.08-42.23-9.68-43.52-28.1-.57-8.13,6.09-15.59,11.31-19.19,10.9-7.52,23.22-3.55,24.88-2.98,6.56,2.24,6.25,5.01,15.95,11.05,9.35,5.83,17.74,8.3,22.78,9.75,11.14,3.2,20.27,3.66,26.72,3.94,16.91,.75,23.98-1.95,24.92,.36,1.52,3.72-14.63,16.06-33,22.43Z"/>
          <path class="cls-8" d="M187.87,185.54c-2.08,.59-3.84,.86-5.55,1.29-.27,.07-.55,.24-.89,.3-1.37,.2-2.75,.6-4.09,.61-1.47,0-2.9,.21-4.28,.4-1.31,.19-2.6,.3-3.9,.36-.44,.03-.87,.07-1.35-.06-.35-.1-.98-.07-1.45,.12-.09,.04-.29,0-.43-.02-.16-.02-.34-.1-.45-.07-1.28,.3-2.61,.08-3.91,.09-.32,0-.67-.09-.96,.09-.07,.05-.39,.04-.48,0-.24-.13-.49-.18-.8-.19-1.34-.08-2.67-.17-4-.32-.68,.19-1.4,0-2.1-.1-.52-.07-1.03-.22-1.55-.34-.52-.13-1.11-.06-1.57-.35-.07-.05-.29-.01-.43-.03-.66-.09-1.36-.14-1.96-.33-.31-.1-.61-.21-.93-.27-4.06-.83-8.05-1.89-12.01-3.08-.34-.1-.66-.23-1.07-.21-.32,.02-.94-.17-1.18-.37-.38-.32-.82-.39-1.23-.54-.77-.27-1.55-.53-2.31-.82-.45-.18-1-.25-1.31-.63-.03-.04-.17-.09-.23-.09-.59,.04-1-.35-1.5-.57-.36-.16-.72-.3-1.16-.36-.43-.05-1.08-.3-1.39-.56-.41-.36-.86-.5-1.3-.7-2.59-1.17-5.13-2.45-7.59-3.89-1.16-.68-2.4-1.21-3.47-2.08-.26-.2-.6-.33-.73-.65-.03-.07-.25-.21-.35-.23-.39-.1-.65-.37-.98-.64-1.46-1.24-2.79-2.64-4.14-3.98-1.01-1.08-1.84-2.29-2.53-3.59-.23-.43-.37-.92-.51-1.4-.14-.46-.36-.9-.5-1.37-.08-.28-.1-.57-.31-.81-.11-.13-.25-.54-.21-.71,.13-.6-.04-1.19-.1-1.78-.09-1.68,.1-3.37,.53-4.99,.12-.39,.13-.87,.46-1.15,.05-.04,.06-.28,.09-.43,.03-.16,.05-.36,.12-.46,.65-.9,1-1.96,1.55-2.92,1.35-2.28,3.01-4.37,4.92-6.2,.54-.5,.89-1.08,1.45-1.54,.53-.45,1.07-.89,1.64-1.3,.41-.28,.77-.68,1.29-.72,.14-.02,.44-.21,.53-.33,.36-.46,.91-.74,1.42-1,.62-.35,1.32-.57,1.87-1.06,.15-.13,.54-.15,.81-.24,.47-.15,.93-.36,1.41-.51,.23-.07,.43-.22,.66-.29,1.75-.62,3.58-.97,5.43-1.19,1.88-.19,3.78-.15,5.66,.01,1.88,.17,3.75,.48,5.57,1,.68,.19,1.49,.26,2,.78,.68,.04,1.18,.39,1.61,.81,.06,.06,.28,.08,.43,.13,.47,.14,1.03,.11,1.32,.68,.01,.02,.08,.04,.11,.07,.33,.29,.8,.18,1.13,.69,.21,.31,.68,.62,1.03,.93,.36,.32,.71,.65,1.08,.94,.38,.3,.67,.76,1.18,.87,.08,.02,.23,.38,.4,.51,.84,.65,1.56,1.52,2.57,1.92,.23,.1,.53,.33,.7,.52,.61,.72,1.39,1.12,2.22,1.58,1.1,.6,2.24,1.27,3.13,2.16,.19,.19,.26,.3,.55,.33,.19,.02,.44,.19,.65,.31,2.37,1.35,4.8,2.57,7.3,3.67,.68,.29,1.22,.79,1.96,.99,.31,.08,.6,.33,.92,.24,.04-.01,.17,.02,.22,.06,.77,.55,1.74,.56,2.56,.95l.51,.27c.18,.09,.38,.22,.55,.24,1.41,.18,2.72,.82,4.1,1.15,.47,.11,.94,.39,1.42,.27,.07-.02,.28,.04,.36,.1,.71,.51,1.65,.53,2.45,.82,.42,.15,.93,.11,1.26,.44,.04,.04,.22,.06,.33,.07,.19,.02,.39-.02,.57,.03,.49,.13,1,.38,1.46,.4,.56,.02,1.06,.16,1.59,.27,.3,.06,.57,.23,.88,.31,.28,.08,.59,.11,.88,.17,.42,.08,.86,.11,1.26,.23,.41,.12,.77-.07,1.2,.17,.33,.18,.77,.01,1.17,.04,.2,.02,.4,.08,.59,.13,.15,.04,.28,.14,.42,.15,.32,.03,.62,.11,.97,.05,.24-.04,.64,.14,.98,.2,.33,.05,.68,.08,1.02,.12,.34,.03,.7,.12,1.02,.09,1.38-.12,2.75,.14,4.13,.19,.35,.01,.77-.05,1.06,.19,.05,.04,.25,.06,.36,.04,1.32-.23,2.68,.08,4.01,.04,.95-.02,1.88-.11,2.84-.07,.94,.04,1.9,.11,2.81,0,.74-.09,1.47-.18,2.2-.13,.71,.04,1.38-.41,2.09-.07l2.17-.09c.61-.02,1.23-.15,1.83,.03,.22,.06,.64,.03,.87-.06,.75-.28,1.49-.27,2.27-.21,.19,.01,.41-.11,.62-.13,.64-.06,1.29-.12,1.94-.13,.98,0,1.93-.1,3.02-.01,.48,.03,1.39,.23,1.93,.8,.56,.56,.67,1.46,.54,2.21-.05,.25-.08,.5-.13,.72-.05,.23-.11,.45-.22,.59-1.3,1.79-2.52,3.31-4.05,4.52-2.26,1.71-4.39,3.5-6.74,5.01-.31,.2-.72,.25-.83,.39-.35,.43-.95,.64-1.25,.98-.56,.61-1.31,.91-1.96,1.35-.47,.33-1.08,.52-1.41,.99-.05,.07-.22,.16-.33,.19-.85,.22-1.41,.92-2.21,1.22-1.27,1-2.83,1.57-4.25,2.32-.21,.11-.39,.26-.59,.39-.1,.07-.21,.16-.31,.18-1.45,.35-2.74,1.16-4.14,1.66-.46,.16-.94,.26-1.41,.42-.47,.16-.92,.4-1.42,.4-.16,0-.41,.13-.6,.22-1.03,.51-1.96,.41-2.18-.18-.08-.21,.13-.31,.33-.47,.39-.31,.78-.57,1.32-.75,.42-.14,.89-.25,1.18-.59,.05-.06,.24-.12,.35-.13,.77-.1,1.5-.55,2.21-.71,.54-.12,1-.34,1.5-.51,.42-.15,.78-.44,1.27-.43,.17,0,.48-.34,.76-.48,.65-.32,1.31-.65,1.97-.94,2.02-.89,3.78-2.19,5.73-3.21,1.22-1.02,2.74-1.64,3.98-2.6,1.49-1.16,3.09-2.15,4.54-3.34,.3-.24,.55-.42,.86-.58,.2-.1,.42-.21,.6-.35,.7-.55,1.37-1.14,2.04-1.72,.36-.31,.65-.77,1.13-.88,.07-.02,.22-.17,.26-.26,.34-.74,1.03-1.24,1.46-1.91,.17-.25,.33-.48,.58-.7,.26-.24,.51-.76,.46-1.1-.01-.23-.01-.37-.08-.54-.11-.36-.39-.56-.83-.67-.5-.11-1.07-.12-1.61,.05-.58-.28-1.32-.15-1.91-.04-2.28,.41-4.64,.42-6.96,.59-.56,.04-1.14-.05-1.71-.06-.6,0-1.21,.03-1.81,.06-.32,.01-.7-.07-.94,.14-.02,.02-.08,.03-.11,.02-.34-.03-.69-.1-1.03-.08-.3,.02-.58,.16-.89,.2-.37,.05-.75,.05-1.13,.05-.36,0-.76,.05-1.05-.14-.29,.22-.71,.1-1.07,.11-.34,.01-.69-.01-1.04-.02l-1.17-.04c-.39-.02-.78-.05-1.16-.04-.53,0-1.05,.07-1.58,.07-.56,0-1.12-.03-1.68-.09-.7-.07-1.39-.18-2.08-.27-.29-.04-.54,0-.83,.06-.38,.08-.88,.28-1.34-.07-.09-.07-.43-.08-.63-.06-1.53,.18-3.05-.25-4.56-.36-.8-.34-1.62-.32-2.49-.38-1.28-.1-2.62-.31-3.83-.68-1.27-.41-2.56-.6-3.82-.96-.35-.1-.76-.12-1.01-.4-.06-.06-.33-.12-.49-.12-1.08-.04-2.07-.39-3.06-.82-.52-.23-1.16-.32-1.79-.42-.94-.16-1.9-.54-2.85-.86-.33-.38-.73-.23-.97-.2-.33,.05-.6-.02-.93-.13-.43-.14-.83-.34-1.31-.34-.25,0-.72-.2-.92-.37-.27-.23-.4-.22-.71-.26-.37-.04-.62-.41-1.04-.56-.45-.16-1.02-.26-1.3-.68-.03-.04-.16-.09-.23-.1-.93-.09-1.57-.83-2.42-1.09-2.26-1.41-4.74-2.43-6.96-3.89-.92-.6-1.74-1.36-2.71-1.84-2.04-1.04-3.79-2.54-5.55-3.99-.37-.3-.88-.57-1.02-1.06-.02-.07-.19-.21-.28-.25-.7-.29-1.15-.8-1.58-1.38-.1-.14-.35-.33-.47-.35-.33-.05-.55-.29-.79-.48-.28-.23-.6-.61-.82-.66-.5-.06-.59-.39-.89-.59-.18-.12-.42-.18-.63-.26-.1-.04-.26-.02-.31-.06-.56-.5-1.35-.45-1.98-.77-.14-.06-.29-.12-.43-.18-1.55-.75-1.57-.78-3.72-1.03-.54-.41-1.29-.05-1.91-.35-.23-.11-.68-.15-.98-.1-1.3,.2-2.62-.06-3.91,.11-.27,.03-.49-.17-.82,.03-.12,.07-.58-.08-.88-.03-.42,.07-.89,0-1.28,.27-.16,.1-.54,.13-.82,.2-.37,.1-.78,.1-1.12,.35-.19,.14-.65,.29-.91,.27-.53-.02-1.01,.08-1.43,.3-.43,.22-.82,.49-1.23,.71-.24,.14-.42,.23-.7,.32-.4,.11-.93,.27-1.17,.51-.43,.39-.91,.61-1.37,.92l-1.2,.75c-.38,.28-.78,.54-1.13,.85-.83,.68-1.71,1.33-2.38,2.22-.36,.47-.83,1.08-1.47,1.36-.07,.03-.12,.33-.23,.46-.89,1.02-1.71,2.1-2.44,3.23-.17,.26-.6,.4-.55,.76,.07,.38-.51,.44-.37,.8,.02,.05-.12,.3-.21,.41-.98,1.27-1.31,2.89-1.7,4.38-.08,.37-.07,.79-.33,1.06,.16,.95-.42,2.01,.11,2.91,.02,.68,.32,1.34,.23,2.04-.02,.11,.11,.32,.1,.45-.05,.45,.5,.54,.46,1.09-.02,.32,.24,.81,.45,1.18,.19,.36,.35,.72,.56,1.07l.73,1.13c.25,.37,.53,.73,.82,1.07,.28,.35,.63,.65,.97,.95,.34,.3,.64,.64,.97,.98,.07,.07,.21,.17,.27,.17,.49-.05,.67,.42,.83,.71,.14,.24,.28,.42,.51,.61,.59,.52,1.22,.99,1.84,1.49,.36,.3,.84,.49,1.07,.94,.07,.14,.39,.34,.6,.42,.97,.35,1.75,1.03,2.65,1.51,.41,.22,.8,.46,1.2,.7,.31,.17,.69,.2,.93,.5,1.64,.55,3.14,1.48,4.74,2.18,1.6,.67,3.18,1.37,4.8,2,.4,.16,.9,.23,1.17,.59,.05,.07,.35,.18,.45,.16,.29-.04,.49-.04,.69,.23,.04,.05,.28,.1,.41,.1,.37,.02,.66,.14,.98,.35,.25,.16,.6,.33,.89,.37,.76,.1,1.48,.22,2.12,.7,.08,.06,.38-.02,.53,.03,.61,.23,1.29,.29,1.85,.67,.23,.16,.63,.2,.94,.32,.54,.2,1.09,.21,1.65,.45,.56,.24,1.22,.35,1.84,.52l1.85,.47,1.86,.45,1.86,.42,1.87,.37,1.87,.33c.44,.07,.84,.16,1.27,.33,1.09,.43,2.48,.58,4.2,.55,.12,0,.25,.02,.38,.04,1.65,.18,3.31,.23,4.95,.38,.72,.05,1.44,.19,2.19,.2,.48,.01,.96,.03,1.44-.12,.4-.13,.97,.09,1.43-.14,.17-.09,.62-.08,.85-.01,.76,.21,1.55,.05,2.32,.04,.89,0,1.78-.06,2.67-.16,.44-.04,.88,0,1.31-.23,.21-.11,.74-.08,1.07-.04,.5,.07,.99-.02,1.45-.13,.98-.23,.97-.25,1.97-.23,.12,0,.25,0,.37-.03,1.21-.2,2.47-.31,3.63-.63,.96-.28,1.91-.51,2.87-.71,.38-.08,.8-.29,1.18-.11,.05,.02,.27-.02,.36-.08,.73-.47,1.63-.56,2.45-.78,.8-.23,1.48-.59,2.3-.81,.77-.19,1.53-.48,2.3-.72,1.16-.37,1.46-.31,1.68,.34,.18,.53-.08,.74-.99,1.16-.97,.44-1.98,.78-2.94,1.08-.98,.27-1.92,.47-2.74,.73Z"/>
        </g>
        <g class="cls-13">
          <g class="cls-13">
            <path class="cls-5" d="M195.74,210.76c-2.51,1.05-5.42,1.05-7.48,2.25-.22,.12-.46,.26-.71,.39l.4-.02c3.02-.14,6.29-.9,9.11-2.23,1.71-.93,3.23-2.24,5.1-3.19,.21-.1,.08-.39,.01-.54-.28-.07-.54-.18-.79-.29-1.37,.96-2.76,1.95-4.37,2.62-.54,.18-.94,.91-1.28,1.01Z"/>
            <polygon class="cls-7" points="201.47 207.12 201.42 207.1 201.21 207.25 201.47 207.12"/>
            <path class="cls-4" d="M197.99,209.38c-.48,.31-.99,.54-1.51,.72-.28,.27-.52,.59-.74,.65-2.51,1.05-5.42,1.05-7.48,2.25-.22,.12-.46,.25-.7,.39,.14,0,.28-.02,.43-.02,1.05-.05,2.12-.17,3.2-.37l.16-.09c.54-.35,1.14-.26,1.72-.4,1.55-.64,2.94-.9,4.44-1.68,.53-.29,.97-.85,1.61-1.13,.21-.11,.43-.19,.65-.27,.77-.53,1.56-1.05,2.44-1.49,.21-.1,.08-.39,.01-.54-.15-.04-.29-.09-.43-.14-.73,.36-1.4,.69-2.11,1.04-.59,.37-1.18,.74-1.81,1.05,.04,.01,.08,.02,.13,.03Z"/>
            <path class="cls-7" d="M197.74,208.97c-.09,.03-.11,.29,.12,.38,.63-.31,1.23-.68,1.81-1.05-.61,.27-1.24,.53-1.94,.67Z"/>
            <path class="cls-9" d="M197.39,207.92c-1.26,.4-2.31,1.23-3.43,1.32-.58,.06-1.19,0-1.74-.14-.17,.06-.34,.11-.51,.16-4.19,1.5-8.67,2.27-13.11,2.2-2.22,.04-4.27,.62-6.58,.99-1.37,.09-2.46-.3-3.79-.56-3.3-.73-6.25,.43-9.7,.64-.93,.06-1.13,1.31-.9,1.33,5.77-.17,11.19,.74,16.98,.27,4.48-.35,8.67-.54,12.95-.73,.25-.14,.49-.27,.71-.39,2.06-1.2,4.96-1.2,7.48-2.25,.33-.11,.73-.83,1.28-1.01,1.6-.67,3-1.66,4.37-2.62-.52-.24-.97-.52-1.43-.67-.79,.62-1.62,1.21-2.57,1.46Z"/>
            <path class="cls-6" d="M197.39,207.92c.94-.25,1.78-.84,2.57-1.46-.22-.07-.45-.11-.67-.1-2.42,.46-4.68,1.9-7.07,2.74,.55,.15,1.16,.2,1.74,.14,1.13-.09,2.17-.91,3.43-1.32Z"/>
            <path class="cls-4" d="M197.39,207.92c.9-.24,1.7-.79,2.46-1.38-.32,.08-.62,.19-.92,.32-1.51,.66-3.03,1.37-4.67,1.62,1.65-.57,3.28-1.24,4.8-2.09-2.33,.52-4.54,1.9-6.85,2.7,.55,.15,1.16,.2,1.74,.14,1.13-.09,2.17-.91,3.43-1.32Z"/>
            <path class="cls-3" d="M194.96,209.1c1.94-.53,3.85-1.26,5.53-2.46-.13-.06-.26-.12-.39-.16-.09,.02-.17,.04-.25,.06-.76,.59-1.56,1.13-2.46,1.38-1.26,.4-2.31,1.23-3.43,1.32-.58,.06-1.19,0-1.74-.14-.16,.05-.32,.1-.48,.15-2.14,.77-4.35,1.35-6.6,1.72-1.89,.71-4.08,.85-6.18,.72,.98-.06,1.96-.16,2.93-.33-1.08,.08-2.17,.11-3.26,.1-.94,.01-1.85,.13-2.76,.29-.18,.3-.47,.56-.98,.65-.8,.14-1.59,.11-2.41,.39-.11,0-.09-.24-.32-.25,.63,.03,1.15-.13,1.59-.39-.55,.11-1.12,.21-1.7,.3-1.08,.07-1.98-.16-2.96-.38l-.32,.02c-.53,.02-1.07,.14-1.62,.27,.22,.02,.44,.04,.67,.05-.36,.13-.81,.09-1.15,.06,.16-.04,.32-.08,.48-.12-.52-.05-1.03-.09-1.58-.14,.68,.06,1.37-.04,1.96-.15-1.25-.03-2.4,.03-3.61-.25l.1-.04c-1.76,.22-3.53,.63-5.44,.75-.93,.06-1.13,1.31-.9,1.33,4.03-.12,7.88,.29,11.82,.38-.45-.18-.89-.36-1.33-.54-.19-.05-.38-.11-.55-.21,.18,.07,.37,.14,.55,.21,.53,.13,1.11,.12,1.68,.27,.11,.09,.45,.11,.59-.12,.78,.2,1.72,.02,2.5,.21,.05,0,.13,.07,.22,.15,.49-.03,.99-.06,1.5-.1,2.8-.22,5.49-.37,8.16-.51-.65-.07-1.29-.17-1.87-.34-.79-.27-2.39,.17-3.77,.33-.35,.08-.56-.16-.9-.16,1.18-.7,2.74-.32,4.11-.53,1.81-.22,4.45,.04,6.32-.79,.77-.34,1.57-.24,2.28-.11-.2,.2-.66,.27-.89,.31-2.04,.32-4.08,.54-6.12,.83,2.17,.1,4.21-.36,6.4-.39-1.25,.29-2.52,.12-3.65,.64,.11,.04,.22,.08,.33,.11,.82-.04,1.66-.08,2.53-.11,.25-.14,.48-.27,.7-.39,2.06-1.2,4.96-1.2,7.48-2.25,.21-.07,.45-.39,.74-.65-.81,.3-1.65,.49-2.47,.76,.35-.03,.7-.04,1.05,.02-.76,.32-1.5,.18-2.26,.47,.4-.19,.8-.36,1.21-.49-.53,.05-1.06,.18-1.61,.26,.93-.55,2.06-.22,2.93-.97-.21,.08-.43,.14-.65,.19l.66-.2s0,0-.01,0c.64-.25,1.23-.63,1.74-1.01-1.09,.47-2.19,.52-3.27,.9-.17,.07-.35,.14-.53,.21,.18-.08,.35-.15,.53-.21,2.44-.96,5.01-1.63,7.41-2.79l.21-.15-.34-.16c-1.95,.98-4.04,1.72-6.12,2.16Z"/>
          </g>
        </g>
        <g class="cls-13">
          <g class="cls-13">
            <path class="cls-5" d="M148.85,210.98c-1.04-.38-1.82-1.56-2.99-1.23-.13,.03-.26,.06-.39,.1l.13,.12c.96,.89,2.09,1.57,3.29,1.96,.79,.13,1.75,.01,2.46,.51,.08,.05,.24-.22,.32-.35,.02-.22,.06-.44,.11-.67-.71-.19-1.46-.27-2.12-.59-.21-.13-.67,.22-.8,.15Z"/>
            <polygon class="cls-7" points="151.77 211.47 151.78 211.42 151.68 211.39 151.77 211.47"/>
            <path class="cls-4" d="M150.01,211.07c-.25-.03-.47-.11-.67-.23-.2,.06-.42,.19-.5,.14-1.04-.38-1.82-1.56-2.99-1.23-.13,.03-.25,.06-.38,.1l.14,.12c.33,.31,.68,.59,1.05,.84l.08-.02c.31-.09,.41,.24,.62,.37,.68,.13,1.09,.58,1.77,.73,.24,.06,.63-.15,.87,0,.09,.04,.17,.09,.24,.16,.4,.05,.78,.15,1.11,.38,.08,.05,.24-.21,.32-.35,.01-.11,.03-.23,.05-.35-.26-.21-.56-.36-.85-.54-.3-.06-.59-.14-.87-.23,0,.03,0,.06,0,.09Z"/>
            <path class="cls-7" d="M150.2,210.63s-.18,.16-.2,.35c.28,.1,.58,.17,.87,.23-.24-.15-.48-.32-.68-.58Z"/>
            <path class="cls-9" d="M150.74,209.67c-.47-.4-1.15-.27-1.47-.74-.17-.23-.3-.54-.38-.92-.08-.03-.15-.06-.23-.09-1.96-.6-3.84-1.25-5.61-2.25-.92-.43-1.98-.2-3.06-.12-.61-.07-.98-.54-1.52-.9-1.34-.96-2.89,.12-4.39,.38-.41,.07-.58,1.32-.49,1.34,2.45-.28,4.58,.77,6.98,1.12,1.87,.31,3.51,1.11,4.88,2.35,.13-.04,.26-.07,.39-.1,1.18-.34,1.95,.84,2.99,1.23,.12,.08,.59-.28,.8-.15,.66,.31,1.41,.4,2.12,.59,.09-.47,.21-.94,.24-1.32-.48-.05-.95-.11-1.27-.43Z"/>
            <path class="cls-6" d="M150.74,209.67c.32,.32,.79,.38,1.27,.43,.01-.18,0-.34-.04-.47-.64-1.14-2-1.24-3.08-1.62,.07,.37,.2,.69,.38,.92,.31,.47,1,.34,1.47,.74Z"/>
            <path class="cls-4" d="M150.74,209.67c.31,.31,.74,.38,1.2,.43-.09-.13-.2-.24-.33-.32-.63-.42-1.33-.69-1.87-1.29,.71,.36,1.42,.74,2.17,1.05-.67-1.04-1.98-1.14-3.02-1.52,.07,.37,.2,.69,.38,.91,.31,.47,1,.34,1.47,.74Z"/>
            <path class="cls-3" d="M149.58,209.31c.73,.54,1.47,1.03,2.38,1.25,.02-.12,.04-.24,.05-.35-.03-.04-.05-.07-.07-.11-.46-.05-.9-.12-1.2-.43-.47-.4-1.15-.27-1.47-.74-.17-.23-.3-.54-.38-.91-.07-.03-.15-.06-.22-.09-1-.31-1.98-.63-2.93-1-.97,.03-1.83-.4-2.63-.97,.41,.16,.83,.29,1.27,.39-.45-.21-.89-.43-1.32-.67-.39-.18-.81-.24-1.24-.25-.17,.25-.37,.45-.61,.46-.37,.01-.7-.12-1.12,.05-.05-.02,.03-.24-.07-.28,.26,.1,.52,.01,.78-.17-.27,.03-.55,.05-.81,.08-.48-.06-.81-.36-1.19-.66-.05,0-.1,0-.14,0-.24-.02-.5,.06-.77,.15,.09,.03,.19,.06,.28,.1-.18,.1-.37,.04-.52,0,.08-.03,.16-.06,.23-.09-.22-.07-.44-.14-.67-.22,.29,.09,.61,.03,.89-.04-.55-.1-1.07-.1-1.57-.41l.05-.03c-.83,.16-1.66,.56-2.5,.7-.41,.07-.58,1.32-.49,1.34,1.7-.2,3.28,.26,4.86,.67-.14-.21-.28-.42-.43-.62-.07-.06-.14-.13-.19-.24,.06,.08,.12,.16,.19,.24,.19,.16,.44,.19,.64,.39,.02,.09,.16,.14,.27-.06,.27,.27,.7,.19,.97,.47,.02,0,.03,.08,.04,.17,.2,.04,.41,.08,.62,.11,1.17,.19,2.25,.58,3.23,1.15-.2-.24-.38-.48-.54-.77-.19-.44-.96-.38-1.54-.47-.16,.01-.17-.25-.3-.31,.69-.47,1.19,.19,1.77,.3,.77,.2,1.58,1.14,2.54,1.04,.4-.05,.61,.33,.76,.69-.15,.09-.32,0-.41-.05-.77-.43-1.55-.84-2.4-1.09,.74,.63,1.61,.83,2.28,1.56-.5-.19-.84-.73-1.43-.59,.02,.07,.04,.14,.06,.2,.29,.21,.57,.44,.84,.68,.13-.04,.26-.07,.38-.1,1.18-.34,1.95,.84,2.99,1.23,.08,.05,.29-.08,.5-.14-.31-.18-.59-.43-.92-.58,.1,.13,.18,.29,.22,.5-.32-.11-.43-.54-.76-.64,.2,.01,.37,.06,.54,.14-.15-.2-.34-.34-.52-.5,.52-.05,.61,.73,1.19,.55-.09-.04-.17-.09-.24-.16l.25,.16h0c.27,.12,.59,.12,.9,.1-.46-.21-.73-.71-1.19-.91-.08-.02-.15-.05-.24-.07,.09,.01,.17,.04,.24,.07,1.1,.36,1.95,1.22,2.87,1.9l.11,.03,.06-.32c-.79-.53-1.55-1.14-2.27-1.8Z"/>
          </g>
        </g>
      </g>
      <g>
        <g class="cls-12">
          <path class="cls-11" d="M6.06,63.43c.8-1.16,3.4-.37,8.06,.7,17.53,4.04,27.65,6.38,37.2,4.18,9.06-2.09,10.04-6.53,21.3-8.03,6.18-.82,10.2-.06,13.49,1.75,2.99,1.65,4.6,3.74,6.83,6.66,3.38,4.41,8.11,10.57,6.35,15.65-.95,2.72-3.57,4.57-8.46,6.42-10.44,3.96-21.47,4.27-35.54,2.28-13.8-1.95-20.69-2.93-28.38-7.19-12.79-7.09-22.81-19.6-20.84-22.42Z"/>
          <path class="cls-11" d="M11.65,61.66c1.59,.37,2.82,.73,4.14,.89,.2,.02,.54-.43,.79-.37,.99,.27,2.12,.02,2.95,.82,.9,.88,1.94,1.19,3.03,1,1.04-.17,1.94,.15,2.91,.23,.32,.03,.66-.01,.88,.64,.16,.48,.61,.62,1.11-.06,.1-.13,.21,.05,.3,.14,.1,.1,.16,.45,.27,.36,1.15-.95,1.93,.09,2.92,0,.24-.03,.44,.36,.77-.37,.09-.19,.32-.18,.35,.01,.09,.51,.26,.63,.48,.67l2.87,.45c.61-.93,1.07-.41,1.56-.35,.37,.05,.7,.45,1.05,.69,.36,.24,.82-.37,1.1,.55,.04,.15,.21-.11,.32-.11,.48-.02,.99-.31,1.41,.04,.22,.18,.44,.36,.67,.38,2.95,.17,5.88,0,8.71-.62,.24-.05,.51,.02,.64-.61,.09-.5,.5-.63,.81-.23,.5,.64,.72,.27,1.02,.21,.56-.1,1.07-.37,1.62-.51,.34-.08,.48-.67,1.15,.13,.07,.08,.17,.03,.16-.07-.06-1.05,.61-.44,1.02-.51,.29-.04,.54-.18,.59-.75,.04-.56,.44-.86,.92-.55,.66,.41,.85,.04,1.17-.13,1.85-1,3.81-2.05,5.87-2.88,.96-.38,1.71-1.55,2.85-1.47,.26,.01,.45-.42,.83,.23,.08,.13,.25,0,.29-.18,.15-.68,.49-.5,.81-.54,1.49-.13,2.98,.02,4.37-.69,1.1-.56,2.25-.41,3.4-.53,.39-.04,.77,.46,1.14,.58,.37,.13,.75,.1,1.14,.11,.23,0,.43,.23,.73-.3,.17-.28,.52-.31,.61-.04,.31,.9,.83,.68,1.29,.81,1.29,.37,2.61,.78,3.79,1.45,.28,.16,.83-.02,.64,.89-.03,.12,.28-.03,.43-.03,.15,0,.43-.14,.44,.02,.11,1.41,1.16,1.41,1.8,2.04,1.49,1.5,2.84,3.01,3.92,4.65,.3,.46,1.18,.39,1.47,.84,.28,.44,.66,.8,.92,1.27,.18,.32,.74,.41,.21,1.21-.14,.22,.02,.43,.27,.39,.96-.16,.85,.48,1.2,.77,.43,.38,.27,1.12,1.33,1.12,.29,0,.02,.5,.09,.71,.14,.37,.29,.74,.52,1.06,.11,.15,.49,.17,.6,.34,.86,1.24,1.71,2.62,2.13,4.32,.43,1.71,.35,3.76-.34,5.65-.65,1.92-1.99,3.6-3.43,4.58-.52,.38-.74,1.35-1.86,.63-.09,.91-.76,.78-1.54,.26-.11-.07-.1,.31-.16,.46-.19,.44-.02,1.72-.95,.69-.03-.04-.06,.04-.1,.03-.39-.03-.08,1.3-.8,.72-.44-.36-.76,0-1.11,.09-.36,.1-.73,.17-1.03,.4-.32,.24-.91-.21-.92,.85,0,.17-.49-.39-.63-.3-.74,.48-1.81-.12-2.29,1.24-.11,.31-.42,.36-.68,.18-.93-.63-1.47-.04-2.14,.43-.87,.64-1.92,.99-3.07-.07-.24-.22-.36-.41-.5,.05-.09,.31-.33,.27-.52,.3-2.11,.35-4.24,.51-6.36,.63-.58,.02-1.15-.91-1.72-.53-.24,.15-.53-.33-.72,.48-.03,.11-.13,.18-.17,.12-.71-.93-1.41,.42-2.12,0-.15-.09-.29-.27-.44-.37-.15-.1-.32-.34-.45-.21-1.11,1.14-2.19,.2-3.29,.44-.38,.07-.74-.48-1.14,.48-.06,.14-.22,.12-.29-.02-.55-1.22-1.31-.37-1.93-.74-.32-.19-.76,.42-.96-.58-.03-.13-.17-.04-.26,.02-.16,.1-.33,.41-.47,.38-.38-.09-.74-.68-1.12-.4-.46,.35-.84,.14-1.25,.12-.23-.01-.41-.48-.63-.62-.21-.13-.45-.08-.67-.11-.32-.04-.68,.08-.95-.17-.29-.26-.68,.71-.92-.02-.19-.56-.62,.33-.93,.39-.15,.03-.3-.1-.43-.23-.1-.1-.16-.43-.27-.42-.25,.02-.45-.19-.76,.2-.22,.27-.45-.32-.7-.42-.24-.1-.51-.09-.76-.12-.25-.04-.5-.27-.76-.08-1.16,.86-2.11,.09-3.16,.06-.27,0-.63,.29-.72-.6-.02-.16-.17-.19-.26-.11-1.17,1.03-2.04-.08-3.09,.07-.75,.12-1.55,.44-2.26,.18-.69-.24-1.38-.64-2.16-.38-.64,.21-1.29,.37-1.79,.01-.48-.35-1.49,1.17-1.63-.39-.56-.16-1.14-.3-1.68-.53-.45-.2-1.06-.02-1.23-.98-.06-.35-.38-.44-.66-.25-.89,.61-1.38,.17-1.77-.51-.09-.16-.43,.16-.6,.11-.5-.16-1.01-.32-1.42-.66-1.22-.99-3.02-.85-4.34-1.62-.24-.14-.87,.28-.99,0-.7-1.73-2.6-1.63-3.45-3.04-1.21-2.05-3.31-2.85-4.82-4.45-.2-.21,.07-.95-.17-.88-.74,.21-.72-.52-1.31-.39-1.06,.22-1.11-.65-1.71-.92-.44-.2-.36-.96-1.37-.56-.15,.06-.24-.07-.22-.21,.21-1.14-1.26-.66-1.39-1.47-1.72-.2-2-1.75-3.02-2.67-.15-.14-.47-.15-.7-.23-.12-.04-.31-.05-.3-.17,.23-1.72-1.27-2.29-1.7-3.77-.13-.48-.05-1.07-.15-1.6-.09-.52-.59-1.03-.03-1.81,.18-.26-.02-.57-.17-.88-.18-.45-.24-.86-.09-1.4,.07-.26,.16-.44,.32-.69,.16-.25,.35-.45,.56-.61,.4-.29,1-.51,1.52-.42,.54,.06,1.05,.33,1.57,.69,.75,.53,.73,.7,1.02,.89,.6,.38,1.03,.35,.99,.6-.02,.18-.22,.56,.69,.47,.15-.02,.15,.09,.07,.19-.58,.7,.25,.95,0,1.62-.18,.53,.1,.79,.16,1.19,.05,.34,.61,.35,.14,1.07-.16,.24,.59,.11,.75,.26,.37,.38,.73,.77,.96,1.25,.73,1.5,2.77,1.81,3.63,3.16,1.59,.01,1.72,1.56,2.94,1.92,1.46,.42,2.24,1.57,3.49,2.18,.26,.12,.41,.29,.43,.66,.01,.25,.02,.51,.15,.62,.48,.44,1.07,.73,1.53,1.2,.25,.24,.9,0,.54,1.05-.05,.15,.09,.23,.22,.16,1.08-.57,1.21,.32,1.79,.53,.22,.08,.38,.23,.38,.69,0,.49,.4,.68,.83,.49,.33-.14,.49-.05,.71-.03,.89,.1,1.13,1.47,2.44,.7-.15,1.21,.51,1.1,1,1.04,1.9-.26,3.08,1.03,4.71,1.35,.39,.07,.62,.65,.98,.86,.38,.22,.81,.29,1.23,.35,.23,.03,.39,.47,.77-.29,.03-.06,.08-.09,.1-.07,.2,.19,.37,.55,.62,.55,.22,0,.54-.5,.79-.59,.29-.12,.56-.07,.83-.03,.26,.04,.56-.09,.62,.68,.39-.86,.59-.35,.86-.37,.25-.02,.49,.08,.73,.13l.82,.15c.28,.05,.54,.17,.83,.13,.4-.06,.82-.32,1.22-.35,.42-.03,.82,.04,1.2,.2,.49,.2,.94,.55,1.43,.79,.2,.1,.41-.1,.66-.39,.34-.38,.82-1.27,.99,.01,.03,.25,.29,.22,.45,.08,1.27-1.11,2.25,.11,3.41-.08,.48,1.03,1.15,.53,1.83,.36,.99-.25,1.94-.28,2.77,.39,.87,.7,1.83,.47,2.74,.79,.25,.09,.57-.24,.71,.63,.03,.2,.24,.16,.36,.04,.84-.81,1.54-.5,2.27,.12,.39,.33,.87,0,1.34-.29,.7-.46,1.4-.06,2.11-.03,.27,1.06,.54,0,.71-.46,.22-.6,.41-.71,.66-.72,.31-.01,.62,.19,.93-.49,.16-.35,.5-.27,.67,.09,.23,.49,.31,.26,.51-.06,.24-.38,.5,.59,.81,.54,.33-.06,.68-.61,1.02,.48,.03,.1,.13,.08,.17,0,.55-1.14,1.24,.45,1.82-.09,1.92,1.13,3.64-.15,5.48-.02,.76,.04,1.68,.71,2.3,.05,1.28-1.33,2.93-1.04,4.35-1.69,.3-.13,.49-.72,1.12,.19,.09,.13,.23,.06,.24-.08,.13-1.09,.68-.94,1.37-.51,.17,.11,.37,0,.34-.26-.08-.75,.23-.57,.44-.63,.25-.07,.81,.37,.8-.03-.03-.85,.48-.12,.77-.1,.17,.02,.23-.24,.3-.41,.04-.08-.04-.41,.03-.36,.85,.58,.57-.78,1.08-.67,.12,.02,.17-.05,.3,0,.72,.22,1.09,.29,1.33,.18,.24-.11,.35-.44,.37-.97,.61,.28,.57,.05,.46-.16-.1-.22-.26-.41,.25-.33,.37,.05,.38-.19,.15-.39-.24-.22-.35-.36-.41-.5-.07-.15-.06-.27-.02-.4,.05-.12,.06-.28,.09-.42,.02-.14,.02-.29-.1-.44-.08-.11,.76-.35,.04-.41-.26,0,.42-.4,.36-.56-.08-.22,.29-.63-.6-.61-.36,.01-.15-.28-.29-.42-.18-.18,.03-.53-.7-.48-.4,.03-.54-.23-.3-.51,.5-.58,.37-.9,.04-1.08-.32-.18-.85-.24-1.23-.38-.22-.09-.4-.13-.32-.41,.1-.39,.22-.93-.24-.89-.82,.08-.79-.4-1.04-.69-.45-.5-.74-1.14-1.24-1.64-.57-.57-.78-1.43-1.85-1.68-.57-.13-1.2-.38-.58-1.45,.07-.12-.55,.13-.63,.04-.64-.72-1.21-1.36-1.68-1.94-.1-.14,.53-1.09-.2-.53-.76,.62,.36-.94-.5-.14-.12,.12-.22,.02-.21-.12,.1-1.49-1.25-1.19-1.88-1.81-.17-.17-.56,.19-.36-.79-.46,.41-.62,.04-.85-.23-.22-.29-.51-.48-.97,.3-.35-.37-.91,.45-1.15-.75-.04-.19-.23,.07-.28-.11-.21-.61-.54,1.14-.78,.2-.15-.55-.54-.25-.82-.29-.26-.04-.54-.01-.81-.02l-.91,.02c-.31,.01-.62-.03-.92,.07-.62,.22-1.15,.99-1.82,.79-.07-.02-.17,.12-.18,.31,0,1.53-.42,.74-.7,.34-.23-.34-.42-.48-.61-.45-.54,.09-1.02,.28-1.56,.29-.33,0-.51,.55-1.03-.29-.16-.26-.39-.13-.47,.11-.36,1.11-1.12,.77-1.68,1.12-.24,.17-.52,.24-.8,.32-.21,.07-.15,.75-.6,.28-.46,1.55-1.77,1.35-2.86,2.14-1.06,.76-2.39,1.43-3.81,2.04-.36,.15-.57,.77-1.29-.01-.14-.15-.38-.02-.38,.19,0,.59-.07,.92-.57,.33-.09-.11-.23,.11-.29,.29-.16,.49-.45,.56-.89,.3-.34-.19-.71-.25-.89,.03-.47,.76-.98,1.37-1.89,.52-.11-.11-.17,.61-.32,.61-.58,0-1.06,.64-1.76-.04-.28-.28-.57,.03-.87-.02-.5-.09-.89,.53-1.45,.29-.55-.25-1.08,.03-1.63,.08-.54,.06-1.08,.08-1.62,.09-.54,.01-1.08,.05-1.61,.04l-1.59-.02c-.53-.01-1.05-.05-1.57-.08-.53-.02-1.05-.05-1.56-.12-.36-.04-.68-.19-1-.62-.81-1.1-1.89-1.1-3.33-.49-.1,.04-.2-.02-.3-.04-1.29-.18-2.6-.22-3.82-.72-.53-.22-.99-.78-1.57-.81-.38-.02-.7-.24-1.19,.31-.41,.46-.65-.52-1.19,.33-.2,.31-.54,.22-.65-.09-.38-1.03-1.07-.68-1.63-.88-.64-.23-1.32-.35-1.99-.43-.33-.04-.59-.42-1.09,.26-.25,.34-.58,0-.75-.38-.26-.57-.65-.56-1.04-.43-.84,.28-.85,.36-1.46-.37-.07-.09-.17-.11-.26-.13-.91-.21-1.75-.78-2.74-.52-.83,.22-1.54,.09-2.29-.07-.3-.06-.74,.3-.75-.73,0-.15-.17-.17-.27-.07-.85,.92-1.36,.2-1.95,.09-.57-.11-1.24,.66-1.61,.38-.1-.07-.17-.1-.24-.13-.09-.03-.14-.03-.17-.02-.01,0-.05,0-.04,.01,0,0,0,.02,0-.01v-.28s0-.57,0-.57l-.04-.57v-.42c-.03-.27-.07-.55-.13-.82-.03-.3-.09-.55-.18-.78-.03-.14-.08-.26-.14-.37-.06-.09-.04-.09-.08-.14-.02-.03-.06-.07-.04-.05,.03,.02,.03,.02,.03,.02,0,0,0,0,0,0-.19-.13-.35-.26-.49-.37-.28-.24-.47-.46-.56-.7-.19-.47,.09-1,.63-1.35,1.16-.74,2.13-.59,2.92-.45,.8,.17,1.49,.44,2.16,.44Z"/>
        </g>
        <g>
          <path class="cls-10" d="M11.1,41.81c.8-1.16,3.4-.37,8.06,.7,17.53,4.04,27.65,6.38,37.2,4.18,9.06-2.09,10.04-6.53,21.3-8.03,6.18-.82,10.2-.06,13.49,1.75,2.99,1.65,4.6,3.74,6.83,6.66,3.38,4.41,8.11,10.57,6.35,15.65-.95,2.72-3.57,4.57-8.46,6.42-10.44,3.96-21.47,4.27-35.54,2.28-13.8-1.95-20.69-2.93-28.38-7.19-12.79-7.09-22.81-19.6-20.84-22.42Z"/>
          <path class="cls-10" d="M16.38,41.39c1.57,.37,2.84,.68,4.13,.94,.2,.04,.45-.04,.7,.02,1,.24,2.05,.35,2.98,.72,1.01,.4,2.06,.65,3.09,.78,.97,.12,1.91,.35,2.85,.52,.32,.06,.64,.1,.95,.32,.23,.16,.69,.26,1.07,.15,.07-.02,.21,.04,.31,.08,.11,.04,.23,.15,.31,.14,.99-.09,1.91,.3,2.87,.42,.24,.03,.48,.16,.71,0,.06-.04,.29,0,.35,.05,.16,.15,.34,.21,.56,.24,.97,.17,1.95,.32,2.92,.47,.51-.17,1.03,0,1.54,.07,.38,.05,.75,.18,1.13,.28,.38,.09,.81-.04,1.17,.22,.06,.04,.21-.01,.32,0,.49,.03,1-.01,1.45,.09,.23,.06,.47,.11,.7,.12,3.04,.16,6.09-.02,9.05-.65,.26-.05,.51-.07,.75-.28,.18-.17,.64-.29,.87-.23,.38,.09,.67-.05,.97-.15,.57-.17,1.14-.36,1.7-.57,.34-.12,.65-.37,1.04-.27,.04,.01,.14-.04,.17-.07,.26-.39,.7-.35,1.06-.5,.27-.11,.53-.24,.75-.49,.21-.25,.65-.51,.96-.53,.41-.04,.69-.26,1-.43,1.84-1.04,3.72-2.07,5.73-2.82,.94-.35,1.84-.86,2.86-1.03,.24-.05,.48-.2,.73-.07,.05,.03,.24-.03,.3-.09,.24-.21,.52-.21,.83-.27,1.41-.22,2.84-.35,4.22-.6,1.08-.2,2.16-.21,3.24-.22,.36,0,.73,.13,1.09,.18,.35,.06,.72,.06,1.07,.1,.21,.02,.42,.1,.65-.02,.12-.06,.44-.03,.55,.05,.38,.28,.83,.29,1.26,.4,1.21,.32,2.4,.73,3.51,1.32,.27,.14,.63,.21,.75,.55,.02,.05,.21,.07,.31,.11,.11,.04,.27,.07,.33,.14,.52,.67,1.28,1.05,1.89,1.61,1.46,1.36,2.69,2.91,3.85,4.48,.32,.44,.76,.71,1.08,1.14,.3,.42,.63,.81,.92,1.24,.21,.3,.52,.55,.53,.96,0,.11,.16,.32,.27,.38,.41,.21,.57,.65,.84,.98,.31,.42,.5,.94,.96,1.27,.13,.09,.16,.39,.26,.57,.17,.33,.33,.67,.52,.99,.09,.15,.24,.27,.33,.43,.66,1.22,1.25,2.51,1.54,3.94,.3,1.44,.27,3.02-.26,4.47-.5,1.46-1.53,2.71-2.69,3.59-.43,.34-.84,.82-1.42,.82-.33,.41-.77,.54-1.24,.55-.07,0-.16,.15-.25,.23-.28,.22-.46,.66-.96,.52-.02,0-.06,.03-.09,.04-.32,.09-.39,.49-.85,.46-.29-.02-.65,.19-.98,.3-.33,.12-.68,.23-1,.38-.33,.15-.76,.14-1,.49-.04,.06-.35-.02-.5,.04-.76,.29-1.62,.35-2.31,.84-.16,.11-.44,.18-.65,.17-.73-.02-1.34,.25-2.03,.48-.9,.33-1.91,.54-2.87,.4-.21-.03-.3-.06-.48,.07-.12,.09-.35,.11-.53,.13-2.05,.33-4.11,.49-6.17,.61-.56,.02-1.09-.2-1.67-.08-.24,.04-.52-.08-.71,.12-.03,.03-.13,.05-.17,.03-.69-.23-1.38,.12-2.07,0-.15-.02-.29-.07-.43-.1-.15-.03-.32-.09-.45-.06-1.06,.28-2.14-.02-3.21,.01-.36,0-.75-.16-1.09,.06-.05,.03-.21,.02-.28-.02-.6-.34-1.3-.16-1.93-.3-.33-.07-.71,.06-.98-.21-.03-.03-.17-.02-.25-.01-.15,.02-.29,.09-.43,.06-.38-.06-.78-.24-1.12-.2-.43,.05-.81-.03-1.21-.07-.23-.02-.44-.17-.67-.22-.21-.05-.44-.06-.67-.09-.32-.04-.66-.04-.95-.14-.31-.1-.59,.12-.91-.1-.24-.17-.58,.02-.88,0-.15,0-.3-.06-.45-.1-.11-.04-.21-.13-.31-.14-.24-.02-.46-.1-.73-.03-.19,.05-.48-.13-.73-.19-.25-.05-.51-.08-.76-.11s-.52-.12-.76-.1c-1.05,.1-2.06-.2-3.08-.33-.26-.03-.58,0-.77-.24-.03-.04-.18-.07-.26-.06-1.02,.14-1.99-.26-2.99-.36-.71-.06-1.42-.08-2.13-.25-.69-.16-1.39-.38-2.08-.42-.57-.04-1.13-.1-1.65-.29-.51-.19-1.13,.08-1.55-.41-.53-.15-1.06-.31-1.59-.49-.44-.16-.92-.23-1.28-.58-.13-.13-.43-.23-.62-.23-.62,0-1.14-.26-1.63-.61-.12-.08-.32-.05-.47-.11-.46-.18-.91-.37-1.33-.62-1.27-.71-2.64-1.18-3.88-1.92-.23-.14-.57-.14-.75-.3-1.07-.99-2.45-1.57-3.51-2.53-1.55-1.41-3.29-2.58-4.82-3.99-.2-.18-.29-.51-.42-.55-.4-.15-.65-.55-.98-.69-.59-.25-.92-.77-1.38-1.14-.34-.27-.56-.71-1.02-.81-.07-.02-.17-.13-.2-.2-.27-.62-.96-.84-1.3-1.39-1.02-.7-1.68-1.78-2.47-2.72-.12-.14-.27-.24-.41-.37-.07-.06-.16-.13-.19-.2-.42-1.08-1.26-1.93-1.75-3.02-.16-.36-.26-.74-.38-1.13-.13-.38-.35-.77-.28-1.22,.03-.14-.06-.37-.12-.56-.14-.52-.07-1.09,.22-1.45,.28-.36,.66-.41,.9-.23,.19,.13,.12,.29,.14,.46,.07,.35,.18,.6,.21,.98,.04,.29,.06,.64,.36,.83,.05,.03,.08,.16,.09,.24,0,.57,.43,1.06,.56,1.58,.11,.4,.32,.71,.5,1.06,.15,.29,.42,.51,.45,.89,0,.13,.33,.3,.47,.47,.33,.42,.67,.85,.98,1.29,.95,1.34,2.28,2.32,3.35,3.55,1.01,.64,1.7,1.65,2.66,2.34,1.15,.82,2.15,1.8,3.29,2.61,.23,.17,.41,.32,.57,.53,.1,.14,.21,.29,.35,.39,.52,.42,1.07,.79,1.6,1.2,.28,.22,.69,.33,.8,.73,.02,.05,.15,.15,.23,.16,.64,.1,1.07,.6,1.6,.89,.2,.11,.39,.24,.55,.46,.18,.23,.55,.45,.85,.51,.22,.05,.39,.15,.58,.23,.78,.35,1.44,1.02,2.33,1.12,.26,.46,.8,.6,1.23,.74,1.65,.49,3.16,1.29,4.81,1.78,.4,.11,.76,.35,1.15,.5,.42,.15,.85,.25,1.28,.36,.23,.06,.47,.22,.7,.06,.02-.01,.06-.01,.08,0,.24,.09,.47,.23,.71,.27,.22,.04,.45-.04,.68-.03,.27,.01,.55,.07,.82,.13,.26,.05,.55,.07,.72,.29,.25-.18,.53-.01,.8,.02,.25,.03,.5,.09,.75,.14l.84,.16c.28,.05,.56,.12,.85,.15,.39,.04,.78,.02,1.17,.06,.41,.04,.82,.11,1.22,.2,.51,.11,1,.26,1.51,.38,.21,.05,.4,.02,.62-.03,.29-.06,.67-.25,.98,.11,.06,.07,.31,.09,.46,.07,1.14-.15,2.24,.27,3.36,.34,.58,.32,1.19,.26,1.84,.29,.95,.04,1.93,.12,2.82,.38,.95,.26,1.9,.29,2.85,.45,.27,.04,.56-.02,.77,.21,.05,.05,.25,.06,.37,.04,.79-.14,1.54-.02,2.32,.18,.41,.1,.89,.05,1.35,0,.7-.09,1.45,.04,2.17,.07,.31,.27,.56,0,.72-.1,.22-.15,.42-.17,.67-.17,.33,0,.65,.06,.98-.11,.17-.09,.53-.07,.71,.02,.24,.12,.33,.06,.55-.02,.26-.1,.53,.14,.85,.13,.35-.03,.74-.17,1.06,.09,.03,.02,.13,.02,.18,0,.63-.3,1.29,.07,1.92-.11,1.94,.19,3.84-.32,5.74-.53,.78-.1,1.62-.03,2.35-.34,1.55-.59,3.17-.86,4.72-1.4,.33-.11,.67-.36,1.05-.21,.05,.02,.2-.04,.26-.09,.41-.41,.91-.49,1.45-.53,.13,0,.35-.1,.4-.19,.13-.25,.39-.28,.61-.36,.26-.1,.66-.11,.77-.26,.24-.32,.51-.21,.77-.29,.16-.05,.3-.18,.44-.28,.07-.05,.12-.17,.17-.17,.59-.05,.87-.6,1.35-.8,.1-.04,.19-.12,.3-.16,.58-.23,.86-.37,1.13-.59,.26-.22,.52-.51,.9-1.14,.52-.15,.33-.81,.72-1.09,.14-.11,.24-.41,.22-.63,0-.89,.23-1.76,.07-2.66-.04-.18,.15-.36-.05-.57-.07-.08,.03-.42-.02-.63-.07-.3-.05-.65-.35-.88-.12-.09-.13-.38-.23-.56-.13-.25-.16-.55-.43-.75-.14-.11-.31-.43-.31-.63,0-.83-.62-1.3-1.08-1.83-.14-.16-.24-.27-.31-.49-.1-.3-.25-.7-.46-.85-.38-.26-.56-.63-.8-.97-.43-.58-.83-1.19-1.28-1.75-.52-.65-.95-1.36-1.61-1.93-.35-.31-.78-.73-.86-1.28,0-.06-.26-.12-.34-.22-.65-.8-1.31-1.57-1.98-2.27-.15-.17-.14-.54-.45-.51-.32,.04-.19-.48-.52-.38-.05,.02-.2-.11-.26-.2-.7-.95-1.86-1.37-2.87-1.92-.24-.14-.58-.14-.7-.46-.74,0-1.35-.76-2.14-.5-.49-.18-1.06-.06-1.51-.41-.07-.06-.26,0-.35-.06-.3-.19-.54,.24-.9-.02-.21-.16-.64-.09-.96-.11-.31-.02-.62,0-.92-.01l-1.02,.02c-.34,.01-.68,.02-1.02,.06-.69,.1-1.34,.34-2.05,.36-.08,0-.2,.05-.22,.1-.18,.41-.56,.26-.81,.19-.21-.06-.39-.08-.6-.04-.59,.08-1.15,.24-1.73,.33-.35,.05-.67,.26-1.05,.12-.12-.04-.38,.04-.52,.14-.64,.42-1.39,.53-2.08,.82-.31,.14-.62,.25-.94,.37-.24,.1-.4,.35-.7,.32-1,.79-2.21,1.23-3.34,1.92-1.12,.68-2.31,1.33-3.55,1.91-.31,.14-.62,.4-1,.3-.07-.02-.29,.09-.35,.15-.13,.2-.25,.32-.53,.23-.05-.02-.21,.09-.29,.16-.23,.2-.47,.28-.78,.28-.24,0-.54,.05-.74,.17-.52,.33-1.05,.56-1.68,.47-.08-.01-.23,.2-.36,.23-.51,.08-.99,.31-1.53,.21-.22-.04-.51,.08-.77,.09-.44,.02-.84,.22-1.32,.21-.48-.01-.98,.08-1.48,.12-.49,.05-.99,.07-1.48,.09-.49,.01-.99,.05-1.48,.04l-1.48-.02c-.49-.01-.98-.05-1.47-.07-.49-.02-.98-.05-1.47-.11-.34-.03-.65-.09-.99-.22-.85-.34-1.9-.43-3.21-.42-.09,0-.19-.03-.29-.04-1.25-.18-2.5-.35-3.72-.63-.53-.13-1.05-.35-1.61-.43-.36-.06-.71-.16-1.1-.08-.32,.07-.7-.24-1.09-.08-.14,.06-.48-.02-.64-.12-.52-.34-1.13-.35-1.7-.49-.65-.16-1.32-.3-1.98-.43-.32-.06-.63-.21-1-.1-.18,.06-.56-.09-.78-.23-.34-.21-.71-.26-1.06-.29-.76-.06-.76-.03-1.46-.34-.08-.04-.18-.06-.27-.08-.91-.21-1.81-.51-2.72-.59-.76-.07-1.47-.23-2.2-.39-.29-.06-.65-.03-.84-.34-.03-.04-.19-.08-.27-.06-.67,.12-1.29-.17-1.91-.3-.6-.13-1.19-.03-1.76-.17-.52-.14-1.09-.13-1.4-.09-.04,.01-.08,.02-.12,.02-.01,0-.02,0-.04-.01,0,0-.12-.17-.09-.13-.03-.04-.26-.19-.53-.37-.23-.16-.34-.29-.32-.5,.03-.19,.25-.45,.66-.59,.87-.3,1.71-.16,2.46-.04,.76,.14,1.45,.33,2.08,.43Z"/>
        </g>
        <g class="cls-13">
          <g class="cls-13">
            <path class="cls-5" d="M86.91,85.03c1.48-.05,3-.03,4.48-.04,1.47-.08,2.89-.21,4.07-.8,.25-.12,.52-.25,.8-.38h-.44c-3.29,.07-6.79,.25-10.1,.4-.97,.12-2.08,.25-3.14,.39-1.07,.11-2.18,.1-3.32-.03-.25-.03-.32,.28-.35,.43,.21,.22,.38,.45,.54,.69,.96-.01,1.9-.03,2.86-.07,.95-.06,1.91-.1,2.88-.08,.64,.02,1.34-.52,1.72-.51Z"/>
            <polygon class="cls-7" points="79.37 85.64 79.4 85.69 79.69 85.68 79.37 85.64"/>
            <path class="cls-4" d="M84.03,85.45c.63-.07,1.25-.06,1.86-.06,.4-.15,.77-.37,1.01-.36,1.48-.05,3-.03,4.48-.04,1.47-.08,2.89-.21,4.07-.8,.25-.12,.52-.24,.79-.37h-.47c-1.14,.07-2.31,.05-3.48,.11l-.18,.07c-.63,.3-1.26,.05-1.89,.08-1.78,.31-3.28,.09-5.07,.28-.64,.03-1.32,.38-2.08,.32-.26,0-.51-.02-.75-.06-1,.08-2.04,.07-3.09-.06-.25-.03-.32,.28-.36,.43,.11,.11,.21,.23,.3,.36,.87,.13,1.74,.19,2.63,.29,.78-.03,1.56-.1,2.35-.1-.03-.03-.07-.06-.12-.08Z"/>
            <path class="cls-7" d="M84.09,85.93c.11,0,.25-.22,.06-.4-.79,0-1.57,.07-2.35,.1,.75,.07,1.51,.12,2.3,.29Z"/>
            <path class="cls-9" d="M83.94,87.03c1.57,.23,3.07-.28,4.36,0,.68,.1,1.36,.28,1.97,.55,.22-.02,.44-.04,.65-.06,5.34-.65,10.53-1.83,15.68-3.09,2.58-.69,4.68-2.12,6.98-3.52,1.39-.78,2.72-.96,4.2-1.53,3.78-1.3,5.97-4.3,8.78-7.03,.77-.73,.09-1.8-.12-1.65-2.37,2.2-5,3.97-7.72,5.55-2.75,1.53-5.59,2.86-8.51,4.25-4.57,2.08-9.29,3.17-13.96,3.31-.28,.13-.55,.26-.8,.38-1.18,.59-2.61,.72-4.07,.8-1.48,.01-3,0-4.48,.04-.38-.01-1.08,.53-1.72,.51-.97-.02-1.93,.02-2.88,.08-.95,.04-1.9,.05-2.86,.07,.33,.49,.61,.98,.98,1.36,1.2-.06,2.38-.19,3.52-.01Z"/>
            <path class="cls-6" d="M83.94,87.03c-1.14-.17-2.32-.05-3.52,.01,.18,.18,.39,.34,.64,.45,2.87,.9,6.21,.43,9.21,.09-.61-.27-1.29-.44-1.97-.55-1.3-.29-2.79,.23-4.36,0Z"/>
            <path class="cls-4" d="M83.94,87.03c-1.09-.17-2.21-.06-3.36,0,.38,.1,.76,.18,1.14,.22,1.98,.17,3.98,.15,5.95,.39-2.12,.05-4.24-.01-6.38-.07,2.82,.78,6.05,.33,8.96,0-.61-.27-1.28-.44-1.96-.55-1.3-.29-2.79,.23-4.36,0Z"/>
            <path class="cls-3" d="M87.13,86.85c-.6-.03-1.19-.05-1.77-.08-.6-.04-1.18-.07-1.77-.11-.59-.03-1.19-.03-1.78-.05-.6-.03-1.19-.04-1.8-.03,.09,.13,.18,.25,.29,.36,.1,.03,.2,.06,.29,.08,1.14-.06,2.27-.17,3.36,0,1.57,.23,3.07-.28,4.36,0,.68,.1,1.35,.28,1.96,.55,.21-.02,.41-.04,.61-.05,1.37-.13,2.71-.41,4.06-.59,1.34-.26,2.69-.48,4.01-.76,2.23-.86,4.73-1.36,7.17-1.86-1.11,.34-2.22,.68-3.35,1.03,.63-.14,1.26-.28,1.9-.43,.62-.16,1.25-.31,1.89-.47,1.09-.28,2.1-.72,3.07-1.22,.11-.35,.35-.71,.88-.99,.83-.45,1.68-.8,2.45-1.42,.12-.05,.19,.18,.44,.09-.69,.26-1.17,.64-1.56,1.08,.57-.35,1.14-.7,1.71-1.05,1.11-.59,2.14-.88,3.28-1.2l.32-.2c.53-.33,1.02-.75,1.5-1.19-.23,.11-.46,.23-.7,.35,.29-.32,.76-.56,1.12-.73-.14,.13-.28,.26-.42,.38,.55-.27,1.08-.53,1.64-.85-.68,.4-1.34,.87-1.87,1.32,1.29-.7,2.36-1.5,3.69-2.07l-.07,.09c1.56-1.36,2.92-2.92,4.5-4.45,.78-.73,.09-1.8-.12-1.65-3.3,3.1-7.1,5.31-11.03,7.29,.53-.05,1.04-.15,1.57-.25,.21-.07,.43-.12,.65-.13-.21,.04-.43,.09-.65,.13-.57,.2-1.15,.52-1.8,.67-.15-.02-.5,.13-.54,.41-.87,.22-1.74,.85-2.64,1-.05,.02-.16-.01-.28-.05-.5,.24-1,.48-1.51,.73-2.87,1.28-5.77,2.22-8.7,2.75,.73-.04,1.44-.05,2.12,0,.94,.13,2.62-.76,4.07-1.34,.35-.2,.65-.05,1.02-.17-1.06,1.13-2.92,1.19-4.39,1.76-1.01,.3-2.25,.52-3.51,.73-1.27,.17-2.53,.47-3.61,.85-.89,.34-1.81,.24-2.58,.07,.25-.17,.76-.25,1.02-.27,2.3-.27,4.61-.62,6.86-1.29-2.42,.31-4.7,.89-7.13,.85,1.39-.25,2.82-.09,4.04-.73-.12-.04-.24-.06-.36-.09-.92,.13-1.85,.17-2.77,.19-.28,.13-.54,.25-.79,.37-1.18,.59-2.61,.72-4.07,.8-1.48,.01-3,0-4.48,.04-.24,0-.61,.21-1.01,.36,.96,0,1.92,.11,2.88,.06-.39-.04-.76-.16-1.11-.32,.9-.04,1.65,.22,2.55,.13-.48,.1-.96,.16-1.44,.19,.58,.08,1.2,.08,1.82,.11-1.18,.35-2.29-.23-3.48,.18,.25,0,.51,0,.76,.02l-.78-.02h.02c-.78,.01-1.55,.2-2.26,.32,1.34,0,2.56,.3,3.89,.24,.22-.03,.43-.05,.65-.08-.22,.04-.44,.06-.65,.08-3.03,.23-6.08-.14-9.05-.62h-.29s.22,.33,.22,.33c1.25,.15,2.5,.34,3.76,.45,.62,.07,1.25,.15,1.88,.22,.62,.05,1.24,.11,1.87,.16Z"/>
          </g>
        </g>
      </g>
    </g>
  </g>
</svg>