<?xml version="1.0" encoding="UTF-8"?>
<svg id="_Слой_2" data-name="Слой 2" xmlns="http://www.w3.org/2000/svg" xmlns:xlink="http://www.w3.org/1999/xlink" viewBox="0 0 140.7 176.19">
  <defs>
    <style>
      .cls-1 {
        fill: none;
      }

      .cls-2 {
        clip-path: url(#clippath);
      }

      .cls-3 {
        fill: #f3f9fb;
      }

      .cls-4 {
        fill: #f7fbfc;
      }

      .cls-5 {
        fill: #f8fcfd;
      }

      .cls-6 {
        fill: #f4fafb;
      }

      .cls-7 {
        fill: #f5fafb;
      }

      .cls-8 {
        fill: #eab7c9;
      }

      .cls-9 {
        fill: #fbfdfe;
      }

      .cls-10 {
        fill: #e29fb4;
      }

      .cls-11 {
        fill: #6e7c6e;
      }

      .cls-12 {
        opacity: .49;
      }

      .cls-13 {
        opacity: .8;
      }
    </style>
    <clipPath id="clippath">
      <rect class="cls-1" width="140.7" height="176.19"/>
    </clipPath>
  </defs>
  <g id="_лепестки" data-name="лепестки">
    <g class="cls-2">
      <g>
        <g>
          <g class="cls-12">
            <path class="cls-11" d="M78.81,74.03c-8.18,11.76-25.46,16.8-43.28,12.61,5.87-16.71,16.39-30.81,26.82-44.76,2.91-3.89,5.91-7.85,10.47-10.16,4.57-2.3,11.1-2.63,16.76,.6,.99,.57,1.99,1.28,2.53,2.2,.57,.96,.56,1.97,.53,2.92-.25,8.54-.52,17.19-3.26,24.79s-8.26,14.13-16.81,16.32"/>
            <path class="cls-11" d="M77.14,78.89c-.49,.56-1.02,.97-1.49,1.39-.48,.41-.9,.85-1.33,1.27-.13,.13,.02,.66-.18,.8-.79,.52-1.28,1.57-2.4,1.52-1.21-.05-2.02,.45-2.67,1.22-.61,.75-1.44,1.08-2.21,1.54-.26,.15-.49,.37-1.02-.05-.39-.31-.79-.19-.8,.64,0,.16-.18,.07-.3,.04-.12-.03-.35-.29-.39-.16-.41,1.39-1.58,.83-2.32,1.37-.19,.14-.51-.11-.47,.69,0,.2-.19,.29-.31,.13-.3-.42-.49-.47-.69-.42-.87,.24-1.75,.49-2.64,.65-.23,1.07-.83,.72-1.29,.8-.35,.06-.76-.23-1.14-.36-.38-.12-.68,.53-1.13-.3-.07-.13-.17,.15-.27,.17-.43,.12-.86,.5-1.31,.21-.23-.15-.46-.29-.67-.27-2.75,.16-5.5,.22-8.24,0-.25-.02-.42-.15-.79,.41-.3,.43-.94,.41-1.09-.08-.23-.76-.64-.52-1-.62-.63-.18-1.36-.18-1.98-.36-.34-.1-1.18,.27-.77-.67,.04-.09-.07-.11-.19-.03-1.19,.78-.98-.03-1.24-.21-.21-.14-.5-.18-1.34,.14-.82,.31-1.54,.24-1.24-.21,.18-.28,.16-.41,.04-.48-.06-.03-.15-.05-.24-.06-.08-.02-.24,0-.22-.07l.02-.06c.84-2.11,1.61-4.13,2.38-6.16,.18-.48,.13-1,.17-1.56,.03-.54,.19-1.19,.51-1.47,.16-.16-.09-.53,.64-.4,.15,.03,.14-.16,0-.3-.48-.49-.16-.6-.02-.84,.67-1.05,1.55-2.01,1.56-3.36,.02-1.05,.64-1.78,.94-2.67,.1-.3,.68-.34,.92-.57,.24-.22,.35-.51,.46-.8,.07-.17,.33-.23-.07-.67-.22-.23-.16-.51,.1-.48,.9,.1,.81-.4,1.01-.71,.58-.89,1.07-1.84,1.66-2.72,.15-.21-.05-.68,.81-.42,.12,.04-.04-.24-.06-.36-.02-.13-.17-.37-.03-.37,1.33,.02,1.14-.94,1.57-1.51,1.01-1.37,1.8-2.88,2.88-4.2,.3-.37-.09-1.14,.21-1.49,.29-.34,.47-.76,.78-1.08,.22-.23,.08-.74,.98-.47,.25,.07,.37-.12,.23-.33-.52-.79,.08-.85,.18-1.22,.13-.46,.85-.52,.35-1.42-.14-.24,.4-.15,.54-.27,.24-.22,.45-.46,.6-.74,.07-.14-.11-.45-.04-.59,.51-1.08,.98-2.19,1.6-3.19,.63-1.02,1.4-1.94,2.11-2.89,.71-.96,1.36-1.96,2.16-2.84,.3-.33,.03-1.14,1.25-.74-.34-.76,.24-.79,1.11-.59,.12,.03-.07-.28-.09-.42-.07-.43-.87-1.41,.4-.87,.05,.02,.03-.05,.06-.06,.32-.11-.62-1.09,.24-.88,.54,.13,.59-.29,.82-.5,.24-.22,.47-.43,.59-.75,.13-.33,.82-.2,.27-1.08-.09-.15,.6,.13,.66,0,.32-.73,1.49-.64,1.18-2.01-.07-.32,.16-.49,.46-.44,1.07,.17,1.21-.56,1.56-1.25,.43-.91,1.22-1.66,2.64-1.09,.3,.13,.48,.26,.41-.22-.04-.31,.18-.38,.34-.46,1.75-1,3.71-1.73,5.67-2.11,.55-.12,1.18,.76,1.67,.34,.21-.18,.51,.29,.63-.53,.02-.11,.11-.18,.16-.13,.71,.87,1.32-.46,2-.07,.14,.09,.27,.27,.41,.38,.14,.11,.29,.35,.42,.21,.53-.55,1.07-.55,1.59-.46,.51,.13,1,.33,1.53,.31,.37-.01,.61,.57,1.17-.3,.08-.13,.24-.07,.27,.08,.26,1.3,1.15,.64,1.64,1.16,.24,.25,.83-.19,.7,.82-.02,.13,.14,.09,.24,.06,.17-.05,.43-.29,.55-.22,.32,.21,.42,.88,.85,.75,.52-.19,.9,.24,1.3,.47,.24,.14,.18,.65,.31,.88,.13,.22,.38,.33,.56,.5,.26,.24,.66,.42,.69,.81,.02,.28,.55,.2,.71,.41,.06,.08,.06,.2-.06,.39-.33,.49,.65,.4,.86,.72,.11,.15,.05,.37-.01,.57-.05,.16-.34,.37-.29,.47,.1,.26-.05,.54,.39,.77,.31,.17-.23,.61-.3,.89-.07,.28-.03,.61-.04,.8,0,.22-.21,.45,.01,.66,.99,.91,.34,1.8,.44,2.7,.03,.23,.36,.51-.51,.68-.16,.03-.17,.16-.08,.23,1.17,.9,.17,1.75,.47,2.64,.22,.63,.64,1.28,.49,1.91-.14,.61-.44,1.24-.07,1.87,.3,.52,.56,1.05,.3,1.51-.26,.45,1.4,1.11-.1,1.41-.05,.49-.07,.99-.2,1.47-.11,.4,.21,.88-.7,1.15-.33,.1-.35,.38-.1,.59,.81,.66,.46,1.13-.09,1.56-.13,.1,.26,.34,.25,.49-.03,.44-.07,.9-.28,1.3-.65,1.19-.03,2.71-.42,4.02-.08,.24,.49,.72,.24,.87-1.46,.91-.94,2.64-2.1,3.63-1.71,1.39-2.1,3.43-3.47,4.97-.18,.2-.92-.02-.83,.21,.3,.71-.43,.7-.25,1.26,.32,1.03-.53,1.09-.77,1.66-.17,.43-.9,.35-.49,1.33,.06,.14-.07,.23-.21,.2-1.1-.23-.62,1.22-1.42,1.31-.09,.84-.55,1.31-1.08,1.66-.52,.37-1.13,.62-1.6,1.06-.14,.13-.16,.44-.25,.66-.05,.11-.06,.3-.17,.27-.82-.23-1.36-.01-1.86,.3-.5,.31-.99,.68-1.59,.78-.39,.07-.87-.12-1.27-.1-.4,.02-.67,.44-1.24-.15-.18-.18-.34-.02-.47,.12-.69,.72-1.73-.63-2.34-3.09-.23-.89-.1-.99-.05-1.36,.11-.72,.25-1.2,.59-1.23,.27-.01,.64,.15,.56-.76-.01-.15,.1-.16,.2-.08,.7,.59,.94-.17,1.53,.13,.47,.24,.71,.02,1.07,.03,.31,0,.33-.55,.95,.03,.22,.19,.11-.55,.26-.66,.34-.3,.69-.59,1.13-.72,.65-.25,1.08-.82,1.43-1.44,.18-.31,.35-.61,.55-.87,.19-.28,.41-.52,.7-.69-.15-1.44,1.24-1.45,1.39-2.54,.09-.64,.32-1.14,.62-1.59,.26-.48,.59-.92,.73-1.47,.06-.23,.17-.37,.52-.4,.23-.02,.48-.05,.56-.16,.28-.46,.44-.98,.76-1.42,.17-.24-.24-.76,.85-.58,.15,.03,.19-.1,.09-.21-.8-.85-.02-1.08,.03-1.59,.02-.19,.11-.35,.54-.43,.46-.08,.54-.44,.25-.78-.22-.26-.19-.41-.22-.6-.14-.76,1.11-1.2,.02-2.19,1.2-.08,.93-.62,.74-1.04-.71-1.6,.28-2.84,.28-4.31,0-.35,.54-.63,.67-.97,.14-.36,.14-.74,.14-1.12,0-.2,.39-.4-.42-.64-.06-.02-.1-.06-.08-.08,.16-.2,.49-.38,.45-.6-.04-.19-.57-.41-.71-.62-.16-.24-.16-.48-.15-.71,0-.23-.17-.48,.58-.61-.9-.24-.43-.47-.48-.7-.05-.22,.01-.43,.03-.64l.04-.73c.01-.24,.1-.48,.02-.73-.11-.34-.42-.68-.5-1.01-.08-.35-.07-.71,.04-1.05,.13-.44,.43-.86,.61-1.3,.07-.18-.15-.35-.47-.54-.42-.25-1.35-.58-.1-.85,.25-.05,.18-.27,.03-.4-.31-.25-.48-.49-.56-.74-.04-.12-.06-.24-.06-.37,0-.12,0-.27,.03-.26,.07-.09,.25-.25,.06-.33,.93-.38,.29-.44-.01-.39h-.1c-.4,.02-.5,.07-.3-.44,.05-.15,.05-.25,.03-.33-.01-.04-.03-.07-.05-.1-.06-.05-.13-.09-.2-.13-.28-.16-.56-.3-.81-.52-.14-.13-.46,.12-.27-.73,.04-.19-.11-.21-.23-.11-.83,.64-1.17,.25-1.56-.46-.2-.38-.63-.09-1,.16-.55,.4-.98-.05-1.48-.09-.12-1.06-.39-.03-.52,.42-.18,.6-.31,.7-.47,.71-.2,0-.41-.18-.6,.51-.09,.35-.31,.27-.43-.09-.17-.48-.22-.25-.33,.09-.12,.4-.37-.58-.57-.5-.22,.08-.37,.63-.74-.42-.03-.09-.1-.07-.12,.02-.1,.59-.31,.5-.56,.34-.24-.15-.51-.37-.65-.08-.76-.43-1.42-.26-1.95,.05-.54,.29-1.05,.77-1.72,.92-.54,.14-1.51-.17-1.66,.59-.26,1.54-1.6,1.83-2.34,2.93-.15,.24,.01,.79-.96,.28-.13-.07-.21,.04-.14,.17,.47,.95-.01,1.06-.8,.98-.19-.02-.3,.15-.14,.36,.46,.59,.1,.58-.03,.72-.16,.17-.86,.03-.66,.37,.44,.72-.36,.32-.62,.42-.16,.06-.09,.31-.09,.5,0,.09,.21,.36,.12,.34-1.01-.16-.25,1-.83,1.16-.13,.03-.18,.13-.32,.15-1.63,.19-1.64,.19-2,1.7-1.28-.46-.01,1.05-1.06,.8-.38-.09-.49,.2-.4,.51,.41,1.36-.83,1.53-1.07,2.41-.05,.18-.83-.22-.4,.38,.16,.23-.63,0-.72,.18-.13,.25-.69,.21-.17,.94,.21,.3-.16,.34-.21,.53-.07,.27-.49,.28-.07,.9,.23,.34,.04,.61-.32,.54-1.52-.28-.86,.95-.81,1.74,.01,.24,.05,.42-.24,.45-.4,.05-.93,.12-.71,.53,.38,.73-.07,.84-.24,1.16-.29,.56-.76,.99-1.03,1.56-.31,.65-1.01,1.03-.83,2.01,.09,.53,.1,1.14-1.08,.85-.13-.03,.31,.46,.25,.56-.46,.76-.9,1.53-1.46,2.22-.13,.16-1.21-.26-.54,.39,.71,.69-1.02-.15-.12,.61,.13,.11,.02,.26-.13,.28-1.58,.23-1.34,1.64-2.15,2.37-.19,.18,.07,.66-.88,.33,.61,1.1-1.67,.59-.49,1.99-.48,.25,.08,1.13-1.15,.94-.2-.03-.03,.24-.22,.23-.64-.04,.82,.97-.14,.82-.56-.08-.46,.38-.63,.62-.15,.22-.25,.47-.38,.71l-.41,.78c-.14,.26-.34,.49-.4,.79-.13,.6,.26,1.44-.26,1.85-.06,.04,.02,.2,.17,.3,1.26,.85,.38,.74-.1,.73-.41,0-.63,.05-.7,.22-.21,.46-.36,.94-.65,1.36-.17,.25,.14,.73-.84,.6-.15-.03-.24,.04-.26,.1,0,.03,.04,.09,.13,.16,.41,.29,.49,.36,.46,.43-.03,.06-.18,.12-.13,.2,.04,.07-.01,.12-.07,.19-.05,.06,.68,0-.05,.14,.66,0,.79-.03,.73,.05-.06,.06-.3,.24-.23,.26,.02,0,.03,0,.04,.02,.21-.03,.24,.04,.32,.11,.04,.02,.43-.41-.31,.51-.14,.18-.07,.17,.08,0,.43-.49,.6-.76,.17-.08-.08,.13,.05-.01,.15-.15,.28-.37,.25-.33,.11,.03-.11,.28-.11,.46,.01,.26,.35-.53,.37-1.02,.32,.04,0,.13,.13-.54,.14-.5,.29,.15,.77-.35,1.08,.48,.14,.34,.38,.11,.57,.22,.33,.18,.67-.38,1.01-.06,.35,.33,.75,.08,1.12,.09,.38,0,.75,.03,1.13,0l1.12-.06,1.12-.05c.38,0,.75-.06,1.12-.1,.37-.04,.74-.1,1.11-.12,.26-.02,.52,.07,.83,.43,.81,.92,1.65,.6,2.48-.36,.06-.07,.15-.03,.22-.05,.96-.21,1.84-.66,2.86-.62,.44-.01,.98,.28,1.37,.07,.26-.14,.58-.08,.63-.76,.04-.57,.68,.19,.59-.81-.03-.36,.21-.44,.43-.23,.75,.7,1,.07,1.44-.03,.53-.1,.96-.39,1.39-.67,.21-.14,.58,.02,.45-.78-.07-.39,.32-.29,.64-.09,.49,.29,.69,.05,.8-.27,.25-.69,.19-.75,.98-.56,.1,.02,.16-.01,.22-.05,.59-.37,1.36-.54,1.62-1.31,.22-.63,.58-1.03,.97-1.4,.16-.15,.04-.64,.86-.03,.12,.09,.2,0,.16-.13-.39-1.07,.3-1.04,.62-1.39,.3-.35-.07-1.22,.38-1.42,.41-.2,.54-.65,.81-.98,.4-.5,.98-.27,3.22,1.29,1.85,1.29,2.13,1.72,2.1,2.54-.03,.86-.42,1.5-.89,2.01-.49,.49-1.02,.89-1.32,1.42Z"/>
          </g>
          <g>
            <path class="cls-10" d="M78.81,50.15c-8.18,11.76-25.46,16.8-43.28,12.61,5.87-16.71,16.39-30.81,26.82-44.76,2.91-3.89,5.91-7.85,10.47-10.16,4.57-2.3,11.1-2.63,16.76,.6,.99,.57,1.99,1.28,2.53,2.2,.57,.96,.56,1.97,.53,2.92-.25,8.54-.52,17.19-3.26,24.79s-8.26,14.13-16.81,16.32"/>
            <path class="cls-10" d="M76.15,54.05c-.46,.53-.96,.93-1.42,1.34-.46,.4-.87,.8-1.31,1.17-.14,.11-.22,.33-.4,.47-.74,.51-1.38,1.22-2.22,1.52-.9,.34-1.67,.88-2.44,1.35-.72,.46-1.47,.86-2.24,1.22-.26,.12-.51,.25-.85,.23-.25-.01-.63,.13-.85,.43-.04,.06-.17,.07-.27,.09-.1,.02-.24-.01-.3,.04-.68,.56-1.58,.6-2.36,.94-.2,.08-.44,.08-.55,.31-.03,.06-.23,.12-.3,.09-.19-.08-.36-.06-.55,0-.84,.21-1.68,.46-2.53,.61-.37,.32-.86,.3-1.31,.38-.34,.06-.69,.03-1.03,.05-.34,.02-.69,.2-1.05,.02-.06-.03-.18,.05-.27,.07-.42,.07-.86,.2-1.27,.16-.21-.02-.42-.04-.63-.01-2.67,.17-5.35,.23-8.02,0-.23-.02-.45-.06-.71,.06-.2,.1-.63,.07-.8-.06-.28-.2-.57-.17-.85-.22l-1.57-.23c-.31-.06-.68,.02-.91-.27-.02-.03-.12-.04-.16-.02-.39,.19-.68-.09-1.02-.19-.24-.07-.49-.12-.79-.06-.34,.05-1-.07-1.21-.24-.14-.11-.29-.17-.47-.22l-.28-.06s-.1-.01-.13-.03l.05-.13,1.09-2.89c.32-.86,.69-1.69,1.02-2.55,.31-.81,.46-1.67,.91-2.43,.1-.18,.11-.43,.35-.52,.05-.02,.1-.18,.09-.26-.05-.28,.11-.47,.22-.72,.57-1.08,1.19-2.15,1.59-3.29,.33-.88,.8-1.66,1.2-2.5,.13-.28,.39-.49,.56-.75,.17-.25,.31-.53,.45-.8,.08-.16,.22-.3,.18-.52-.02-.12,.09-.36,.19-.42,.36-.21,.47-.58,.66-.89,.55-.9,1.06-1.82,1.62-2.71,.14-.22,.2-.52,.51-.6,.04-.01,.06-.17,.09-.27,.03-.1,.05-.24,.11-.28,.6-.43,.83-1.13,1.22-1.7,.94-1.4,1.82-2.84,2.8-4.22,.27-.38,.34-.84,.62-1.2,.26-.36,.5-.73,.76-1.09,.19-.25,.29-.58,.64-.69,.1-.03,.22-.22,.23-.33,.02-.41,.34-.66,.52-.98,.23-.39,.61-.69,.67-1.18,.02-.13,.25-.25,.36-.39,.2-.25,.39-.5,.56-.76,.08-.13,.1-.29,.19-.42,.64-.98,1.27-1.96,1.94-2.92,.68-.97,1.4-1.92,2.11-2.87,.71-.95,1.4-1.92,2.14-2.85,.28-.35,.42-.84,.91-.99,.1-.44,.41-.66,.78-.82,.05-.02,.06-.18,.1-.27,.12-.29,.05-.7,.52-.77,.02,0,.03-.04,.05-.06,.21-.19,.06-.55,.44-.71,.24-.1,.41-.41,.61-.63,.2-.23,.41-.46,.58-.72,.18-.26,.52-.42,.52-.81,0-.06,.29-.12,.37-.23,.42-.57,1.09-.94,1.37-1.64,.07-.16,.26-.33,.42-.41,.59-.27,.94-.73,1.39-1.19,.57-.62,1.31-1.18,2.16-1.36,.18-.03,.28-.03,.37-.22,.06-.12,.24-.22,.39-.29,1.59-.9,3.34-1.55,5.13-1.9,.49-.11,.98,.07,1.47-.08,.2-.07,.46,.04,.61-.18,.02-.03,.11-.05,.15-.04,.62,.17,1.21-.16,1.83-.06,.13,.03,.25,.08,.38,.11,.13,.03,.28,.1,.39,.07,.95-.23,1.89,.11,2.82,.24,.32,.05,.63,.25,.97,.09,.05-.02,.19,.02,.24,.07,.45,.43,1.09,.4,1.6,.69,.26,.13,.63,.12,.77,.45,.02,.04,.14,.07,.21,.08,.13,.02,.28,0,.39,.06,.3,.16,.56,.46,.86,.53,.38,.08,.66,.3,.97,.49,.18,.11,.28,.32,.44,.47,.15,.14,.32,.25,.48,.39,.22,.19,.48,.39,.62,.65,.14,.26,.5,.32,.52,.71,0,.28,.33,.46,.45,.75,.06,.14,.06,.3,.07,.45,0,.11-.06,.23-.04,.33,.04,.22,.01,.44,.13,.67,.08,.16-.06,.45-.08,.67-.02,.22-.02,.44-.02,.66,0,.22-.06,.46-.01,.66,.23,.89,.05,1.78,.04,2.68,0,.23,.08,.5-.15,.69-.04,.03-.05,.16-.03,.23,.27,.86-.01,1.73,.02,2.6,.03,.62,.11,1.23,.04,1.85-.06,.61-.18,1.23-.12,1.83,.05,.49,.07,.98-.03,1.44-.09,.46,.28,.95-.14,1.36-.05,.47-.1,.95-.19,1.41-.07,.39-.03,.81-.3,1.17-.1,.13-.14,.4-.09,.56,.15,.53-.01,1-.22,1.47-.05,.11,.03,.28,0,.42-.07,.42-.15,.83-.27,1.24-.36,1.2-.45,2.45-.82,3.65-.07,.22,0,.52-.1,.7-.65,1.09-.88,2.39-1.54,3.46-1,1.55-1.76,3.21-2.88,4.68-.15,.19-.44,.28-.46,.4-.07,.39-.45,.6-.53,.91-.16,.56-.62,.86-.94,1.27-.23,.31-.61,.51-.69,.93-.01,.06-.11,.15-.18,.18-.56,.23-.74,.86-1.25,1.13-.31,.46-.73,.82-1.17,1.13-.44,.33-.91,.61-1.36,.92-.13,.09-.23,.23-.35,.34-.06,.06-.12,.14-.19,.16-.51,.11-.96,.33-1.39,.58-.44,.24-.89,.47-1.36,.64-.31,.12-.65,.14-.96,.23-.32,.09-.62,.28-.97,.21-.11-.02-.28,.05-.41,.12-.69,.33-1.34,.11-1.5-.5-.06-.22,.08-.28,.21-.4,.24-.24,.49-.43,.84-.51,.27-.06,.59-.1,.74-.39,.03-.05,.15-.09,.22-.08,.52,.02,.96-.31,1.42-.39,.36-.05,.65-.2,.96-.31,.26-.1,.46-.34,.81-.3,.12,.01,.28-.27,.44-.37,.38-.26,.77-.52,1.17-.75,1.2-.74,2.1-1.84,3.12-2.77,.5-.89,1.38-1.49,1.88-2.36,.31-.51,.62-1.02,.97-1.5,.31-.51,.65-.99,.91-1.53,.11-.22,.21-.39,.38-.54,.11-.1,.23-.21,.31-.33l.77-1.52c.14-.27,.14-.64,.5-.78,.05-.02,.1-.15,.1-.22-.05-.56,.28-1.01,.45-1.51,.06-.19,.12-.37,.29-.54,.17-.19,.28-.55,.27-.81,0-.2,.03-.36,.06-.53,.13-.73,.6-1.4,.45-2.18,.38-.3,.38-.78,.4-1.17,.07-1.49,.51-2.92,.66-4.39,.03-.36,.21-.7,.27-1.05,.07-.38,.1-.76,.13-1.14,.02-.2,.13-.43-.06-.61-.01-.01-.02-.05-.02-.07,.05-.21,.15-.43,.16-.64,0-.19-.12-.38-.14-.58-.03-.24-.01-.48,0-.72,.01-.23-.01-.48,.19-.65-.22-.2-.08-.46-.09-.69,0-.22,.02-.44,.04-.66l.04-.74c.01-.25,.04-.49,.04-.74-.01-.34-.08-.67-.09-1.01,0-.36,0-.72,.05-1.07,.05-.45,.13-.89,.19-1.33,.02-.18-.03-.34-.1-.53-.1-.24-.33-.55,0-.85,.06-.06,.05-.28,.02-.4-.31-.95,.05-2.02-.11-2.76,.19-.45-.06-.81-.3-1.09-.34-.43-.87-.85-1.37-1.37-.53-.55-1.3-.84-1.97-1.23-.2-.1-.45-.12-.54-.39-.02-.06-.18-.12-.28-.12-.68-.02-1.23-.28-1.83-.59-.31-.17-.72-.16-1.11-.17-.58,.02-1.18-.19-1.78-.23-.23-.28-.46-.05-.6,.06-.19,.14-.35,.16-.56,.16-.27-.01-.53-.06-.79,.12-.13,.09-.43,.07-.58-.01-.2-.11-.27-.04-.44,.05-.2,.12-.44-.13-.7-.07-.28,.05-.58,.22-.88,0-.03-.02-.11,0-.15,.03-.46,.37-1.06,.08-1.54,.35-1.62,.12-2.97,1.04-4.37,1.8-.57,.32-1.24,.55-1.68,1.06-.91,1.06-2.02,1.89-2.93,2.97-.19,.23-.32,.57-.7,.59-.05,0-.14,.11-.15,.18-.1,.5-.44,.78-.85,1.03-.1,.06-.23,.22-.22,.32,.03,.26-.17,.39-.29,.54-.15,.19-.48,.35-.49,.52-.03,.37-.31,.37-.49,.54-.11,.1-.16,.26-.23,.4-.03,.07-.02,.19-.06,.21-.47,.25-.49,.83-.86,1.16-.08,.07-.14,.16-.22,.23q-.92,.73-1.65,1.97c-.49,.12-.38,.77-.84,.97-.16,.07-.33,.32-.39,.52-.28,.85-.98,1.42-1.42,2.16-.09,.15-.35,.14-.34,.42,0,.11-.33,.23-.44,.39-.16,.23-.43,.4-.43,.76,0,.14-.2,.31-.3,.47-.13,.22-.35,.39-.36,.7,0,.17-.2,.44-.36,.52-.68,.34-.78,1.02-1.04,1.6-.08,.17-.13,.3-.28,.43-.22,.18-.51,.42-.55,.66-.07,.41-.34,.66-.54,.97-.34,.53-.73,1.03-1.07,1.57-.39,.61-.87,1.15-1.13,1.85-.14,.38-.36,.85-.83,1.05-.05,.02-.02,.25-.08,.35-.5,.75-.97,1.53-1.49,2.27-.12,.17-.48,.21-.39,.5,.09,.3-.43,.23-.28,.53,.02,.04-.08,.2-.16,.27-.82,.74-1.2,1.79-1.82,2.66-.15,.21-.2,.52-.51,.57-.1,.7-.95,1.04-.9,1.81-.3,.37-.34,.92-.81,1.17-.08,.04-.09,.21-.17,.27-.26,.18,.03,.55-.33,.74-.21,.11-.33,.47-.48,.73l-.38,.73-.42,.8c-.14,.27-.3,.53-.42,.8-.25,.55-.34,1.17-.68,1.69-.04,.06-.06,.17-.03,.22,.25,.35-.08,.54-.27,.68-.16,.12-.27,.23-.35,.41-.23,.47-.43,.95-.66,1.41-.14,.27-.16,.62-.5,.79-.1,.05-.19,.28-.2,.43-.05,.69-.44,1.25-.66,1.88-.1,.28-.22,.56-.34,.83-.09,.21-.03,.48-.26,.63-.08,.57-.24,1.1-.44,1.63l-.15,.39-.03,.04s-.04,.07-.04,.1c-.01,.04,0,.06,.05,.05l.1,.02,1.18,.26c.27,.06,.59,0,.8,.28,.04,.05,.24,.08,.3,.04,.18-.11,.31-.17,.46,.04,.03,.04,.18,.02,.27,0,.24-.07,.44-.03,.66,.1,.17,.1,.41,.17,.6,.15,.49-.06,.95-.15,1.41,.15,.06,.04,.23-.12,.34-.1,.41,.07,.84-.04,1.24,.2,.16,.1,.42,.05,.62,.09,.36,.07,.71-.08,1.09,0,.38,.09,.8,.03,1.21,.04,.4,0,.81,.03,1.21,0l1.21-.06,1.21-.06c.41,0,.81-.06,1.21-.11l1.2-.14c.28-.03,.55-.03,.84,.04,.76,.15,1.63-.06,2.66-.45,.07-.03,.16-.03,.24-.05,1.03-.22,2.03-.55,3.07-.73,.44-.11,.92-.15,1.36-.32,.29-.11,.59-.17,.82-.41,.2-.21,.62-.09,.81-.44,.07-.12,.33-.23,.49-.22,.53,.03,.95-.27,1.41-.44,.54-.18,1.02-.48,1.52-.74,.24-.13,.53-.19,.69-.49,.08-.15,.4-.24,.63-.26,.33-.05,.58-.24,.81-.44,.48-.43,.46-.44,1.07-.65,.07-.02,.14-.07,.21-.11,.65-.42,1.32-.85,1.86-1.38,.46-.43,.89-.87,1.35-1.28,.18-.17,.32-.44,.64-.39,.05,0,.15-.09,.17-.15,.22-.52,.66-.86,1.03-1.24,.35-.39,.52-.87,.9-1.23,.34-.36,.62-.79,.92-1.18,.46-.6,.69-.64,1.25-.25,.46,.32,.44,.55,.14,1.14-.32,.61-.72,1.19-1.15,1.69-.45,.48-.9,.91-1.26,1.35Z"/>
          </g>
          <g class="cls-13">
            <g class="cls-13">
              <path class="cls-5" d="M78.03,62.3c-1.18,.95-2.63,1.58-3.94,2.29-.67,.33-1.33,.63-1.94,.99-.61,.36-1.16,.76-1.68,1.18-.22,.18-.46,.37-.7,.57l.43-.13c3.26-.97,6.64-2.68,9.32-4.93,.81-.72,1.51-1.59,2.27-2.4,.76-.82,1.47-1.71,2.37-2.47,.2-.17,0-.42-.1-.54-.31,.02-.61,0-.89-.04-.63,.7-1.22,1.44-1.88,2.13-.68,.67-1.37,1.33-2.13,1.95-.54,.35-.81,1.18-1.14,1.4Z"/>
              <polygon class="cls-7" points="83.26 56.81 83.2 56.8 83.02 57.01 83.26 56.81"/>
              <path class="cls-4" d="M80.11,60.21c-.43,.47-.9,.89-1.43,1.22-.25,.35-.44,.74-.65,.87-1.18,.95-2.63,1.58-3.94,2.29-.67,.33-1.33,.63-1.94,.99-.61,.36-1.16,.76-1.68,1.18-.22,.18-.45,.37-.69,.56l.47-.13c1.15-.29,2.26-.79,3.39-1.27l.15-.13c.52-.48,1.17-.61,1.76-.92,1.54-1.07,2.93-1.83,4.37-3.05,.49-.47,.81-1.2,1.44-1.67,.2-.18,.41-.33,.63-.47,.69-.79,1.38-1.59,2.21-2.31,.2-.17,0-.42-.1-.54-.16,0-.32,0-.48,0-.68,.55-1.31,1.16-1.98,1.75-.53,.57-1.1,1.1-1.69,1.64,.04,0,.09,0,.14-.02Z"/>
              <path class="cls-7" d="M79.75,59.89c-.09,.07-.05,.33,.21,.34,.58-.53,1.16-1.06,1.69-1.64-.57,.48-1.21,.91-1.9,1.29Z"/>
              <path class="cls-9" d="M79.15,58.95c-1.21,.86-2.19,1.94-3.34,2.43-.61,.25-1.28,.36-1.9,.38-.17,.11-.34,.22-.51,.32-4.13,2.77-8.9,4.65-13.78,5.34-2.42,.45-4.6,1.24-7.13,1.81-.76,.1-1.45,.02-2.12-.07-.68-.09-1.35-.21-2.08-.38-.91-.21-1.79-.24-2.65-.3-.86-.06-1.73-.03-2.6,.03-.85,.01-1.76,.02-2.67,.04-.92,.02-1.83-.1-2.79-.22-1.03-.14-1.53,1.02-1.28,1.1,3.26,.66,6.4,1.23,9.58,1.55,3.18,.24,6.4,.23,9.64-.31,5.01-.89,9.61-2,14.25-3.33,.24-.2,.48-.39,.7-.57,.52-.42,1.07-.82,1.68-1.18,.61-.36,1.27-.66,1.94-.99,1.31-.71,2.75-1.33,3.94-2.29,.33-.21,.61-1.04,1.14-1.4,.75-.62,1.45-1.28,2.13-1.95,.66-.69,1.25-1.43,1.88-2.13-.6-.07-1.14-.21-1.65-.2-.35,.44-.68,.91-1.08,1.3-.4,.38-.83,.74-1.29,1.02Z"/>
              <path class="cls-6" d="M79.15,58.95c.47-.29,.89-.64,1.29-1.02,.4-.39,.73-.86,1.08-1.3-.25,0-.49,.04-.72,.14-.59,.35-1.2,.7-1.78,1.1-.58,.39-1.11,.88-1.68,1.31-1.14,.87-2.23,1.85-3.43,2.59,.62-.02,1.29-.14,1.9-.38,1.15-.49,2.13-1.57,3.34-2.43Z"/>
              <path class="cls-4" d="M79.15,58.95c.9-.54,1.64-1.32,2.28-2.2-.31,.19-.6,.41-.88,.65-.74,.58-1.47,1.14-2.2,1.71-.74,.56-1.56,1.01-2.39,1.41,1.64-1.08,3.2-2.29,4.62-3.65-2.36,1.27-4.35,3.43-6.68,4.88,.62-.02,1.29-.14,1.9-.38,1.15-.49,2.13-1.57,3.34-2.43Z"/>
              <path class="cls-3" d="M76.84,60.91c.49-.3,.97-.59,1.45-.88,.47-.32,.91-.67,1.36-1.02,.44-.36,.89-.71,1.31-1.1,.4-.41,.79-.83,1.17-1.27-.15-.02-.3-.03-.45-.04-.09,.05-.17,.1-.25,.15-.64,.88-1.39,1.66-2.28,2.2-1.21,.86-2.19,1.94-3.34,2.43-.6,.24-1.28,.36-1.9,.38l-.48,.3c-.52,.37-1.06,.7-1.62,1.01-.56,.31-1.11,.63-1.66,.94-1.15,.55-2.29,1.12-3.48,1.56-1.93,1.14-4.3,1.81-6.63,2.01,1.07-.2,2.12-.53,3.15-.89-.58,.14-1.17,.29-1.76,.43-.59,.12-1.19,.2-1.79,.29-.51,.09-1.01,.22-1.51,.34-.5,.1-.99,.23-1.48,.37-.16,.32-.45,.62-1.01,.78-.87,.24-1.75,.25-2.64,.62-.13,0-.12-.23-.37-.22,.7-.03,1.26-.24,1.73-.53-.61,.15-1.24,.31-1.85,.46-1.19,.14-2.21-.08-3.3-.24-.12,.02-.23,.01-.35,.02-.58,.01-1.18,.11-1.79,.24,.24,.02,.49,.04,.74,.06-.4,.12-.9,.08-1.28,.05,.18-.04,.36-.08,.53-.11-.58-.05-1.14-.09-1.75-.2,.74,.14,1.52,0,2.16-.08-1.38,0-2.64-.08-3.96-.44l.11-.03c-1.93,.04-3.93,.2-6.04-.15-1.03-.15-1.53,1.02-1.28,1.1,4.53,.95,8.89,1.69,13.39,1.7-.5-.15-1.01-.34-1.51-.53-.22-.05-.43-.12-.62-.22,.2,.07,.41,.15,.62,.22,.6,.15,1.26,.13,1.91,.24,.12,.08,.51,.09,.66-.15,.45,.09,.93,.08,1.42,.07,.49-.03,.97-.08,1.42-.02,.05,0,.15,.06,.26,.13,.56-.07,1.12-.15,1.69-.23,3.13-.59,6.1-1.2,9.03-1.93-.74,.06-1.46,.09-2.13,.06-.46-.04-1.11,.11-1.85,.31-.73,.2-1.54,.52-2.3,.69-.38,.12-.65-.09-1.03-.04,1.24-.81,3-.77,4.49-1.2,.97-.33,2.2-.51,3.42-.84,1.2-.37,2.45-.71,3.37-1.4,.76-.56,1.67-.63,2.45-.72-.17,.27-.66,.44-.9,.54-1.09,.41-2.14,.88-3.25,1.21-1.1,.37-2.18,.77-3.3,1.09,2.43-.34,4.56-1.33,6.94-1.95-1.31,.6-2.71,.83-3.87,1.57,.12,.02,.25,.03,.38,.04,.93-.22,1.83-.5,2.75-.77,.24-.2,.47-.38,.69-.56,.52-.42,1.07-.82,1.68-1.18,.61-.36,1.27-.66,1.94-.99,1.31-.71,2.75-1.33,3.94-2.29,.21-.13,.4-.52,.65-.87-.81,.51-1.65,1.03-2.46,1.54,.38-.13,.73-.27,1.12-.32-.72,.59-1.57,.64-2.32,1.16,.38-.32,.79-.59,1.2-.84-.56,.2-1.11,.48-1.67,.74,.87-.84,2.17-.82,2.91-1.88-.2,.15-.42,.28-.64,.4l.65-.42h0c.62-.45,1.19-.98,1.63-1.54-1.05,.81-2.22,1.21-3.28,1.94l-.53,.36c.17-.13,.35-.25,.53-.36,.6-.42,1.19-.87,1.81-1.27,.62-.4,1.24-.8,1.84-1.24,.6-.42,1.22-.85,1.83-1.28,.58-.47,1.16-.95,1.73-1.41l.19-.21-.4-.05c-.92,.8-1.85,1.61-2.88,2.28-.5,.34-1,.68-1.51,1.02-.52,.29-1.05,.58-1.58,.87Z"/>
            </g>
          </g>
          <g class="cls-13">
            <g class="cls-13">
              <path class="cls-5" d="M95.62,26.65c.2-1.64,1.08-3.43,.36-4.97-.07-.17-.14-.34-.22-.52l-.07,.25c-.5,1.94-.8,3.95-1.02,5.7-.02,1.1,.11,2.38-.62,3.37-.08,.11,.18,.29,.3,.39,.23,0,.48,.02,.72,.05,.43-1.04,.55-2.14,.81-3.21,.12-.35-.31-.85-.26-1.06Z"/>
              <polygon class="cls-7" points="95.01 30.94 95.06 30.95 95.12 30.79 95.01 30.94"/>
              <path class="cls-4" d="M95.65,28.33c.02-.37,.09-.71,.19-1.05-.09-.26-.25-.5-.22-.63,.2-1.64,1.08-3.43,.36-4.97-.07-.17-.14-.34-.22-.51-.02,.09-.05,.18-.07,.27-.18,.66-.32,1.35-.46,2.02l.04,.11c.18,.4-.11,.73-.18,1.08,.05,1.03-.29,1.82-.37,2.78-.04,.34,.22,.8,.04,1.17-.04,.13-.1,.26-.17,.36-.07,.54-.23,1.08-.57,1.53-.08,.11,.18,.3,.3,.39,.12,0,.25,.01,.38,.02,.32-.38,.53-.84,.77-1.3,.1-.47,.19-.91,.28-1.32-.03,0-.06,.02-.1,.04Z"/>
              <path class="cls-7" d="M96.12,28.43c.02-.06-.17-.2-.37-.14-.09,.41-.18,.86-.28,1.32,.19-.39,.39-.78,.65-1.18Z"/>
              <path class="cls-9" d="M97.15,28.83c.43-.9,.2-1.89,.6-2.6,.19-.39,.47-.75,.82-1.08,0-.13,.02-.26,.03-.39,.04-1.62-.03-3.16,0-4.71,.03-1.55,.17-3.08,.37-4.63,.1-1.57-.48-3.12-1.22-4.66-.33-.94-.25-1.82-.57-2.86-.37-1.32-1.4-2.2-2.52-2.71-1.14-.51-2.36-.68-3.55-.82-.66-.07-.99,1.16-.86,1.2,1.69,.12,3.23,1.13,4.24,2.45,1.04,1.32,1.5,2.93,1.87,4.73,.27,1.4,.29,2.85,.13,4.27-.14,1.42-.39,2.8-.74,4.16,.08,.17,.16,.34,.22,.52,.72,1.54-.16,3.34-.36,4.97-.05,.21,.38,.71,.26,1.06-.26,1.07-.38,2.17-.81,3.21,.52,.05,1.01,.1,1.44,.04,.19-.77,.3-1.5,.65-2.13Z"/>
              <path class="cls-6" d="M97.15,28.83c-.35,.63-.46,1.37-.65,2.13,.21-.03,.39-.1,.54-.22,.73-.72,1.12-1.71,1.29-2.69,.18-.99,.18-1.98,.23-2.9-.34,.32-.63,.69-.82,1.08-.4,.72-.17,1.7-.6,2.6Z"/>
              <path class="cls-4" d="M97.15,28.83c-.33,.6-.45,1.3-.62,2.03,.17-.19,.32-.4,.43-.62,.58-1.15,.81-2.39,1.33-3.52-.24,1.29-.59,2.6-1.11,3.91,.67-.73,1.01-1.7,1.17-2.66,.16-.96,.16-1.92,.21-2.81-.34,.32-.62,.69-.81,1.07-.4,.72-.17,1.7-.6,2.6Z"/>
              <path class="cls-3" d="M97.43,26.89c-.43,1.38-.92,2.7-1.43,4.13,.13,0,.26,0,.39-.02,.05-.05,.1-.1,.14-.14,.17-.73,.29-1.42,.62-2.03,.43-.9,.2-1.89,.6-2.6,.19-.38,.47-.75,.81-1.07,0-.12,.02-.25,.03-.37,.04-1.66-.04-3.22,.01-4.81-.35-1.39-.19-2.87,.12-4.32-.02,.68-.03,1.36,0,2.04,.06-.76,.16-1.5,.25-2.26,.04-.66-.04-1.33-.2-1.99-.3-.12-.56-.31-.67-.67-.17-.55-.21-1.12-.61-1.64,0-.08,.22-.11,.2-.27,.07,.45,.29,.78,.58,1.07-.16-.39-.33-.78-.52-1.17-.25-.74-.26-1.43-.41-2.21-.05-.07-.09-.14-.13-.21-.22-.35-.55-.64-.9-.89,.08,.14,.16,.29,.24,.44-.26-.15-.42-.43-.56-.64,.1,.07,.21,.13,.31,.2-.2-.34-.41-.65-.67-.98,.31,.4,.72,.73,1.07,1.04-.54-.8-1.18-1.38-1.75-2.16l.08,.02c-1.22-.67-2.6-.86-3.92-1.02-.66-.07-.99,1.16-.86,1.2,1.17,.09,2.29,.61,3.19,1.37,.9,.76,1.58,1.73,2.03,2.8,.05-.31,.09-.63,.09-.95-.03-.13-.03-.26-.02-.41,.02,.13,.01,.27,.02,.41,.07,.34,.25,.66,.25,1.04-.05,.09,0,.29,.25,.3-.02,.52,.31,1.04,.21,1.57,0,.03-.05,.09-.13,.16,.07,.3,.13,.61,.2,.92,.34,1.75,.25,3.58,0,5.32,.16-.42,.35-.82,.58-1.2,.37-.51,.08-1.61-.04-2.52-.07-.23,.17-.37,.18-.6,.69,.78,.24,1.85,.3,2.77,.03,1.24-.62,2.94-.2,4.28,.18,.56-.11,1.07-.39,1.49-.14-.17-.11-.47-.09-.62,.14-1.36,.28-2.73,.26-4.11-.38,1.42-.29,2.81-.75,4.21,0-.84,.41-1.64,.09-2.43-.06,.06-.12,.13-.17,.19-.11,.55-.23,1.09-.37,1.62,.08,.17,.15,.34,.22,.51,.72,1.54-.16,3.34-.36,4.97-.04,.13,.13,.38,.22,.63,.15-.53,.34-1.05,.42-1.61-.11,.21-.25,.41-.45,.57,.05-.51,.44-.89,.46-1.42,.04,.29,.03,.57,0,.85,.16-.32,.25-.67,.36-1.02,.19,.73-.55,1.26-.27,2.01,.03-.14,.06-.29,.11-.43l-.11,.44h0c-.07,.44-.02,.91,0,1.34,.19-.76,.65-1.4,.74-2.19,0-.13,0-.26,.01-.39,0,.13,0,.26-.01,.39-.11,1.81-.96,3.53-1.98,4.95l-.07,.16,.34,.03c.84-1.25,1.48-2.68,2.03-4.09Z"/>
            </g>
          </g>
        </g>
        <g>
          <g class="cls-12">
            <path class="cls-11" d="M18.44,118.77c4.57,10.1,10.1,19.76,16.5,28.81,3.88,5.49,8.19,10.86,13.85,14.47,6.06,3.86,13.27,5.45,20.36,6.64,14.78,2.49,31.66,3,42.89-6.94-6.99-.03-13.49-3.75-18.71-8.4-5.22-4.65-9.47-10.28-14.39-15.24-16.2-16.31-39.95-24.8-62.82-22.43,1.42,2.03,2.83,4.05,4.25,6.08"/>
            <path class="cls-11" d="M22.63,123.29c.77,1.56,1.36,2.85,2.14,4.04,.12,.18,.7,.16,.82,.41,.48,.99,1.46,1.75,1.45,2.97,0,1.33,.51,2.39,1.44,3.14,.87,.71,1.3,1.66,1.95,2.48,.22,.28,.49,.51,.18,1.15-.23,.47,0,.93,.86,.84,.16-.02,.12,.2,.12,.33,0,.15-.2,.44-.06,.47,1.53,.24,1.36,1.6,2.17,2.32,.2,.18,.07,.6,.84,.35,.2-.06,.36,.13,.25,.29-.29,.43-.26,.66-.12,.86,.63,.87,1.21,1.76,1.83,2.63,1.13-.15,1.09,.58,1.41,1.04,.24,.34,.2,.88,.28,1.34,.09,.46,.87,.43,.4,1.29-.07,.14,.24,.11,.32,.19,.38,.37,.96,.61,1.01,1.2,.02,.3,.05,.61,.21,.81,2.03,2.56,4.24,4.94,6.72,6.93,.21,.17,.36,.43,.94,.14,.45-.22,.85,.05,.76,.55-.15,.8,.3,.77,.55,.98,.47,.42,1.07,.65,1.56,1.04,.29,.24,.9-.03,.7,1.03-.02,.1,.09,.16,.17,.09,.82-.67,.8,.23,1.13,.54,.23,.23,.53,.33,1.03,.03,.48-.29,.99-.15,1.08,.42,.11,.78,.54,.72,.89,.85,2.07,.85,4.24,1.51,6.45,1.97,1.05,.23,2.27-.43,3.25,.13,.24,.14,.58-.19,.68,.55,.02,.15,.24,.11,.35-.05,.41-.57,.65-.28,.98-.19,1.46,.41,2.94,1.02,4.49,.66,1.21-.29,2.3,.06,3.44,.06,.38,0,.71,.51,1.08,.65,.36,.14,.75,.13,1.12,.13,.23,0,.43,.22,.7-.33,.15-.3,.47-.36,.58-.1,.37,.87,.86,.58,1.31,.64,1.29,.13,2.59,.14,3.89,.21,.32,.01,.67-.4,.95,.48,.04,.12,.22-.16,.34-.24,.12-.09,.28-.34,.37-.22,.85,1.15,1.74,.44,2.59,.46,1.05,.04,2.08-.11,3.12-.19,1.04-.1,2.06-.28,3.1-.33,.58-.07,.94-.9,1.49-.96,.52-.06,1.1-.24,1.45-.28,.31-.03,.4-.47,1.09,.27,.19,.2,.43,.13,.39-.1-.15-.86,.4-.57,.63-.79,.2-.25,1.16,.03,.57-.77-.18-.2,.5,.07,.69,.04,.32-.05,.6-.14,.79-.27,.09-.06-.25-.3-.19-.37,.48-.52,.71-.97,1.1-1.41,.21-.22,.51-.4,.8-.65l.47-.35,.24-.18,.11-.09s-.07-.01-.09-.02c-.76,0-1.62-.09-2.14-.29-.12-.04-.63-.01-.74-.06-.09-.04,.08-.13,.78-.37-1.41,.19-.88-.03-.09-.52,.11-.07-.45,.05-.64,.07-.31,.03-.89,.18-1.19,.24-.31,.06-.34,.02,.28-.4,.05-.03-.05-.01-.05-.03-.02-.21-1.46,.56-.88-.04,.33-.39-.12-.38-.27-.5-.16-.14-.34-.3-.6-.32-.15-.02-.14-.15-.28-.26-.18-.13-.41-.16-.84,.16-.14,.1-.04-.65-.21-.71-.93-.31-1.18-1.6-2.62-1.19-.33,.09-.58-.14-.62-.47-.12-1.17-.96-1.29-1.8-1.59-1.11-.39-2.08-1.08-1.97-2.7,.03-.34,.1-.56-.37-.4-.31,.11-.44-.12-.59-.27-1.65-1.62-3.18-3.31-4.69-4.98-.41-.46-.07-1.52-.76-1.75-.28-.09-.12-.64-.86-.27-.1,.05-.22,.01-.21-.06,.2-1.18-1.28-.85-1.49-1.66-.04-.17-.01-.41-.04-.59-.03-.19,.02-.48-.18-.49-1.61-.06-1.76-1.49-2.75-2.11-.33-.21-.26-.87-1.2-.43-.14,.07-.25-.06-.21-.21,.37-1.29-.8-1.14-1.07-1.82-.15-.36-.87-.15-.43-1.08,.05-.12-.11-.14-.22-.15-.19-.02-.51,.12-.61,0-.25-.32-.24-1-.72-.99-.6,.02-.8-.37-1.14-.63-.19-.14-.09-.64-.22-.88-.12-.23-.35-.32-.53-.48-.26-.22-.63-.32-.76-.68-.13-.38-.97,.27-.84-.5,.09-.59-.74-.04-1.05-.14-.16-.05-.22-.24-.29-.42-.05-.14,.05-.47-.05-.52-.24-.11-.33-.4-.8-.22-.32,.12-.28-.51-.47-.71-.19-.21-.44-.31-.67-.47-.23-.15-.36-.48-.7-.42-1.46,.25-2.02-.89-3.05-1.32-.26-.11-.71,.02-.49-.84,.04-.15-.09-.25-.21-.21-1.5,.51-1.95-.87-3.06-1.03-.78-.13-1.64-.05-2.27-.5-.6-.45-1.22-.94-2.03-.87-.68,.07-1.32,.13-1.75-.31-.42-.44-1.58,.96-1.53-.58-.53-.2-1.08-.36-1.58-.63-.43-.23-1.01-.04-1.15-1.01-.05-.35-.38-.43-.65-.22-.87,.67-1.32,.25-1.76-.37-.1-.15-.41,.21-.57,.17-.49-.1-.98-.21-1.43-.46-1.34-.73-3-.18-4.42-.49-.27-.05-.71,.56-.9,.33-1.19-1.38-2.87-.59-4.18-1.41-1.96-1.32-4.19-.82-6.29-1.24-.27-.05-.52-.78-.67-.58-.45,.64-.89,.06-1.25,.54-.65,.86-1.23,.24-1.83,.43-.44,.13-.91-.44-1.31,.57-.06,.15-.21,.12-.29,0-.65-.93-1.26,.47-1.9,.05-1.16,1.12-2.39,.5-3.58,.81-.17,.05-.32,.31-.48,.46-.08,.07-.17,.23-.25,.16-.22-.2-.43-.33-.64-.42l3.95-8.64c.2,1.05,1.24,1.53,1.58,2.48,.14,.38,.09,.89,.21,1.28,.13,.4,.61,.56,.21,1.29-.12,.23,.1,.35,.28,.43,.93,.46,.02,1.93-2.05,3.4-.75,.53-.9,.41-1.3,.44-.76,.07-1.32,0-1.53-.42-.16-.32-.15-.81-1.06-.57-.15,.04-.22-.11-.18-.25,.29-.96-.62-1.17-.51-1.95,.08-.6-.24-.88-.35-1.33-.09-.38-.68-.41-.23-1.17,.04-.07,0-.12-.07-.15l-.48-.19,.91-.75c.15-.12,.35-.49,.52-.53,.59-.12,1.19-.21,1.8-.14,1.83,.19,3.58-1.11,5.44-.81,1.33-1.19,2.68-.02,4.01-.55,1.64-.65,3.2-.05,4.82-.22,.33-.03,.6,.02,.85,.34,.17,.2,.34,.44,.53,.48,.74,.16,1.5,.18,2.23,.39,.39,.11,.94-.39,1.1,.72,.02,.15,.2,.17,.31,.05,.84-.94,1.43-.13,2.13-.12,.27,0,.51,.1,.71,.53,.21,.47,.69,.53,1.1,.22,.3-.23,.52-.2,.77-.23,1.03-.09,1.72,1.22,2.99,.21,.18,1.23,.87,1.01,1.44,.9,2.16-.37,3.83,.89,5.7,1.45,.46,.13,.73,.75,1.14,1.01,.43,.28,.92,.41,1.4,.56,.26,.09,.39,.56,.91-.12,.04-.05,.1-.07,.12-.05,.21,.24,.35,.65,.63,.71,.25,.05,.69-.36,.99-.39,.36-.03,.66,.09,.96,.2,.29,.11,.67,.08,.58,.84,.61-.72,.73-.14,1.03-.06,.29,.07,.52,.26,.78,.39l.87,.45c.29,.15,.55,.37,.88,.44,.46,.09,1.01,0,1.44,.16,.46,.15,.87,.4,1.24,.72,.45,.41,.82,.95,1.24,1.38,.18,.18,.47,.09,.85-.06,.49-.19,1.35-.76,1.02,.52-.06,.25,.21,.35,.44,.31,1.76-.34,2.31,1.23,3.54,1.74,.01,1.2,.91,1.14,1.66,1.37,1.12,.33,2.12,.97,2.57,2.09,.47,1.2,1.57,1.61,2.22,2.55,.18,.26,.67,.24,.28,1.04-.09,.18,.12,.3,.3,.3,1.26-.03,1.74,.77,1.98,1.81,.12,.56,.76,.69,1.36,.85,.91,.24,1.23,1.12,1.79,1.73-.54,.97,.44,.46,.9,.29,.61-.23,.85-.13,1.05,.08,.26,.26,.37,.66,1.12,.48,.38-.09,.6,.27,.46,.67-.19,.53,.05,.45,.45,.42,.48-.04-.06,.83,.22,1.07,.29,.25,.98,.23,.39,1.22-.05,.09,.03,.17,.13,.15,1.3-.22,.56,1.38,1.39,1.56,.48,2.38,2.66,3.16,3.79,4.84,.46,.7,.54,1.87,1.48,2.02,1.94,.3,2.77,1.87,4.25,2.62,.31,.16,.9-.05,.6,1.02-.04,.15,.1,.22,.23,.14,.53-.23,1.16-.1,1.54,.14,.41,.25,.68,.67,.85,1.12,.1,.21,.52,.35,.88,.22,1.03-.37,1.28,.03,1.68,.2,.7,.15,.78,.75,1.63,.58,1.85-.35,1.45,.28,1.97,.46,.36,.11,1.31,.01,2.12-.03,.38-.02,1.4-.23,1.46-.16,.13,.4,1.3,.4,2.88,.35,1.48-.05,3.63-.16,4.26,.05,.13,.05,.35,.07,.56,.1-.15,.11-.31,.21-.57,.33-.74,.34-1.36,.63-1.78,.79-.41,.17-.77,.33-1.1,.47-.59,.26-.92,.45-1.08,.61-.18,.18-.05,.22,.11,.34,.1,.05,.21,.11,.34,.18,.07,.03,.13,.08,.22,.11,.09,.02,.19,.04,.3,.07-1.46,.23-.99,.26-.54,.3,.46,.04,1,.02,.12,.15-.31,.04-.38,.07-.3,.09,.04,0,.11,.02,.21,.02,.07,.02,.04,.09,.11,.13,.44,.38-.08,.87-.74,1.35-.67,.49-1.47,.95-1.78,1.38-.14,.19-1.59,.21-.86,.53,.27,.13-1.22,.3-1.42,.48-.31,.29-1.32,.44-.56,.91,.31,.2-.41,.36-.57,.56-.23,.28-.99,.39-.47,.92,.27,.29-.16,.66-.86,.64-1.37-.02-1.87,.2-2.16,.58-.27,.38-.33,.92-.61,1.37-.17,.27-.35,.45-.91,.47-.81,.02-1.77,0-1.86,.47-.19,.85-1.12,.99-1.83,1.22-1.26,.45-2.61,.7-3.87,1.17-1.02,.34-2.03,.16-2.94,1.04-.48,.45-1.17,.89-1.91-.17-.08-.12-.24,.55-.4,.58-1.26,.23-2.51,.31-3.77,.34-.29,0-.66-1.13-.88-.21-.24,.98-.62-.92-.81,.26-.03,.17-.29,.16-.43,.05-1.49-1.15-2.94-.25-4.4-.58-.34-.09-.76,.36-.99-.63-.93,1.04-1.77-1.21-2.73,.44-.6-.34-1.35,.52-1.85-.69-.08-.19-.32,.07-.41-.12-.31-.62-.73,1.12-1.09,.16-.21-.55-.73-.3-1.12-.37-.36-.06-.72-.09-1.08-.14l-1.18-.16c-.39-.05-.78-.18-1.18-.15-.81,.05-1.7,.63-2.46,.21-.08-.04-.25,.06-.32,.24-.52,1.45-.79,.54-.98,.07-.17-.4-.33-.61-.58-.64-.68-.1-1.36-.17-2.02-.39-.39-.13-.92,.26-1.11-.75-.06-.31-.39-.31-.62-.14-1.06,.79-1.83,.02-2.73-.05-.41-.03-.8-.16-1.2-.3-.3-.1-.77,.45-.91-.24-1.82,.76-3.14-.5-4.68-.91-1.55-.42-3.03-1.14-4.47-1.93-.36-.19-1,.02-.84-1.05,.03-.2-.23-.33-.41-.2-.47,.36-.78,.52-.65-.25,.03-.14-.25-.12-.42-.07-.49,.17-.74-.03-.84-.53-.08-.39-.28-.74-.62-.71-.91,.08-1.76,.05-1.71-1.22,.01-.16-.59,.23-.7,.11-.41-.48-1.24-.46-1.18-1.47,.02-.41-.41-.46-.57-.73-.28-.46-1.03-.39-1.21-1-.18-.61-.78-.85-1.18-1.27-.41-.41-.79-.83-1.19-1.25l-1.13-1.27-1.09-1.29-1.05-1.3c-.35-.43-.69-.87-1.01-1.32-.22-.31-.34-.67-.25-1.21,.24-1.39-.55-2.25-2.04-2.96-.11-.05-.13-.17-.19-.26-.8-1.14-1.74-2.19-2.28-3.5-.24-.57-.19-1.33-.59-1.81-.26-.31-.34-.73-1.1-.73-.63,0-.11-.89-1.12-.72-.37,.06-.56-.27-.42-.59,.45-1.03-.3-1.35-.58-1.95-.32-.68-.72-1.32-1.16-1.93-.22-.3-.13-.78-.99-.71-.42,.03-.42-.49-.27-.88,.22-.61-.06-.93-.44-1.16-.81-.51-.89-.46-.79-1.47,.01-.12-.04-.22-.09-.31-.5-.91-.68-2.01-1.58-2.68-.75-.55-1.15-1.27-1.56-2-.16-.29-.73-.43,.03-1.13,.11-.1,.01-.26-.14-.28-1.29-.13-1.11-1.07-1.44-1.71-.33-.62-1.4-.82-1.51-1.57-.1-.7-.55-1.25-.83-1.88-.43-.95,.02-1.4,2.51-2.52,2.06-.93,2.61-.9,3.38-.37,1.62,1.12,1.68,2.98,2.55,4.09Z"/>
          </g>
          <g>
            <path class="cls-8" d="M18.44,94.9c4.57,10.1,10.1,19.76,16.5,28.81,3.88,5.49,8.19,10.86,13.85,14.47,6.06,3.86,13.27,5.45,20.36,6.64,14.78,2.49,31.66,3,42.89-6.94-6.99-.03-13.49-3.75-18.71-8.4-5.22-4.65-9.47-10.28-14.39-15.24-16.2-16.31-39.95-24.8-62.82-22.43,1.42,2.03,2.83,4.05,4.25,6.08"/>
            <path class="cls-8" d="M21.38,100.03c.78,1.57,1.42,2.85,2.11,4.09,.11,.19,.34,.35,.47,.6,.51,.99,1.18,1.93,1.56,2.95,.43,1.1,1,2.13,1.65,3.05,.62,.87,1.13,1.78,1.7,2.66,.19,.3,.4,.58,.47,.98,.05,.3,.32,.74,.68,.96,.07,.04,.12,.2,.17,.31,.05,.12,.06,.28,.13,.35,.8,.72,1.2,1.74,1.83,2.58,.16,.21,.25,.49,.53,.57,.07,.02,.22,.23,.22,.32,.01,.23,.1,.42,.24,.62l1.84,2.67c.51,.29,.76,.84,1.09,1.3,.24,.35,.42,.74,.63,1.11,.21,.38,.62,.64,.68,1.11,.01,.07,.16,.17,.24,.26,.34,.41,.74,.81,.99,1.25,.13,.23,.25,.46,.41,.66,2.08,2.6,4.35,5.05,6.93,7.14,.22,.18,.42,.37,.75,.44,.25,.06,.67,.36,.79,.59,.19,.37,.51,.52,.81,.71,.53,.39,1.1,.71,1.65,1.06,.32,.22,.77,.3,.94,.69,.02,.04,.13,.1,.17,.1,.49,0,.78,.35,1.15,.58,.27,.17,.56,.28,.92,.32,.35,.04,.86,.24,1.1,.47,.32,.31,.69,.41,1.05,.54,2.13,.83,4.34,1.48,6.57,2,1.06,.25,2.15,.25,3.21,.56,.25,.07,.55,.03,.75,.25,.04,.04,.25,.06,.34,.04,.32-.1,.6,.01,.94,.08,1.5,.31,3.02,.65,4.53,.73,1.17,.06,2.3,.26,3.45,.37,.38,.03,.76,.19,1.14,.26,.37,.07,.76,.1,1.14,.13,.23,.02,.45,.09,.69-.03,.13-.07,.45-.06,.58,.01,.43,.24,.91,.2,1.37,.24,1.32,.1,2.64,.15,3.95,.19,.32,0,.69-.1,.98,.13,.04,.03,.23-.04,.35-.06,.13-.02,.28-.08,.38-.05,.86,.3,1.76,.07,2.63,.07,1.06,0,2.11-.14,3.17-.21,1.05-.1,2.1-.27,3.15-.39,.58-.1,1.06-.39,1.62-.48,.54-.1,1.09-.21,1.62-.35,.38-.09,.75-.29,1.17-.17,.11,.03,.39-.04,.48-.13,.37-.31,.85-.36,1.27-.54,.51-.22,1.11-.28,1.55-.67,.12-.1,.42-.11,.64-.19,.37-.14,.73-.29,1.09-.45,.17-.08,.3-.23,.47-.31,.66-.3,1.25-.72,1.88-1.07,.64-.34,1.23-.75,1.81-1.17l.6-.41c.16-.1,.29-.22,.44-.33l.44-.35,.22-.17,.11-.09s-.07-.01-.1-.02h-.02c-.37,0-.74-.03-1.1-.07l-.62-.1-.16-.03-.28-.07-.56-.13c-.57-.12-1.22-.16-1.65-.58-.56,0-.97-.25-1.34-.6-.05-.05-.24-.03-.36-.06-.38-.07-.86,.09-1.12-.4,0-.02-.06-.03-.09-.04-.3-.19-.68,.02-1-.36-.2-.24-.63-.4-.96-.58-.34-.19-.67-.4-1.03-.57-.37-.17-.65-.54-1.11-.52-.07,0-.24-.3-.38-.38-.79-.44-1.4-1.15-2.28-1.43-.2-.07-.45-.27-.58-.45-.48-.64-1.1-1.01-1.76-1.46-.86-.59-1.71-1.33-2.22-2.25-.11-.2-.14-.3-.38-.37-.15-.05-.32-.24-.46-.38-1.6-1.59-3.12-3.25-4.62-4.91-.41-.45-.6-1.04-1.09-1.44-.2-.17-.31-.47-.6-.5-.04,0-.12-.07-.14-.12-.32-.71-1.06-1.05-1.49-1.67-.09-.13-.16-.28-.25-.41-.09-.14-.17-.32-.29-.39-.98-.65-1.62-1.66-2.46-2.44-.29-.27-.5-.66-.92-.74-.06-.01-.18-.14-.21-.21-.28-.67-.97-1.02-1.42-1.55-.23-.27-.63-.43-.7-.83,0-.05-.13-.13-.21-.18-.13-.08-.3-.13-.4-.23-.28-.3-.55-.68-.88-.86-.41-.22-.71-.52-1.04-.79-.19-.16-.31-.4-.49-.58-.17-.17-.37-.32-.55-.47-.26-.23-.57-.43-.8-.66-.24-.25-.61-.21-.81-.57-.15-.28-.56-.29-.83-.46-.14-.09-.26-.21-.37-.33-.09-.09-.13-.23-.23-.29-.22-.14-.39-.33-.68-.41-.19-.06-.4-.36-.62-.53-.22-.17-.46-.31-.69-.47-.23-.15-.45-.36-.69-.45-1.06-.4-1.9-1.17-2.9-1.69-.25-.14-.58-.23-.69-.54-.02-.06-.16-.14-.24-.16-1.06-.29-1.9-1.05-2.9-1.45-.71-.3-1.43-.54-2.11-.93-.65-.39-1.36-.73-2.07-.95-.58-.17-1.16-.34-1.67-.63-.5-.3-1.18-.1-1.57-.64-.55-.21-1.1-.41-1.64-.64-.46-.19-.96-.28-1.33-.66-.14-.14-.47-.23-.67-.23-.66,.02-1.2-.22-1.76-.53-.13-.07-.34-.03-.51-.08-.5-.14-.99-.31-1.48-.47-1.46-.47-2.98-.67-4.46-1-.28-.06-.62,.05-.85-.05-1.43-.58-2.99-.64-4.46-1-2.15-.62-4.39-.64-6.58-.91-.29-.03-.58-.22-.72-.17-.43,.15-.91-.01-1.27,.09-.65,.19-1.27,.02-1.9,.05-.46,.01-.95-.12-1.37,.14-.06,.04-.22,.03-.3,0-.67-.22-1.33,.13-2,.04-.63,.15-1.26,.18-1.9,.24l-.82,.04s-.07,0-.09,.02c-.01,.01,.04,.07,.07,.1,.02,.02,.07,.05,.04,.03-.09-.06-.24-.12-.24-.1-.02,0,0,.04,.02,.07l.08,.07s-.03-.05,.19,.3c.2,.34,.36,.7,.56,1.04,.2,.34,.5,.64,.56,1.05,.02,.13,.17,.3,.29,.42,.63,.68,.69,1.46,.18,1.84-.19,.14-.31-.01-.49-.12-.35-.22-.66-.47-.91-.85-.2-.3-.36-.67-.73-.8-.06-.02-.15-.16-.18-.25-.2-.63-.7-1.08-.96-1.67-.23-.51-.53-.9-.77-1.31-.18-.32-.64-.78-.53-.97-.19-.16,.11-.24,.36-.29,.67-.07,1.39-.13,2.1-.16,1.01-.01,1.82-.18,2.74-.23,.89-.07,1.79-.15,2.69-.12,1.29-.33,2.63,.05,3.92-.05,1.57-.15,3.11,.17,4.67,.23,.32,.02,.58,.05,.85,.15,.18,.06,.36,.15,.55,.18,.73,.12,1.46,.21,2.19,.35,.39,.07,.85,0,1.15,.31,.04,.04,.22,.07,.3,.05,.68-.15,1.34,.17,2.01,.27,.26,.04,.5,.1,.75,.25,.27,.16,.74,.25,1.08,.22,.25-.02,.46,.02,.69,.05,.94,.16,1.83,.68,2.81,.61,.4,.4,1.01,.46,1.5,.54,1.88,.37,3.68,1.06,5.46,1.75,.43,.16,.82,.44,1.25,.63,.45,.2,.92,.36,1.37,.54,.24,.1,.48,.31,.75,.21,.02,0,.07,0,.09,.02,.24,.15,.47,.33,.73,.43,.23,.09,.5,.06,.74,.12,.29,.08,.58,.21,.86,.33,.27,.12,.58,.21,.72,.47,.31-.1,.56,.16,.83,.28,.26,.11,.5,.26,.75,.39l.85,.44c.28,.15,.56,.31,.85,.43,.4,.17,.82,.29,1.2,.5,.41,.21,.81,.45,1.19,.7,.48,.32,.93,.67,1.41,.99,.2,.13,.4,.19,.64,.24,.31,.07,.77,.1,.93,.58,.03,.1,.27,.24,.43,.29,1.19,.43,2.14,1.3,3.16,2,.41,.6,1.02,.88,1.63,1.26,.91,.53,1.79,1.22,2.47,1.99,.72,.83,1.62,1.41,2.35,2.19,.21,.22,.5,.38,.54,.71,0,.08,.18,.22,.3,.28,.78,.44,1.36,1.06,1.88,1.78,.27,.39,.71,.69,1.12,1.01,.62,.47,1.13,1.15,1.68,1.75,.04,.44,.42,.46,.63,.51,.27,.08,.44,.22,.64,.43,.25,.27,.45,.57,.82,.72,.19,.08,.45,.4,.51,.61,.09,.28,.19,.32,.42,.44,.26,.15,.28,.54,.53,.8,.27,.28,.66,.53,.68,.96,0,.04,.08,.12,.13,.15,.68,.34,.85,1.14,1.42,1.58,1.19,1.77,2.85,3.14,4.28,4.67,.59,.63,1.1,1.38,1.83,1.84,1.52,.97,2.81,2.2,4.32,3.14,.32,.21,.75,.33,.9,.73,.02,.06,.17,.14,.25,.16,.6,.09,1.04,.4,1.46,.83,.1,.1,.33,.21,.44,.19,.29-.06,.5,.13,.72,.25,.27,.13,.57,.44,.77,.43,.43-.02,.54,.26,.8,.4,.16,.09,.36,.11,.55,.16,.09,.02,.22-.01,.26,.02,.49,.4,1.13,.3,1.67,.53,.11,.05,.24,.08,.35,.14,.62,.33,.95,.45,1.33,.56,.17,.05,.55,.09,.93,.13,.21,.02,.43,.04,.69,.06,.25,.03,.58,.04,1.01,.04,.22,.17,.66,.16,1.22,.14,.54-.02,1.16-.06,1.28,.07,.04,.04,.19,.07,.4,.08,0,.04,0,.08,.02,.11,.02,.03-.09,.11-.1,.15-.28,.41-.95,.96-1.62,1.49-.67,.52-1.33,1.03-1.99,1.54-.14,.1-.31,.16-.47,.22-.08,.03-.16,.07-.22,.12-.05,.04-.09,.09-.13,.17-.06,.12-.48,.17-.69,.31-.3,.21-.68,.33-.9,.67-.09,.15-.41,.24-.62,.37-.29,.18-.62,.27-.84,.58-.12,.17-.5,.39-.73,.39-.95,.03-1.55,.63-2.25,1.07-.21,.13-.37,.21-.63,.24-.37,.05-.85,.11-1.08,.3-.41,.32-.87,.44-1.33,.56l-2.39,.65c-.92,.22-1.85,.3-2.75,.66-.49,.17-1.15,.34-1.74,.13-.06-.02-.27,.17-.42,.19-1.17,.19-2.35,.24-3.52,.33-.27,.02-.58-.27-.82-.03-.25,.25-.56-.22-.77,.08-.03,.04-.28,.05-.41,.02-1.38-.23-2.79-.06-4.18-.14-.33-.03-.71,.07-.97-.19-.86,.23-1.76-.36-2.61,0-.6-.12-1.26,.06-1.81-.28-.09-.05-.3,0-.4-.06-.35-.18-.62,.23-1.04-.04-.24-.16-.73-.13-1.1-.18l-1.05-.13-1.15-.16c-.38-.05-.77-.12-1.15-.15-.78-.08-1.56-.02-2.34-.22-.08-.02-.23-.01-.27,.03-.33,.33-.69,.05-.93-.1-.21-.13-.39-.2-.63-.24-.66-.12-1.32-.22-1.97-.37-.39-.09-.83-.05-1.15-.36-.1-.1-.42-.14-.6-.13-.87,.07-1.7-.26-2.54-.43-.38-.07-.76-.18-1.14-.29-.29-.08-.62,0-.86-.23-1.48-.09-2.85-.74-4.25-1.22-1.4-.47-2.75-1.08-4.07-1.76-.33-.17-.76-.25-.93-.64-.03-.07-.27-.2-.36-.19-.25,.01-.44,0-.56-.28-.02-.05-.22-.12-.33-.15-.31-.07-.54-.22-.76-.47-.17-.2-.42-.42-.65-.51-.62-.23-1.18-.51-1.55-1.1-.04-.07-.32-.07-.43-.17-.42-.36-.95-.62-1.24-1.13-.12-.21-.41-.38-.6-.58-.33-.35-.77-.55-1.08-.96-.32-.41-.76-.76-1.13-1.14-.38-.38-.74-.78-1.11-1.17l-1.07-1.2-1.03-1.22-1-1.24-.97-1.26c-.22-.3-.4-.59-.55-.95-.36-.92-1.06-1.82-2.03-2.86-.07-.07-.12-.17-.18-.26-.79-1.12-1.6-2.23-2.29-3.41-.31-.52-.54-1.08-.89-1.58-.23-.33-.41-.68-.76-.93-.29-.21-.35-.73-.75-.93-.15-.07-.35-.4-.39-.59-.14-.65-.58-1.15-.9-1.71-.37-.64-.75-1.27-1.14-1.9-.19-.31-.31-.66-.66-.88-.17-.11-.34-.52-.4-.79-.1-.42-.32-.76-.56-1.07-.51-.67-.53-.65-.8-1.43-.03-.09-.08-.19-.13-.28-.49-.89-.91-1.85-1.48-2.67-.48-.68-.85-1.4-1.24-2.12-.15-.29-.42-.57-.32-.93,.01-.05-.07-.21-.14-.27-.55-.49-.75-1.21-1.07-1.85-.31-.61-.78-1.09-1.03-1.75-.24-.62-.56-1.21-.84-1.82-.42-.92-.38-1.18,.25-1.46,.52-.23,.73-.05,1.18,.64,.94,1.45,1.52,3.08,2.2,4.3Z"/>
          </g>
          <g class="cls-13">
            <g class="cls-13">
              <path class="cls-5" d="M109.23,146.83c-2.55,2.02-5.6,3.47-7.91,5.36-.26,.19-.54,.4-.83,.61l.5-.14c1.9-.55,3.67-1.54,5.27-2.58,1.59-1.04,3.11-2.18,4.52-3.37,1.67-1.58,3.12-3.44,5.1-4.99,.22-.17,.04-.44-.04-.57-.32,0-.62-.02-.91-.07-1.44,1.44-2.84,2.93-4.49,4.23-.56,.4-.85,1.28-1.19,1.52Z"/>
              <polygon class="cls-7" points="115.01 141.06 114.95 141.05 114.73 141.26 115.01 141.06"/>
              <path class="cls-4" d="M111.44,144.57c-.48,.49-1,.92-1.54,1.31-.26,.38-.45,.79-.67,.94-2.55,2.02-5.6,3.47-7.91,5.36-.26,.19-.54,.39-.82,.6l.54-.15c1.31-.39,2.57-.98,3.74-1.65l.15-.16c.51-.59,1.21-.77,1.8-1.16,1.52-1.29,2.98-2.11,4.46-3.46,.53-.48,.89-1.23,1.56-1.72,.22-.19,.44-.35,.67-.5,.77-.8,1.57-1.59,2.49-2.31,.22-.17,.04-.44-.04-.57-.17,0-.33,0-.49-.02-.76,.56-1.48,1.18-2.24,1.77-.6,.59-1.21,1.17-1.85,1.73,.04,0,.1,0,.15-.02Z"/>
              <path class="cls-7" d="M111.08,144.25c-.1,.07-.07,.34,.21,.34,.64-.56,1.26-1.14,1.85-1.73-.64,.5-1.31,.97-2.06,1.39Z"/>
              <path class="cls-9" d="M110.5,143.3c-1.37,.9-2.37,2.18-3.63,2.75-.65,.32-1.34,.54-2.02,.64-.18,.14-.36,.27-.53,.4-2.16,1.71-4.3,3.14-6.79,3.65-2.49,.55-5.28,.5-8.04,.47-2.76,.02-5.27,.65-8.07,1.01-1.67,.07-3-.31-4.59-.64-3.93-.88-7.48-.03-11.63-.84-1.1-.22-1.65,.92-1.39,1.02,6.99,1.79,13.72,2.63,20.75,2.12,2.72-.19,5.35-.34,7.94-.38,2.59-.05,5.24-.01,7.98-.72,.29-.21,.57-.42,.83-.61,2.31-1.89,5.35-3.34,7.91-5.36,.34-.24,.63-1.12,1.19-1.52,1.65-1.3,3.05-2.79,4.49-4.23-.61-.09-1.16-.24-1.7-.24-.83,.93-1.69,1.84-2.72,2.46Z"/>
              <path class="cls-6" d="M110.5,143.3c1.03-.63,1.89-1.53,2.72-2.46-.26,0-.52,.04-.78,.14-2.76,1.36-5.09,3.82-7.58,5.72,.67-.1,1.37-.33,2.02-.64,1.26-.57,2.25-1.85,3.63-2.75Z"/>
              <path class="cls-4" d="M110.5,143.3c.98-.6,1.81-1.45,2.6-2.33-.35,.2-.69,.42-1.01,.66-1.64,1.24-3.23,2.58-5.05,3.54,1.76-1.29,3.49-2.63,5.15-4.08-2.64,1.39-4.92,3.76-7.33,5.61,.67-.1,1.36-.33,2.01-.64,1.26-.57,2.25-1.85,3.63-2.75Z"/>
              <path class="cls-3" d="M107.97,145.49c2.08-1.35,4.09-2.83,5.88-4.63-.16-.02-.31-.04-.47-.04-.1,.05-.19,.1-.28,.15-.8,.88-1.62,1.74-2.6,2.33-1.37,.9-2.37,2.18-3.63,2.75-.64,.31-1.34,.54-2.01,.64l-.5,.38c-2.21,1.75-4.38,3.21-6.94,3.71-2.16,.87-4.89,.82-7.48,.68,1.21-.05,2.44-.12,3.63-.25-1.32,.04-2.69,.04-4.03,.02-1.17,0-2.29,.13-3.41,.29-.22,.3-.58,.56-1.21,.66-.98,.14-1.94,.12-2.94,.4-.14,0-.11-.24-.39-.25,.77,.02,1.4-.13,1.94-.39-.68,.12-1.36,.21-2.07,.31-1.31,.07-2.41-.17-3.59-.42h-.39c-.64,0-1.3,.11-1.96,.2,.26,.03,.53,.06,.81,.09-.44,.11-.98,.04-1.39,0,.2-.03,.39-.06,.58-.09-.63-.07-1.23-.15-1.9-.26,.81,.13,1.66,.07,2.36,0-1.5-.1-2.89-.13-4.31-.57l.12-.03c-2.1,0-4.26,.07-6.54-.38-1.1-.22-1.66,.92-1.39,1.02,4.89,1.25,9.62,2.01,14.45,2.21-.55-.2-1.09-.39-1.61-.58-.24-.05-.46-.12-.67-.23,.22,.08,.44,.15,.67,.23,.64,.15,1.36,.16,2.05,.32,.13,.09,.55,.12,.72-.11,.95,.21,2.1,.03,3.05,.22,.06,0,.15,.07,.27,.15,.61-.02,1.21-.06,1.82-.1,3.41-.25,6.64-.39,9.9-.41-.8-.09-1.56-.22-2.25-.4-.95-.3-2.91,.12-4.59,.28-.42,.08-.68-.16-1.1-.16,1.44-.71,3.35-.33,5.02-.51,1.11-.09,2.46-.02,3.82-.08,1.36-.06,2.78-.29,3.86-.89,.88-.49,1.82-.63,2.67-.78-.19,.27-.72,.51-.98,.61-2.39,1-4.96,1.21-7.46,1.42,2.63,.17,5.21-.27,7.87-1.08-1.48,.72-3.1,.77-4.49,1.34,.13,.04,.27,.07,.41,.1,1.06-.1,2.13-.26,3.2-.54,.29-.21,.56-.41,.82-.6,2.31-1.89,5.35-3.34,7.91-5.36,.22-.15,.42-.56,.67-.94-.84,.61-1.73,1.15-2.57,1.77,.38-.18,.77-.34,1.17-.42-.76,.62-1.61,.82-2.38,1.42,.39-.37,.8-.69,1.21-1-.57,.28-1.14,.63-1.72,.96,.88-.96,2.22-1.11,3.01-2.23-.22,.17-.44,.32-.67,.46l.69-.47h-.01c.66-.5,1.23-1.12,1.73-1.7-1.13,.89-2.36,1.41-3.48,2.25l-.54,.44c.18-.16,.36-.3,.54-.44,2.51-2.02,5.27-3.71,7.84-5.66l.22-.22-.4-.06c-2.1,1.64-4.33,3.18-6.57,4.51Z"/>
            </g>
          </g>
        </g>
      </g>
    </g>
  </g>
</svg>