<?xml version="1.0" encoding="UTF-8"?>
<svg id="_Слой_2" data-name="Слой 2" xmlns="http://www.w3.org/2000/svg" xmlns:xlink="http://www.w3.org/1999/xlink" viewBox="0 0 152.86 118.85">
  <defs>
    <style>
      .cls-1 {
        fill: none;
      }

      .cls-2 {
        clip-path: url(#clippath);
      }

      .cls-3 {
        fill: #f3f9fb;
      }

      .cls-4 {
        fill: #f7fbfc;
      }

      .cls-5 {
        fill: #f8fcfd;
      }

      .cls-6 {
        fill: #f4fafb;
      }

      .cls-7 {
        fill: #f5fafb;
      }

      .cls-8 {
        fill: #eab7c9;
      }

      .cls-9 {
        fill: #fbfdfe;
      }

      .cls-10 {
        fill: #6e7c6e;
      }

      .cls-11 {
        opacity: .49;
      }

      .cls-12 {
        opacity: .8;
      }
    </style>
    <clipPath id="clippath">
      <rect class="cls-1" width="152.86" height="118.85"/>
    </clipPath>
  </defs>
  <g id="_лепестки" data-name="лепестки">
    <g class="cls-2">
      <g>
        <g class="cls-11">
          <path class="cls-10" d="M5.56,66.2c.01-.44,.13-3.01,1.85-5.33,3.66-4.95,10.87-3.71,25.14-6.56,3.59-.72,6.86-1.54,7.23-1.63,1.51-.37,3.24-.85,6.53-1.81,19.29-5.63,45.22-4.97,67.85-4.95,12.77,.01,20.64,2.92,21.7,7.05,0,16.69-16.12,20.16-30.93,27.77-11.57,5.94-19.78,8.7-26.9,10.03-3.64,.68-11.74,2.09-22.17,1.56-5.2-.26-13.41-.74-23.13-4.19-2.9-1.03-27.58-9.79-27.18-21.94Z"/>
          <path class="cls-10" d="M7.21,58.35c.98-.93,2.07-1.47,3.05-1.92,1-.41,1.93-.72,2.84-1.01,.28-.09,.49-.67,.87-.74,1.45-.24,2.86-.96,4.27-.54,1.55,.45,2.99,.35,4.31-.25,1.24-.57,2.53-.62,3.78-.94,.42-.11,.82-.27,1.38,.23,.41,.37,1.04,.31,1.37-.52,.06-.16,.28-.04,.43,0,.16,.05,.4,.34,.49,.21,1.03-1.38,2.47-.75,3.67-1.33,.3-.14,.71,.12,.81-.7,.03-.21,.32-.31,.45-.15,.34,.42,.61,.46,.9,.38,1.28-.33,2.58-.57,3.85-.91,.37-1.16,1.18-.91,1.85-1.09,.5-.13,1.09,.07,1.64,.12,.56,.05,.92-.72,1.65,0,.12,.11,.24-.2,.37-.25,.6-.24,1.23-.74,1.93-.59,.36,.08,.72,.16,1.04,.07,4.11-1.03,8.25-1.84,12.41-2.42,.36-.06,.72,0,1.03-.63,.24-.49,.9-.59,1.25-.17,.56,.68,.96,.33,1.41,.32,.83-.02,1.65-.24,2.48-.23,.49,0,.99-.56,1.51,.42,.05,.09,.21,.08,.25-.02,.45-1.03,1.06-.26,1.61-.18,.4,.06,.79,.02,1.19-.49,.38-.5,1.08-.62,1.5-.15,.57,.63,1.03,.38,1.51,.35,2.86-.12,5.72-.24,8.58-.4,1.35-.08,2.66-1,4.04-.68,.33,.08,.68-.32,.98,.39,.06,.15,.32,.06,.42-.12,.36-.64,.74-.4,1.16-.38,1.91,.1,3.85,.46,5.71-.15,1.45-.48,2.88-.27,4.32-.42,.48-.05,.96,.43,1.45,.53,.47,.1,.95,.05,1.43,.01,.28-.03,.57,.18,.85-.39,.15-.31,.56-.39,.72-.14,.55,.84,1.15,.52,1.72,.53,1.64,.05,3.28,0,4.92,.05,.4,.01,.85-.4,1.21,.47,.05,.12,.28-.16,.43-.24,.16-.09,.35-.34,.47-.22,1.05,1.13,2.19,.49,3.3,.56,2.67,.18,5.37,.21,8.03,.77,.74,.14,1.53-.45,2.26-.26,.7,.17,1.43,.3,2.12,.53,.48,.2,1.14-.02,1.32,.96,.05,.27,.4,.39,.62,.23,.85-.63,1.31,.04,1.93,.2,.39,.08,.7,.37,1.05,.57,.37,.2,.7,.29,1.39,.22,.39-.03,.51,.64,.74,.93,.22,.25,.44,.49,.67,.73,.2,.26,.41,.51,.63,.75,.23,.22,.63,.36,.83,.63,.19,.26,.34,.54,.47,.83,.13,.29,.32,.57,.32,.89,.04,.31,.11,.61,.12,.95l.02,1.03,.03,1.7c-.05,.52-.12,1.04-.2,1.56-.08,.53-.17,1.06-.28,1.59l-.54,1.54c-.2,.51-.35,1.03-.6,1.52l-.77,1.45c-1.02,1.93-2.38,3.65-3.93,5.07-.57,.52-.8,1.58-2.11,1.13-.06,1.04-.86,1.05-1.82,.74-.14-.05-.11,.36-.18,.54-.22,.53,.06,1.88-1.14,1.05-.04-.03-.07,.05-.12,.06-.48,.08-.05,1.39-.97,1.01-.57-.25-.95,.26-1.4,.45-.45,.2-.92,.39-1.29,.72-.39,.35-1.16,.06-1.12,1.16,0,.18-.64-.28-.81-.14-.89,.73-2.31,.41-2.78,1.93-.11,.35-.48,.49-.82,.39-1.22-.37-1.83,.39-2.58,1.09-.99,.91-2.14,1.61-3.78,.99-.35-.13-.54-.27-.59,.25-.03,.34-.34,.4-.56,.51-1.24,.58-2.45,1.19-3.66,1.79l-3.74,1.87c-.69,.34-1.74-.22-2.29,.44-.23,.27-.78,0-.68,.84,.01,.12-.08,.23-.16,.2-1.25-.47-1.54,1.14-2.57,1.16-.22,0-.47-.08-.69-.09-.23-.01-.54-.13-.64,.06-.88,1.62-2.6,1.39-3.86,2.17-.44,.27-1.12-.03-1.21,1.05-.01,.16-.23,.22-.36,.13-1.2-.82-1.8,.33-2.74,.32-.48,0-.79,.76-1.46-.05-.09-.1-.23,.05-.32,.15-.15,.17-.25,.53-.44,.57-.53,.1-1.22-.26-1.59,.17-.46,.53-1.03,.52-1.56,.67-.31,.09-.72-.27-1.06-.29-.32-.03-.61,.11-.91,.18-.43,.1-.85,.35-1.31,.22-.47-.13-.62,.93-1.21,.34-.45-.46-.7,.54-1.09,.72-.19,.09-.43,.01-.65-.06-.17-.05-.37-.35-.51-.3-.32,.11-.66-.02-.94,.46-.2,.33-.71-.15-1.06-.17-.36-.02-.7,.08-1.05,.13-.35,.04-.75-.11-1.04,.16-1.29,1.17-2.8,.7-4.2,.93-.36,.06-.77,.43-1.13-.41-.07-.15-.27-.15-.38-.05-1.29,1.29-2.75,.36-4.11,.73-.98,.25-1.96,.72-2.96,.58-.98-.12-1.98-.41-2.94-.02-.77,.3-1.55,.58-2.29,.31-.72-.26-1.57,1.41-2.19-.1-.76-.07-1.53-.08-2.28-.23-.63-.12-1.34,.17-1.85-.75-.19-.34-.62-.38-.91-.13-.92,.79-1.67,.4-2.4-.18-.17-.14-.49,.24-.71,.22-.68-.07-1.36-.14-2-.39-1.89-.78-4.05-.29-6.02-.86-.36-.11-.96,.43-1.22,.16-1.59-1.66-3.88-1.26-5.49-2.59-2.33-1.94-5.22-2.46-7.73-3.96-.33-.2-.35-1.02-.6-.92-.79,.32-1.1-.46-1.74-.26-1.17,.37-1.61-.57-2.44-.79-.61-.18-.86-1.02-1.88-.48-.15,.08-.32-.06-.35-.22-.25-1.27-1.78-.64-2.3-1.54-2.12-.11-3.12-1.93-4.66-3.08-.23-.16-.6-.19-.9-.31-.15-.06-.38-.08-.41-.23-.1-.53-.28-.98-.52-1.4-.24-.41-.54-.76-.84-1.15-.62-.73-1.31-1.5-1.67-2.47-.22-.67-.25-1.38-.38-2.09-.07-.35-.25-.66-.33-1-.07-.36-.06-.74,.22-1.15,.17-.25-.05-.6-.18-.89-.19-.38-.24-.78-.17-1.13,.08-.36,.31-.69,.63-.94,.64-.52,1.67-.75,2.93-.71,.92,.03,.98,.26,1.33,.48,.34,.21,.61,.39,.8,.58,.21,.19,.34,.38,.34,.61-.01,.36-.13,.86,.78,.89,.15,0,.19,.16,.11,.28-.52,.87,.38,1.28,.24,2.07-.09,.64,.26,.98,.43,1.47,.13,.43,.77,.46,.44,1.3-.11,.29,.69,.15,.92,.33,.53,.46,1.08,.9,1.51,1.47,1.4,1.72,3.89,1.92,5.5,3.33,1.88-.15,2.73,1.53,4.36,1.76,1.94,.26,3.44,1.39,5.25,1.87,.37,.1,.64,.24,.83,.64,.13,.26,.26,.54,.47,.64,.8,.39,1.66,.63,2.44,1.05,.42,.22,1.12-.13,1.14,1.02,0,.16,.21,.22,.34,.13,1.1-.73,1.67,.16,2.47,.28,.31,.05,.57,.19,.77,.65,.22,.5,.79,.63,1.26,.38,.36-.19,.6-.14,.89-.15,1.17-.04,2.06,1.31,3.43,.3,.31,1.24,1.11,1.03,1.74,.88,2.41-.58,4.49,.52,6.78,.56,.55,0,1.05,.55,1.6,.69,.57,.15,1.17,.15,1.77,.15,.32,0,.66,.39,.96-.42,.02-.06,.08-.1,.11-.08,.33,.16,.66,.48,.99,.44,.3-.04,.61-.58,.92-.72,.37-.16,.73-.16,1.1-.16,.35,0,.73-.17,.99,.57,.3-.91,.69-.44,1.04-.51,.33-.06,.66,0,1,0h1.12c.37,0,.75,.06,1.12-.04,.51-.14,1-.48,1.5-.59,.53-.12,1.07-.14,1.61-.08,.68,.08,1.36,.32,2.04,.43,.28,.05,.5-.2,.74-.55,.32-.46,.68-1.43,1.26-.25,.12,.23,.44,.13,.6-.05,1.27-1.43,2.85-.56,4.24-1.14,.94,.81,1.61,.1,2.39-.3,1.15-.6,2.29-.99,3.56-.72,1.35,.3,2.44-.37,3.68-.49,.35-.04,.6-.49,1.14,.24,.12,.17,.36,.03,.46-.13,.69-1.16,1.68-1.23,2.85-1.04,.62,.11,1.08-.46,1.52-.98,.67-.79,1.72-.8,2.61-1.18,.79,.81,.68-.3,.69-.8,.02-.67,.22-.87,.52-1.02,.39-.19,.85-.18,.97-.98,.06-.41,.53-.53,.9-.3,.49,.32,.5,.06,.63-.35,.15-.48,.88,.24,1.25,.02,.39-.24,.65-.94,1.49-.13,.08,.07,.2,0,.22-.11,.28-1.38,1.76-.29,2.31-1.13,1.4-.01,2.66-.58,3.86-1.24,1.2-.66,2.36-1.35,3.67-1.73,1.07-.29,2.42-.01,3.19-.91,1.6-1.88,3.94-2.13,5.79-3.27,.39-.24,.63-.91,1.49-.15,.12,.11,.3,0,.32-.16,.14-1.19,.83-1.22,1.75-.97,.22,.06,.49-.1,.44-.38-.14-.77,.28-.69,.54-.82,.31-.16,1.05,.13,1.03-.29-.04-.89,.63-.3,.99-.38,.22-.05,.29-.35,.39-.57,.05-.1-.04-.44,.05-.41,1.12,.34,.78-1.11,1.48-1.23,.16-.03,.25-.14,.42-.15,1-.03,1.42-.15,1.78-.4,.32-.28,.64-.69,.9-1.65,.67,.19,.72-.15,.72-.48,.01-.34-.01-.68,.52-.67,.4,0,.52-.4,.41-.74-.12-.38-.14-.68-.08-.95,.03-.28,.1-.54,.21-.79,.19-.5,.59-.95,.52-1.54-.03-.24,.86-.22,.22-.67-.24-.16,.59-.39,.61-.65,.01-.19,.17-.36,.2-.55,.02-.2-.06-.41-.47-.64-.33-.26-.05-.33-.11-.44-.04-.07,.02-.14,0-.21-.01-.08-.1-.16-.45-.14-.37,.01-.45-.08-.15-.3,.59-.44,.45-.71,.15-.73-.31-.03-.77,.15-1.02,.28-.13,.09-.16,.24-.22-.07-.09-.38-.25-.94-.66-.67-.73,.49-.93,.03-1.39-.08-.37-.1-.73-.25-1.13-.37-.39-.13-.78-.26-1.21-.31-.95-.13-1.87-.67-3-.15-.6,.28-1.33,.52-1.81-.68-.05-.13-.37,.47-.53,.46-1.29-.09-2.6-.15-3.91-.29-.3-.03-.6-1.19-.91-.28-.32,.97-.61-.95-.88,.21-.04,.17-.32,.15-.46,.03-1.6-1.24-3.38-.28-5.05-.6-.4-.08-.87,.39-1.19-.59-1.03,1.08-2.17-1.15-3.18,.58-.74-.29-1.53,.62-2.23-.54-.11-.19-.37,.09-.5-.08-.45-.58-.73,1.19-1.27,.27-.31-.53-.9-.21-1.36-.24-.43-.03-.86,0-1.29,0h-1.42c-.47,0-.95-.06-1.42,.02-.95,.18-1.88,.9-2.85,.61-.1-.03-.28,.1-.32,.28-.31,1.51-.8,.68-1.14,.24-.28-.36-.52-.53-.81-.52-.81,.03-1.63,.1-2.44,.02-.48-.05-.98,.45-1.46-.49-.15-.29-.53-.21-.75,0-.99,1.02-2.06,.45-3.08,.64-.46,.08-.93,.07-1.4,.06-.36,0-.68,.65-1.06,.05-1.68,1.27-3.46,.6-5.2,.82-1.71,.26-3.45,.3-5.17,.39-.43,.03-.86,.55-1.34-.42-.09-.18-.4-.14-.47,.06-.2,.57-.36,.87-.71,.17-.07-.13-.29,.05-.4,.2-.31,.43-.63,.41-1.03,.09-.31-.25-.71-.38-.97-.14-.68,.65-1.31,1.22-2.18,.26-.11-.12-.27,.58-.44,.57-.65-.04-1.21,.6-1.96-.11-.31-.29-.65,.01-.98-.03-.58-.07-1.02,.54-1.64,.34-.64-.21-1.23,.15-1.84,.26-.61,.12-1.23,.2-1.83,.35l-1.81,.4c-.6,.14-1.21,.25-1.8,.42l-1.77,.47-1.82,.48c-.45,.11-.9,.12-1.46-.14-1.43-.66-2.77-.15-4.28,1.11-.11,.09-.25,.08-.38,.11-1.68,.4-3.33,.95-5.06,1.07-.76,.05-1.59-.23-2.32,.01-.48,.17-1,.09-1.37,.81-.32,.6-1.07-.19-1.38,.83-.12,.37-.6,.43-.88,.2-.94-.79-1.68-.16-2.49-.13-.93,.05-1.85,.21-2.76,.4-.45,.09-.94-.16-1.29,.67-.17,.41-.75,.22-1.12-.07-.57-.43-1.06-.28-1.5,0-.95,.58-.93,.67-1.97,.22-.13-.05-.25-.04-.37-.02-1.19,.16-2.45-.01-3.37,.68-.37,.29-.77,.48-1.09,.65-.17,.08-.34,.15-.52,.21l-.44,.2c-.27,.1-.25,.61-.89-.19-.09-.11-.21-.04-.2,.09,.21,1.17-.35,.84-.61,1.18-.26,.3,.31,1.05-.03,1.27-.35,.24-.32,.71-.41,1.1-.12,.6-.68,.58-3.42,.53-2.25-.06-2.77-.41-3.05-1.6-.28-1.27,.08-2.54,.68-3.59,.6-1.07,1.43-1.9,2.11-2.72Z"/>
        </g>
        <g>
          <path class="cls-8" d="M1.14,42.92c.01-.44,.13-3.01,1.85-5.33,3.66-4.95,10.87-3.71,25.14-6.56,3.59-.72,6.86-1.54,7.23-1.63,1.51-.37,3.24-.85,6.53-1.81,19.29-5.63,45.22-4.97,67.85-4.95,12.77,.01,20.64,2.92,21.7,7.05,0,16.69-16.12,20.16-30.93,27.77-11.57,5.94-19.78,8.7-26.9,10.03-3.64,.68-11.74,2.09-22.17,1.56-5.2-.26-13.41-.74-23.13-4.19-2.9-1.03-27.58-9.79-27.18-21.94Z"/>
          <path class="cls-8" d="M3.74,36.09c1.72-1.56,3.58-2.08,5.29-2.55,.27-.07,.55-.26,.9-.34,1.38-.26,2.79-.6,4.13-.62,1.47-.03,2.91-.19,4.28-.48,1.29-.27,2.58-.42,3.86-.65,.43-.08,.85-.16,1.34-.1,.36,.05,.99-.04,1.42-.31,.08-.05,.28-.05,.43-.05,.16,0,.35,.04,.46,0,1.2-.52,2.54-.55,3.79-.92,.31-.09,.67-.08,.9-.33,.06-.06,.36-.14,.46-.12,.27,.06,.52,.03,.82-.04,1.3-.31,2.61-.57,3.9-.91,.57-.42,1.3-.51,1.98-.69,.5-.14,1.03-.19,1.55-.29,.52-.09,1.03-.4,1.57-.32,.09,.01,.27-.11,.41-.15,.63-.2,1.29-.45,1.92-.53,.32-.04,.65-.09,.96-.17,4.04-1.03,8.13-1.84,12.26-2.39,.36-.05,.7-.08,1.06-.27,.28-.15,.93-.23,1.24-.15,.48,.13,.91,0,1.35-.04,.82-.08,1.63-.21,2.45-.26,.49-.03,1.02-.21,1.46,0,.04,.02,.2,0,.25-.02,.52-.29,1.06-.14,1.6-.16,.39,0,.79-.04,1.21-.19,.41-.15,1.1-.22,1.5-.12,.53,.13,1,.04,1.48,0,2.85-.16,5.7-.29,8.55-.4,1.35-.05,2.67-.3,4.04-.25,.32,.01,.68-.09,.97,.08,.06,.04,.32,.01,.42-.04,.37-.16,.74-.11,1.16-.11,1.9,0,3.83,.07,5.7-.08,1.45-.13,2.88-.08,4.31-.12,.48-.01,.96,.11,1.45,.13,.47,.02,.95,.01,1.42,0,.28,0,.57,.05,.84-.1,.15-.08,.56-.1,.72-.03,.55,.21,1.15,.13,1.72,.14l4.92,.02c.4,0,.85-.1,1.21,.12,.05,.03,.28-.04,.43-.06,.16-.02,.35-.08,.47-.05,1.06,.28,2.18,.13,3.27,.16,2.64,.09,5.29,.24,7.91,.69,.73,.11,1.4,.06,2.11,.21,.68,.14,1.37,.31,2.04,.49,.47,.16,1.01,.21,1.38,.56,.1,.1,.44,.22,.59,.22,.6-.03,1.13,.32,1.67,.54,.34,.12,.65,.33,.97,.51,.32,.17,.64,.34,1,.47,.19,.07,.45,.36,.66,.59l.58,.54,.52,.61c.18,.18,.35,.38,.51,.6,.15,.21,.26,.44,.35,.69,.08,.23,.27,.58,.2,.87l-.04,1.42-.05,1.41-.25,1.4-.27,1.42-.48,1.37c-.18,.45-.3,.92-.52,1.36l-.68,1.28c-.9,1.72-2.15,3.22-3.51,4.57-.51,.5-1.02,1.12-1.7,1.33-.37,.59-.92,.83-1.5,.99-.08,.02-.2,.21-.31,.32-.35,.33-.53,.89-1.17,.88-.02,0-.07,.05-.11,.07-.4,.19-.48,.64-1.06,.76-.36,.07-.8,.43-1.22,.63-.43,.22-.86,.44-1.26,.69-.42,.26-.96,.39-1.26,.81-.05,.07-.45,.08-.64,.18-.95,.55-2.06,.84-2.9,1.55-.19,.17-.55,.32-.81,.38-.94,.21-1.7,.67-2.54,1.14-1.11,.62-2.32,1.22-3.58,1.45-.27,.05-.39,.05-.59,.27-.13,.14-.41,.25-.63,.36-2.5,1.16-4.93,2.44-7.43,3.66-.68,.34-1.42,.42-2.08,.83-.27,.17-.66,.22-.82,.52-.02,.04-.14,.11-.2,.12-.94,.17-1.65,.86-2.54,1.14-.19,.05-.38,.1-.57,.15-.19,.06-.43,.1-.57,.2-1.2,.82-2.64,1.17-3.96,1.75-.45,.19-1,.26-1.33,.64-.05,.06-.26,.13-.36,.13-.89,0-1.69,.52-2.54,.71-.44,.1-.87,.4-1.33,.29-.06-.01-.22,.06-.32,.11-.18,.09-.34,.21-.52,.26-.5,.13-1.08,.16-1.5,.35-.52,.24-1.05,.34-1.57,.47-.3,.08-.63,.04-.94,.09-.3,.04-.59,.13-.89,.19-.42,.1-.86,.22-1.28,.25-.43,.03-.72,.34-1.21,.26-.38-.07-.74,.24-1.14,.33-.2,.05-.41,.05-.62,.06-.16,0-.31-.05-.45-.02-.32,.06-.63,.07-.96,.23-.23,.11-.67,.04-1.01,.07-.34,.03-.69,.09-1.03,.13-.34,.04-.72,.04-1.03,.13-1.35,.41-2.78,.4-4.17,.52-.36,.04-.77,.15-1.09-.05-.06-.04-.26-.03-.37,0-1.31,.38-2.71,.18-4.06,.29-.96,.06-1.91,.19-2.9,.13-.96-.04-1.94-.15-2.86-.08-.76,.05-1.51,.09-2.24-.02-.72-.1-1.45,.28-2.13-.14-.74-.06-1.48-.12-2.22-.21-.62-.07-1.26-.07-1.84-.35-.21-.11-.63-.16-.88-.12-.8,.12-1.54-.07-2.3-.31-.18-.06-.43,0-.64-.03-.65-.1-1.3-.22-1.93-.38-1.88-.49-3.8-.72-5.67-1.27-.34-.11-.77-.06-1.06-.19-1.76-.84-3.7-1.23-5.42-2.08-2.52-1.25-5.15-2.21-7.63-3.52-.32-.17-.58-.5-.76-.54-.55-.11-1.03-.51-1.48-.62-.82-.19-1.44-.72-2.16-1.07-.52-.27-.98-.71-1.56-.79-.09-.01-.25-.13-.33-.21-.6-.66-1.49-.85-2.13-1.44-1.49-.72-2.7-1.94-3.95-3.07-.19-.16-.4-.29-.6-.45-.1-.08-.23-.16-.29-.25-.84-1.32-2.02-2.43-2.75-3.9-.22-.5-.41-.98-.56-1.5l-.29-.77c-.07-.27-.11-.54-.09-.81,.01-.17-.1-.46-.15-.69-.08-.31-.12-.6-.13-.86,0-.27,.06-.51,.14-.71,.15-.4,.4-.61,.72-.61,.23,0,.25,.23,.34,.47,.09,.23,.16,.45,.22,.68,.08,.23,.14,.47,.18,.74,.04,.42,.14,.89,.44,1.19,.04,.05,.12,.23,.13,.33,.07,.75,.58,1.43,.83,2.09,.19,.52,.49,.92,.78,1.36,.22,.38,.61,.65,.74,1.11,.04,.16,.46,.37,.68,.58,.52,.51,1.04,1.02,1.56,1.52,1.6,1.54,3.56,2.55,5.36,3.8,1.47,.6,2.76,1.63,4.21,2.25,1.75,.74,3.42,1.64,5.17,2.35,.36,.15,.64,.28,.93,.48,.19,.13,.39,.28,.6,.37l2.5,1.03c.44,.19,1,.25,1.31,.64,.04,.06,.25,.13,.35,.13,.83,.03,1.59,.46,2.38,.69,.3,.09,.58,.2,.88,.39,.32,.21,.88,.37,1.28,.39,.3,.02,.55,.08,.83,.14,1.14,.23,2.24,.8,3.42,.73,.52,.41,1.26,.48,1.87,.53,2.32,.2,4.58,.75,6.9,.94,.56,.05,1.11,.23,1.67,.3,.59,.08,1.2,.11,1.8,.14,.32,.01,.69,.13,.95-.06,.02-.01,.08-.02,.11-.02,.34,.05,.68,.15,1.02,.15,.3,0,.59-.12,.9-.14,.37-.03,.75-.02,1.12,0,.36,0,.75-.02,1.04,.17,.29-.22,.7-.1,1.06-.11,.34-.01,.68,.01,1.03,0h1.16c.39,0,.77,0,1.15-.02,.52-.04,1.04-.13,1.56-.18,.55-.05,1.11-.07,1.66-.08h2.08c.29,0,.53-.08,.8-.19,.36-.14,.81-.41,1.31-.16,.1,.05,.44,0,.62-.06,1.44-.48,2.98-.41,4.45-.74,.85,.11,1.62-.18,2.45-.39,1.23-.32,2.5-.62,3.73-.77,1.3-.15,2.51-.58,3.76-.88,.35-.09,.7-.29,1.06-.18,.08,.03,.34-.07,.47-.14,.93-.53,1.91-.8,2.96-1.02,.56-.11,1.12-.43,1.68-.72,.83-.45,1.81-.74,2.72-1.12,.49,.08,.7-.29,.85-.48,.21-.25,.45-.39,.76-.53,.41-.18,.83-.31,1.16-.65,.17-.17,.63-.36,.89-.38,.35-.02,.43-.12,.67-.32,.28-.23,.71-.17,1.11-.37,.42-.21,.86-.56,1.36-.5,.04,0,.17-.06,.22-.11,.66-.64,1.63-.65,2.35-1.16,2.46-.91,4.79-2.34,7.23-3.34,1.01-.41,2.1-.68,3.02-1.24,1.94-1.17,4.07-1.93,6.04-2.98,.42-.22,.85-.57,1.35-.53,.07,0,.26-.09,.33-.17,.5-.55,1.14-.81,1.84-1.01,.17-.05,.45-.2,.51-.32,.16-.31,.48-.43,.75-.59,.32-.19,.84-.32,.98-.52,.31-.41,.64-.39,.96-.57,.2-.11,.37-.3,.54-.46,.08-.08,.15-.22,.21-.24,.75-.23,1.09-.97,1.69-1.37,.13-.09,.25-.2,.38-.28,.77-.43,1.06-.74,1.42-1.06,.32-.36,.75-.72,1.28-1.66,.59-.3,.66-1.09,1.16-1.52,.19-.16,.38-.57,.46-.86,.09-.31,.2-.61,.33-.9l.32-.91c.2-.61,.53-1.19,.6-1.83,.03-.27,.29-.42,.18-.79-.04-.14,.23-.53,.29-.83,.03-.21,.11-.42,.14-.64,.01-.22,0-.44-.09-.67-.08-.18,.02-.56,.02-.84,0-.37,.11-.83-.05-1.12-.03-.06-.08-.09-.11-.17-.05-.13-.07-.27-.07-.38-.07-.93-.99-1.38-1.71-1.78-.24-.12-.4-.2-.6-.4-.3-.25-.72-.61-1.04-.65-.59-.06-1.02-.37-1.54-.53-.44-.16-.88-.32-1.34-.46-.45-.14-.91-.29-1.38-.38-1.06-.24-2.12-.54-3.25-.54-.61,0-1.39-.04-2.01-.38-.07-.04-.35,.09-.52,.07-1.38-.14-2.78-.22-4.18-.3-.32-.02-.67-.32-.97-.1-.32,.24-.65-.24-.92,.04-.04,.04-.33,.03-.48,0-1.65-.32-3.39-.08-5.07-.16-.41-.02-.87,.1-1.19-.15-1.03,.27-2.17-.29-3.18,.14-.74-.07-1.53,.15-2.24-.14-.11-.05-.37,.02-.5-.02-.45-.15-.73,.3-1.27,.07-.31-.13-.9-.05-1.37-.06h-1.29s-1.42,0-1.42,0c-.47,0-.95-.01-1.42,.01-.96,.05-1.89,.23-2.87,.17-.1,0-.29,.03-.32,.07-.33,.38-.82,.18-1.15,.07-.28-.09-.51-.13-.82-.12-.82,.02-1.64,.04-2.46,.03-.49,0-1,.13-1.46-.1-.14-.07-.53-.04-.75,.02-1.02,.28-2.08,.15-3.12,.23-.47,.03-.95,.04-1.42,.06-.36,0-.71,.18-1.08,.04-1.74,.36-3.53,.29-5.3,.41l-5.27,.39c-.44,.04-.92,.2-1.33-.01-.08-.04-.39,0-.48,.05-.24,.16-.43,.25-.73,.09-.06-.03-.29,.03-.42,.08-.35,.13-.67,.15-1.05,.11-.3-.04-.69-.03-.97,.05-.74,.23-1.44,.44-2.23,.26-.1-.02-.33,.18-.5,.19-.65,.06-1.3,.3-1.97,.19-.28-.04-.66,.08-.99,.1-.57,.05-1.09,.25-1.7,.29-.61,.03-1.26,.21-1.89,.33-.63,.12-1.27,.21-1.89,.36l-1.88,.41c-.62,.15-1.26,.26-1.87,.43l-1.85,.49-1.86,.5c-.44,.12-.86,.21-1.33,.23-1.2,.07-2.56,.48-4.19,1.14-.12,.05-.25,.07-.38,.11-1.65,.4-3.3,.8-4.96,1.11-.73,.13-1.48,.19-2.21,.37-.48,.13-.96,.16-1.42,.41-.38,.21-.99,.09-1.42,.41-.16,.12-.62,.19-.86,.16-.81-.11-1.59,.16-2.38,.25-.9,.11-1.81,.26-2.71,.39-.44,.07-.9,.05-1.32,.3-.21,.12-.75,.13-1.09,.09-.52-.06-1.02,.03-1.48,.14-1,.24-.98,.26-1.99,.25-.12,0-.25,.02-.37,.03-1.23,.17-2.49,.27-3.62,.64-.93,.31-1.84,.54-2.68,.9-.35,.12-.65,.41-1.04,.33-.06-.01-.24,.08-.3,.15-.48,.63-1.17,.95-1.66,1.54-.5,.54-.67,1.23-1.03,1.87-.35,.61-.54,1.32-.68,2.02-.2,1.07-.29,1.27-.99,1.25-.55-.02-.71-.34-.65-1.38,.08-1.1,.42-2.18,.94-3.11,.5-.94,1.18-1.71,1.83-2.35Z"/>
        </g>
        <g class="cls-12">
          <g class="cls-12">
            <path class="cls-5" d="M17.54,86.92c-2.07-1.05-3.61-3.03-5.61-3.52-.22-.07-.44-.12-.67-.18l.24,.24c1.77,1.82,4.01,3.53,6.46,4.65,1.58,.58,3.31,.79,5.01,1.45,.19,.08,.31-.22,.37-.36-.11-.25-.18-.5-.24-.76-1.4-.29-2.83-.63-4.16-1.31-.42-.25-1.15-.05-1.4-.22Z"/>
            <polygon class="cls-7" points="23.14 88.5 23.13 88.45 22.92 88.4 23.14 88.5"/>
            <path class="cls-4" d="M19.71,87.58c-.47-.13-.91-.34-1.31-.58-.34-.02-.7,.02-.85-.08-2.07-1.05-3.61-3.03-5.61-3.52-.22-.06-.44-.12-.66-.18l.25,.26c.62,.63,1.28,1.25,2,1.83l.15,.04c.54,.11,.79,.59,1.2,.89,1.28,.63,2.19,1.43,3.55,1.96,.48,.19,1.13,.1,1.66,.39,.19,.08,.37,.17,.54,.28,.79,.19,1.58,.41,2.37,.71,.19,.07,.31-.22,.37-.36-.06-.13-.1-.26-.14-.4-.61-.27-1.24-.49-1.86-.78-.58-.15-1.15-.34-1.7-.57,0,.04,.03,.07,.05,.11Z"/>
            <path class="cls-7" d="M19.87,87.12c-.07-.04-.27,.12-.21,.34,.56,.23,1.13,.42,1.7,.57-.52-.24-1.03-.52-1.5-.91Z"/>
            <path class="cls-9" d="M20.43,86.17c-.93-.61-2.08-.78-2.73-1.51-.35-.36-.63-.81-.82-1.3-.13-.08-.26-.16-.39-.24-1.66-.93-3.29-1.99-4.86-3.11-1.55-1.12-3-2.33-4.18-3.72-1.23-1.33-2.68-2.22-3.96-3.67-.65-.93-.7-1.91-.86-2.98-.16-1.35-.6-2.46-1.08-3.67-.47-1.2-.97-2.5-1.05-3.96-.03-.78-1.26-1.06-1.3-.86-.07,2.62,.11,5.11,.72,7.54,.61,2.41,1.67,4.76,3.37,6.7,2.6,2.98,5.45,5.24,7.97,7.83,.23,.06,.45,.12,.67,.18,2,.48,3.54,2.47,5.61,3.52,.25,.16,.98-.03,1.4,.22,1.33,.67,2.76,1.01,4.16,1.31-.12-.52-.17-1.05-.31-1.47-.84-.12-1.68-.31-2.35-.8Z"/>
            <path class="cls-6" d="M20.43,86.17c.67,.49,1.51,.68,2.35,.8-.07-.21-.16-.38-.29-.53-1.56-1.38-3.73-1.99-5.61-3.08,.19,.48,.47,.94,.82,1.3,.65,.73,1.79,.9,2.73,1.51Z"/>
            <path class="cls-4" d="M20.43,86.17c.64,.47,1.44,.66,2.24,.79-.23-.16-.46-.31-.7-.42-1.24-.6-2.53-1.2-3.56-2.16,1.27,.76,2.58,1.46,3.95,1.94-1.55-1.28-3.66-1.89-5.47-2.94,.19,.48,.47,.93,.82,1.29,.65,.73,1.79,.9,2.73,1.51Z"/>
            <path class="cls-3" d="M18.33,85.26c1.39,1,2.91,1.85,4.61,2.22-.03-.14-.06-.27-.09-.39-.06-.05-.12-.09-.18-.13-.8-.12-1.6-.31-2.24-.79-.93-.61-2.08-.78-2.73-1.51-.35-.36-.63-.81-.82-1.29l-.37-.22c-1.69-.95-3.37-2.03-4.96-3.18-1.6-.69-3.01-1.91-4.08-3.29,.58,.56,1.22,1.08,1.9,1.56-.69-.6-1.33-1.24-1.91-1.92-.52-.57-1.09-1.04-1.66-1.53-.32,.08-.67,.05-.99-.24-.5-.45-.84-.99-1.43-1.43-.05-.08,.17-.19,.08-.35,.25,.46,.61,.73,1.02,.88-.35-.3-.67-.64-1-1-.51-.73-.64-1.5-.77-2.3l-.12-.23c-.19-.38-.46-.75-.74-1.12,.05,.17,.09,.35,.14,.53-.22-.23-.33-.59-.38-.86,.08,.11,.16,.22,.24,.33-.1-.42-.2-.82-.27-1.27,.09,.55,.37,1.06,.65,1.46-.33-.94-.66-1.83-.6-2.84l.05,.07c-.51-1.32-1.11-2.73-1.21-4.36-.03-.78-1.26-1.06-1.3-.86-.09,3.64,.3,7.1,1.69,10.35,0-.43,.02-.86,.02-1.28-.03-.17-.02-.35,.02-.52,0,.17-.02,.35-.02,.52,.06,.47,.27,.94,.35,1.45-.04,.12,.08,.4,.34,.41,.12,.71,.7,1.33,.91,2.01,.02,.04,0,.13-.03,.25,.27,.35,.53,.71,.83,1.04,1.62,1.87,3.36,3.43,5.03,4.99-.34-.46-.64-.92-.87-1.4-.27-.69-1.52-1.37-2.41-2.19-.25-.18-.19-.47-.37-.71,1.16,.34,1.75,1.57,2.71,2.28,1.2,.97,2.6,2.76,4.25,3.37,.68,.25,1.06,.85,1.36,1.39-.25,0-.56-.24-.71-.36-1.36-1.09-2.73-2.18-4.14-3.25,1.22,1.42,2.75,2.34,3.98,3.73-.89-.61-1.51-1.51-2.53-1.84,.03,.1,.07,.19,.11,.29,.52,.5,1.03,.99,1.53,1.5,.22,.06,.45,.11,.66,.18,2,.48,3.54,2.47,5.61,3.52,.16,.1,.51,.06,.85,.08-.64-.37-1.21-.83-1.84-1.21,.21,.22,.4,.46,.54,.74-.62-.32-.92-.91-1.52-1.25,.35,.14,.68,.31,.99,.51-.31-.33-.68-.61-1.03-.93,.89,.26,1.24,1.27,2.25,1.37-.17-.09-.33-.2-.48-.32l.49,.32h-.01c.51,.28,1.1,.43,1.64,.54-.9-.45-1.52-1.18-2.36-1.68-.14-.07-.29-.15-.43-.22,.15,.07,.29,.14,.43,.22,1.98,1.05,3.78,2.41,5.87,3.32l.21,.04-.08-.35c-1.72-.7-3.32-1.69-4.73-2.83Z"/>
          </g>
        </g>
        <g class="cls-12">
          <g class="cls-12">
            <path class="cls-5" d="M47.91,90.07c-1.34,.12-2.76-.64-3.89,.13-.13,.07-.25,.16-.38,.24l.2,.06c1.49,.45,3.11,.59,4.63,.41,.94-.23,1.88-.78,2.92-.69,.12,.01,.12-.3,.13-.46-.11-.2-.2-.42-.29-.64-.84,.17-1.68,.45-2.55,.47-.29-.03-.59,.5-.77,.48Z"/>
            <polygon class="cls-7" points="51.26 89.15 51.24 89.11 51.12 89.14 51.26 89.15"/>
            <path class="cls-4" d="M49.2,89.63c-.28,.09-.56,.11-.84,.09-.18,.15-.34,.35-.45,.34-1.34,.12-2.76-.64-3.89,.13-.13,.07-.25,.15-.38,.24,.07,.02,.14,.04,.21,.06,.52,.15,1.05,.27,1.59,.35l.09-.05c.3-.21,.58,.05,.87,.08,.82-.17,1.51,.05,2.33-.11,.29-.05,.59-.42,.94-.39,.12,0,.23,0,.34,.03,.45-.14,.91-.24,1.4-.19,.12,0,.12-.3,.13-.46-.06-.11-.11-.22-.16-.33-.39-.06-.79-.05-1.19-.07-.35,.08-.69,.15-1.05,.19,.01,.03,.03,.05,.06,.08Z"/>
            <path class="cls-7" d="M49.16,89.15s-.11,.22-.01,.4c.35-.04,.7-.11,1.05-.19-.34-.02-.68-.06-1.03-.2Z"/>
            <path class="cls-9" d="M49.19,88.05c-.69-.14-1.34,.28-1.91-.01-.3-.13-.59-.36-.85-.67-.1,0-.19,.01-.28,.02-2.32,.27-4.63,.38-6.92,.02-1.15-.1-2.21,.44-3.39,.81-.7,.1-1.26-.27-1.94-.49-1.69-.62-3.18,.71-4.92,1.15-.47,.12-.55,1.37-.44,1.39,2.93-.53,5.68,.03,8.6-.35,2.26-.26,4.39-.09,6.5,.53,.13-.09,.26-.17,.38-.24,1.13-.77,2.55-.01,3.89-.13,.17,.02,.48-.51,.77-.48,.87-.02,1.71-.3,2.55-.47-.18-.46-.33-.93-.51-1.27-.51,.18-1.02,.35-1.53,.21Z"/>
            <path class="cls-6" d="M49.19,88.05c.5,.14,1.02-.02,1.53-.21-.09-.17-.19-.3-.3-.39-1.27-.7-2.68-.18-3.99-.08,.26,.31,.55,.54,.85,.67,.57,.29,1.22-.13,1.91,.01Z"/>
            <path class="cls-4" d="M49.19,88.05c.48,.14,.97,0,1.46-.18-.17-.07-.34-.11-.51-.13-.86-.08-1.73,0-2.59-.31,.92,.01,1.83,.03,2.75-.05-1.24-.6-2.6-.1-3.87,0,.26,.3,.55,.53,.85,.66,.57,.29,1.22-.13,1.91,.01Z"/>
            <path class="cls-3" d="M47.79,88.24c1.04,.17,2.08,.26,3.13,.02-.05-.12-.1-.23-.15-.33-.05-.02-.09-.04-.13-.06-.49,.17-.98,.32-1.46,.18-.69-.14-1.34,.28-1.91-.01-.3-.13-.59-.36-.85-.66-.09,0-.18,0-.26,.01-1.18,.14-2.36,.23-3.54,.25-1.02,.4-2.14,.3-3.22,.02,.51,0,1.01-.01,1.52-.07-.56-.04-1.12-.1-1.68-.18-.49-.04-.96,.03-1.43,.15-.1,.29-.25,.54-.51,.62-.41,.12-.81,.09-1.23,.37-.06,0-.05-.24-.16-.25,.32,.03,.59-.13,.82-.38-.29,.1-.59,.2-.87,.3-.55,.08-1.01-.13-1.51-.33-.06,0-.11,.02-.16,.03-.27,.04-.55,.17-.82,.32,.11,.01,.22,.02,.34,.03-.18,.14-.41,.12-.58,.11,.08-.05,.16-.09,.24-.14-.27-.02-.52-.05-.81-.07,.34,.03,.7-.1,.99-.23-.64,.02-1.22,.13-1.84-.08l.05-.04c-.89,.31-1.78,.83-2.75,1.07-.47,.12-.55,1.37-.44,1.39,2.05-.37,4-.21,5.99-.21-.22-.17-.45-.34-.67-.5-.1-.04-.19-.1-.28-.19,.09,.06,.19,.13,.28,.19,.27,.11,.56,.08,.85,.22,.05,.08,.23,.1,.3-.13,.4,.19,.87,0,1.26,.19,.02,0,.06,.07,.11,.15,.25-.02,.5-.05,.76-.08,1.41-.16,2.77-.16,4.11,.02-.32-.15-.63-.32-.92-.53-.39-.35-1.21-.03-1.91,.07-.18,.06-.28-.18-.45-.2,.61-.66,1.4-.19,2.1-.29,.93-.08,2.23,.51,3.24,.05,.41-.2,.81,.07,1.14,.34-.12,.15-.35,.13-.47,.12-1.04-.09-2.08-.18-3.12-.12,1.09,.33,2.13,.19,3.22,.6-.64,.02-1.26-.35-1.85,0,.05,.06,.1,.11,.15,.16,.42,.09,.84,.19,1.25,.31,.13-.09,.25-.17,.38-.24,1.13-.77,2.55-.01,3.89-.13,.11,.01,.27-.2,.45-.34-.43-.02-.86-.12-1.3-.12,.17,.08,.34,.19,.5,.36-.41,.04-.74-.3-1.15-.26,.22-.07,.43-.1,.65-.1-.26-.12-.54-.16-.81-.23,.53-.27,1.02,.4,1.56-.02-.11,0-.23,0-.34-.04l.35,.03h0c.35,0,.69-.16,1-.31-.6,.02-1.14-.31-1.73-.3-.09,.01-.19,.03-.29,.04,.1-.02,.19-.04,.29-.04,1.34-.14,2.69,.23,4.03,.39l.13-.03-.12-.31c-1.11-.09-2.24-.27-3.33-.56Z"/>
          </g>
        </g>
        <g class="cls-12">
          <g class="cls-12">
            <path class="cls-5" d="M116.88,70.6c1.02-.56,2.44-.35,3.04-1.44,.07-.11,.14-.23,.21-.35h-.18c-1.36,.11-2.7,.53-3.83,1.21-.65,.53-1.19,1.36-2.05,1.63-.1,.03,.02,.32,.07,.47,.16,.15,.32,.32,.47,.49,.6-.45,1.16-.99,1.85-1.3,.24-.07,.28-.66,.42-.71Z"/>
            <polygon class="cls-7" points="114.56 72.58 114.59 72.62 114.68 72.55 114.56 72.58"/>
            <path class="cls-4" d="M116.02,71.44c.19-.18,.4-.29,.63-.37,.09-.2,.14-.44,.23-.47,1.02-.56,2.44-.35,3.04-1.44,.07-.11,.14-.23,.21-.35-.06,0-.13,0-.19,.02-.47,.03-.94,.11-1.39,.21l-.05,.07c-.15,.3-.48,.15-.72,.22-.59,.43-1.22,.46-1.8,.89-.21,.15-.31,.59-.6,.68-.09,.05-.19,.07-.28,.09-.31,.28-.64,.53-1.04,.65-.1,.03,.02,.32,.07,.47,.08,.08,.17,.16,.25,.25,.34-.08,.64-.22,.97-.34,.24-.19,.49-.38,.76-.54-.02-.02-.05-.04-.08-.05Z"/>
            <path class="cls-7" d="M116.24,71.87s0-.24-.14-.37c-.26,.16-.51,.34-.76,.54,.27-.1,.56-.17,.9-.16Z"/>
            <path class="cls-9" d="M116.63,72.9c.6-.11,.96-.71,1.52-.64,.29,.02,.61,.13,.94,.33,.08-.04,.15-.07,.22-.11,1.74-1.04,3.55-1.93,5.52-2.38,.96-.3,1.59-1.16,2.38-1.9,.52-.33,1.11-.18,1.72-.19,1.53,.07,2.14-1.57,3.59-2.22,.37-.16,.32-1.42,.22-1.42-2.7,.8-5.06,1.41-7.24,2.71-1.69,1.01-3.45,1.57-5.37,1.72-.07,.12-.14,.24-.21,.35-.6,1.09-2.02,.88-3.04,1.44-.14,.04-.19,.63-.42,.71-.68,.31-1.24,.85-1.85,1.3,.32,.37,.61,.75,.89,1,.34-.35,.68-.67,1.14-.71Z"/>
            <path class="cls-6" d="M116.63,72.9c-.46,.04-.8,.37-1.14,.71,.13,.12,.26,.22,.39,.26,1.28,.21,2.21-.75,3.21-1.29-.33-.19-.65-.31-.94-.33-.56-.07-.92,.53-1.52,.64Z"/>
            <path class="cls-4" d="M116.63,72.9c-.44,.04-.77,.34-1.09,.67,.16,0,.31-.01,.45-.05,.72-.22,1.38-.6,2.18-.6-.74,.3-1.47,.6-2.18,.99,1.22,.13,2.12-.79,3.09-1.32-.32-.19-.65-.31-.93-.32-.56-.07-.92,.53-1.52,.64Z"/>
            <path class="cls-3" d="M117.67,72.24c-.89,.2-1.75,.47-2.5,1.05,.08,.09,.16,.18,.24,.26,.05,0,.09,0,.13,0,.32-.33,.66-.63,1.09-.67,.6-.11,.96-.71,1.52-.64,.29,.02,.61,.13,.93,.32,.07-.04,.14-.07,.21-.1,.89-.53,1.8-1.02,2.73-1.44,.66-.71,1.59-1,2.56-1.12-.41,.16-.8,.35-1.19,.58,.46-.16,.93-.3,1.42-.41,.41-.13,.75-.35,1.08-.63-.04-.3-.02-.58,.16-.75,.28-.25,.61-.36,.84-.76,.05-.01,.13,.21,.23,.18-.27,.08-.41,.32-.5,.63,.19-.19,.39-.39,.57-.57,.41-.26,.86-.22,1.33-.2,.04-.03,.08-.05,.12-.08,.2-.12,.36-.33,.52-.56-.09,.03-.18,.05-.28,.08,.09-.19,.28-.24,.42-.28l-.14,.2c.22-.06,.43-.11,.66-.17-.28,.07-.51,.29-.69,.5,.48-.21,.91-.48,1.46-.43l-.02,.05c.58-.5,1.16-1.19,1.94-1.54,.37-.16,.33-1.42,.22-1.42-1.9,.56-3.59,1.04-5.21,1.7,.25,.08,.5,.16,.74,.24,.1,0,.2,.03,.3,.09-.1-.03-.2-.06-.3-.09-.26-.01-.49,.11-.78,.08-.08-.06-.22-.01-.19,.22-.39-.04-.69,.3-1.08,.26-.02,0-.08-.04-.15-.1-.19,.1-.38,.21-.57,.33-1.06,.63-2.14,1.09-3.28,1.38,.31,.03,.63,.08,.94,.18,.45,.19,.98-.39,1.49-.71,.12-.12,.3,.07,.44,.03-.22,.81-1.04,.65-1.55,.98-.71,.39-1.98,.29-2.59,1.06-.25,.33-.67,.21-1.04,.08,.04-.18,.23-.24,.33-.27,.86-.27,1.72-.54,2.53-.95-.99,.06-1.77,.55-2.79,.54,.5-.24,1.14-.11,1.47-.63-.06-.04-.12-.07-.19-.1-.37,.06-.74,.11-1.12,.14-.07,.12-.14,.24-.21,.35-.6,1.09-2.02,.88-3.04,1.44-.09,.03-.14,.28-.23,.47,.35-.12,.73-.18,1.08-.33-.17-.01-.34-.06-.53-.16,.31-.18,.71,.03,1.01-.15-.15,.14-.31,.24-.48,.31,.25,.02,.49-.04,.74-.06-.32,.43-.97-.02-1.23,.54,.09-.04,.18-.07,.28-.08l-.29,.09h0c-.27,.12-.49,.38-.68,.62,.47-.22,1.03-.1,1.49-.31,.07-.04,.14-.09,.22-.13-.07,.06-.14,.1-.22,.13-1.01,.59-2.23,.7-3.36,1.01l-.09,.07,.21,.25c.92-.3,1.89-.51,2.86-.62Z"/>
          </g>
        </g>
      </g>
    </g>
  </g>
</svg>