<?xml version="1.0" encoding="UTF-8"?>
<svg id="_Слой_2" data-name="Слой 2" xmlns="http://www.w3.org/2000/svg" xmlns:xlink="http://www.w3.org/1999/xlink" viewBox="0 0 345.45 149.42">
  <defs>
    <style>
      .cls-1 {
        fill: none;
      }

      .cls-2 {
        clip-path: url(#clippath);
      }

      .cls-3 {
        fill: #f3f9fb;
      }

      .cls-4 {
        fill: #f7fbfc;
      }

      .cls-5 {
        fill: #f8fcfd;
      }

      .cls-6 {
        fill: #f4fafb;
      }

      .cls-7 {
        fill: #f5fafb;
      }

      .cls-8 {
        fill: #fbfdfe;
      }

      .cls-9 {
        fill: #848179;
      }

      .cls-10 {
        fill: #666361;
      }

      .cls-11 {
        fill: #42413c;
      }

      .cls-12 {
        fill: #a2dbed;
      }

      .cls-13 {
        fill: #6e7c6e;
      }

      .cls-14 {
        opacity: .58;
      }

      .cls-15 {
        opacity: .49;
      }

      .cls-16 {
        opacity: .8;
      }
    </style>
    <clipPath id="clippath">
      <rect class="cls-1" width="345.45" height="149.42"/>
    </clipPath>
  </defs>
  <g id="_камни" data-name="камни">
    <g class="cls-2">
      <g>
        <g class="cls-14">
          <path class="cls-12" d="M226.57,117.02c-1.01-.36-2.04-.72-2.87-1.41s-1.41-1.76-1.21-2.81c.33-1.72,2.35-2.42,4-2.99,5.45-1.9,10.14-5.92,12.84-11.02,.44-.83,.86-1.72,1.61-2.29,1.07-.81,2.54-.77,3.88-.7,.79,.04,1.66,.12,2.23,.68,.37,.36,.55,.88,.72,1.37,.99,2.99,1.86,6.24,.89,9.24-.49,1.53-1.44,2.88-2.53,4.06-5.13,5.55-13.05,7.32-20.47,8.77-.27,.05-.56,.11-.83,.02-.92-.3-.64-1.66-.19-2.51"/>
          <path class="cls-12" d="M224.51,116.69c-.56-.29-.99-.6-1.4-.96-.06-.05-.22-.04-.3-.12-.28-.33-.64-.66-.68-1.13-.03-.5-.1-.93-.18-1.39-.08-.45,.09-.88,.27-1.28,.06-.14,.12-.28,.33-.31,.15-.03,.29-.16,.25-.4,0-.05,.07-.06,.11-.08,.05-.02,.15,0,.16-.04,.12-.49,.6-.54,.9-.79,.08-.06,.21-.03,.19-.24,0-.05,.08-.11,.12-.07,.12,.08,.2,.07,.28,.03,.35-.17,.71-.3,1.06-.43,.09-.3,.32-.26,.5-.32,.14-.05,.29-.01,.44-.02,.15,0,.23-.21,.44-.05,.03,.03,.06-.06,.1-.07,.16-.08,.3-.23,.48-.21,.09,0,.19,0,.27-.02,1.02-.44,2.01-.95,2.94-1.55,.08-.05,.18-.07,.19-.25,0-.14,.14-.24,.27-.19,.2,.09,.26-.04,.36-.1,.19-.11,.36-.25,.55-.37,.11-.07,.15-.26,.4-.12,.02,.01,.06-.01,.05-.04-.03-.28,.21-.2,.34-.27,.1-.05,.18-.12,.19-.29,.01-.16,.14-.29,.3-.26,.22,.04,.28-.08,.38-.17,.58-.5,1.15-1.02,1.66-1.59,.24-.28,.32-.68,.62-.9,.07-.05,.06-.19,.25-.13,.04,.01,.07-.06,.05-.11-.06-.18,.05-.21,.13-.29,.33-.38,.74-.73,.9-1.23,.13-.38,.39-.67,.55-1.01,.06-.11,.23-.16,.32-.26,.09-.09,.14-.21,.2-.33,.03-.07,.11-.11,.03-.25-.05-.07-.01-.18,.06-.18,.26-.03,.26-.2,.34-.34,.22-.38,.41-.8,.67-1.2,.06-.1,.05-.27,.29-.23,.03,0,.01-.09,.02-.14,.01-.05,0-.14,.04-.14,.42-.07,.52-.41,.79-.61,.65-.46,1.43-.7,2.18-.74,.21,0,.38-.2,.59-.2,.2,0,.39-.01,.59,0,.14,.02,.29-.08,.4,.15,.03,.06,.13,.06,.17,0,.16-.21,.32-.09,.49-.11,.2-.03,.39,.13,.63-.06,.07-.05,.16,.09,.24,.12,.15,.05,.29,.1,.45,.14,.07,.02,.18-.03,.25,0,.61,.17,1.2,.75,1.45,1.29,.27,.56,.37,1.03,.54,1.52,.16,.49,.32,.98,.43,1.49,.04,.19,.26,.36,.01,.6,.22,.13,.15,.31-.02,.51-.02,.03,.07,.06,.11,.1,.11,.11,.43,.18,.13,.39-.01,0,0,.02,0,.04-.02,.13,.33,.15,.15,.34-.11,.12-.03,.26-.02,.39,.01,.13,.01,.27,.06,.4,.04,.14-.09,.3,.17,.41,.04,.02-.12,.14-.11,.2,.09,.31-.13,.63,.18,.94,.07,.07,.06,.19,0,.26-.22,.27-.12,.52-.06,.81,.07,.38,.06,.8-.33,1.09-.08,.06-.14,.08-.05,.18,.06,.07,.03,.15,0,.22-.19,.79-.51,1.54-.89,2.24-.11,.19-.41,.24-.45,.47-.02,.1-.18,.12-.05,.29,.02,.02,0,.06-.01,.07-.34,.09-.22,.49-.46,.64-.05,.03-.12,.05-.17,.08-.05,.03-.14,.04-.14,.1-.03,.49-.47,.67-.69,1.01-.08,.11-.28,.13-.19,.39,.01,.04-.03,.08-.07,.08-.38-.04-.4,.3-.62,.42-.11,.06-.12,.27-.36,.16-.03-.01-.05,.04-.06,.07-.02,.06,0,.15-.05,.18-.12,.09-.32,.09-.37,.23-.05,.18-.19,.25-.3,.35-.06,.06-.2,.02-.29,.05-.08,.03-.14,.1-.21,.15-.1,.07-.17,.18-.29,.21-.13,.03-.05,.29-.26,.23-.16-.05-.11,.22-.19,.3-.04,.04-.11,.05-.17,.06-.05,0-.13-.04-.16-.01-.07,.06-.17,.07-.19,.21-.01,.1-.19,.05-.28,.09-.09,.04-.16,.1-.24,.16-.08,.05-.19,.07-.24,.16-.2,.41-.62,.47-.94,.7-.08,.06-.14,.19-.32,.04-.03-.03-.08,0-.1,.03-.19,.43-.64,.39-.94,.64-.21,.17-.41,.38-.67,.47-.25,.08-.52,.15-.72,.34-.16,.16-.33,.31-.54,.33-.21,.02-.23,.5-.55,.23-.19,.08-.38,.15-.58,.2-.17,.04-.3,.19-.53,.05-.08-.05-.19,0-.23,.08-.13,.29-.35,.28-.59,.24-.06-.01-.09,.11-.14,.13-.17,.07-.34,.14-.52,.16-.54,.07-.97,.44-1.49,.59-.09,.03-.15,.22-.25,.2-.58-.14-1.03,.28-1.58,.24-.8-.05-1.51,.28-2.27,.39-.1,.01-.24-.14-.27-.08-.11,.19-.3,.09-.39,.23-.17,.26-.41,.16-.61,.26-.15,.07-.34-.04-.43,.24-.01,.04-.07,.04-.1,.02-.27-.19-.43,.2-.67,.14-.06,.05-.07,.08-.16,.12-.1,.04-.19,.08-.29,.11-.2,.06-.41,.11-.61,.13-.41,.03-.76-.03-1.12-.13-.1-.03-.24-.01-.35-.04-.06-.01-.14-.02-.17-.06-.4-.59-.9-1.07-.93-1.81,0-.24,.09-.48,.14-.71,.05-.23,.03-.49,.27-.67,.08-.05,.08-.18,.09-.28,.06-.54,.54-.55,1.1-.27,.2,.11,.19,.17,.24,.26,.1,.17,.14,.35,.09,.42-.04,.07-.15,.17,.06,.25,.04,.01,.02,.04-.01,.06-.24,.15-.09,.28-.23,.47-.11,.16-.06,.26-.07,.4,0,.12,.16,.11,.05,.36-.04,.1,.2,0,.27,.01,.16,.06,.33,.06,.48,.08,.24,.02,.5-.1,.72-.2,.28-.12,.57-.23,.87-.25,.37-.37,.86-.2,1.25-.43,.47-.27,1-.3,1.49-.48,.1-.04,.18-.05,.29,0,.07,.03,.14,.07,.21,.05,.24-.04,.48-.12,.72-.16,.13-.02,.24-.19,.42,.04,.02,.03,.08,.01,.1-.02,.14-.31,.41-.21,.62-.3,.08-.03,.16-.04,.28,.03,.12,.08,.28,.03,.35-.1,.06-.09,.12-.11,.19-.15,.28-.17,.67,0,.88-.39,.24,.23,.4,.07,.54-.04,.53-.43,1.18-.45,1.76-.71,.14-.06,.32,0,.48-.03,.16-.03,.31-.1,.45-.18,.08-.04,.21,.01,.19-.21,0-.02,0-.03,.02-.03,.1,0,.21,.04,.29-.01,.07-.04,.09-.2,.15-.26,.07-.08,.17-.12,.26-.17,.09-.04,.16-.13,.31,0-.02-.24,.13-.18,.21-.24,.08-.05,.17-.08,.25-.11l.28-.13c.09-.04,.19-.08,.27-.14,.11-.09,.2-.23,.31-.31,.12-.09,.25-.15,.39-.2,.18-.05,.37-.08,.55-.14,.07-.02,.1-.11,.13-.21,.03-.14,.02-.41,.29-.2,.05,.04,.12-.02,.14-.08,.18-.46,.64-.47,.92-.76,.31,.08,.41-.16,.55-.35,.21-.28,.46-.51,.8-.6,.36-.1,.55-.39,.84-.57,.08-.05,.1-.18,.31-.08,.05,.02,.09-.03,.1-.08,.04-.36,.27-.5,.57-.6,.16-.05,.21-.23,.27-.4,.07-.26,.32-.4,.48-.59,.27,.08,.12-.15,.07-.27-.07-.15-.05-.22,0-.29,.06-.09,.17-.15,.09-.34-.04-.1,.05-.18,.16-.18,.15,0,.12-.05,.09-.16-.03-.12,.22-.06,.27-.16,.05-.1,0-.28,.29-.23,.03,0,.04-.03,.03-.05-.14-.32,.31-.31,.3-.56,.56-.44,.52-1.15,.74-1.74,.1-.24,.33-.49,.24-.77-.2-.57-.03-1.12-.11-1.69-.02-.12-.15-.24,.1-.38,.03-.02,.02-.07-.01-.1-.27-.15-.2-.33-.07-.54,.03-.05,.01-.13-.05-.15-.19-.05-.13-.15-.14-.23-.01-.1,.12-.26,.02-.3-.22-.09-.02-.2,0-.3,0-.06-.06-.12-.1-.17-.02-.03-.11-.04-.09-.07,.18-.24-.18-.36-.14-.57,0-.05,0-.09,0-.13,.17-.53,.17-.53-.14-1.06,.27-.25-.25-.3-.07-.54,.07-.09,0-.2-.08-.26-.38-.25-.28-.69-.47-.96-.04-.05,.14-.18-.05-.18-.07,0,.06-.17,.02-.22-.05-.07,0-.22-.22-.15-.08,.03-.07-.05-.11-.07-.05-.02-.05-.12-.2,0-.08,.06-.13,.04-.12-.06,0-.39-.33-.16-.53-.07-.06,.02-.11,.05-.17-.01-.08-.09-.21-.2-.3-.1-.16,.17-.29,.09-.45,.09-.27,0-.52-.04-.77-.02-.28,.02-.56-.06-.8,.14-.13,.11-.27,.21-.46-.04-.02-.03-.04,.14-.08,.15-.27,.07-.49,.17-.69,.26-.05,.02-.25-.18-.16,.03,.11,.22-.23-.12-.08,.14,.02,.04-.01,.06-.05,.06-.43-.02-.47,.44-.72,.74-.07,.08-.02,.23-.27,.19,.11,.36-.52,.37-.27,.83-.17,.15-.08,.46-.43,.49-.06,0-.03,.1-.09,.11-.19,.04,.16,.34-.12,.35-.16,0-.18,.19-.26,.3-.07,.1-.13,.21-.2,.31-.07,.11-.14,.23-.22,.34-.08,.11-.17,.21-.23,.34-.12,.25-.12,.58-.36,.76-.02,.02-.03,.08,0,.12,.24,.3-.01,.29-.16,.3-.12,0-.2,.03-.25,.1-.14,.19-.28,.38-.45,.54-.1,.1-.1,.29-.37,.24-.08-.02-.14,.08-.14,.16-.01,.38-.33,.51-.51,.75-.08,.11-.18,.21-.28,.3-.08,.07-.04,.26-.22,.22-.14,.58-.66,.79-1.02,1.15-.36,.37-.77,.67-1.18,.98-.1,.07-.15,.25-.39,.12-.05-.03-.12,.03-.11,.09,.02,.15,.02,.25-.16,.15-.03-.02-.06,.05-.07,.11-.03,.14-.11,.19-.25,.18-.11-.01-.23,.02-.27,.11-.1,.24-.21,.46-.54,.36-.04-.01-.01,.17-.06,.19-.18,.07-.28,.29-.54,.22-.11-.03-.17,.08-.27,.11-.16,.05-.23,.25-.42,.27-.19,.02-.33,.16-.5,.25-.16,.09-.33,.18-.49,.26l-.5,.25c-.17,.08-.33,.16-.51,.23l-.51,.22c-.17,.07-.34,.15-.52,.21-.12,.04-.25,.06-.4,.01-.4-.12-.76,.05-1.12,.39-.03,.02-.06,.02-.09,.04-.41,.15-.79,.35-1.17,.47-.17,.05-.38,.04-.52,.14-.08,.07-.21,.1-.19,.29,.01,.15-.23,.05-.13,.29,.03,.08-.03,.13-.1,.12-.27-.06-.27,.14-.34,.23-.1,.11-.13,.25-.15,.4,0,.06-.1,.13,.1,.21,.09,.03,.03,.1-.05,.16-.12,.09-.08,.18-.01,.24,.16,.14,.17,.11,.11,.34,0,.03,0,.05,.01,.07,.1,.21,.18,.48,.44,.58,.21,.08,.35,.19,.53,.31,.07,.05,.21,0,.14,.26-.01,.04,.04,.06,.07,.04,.3-.14,.4,.08,.59,.17,.18,.08,.44-.05,.62,.08,.17,.12,.38,.16,.58,.23,.31,.11,.33,.28,.1,.92-.19,.53-.31,.62-.61,.64-.64,.04-1.14-.36-1.61-.52Z"/>
        </g>
        <g>
          <g class="cls-15">
            <path class="cls-13" d="M253.23,72.3c-4.87,3.87-12.66,.55-15.59-4.94-2.93-5.49-2.43-12.09-1.85-18.29,.79-8.42,1.57-16.84,2.36-25.26,.18-1.95,.41-4.02,1.62-5.55,1.23-1.56,3.24-2.26,5.14-2.86,8.36-2.63,17.4-4.85,25.77-2.26,10.38,3.22,17.39,13.09,27.36,17.41,5.23,2.27,11.13,2.93,16.02,5.86,9.61,5.76,12.51,18.45,12.03,29.65-.08,1.88-.24,3.81-1.02,5.52-1.59,3.51-5.39,5.41-9.04,6.66-21.84,7.45-45.68,.44-67.64-6.61"/>
            <path class="cls-13" d="M272.73,75.25c4.18,.96,8.38,1.85,12.61,2.23,1.57,.2,3.14,.74,4.84-.04,.83-.36,2.27,.74,3.73,.76,3.91-.05,7.85-.03,11.66-.78,1.87-.26,3.65-.9,5.45-1.38l2.62-.97c.89-.31,1.74-.62,2.52-.97,1.56-.68,3.03-1.36,4.06-2.21,.52-.43,.92-.89,1.17-1.37,.26-.49,.38-.98,.39-1.63,0-1.07,.18-2.46,.33-3.92,.09-.71,.16-1.43,.19-2.14,.05-.72,.02-1.44-.08-2.16-.4-3.07-1.04-6.12-1.52-9.01-.33-2.11-.81-4.25-2.05-5.93-.76-1.06-1.9-1.67-2.71-2.7-.41-.45-.77-1.01-1.24-1.44-.5-.38-1.05-.69-1.79-.54-.12,.03-.44-.42-.59-.69-.67-1.32-2.29-2.01-3.57-1.98-1.25,.02-2.23-.35-3.35-.67-3.06-.88-6.64-1.69-10.14-3.49-2.59-1.31-4.7-3.15-6.8-4.78-2.19-1.71-4.71-3.13-6.26-5.02-1.56-1.9-3.35-3.25-5.2-4.48-.52-.36-1.03-.83-1.59-1.14-.56-.34-1.17-.5-1.86-.24-.13,.05-.51-.17-.66-.35-1.21-1.35-2.86-1.91-4.51-2.04-1.67-.15-3.33,.03-5.03-.19-3.54-.46-7.35,.4-11.08,1.38-1,.26-2.17,.25-2.88,1.27-.25,.36-1.29,.7-1.87,.67-1.59-.07-3.05,.25-3.85,.7-.42,.22-.65,.46-.78,.62-.11,.17-.23,.34-.4,.69-.42,.78-.47,2.46-.65,4.28-.17,1.77-.42,3.53-1,5.26-.49,1.47-.87,3.5-.04,5.39,.38,.87-.24,2.55-.26,3.85-.01,1.07,.35,2.14,.27,3.19-.07,.89-.56,1.75-.83,2.64-.08,.26-.12,.59-.08,.87,.33,2.64-.03,5.17-.34,7.55-.32,2.38-.56,4.73-.03,6.87,.28,1.06,.61,2.06,1.01,2.99,.19,.47,.43,.92,.65,1.35,.12,.18,.23,.36,.33,.55,.12,.18,.27,.35,.39,.53,1.09,1.41,2.71,2.64,4.39,3.22,.93,.33,1.81,.52,2.66,.75,.86,.24,1.73,.5,2.94,.86,1.09,.33,1.87,.94,1.01,2.2-.65,.86-1.72,1.75-2.96,2.02-1.97,.49-4.04,.45-5.91-.02-1.95-.49-3.84-1.24-5.55-2.43-.84-.6-1.65-1.3-2.32-2.14-.33-.43-.67-.85-.92-1.35-.28-.49-.52-.98-.67-1.47-.44-1.19-1.43-2.46-.87-3.69,.08-.17,.01-.67-.11-.88-.62-1.18-1.03-2.46-1.26-3.74-.22-1.28-.28-2.58-.25-3.85,.07-2.54,.48-4.98,.65-7.33,.29-3.99-.43-7.94,.41-11.92-.87-2.31-.44-4.89,.1-7.09,.47-1.94,.82-3.9,1.09-5.86,.14-.96,.25-2.08,.52-3.34,.27-1.25,.72-2.71,1.67-4.11,.96-1.42,2.3-2.45,3.51-3.11,1.22-.67,2.36-1.08,3.37-1.43,1.94-.65,3.88-1.25,5.89-1.74,4.07-.99,8.33-1.83,12.8-1.9,2.23-.04,4.51,.13,6.77,.57,2.25,.44,4.51,1.17,6.55,2.15,1.39,.65,2.86,.75,4.12,2.08,1.17,1.23,3.06,2.13,4.52,3.24,1.34,1.01,2.83,1.9,3.84,3.05,2.1,2.39,4.43,4.4,6.92,5.97,2.52,1.6,5.02,2.64,7.87,3.57,2.82,.97,5.95,1.77,9.15,3.07,3.22,1.26,6.4,3.31,8.95,5.83,1.54,1.55,3.02,3.21,4.17,5.05,.63,.9,1.09,1.87,1.59,2.84,.41,.99,.85,1.99,1.09,3.02,.24,.88,.63,1.74,.85,2.63,.25,.89,.33,1.82,0,2.78-.16,.53,.84,2.03,1.02,3.17,.43,2.81,.46,5.64,.37,8.45-.07,1.89-.16,4.11-1.04,6.56-.9,2.51-2.69,4.58-4.52,6.01-2.25,1.77-4.49,3.16-6.81,4.08-1.19,.42-2.39,.8-3.6,1.16-.6,.19-1.22,.34-1.83,.45l-1.85,.35c-1.56,.32-3.14,.39-4.71,.5-1.57,.15-3.13,.1-4.69,.19-3.22,.13-6.59,.56-9.63-.05-5.61-1.18-11.16-1.57-16.6-2.8-5.39-1.22-10.68-2.71-15.97-4.04-3.01-.76-5.44-2.42-8.3-3.32-1.34-.42-2.36-3.4-1.55-4.04,.15-.12,.43-.22,.66-.21,3.03,.14,5.96-.24,9.12,.8,4.67,1.55,9.42,2.77,14.17,3.85Z"/>
          </g>
          <g>
            <path class="cls-10" d="M253.23,63c-4.87,3.87-12.66,.55-15.59-4.94-2.93-5.49-2.43-12.09-1.85-18.29,.79-8.42,1.57-16.84,2.36-25.26,.18-1.95,.41-4.02,1.62-5.55,1.23-1.56,3.24-2.26,5.14-2.86,8.36-2.63,17.4-4.85,25.77-2.26,10.38,3.22,17.39,13.09,27.36,17.41,5.23,2.27,11.13,2.93,16.02,5.86,9.61,5.76,12.51,18.45,12.03,29.65-.08,1.88-.24,3.81-1.02,5.52-1.59,3.51-5.39,5.41-9.04,6.66-21.84,7.45-45.68,.44-67.64-6.61"/>
            <path class="cls-10" d="M272.37,67.53c4.23,.97,8.48,1.83,12.77,2.28,1.59,.22,3.21,.54,4.9,.23,.84-.13,2.34,.43,3.83,.47,4,0,8.02-.05,11.94-.76,1.93-.24,3.77-.83,5.64-1.27l2.74-.91c.92-.29,1.82-.6,2.67-.96,1.69-.7,3.33-1.51,4.59-2.59,1.27-1.09,2.07-2.4,2.26-3.96,.18-1.34,.3-2.82,.39-4.32,.06-.74,.1-1.48,.1-2.23,.02-.75-.02-1.49-.09-2.25-.3-3.2-.9-6.44-1.63-9.44-.51-2.2-1.21-4.36-2.44-6.22-.75-1.17-1.73-2.03-2.66-3.16-.46-.5-.92-1.06-1.44-1.54-.55-.43-1.1-.85-1.74-.96-.11-.02-.55-.43-.76-.66-1-1.12-2.72-1.87-3.99-2.1-1.24-.22-2.28-.59-3.43-.93-3.13-.93-6.57-1.74-9.83-3.37-2.43-1.19-4.55-2.78-6.62-4.33-2.16-1.62-4.51-3.21-6.23-4.91-1.73-1.71-3.55-3.09-5.46-4.37-.54-.37-1.1-.8-1.69-1.14-.58-.36-1.18-.6-1.77-.59-.11,0-.53-.23-.7-.37-1.48-1.09-3.2-1.73-4.96-2.02-1.77-.29-3.56-.32-5.39-.46-3.79-.28-7.75,.48-11.6,1.46-1.03,.27-2.17,.41-3.01,1.06-.3,.23-1.37,.56-1.92,.63-1.51,.19-3,.55-4.09,1.14-.55,.29-.99,.64-1.33,1.01-.32,.37-.57,.81-.79,1.35-.51,1.23-.56,2.97-.74,4.75-.17,1.77-.37,3.53-.75,5.29-.32,1.48-.6,3.52-.27,5.37,.15,.85-.24,2.55-.31,3.85-.06,1.07,.08,2.11-.01,3.16-.08,.89-.36,1.77-.54,2.67-.05,.27-.09,.6-.08,.87,.05,2.61-.27,5.15-.49,7.63-.22,2.48-.32,4.96,.18,7.3,.26,1.17,.6,2.31,1.04,3.38,.21,.54,.48,1.06,.74,1.57l.42,.7c.15,.23,.33,.44,.49,.66,1.36,1.73,3.3,3.14,5.4,3.82,2.36,.78,4.61,.64,6.56,.39,.91-.08,1.31,.22,.36,1.2-.71,.65-1.73,1.31-2.87,1.51-1.8,.38-3.68,.24-5.37-.25-1.77-.51-3.45-1.32-4.93-2.47-1.48-1.13-2.78-2.69-3.51-4.49-.47-1.07-1.17-2.31-1.01-3.35,.02-.14-.07-.61-.16-.81-.9-2.31-1.14-4.84-1.1-7.28,.05-2.45,.35-4.85,.55-7.2,.33-3.99,.15-7.89,.76-11.89-.33-2.26,0-4.85,.38-7.06,.33-1.96,.59-3.92,.82-5.89,.12-.97,.21-2.03,.45-3.14,.24-1.11,.62-2.32,1.38-3.43,.76-1.12,1.83-1.95,2.87-2.51,1.05-.57,2.09-.94,3.06-1.27,1.92-.62,3.83-1.21,5.8-1.71,3.97-1.01,8.09-1.81,12.34-1.87,4.22-.09,8.64,.69,12.52,2.55,1.32,.61,2.57,.94,3.89,2.02,1.23,1.01,2.97,2.02,4.4,3.1,1.31,.99,2.72,1.96,3.82,3.01,2.28,2.17,4.68,4.17,7.26,5.8,2.59,1.66,5.28,2.86,8.21,3.79,2.9,.96,6.01,1.73,9.07,2.97,3.07,1.2,6,3.12,8.35,5.52,1.42,1.48,2.73,3.08,3.76,4.84,.56,.86,.98,1.79,1.43,2.7,.37,.94,.79,1.88,1.05,2.86,.25,.83,.57,1.66,.77,2.52,.24,.85,.36,1.73,.27,2.6-.03,.49,.58,2,.75,3.09,.38,2.71,.43,5.44,.34,8.16-.06,1.85-.16,3.89-.92,5.98-.76,2.12-2.27,3.88-3.91,5.14-2.01,1.56-4.16,2.7-6.37,3.52-1.15,.38-2.31,.74-3.48,1.08-.58,.19-1.17,.33-1.77,.44l-1.78,.36c-1.5,.34-3.02,.46-4.53,.63-1.51,.21-3.03,.21-4.55,.32-3.14,.18-6.42,.38-9.4,0-5.52-.74-11-1.34-16.38-2.5-5.34-1.16-10.61-2.6-15.84-4.03-2.97-.81-5.52-2.06-8.38-2.96-1.33-.42-2.75-2.2-2.07-2.43,.13-.04,.37-.06,.6-.02,2.91,.51,5.66,.73,8.85,1.74,4.71,1.5,9.48,2.77,14.28,3.87Z"/>
          </g>
          <g class="cls-14">
            <path class="cls-12" d="M232.07,28.11c3.6,9.59,13.03,15.18,22.32,17.96,18.64,5.58,39.38,2.56,55.96-8.14,7.04-4.55-.92-19.1,7.02-16.81,5.48,1.58,24.97,15.45,26.62,21.26,1.65,5.82,1.42,12.02,1.17,18.1-.28,6.87-.56,13.74-.83,20.61-.12,2.91-.27,5.94-1.6,8.49-2.17,4.15-6.87,5.88-11.23,6.76-18.61,3.74-37.62-2.03-55.79-7.75-11.04-3.48-22.09-6.95-33.13-10.43-5.89-1.85-12.08-3.9-16.27-8.7-5.02-5.75-6.11-14.53-4.31-22.16s6.11-14.3,10.82-20.34"/>
            <path class="cls-12" d="M237.08,35.39c1.76,1.94,3.43,3.31,5.21,4.51,.28,.18,.65,.3,1.01,.52,1.39,.92,2.97,1.62,4.35,2.46,1.53,.89,3.17,1.6,4.8,2.04,.77,.22,1.53,.44,2.3,.66l2.3,.59c.52,.13,1.03,.25,1.56,.5,.39,.19,1.15,.36,1.75,.29,.12-.01,.34,.07,.51,.13,.18,.06,.39,.18,.53,.19,.8-.01,1.58,.08,2.37,.21,.79,.14,1.57,.29,2.37,.32,.39,.02,.81,.15,1.17-.01,.09-.04,.47-.01,.58,.04,.29,.15,.6,.21,.97,.23,1.63,.04,3.25,.19,4.89,.12,.79-.27,1.69-.14,2.54-.19,.64-.04,1.28,0,1.92,.01,.65,0,1.33-.19,1.96-.05,.1,.02,.34-.07,.52-.1,.8-.11,1.63-.29,2.4-.3,.39-.02,.78-.05,1.17-.12,4.99-.81,9.89-2.18,14.57-4.09,.41-.17,.81-.29,1.18-.6,.3-.23,1.01-.58,1.37-.62,.59-.07,1.04-.36,1.54-.58,.93-.38,1.78-.92,2.67-1.36,.53-.27,1.05-.68,1.63-.73,.06,0,.22-.1,.26-.16,.44-.55,1.09-.71,1.67-1.03,.41-.23,.86-.47,1.18-.87,.35-.35,.84-.92,1.21-1.19,.48-.38,.72-.91,.92-1.44,.63-1.56,.77-3.32,.79-5.04,.02-1.74-.13-3.48-.08-5.26,.04-.84,.03-1.7,.38-2.59,.17-.44,.5-.87,.95-1.15,.46-.28,.98-.33,1.45-.31,.44,.03,.93,.02,1.25,.29,.07,.05,.39,.11,.53,.12,.51,0,.92,.24,1.4,.46,2.15,1.04,4.13,2.35,6.14,3.46,1.57,.87,2.99,1.91,4.45,2.91,.49,.33,.9,.78,1.37,1.16,.45,.36,.93,.71,1.4,1.06,.28,.21,.53,.46,.88,.56,.19,.05,.6,.35,.72,.52,.41,.59,1.02,.99,1.57,1.44,1.55,1.3,3.08,2.64,4.52,4.08,.34,.36,.82,.68,.96,1.17,.02,.07,.27,.23,.41,.35,.15,.13,.35,.27,.43,.4,.63,1.2,1.65,2.17,2.17,3.51,.96,3.17,1.35,6.42,1.43,9.67,.02,.91,.22,1.7,.2,2.58,0,.85,0,1.71-.04,2.56-.03,.6,.05,1.24-.19,1.79-.07,.15-.08,.59-.03,.77,.19,.68,.05,1.41,.06,2.11,0,.86-.17,1.74,.03,2.59,.05,.23-.09,.67-.11,1.01-.04,.6-.07,1.21-.09,1.81,0,.29,.06,.58,.06,.87-.03,2.24-.06,4.47-.13,6.71l-.27,6.84c-.1,2.28-.18,4.66-.97,6.96-.27,.85-.58,1.86-1.29,2.42-.32,.79-.88,1.34-1.54,1.69-.1,.05-.21,.31-.34,.45-.39,.46-.68,1.08-1.42,1.18-.03,0-.09,.06-.14,.09-.48,.26-.65,.75-1.38,.9-.44,.09-1.06,.43-1.61,.64-.56,.2-1.13,.4-1.69,.6-.58,.21-1.26,.24-1.75,.61-.08,.06-.56,0-.81,.06-1.32,.33-2.72,.3-3.98,.83-.29,.11-.77,.15-1.1,.12-1.18-.1-2.25,.19-3.44,.3-.78,.09-1.59,.17-2.4,.2-.81,0-1.62-.07-2.39-.23-.33-.07-.47-.12-.8,0-.22,.07-.6,.06-.9,.04-3.42-.1-6.83-.44-10.21-.9-.92-.15-1.73-.53-2.69-.59-.39-.03-.83-.21-1.18-.08-.05,.02-.21,0-.28-.03-1.07-.45-2.26-.33-3.35-.67-.23-.08-.45-.16-.68-.25-.24-.08-.5-.2-.71-.21-1.77-.08-3.46-.75-5.19-1.1-.59-.13-1.19-.43-1.77-.33-.09,.02-.34-.06-.45-.12-.92-.55-2.06-.64-3.07-1.01-.52-.19-1.15-.2-1.55-.57-.05-.05-.27-.08-.4-.11-.23-.04-.48-.03-.7-.1-.6-.19-1.23-.52-1.78-.6-.69-.1-1.3-.33-1.93-.52-.36-.11-.69-.32-1.05-.46-.34-.13-.71-.22-1.06-.33-.51-.16-1.05-.28-1.51-.49-.48-.21-.95-.09-1.45-.43-.38-.26-.94-.19-1.41-.31-.24-.06-.48-.17-.71-.27-.17-.08-.32-.21-.49-.25-.38-.11-.73-.26-1.17-.29-.3-.02-.76-.3-1.16-.45-.4-.14-.81-.26-1.21-.39-.4-.13-.83-.31-1.21-.37-1.69-.26-3.29-.93-4.93-1.41-.42-.12-.93-.19-1.23-.51-.05-.06-.29-.13-.42-.15-1.64-.2-3.18-.94-4.78-1.35-1.14-.29-2.28-.53-3.41-.92-1.1-.38-2.23-.79-3.33-1.03-.91-.2-1.8-.39-2.65-.72-.83-.32-1.77-.16-2.49-.77l-2.58-.82c-.72-.24-1.49-.38-2.13-.81-.23-.16-.73-.31-1.04-.34-.98-.08-1.84-.45-2.71-.9-.21-.1-.52-.11-.76-.2-.76-.28-1.52-.58-2.24-.95-2.15-1.08-4.38-2.07-6.28-3.67-.35-.28-.84-.5-1.1-.82-1.61-1.87-3.27-3.83-4.17-6.11-1.27-3.33-2.17-6.79-2.2-10.31-.02-.46,.18-.94,.13-1.15-.17-.67,.02-1.43-.07-2-.14-1.03,.13-2.01,.24-3,.07-.73,.39-1.46,.3-2.17-.01-.1,.06-.34,.12-.47,.48-.97,.46-2.08,.92-3.05,.39-2,1.4-3.82,2.27-5.65,.13-.27,.2-.56,.31-.83,.06-.14,.11-.31,.18-.41,1.14-1.46,1.92-3.19,3.01-4.68,.36-.49,.76-.94,1.14-1.41,.37-.49,.68-1.04,1.17-1.39,.15-.11,.34-.41,.47-.63,.74-1.2,1.7-1.78,2.21-1.4,.19,.14,.02,.37-.09,.66-.22,.56-.48,1.07-.91,1.63-.34,.42-.74,.87-.85,1.39-.02,.09-.17,.28-.27,.37-.7,.64-1.16,1.6-1.75,2.26-.45,.51-.77,1.05-1.14,1.58-.32,.44-.5,.99-.95,1.36-.15,.12-.27,.68-.44,1.01-.41,.8-.82,1.6-1.23,2.39-1.26,2.42-1.88,5.04-2.6,7.63-.18,1.92-.72,3.84-.66,5.77,.05,2.3,.14,4.6,.67,6.81,.1,.46,.18,.82,.22,1.24,.02,.27,.05,.56,.12,.84,.32,1.04,.71,2.06,1.16,3.04,.23,.54,.66,1.03,.7,1.61,0,.08,.14,.31,.22,.39,.37,.33,.68,.72,.95,1.13,.31,.39,.6,.81,.92,1.17,.27,.27,.5,.54,.72,.9,.25,.38,.77,.87,1.2,1.09,.32,.17,.55,.37,.84,.55,1.15,.77,2.27,1.77,3.64,2.12,.51,.58,1.38,.89,2.07,1.12,2.69,.89,5.35,1.92,8.11,2.74,.67,.2,1.3,.52,1.96,.76,.7,.25,1.41,.46,2.12,.67,.38,.11,.79,.34,1.15,.24,.03,0,.1,0,.14,.02,.39,.16,.78,.36,1.18,.47,.36,.1,.73,.07,1.1,.15,.44,.09,.89,.23,1.34,.37,.43,.13,.9,.23,1.19,.51,.4-.11,.86,.15,1.29,.27,.41,.11,.81,.25,1.21,.38l1.37,.43c.46,.14,.91,.31,1.37,.43,.63,.16,1.26,.28,1.89,.45,.66,.18,1.32,.39,1.97,.62,.81,.3,1.61,.6,2.41,.91,.33,.12,.64,.16,1,.19,.47,.04,1.1-.01,1.58,.46,.09,.09,.5,.2,.73,.23,1.85,.25,3.58,1.07,5.39,1.54,.91,.53,1.9,.69,2.93,.95,1.52,.38,3.11,.84,4.53,1.42,1.5,.62,3.05,.99,4.56,1.5,.42,.15,.92,.19,1.22,.5,.07,.07,.4,.15,.59,.17,1.3,.14,2.5,.55,3.73,1.02,.65,.25,1.43,.38,2.2,.49,1.15,.16,2.34,.56,3.52,.83,.45,.37,.91,.2,1.2,.15,.38-.07,.71-.02,1.13,.07,.53,.12,1.05,.28,1.62,.21,.29-.03,.89,.11,1.16,.25,.37,.2,.53,.17,.9,.16,.44,0,.83,.31,1.37,.38,.57,.08,1.26,.06,1.72,.41,.04,.03,.22,.06,.3,.05,1.1-.09,2.1,.41,3.17,.44,3.13,.68,6.38,.67,9.57,.75,.66,.04,1.32,.07,1.98,.11,.66,0,1.32-.01,1.96-.11,2.7-.39,5.42-.61,8.09-1.14,.56-.12,1.17-.38,1.73-.25,.08,.02,.33-.05,.43-.12,.76-.46,1.54-.63,2.39-.79,.21-.03,.56-.19,.64-.3,.25-.3,.63-.41,.97-.58,.39-.2,.98-.36,1.15-.59,.37-.46,.72-.48,1.09-.72,.21-.16,.41-.37,.57-.59,.08-.1,.13-.27,.2-.31,.75-.47,.98-1.34,1.45-2.01,.09-.15,.19-.32,.27-.47,.53-.85,.73-1.34,.89-1.9,.15-.56,.25-1.22,.32-2.55,.4-.7-.03-1.6,.26-2.4,.1-.29,.11-.87,.06-1.24-.22-1.65,.07-3.32,.06-4.97,0-.34,.22-.6,.07-1.04-.06-.17,.15-.72,.16-1.1,.01-.55,.15-1.11-.04-1.66-.08-.23,.01-.71,0-1.07,0-.5,.1-.99-.06-1.5-.08-.28-.06-.91,.04-1.22,.4-1.27,.13-2.47,.06-3.67-.02-.36-.05-.61,.02-.99,.1-.52,.22-1.23,.14-1.64-.15-.73-.05-1.42-.03-2.12,.03-1.22,.11-2.43,.11-3.64,0-1.37,.09-2.74-.13-4.12-.11-.74-.25-1.7-.03-2.52,.03-.09-.16-.4-.19-.61-.17-1.69-.43-3.36-.81-4.99-.09-.35,.08-.91-.24-1.1-.3-.16-.04-.68-.42-.8-.06-.01-.22-.29-.28-.44-.77-1.73-2.42-3.09-3.81-4.54-.35-.35-.82-.64-.95-1.08-1.09-.63-1.79-1.95-3.01-2.4-.65-.62-1.54-1.04-2.04-1.8-.08-.12-.37-.26-.47-.39-.34-.45-.89-.3-1.28-.88-.23-.33-.85-.7-1.31-1.03l-1.28-.91-1.43-.98c-.48-.33-.95-.66-1.44-.96-1-.6-2.05-1.05-3.03-1.72-.11-.07-.31-.15-.37-.14-.53,.12-.93-.34-1.23-.63-.25-.24-.48-.41-.79-.57-.86-.43-1.76-.85-2.56-1.11-.5-.14-.99-.11-1.35-.31-.06-.03-.15-.01-.25,0-.09,.03-.15,.09-.19,.13-.12,.23-.25,.5-.38,1-.12,.48-.2,1.07-.19,1.67,0,.56,0,1.13,.01,1.69,0,.44,.18,.87,.04,1.32,.35,2.16,.22,4.53-.47,6.92-.34,1.18-.96,2.39-1.91,3.33-.45,.46-1.04,.9-1.52,1.19l-1.43,.85c-.47,.28-.95,.71-1.49,.75-.1,.01-.45,.2-.53,.3-.22,.27-.4,.45-.81,.46-.08,0-.32,.18-.45,.29-.35,.3-.72,.48-1.17,.62-.35,.12-.82,.29-1.12,.48-.81,.53-1.59,1.03-2.56,1.2-.12,.03-.35,.3-.56,.37-.78,.28-1.52,.72-2.36,.84-.34,.05-.78,.3-1.19,.4-.7,.2-1.3,.55-2.05,.72-.75,.19-1.53,.48-2.32,.7l-2.34,.66-2.37,.54c-.79,.19-1.58,.35-2.38,.47l-2.39,.41-2.41,.29c-.56,.06-1.09,.12-1.66,.04-1.47-.17-3.21,.04-5.37,.22-.16,.02-.32,0-.48,0-1.05,.04-2.1-.02-3.15-.06l-1.57-.07c-.52-.05-1.04-.11-1.56-.18-.91-.14-1.81-.28-2.74-.42-.61-.08-1.19-.21-1.82-.14-.53,.05-1.2-.26-1.82-.17-.23,.04-.8-.08-1.07-.21-.89-.44-1.91-.48-2.85-.78-1.08-.33-2.19-.58-3.27-.91-.53-.17-1.04-.39-1.64-.41-.29,0-.91-.29-1.27-.51-.55-.34-1.14-.56-1.71-.73-1.21-.42-1.23-.38-2.3-1.06-.13-.08-.27-.16-.41-.23-1.42-.69-2.75-1.6-4.11-2.32-.56-.32-1.09-.67-1.62-1.02-.51-.38-1.01-.77-1.52-1.16-.39-.33-.9-.65-1.05-1.11-.02-.07-.24-.26-.35-.32-.47-.28-.89-.66-1.28-1.06-.39-.41-.72-.88-1.09-1.29-.36-.41-.71-.8-1.06-1.19-.36-.39-.7-.8-.97-1.3-.54-.9-1.06-1.84-1.55-2.79-.63-1.49-.62-1.87,.02-2.1,.53-.19,.8,.12,1.38,1.19,1.28,2.22,2.62,4.43,4.08,5.92Z"/>
          </g>
        </g>
        <g>
          <g>
            <path class="cls-11" d="M78.69,145.26c3.26,10.03,15.17,14.12,25.65,15.35,16.75,1.96,33.71,.21,50.36-2.4,15.94-2.5,31.98-5.86,46.38-13.14s27.16-18.92,32.88-34.01c2.22-5.86,3.3-12.59,.72-18.31-1.52-3.36-4.15-6.06-6.74-8.69-12.65-12.86-26.23-26.26-43.73-30.62-15.71-3.91-32.61,.22-46.64,8.29s-25.59,19.78-36.31,31.9c-12.92,14.6-25.63,32.41-23.01,51.73"/>
            <path class="cls-11" d="M87.36,108.78c3.8-5.77,8.2-11.05,12.66-16.21,1.67-1.91,3.56-3.69,5.03-5.94,.73-1.12,2.8-2.55,4.43-4.24,4.4-4.61,9.15-8.95,14.11-13,4.83-3.94,9.9-7.63,15.44-10.65,2.76-1.47,5.66-2.77,8.6-3.89,2.95-1.1,5.91-2.07,8.81-2.93,5.05-1.5,9.85-1.68,14.86-1.85,5.33-.21,10.95,.57,15.91,2.28,3.62,1.26,7,2.9,10.37,4.56,1.03,.55,2.07,1.02,3.11,1.54,1.02,.56,2.08,1.11,3.14,1.83,1.97,1.33,3.99,3.09,5.94,3.93,.16,.07,.93,.81,1.31,1.2,1.78,1.86,4.11,3.87,5.85,5.11,1.68,1.22,3,2.48,4.38,3.8,1.91,1.8,3.77,3.65,5.62,5.5,1.83,1.87,3.67,3.66,5.49,5.71,1.35,1.54,2.62,3.25,3.6,5.2,.98,1.96,1.59,4.09,1.89,6.22,.6,4.45-.02,9.18-1.49,12.83-1.51,3.64-3.05,7-4.98,10.28-.58,.91-1.24,1.88-1.86,2.81-.65,.91-1.19,1.84-1.51,2.71-.06,.16-.57,.79-.83,1.06-1.07,1.12-2.16,2.2-3.17,3.34-1.07,1.09-2.06,2.24-3.14,3.32-2.11,2.21-4.35,4.33-6.9,6.11-2.61,1.85-5.33,3.61-8.15,5.22-2.81,1.62-5.71,3.13-8.66,4.42-1.58,.7-3.33,1.26-4.67,2.18-.47,.33-2.16,.99-3.02,1.17-4.66,1.07-9.36,2.78-14.11,3.81-5.4,1.19-10.79,2.49-16.33,2.99-2.34,.22-5.51,.62-8.22,1.52-1.25,.42-3.95,.56-5.95,.87-1.64,.26-3.21,.68-4.85,.86-1.39,.17-2.81,.09-4.24,.14-.42,0-.94,.05-1.35,.12-8.02,1.26-16.13,.73-24.27,.35-8.09-.37-16.87-1.64-24.3-6.28-2.04-1.26-3.93-2.94-5.28-4.8-1.35-1.85-2.16-3.86-2.24-5.53-.11-1.5,.37-1.57,1.3,.04,.32,.6,.82,1.16,1.22,1.78,.48,.57,.94,1.18,1.44,1.75,1.6,1.84,3.61,3.28,5.69,4.42,4.39,2.37,9.35,3.31,14.45,4.35,1.59,.32,3.54,.25,4.86,.82,.18,.09,.86,.17,1.18,.16,7.08-.07,14.42,.3,21.63-.21,6.14-.44,11.98-1.66,18.17-2.28,3.3-1.01,7.29-1.53,10.72-1.95,12.09-1.46,23.97-4.54,35.09-9.13,11.27-4.61,21.64-11.63,29.36-20.94,.63-.81,1.18-1.6,1.74-2.42,.53-.85,1.15-1.68,1.89-2.62,1.42-1.76,2.72-4.4,3.81-6.77,.49-1.09,.93-2.24,1.36-3.37,.41-1.13,.76-2.25,1.11-3.3,1.45-4.34,1.75-9.19-.06-13.26-1.8-4.06-5.6-7.26-8.96-10.8-6.78-6.91-13.77-13.69-21.73-18.93-4.84-3.22-10.09-5.58-15.5-7.52-1.16-.39-2.39-.67-3.6-.99-1.23-.24-2.42-.62-3.59-1.02-.33-.12-1.08-.18-1.94-.22-.87,0-1.84,.01-2.62-.05-3.91-.23-7.87-.08-11.78,.49-5.42,.82-10.79,2.27-15.86,4.43-3.1,1.31-6,2.94-8.89,4.65-3.02,1.79-6,3.75-8.88,5.79-3.66,2.59-7.22,5.31-10.6,8.32-3.5,3.12-6.78,6.75-10.03,9.86-6.04,5.83-11.48,12.25-16.44,18.9-4.89,6.62-9.18,13.82-11.48,21.6-1.27,4.39-2.34,8.5-2.26,13-.02,.52-.06,1.09-.13,1.65-.08,.55-.2,1.09-.35,1.55-.29,.91-.67,1.48-.92,1.06-.1-.16-.21-.51-.28-.87-.87-4.52-1.27-9.01,0-14.26,.9-3.88,2.38-7.57,4.04-11.14,.82-1.8,1.78-3.51,2.72-5.23,1.01-1.68,2-3.37,3.1-4.99Z"/>
          </g>
          <g>
            <path class="cls-9" d="M207.5,166.28c-11.45-.6-18.88-12.72-20.9-24.01-.82-4.58-1.06-9.49,.85-13.73,3.44-7.63,12.49-10.75,20.68-12.51,14.02-3.03,29.29-4.31,42.16,2.01,12.87,6.33,21.71,22.56,15.59,35.54-3.38,7.15-10.53,11.96-18.12,14.19s-15.63,2.2-23.53,1.88c-6.4-.26-13.24-.87-18.22-4.9"/>
            <path class="cls-9" d="M225.6,168.09c3.63,.13,7.25,.2,10.81-.08,1.32-.1,2.7-.01,4.01-.64,.64-.32,1.98,.04,3.17-.23,3.22-.68,6.38-1.62,9.27-3.12,2.81-1.46,5.28-3.44,7.37-5.68,2.04-2.21,4.01-4.77,4.63-7.61,.5-2.41,1.25-4.57,1.07-7.01-.24-2.56-.89-5.13-1.58-7.58-.55-1.78-1.19-3.56-2.28-5.1-.34-.48-.71-.91-1.08-1.35-.41-.42-.82-.85-1.19-1.36-.33-.49-.7-.99-1.12-1.44-.42-.44-.85-.85-1.41-1.02-.09-.03-.4-.45-.55-.69-.64-1.16-1.91-2.11-2.88-2.58-.98-.4-1.7-.93-2.51-1.43-2.23-1.29-4.72-2.31-7.21-3.19-.95-.3-1.87-.68-2.84-.94l-1.44-.44-1.47-.33c-2.06-.44-4.33-.4-6.27-.78-1.96-.34-3.86-.36-5.8-.28-1.1,.04-2.42-.14-3.28,.49-.08,.06-.49,.08-.69,.06-3.22-.43-6.2,.94-9.38,1.33-3.29,.43-6.63,1.23-9.75,2.21-.84,.25-1.78,.41-2.39,1.06-.21,.24-1.05,.55-1.48,.65-2.39,.44-4.48,1.92-6.27,3.36-1.07,.8-1.9,1.83-2.66,2.87l-.54,.81c-.17,.27-.31,.56-.49,.84-.36,.55-.62,1.14-.94,1.74-.52,1-.92,2.6-.5,4.02,.18,.64-.07,1.96,.05,2.98,.1,.83,.4,1.61,.52,2.43,.1,.7,0,1.44,.06,2.17,.02,.21,.07,.47,.14,.68,.68,1.95,1.21,3.9,1.86,5.84,.62,1.95,1.4,3.86,2.53,5.57,1.11,1.73,2.4,3.33,3.8,4.78,.69,.75,1.46,1.37,2.23,2.02,.81,.56,1.6,1.17,2.48,1.6,1.91,1.02,3.95,1.73,5.44,2.78,.67,.52,.69,1-.39,1.16-.4,.06-.83,.11-1.28,.14-.44,0-.9-.07-1.35-.15-.36-.08-.72-.12-1.07-.22l-1.05-.32c-.35-.11-.71-.2-1.04-.34-.33-.15-.66-.29-.98-.44-2.68-1.24-5.3-2.92-7.09-5.44-.59-.75-1.4-1.54-1.51-2.41-.02-.12-.2-.46-.32-.6-1.38-1.49-2.41-3.31-3.21-5.2-.78-1.91-1.4-3.88-1.92-5.84-.9-3.34-2-6.58-1.72-10.26-.52-2-.08-4.51,.8-6.47,1.52-3.47,3.96-6.44,6.88-8.54,2.89-2.15,6.12-3.61,9.39-4.65,3.33-1.04,6.69-1.75,10.01-2.4,3.34-.64,6.72-1.17,10.13-1.48,1.16-.08,2.14-.5,3.53-.32,.65,.08,1.39,.06,2.15,.02,.77-.02,1.56-.07,2.31-.08,1.38,.04,2.84-.07,4.13,.19,2.68,.45,5.35,.92,8.01,1.51,2.67,.57,5.3,1.39,7.8,2.5,5.04,2.19,9.46,5.73,13.02,9.86,2.18,2.52,4.17,5.31,5.35,8.53,.12,.34,.29,.67,.42,1.02l.37,1.06c.21,.72,.44,1.44,.31,2.21-.08,.43,.66,1.67,.76,2.62,.15,1.17,.3,2.35,.24,3.54-.02,.59,.02,1.19-.06,1.78l-.23,1.78c-.06,.83-.35,1.62-.53,2.43-.11,.4-.19,.81-.34,1.2l-.46,1.16c-.56,1.58-1.38,3.02-2.26,4.42-1.09,1.69-2.24,3.34-3.68,4.76-1.5,1.48-3.21,2.75-5.01,3.79-2.29,1.32-4.74,2.24-7.2,3.05-2.56,.83-5.23,1.67-7.78,1.83-4.71,.28-9.31,.62-13.91,.47-4.53-.2-9.11-.27-13.77-1.13-2.65-.5-4.9-1.73-7.19-3.07-.53-.34-.98-.99-1.14-1.6-.18-.59-.12-1.08,.21-1.1,.12-.01,.32,.03,.49,.12,1.05,.56,2.14,.9,3.26,1.19,1.11,.29,2.25,.6,3.52,.94,3.76,1.08,7.85,1.24,11.96,1.39Z"/>
          </g>
          <g>
            <path class="cls-9" d="M71.38,147.13c-11.59,4.27-24.07,6.11-36.4,5.38-4.93-.29-10.41-1.32-13.26-5.35-4.42-6.22,.25-14.74,5.28-20.47,10.49-11.94,23.12-22.01,37.09-29.57,4.1-2.22,8.41-4.26,13.03-4.84,11.96-1.51,22.81,6.77,31.43,15.2,1.36,1.33,2.79,2.85,2.95,4.74,.12,1.43-.5,2.81-1.12,4.11-2.11,4.47-4.22,8.95-6.32,13.42-3.55,7.54-7.36,15.4-14.07,20.36-6.71,4.95-17.25,5.78-22.76-.48"/>
            <path class="cls-9" d="M87.2,149.98c3.19-1.81,5.95-4.62,8.14-7.75,.83-1.16,1.81-2.3,2.19-3.83,.18-.76,1.35-1.71,1.96-2.93,1.65-3.27,3.27-6.65,4.83-10.06,1.46-3.33,2.92-6.65,4.38-9.98,.36-.8,.68-1.52,.83-2.14,.15-.63,.14-1.06-.04-1.61-.37-1.1-1.58-2.28-2.92-3.37-2.29-1.87-3.98-3.96-6.24-5.64-2.39-1.77-4.92-3.44-7.32-4.99-1.75-1.13-3.57-2.13-5.54-2.71-.62-.15-1.24-.24-1.85-.34-.62-.08-1.26-.12-1.92-.27-.62-.12-1.28-.23-1.93-.31-.65-.07-1.29,.04-1.82,.29-.09,.04-.64-.07-.93-.1-.67-.1-1.44-.19-2.16-.06-.72,.1-1.4,.31-1.92,.56-1.02,.49-1.96,.76-2.94,1.13-2.68,1.03-5.32,2.42-7.99,3.85-2,1.05-4.04,2.03-5.99,3.19-2.04,1.2-4,2.8-5.94,3.84-1.94,1.05-3.63,2.3-5.33,3.63-.97,.74-2.24,1.45-2.67,2.51-.04,.1-.4,.38-.59,.48-3.14,1.69-5.09,4.68-7.73,7-2.73,2.4-5.23,5.21-7.61,7.98-.61,.72-1.38,1.43-1.57,2.36-.08,.32-.63,1.13-.96,1.48-.93,.93-1.65,2.07-2.19,3.27-.56,1.19-.94,2.44-1.24,3.64-.35,1.37-.38,2.76-.14,4.04,.23,1.29,.82,2.44,1.5,3.62,.59,.97,1.92,2.1,3.47,2.2,.67,.07,1.92,.74,3.01,.92,.88,.16,1.79,.06,2.67,.17,.76,.09,1.52,.35,2.32,.5,.24,.04,.54,.06,.78,.04,4.62-.33,9.22,.31,13.86-.35,4.63-.64,9.3-1.46,13.86-2.62,2.52-.64,5.09-1.31,7.1-1,.91,.15,1.08,.59,.11,1.23-.71,.48-1.55,.97-2.45,1.31-1.43,.55-2.86,1.1-4.28,1.56-2.94,.96-5.89,2.06-9.12,2.34-1,.1-2.13,.5-3.01,.18-.12-.05-.53-.02-.72,.03-4.18,1.18-8.72,.96-13.07,.9-1.86-.03-3.68,.05-5.59-.06-1.89-.1-3.85-.39-5.75-1.19-1.15-.12-2.38-.55-3.51-1.26-1.13-.7-2.12-1.69-2.84-2.72-1.25-1.83-2.05-3.97-2.21-6.11-.18-2.14,.16-4.21,.74-6.11,1.2-3.81,3.23-7.12,5.64-10.05,4.96-5.69,10.18-10.95,15.93-15.73,.98-.81,1.63-1.74,2.94-2.48,1.23-.69,2.55-1.93,3.87-2.89,1.2-.88,2.41-1.89,3.65-2.57,5.12-2.83,9.94-6.12,15.23-8.74,2.65-1.28,5.45-2.41,8.43-3.08,2.98-.69,6.1-.79,9.12-.42,3.69,.44,7.3,1.51,10.52,3.32,1.37,.76,2.94,1.38,3.94,2.65,.29,.34,1.69,.86,2.51,1.43,2.01,1.44,3.9,3.04,5.73,4.67,1.27,1.14,2.49,2.31,3.71,3.51,.62,.62,1.27,1.29,1.87,2.12,.59,.82,1.14,1.82,1.37,3.01,.29,1.48,0,2.92-.35,4.04-.38,1.16-.78,2.05-1.18,2.99-.86,1.95-1.78,3.9-2.73,5.8-1.21,2.42-2.52,4.77-3.72,7.2-1.24,2.52-2.35,5.29-3.9,7.58-2.88,4.21-5.73,8.65-9.97,11.87-2.1,1.62-4.52,2.86-7.05,3.63-2.53,.78-5.2,1.16-7.89,1.03-1.52-.13-2.98-.44-4.33-1.05-.69-.24-1.31-.66-1.97-.98l-.93-.6c-.32-.19-.62-.4-.92-.64-.28-.21-.53-.51-.73-.83-.18-.34-.3-.71-.36-1.03-.13-.65,0-1.12,.34-1.09,.13,.01,.34,.1,.5,.21,1,.81,2.17,1.24,3.29,1.66,1.18,.34,2.36,.65,3.72,.91,4.02,.81,8.43-.17,12.05-2.2Z"/>
          </g>
          <g class="cls-14">
            <path class="cls-12" d="M44.92,107.01c-1.6,2.12-1.22,5.25,.26,7.46,1.48,2.21,3.82,3.66,6.17,4.9,18.59,9.77,42.18,9.3,60.35-1.23,.59,1.94,2.55,3.07,4.37,3.94,20.02,9.54,43.96,10.5,64.68,2.6,2.05-.78,4.1-1.66,6.28-1.97,2.66-.38,5.36,.09,8.02,.45,9.14,1.24,18.51,1.16,27.5-.92,4.56-1.06,8.99-2.62,13.4-4.19,3.37-1.2,7.39-1.55,7.83-5.09,.54-4.34,4.56-2.81,5.17-4.79,.67-2.16-.2-3.6,1.62-5.04,3.34-2.64,9.36-.28,12.52,1.46,8.87,4.89,16.33,12.3,21.27,21.14,3.19,5.71,5.36,12.1,5.5,18.64,.36,16.88-13.07,31.63-28.71,38-15.64,6.38-33.09,6.09-49.96,5.29-28.9-1.37-57.74-3.95-86.43-7.73,1.39,.97,.52,3.41-1.08,3.99-1.6,.58-3.35-.04-4.95-.63-16.32-6.02-33.57-8.93-50.77-11.02-16.64-2.02-33.16-2.22-48.27-10.38-5.4-2.92-10.64-6.79-13.22-12.36-2.74-5.94-1.87-13.37,2.16-18.52,3.12-3.98,7.72-6.44,11.83-9.4,5.48-3.95,10.36-9.01,16.72-11.3,2.84-1.02,6.04-1.53,8.22-3.62"/>
            <path class="cls-12" d="M52.33,119.33c4.41,2.25,8.25,3.58,12.16,4.54,.61,.14,1.31,.23,2.09,.38,3.08,.64,6.29,1.06,9.3,1.36,3.29,.44,6.63,.34,9.78,.04,1.49-.23,2.97-.36,4.43-.61,1.46-.29,2.93-.46,4.36-.86,.97-.25,1.92-.47,3-.63,.79-.13,2.19-.54,3.15-1.04,.19-.09,.62-.22,.93-.32,.34-.11,.76-.18,.99-.29,.66-.33,1.33-.61,2.01-.91,.67-.33,1.34-.63,2.02-.94,.68-.31,1.38-.58,2.03-.94l.99-.52,1.19-.65c.22-.12,.44-.23,.66-.35l.33-.17,.17-.09c.05-.02,.08,0,.12,.01,.19,.55,.43,1.08,.76,1.46,.16,.19,.52,.58,.65,.76,.28,.43,.71,.79,1.28,1.14,1.25,.75,2.71,1.31,4.09,1.95,1.38,.65,2.83,1.15,4.25,1.71,1.47,.31,3.06,.87,4.57,1.39,1.15,.34,2.28,.72,3.43,1.08,1.15,.38,2.47,.44,3.55,.92,.17,.07,.64,.11,.97,.17,1.5,.25,3.07,.42,4.47,.73,.72,.12,1.45,.25,2.17,.33,4.71,.52,9.45,.66,14.18,.4,4.73-.3,9.43-.98,14.04-2.07,.8-.2,1.58-.34,2.38-.7,.62-.3,2.05-.73,2.71-.8,1.08-.1,1.99-.52,2.95-.85,1.78-.57,3.5-1.32,5.32-1.93,1.07-.35,2.3-.8,3.34-.67,.1,.01,.46-.03,.58-.06,1.26-.35,2.51-.09,3.74,.06,.9,.11,1.8,.24,2.8,.25,.97,.02,2.54,.2,3.41,.41,1.16,.3,2.24,.34,3.35,.41,6.5,.46,13.08,.19,19.47-1.1,3.03-.6,5.89-1.65,8.88-2.53,.71-.21,1.45-.56,2.14-.6,.14,0,.7-.22,.91-.34,.75-.43,1.57-.65,2.48-.97,2.05-.8,4.3-1.14,6.17-2.06,.93-.45,1.72-1.14,2.03-2.05,.31-.82,.22-2.18,1.01-3.18,.6-.9,1.63-1.35,2.5-1.62,.44-.14,.86-.26,1.19-.42,.33-.16,.49-.32,.59-.6,.19-.63,.25-1.33,.29-2.08,.03-.73,.16-1.71,.73-2.45,.81-1.05,2.02-1.52,3.18-1.76,1.14-.23,2.3-.22,3.42-.08,.67,.09,1.31,.28,1.98,.31,.36,.01,1.29,.28,1.63,.47,1.15,.64,2.44,1.13,3.62,1.78,3.32,1.85,6.47,4.02,9.34,6.51,.69,.62,1.55,1.23,2,1.98,.06,.1,.5,.42,.76,.64,.28,.24,.63,.52,.8,.73,1.51,1.96,3.3,3.81,4.79,5.84,3.58,4.91,6.48,10.39,8.02,16.3,.42,1.65,.89,3.09,1.1,4.74,.18,1.6,.33,3.21,.22,4.82-.01,.57-.03,1.16-.04,1.73-.06,.57-.18,1.13-.35,1.64-.1,.28-.2,1.09-.19,1.43,0,.64-.15,1.29-.29,1.95-.15,.66-.3,1.32-.52,1.96-.24,.78-.51,1.56-.78,2.34-.32,.76-.62,1.52-.83,2.3-.09,.44-.6,1.12-.92,1.7l-.82,1.51-.91,1.46c-.29,.47-.5,.97-.8,1.43-2.36,3.53-5.23,6.71-8.47,9.46-3.3,2.8-6.97,5.16-10.86,7.06-3.9,1.89-8,3.3-12.18,4.33-1.58,.35-3.25,.94-4.77,.89-1.42,.48-2.74,.54-4.05,.53-.19,0-.64,.16-.98,.22-1.07,.2-2.06,.65-3.29,.42-.05,0-.19,.02-.29,.02-1,.03-1.66,.45-2.94,.33-.8-.08-2.07,.07-3.13,.09-1.09,.04-2.2,.08-3.28,.11-1.12,.04-2.34-.07-3.4,.17-.17,.04-1-.14-1.48-.12-2.5,.05-5.07-.24-7.53-.03-.57,.05-1.46,0-2.05-.08-2.15-.3-4.17-.28-6.38-.32-2.91-.03-6.03-.17-8.86-.64-.6-.1-.87-.17-1.49-.1-.41,.05-1.11-.01-1.68-.05-6.34-.39-12.68-.83-19.01-1.34-1.72-.14-3.31-.51-5.08-.57-.73-.03-1.58-.22-2.2-.07-.09,.02-.39,.01-.53-.02-2.1-.41-4.24-.28-6.33-.57-.45-.07-.88-.14-1.32-.21-.46-.07-.98-.18-1.37-.18-3.26-.02-6.58-.58-9.85-.85-1.12-.1-2.32-.36-3.34-.22-.15,.02-.65-.04-.86-.09-1.88-.5-3.99-.52-5.96-.82-1.01-.16-2.17-.13-3.05-.48-.11-.04-.52-.07-.78-.08-.44-.02-.88,0-1.3-.05-1.17-.16-2.44-.45-3.48-.5-1.29-.06-2.49-.25-3.72-.4-.35-.04-.7-.12-1.05-.19-.28-.06-.57-.13-.86-.19-.24-.04-.48-.08-.72-.1-.18,0-.67-.15-.3,.1,.13,.14,.22,.32,.28,.51,.05,.25,.07,.44-.05,.92-.11,.4-.28,.77-.52,1.08-.34,.44-.68,.83-1.15,1.11-.49,.28-1,.41-1.61,.36-.9-.08-1.93-.07-2.85-.35-.46-.13-.92-.34-1.34-.52-.32-.14-.61-.33-.92-.43-.7-.23-1.36-.52-2.14-.68-.54-.1-1.42-.54-2.17-.8-.74-.27-1.51-.48-2.26-.72-.76-.23-1.56-.54-2.26-.67-3.09-.65-6.17-1.59-9.28-2.29-.8-.17-1.74-.3-2.39-.67-.11-.07-.57-.17-.81-.19-3.02-.35-6.07-1.18-9.12-1.64-2.17-.32-4.32-.55-6.52-.92-2.14-.35-4.36-.73-6.45-.91-1.72-.14-3.42-.28-5.09-.54-1.64-.26-3.26,0-4.83-.55-1.68-.18-3.35-.35-5.02-.53-1.41-.16-2.86-.21-4.22-.57-.49-.13-1.47-.23-2.02-.22-1.79,.02-3.49-.23-5.26-.59-.42-.08-.97-.05-1.45-.11-1.48-.22-2.98-.4-4.44-.71-4.36-.86-8.7-1.62-12.93-3.05-.79-.24-1.69-.42-2.36-.72l-1.53-.67-1.52-.71c-1.03-.44-2.03-.94-3.03-1.45-2.02-.98-3.97-2.09-5.75-3.41-2.62-1.95-5.11-4.16-7.05-6.87-1.96-2.68-3.24-5.94-3.49-9.28-.06-.87,.1-1.78,.07-2.19-.14-1.28,.18-2.72,.31-3.78,.2-1.94,1.03-3.72,1.92-5.39,.67-1.23,1.68-2.35,2.36-3.45,.09-.17,.43-.51,.63-.66,1.59-1.27,2.94-2.75,4.6-3.79,1.43-1.19,2.98-2.21,4.48-3.24,1.51-1.02,2.96-2.09,4.37-3.26,.42-.34,.78-.72,1.18-1.08,.2-.18,.43-.41,.62-.54,2.79-1.85,5.43-4.25,8.61-5.87,1.05-.52,2.12-.94,3.24-1.32,1.12-.4,2.24-.79,3.29-.92,.33-.04,.93-.26,1.35-.44,1.1-.46,2.06-.86,2.77-1.15,.69-.27,1.19-.42,1.43-.2,.17,.15-.21,.54-.62,.94-.81,.78-1.78,1.37-3.05,1.8-.98,.34-2.09,.58-2.88,1.06-.13,.08-.57,.21-.81,.26-1.69,.36-3.39,1.33-4.85,2.05-1.13,.55-2.1,1.21-3.1,1.89-.85,.56-1.61,1.29-2.54,1.76-.31,.16-.99,.92-1.54,1.37-1.3,1.07-2.61,2.15-3.97,3.14-4.11,3.06-8.51,5.63-11.97,9.25-2.23,2.74-3.98,6.1-4.31,9.65-.4,4.23,.48,8.58,2.96,12.02,.51,.7,.91,1.27,1.37,1.9,.29,.41,.62,.84,.98,1.22,1.42,1.46,3.04,2.73,4.72,3.9,.9,.63,2.02,1.16,2.73,1.87,.1,.1,.53,.35,.74,.42,.85,.34,1.71,.72,2.56,1.15,.84,.45,1.71,.87,2.58,1.23,.67,.27,1.29,.58,1.99,.94,.76,.38,2,.9,2.89,1.06,.66,.14,1.23,.32,1.84,.5,2.57,.69,5.19,1.66,7.82,1.85,1.28,.57,2.99,.76,4.36,.94,5.32,.6,10.64,1.34,15.99,1.83,1.29,.12,2.58,.37,3.89,.54,1.38,.15,2.76,.31,4.15,.46,.74,.08,1.58,.28,2.18,.14,.04,0,.18,0,.25,0,.78,.13,1.57,.31,2.34,.39,.69,.08,1.35,.02,2.05,.08,.84,.06,1.72,.19,2.58,.3,.83,.11,1.73,.19,2.37,.48,.68-.13,1.62,.12,2.45,.24,.78,.11,1.57,.25,2.36,.37l2.65,.45c.88,.16,1.77,.31,2.64,.47,1.21,.18,2.4,.33,3.6,.55,1.27,.22,2.55,.5,3.8,.79,1.57,.38,3.12,.8,4.68,1.22,.65,.18,1.21,.26,1.87,.34,.86,.1,1.99,.17,3,.75,.2,.11,.96,.31,1.39,.39,3.43,.62,6.77,1.96,10.1,3.05,1.75,.82,3.58,1.56,5.05,1.36,.27-.04,.58-.13,.75-.22,.17-.09,.34-.24,.49-.43,.15-.19,.26-.42,.33-.64l.04-.16v-.08s.01-.04,.01-.04v-.16c-.29-.3-.71-.63-1.05-.95l-2.39-2,1.32,.13,.62,.04c.11,0,.14,0,.16,0h.09c.09,0,.04-.02,.04-.02h-.01s.24,.02,.24,.02l.47,.06,.94,.13c.62,.09,1.23,.18,1.84,.27l.85,.13,.49,.09c2.99,.54,5.95,.82,8.91,1.23,.83,.11,1.75,.13,2.43,.43,.16,.07,.79,.13,1.14,.14,2.44,.06,4.77,.39,7.22,.8,1.29,.22,2.77,.28,4.21,.36,2.17,.1,4.51,.44,6.78,.66,.95,.36,1.75,.17,2.26,.1,.69-.09,1.32-.05,2.12,.02,1.03,.09,2.04,.23,3.07,.15,.53-.04,1.68,.09,2.24,.23,.74,.19,1.02,.15,1.72,.13,.82-.02,1.64,.29,2.66,.37,1.09,.08,2.37,.05,3.31,.4,.08,.03,.42,.06,.57,.05,2.04-.11,4.02,.44,6.03,.48,5.99,.76,12.1,.91,18.13,1.37,2.49,.18,4.99,.53,7.46,.52,5.18,0,10.34,.42,15.49,.43,1.09,0,2.35-.13,3.33,.14,.14,.04,.64,.03,.86-.01,1.63-.26,3.21-.22,4.86-.13,.4,.03,1.14-.01,1.38-.1,.67-.22,1.46-.2,2.19-.24,.88-.05,2.05,0,2.57-.14,1.1-.28,1.74-.16,2.59-.22,.52-.04,1.1-.15,1.64-.26,.26-.05,.56-.18,.71-.19,1.74-.01,3.35-.65,5.04-.88,.36-.05,.74-.15,1.09-.2,2-.29,2.99-.49,4.09-.78,1.11-.27,2.31-.69,4.68-1.6,.7-.09,1.4-.4,2.1-.72,.69-.34,1.38-.72,2.12-.91,.27-.07,.65-.21,1.03-.4,.37-.2,.75-.42,1.04-.6,2.56-1.59,5.27-3.1,7.64-5,.49-.4,1-.53,1.53-1.17,.21-.23,1.09-.79,1.61-1.25,.37-.34,.78-.66,1.15-1.01,.36-.37,.71-.75,.98-1.18,.21-.36,.93-.92,1.33-1.45,.57-.71,1.24-1.35,1.69-2.16,.22-.46,.91-1.39,1.32-1.8,.86-.83,1.41-1.84,1.98-2.79,.53-.98,.9-2.01,1.36-2.99,.24-.61,.38-1.05,.7-1.65,.21-.43,.5-.92,.69-1.42,.18-.5,.34-.98,.41-1.35,.3-1.29,.57-2.5,.86-3.74,.22-1.08,.3-2.18,.47-3.26,.07-1.1,.08-2.2,.1-3.29-.1-2.5-.37-5.01-1.17-7.44-.42-1.31-1.05-2.99-1.32-4.48-.03-.17-.39-.67-.56-1.04-1.23-2.93-2.77-5.75-4.52-8.42-.41-.61-.62-1.45-1.22-1.86-.61-.44-.7-1.35-1.32-1.64-.09-.04-.49-.58-.7-.86-2.16-3.1-5.1-5.67-8.02-8.07-.7-.58-1.6-1.11-2.05-1.73-2.01-1.11-3.96-2.97-6.14-3.61-1.43-.79-3.12-1.21-4.52-1.83-.23-.11-.78-.15-1.04-.23-.93-.27-1.54,.1-2.61-.01-.65-.09-1.73,.34-2.36,.89-.62,.51-.78,.93-.84,1.9-.05,.75-.09,1.66-.38,2.58-.11,.23-.19,.47-.34,.68-.16,.2-.32,.4-.54,.54-.71,.5-1.32,.6-1.82,.77-.51,.15-.94,.31-1.27,.52-.66,.41-.92,1.11-1.02,2.02-.06,1.21-.82,2.83-1.99,3.57-.24,.19-.64,.46-.71,.56-.61,.8-1.9,1.05-2.67,1.17-.66,.11-1.2,.22-1.85,.42-1.7,.52-3.52,1.25-5.31,1.82-1.06,.35-2.17,.85-3.26,.94-.34,.03-1.2,.32-1.67,.51-2.21,.93-4.68,1.4-7.07,1.9-1.08,.23-2.19,.4-3.28,.55-.83,.12-1.65,.38-2.51,.31-4.06,.73-8.3,.62-12.43,.42-2.06-.1-4.12-.28-6.16-.53-2.06-.24-4.05-.62-5.96-.72-.96-.06-1.98,.1-2.82-.03-.16-.03-.83,.09-1.01,.19-.51,.26-.88,.43-1.54,.45-.12,0-.62,.21-.88,.34-.72,.37-1.41,.62-2.25,.85-.66,.18-1.55,.43-2.16,.71-.82,.36-1.62,.73-2.45,1-.83,.26-1.68,.47-2.58,.6-.22,.03-.76,.37-1.15,.47-1.51,.32-3.01,.85-4.56,.97-.64,.03-1.53,.26-2.31,.38-1.33,.23-2.58,.52-3.99,.63-1.43,.14-2.98,.31-4.49,.44-1.5,.16-3.01,.15-4.52,.22-1.51,.08-3.02-.02-4.52-.02-1.51-.03-3.01-.18-4.52-.26-1.5-.13-3-.33-4.5-.49-1.49-.24-2.98-.48-4.46-.74-1.03-.23-1.98-.46-3-.78-1.3-.39-2.71-.9-4.32-1.31-.81-.2-1.63-.49-2.51-.74-.87-.27-1.82-.48-2.77-.81-.28-.09-.56-.21-.84-.32-.91-.36-1.84-.68-2.74-1.06l-2.69-1.19c-.89-.38-1.8-.82-2.7-1.37-.44-.28-.88-.59-1.29-.97-.21-.19-.4-.39-.59-.6-.09-.11-.18-.22-.27-.34-.05-.05-.09-.12-.13-.18l-.05-.08c-.06-.1-.11-.22-.14-.36-.05-.07-.19,.05-.29,.07l-.17,.07-.04,.02-.11,.05-.23,.11c-.61,.3-1.23,.62-1.84,.95-1.04,.48-2.07,.91-3.05,1.53-.82,.53-2.17,.74-3.13,1.37-.35,.23-1.37,.6-1.92,.67-.9,.15-1.79,.39-2.67,.66-.89,.26-1.8,.47-2.69,.68l-1.55,.36-1.56,.27c-1.05,.16-2.08,.41-3.13,.51-1.03,.12-2.07,.16-3.11,.47-.51,.13-1.77,.12-2.54,.08-.59-.04-1.18-.02-1.76-.02-.58,0-1.15,0-1.71,.03-2.38,.11-2.37,.1-4.7-.21-.28-.04-.58-.06-.87-.08-1.45-.13-2.91-.39-4.37-.58-1.44-.28-2.87-.54-4.27-.78-1.16-.25-2.3-.52-3.44-.8-1.12-.33-2.23-.71-3.35-1.07-.9-.26-1.92-.63-2.57-1.14-.09-.08-.58-.27-.81-.33-.97-.22-1.9-.66-2.83-1.11-.93-.46-1.86-.91-2.76-1.43-1.73-.97-3.5-1.86-4.95-3.59-1.35-1.6-2.34-3.76-2.32-6.02,.02-1.73,.59-2.77,.99-3.25,.43-.48,.72-.48,.98-.28,.23,.18,.24,.43,.11,.88-.12,.45-.38,1.14-.42,2.24-.05,2.35,1.11,4.52,2.75,6.04,1.63,1.54,3.57,2.62,5.35,3.45Z"/>
          </g>
        </g>
        <g class="cls-16">
          <g class="cls-16">
            <path class="cls-5" d="M138.84,146.95c-3.28-.65-6.27-2.55-9.11-2.9-.31-.04-.63-.09-.96-.14l.42,.24c3.18,1.81,6.97,3.35,10.8,3.9,2.39,.24,4.83,0,7.42,.03,.29,.01,.32-.3,.34-.46-.26-.2-.48-.42-.68-.64-2.05,.22-4.14,.25-6.25-.11-.68-.17-1.56,.22-1.97,.08Z"/>
            <polygon class="cls-7" points="147.15 147.01 147.11 146.97 146.8 146.99 147.15 147.01"/>
            <path class="cls-4" d="M142.07,147.12c-.71,.01-1.38-.13-2.04-.27-.47,.06-.92,.18-1.18,.1-3.28-.65-6.27-2.55-9.11-2.9-.3-.04-.62-.09-.95-.14l.45,.26c1.1,.63,2.28,1.22,3.5,1.76l.22,.03c.78,.04,1.34,.51,2.02,.77,2.01,.43,3.61,1.12,5.69,1.32,.73,.11,1.57-.19,2.42-.03,.29,.04,.56,.08,.86,.12,.58-.03,1.16-.04,1.74-.04,.59-.03,1.18-.04,1.79-.02,.29,.01,.32-.3,.33-.46-.14-.11-.26-.22-.38-.33-.96-.06-1.92-.04-2.89-.17-.86,.04-1.71-.02-2.58-.1,.03,.03,.07,.06,.12,.1Z"/>
            <path class="cls-7" d="M142.05,146.64c-.12-.02-.3,.19-.11,.39,.86,.08,1.72,.14,2.58,.1-.82-.06-1.64-.23-2.47-.48Z"/>
            <path class="cls-8" d="M142.35,145.56c-1.57-.36-3.18-.32-4.4-.93-.64-.31-1.24-.74-1.72-1.2-.22-.05-.43-.12-.63-.19-5.29-1.46-10.35-3.87-15.24-6.56-1.25-.64-2.53-1.11-3.84-1.51-1.32-.4-2.74-.76-4.26-.93-1.78-.32-3.29-.62-5.06-.59-2.22,.02-4.02,.73-5.75,1.24-1.73,.49-3.66,.93-5.58,.14-.97-.46-1.9,.32-1.67,.54,1.76,1.24,3.8,1.56,5.63,1.54,1.86,0,3.63-.39,5.29-.73,1.67-.34,3.3-.65,4.87-.6,1.56,.03,3.11,.5,4.73,1.09,5.07,1.92,9.57,4.45,14.05,7.04,.33,.05,.66,.1,.96,.14,2.85,.35,5.83,2.25,9.11,2.9,.41,.13,1.29-.25,1.97-.08,2.11,.35,4.2,.32,6.25,.11-.41-.46-.73-.94-1.13-1.28-1.21,.13-2.45,.2-3.59-.13Z"/>
            <path class="cls-6" d="M142.35,145.56c1.15,.33,2.39,.26,3.59,.13-.19-.16-.4-.32-.65-.43-2.82-.85-6.06-1-9.06-1.83,.48,.46,1.07,.89,1.72,1.2,1.23,.61,2.83,.57,4.4,.93Z"/>
            <path class="cls-4" d="M142.35,145.56c1.09,.32,2.28,.25,3.43,.15-.39-.09-.77-.17-1.16-.21-1.99-.22-4.02-.49-5.88-1.3,2.07,.55,4.18,.94,6.31,.98-2.76-.77-5.91-.93-8.81-1.74,.48,.46,1.07,.89,1.71,1.19,1.23,.61,2.83,.57,4.4,.93Z"/>
            <path class="cls-3" d="M139.07,145.12c2.35,.73,4.82,1.19,7.33,.99-.1-.12-.21-.23-.32-.33-.11-.02-.2-.04-.3-.06-1.15,.1-2.33,.16-3.43-.15-1.57-.36-3.18-.32-4.4-.93-.64-.31-1.23-.74-1.71-1.19-.2-.05-.4-.11-.6-.18-2.7-.74-5.35-1.74-7.93-2.89-2.41-.65-4.81-1.91-7.06-3.27,1.11,.54,2.23,1.04,3.37,1.52-1.21-.61-2.42-1.25-3.61-1.91-1.06-.54-2.13-.96-3.24-1.32-.34,.17-.77,.24-1.4,.06-.97-.29-1.91-.7-3.01-.72-.14-.04-.05-.26-.33-.35,.79,.23,1.47,.3,2.1,.27-.71-.16-1.45-.3-2.22-.39-1.39-.26-2.63-.5-3.95-.58l-.42,.07c-.69,.12-1.36,.36-2,.64,.27-.04,.55-.08,.84-.12-.42,.21-.98,.3-1.39,.37,.19-.08,.37-.17,.55-.25-.64,.11-1.26,.21-1.94,.33,.82-.14,1.64-.45,2.34-.71-1.56,.31-2.92,.76-4.36,.76l.1-.06c-.97,.3-1.95,.58-2.99,.7-1.03,.12-2.13,.08-3.19-.36-.97-.44-1.91,.32-1.67,.55,1.22,.86,2.62,1.26,3.94,1.42,1.33,.16,2.62,.08,3.87-.08,2.49-.35,4.77-1.04,7.01-1.15-.51-.14-1.05-.26-1.61-.33-.24,0-.47-.03-.7-.08,.23,.03,.46,.05,.7,.08,.64,.01,1.33-.09,2,.04,.13,.08,.51,.1,.68-.12,.88,.21,1.97,.25,2.79,.72,.05,.02,.12,.11,.19,.23,.55,.16,1.11,.36,1.67,.56,3.16,1.2,6.12,2.65,8.98,4.19-.64-.46-1.25-.94-1.78-1.43-.7-.72-2.64-1.28-4.21-1.9-.41-.12-.54-.45-.91-.63,1.62,0,3.15,1.25,4.72,1.88,2.06,.89,4.67,2.78,7.09,3.32,1,.22,1.77,.82,2.42,1.38-.33,.02-.84-.21-1.1-.32-2.29-1.05-4.53-2.19-6.85-3.21,2.23,1.42,4.6,2.36,6.87,3.74-1.45-.57-2.68-1.52-4.13-1.81,.08,.1,.18,.2,.27,.3,.87,.5,1.76,1,2.67,1.52,.33,.05,.65,.09,.95,.14,2.85,.35,5.83,2.25,9.11,2.9,.26,.08,.71-.03,1.18-.1-1.04-.22-2.03-.6-3.05-.87,.38,.2,.75,.39,1.08,.66-1-.19-1.67-.78-2.64-1.02,.54,.08,1.05,.21,1.56,.36-.58-.3-1.21-.52-1.82-.79,1.31,.13,2.26,1.12,3.65,1.02-.27-.06-.53-.14-.79-.23l.81,.23h-.02c.82,.21,1.69,.19,2.45,.2-1.43-.25-2.62-.86-3.98-1.22l-.68-.16c.23,.04,.46,.1,.68,.16,3.13,.75,6.26,1.64,9.53,1.81l.31-.02-.27-.31c-2.67-.09-5.34-.66-7.78-1.54Z"/>
          </g>
        </g>
        <g class="cls-16">
          <g class="cls-16">
            <path class="cls-5" d="M170.3,144.92c-.99,.46-2.31,.11-2.93,1.13-.07,.1-.15,.21-.22,.33h.17c1.28,.04,2.56-.24,3.66-.8,.64-.46,1.2-1.23,2.02-1.41,.09-.02,0-.32-.04-.47-.14-.16-.28-.35-.42-.54-.59,.38-1.15,.86-1.81,1.1-.23,.05-.3,.63-.44,.66Z"/>
            <polygon class="cls-7" points="172.58 143.18 172.55 143.15 172.46 143.2 172.58 143.18"/>
            <path class="cls-4" d="M171.15,144.17c-.19,.16-.39,.25-.61,.3-.09,.19-.15,.43-.24,.44-.99,.46-2.31,.11-2.93,1.13-.07,.1-.14,.21-.21,.32,.06,0,.12,0,.18,0,.44,.01,.89-.01,1.32-.07l.05-.07c.16-.28,.46-.1,.69-.15,.57-.37,1.17-.34,1.74-.71,.21-.13,.32-.55,.6-.61,.09-.04,.18-.05,.27-.06,.3-.25,.63-.46,1.01-.54,.09-.02,0-.32-.04-.47-.08-.09-.15-.18-.22-.27-.32,.04-.62,.16-.93,.24-.24,.17-.48,.33-.74,.46,.02,.02,.04,.04,.07,.06Z"/>
            <path class="cls-7" d="M170.96,143.72s-.01,.24,.11,.38c.26-.13,.5-.29,.74-.46-.26,.07-.54,.11-.85,.07Z"/>
            <path class="cls-8" d="M170.65,142.67c-.57,.05-.94,.61-1.47,.48-.27-.05-.57-.19-.86-.41-.07,.03-.14,.06-.21,.09-1.7,.85-3.44,1.56-5.31,1.81-.91,.2-1.57,.99-2.33,1.63-.5,.26-1.03,.03-1.56-.06-.68-.16-1.15,.1-1.68,.43-.52,.32-1.14,.73-1.86,.73-.37,0-.9,1.14-.8,1.19,1.46,.28,2.76,.24,4,.07,1.23-.18,2.39-.52,3.44-1.08,1.65-.83,3.33-1.21,5.14-1.17,.07-.11,.14-.23,.22-.33,.62-1.02,1.95-.67,2.93-1.13,.14-.03,.21-.61,.44-.66,.66-.24,1.22-.72,1.81-1.1-.28-.39-.54-.8-.78-1.08-.34,.31-.68,.6-1.11,.59Z"/>
            <path class="cls-6" d="M170.65,142.67c.43,0,.77-.28,1.11-.59-.12-.14-.24-.24-.35-.3-1.19-.34-2.11,.52-3.09,.96,.3,.22,.59,.37,.86,.41,.53,.13,.89-.44,1.47-.48Z"/>
            <path class="cls-4" d="M170.65,142.67c.41,0,.74-.26,1.06-.55-.15-.02-.29-.02-.43,0-.69,.15-1.33,.45-2.08,.38,.71-.22,1.42-.45,2.1-.76-1.14-.25-2.03,.58-2.98,1,.29,.22,.59,.37,.86,.41,.53,.13,.89-.44,1.47-.48Z"/>
            <path class="cls-3" d="M169.64,143.21c.85-.11,1.67-.29,2.4-.79-.08-.1-.15-.19-.21-.28-.04,0-.08-.02-.12-.02-.32,.29-.65,.56-1.06,.55-.57,.05-.94,.61-1.47,.48-.27-.05-.57-.19-.86-.41-.07,.03-.13,.05-.2,.08-.87,.44-1.74,.83-2.65,1.15-.66,.64-1.55,.84-2.46,.86,.39-.12,.77-.27,1.15-.46-.44,.11-.89,.2-1.35,.26-.39,.08-.73,.28-1.05,.52,.02,.3-.02,.58-.19,.72-.28,.22-.59,.29-.82,.66-.05,0-.11-.22-.2-.2,.25-.05,.4-.27,.49-.57-.18,.17-.37,.34-.56,.5-.39,.2-.8,.11-1.22,.01-.04,.02-.08,.04-.11,.06-.19,.08-.36,.26-.53,.45,.08,0,.17-.02,.26-.02-.1,.17-.28,.18-.41,.19l.15-.17c-.2,.02-.39,.03-.6,.03,.26,0,.49-.18,.68-.35-.45,.12-.86,.29-1.31,.11l.03-.04c-.57,.35-1.23,.83-2.04,.85-.36,0-.9,1.14-.8,1.19,2.03,.37,3.79,.19,5.43-.24-.23-.12-.46-.23-.68-.34-.09-.02-.18-.06-.27-.13,.09,.04,.18,.09,.27,.13,.25,.06,.48-.03,.75,.04,.07,.07,.21,.04,.2-.2,.37,.09,.68-.21,1.05-.13,.02,0,.07,.05,.13,.12,.19-.08,.38-.17,.56-.27,1.03-.52,2.07-.86,3.15-1.04-.29-.06-.59-.14-.88-.27-.41-.23-.94,.29-1.44,.56-.11,.11-.27-.1-.41-.07,.26-.78,1.01-.54,1.51-.82,.69-.31,1.88-.09,2.5-.79,.25-.3,.64-.14,.98,.02-.05,.17-.23,.21-.32,.23-.82,.18-1.65,.36-2.43,.69,.94,.03,1.69-.37,2.65-.26-.48,.19-1.07,0-1.42,.47,.06,.04,.11,.08,.17,.11,.35-.03,.7-.03,1.06-.03,.07-.11,.14-.22,.21-.32,.62-1.02,1.95-.67,2.93-1.13,.09-.02,.15-.26,.24-.44-.34,.09-.7,.11-1.03,.22,.16,.03,.32,.09,.49,.21-.3,.15-.66-.09-.96,.05,.14-.13,.3-.21,.47-.26-.24-.04-.46-.01-.69,0,.32-.39,.91,.12,1.19-.42-.09,.03-.18,.05-.27,.05l.27-.06h0c.26-.1,.48-.32,.67-.55-.45,.17-.97,0-1.42,.17-.07,.04-.14,.07-.21,.11,.07-.05,.14-.08,.21-.11,.98-.48,2.13-.48,3.21-.67l.09-.06-.19-.26c-.88,.2-1.8,.32-2.73,.33Z"/>
          </g>
        </g>
        <g class="cls-16">
          <g class="cls-16">
            <path class="cls-5" d="M335.57,46.61c-.24,1.29-.83,2.51-1.41,3.64-.58,1.14-1.16,2.19-1.42,3.33-.07,.24-.14,.49-.21,.76l.26-.29c1.98-2.17,3.48-5.23,3.83-8.31,.11-1.94-.35-3.86-.55-5.9-.02-.23-.33-.21-.49-.2-.17,.23-.37,.43-.57,.6,.37,1.53,.63,3.16,.38,4.81-.1,.53,.28,1.23,.19,1.56Z"/>
            <polygon class="cls-7" points="335.04 40.17 335 40.21 335.05 40.44 335.04 40.17"/>
            <path class="cls-4" d="M335.56,44.07c.04,.55-.03,1.08-.13,1.6,.08,.37,.2,.73,.15,.94-.24,1.29-.83,2.51-1.41,3.64-.58,1.14-1.16,2.19-1.42,3.33-.07,.24-.14,.49-.21,.75l.28-.31c.68-.76,1.32-1.61,1.85-2.54l.03-.18c.06-.63,.53-1.02,.76-1.56,.43-1.58,1.01-2.87,1.12-4.54,.04-.6-.25-1.25-.19-1.93,0-.24,.04-.46,.06-.68-.14-.91-.27-1.82-.37-2.78-.02-.23-.33-.21-.49-.2-.09,.12-.19,.23-.29,.34,.04,.74,.12,1.48,.1,2.24,.09,.65,.13,1.32,.09,2,.03-.02,.06-.06,.09-.1Z"/>
            <path class="cls-7" d="M335.08,44.09c-.01,.09,.2,.23,.39,.08,.04-.67,0-1.34-.09-2,0,.63-.09,1.28-.3,1.92Z"/>
            <path class="cls-8" d="M333.99,43.88c-.26,1.16-.09,2.39-.66,3.28-.28,.46-.65,.87-1.1,1.17-.05,.15-.11,.31-.16,.46-1.25,3.8-3.9,7.15-7.27,9.43-1.63,1.2-2.89,2.71-4.54,4.13-1.04,.73-2.13,.92-3.32,1.29-1.51,.43-2.68,1.14-3.9,1.89-1.22,.73-2.52,1.51-4.1,1.79-.84,.14-1,1.38-.78,1.4,2.96-.23,5.59-1.09,8.06-2.18,2.45-1.11,4.79-2.37,6.98-4.05,3.39-2.59,6.47-5.11,9.31-8.15,.07-.26,.15-.52,.21-.76,.26-1.14,.84-2.19,1.42-3.33,.58-1.13,1.17-2.35,1.41-3.64,.09-.33-.29-1.03-.19-1.56,.25-1.65,0-3.28-.38-4.81-.41,.37-.85,.66-1.18,.98,.26,.87,.39,1.8,.16,2.66Z"/>
            <path class="cls-6" d="M333.99,43.88c.23-.86,.09-1.79-.16-2.66-.16,.16-.28,.32-.36,.51-.32,1.06-.44,2.14-.58,3.25-.14,1.11-.31,2.27-.66,3.33,.45-.29,.82-.71,1.1-1.17,.56-.88,.4-2.11,.66-3.28Z"/>
            <path class="cls-4" d="M333.99,43.88c.22-.82,.1-1.71-.13-2.54-.04,.29-.08,.58-.1,.87-.06,1.47-.2,2.99-.88,4.31,.43-1.5,.63-3.07,.53-4.61-.53,2.02-.47,4.3-1.17,6.4,.45-.29,.82-.71,1.1-1.17,.56-.88,.4-2.11,.66-3.28Z"/>
            <path class="cls-3" d="M333.76,46.34c.6-1.74,.87-3.65,.45-5.49-.11,.09-.22,.18-.32,.27-.02,.08-.03,.16-.04,.23,.23,.83,.35,1.72,.13,2.54-.26,1.16-.09,2.39-.66,3.28-.28,.46-.65,.87-1.1,1.17l-.15,.43c-.65,1.93-1.62,3.78-2.91,5.39-.81,1.66-2.33,3.05-3.97,4.05,.7-.57,1.35-1.19,1.95-1.86-.73,.67-1.5,1.3-2.33,1.86-.7,.51-1.31,1.08-1.93,1.66,.03,.34-.05,.71-.4,1.04-.55,.52-1.19,.88-1.69,1.52-.09,.05-.2-.16-.38-.06,.52-.28,.84-.67,1.05-1.11-.38,.37-.77,.73-1.18,1.08-.82,.58-1.67,.81-2.57,1.07l-.25,.16c-.42,.26-.8,.6-1.18,.96,.19-.08,.37-.16,.57-.25-.23,.27-.61,.44-.91,.56,.11-.1,.23-.21,.33-.31-.45,.19-.88,.36-1.35,.54,.58-.22,1.11-.61,1.52-.96-1.01,.52-1.93,1.06-3.04,1.23l.06-.07c-1.34,.82-2.75,1.72-4.5,2.05-.83,.14-1,1.38-.77,1.4,4.13-.35,7.63-1.85,10.91-3.6-.46,.05-.91,.1-1.35,.15-.18,.05-.37,.08-.56,.07,.18-.02,.37-.05,.56-.07,.5-.13,.97-.42,1.51-.55,.13,.03,.42-.12,.42-.38,.74-.2,1.41-.81,2.13-1.04,.04-.02,.14,0,.26,.02,.39-.27,.77-.55,1.15-.84,2.12-1.62,4.12-3.21,6.01-4.92-.53,.34-1.07,.63-1.61,.83-.76,.24-1.71,1.48-2.7,2.34-.23,.25-.53,.17-.8,.34,.53-1.19,1.94-1.71,2.85-2.66,1.22-1.17,3.33-2.58,4.04-4.39,.28-.74,.89-1.19,1.44-1.6,0,.27-.24,.64-.36,.81-1.14,1.6-2.45,3.03-3.79,4.45,1.68-1.2,2.84-2.82,4.29-4.34-.64,1.06-1.64,1.78-2.11,2.86,.11-.03,.21-.07,.31-.12,.57-.57,1.15-1.15,1.71-1.75,.07-.26,.14-.51,.21-.75,.26-1.14,.84-2.19,1.42-3.33,.58-1.13,1.17-2.35,1.41-3.64,.05-.21-.07-.57-.15-.94-.19,.81-.48,1.58-.73,2.36,.18-.29,.37-.56,.61-.81-.16,.78-.69,1.28-.93,2.01,.09-.41,.2-.81,.32-1.2-.26,.44-.48,.91-.73,1.36,.12-1.01,1.03-1.69,.89-2.79-.05,.21-.12,.41-.2,.61l.2-.62h0c.14-.63,.12-1.29,.05-1.89-.14,1.11-.7,2-1,3.01-.04,.17-.09,.34-.13,.52,.03-.18,.08-.35,.13-.52,.6-2.36,1.28-4.76,1.16-7.28l-.06-.23-.28,.24c.16,2.03-.22,4.09-.95,5.89Z"/>
          </g>
        </g>
        <g class="cls-16">
          <g class="cls-16">
            <path class="cls-5" d="M240.82,67.76c-.69-.11-1.14-1.07-1.94-.53-.09,.05-.17,.1-.26,.17,.03,.03,.05,.06,.08,.09,.58,.67,1.32,1.08,2.12,1.16,.53-.06,1.17-.42,1.65-.16,.05,.03,.16-.27,.21-.41,.01-.21,.04-.43,.07-.65-.47,.02-.97,.14-1.4,.02-.13-.07-.45,.37-.53,.33Z"/>
            <path class="cls-7" d="M242.76,67.46s0-.03,0-.04c-.02,0-.05,0-.07,0,.02,.01,.04,.03,.06,.04Z"/>
            <path class="cls-4" d="M241.6,67.56c-.17,.04-.31,0-.44-.05-.14,.11-.28,.28-.33,.25-.69-.11-1.14-1.07-1.94-.53-.08,.05-.17,.1-.26,.16,.03,.03,.06,.06,.08,.09,.2,.23,.42,.43,.66,.6,.02-.01,.04-.02,.06-.03,.21-.15,.27,.15,.4,.22,.45-.02,.72,.3,1.17,.28,.16,0,.43-.3,.59-.21,.06,.01,.11,.04,.16,.09,.27-.06,.52-.07,.75,.05,.05,.03,.16-.27,.21-.42,0-.11,.02-.22,.03-.34-.17-.12-.37-.18-.56-.27-.2,.02-.39,.03-.57,0,0,.03,0,.06,0,.08Z"/>
            <path class="cls-7" d="M241.73,67.1s-.13,.19-.14,.37c.19,.02,.38,.01,.57,0-.16-.07-.31-.17-.44-.37Z"/>
            <path class="cls-8" d="M242.11,66.07c-.29-.25-.74,.04-.93-.33-.1-.17-.17-.44-.2-.77-.05,0-.1-.02-.14-.03-1.22-.14-2.39-.42-3.4-1.15-.53-.29-1.22,.04-1.92,.19-.37-.03-.53-.47-.79-.79-.63-.88-1.78,.14-2.77,.26-.27,.03-.7,1.21-.64,1.24,1.59-.01,2.76,.98,4.3,1.11,1.19,.13,2.17,.66,3,1.6,.09-.06,.18-.12,.26-.17,.8-.54,1.25,.42,1.94,.53,.08,.04,.4-.4,.53-.33,.43,.13,.93,0,1.4-.02,.06-.47,.15-.93,.17-1.29-.31,.09-.62,.16-.82-.06Z"/>
            <path class="cls-6" d="M242.11,66.07c.2,.22,.5,.15,.82,.06,.01-.17,0-.32-.02-.42-.39-.88-1.25-.62-1.93-.75,.03,.33,.1,.6,.2,.77,.18,.37,.64,.08,.93,.33Z"/>
            <path class="cls-4" d="M242.11,66.07c.19,.21,.48,.16,.77,.07-.06-.09-.13-.16-.21-.21-.4-.22-.85-.29-1.17-.73,.44,.17,.89,.34,1.37,.42-.41-.78-1.24-.54-1.89-.66,.03,.33,.1,.6,.2,.77,.18,.37,.64,.08,.93,.33Z"/>
            <path class="cls-3" d="M241.36,66.02c.45,.33,.93,.6,1.52,.54,.02-.12,.03-.23,.04-.34-.01-.03-.03-.05-.05-.08-.3,.08-.58,.14-.77-.07-.29-.25-.74,.04-.93-.33-.1-.17-.17-.44-.2-.77-.05,0-.09-.02-.13-.03-.62-.07-1.23-.18-1.82-.36-.63,.2-1.14-.08-1.58-.52,.24,.09,.5,.16,.77,.19-.26-.13-.52-.28-.77-.46-.22-.12-.48-.13-.75-.1-.14,.26-.3,.47-.45,.5-.24,.05-.43-.06-.72,.14-.03-.01,.05-.24,0-.27,.15,.08,.33-.03,.52-.23-.17,.05-.35,.1-.52,.14-.29-.02-.45-.3-.64-.57-.03,0-.06,0-.09,0-.14-.01-.32,.07-.5,.17,.05,.03,.1,.06,.16,.09-.13,.1-.24,.05-.32,0,.05-.03,.11-.06,.16-.09-.12-.07-.24-.13-.37-.2,.16,.09,.37,.03,.56-.05-.32-.09-.64-.08-.88-.39,.01-.01,.02-.02,.04-.03-.53,.14-1.13,.49-1.68,.55-.27,.03-.7,1.21-.64,1.24,1.11,0,2.02,.47,2.99,.81-.05-.2-.11-.4-.17-.59-.04-.06-.06-.13-.08-.23,.03,.07,.05,.15,.08,.23,.1,.15,.25,.17,.35,.36,0,.09,.08,.13,.19-.08,.13,.25,.42,.14,.56,.39,.01,0,0,.08,0,.16,.13,.02,.26,.04,.39,.05,.74,.08,1.4,.32,2,.71-.11-.2-.21-.41-.28-.66-.08-.4-.58-.23-.96-.26-.11,.03-.08-.22-.16-.26,.51-.52,.74,.05,1.12,.08,.48,.08,.93,.86,1.57,.59,.27-.12,.37,.2,.45,.51-.11,.12-.21,.06-.27,.03-.48-.26-.95-.52-1.49-.64,.42,.5,.98,.54,1.38,1.11-.32-.09-.5-.54-.9-.32,0,.06,.01,.12,.02,.18,.18,.15,.35,.32,.51,.51,.09-.06,.18-.11,.26-.16,.8-.54,1.25,.42,1.94,.53,.05,.03,.2-.14,.33-.25-.2-.1-.38-.26-.59-.33,.06,.1,.11,.23,.13,.42-.21-.03-.26-.41-.48-.44,.13-.03,.24-.02,.35,.02-.09-.15-.21-.24-.32-.36,.34-.16,.37,.55,.76,.25-.06-.02-.11-.04-.15-.09,.05,.03,.11,.06,.16,.09,0,0,0,0,0,0,.17,.05,.39-.04,.59-.13-.3-.09-.45-.49-.75-.57-.05,0-.1-.01-.15-.01,.06,0,.11,0,.15,.01,.7,.09,1.24,.67,1.84,1.05,.02,0,.05,0,.07,0,.01-.1,.03-.21,.04-.31-.51-.27-1-.64-1.44-1.09Z"/>
          </g>
        </g>
        <g class="cls-16">
          <g class="cls-16">
            <path class="cls-5" d="M286.6,75.76c-2.43,.15-4.95-.66-7.03,.04-.22,.07-.46,.14-.7,.22l.35,.07c2.67,.54,5.61,.73,8.37,.49,1.71-.27,3.42-.88,5.31-.95,.21,0,.21-.32,.21-.48-.2-.19-.38-.39-.54-.6-1.5,.29-3.01,.64-4.58,.69-.52-.01-1.08,.52-1.4,.51Z"/>
            <polygon class="cls-7" points="292.64 74.6 292.61 74.56 292.38 74.6 292.64 74.6"/>
            <path class="cls-4" d="M288.93,75.28c-.51,.11-1.01,.14-1.51,.13-.32,.15-.62,.36-.82,.36-2.43,.15-4.95-.66-7.03,.04-.22,.07-.45,.14-.7,.21,.13,.02,.25,.05,.38,.08,.92,.19,1.88,.33,2.85,.43l.16-.05c.55-.2,1.05,.06,1.57,.1,1.49-.15,2.73,.06,4.23-.14,.53-.07,1.08-.45,1.71-.45,.22-.02,.42-.01,.63,0,.82-.18,1.66-.33,2.54-.36,.21,0,.21-.32,.21-.48-.11-.1-.21-.2-.3-.31-.71,0-1.42,.06-2.14,.07-.62,.11-1.25,.21-1.88,.27,.03,.03,.06,.05,.1,.08Z"/>
            <path class="cls-7" d="M288.85,74.8c-.09,0-.19,.23-.02,.4,.64-.06,1.26-.16,1.88-.27-.61,.01-1.23,0-1.86-.12Z"/>
            <path class="cls-8" d="M288.91,73.7c-1.22-.1-2.39,.33-3.4,.05-.53-.13-1.05-.36-1.5-.67-.17,0-.34,0-.5,0-4.14,.23-8.3,.14-12.34-.57-2.03-.27-3.97,.07-6.11,.18-1.25-.05-2.2-.55-3.38-.94-2.91-1.05-5.7-.17-8.86-.35-.85-.05-1.21,1.16-1,1.21,5.27,.52,10.1,1.83,15.38,2.03,4.08,.18,7.88,.63,11.67,1.38,.25-.08,.48-.15,.7-.22,2.08-.7,4.6,.1,7.03-.04,.31,.01,.88-.52,1.4-.51,1.57-.06,3.08-.4,4.58-.69-.34-.44-.62-.89-.95-1.21-.9,.25-1.81,.46-2.71,.34Z"/>
            <path class="cls-6" d="M288.91,73.7c.9,.11,1.81-.1,2.71-.34-.16-.16-.34-.28-.54-.36-2.25-.57-4.73,0-7.08,.08,.45,.31,.97,.54,1.5,.67,1.01,.28,2.18-.15,3.4-.05Z"/>
            <path class="cls-4" d="M288.91,73.7c.86,.11,1.73-.08,2.59-.31-.3-.05-.6-.08-.9-.08-1.53,0-3.08,.12-4.59-.18,1.63,0,3.26-.02,4.88-.19-2.2-.48-4.6,.06-6.88,.13,.45,.31,.97,.54,1.5,.67,1.01,.28,2.18-.15,3.4-.05Z"/>
            <path class="cls-3" d="M286.42,73.94c1.85,.15,3.72,.18,5.58-.19-.09-.11-.18-.22-.27-.31-.08-.02-.16-.03-.24-.04-.86,.23-1.73,.42-2.59,.31-1.22-.1-2.39,.33-3.4,.05-.53-.13-1.05-.36-1.5-.67-.16,0-.32,0-.47,0-2.12,.12-4.23,.15-6.34,.06-1.85,.31-3.85,.08-5.74-.35,.9,.09,1.81,.13,2.72,.14-1-.11-1.99-.24-2.98-.41-.86-.11-1.71-.12-2.56-.08-.2,.27-.5,.5-.97,.52-.74,.04-1.46-.07-2.23,.11-.1-.02-.05-.25-.26-.28,.57,.1,1.06,0,1.49-.21-.52,.05-1.04,.09-1.58,.11-.99-.04-1.78-.36-2.65-.68h-.29c-.48-.05-.99,.01-1.5,.09,.2,.04,.39,.08,.6,.12-.34,.09-.75,.01-1.05-.05,.15-.02,.3-.05,.45-.07-.47-.1-.92-.19-1.42-.29,.6,.13,1.25,.1,1.79,.04-1.13-.14-2.18-.2-3.24-.6l.09-.03c-1.61,.04-3.26,.27-5.01,.17-.85-.05-1.21,1.16-1,1.21,3.69,.36,7.14,1.12,10.7,1.6-.39-.23-.77-.45-1.14-.66-.17-.07-.33-.15-.48-.26,.16,.09,.32,.17,.48,.26,.46,.18,1,.22,1.5,.43,.09,.1,.39,.15,.55-.06,.68,.29,1.55,.19,2.24,.47,.04,0,.11,.08,.18,.18,.45,.02,.9,.05,1.36,.07,2.55,.11,4.99,.33,7.39,.66-.57-.18-1.12-.39-1.62-.65-.67-.4-2.18-.2-3.44-.22-.32,.03-.49-.23-.79-.28,1.16-.54,2.52,.04,3.78,.04,1.67,.06,3.98,.78,5.81,.39,.75-.17,1.45,.13,2.04,.41-.23,.14-.64,.11-.85,.09-1.87-.15-3.72-.35-5.61-.4,1.93,.46,3.82,.42,5.76,.89-1.15-.01-2.25-.43-3.34-.15,.09,.06,.18,.12,.27,.18,.75,.12,1.5,.27,2.25,.41,.24-.08,.48-.15,.7-.21,2.08-.7,4.6,.1,7.03-.04,.2,0,.5-.2,.82-.36-.78,0-1.55-.1-2.34-.1,.31,.08,.61,.19,.89,.36-.74,.05-1.33-.3-2.07-.26,.4-.07,.79-.09,1.18-.09-.47-.11-.96-.16-1.46-.24,.96-.25,1.83,.41,2.8-.01-.2,0-.41,0-.61-.03l.62,.03h-.01c.63-.01,1.25-.17,1.8-.34-1.08,.04-2.05-.28-3.1-.26-.17,.01-.34,.03-.52,.04,.18-.02,.35-.04,.52-.04,2.41-.14,4.82,.17,7.24,.15l.23-.04-.22-.29c-1.99,.06-4.02-.06-5.96-.32Z"/>
          </g>
        </g>
      </g>
    </g>
  </g>
</svg>