<?xml version="1.0" encoding="UTF-8"?>
<svg id="_Слой_2" data-name="Слой 2" xmlns="http://www.w3.org/2000/svg" xmlns:xlink="http://www.w3.org/1999/xlink" viewBox="0 0 321.54 224.17">
  <defs>
    <style>
      .cls-1 {
        fill: none;
      }

      .cls-2 {
        clip-path: url(#clippath);
      }

      .cls-3 {
        fill: #f3f9fb;
      }

      .cls-4 {
        fill: #f7fbfc;
      }

      .cls-5 {
        fill: #f8fcfd;
      }

      .cls-6 {
        fill: #f4fafb;
      }

      .cls-7 {
        fill: #f5fafb;
      }

      .cls-8 {
        fill: #fbfdfe;
      }

      .cls-9 {
        fill: #666361;
      }

      .cls-10 {
        fill: #42413c;
      }

      .cls-11 {
        fill: #a2dbed;
      }

      .cls-12 {
        fill: #6e7c6e;
      }

      .cls-13 {
        fill: #515151;
      }

      .cls-14 {
        opacity: .58;
      }

      .cls-15 {
        opacity: .49;
      }

      .cls-16 {
        opacity: .8;
      }
    </style>
    <clipPath id="clippath">
      <rect class="cls-1" width="321.54" height="224.17"/>
    </clipPath>
  </defs>
  <g id="_камни" data-name="камни">
    <g class="cls-2">
      <g>
        <g class="cls-15">
          <path class="cls-12" d="M113.84,116.46c-28.83-1.39-55.6-15.72-69.07-31.91-13.47-16.19-16.05-33.93-16.56-50.95-.62-20.89,2.1-42.67,21.73-58.32,12.97-10.34,35.36-17.43,58.57-13.58,19.49,3.24,34.91,13.14,48.89,22.48,8.73,5.84,17.56,11.76,23.82,18.52,5.64,6.09,9.01,12.69,11.39,19.25,8.85,24.42,4.26,49.35-12.87,69.89-6.89,8.26-16,15.97-29.03,20.85-13.04,4.88-30.48,6.61-46.56,2.85"/>
          <path class="cls-12" d="M149.94,109.52c7.59-2.88,14.65-7.12,20.55-12.68,2.19-2.06,4.68-4.02,6.02-7.02,.34-.74,1.13-1.53,2.09-2.4,.48-.44,.99-.9,1.49-1.39,.47-.51,.92-1.07,1.31-1.65,.52-.79,1.07-1.57,1.59-2.37l1.46-2.45,.74-1.22,.66-1.26,1.33-2.52c1.6-3.43,3.1-6.94,4.04-10.6,1.03-3.53,1.53-7.17,1.87-10.8l.13-2.73c.02-.45,.06-.91,.06-1.36l-.03-1.37-.04-2.73-.2-2.72c-.07-1.8-.38-3.6-.55-5.42-.09-.91-.3-1.8-.44-2.7-.17-.9-.28-1.81-.51-2.69-.82-3.55-1.91-7.05-3.44-10.19-1.34-2.7-2.47-5.27-3.77-7.72-1.29-2.45-2.76-4.8-4.68-6.88-4.05-4.39-9.16-8.28-13.96-12.23-3.5-2.88-7.08-5.72-11-8.11-2.44-1.49-4.96-2.49-7.53-4.18-2.39-1.55-4.92-3.65-7.59-3.93-.22-.03-1.22-.83-1.72-1.26-2.31-2.12-5.69-3.74-8.18-4.36-2.43-.6-4.38-1.48-6.51-2.26-2.91-1.1-5.89-1.95-8.87-2.75-1.5-.34-2.99-.74-4.51-1.01-.76-.14-1.51-.31-2.27-.44l-2.28-.34c-4.55-.66-9.14-1.25-13.8-1.12-4.87,.13-9.9,1.42-14.35,1.99-4.5,.58-8.63,2.01-12.65,3.8-.57,.26-1.18,.49-1.79,.74-.6,.27-1.2,.55-1.78,.85-1.17,.58-2.15,1.37-2.75,2.34-.11,.18-.92,.63-1.31,.8-.82,.33-1.63,.7-2.4,1.13-.75,.45-1.47,.94-2.18,1.45-.69,.54-1.34,1.14-1.98,1.74-.63,.61-1.31,1.18-1.86,1.87-1.14,1.34-2.3,2.64-3.3,4.07-.51,.71-1.09,1.36-1.58,2.08-.49,.72-1.01,1.42-1.56,2.11-.6,.69-1.04,1.49-1.55,2.24-.49,.77-1.01,1.52-1.41,2.36l-1.27,2.46-1.07,2.57c-1.32,3.48-2.35,7.1-3.01,10.81-.23,.97-.41,2.01-.57,3.01-.16,1.01-.17,2.03,.13,3,.2,.68,0,2.77-.25,3.79-1.49,5.54-.8,11.65-.68,17.51,.06,3.35,.43,6.66,.86,9.94,.46,3.27,.92,6.55,1.39,9.83,.15,1.41,.53,3.03,1.07,4.67,.31,.81,.66,1.62,1.06,2.4,.4,.78,.93,1.5,1.46,2.17,.97,1.23,1.93,4.26,3.2,6.28,.48,.85,1.15,1.56,1.74,2.31l.9,1.11c.31,.36,.61,.73,.89,1.12,.48,.65,.83,1.4,1.25,2.12,.41,.72,.8,1.46,1.25,2.18,.25,.43,.65,.9,1.02,1.22,3.48,3.18,6.86,6.43,10.54,9.49,3.66,3.05,7.57,5.95,11.9,8.15,4.38,2.17,8.88,4.16,13.47,5.92,4.63,1.68,9.34,3.15,14.12,4.29,5.29,1.2,10.72,2.2,14.35,4.35,1.64,1.01,1.63,1.96-.81,2.33-1.79,.28-3.88,.54-5.91,.33-1.63-.14-3.27-.22-4.88-.45-1.61-.22-3.24-.34-4.8-.66-6.53-1.11-13.2-2.27-19.42-5.43-1.89-1.05-4.45-1.55-5.64-3.18-.17-.22-.92-.68-1.32-.81-2.22-.7-4.31-1.74-6.4-2.8-1.03-.56-2.03-1.19-3.04-1.81-.5-.31-1.01-.62-1.5-.95l-1.45-1.04c-3.88-2.74-7.45-5.96-10.85-9.28-1.49-1.37-2.85-2.87-4.28-4.3-.69-.74-1.34-1.5-2.01-2.25-.68-.74-1.31-1.53-1.93-2.33-1.28-1.56-2.41-3.26-3.51-4.97-1.02-1.77-2.01-3.58-2.76-5.52-2.94-3.66-4.58-8.95-5.34-13.48-1.39-8-2.05-15.93-2.33-23.76-.28-7.82-.29-15.81,1.13-23.76,.73-4.02,1.66-8.04,3.09-11.93,1.39-3.9,3.1-7.73,5.33-11.27,1.02-1.83,2.33-3.46,3.52-5.18l2.01-2.4c.34-.4,.67-.8,1.02-1.19l1.1-1.11,2.2-2.21,2.36-2.03,1.18-1.01c.4-.33,.83-.63,1.25-.95,.84-.62,1.67-1.26,2.55-1.81,1.18-.78,2.2-1.63,3.35-2.38,.57-.38,1.16-.78,1.81-1.12,.66-.33,1.37-.64,2.15-.9,.73-.26,1.5-.56,2.3-.88,.8-.32,1.61-.7,2.44-1.07,1.69-.68,3.4-1.5,5.1-2.03,3.08-1.09,6.37-2.14,9.43-2.55,6.34-.79,12.68-1.25,19.06-1.17,6.36,.1,12.77,.81,18.93,2.41,6.12,1.59,12.03,3.89,17.7,6.55,5.66,2.69,11.09,5.74,16.37,8.91,3.23,1.93,6.45,3.83,9.62,5.77,3.16,1.94,6.33,3.95,9.37,6.25,2.58,1.94,5.72,3.57,7.61,6.43,.53,.8,3.39,2.21,4.98,3.71,3.98,3.67,7.39,8.13,10.06,12.88,1.87,3.3,3.37,6.77,4.62,10.26,.56,1.77,1.19,3.52,1.7,5.31l.72,2.7c.25,.9,.48,1.8,.65,2.72,.23,1.11,.48,2.22,.74,3.33,.23,1.11,.4,2.24,.61,3.36l.3,1.69,.19,1.7c.11,1.14,.24,2.28,.3,3.43,.17,4.82-.26,9.7-1.21,14.43-1.24,6-3.52,11.67-6.17,17.08-2.72,5.61-5.86,11.4-9.93,15.77-3.7,4.1-7.62,7.99-11.86,11.52-4.24,3.53-8.88,6.63-13.87,9.01-4.94,2.38-10.17,4.17-15.48,5.43-2.65,.66-5.33,1.11-8.01,1.55-2.69,.36-5.38,.71-8.09,.86-3.08,.21-6.03,.03-8.94-.33-2.91-.33-5.76-.86-8.72-1.31-1.38-.22-2.89-1.13-3.84-2.11-.95-.96-1.37-1.91-.73-2.21,.24-.12,.71-.2,1.15-.17,5.66,.39,10.78-.33,17.03-.22,9.26,.05,18.62-1.55,27.2-4.79Z"/>
        </g>
        <g class="cls-15">
          <path class="cls-12" d="M143.29,151.17c-17.16-2.57-30.65-13.71-34.8-26.27-4.15-12.56,.13-26.1,9.04-37.23s22.11-20.08,36.32-27.63c7.09-3.76,14.6-7.26,22.96-9.08,20.52-4.48,43.27,2.02,58.63,13.02,15.36,11,24.49,25.85,31.66,40.74,5.38,11.17,9.72,23.93,2.5,34.52-8.49,12.45-29.48,16.91-48.3,18.04-26.3,1.58-53.02-.82-78.05-6.99"/>
          <path class="cls-12" d="M182.84,153.53c7,.6,14.03,.99,21.05,.94,2.61,0,5.29,.39,7.99-.57,1.34-.51,3.89,.54,6.31,.35,6.53-.41,13.02-.87,19.34-2.16,3.07-.63,6.08-1.43,8.98-2.44,2.92-.97,5.72-2.16,8.39-3.48,2.66-1.28,5.21-2.76,7.41-4.53,2.18-1.77,4.03-3.88,4.96-6.23,.8-2.03,1.48-3.92,1.9-5.96,.41-2.03,.58-4.2,.15-6.44-.88-4.74-2.83-9.62-4.58-14.44-1.3-3.51-2.67-7.1-4.62-10.3-1.23-2.01-2.78-3.63-4.07-5.8-1.2-2.01-2.28-4.52-4.34-5.54-.17-.09-.61-1.05-.81-1.57-.94-2.42-2.9-4.85-4.66-6.07-.84-.62-1.55-1.26-2.24-1.9-.68-.64-1.29-1.33-1.98-1.97-3.7-3.57-7.76-6.83-11.97-9.67-3.19-2.11-6.4-4.26-9.93-5.92-.93-.41-1.87-.83-2.84-1.17-.98-.33-1.96-.67-2.93-1-1.97-.59-3.88-1.22-5.63-1.92-1.74-.77-3.54-1.22-5.33-1.66-1.8-.34-3.61-.67-5.45-.83-.52-.06-1.06-.15-1.61-.24-.55-.08-1.1-.12-1.65-.15-1.09-.03-2.15,0-3.01,.57-.16,.1-.94,.09-1.29,0-2.97-.75-5.95-.36-8.83,.26-1.43,.35-2.84,.78-4.26,1.17-1.41,.41-2.82,.86-4.28,1.2-6.03,1.45-11.83,4.45-17.55,7.55-1.53,.83-3.31,1.45-4.32,2.91-.36,.51-1.9,1.45-2.76,1.72-4.67,1.51-8.57,4.81-12.57,7.55-4.59,3.16-8.43,7.11-12.75,10.59-1.86,1.45-4.06,3.86-4.8,6.69-.37,1.26-2.1,3.23-2.94,5-.33,.73-.54,1.5-.77,2.24-.2,.76-.38,1.51-.68,2.22-.45,1.22-1.28,2.32-1.82,3.57-.18,.36-.31,.83-.33,1.23-.32,3.79-.73,7.39-.45,11.04,.08,1.83,.43,3.63,.89,5.42,.55,1.73,1.22,3.47,2.27,5.03,4.03,6.36,10.26,11.57,17.3,14.99,3.91,1.91,8.07,3.36,10.79,5.77,1.22,1.12,1.15,2.07-.96,2.25-1.55,.18-3.32,.1-5.04-.22-2.7-.67-5.44-1.35-7.97-2.42-1.34-.49-2.63-1.12-3.95-1.69-.65-.31-1.29-.65-1.93-.98-.65-.32-1.29-.68-1.9-1.07-2.52-1.48-4.84-3.4-6.78-5.75-1.19-1.45-3.01-2.87-3.22-4.66-.02-.25-.41-.92-.66-1.19-2.79-2.94-4.76-6.92-5.6-11.06-.9-4.16-.85-8.44-.4-12.55,.4-3.5,1.02-6.92,2.06-10.24,1.04-3.31,2.52-6.5,4.6-9.33,.57-1.92,1.63-3.78,2.89-5.48,.63-.85,1.34-1.62,2.03-2.39,.71-.74,1.45-1.43,2.15-2.1,5.07-4.55,10.26-8.73,15.65-12.58,5.39-3.85,10.96-7.38,16.75-10.43,5.84-3.08,11.89-6.1,18.4-8.3,3.24-1.1,6.6-2.02,10.02-2.57,1.7-.36,3.42-.48,5.14-.71,1.72-.14,3.44-.24,5.16-.28,1.17,0,2.26-.15,3.41-.24,1.14-.05,2.34,0,3.69,.3,1.27,.29,2.71,.52,4.23,.65,1.51,.16,3.08,.36,4.55,.59,1.34,.26,2.72,.52,4.07,.78,1.34,.32,2.65,.69,3.86,1.15,4.95,2.03,9.85,4.07,14.61,6.47,4.75,2.38,9.39,5.23,13.49,8.62,8.21,6.73,14.99,15.03,20.71,23.73,3.53,5.3,6.97,10.63,9.5,16.5,1.07,2.51,2.78,5.02,2.76,7.99,0,.42,.38,1.19,.84,2.07,.43,.9,.96,1.92,1.2,2.82,.62,2.22,1.01,4.56,1.22,6.95,.15,2.41,.05,4.87-.36,7.32-.59,3.41-1.96,6.75-3.9,9.61-1.96,2.85-4.36,5.26-6.94,7.34-3.18,2.46-6.45,4.66-10.01,6.27-3.72,1.67-7.6,2.89-11.48,3.7-4.92,1.06-9.85,1.49-14.75,1.93-5.09,.48-10.34,1.22-15.16,.91-8.98-.56-17.89-.28-26.81-.97-8.85-.68-17.68-1.8-26.45-3.04-4.99-.72-9.32-2.47-14.1-3.53-2.24-.53-4.63-3.68-3.51-4.3,.21-.12,.61-.2,.99-.18,4.79,.35,9.27,.01,14.55,1.08,7.81,1.53,15.73,2.51,23.66,3.19Z"/>
        </g>
        <g class="cls-15">
          <path class="cls-12" d="M162.48,173.07c4.55-8.57,9.49-17.61,16.78-23.33,5.36-4.2,11.35-6.09,17.15-7.87,4.5-1.38,8.99-2.76,13.49-4.15,4.66-1.43,9.4-2.87,13.8-2.67,8.34,.39,14.44,6.93,16.55,15.63s.6,19.25-2.85,29.3c-1.46,4.25-3.35,8.62-6.36,12.04-5.25,5.97-12.54,7.62-18.81,7.76-16.22,.37-30.15-6.29-43.24-13.59-4.22-2.35-8.83-6.63-6.39-12.76"/>
          <path class="cls-12" d="M174.76,185.67c3.19,1.7,6.39,3.37,9.7,4.71,1.22,.51,2.32,1.42,3.93,1.08,.8-.2,1.59,1.29,2.77,1.63,3.15,.96,6.28,2,9.5,2.48,3.14,.47,6.29,.42,9.4,.37,.77-.03,1.56,0,2.32,0,.75,0,1.51,0,2.25-.06,1.48-.1,2.93-.37,4.17-.98,1.08-.52,2.12-.81,3.16-1.12,1.04-.3,2.05-.7,2.9-1.38,1.79-1.48,3.28-3.18,4.9-4.9,1.2-1.25,2.38-2.69,2.94-4.46,.35-1.1,.24-2.3,.7-3.49,.43-1.1,1.3-2.27,.57-3.58-.06-.11,.28-.56,.5-.78,1.03-1.04,1.39-2.6,1.17-3.74-.23-1.12,.03-1.99,.17-2.94,.42-2.59,.7-5.18,.89-7.73,.15-1.91,.48-3.81,.37-5.7-.13-1.99-1.03-3.87-1.11-5.63-.08-1.82-.87-3.38-1.8-4.77-.27-.4-.46-.9-.8-1.27-.31-.39-.75-.64-1.4-.53-.12,.02-.34-.24-.39-.41-.43-1.41-1.63-2.14-2.84-2.5-1.24-.39-2.47-.41-3.64-.78-2.43-.84-5.49-.15-8.55,.66-.82,.21-1.81,.16-2.37,1.14-.2,.34-1.07,.64-1.57,.58-2.71-.3-5.09,1.12-7.63,1.71-2.89,.67-5.6,2.03-8.69,2.1-1.29,.03-2.98,.36-4.01,1.8-.46,.66-1.91,.68-2.8,1.18-.74,.4-1.26,1.14-1.96,1.49-.59,.31-1.37,.25-2.07,.42-.21,.04-.42,.17-.56,.32-1.38,1.46-2.88,2.45-4.45,3.57-1.55,1.11-3.14,2.36-4.3,4.03-2.32,3.34-4.66,6.84-6.92,10.5-1.24,2.02-2.69,4.04-5.19,4.58-1.13,.24-1.97-.2-1.97-1.38,0-.86,.07-1.82,.39-2.63,.52-1.31,.99-2.65,1.53-3.92,1.12-2.63,1.85-5.59,4-7.83,.65-.69,.91-1.9,2.08-2,.16-.01,.45-.28,.52-.46,.72-2.01,2.03-3.72,3.61-5.19,1.58-1.47,3.39-2.73,5.15-3.98,2.96-2.12,5.78-4.63,9.34-5.45,1.48-1.7,3.76-2.23,5.66-2.48,3.36-.43,6.55-1.32,9.73-2.32,3.19-.99,6.24-2.16,9.66-3.01,3.45-.81,7.19-1.65,11.37-1.21,2.06,.22,4.12,.75,6.02,1.61,1.9,.87,3.64,2.05,5.14,3.42,.52,.46,1.08,.81,1.6,1.25,.55,.42,1.01,.96,1.33,1.73,.54,1.46,1.88,2.86,2.6,4.42,.7,1.39,1.48,2.86,1.65,4.33,.31,3.04,.61,5.87,.78,8.73,.17,2.85,.19,5.69-.19,8.47-.75,5.52-2.21,10.83-3.73,16.07-.94,3.19-1.73,6.68-3.92,9.69-.9,1.24-1.51,3.01-3.35,3.48-.49,.13-.99,1.73-1.79,2.44-1.94,1.74-4.24,3.06-6.59,4.05-3.29,1.37-6.74,1.99-10.1,2.36-2.07,.22-4.03,.61-6.05,.66-2.11,.02-4.23-.18-6.3-.57-2.62-.51-5.12-1.38-7.62-2.15-2.58-.79-5.43-1.2-7.66-2.55-4.15-2.47-8.56-4.02-12.66-6.25-2.03-1.1-4.04-2.23-6.04-3.35l-.76-.42-.84-.48c-.55-.34-1.1-.69-1.64-1.07-1.08-.76-2.12-1.63-3.1-2.66-1.11-1.17-1.86-2.7-2.22-4.33-.36-1.63-.33-3.31-.12-4.92,.12-.75,.92-1.48,1.81-1.73,.87-.28,1.73-.18,2.06,.19,.13,.14,.24,.36,.24,.54,.03,1.15,.41,2.15,.91,2.9,.49,.77,.99,1.33,1.46,2.15,.72,1.22,1.99,2.4,3.49,3.34,.37,.25,.75,.45,1.17,.69l1.36,.74,2.72,1.46Z"/>
        </g>
        <g>
          <path class="cls-10" d="M116.24,107.46c-28.83-1.39-55.6-15.72-69.07-31.91-13.47-16.19-16.05-33.93-16.56-50.95-.62-20.89,2.1-42.67,21.73-58.32,12.97-10.34,35.36-17.43,58.57-13.58,19.49,3.24,34.91,13.14,48.89,22.48,8.73,5.84,17.56,11.76,23.82,18.52,5.64,6.09,9.01,12.69,11.39,19.25,8.85,24.42,4.26,49.35-12.87,69.89-6.89,8.26-16,15.97-29.03,20.85-13.04,4.88-30.48,6.61-46.56,2.85"/>
          <path class="cls-10" d="M152.9,102.03c7.77-2.95,15-7.33,21.08-12.99,2.26-2.1,4.62-4.25,6.36-7.01,.44-.68,1.18-1.55,2.08-2.5,.44-.48,.91-1,1.39-1.52,.45-.55,.88-1.13,1.28-1.73,.54-.81,1.11-1.6,1.63-2.41l1.5-2.5,.75-1.25,.68-1.29,1.35-2.58c1.64-3.52,3.16-7.1,4.15-10.85,1.08-3.61,1.66-7.34,2.07-11.06l.18-2.81c.03-.47,.07-.93,.08-1.4v-1.41s0-2.81,0-2.81l-.18-2.81c-.06-1.86-.38-3.71-.57-5.58-.1-.93-.32-1.85-.47-2.78-.18-.92-.3-1.86-.54-2.76-.87-3.65-1.97-7.22-3.41-10.5-2.51-5.64-4.94-10.68-8.86-15.11-4.14-4.65-9.35-8.7-14.31-12.52-3.63-2.79-7.32-5.48-11.19-7.95-2.41-1.54-4.79-2.77-7.4-4.46-2.42-1.55-5.09-3.46-7.53-4.23-.2-.07-1.27-.79-1.8-1.16-2.52-1.83-5.92-3.5-8.36-4.36-2.38-.83-4.39-1.71-6.57-2.51-2.97-1.14-6.03-2.03-9.09-2.85-1.55-.35-3.08-.76-4.64-1.03-.78-.14-1.55-.32-2.34-.44l-2.35-.34c-4.7-.64-9.42-1.03-14.19-.84-4.98,.19-10.19,1.26-14.69,2.11-4.54,.86-8.75,2.3-12.87,4.13-.59,.26-1.2,.52-1.82,.79-.6,.3-1.21,.6-1.81,.9-1.2,.59-2.25,1.33-3.02,2.08-.14,.14-.98,.61-1.35,.83-.8,.43-1.6,.86-2.37,1.34-.75,.51-1.48,1.03-2.21,1.56-.71,.56-1.38,1.18-2.05,1.77-.66,.62-1.38,1.18-1.97,1.87-1.22,1.33-2.49,2.62-3.56,4.08-.55,.72-1.16,1.39-1.68,2.13-.52,.74-1.05,1.48-1.61,2.21-4.42,6.13-7.13,13.59-8.57,21.17-.24,1-.39,2.06-.56,3.1-.17,1.03-.24,2.06-.14,3.03,.06,.68-.17,2.83-.31,3.88-.96,5.69-.6,11.84-.39,17.78,.11,3.39,.45,6.75,.9,10.1,.44,3.35,1.02,6.67,1.68,9.99,.52,2.81,1.62,6.62,3.46,9.55,.78,1.37,1.99,4.39,3.25,6.5,.48,.89,1.1,1.66,1.66,2.47l.85,1.2c.3,.39,.6,.78,.88,1.19,.49,.68,.9,1.42,1.38,2.12,.48,.71,.96,1.41,1.44,2.13,.28,.43,.69,.9,1.05,1.25,3.37,3.5,6.91,6.83,10.74,9.87,3.82,3.04,7.88,5.86,12.26,8.18,4.42,2.29,9,4.33,13.69,6.12,4.72,1.71,9.53,3.17,14.41,4.29,5.4,1.18,10.99,2.03,14.71,3.21,1.68,.57,1.68,1.04-.74,1.14-1.77,.07-3.82,.14-5.83-.12-1.61-.17-3.23-.3-4.81-.58-1.59-.27-3.18-.43-4.72-.79-6.43-1.26-12.85-2.81-19.07-5.72-1.89-.97-4.31-1.69-5.66-2.91-.19-.16-.95-.59-1.33-.75-2.12-.84-4.13-1.95-6.17-3.04-1-.58-1.98-1.2-2.96-1.82-.49-.31-.99-.62-1.47-.94l-1.42-1.02c-3.83-2.68-7.39-5.77-10.7-9.04-1.45-1.35-2.75-2.84-4.11-4.27-.65-.74-1.26-1.5-1.9-2.25-.65-.74-1.24-1.52-1.82-2.32-1.21-1.55-2.26-3.22-3.32-4.9-.97-1.73-1.94-3.48-2.72-5.34-2.39-3.77-4.05-8.82-4.94-13.2-1.62-7.73-2.33-15.54-2.59-23.3-.26-7.75-.19-15.61,1.16-23.38,.7-3.93,1.6-7.85,2.98-11.63,1.35-3.78,3-7.49,5.16-10.91,.98-1.77,2.26-3.35,3.41-5l1.95-2.32,.98-1.15,1.06-1.08,2.13-2.14,2.29-1.97,1.14-.98c.39-.32,.81-.61,1.21-.91,.81-.6,1.61-1.22,2.46-1.76,1.14-.76,2.17-1.53,3.31-2.21,.57-.35,1.14-.72,1.77-1.06,.64-.32,1.32-.64,2.05-.95,.69-.3,1.43-.62,2.2-.94,.77-.34,1.57-.69,2.38-1.05,1.65-.65,3.34-1.41,5-1.93,3.01-1.06,6.25-1.99,9.21-2.51,6.15-1.04,12.39-1.55,18.64-1.46,6.25,.1,12.52,.87,18.56,2.41,6.02,1.53,11.84,3.76,17.44,6.39,5.59,2.65,10.95,5.69,16.16,8.9,3.18,1.95,6.34,3.92,9.46,5.92,3.12,2,6.25,4.04,9.3,6.27,2.59,1.89,5.51,3.71,7.67,6.14,.61,.68,3.17,2.35,4.7,3.82,3.83,3.59,7.13,7.86,9.72,12.46,3.59,6.42,5.92,13.35,7.47,20.45,.22,1.09,.45,2.17,.67,3.25,.2,1.09,.34,2.18,.51,3.28l.25,1.64,.14,1.66c.08,1.11,.19,2.22,.23,3.33,.12,4.67-.31,9.39-1.17,13.98-1.14,5.82-3.19,11.38-5.73,16.68-2.62,5.5-5.86,11.02-9.65,15.43-6.93,8.24-15.2,15.57-24.97,20.26-4.82,2.35-9.93,4.12-15.14,5.36-2.6,.65-5.23,1.09-7.87,1.51-2.65,.35-5.3,.67-7.96,.8-3.02,.18-5.92,.09-8.78-.17-2.86-.23-5.69-.65-8.6-1.09-1.36-.22-2.9-.81-3.91-1.43-1.02-.59-1.54-1.14-.95-1.23,.22-.04,.68-.03,1.12,.03,5.61,.79,10.79,.71,17.18,.77,9.44-.01,18.96-1.59,27.76-4.91Z"/>
        </g>
        <g>
          <path class="cls-13" d="M145.68,142.17c-17.16-2.57-30.65-13.71-34.8-26.27-4.15-12.56,.13-26.1,9.04-37.23,8.9-11.13,22.11-20.08,36.32-27.63,7.09-3.76,14.6-7.26,22.96-9.08,20.52-4.48,43.27,2.02,58.63,13.02,15.36,11,24.49,25.85,31.66,40.74,5.38,11.17,9.72,23.93,2.5,34.52-8.49,12.45-29.48,16.91-48.3,18.04-26.3,1.58-53.02-.82-78.05-6.99"/>
          <path class="cls-13" d="M185.09,146.14c7.04,.61,14.12,.97,21.18,.96,2.63,.01,5.32,.19,8.05-.32,1.35-.29,3.91,.22,6.34,.06,6.57-.35,13.14-.9,19.56-2.15,3.12-.61,6.2-1.36,9.19-2.34,3.01-.93,5.92-2.09,8.71-3.45,2.78-1.31,5.45-2.91,7.78-4.83,2.32-1.91,4.33-4.18,5.52-6.72,1.03-2.19,1.74-4.37,2.13-6.63,.38-2.26,.46-4.59,.06-6.98-.81-5.06-2.79-10.15-4.76-14.96-1.46-3.51-3-7.02-4.89-10.31-1.19-2.05-2.52-3.84-3.85-6.04-1.24-2.03-2.53-4.45-4.18-5.81-.14-.11-.67-1.04-.93-1.52-1.26-2.26-3.22-4.73-4.84-6.16-.77-.71-1.46-1.41-2.15-2.08-.68-.68-1.31-1.38-2.02-2.04-3.79-3.7-7.94-7.06-12.34-9.97-3.32-2.15-6.73-4.17-10.36-5.82-3.78-1.74-8.07-2.93-11.71-4.12-1.82-.66-3.67-1.05-5.5-1.47-1.85-.32-3.69-.66-5.57-.83-.53-.07-1.09-.14-1.65-.21-.56-.07-1.13-.1-1.69-.13-1.12-.04-2.19-.08-3.07,.22-.16,.05-.96,.04-1.33,0-3.05-.39-6.09-.05-9.08,.45-1.49,.3-2.96,.66-4.44,1.01-1.47,.38-2.94,.81-4.43,1.21-6.15,1.67-12.1,4.61-17.89,7.73-1.54,.83-3.27,1.59-4.48,2.73-.43,.39-2,1.33-2.83,1.69-4.45,2-8.57,5.06-12.59,7.92-4.59,3.29-8.7,7.15-12.82,11.02-1.77,1.61-3.93,4.12-5.13,6.74-.59,1.17-2.19,3.36-3.1,5.17-.37,.75-.65,1.52-.95,2.27-.28,.76-.52,1.53-.84,2.28-.48,1.29-1.15,2.53-1.61,3.86-.15,.39-.29,.89-.34,1.3-.65,3.93-1.04,7.85-.63,11.75,.15,1.96,.59,3.88,1.13,5.77,.64,1.85,1.37,3.7,2.45,5.37,4.15,6.87,10.77,12.29,18.15,15.77,4.09,1.95,8.52,3.3,11.46,4.75,1.32,.69,1.29,1.16-.75,1.08-1.5-.02-3.2-.28-4.87-.65-2.63-.73-5.27-1.5-7.71-2.62-1.3-.51-2.52-1.18-3.78-1.78-.62-.33-1.22-.69-1.83-1.03-.62-.34-1.22-.7-1.8-1.11-2.39-1.51-4.58-3.4-6.53-5.58-1.2-1.35-2.76-2.86-3.28-4.35-.07-.21-.46-.84-.69-1.11-2.43-3.02-4.23-6.78-5.06-10.73-.87-3.95-.92-8.05-.47-11.99,.81-6.7,2.89-13.13,6.73-18.75,1.53-3.45,4.38-6.89,7.06-9.49,9.48-9.2,20.29-16.69,31.72-22.82,5.78-3.1,11.74-6.06,18.09-8.2,3.17-1.07,6.42-1.96,9.75-2.49,1.65-.35,3.33-.46,4.99-.69,1.67-.14,3.35-.24,5.02-.28,1.14,0,2.2-.07,3.32-.12,1.11,0,2.27,.06,3.6,.24,1.24,.18,2.66,.4,4.14,.53,1.48,.17,3,.41,4.44,.63,1.31,.26,2.65,.54,3.97,.8,1.31,.33,2.59,.68,3.79,1.07,4.92,1.72,9.77,3.68,14.44,6.05,4.67,2.35,9.15,5.18,13.19,8.48,8.09,6.56,14.8,14.68,20.34,23.35,3.41,5.28,6.57,10.68,9.17,16.44,1.1,2.46,2.51,5.01,2.94,7.73,.05,.39,.38,1.15,.76,2.04,.35,.9,.77,1.91,.99,2.78,.58,2.14,.94,4.37,1.14,6.62,.14,2.27,.05,4.57-.33,6.85-.55,3.17-1.8,6.24-3.6,8.9-1.82,2.65-4.07,4.92-6.53,6.87-3.03,2.32-6.27,4.25-9.71,5.76-3.6,1.56-7.37,2.76-11.15,3.59-4.79,1.09-9.61,1.69-14.44,2.18-5.01,.53-10.23,1.03-15.01,.95-8.91-.13-17.78-.07-26.64-.7-8.8-.62-17.59-1.7-26.29-3.04-4.95-.77-9.33-2.1-14.09-3.15-2.22-.52-4.9-2.45-3.89-2.66,.19-.04,.58-.04,.94,.02,4.71,.74,9.09,1.01,14.41,2.05,7.87,1.47,15.83,2.51,23.81,3.19Z"/>
        </g>
        <g>
          <path class="cls-9" d="M164.87,164.07c4.55-8.57,9.49-17.61,16.78-23.33,5.36-4.2,11.35-6.09,17.15-7.87,4.5-1.38,8.99-2.76,13.49-4.15,4.66-1.43,9.4-2.87,13.8-2.67,8.34,.39,14.44,6.93,16.55,15.63,2.11,8.7,.6,19.25-2.85,29.3-1.46,4.25-3.35,8.62-6.36,12.04-5.25,5.97-12.54,7.62-18.81,7.76-16.22,.37-30.15-6.29-43.24-13.59-4.22-2.35-8.83-6.63-6.39-12.76"/>
          <path class="cls-9" d="M176.39,178.09c3.22,1.72,6.47,3.38,9.81,4.78,1.23,.54,2.44,1.25,3.9,1.34,.73,.02,1.74,1.01,2.93,1.38,3.19,1.04,6.42,2.02,9.72,2.57,3.21,.54,6.45,.68,9.67,.69,3.2,.04,6.46,0,9.28-1.02,2.38-.88,4.65-1.41,6.61-2.84,2.06-1.52,3.83-3.42,5.4-5.43,1.16-1.45,2.21-3.06,2.88-4.85,.42-1.12,.58-2.26,1.04-3.49,.42-1.14,1.09-2.4,.87-3.58-.02-.1,.23-.59,.39-.84,.71-1.17,1.09-2.75,1.11-3.88,0-1.1,.24-2.01,.4-2.99,.47-2.68,.78-5.38,.92-8.07,.11-2.01,.24-4.01,.06-6.01-.19-2.09-.89-4.18-1.27-6.02-.38-1.88-1.2-3.53-2.22-5.06-.29-.43-.56-.94-.92-1.35-.33-.43-.75-.77-1.23-.88-.09-.02-.34-.31-.44-.46-.8-1.27-2.05-2.11-3.37-2.67-1.33-.58-2.72-.86-4.12-1.18-2.89-.73-6.18-.09-9.37,.73-.85,.22-1.82,.32-2.5,.93-.24,.21-1.14,.5-1.61,.54-2.57,.22-5.04,1.33-7.55,2-2.86,.77-5.64,1.88-8.61,2.36-1.25,.2-2.92,.63-4.15,1.6-.56,.45-1.97,.71-2.91,1.17-.78,.37-1.44,.92-2.19,1.29-.63,.32-1.36,.46-2.04,.73-.2,.07-.43,.21-.6,.34-1.63,1.27-3.25,2.41-4.85,3.69-1.59,1.28-3.13,2.69-4.39,4.37-2.54,3.37-4.9,7.01-7.12,10.76-1.22,2.07-2.53,4.18-4.17,5.18-.74,.45-1.16,.23-.92-.81,.17-.77,.42-1.63,.79-2.42,.59-1.26,1.16-2.54,1.76-3.76,1.26-2.54,2.34-5.21,4.25-7.53,.58-.72,1.03-1.75,1.84-2.1,.11-.05,.37-.33,.46-.49,1.9-3.56,5.25-6.33,8.63-8.67,2.87-2,5.76-3.95,9.13-4.95,1.61-1.17,3.79-1.78,5.65-2.17,3.26-.7,6.45-1.63,9.63-2.63,3.19-.98,6.29-2.08,9.61-2.94,3.35-.83,6.91-1.6,10.68-1.19,1.87,.2,3.72,.69,5.44,1.46,1.72,.79,3.29,1.86,4.67,3.11,.48,.42,.94,.78,1.4,1.21,.47,.41,.88,.91,1.25,1.56,.65,1.23,1.77,2.62,2.44,4.07,.65,1.3,1.29,2.7,1.56,4.04,1.03,5.53,1.47,11.04,.81,16.48-.68,5.38-2.06,10.61-3.68,15.72-1,3.11-2.01,6.33-3.98,9.2-.82,1.2-1.56,2.67-2.96,3.4-.37,.21-1.08,1.47-1.82,2.11-1.81,1.58-3.92,2.81-6.11,3.74-3.06,1.28-6.31,1.9-9.51,2.2-1.97,.18-3.87,.36-5.82,.36-2.03-.03-4.08-.22-6.08-.55-2.54-.43-5-1.11-7.45-1.81-2.53-.72-5.23-1.33-7.5-2.44-4.22-2.03-8.5-3.76-12.57-5.93-2.03-1.07-4.03-2.18-6.02-3.28-2.04-1.08-4.16-2.48-5.87-4.35-1.99-2.14-2.74-5.19-2.32-8.03,.11-.67,.58-1.37,1.11-1.72,.51-.37,.98-.45,1.11-.15,.05,.11,.07,.32,.05,.5-.18,1.16-.09,2.25,.23,3.24,.31,.99,.77,1.89,1.38,2.9,.94,1.48,2.37,2.77,4,3.8,.4,.27,.82,.5,1.26,.75l1.36,.75,2.73,1.48Z"/>
        </g>
        <g class="cls-14">
          <path class="cls-11" d="M41.28,43.52c7.49,6.29,16.64,10.21,25.65,14.04,15.94,6.78,31.89,13.57,47.83,20.35,.75,.32,1.55,.68,1.96,1.39,.34,.6,.33,1.32,.35,2.01,.28,11.25,9.58,20.07,18.89,26.39,10.12,6.87,21.1,12.47,32.6,16.64,5.45,1.97,11.62,2.9,16.82,5.32,5.26,2.45,8.56,7.45,12.48,11.5,2.98,3.08,6.45,5.72,10.35,7.48,9.18,4.16,20.57,2.93,28.67-3.07,3.93-2.92,6.93-7.03,5.42-11.69,8.68-4.06,13.11-7.55,17.74-13.43,4.92-6.25,6.36-13.78,7.51-21.18,1.52-9.73,1.41-17.47-2.65-26.87-3.62-8.39-9.47-15.65-15.26-22.63-4.83-5.83-10.19-5.21-17.49-7.21-12.4-3.4-23.79-2.71-38.21-4.42,3.86-10.5,4.84-24.28-.12-34.3,11.39-3.55,22.09,2.93,32.78,8.23,20.25,10.03,40.37,20.43,59.29,32.79,9.33,6.09,18.55,12.86,24.76,22.11,5.35,7.98,8.17,17.44,9.35,26.98,3.5,28.26-6.94,56.53-21.03,81.28-4.81,8.45-10.2,16.79-17.67,23.02-5.36,4.46-11.62,7.7-17.9,10.72-15.15,7.28-31.06,13.62-47.79,15.23-15.6,1.49-31.58-1.27-45.77-7.92-16.97-7.95-31.99-22.86-34.45-41.43-.68-5.12-.7-11-4.6-14.38-6.47-5.59-17.56,.62-24.71-4.07,.24,1.52-1.46,2.62-2.96,2.9-6.23,1.18-11.85-4.06-15.06-9.52-3.21-5.47-5.45-11.83-10.47-15.7-3.44-2.65-7.79-3.79-12-4.86-16.13-4.1-32.26-8.2-48.38-12.31,.03,3.13,.07,6.26,.1,9.39-.21-9.24,3.72-18.5,10.51-24.77-.92-3.95-3.99-7.33-7.83-8.63,1.83-.08,3.65-.17,5.48-.25-5.71-12.99-9.53-26.8-11.32-40.88-.95-7.52-1.31-15.29,.87-22.56,2.18-7.26,5.66-13.99,12.83-16.47,1.01,13.95,3.53,22.81,13.44,30.79Z"/>
          <path class="cls-11" d="M67.87,57.46c8.26,3.51,15.01,6.37,21.74,9.23,1.05,.44,2.27,.82,3.59,1.38,5.26,2.25,10.72,4.44,15.73,6.73,1.37,.62,2.74,1.24,4.11,1.85l2.06,.91c.68,.31,1.49,.68,1.98,1.48,.47,.82,.39,1.68,.44,2.38,.07,.72,.09,1.44,.19,2.15,.23,1.42,.57,2.81,1.06,4.12,1.87,5.02,5.24,9.27,9.13,12.89,1.35,1.19,2.66,2.35,4.13,3.65,1.05,.98,3.18,2.52,4.9,3.44,.33,.18,.99,.67,1.48,1,.53,.36,1.12,.84,1.53,1.08,4.61,2.58,9.29,5.46,14.13,7.76,1.21,.57,2.49,1.27,3.61,1.57,.28,.08,1.48,.6,1.81,.8,.88,.53,1.84,.95,3.02,1.45,2.54,1.04,5.13,2.06,7.72,2.93,2.6,.85,5.29,1.5,7.97,2.25,2.69,.49,5.64,1.49,8.32,2.88,2.02,1.07,3.71,2.59,5.24,4.17,1.55,1.61,3.2,3.31,4.42,5.02,.19,.27,.8,.86,1.22,1.3,1.85,2.01,4.01,3.83,6.04,5.37,1.04,.79,2.13,1.52,3.29,2.13,7.44,4.01,16.72,4.24,24.46,.89,1.94-.83,3.78-1.89,5.47-3.13,1.68-1.26,3.2-2.75,4.27-4.51,.53-.88,.93-1.83,1.13-2.82,.1-.5,.15-1,.15-1.5-.02-.25-.01-.5-.04-.75-.05-.27-.05-.44-.14-.84l-.26-1.02c-.07-.11,.09-.11,.15-.16l.24-.11,.47-.23,1.57-.76c.95-.48,1.9-.97,2.83-1.49,1.29-.72,2.52-1.43,3.73-2.43,.96-.76,3.03-2.4,3.96-3.13,1.52-1.14,2.7-2.51,3.87-3.89,2.21-2.54,3.95-5.42,5.19-8.53,.76-1.84,1.26-4,1.92-5.64,.06-.16,.21-.78,.24-1,.25-2.22,.82-4.3,1.2-6.51,.28-1.6,.51-3.21,.57-4.98,.09-1.71,.23-4.56,.31-6.14,.14-2.12-.06-4.07-.38-6.02-.92-5.79-3.21-11.29-6.17-16.34-2.98-5.06-6.6-9.72-10.34-14.27-.89-1.07-1.77-2.16-2.71-3.13-.96-.96-2.06-1.76-3.25-2.39-2.38-1.28-5.1-1.77-7.85-2.36-1.31-.27-2.78-.48-3.92-.94-.23-.1-1.29-.35-1.71-.41-1.51-.24-2.97-.64-4.67-.99-7.66-1.55-15.65-1.91-23.35-2.32-1.5-.08-2.99-.18-4.48-.29l-2.23-.2-2.61-.27-.77-.08-.38-.04s-.05-.02-.03-.05l.03-.09,.06-.18,.48-1.4c.37-1.04,.52-1.63,.74-2.35,.41-1.4,.75-2.83,1.03-4.27,.38-1.91,.79-3.86,.99-5.84,.23-1.92,.23-3.89,.2-5.83-.07-1.15-.06-2.32-.34-3.43-.11-.6-.4-2.23-.45-2.9-.13-1.12-.32-2.28-.66-3.41-.16-.57-.32-1.14-.54-1.69l-.31-.83-.15-.41-.22-.5c-.28-.9-1.51-2.25,.18-2.2l1.55-.4c.46-.09,.86-.14,1.3-.21,1.71-.3,3.45-.29,5.18-.22,3.45,.25,6.81,1.17,10,2.37,1.57,.59,3.33,1.24,4.61,2.07,.17,.11,1.07,.46,1.64,.7,.6,.26,1.35,.56,1.77,.8,3.81,2.23,8,4.16,12.03,6.17,9.73,4.9,19.45,9.86,28.96,15.19,2.66,1.49,5.07,2.65,7.63,4.14,2.47,1.44,4.95,2.89,7.38,4.39,1.72,1.06,3.6,2.1,5.08,3.3,.41,.32,1.65,1.1,2.18,1.38,2.02,1.03,4.04,2.48,6.03,3.79,2.43,1.6,4.78,3.45,7.18,5.02,.65,.43,1.75,1.45,2.64,2.22,1.55,1.33,3.09,2.7,4.55,4.15,.71,.68,1.42,1.33,2.11,2.04,2.59,2.78,4.95,5.81,6.88,9.11,1.95,3.29,3.5,6.8,4.72,10.41,1.23,3.69,2.13,7.48,2.73,11.31,.16,.96,.28,1.92,.41,2.88l.27,2.89c.08,.97,.21,1.93,.24,2.9l.1,2.9c.22,7.74-.51,15.5-2.02,23.07-.3,1.42-.61,2.9-.92,4.35-.3,1.45-.76,2.84-1.23,4.1-.24,1.32-.56,2.53-.96,3.67-.39,1.15-.8,2.24-1.24,3.32-.13,.31-.33,1.13-.51,1.73-.57,1.87-.87,3.74-1.99,5.62-.04,.07-.12,.33-.19,.49-.35,.83-.55,1.56-.8,2.35-.26,.78-.58,1.6-1.12,2.61-.33,.63-.71,1.48-1.1,2.39-.41,.9-.85,1.86-1.25,2.72-.81,1.79-1.71,3.57-2.55,5.33-.84,1.83-2.03,3.69-2.69,5.49-.1,.29-.95,1.52-1.38,2.29-2.11,3.98-4.61,7.88-6.8,11.76-.5,.89-1.41,2.22-2.09,3.07-2.45,3.05-4.66,5.98-7.47,8.89-3.66,3.86-8.42,7.18-13.08,9.4-.99,.48-1.44,.66-2.37,1.28-.61,.4-1.75,.97-2.67,1.43-10.27,5.05-20.78,9.76-31.81,13-3.01,.87-5.88,1.39-9,2.11-1.28,.33-2.84,.45-3.88,.86-.14,.06-.69,.16-.94,.18-3.83,.37-7.62,1.08-11.47,1.08-.82-.02-1.61-.04-2.42-.06-.83,0-1.8-.11-2.51-.09-5.9,.14-11.94-.86-17.75-2.14-1.99-.43-4.1-1.14-5.9-1.43-.27-.03-1.13-.31-1.49-.47-3.22-1.35-6.86-2.52-10.1-4.12-1.64-.86-3.59-1.62-4.91-2.68-.17-.13-.83-.47-1.24-.68-.7-.38-1.4-.74-2.06-1.15-.92-.56-1.82-1.22-2.7-1.87-.89-.63-1.74-1.26-2.5-1.82-.95-.68-1.88-1.34-2.72-2.09-.85-.74-1.72-1.44-2.51-2.23-.92-.89-1.8-1.83-2.66-2.83-.83-.92-1.72-1.83-2.5-2.83-1.18-1.36-2.29-2.87-3.25-4.29-.46-.75-.92-1.41-1.39-2.08-.23-.34-.47-.68-.69-1.06-.2-.38-.41-.8-.6-1.25-.28-.7-.72-1.38-1.1-2.11-.38-.74-.78-1.49-1.14-2.26-.37-.75-.59-1.63-.86-2.43-.18-.62-.35-1.21-.5-1.78-.17-.65-.34-1.29-.52-1.95-.19-.65-.37-1.31-.53-2.02-.24-.97-.45-2.75-.56-4.17-.14-1.41-.3-2.84-.52-4.23-.21-1.39-.5-2.89-.99-4.05-.53-1.27-1.23-2.46-2.15-3.43-.92-.98-2.11-1.67-3.35-2.18-1.27-.48-2.66-.68-4.05-.79-1.41-.06-2.83-.04-4.26,.06-1.46,.09-3.18,.29-4.48,.1-.23-.04-1.08-.01-1.53-.01-.68,0-1.37,.03-2.07-.05-.35-.03-.7-.05-1.05-.11l-1.04-.22c-.35-.06-.69-.17-1.03-.3l-.94-.34-.53-.29-.26-.15c0,.09,.01,.2,0,.29-.01,.1-.04,.2-.09,.3-.06,.11-.06,.13-.23,.35-.27,.35-.6,.62-.94,.85-.68,.44-1.46,.73-2.23,.82-1.49,.25-3.04,.16-4.48-.23-4.07-1.12-7.26-3.98-9.66-7.32-2.33-3.33-3.86-7.11-5.82-10.3-1.58-2.63-3.35-5.05-5.54-6.92-2.16-1.88-4.89-2.56-7.47-3.77-2.84-.88-5.83-1.55-8.75-2.33-2.47-.64-5.02-1.19-7.38-2.01-.86-.3-2.57-.73-3.54-.9-3.15-.57-6.12-1.39-9.22-2.3-.73-.21-1.69-.35-2.55-.56-2.6-.65-5.22-1.29-7.79-1.98-2.31-.62-4.61-1.2-6.91-1.77l-3.45-.84-1.62-.39-.6-.13,.02,.42,.02,.66,.05,2.34c.03,1.56,.05,3.13,.08,4.7l-2.12,.04v-.05c0-1.51-.13-3.19,.1-4.51,.6-4.03,1.82-7.99,3.67-11.64,.93-1.82,1.99-3.58,3.24-5.19,.63-.8,1.27-1.59,1.97-2.32,.34-.37,.69-.74,1.06-1.08l.18-.17,.08-.07s.06-.05,.08-.08l-.02-.11c-.02-.08-.01-.09-.06-.24-.06-.19-.11-.38-.19-.56-.14-.37-.3-.73-.47-1.09-.36-.71-.8-1.38-1.3-2-.25-.31-.52-.6-.8-.89l-.5-.46c-.28-.22-.58-.44-.87-.65-.24-.22-.73-.42-1.11-.63l-.62-.31-.87-.35-3.84-1.53,.49-.1,.24-.05,.05-.03,.1-.07,.03-.02h.21s.41-.03,.41-.03l3.29-.15,3.29-.15-.44-1.01-.73-1.76c-.55-1.33-1.06-2.67-1.57-4.02-1.02-2.69-1.93-5.43-2.76-8.18-.44-1.43-.69-3-.94-3.67-.75-2.08-1.24-4.56-1.77-6.33-.97-3.19-1.46-6.45-2.05-9.66-.41-2.35-.63-4.9-1.12-7.06-.07-.31-.16-1.13-.17-1.57-.11-3.52-.61-7.01-.28-10.56,.06-3.35,.61-6.81,1.7-10.07,1.05-3.24,2.39-6.47,4.38-9.39,.3-.43,.59-.85,.88-1.26,.32-.4,.63-.82,.97-1.21,.37-.38,.76-.88,1.12-1.15,.32-.25,.64-.52,.97-.76l1.02-.7,1.07-.63c.18-.11,.36-.2,.55-.29l.78-.38c.65-.3,1.31-.52,1.97-.79l.99-.39,.25-.1c.06-.04,.05,.02,.05,.06v.12s.06,.48,.06,.48c.12,1.26,.24,2.51,.36,3.77,.29,3.02,.73,6.01,1.34,8.91,.43,1.9,.88,3.76,1.56,5.58,.71,1.83,1.69,3.57,2.53,5.22,.29,.5,.93,1.43,1.48,2.06,2.88,3.46,5.44,5.76,5.07,6.34-.12,.2-.87-.42-1.7-1.01-1.55-1.19-3.06-2.47-4.52-4.38-1.15-1.47-2.2-3.22-3.14-4.6-.16-.23-.57-.99-.7-1.42-1.16-2.98-2.28-6.41-2.69-9.4-.3-2.29-.62-4.39-.78-6.58-.07-.81-.15-1.64-.22-2.47,.11-.63-.4-.23-.72-.16-.37,.11-.69,.26-1.11,.41-.6,.19-2.03,1.29-2.96,2.15-2.26,1.95-3.94,4.54-5.25,7.22-1.96,4.12-3.2,8.56-3.59,13.07-.4,4.51-.12,9.05,.35,13.6,1.01,6.45,1.98,13.18,3.72,19.47,1.04,3.8,2.18,7.57,3.46,11.28,.64,1.86,1.3,3.71,2.02,5.53,.35,.92,.72,1.83,1.1,2.73l.62,1.47,.83,1.9c.18,.41,.35,.8,.49,1.13-.94,.04-1.81,.07-2.67,.11l-.59,.02h-.12s-.29-.03-.29-.03c-.18-.02-.4-.03-.64-.04h-.18s-.09,0-.09,0c0,0,.05,.02,.07,.03,.12,.05,.25,.09,.39,.16l.27,.13c.49,.24,.96,.54,1.39,.88,.11,.09,.22,.17,.32,.27,.17,.16,.35,.31,.51,.48,.33,.33,.65,.68,.94,1.04,.59,.73,1.1,1.52,1.52,2.37,.42,.86,.71,1.63,1.03,2.94-.43,.43-.87,.87-1.32,1.31-.35,.37-.69,.76-1.03,1.13-.67,.77-1.32,1.5-1.94,2.14-.18,.17-.7,.89-.88,1.25-1.58,2.83-3.23,5.95-4.13,9.22-.17,.62-.34,1.23-.48,1.86-.17,.63-.31,1.27-.47,1.95-.36,1.48-.56,3.89-.41,5.48,0,.09,0,.17,.01,.24l-.98,.02c-.07-1.12-.09-2.13-.12-3.21-.02-1.02-.03-2.05-.05-3.08,0-1.28-.01-2.55-.02-3.83,.93,.24,1.85,.48,2.77,.72,.69,.17,1.37,.34,2.05,.51,1.37,.33,2.73,.63,4.07,.88,2.34,.89,5.35,1.56,7.81,2.11,9.44,2.13,18.8,4.71,28.2,7.05,2.27,.57,4.52,1.25,6.82,1.89,2.41,.69,4.86,1.47,7.13,2.69,1.22,.63,2.46,1.65,3.4,2.21,.08,.04,.26,.2,.36,.3,1.07,1.03,1.98,2.22,2.82,3.37,.75,1.03,1.5,1.96,2.18,3.06,.81,1.31,1.55,2.74,2.27,4.12,.7,1.34,1.48,2.73,1.92,3.86,.77,.89,1.57,2.36,2.51,3.49,.86,1.06,1.81,2.08,2.85,2.96,1.17,1,2.45,1.84,3.83,2.42,1.38,.58,2.87,.89,4.31,.76,.38-.06,.8-.1,1.15-.18,.34-.09,.68-.22,.98-.39,.3-.17,.57-.38,.75-.6,.05-.05,.09-.11,.12-.16,0-.03,.05-.02,.08-.19v-.36c.02-.49-.03-1.19-.07-1.86,.14,.04,.36,.11,.39,.09h.11s.24,.13,.24,.13l.99,.53c.44,.23,.83,.47,1.31,.69l.74,.26c.48,.21,1.03,.28,1.55,.41,1.06,.22,2.16,.29,3.28,.34,2.81,.07,5.68-.21,8.65-.19,1.23,.03,2.29,.01,3.54,.13,.41,.05,.85,.09,1.32,.16,.46,.11,.95,.24,1.45,.38,.49,.19,.97,.44,1.46,.7,.47,.29,.89,.69,1.29,1.07,.17,.14,.51,.51,.92,.89,.36,.42,.77,.87,1.02,1.23,1.05,1.37,1.69,2.97,2.11,4.57,.43,1.6,.65,3.22,.83,4.81,.19,1.58,.28,3.16,.57,4.66l.39,2.26c.18,.74,.4,1.48,.6,2.21,.69,3.3,2.03,6.34,3.81,9.35,.59,1.14,1.37,2.2,2.06,3.31,.72,1.1,1.55,2.13,2.31,3.21,.85,1.01,1.66,2.05,2.51,3.04,.9,.95,1.71,1.96,2.62,2.84,3.74,3.87,8.02,7.03,12.53,9.82,1.27,.79,2.74,1.48,3.75,2.28,.24,.17,1.26,.67,1.83,.91,3.98,1.7,7.86,3.31,12.03,4.77,2.21,.74,4.77,1.38,7.31,1.83,3.8,.71,7.95,1.44,12,1.76,1.73,.39,3.12,.2,4.02,.11,1.21-.13,2.32-.11,3.75-.14,.92,0,1.83-.01,2.73-.07,.91-.05,1.81-.11,2.7-.28,.46-.08,1.2-.15,1.95-.21,.75-.08,1.52-.14,2.02-.15,1.34-.02,1.83-.18,3.03-.43,1.41-.3,2.93-.34,4.71-.71,1.9-.4,4.08-1.06,5.81-1.22,.15-.02,.73-.18,.99-.27,3.41-1.22,6.95-1.92,10.31-3.26,5.12-1.69,10.16-3.79,15.11-6.06,4.94-2.31,9.89-4.65,14.58-7.29,3.86-2.18,7.69-4.58,10.77-7.69,6.49-6.48,11.55-14.33,16.03-22.46,.95-1.72,1.94-3.76,2.98-5.21,.15-.2,.56-1,.72-1.37,.59-1.35,1.17-2.68,1.83-3.98,.67-1.29,1.34-2.58,2.02-3.89,.34-.64,.89-1.86,1.01-2.28,.36-1.19,.95-2.49,1.48-3.69,.65-1.45,1.56-3.35,1.81-4.28,.55-1.96,1.17-2.94,1.7-4.39,.33-.89,.63-1.9,.93-2.84,.15-.45,.24-1.03,.34-1.29,.56-1.45,1-2.94,1.41-4.42,.35-1.5,.69-3,1.13-4.47,.2-.63,.32-1.32,.5-1.94,.45-1.76,.84-3.08,1.08-4.22,.24-1.14,.43-2.09,.62-3.11,.09-.51,.18-1.03,.28-1.6,.07-.57,.14-1.19,.22-1.89,.15-1.4,.4-3.11,.49-5.4,.23-1.24,.37-2.61,.33-4-.02-1.4-.05-2.82,.11-4.18,.07-1-.03-2.92-.13-4.16-.08-1.36-.31-2.73-.44-4.1-.14-1.37-.27-2.75-.47-4.12-.39-2.74-.9-5.47-1.64-8.11-.31-1.1-.33-2-.95-3.34-.22-.5-.64-2.34-1.12-3.5-.67-1.68-1.33-3.49-2.35-4.99-.4-.62-1.12-2.07-1.76-3.08-.88-1.39-1.73-2.8-2.88-4.02-.61-.67-1.93-2.29-2.57-3.11-2.58-3.44-5.76-5.87-8.93-8.26-.96-.72-1.65-1.21-2.62-2.01-1.37-1.11-3.24-2.57-4.43-3.25-2.1-1.22-4-2.57-6-3.83-3.44-2.21-6.92-4.39-10.44-6.47-4.02-2.38-8-4.77-12.22-6.92-2.26-1.16-5.25-2.69-7.54-4.25-.25-.17-1.31-.56-1.97-.91-5.2-2.75-10.44-5.45-15.68-8.12-1.21-.62-2.41-1.54-3.63-1.89-1.3-.38-2.37-1.45-3.49-1.68-.16-.03-1.27-.59-1.82-.9-6.09-3.32-12.38-6.65-18.89-8.57-1.57-.43-3.38-.71-4.62-1.06-1.02-.08-2.06-.07-3.12-.1-1.05,.06-2.12,.06-3.18,.24l-.79,.11c-.22,.03-.27,.05-.41,.08l-.36,.09-.18,.05-.09,.02s.02,.06,.03,.08c.11,.23,.23,.46,.35,.67,.04,.04,.17,.34,.28,.59,.12,.25,.23,.5,.34,.74,1,3,1.87,6.3,1.83,9.33,.01,.49,.12,1.55,.11,2.11-.08,1.89,.35,3.09,0,5.38-.23,1.31-.38,3.79-.76,5.72-.31,1.79-.72,3.57-1.19,5.32l-.43,1.44-.19,.62-.1,.29-.1,.29c-.03,.09-.11,.22,.02,.2l.47,.05,2.82,.29c.97,.1,1.95,.17,2.92,.24,3.94,.27,7.81,.3,11.87,.67,.43,.04,1.19,.07,1.36,.03,1.4-.27,3.42,.12,4.78,.39,1.14,.21,2.12,.39,3.37,.56,3.39,.46,6.82,1.19,10.09,2.1,1.89,.51,3.99,.77,5.84,1.39,.57,.19,2.18,.52,3.11,.74,2.15,.48,4.38,1.44,6.19,2.97,.47,.35,.87,.79,1.3,1.19,.39,.42,.79,.87,1.15,1.29,.69,.84,1.39,1.68,2.08,2.52,1.25,1.51,2.49,3.07,3.68,4.65,.91,1.19,1.93,2.32,2.68,3.64,4.49,5.82,8.05,12.77,9.71,20.2,.83,3.69,1.1,7.51,.91,11.26-.16,3.75-.74,7.44-1.37,11.07-.32,1.82-.62,3.9-1.27,5.45-.13,.3-.46,1.6-.54,2-.18,1.09-.37,1.91-.98,3.01-.1,.21-.46,1.18-.65,1.71-.54,1.46-1.2,2.71-2.13,4.05-.74,1.02-1.78,2.4-2.52,3.35-1.94,2.6-4.09,4.95-6.87,6.74-.34,.21-1.14,1.02-1.76,1.41-2.35,1.56-4.81,3.04-7.39,4.08-.11,.04-.23,.09-.35,.14l-.11,.04c-.07,.03-.17,.05-.11,.15,0-.15,.22,1.1,.19,1.82-.08,2.77-1.26,5.24-3.1,7.21-1.88,2-4.21,3.75-6.68,5.07-2.47,1.31-5.11,2.26-7.84,2.85-2.72,.58-5.52,.79-8.3,.63-2.78-.17-5.54-.72-8.18-1.66-2.64-.95-5.1-2.29-7.36-3.9-2.26-1.6-4.32-3.48-6.17-5.5-1.29-1.41-2.4-2.76-3.56-4.21-1.5-1.85-3.26-3.8-5.63-5.36-2.34-1.53-5.45-2.49-8.87-3.36-.49-.14-1.02-.28-1.54-.42-3.33-.89-6.81-1.78-10.09-3.08-3.29-1.23-6.52-2.59-9.68-4.07-2.77-1.31-5.47-2.77-8.25-4.24-1.82-.95-3.52-1.98-5.37-2.87-1.53-.76-3.46-2.19-5.24-3.09-.66-.32-2.27-1.39-3.02-2-2.53-2.02-5.29-3.98-7.73-6.24-2.81-2.58-5.37-5.49-7.44-8.77-.96-1.65-1.79-3.36-2.59-5.17-.24-.43-.44-1.24-.66-2.09-.23-.85-.29-1.81-.39-2.51-.04-1.06-.09-2.11-.13-3.15-.04-.42-.13-.66-.3-.84-.18-.2-.5-.39-.9-.56-3.84-1.53-3.88-1.51-7.63-3.26-.45-.21-.94-.42-1.42-.62-4.77-2.03-9.61-4.19-14.28-6.05-3.9-1.55-7.68-3.15-11.51-4.77-1.52-.64-3.33-1.29-4.51-2.07-.17-.11-1.04-.48-1.42-.6-3.3-1.11-6.7-2.71-10.02-4.12-3.22-1.38-6.27-2.48-9.49-4.13-3.01-1.56-6.09-3.19-8.98-5.12-2.19-1.47-3.43-2.49-4.08-3.17-.65-.69-.73-1.02-.51-1.28,.4-.45,1.4,.39,4.84,2.65,7.36,4.69,15.48,8.18,22.05,10.92Z"/>
        </g>
        <g class="cls-16">
          <g class="cls-16">
            <path class="cls-5" d="M102.6,94.3c-.8-.96-1.59-1.99-2.52-2.87-.92-.88-1.96-1.58-3.09-1.8-.25-.05-.5-.1-.75-.14l.29,.23c2.2,1.76,4.36,3.75,5.94,5.87,1.06,1.21,2.28,2.65,2.4,4.54,.02,.2,.33,.2,.49,.21,.18-.21,.37-.4,.57-.59-.39-1.65-1.22-3.09-2.11-4.49-.26-.5-1.05-.68-1.22-.95Z"/>
            <polygon class="cls-7" points="105.9 99.81 105.94 99.77 105.88 99.52 105.9 99.81"/>
            <path class="cls-4" d="M104.27,96.13c-.31-.44-.62-.88-.88-1.33-.32-.2-.67-.33-.79-.5-.8-.96-1.59-1.99-2.52-2.87-.92-.88-1.96-1.58-3.09-1.8-.25-.05-.5-.1-.75-.14l.32,.25c.76,.61,1.52,1.24,2.24,1.91l.16,.06c.57,.17,.79,.71,1.15,1.08,1.2,.9,1.83,1.99,2.71,3.11,.16,.2,.38,.38,.59,.59,.21,.2,.43,.43,.52,.72,.09,.19,.16,.38,.2,.58,.38,.71,.71,1.51,.74,2.38,.02,.2,.33,.21,.49,.21,.09-.11,.19-.21,.29-.31-.02-.76-.18-1.51-.41-2.25-.13-.31-.29-.61-.46-.91-.15-.3-.32-.59-.5-.88-.01,.04-.02,.08-.02,.13Z"/>
            <path class="cls-7" d="M104.66,95.86c-.04-.09-.3-.09-.37,.15,.18,.29,.35,.58,.5,.88,.17,.3,.33,.6,.46,.91-.08-.32-.18-.63-.29-.95-.09-.32-.19-.65-.3-.99Z"/>
            <path class="cls-8" d="M105.69,95.45c-.55-1.4-1.72-2.29-2.27-3.36-.33-.54-.58-1.16-.78-1.76-.15-.14-.31-.27-.46-.41-1.98-1.57-4.14-2.81-6.38-3.79-2.22-.99-4.46-1.76-6.66-2.59-2.23-.74-4.43-.74-6.77-1.04-1.36-.3-2.3-.99-3.47-1.66-2.84-1.74-5.96-1.78-9.15-3.29-.84-.41-1.65,.57-1.46,.71,2.64,1.43,5.19,2.79,7.84,3.95,2.65,1.17,5.43,2.05,8.29,2.63,2.22,.47,4.34,1,6.34,1.74,1.99,.73,3.88,1.68,5.47,2.89,.25,.04,.5,.09,.75,.14,1.13,.22,2.17,.92,3.09,1.8,.92,.88,1.72,1.92,2.52,2.87,.17,.27,.96,.44,1.22,.95,.89,1.41,1.72,2.84,2.11,4.49,.42-.4,.84-.77,1.08-1.21-.41-1.08-.96-2.05-1.32-3.07Z"/>
            <path class="cls-6" d="M105.69,95.45c.35,1.02,.91,1.98,1.32,3.07,.12-.22,.21-.46,.24-.73-.04-1.48-.66-2.96-1.54-4.21-.88-1.26-2-2.31-3.07-3.25,.2,.6,.45,1.22,.78,1.76,.55,1.08,1.72,1.96,2.27,3.36Z"/>
            <path class="cls-4" d="M105.69,95.45c.35,.97,.85,1.9,1.26,2.92,0-.38-.07-.74-.18-1.11-.52-1.86-1.57-3.48-2.51-5.1,1.28,1.56,2.29,3.38,2.97,5.37-.1-1.44-.74-2.87-1.61-4.06-.87-1.21-1.95-2.22-2.99-3.14,.2,.59,.45,1.21,.78,1.75,.55,1.08,1.72,1.96,2.27,3.36Z"/>
            <path class="cls-3" d="M103.95,93.05c1.2,1.83,2.09,3.81,2.75,5.97,.1-.11,.18-.23,.26-.36,0-.1,0-.2,0-.29-.41-1.02-.91-1.95-1.26-2.92-.55-1.4-1.72-2.29-2.27-3.36-.33-.54-.58-1.16-.78-1.75l-.43-.39c-2.02-1.6-4.23-2.88-6.51-3.86-2.11-.52-4.24-1.32-6.27-2.19,.99,.29,1.98,.57,3,.87-1.07-.4-2.14-.79-3.25-1.2-.94-.31-1.88-.5-2.83-.62-.26,.23-.62,.39-1.15,.33-.82-.1-1.59-.35-2.47-.31-.11-.04-.02-.26-.24-.33,.61,.21,1.15,.2,1.66,.08-.57-.05-1.15-.11-1.74-.19-1.07-.23-1.88-.72-2.75-1.23l-.31-.08c-.51-.14-1.06-.21-1.62-.27,.2,.09,.4,.18,.62,.27-.38,0-.8-.18-1.11-.33,.17,.02,.33,.03,.49,.05-.48-.22-.94-.43-1.44-.68,.61,.3,1.3,.45,1.89,.53-1.17-.43-2.26-.79-3.27-1.52h.1c-1.69-.47-3.47-.86-5.23-1.69-.84-.41-1.65,.57-1.46,.71,3.69,1.99,7.2,3.88,11.06,5.19-.38-.32-.76-.63-1.13-.93-.17-.11-.33-.23-.47-.38,.15,.12,.31,.25,.47,.38,.47,.29,1.05,.47,1.56,.79,.08,.11,.41,.24,.61,.06,.71,.43,1.68,.52,2.39,.92,.05,.02,.1,.1,.17,.21,.49,.12,.99,.23,1.48,.33,2.77,.59,5.4,1.27,7.81,2.33-.54-.35-1.07-.71-1.55-1.09-.63-.57-2.31-.73-3.68-1-.36-.03-.49-.32-.82-.43,1.35-.31,2.75,.55,4.12,.87,1.82,.47,4.04,1.9,6.02,2.4,.84,.2,1.39,.84,1.8,1.42-.29,0-.65-.26-.85-.38-1.71-1.1-3.6-1.97-5.59-2.58,1.92,1.01,3.91,1.67,5.5,3.09-1.06-.6-1.99-1.45-3.2-1.59,.07,.09,.14,.18,.21,.26,.71,.4,1.39,.83,2.01,1.32,.25,.04,.5,.09,.75,.14,1.13,.22,2.17,.92,3.09,1.8,.92,.88,1.72,1.92,2.52,2.87,.11,.17,.46,.3,.79,.5-.45-.69-.87-1.41-1.45-2.02,.18,.29,.3,.61,.35,.95-.51-.56-.7-1.26-1.31-1.77,.36,.23,.68,.51,.96,.82-.25-.46-.62-.85-.96-1.28,.97,.53,1.13,1.67,2.09,2.22-.14-.17-.28-.35-.4-.54l.41,.54s0,0-.01,0c.42,.53,.92,1.01,1.37,1.48-.6-1.02-1.02-2.08-1.83-2.96l-.43-.4c.15,.13,.3,.26,.43,.4,1.97,1.92,3.07,4.65,3.28,7.28l.06,.25,.28-.26c-.23-2.26-1.11-4.48-2.27-6.45Z"/>
          </g>
        </g>
        <g class="cls-16">
          <g class="cls-16">
            <path class="cls-5" d="M35.62,62.25c-2.22-1.9-3.7-4.65-5.86-6.04-.23-.15-.47-.32-.72-.49l.23,.36c1.71,2.78,4.06,5.47,6.64,7.57,1.67,1.23,3.62,2.12,5.34,3.56,.19,.16,.41-.07,.51-.19-.05-.3-.07-.59-.07-.87-1.53-.96-3.12-1.89-4.51-3.14-.44-.43-1.31-.49-1.56-.77Z"/>
            <polygon class="cls-7" points="41.73 66.24 41.73 66.18 41.5 66.04 41.73 66.24"/>
            <path class="cls-4" d="M37.98,63.8c-.51-.34-.97-.73-1.4-1.14-.39-.15-.8-.24-.96-.42-2.22-1.9-3.7-4.65-5.86-6.04-.23-.15-.47-.31-.72-.48l.25,.39c.59,.96,1.26,1.91,1.99,2.83l.16,.11c.59,.35,.83,.95,1.24,1.43,.67,.59,1.25,1.18,1.84,1.76,.57,.59,1.17,1.16,1.9,1.69,.51,.39,1.25,.56,1.81,1.06,.2,.16,.38,.33,.55,.5,.84,.54,1.71,1.06,2.5,1.75,.19,.16,.41-.07,.51-.19-.03-.16-.05-.31-.06-.46-.62-.57-1.31-1.06-1.95-1.63-.62-.42-1.25-.84-1.85-1.3,0,.04,.02,.09,.04,.14Z"/>
            <path class="cls-7" d="M38.24,63.39c-.08-.07-.32,.01-.29,.27,.6,.47,1.23,.89,1.85,1.3-.54-.48-1.08-.98-1.55-1.57Z"/>
            <path class="cls-8" d="M39.05,62.64c-.98-1.06-2.29-1.69-2.94-2.74-.36-.52-.63-1.12-.77-1.72-.14-.14-.28-.28-.42-.41-3.54-3.32-6.63-7.16-8.83-11.43-1.16-2.1-2.72-3.77-4.11-5.86-.73-1.29-.87-2.52-1.21-3.93-.4-1.74-1.06-3.32-1.92-4.8-.84-1.5-1.81-2.97-2.62-4.65-.43-.91-1.67-.61-1.59-.38,1.26,2.87,2.24,5.74,3.2,8.61,1.02,2.87,2.25,5.71,3.88,8.4,2.5,4.19,4.92,8.05,7.32,12,.25,.17,.49,.33,.72,.49,2.15,1.39,3.64,4.14,5.86,6.04,.25,.28,1.12,.34,1.56,.77,1.4,1.25,2.98,2.18,4.51,3.14,0-.59,.05-1.14-.03-1.63-.98-.51-1.9-1.11-2.62-1.89Z"/>
            <path class="cls-6" d="M39.05,62.64c.72,.78,1.64,1.38,2.62,1.89-.04-.24-.11-.47-.24-.68-1.6-2.19-4.11-3.76-6.1-5.67,.15,.6,.41,1.2,.77,1.72,.64,1.05,1.95,1.67,2.94,2.74Z"/>
            <path class="cls-4" d="M39.05,62.64c.69,.74,1.56,1.33,2.49,1.82-.23-.27-.49-.52-.74-.76-1.34-1.21-2.78-2.35-3.84-3.82,1.36,1.35,2.81,2.61,4.34,3.78-1.61-2.08-4.03-3.62-5.96-5.47,.15,.6,.41,1.2,.77,1.72,.64,1.05,1.95,1.67,2.94,2.74Z"/>
            <path class="cls-3" d="M36.74,60.8c1.47,1.62,3.08,3.15,5,4.32,0-.15,0-.3-.02-.44-.06-.08-.12-.15-.18-.22-.93-.49-1.8-1.08-2.49-1.82-.98-1.06-2.29-1.69-2.94-2.74-.36-.52-.62-1.12-.77-1.72l-.39-.39c-1.8-1.7-3.51-3.51-5.02-5.48-1.62-1.47-2.91-3.46-3.86-5.53,.54,.91,1.16,1.78,1.8,2.63-.64-.99-1.23-2.01-1.77-3.05-.52-.88-1.04-1.71-1.65-2.5-.36-.03-.72-.2-1.06-.65-.52-.71-.88-1.47-1.51-2.15-.05-.11,.17-.19,.08-.42,.28,.62,.65,1.06,1.1,1.37-.37-.48-.72-.99-1.08-1.51-.59-1-.76-2-1.02-3.04-.06-.1-.11-.2-.16-.31-.25-.51-.58-1-.94-1.49,.08,.22,.16,.45,.24,.68-.27-.3-.44-.76-.56-1.11,.11,.14,.21,.28,.32,.42-.2-.53-.33-1.06-.51-1.64,.2,.71,.57,1.38,.94,1.9-.53-1.22-.98-2.4-1.23-3.72l.07,.08c-.9-1.68-2-3.29-2.9-5.16-.43-.91-1.67-.62-1.59-.38,.88,2,1.63,4,2.32,6.01,.34,1.01,.68,2.01,1.02,3.01,.39,.99,.75,2,1.19,2.98-.03-.52-.07-1.04-.1-1.54-.04-.21-.06-.42-.05-.64,.02,.21,.03,.42,.05,.64,.11,.58,.38,1.16,.51,1.78-.03,.14,.11,.49,.38,.53,.16,.87,.8,1.69,.99,2.54,.02,.05,0,.15-.03,.28,.25,.48,.54,.94,.82,1.41,1.6,2.64,3.08,5.05,4.61,7.57-.28-.65-.5-1.31-.67-1.94-.18-.88-1.39-2.19-2.22-3.45-.24-.3-.14-.61-.31-.94,1.21,.81,1.67,2.48,2.56,3.68,1.14,1.61,2.29,4.23,4.01,5.62,.71,.57,1.04,1.37,1.3,2.09-.28-.11-.58-.5-.73-.7-1.37-1.76-2.62-3.6-3.95-5.4,1.05,2.1,2.51,3.83,3.7,5.86-.92-1.03-1.43-2.32-2.49-3.14,.01,.12,.04,.24,.07,.36,.47,.76,.94,1.53,1.43,2.33,.25,.17,.49,.33,.72,.48,2.15,1.39,3.64,4.14,5.86,6.04,.16,.18,.57,.27,.96,.42-.68-.63-1.25-1.37-1.93-2.01,.21,.31,.39,.64,.51,1-.67-.58-.94-1.32-1.57-1.93,.38,.29,.71,.61,1.05,.93-.32-.47-.69-.94-1.05-1.41,.97,.64,1.25,1.84,2.37,2.35-.18-.17-.35-.34-.5-.53l.51,.54h-.01c.53,.51,1.21,.88,1.8,1.22-.97-.83-1.57-1.87-2.47-2.72l-.47-.41c.16,.14,.32,.27,.47,.41,2.12,1.91,4.03,4.06,6.2,5.94l.23,.15v-.39c-1.83-1.49-3.51-3.22-4.99-5Z"/>
          </g>
        </g>
        <g class="cls-16">
          <g class="cls-16">
            <path class="cls-5" d="M206.8,27.77c-.07-.46,.67-1.05-.13-1.4-.08-.04-.17-.07-.26-.11l-.05,.07c-.4,.56-.53,1.04-.41,1.55,.2,.31,.67,.75,.49,1.09-.02,.04,.28,.12,.44,.17,.2,.02,.42,.04,.64,.06-.08-.38-.3-.75-.27-1.08,.04-.11-.48-.28-.46-.34Z"/>
            <polygon class="cls-7" points="207.47 29.19 207.52 29.2 207.5 29.14 207.47 29.19"/>
            <path class="cls-4" d="M207.17,28.3c-.08-.12-.07-.22-.05-.33-.14-.08-.34-.16-.33-.2-.07-.46,.67-1.05-.13-1.4-.08-.04-.16-.07-.25-.11l-.05,.08c-.13,.19-.25,.38-.32,.56l.05,.03c.22,.09-.05,.19-.08,.29,.17,.28-.08,.48,.06,.77,.04,.1,.38,.25,.33,.37,0,.04-.02,.08-.05,.11,.11,.18,.16,.36,.08,.52-.02,.04,.28,.12,.44,.17,.11,0,.22,.02,.33,.03,.09-.14,.12-.29,.18-.44-.05-.15-.11-.3-.12-.44-.03,0-.06,0-.08,0Z"/>
            <path class="cls-7" d="M207.65,28.35s-.22-.07-.39-.06c.02,.14,.07,.29,.12,.44,.05-.13,.11-.25,.27-.37Z"/>
            <path class="cls-8" d="M208.73,28.53c.2-.3-.21-.64,.11-.88,.14-.13,.37-.26,.68-.38,0-.05,0-.1-.01-.14-.26-1.15-.55-2.17-.54-3.34-.07-.58-.79-.87-1.35-1.17-.24-.23-.03-.64-.02-1.03,.07-1.07-1.47-.85-2.27-1.01-.22-.06-1.09,.86-1.06,.89,.56,.17,.91,.59,1.19,1.03,.27,.45,.48,.92,.87,1.34,.57,.68,.62,1.61,.09,2.42,.09,.03,.18,.07,.26,.11,.8,.36,.07,.94,.13,1.4-.02,.06,.49,.23,.46,.34-.03,.33,.19,.7,.27,1.08,.46,.04,.93,.09,1.29,.09-.12-.28-.24-.54-.07-.74Z"/>
            <path class="cls-6" d="M208.73,28.53c-.18,.21-.05,.46,.07,.74,.17,0,.32-.02,.42-.05,.82-.49,.4-1.32,.3-1.95-.31,.12-.54,.25-.68,.38-.31,.24,.09,.57-.11,.88Z"/>
            <path class="cls-4" d="M208.73,28.53c-.17,.2-.06,.44,.05,.71,.09-.06,.15-.13,.18-.21,.15-.4,.13-.81,.47-1.2-.05,.45-.12,.89-.14,1.36,.72-.5,.32-1.3,.22-1.91-.31,.12-.54,.25-.68,.38-.31,.24,.09,.57-.11,.88Z"/>
            <path class="cls-3" d="M208.62,27.87c-.2,.46-.37,.88-.24,1.4,.12,0,.23,0,.34,.01,.03-.02,.05-.03,.07-.05-.11-.27-.22-.51-.05-.71,.2-.3-.21-.64,.11-.88,.14-.13,.37-.26,.68-.38,0-.05,0-.09-.01-.13-.13-.59-.27-1.14-.38-1.7-.47-.42-.48-.92-.38-1.49,.07,.23,.15,.46,.26,.69-.03-.27-.04-.55-.04-.84-.03-.24-.18-.44-.38-.6-.29,.07-.55,.1-.66,.02-.18-.12-.23-.3-.56-.35,0-.03,.21-.13,.19-.18,.04,.14,.23,.18,.5,.17-.15-.08-.3-.16-.44-.23-.18-.19-.1-.47-.05-.78-.02-.02-.04-.04-.06-.05-.1-.09-.28-.13-.48-.15,.02,.05,.04,.1,.06,.15-.16,0-.2-.09-.23-.16h.17c-.05-.1-.09-.21-.15-.33,.07,.14,.26,.21,.45,.25-.18-.24-.43-.39-.44-.76h.05c-.51-.15-1.15-.11-1.61-.22-.22-.06-1.09,.86-1.06,.89,.79,.24,1.14,.94,1.49,1.57,.11-.16,.21-.32,.29-.48,.01-.05,.04-.12,.1-.2-.03,.06-.07,.13-.1,.2-.03,.15,.05,.23-.02,.4-.06,.06-.04,.12,.17,.03-.09,.22,.16,.29,.05,.52,0,0-.05,.05-.12,.1,.06,.08,.12,.15,.19,.22,.35,.43,.51,.95,.45,1.48,.12-.15,.25-.31,.43-.48,.3-.25-.11-.48-.29-.71-.08-.04,.13-.17,.12-.24,.71,0,.37,.48,.55,.72,.18,.37-.29,1,.22,1.33,.22,.15-.03,.35-.29,.5-.15-.04-.14-.13-.13-.17,.05-.41,.08-.85-.09-1.24-.22,.49-.02,.87-.39,1.33-.05-.23,.3-.52-.09-.68-.06,.03-.1,.06-.15,.08-.05,.17-.14,.33-.25,.49,.09,.03,.18,.07,.25,.11,.8,.36,.07,.94,.13,1.4-.01,.04,.19,.12,.33,.2,.04-.16,.16-.32,.16-.49-.08,.06-.19,.12-.37,.17-.02-.15,.31-.26,.28-.42,.07,.08,.09,.17,.09,.25,.12-.1,.16-.2,.24-.31,.26,.22-.4,.39-.01,.62,0-.05,.01-.09,.05-.13l-.04,.14h0c0,.13,.14,.29,.27,.43,.02-.24,.36-.44,.36-.7,0-.04-.02-.08-.04-.13,.02,.04,.03,.08,.04,.13,.1,.59-.34,1.13-.64,1.61v.06s.32,.03,.32,.03c.2-.44,.47-.88,.79-1.35Z"/>
          </g>
        </g>
        <g class="cls-16">
          <g class="cls-16">
            <path class="cls-5" d="M276.74,82.32c.52,.66,.76,1.5,1.08,2.25,.27,.78,.61,1.46,1.21,1.99,.12,.11,.25,.24,.39,.37-.01-.08-.02-.17-.03-.25-.24-1.9-1.05-3.89-2.31-5.38-.88-.87-2.05-1.46-2.86-2.47-.09-.12-.33,.09-.45,.19-.06,.23-.15,.46-.25,.69,.39,.32,.83,.61,1.22,.95,.38,.35,.75,.72,1.08,1.14,.17,.3,.81,.34,.92,.53Z"/>
            <polygon class="cls-7" points="273.52 79.64 273.5 79.68 273.62 79.78 273.52 79.64"/>
            <path class="cls-4" d="M275.48,81.26c.28,.22,.51,.48,.67,.78,.24,.1,.53,.17,.59,.29,.52,.66,.76,1.5,1.08,2.25,.27,.78,.61,1.46,1.21,1.99,.12,.11,.25,.23,.39,.36-.01-.09-.02-.18-.03-.27-.06-.67-.25-1.32-.45-1.98l-.09-.08c-.34-.26-.28-.68-.43-1.02-.62-.85-.92-1.69-1.63-2.48-.27-.27-.8-.36-1.03-.73-.1-.11-.17-.24-.24-.36-.47-.35-.94-.71-1.31-1.2-.09-.11-.33,.09-.45,.19-.03,.12-.07,.24-.12,.36,.27,.4,.59,.74,.9,1.11,.33,.27,.63,.57,.92,.89,.01-.03,.02-.06,.02-.1Z"/>
            <path class="cls-7" d="M275.12,81.58s.26-.03,.34-.22c-.29-.32-.6-.62-.92-.89,.24,.32,.45,.69,.59,1.1Z"/>
            <path class="cls-8" d="M274.2,82.18c.37,.68,1.08,1.12,1.2,1.8,.06,.35,0,.76-.13,1.16,.05,.09,.11,.18,.16,.27,1.44,2.13,2.31,4.7,2.29,7.27,.08,1.26,.65,2.4,1,3.76,.04,.8-.34,1.42-.68,2.15-.42,.9-.44,1.76-.35,2.72,.04,.93,.2,1.96,0,2.98-.09,.55,1.02,1.14,1.09,1.01,.48-1.78,.99-3.44,1.36-5.15,.33-1.71,.51-3.47,.29-5.26-.37-2.76-.7-5.27-1.01-7.96-.14-.13-.27-.25-.39-.37-.6-.52-.94-1.21-1.21-1.99-.32-.75-.56-1.59-1.08-2.25-.1-.19-.75-.23-.92-.53-.33-.42-.7-.79-1.08-1.14-.39-.34-.83-.63-1.22-.95-.2,.47-.44,.9-.57,1.27,.54,.3,1.03,.67,1.25,1.21Z"/>
            <path class="cls-6" d="M274.2,82.18c-.22-.55-.71-.91-1.25-1.21-.06,.18-.1,.35-.08,.5,.34,1.49,1.63,2.41,2.4,3.67,.13-.39,.19-.8,.13-1.16-.12-.68-.82-1.12-1.2-1.8Z"/>
            <path class="cls-4" d="M274.2,82.18c-.21-.52-.66-.88-1.18-1.17,.07,.19,.16,.35,.28,.5,.54,.8,1.19,1.54,1.41,2.52-.51-.87-1.1-1.7-1.81-2.43,.38,1.41,1.64,2.31,2.37,3.53,.13-.39,.19-.8,.13-1.15-.12-.68-.82-1.12-1.2-1.8Z"/>
            <path class="cls-3" d="M275.25,83.39c-.24-.55-.52-1.08-.88-1.56-.34-.5-.76-.94-1.26-1.3-.05,.12-.1,.23-.14,.34,.02,.05,.04,.1,.05,.15,.51,.29,.96,.65,1.18,1.17,.37,.68,1.08,1.12,1.2,1.8,.06,.35,0,.76-.13,1.15l.15,.25c.39,.53,.66,1.13,.99,1.71,.26,.6,.54,1.21,.73,1.84,.71,.98,.93,2.27,.81,3.51-.05-.57-.19-1.12-.37-1.66,.1,.62,.16,1.25,.14,1.88,.05,.54,.16,1.05,.31,1.56,.3,.09,.56,.25,.66,.54,.14,.47,.09,.93,.37,1.41,0,.07-.24,.05-.25,.18,.03-.37-.13-.68-.38-.93,.1,.32,.2,.65,.3,.99,.05,.63-.22,1.15-.45,1.69,0,.06,0,.12,0,.19,0,.31,.08,.63,.18,.97,.03-.12,.06-.25,.09-.38,.11,.22,.05,.48,0,.68-.03-.1-.06-.2-.09-.3-.07,.3-.13,.59-.23,.89,.13-.37,.04-.8-.03-1.15-.06,.71-.13,1.38-.49,2.02l-.03-.06c.05,1.03,.25,2.16,.02,3.3-.09,.55,1.02,1.14,1.09,1.01,.68-2.47,1.41-4.76,1.66-7.21-.18,.26-.39,.51-.59,.76-.06,.11-.13,.22-.24,.31,.08-.1,.16-.21,.24-.31,.17-.31,.18-.67,.34-1.01,.09-.06,.12-.27-.1-.37,.24-.47,.08-1.05,.26-1.53,0-.03,.07-.08,.15-.13-.02-.31-.04-.62-.08-.93-.25-1.72-.44-3.35-.65-4.99-.06,.42-.15,.83-.29,1.2-.23,.52,.2,1.44,.4,2.27,.08,.21-.16,.35-.16,.56-.68-.67-.37-1.62-.58-2.44-.16-.53-.14-1.2-.24-1.88-.12-.66-.24-1.36-.68-1.84-.36-.39-.25-.92-.16-1.4,.2,.08,.27,.35,.31,.48,.36,1.2,.64,2.42,.96,3.63,.06-1.36-.46-2.53-.55-3.91,.29,.74,.21,1.55,.72,2.16,.04-.07,.07-.15,.1-.23-.05-.53-.12-1.05-.19-1.58-.14-.13-.27-.25-.39-.36-.6-.52-.94-1.21-1.21-1.99-.32-.75-.56-1.59-1.08-2.25-.07-.12-.35-.18-.59-.29,.24,.45,.5,.95,.73,1.4-.03-.23-.05-.45,0-.7,.32,.4,.19,.94,.47,1.35-.19-.2-.34-.42-.46-.65,.05,.34,.17,.65,.26,.97-.53-.43-.22-1.29-.95-1.61,.08,.11,.14,.23,.19,.36l-.2-.37h0c-.24-.34-.57-.62-.92-.82,.42,.58,.48,1.3,.85,1.87,.06,.09,.13,.18,.2,.28-.08-.09-.14-.18-.2-.28-.94-1.26-1.5-2.78-2.5-4.05l-.12-.1-.14,.31c.4,.52,.79,1.04,1.09,1.63,.16,.29,.31,.57,.45,.86,.12,.3,.24,.6,.35,.9Z"/>
          </g>
        </g>
        <g class="cls-16">
          <g class="cls-16">
            <path class="cls-5" d="M246.6,167.28c-1.86,1.03-3.92,1.69-5.86,2.36-1.94,.65-3.77,1.34-5.3,2.29-.34,.2-.69,.41-1.05,.62l.6-.15c2.26-.56,4.53-1.25,6.83-2.06,2.29-.82,4.61-1.83,6.71-3.17,2.54-1.78,4.75-4.21,6.52-7.2,.2-.33-.05-.52-.18-.62-.34,.2-.67,.34-.98,.44-1.2,2.33-3.06,4.4-5.38,5.85-.77,.46-1.39,1.39-1.89,1.63Z"/>
            <path class="cls-7" d="M253.97,159.73l-.06,.02c-.06,.12-.11,.24-.18,.35,.09-.12,.16-.25,.24-.37Z"/>
            <path class="cls-4" d="M249.88,164.77c-.67,.6-1.41,1.1-2.17,1.51-.42,.42-.79,.84-1.11,1-1.86,1.03-3.92,1.69-5.86,2.36-1.94,.65-3.77,1.34-5.3,2.29-.33,.2-.68,.4-1.04,.62l.64-.16c1.56-.39,3.14-.84,4.71-1.35l.23-.14c.8-.52,1.69-.59,2.55-.9,2.32-1.12,4.43-1.81,6.64-3.38,.79-.56,1.41-1.44,2.3-2.14,.3-.25,.58-.51,.87-.74,1-1.15,1.91-2.41,2.73-3.82,.2-.33-.05-.52-.18-.62-.18,.1-.36,.19-.53,.26-.65,1.06-1.39,2.06-2.29,2.95-.7,.84-1.5,1.62-2.39,2.29,.05,0,.11-.01,.19-.04Z"/>
            <path class="cls-7" d="M249.51,164.45c-.13,.09-.15,.38,.18,.36,.89-.67,1.69-1.45,2.39-2.29-.75,.75-1.6,1.41-2.57,1.93Z"/>
            <path class="cls-8" d="M249,163.46c-1.69,1.07-3.25,2.35-4.93,2.8-.86,.26-1.76,.38-2.59,.39-.26,.11-.53,.22-.78,.33-6.53,2.77-13.23,5.48-20.03,5.79-3.37,.21-6.47,.59-10.02,.1-2.08-.41-3.6-1.28-5.51-2.14-4.77-2.26-9.5-2.44-14.71-3.73-1.4-.35-1.99,.78-1.65,.91,4.34,1.18,8.48,2.57,12.6,3.99,4.1,1.38,8.28,3.02,12.93,3.35,7.18,.5,13.72-1.16,20.09-2.68,.36-.21,.71-.42,1.05-.62,1.53-.95,3.36-1.64,5.3-2.29,1.94-.66,4-1.33,5.86-2.36,.5-.24,1.12-1.17,1.89-1.63,2.32-1.45,4.18-3.52,5.38-5.85-.66,.22-1.29,.27-1.85,.47-.74,1.27-1.76,2.44-3.04,3.19Z"/>
            <path class="cls-6" d="M249,163.46c1.28-.75,2.3-1.93,3.04-3.19-.29,.08-.56,.2-.82,.38-1.4,1.07-2.86,2.16-4.51,3.2-1.64,1.04-3.42,2.02-5.24,2.8,.83,0,1.73-.13,2.59-.39,1.68-.45,3.24-1.73,4.93-2.8Z"/>
            <path class="cls-4" d="M249,163.46c1.22-.72,2.21-1.82,2.93-3.02-.34,.33-.69,.66-1.04,.99-1.76,1.69-3.91,3.12-6.32,3.93,2.44-1.16,4.75-2.58,6.4-4.53-1.36,1.04-2.79,2.11-4.4,3.11-1.59,1.01-3.33,1.95-5.09,2.71,.83,0,1.72-.13,2.59-.39,1.68-.45,3.24-1.73,4.93-2.8Z"/>
            <path class="cls-3" d="M245.54,165.78c2.83-1.24,5.59-3.03,7.16-5.73-.17,.04-.33,.08-.49,.13-.09,.09-.19,.17-.28,.26-.72,1.2-1.71,2.3-2.93,3.02-1.69,1.07-3.25,2.35-4.93,2.8-.86,.26-1.76,.38-2.59,.39-.25,.1-.49,.21-.74,.31-3.32,1.42-6.72,2.81-10.12,3.89-2.85,1.3-6.2,2.05-9.41,2.12,1.5-.15,2.99-.43,4.46-.82-1.65,.32-3.31,.57-4.96,.63-1.43,.08-2.8,.23-4.19,.28-.29,.28-.76,.53-1.55,.52-1.24,.03-2.42-.22-3.72-.22-.17-.04-.08-.26-.42-.35,.94,.25,1.76,.24,2.47,.1-.85-.03-1.72-.1-2.6-.22-1.63-.31-2.93-.93-4.33-1.59l-.48-.13c-.8-.22-1.64-.37-2.5-.49,.32,.12,.65,.24,.99,.36-.57-.04-1.24-.29-1.74-.47,.25,.04,.5,.07,.75,.11-.77-.29-1.52-.56-2.34-.86,1,.37,2.07,.59,2.98,.76-1.87-.6-3.61-1.08-5.36-1.89h.15c-2.69-.57-5.44-.95-8.33-1.67-1.4-.35-1.99,.78-1.65,.91,6.08,1.64,11.7,3.73,17.54,5.65-.62-.38-1.23-.75-1.84-1.12-.28-.13-.54-.28-.77-.46,.25,.15,.51,.3,.77,.46,.75,.37,1.63,.63,2.45,1.02,.13,.13,.65,.3,.92,.14,1.13,.53,2.6,.72,3.78,1.15,.07,.02,.18,.11,.31,.22,.78,.13,1.58,.23,2.38,.27,4.48,.32,8.74-.24,12.83-1.05-1.01,.08-2,.13-2.91,.07-1.24-.12-3.71,.57-5.9,.7-.55,.06-.87-.15-1.41-.19,1.88-.61,4.29-.32,6.42-.78,2.79-.5,6.84-1.02,9.64-2.46,1.15-.6,2.37-.75,3.43-.85-.31,.27-.98,.49-1.32,.6-3.05,.98-6.13,1.88-9.27,2.63,3.36-.4,6.43-1.54,9.7-2.27-1.86,.69-3.79,.94-5.46,1.79,.17,.02,.33,.02,.5,.02,1.25-.3,2.52-.6,3.8-.91,.36-.21,.7-.42,1.04-.62,1.53-.95,3.36-1.64,5.3-2.29,1.94-.66,4-1.33,5.86-2.36,.31-.16,.69-.58,1.11-1-1.19,.66-2.44,1.16-3.67,1.7,.52-.16,1.04-.26,1.55-.32-1.14,.59-2.23,.69-3.38,1.2,.61-.32,1.21-.61,1.83-.87-.79,.22-1.59,.5-2.41,.75,1.42-.85,3.08-.83,4.4-1.96-.31,.16-.64,.3-.96,.43l.98-.44h-.02c.95-.5,1.83-1.14,2.54-1.81-1.55,1.02-3.18,1.47-4.8,2.21l-.8,.39c.27-.14,.54-.27,.8-.39,1.84-.91,3.7-1.78,5.42-2.89,1.73-1.09,3.32-2.46,4.52-4.17,.07-.11,.12-.24,.18-.35-.15,.05-.29,.1-.43,.13-1.9,2.82-4.91,4.69-7.93,5.9Z"/>
          </g>
        </g>
        <g class="cls-16">
          <g class="cls-16">
            <path class="cls-5" d="M158.04,138.62c-1.55-1.51-2.73-3.68-4.67-4.22-.21-.07-.42-.13-.63-.18l.21,.24c1.59,1.78,3.29,3.67,5.07,5.38,1.19,.97,2.62,1.82,3.63,3.21,.11,.15,.37-.02,.5-.11,.05-.26,.12-.51,.21-.75-1.02-.98-2.13-1.87-3.1-2.94-.3-.38-1.04-.41-1.22-.62Z"/>
            <polygon class="cls-7" points="162.36 142.24 162.38 142.2 162.22 142.05 162.36 142.24"/>
            <path class="cls-4" d="M159.79,139.91c-.38-.29-.69-.62-.99-.97-.31-.12-.65-.18-.76-.32-1.55-1.51-2.73-3.68-4.67-4.22-.21-.07-.41-.13-.63-.18l.23,.25c.6,.66,1.15,1.28,1.69,1.88l.13,.06c.5,.16,.64,.67,.95,1,1.05,.8,1.65,1.76,2.65,2.64,.36,.32,.96,.46,1.31,.91,.13,.14,.24,.29,.34,.45,.59,.48,1.15,1.01,1.62,1.66,.11,.15,.37-.02,.5-.11,.03-.14,.06-.27,.1-.4-.36-.54-.79-1.04-1.2-1.56-.43-.39-.87-.78-1.28-1.2,0,.04,0,.08,0,.12Z"/>
            <path class="cls-7" d="M160.11,139.56c-.05-.07-.29,0-.32,.24,.41,.42,.85,.81,1.28,1.2-.34-.44-.68-.9-.95-1.44Z"/>
            <path class="cls-8" d="M161,138.9c-.66-.97-1.71-1.51-2.17-2.4-.26-.45-.43-.97-.54-1.5-.12-.11-.24-.22-.36-.33-3.09-2.6-6.43-4.95-10.27-6.6-1.97-.76-4.02-.55-6.04-.27-1.2,.04-2.17-.3-3.37-.44-3.03-.41-5.32,1.37-8.06,2.34-.75,.26-.6,1.52-.41,1.49,4.67-1.44,9.21-1.76,13.85-1.5,3.64,.22,6.83,2.02,9.1,4.52,.21,.06,.43,.12,.63,.18,1.94,.53,3.13,2.7,4.67,4.22,.18,.22,.92,.24,1.22,.62,.97,1.06,2.08,1.95,3.1,2.94,.18-.51,.39-.99,.47-1.43-.7-.55-1.38-1.11-1.83-1.84Z"/>
            <path class="cls-6" d="M161,138.9c.45,.73,1.13,1.29,1.83,1.84,.04-.22,.04-.43-.01-.63-.83-2.09-2.83-3.6-4.52-5.11,.11,.52,.28,1.05,.54,1.5,.45,.89,1.51,1.43,2.17,2.4Z"/>
            <path class="cls-4" d="M161,138.9c.43,.7,1.07,1.24,1.73,1.77-.13-.26-.27-.51-.45-.73-.88-1.17-1.91-2.23-2.68-3.5,1.05,1.16,2.08,2.31,3.14,3.5-.88-1.99-2.81-3.46-4.45-4.92,.11,.52,.28,1.05,.54,1.49,.45,.89,1.51,1.43,2.17,2.4Z"/>
            <path class="cls-3" d="M159.28,137.27c1.07,1.4,2.12,2.78,3.44,3.99,.04-.13,.08-.26,.11-.39-.03-.07-.06-.14-.09-.21-.66-.53-1.31-1.07-1.73-1.77-.66-.97-1.71-1.51-2.17-2.4-.26-.45-.43-.97-.54-1.49l-.34-.31c-1.58-1.33-3.22-2.59-4.96-3.73-1.72-.67-3.38-1.65-5.11-2.55,.85,.32,1.69,.65,2.53,1-.89-.47-1.79-.93-2.73-1.33-.83-.32-1.68-.48-2.54-.52-.23,.26-.54,.44-1,.45-.72,.01-1.41-.09-2.15,.14-.1,0-.06-.24-.26-.26,.55,.04,1.01-.05,1.44-.27-.51,.06-1.02,.11-1.53,.18-.95,.03-1.74-.17-2.62-.34l-.28,.04c-.46,.07-.93,.22-1.38,.42,.19,0,.38-.01,.58-.02-.3,.16-.69,.18-.98,.19,.13-.06,.27-.12,.4-.17-.46,.01-.89,.04-1.38,.07,.59-.04,1.17-.23,1.67-.4-1.09,.11-2.06,.34-3.15,.29l.07-.05c-1.45,.53-2.82,1.31-4.35,1.85-.75,.26-.6,1.52-.41,1.49,3.25-1.01,6.46-1.46,9.67-1.56-.37-.17-.74-.31-1.13-.45-.16-.03-.33-.08-.48-.16,.16,.05,.32,.11,.48,.16,.45,.08,.93,.03,1.41,.16,.09,.08,.37,.09,.48-.14,.64,.19,1.42,.02,2.04,.26,.04,0,.1,.08,.16,.17,.4,0,.8,.03,1.21,.06,2.26,.16,4.38,.88,6.18,2.06-.38-.39-.77-.73-1.1-1.13-.22-.3-.69-.47-1.23-.64-.55-.12-1.18-.24-1.74-.32-.29,0-.4-.29-.68-.37,1.14-.42,2.31,.4,3.4,.77,1.5,.53,3.07,2.1,4.67,2.71,.67,.26,1.04,.86,1.29,1.43-.25-.02-.53-.27-.67-.39-1.28-1.12-2.67-2.15-4.24-2.85,1.43,1.08,2.94,1.91,4.07,3.32-.82-.61-1.42-1.52-2.43-1.73,.04,.09,.08,.18,.12,.27,.52,.43,1,.9,1.45,1.39,.21,.06,.42,.11,.63,.18,1.94,.53,3.13,2.7,4.67,4.22,.11,.14,.46,.2,.76,.32-.46-.54-.86-1.13-1.37-1.64,.14,.26,.26,.53,.3,.83-.49-.45-.62-1.09-1.13-1.52,.31,.2,.58,.44,.83,.69-.21-.39-.5-.74-.78-1.11,.83,.42,.9,1.47,1.81,1.83-.13-.14-.25-.28-.36-.44l.37,.44h-.01c.4,.41,.9,.73,1.35,1.02-.67-.74-1.03-1.62-1.74-2.31-.12-.11-.24-.21-.37-.32,.13,.1,.25,.21,.37,.32,1.68,1.52,2.86,3.48,4.14,5.31l.16,.15,.12-.34c-1.11-1.49-2.18-3.05-3.22-4.58Z"/>
          </g>
        </g>
      </g>
    </g>
  </g>
</svg>