<?xml version="1.0" encoding="UTF-8"?>
<svg id="_Слой_2" data-name="Слой 2" xmlns="http://www.w3.org/2000/svg" xmlns:xlink="http://www.w3.org/1999/xlink" viewBox="0 0 355.95 377.92">
  <defs>
    <style>
      .cls-1 {
        fill: none;
      }

      .cls-2 {
        clip-path: url(#clippath);
      }

      .cls-3 {
        fill: #f3f9fb;
      }

      .cls-4 {
        fill: #f7fbfc;
      }

      .cls-5 {
        fill: #f8fcfd;
      }

      .cls-6 {
        fill: #f4fafb;
      }

      .cls-7 {
        fill: #f5fafb;
      }

      .cls-8 {
        fill: #fbfdfe;
      }

      .cls-9 {
        fill: #666361;
      }

      .cls-10 {
        fill: #42413c;
      }

      .cls-11 {
        fill: #a2dbed;
      }

      .cls-12 {
        fill: #6e7c6e;
      }

      .cls-13 {
        fill: #515151;
      }

      .cls-14 {
        opacity: .58;
      }

      .cls-15 {
        opacity: .49;
      }

      .cls-16 {
        opacity: .8;
      }
    </style>
    <clipPath id="clippath">
      <rect class="cls-1" width="355.95" height="377.92"/>
    </clipPath>
  </defs>
  <g id="_камни" data-name="камни">
    <g class="cls-2">
      <g>
        <g class="cls-15">
          <path class="cls-12" d="M111.9,130.76c-4.15-27.86,14.44-55.38,39.23-70.36,24.79-14.98,54.71-19.71,83.87-22.35,35.79-3.24,73.85-3.39,105.21,13.49,20.71,11.14,37.99,31.75,36.62,54.53-1.15,19.13-14.68,35.19-27.58,49.79-8.06,9.12-16.24,18.36-26.44,25.22-9.2,6.19-19.77,10.25-30.52,13.37-39.99,11.59-83.89,10.34-123.1-3.51-15.77-5.57-31.09-13.34-42.44-25.24-11.35-11.9-18.28-28.43-15.46-44.35"/>
          <path class="cls-12" d="M140.04,172.86c8.96,6.34,19.12,11.13,29.66,14.78,3.95,1.29,7.85,3.11,12.29,3.36,1.1,.06,2.52,.7,4.17,1.29,1.65,.62,3.5,1.34,5.38,1.78,10.19,2.21,20.56,3.9,30.99,4.51,10.15,.59,20.28,.13,30.36-.81,9.97-.92,20.33-2.08,29.6-4.89,2.02-.55,3.96-1.19,5.9-1.68,1.94-.5,3.86-.97,5.75-1.5,3.78-1.03,7.48-2.15,11.1-3.73,3.83-1.68,7.62-3.57,11.21-5.68,3.6-2.09,6.99-4.4,10.26-6.85,4.76-3.54,9.26-7.54,13.23-12.12,2.48-2.86,4.43-5.9,7.22-9,2.58-2.86,5.79-5.88,7.05-9.12,.1-.27,1.34-1.46,1.98-2.05,3.1-2.76,6.02-6.84,7.38-9.95,1.35-3.01,2.81-5.44,4.05-8.13,3.44-7.35,5.36-15.23,4.62-23.01-.46-5.81-1.85-11.7-4.7-17.11-2.93-5.67-7.61-10.75-11.51-15.25-3.95-4.57-8.63-8.12-13.7-11.2-.73-.42-1.48-.88-2.24-1.35-.75-.47-1.52-.95-2.33-1.32-1.59-.78-3.18-1.4-4.65-1.53-.26-.05-1.43-.54-1.93-.85-2.09-1.26-4.24-2.41-6.53-3.2-1.14-.42-2.28-.82-3.43-1.19-1.16-.35-2.35-.62-3.52-.92-1.18-.28-2.35-.59-3.55-.83-1.2-.23-2.39-.46-3.59-.69-2.38-.53-4.81-.88-7.22-1.45-9.97-2.24-20.57-2.76-31-2.89-2.78-.06-5.77-.33-8.33,.48-.9,.26-3.82,.39-5.25,.25-7.77-.82-15.93,.41-23.89,.95-9.1,.64-18.08,2.15-27.21,2.81-3.86,.31-9.12,1.04-13.39,3.09-.49,.23-1.13,.43-1.87,.62-.73,.21-1.56,.41-2.42,.6-.87,.19-1.77,.39-2.66,.59-.88,.22-1.74,.46-2.52,.71-2.6,.79-4.92,2.07-7.44,2.89-1.06,.38-2.15,.68-3.27,.95-1.11,.27-2.24,.51-3.33,.87-.65,.2-1.43,.52-2.03,.83-5.78,3.03-11.57,5.85-17.09,9.12-5.49,3.25-10.76,7.07-15.24,11.75-4.5,4.69-8.52,9.86-11.88,15.4-3.35,5.54-6.02,11.49-7.64,17.68-.12,.43-.26,.85-.36,1.28l-.26,1.29c-.19,.86-.38,1.72-.56,2.57-.24,.85-.28,1.71-.44,2.55-.14,.84-.28,1.68-.44,2.49-.25,1.64-.41,3.22-.74,4.72-.19,.75-.23,1.47-.37,2.17-.13,.7-.28,1.37-.46,2.02-.66,2.33-1.58,2.57-2.46-.62-.16-.59-.32-1.2-.48-1.82-.08-.32-.15-.64-.23-.96-.04-.33-.09-.66-.13-.99-.16-1.33-.29-2.72-.34-4.11,.02-1.11,.11-2.21,.15-3.32,.07-1.11,.07-2.22,.26-3.31,.31-2.18,.54-4.38,1.11-6.47,.27-1.09,.49-2.21,.78-3.3l.99-3.24,.49-1.63,.61-1.58c.42-1.06,.83-2.11,1.25-3.17,.44-1.05,.98-2.05,1.49-3.08,.54-1.01,1-2.07,1.64-3.03,1.23-1.94,2.44-3.94,3.98-5.71,.94-1.11,1.73-2.49,2.74-3.62,.97-1.16,1.97-2.22,3.07-2.84,.3-.18,1.17-.98,1.51-1.43,.95-1.22,1.87-2.49,2.94-3.62,1.06-1.14,2.16-2.27,3.27-3.38,1.17-1.05,2.37-2.08,3.58-3.1,1.2-1.04,2.53-1.91,3.8-2.86,5.21-3.68,10.82-6.66,16.42-9.43,4.79-2.31,9.53-4.55,14.41-6.49,4.89-1.87,9.9-3.56,15.15-4.58,5.44-2.45,12.31-3.62,18.19-4.24,10.39-1.08,20.69-2.1,31.01-2.98,10.32-.89,20.71-1.63,31.14-1.51,10.57,.13,21.2,.81,31.74,2.48l1.98,.3,1.97,.38,3.94,.77c2.61,.57,5.22,1.22,7.81,1.89,5.16,1.49,10.29,3.12,15.23,5.28,3.4,1.37,6.5,2.28,10.13,4.66,3.37,2.34,7.99,4.88,11.77,7.8,3.45,2.67,7,5.62,9.65,8.81,5.38,6.65,10.21,13.89,13.19,22.11l.58,1.53,.45,1.57c.29,1.05,.64,2.09,.87,3.16l.63,3.23c.12,.54,.18,1.08,.23,1.63l.16,1.64,.15,1.64c.05,.55,.01,1.1,.02,1.65,0,1.1,0,2.21-.03,3.31l-.33,3.28c-.13,1.09-.37,2.16-.56,3.23-1.8,8.53-5.69,16.34-10.33,23.32-4.62,7.03-9.95,13.4-15.22,19.64-6.43,7.53-12.54,15.56-20.6,22.19-3.4,2.79-6.9,6.13-11.21,7.55-1.19,.42-4.4,3.15-6.98,4.42-6.33,3.2-13,5.55-19.67,7.55-9.28,2.72-18.75,4.77-28.28,6.28-1.45,.23-2.9,.47-4.35,.73l-4.35,.65c-1.45,.21-2.9,.45-4.36,.62-1.46,.15-2.93,.3-4.4,.42-6.15,.54-12.4,.57-18.58,.36-7.83-.4-15.56-1.33-23.28-2.52-7.99-1.25-16.39-2.44-23.77-4.85-6.84-2.33-13.66-4.51-20.36-7.12-6.7-2.59-13.33-5.54-19.58-9.25-6.22-3.66-12.1-8.05-17.35-13.14-5.26-5.1-9.73-11.07-13.15-17.61-1.93-3.73-3.17-7.6-3.96-11.52-.78-3.92-1.11-7.89-1.12-12,0-.48,.02-.98,.11-1.48,.1-.5,.24-1,.39-1.49,.16-.49,.34-.96,.53-1.39,.21-.44,.46-.84,.69-1.19,.94-1.42,1.89-2.08,2.21-1.28,.12,.3,.22,.9,.2,1.48-.09,3.71,.45,7.21,1.3,10.7,.86,3.49,2.02,6.99,3.47,10.82,1.04,2.84,2.41,5.58,3.97,8.2,1.55,2.63,3.32,5.14,5.3,7.47,3.91,4.7,8.62,8.81,13.67,12.42Z"/>
        </g>
        <g class="cls-15">
          <path class="cls-12" d="M250.46,255.73c-17.87-3.49-31.91-18.58-36.23-35.61-4.32-17.02,.14-35.37,9.41-50.46,9.27-15.09,23.02-27.22,37.82-37.44,7.38-5.1,15.2-9.83,23.91-12.31,21.36-6.08,45.06,2.73,61.05,17.64,15.99,14.91,25.5,35.04,32.96,55.22,5.6,15.14,10.12,32.43,2.6,46.78-8.84,16.88-30.7,22.92-50.29,24.45-27.38,2.14-55.21-1.1-81.27-9.47"/>
          <path class="cls-12" d="M295.8,260.5c8.07,.74,16.18,1.08,24.27,.8,3.01-.11,6.11,.22,9.18-.93,1.53-.55,4.47,.32,7.22-.06,3.7-.48,7.38-1.1,10.99-1.93,1.82-.38,3.59-.9,5.37-1.39,1.74-.58,3.51-1.12,5.18-1.84,1.67-.63,3.22-1.45,4.79-2.23,1.51-.88,3.03-1.73,4.42-2.74,2.79-1.99,5.4-4.19,7.48-6.78,2.07-2.54,3.95-5.3,5.21-8.35,1.27-3.04,1.95-6.34,1.9-9.58-.06-2.8-.01-5.47-.17-8.18-.19-2.7-.44-5.42-1.2-8.14-1.55-5.79-3.73-11.68-5.51-17.49-1.29-4.23-2.57-8.43-4.5-12.36-.61-1.22-1.31-2.35-2-3.51-.71-1.15-1.42-2.33-2.04-3.67-.61-1.22-1.15-2.59-1.82-3.84-.69-1.23-1.47-2.37-2.52-3.14-.18-.13-.62-1.27-.81-1.88-.86-2.9-2.89-5.91-4.66-7.64-1.76-1.67-2.93-3.4-4.33-5.09-3.79-4.66-7.99-9.04-12.51-12.82-3.37-2.88-6.86-5.68-10.76-7.9-4.07-2.34-8.83-3.79-12.77-5.52-3.98-1.78-8.11-2.48-12.3-2.85-1.19-.08-2.48-.34-3.73-.29-1.24,.03-2.44,.11-3.38,.77-.17,.12-1.05,.17-1.46,.11-1.72-.3-3.39-.06-5.07,.13-.83,.14-1.64,.38-2.45,.6-.81,.23-1.61,.46-2.4,.78-3.15,1.21-6.11,2.88-9.29,4.3-6.55,2.95-12.74,7.58-18.76,12.08-1.6,1.2-3.48,2.28-4.43,4.04-.32,.63-1.94,1.95-2.82,2.47-4.91,2.74-8.73,7.23-12.61,11.26-2.24,2.3-4.23,4.81-6.13,7.37-1.93,2.55-3.77,5.15-5.74,7.71-.86,1.07-1.72,2.43-2.48,3.93-.7,1.52-1.3,3.18-1.44,4.87-.09,.77-.53,1.81-.99,2.97-.5,1.14-1,2.39-1.3,3.51-.27,.91-.36,1.85-.49,2.77-.14,.92-.23,1.84-.42,2.74-.37,1.53-1,3.01-1.46,4.57-.11,.46-.19,1.05-.19,1.52,.02,4.58-.11,9.02,.23,13.5,.37,4.47,1.24,8.92,3.21,12.99,3.92,8.13,9.89,15.53,17.49,20.46,4.19,2.76,8.76,4.8,11.8,7.44,1.37,1.23,1.27,2.18-1.16,2.18-.89,0-1.86-.01-2.83-.19-.97-.17-1.99-.3-2.94-.66l-2.29-.81c-.77-.27-1.49-.63-2.24-.94-1.51-.6-2.89-1.41-4.3-2.15-2.81-1.71-5.65-3.47-8.17-5.7-2.52-2.21-4.88-4.71-6.62-7.72-.58-.9-1.26-1.85-1.85-2.81-.29-.48-.57-.95-.76-1.44-.18-.5-.29-.99-.3-1.48,0-.27-.36-1.07-.6-1.41-2.63-3.76-4.32-8.31-5.17-12.93-.87-4.64-1-9.37-.86-13.99,.14-3.94,.38-7.82,.99-11.68,.6-3.85,1.6-7.68,3.28-11.3,.56-4.48,3.06-9.14,5.63-12.75,4.5-6.39,9.35-12.38,14.64-17.94,5.26-5.58,10.97-10.69,17.02-15.26,3.08-2.31,6.21-4.52,9.38-6.69,3.18-2.15,6.46-4.26,9.91-6.15,3.44-1.91,7.06-3.6,10.86-4.93,.95-.33,1.91-.64,2.88-.92,.98-.26,1.97-.48,2.95-.72l1.48-.35c.5-.09,1-.16,1.5-.24l3-.45c1.37-.1,2.63-.35,3.97-.54,1.33-.15,2.74-.15,4.35,.08,1.5,.27,3.21,.45,4.99,.56,.88,.1,1.78,.21,2.68,.31,.9,.09,1.79,.21,2.64,.41,1.56,.34,3.19,.57,4.73,1.02,.78,.2,1.55,.42,2.3,.64,.75,.23,1.46,.55,2.15,.85,5.68,2.54,11.17,5.35,16.38,8.67,5.19,3.29,10.13,7.17,14.36,11.6,8.45,8.83,15.01,19.18,20.65,29.73,3.46,6.44,6.82,12.92,9.25,19.83,1,2.94,2.73,5.84,2.75,9.13,.01,.92,1.66,3.48,2.25,5.46,1.49,4.87,2.54,9.96,2.99,15.21,.31,3.64,.31,7.36-.21,11.09-.52,3.72-1.55,7.42-3.09,10.91-1.89,4.23-4.27,8.34-7.55,11.7-3.42,3.52-7.53,6.25-11.77,8.31-5.39,2.65-11.06,4.15-16.69,5.41-5.83,1.3-11.91,2.65-17.59,2.65-10.44-.04-20.76,.48-31.1-.27-10.26-.76-20.49-2.22-30.58-4.12-5.74-1.09-10.69-3.22-16.14-4.79-2.56-.77-5.18-4.23-3.88-4.73,.25-.1,.71-.14,1.14-.07,5.46,.9,10.59,.99,16.61,2.47,8.91,2.19,18.03,3.5,27.16,4.38Z"/>
        </g>
        <g class="cls-15">
          <path class="cls-12" d="M205.37,290.39c-1.25-11.27-2.39-23.25,2.81-33.43,3.82-7.48,10.64-13.07,17.27-18.44,5.14-4.17,10.29-8.33,15.43-12.5,5.33-4.31,10.77-8.7,17.21-11.24,12.21-4.82,26.77-2.19,37.6,5.05,10.84,7.24,18.2,18.57,22.37,30.6,1.76,5.09,3.01,10.57,1.81,15.81-2.09,9.15-10.95,15.32-19.74,19.38-22.71,10.49-48.51,12.64-73.68,13.62-8.11,.32-18.53-1.01-20.59-8.56"/>
          <path class="cls-12" d="M231.61,295.78c5.19-.24,10.38-.5,15.51-1.04,1.91-.19,3.91,.06,5.8-1.07,.94-.55,2.89,.31,4.65,.04,4.74-.75,9.53-1.31,14.18-2.41,4.52-1.07,8.92-2.52,13.26-4.02,4.29-1.48,8.91-2.62,12.65-4.95,1.63-.97,3.21-1.66,4.78-2.38,1.56-.72,3.1-1.46,4.44-2.54,1.41-1.14,2.77-2.34,4-3.57,1.22-1.24,2.33-2.5,3.35-3.76,1.46-1.82,2.67-3.94,2.72-6.31,.03-1.49-.52-2.84-.69-4.48-.13-1.51-.11-3.43-1.53-4.51-.11-.09-.14-.84-.1-1.24,.13-1.91-.7-4.05-1.72-5.26-.48-.6-.86-1.19-1.18-1.8-.3-.61-.59-1.21-.89-1.82-1.68-3.35-3.61-6.55-5.73-9.58-1.58-2.27-3.07-4.63-4.99-6.66-2.01-2.12-4.69-3.66-6.6-5.55-1.93-1.9-4.26-3.09-6.68-4.11-.35-.14-.69-.32-1.05-.5-.36-.16-.73-.32-1.1-.44-.73-.26-1.5-.35-2.24,.01-.14,.07-.66-.1-.88-.26-1.85-1.21-4-1.57-6.11-1.52-1.06-.03-2.11,.12-3.15,.15-1.04,.12-2.08,.12-3.13,.14-2.17-.07-4.35,.26-6.44,.86-2.11,.57-4.1,1.43-6.06,2.45-1.04,.54-2.32,.9-2.85,2.15-.19,.43-1.22,1.14-1.84,1.32-3.41,1-5.92,3.86-8.88,6.04-3.4,2.49-6.37,5.54-10.2,7.56-1.62,.86-3.65,2.25-4.69,4.39-.48,.98-2.37,1.91-3.46,2.96-.91,.86-1.51,1.99-2.4,2.79-.76,.68-1.78,1.07-2.66,1.64-.26,.17-.53,.43-.7,.68-1.68,2.43-3.58,4.43-5.27,6.56-1.71,2.11-3.16,4.42-3.86,7.11-1.4,5.35-1.78,11.2-1.59,17.23,.1,3.32,.15,6.82-1.54,9.37-.76,1.14-1.7,1.26-2.42-.14-.53-1.03-1.04-2.22-1.26-3.45-.36-1.96-.74-3.94-1.01-5.89-.52-4.03-1.44-8.27-.31-12.64,.16-.67,.21-1.42,.35-2.14,.12-.71,.37-1.38,.94-1.82,.16-.12,.36-.65,.36-.93,.12-3.02,1.21-6.03,2.82-8.69,1.62-2.66,3.65-4.97,5.63-7.18,3.35-3.76,6.36-7.65,10.42-10.35,1.38-2.51,3.91-4.32,6.2-5.75,4.03-2.52,7.75-5.42,11.42-8.43,3.69-3.01,7.53-6.2,12.07-8.6,1.14-.62,2.34-1.17,3.55-1.69,1.21-.53,2.49-.93,3.74-1.38,2.55-.75,5.15-1.31,7.77-1.59,5.24-.53,10.53-.11,15.55,1.18,1.7,.44,3.37,.3,5.16,1.46,.85,.52,1.84,1.01,2.92,1.41,1.05,.47,2.18,.88,3.17,1.44,.91,.5,1.88,.95,2.77,1.51,.45,.27,.9,.54,1.32,.84,.41,.31,.8,.63,1.16,.96,2.95,2.79,5.83,5.54,8.49,8.5,2.66,2.95,5.13,6.1,7.12,9.51,1.97,3.4,3.63,6.96,5.07,10.59,1.41,3.62,2.73,7.32,3.49,11.4,.45,2.48,.76,5.1,.48,7.82-.27,2.71-1.13,5.43-2.57,7.74-1.18,1.95-2.26,4.25-4.5,5.13-.31,.13-.67,.69-1.12,1.32-.43,.65-.94,1.36-1.47,1.82-2.59,2.3-5.51,4.06-8.43,5.65-2.04,1.1-4.13,2.05-6.19,2.92-2.06,.93-4.16,1.71-6.24,2.57-2.55,.97-4.99,2.26-7.6,3.12-1.36,.48-2.74,.88-4.13,1.24-1.39,.38-2.79,.71-4.2,.97-1.78,.35-3.57,.63-5.36,.84-1.78,.23-3.57,.46-5.35,.69-3.68,.53-7.47,1.49-11.04,1.45-6.64-.11-13.11,.82-19.64,1.07-3.24,.11-6.49,.23-9.74,.34-3.4,.09-6.83-.02-10.36-.62-2-.35-3.9-1.1-5.66-2.21-1.76-1.1-3.39-2.53-4.76-4.34-.34-.41-.51-1-.54-1.59-.02-.29,0-.59,.03-.86,.07-.29,.16-.56,.26-.81,.43-.99,1.14-1.5,1.66-1.33,.2,.07,.45,.24,.58,.43,.9,1.28,2.14,1.98,3.42,2.48,1.3,.5,2.68,.85,4.29,1.4,2.4,.79,5.13,1.14,7.89,1.2,1.4,.04,2.73,0,4.22-.07l4.42-.2Z"/>
        </g>
        <g class="cls-15">
          <path class="cls-12" d="M56.78,167.8c.61,14.5,5.02,28.83,12.72,41.31,1.29,2.1,2.7,4.17,4.58,5.82,2.68,2.35,6.13,3.69,9.57,4.81,15.83,5.18,33.49,6.7,49.16,1.1,15.67-5.6,28.75-19.27,30.21-35.28,.49-5.39-.3-10.81-1.19-16.16-1.94-11.64-5.08-24.32-15-31.24-12.83-8.95-30.64-4.3-45.62,.68-9.64,3.21-19.28,6.42-28.92,9.63-1.77,.59-3.6,1.21-4.97,2.45-1.29,1.17-2.04,2.76-2.77,4.32-2.4,5.16-4.8,10.33-7.19,15.49"/>
          <path class="cls-12" d="M72.33,145.06c4.9-1.63,9.83-3.2,14.69-4.93,1.81-.64,3.81-.84,5.42-2.34,.8-.75,2.9-.3,4.58-.91,4.5-1.64,9.25-3.04,14-4.39,4.63-1.31,9.35-2.66,14.37-3.1,4.99-.43,10.22,.36,15.2,1.36,1.08,.26,2.13,.55,3.11,.99,.96,.48,1.91,.95,2.8,1.51,.86,.6,1.71,1.21,2.56,1.81,.79,.68,1.66,1.28,2.47,1.97,1.79,1.39,3.36,3.08,4.75,4.86,1.3,1.83,2.45,3.76,3.17,5.75,1.11,2.89,1.77,5.78,2.8,8.53,.65,1.71,1.59,3.23,2,5.18,.38,1.8,.31,3.9,1.64,5.27,.11,.11,.06,.95-.02,1.38-.36,2.03,.05,4.34,.74,5.93,.67,1.55,.77,3.01,.9,4.56,.18,2.13,.24,4.32,.1,6.55-.19,2.23-.52,4.48-1.13,6.63-.91,3.23-2.43,6.2-4.08,9-1.68,2.92-3.32,6.25-5.78,8.24-2.41,2.01-4.46,4.07-6.79,5.96-1.3,1.12-3.2,1.82-3.73,3.54-.05,.16-.61,.49-.9,.57-1.23,.35-2.31,.88-3.4,1.41-.54,.28-1.06,.58-1.57,.89l-1.57,.91-1.57,.94-1.64,.84c-1.1,.57-2.25,.99-3.45,1.29-4.93,1.2-9.97,2.39-15.06,2.79-.68,.05-1.38,.02-2.07,.09-.69,.05-1.35,.17-1.97,.58-.44,.29-1.87,.35-2.56,.12-3.73-1.11-7.67-.77-11.43-1.52-4.25-.83-8.64-1.29-12.6-3.29-1.68-.86-3.93-1.73-6.44-1.59-1.16,.07-3.1-1.23-4.72-2.03-1.33-.64-2.85-1.12-4.08-2.18-1.04-.91-1.64-2.17-2.26-3.27-.18-.33-.45-.69-.71-.94-1.25-1.25-2.2-2.57-3.02-3.92-.85-1.35-1.54-2.8-2.2-4.25-1.32-2.91-2.34-5.93-3.67-8.84-2.67-5.86-4.3-12.26-5.18-18.67-.49-3.53-.53-7.27,1.34-9.73,.82-1.11,1.77-1.12,2.41,.28,.46,1.03,.94,2.19,1.16,3.37,.34,1.88,.84,3.73,1.29,5.52,.96,3.74,2.71,7.17,3.44,11.05,.23,1.22,1.17,2.4,.71,3.65-.07,.17,.05,.67,.19,.88,1.58,2.22,2.73,4.61,3.86,7.04,1.15,2.42,2.29,4.88,3.72,7.13,1.22,1.91,2.66,3.43,4.11,4.47,1.43,1.03,3.11,1.8,4.97,2.84,2.5-.11,5.27,.93,7.61,1.93,4.14,1.76,8.55,2.78,12.99,3.3,4.44,.53,8.9,.56,13.3,.38,8.95-.37,17.75-2.79,25.19-7.4,.63-.4,1.16-.87,1.69-1.37,.53-.5,1.12-.96,1.97-1.28,.78-.33,1.52-.92,2.26-1.55,.72-.66,1.38-1.43,2.08-2.07,.62-.62,1.17-1.32,1.76-1.96,.58-.66,1.1-1.34,1.74-1.88,2.54-2.31,4.47-5.25,5.76-8.4,1.32-3.16,1.97-6.51,2.31-9.85,.31-3.36,.08-6.87-.41-10.43-.5-3.57-1.17-7.21-2.04-10.66-.56-2.1-1.27-4.14-2.03-6.12-.78-1.93-1.57-3.86-2.36-5.8-.71-1.63-2.03-2.92-2.19-4.85-.02-.28-.41-.66-.92-1.02-.51-.36-1.05-.78-1.45-1.14-1.84-1.94-3.91-3.57-6.25-4.84-3.26-1.7-6.99-2.67-10.87-2.82-.59-.05-1.18-.02-1.78,.03-.6,.05-1.19,.1-1.78,.17-1.2,.22-2.37,.34-3.58,.56-2.51,.33-5.08,.83-7.65,1.25-3.26,.59-6.59,1.15-9.88,2.06-3.39,.94-6.81,2.61-10.24,3.25-6.37,1.2-12.31,3.64-18.42,5.57l-4.55,1.45c-1.53,.48-2.82,.93-3.65,1.49-.41,.28-.69,.54-1.01,.96-.31,.41-.61,.94-.91,1.56-.3,.61-.62,1.35-.94,2.08l-.94,2.19c-1.41,3.32-3.58,5.94-5.06,9.15-.69,1.49-3.91,2.44-4.41,1.47-.09-.19-.14-.51-.08-.78,.73-3.47,.94-6.87,2.69-10.43l1.9-3.96,.95-2.03c.35-.72,.74-1.49,1.26-2.29,.51-.79,1.17-1.62,1.99-2.33,.81-.71,1.68-1.24,2.51-1.66,1.69-.83,3.17-1.25,4.52-1.71Z"/>
        </g>
        <g class="cls-15">
          <path class="cls-12" d="M90.04,245.35c-1.53-11.86,4.4-24.02,14-31.62,9.6-7.59,22.44-10.85,34.86-10.26,2.39,.11,4.83,.37,7,1.33,2.29,1.01,4.15,2.74,5.89,4.49,5.16,5.19,9.72,10.93,13.58,17.07,2.62,4.16,4.99,8.89,4.25,13.7-.63,4.09-3.4,7.54-6.07,10.79-6.32,7.66-13.55,15.86-23.57,17.5-3.68,.6-7.46,.24-11.13-.4-14.7-2.57-28.48-9.78-38.7-20.26"/>
          <path class="cls-12" d="M107.77,257.1c3.01,1.68,6.13,3.19,9.39,4.31,.61,.2,1.18,.52,1.8,.74,.62,.2,1.3,.28,2.06,.05,.75-.22,1.63,1.14,2.8,1.42,1.57,.34,3.13,.72,4.72,1.02,1.58,.33,3.16,.57,4.7,.67,1.5,.08,2.97,0,4.36-.22,1.39-.22,2.69-.58,3.99-1.02,1.29-.4,2.6-.88,3.88-1.46,1.26-.63,2.48-1.39,3.44-2.45,1.63-1.8,3.85-2.67,5.43-4.57,1.66-2,3.34-4.15,5.34-5.92,1.47-1.3,2.99-2.54,3.88-4.08,.55-.97,.63-2.09,1.14-2.99,.47-.81,1.29-1.72,.4-2.65-.07-.08,.18-.37,.35-.53,.83-.74,.73-2.04,.11-2.75-.6-.69-.72-1.37-1.01-2.12-.8-2.04-2.05-4.16-3.39-6.43-1-1.71-1.78-3.56-2.88-5.23-1.15-1.74-2.89-3.17-3.73-4.97-.84-1.81-2.1-3.19-3.4-4.56-.73-.77-1.28-2.05-2.66-1.87-.13,.02-.39-.26-.46-.44-.54-1.5-1.69-2.29-2.81-2.64-1.11-.35-2.19-.28-3.43-.68-1.27-.4-2.85-.51-4.45-.51-1.58-.02-3.17,.1-4.74,.21-.83,.05-1.76-.16-2.45,.68-.24,.3-1.09,.45-1.54,.31-2.44-.75-4.76,.38-7.06,.84-2.68,.54-5,1.94-7.79,2.36-1.19,.17-2.72,.77-3.37,2.35-.31,.69-1.62,1.04-2.37,1.67-.58,.56-.94,1.36-1.51,1.86-.48,.44-1.27,.53-1.89,.85-.18,.1-.37,.26-.47,.44-1.01,1.71-2.3,3.04-3.62,4.42-1.33,1.37-2.59,2.87-3.38,4.63-.75,1.79-1.45,3.58-2.05,5.4-.55,1.83-1.05,3.68-1.33,5.56-.29,2.09-.58,4.15-2.34,5.89-.82,.79-1.75,.96-2.4-.03-.48-.72-.96-1.6-1.05-2.5-.1-.72-.21-1.45-.25-2.17-.05-.73-.14-1.46-.1-2.17,0-2.95-.15-6.17,1.42-8.94,.52-.82,.45-2.1,1.6-2.45,.16-.05,.39-.37,.41-.56,.26-2.14,1.29-4.02,2.5-5.75,1.28-1.69,2.72-3.24,4.15-4.76,2.35-2.61,4.44-5.7,7.75-7.28,1.1-1.98,3.32-3.01,5.28-3.55,3.45-1,6.76-2.06,10.14-2.95,3.37-.89,6.8-1.6,10.27-1.79,1.76-.1,3.52-.13,5.27-.12,1.77,.05,3.47,.06,5.37,.28,1.88,.22,3.94,.63,5.95,1.58,1.99,.93,3.61,2.22,4.97,3.48,.93,.86,2.08,1.16,2.69,2.47,.57,1.23,1.96,2.2,2.96,3.33,.91,1.03,2.03,1.98,2.64,3.15,1.26,2.43,2.79,4.62,4.33,6.82,1.54,2.21,3.12,4.34,4.43,6.84,1.27,2.48,2.41,5.23,2.86,8.35,.22,1.55,.24,3.19-.01,4.8-.25,1.61-.73,3.15-1.34,4.55-1.49,3.43-3.28,6.39-5.46,8.69-.94,.99-1.45,2.49-3.12,2.86-.46,.11-.76,1.59-1.34,2.29-1.47,1.72-3.14,3.31-4.9,4.85-2.45,2.13-5.2,4.07-8.25,5.65-1.83,1-3.72,2.08-5.83,2.7-2.21,.66-4.58,.84-6.76,.71-2.8-.17-5.37-.87-7.86-1.44-2.58-.58-5.4-.77-7.72-1.93-4.26-2.15-8.72-3.48-12.87-5.68-4.11-2.18-7.99-4.74-11.8-7.41-2.18-1.51-3.42-3.76-5.28-5.49-.87-.85-.19-3.72,.77-3.98,.18-.05,.44-.04,.61,.04,2.24,1.13,4.64,1.62,6.61,3.35,2.94,2.56,6.27,4.66,9.68,6.56Z"/>
        </g>
        <g class="cls-15">
          <path class="cls-12" d="M66.09,227.03c-6.13-1.72-10.8,5.19-13.13,10.9-2.85,6.97-5.64,15.11-1.78,21.62,2.8,4.72,8.81,7.28,14.42,6.69,5.62-.6,10.68-4.07,13.67-8.68,3.77-5.81,4.32-13.43,1.44-19.68-2.89-6.26-9.13-10.98-16.14-12.19"/>
          <path class="cls-12" d="M76.11,227.3c1.72,1.3,3.23,2.86,4.65,4.5,.55,.62,.63,1.53,1.87,1.75,.61,.14,.11,1.38,.48,2.01,1.06,1.76,1.61,3.78,2.14,5.73,.52,1.91,1.08,3.87,1.12,5.91,.04,2.04-.78,3.97-.77,5.96,0,1.79-1.38,2.91-1.92,4.41-.58,1.61-1.48,3.24-2.87,4.27-1,.76-2.1,1.31-2.84,2.24-.47,.57-.68,1.44-1.38,1.91-.66,.43-1.61,.5-1.65,1.76,0,.11-.41,.12-.64,.07-1.08-.2-1.93,.26-2.42,.96-.46,.7-1.09,.85-1.71,1.07-1.72,.6-3.53,.97-5.42,.94-1.41-.04-2.74-.54-4.04-.85-1.34-.33-2.94-.28-3.97-1.24-1.01-.94-2.06-1.48-3.13-2.14-.3-.2-.55-.52-.85-.72-.3-.22-.66-.32-1.25-.09-.11,.05-.32-.15-.35-.3-.32-1.24-1.08-1.85-1.92-2.57-.85-.68-1.75-1.47-2.08-2.52-.66-2.17-1.46-4.31-1.66-6.49-.08-.59,.25-1.18-.55-1.71-.28-.19-.31-.81-.08-1.09,1.13-1.51,.74-3.09,1.21-4.55,.55-1.62,.55-3.36,1.86-4.66,.55-.55,1.04-1.34,.38-2.45-.3-.52,.42-1.07,.53-1.65,.09-.47-.16-1.07,0-1.51,.16-.41,.71-.65,1.05-.97,.11-.09,.18-.24,.18-.38,0-1.37,.71-2.47,1.52-3.46,.86-.99,1.8-1.88,2.55-3,.75-1.14,1.7-2.21,2.96-3.12,1.23-.9,2.72-1.68,4.45-2.02,1.86-.43,4.13,.07,4.63,2.26,.24,.95-.12,1.84-.69,2.3-.42,.33-.8,.64-1.13,.76l-.38,.12c-.12,.06-.24,.13-.35,.2l-.33,.18-.31,.23c-.1,.07-.2,.15-.3,.23-.09,.1-.18,.21-.26,.32-.17,.2-.32,.42-.48,.65-.16,.21-.32,.4-.51,.59-.19,.17-.43,.3-.71,.42-.38,.13-.3,.78-1.15,.43-.12-.05-.28,.03-.28,.12-.04,1.09-.44,1.81-.96,2.54-.52,.71-1.14,1.42-1.51,2.25-.31,.71-.37,1.53-.45,2.31-.1,.83-.27,1.66-.78,2.35,.68,1.24,.16,2.13-.43,2.87-2.08,2.63-2.01,5.87-2.03,8.46-.01,2.7,1.09,4.99,2.86,6.67,.31,.31,.97,.04,1.08,.72,.14,.64,.87,.69,1.37,.94,.47,.24,1.06,.24,1.43,.65,.8,.88,1.9,1.24,2.99,1.32,1.11,.08,2.16-.1,3.26-.22,2.17-.24,4.4-1.09,6.08-2.63,1.05-.94,1.61-2.27,2.64-3.13,.46-.38,.34-1.18,1.49-1.08,.34,.03-.02-.86,.13-1.19,.39-.82,.84-1.63,1.17-2.49,.45-1.19,.86-2.44,.93-3.73,.04-.79-.33-1.59-.43-2.34-.12-.79-.15-1.58-.18-2.37,0-1,.11-2.07-.14-3.08-.25-1.06-1.12-1.84-1.24-2.94-.1-1.05-.62-1.94-1.25-2.71-.63-.78-1.42-1.41-2.13-2.11-1.45-1.36-3.17-2.54-5.1-3.11-1.06-.33-1.79-1.44-2.92-1.72-.48-.09-.79-2.74-.42-3.54,.08-.15,.21-.3,.32-.34,1.44-.55,3.08-1.37,4.63-.72,2.23,.99,4.42,2.09,6.38,3.56Z"/>
        </g>
        <g class="cls-15">
          <path class="cls-12" d="M21.07,217.03c-3.98,4.51-2.55,12.28,2.63,15.47s12.86,1.39,16.21-3.58c3.14-4.65,2.25-11.42-1.98-15.19-4.23-3.76-11.33-4.08-15.91-.71-1.46,1.07-2.75,2.79-2.24,4.49"/>
          <path class="cls-12" d="M21.72,209.41c1.37-.75,2.84-1.22,4.3-1.62,.56-.16,1.16,.21,1.65-.78,.26-.48,.9,.56,1.4,.5,1.4-.16,2.79,.16,4.17,.35,1.35,.18,2.8,.32,4.16,.89,1.36,.57,2.27,1.86,3.65,2.44,.63,.26,.96,.78,1.23,1.32,.29,.52,.44,1.1,.86,1.52,.82,.93,1.56,2.07,1.54,3.34,.01,.45-.04,.91-.04,1.34,.01,.43,.04,.84,.2,1.23,.22,.48,.81,.92,.81,1.51,.03,.56-.47,1.15,.61,1.66,.09,.04-.11,.29-.27,.41-.74,.56-.76,1.23-.39,1.81,.39,.57,.22,1.01,.12,1.46-.26,1.27-.75,2.53-1.49,3.64-.56,.83-1.48,1.4-2.17,2.05-.38,.32-.65,.78-.99,1.15-.34,.36-.72,.69-1.23,.76-.52,.05-.93,.19-1.31,.39-.38,.17-.74,.38-1.1,.59-.42,.24-1.11-.01-1.03,1.16,0,.11-.17,.17-.28,.13-.91-.42-1.45-.07-2.05,.32-.57,.43-1.19,.93-1.92,.87-1.47-.16-2.92,.18-4.43,.03-.41-.01-.76-.43-1.28,.28-.18,.24-.63,.2-.79-.05-.43-.69-.95-.91-1.5-1.13-.55-.22-1.16-.31-1.64-.69-1.08-.74-2.54-1.28-2.94-2.8-.12-.68-.47-1.27-1.65-1.23-.55,.01-.59-.78-.9-1.15-.27-.3-.89-.42-1.08-.79-.16-.31,.07-.8,.11-1.18,.01-.11-.03-.23-.13-.3-.43-.35-.7-.79-.87-1.25-.15-.47-.18-.98-.19-1.47,.03-1.01,.25-1.97,.1-2.94-.29-1.97,.29-4.08,1.35-5.86,.29-.49,.7-.94,1.24-1.2,.58-.24,1.33-.25,2.27,.13,.85,.34,1.52,1.01,1.77,1.61,.18,.44,.35,.86,.29,1.09-.04,.41-.04,.81-.03,1.19,.01,.39,.16,.8,.29,1.17,.09,.36,.15,.68-.15,.96-.2,.19,.33,.47-.57,.59-.12,.02-.2,.11-.14,.16,.67,.51,.78,.93,.82,1.4,0,.23-.02,.47,0,.71,0,.24,.01,.49,.13,.7,.15,.38,.59,.63,.94,.87,.38,.22,.65,.45,.68,.86,1.1-.29,1.16,.04,1.18,.54,.05,.85,.6,1.32,1.24,1.62,.67,.26,1.4,.31,2.12,.5,1.51,.36,3.17,0,4.67-.52,.28-.08,.2-.76,.69-.45,.47,.27,.64-.25,.92-.41,.24-.19,.38-.53,.75-.51,.4,.02,.77-.04,1.03-.21,.14-.08,.27-.17,.39-.27,.1-.11,.2-.23,.29-.36,.38-.49,.53-1.12,.84-1.65,.57-1.09,.91-2.45,.55-3.73-.21-.8-.95-1.39-.95-2.14-.02-.34-.65-.41,.13-1.11,.22-.21-.6-.16-.73-.3-.31-.39-.53-.83-.85-1.19-.41-.52-.87-1.01-1.48-1.31-.37-.19-.95,0-1.33-.1-.22-.03-.42-.09-.61-.18-.2-.07-.4-.15-.58-.28-.24-.14-.49-.31-.74-.5-.26-.15-.53-.34-.82-.41-.62-.16-1.25,.27-1.85-.14-1.21-.79-2.33-.07-3.34,.29-.52,.18-1.02,.42-1.47,.72-.41,.27-.71,.63-.84,.97-.07,.19-.28,.2-.5,.22-.22,.02-.45,.06-.44,.12,0,.01-.16,.02-.4,.07-.25,.05-.58,.14-.93,.27-.7,.24-1.48,.64-1.92,.65-.17,0-.36-.04-.44-.12-.52-.49-1.05-1.2-1.29-2.01-.24-.8-.2-1.68,.24-2.33,1.28-1.87,2.8-3.02,4.31-3.87Z"/>
        </g>
        <g>
          <path class="cls-10" d="M114.02,99.74c-4.12-28.77,14.33-57.18,38.93-72.65,24.6-15.47,54.29-20.35,83.22-23.07,35.51-3.35,73.28-3.5,104.41,13.93,20.55,11.5,37.7,32.78,36.34,56.29-1.14,19.75-14.57,36.33-27.37,51.41-8,9.42-16.12,18.95-26.24,26.04-9.13,6.39-19.62,10.59-30.29,13.8-39.69,11.96-83.25,10.67-122.16-3.63-15.64-5.75-30.85-13.77-42.11-26.06-11.26-12.29-18.14-29.35-15.34-45.79"/>
          <path class="cls-10" d="M140.25,144.03c8.97,6.79,19.22,11.86,29.84,15.8,1.97,.76,3.99,1.44,6.02,2.16,1.02,.34,2.04,.71,3.1,.98,1.06,.27,2.12,.51,3.21,.72,1.08,.19,2.55,.75,4.24,1.31,1.7,.54,3.6,1.16,5.5,1.63,10.29,2.43,20.81,4.14,31.38,4.85,10.28,.69,20.57,.42,30.8-.53,10.14-.93,20.59-2.45,30.04-5.15,4.07-1.23,7.99-2.21,11.79-3.4,3.8-1.18,7.53-2.46,11.21-4.12,3.91-1.75,7.75-3.77,11.4-6.03,3.65-2.27,7.07-4.82,10.28-7.5,4.69-3.91,9.01-8.23,12.99-12.9,2.49-2.92,4.61-5.85,7.34-9.04,2.52-2.96,5.53-6.21,7.16-9.2,.15-.25,1.28-1.55,1.86-2.22,2.81-3.1,5.69-7.32,7.25-10.4,1.51-3.01,2.97-5.58,4.21-8.41,3.47-7.72,5.44-16.14,4.7-24.46-.46-6.23-2.09-12.38-4.86-18.11-2.94-5.96-7.44-11.54-11.52-16.14-4.12-4.65-8.78-8.43-13.88-11.76-1.44-.97-3.05-1.93-4.6-2.85-1.61-.83-3.18-1.56-4.57-1.97-.26-.07-1.4-.7-1.94-.95-4.36-2.37-8.97-4.19-13.73-5.52l-3.57-1.01c-1.21-.28-2.42-.56-3.63-.84-1.22-.27-2.42-.6-3.64-.84-1.23-.24-2.46-.5-3.69-.77-10.16-2.21-20.9-2.96-31.48-3.1-2.82-.07-5.85-.19-8.45,.24-.91,.13-3.88,.24-5.32,.2-7.85-.27-16.11,.66-24.13,1.34-9.17,.79-18.28,2.1-27.45,3.29-3.88,.5-9.16,1.44-13.59,3.04-2.03,.72-6.42,1.61-9.61,2.66-1.32,.4-2.58,.88-3.84,1.38-1.26,.48-2.51,.95-3.78,1.43-2.15,.82-4.41,1.41-6.59,2.28-.65,.25-1.44,.58-2.06,.87-5.95,2.96-11.8,6.06-17.29,9.69-5.49,3.63-10.65,7.85-15.14,12.75-4.51,4.93-8.54,10.35-11.85,16.18-3.32,5.83-5.86,12.1-7.4,18.58-.44,1.78-.7,3.61-1.08,5.39-.23,1.81-.46,3.58-.68,5.28-.12,1.71-.2,3.36-.36,4.9-.11,1.54-.09,2.97-.24,4.26-.22,2.32-.69,2.44-1.27-.76-.1-.59-.21-1.2-.32-1.83-.05-.31-.11-.63-.16-.96-.04-.32-.05-.65-.07-.98-.08-1.32-.15-2.7-.17-4.07,0-1.1,.13-2.19,.18-3.28,.1-1.09,.09-2.19,.28-3.27,.17-1.08,.33-2.15,.5-3.22,.09-.53,.16-1.07,.26-1.6,.13-.52,.25-1.04,.38-1.56l.78-3.24c.28-1.07,.66-2.12,.99-3.18,.36-1.05,.62-2.15,1.07-3.17,.42-1.03,.84-2.07,1.26-3.11,.4-1.05,.91-2.05,1.42-3.06,.51-1,1.03-2.01,1.54-3.02,.57-.98,1.18-1.94,1.78-2.92,.61-.97,1.2-1.96,1.92-2.86,.86-1.15,1.72-2.45,2.59-3.67,.94-1.16,1.87-2.26,2.78-3.04,.26-.21,1-1.12,1.37-1.54,7.52-9.7,18.22-17.31,29.27-22.9,9.4-4.82,18.93-8.82,29.32-11.27,5.52-2.01,12.32-3.34,18.16-4.17,10.32-1.44,20.65-2.58,31-3.49,10.35-.91,20.75-1.61,31.17-1.51,10.56,.1,21.17,.82,31.65,2.59,10.48,1.72,20.81,4.71,30.55,9.06,.83,.37,1.64,.71,2.45,1.04,.8,.35,1.57,.74,2.37,1.12,.8,.39,1.61,.79,2.45,1.23,.85,.44,1.72,.92,2.6,1.54,3.4,2.14,7.75,5.01,11.38,7.98,3.36,2.68,6.61,5.84,9.23,8.94,1.3,1.65,2.64,3.28,3.81,5.03,1.26,1.69,2.32,3.52,3.45,5.3,.54,.91,1.01,1.86,1.52,2.78l.75,1.4,.66,1.45c.43,.97,.89,1.92,1.29,2.9l1.09,2.99c1.3,4.03,2.34,8.21,2.58,12.48l.14,1.6v1.6c-.02,1.07,0,2.14-.06,3.2l-.31,3.18c-.13,1.06-.35,2.1-.53,3.15-.83,4.15-2.14,8.18-3.8,12.03-1.65,3.87-3.71,7.52-5.9,11.06-4.41,7.08-9.61,13.54-14.81,19.87-6.39,7.65-12.53,15.6-20.2,22.44-3.24,2.9-6.73,6.03-10.65,7.99-1.09,.56-4.38,3.03-6.89,4.33-6.19,3.28-12.75,5.78-19.37,7.88-9.21,2.84-18.62,5.05-28.12,6.58-1.45,.24-2.89,.47-4.34,.71-1.44,.24-2.9,.39-4.34,.59l-4.35,.56c-1.46,.12-2.92,.25-4.38,.37-6.13,.51-12.35,.54-18.5,.39-7.8-.34-15.52-1.15-23.22-2.32-7.97-1.25-16.27-2.78-23.66-5.03l-5.12-1.67c-.85-.28-1.71-.53-2.56-.83l-2.53-.91-5.06-1.81c-1.68-.63-3.35-1.29-5.01-1.96-6.63-2.73-13.15-5.81-19.26-9.66-6.07-3.8-11.79-8.26-16.77-13.48-5.03-5.19-9.19-11.21-12.3-17.73-3.51-7.44-4.92-15.01-4.92-23.02-.03-.94,.12-1.95,.31-2.92,.09-.48,.2-.95,.31-1.39,.14-.44,.28-.84,.43-1.21,.57-1.46,1.1-2.22,1.21-1.45,.04,.29,.05,.89,0,1.48-.28,3.77-.02,7.39,.61,11.05,.63,3.66,1.63,7.38,3.06,11.4,2.13,5.93,5.25,11.52,9.15,16.5,1.92,2.51,4.09,4.84,6.37,7.04,2.28,2.21,4.71,4.27,7.25,6.19Z"/>
        </g>
        <g>
          <path class="cls-13" d="M254.5,240.13c-17.73-3.6-31.67-19.18-35.95-36.76-4.29-17.58,.14-36.52,9.34-52.1,9.2-15.58,22.84-28.1,37.53-38.66,7.32-5.26,15.08-10.15,23.73-12.71,21.2-6.27,44.71,2.82,60.58,18.21,15.87,15.39,25.31,36.18,32.71,57.01,5.55,15.63,10.04,33.48,2.58,48.3-8.77,17.43-30.46,23.66-49.91,25.24-27.17,2.21-54.79-1.14-80.64-9.78"/>
          <path class="cls-13" d="M300.08,246.83c8.21,.75,16.47,1.05,24.7,.77,1.53-.05,3.08-.11,4.65-.16,1.56-.09,3.14-.27,4.71-.6,1.56-.34,4.53-.07,7.33-.48,3.77-.57,7.53-1.24,11.22-2.2,3.68-.97,7.29-2.16,10.75-3.68,3.33-1.53,6.49-3.37,9.38-5.54,2.89-2.17,5.38-4.78,7.5-7.63,2.12-2.82,3.8-6.03,4.91-9.41,1.12-3.38,1.65-6.94,1.65-10.38,.03-2.98-.13-5.84-.4-8.67-.24-2.83-.75-5.63-1.43-8.47-1.53-6.01-3.66-12.11-5.6-17.96-1.41-4.26-2.86-8.47-4.68-12.53-1.15-2.53-2.46-4.78-3.74-7.52-1.2-2.53-2.45-5.47-4.09-7.35-.14-.16-.67-1.29-.91-1.88-.56-1.41-1.4-2.87-2.21-4.26-.84-1.38-1.76-2.63-2.54-3.62-1.58-1.89-2.79-3.67-4.19-5.45-3.81-4.92-8.06-9.53-12.75-13.52-3.5-3.03-7.19-5.83-11.23-8.13-4.2-2.43-9.05-4.23-13.22-5.77-4.2-1.6-8.46-2.37-12.82-2.68-.62-.05-1.27-.11-1.92-.17-.65,0-1.31-.02-1.96-.03-.65,0-1.28,.02-1.88,.07-.59,.1-1.15,.23-1.65,.41-.19,.07-1.11,.13-1.53,.12-.89-.06-1.76,.09-2.64,.17-.87,.12-1.76,.16-2.61,.4-1.71,.42-3.41,.83-5.05,1.48-3.29,1.25-6.43,2.9-9.64,4.57-3.31,1.72-6.52,3.78-9.66,5.99-3.14,2.22-6.23,4.55-9.23,6.94-1.6,1.27-3.4,2.53-4.57,4.06-.42,.52-2.02,1.94-2.86,2.56-4.59,3.35-8.56,7.84-12.38,12.15-4.35,4.96-7.97,10.48-11.51,16.07-1.48,2.37-3.3,5.79-4.03,9.11-.37,1.5-1.64,4.44-2.28,6.76-.48,1.91-.75,3.8-1.12,5.7-.19,.8-.37,1.61-.56,2.42-.19,.81-.44,1.62-.56,2.44-.09,.49-.16,1.1-.19,1.59-.23,4.76-.3,9.47,.2,14.17,.5,4.69,1.53,9.35,3.46,13.7,1.93,4.37,4.43,8.51,7.44,12.25,3,3.74,6.54,7.07,10.51,9.71,1.11,.71,2.2,1.46,3.35,2.07,.57,.32,1.13,.64,1.68,.96,.57,.29,1.13,.57,1.68,.84,2.2,1.12,4.28,2.04,5.95,2.92,1.5,.83,1.46,1.3-.91,1.01-.43-.06-.88-.12-1.35-.18-.46-.07-.92-.2-1.39-.31-.93-.26-1.93-.44-2.85-.85-3.02-1.09-5.86-2.62-8.52-4.25-2.69-1.82-5.32-3.75-7.68-6.05-2.33-2.3-4.55-4.82-6.29-7.74-.59-.88-1.18-1.85-1.74-2.79-.58-.93-1.02-1.89-1.21-2.77-.06-.24-.41-1.02-.63-1.37-2.23-3.89-3.75-8.32-4.59-12.85-.85-4.54-1.08-9.18-.95-13.73,.24-7.73,1.23-15.33,4.13-22.64,.94-4.24,3.16-8.88,5.44-12.59,7.99-13.13,18.44-24.56,30.28-34.04,6.04-4.77,12.18-9.34,18.87-13.34,3.35-1.97,6.84-3.77,10.53-5.17,1.84-.69,3.71-1.34,5.65-1.77,.96-.22,1.91-.51,2.89-.68l2.93-.47c2.66-.32,4.98-.82,8.13-.53,.37,.02,.75,.04,1.14,.07,.39,.04,.79,.08,1.21,.13,.82,.08,1.68,.14,2.55,.2,.87,.06,1.75,.22,2.63,.32,.87,.14,1.76,.2,2.59,.4,3.07,.63,6.3,1.36,9.04,2.49,5.68,2.28,11.12,5.1,16.23,8.47,5.1,3.36,9.85,7.32,14,11.77,8.28,8.87,14.71,19.27,20.08,29.95,3.3,6.52,6.32,13.15,8.79,20.08,1.04,2.95,2.44,5.96,2.92,9.08,.15,.88,1.41,3.56,1.97,5.52,1.42,4.85,2.51,9.85,3.07,14.95,.71,7.07,.33,14.48-2.24,21.34-1.52,4.17-3.72,8.11-6.64,11.5-3.06,3.55-6.82,6.48-10.82,8.76-5.1,2.88-10.56,4.78-16.09,6.25-5.73,1.55-11.8,2.73-17.43,3.05-5.23,.26-10.41,.5-15.61,.55-5.19,.06-10.39,.01-15.57-.36-10.3-.68-20.57-2.15-30.66-4.22-5.73-1.19-10.79-2.94-16.25-4.59-2.55-.8-5.56-3.1-4.38-3.17,.22-.01,.66,.04,1.09,.14,5.39,1.36,10.44,2.13,16.57,3.64,9.06,2.23,18.33,3.65,27.63,4.55Z"/>
        </g>
        <g>
          <path class="cls-9" d="M209.76,275.91c-1.24-11.64-2.37-24,2.79-34.51,3.79-7.72,10.56-13.5,17.14-19.04,5.1-4.3,10.21-8.6,15.31-12.9,5.29-4.45,10.68-8.98,17.08-11.61,12.11-4.98,26.56-2.26,37.31,5.21,10.75,7.47,18.06,19.17,22.2,31.59,1.75,5.26,2.99,10.91,1.8,16.32-2.07,9.45-10.87,15.82-19.58,20.01-22.53,10.83-48.14,13.05-73.12,14.06-8.05,.33-18.39-1.05-20.43-8.84"/>
          <path class="cls-9" d="M236.11,283.18c5.25-.25,10.49-.56,15.7-1.09,1.94-.18,3.94-.18,5.91-.86,.98-.32,2.9-.05,4.69-.29,4.82-.73,9.65-1.47,14.39-2.56,4.6-1.09,9.09-2.51,13.54-4.03,4.39-1.54,8.95-3.14,12.87-5.3,3.33-1.9,6.52-3.28,9.32-5.58,2.97-2.42,5.53-5.34,7.38-8.41,1.3-2.25,2.23-4.75,2.27-7.4,.02-1.65-.32-3.18-.58-4.97-.22-1.66-.46-3.64-1.4-4.94-.07-.11-.2-.88-.25-1.28-.22-1.9-1.06-4.09-1.86-5.46-.8-1.34-1.3-2.59-1.93-3.87-1.68-3.53-3.69-6.9-5.91-10.09-1.67-2.38-3.38-4.73-5.4-6.84-2.11-2.2-4.75-4.07-6.91-5.84-2.16-1.8-4.57-3.07-7.11-4.14-1.43-.62-3.1-1.46-4.49-1.3-.13,.02-.68-.17-.93-.28-2.05-.9-4.27-1.28-6.47-1.38-2.21-.06-4.41,.03-6.63,.17-4.61,.19-9.15,1.68-13.21,4.01-1.09,.6-2.32,1.19-3.07,2.16-.27,.34-1.34,1.1-1.92,1.41-3.17,1.64-5.87,4.36-8.77,6.69-3.31,2.66-6.41,5.59-9.95,8.04-1.5,1.03-3.45,2.55-4.79,4.34-.61,.82-2.34,1.98-3.47,3.03-.92,.87-1.68,1.85-2.57,2.7-.77,.72-1.67,1.3-2.48,2-.24,.21-.52,.48-.71,.73-1.87,2.37-3.77,4.61-5.41,7.04-1.63,2.42-2.94,5.06-3.7,7.93-1.52,5.77-1.74,11.98-1.48,18.17,.15,3.42,.35,6.97-.37,9.42-.33,1.1-.8,1.16-1.23-.28-.32-1.06-.64-2.28-.8-3.52-.26-1.98-.54-3.96-.72-5.91-.36-4.04-.84-8.16-.04-12.43,.23-1.31,.27-2.92,.93-3.91,.09-.14,.26-.66,.29-.92,.35-2.86,1.33-5.71,2.74-8.35,1.4-2.64,3.25-5,5.1-7.23,3.19-3.78,6.41-7.34,10.28-10.32,1.69-2.14,4.15-4.08,6.32-5.7,3.82-2.84,7.49-5.88,11.13-8.96,3.64-3.08,7.36-6.26,11.65-8.77,4.32-2.56,9.26-4.38,14.3-4.99,2.52-.32,5.07-.42,7.59-.23,2.52,.16,5.03,.55,7.47,1.18,.84,.19,1.62,.34,2.44,.55,.41,.1,.82,.21,1.25,.35,.42,.16,.85,.35,1.3,.58,1.7,.84,3.98,1.71,5.92,2.75,1.75,.98,3.63,2,5.07,3.25,5.99,5.04,11.34,10.89,15.25,17.64,1.94,3.34,3.58,6.85,4.98,10.44,1.38,3.59,2.64,7.24,3.39,11.11,.44,2.36,.73,4.8,.56,7.29-.14,2.49-.81,5-1.93,7.26-.94,1.91-1.96,4.01-3.7,5.27-.47,.36-1.5,2.06-2.48,3-2.41,2.3-5.14,4.2-7.95,5.86-1.95,1.15-3.98,2.19-6.02,3.1l-3.05,1.39-3.09,1.28c-1.25,.54-2.51,1.04-3.76,1.55-1.25,.52-2.51,1.03-3.81,1.44-2.69,.93-5.47,1.68-8.24,2.34-3.52,.8-7.05,1.39-10.6,1.95-3.66,.63-7.47,1.39-11.02,1.6-6.6,.37-13.12,1.11-19.68,1.44-3.26,.14-6.52,.28-9.78,.42-3.34,.1-6.71-.02-10.08-.68-1.91-.38-3.72-1.03-5.37-2.02-1.65-.98-3.17-2.27-4.35-3.93-.31-.37-.48-.87-.59-1.36-.06-.24-.11-.48-.12-.71,0-.24,.02-.47,.05-.67,.11-.82,.4-1.26,.72-1.01,.12,.1,.29,.32,.4,.55,.74,1.49,1.87,2.58,3.18,3.4,1.32,.83,2.84,1.43,4.6,2.03,2.62,.86,5.49,1.21,8.37,1.29,2.85,.07,5.86-.17,8.83-.28Z"/>
        </g>
        <g>
          <path class="cls-9" d="M62.3,149.34c.6,14.97,4.98,29.76,12.62,42.65,1.29,2.17,2.68,4.31,4.54,6.01,2.66,2.43,6.09,3.81,9.49,4.97,15.7,5.35,33.24,6.92,48.79,1.13s28.53-19.89,29.98-36.42c.49-5.57-.3-11.16-1.18-16.68-1.92-12.01-5.04-25.11-14.88-32.26-12.73-9.24-30.41-4.44-45.27,.71-9.57,3.31-19.13,6.63-28.7,9.94-1.76,.61-3.58,1.25-4.93,2.53-1.28,1.2-2.03,2.85-2.74,4.46-2.38,5.33-4.76,10.66-7.14,15.99"/>
          <path class="cls-9" d="M77.99,127.58c4.93-1.71,9.88-3.39,14.79-5.14,1.83-.65,3.78-1.09,5.54-2.19,.88-.55,2.83-.64,4.52-1.25,4.56-1.66,9.27-3.19,14.02-4.51,4.62-1.3,9.35-2.43,14.26-2.78,2.43-.21,4.94-.06,7.41,.2,2.47,.35,4.91,.82,7.22,1.55,.5,.15,1,.32,1.49,.48,.49,.17,.93,.43,1.39,.64,.45,.23,.9,.46,1.34,.69,.45,.23,.84,.55,1.25,.82,.81,.57,1.64,1.1,2.38,1.76l1.14,.95c.36,.34,.73,.68,1.1,1.02,3.17,2.87,5.56,6.67,7.08,10.42,1.09,2.76,1.83,5.55,2.7,8.3,.54,1.72,1.19,3.29,1.59,5.21,.35,1.78,.5,3.83,1.28,5.29,.07,.12,.1,.94,.1,1.35-.03,1.97,.34,4.31,.78,5.91,.43,1.56,.54,2.99,.64,4.5,.15,2.07,.18,4.18,.04,6.29-.19,2.11-.47,4.24-1.01,6.29-.8,3.08-2.03,5.99-3.52,8.75-1.51,2.88-3.21,5.98-5.35,8.13l-.77,.82-.79,.78c-.51,.53-1.03,1.05-1.53,1.57-1.08,.97-2.07,2.04-3.21,2.96-1.25,1.12-2.95,2.06-3.74,3.32-.07,.13-.6,.47-.86,.59-1.11,.49-2.11,1.12-3.16,1.66-1.03,.57-2.03,1.21-3.08,1.75l-1.56,.87-1.62,.77c-1.08,.53-2.21,.94-3.37,1.28-2.38,.72-4.83,1.29-7.29,1.83-2.47,.45-4.97,.87-7.47,1.04-.67,.04-1.36,.08-2.03,.11-.68,.03-1.34,.1-1.95,.31-.22,.07-.68,.12-1.17,.14-.49,0-1.01-.03-1.35-.09-3.68-.59-7.57-.6-11.3-1.29-4.22-.78-8.5-1.52-12.52-3.19-1.69-.73-4-1.53-6.28-1.94-1.05-.17-2.97-1.3-4.42-2.19-1.19-.71-2.45-1.41-3.46-2.43-.85-.87-1.44-1.92-2.03-2.92-.18-.3-.41-.64-.62-.91-3.9-5.11-5.99-11.07-8.34-16.92-2.37-5.9-3.96-12.19-4.84-18.52-.49-3.48-.67-7.14,.22-9.55,.38-1.08,.85-1.1,1.22,.35,.25,1.06,.54,2.26,.7,3.47,.26,1.93,.62,3.85,1,5.7,.78,3.86,2.07,7.55,3,11.5,.31,1.23,.98,2.56,.93,3.68,0,.16,.13,.66,.24,.88,2.44,4.86,4.38,10.13,7.2,14.87,1.19,2.03,2.52,3.86,4.04,5.31,1.5,1.44,3.28,2.51,5.27,3.57,2.42,.56,5.28,1.55,7.74,2.49,8.68,3.18,18.07,4.25,27.2,3.79,9.27-.46,18.48-3.02,26.19-8.08,1.34-.83,2.22-1.9,3.83-2.81,.72-.47,1.49-1.1,2.26-1.78,.72-.73,1.47-1.48,2.18-2.19,.61-.69,1.23-1.39,1.84-2.09,.58-.72,1.14-1.44,1.74-2.07,2.38-2.7,4.26-5.85,5.59-9.21,1.34-3.36,2.09-6.92,2.41-10.5,.29-3.57,.05-7.23-.42-10.89-.49-3.66-1.11-7.35-1.9-10.93-.99-4.38-2.4-8.58-4.05-12.65-.32-.89-.83-1.7-1.25-2.56-.47-.83-.85-1.69-1.14-2.59-.08-.26-.44-.7-.86-1.19-.44-.48-.97-.98-1.33-1.45-1.86-2.25-4.03-4.23-6.56-5.67-3.44-2.11-7.47-3.19-11.57-3.49-2.51-.22-5.02,.11-7.54,.37-2.64,.31-5.31,.78-7.96,1.3-3.36,.7-6.71,1.47-10.04,2.49-3.44,1.05-6.95,2.55-10.32,3.46-6.28,1.71-12.32,4.04-18.45,6.11l-4.57,1.55c-1.51,.51-2.91,1.02-3.94,1.8-1,.74-1.71,1.9-2.35,3.29-.64,1.4-1.28,2.93-1.91,4.39-1.43,3.36-3.18,6.21-4.63,9.47-.68,1.52-2.74,3.05-2.86,2.25-.02-.15,.01-.44,.09-.7,1.06-3.35,1.8-6.53,3.47-10.17l1.83-4.04c.62-1.33,1.15-2.71,2-4.17,.42-.72,.94-1.44,1.59-2.08,.65-.65,1.39-1.17,2.14-1.58,1.51-.82,2.99-1.27,4.36-1.76Z"/>
        </g>
        <g>
          <path class="cls-13" d="M95.3,229.42c-1.52-12.24,4.36-24.8,13.89-32.64,9.53-7.84,22.27-11.2,34.6-10.59,2.37,.12,4.79,.38,6.95,1.38,2.27,1.05,4.12,2.83,5.84,4.64,5.12,5.36,9.64,11.29,13.48,17.63,2.6,4.3,4.95,9.18,4.22,14.15-.62,4.23-3.37,7.79-6.03,11.14-6.27,7.91-13.45,16.37-23.39,18.07-3.65,.62-7.4,.25-11.05-.41-14.59-2.65-28.26-10.1-38.4-20.91"/>
          <path class="cls-13" d="M112.18,243.07c3.08,1.78,6.29,3.36,9.62,4.6,.62,.22,1.23,.51,1.87,.74,.64,.21,1.31,.37,2.03,.37,.71,.02,1.78,.86,2.97,1.19,1.61,.39,3.23,.78,4.86,1.09,1.63,.34,3.26,.58,4.88,.7,1.57,.11,3.13,.07,4.64-.13,.76-.1,1.5-.23,2.22-.44,.36-.1,.73-.17,1.09-.28l1.07-.36c2.82-.96,5.69-2.43,7.88-4.49,1.86-1.79,3.85-3.14,5.52-5.08,1.75-2.06,3.49-4.27,5.33-6.25,1.34-1.45,2.7-2.84,3.67-4.45,.6-1.01,.91-2.06,1.44-3.12,.49-.98,1.1-2.13,.73-3.12-.03-.08,.15-.52,.23-.74,.49-1.08,.37-2.57-.06-3.49-.41-.9-.62-1.72-.93-2.58-.88-2.37-2.19-4.68-3.59-7.02-1.04-1.76-1.99-3.57-3.13-5.28-1.19-1.78-2.76-3.45-3.8-5.15-1.04-1.71-2.29-3.15-3.6-4.59-.74-.81-1.46-1.94-2.47-2.2-.09-.03-.37-.32-.47-.48-.83-1.32-2-2.27-3.25-2.86-1.24-.6-2.55-.82-3.97-1.16-1.46-.35-3.11-.44-4.76-.46-1.65-.03-3.3,.06-4.94,.17-.87,.07-1.82,0-2.58,.47-.26,.18-1.16,.31-1.62,.27-2.47-.17-4.92,.69-7.31,1.31-2.75,.72-5.28,1.98-7.99,2.91-.57,.2-1.23,.49-1.88,.86-.64,.38-1.24,.9-1.72,1.48-.42,.56-1.69,1.12-2.47,1.8-.64,.56-1.15,1.22-1.75,1.78-.52,.46-1.2,.77-1.77,1.22-.17,.13-.36,.31-.49,.48-1.23,1.65-2.58,3.14-3.83,4.75-1.28,1.58-2.44,3.29-3.3,5.16-.87,1.88-1.55,3.84-2.17,5.81-.57,1.99-1,4.01-1.26,6.06-.24,2.26-.36,4.56-1.14,6.25-.38,.76-.84,.85-1.21-.16-.27-.74-.56-1.61-.59-2.49-.13-1.41-.15-2.83-.1-4.22,.13-2.86,.34-5.83,1.59-8.59,.38-.85,.57-1.96,1.26-2.5,.1-.07,.29-.4,.34-.58,1.06-3.91,3.73-7.26,6.39-10.27,2.24-2.59,4.47-5.25,7.51-7.04,.63-.79,1.49-1.41,2.37-1.99,.91-.54,1.86-1.01,2.77-1.37,6.37-2.56,12.93-4.67,19.75-5.17,3.46-.24,6.85-.27,10.39,.1,1.78,.21,3.65,.62,5.42,1.49,1.75,.86,3.21,2.06,4.48,3.28,.87,.84,1.78,1.36,2.53,2.51,.7,1.08,1.93,2.19,2.9,3.32,.88,1.04,1.88,2.07,2.57,3.16,2.83,4.53,6.11,8.7,8.66,13.5,1.23,2.41,2.3,5.01,2.74,7.84,.22,1.41,.27,2.88,.1,4.33-.16,1.46-.58,2.87-1.1,4.19-1.31,3.22-3.19,6.02-5.26,8.46-.89,1.04-1.58,2.36-2.84,3.09-.35,.21-.89,1.44-1.47,2.13-1.43,1.7-3,3.33-4.65,4.88-2.31,2.15-4.87,4.09-7.7,5.69-1.74,.94-3.5,1.9-5.46,2.49-1.03,.26-2.08,.53-3.14,.65-1.06,.13-2.13,.18-3.17,.16-2.66-.05-5.19-.57-7.65-1.08-2.55-.55-5.27-.94-7.6-1.9-4.32-1.73-8.65-3.32-12.73-5.51-4.05-2.17-7.87-4.75-11.51-7.53-2.08-1.58-3.55-3.5-5.35-5.27-.84-.85-1.02-2.85-.37-2.8,.12,0,.32,.08,.47,.2,1.96,1.47,3.97,2.52,6.01,4.32,3.03,2.66,6.4,4.93,9.88,6.95Z"/>
        </g>
        <g>
          <path class="cls-10" d="M68.56,212.56c-6.08-1.78-10.71,5.36-13.03,11.26-2.83,7.2-5.59,15.6-1.76,22.32,2.78,4.87,8.74,7.52,14.31,6.9,5.57-.62,10.6-4.2,13.56-8.96,3.74-6,4.29-13.86,1.42-20.32-2.86-6.46-9.06-11.33-16.02-12.59"/>
          <path class="cls-10" d="M77.71,214.35c1.6,1.28,3.02,2.78,4.29,4.4,.49,.6,.71,1.37,1.53,1.81,.39,.24,.32,1.14,.62,1.77,.91,1.7,1.45,3.57,1.88,5.43,.42,1.81,.77,3.67,.76,5.56,0,1.88-.54,3.74-.74,5.54-.17,1.59-1.1,2.77-1.64,4.15-.59,1.47-1.42,2.95-2.55,4.05-.82,.8-1.71,1.48-2.45,2.32-.47,.51-.79,1.15-1.42,1.61-.59,.42-1.37,.68-1.63,1.47-.02,.07-.35,.16-.53,.17-.85,.09-1.67,.53-2.18,1-.5,.47-1.05,.64-1.62,.84-1.57,.54-3.23,.88-4.93,.89-1.27,0-2.5-.3-3.7-.57-1.25-.26-2.65-.46-3.65-1.16-1-.69-1.97-1.23-2.93-1.88-.55-.37-.97-1.05-1.75-1-.07,0-.25-.18-.31-.29-.46-.9-1.08-1.58-1.75-2.28-.33-.35-.64-.73-.94-1.12-.26-.4-.51-.83-.68-1.29-.66-1.9-1.23-3.87-1.37-5.85-.07-.53,.12-1.08-.28-1.57-.15-.17-.14-.73-.02-.99,.59-1.41,.5-2.9,.87-4.3,.42-1.57,.63-3.2,1.51-4.6,.37-.59,.76-1.42,.56-2.35-.09-.43,.4-1.07,.55-1.63,.13-.46,.08-.96,.24-1.4,.15-.38,.5-.7,.74-1.04,.07-.1,.14-.24,.16-.37,.47-2.43,2.29-4.2,3.68-6.22,.7-1.03,1.57-2.01,2.64-2.84,1.04-.84,2.31-1.56,3.74-1.9,1.56-.42,3.41-.14,4.07,1.09,.31,.52,.12,.96-.43,1.13-.2,.06-.41,.12-.61,.16-.2,.04-.4,.12-.6,.13-.15,.02-.31,.03-.46,.05l-.44,.14c-.14,.05-.29,.08-.43,.13l-.4,.19c-1.13,.53-1.85,1.58-2.97,2.32-.37,.22-.5,.77-1.06,.75-.08,0-.22,.11-.26,.19-.65,1.85-2.01,3.27-2.84,5.08-.34,.76-.53,1.57-.74,2.37-.21,.83-.44,1.65-.85,2.42,.18,1.07-.27,2.08-.71,2.92-1.54,3-1.92,6.37-1.87,9.45,.04,3.14,1.22,6.13,3.33,8.25,.36,.38,.89,.42,1.21,.98,.16,.25,.43,.46,.71,.64,.3,.16,.62,.32,.92,.47,.54,.29,1.17,.45,1.66,.78,1.03,.69,2.26,1.04,3.49,1.16,1.25,.11,2.47,0,3.7-.19,2.44-.37,4.84-1.42,6.77-3.03,1.19-.99,2.06-2.26,3.1-3.36,.46-.48,.61-1.19,1.38-1.46,.24-.07,.21-.81,.4-1.18,.47-.93,.93-1.87,1.28-2.86,.49-1.37,.88-2.79,1.02-4.24,.07-.89-.07-1.78-.12-2.65-.06-.92-.1-1.84-.19-2.75-.08-1.16-.17-2.33-.49-3.47-.31-1.19-1.05-2.23-1.41-3.35-.68-2.13-2.29-3.77-3.87-5.27-1.59-1.51-3.45-2.77-5.49-3.57-1.14-.45-2.09-1.2-3.29-1.51-.54-.11-1.09-1.52-.78-1.9,.06-.07,.18-.13,.29-.14,1.36-.15,2.77-.37,4.24,.24,2.13,.93,4.18,2.06,6,3.51Z"/>
        </g>
        <g>
          <path class="cls-10" d="M23.88,202.24c-3.95,4.66-2.53,12.68,2.61,15.97,5.15,3.29,12.77,1.43,16.09-3.69,3.11-4.8,2.24-11.79-1.96-15.68-4.2-3.89-11.24-4.21-15.78-.74-1.45,1.11-2.73,2.88-2.23,4.64"/>
          <path class="cls-10" d="M25.24,195.91c1.22-.7,2.55-1.18,3.89-1.51,.51-.13,1.05,.02,1.53-.5,.25-.24,.8,.24,1.27,.22,1.29-.1,2.57,.15,3.84,.39,1.23,.24,2.5,.53,3.66,1.12,1.16,.59,2.07,1.59,3.11,2.31,.95,.63,1.18,1.7,1.79,2.51,.63,.88,1.18,1.91,1.29,2.98,.09,.78,.08,1.54,.28,2.26,.15,.45,.44,.86,.47,1.38,.02,.49-.23,1.02,.31,1.46,.05,.04-.07,.25-.15,.36-.38,.51-.42,1.12-.27,1.59,.17,.47,.05,.84-.05,1.24-.23,1.09-.65,2.16-1.23,3.14-.44,.73-1.1,1.31-1.66,1.93-.31,.3-.57,.68-.87,1-.31,.31-.63,.6-1.02,.76-.4,.14-.74,.31-1.06,.51-.33,.18-.65,.37-.98,.57-.37,.23-.93,.19-1.02,.85,0,.06-.16,.13-.25,.12-.72-.11-1.24,.18-1.8,.44-.55,.3-1.13,.6-1.77,.62-1.31,0-2.64,.18-3.98,.03-.36-.04-.7-.28-1.11,.05-.15,.12-.53,.05-.69-.11-.42-.41-.89-.58-1.37-.8-.48-.19-.99-.36-1.41-.67-.97-.64-2.09-1.25-2.6-2.39-.2-.5-.55-1.02-1.28-1.24-.36-.09-.48-.7-.71-1.05-.2-.29-.59-.48-.73-.8-.12-.27-.06-.63-.08-.94-.01-.09-.04-.19-.1-.27-.26-.35-.46-.74-.58-1.15-.1-.41-.16-.84-.19-1.26v-1.28c.03-.43,.04-.85,0-1.27-.12-1.72,.32-3.5,1.16-5.07,.23-.43,.54-.83,.9-1.13,.4-.28,.88-.43,1.43-.36,.5,.06,.85,.39,.87,.83,.02,.32,.02,.65-.1,.88-.13,.41-.26,.81-.34,1.21-.08,.42-.11,.84-.1,1.26-.03,.41-.05,.81-.24,1.2-.14,.25,.12,.57-.34,.76-.06,.03-.1,.14-.08,.19,.62,1.15,.31,2.29,.68,3.42,.31,.96,1.21,1.54,1.48,2.45,.38,.06,.61,.22,.79,.42,.19,.18,.32,.42,.42,.67,.41,.81,1.1,1.44,1.93,1.83,.83,.38,1.71,.61,2.62,.78,1.85,.37,3.85,.04,5.63-.66,.32-.1,.42-.53,.87-.47,.43,.04,.74-.37,1.09-.59,.3-.24,.57-.53,.91-.68,1.52-.57,2.21-2.09,2.8-3.46,.6-1.39,.91-2.99,.7-4.53-.14-.95-.59-1.79-.73-2.71-.09-.39-.46-.68-.17-1.23,.08-.16-.4-.36-.54-.56-.33-.53-.63-1.08-1.01-1.57-.5-.69-1.12-1.29-1.82-1.77-.23-.13-.47-.23-.71-.32-.26-.07-.51-.14-.74-.24-.5-.19-.99-.4-1.49-.61-.63-.28-1.27-.59-1.97-.74-.74-.12-1.5,.06-2.21-.1-1.37-.34-2.68,.22-3.87,.73-1.2,.52-2.37,1.29-2.91,2.27-.3,.52-.88,.84-.89,1.37,0,.11-.31,.27-.63,.48-.33,.2-.71,.44-.94,.4-.09-.01-.19-.07-.24-.14-.62-.87-1-2.27-.33-3.36,.95-1.57,2.29-2.62,3.64-3.42Z"/>
        </g>
        <g class="cls-14">
          <path class="cls-11" d="M117.41,62.41c-.29,17.08-2.66,34.42,3.25,50.45-10.48,1.7-15.22,15.85-10.34,25.27,4.88,9.42,16,14.08,26.58,14.91,10.58,.82,21.14-1.42,31.73-2.1,13.11,9.64,34.83,.57,46.14,12.27,3.8,3.93,5.43,9.39,7.73,14.35,6.38,13.78,18.24,24.1,29.75,34,6.38,5.48,12.89,11.04,20.64,14.3,9.66,4.06,20.91,4.16,30.64,.28,3.72-1.49,7.22-3.52,10.97-4.93,3.95-1.49,8.13-2.27,12.29-3.04,14.67-2.72,29.35-5.44,44.02-8.16,4.44-.82,9.76-1.37,12.77,1.99,1.98,2.21,2.25,5.42,2.42,8.39,.8,13.94,1.58,28.13-1.74,41.7-7.17,29.33-3.95,66.39-28.03,84.6-28.4,21.47-87.48,26.46-122.91,29.97-35.83,3.55-71.02-11.13-101.97-29.53-27.48-16.34-53.01-35.81-77.27-56.63-14.87-12.76-29.55-26.36-39.15-43.44C5.41,230.11,1.38,210.58,0,191.19c-.84-11.73-.71-23.79,3.15-34.9,2.82-8.12,7.54-15.45,12.71-22.31,10.91-14.46,24.07-27.22,38.87-37.67,11.84-8.37,24.66-15.23,37.45-22.07,7.37-3.94,14.73-7.88,22.1-11.83"/>
          <path class="cls-11" d="M117.26,91.4c.18,4.29,.57,8.18,1.26,11.81,.36,1.81,.73,3.57,1.23,5.27l.35,1.28,.42,1.25,.54,1.59,.14,.41c.02,.06,.06,.15,.05,.2l-.2,.05-.8,.2c-.64,.17-1.44,.35-1.89,.63-.53,.27-1.11,.48-1.65,.86-2.28,1.3-4.11,3.38-5.37,5.72-1.27,2.35-2,4.94-2.3,7.49-.34,2.79-.04,5.68,.99,8.28,1.03,2.59,2.7,4.9,4.62,6.79,3.68,3.6,8.28,6.03,13.17,7.5,1.64,.51,3.29,.84,5.11,1.33,1.33,.33,3.83,.66,5.7,.53,.36,0,1.14,.04,1.71,.07,.61,.05,1.34,.11,1.79,.09,5.05-.32,10.31-.68,15.45-1.33,1.28-.16,2.69-.24,3.76-.55,.28-.08,1.53-.22,1.91-.21,1,.02,2.01-.05,3.24-.16l2.17-.16c.13-.04,.21,.06,.31,.12l.29,.2,.44,.3c.27,.18,.53,.37,.82,.52,1.1,.68,2.29,1.2,3.5,1.68,2.44,.91,5.01,1.46,7.62,1.79,2.58,.08,5.48,.37,8.26,.5,2.09,.1,4.18,.27,6.27,.47,2.11,.2,4.42,.28,6.4,.86,.31,.08,1.13,.18,1.72,.32,2.62,.56,5.34,1.53,7.47,2.98,1.08,.76,2.1,1.59,3.02,2.52,3.06,2.99,4.77,6.94,6.36,10.72,1.55,3.83,3.34,7.49,5.56,10.94,4.41,6.92,10.16,12.88,16.19,18.46,1.05,.98,2.05,1.9,3.28,2.81,.96,.7,2.92,2.41,3.71,3.24,1.27,1.35,2.64,2.42,3.97,3.58,2.46,2.13,4.98,4.21,7.56,6.17,1.53,1.17,3.36,2.28,4.64,3.4,.12,.11,.65,.43,.84,.51,1.95,.9,3.67,2.04,5.62,2.93,1.41,.64,2.88,1.18,4.53,1.54,1.6,.39,4.28,.91,5.76,1.24,1.99,.47,3.88,.5,5.78,.52,5.63,0,11.25-1.17,16.39-3.47,2.58-1.14,5.09-2.47,7.71-3.59,2.62-1.14,5.38-1.94,8.15-2.57,2.63-.6,5.24-1.11,7.86-1.65,2.62-.53,5.24-1.05,7.91-1.5,1.27-.21,2.64-.56,3.81-.6,.24,0,1.25-.22,1.65-.34,1.42-.42,2.88-.63,4.52-.93,7.43-1.34,14.99-2.65,22.26-4.15,2.81-.58,5.69-1.19,8.65-1.02,1.47,.08,2.97,.41,4.34,1.1,1.35,.71,2.52,1.85,3.24,3.21,.97,1.82,1.14,3.87,1.27,5.8,.11,1.88,.22,3.78,.33,5.67,.07,1.12,.07,2.25,.27,3.35,.11,.59,.19,2.21,.16,2.87-.13,2.21,.02,4.57,.02,6.86,.03,6.54-.29,13.12-1.43,19.59-.14,.79-.3,1.63-.44,2.45-.18,.81-.39,1.6-.66,2.28-.07,.19-.21,1.1-.32,1.67-.12,.61-.24,1.38-.35,1.82-1.17,4.06-1.75,8.48-2.4,12.75-1.58,10.34-2.64,20.8-4.82,31.08-.6,2.87-1.05,5.42-1.82,8.17-.76,2.65-1.63,5.29-2.64,7.86-.74,1.81-1.49,3.75-2.52,5.28-.29,.41-.92,1.68-1.17,2.2-.46,.99-.99,2.02-1.65,2.97-.32,.48-.64,.98-.98,1.45-.35,.47-.69,.94-1.04,1.4-1.7,2.25-3.72,4.33-5.66,6.31-.49,.58-1.74,1.36-2.62,2.08-1.6,1.15-3.22,2.3-4.89,3.34-.78,.53-1.55,1.05-2.36,1.53-1.56,.95-3.18,1.78-4.79,2.64-1.64,.79-3.26,1.63-4.94,2.34-3.32,1.51-6.73,2.8-10.16,4.02-7.01,2.44-14.18,4.38-21.4,6.02-7.22,1.66-14.5,3.04-21.81,4.19-2.74,.43-5.69,1.06-8.27,1.12-2.5,.55-4.74,.73-6.98,.82-.32,.01-1.11,.2-1.7,.3-1.85,.32-3.58,.83-5.67,.75-.08,0-.33,.04-.5,.06-1.71,.15-2.86,.63-5.06,.66-1.37,.03-3.55,.32-5.37,.5-1.88,.19-3.78,.37-5.64,.59-1.92,.22-4.04,.28-5.82,.71-.29,.07-1.72,.04-2.56,.13-4.28,.51-8.75,.66-13.01,1.12-.98,.08-2.53,.08-3.57,.03-1.88-.05-3.69-.19-5.52-.27-1.83-.08-3.67-.1-5.59-.3-1.26-.11-2.55-.23-3.84-.34-1.29-.12-2.58-.37-3.87-.57-1.29-.22-2.58-.41-3.83-.69-1.25-.3-2.48-.61-3.68-.94-1.02-.28-1.47-.42-2.53-.54-.69-.1-1.88-.42-2.84-.67-10.7-2.7-21.11-6.5-31.14-11.07-1.36-.63-2.66-1.28-3.96-1.94-1.29-.68-2.59-1.37-3.99-2-1.15-.53-2.44-1.28-3.46-1.61-.14-.04-.62-.27-.82-.4-1.58-.97-3.23-1.78-4.86-2.63-1.63-.85-3.26-1.69-4.84-2.62-.68-.39-1.3-.82-1.96-1.23-.68-.42-1.45-.94-2.05-1.25-5.02-2.58-9.85-5.82-14.68-8.83-1.65-1.03-3.37-2.29-4.94-3.05-.24-.11-.95-.59-1.25-.82-2.61-2.08-5.76-3.94-8.54-5.98-1.43-1.05-3.16-2.04-4.3-3.17-.15-.14-.74-.54-1.11-.78-.64-.42-1.3-.79-1.89-1.22-1.66-1.21-3.37-2.65-4.88-3.64-1.85-1.24-3.51-2.55-5.23-3.82-.98-.74-1.88-1.57-2.86-2.35-.93-.72-1.9-1.47-2.85-2.2-1.35-1.06-2.79-2.12-4.04-3.17-1.29-1.1-2.5-1.74-3.85-3.03-1.04-.99-2.45-1.85-3.71-2.84-.63-.49-1.27-1.05-1.87-1.57-.46-.4-.86-.84-1.3-1.19-1-.81-1.93-1.63-3.06-2.43-.78-.55-1.98-1.74-3.02-2.64-1.04-.88-2.1-1.78-3.15-2.66-1.05-.89-2.15-1.89-3.13-2.66-4.32-3.38-8.43-7.2-12.5-10.96-1.05-.96-2.3-2.05-3.04-3.06-.13-.18-.72-.74-1.03-1.02-3.97-3.48-7.58-7.66-11.07-11.72-2.5-2.89-4.9-5.81-7.07-9.06-2.12-3.15-4.14-6.52-5.91-9.73-.78-1.3-1.42-2.65-2.11-3.97-.64-1.35-1.26-2.7-1.81-4.07-1.05-2.69-2.46-5.15-2.99-7.96-.95-2.79-1.75-5.62-2.48-8.47-.59-2.4-1.24-4.84-1.51-7.25-.1-.87-.4-2.54-.65-3.47-.75-3-1.13-5.96-1.39-9.07-.06-.74-.28-1.65-.38-2.49-.28-2.57-.53-5.17-.67-7.73-.42-7.65-.79-15.27,.29-22.93,.08-.71,.17-1.45,.26-2.18,.08-.73,.18-1.43,.34-2.04,.89-3.74,2.02-7.48,3.52-11.07,1.48-3.59,3.31-7.01,5.37-10.18,3.05-4.68,6.4-9.1,9.87-13.43,3.47-4.32,7.14-8.48,11.03-12.43,1-1.04,2.22-1.96,2.66-2.48,1.39-1.61,3.25-3.18,4.48-4.45,2.2-2.33,4.7-4.28,7.08-6.31,1.74-1.48,3.77-2.89,5.3-4.36,.22-.21,.86-.68,1.21-.91,2.84-1.82,5.37-4.03,8.22-5.78,5.13-3.74,10.83-6.92,16.37-10.12,.82-.47,1.58-.97,2.38-1.46,.4-.24,.88-.55,1.23-.72,5.22-2.55,10.39-5.56,15.59-8.26,1.73-.87,3.42-1.73,5.15-2.6,1.74-.89,3.47-1.91,5.18-2.61,.53-.22,1.51-.78,2.23-1.19,3.91-2.23,7.05-3.46,7.41-2.93,.13,.19-.68,.64-1.5,1.17-1.58,1.03-3.16,2-5.17,3.06-1.56,.82-3.31,1.67-4.59,2.61-.21,.16-.93,.53-1.32,.71-2.76,1.25-5.7,3-8.29,4.24-1.99,.95-3.78,1.93-5.65,2.89-1.57,.81-3.13,1.78-4.78,2.45-.56,.23-2,1.21-3.08,1.82-2.54,1.43-5.09,2.88-7.62,4.31-7.69,4.35-14.86,9.3-21.92,14.56-4.83,4.01-9.99,8.03-14.45,12.46-5.4,5.31-10.6,10.82-15.33,16.7-.95,1.22-1.76,2.18-2.64,3.23-.58,.68-1.21,1.4-1.77,2.14-2.17,2.87-4.21,5.83-6.11,8.86-1.02,1.63-1.95,3.56-2.96,4.94-.14,.19-.53,.96-.67,1.32-1.15,2.93-2.58,6.02-3.46,9.17-.17,.6-.34,1.19-.51,1.79-.16,.61-.34,1.22-.54,1.87-.42,1.41-.85,3.7-.96,5.24-.11,1.16-.2,2.19-.31,3.3-.37,4.6-.7,9.42-.21,13.93-.2,2.39,.06,5.34,.34,7.74,.99,9.22,2.15,18.47,4.48,27.44,.29,1.08,.55,2.17,.82,3.27,.3,1.09,.59,2.18,.89,3.27,.37,1.13,.74,2.27,1.11,3.41,.41,1.12,.83,2.25,1.24,3.37,.47,1.18,.95,2.59,1.51,3.43,.04,.06,.14,.26,.2,.39,.53,1.25,.98,2.56,1.6,3.74,.55,1.06,1.12,2.01,1.74,3.05,.73,1.25,1.43,2.6,2.21,3.86,.37,.62,.75,1.26,1.11,1.87,.37,.6,.71,1.19,.94,1.73,.78,.83,1.63,2.26,2.46,3.43,.77,1.11,1.61,2.2,2.41,3.3,.93,1.22,1.88,2.43,2.85,3.62,.99,1.18,1.95,2.39,2.98,3.51,1.39,1.56,2.86,3.01,4.3,4.52,1.54,1.58,3.11,3.18,4.67,4.75,1.96,1.96,3.91,3.91,5.93,5.82,.84,.79,1.6,1.41,2.49,2.1,1.18,.91,2.74,1.99,3.99,3.49,.25,.3,1.28,1.18,1.87,1.64,4.71,3.65,9.23,7.83,13.93,11.58,2.4,2.3,5,4.21,7.73,6.31,4.01,3.08,8.25,6.35,12.11,9.46,4.09,3.29,8.27,6.29,12.44,9.34,1.17,.86,2.5,1.71,3.39,2.59,.2,.2,1.11,.82,1.63,1.14,1.78,1.11,3.5,2.26,5.23,3.43,1.7,1.19,3.42,2.4,5.17,3.63,1.84,1.32,4.03,2.62,6.18,3.9,3.23,1.91,6.65,4.15,10.03,6.17,1.32,1.11,2.61,1.55,3.42,1.89,1.08,.46,2.04,.98,3.24,1.67,1.54,.9,3.07,1.76,4.69,2.47,.83,.36,2.57,1.36,3.4,1.87,1.09,.71,1.55,.89,2.64,1.37,1.28,.57,2.46,1.46,4.06,2.22,1.7,.81,3.71,1.7,5.12,2.63,.12,.08,.65,.32,.9,.41,1.65,.59,3.21,1.37,4.78,2.11,1.58,.72,3.15,1.46,4.78,2.08,9.5,4.26,19.66,7.2,29.83,9.41,1.05,.23,2.1,.47,3.15,.7l3.18,.57c1.06,.18,2.12,.36,3.18,.54,1.06,.12,2.12,.22,3.18,.3l3.32,.27,3.33,.13,3.33,.15,3.33-.02h3.34s3.33-.23,3.33-.23l3.33-.22,3.35-.34c1.89-.2,4.05-.53,5.78-.43,.24,.01,1.11-.08,1.48-.15,2.8-.53,5.56-.73,8.41-.86,.69-.03,1.98-.18,2.39-.28,1.16-.31,2.54-.39,3.8-.52,1.53-.16,3.56-.24,4.46-.44,1.92-.43,3.04-.34,4.52-.49,.91-.09,1.92-.27,2.86-.42,.45-.07,1-.22,1.26-.24,3.02-.17,5.9-.9,8.86-1.24,.63-.08,1.31-.17,1.93-.25,3.5-.38,5.25-.61,7.22-.91,1.96-.32,4.15-.73,8.5-1.64,2.45-.14,5.15-1.2,7.78-1.52,.96-.13,2.76-.56,3.92-.89,5.07-1.5,10.37-2.7,15.41-4.39,1.06-.33,1.92-.42,3.21-1.03,.49-.22,2.27-.64,3.4-1.08,1.65-.59,3.41-1.19,4.95-2.03,.63-.34,2.09-.92,3.15-1.4,1.45-.67,2.92-1.3,4.29-2.16,.73-.5,2.55-1.41,3.44-1.85,3.78-1.7,6.81-4.11,9.64-6.59,.87-.74,1.39-1.34,2.31-2.1,.62-.56,1.31-1.25,1.97-1.9,.63-.69,1.19-1.37,1.57-1.9,1.27-1.92,2.6-3.66,3.71-5.6,1.95-3.33,3.57-6.88,4.86-10.54,1.48-4.18,2.67-8.46,3.45-12.92,.43-2.39,.92-5.56,1.63-8.12,.08-.28,.1-1.37,.21-2.07,.86-5.58,1.58-11.2,2.39-16.81,.19-1.3,.67-2.68,.62-3.9-.05-1.31,.63-2.6,.51-3.71-.02-.16,.18-1.34,.31-1.94,.7-3.27,1.36-6.6,2.12-9.92,.78-3.3,1.39-6.53,1.84-9.83,.23-1.57,.28-3.39,.62-4.63,.05-4.04,.69-8.56,.19-12.53,.03-2.92-.33-6.04-.17-8.86,.02-.46-.09-1.46-.08-1.98,.05-1.78-.45-2.88-.35-5.05,.06-1.24-.17-3.52-.73-5.09-.48-1.47-1.37-2.71-2.64-3.48-1.37-.88-3.13-1.18-4.9-1.21-1.78-.02-3.62,.22-5.43,.57-3.73,.73-7.37,1.59-11.21,2.23-.41,.07-1.11,.23-1.26,.31-1.22,.61-3.17,.76-4.48,.89-1.1,.11-2.04,.24-3.22,.46-3.21,.59-6.43,1.19-9.63,1.78-1.9,.34-3.91,.83-5.76,.94-.57,.03-2.1,.33-2.95,.54-3.96,1.01-8.2,1.55-12.17,2.51-1.8,.44-3.58,.93-5.3,1.56-1.31,.47-2.52,1.18-3.87,1.64-3.05,1.59-6.24,3.33-9.77,4.43-1.74,.58-3.54,.98-5.33,1.34-1.81,.29-3.62,.55-5.45,.63-3.62,.23-7.28-.08-10.84-.79-3.55-.75-7.04-1.95-10.27-3.6-1.62-.81-3.43-1.73-4.64-2.8-.23-.21-1.32-.91-1.65-1.09-.94-.47-1.63-.88-2.46-1.72-.15-.16-.96-.71-1.4-1-1.22-.81-2.22-1.64-3.33-2.67-.86-.8-2.04-1.85-2.94-2.56-2.42-1.88-4.69-3.68-6.83-5.9-.26-.27-1.16-.84-1.66-1.3-1.95-1.79-4.05-3.52-5.81-5.5-.72-.81-1.9-1.89-2.83-2.87-1.58-1.7-3.2-3.21-4.73-5.14-.79-.95-1.57-2-2.41-3.01-.78-1.06-1.63-2.09-2.35-3.19-1.52-2.14-2.84-4.41-4.08-6.73-1.22-2.34-2.23-4.77-3.22-7.12-1-2.35-2.04-4.65-3.41-6.68-1.35-2.04-3.09-3.73-5.13-5.04-2.05-1.28-4.37-2.16-6.79-2.72-1.69-.4-3.3-.68-5.06-.97-2.25-.38-4.8-.57-7.64-.7-2.84-.14-5.98-.18-9.48-.51-.5-.04-1.04-.13-1.56-.21-3.37-.51-6.79-1.42-9.88-3.1l-1.14-.66-.87-.59c-.05-.06-.12-.02-.19-.02l-.57,.04-1.24,.09c-1.66,.15-3.31,.3-4.96,.45-2.9,.28-5.83,.53-8.83,.85-1.96,.21-3.87,.33-5.82,.62-1.64,.23-3.95,.08-5.88,.3-.71,.07-2.59,.02-3.52-.13-3.11-.43-6.37-.86-9.46-1.78-3.54-1.04-6.98-2.55-10.09-4.62-1.51-1.04-2.91-2.22-4.35-3.46-.76-.55-2.14-2.35-2.82-3.54-.29-.44-.51-.92-.77-1.38-.25-.46-.52-.91-.71-1.4-.21-.48-.43-.96-.64-1.43-.16-.49-.32-.97-.48-1.45-.34-1.02-.43-1.82-.59-2.47-.1-.66-.13-1.19-.18-1.72-.07-.53-.02-1.05,0-1.71,.02-.33,.02-.69,.07-1.1,.06-.41,.13-.86,.21-1.38,.06-.5,.19-1.03,.3-1.54,.56-2.55,1.61-5.03,3.14-7.2,1.52-2.16,3.56-3.98,5.91-5.14l1.48-.65,.62-.18,.15-.04s-.01-.06-.02-.09l-.07-.18-.36-1.04c-.62-1.93-1.14-3.89-1.55-5.89-.19-.79-.36-1.64-.49-2.47-.13-.83-.25-1.63-.2-2.33,.01-.2-.11-1.1-.19-1.49-.66-3.33-.72-7-.78-10.49-.04-3.39-.2-6.49-.03-9.95,.17-3.23,.27-6.52,.39-9.78,.18-4.94,.31-5.99,1-5.96,.55,.02,.68,1.28,.66,5.26-.07,8.44-.7,16.91-.33,23.73Z"/>
        </g>
        <g class="cls-16">
          <g class="cls-16">
            <path class="cls-5" d="M106.45,92.43c-.4-1.82-.42-3.74-.37-5.56,.06-1.82,.17-3.55-.02-5.15-.03-.35-.07-.71-.1-1.09l-.13,.53c-1.01,4.02-1.09,8.73,.11,12.92,.85,2.58,2.32,4.9,3.74,7.44,.16,.29,.45,.16,.59,.09,.03-.35,.09-.67,.17-.97-1.3-1.87-2.44-3.92-3.07-6.23-.16-.77-.87-1.5-.93-1.99Z"/>
            <polygon class="cls-7" points="110.46 100.74 110.47 100.69 110.27 100.4 110.46 100.74"/>
            <path class="cls-4" d="M107.73,95.8c-.31-.71-.55-1.45-.69-2.19-.27-.45-.55-.87-.59-1.17-.4-1.82-.42-3.74-.37-5.56,.06-1.82,.17-3.55-.02-5.15-.03-.34-.07-.7-.1-1.08l-.14,.57c-.35,1.39-.57,2.87-.69,4.37l.05,.24c.19,.84-.04,1.62-.03,2.44,.29,2.29,.36,4.26,1.11,6.49,.28,.79,.87,1.52,1.19,2.44,.11,.31,.21,.61,.32,.91,.62,1.14,1.28,2.26,1.96,3.45,.16,.29,.45,.16,.59,.09,.01-.19,.04-.36,.07-.53-.5-.95-1.01-1.88-1.42-2.89-.46-.83-.85-1.7-1.18-2.61-.02,.05-.03,.1-.03,.17Z"/>
            <path class="cls-7" d="M108.16,95.56c-.03-.13-.3-.22-.4,.07,.33,.91,.72,1.78,1.18,2.61-.36-.84-.63-1.74-.79-2.68Z"/>
            <path class="cls-8" d="M109.25,95.37c-.42-1.72-1.14-3.32-1.05-4.83,.01-.78,.2-1.56,.45-2.22-.01-.24-.03-.48-.04-.72-.52-5.96,.87-12.04,3.44-17.48,1.21-2.76,1.92-5.54,3.01-8.51,.76-1.71,1.78-2.87,2.83-4.38,2.72-3.74,3.23-7.83,5.85-11.72,.71-1.02-.08-1.99-.31-1.76-2.54,3.22-4.43,6.6-6.26,9.95-1.81,3.34-3.66,6.68-5.18,10.32-2.37,5.63-4.55,10.95-6.03,16.64,.03,.38,.07,.74,.1,1.09,.2,1.6,.08,3.33,.02,5.15-.05,1.82-.03,3.74,.37,5.56,.06,.48,.77,1.22,.93,1.99,.62,2.31,1.77,4.36,3.07,6.23,.16-.63,.39-1.16,.5-1.72-.79-1.08-1.42-2.29-1.7-3.56Z"/>
            <path class="cls-6" d="M109.25,95.37c.28,1.27,.91,2.48,1.7,3.56,.05-.27,.07-.55,.02-.83-.35-1.58-.86-3.15-1.31-4.78-.45-1.63-.85-3.33-1.01-5-.25,.67-.44,1.44-.45,2.22-.09,1.5,.63,3.11,1.05,4.83Z"/>
            <path class="cls-4" d="M109.25,95.37c.26,1.22,.85,2.37,1.59,3.41-.13-.41-.29-.81-.43-1.22-.81-2.04-1.49-4.19-1.52-6.39,.36,2.31,.99,4.57,2.02,6.65-.73-3.02-1.97-6.22-2.26-9.5-.25,.66-.44,1.44-.45,2.22-.09,1.5,.63,3.11,1.05,4.83Z"/>
            <path class="cls-3" d="M108.2,91.88c.29,2.69,1.1,5.38,2.61,7.69,.05-.16,.1-.32,.13-.47-.03-.11-.07-.22-.1-.33-.74-1.04-1.33-2.19-1.59-3.41-.42-1.72-1.14-3.32-1.05-4.83,.01-.78,.2-1.55,.45-2.22-.01-.23-.03-.45-.04-.68-.27-3.03-.05-6.13,.58-9.12,.16-2.7,1.16-5.53,2.45-8.06-.5,1.24-.92,2.5-1.27,3.79,.48-1.39,1.02-2.76,1.66-4.1,.51-1.17,.93-2.34,1.33-3.53-.16-.35-.22-.83,0-1.5,.36-1.04,.86-1.99,1.11-3.12,.07-.14,.27,0,.42-.27-.42,.75-.58,1.46-.62,2.12,.24-.73,.49-1.46,.76-2.21,.59-1.34,1.36-2.35,2.16-3.45l.18-.4c.3-.66,.54-1.37,.75-2.1-.15,.26-.3,.52-.46,.8,.1-.49,.41-1.03,.64-1.43-.06,.21-.12,.43-.18,.63,.36-.62,.7-1.21,1.09-1.88-.47,.8-.8,1.69-1.05,2.45,.78-1.52,1.42-2.95,2.43-4.28l-.03,.13c.89-2.18,1.68-4.45,3.15-6.59,.71-1.02-.08-1.99-.31-1.76-3.52,4.52-5.85,9.28-8.4,13.95,.44-.46,.87-.92,1.29-1.38,.16-.22,.33-.41,.53-.58-.17,.19-.35,.39-.53,.58-.43,.59-.78,1.3-1.27,1.93-.14,.09-.37,.5-.25,.77-.66,.86-1.07,2.08-1.71,2.95-.03,.06-.14,.12-.27,.2-.28,.62-.56,1.24-.82,1.87-1.48,3.52-2.89,6.92-4.09,10.36,.4-.8,.81-1.55,1.27-2.21,.66-.87,1.14-3.06,1.8-4.84,.13-.46,.47-.62,.67-1.04-.07,1.76-1.3,3.52-1.84,5.33-.78,2.35-2.32,5.59-2.29,8.36,0,1.13-.39,2.12-.73,3.01-.12-.34-.04-.97,.02-1.28,.43-2.79,1.17-5.5,1.96-8.2-1.21,2.7-1.72,5.51-2.47,8.39,.17-1.75,.86-3.34,.9-5-.09,.12-.18,.24-.26,.37-.34,1.1-.66,2.21-.95,3.34,.03,.37,.07,.73,.1,1.08,.2,1.6,.08,3.33,.02,5.15-.05,1.82-.03,3.74,.37,5.56,.04,.3,.33,.72,.59,1.17-.25-1.16-.33-2.34-.47-3.51-.02,.48-.07,.94-.18,1.39-.2-1.11,.05-2.05-.07-3.16,.12,.59,.19,1.18,.25,1.77,.05-.72,.01-1.47,.07-2.21,.33,1.41-.2,2.8,.47,4.19-.06-.3-.11-.61-.12-.91,.02,.31,.08,.62,.12,.93v-.02c.16,.93,.53,1.81,.89,2.58-.43-1.56-.39-3.03-.58-4.57-.05-.25-.07-.51-.11-.77,.04,.27,.08,.52,.11,.77,.53,3.51,1.2,7.08,2.85,10.32l.2,.28,.12-.41c-1.4-2.61-2.18-5.55-2.39-8.39Z"/>
          </g>
        </g>
        <g class="cls-16">
          <g class="cls-16">
            <path class="cls-5" d="M109.53,112.95c-.77,.54-1.62,1.03-2.34,1.69-.72,.64-1.27,1.45-1.35,2.35-.03,.2-.06,.39-.06,.6,.06-.08,.12-.15,.19-.22,.71-.81,1.44-1.57,2.21-2.25,.39-.34,.78-.65,1.17-.95,.41-.29,.77-.55,1.34-.92,.63-.53,1.49-1.24,1.94-2.58,.19-.69,.17-1.32-.01-1.96-.18-.61-.57-1.36-1.43-1.76-.38-.16-.49,.17-.54,.32,.24,.25,.33,.55,.31,.81,.65,.38,.92,1.23,.78,2.01-.19,.84-.8,1.42-1.4,1.82-.42,.24-.59,.93-.81,1.04Z"/>
            <path class="cls-7" d="M110.93,108v.05c.07,.03,.13,.07,.19,.12-.06-.06-.12-.12-.19-.17Z"/>
            <path class="cls-4" d="M111.1,111.39c-.32,.42-.74,.69-1.13,.9-.18,.27-.3,.58-.44,.65-.77,.54-1.62,1.03-2.34,1.69-.72,.64-1.27,1.45-1.35,2.35-.03,.2-.05,.39-.06,.59,.06-.08,.13-.16,.2-.23,.49-.56,1-1.09,1.51-1.6l.04-.12c.12-.43,.55-.55,.85-.78,.16-.22,.35-.4,.55-.56,.19-.17,.39-.31,.6-.43,.39-.27,.86-.48,1.49-.98,.45-.36,.77-1.04,1.26-1.7,.15-.23,.34-.58,.44-.85,.11-.63,.05-1.21-.15-1.81-.2-.57-.62-1.27-1.44-1.61-.38-.14-.49,.19-.53,.33,.13,.14,.21,.27,.27,.42,.81,.43,1.01,1.29,.92,1.99,0,.32-.07,.67-.23,.97-.15,.29-.35,.55-.58,.77,.04,0,.08,0,.13,0Z"/>
            <path class="cls-7" d="M110.73,111.08c-.06,.05,0,.29,.24,.32,.23-.22,.43-.48,.58-.77,.16-.3,.24-.65,.23-.97-.04,.3-.16,.61-.36,.86-.19,.24-.42,.42-.68,.56Z"/>
            <path class="cls-8" d="M110.05,110.21c-.65,.4-1.48,1.22-2.41,1.56-.47,.21-1.03,.32-1.56,.42-.12,.12-.24,.24-.36,.36-1.38,1.57-2.36,3.35-3.11,5.16-.75,1.81-1.28,3.67-1.72,5.55-.36,1.93,.15,3.7,.57,5.55,.13,1.11-.18,2.01-.33,3.11-.44,2.74,1.11,4.88,1.56,7.6,.12,.73,1.37,.85,1.38,.66-.48-4.69-.63-8.97-.93-13.42-.24-3.43,.67-6.79,2.63-9.17,0-.21,.03-.4,.06-.6,.08-.91,.63-1.71,1.35-2.35,.72-.66,1.57-1.14,2.34-1.69,.22-.11,.39-.81,.81-1.04,.6-.4,1.21-.98,1.4-1.82,.14-.78-.13-1.63-.78-2.01-.03,.55-.43,.91-.71,1.09,.13,.07,.24,.32,.22,.51,.01,.16-.15,.4-.41,.54Z"/>
            <path class="cls-6" d="M110.05,110.21c.26-.14,.43-.38,.41-.54,.02-.19-.09-.44-.22-.51-.15,.1-.27,.15-.36,.19-.08,.05-.16,.09-.21,.08,.06,.02,.17,.06,.24,.11h.02s0,.02,0,.02h0c.07,.04-.6-.36-.32-.19h0s0,0,0,0h-.01s-.02,.02-.02,.02l-.05,.03c-.13,.09-.37,.28-.75,.54-.36,.24-.9,.61-1.38,1.01-.48,.39-.92,.81-1.33,1.23,.53-.1,1.09-.22,1.56-.42,.93-.34,1.77-1.16,2.41-1.56Z"/>
            <path class="cls-4" d="M110.05,110.21c.24-.12,.41-.37,.41-.51,.02-.18-.06-.41-.19-.51-.04,.1-.08,.21-.11,.29-.02,.05-.04,.11-.06,.13-.01,0-.04,.07-.11,.14-.11,.13-.27,.27-.49,.41-.43,.28-1.08,.52-1.81,.84,.71-.48,1.38-.78,1.75-1.08,.19-.15,.31-.28,.37-.39,.01-.03,0-.05,0-.13-.04,.02-.07,.04-.1,.04-.01,0-.03,0-.04,0-.03,0,.06,.02,.09,.03l.13,.06,.03,.02h.02s0,.02,0,.02c-.14-.09,.32,.19-.32-.19h0s0,0,0,0h-.02s-.1,.08-.1,.08c-.14,.1-.39,.3-.77,.56-.37,.24-.89,.61-1.35,1-.46,.38-.89,.78-1.29,1.19,.53-.1,1.09-.22,1.56-.42,.93-.34,1.77-1.16,2.41-1.56Z"/>
            <path class="cls-3" d="M108.47,111.46c.78-.38,1.5-.66,1.97-1.13,.24-.25,.36-.47,.37-.75,.02-.27-.08-.58-.24-.7-.08,.09-.17,.16-.26,.22-.01,.03-.02,.05-.03,.08,.12,.1,.21,.33,.19,.51,0,.14-.17,.39-.41,.51-.65,.4-1.48,1.22-2.41,1.56-.47,.21-1.03,.32-1.56,.42l-.34,.34c-1.41,1.6-2.41,3.42-3.17,5.26-.31,1.75-.85,3.47-1.39,5.2,.14-.83,.28-1.66,.45-2.51-.28,.9-.51,1.82-.73,2.74-.16,.8-.15,1.61-.06,2.39,.28,.17,.52,.43,.59,.85,.1,.66,.07,1.31,.36,1.96,0,.09-.24,.08-.25,.26,.02-.51-.15-.93-.4-1.3,.11,.46,.21,.93,.32,1.39,.1,.87-.07,1.61-.22,2.43l.04,.26c.06,.43,.23,.85,.41,1.27,0-.18,0-.35,0-.54,.16,.27,.17,.64,.17,.91-.06-.12-.11-.25-.16-.37,0,.42,.01,.82,.02,1.27,0-.54-.18-1.09-.34-1.54,.09,1,.27,1.9,.12,2.89l-.05-.07c.4,1.35,1,2.69,1.24,4.2,.11,.73,1.37,.85,1.38,.66-.34-3.28-.52-6.34-.69-9.42-.15,.36-.3,.72-.43,1.08-.03,.16-.08,.31-.16,.45,.05-.15,.11-.3,.16-.45,.08-.42,.03-.89,.14-1.34,.08-.09,.08-.36-.16-.45,.16-.62-.06-1.35,.13-1.96,0-.04,.07-.1,.15-.17-.02-.38-.05-.76-.07-1.16-.14-2.16,.16-4.24,.87-6.13-.26,.43-.56,.84-.85,1.23-.48,.51-.38,1.85-.36,2.92,.04,.27-.22,.42-.25,.69-.6-1,0-2.2,.11-3.28,.21-1.48,1.34-3.22,1.64-4.8,.11-.68,.66-1.09,1.17-1.37,.01,.23-.18,.52-.27,.67-.88,1.31-1.54,2.8-1.88,4.38,.73-1.52,1.19-3.08,2.36-4.25-.46,.8-1.18,1.5-1.18,2.46,.08-.05,.16-.1,.23-.15,.31-.54,.66-1.05,1.04-1.52,0-.2,.03-.39,.06-.59,.08-.91,.63-1.71,1.35-2.35,.72-.66,1.57-1.14,2.34-1.69,.14-.07,.26-.38,.44-.65-.62,.32-1.18,.56-1.69,.96,.24-.11,.51-.15,.79-.13-.23,.17-.49,.27-.74,.38-.26,.1-.52,.22-.72,.45,.18-.28,.42-.5,.67-.7-.38,.14-.72,.38-1.07,.62,.41-.79,1.41-.69,1.85-1.47-.14,.1-.29,.19-.45,.26l.45-.27h0c.44-.28,.86-.67,1.18-1.07-.39,.27-.82,.42-1.24,.57-.41,.18-.85,.35-1.21,.65-.11,.11-.22,.21-.34,.32,.11-.12,.22-.22,.34-.32,.4-.35,.86-.66,1.33-.91,.47-.25,.93-.47,1.35-.75,.41-.28,.79-.65,.93-1.16,.14-.49,.11-1.1-.28-1.55-.06-.04-.12-.09-.19-.12,0,.12-.02,.24-.06,.34,.24,.26,.33,.66,.29,1.03-.05,.39-.21,.67-.49,.93-.56,.51-1.34,.74-2.19,1.1Z"/>
          </g>
        </g>
        <g class="cls-16">
          <g class="cls-16">
            <path class="cls-5" d="M110.72,151.46c-.62-.12-.82-1.07-1.62-.63-.08,.04-.17,.08-.27,.13l.05,.09c.37,.72,1.03,1.2,1.76,1.28,.5-.06,1.08-.44,1.49-.23,.05,.02,.14-.28,.18-.43,0-.21,.03-.43,.06-.65-.38,.07-.81,.22-1.17,.1-.1-.07-.42,.37-.49,.33Z"/>
            <polygon class="cls-7" points="112.38 151.07 112.39 151.03 112.33 151.04 112.38 151.07"/>
            <path class="cls-4" d="M111.41,151.25c-.15,.05-.27,.02-.37-.04-.12,.11-.27,.27-.31,.25-.62-.12-.82-1.07-1.62-.63-.08,.04-.17,.08-.26,.12l.05,.1c.13,.26,.3,.47,.48,.66l.06-.03c.21-.12,.22,.16,.33,.24,.41,.01,.63,.33,1.04,.32,.15,0,.4-.3,.54-.22,.05,.01,.1,.04,.14,.08,.24-.07,.47-.1,.66,0,.05,.02,.14-.28,.18-.43,0-.11,.02-.22,.02-.34-.14-.11-.31-.14-.46-.21-.16,.03-.33,.05-.48,.04,0,.03,0,.06,0,.08Z"/>
            <path class="cls-7" d="M111.55,150.8s-.12,.2-.14,.37c.16,.01,.32,0,.48-.04-.13-.06-.25-.16-.34-.34Z"/>
            <path class="cls-8" d="M111.94,149.77c-.2-.21-.58,.07-.68-.28-.05-.16-.06-.42-.02-.74-.03,0-.07-.02-.1-.03-.87-.11-1.71-.5-2.16-1.29-.27-.33-.9-.16-1.49-.2-.26-.12-.17-.53-.18-.87,.04-.87-1.31-.4-2.08-.75-.2-.09-1.26,.6-1.24,.64,1.15,.76,1.54,2.03,2.78,2.61,.92,.45,1.53,1.09,2.06,2.1,.1-.04,.19-.09,.27-.13,.8-.44,1,.51,1.62,.63,.07,.04,.38-.39,.49-.33,.36,.11,.79-.03,1.17-.1,.06-.46,.12-.93,.17-1.28-.24,.12-.48,.21-.62,.01Z"/>
            <path class="cls-6" d="M111.94,149.77c.13,.2,.38,.11,.62-.01,.02-.17,.02-.31,.01-.41-.22-.81-.84-.48-1.32-.6-.04,.32-.03,.58,.02,.74,.09,.34,.48,.06,.68,.28Z"/>
            <path class="cls-4" d="M111.94,149.77c.13,.19,.36,.12,.58,0-.04-.08-.09-.14-.14-.18-.28-.18-.62-.21-.79-.62,.3,.14,.61,.27,.95,.3-.23-.71-.84-.4-1.3-.52-.04,.32-.03,.58,.02,.74,.09,.34,.48,.06,.68,.28Z"/>
            <path class="cls-3" d="M111.37,149.75c.31,.31,.68,.54,1.14,.42,.02-.12,.03-.23,.04-.33-.01-.03-.02-.05-.03-.07-.23,.12-.46,.19-.58,0-.2-.21-.58,.07-.68-.28-.05-.16-.06-.42-.02-.74-.03-.01-.06-.02-.09-.03-.45-.06-.88-.18-1.26-.4-.53,.14-.85-.19-1-.65,.14,.12,.31,.22,.5,.27-.15-.15-.29-.32-.39-.51-.12-.14-.29-.19-.5-.21-.21,.2-.42,.36-.55,.35-.2-.01-.29-.14-.6-.05-.01-.02,.15-.19,.12-.23,.07,.11,.26,.06,.49-.07-.15,0-.3,0-.45,0-.21-.09-.19-.37-.18-.65-.02,0-.04-.02-.06-.03-.1-.05-.26-.03-.45,0l.07,.12c-.15,.05-.2-.03-.23-.09l.16-.02c-.05-.09-.1-.18-.16-.28,.06,.12,.25,.14,.42,.13-.18-.16-.4-.26-.39-.58h.04c-.44-.07-1.07-.03-1.49-.21-.2-.09-1.26,.6-1.24,.64,.81,.54,1.23,1.29,1.85,1.93,.05-.19,.1-.38,.15-.56,0-.06,.02-.13,.06-.22-.02,.07-.04,.15-.06,.22,0,.16,.11,.23,.1,.42-.04,.08,0,.14,.18,0-.01,.26,.27,.26,.27,.52,0,0-.03,.07-.07,.15,.1,.06,.19,.11,.3,.16,.58,.28,1.03,.63,1.42,1.11-.03-.2-.05-.42-.03-.67,.07-.38-.39-.32-.69-.43-.1,0,.02-.22-.02-.28,.6-.35,.57,.2,.86,.3,.34,.15,.49,.96,1.09,.77,.25-.09,.25,.23,.25,.53-.12,.11-.19,.04-.23,0-.34-.3-.67-.6-1.06-.8,.2,.54,.66,.65,.87,1.24-.26-.12-.3-.57-.7-.42-.01,.06-.02,.12-.03,.17,.11,.18,.22,.36,.33,.56,.09-.04,.18-.09,.26-.12,.8-.44,1,.51,1.62,.63,.04,.03,.19-.14,.31-.25-.17-.09-.3-.25-.47-.33,.04,.1,.06,.23,.06,.41-.19-.03-.18-.41-.36-.44,.12-.03,.21-.01,.3,.03-.06-.15-.14-.24-.22-.36,.31-.15,.24,.55,.61,.25-.05-.01-.09-.04-.12-.09l.12,.08h0c.14,.05,.33-.03,.5-.13-.24-.07-.32-.47-.54-.54-.04,0-.08-.01-.12-.01,.05,0,.09,0,.12,.01,.55,.08,.92,.62,1.42,.93h.06s.04-.32,.04-.32c-.41-.21-.78-.54-1.06-.97Z"/>
          </g>
        </g>
        <g class="cls-16">
          <g class="cls-16">
            <path class="cls-5" d="M220.74,193.67c-1.03-2.99-1.54-6.18-2.21-9.13-.66-2.96-1.51-5.78-2.87-7.96-.28-.5-.62-.97-.93-1.44l.32,.8c1.17,3.05,1.96,6.44,2.73,9.92,.76,3.46,1.61,7.14,3.02,10.52,.91,2.08,2.08,4.11,3.56,6,1.47,1.89,3.23,3.66,5.39,5.1,.48,.32,.71,.09,.82-.02-.32-.44-.55-.85-.74-1.24-3.33-2.14-5.81-5.51-7.38-9.27-.51-1.25-1.47-2.48-1.71-3.27Z"/>
            <path class="cls-7" d="M229.94,206.33l-.04-.08c-.17-.1-.33-.22-.49-.33,.17,.14,.34,.29,.53,.41Z"/>
            <path class="cls-4" d="M223.42,199.18c-.68-1.15-1.22-2.35-1.65-3.58-.45-.74-.87-1.43-1.03-1.93-1.03-2.99-1.54-6.18-2.21-9.13-.66-2.96-1.51-5.78-2.87-7.96-.27-.5-.61-.96-.92-1.43l.34,.86c.81,2.11,1.42,4.4,1.99,6.74,.05,.12,.1,.25,.15,.37,.56,1.26,.6,2.56,.89,3.85,1.03,3.64,1.62,6.9,3.28,10.51,.6,1.29,1.56,2.48,2.42,3.93,.29,.5,.62,.96,.9,1.42,1.4,1.75,3.11,3.35,5.12,4.68,.48,.32,.7,.09,.82-.03-.17-.23-.31-.46-.43-.67-1.53-1.06-2.91-2.33-4.06-3.83-1.08-1.23-2-2.61-2.78-4.08,0,.07,.02,.16,.05,.27Z"/>
            <path class="cls-7" d="M223.77,198.82c-.1-.21-.42-.37-.4,.09,.78,1.47,1.7,2.85,2.78,4.08-.96-1.25-1.78-2.65-2.38-4.17Z"/>
            <path class="cls-8" d="M224.87,198.55c-1.26-2.78-2.56-5.52-2.97-8.09-.23-1.35-.31-2.68-.29-3.91-.11-.43-.22-.85-.32-1.27-.71-2.62-1.45-5.27-2.46-7.87-1-2.6-2.27-5.16-4.03-7.43-.88-1.14-1.9-2.17-3-3.12l-1.74-1.29-1.87-1.09c-2.56-1.32-5.29-2.09-7.98-2.66-5.44-1.04-10.39-.54-15.7-1.21-.77-.16-1.51-.32-2.21-.53-.68-.24-1.35-.47-1.99-.75-.62-.32-1.25-.61-1.86-.95-.61-.36-1.23-.75-1.9-1.17-1.65-1.05-3.42-2.08-5.49-2.59-2.09-.49-4.21-.34-6.08,.13-1.89,.45-3.65,1.12-5.44,1.7-1.78,.56-3.64,1.09-5.62,1.04-1.06-.02-1.72,.11-2.1,.39-.35,.24-.39,.57-.12,.64,1.85,.43,3.71,.35,5.43,.08,1.73-.27,3.36-.7,4.95-1.09,3.17-.81,6.32-1.32,9.18-.27,1.44,.51,2.84,1.29,4.29,2.07,.73,.39,1.47,.78,2.25,1.14,.8,.31,1.58,.66,2.4,.92,3.25,1.07,6.64,1.51,10.01,1.79,5.21,.44,10.32,.68,14.84,2.43,2.25,.87,4.25,2.17,5.9,3.78,1.64,1.63,2.83,3.65,3.75,5.76,.31,.48,.65,.94,.93,1.44,1.37,2.18,2.21,5,2.87,7.96,.66,2.96,1.18,6.14,2.21,9.13,.24,.79,1.21,2.02,1.71,3.27,1.57,3.76,4.04,7.13,7.38,9.27-.36-.86-.55-1.58-.85-2.36-1.76-1.37-3.2-3.25-4.1-5.3Z"/>
            <path class="cls-6" d="M224.87,198.55c.9,2.05,2.34,3.93,4.1,5.3-.16-.36-.34-.75-.59-1.16-3.06-4.35-5.3-10.27-6.78-16.15-.02,1.23,.06,2.56,.29,3.91,.41,2.57,1.7,5.3,2.97,8.09Z"/>
            <path class="cls-4" d="M224.87,198.55c.86,1.96,2.21,3.76,3.86,5.11-.45-.56-.92-1.12-1.35-1.71-2.25-2.99-3.77-6.66-4.55-10.43,1.15,3.96,2.7,7.84,5.29,10.79-2.92-4.3-5.08-10.05-6.52-15.75-.02,1.23,.07,2.56,.29,3.9,.41,2.57,1.7,5.3,2.97,8.09Z"/>
            <path class="cls-3" d="M222.36,192.75c.62,2.28,1.42,4.51,2.53,6.6,1.1,2.08,2.59,3.97,4.44,5.39-.08-.23-.16-.45-.23-.65-.13-.15-.25-.29-.37-.43-1.65-1.36-3-3.15-3.86-5.11-1.26-2.78-2.56-5.52-2.97-8.09-.23-1.34-.31-2.67-.29-3.9-.1-.4-.2-.8-.3-1.2-.72-2.67-1.48-5.38-2.51-8.03-1.02-2.65-2.33-5.27-4.17-7.56-.85-.95-1.84-1.82-2.86-2.66l-1.63-1.14c-.54-.39-1.15-.66-1.72-1.01-2.35-1.25-4.9-2.09-7.4-2.72,2.38,.48,4.78,1.14,7.09,2.2-2.5-1.27-5.17-2.03-7.8-2.59-2.29-.44-4.53-.62-6.72-.7-.48,.25-1.2,.43-2.42,.38-1.89-.08-3.73-.31-5.65-.39-.26-.05-.17-.27-.68-.38,1.43,.3,2.66,.31,3.73,.2-.65-.04-1.31-.08-1.97-.12-.66-.07-1.32-.14-1.98-.2-2.46-.42-4.4-1.28-6.33-2.37l-.66-.3c-1.1-.52-2.28-1.04-3.54-1.48,.47,.24,.94,.5,1.42,.76-.81-.27-1.77-.78-2.53-1.12,.37,.11,.74,.23,1.1,.36-1.14-.57-2.29-1.1-3.68-1.43,1.69,.4,3.3,1.03,4.6,1.56-1.34-.68-2.73-1.29-4.23-1.66-1.51-.35-3.06-.45-4.61-.4l.23-.07c-2.19,.35-4.16,1.08-6.14,1.75-1.98,.66-4.01,1.29-6.22,1.27-1.06-.02-1.72,.13-2.09,.4-.36,.25-.4,.57-.11,.64,2.61,.57,5.14,.18,7.44-.34,2.31-.52,4.5-1.18,6.68-1.44,2.19-.29,4.26-.06,6.24,.83,2,.84,3.92,2.14,6.15,3.05-.94-.55-1.79-1.21-2.65-1.84-.39-.25-.74-.51-1.06-.78l1.06,.78c1.04,.69,2.3,1.3,3.55,1.9,.21,.18,.98,.49,1.36,.35,1.72,.8,3.96,1.03,5.75,1.53,.11,.02,.28,.11,.48,.22,1.17,.15,2.34,.27,3.51,.36,3.27,.27,6.46,.47,9.53,1.02,3.05,.54,6,1.46,8.48,3.06-1.14-.85-2.34-1.58-3.51-2.2-.39-.21-.91-.46-1.54-.65-.64-.17-1.35-.37-2.13-.49-1.56-.26-3.3-.43-4.91-.55-.81-.03-1.26-.33-2.06-.42,2.88-.36,6.48,.5,9.6,1.33,2.08,.56,4.46,1.72,6.49,3.36,2.09,1.59,3.66,3.74,5.04,5.62,1.14,1.58,1.6,3.39,1.87,4.92-.33-.48-.7-1.46-.9-1.95-.89-2.19-2.07-4.27-3.59-6.08-1.55-1.78-3.5-3.21-5.65-4.22,1.06,.63,2.1,1.27,3.02,2.05,.97,.72,1.78,1.6,2.55,2.51,1.5,1.85,2.64,3.99,3.38,6.32-.56-1.32-1.11-2.62-1.81-3.81-.69-1.19-1.51-2.3-2.56-3.1,.11,.2,.22,.4,.34,.59,1.16,1.41,2.06,3,2.77,4.69,.31,.47,.65,.93,.92,1.43,1.37,2.18,2.21,5,2.87,7.96,.66,2.96,1.18,6.14,2.21,9.13,.16,.49,.59,1.19,1.03,1.93-.68-1.91-1.15-3.86-1.66-5.81,.12,.8,.23,1.58,.26,2.32-.58-1.83-.6-3.42-1.08-5.23,.31,.97,.56,1.94,.82,2.92-.19-1.2-.44-2.45-.67-3.7,.83,2.32,.7,4.7,1.85,6.98-.16-.5-.31-1.01-.42-1.52,.13,.52,.28,1.04,.43,1.55v-.03c.48,1.54,1.17,3.01,1.89,4.27-1.11-2.55-1.53-5.03-2.22-7.63l-.37-1.29c.13,.44,.25,.87,.37,1.29,.84,2.98,1.73,5.94,2.99,8.77,1.28,2.79,2.97,5.5,5.45,7.44,.16,.11,.32,.24,.49,.33-.09-.18-.16-.38-.23-.56-2.02-1.55-3.57-3.64-4.74-5.88-1.15-2.26-1.97-4.66-2.57-7.06Z"/>
          </g>
        </g>
        <g class="cls-16">
          <g class="cls-16">
            <path class="cls-5" d="M308.41,230.22c-1.19,.82-2.6,1.32-3.92,1.81-.67,.23-1.32,.45-1.94,.71-.63,.23-1.21,.53-1.75,.86-.24,.14-.49,.28-.75,.43l.43-.04c3.25-.31,6.69-1.67,9.37-3.69,1.61-1.35,2.85-3.09,4.43-4.67,.18-.17-.03-.41-.13-.53-.3,.02-.59,0-.87-.02-1.06,1.4-2.25,2.77-3.75,3.83-.5,.33-.78,1.14-1.12,1.31Z"/>
            <polygon class="cls-7" points="313.36 225.05 313.31 225.05 313.14 225.26 313.36 225.05"/>
            <path class="cls-4" d="M310.45,228.31c-.41,.44-.91,.77-1.39,1.1-.23,.35-.44,.69-.64,.81-1.19,.82-2.6,1.32-3.92,1.81-.67,.23-1.32,.45-1.94,.71-.63,.23-1.21,.53-1.75,.86-.23,.13-.48,.28-.74,.42,.15-.02,.31-.03,.46-.05,1.12-.12,2.27-.34,3.4-.69l.16-.11c.55-.41,1.19-.44,1.78-.67,1.55-.92,2.99-1.46,4.38-2.64,.51-.4,.82-1.11,1.42-1.56,.19-.17,.4-.3,.6-.45,.32-.38,.65-.76,1-1.13,.33-.38,.68-.77,1.06-1.13,.18-.17-.03-.41-.14-.53-.16,.01-.31,.01-.46,0-.61,.56-1.17,1.16-1.83,1.69-.47,.57-1.03,1.05-1.58,1.55,.04,0,.09,0,.14,0Z"/>
            <path class="cls-7" d="M310.1,227.97c-.08,.06-.05,.32,.21,.34,.55-.5,1.11-.99,1.58-1.55-.52,.48-1.13,.86-1.79,1.21Z"/>
            <path class="cls-8" d="M309.52,227.03c-.58,.36-1.11,.78-1.6,1.19-.52,.37-1.03,.73-1.59,.87-.59,.15-1.2,.24-1.78,.16-.17,.08-.33,.16-.5,.24-4.01,2.09-8.78,2.97-13.17,2.1-2.17-.35-4.34-.4-6.76-.77-1.4-.34-2.38-1.06-3.68-1.71-3.22-1.66-6.83-1.26-10.4-.57-.98,.2-.91,1.47-.69,1.45,2.76-.62,5.63-.1,8.36,.7,2.76,.81,5.5,1.89,8.51,2.52,4.69,1.02,9.23,1.25,13.81,.82,.26-.15,.51-.29,.75-.43,.55-.34,1.12-.64,1.75-.86,.61-.27,1.27-.48,1.94-.71,1.32-.49,2.73-.98,3.92-1.81,.34-.17,.62-.98,1.12-1.31,1.5-1.07,2.69-2.43,3.75-3.83-.58-.06-1.11-.19-1.58-.19-.61,.83-1.29,1.65-2.17,2.14Z"/>
            <path class="cls-6" d="M309.52,227.03c.89-.49,1.56-1.31,2.17-2.14-.23,0-.47,.02-.69,.1-2.24,1.13-4.15,3.08-6.46,4.26,.59,.08,1.19,0,1.78-.16,.57-.14,1.07-.5,1.59-.87,.5-.41,1.02-.83,1.6-1.19Z"/>
            <path class="cls-4" d="M309.52,227.03c.41-.24,.8-.54,1.15-.89,.33-.36,.64-.75,.95-1.14-.29,.17-.57,.36-.82,.57-1.32,1.06-2.67,2.16-4.28,2.71,1.57-.87,3.03-1.94,4.3-3.2-2.14,1.15-4.01,3.03-6.25,4.16,.58,.08,1.19,0,1.78-.16,.57-.14,1.07-.5,1.59-.87,.5-.41,1.02-.83,1.6-1.19Z"/>
            <path class="cls-3" d="M307.32,228.75c1.87-.93,3.63-2.17,4.95-3.85-.15-.02-.29-.03-.43-.04-.08,.05-.15,.1-.22,.14-.3,.39-.61,.78-.95,1.14-.35,.35-.73,.64-1.15,.89-.58,.36-1.11,.78-1.6,1.19-.52,.37-1.03,.73-1.59,.87-.59,.15-1.19,.24-1.78,.16l-.47,.22c-2.06,1.07-4.29,1.83-6.58,2.2-1.94,.7-4.23,.69-6.3,.2,.99,.11,1.99,.12,2.98,.05-.55,0-1.1-.06-1.65-.09-.55-.06-1.08-.16-1.62-.24-.93-.17-1.84-.24-2.78-.32-.25,.25-.61,.41-1.14,.36-.84-.09-1.62-.36-2.52-.34-.11-.04-.02-.26-.24-.34,.62,.22,1.19,.23,1.7,.11-.58-.05-1.18-.14-1.78-.23-1.1-.27-1.94-.77-2.88-1.29l-.33-.08c-.55-.14-1.14-.18-1.74-.21,.22,.08,.44,.16,.68,.24-.4,.02-.86-.14-1.2-.25,.18,0,.35,0,.52,.01-.53-.18-1.04-.36-1.62-.53,.7,.21,1.44,.31,2.08,.36-1.29-.37-2.5-.61-3.78-1.09l.11-.02c-1.94-.1-3.92,.17-5.91,.57-.98,.2-.91,1.47-.69,1.45,1.91-.42,3.92-.31,5.86,.08,1.95,.4,3.85,1.04,5.8,1.68-.38-.3-.77-.61-1.17-.9-.18-.1-.35-.21-.5-.36,.16,.12,.33,.24,.5,.36,.49,.27,1.08,.44,1.61,.76,.08,.11,.42,.24,.62,.07,.72,.44,1.71,.56,2.45,.98,.05,.02,.11,.11,.17,.21,.51,.13,1.03,.25,1.55,.36,1.46,.32,2.92,.55,4.36,.74,1.45,.14,2.88,.27,4.31,.27-.69-.1-1.35-.27-1.95-.51-.8-.33-2.52-.18-4-.33-.38,0-.54-.3-.89-.38,1.36-.36,2.88,.29,4.35,.29,1.89,.05,4.68,.42,6.66-.49,.79-.4,1.64-.29,2.38-.26-.21,.21-.67,.35-.91,.38-2.13,.46-4.3,.68-6.48,.78,2.29,.29,4.48-.16,6.8-.36-1.33,.36-2.67,.26-3.89,.74,.11,.05,.23,.09,.35,.12,.9-.06,1.81-.07,2.71-.19,.26-.15,.51-.29,.74-.42,.55-.34,1.12-.64,1.75-.86,.61-.27,1.27-.48,1.94-.71,1.32-.49,2.73-.98,3.92-1.81,.2-.12,.41-.46,.64-.81-.79,.47-1.6,.88-2.42,1.28,.36-.1,.73-.16,1.09-.19-.74,.47-1.52,.49-2.28,.89,.4-.24,.78-.5,1.19-.7-.54,.15-1.07,.38-1.63,.54,.46-.34,.97-.49,1.48-.67,.52-.16,1.02-.38,1.4-.86-.2,.13-.41,.24-.63,.34l.64-.35h0c.63-.36,1.14-.9,1.58-1.39-1.01,.73-2.12,1.04-3.17,1.61-.17,.1-.34,.21-.51,.31,.17-.11,.34-.22,.51-.31,2.36-1.39,4.79-2.74,6.85-4.65l.16-.21-.38-.05c-1.64,1.59-3.59,2.87-5.61,3.75Z"/>
          </g>
        </g>
        <g class="cls-16">
          <g class="cls-16">
            <path class="cls-5" d="M341.96,224.67c-.78,.32-1.64,.31-2.41,.35-.76,.03-1.47,.13-2.07,.59-.13,.09-.26,.19-.41,.29,.08,.01,.15,.02,.23,.03,.88,.12,1.76,.15,2.69,.07,.96-.08,1.96-.32,2.92-.79,1.14-.71,2.12-1.95,2.83-3.37,.08-.16-.2-.3-.35-.36-.24,.06-.49,.07-.73,.06-.26,.96-1.01,1.89-1.98,2.33-.32,.12-.51,.74-.73,.79Z"/>
            <path class="cls-7" d="M344.72,221.53h-.05s-.02,.1-.04,.14c.04-.04,.06-.09,.09-.14Z"/>
            <path class="cls-4" d="M343.28,223.63c-.26,.25-.58,.42-.9,.52-.15,.22-.29,.48-.42,.51-.78,.32-1.64,.31-2.41,.35-.76,.03-1.47,.13-2.07,.59-.12,.09-.26,.19-.4,.29,.08,.01,.16,.02,.25,.03,.6,.08,1.22,.12,1.84,.11l.09-.06c.3-.25,.67-.04,1.03-.08,.96-.35,1.89-.33,2.9-.95,.36-.22,.57-.75,.99-1.01,.14-.11,.28-.19,.42-.29,.44-.55,.81-1.17,1.14-1.84,.08-.16-.2-.29-.35-.36-.13,.03-.26,.05-.39,.06-.25,.43-.53,.84-.9,1.17-.26,.35-.57,.66-.94,.91,.03,.02,.06,.03,.1,.04Z"/>
            <path class="cls-7" d="M343.01,223.24c-.05,.02,0,.26,.17,.36,.36-.25,.68-.56,.94-.91-.32,.27-.69,.47-1.11,.55Z"/>
            <path class="cls-8" d="M342.52,222.25c-.6,.18-1.11,.79-1.76,.65-.33-.05-.67-.21-.99-.47-.09,.02-.19,.05-.28,.06-2.47,.65-5.06,1.04-7.61,.82-1.28-.02-2.43,.55-3.74,.94-.78,.11-1.41-.26-2.16-.48-1.87-.65-3.54,.61-5.53,.9-.53,.08-.71,1.32-.58,1.35,3.35-.26,6.47,.38,9.79-.1,2.56-.34,4.96-.35,7.43-.02,.14-.1,.28-.2,.41-.29,.6-.46,1.31-.56,2.07-.59,.77-.04,1.62-.03,2.41-.35,.22-.05,.41-.67,.73-.79,.97-.44,1.72-1.37,1.98-2.33-.51-.03-.97-.17-1.32-.27-.07,.41-.35,.87-.83,.97Z"/>
            <path class="cls-6" d="M342.52,222.25c.48-.1,.76-.56,.83-.97-.18-.05-.31-.08-.43-.09-.51,.05-.87,.22-1.39,.5-.51,.26-1.11,.58-1.76,.75,.31,.26,.66,.42,.99,.47,.66,.13,1.16-.47,1.76-.65Z"/>
            <path class="cls-4" d="M342.52,222.25c.46-.1,.74-.52,.82-.92-.12,.06-.25,.11-.34,.19-.51,.38-1.25,.79-2.13,.72,.85-.22,1.62-.58,1.96-1.05-.46,.06-.83,.25-1.33,.52-.5,.26-1.08,.56-1.72,.73,.31,.26,.65,.42,.98,.47,.66,.13,1.16-.47,1.76-.65Z"/>
            <path class="cls-3" d="M341.32,222.96c1.05-.14,2.18-.63,2.46-1.58-.12-.03-.23-.06-.34-.09-.04,.02-.07,.03-.11,.04-.08,.39-.36,.82-.82,.92-.6,.18-1.11,.79-1.76,.65-.33-.05-.67-.21-.98-.47-.09,.02-.18,.04-.27,.06-1.24,.33-2.56,.6-3.85,.75-1.09,.51-2.35,.52-3.56,.32,.56-.03,1.12-.08,1.68-.19-.62,.02-1.25,0-1.88-.05-.54-.01-1.06,.09-1.58,.23-.09,.3-.25,.55-.55,.64-.45,.13-.9,.11-1.37,.4-.06,0-.06-.24-.19-.25,.36,.03,.65-.15,.9-.4-.31,.11-.63,.22-.96,.32-.61,.08-1.13-.12-1.69-.33-.06,0-.12,.02-.18,.03-.3,.04-.61,.16-.92,.31,.12,.01,.25,.02,.38,.04-.2,.14-.46,.11-.65,.09,.09-.04,.18-.09,.27-.13-.3-.03-.58-.06-.9-.09,.38,.05,.78-.08,1.11-.2-.71,.01-1.36,.1-2.05-.14l.05-.04c-1,.26-2.01,.73-3.12,.88-.53,.08-.71,1.32-.58,1.35,2.35-.18,4.56,.08,6.83,.08-.26-.17-.52-.34-.77-.5-.11-.04-.22-.1-.32-.2,.1,.06,.21,.13,.32,.2,.3,.11,.64,.09,.97,.23,.06,.08,.26,.1,.34-.13,.45,.19,.99-.01,1.44,.17,.03,0,.07,.07,.13,.15,.29-.03,.57-.06,.86-.1,1.6-.21,3.14-.3,4.67-.25-.38-.12-.74-.25-1.08-.45-.46-.32-1.37,.07-2.16,.2-.2,.07-.33-.17-.52-.18,.66-.68,1.56-.27,2.35-.42,1.03-.15,2.56,.31,3.64-.29,.44-.25,.91-.04,1.32,.18-.12,.16-.38,.18-.51,.18-1.18,.05-2.35,.08-3.53,.24,1.25,.24,2.42-.04,3.69,.22-.72,.11-1.46-.17-2.1,.23,.06,.05,.13,.1,.19,.14,.48,.04,.97,.09,1.46,.16,.14-.1,.28-.2,.4-.29,.6-.46,1.31-.56,2.07-.59,.77-.04,1.62-.03,2.41-.35,.13-.03,.27-.3,.42-.51-.51,.17-1.02,.22-1.52,.33,.22,.03,.43,.09,.66,.2-.47,.18-.93-.08-1.39,.05,.24-.12,.48-.19,.73-.25-.32-.04-.64-.03-.97-.05,.54-.36,1.25,.17,1.75-.42-.12,.05-.26,.07-.39,.07l.39-.08h0c.38-.12,.71-.41,.97-.69-.62,.3-1.29,.16-1.91,.32-.1,.03-.2,.07-.31,.11,.1-.05,.2-.08,.31-.11,.71-.24,1.41-.4,2.1-.66,.68-.26,1.37-.65,1.82-1.31,.02-.05,.03-.09,.04-.14-.11,0-.22-.01-.33-.03-.65,1.01-1.88,1.41-3.03,1.46Z"/>
          </g>
        </g>
        <g class="cls-16">
          <g class="cls-16">
            <path class="cls-5" d="M226.23,216.01c-1.92-1.6-2.88-4.05-4.65-5.28-.18-.14-.38-.28-.59-.44l.15,.33c1.12,2.46,2.94,4.97,5.29,6.69,.76,.49,1.6,.87,2.46,1.24,.45,.19,.89,.38,1.29,.55l.23,.1c.09,.04,.19,.07,.28,.09,.18,.05,.36,.09,.56,.11,.2,.02,.41,.03,.68-.01,.26-.05,.62-.14,.97-.48,.31-.32,.29-.62,.23-.75-.07-.13-.19-.18-.26-.2-.12,.22-.35,.39-.54,.43-.2,.05-.35-.02-.46-.1-.4,.15-.83,.09-1.22-.06-.35-.14-.71-.27-1.05-.44-.7-.32-1.36-.72-1.98-1.2-.38-.34-1.16-.32-1.38-.56Z"/>
            <path class="cls-7" d="M231.95,218.28l-.05-.03c-.08,.04-.16,.06-.24,.08,.09,0,.19-.01,.29-.05Z"/>
            <path class="cls-4" d="M228.33,217.17c-.46-.23-.87-.53-1.24-.87-.35-.1-.71-.15-.85-.3-1.92-1.6-2.88-4.05-4.65-5.28-.18-.14-.38-.28-.58-.43,.05,.12,.11,.23,.16,.35,.39,.85,.87,1.71,1.41,2.54l.14,.09c.51,.3,.63,.86,.97,1.28,1.13,1.03,1.9,2.09,3.22,2.96,.47,.31,1.15,.36,1.67,.75,.19,.12,.37,.24,.53,.37,.41,.19,.77,.31,1.24,.53,.36,.15,.67,.22,1.06,.24,.19,.01,.41,0,.67-.06,.26-.06,.62-.2,.92-.56,.28-.36,.23-.64,.16-.75-.08-.13-.19-.16-.27-.19-.12,.23-.33,.41-.53,.47-.28,.26-.56,.27-.78,.27-.23,0-.43-.05-.63-.12-.21-.07-.38-.18-.52-.26l-.46-.27c-.57-.25-1.14-.54-1.67-.88,0,.04,.01,.08,.03,.12Z"/>
            <path class="cls-7" d="M228.56,216.75c-.07-.06-.29,.06-.27,.3,.53,.35,1.1,.63,1.67,.88-.5-.33-.99-.7-1.41-1.18Z"/>
            <path class="cls-8" d="M229.29,215.91c-.83-.78-1.93-1.21-2.41-2.09-.26-.45-.43-.96-.47-1.48-.11-.11-.22-.22-.32-.34-2.73-2.76-4.77-6.24-6.48-9.92-.94-1.81-2.38-3.19-3.89-4.7-.79-.97-1.14-1.98-1.68-3.05-.64-1.36-1.5-2.27-2.3-3.27-.78-.99-1.57-2.19-1.61-3.69,0-.78-1.13-1.25-1.2-1.04-.26,1.54-.04,3.01,.39,4.31,.42,1.31,1.08,2.5,1.8,3.57,.72,1.08,1.5,2.07,2.25,3.04,.72,.97,1.45,1.94,2.22,2.97,2.31,3.18,3.84,6.57,5.42,10.06,.21,.15,.4,.3,.59,.44,1.77,1.23,2.73,3.68,4.65,5.28,.22,.23,1,.21,1.38,.56,.62,.48,1.29,.88,1.98,1.2,.34,.17,.7,.3,1.05,.44,.38,.16,.81,.21,1.22,.06-.43-.37-.46-.92-.45-1.26-.02,0-.04,.01-.05,.02-.03,0-.1-.03-.14-.04-.1-.03-.21-.07-.31-.1-.21-.07-.41-.15-.6-.24-.39-.18-.74-.43-1.04-.72Z"/>
            <path class="cls-6" d="M229.29,215.91c.3,.3,.65,.54,1.04,.72,.19,.1,.39,.18,.6,.24,.1,.03,.2,.07,.31,.1,.05,.01,.11,.04,.14,.04,.01,0,.03-.01,.05-.02,0-.04,.01-.08,.03-.12,0,0,.03-.06,0-.02,.04-.07,0-.06,0-.1-.04-.1-.08-.19-.14-.27-.7-.79-1.52-1.42-2.39-2.07-.86-.65-1.76-1.32-2.52-2.1,.05,.52,.22,1.03,.47,1.48,.48,.88,1.58,1.32,2.41,2.09Z"/>
            <path class="cls-4" d="M229.29,215.91c.55,.57,1.39,.92,2.1,1.1-.12-.15-.4-.35-.61-.49-1.15-.79-2.35-1.61-3.13-2.82,1.07,1.05,2.24,1.99,3.56,2.65-1.37-1.46-3.3-2.48-4.79-4.02,.05,.52,.22,1.03,.47,1.48,.48,.88,1.58,1.32,2.41,2.09Z"/>
            <path class="cls-3" d="M227.36,214.56c.58,.66,1.23,1.27,1.94,1.79,.35,.27,.73,.49,1.12,.71,.2,.09,.4,.19,.6,.29l.15,.06s.06,.01,.09,.02c.07,.01,.14,.01,.2,.01-.02-.12-.03-.24-.03-.35-.02-.03-.04-.06-.04-.08-.7-.18-1.55-.54-2.1-1.1-.83-.78-1.93-1.21-2.41-2.09-.26-.45-.42-.96-.47-1.48-.1-.1-.2-.21-.3-.32-1.39-1.4-2.62-3.01-3.7-4.72-1.27-1.29-2.15-3.04-2.86-4.82,.44,.78,.9,1.54,1.39,2.28-.46-.87-.9-1.75-1.32-2.65-.4-.77-.88-1.46-1.43-2.11-.34,0-.69-.1-1.01-.45-.49-.55-.85-1.18-1.5-1.63-.05-.09,.15-.2,.04-.38,.31,.49,.69,.79,1.13,1-.37-.37-.75-.75-1.12-1.12-.62-.76-.96-1.55-1.35-2.37l-.2-.21c-.32-.35-.71-.64-1.11-.94,.11,.16,.21,.32,.33,.49-.3-.16-.52-.49-.68-.74,.12,.09,.24,.17,.35,.25-.25-.38-.48-.75-.71-1.16,.28,.5,.74,.92,1.14,1.24-.66-.85-1.3-1.61-1.56-2.59l.07,.05c-.88-1.07-1.84-2.34-1.9-4.02,0-.77-1.13-1.26-1.21-1.03-.35,2.17,.22,4.12,1.02,5.81,.82,1.7,1.93,3.13,2.98,4.5-.11-.42-.22-.84-.33-1.25-.07-.16-.13-.33-.15-.51,.05,.17,.1,.34,.15,.51,.2,.44,.54,.84,.74,1.32,0,.13,.16,.37,.42,.33,.26,.66,.89,1.21,1.11,1.89,.02,.03,0,.13-.02,.24,.25,.34,.51,.69,.77,1.05,1.44,1.98,2.59,4.07,3.62,6.19-.16-.56-.29-1.12-.35-1.66-.04-.76-1.03-1.86-1.74-2.86-.21-.23-.09-.52-.24-.78,1.12,.58,1.41,2.01,2.11,3.02,.88,1.37,1.52,3.66,2.88,4.89,.56,.5,.72,1.21,.85,1.85-.25-.09-.46-.44-.57-.61-.96-1.57-1.82-3.18-2.8-4.73,.67,1.81,1.74,3.32,2.49,5.14-.67-.93-.95-2.05-1.78-2.77,0,.11,0,.21,0,.32,.3,.66,.61,1.34,.94,2.06,.2,.15,.4,.3,.58,.43,1.77,1.23,2.73,3.68,4.65,5.28,.15,.14,.51,.2,.85,.3-.58-.53-1.07-1.13-1.61-1.69,.16,.28,.29,.57,.38,.88-.57-.49-.72-1.16-1.24-1.67,.32,.24,.59,.52,.87,.79-.24-.41-.54-.81-.8-1.22,.81,.52,.93,1.62,1.92,1.98-.15-.13-.29-.28-.41-.44l.42,.45h-.01c.46,.41,1.03,.7,1.55,.91-.84-.64-1.31-1.52-2.02-2.24-.12-.11-.25-.22-.38-.34,.14,.11,.26,.22,.38,.34,.86,.79,1.68,1.6,2.56,2.38,.44,.39,.89,.76,1.36,1.11,.48,.31,.93,.78,1.61,.78,.08-.02,.16-.04,.24-.08-.11-.07-.19-.16-.25-.26-.42,.03-.78-.24-1.19-.52-.4-.27-.78-.56-1.15-.87-.73-.62-1.39-1.31-1.96-2.04Z"/>
          </g>
        </g>
        <g class="cls-16">
          <g class="cls-16">
            <path class="cls-5" d="M115.63,51.44c-1.01,1.61-2.78,2.8-3.1,4.56-.05,.19-.08,.39-.12,.58l.21-.19c1.59-1.45,3.03-3.23,4.13-5.09,.58-1.22,.92-2.64,1.85-3.78,.1-.13-.14-.33-.26-.43-.25,0-.5-.02-.75-.06-.56,1.08-1.02,2.21-1.73,3.22-.26,.32-.09,.99-.25,1.18Z"/>
            <polygon class="cls-7" points="117.66 47.03 117.62 47.02 117.53 47.18 117.66 47.03"/>
            <path class="cls-4" d="M116.34,49.69c-.16,.38-.37,.71-.61,1.02-.03,.29,0,.61-.1,.73-1.01,1.61-2.78,2.8-3.1,4.56-.04,.19-.08,.38-.12,.58l.22-.21c.55-.5,1.08-1.05,1.59-1.62l.03-.13c.08-.47,.52-.64,.78-.95,.54-1.04,1.28-1.7,1.82-2.75,.2-.37,.15-.94,.46-1.32,.09-.14,.2-.26,.31-.38,.26-.6,.57-1.2,1-1.73,.1-.13-.14-.33-.26-.43-.13,0-.26,0-.39-.02-.37,.42-.68,.88-1.03,1.33-.22,.45-.45,.89-.71,1.32,.03,0,.07,0,.11-.02Z"/>
            <path class="cls-7" d="M115.93,49.46c-.04,.05,.09,.26,.31,.25,.26-.43,.49-.88,.71-1.32-.29,.38-.61,.75-1.01,1.07Z"/>
            <path class="cls-8" d="M115.07,48.76c-.68,.71-.88,1.71-1.58,2.2-.35,.27-.78,.47-1.24,.59-.07,.11-.15,.23-.22,.33-1.7,2.86-3.54,5.54-5.71,8.1-1.02,1.34-1.4,2.96-1.88,4.64-.38,.95-1.08,1.51-1.67,2.38-.79,1.06-1.01,2.3-.98,3.55,.02,1.25,.3,2.49,.49,3.74,.1,.68,1.37,.72,1.38,.57-.28-1.91,.06-3.85,.73-5.65,.66-1.81,1.56-3.53,2.45-5.36,1.4-2.84,3.35-5.16,5.58-7.24,.04-.2,.07-.39,.12-.58,.31-1.76,2.09-2.95,3.1-4.56,.16-.19-.01-.86,.25-1.18,.7-1.02,1.17-2.15,1.73-3.22-.52-.07-1.01-.18-1.43-.18-.28,.7-.57,1.4-1.1,1.89Z"/>
            <path class="cls-6" d="M115.07,48.76c.53-.5,.82-1.19,1.1-1.89-.21,0-.4,.03-.56,.11-1.61,1.05-2.36,3-3.36,4.57,.46-.12,.89-.32,1.24-.59,.7-.49,.9-1.49,1.58-2.2Z"/>
            <path class="cls-4" d="M115.07,48.76c.51-.47,.79-1.13,1.06-1.8-.19,.15-.37,.32-.52,.51-.78,.95-1.43,2.01-2.39,2.81,.77-1.05,1.54-2.11,2.24-3.22-1.51,1.08-2.24,2.96-3.21,4.48,.46-.12,.89-.32,1.23-.59,.7-.49,.9-1.49,1.58-2.2Z"/>
            <path class="cls-3" d="M114.08,50.48c.99-1.1,1.92-2.25,2.6-3.61-.13-.02-.26-.03-.38-.03-.06,.04-.11,.08-.16,.12-.27,.67-.55,1.32-1.06,1.8-.68,.71-.88,1.71-1.58,2.2-.35,.27-.78,.47-1.23,.59l-.21,.31c-.87,1.45-1.77,2.88-2.73,4.25-.52,1.42-1.54,2.65-2.63,3.79,.42-.6,.82-1.21,1.19-1.84-.5,.64-1,1.27-1.53,1.9-.43,.57-.75,1.18-1.01,1.84,.17,.27,.27,.59,.14,.96-.2,.57-.52,1.06-.57,1.72-.04,.07-.24-.06-.33,.08,.25-.39,.3-.8,.25-1.22-.12,.42-.24,.84-.36,1.25-.31,.74-.79,1.25-1.28,1.85-.03,.08-.05,.16-.07,.23-.12,.39-.16,.81-.16,1.25,.06-.15,.14-.3,.22-.46,.03,.29-.11,.6-.21,.84,0-.13,0-.26,0-.38-.15,.36-.31,.71-.46,1.1,.19-.47,.25-1.01,.28-1.47-.32,.9-.49,1.75-.94,2.61l-.02-.08c-.04,1.39,.28,2.77,.49,4.16,.1,.68,1.36,.72,1.38,.57-.42-2.7,.49-5.33,1.62-7.77-.29,.2-.57,.42-.83,.66-.09,.11-.2,.21-.33,.29,.11-.1,.22-.19,.33-.29,.24-.3,.39-.69,.69-.99,.11-.03,.22-.24,.05-.43,.42-.4,.54-1.08,.99-1.47,.02-.03,.11-.04,.21-.06,.15-.31,.3-.62,.46-.95,.87-1.77,1.97-3.35,3.21-4.79-.39,.28-.77,.55-1.18,.76-.6,.25-1,1.4-1.46,2.28-.08,.24-.36,.24-.51,.43-.1-1.09,.92-1.77,1.4-2.64,.69-1.13,2.25-2.29,2.7-3.72,.18-.6,.72-.89,1.22-1.12,.02,.23-.19,.48-.29,.61-.93,1.15-1.86,2.29-2.66,3.54,1.16-1.06,1.91-2.35,3.13-3.36-.51,.75-1.32,1.25-1.53,2.14,.09-.02,.17-.05,.26-.08,.42-.43,.84-.85,1.29-1.26,.04-.2,.07-.39,.12-.58,.31-1.76,2.09-2.95,3.1-4.56,.1-.12,.07-.44,.1-.73-.38,.48-.81,.92-1.17,1.42,.21-.16,.43-.28,.7-.36-.3,.5-.85,.68-1.16,1.17,.12-.3,.28-.56,.46-.81-.31,.23-.57,.53-.86,.8,.22-.77,1.17-.94,1.27-1.81-.09,.13-.19,.26-.31,.37l.31-.38h0c.28-.4,.44-.88,.58-1.33-.48,.7-1.19,1.13-1.66,1.82-.07,.12-.14,.24-.21,.36,.06-.13,.13-.25,.21-.36,.99-1.63,2.4-2.97,3.64-4.43l.08-.16-.34-.05c-.99,1.23-2.07,2.43-3.2,3.52Z"/>
          </g>
        </g>
        <g class="cls-16">
          <g class="cls-16">
            <path class="cls-5" d="M314.58,235.8c-.54,.42-1.25,.66-1.92,.84-.65,.22-1.26,.41-1.72,.95-.1,.1-.21,.21-.33,.33,.07,0,.14,0,.22,0,1.63,.06,3.51-.66,4.69-1.76,.68-.77,1.06-1.79,1.89-2.36,.09-.06-.1-.31-.2-.44-.21-.09-.41-.2-.61-.32-.51,.65-.96,1.39-1.65,1.91-.24,.14-.21,.76-.37,.84Z"/>
            <polygon class="cls-7" points="316.65 233.06 316.61 233.03 316.53 233.13 316.65 233.06"/>
            <path class="cls-4" d="M315.39,234.69c-.16,.24-.38,.42-.61,.56-.06,.22-.09,.49-.19,.54-.54,.42-1.25,.66-1.92,.84-.65,.22-1.26,.41-1.72,.95-.1,.1-.21,.21-.33,.33,.08,0,.15,0,.23,0,.57,.02,1.16-.06,1.74-.2l.07-.08c.22-.33,.61-.21,.91-.32,.74-.56,1.48-.78,2.09-1.42,.22-.22,.24-.71,.54-.89,.09-.08,.19-.14,.29-.19,.27-.39,.55-.75,.94-1.02,.09-.06-.1-.31-.2-.44-.11-.05-.22-.1-.32-.16-.33,.19-.61,.45-.92,.67-.21,.27-.43,.54-.68,.78,.03,.01,.06,.02,.09,.03Z"/>
            <path class="cls-7" d="M315.07,234.33s.05,.24,.23,.33c.25-.24,.47-.51,.68-.78-.26,.19-.55,.36-.91,.45Z"/>
            <path class="cls-8" d="M314.44,233.42c-.58,.27-.84,.95-1.43,.97-.29,.02-.63-.05-.95-.24-.06,.04-.13,.08-.2,.11-1.6,1.06-3.71,1.49-5.79,1.13-1.04-.09-2.05,.41-3.19,.72-.67,.06-1.19-.33-1.85-.58-1.64-.69-3.18,.61-4.79,1.19-.44,.15-.35,1.41-.24,1.41,2.6-.82,5.24,0,8.06-.27,2.21-.19,4.25-.01,6.55,.05,.12-.12,.23-.23,.33-.33,.46-.54,1.07-.73,1.72-.95,.66-.18,1.37-.42,1.92-.84,.16-.09,.12-.7,.37-.84,.69-.52,1.14-1.26,1.65-1.91-.42-.25-.82-.52-1.17-.68-.26,.45-.53,.89-.99,1.05Z"/>
            <path class="cls-6" d="M314.44,233.42c.46-.17,.73-.6,.99-1.05-.17-.08-.33-.13-.46-.13-1.35,.2-1.98,1.33-2.91,1.91,.33,.18,.66,.26,.95,.24,.59-.02,.85-.7,1.43-.97Z"/>
            <path class="cls-4" d="M314.44,233.42c.44-.16,.71-.56,.95-.99-.17,.05-.31,.11-.45,.2-.67,.44-1.26,.99-2.04,1.11,.67-.4,1.33-.89,1.95-1.49-1.26,.26-1.89,1.34-2.78,1.9,.32,.18,.66,.25,.95,.23,.59-.02,.85-.7,1.43-.97Z"/>
            <path class="cls-3" d="M313.51,234.32c.88-.37,1.72-.92,2.33-1.75-.11-.06-.22-.12-.31-.17-.05,.01-.09,.02-.13,.03-.25,.43-.52,.83-.95,.99-.58,.27-.84,.95-1.43,.97-.29,.02-.63-.05-.95-.23-.06,.04-.12,.07-.19,.1-.81,.55-1.77,.92-2.78,1.11-.81,.56-1.88,.53-2.86,.27,.47,.01,.92-.05,1.37-.13-.51,0-1.01-.03-1.53-.12-.44-.03-.88,.03-1.32,.15-.1,.29-.24,.54-.5,.61-.39,.11-.77,.06-1.19,.32-.05,0-.03-.24-.14-.26,.31,.04,.57-.1,.79-.35-.27,.09-.55,.18-.84,.26-.53,.05-.96-.18-1.44-.41-.05,0-.11,.01-.16,.02-.27,.03-.54,.15-.81,.29,.11,.01,.22,.03,.33,.04-.18,.13-.4,.1-.57,.08,.08-.04,.16-.09,.24-.13-.26-.03-.51-.06-.79-.1,.34,.04,.69-.08,.98-.2-.62,0-1.19,.09-1.81-.13l.05-.04c-.89,.31-1.74,.83-2.65,1.17-.45,.15-.35,1.41-.24,1.41,1.8-.56,3.67-.35,5.55-.25-.21-.18-.41-.36-.62-.53-.09-.04-.18-.11-.26-.2,.08,.07,.17,.13,.26,.2,.25,.12,.54,.11,.81,.26,.05,.09,.21,.11,.29-.12,.37,.21,.83,.04,1.21,.25,.02,0,.06,.07,.1,.16,.24,0,.49-.03,.74-.05,1.38-.11,2.7-.1,4.05-.05-.34-.11-.65-.26-.95-.46-.39-.32-1.17,.02-1.86,.1-.17,.06-.27-.19-.44-.21,.6-.64,1.34-.18,2.01-.3,.86-.09,2.21,.34,3.08-.33,.34-.3,.77-.1,1.16,.04-.07,.18-.3,.23-.41,.25-1.02,.19-2.03,.23-3.04,.39,1.09,.24,2.09-.05,3.26,.05-.64,.19-1.31-.04-1.85,.38,.06,.05,.12,.09,.18,.13,.44,.02,.88,.05,1.34,.05,.12-.12,.23-.23,.33-.33,.46-.54,1.07-.73,1.72-.95,.66-.18,1.37-.42,1.92-.84,.1-.05,.13-.32,.19-.54-.37,.23-.78,.38-1.16,.59,.19-.02,.39-.01,.61,.05-.34,.26-.8,.13-1.15,.35,.17-.17,.35-.29,.53-.4-.28,.03-.54,.12-.82,.17,.34-.46,1.1-.13,1.33-.77-.09,.06-.19,.12-.3,.15l.3-.16h0c.28-.19,.47-.5,.62-.8-.46,.35-1.07,.37-1.53,.66-.07,.05-.14,.11-.22,.17,.07-.07,.14-.12,.22-.17,1.01-.75,2.23-1.25,3.32-1.96l.08-.1-.28-.17c-.87,.61-1.83,1.15-2.82,1.45Z"/>
          </g>
        </g>
      </g>
    </g>
  </g>
</svg>