<?xml version="1.0" encoding="UTF-8"?>
<svg id="_Слой_2" data-name="Слой 2" xmlns="http://www.w3.org/2000/svg" xmlns:xlink="http://www.w3.org/1999/xlink" viewBox="0 0 355.95 377.92">
  <defs>
    <style>
      .cls-1 {
        fill: none;
      }

      .cls-2 {
        clip-path: url(#clippath);
      }

      .cls-3 {
        fill: #f3f9fb;
      }

      .cls-4 {
        fill: #f7fbfc;
      }

      .cls-5 {
        fill: #f8fcfd;
      }

      .cls-6 {
        fill: #f4fafb;
      }

      .cls-7 {
        fill: #f5fafb;
      }

      .cls-8 {
        fill: #fbfdfe;
      }

      .cls-9 {
        fill: #666361;
      }

      .cls-10 {
        fill: #42413c;
      }

      .cls-11 {
        fill: #a2dbed;
      }

      .cls-12 {
        fill: #6e7c6e;
      }

      .cls-13 {
        fill: #515151;
      }

      .cls-14 {
        opacity: .58;
      }

      .cls-15 {
        opacity: .49;
      }

      .cls-16 {
        opacity: .8;
      }
    </style>
    <clipPath id="clippath">
      <rect class="cls-1" width="355.95" height="377.92"/>
    </clipPath>
  </defs>
  <g id="_камни" data-name="камни">
    <g class="cls-2">
      <g>
        <g>
          <g class="cls-15">
            <path class="cls-12" d="M112.05,130.75c-4.15-27.86,14.44-55.38,39.23-70.36,24.79-14.98,54.71-19.71,83.87-22.35,35.79-3.24,73.85-3.39,105.21,13.49,20.71,11.14,37.99,31.75,36.62,54.53-1.15,19.13-14.68,35.19-27.58,49.79-8.06,9.12-16.24,18.36-26.44,25.22-9.2,6.19-19.77,10.25-30.52,13.37-39.99,11.59-83.89,10.34-123.1-3.51-15.77-5.57-31.09-13.34-42.44-25.24-11.35-11.9-18.28-28.43-15.46-44.35"/>
            <path class="cls-12" d="M140.19,172.85c8.96,6.34,19.12,11.13,29.66,14.78,3.95,1.29,7.85,3.11,12.29,3.36,1.1,.06,2.52,.7,4.17,1.29,1.65,.62,3.5,1.34,5.38,1.78,10.19,2.21,20.56,3.9,30.99,4.51,10.15,.59,20.28,.13,30.36-.81,9.97-.92,20.33-2.08,29.6-4.89,2.02-.55,3.96-1.19,5.9-1.68,1.94-.5,3.86-.97,5.75-1.5,3.78-1.03,7.48-2.15,11.1-3.73,3.83-1.68,7.62-3.57,11.21-5.68,3.6-2.09,6.99-4.4,10.26-6.85,4.76-3.54,9.26-7.54,13.23-12.12,2.48-2.86,4.43-5.9,7.22-9,2.58-2.86,5.79-5.88,7.05-9.12,.1-.27,1.34-1.46,1.98-2.05,3.1-2.76,6.02-6.84,7.38-9.95,1.35-3.01,2.81-5.44,4.05-8.13,3.44-7.35,5.36-15.23,4.62-23.01-.46-5.81-1.85-11.7-4.7-17.11-2.93-5.67-7.61-10.75-11.51-15.25-3.95-4.57-8.63-8.12-13.7-11.2-.73-.42-1.48-.88-2.24-1.35-.75-.47-1.52-.95-2.33-1.32-1.59-.78-3.18-1.4-4.65-1.53-.26-.05-1.43-.54-1.93-.85-2.09-1.26-4.24-2.41-6.53-3.2-1.14-.42-2.28-.82-3.43-1.19-1.16-.35-2.35-.62-3.52-.92-1.18-.28-2.35-.59-3.55-.83-1.2-.23-2.39-.46-3.59-.69-2.38-.53-4.81-.88-7.22-1.45-9.97-2.24-20.57-2.76-31-2.89-2.78-.06-5.77-.33-8.33,.48-.9,.26-3.82,.39-5.25,.25-7.77-.82-15.93,.41-23.89,.95-9.1,.64-18.08,2.15-27.21,2.81-3.86,.31-9.12,1.04-13.39,3.09-.49,.23-1.13,.43-1.87,.62-.73,.21-1.56,.41-2.42,.6-.87,.19-1.77,.39-2.66,.59-.88,.22-1.74,.46-2.52,.71-2.6,.79-4.92,2.07-7.44,2.89-1.06,.38-2.15,.68-3.27,.95-1.11,.27-2.24,.51-3.33,.87-.65,.2-1.43,.52-2.03,.83-5.78,3.03-11.57,5.85-17.09,9.12-5.49,3.25-10.76,7.07-15.24,11.75-4.5,4.69-8.52,9.86-11.88,15.4-3.35,5.54-6.02,11.49-7.64,17.68-.12,.43-.26,.85-.36,1.28l-.26,1.29c-.19,.86-.38,1.72-.56,2.57-.24,.85-.28,1.71-.44,2.55-.14,.84-.28,1.68-.44,2.49-.25,1.64-.41,3.22-.74,4.72-.19,.75-.23,1.47-.37,2.17-.13,.7-.28,1.37-.46,2.02-.66,2.33-1.58,2.57-2.46-.62-.16-.59-.32-1.2-.48-1.82-.08-.32-.15-.64-.23-.96-.04-.33-.09-.66-.13-.99-.16-1.33-.29-2.72-.34-4.11,.02-1.11,.11-2.21,.15-3.32,.07-1.11,.07-2.22,.26-3.31,.31-2.18,.54-4.38,1.11-6.47,.27-1.09,.49-2.21,.78-3.3l.99-3.24,.49-1.63,.61-1.58c.42-1.06,.83-2.11,1.25-3.17,.44-1.05,.98-2.05,1.49-3.08,.54-1.01,1-2.07,1.64-3.03,1.23-1.94,2.44-3.94,3.98-5.71,.94-1.11,1.73-2.49,2.74-3.62,.97-1.16,1.97-2.22,3.07-2.84,.3-.18,1.17-.98,1.51-1.43,.95-1.22,1.87-2.49,2.94-3.62,1.06-1.14,2.16-2.27,3.27-3.38,1.17-1.05,2.37-2.08,3.58-3.1,1.2-1.04,2.53-1.91,3.8-2.86,5.21-3.68,10.82-6.66,16.42-9.43,4.79-2.31,9.53-4.55,14.41-6.49,4.89-1.87,9.9-3.56,15.15-4.58,5.44-2.45,12.31-3.62,18.19-4.24,10.39-1.08,20.69-2.1,31.01-2.98,10.32-.89,20.71-1.63,31.14-1.51,10.57,.13,21.2,.81,31.74,2.48l1.98,.3,1.97,.38,3.94,.77c2.61,.57,5.22,1.22,7.81,1.89,5.16,1.49,10.29,3.12,15.23,5.28,3.4,1.37,6.5,2.28,10.13,4.66,3.37,2.34,7.99,4.88,11.77,7.8,3.45,2.67,7,5.62,9.65,8.81,5.38,6.65,10.21,13.89,13.19,22.11l.58,1.53,.45,1.57c.29,1.05,.64,2.09,.87,3.16l.63,3.23c.12,.54,.18,1.08,.23,1.63l.16,1.64,.15,1.64c.05,.55,.01,1.1,.02,1.65,0,1.1,0,2.21-.03,3.31l-.33,3.28c-.13,1.09-.37,2.16-.56,3.23-1.8,8.53-5.69,16.34-10.33,23.32-4.62,7.03-9.95,13.4-15.22,19.64-6.43,7.53-12.54,15.56-20.6,22.19-3.4,2.79-6.9,6.13-11.21,7.55-1.19,.42-4.4,3.15-6.98,4.42-6.33,3.2-13,5.55-19.67,7.55-9.28,2.72-18.75,4.77-28.28,6.28-1.45,.23-2.9,.47-4.35,.73l-4.35,.65c-1.45,.21-2.9,.45-4.36,.62-1.46,.15-2.93,.3-4.4,.42-6.15,.54-12.4,.57-18.58,.36-7.83-.4-15.56-1.33-23.28-2.52-7.99-1.25-16.39-2.44-23.77-4.85-6.84-2.33-13.66-4.51-20.36-7.12-6.7-2.59-13.33-5.54-19.58-9.25-6.22-3.66-12.1-8.05-17.35-13.14-5.26-5.1-9.73-11.07-13.15-17.61-1.93-3.73-3.17-7.6-3.96-11.52-.78-3.92-1.11-7.89-1.12-12,0-.48,.02-.98,.11-1.48,.1-.5,.24-1,.39-1.49s.34-.96,.53-1.39c.21-.44,.46-.84,.69-1.19,.94-1.42,1.89-2.08,2.21-1.28,.12,.3,.22,.9,.2,1.48-.09,3.71,.45,7.21,1.3,10.7,.86,3.49,2.02,6.99,3.47,10.82,1.04,2.84,2.41,5.58,3.97,8.2,1.55,2.63,3.32,5.14,5.3,7.47,3.91,4.7,8.62,8.81,13.67,12.42Z"/>
          </g>
          <g class="cls-15">
            <path class="cls-12" d="M250.62,255.72c-17.87-3.49-31.91-18.58-36.23-35.61-4.32-17.02,.14-35.37,9.41-50.46,9.27-15.09,23.02-27.22,37.82-37.44,7.38-5.1,15.2-9.83,23.91-12.31,21.36-6.08,45.06,2.73,61.05,17.64,15.99,14.91,25.5,35.04,32.96,55.22,5.6,15.14,10.12,32.43,2.6,46.78-8.84,16.88-30.7,22.92-50.29,24.45-27.38,2.14-55.21-1.1-81.27-9.47"/>
            <path class="cls-12" d="M295.96,260.5c8.06,.74,16.18,1.08,24.27,.8,3.01-.11,6.11,.22,9.18-.93,1.53-.55,4.47,.32,7.22-.06,3.7-.48,7.38-1.1,10.99-1.93,1.82-.38,3.59-.9,5.37-1.39,1.74-.58,3.51-1.12,5.18-1.84,1.67-.63,3.22-1.45,4.79-2.23,1.51-.88,3.03-1.73,4.42-2.74,2.79-1.99,5.4-4.2,7.48-6.78,2.07-2.54,3.95-5.3,5.21-8.35,1.27-3.04,1.95-6.34,1.9-9.58-.06-2.8-.01-5.47-.17-8.18-.19-2.7-.44-5.42-1.2-8.14-1.55-5.79-3.73-11.68-5.51-17.49-1.29-4.23-2.57-8.43-4.5-12.36-.61-1.22-1.31-2.35-2-3.51-.71-1.15-1.42-2.33-2.04-3.67-.61-1.22-1.15-2.59-1.82-3.84-.69-1.23-1.47-2.37-2.52-3.14-.18-.13-.62-1.27-.81-1.88-.86-2.9-2.89-5.91-4.66-7.64-1.76-1.67-2.93-3.4-4.33-5.09-3.79-4.66-7.99-9.04-12.51-12.82-3.37-2.88-6.86-5.68-10.76-7.9-4.07-2.34-8.83-3.79-12.77-5.52-3.98-1.78-8.11-2.48-12.3-2.85-1.19-.08-2.48-.34-3.73-.29-1.24,.03-2.44,.11-3.38,.77-.17,.12-1.05,.17-1.46,.11-1.72-.3-3.39-.06-5.07,.13-.83,.14-1.64,.38-2.45,.6-.81,.23-1.61,.46-2.4,.78-3.15,1.21-6.11,2.88-9.29,4.3-6.55,2.96-12.74,7.58-18.76,12.08-1.6,1.2-3.48,2.28-4.43,4.04-.32,.63-1.94,1.95-2.82,2.47-4.91,2.74-8.73,7.23-12.61,11.26-2.24,2.3-4.23,4.81-6.13,7.37-1.93,2.55-3.77,5.15-5.74,7.71-.86,1.07-1.72,2.43-2.48,3.93-.7,1.52-1.3,3.18-1.44,4.87-.09,.77-.53,1.81-.99,2.97-.5,1.14-1,2.39-1.3,3.51-.27,.91-.36,1.85-.49,2.77-.14,.92-.23,1.84-.42,2.74-.37,1.53-1,3.01-1.46,4.57-.11,.46-.19,1.05-.19,1.52,.02,4.58-.11,9.02,.23,13.5,.37,4.47,1.24,8.92,3.21,12.99,3.92,8.13,9.89,15.53,17.49,20.46,4.19,2.76,8.76,4.8,11.8,7.44,1.37,1.23,1.27,2.18-1.16,2.18-.89,0-1.86-.01-2.83-.19-.97-.17-1.99-.3-2.94-.66l-2.29-.81c-.77-.27-1.49-.63-2.24-.94-1.51-.6-2.89-1.41-4.3-2.15-2.81-1.71-5.65-3.47-8.17-5.7-2.52-2.21-4.88-4.71-6.62-7.72-.58-.9-1.26-1.85-1.85-2.81-.29-.48-.57-.95-.76-1.44-.18-.5-.29-.99-.3-1.48,0-.27-.36-1.07-.6-1.41-2.63-3.76-4.32-8.31-5.17-12.93-.87-4.64-1-9.37-.86-13.99,.14-3.94,.38-7.82,.99-11.68,.6-3.85,1.6-7.68,3.28-11.3,.56-4.48,3.06-9.14,5.63-12.75,4.5-6.39,9.35-12.38,14.64-17.94,5.26-5.58,10.97-10.69,17.02-15.26,3.08-2.31,6.21-4.52,9.38-6.69,3.18-2.15,6.46-4.26,9.91-6.15,3.44-1.91,7.06-3.6,10.86-4.93,.95-.33,1.91-.64,2.88-.92,.98-.26,1.97-.48,2.95-.72l1.48-.35c.5-.09,1-.16,1.5-.24l3-.45c1.37-.1,2.63-.35,3.97-.54,1.33-.15,2.74-.15,4.35,.08,1.5,.27,3.21,.45,4.99,.56,.88,.1,1.78,.21,2.68,.31,.9,.09,1.79,.21,2.64,.41,1.56,.34,3.19,.57,4.73,1.02,.78,.2,1.55,.42,2.3,.64,.75,.23,1.46,.55,2.15,.85,5.68,2.54,11.17,5.35,16.38,8.67,5.2,3.29,10.13,7.17,14.36,11.6,8.45,8.83,15.01,19.18,20.65,29.73,3.46,6.44,6.82,12.92,9.25,19.83,1,2.94,2.73,5.84,2.75,9.13,.01,.92,1.66,3.48,2.25,5.46,1.49,4.87,2.54,9.96,2.99,15.21,.31,3.64,.31,7.36-.21,11.09-.52,3.72-1.55,7.42-3.09,10.91-1.89,4.23-4.27,8.34-7.55,11.7-3.42,3.52-7.53,6.25-11.77,8.31-5.39,2.65-11.06,4.15-16.69,5.41-5.83,1.3-11.91,2.65-17.59,2.65-10.44-.04-20.76,.48-31.1-.27-10.26-.76-20.49-2.22-30.58-4.12-5.74-1.09-10.69-3.22-16.14-4.79-2.56-.77-5.18-4.23-3.88-4.73,.25-.1,.71-.14,1.14-.07,5.46,.9,10.59,.99,16.61,2.47,8.91,2.19,18.03,3.5,27.16,4.38Z"/>
          </g>
          <g class="cls-15">
            <path class="cls-12" d="M205.53,290.38c-1.25-11.27-2.39-23.25,2.81-33.43,3.82-7.48,10.64-13.07,17.27-18.44,5.14-4.17,10.29-8.33,15.43-12.5,5.33-4.31,10.77-8.7,17.21-11.24,12.21-4.82,26.77-2.19,37.6,5.05,10.84,7.24,18.2,18.57,22.37,30.6,1.76,5.09,3.01,10.57,1.81,15.81-2.09,9.15-10.95,15.32-19.74,19.38-22.71,10.49-48.51,12.64-73.68,13.62-8.11,.32-18.53-1.01-20.59-8.56"/>
            <path class="cls-12" d="M231.77,295.78c5.19-.24,10.38-.5,15.51-1.04,1.91-.19,3.91,.06,5.8-1.07,.94-.55,2.89,.31,4.65,.04,4.74-.75,9.53-1.31,14.18-2.41,4.52-1.07,8.92-2.52,13.26-4.02,4.29-1.48,8.91-2.62,12.65-4.95,1.63-.97,3.21-1.66,4.78-2.38,1.56-.72,3.1-1.46,4.44-2.54,1.41-1.14,2.77-2.34,4-3.57,1.22-1.24,2.33-2.5,3.35-3.76,1.46-1.82,2.67-3.94,2.72-6.31,.03-1.49-.52-2.84-.69-4.48-.13-1.51-.11-3.43-1.53-4.51-.11-.09-.14-.84-.1-1.24,.13-1.91-.7-4.05-1.72-5.26-.48-.6-.86-1.19-1.18-1.8-.3-.61-.59-1.21-.89-1.82-1.68-3.35-3.61-6.55-5.73-9.58-1.58-2.27-3.07-4.63-4.99-6.66-2.01-2.12-4.69-3.66-6.6-5.55-1.93-1.9-4.26-3.09-6.68-4.11-.35-.14-.69-.32-1.05-.5-.36-.16-.73-.32-1.1-.44-.73-.26-1.5-.35-2.24,.01-.14,.07-.66-.1-.88-.26-1.85-1.21-4-1.57-6.11-1.52-1.06-.03-2.11,.12-3.15,.15-1.04,.12-2.08,.12-3.13,.14-2.17-.07-4.35,.26-6.44,.86-2.11,.57-4.1,1.43-6.06,2.45-1.04,.54-2.32,.9-2.85,2.15-.19,.43-1.22,1.14-1.84,1.32-3.41,1-5.92,3.86-8.88,6.04-3.4,2.49-6.37,5.54-10.2,7.56-1.62,.86-3.65,2.25-4.69,4.39-.48,.98-2.37,1.91-3.46,2.96-.91,.86-1.51,1.99-2.4,2.79-.76,.68-1.78,1.07-2.66,1.64-.26,.17-.53,.43-.7,.68-1.68,2.43-3.58,4.43-5.27,6.56-1.71,2.11-3.16,4.42-3.86,7.11-1.4,5.35-1.78,11.2-1.59,17.23,.1,3.32,.15,6.82-1.54,9.37-.76,1.14-1.7,1.26-2.42-.14-.53-1.03-1.04-2.22-1.26-3.45-.36-1.96-.74-3.94-1.01-5.89-.52-4.03-1.44-8.27-.31-12.64,.16-.67,.21-1.42,.35-2.14,.12-.71,.37-1.38,.94-1.82,.16-.12,.36-.65,.36-.93,.12-3.02,1.21-6.03,2.82-8.69,1.62-2.66,3.65-4.97,5.63-7.18,3.35-3.76,6.36-7.65,10.42-10.35,1.38-2.51,3.91-4.32,6.2-5.75,4.03-2.52,7.75-5.42,11.42-8.43,3.69-3.01,7.53-6.2,12.07-8.6,1.14-.62,2.34-1.17,3.55-1.69,1.21-.53,2.49-.93,3.74-1.38,2.55-.75,5.15-1.31,7.77-1.59,5.24-.53,10.53-.11,15.55,1.18,1.7,.44,3.37,.3,5.16,1.46,.85,.52,1.84,1.01,2.92,1.41,1.05,.47,2.18,.88,3.17,1.44,.91,.5,1.88,.95,2.77,1.51,.45,.27,.9,.54,1.32,.84,.41,.31,.8,.63,1.16,.96,2.95,2.79,5.83,5.54,8.49,8.5,2.66,2.95,5.13,6.1,7.12,9.51,1.97,3.4,3.63,6.96,5.07,10.59,1.41,3.62,2.73,7.32,3.49,11.4,.45,2.48,.76,5.1,.48,7.82-.27,2.71-1.13,5.43-2.57,7.74-1.18,1.95-2.26,4.25-4.5,5.13-.31,.13-.67,.69-1.12,1.32-.43,.65-.94,1.36-1.47,1.82-2.59,2.3-5.51,4.06-8.43,5.65-2.04,1.1-4.13,2.05-6.19,2.92-2.05,.93-4.16,1.71-6.24,2.57-2.55,.97-4.99,2.26-7.6,3.12-1.36,.48-2.74,.88-4.13,1.24-1.39,.38-2.79,.71-4.2,.97-1.78,.35-3.57,.63-5.36,.84-1.78,.23-3.57,.46-5.35,.69-3.68,.53-7.47,1.49-11.04,1.45-6.64-.11-13.11,.82-19.64,1.07-3.24,.11-6.49,.23-9.74,.34-3.4,.09-6.83-.02-10.36-.62-2-.35-3.9-1.1-5.66-2.21-1.76-1.1-3.39-2.53-4.76-4.34-.34-.41-.51-1-.54-1.59-.02-.3-.01-.59,.03-.86,.07-.29,.16-.56,.26-.81,.43-.99,1.14-1.5,1.66-1.33,.2,.07,.45,.24,.58,.43,.9,1.28,2.14,1.98,3.42,2.48,1.3,.5,2.68,.85,4.29,1.4,2.4,.79,5.13,1.14,7.89,1.2,1.4,.04,2.73,0,4.22-.07l4.42-.2Z"/>
          </g>
          <g class="cls-15">
            <path class="cls-12" d="M56.93,167.79c.61,14.5,5.02,28.83,12.72,41.31,1.29,2.1,2.7,4.17,4.58,5.82,2.68,2.35,6.13,3.69,9.57,4.81,15.83,5.18,33.49,6.7,49.16,1.1,15.67-5.6,28.75-19.27,30.21-35.28,.49-5.39-.3-10.81-1.19-16.16-1.94-11.64-5.08-24.32-15-31.24-12.83-8.95-30.64-4.3-45.62,.68-9.64,3.21-19.28,6.42-28.92,9.63-1.77,.59-3.6,1.21-4.97,2.45-1.29,1.17-2.04,2.76-2.77,4.32-2.4,5.16-4.8,10.33-7.19,15.49"/>
            <path class="cls-12" d="M72.49,145.05c4.9-1.63,9.83-3.2,14.69-4.93,1.81-.64,3.81-.84,5.42-2.34,.8-.75,2.9-.3,4.58-.91,4.5-1.64,9.25-3.04,14-4.39,4.63-1.31,9.35-2.66,14.37-3.1,4.99-.43,10.22,.36,15.2,1.36,1.08,.26,2.13,.55,3.11,.99,.96,.48,1.91,.95,2.8,1.51,.86,.6,1.71,1.21,2.56,1.81,.79,.68,1.66,1.28,2.47,1.97,1.79,1.39,3.36,3.08,4.75,4.86,1.3,1.83,2.45,3.76,3.17,5.75,1.11,2.89,1.77,5.78,2.8,8.53,.65,1.71,1.59,3.23,2,5.18,.38,1.8,.31,3.9,1.64,5.27,.11,.11,.06,.95-.02,1.38-.36,2.03,.05,4.34,.74,5.93,.67,1.55,.77,3.01,.9,4.56,.18,2.13,.24,4.32,.1,6.55-.19,2.23-.52,4.48-1.13,6.63-.91,3.23-2.43,6.2-4.08,9-1.68,2.92-3.32,6.25-5.78,8.24-2.41,2.01-4.46,4.07-6.79,5.96-1.3,1.12-3.2,1.82-3.73,3.54-.05,.16-.61,.49-.9,.57-1.23,.35-2.31,.88-3.4,1.41-.54,.28-1.06,.58-1.57,.89l-1.57,.91-1.57,.94-1.64,.84c-1.1,.57-2.25,.99-3.45,1.29-4.93,1.2-9.97,2.39-15.06,2.79-.68,.05-1.38,.02-2.07,.09-.69,.05-1.35,.17-1.97,.58-.44,.29-1.87,.35-2.56,.12-3.73-1.11-7.67-.77-11.43-1.52-4.25-.83-8.64-1.29-12.6-3.29-1.68-.86-3.93-1.73-6.44-1.59-1.16,.07-3.1-1.23-4.72-2.03-1.33-.64-2.85-1.12-4.08-2.18-1.04-.91-1.64-2.17-2.26-3.27-.18-.33-.45-.69-.71-.94-1.25-1.25-2.2-2.57-3.02-3.92-.85-1.35-1.54-2.8-2.2-4.25-1.32-2.91-2.34-5.93-3.67-8.84-2.67-5.86-4.3-12.26-5.18-18.67-.49-3.53-.53-7.27,1.34-9.73,.82-1.11,1.77-1.12,2.41,.28,.46,1.03,.94,2.19,1.16,3.37,.34,1.88,.84,3.73,1.29,5.52,.96,3.74,2.71,7.17,3.44,11.05,.23,1.22,1.17,2.4,.71,3.65-.07,.17,.05,.67,.19,.88,1.58,2.22,2.73,4.61,3.86,7.04,1.15,2.42,2.29,4.88,3.72,7.13,1.22,1.91,2.66,3.43,4.11,4.47,1.43,1.03,3.11,1.8,4.97,2.84,2.5-.11,5.27,.93,7.61,1.93,4.14,1.76,8.55,2.78,12.99,3.3,4.44,.53,8.9,.56,13.3,.38,8.95-.37,17.75-2.79,25.19-7.4,.63-.4,1.16-.87,1.69-1.37,.53-.5,1.12-.96,1.97-1.28,.78-.33,1.52-.92,2.26-1.55,.72-.66,1.38-1.43,2.08-2.07,.62-.62,1.17-1.32,1.76-1.96,.58-.66,1.1-1.34,1.74-1.88,2.54-2.31,4.47-5.25,5.76-8.4,1.32-3.16,1.97-6.51,2.31-9.85,.31-3.36,.08-6.87-.41-10.43-.5-3.57-1.17-7.21-2.04-10.66-.56-2.1-1.27-4.14-2.03-6.12-.78-1.93-1.57-3.86-2.36-5.8-.71-1.63-2.03-2.92-2.19-4.85-.02-.28-.41-.66-.92-1.02-.51-.36-1.05-.78-1.45-1.14-1.84-1.94-3.91-3.57-6.26-4.84-3.26-1.7-6.99-2.67-10.87-2.82-.59-.05-1.18-.02-1.78,.03-.6,.05-1.19,.1-1.78,.17-1.2,.22-2.37,.34-3.58,.56-2.51,.33-5.08,.83-7.65,1.25-3.26,.59-6.59,1.15-9.88,2.06-3.39,.94-6.81,2.61-10.24,3.25-6.37,1.2-12.31,3.64-18.42,5.57l-4.55,1.45c-1.53,.48-2.82,.93-3.65,1.49-.41,.28-.69,.54-1.01,.96-.31,.41-.61,.94-.91,1.56-.3,.61-.62,1.35-.94,2.08l-.94,2.19c-1.41,3.32-3.58,5.94-5.06,9.15-.69,1.49-3.91,2.44-4.41,1.47-.09-.19-.14-.51-.08-.78,.73-3.47,.94-6.87,2.69-10.43l1.9-3.96,.95-2.03c.35-.72,.74-1.49,1.26-2.29,.51-.79,1.17-1.61,1.99-2.33,.81-.71,1.68-1.24,2.51-1.66,1.69-.83,3.17-1.25,4.52-1.71Z"/>
          </g>
          <g class="cls-15">
            <path class="cls-12" d="M90.19,245.35c-1.53-11.86,4.4-24.02,14-31.62,9.6-7.59,22.44-10.85,34.86-10.26,2.39,.11,4.83,.37,7,1.33,2.29,1.01,4.15,2.74,5.89,4.49,5.16,5.19,9.72,10.93,13.58,17.07,2.62,4.16,4.99,8.89,4.25,13.7-.63,4.09-3.4,7.54-6.07,10.79-6.32,7.66-13.55,15.86-23.57,17.5-3.68,.6-7.46,.24-11.13-.4-14.7-2.57-28.48-9.78-38.7-20.26"/>
            <path class="cls-12" d="M107.93,257.09c3.01,1.68,6.13,3.19,9.39,4.31,.61,.2,1.18,.52,1.8,.74,.62,.2,1.3,.28,2.06,.05,.75-.22,1.63,1.14,2.8,1.42,1.57,.34,3.13,.72,4.72,1.02,1.58,.33,3.16,.57,4.7,.67,1.5,.08,2.97,0,4.36-.22,1.39-.22,2.69-.58,3.99-1.02,1.29-.4,2.6-.88,3.88-1.46,1.26-.63,2.48-1.39,3.44-2.45,1.63-1.8,3.85-2.67,5.44-4.57,1.66-2,3.34-4.15,5.34-5.92,1.47-1.3,2.99-2.54,3.88-4.08,.55-.97,.63-2.09,1.14-2.99,.47-.81,1.29-1.72,.4-2.65-.07-.08,.18-.37,.35-.53,.83-.74,.73-2.04,.11-2.75-.6-.69-.72-1.37-1.01-2.12-.8-2.04-2.05-4.16-3.39-6.43-1-1.71-1.78-3.56-2.88-5.23-1.15-1.74-2.89-3.17-3.73-4.97-.84-1.81-2.1-3.19-3.4-4.56-.73-.77-1.28-2.05-2.66-1.87-.13,.02-.39-.26-.46-.44-.54-1.5-1.69-2.29-2.81-2.64-1.11-.35-2.19-.28-3.43-.68-1.27-.4-2.85-.51-4.45-.51-1.58-.02-3.17,.1-4.74,.21-.83,.05-1.76-.16-2.45,.68-.24,.3-1.09,.45-1.54,.31-2.44-.75-4.76,.38-7.06,.84-2.68,.54-5,1.94-7.79,2.36-1.19,.17-2.72,.77-3.37,2.35-.31,.69-1.62,1.04-2.37,1.67-.58,.56-.94,1.36-1.51,1.86-.48,.44-1.27,.53-1.89,.85-.18,.1-.37,.26-.47,.44-1.01,1.71-2.3,3.04-3.62,4.42-1.33,1.37-2.59,2.87-3.38,4.63-.75,1.79-1.45,3.58-2.05,5.4-.55,1.83-1.05,3.68-1.33,5.56-.29,2.09-.58,4.15-2.34,5.89-.82,.79-1.75,.96-2.4-.03-.48-.72-.96-1.6-1.05-2.5-.1-.72-.21-1.45-.25-2.17-.05-.72-.14-1.46-.1-2.17,0-2.95-.15-6.17,1.42-8.94,.52-.82,.45-2.1,1.6-2.45,.16-.05,.39-.37,.41-.56,.26-2.14,1.29-4.02,2.5-5.75,1.28-1.69,2.72-3.24,4.15-4.76,2.35-2.61,4.44-5.7,7.75-7.28,1.1-1.98,3.32-3.01,5.28-3.55,3.45-1,6.77-2.06,10.14-2.95,3.37-.89,6.8-1.6,10.27-1.79,1.76-.1,3.52-.13,5.27-.12,1.77,.05,3.47,.06,5.37,.28,1.88,.22,3.94,.63,5.95,1.58,1.99,.93,3.61,2.22,4.97,3.48,.93,.86,2.08,1.16,2.69,2.47,.57,1.23,1.96,2.2,2.96,3.33,.91,1.03,2.03,1.98,2.64,3.15,1.26,2.43,2.79,4.62,4.33,6.82,1.54,2.21,3.12,4.34,4.43,6.84,1.27,2.49,2.41,5.23,2.86,8.35,.22,1.55,.24,3.19-.01,4.8-.25,1.61-.73,3.15-1.34,4.55-1.49,3.43-3.29,6.39-5.47,8.69-.94,.99-1.45,2.49-3.12,2.86-.46,.11-.76,1.59-1.34,2.29-1.47,1.72-3.14,3.31-4.9,4.85-2.45,2.13-5.2,4.07-8.25,5.65-1.83,1-3.72,2.08-5.83,2.7-2.21,.66-4.58,.84-6.76,.71-2.8-.17-5.37-.87-7.86-1.44-2.58-.58-5.4-.77-7.72-1.93-4.26-2.15-8.72-3.48-12.87-5.68-4.11-2.18-7.99-4.74-11.8-7.41-2.18-1.51-3.42-3.76-5.28-5.49-.87-.85-.19-3.72,.77-3.98,.18-.05,.44-.04,.61,.04,2.24,1.13,4.64,1.62,6.61,3.35,2.94,2.56,6.27,4.66,9.68,6.56Z"/>
          </g>
          <g class="cls-15">
            <path class="cls-12" d="M66.25,227.03c-6.13-1.72-10.8,5.19-13.13,10.9-2.85,6.97-5.64,15.11-1.78,21.62,2.8,4.72,8.81,7.28,14.42,6.69s10.68-4.07,13.67-8.68c3.77-5.81,4.32-13.43,1.44-19.68s-9.13-10.98-16.14-12.19"/>
            <path class="cls-12" d="M76.27,227.3c1.72,1.3,3.23,2.86,4.65,4.5,.55,.62,.63,1.53,1.87,1.75,.61,.14,.11,1.38,.48,2.01,1.06,1.76,1.61,3.78,2.14,5.73,.52,1.91,1.08,3.87,1.12,5.91,.04,2.04-.78,3.97-.77,5.96,0,1.79-1.38,2.91-1.92,4.41-.58,1.61-1.48,3.24-2.87,4.27-1,.76-2.1,1.31-2.84,2.24-.47,.57-.68,1.44-1.38,1.91-.66,.43-1.61,.49-1.65,1.76,0,.11-.41,.12-.64,.07-1.08-.2-1.93,.26-2.42,.96-.46,.7-1.09,.85-1.71,1.07-1.72,.6-3.53,.97-5.42,.94-1.41-.04-2.74-.54-4.04-.85-1.34-.33-2.94-.28-3.97-1.24-1.01-.94-2.06-1.48-3.13-2.14-.3-.2-.55-.52-.85-.72-.3-.22-.66-.32-1.25-.09-.11,.05-.32-.15-.35-.3-.32-1.24-1.08-1.85-1.92-2.57-.85-.68-1.75-1.47-2.08-2.52-.66-2.17-1.46-4.31-1.66-6.49-.08-.59,.25-1.18-.55-1.71-.28-.19-.31-.81-.08-1.09,1.13-1.51,.74-3.09,1.21-4.55,.55-1.62,.55-3.36,1.86-4.66,.55-.55,1.04-1.34,.38-2.45-.3-.52,.42-1.07,.53-1.65,.09-.47-.16-1.07,0-1.51,.16-.41,.71-.65,1.05-.97,.11-.09,.18-.24,.18-.38,0-1.37,.71-2.47,1.52-3.46,.86-.99,1.8-1.88,2.55-3,.75-1.14,1.7-2.21,2.96-3.12,1.23-.9,2.72-1.68,4.45-2.02,1.86-.43,4.13,.07,4.63,2.26,.24,.95-.12,1.84-.69,2.3-.42,.33-.8,.64-1.13,.76l-.38,.11c-.12,.06-.24,.13-.35,.2l-.33,.18-.31,.23c-.1,.07-.2,.15-.3,.23-.09,.1-.18,.21-.26,.32-.17,.2-.32,.42-.48,.65-.16,.21-.32,.4-.51,.59-.19,.17-.43,.3-.71,.42-.38,.13-.3,.78-1.15,.43-.12-.05-.28,.03-.28,.12-.04,1.09-.44,1.81-.96,2.53-.52,.71-1.14,1.42-1.51,2.25-.31,.71-.37,1.53-.45,2.31-.1,.83-.27,1.66-.78,2.35,.68,1.24,.16,2.13-.43,2.87-2.08,2.63-2.01,5.87-2.03,8.46-.01,2.7,1.09,4.99,2.86,6.67,.31,.31,.97,.04,1.08,.72,.14,.64,.87,.69,1.37,.94,.47,.24,1.06,.24,1.43,.65,.8,.88,1.9,1.24,2.99,1.32,1.11,.08,2.16-.1,3.26-.22,2.17-.24,4.4-1.09,6.08-2.63,1.05-.94,1.61-2.27,2.64-3.13,.46-.38,.34-1.18,1.49-1.08,.34,.03-.02-.86,.13-1.19,.39-.83,.84-1.63,1.17-2.49,.45-1.19,.86-2.44,.93-3.73,.04-.79-.32-1.59-.43-2.34-.12-.79-.15-1.58-.18-2.37,0-1,.11-2.07-.14-3.08-.25-1.06-1.12-1.84-1.24-2.94-.1-1.05-.62-1.94-1.25-2.71-.63-.78-1.42-1.41-2.13-2.11-1.45-1.36-3.17-2.54-5.1-3.11-1.06-.33-1.79-1.44-2.92-1.72-.48-.09-.79-2.74-.42-3.54,.08-.15,.21-.3,.32-.34,1.44-.55,3.08-1.37,4.63-.72,2.23,.99,4.42,2.09,6.38,3.56Z"/>
          </g>
          <g class="cls-15">
            <path class="cls-12" d="M21.22,217.03c-3.98,4.51-2.55,12.28,2.63,15.47,5.18,3.18,12.86,1.39,16.21-3.58,3.14-4.65,2.25-11.42-1.98-15.19-4.23-3.76-11.33-4.08-15.91-.71-1.46,1.07-2.75,2.79-2.24,4.49"/>
            <path class="cls-12" d="M21.88,209.4c1.37-.75,2.84-1.22,4.3-1.62,.56-.16,1.16,.21,1.65-.78,.26-.48,.9,.56,1.4,.5,1.4-.16,2.79,.16,4.17,.35,1.35,.18,2.8,.32,4.16,.89,1.36,.57,2.27,1.86,3.65,2.44,.63,.26,.96,.78,1.23,1.32,.29,.52,.44,1.1,.86,1.52,.82,.93,1.56,2.07,1.54,3.34,.01,.45-.04,.91-.04,1.34,.01,.43,.04,.84,.2,1.23,.22,.48,.81,.92,.81,1.51,.03,.56-.47,1.15,.61,1.66,.09,.04-.11,.29-.27,.41-.74,.56-.76,1.23-.39,1.81,.39,.57,.22,1.01,.12,1.46-.26,1.27-.75,2.53-1.49,3.64-.56,.83-1.48,1.4-2.17,2.05-.38,.32-.65,.78-.99,1.15-.34,.36-.72,.69-1.23,.76-.52,.05-.93,.19-1.31,.39-.38,.17-.74,.38-1.1,.59-.42,.24-1.11-.01-1.03,1.16,0,.11-.17,.17-.28,.13-.91-.42-1.45-.07-2.05,.32-.57,.43-1.19,.93-1.92,.87-1.47-.16-2.92,.18-4.43,.03-.41-.01-.76-.43-1.28,.28-.18,.24-.63,.2-.79-.05-.43-.69-.95-.91-1.5-1.13-.55-.22-1.16-.31-1.64-.69-1.08-.74-2.54-1.28-2.94-2.8-.12-.68-.47-1.27-1.65-1.23-.55,.01-.59-.78-.9-1.15-.27-.3-.89-.42-1.08-.79-.16-.31,.07-.8,.11-1.18,.01-.11-.03-.23-.13-.3-.43-.35-.7-.79-.87-1.25-.15-.47-.18-.98-.19-1.47,.03-1.01,.25-1.97,.1-2.94-.29-1.97,.29-4.08,1.35-5.86,.29-.49,.7-.94,1.24-1.2,.58-.24,1.33-.25,2.27,.13,.85,.34,1.52,1.01,1.77,1.61,.18,.44,.35,.86,.29,1.09-.04,.41-.04,.81-.03,1.19,.01,.39,.16,.8,.29,1.17,.09,.36,.15,.68-.15,.96-.2,.19,.33,.47-.57,.59-.12,.02-.2,.11-.14,.16,.67,.51,.78,.93,.82,1.4,0,.23-.02,.47,0,.71,0,.24,.01,.49,.13,.7,.15,.38,.59,.63,.94,.87,.38,.22,.65,.45,.68,.86,1.1-.29,1.16,.04,1.18,.54,.05,.85,.6,1.32,1.24,1.62,.67,.26,1.4,.31,2.12,.5,1.51,.36,3.17,0,4.67-.52,.28-.08,.2-.76,.69-.45,.47,.27,.64-.25,.92-.41,.24-.19,.38-.53,.75-.51,.4,.02,.77-.04,1.03-.21,.14-.08,.27-.17,.39-.27,.1-.11,.2-.23,.29-.36,.38-.49,.53-1.12,.84-1.65,.57-1.09,.91-2.45,.55-3.73-.21-.8-.95-1.39-.95-2.14-.02-.34-.65-.41,.13-1.11,.22-.21-.6-.16-.73-.3-.31-.39-.53-.83-.85-1.19-.41-.52-.87-1.01-1.48-1.31-.37-.19-.95,0-1.33-.1-.22-.03-.42-.09-.61-.17-.2-.07-.4-.15-.58-.28-.24-.14-.49-.31-.74-.5-.26-.15-.53-.34-.82-.41-.62-.16-1.25,.27-1.85-.14-1.21-.79-2.33-.07-3.34,.29-.52,.18-1.02,.42-1.47,.72-.41,.27-.71,.63-.84,.97-.07,.19-.28,.2-.5,.22-.22,.02-.45,.06-.44,.12,0,.01-.16,.02-.4,.07-.25,.05-.58,.14-.93,.27-.7,.24-1.48,.64-1.92,.65-.17,0-.36-.04-.44-.12-.52-.49-1.05-1.2-1.29-2.01-.24-.8-.2-1.68,.24-2.33,1.28-1.87,2.8-3.02,4.31-3.87Z"/>
          </g>
          <g>
            <path class="cls-10" d="M114.17,99.74c-4.12-28.77,14.33-57.18,38.93-72.65,24.6-15.47,54.29-20.35,83.22-23.07,35.51-3.35,73.28-3.5,104.41,13.93,20.55,11.5,37.7,32.78,36.34,56.29-1.14,19.75-14.57,36.33-27.37,51.41-8,9.42-16.12,18.95-26.24,26.04-9.13,6.39-19.62,10.59-30.29,13.8-39.69,11.96-83.25,10.67-122.16-3.63-15.64-5.75-30.85-13.77-42.11-26.06-11.26-12.29-18.14-29.35-15.34-45.79"/>
            <path class="cls-10" d="M140.41,144.02c8.97,6.79,19.22,11.86,29.84,15.8,1.97,.76,3.99,1.44,6.02,2.16,1.02,.34,2.04,.71,3.1,.98,1.06,.27,2.12,.51,3.21,.72,1.08,.19,2.55,.75,4.24,1.31,1.7,.54,3.6,1.16,5.5,1.63,10.29,2.43,20.81,4.14,31.38,4.85,10.28,.69,20.56,.42,30.8-.53,10.14-.93,20.59-2.45,30.04-5.15,4.07-1.23,7.99-2.21,11.79-3.4,3.8-1.18,7.53-2.46,11.21-4.11,3.91-1.75,7.75-3.77,11.4-6.03,3.65-2.27,7.07-4.82,10.28-7.5,4.69-3.91,9.01-8.23,12.99-12.9,2.49-2.92,4.61-5.85,7.34-9.04,2.52-2.96,5.53-6.21,7.16-9.2,.15-.25,1.28-1.55,1.86-2.22,2.81-3.1,5.69-7.32,7.25-10.4,1.51-3.01,2.97-5.58,4.21-8.41,3.47-7.72,5.44-16.14,4.7-24.46-.46-6.23-2.09-12.38-4.86-18.11-2.94-5.96-7.44-11.54-11.53-16.14-4.12-4.65-8.78-8.43-13.88-11.76-1.44-.97-3.05-1.93-4.6-2.85-1.61-.83-3.18-1.56-4.57-1.97-.26-.07-1.4-.7-1.94-.95-4.36-2.37-8.97-4.19-13.73-5.52l-3.57-1.01c-1.21-.28-2.42-.56-3.63-.84-1.22-.27-2.42-.6-3.64-.84-1.23-.24-2.46-.5-3.69-.77-10.16-2.21-20.9-2.96-31.48-3.1-2.82-.07-5.85-.19-8.45,.24-.91,.13-3.88,.24-5.32,.2-7.85-.27-16.11,.66-24.13,1.34-9.17,.79-18.28,2.1-27.45,3.29-3.88,.5-9.16,1.44-13.59,3.04-2.03,.72-6.42,1.61-9.61,2.66-1.32,.4-2.58,.88-3.84,1.38-1.26,.48-2.51,.95-3.78,1.43-2.15,.82-4.41,1.41-6.59,2.28-.65,.25-1.44,.58-2.06,.87-5.95,2.96-11.8,6.06-17.29,9.69-5.49,3.63-10.65,7.85-15.14,12.75-4.51,4.93-8.54,10.35-11.85,16.18-3.32,5.83-5.86,12.1-7.4,18.58-.44,1.78-.7,3.61-1.08,5.39-.23,1.81-.46,3.58-.68,5.28-.12,1.71-.2,3.36-.36,4.9-.11,1.54-.09,2.97-.24,4.26-.22,2.32-.69,2.44-1.27-.76-.1-.59-.21-1.2-.32-1.83-.05-.31-.11-.63-.16-.96-.04-.32-.05-.65-.07-.98-.08-1.32-.15-2.7-.17-4.07,0-1.1,.13-2.19,.18-3.28,.1-1.09,.09-2.19,.28-3.27,.17-1.08,.33-2.15,.5-3.22,.09-.53,.16-1.07,.26-1.6,.13-.52,.25-1.04,.38-1.56l.78-3.24c.28-1.07,.66-2.12,.99-3.18,.36-1.05,.62-2.15,1.07-3.17,.42-1.03,.84-2.07,1.26-3.11,.4-1.05,.91-2.05,1.42-3.06,.51-1,1.03-2.01,1.54-3.02,.57-.98,1.18-1.94,1.78-2.92,.61-.97,1.2-1.96,1.92-2.86,.86-1.15,1.72-2.45,2.59-3.67,.94-1.16,1.87-2.26,2.78-3.04,.26-.21,1-1.12,1.37-1.54,7.52-9.7,18.22-17.31,29.27-22.9,9.4-4.82,18.93-8.82,29.32-11.27,5.52-2.01,12.32-3.34,18.16-4.17,10.32-1.44,20.65-2.58,31-3.49,10.35-.91,20.75-1.61,31.17-1.51,10.56,.1,21.17,.82,31.65,2.59,10.48,1.72,20.81,4.71,30.55,9.06,.83,.37,1.64,.71,2.45,1.04,.8,.35,1.57,.74,2.37,1.12,.8,.39,1.61,.79,2.45,1.23,.85,.44,1.72,.92,2.6,1.54,3.4,2.14,7.75,5.01,11.38,7.98,3.36,2.68,6.61,5.84,9.23,8.94,1.3,1.65,2.64,3.28,3.81,5.03,1.26,1.69,2.32,3.52,3.45,5.3,.54,.91,1.01,1.86,1.52,2.78l.75,1.4,.66,1.45c.43,.97,.89,1.93,1.29,2.91l1.09,2.99c1.3,4.03,2.34,8.21,2.58,12.48l.14,1.6v1.6c-.02,1.07,0,2.14-.06,3.2l-.31,3.18c-.13,1.06-.35,2.1-.53,3.15-.83,4.15-2.14,8.18-3.8,12.03-1.65,3.87-3.71,7.52-5.9,11.06-4.41,7.08-9.61,13.54-14.81,19.87-6.39,7.65-12.53,15.6-20.2,22.44-3.24,2.9-6.73,6.03-10.65,7.99-1.09,.56-4.38,3.03-6.89,4.33-6.19,3.28-12.75,5.78-19.37,7.88-9.21,2.84-18.62,5.05-28.12,6.58-1.45,.24-2.89,.47-4.34,.71-1.44,.24-2.9,.39-4.34,.59l-4.35,.56c-1.46,.12-2.92,.25-4.38,.37-6.13,.51-12.35,.54-18.5,.38-7.8-.34-15.52-1.15-23.22-2.32-7.97-1.25-16.27-2.78-23.66-5.03l-5.12-1.67c-.85-.28-1.71-.53-2.56-.83l-2.53-.91-5.06-1.81c-1.68-.63-3.35-1.29-5.01-1.96-6.63-2.73-13.15-5.81-19.26-9.66-6.07-3.8-11.79-8.26-16.77-13.48-5.03-5.19-9.19-11.21-12.3-17.73-3.51-7.44-4.92-15.01-4.92-23.02-.03-.94,.12-1.95,.31-2.92,.09-.48,.2-.95,.31-1.39,.14-.44,.28-.84,.43-1.21,.57-1.46,1.1-2.22,1.21-1.45,.04,.29,.05,.89,0,1.48-.28,3.77-.02,7.39,.61,11.05,.63,3.66,1.63,7.38,3.06,11.4,2.13,5.93,5.25,11.52,9.15,16.5,1.92,2.51,4.09,4.84,6.37,7.04,2.28,2.21,4.71,4.27,7.25,6.19Z"/>
          </g>
          <g>
            <path class="cls-13" d="M254.65,240.12c-17.73-3.6-31.67-19.18-35.95-36.76-4.29-17.58,.14-36.52,9.34-52.1,9.2-15.58,22.84-28.1,37.53-38.66,7.32-5.26,15.08-10.15,23.73-12.71,21.2-6.27,44.71,2.82,60.58,18.21,15.87,15.39,25.31,36.18,32.71,57.01,5.55,15.63,10.04,33.48,2.58,48.3-8.77,17.43-30.46,23.66-49.91,25.24-27.17,2.21-54.79-1.14-80.64-9.78"/>
            <path class="cls-13" d="M300.24,246.83c8.21,.75,16.47,1.05,24.7,.77,1.53-.05,3.08-.11,4.65-.16,1.56-.09,3.14-.27,4.71-.6,1.56-.34,4.53-.07,7.33-.48,3.77-.57,7.53-1.24,11.22-2.2,3.68-.97,7.29-2.16,10.75-3.68,3.33-1.53,6.49-3.37,9.38-5.54,2.89-2.17,5.38-4.78,7.5-7.63,2.12-2.82,3.8-6.03,4.91-9.41,1.12-3.38,1.65-6.94,1.65-10.38,.03-2.98-.13-5.84-.4-8.67-.24-2.83-.75-5.63-1.43-8.47-1.53-6.01-3.66-12.11-5.6-17.96-1.41-4.26-2.86-8.47-4.68-12.53-1.15-2.53-2.46-4.78-3.74-7.52-1.2-2.53-2.45-5.47-4.09-7.35-.14-.16-.67-1.29-.91-1.88-.56-1.41-1.4-2.87-2.21-4.26-.84-1.38-1.76-2.63-2.54-3.62-1.58-1.89-2.79-3.67-4.19-5.45-3.81-4.92-8.06-9.53-12.75-13.52-3.5-3.03-7.19-5.83-11.23-8.13-4.2-2.43-9.05-4.23-13.22-5.77-4.2-1.6-8.46-2.37-12.82-2.68-.62-.05-1.27-.11-1.92-.17-.65,0-1.31-.02-1.96-.03-.65,0-1.28,.02-1.88,.07-.59,.1-1.15,.23-1.65,.41-.19,.07-1.11,.13-1.53,.12-.89-.06-1.76,.09-2.64,.17-.87,.12-1.76,.16-2.61,.4-1.71,.42-3.41,.83-5.05,1.48-3.29,1.25-6.43,2.9-9.64,4.57-3.31,1.72-6.52,3.78-9.66,5.99-3.14,2.22-6.23,4.55-9.23,6.94-1.6,1.27-3.4,2.53-4.57,4.06-.42,.52-2.02,1.94-2.86,2.56-4.59,3.35-8.56,7.84-12.38,12.15-4.35,4.96-7.97,10.48-11.51,16.07-1.48,2.37-3.3,5.79-4.03,9.11-.37,1.5-1.64,4.44-2.28,6.76-.48,1.91-.75,3.8-1.12,5.7-.19,.8-.37,1.61-.56,2.42-.19,.81-.44,1.62-.56,2.44-.09,.49-.16,1.1-.19,1.59-.23,4.76-.3,9.47,.2,14.17,.5,4.69,1.53,9.35,3.46,13.7,1.93,4.37,4.43,8.51,7.44,12.25,3,3.74,6.54,7.07,10.51,9.71,1.11,.71,2.2,1.46,3.35,2.07,.57,.32,1.13,.64,1.68,.96,.57,.29,1.13,.57,1.68,.84,2.2,1.12,4.28,2.04,5.95,2.92,1.5,.83,1.46,1.3-.91,1.01-.43-.06-.88-.12-1.35-.18-.46-.07-.92-.2-1.39-.31-.93-.26-1.93-.44-2.85-.85-3.02-1.09-5.86-2.62-8.52-4.25-2.69-1.82-5.32-3.75-7.68-6.05-2.33-2.31-4.55-4.82-6.29-7.74-.59-.88-1.18-1.85-1.74-2.79-.58-.93-1.02-1.89-1.21-2.77-.05-.24-.41-1.02-.63-1.37-2.23-3.89-3.75-8.32-4.59-12.85-.85-4.54-1.08-9.18-.95-13.73,.24-7.73,1.23-15.33,4.13-22.64,.94-4.24,3.16-8.88,5.44-12.59,7.99-13.13,18.44-24.56,30.28-34.04,6.04-4.77,12.18-9.34,18.87-13.34,3.35-1.97,6.84-3.77,10.53-5.17,1.84-.69,3.71-1.34,5.65-1.77,.96-.22,1.91-.51,2.89-.68l2.93-.47c2.66-.32,4.98-.82,8.13-.53,.37,.02,.75,.04,1.14,.07,.39,.04,.79,.08,1.21,.13,.82,.08,1.68,.14,2.55,.2,.87,.06,1.75,.22,2.63,.32,.87,.14,1.76,.2,2.59,.4,3.07,.63,6.3,1.36,9.04,2.49,5.68,2.28,11.12,5.1,16.23,8.47,5.1,3.36,9.85,7.32,14,11.77,8.28,8.87,14.71,19.27,20.08,29.95,3.3,6.52,6.32,13.15,8.79,20.08,1.04,2.95,2.44,5.96,2.92,9.08,.15,.88,1.41,3.56,1.97,5.52,1.42,4.85,2.51,9.85,3.07,14.95,.71,7.07,.33,14.48-2.24,21.34-1.52,4.17-3.72,8.11-6.64,11.5-3.06,3.55-6.82,6.48-10.82,8.76-5.1,2.88-10.56,4.78-16.09,6.25-5.73,1.55-11.8,2.73-17.43,3.05-5.23,.26-10.41,.5-15.61,.55-5.19,.06-10.39,.01-15.57-.36-10.3-.68-20.57-2.15-30.66-4.22-5.73-1.19-10.79-2.94-16.25-4.59-2.55-.8-5.56-3.1-4.38-3.17,.22-.01,.66,.04,1.09,.14,5.39,1.36,10.44,2.13,16.57,3.64,9.06,2.23,18.33,3.65,27.63,4.55Z"/>
          </g>
          <g>
            <path class="cls-9" d="M209.91,275.91c-1.24-11.64-2.37-24,2.79-34.51,3.79-7.72,10.56-13.5,17.14-19.04,5.1-4.3,10.21-8.6,15.31-12.9,5.29-4.45,10.68-8.98,17.08-11.61,12.11-4.98,26.56-2.26,37.31,5.21,10.75,7.47,18.06,19.17,22.2,31.59,1.75,5.26,2.99,10.91,1.8,16.32-2.07,9.45-10.87,15.82-19.58,20.01-22.53,10.83-48.14,13.05-73.12,14.06-8.05,.33-18.39-1.05-20.43-8.84"/>
            <path class="cls-9" d="M236.27,283.18c5.25-.25,10.49-.56,15.7-1.09,1.94-.18,3.94-.18,5.91-.86,.98-.32,2.9-.05,4.69-.29,4.82-.73,9.65-1.47,14.39-2.56,4.6-1.09,9.09-2.51,13.54-4.03,4.39-1.54,8.95-3.14,12.87-5.3,3.33-1.9,6.52-3.28,9.32-5.58,2.97-2.42,5.53-5.34,7.38-8.41,1.3-2.25,2.23-4.75,2.27-7.4,.02-1.65-.32-3.18-.58-4.97-.22-1.66-.46-3.64-1.4-4.94-.07-.11-.2-.88-.25-1.28-.22-1.9-1.06-4.09-1.86-5.46-.8-1.34-1.3-2.59-1.93-3.87-1.68-3.53-3.69-6.9-5.91-10.09-1.67-2.38-3.38-4.73-5.4-6.84-2.11-2.2-4.75-4.07-6.91-5.84-2.16-1.8-4.57-3.07-7.11-4.14-1.43-.62-3.1-1.46-4.49-1.3-.13,.02-.68-.17-.93-.28-2.05-.9-4.27-1.28-6.47-1.38-2.21-.06-4.41,.03-6.63,.17-4.61,.19-9.15,1.68-13.21,4.01-1.09,.6-2.32,1.19-3.07,2.16-.27,.34-1.34,1.1-1.92,1.41-3.17,1.64-5.87,4.36-8.77,6.69-3.31,2.66-6.41,5.59-9.95,8.04-1.5,1.03-3.45,2.55-4.79,4.34-.61,.82-2.34,1.98-3.47,3.03-.92,.87-1.68,1.85-2.57,2.7-.77,.72-1.67,1.3-2.48,2-.24,.21-.52,.48-.71,.73-1.87,2.37-3.77,4.61-5.41,7.04-1.63,2.42-2.94,5.06-3.7,7.93-1.52,5.77-1.74,11.98-1.48,18.17,.15,3.42,.35,6.97-.37,9.42-.33,1.1-.8,1.16-1.23-.28-.32-1.06-.64-2.28-.8-3.52-.26-1.98-.54-3.96-.72-5.91-.36-4.04-.84-8.16-.04-12.43,.23-1.31,.27-2.92,.93-3.91,.09-.14,.26-.66,.29-.92,.35-2.86,1.33-5.71,2.74-8.35,1.4-2.64,3.25-5,5.1-7.23,3.19-3.78,6.41-7.34,10.28-10.32,1.69-2.14,4.15-4.08,6.32-5.7,3.82-2.84,7.49-5.88,11.13-8.96,3.64-3.08,7.36-6.26,11.65-8.77,4.32-2.56,9.26-4.38,14.3-4.99,2.52-.32,5.07-.42,7.59-.23,2.52,.16,5.03,.55,7.47,1.18,.84,.19,1.62,.34,2.44,.55,.41,.1,.82,.21,1.25,.35,.42,.16,.85,.35,1.3,.58,1.7,.84,3.98,1.71,5.92,2.75,1.75,.98,3.63,2,5.07,3.25,5.99,5.04,11.34,10.89,15.25,17.64,1.94,3.34,3.58,6.85,4.98,10.44,1.38,3.59,2.64,7.24,3.39,11.11,.44,2.36,.73,4.8,.56,7.29-.14,2.49-.81,5-1.93,7.26-.94,1.91-1.96,4.01-3.7,5.27-.47,.36-1.5,2.06-2.48,3-2.41,2.3-5.14,4.2-7.95,5.86-1.95,1.15-3.98,2.19-6.02,3.1l-3.05,1.39-3.09,1.28c-1.25,.54-2.51,1.04-3.76,1.55-1.25,.52-2.51,1.03-3.81,1.44-2.69,.93-5.47,1.68-8.24,2.34-3.52,.8-7.05,1.39-10.6,1.95-3.67,.63-7.47,1.39-11.02,1.6-6.6,.37-13.12,1.11-19.68,1.44-3.26,.14-6.52,.28-9.78,.42-3.34,.1-6.71-.02-10.08-.68-1.91-.38-3.72-1.03-5.37-2.02-1.65-.98-3.17-2.27-4.35-3.93-.31-.37-.48-.87-.59-1.36-.06-.24-.11-.48-.12-.71,0-.24,.02-.47,.05-.67,.11-.82,.4-1.26,.72-1.01,.12,.1,.29,.32,.4,.55,.74,1.49,1.87,2.58,3.18,3.4,1.32,.83,2.84,1.43,4.6,2.03,2.62,.86,5.49,1.21,8.37,1.29,2.85,.07,5.86-.17,8.83-.28Z"/>
          </g>
          <g>
            <path class="cls-9" d="M62.45,149.34c.6,14.97,4.98,29.76,12.62,42.65,1.29,2.17,2.68,4.31,4.54,6.01,2.66,2.43,6.09,3.81,9.49,4.97,15.7,5.35,33.24,6.92,48.79,1.13,15.55-5.78,28.53-19.89,29.98-36.42,.49-5.57-.3-11.16-1.18-16.68-1.92-12.01-5.04-25.11-14.88-32.26-12.73-9.24-30.41-4.44-45.27,.71-9.57,3.31-19.13,6.63-28.7,9.94-1.76,.61-3.58,1.25-4.93,2.53-1.28,1.2-2.03,2.85-2.74,4.46-2.38,5.33-4.76,10.66-7.14,15.99"/>
            <path class="cls-9" d="M78.15,127.58c4.93-1.71,9.88-3.39,14.79-5.14,1.83-.65,3.78-1.09,5.54-2.19,.88-.55,2.83-.64,4.52-1.25,4.56-1.66,9.27-3.19,14.02-4.51,4.62-1.3,9.35-2.43,14.26-2.78,2.43-.21,4.94-.06,7.41,.2,2.47,.35,4.91,.82,7.22,1.55,.5,.15,1,.32,1.49,.48,.49,.17,.93,.43,1.39,.64,.45,.23,.9,.46,1.34,.69,.45,.23,.84,.55,1.25,.82,.81,.57,1.64,1.1,2.38,1.76l1.14,.95c.36,.34,.73,.68,1.1,1.02,3.17,2.87,5.56,6.67,7.08,10.42,1.09,2.76,1.83,5.55,2.7,8.3,.54,1.72,1.19,3.29,1.59,5.21,.35,1.78,.5,3.83,1.28,5.29,.07,.12,.1,.94,.1,1.35-.03,1.97,.34,4.31,.78,5.91,.43,1.56,.54,2.99,.64,4.5,.15,2.07,.18,4.18,.04,6.29-.19,2.11-.47,4.24-1.01,6.29-.8,3.08-2.03,5.99-3.52,8.75-1.51,2.88-3.21,5.98-5.35,8.13l-.77,.82-.79,.78c-.51,.53-1.03,1.05-1.53,1.57-1.08,.97-2.07,2.04-3.21,2.96-1.25,1.12-2.95,2.06-3.74,3.32-.07,.13-.6,.47-.86,.59-1.11,.49-2.11,1.12-3.16,1.66-1.03,.57-2.03,1.21-3.08,1.75l-1.56,.87-1.62,.77c-1.08,.53-2.21,.94-3.37,1.28-2.38,.72-4.83,1.29-7.29,1.83-2.47,.46-4.97,.87-7.47,1.04-.67,.04-1.36,.08-2.03,.11-.68,.03-1.34,.1-1.95,.31-.22,.07-.68,.12-1.17,.14-.49,0-1.01-.03-1.35-.09-3.68-.59-7.57-.6-11.3-1.29-4.22-.78-8.5-1.52-12.52-3.19-1.69-.73-4-1.53-6.28-1.94-1.05-.17-2.97-1.3-4.42-2.19-1.19-.71-2.45-1.41-3.46-2.43-.85-.87-1.44-1.92-2.03-2.92-.18-.3-.41-.64-.62-.91-3.9-5.11-5.99-11.07-8.34-16.92-2.37-5.9-3.96-12.19-4.84-18.52-.49-3.48-.67-7.14,.22-9.55,.38-1.08,.85-1.1,1.22,.35,.25,1.06,.54,2.26,.7,3.47,.26,1.93,.62,3.85,1,5.7,.78,3.86,2.07,7.55,3,11.5,.31,1.23,.98,2.56,.93,3.68,0,.16,.13,.66,.24,.88,2.44,4.86,4.38,10.13,7.2,14.87,1.19,2.03,2.52,3.86,4.04,5.31,1.5,1.44,3.28,2.51,5.27,3.57,2.42,.56,5.28,1.55,7.74,2.49,8.68,3.18,18.07,4.25,27.2,3.79,9.27-.46,18.48-3.02,26.19-8.08,1.34-.83,2.22-1.9,3.83-2.81,.72-.47,1.49-1.1,2.26-1.78,.72-.73,1.47-1.48,2.18-2.19,.61-.69,1.23-1.39,1.84-2.09,.58-.72,1.14-1.44,1.74-2.07,2.38-2.7,4.26-5.85,5.59-9.21,1.34-3.36,2.09-6.92,2.41-10.5,.29-3.57,.05-7.23-.42-10.89-.49-3.66-1.11-7.35-1.9-10.93-.99-4.38-2.4-8.58-4.05-12.65-.32-.89-.83-1.7-1.25-2.56-.47-.83-.85-1.69-1.14-2.59-.08-.26-.44-.7-.86-1.19-.44-.48-.97-.98-1.33-1.45-1.86-2.25-4.03-4.23-6.56-5.67-3.44-2.11-7.47-3.19-11.57-3.49-2.51-.22-5.02,.11-7.54,.37-2.64,.31-5.31,.78-7.96,1.3-3.36,.7-6.71,1.47-10.04,2.49-3.44,1.05-6.95,2.55-10.32,3.46-6.28,1.71-12.32,4.04-18.45,6.11l-4.57,1.55c-1.51,.51-2.91,1.02-3.94,1.8-1,.74-1.71,1.9-2.35,3.29-.64,1.4-1.28,2.93-1.91,4.39-1.43,3.36-3.18,6.22-4.63,9.47-.68,1.52-2.74,3.05-2.86,2.25-.02-.15,.01-.44,.09-.7,1.06-3.35,1.8-6.53,3.47-10.17l1.83-4.04c.62-1.33,1.15-2.71,2-4.17,.42-.72,.94-1.44,1.59-2.08,.65-.65,1.39-1.16,2.14-1.58,1.51-.82,2.99-1.27,4.36-1.76Z"/>
          </g>
          <g>
            <path class="cls-13" d="M95.46,229.41c-1.52-12.24,4.36-24.8,13.89-32.64,9.53-7.84,22.27-11.2,34.6-10.59,2.37,.12,4.79,.38,6.95,1.38,2.27,1.05,4.12,2.83,5.84,4.64,5.12,5.36,9.64,11.29,13.48,17.63,2.6,4.3,4.95,9.18,4.22,14.15-.62,4.23-3.37,7.79-6.03,11.14-6.27,7.91-13.45,16.37-23.39,18.07-3.65,.62-7.4,.25-11.05-.41-14.59-2.65-28.26-10.1-38.4-20.91"/>
            <path class="cls-13" d="M112.34,243.07c3.08,1.78,6.29,3.36,9.62,4.6,.62,.22,1.23,.51,1.86,.74,.64,.21,1.31,.37,2.03,.37,.71,.02,1.78,.86,2.97,1.19,1.61,.39,3.23,.78,4.86,1.09,1.63,.34,3.26,.58,4.88,.7,1.57,.11,3.13,.07,4.64-.13,.76-.1,1.5-.23,2.22-.44,.36-.1,.73-.17,1.09-.28l1.07-.36c2.82-.96,5.69-2.43,7.88-4.49,1.86-1.8,3.85-3.14,5.52-5.08,1.75-2.06,3.49-4.27,5.33-6.25,1.34-1.45,2.7-2.84,3.67-4.45,.6-1.01,.91-2.06,1.44-3.12,.49-.98,1.1-2.13,.73-3.12-.03-.08,.15-.52,.23-.74,.49-1.08,.37-2.57-.06-3.49-.41-.9-.62-1.72-.93-2.58-.88-2.37-2.19-4.68-3.59-7.02-1.04-1.76-1.99-3.57-3.14-5.28-1.19-1.78-2.76-3.45-3.8-5.15-1.04-1.71-2.29-3.15-3.6-4.59-.74-.81-1.46-1.94-2.47-2.2-.09-.03-.37-.32-.47-.48-.83-1.32-2-2.27-3.25-2.86-1.24-.6-2.55-.82-3.97-1.16-1.46-.35-3.11-.44-4.76-.46-1.65-.03-3.3,.06-4.94,.17-.87,.07-1.82,0-2.58,.47-.26,.18-1.16,.31-1.62,.27-2.47-.17-4.92,.69-7.31,1.31-2.75,.72-5.28,1.98-7.99,2.91-.57,.2-1.23,.49-1.88,.86-.64,.38-1.24,.9-1.72,1.48-.42,.56-1.69,1.12-2.47,1.8-.64,.56-1.15,1.22-1.75,1.78-.52,.46-1.2,.77-1.77,1.22-.17,.13-.36,.31-.49,.48-1.23,1.65-2.58,3.14-3.83,4.75-1.28,1.58-2.44,3.29-3.3,5.16-.87,1.88-1.55,3.84-2.17,5.81-.57,1.99-1,4.01-1.26,6.06-.24,2.26-.36,4.56-1.14,6.25-.38,.76-.84,.85-1.21-.16-.27-.74-.56-1.61-.59-2.49-.13-1.41-.15-2.83-.1-4.22,.13-2.86,.34-5.83,1.59-8.59,.38-.85,.57-1.96,1.26-2.5,.1-.07,.29-.4,.34-.58,1.06-3.91,3.73-7.26,6.39-10.27,2.24-2.59,4.47-5.25,7.51-7.04,.63-.79,1.49-1.41,2.37-1.99,.91-.54,1.86-1.01,2.77-1.37,6.37-2.56,12.93-4.67,19.75-5.17,3.46-.24,6.85-.27,10.39,.1,1.78,.21,3.65,.62,5.42,1.49,1.75,.86,3.21,2.06,4.48,3.28,.87,.84,1.78,1.36,2.53,2.51,.7,1.08,1.93,2.19,2.9,3.32,.88,1.04,1.88,2.07,2.57,3.16,2.83,4.53,6.11,8.7,8.66,13.5,1.23,2.41,2.3,5.01,2.74,7.84,.22,1.41,.27,2.88,.1,4.33-.16,1.46-.58,2.87-1.1,4.19-1.31,3.22-3.19,6.02-5.26,8.46-.89,1.04-1.58,2.36-2.84,3.09-.35,.21-.89,1.45-1.47,2.13-1.43,1.7-3,3.33-4.65,4.88-2.31,2.15-4.87,4.09-7.7,5.69-1.74,.94-3.5,1.9-5.46,2.49-1.03,.26-2.08,.53-3.14,.65-1.06,.13-2.13,.18-3.17,.16-2.66-.05-5.19-.57-7.65-1.08-2.55-.55-5.27-.94-7.6-1.9-4.32-1.73-8.65-3.32-12.73-5.51-4.05-2.17-7.87-4.75-11.51-7.53-2.08-1.58-3.55-3.5-5.35-5.27-.84-.85-1.02-2.85-.37-2.8,.12,0,.32,.08,.47,.2,1.96,1.47,3.97,2.52,6.01,4.32,3.03,2.66,6.4,4.93,9.88,6.95Z"/>
          </g>
          <g>
            <path class="cls-10" d="M68.72,212.56c-6.08-1.78-10.71,5.36-13.03,11.26-2.83,7.2-5.59,15.6-1.76,22.32,2.78,4.87,8.74,7.52,14.31,6.9,5.57-.62,10.6-4.2,13.56-8.96,3.74-6,4.29-13.86,1.42-20.32-2.86-6.46-9.06-11.33-16.02-12.59"/>
            <path class="cls-10" d="M77.86,214.34c1.6,1.28,3.02,2.78,4.29,4.4,.49,.6,.71,1.37,1.53,1.81,.39,.24,.32,1.14,.62,1.77,.91,1.7,1.45,3.57,1.88,5.43,.42,1.81,.77,3.67,.76,5.56,0,1.88-.54,3.74-.74,5.54-.17,1.59-1.1,2.77-1.64,4.15-.59,1.47-1.42,2.95-2.55,4.05-.82,.8-1.71,1.48-2.45,2.32-.47,.51-.79,1.15-1.42,1.61-.59,.42-1.37,.68-1.63,1.47-.02,.07-.35,.16-.53,.17-.85,.09-1.67,.53-2.18,1-.5,.47-1.05,.64-1.62,.84-1.57,.54-3.23,.88-4.93,.89-1.27,0-2.5-.3-3.7-.57-1.25-.26-2.65-.46-3.65-1.16-1-.69-1.97-1.23-2.93-1.88-.55-.37-.97-1.05-1.75-1-.07,0-.25-.18-.31-.29-.46-.9-1.08-1.58-1.75-2.28-.33-.35-.64-.73-.94-1.12-.26-.4-.51-.83-.68-1.29-.66-1.9-1.23-3.87-1.37-5.85-.07-.53,.12-1.08-.28-1.57-.15-.17-.14-.73-.02-.99,.59-1.41,.5-2.9,.87-4.3,.42-1.57,.63-3.2,1.51-4.6,.37-.59,.76-1.42,.56-2.35-.09-.43,.4-1.07,.55-1.63,.13-.46,.08-.96,.24-1.4,.15-.38,.5-.7,.74-1.04,.07-.1,.14-.24,.16-.37,.47-2.43,2.29-4.2,3.68-6.22,.7-1.03,1.57-2.01,2.64-2.84,1.04-.84,2.31-1.56,3.74-1.9,1.56-.42,3.41-.14,4.07,1.09,.31,.52,.12,.96-.43,1.13-.2,.06-.41,.12-.61,.16-.2,.04-.4,.12-.6,.13-.16,.02-.31,.03-.46,.05l-.44,.14c-.14,.05-.29,.08-.43,.13l-.4,.19c-1.13,.53-1.85,1.58-2.97,2.32-.37,.22-.5,.77-1.06,.75-.08,0-.22,.11-.26,.19-.65,1.85-2.01,3.27-2.84,5.08-.34,.76-.53,1.57-.74,2.37-.21,.83-.44,1.65-.85,2.42,.18,1.07-.27,2.07-.71,2.92-1.54,3-1.92,6.37-1.87,9.45,.04,3.14,1.22,6.13,3.33,8.25,.36,.38,.89,.42,1.21,.98,.16,.25,.43,.46,.71,.64,.3,.16,.62,.32,.92,.47,.54,.29,1.17,.45,1.66,.78,1.03,.69,2.26,1.04,3.49,1.16,1.25,.11,2.47,0,3.7-.19,2.44-.37,4.84-1.42,6.77-3.03,1.19-.99,2.06-2.26,3.1-3.36,.46-.48,.61-1.19,1.38-1.46,.24-.07,.21-.81,.4-1.18,.47-.93,.93-1.87,1.28-2.86,.49-1.37,.88-2.79,1.02-4.24,.07-.89-.07-1.78-.12-2.65-.06-.92-.1-1.84-.19-2.75-.08-1.16-.17-2.33-.49-3.47-.31-1.19-1.05-2.23-1.41-3.35-.68-2.13-2.29-3.77-3.87-5.27-1.59-1.51-3.45-2.77-5.49-3.57-1.14-.45-2.09-1.2-3.29-1.51-.54-.11-1.09-1.52-.78-1.9,.06-.07,.18-.13,.29-.14,1.36-.15,2.77-.37,4.24,.24,2.13,.93,4.18,2.06,6,3.51Z"/>
          </g>
          <g>
            <path class="cls-10" d="M24.04,202.24c-3.95,4.66-2.53,12.68,2.61,15.97,5.15,3.29,12.77,1.43,16.09-3.69,3.11-4.8,2.24-11.79-1.96-15.68-4.2-3.89-11.24-4.21-15.78-.74-1.45,1.11-2.73,2.88-2.23,4.64"/>
            <path class="cls-10" d="M25.39,195.9c1.22-.7,2.55-1.18,3.89-1.51,.51-.13,1.05,.02,1.53-.5,.25-.24,.8,.24,1.27,.22,1.29-.1,2.57,.15,3.84,.39,1.23,.24,2.5,.53,3.66,1.12,1.16,.59,2.07,1.59,3.11,2.31,.95,.63,1.18,1.7,1.79,2.51,.63,.88,1.18,1.91,1.29,2.98,.09,.78,.08,1.54,.28,2.26,.15,.45,.44,.86,.47,1.38,.02,.49-.23,1.02,.31,1.46,.05,.04-.07,.25-.15,.36-.38,.51-.42,1.12-.27,1.59,.17,.47,.05,.84-.05,1.24-.23,1.09-.65,2.16-1.23,3.14-.44,.73-1.09,1.31-1.66,1.93-.31,.3-.57,.68-.87,1-.31,.31-.63,.6-1.02,.76-.4,.14-.74,.31-1.06,.51-.33,.18-.65,.37-.98,.57-.37,.23-.93,.19-1.02,.85,0,.06-.16,.13-.25,.12-.72-.11-1.24,.18-1.8,.44-.55,.3-1.13,.6-1.77,.62-1.31,0-2.64,.18-3.98,.03-.36-.04-.7-.28-1.11,.05-.15,.12-.53,.05-.69-.11-.42-.41-.89-.58-1.37-.8-.48-.19-.99-.36-1.41-.67-.97-.64-2.09-1.25-2.6-2.39-.2-.5-.55-1.02-1.28-1.24-.36-.09-.48-.7-.71-1.05-.2-.29-.59-.48-.73-.8-.13-.27-.06-.63-.08-.94-.01-.09-.04-.19-.1-.27-.26-.35-.46-.74-.58-1.15-.1-.41-.16-.84-.19-1.26v-1.28c.03-.43,.04-.85,0-1.27-.12-1.72,.32-3.5,1.16-5.07,.23-.43,.54-.83,.9-1.14,.4-.28,.88-.43,1.43-.36,.5,.06,.85,.39,.87,.83,.02,.32,.02,.65-.1,.88-.13,.41-.26,.81-.34,1.21-.08,.42-.11,.84-.1,1.26-.03,.41-.05,.81-.24,1.2-.14,.25,.12,.57-.34,.76-.06,.03-.1,.13-.08,.19,.62,1.15,.31,2.29,.68,3.42,.31,.96,1.21,1.54,1.48,2.45,.38,.06,.61,.22,.79,.42,.19,.18,.32,.42,.42,.67,.41,.81,1.1,1.44,1.93,1.83,.83,.38,1.71,.61,2.62,.78,1.85,.37,3.85,.04,5.63-.66,.32-.1,.42-.53,.87-.47,.43,.04,.74-.37,1.09-.59,.3-.24,.57-.53,.91-.68,1.52-.57,2.21-2.09,2.8-3.46,.6-1.39,.91-2.99,.7-4.53-.14-.95-.59-1.79-.73-2.71-.09-.39-.46-.68-.17-1.23,.08-.16-.4-.35-.54-.56-.33-.53-.63-1.08-1.01-1.57-.5-.69-1.12-1.29-1.82-1.77-.23-.13-.47-.23-.71-.32-.26-.07-.51-.14-.74-.24-.5-.19-.99-.4-1.49-.61-.63-.28-1.27-.59-1.97-.74-.74-.12-1.5,.06-2.21-.1-1.37-.34-2.68,.22-3.87,.73-1.2,.52-2.37,1.29-2.91,2.27-.3,.52-.88,.84-.89,1.37,0,.11-.31,.27-.63,.48-.33,.2-.71,.44-.94,.4-.09-.01-.19-.07-.24-.14-.62-.87-1-2.27-.33-3.36,.95-1.57,2.29-2.62,3.64-3.42Z"/>
          </g>
          <g class="cls-14">
            <path class="cls-11" d="M117.57,62.41c-.29,17.08-2.66,34.42,3.25,50.45-10.48,1.7-15.22,15.85-10.34,25.27,4.88,9.42,16,14.08,26.58,14.91,10.58,.82,21.14-1.42,31.73-2.1,13.11,9.64,34.83,.57,46.14,12.27,3.8,3.93,5.43,9.39,7.73,14.35,6.38,13.78,18.24,24.1,29.75,34,6.38,5.48,12.89,11.04,20.64,14.3,9.66,4.06,20.91,4.16,30.64,.28,3.72-1.49,7.22-3.52,10.97-4.93,3.95-1.49,8.13-2.27,12.29-3.04,14.67-2.72,29.35-5.44,44.02-8.16,4.44-.82,9.76-1.37,12.77,1.99,1.98,2.21,2.25,5.42,2.42,8.39,.8,13.94,1.58,28.13-1.74,41.7-7.17,29.33-3.95,66.39-28.03,84.6-28.4,21.47-87.48,26.46-122.91,29.97-35.83,3.55-71.02-11.13-101.97-29.53-27.48-16.34-53.01-35.81-77.27-56.63-14.87-12.76-29.55-26.36-39.15-43.44C5.57,230.11,1.54,210.57,.16,191.19c-.84-11.73-.71-23.79,3.15-34.9,2.82-8.12,7.54-15.45,12.71-22.31,10.91-14.46,24.07-27.22,38.87-37.67,11.84-8.37,24.66-15.23,37.45-22.07,7.37-3.94,14.73-7.88,22.1-11.83"/>
            <path class="cls-11" d="M117.42,91.39c.18,4.29,.57,8.18,1.26,11.81,.36,1.81,.73,3.57,1.23,5.27l.35,1.28,.42,1.25,.54,1.59,.14,.41c.02,.06,.06,.15,.05,.2l-.2,.05-.8,.2c-.64,.17-1.44,.35-1.89,.63-.53,.27-1.11,.48-1.65,.86-2.28,1.3-4.11,3.38-5.37,5.72-1.27,2.35-2,4.94-2.3,7.49-.34,2.79-.04,5.69,.99,8.28,1.03,2.59,2.7,4.9,4.62,6.79,3.68,3.6,8.28,6.03,13.17,7.5,1.64,.51,3.29,.84,5.11,1.33,1.33,.33,3.83,.66,5.7,.53,.36,0,1.14,.04,1.71,.07,.61,.05,1.34,.11,1.79,.09,5.05-.32,10.31-.68,15.45-1.33,1.28-.16,2.69-.24,3.76-.55,.28-.08,1.53-.22,1.91-.21,1,.02,2.01-.05,3.24-.16l2.17-.16c.13-.04,.21,.06,.31,.12l.29,.2,.44,.3c.27,.18,.53,.37,.82,.52,1.1,.68,2.29,1.2,3.5,1.68,2.44,.91,5.01,1.46,7.62,1.79,2.58,.08,5.48,.37,8.26,.5,2.09,.1,4.18,.27,6.27,.47,2.11,.2,4.42,.28,6.4,.87,.31,.08,1.13,.18,1.72,.32,2.62,.56,5.34,1.53,7.47,2.98,1.08,.76,2.1,1.59,3.02,2.52,3.06,2.99,4.77,6.94,6.36,10.72,1.55,3.83,3.34,7.49,5.56,10.94,4.41,6.92,10.16,12.88,16.19,18.46,1.05,.98,2.05,1.9,3.28,2.81,.96,.7,2.92,2.41,3.71,3.24,1.27,1.35,2.64,2.42,3.97,3.58,2.46,2.13,4.98,4.21,7.56,6.17,1.53,1.17,3.36,2.28,4.64,3.4,.12,.11,.65,.43,.84,.51,1.95,.9,3.67,2.04,5.62,2.93,1.41,.64,2.88,1.18,4.53,1.54,1.6,.39,4.28,.91,5.76,1.24,1.99,.47,3.88,.5,5.78,.52,5.63,0,11.25-1.17,16.39-3.47,2.58-1.14,5.09-2.47,7.71-3.59,2.62-1.14,5.38-1.94,8.15-2.57,2.63-.6,5.24-1.11,7.86-1.65,2.62-.53,5.24-1.05,7.91-1.5,1.27-.21,2.64-.56,3.81-.6,.24,0,1.25-.22,1.65-.34,1.42-.42,2.88-.63,4.52-.93,7.43-1.34,14.99-2.65,22.26-4.15,2.81-.58,5.69-1.19,8.65-1.02,1.47,.08,2.97,.41,4.34,1.1,1.35,.71,2.52,1.85,3.24,3.21,.97,1.82,1.14,3.87,1.27,5.8,.11,1.88,.22,3.78,.33,5.67,.07,1.12,.07,2.25,.27,3.35,.11,.59,.19,2.21,.16,2.87-.14,2.21,.02,4.57,.02,6.86,.03,6.54-.29,13.12-1.43,19.59-.14,.79-.3,1.63-.44,2.45-.18,.81-.39,1.6-.66,2.28-.07,.19-.21,1.1-.32,1.67-.12,.61-.24,1.38-.35,1.82-1.17,4.06-1.75,8.48-2.4,12.75-1.58,10.34-2.64,20.8-4.82,31.08-.6,2.87-1.05,5.42-1.82,8.17-.76,2.65-1.63,5.29-2.64,7.86-.74,1.81-1.49,3.75-2.52,5.28-.29,.41-.92,1.68-1.17,2.2-.46,.99-.99,2.02-1.65,2.97-.32,.48-.64,.98-.98,1.45-.35,.47-.69,.94-1.04,1.4-1.7,2.25-3.72,4.33-5.66,6.31-.49,.58-1.74,1.36-2.62,2.08-1.6,1.15-3.22,2.3-4.89,3.34-.78,.53-1.55,1.05-2.36,1.53-1.56,.95-3.18,1.78-4.79,2.64-1.64,.79-3.26,1.63-4.94,2.34-3.32,1.51-6.73,2.8-10.16,4.02-7.01,2.44-14.18,4.38-21.4,6.02-7.22,1.66-14.5,3.04-21.81,4.19-2.74,.44-5.69,1.06-8.27,1.12-2.5,.55-4.75,.73-6.98,.82-.32,.01-1.11,.2-1.7,.3-1.85,.32-3.58,.83-5.67,.75-.08,0-.33,.04-.5,.06-1.71,.15-2.86,.63-5.06,.66-1.37,.03-3.55,.32-5.37,.5-1.88,.19-3.78,.37-5.64,.59-1.92,.22-4.04,.28-5.82,.71-.29,.07-1.72,.04-2.56,.13-4.28,.51-8.75,.66-13.01,1.12-.98,.08-2.53,.08-3.57,.03-1.88-.05-3.69-.19-5.52-.27-1.83-.08-3.67-.1-5.59-.3-1.26-.11-2.55-.23-3.84-.34-1.29-.12-2.58-.37-3.87-.57-1.29-.22-2.58-.41-3.83-.69-1.25-.3-2.48-.61-3.68-.94-1.02-.28-1.47-.42-2.53-.54-.69-.1-1.88-.42-2.83-.67-10.7-2.7-21.11-6.5-31.14-11.07-1.36-.63-2.66-1.28-3.96-1.94-1.29-.68-2.59-1.37-3.99-2-1.15-.53-2.44-1.28-3.46-1.61-.14-.04-.62-.27-.82-.4-1.58-.97-3.23-1.78-4.86-2.63-1.63-.85-3.26-1.69-4.84-2.62-.68-.39-1.3-.82-1.96-1.23-.68-.42-1.45-.94-2.05-1.25-5.02-2.58-9.85-5.82-14.68-8.83-1.65-1.03-3.37-2.29-4.94-3.05-.24-.11-.95-.59-1.25-.82-2.61-2.08-5.76-3.94-8.54-5.98-1.43-1.05-3.16-2.04-4.3-3.17-.15-.14-.74-.54-1.11-.78-.64-.42-1.3-.79-1.89-1.22-1.66-1.21-3.37-2.65-4.88-3.64-1.85-1.24-3.51-2.55-5.23-3.82-.98-.74-1.88-1.57-2.86-2.35-.93-.72-1.9-1.47-2.85-2.2-1.35-1.06-2.79-2.12-4.04-3.17-1.29-1.1-2.5-1.74-3.85-3.03-1.04-.99-2.45-1.85-3.71-2.84-.63-.49-1.27-1.05-1.87-1.57-.46-.4-.86-.84-1.3-1.19-1-.81-1.93-1.63-3.06-2.43-.78-.55-1.98-1.74-3.02-2.64-1.04-.88-2.1-1.78-3.15-2.66-1.05-.89-2.15-1.89-3.13-2.66-4.32-3.38-8.43-7.2-12.5-10.96-1.05-.96-2.3-2.05-3.04-3.06-.13-.18-.72-.74-1.03-1.02-3.97-3.48-7.58-7.66-11.07-11.72-2.5-2.89-4.9-5.81-7.07-9.06-2.12-3.15-4.14-6.52-5.91-9.73-.78-1.3-1.42-2.65-2.11-3.97-.64-1.35-1.26-2.7-1.81-4.07-1.05-2.69-2.46-5.15-2.99-7.96-.95-2.79-1.75-5.62-2.48-8.47-.59-2.4-1.24-4.84-1.51-7.25-.1-.87-.4-2.54-.65-3.47-.75-3-1.13-5.96-1.39-9.07-.06-.74-.28-1.65-.38-2.49-.28-2.57-.53-5.17-.67-7.73-.42-7.65-.79-15.27,.29-22.93,.08-.71,.17-1.45,.26-2.18,.08-.73,.18-1.43,.34-2.04,.89-3.74,2.02-7.48,3.52-11.07,1.48-3.59,3.31-7.01,5.37-10.18,3.05-4.68,6.4-9.1,9.87-13.43,3.47-4.32,7.14-8.48,11.03-12.43,1-1.04,2.22-1.96,2.66-2.48,1.39-1.61,3.25-3.18,4.48-4.45,2.2-2.33,4.7-4.28,7.08-6.31,1.74-1.48,3.77-2.89,5.3-4.36,.22-.21,.86-.68,1.21-.91,2.84-1.82,5.37-4.03,8.22-5.78,5.13-3.74,10.83-6.92,16.37-10.12,.82-.47,1.58-.97,2.38-1.46,.4-.24,.88-.55,1.23-.72,5.22-2.54,10.39-5.56,15.59-8.26,1.73-.87,3.42-1.72,5.15-2.6,1.74-.89,3.47-1.91,5.18-2.61,.53-.22,1.51-.78,2.23-1.19,3.91-2.23,7.05-3.46,7.41-2.93,.13,.19-.68,.64-1.5,1.17-1.58,1.03-3.16,2-5.17,3.06-1.56,.82-3.31,1.67-4.59,2.61-.21,.16-.93,.53-1.32,.71-2.76,1.25-5.7,3-8.29,4.24-1.99,.95-3.78,1.93-5.65,2.89-1.57,.81-3.13,1.78-4.78,2.45-.56,.23-2,1.21-3.08,1.82-2.53,1.43-5.09,2.88-7.62,4.31-7.69,4.35-14.86,9.3-21.92,14.56-4.83,4.01-9.99,8.03-14.45,12.46-5.4,5.31-10.6,10.82-15.33,16.7-.95,1.22-1.76,2.18-2.64,3.23-.58,.68-1.21,1.4-1.77,2.14-2.17,2.86-4.21,5.83-6.11,8.86-1.02,1.63-1.95,3.56-2.96,4.94-.14,.19-.53,.96-.67,1.32-1.15,2.93-2.58,6.02-3.46,9.17-.17,.6-.34,1.19-.51,1.79-.16,.61-.34,1.22-.54,1.87-.42,1.41-.85,3.7-.96,5.24-.11,1.16-.2,2.19-.31,3.3-.37,4.6-.7,9.42-.21,13.93-.2,2.39,.06,5.34,.34,7.74,.99,9.22,2.15,18.47,4.48,27.44,.29,1.08,.55,2.17,.82,3.27,.3,1.09,.59,2.18,.89,3.27,.37,1.13,.74,2.27,1.11,3.41,.41,1.12,.83,2.25,1.24,3.37,.47,1.18,.95,2.59,1.51,3.43,.04,.06,.14,.26,.2,.39,.53,1.25,.98,2.56,1.6,3.74,.55,1.06,1.12,2.01,1.74,3.05,.73,1.25,1.43,2.6,2.21,3.86,.37,.62,.75,1.26,1.11,1.87,.37,.6,.71,1.19,.94,1.73,.78,.83,1.63,2.26,2.46,3.43,.77,1.11,1.61,2.2,2.41,3.31,.93,1.22,1.88,2.43,2.85,3.62,.99,1.18,1.95,2.39,2.98,3.51,1.39,1.56,2.86,3.01,4.3,4.52,1.54,1.58,3.11,3.18,4.67,4.75,1.96,1.96,3.91,3.91,5.93,5.82,.84,.79,1.6,1.41,2.49,2.1,1.18,.91,2.74,1.99,3.99,3.49,.25,.3,1.28,1.18,1.87,1.64,4.71,3.65,9.23,7.83,13.93,11.58,2.4,2.3,5,4.21,7.73,6.31,4.01,3.08,8.25,6.35,12.11,9.46,4.09,3.29,8.27,6.29,12.44,9.34,1.17,.86,2.5,1.71,3.39,2.59,.2,.2,1.11,.82,1.63,1.14,1.78,1.11,3.5,2.26,5.23,3.43,1.7,1.19,3.42,2.4,5.17,3.63,1.84,1.32,4.03,2.62,6.18,3.9,3.23,1.91,6.65,4.15,10.03,6.17,1.32,1.11,2.61,1.55,3.42,1.89,1.08,.46,2.04,.98,3.24,1.67,1.54,.9,3.07,1.76,4.69,2.47,.83,.36,2.57,1.36,3.4,1.87,1.09,.71,1.55,.89,2.64,1.37,1.28,.57,2.46,1.46,4.06,2.22,1.7,.81,3.71,1.7,5.12,2.63,.12,.08,.65,.32,.9,.41,1.65,.59,3.21,1.37,4.78,2.11,1.58,.72,3.15,1.46,4.78,2.08,9.5,4.26,19.66,7.2,29.83,9.41,1.05,.23,2.1,.47,3.15,.7l3.18,.57c1.06,.18,2.12,.36,3.18,.54,1.06,.12,2.12,.22,3.18,.3l3.32,.27,3.33,.13,3.33,.15,3.33-.02h3.34s3.33-.23,3.33-.23l3.33-.22,3.35-.34c1.89-.2,4.05-.53,5.78-.43,.24,.01,1.11-.08,1.48-.15,2.8-.53,5.56-.73,8.41-.86,.69-.03,1.98-.18,2.39-.28,1.16-.31,2.54-.39,3.8-.52,1.53-.16,3.56-.24,4.46-.44,1.92-.43,3.04-.34,4.52-.49,.91-.09,1.92-.27,2.86-.42,.45-.07,1-.22,1.26-.24,3.02-.17,5.9-.9,8.86-1.24,.63-.08,1.31-.17,1.93-.25,3.5-.38,5.25-.61,7.22-.92,1.96-.32,4.15-.73,8.5-1.64,2.45-.14,5.15-1.2,7.78-1.52,.96-.13,2.76-.56,3.92-.89,5.07-1.5,10.37-2.7,15.41-4.39,1.06-.33,1.92-.42,3.21-1.03,.49-.22,2.27-.64,3.4-1.08,1.65-.59,3.41-1.19,4.95-2.03,.63-.34,2.09-.92,3.15-1.4,1.45-.67,2.92-1.3,4.29-2.16,.73-.5,2.55-1.41,3.44-1.85,3.78-1.7,6.81-4.11,9.64-6.59,.87-.74,1.39-1.34,2.31-2.1,.62-.56,1.31-1.25,1.97-1.9,.63-.69,1.19-1.37,1.57-1.9,1.27-1.92,2.6-3.66,3.71-5.6,1.95-3.33,3.57-6.88,4.86-10.54,1.48-4.18,2.67-8.46,3.45-12.92,.43-2.39,.92-5.56,1.63-8.12,.08-.28,.1-1.37,.21-2.07,.86-5.58,1.58-11.2,2.39-16.82,.19-1.3,.67-2.68,.62-3.9-.05-1.31,.63-2.6,.51-3.71-.02-.16,.18-1.34,.31-1.94,.7-3.27,1.36-6.6,2.12-9.92,.78-3.3,1.39-6.53,1.84-9.83,.23-1.57,.28-3.39,.62-4.63,.05-4.04,.69-8.56,.19-12.53,.03-2.92-.33-6.04-.17-8.86,.02-.46-.09-1.46-.08-1.98,.05-1.78-.45-2.88-.35-5.05,.06-1.24-.17-3.52-.73-5.09-.48-1.47-1.37-2.71-2.64-3.48-1.37-.88-3.13-1.18-4.9-1.21-1.78-.02-3.62,.22-5.43,.57-3.73,.73-7.37,1.59-11.21,2.23-.41,.07-1.11,.23-1.26,.31-1.22,.61-3.18,.76-4.48,.89-1.1,.11-2.04,.24-3.22,.46-3.21,.59-6.43,1.19-9.63,1.78-1.9,.34-3.91,.83-5.76,.94-.57,.03-2.1,.33-2.95,.54-3.96,1.01-8.2,1.55-12.17,2.51-1.8,.44-3.58,.93-5.3,1.56-1.31,.47-2.52,1.18-3.87,1.64-3.05,1.59-6.24,3.33-9.77,4.43-1.74,.58-3.54,.98-5.33,1.34-1.81,.29-3.62,.55-5.45,.63-3.62,.23-7.28-.08-10.84-.79-3.55-.75-7.04-1.95-10.27-3.6-1.62-.81-3.43-1.73-4.64-2.8-.23-.21-1.32-.91-1.65-1.09-.94-.47-1.63-.88-2.46-1.72-.15-.16-.96-.71-1.4-1-1.22-.81-2.22-1.64-3.33-2.67-.86-.8-2.04-1.85-2.94-2.56-2.42-1.88-4.69-3.68-6.83-5.9-.26-.27-1.16-.84-1.66-1.3-1.95-1.79-4.05-3.52-5.81-5.5-.72-.81-1.9-1.89-2.83-2.87-1.58-1.7-3.2-3.21-4.73-5.14-.79-.95-1.57-2-2.41-3.01-.78-1.06-1.63-2.09-2.35-3.19-1.52-2.14-2.84-4.41-4.08-6.73-1.22-2.34-2.23-4.77-3.22-7.12-1-2.35-2.04-4.65-3.41-6.68-1.35-2.04-3.09-3.73-5.13-5.04-2.05-1.28-4.37-2.16-6.79-2.72-1.69-.4-3.3-.68-5.06-.97-2.25-.38-4.8-.57-7.64-.7-2.84-.14-5.98-.18-9.48-.51-.5-.04-1.04-.13-1.56-.21-3.37-.51-6.79-1.42-9.88-3.1l-1.14-.66-.87-.59c-.05-.06-.12-.02-.19-.02l-.57,.04-1.24,.09c-1.66,.15-3.31,.3-4.96,.45-2.9,.28-5.83,.53-8.83,.85-1.96,.21-3.87,.33-5.82,.62-1.64,.23-3.95,.08-5.88,.3-.71,.08-2.59,.02-3.52-.13-3.11-.43-6.37-.86-9.46-1.78-3.54-1.04-6.98-2.55-10.09-4.62-1.51-1.04-2.91-2.22-4.35-3.46-.76-.55-2.14-2.35-2.82-3.54-.29-.44-.51-.92-.77-1.38-.25-.46-.52-.91-.71-1.4-.21-.48-.43-.96-.64-1.43-.16-.49-.32-.97-.48-1.45-.34-1.02-.43-1.82-.59-2.47-.1-.66-.13-1.19-.18-1.72-.07-.53-.02-1.05,0-1.71,.02-.33,.02-.69,.07-1.1,.06-.41,.13-.86,.21-1.38,.06-.5,.19-1.03,.3-1.54,.56-2.55,1.61-5.03,3.14-7.2,1.52-2.16,3.56-3.98,5.91-5.14l1.48-.65,.62-.18,.15-.04s-.01-.06-.02-.09l-.07-.18-.36-1.04c-.62-1.93-1.14-3.89-1.55-5.89-.19-.79-.36-1.64-.49-2.47-.13-.83-.25-1.63-.2-2.33,.01-.2-.11-1.1-.19-1.49-.66-3.33-.72-7-.78-10.49-.04-3.39-.2-6.49-.03-9.95,.17-3.23,.27-6.52,.39-9.78,.18-4.94,.31-5.99,1-5.96,.55,.02,.68,1.28,.66,5.26-.07,8.44-.7,16.91-.33,23.73Z"/>
          </g>
        </g>
        <g class="cls-16">
          <g class="cls-16">
            <path class="cls-5" d="M120.36,164.83c-1.95-.17-3.92-.75-5.74-1.44-1.83-.69-3.49-1.53-5.12-2.07-.35-.13-.72-.27-1.09-.41l.46,.36c1.74,1.37,3.84,2.57,6.11,3.32,2.26,.78,4.63,1.13,6.87,1.22,2.8,0,5.54-.58,8.49-.54,.33,0,.37-.31,.38-.47-.3-.2-.55-.41-.78-.62-2.4,.22-4.8,.52-7.3,.37-.82-.08-1.78,.35-2.28,.27Z"/>
            <polygon class="cls-7" points="130.04 164.23 130 164.19 129.64 164.22 130.04 164.23"/>
            <path class="cls-4" d="M124.13,164.69c-.81,.06-1.62,.03-2.41-.06-.53,.1-1.04,.25-1.36,.2-1.95-.17-3.92-.75-5.74-1.44-1.83-.69-3.49-1.53-5.12-2.07-.35-.13-.71-.26-1.08-.4l.49,.39c1.21,.95,2.58,1.81,4.08,2.5l.26,.05c.93,.13,1.64,.64,2.49,.9,2.44,.48,4.45,.98,6.88,.98,.87,.01,1.77-.33,2.77-.27,.34,0,.67,.01,.99,.04,1.31-.13,2.64-.25,4.02-.23,.33,0,.37-.31,.39-.47-.16-.1-.3-.21-.43-.32-1.11-.04-2.23,0-3.37-.03-.99,.08-1.99,.14-3,.14,.04,.03,.09,.06,.15,.09Z"/>
            <path class="cls-7" d="M124.05,164.21c-.14-.01-.32,.21-.08,.4,1.01,0,2.01-.05,3-.14-.96-.02-1.94-.08-2.93-.26Z"/>
            <path class="cls-8" d="M124.25,163.11c-1.9-.21-3.77,.03-5.26-.53-.78-.27-1.51-.66-2.09-1.14-.25-.05-.49-.11-.72-.19-2.99-.73-5.79-2.24-8.28-4.18-2.5-1.93-4.65-4.29-6.33-6.92-1.73-2.59-3.6-4.88-5.14-7.79-.42-.88-.59-1.75-.78-2.6-.16-.86-.21-1.73-.35-2.66-.17-2.35-.69-4.43-1.06-6.62-.39-2.17-.76-4.45-.56-6.91,.09-1.32-1.1-1.75-1.17-1.43-.54,4.26-.57,8.41,0,12.51,.57,4.08,1.84,8.09,3.9,11.79,3.22,5.72,7.2,10.49,12.03,14.48,.38,.14,.74,.28,1.09,.41,1.63,.54,3.29,1.37,5.12,2.07,1.82,.69,3.79,1.27,5.74,1.44,.5,.08,1.47-.35,2.28-.27,2.5,.15,4.91-.15,7.3-.37-.49-.45-.89-.92-1.39-1.25-1.46,.2-2.92,.37-4.31,.17Z"/>
            <path class="cls-6" d="M124.25,163.11c1.4,.2,2.86,.03,4.31-.17-.24-.17-.51-.3-.82-.39-3.53-.68-7.41-.3-10.84-1.12,.58,.48,1.31,.87,2.09,1.14,1.49,.56,3.36,.32,5.26,.53Z"/>
            <path class="cls-4" d="M124.25,163.11c1.33,.19,2.72,.05,4.11-.14-.47-.06-.94-.1-1.42-.12-2.42-.08-4.86-.09-7.1-.75,2.46,.38,5.01,.48,7.6,.39-3.45-.59-7.21-.25-10.53-1.05,.57,.48,1.3,.86,2.08,1.13,1.49,.56,3.36,.32,5.26,.53Z"/>
            <path class="cls-3" d="M120.35,163c2.84,.53,5.79,.65,8.78,.36-.13-.12-.26-.23-.4-.33-.13-.02-.25-.04-.37-.06-1.39,.19-2.78,.33-4.11,.14-1.9-.21-3.77,.03-5.26-.53-.78-.27-1.51-.66-2.08-1.13-.23-.05-.46-.11-.68-.18-3.05-.74-5.91-2.28-8.45-4.29-2.47-1.4-4.59-3.77-6.12-6.29,.43,.55,.83,1.11,1.29,1.63,.47,.5,.95,1.01,1.43,1.52-.49-.59-.98-1.17-1.48-1.76-.44-.62-.88-1.25-1.32-1.88-.71-1.12-1.51-2.13-2.23-3.2-.38-.09-.84-.32-1.23-.94-.61-.97-1.1-1.98-1.77-2.97-.06-.15,.17-.21,.06-.51,.33,.84,.72,1.47,1.24,1.92-.46-.65-.81-1.37-1.22-2.09-.35-.68-.5-1.38-.66-2.05-.17-.67-.25-1.34-.32-2.04l-.14-.43c-.25-.71-.51-1.43-.8-2.15,.05,.31,.1,.62,.15,.94-.23-.46-.34-1.1-.42-1.58,.09,.21,.18,.43,.26,.63-.14-.73-.22-1.44-.28-2.23,.06,.96,.38,1.9,.67,2.68-.18-.86-.38-1.68-.47-2.52-.12-.83-.19-1.66-.11-2.53l.05,.13c-.48-2.4-.9-4.91-.71-7.65,.09-1.32-1.11-1.75-1.17-1.42-.39,2.98-.49,5.9-.35,8.78,.16,2.88,.56,5.75,1.38,8.53,0-.68-.01-1.36-.02-2.02-.02-.29-.01-.57,.03-.84,0,.28-.02,.56-.03,.84,.09,.77,.33,1.59,.41,2.44-.04,.17,.11,.65,.4,.77,.09,.57,.29,1.17,.5,1.76,.24,.58,.48,1.16,.61,1.73,.02,.06,0,.2-.02,.36,.3,.67,.67,1.3,1.02,1.95,1.99,3.59,4.33,6.78,6.96,9.64-.59-.74-1.03-1.55-1.43-2.3-.49-1.04-2.17-2.71-3.34-4.36-.35-.38-.26-.78-.5-1.22,1.41,1.18,2.32,3.22,3.65,4.73,.45,.48,.92,1.03,1.4,1.63,.48,.59,1.05,1.16,1.59,1.76,1.14,1.14,2.4,2.24,3.71,2.86,1.08,.51,1.87,1.31,2.59,2.01-.38-.04-.95-.39-1.23-.57-1.25-.83-2.45-1.71-3.56-2.71-1.15-.95-2.21-2-3.29-3.04,.96,1.23,2.04,2.33,3.21,3.34,1.14,1.04,2.37,1.97,3.62,2.97-1.63-.95-2.85-2.3-4.37-3.18,.07,.14,.15,.27,.24,.41,.87,.88,1.8,1.67,2.76,2.46,.37,.14,.73,.27,1.08,.4,1.63,.54,3.29,1.37,5.12,2.07,1.82,.69,3.79,1.27,5.74,1.44,.32,.05,.83-.1,1.36-.2-1.24-.14-2.46-.39-3.69-.64,.48,.16,.93,.37,1.35,.6-1.19-.14-2.07-.66-3.22-.93,.64,.1,1.25,.21,1.87,.34-.72-.26-1.48-.49-2.22-.78,1.52,.16,2.78,1.09,4.38,.88-.32-.04-.64-.1-.96-.17l.98,.17h-.02c.99,.11,1.99,.06,2.89-.04-1.7-.09-3.19-.59-4.8-.88l-.81-.13c.28,.03,.54,.09,.81,.13,3.73,.58,7.54,.95,11.35,1.05l.36-.03-.32-.3c-3.15-.03-6.36-.22-9.33-.89Z"/>
          </g>
        </g>
        <g class="cls-16">
          <g class="cls-16">
            <path class="cls-5" d="M97.05,108.77c.21-.59,1.18-.99,.63-1.77-.05-.08-.11-.16-.18-.25l-.08,.07c-.64,.53-1.03,1.09-1.22,1.75,0,.46,.18,1.15-.2,1.48-.04,.04,.2,.24,.31,.35,.18,.09,.38,.19,.58,.3,.15-.46,.17-.97,.39-1.35,.1-.12-.29-.51-.23-.58Z"/>
            <polygon class="cls-7" points="96.85 110.68 96.88 110.7 96.91 110.63 96.85 110.68"/>
            <path class="cls-4" d="M97.09,109.54c0-.17,.07-.29,.14-.41-.08-.15-.22-.32-.19-.37,.21-.59,1.18-.99,.63-1.77-.05-.08-.11-.16-.18-.24l-.09,.08c-.21,.19-.42,.37-.57,.56l.03,.05c.15,.21-.15,.22-.23,.32,0,.41-.35,.57-.38,.97-.03,.13,.21,.45,.09,.57-.02,.05-.06,.09-.11,.12,0,.25-.08,.48-.25,.63-.04,.04,.2,.24,.31,.35,.1,.05,.2,.1,.3,.15,.17-.12,.29-.29,.43-.44,.04-.19,.07-.39,.14-.56-.03,0-.06-.02-.08-.02Z"/>
            <path class="cls-7" d="M97.51,109.78s-.16-.17-.33-.22c-.07,.17-.1,.36-.14,.56,.12-.13,.25-.26,.47-.33Z"/>
            <path class="cls-8" d="M98.42,110.4c.36-.27,.16-.82,.58-.97,.2-.1,.47-.16,.82-.17,.02-.06,.04-.11,.06-.17,.35-1.44,.55-2.77,1.03-4.15,.17-.71-.39-1.39-.81-2.03-.14-.39,.19-.76,.32-1.21,.22-.57-.1-1.03-.53-1.39-.46-.36-1.02-.63-1.43-.96-.21-.19-1.34,.37-1.33,.43,.54,.51,.78,1.19,.93,1.86,.13,.69,.17,1.37,.38,2.08,.28,1.12-.07,2.26-.95,3.03,.07,.08,.13,.16,.18,.25,.56,.78-.42,1.18-.63,1.77-.05,.06,.33,.46,.23,.58-.22,.38-.24,.89-.39,1.35,.41,.22,.83,.45,1.17,.57,.05-.36,.08-.7,.36-.87Z"/>
            <path class="cls-6" d="M98.42,110.4c-.28,.17-.31,.51-.36,.87,.16,.06,.31,.1,.42,.1,1.05-.23,1.11-1.33,1.34-2.1-.35,.02-.63,.08-.82,.17-.42,.15-.22,.7-.58,.97Z"/>
            <path class="cls-4" d="M98.42,110.4c-.27,.16-.3,.48-.36,.82,.12-.04,.21-.09,.29-.17,.37-.39,.58-.87,1.1-1.19-.28,.5-.6,.97-.88,1.48,.96-.29,1.02-1.34,1.24-2.08-.35,.02-.62,.08-.82,.17-.42,.15-.22,.7-.58,.97Z"/>
            <path class="cls-3" d="M98.67,109.6c-.43,.45-.83,.88-1.02,1.5,.11,.05,.22,.1,.31,.14,.04,0,.07-.02,.1-.03,.05-.34,.09-.65,.36-.82,.36-.27,.16-.82,.58-.97,.2-.1,.47-.16,.82-.17,.02-.06,.04-.11,.06-.16,.18-.83,.34-1.51,.48-2.14-.24-.7-.03-1.3,.29-1.93-.03,.31-.05,.61-.05,.93,.09-.33,.2-.67,.31-1.01,.07-.3,.01-.6-.11-.89-.29-.06-.54-.15-.62-.3-.12-.23-.11-.47-.4-.69,0-.03,.24-.05,.25-.11-.02,.19,.15,.33,.41,.45-.11-.17-.22-.34-.33-.49-.1-.31,.06-.6,.22-.93-.02-.03-.03-.06-.04-.09-.07-.15-.23-.29-.41-.41,0,.07,0,.13,.01,.2-.16-.07-.17-.21-.17-.31l.16,.11c0-.16-.01-.31-.04-.48,.03,.2,.19,.38,.35,.52-.09-.37-.29-.67-.19-1.1l.05,.02c-.46-.43-1.12-.72-1.56-1.09-.21-.19-1.34,.37-1.33,.42,.77,.71,.92,1.73,1.05,2.68,.16-.14,.3-.28,.43-.42,.03-.06,.08-.12,.16-.18-.05,.06-.11,.12-.16,.18-.08,.15-.03,.3-.15,.47-.08,.04-.08,.13,.15,.13-.16,.22,.06,.44-.13,.66,0,.01-.07,.04-.15,.06,.03,.12,.06,.25,.1,.37,.16,.7,.11,1.41-.19,2.03,.17-.13,.36-.26,.6-.38,.39-.16,.09-.64,.02-1-.06-.09,.18-.14,.2-.23,.66,.34,.15,.76,.22,1.14,0,.53-.69,1.08-.4,1.7,.13,.27-.19,.4-.5,.48-.11-.11-.07-.21-.04-.27,.25-.48,.47-1,.49-1.55-.41,.5-.41,1.06-.96,1.45,.07-.3,.52-.51,.25-.88-.06,.01-.12,.03-.17,.04-.12,.18-.28,.35-.46,.5,.07,.08,.12,.16,.18,.24,.56,.78-.42,1.18-.63,1.77-.03,.04,.11,.21,.19,.37,.12-.18,.32-.32,.42-.52-.1,.05-.25,.07-.43,.06,.06-.19,.43-.19,.48-.4,.02,.13,0,.24-.05,.34,.16-.07,.26-.18,.39-.28,.12,.37-.58,.3-.35,.73,.03-.05,.06-.1,.12-.14l-.12,.14h0c-.08,.16-.03,.39,0,.61,.15-.28,.58-.38,.72-.68,0-.05,.02-.1,.03-.16,0,.06-.01,.11-.03,.16-.22,.73-.93,1.19-1.51,1.62l-.02,.07,.28,.15c.45-.42,.97-.83,1.51-1.25Z"/>
          </g>
        </g>
        <g class="cls-16">
          <g class="cls-16">
            <path class="cls-5" d="M92.73,74.58c-.18-1.32,.65-2.62,0-3.78-.06-.13-.12-.27-.19-.4l-.08,.19c-.61,1.4-.83,3.07-.54,4.58,.29,.94,.95,1.79,1.03,2.81,0,.11,.32,.07,.47,.05,.18-.14,.38-.26,.59-.37-.31-.75-.67-1.51-.76-2.34,.01-.27-.52-.55-.52-.72Z"/>
            <polygon class="cls-7" points="93.98 77.68 94.02 77.66 93.97 77.55 93.98 77.68"/>
            <path class="cls-4" d="M93.25,75.8c-.12-.26-.17-.53-.16-.79-.15-.16-.37-.32-.36-.42-.18-1.32,.65-2.62,0-3.78-.06-.12-.12-.26-.19-.4-.03,.07-.06,.13-.09,.2-.23,.48-.37,1-.49,1.53l.04,.09c.18,.31-.07,.57-.1,.86,.14,.82-.04,1.51,.16,2.32,.08,.29,.48,.56,.48,.9,.02,.12,.02,.23,0,.34,.2,.43,.37,.86,.4,1.34,0,.11,.32,.07,.48,.05,.1-.07,.2-.14,.3-.2,0-.38-.07-.74-.1-1.12-.12-.31-.22-.64-.3-.97-.03,.02-.05,.04-.07,.06Z"/>
            <path class="cls-7" d="M93.72,75.72s-.23-.08-.4,.02c.08,.33,.17,.65,.3,.97-.02-.32,0-.65,.1-.99Z"/>
            <path class="cls-8" d="M94.82,75.67c.06-.62-.34-1.19-.09-1.7,.12-.27,.37-.53,.67-.75,0-.08,0-.17-.01-.25-.23-2.03,.02-4.13,.94-5.96,.37-.93,.2-1.97,.28-3.1,.18-.61,.72-.92,1.2-1.34,1.24-1,.8-2.77,1.5-4.31,.18-.41-.75-1.27-.82-1.19-.71,1.27-1.49,2.38-2.22,3.55-.7,1.18-1.35,2.41-1.69,3.78-.53,2.13-1.16,4.01-2.04,5.99,.07,.14,.14,.27,.19,.4,.65,1.16-.19,2.46,0,3.78,0,.17,.53,.45,.52,.72,.09,.83,.45,1.59,.76,2.34,.43-.24,.87-.44,1.19-.64-.26-.42-.48-.87-.37-1.33Z"/>
            <path class="cls-6" d="M94.82,75.67c-.1,.46,.11,.91,.37,1.33,.15-.1,.28-.2,.35-.31,.55-1.17-.06-2.31-.13-3.47-.31,.22-.55,.48-.67,.75-.26,.52,.15,1.09,.09,1.7Z"/>
            <path class="cls-4" d="M94.82,75.67c-.1,.44,.09,.87,.34,1.27,.05-.16,.07-.31,.06-.46-.01-.76-.16-1.53,.14-2.29,0,.8,.06,1.6,.24,2.39,.46-1.13-.12-2.24-.19-3.36-.31,.22-.55,.48-.67,.74-.26,.52,.15,1.09,.09,1.7Z"/>
            <path class="cls-3" d="M94.55,74.43c-.07,.47-.11,.95-.07,1.42,.02,.47,.13,.94,.33,1.39,.11-.06,.21-.12,.31-.18,.01-.05,.03-.09,.04-.12-.25-.4-.43-.83-.34-1.27,.06-.62-.34-1.19-.09-1.7,.12-.27,.36-.53,.67-.74,0-.08,0-.16,0-.23-.11-1.04-.1-2.09,.05-3.12-.24-.96,.07-1.94,.6-2.77-.15,.42-.23,.87-.27,1.32,.14-.48,.32-.94,.55-1.38,.15-.4,.22-.81,.24-1.24-.25-.18-.44-.39-.43-.64,.02-.39,.2-.71,.08-1.17,.02-.05,.24,.06,.29-.04-.14,.26-.08,.54,.07,.82,0-.27,0-.55,.02-.83,.13-.48,.52-.77,.88-1.08,.01-.05,.03-.09,.04-.14,.08-.23,.08-.5,.07-.8-.06,.08-.11,.17-.18,.26-.05-.21,.07-.38,.16-.51,0,.09,0,.17,.01,.26,.14-.2,.26-.39,.43-.59-.2,.24-.23,.59-.24,.88,.24-.51,.44-1.01,.91-1.36v.06c.18-.82,.22-1.78,.6-2.62,.18-.41-.74-1.27-.82-1.19-.99,1.76-2.14,3.25-3.02,4.98,.25-.12,.51-.24,.74-.35,.08-.06,.18-.11,.3-.14-.1,.05-.2,.1-.3,.14-.22,.17-.33,.43-.57,.62-.1,0-.18,.15,0,.31-.34,.26-.36,.75-.67,1.03-.01,.02-.09,.03-.18,.04-.07,.23-.14,.47-.21,.7-.32,1.33-.7,2.57-1.15,3.79,.22-.27,.45-.52,.72-.73,.42-.27,.33-1.09,.44-1.76,0-.18,.26-.19,.33-.34,.42,.74-.21,1.3-.3,1.96-.13,.84-.97,1.94-.63,2.95,.15,.41-.17,.73-.46,1.03-.14-.13-.09-.34-.07-.45,.2-.97,.45-1.92,.61-2.89-.57,.93-.58,1.94-1.1,2.93,.05-.62,.49-1.15,.26-1.77-.07,.04-.13,.08-.19,.12-.15,.36-.31,.74-.49,1.17,.07,.14,.13,.27,.19,.4,.65,1.16-.19,2.46,0,3.78,0,.11,.21,.26,.36,.42,.01-.42,.08-.83,.08-1.24-.08,.17-.18,.33-.35,.48-.07-.4,.3-.72,.26-1.1,.07,.21,.09,.42,.09,.62,.12-.25,.17-.51,.24-.77,.26,.5-.42,.97,.02,1.47,0-.11,0-.21,.02-.32l-.02,.33h0c.03,.32,.18,.64,.36,.92-.05-.56,.26-1.07,.23-1.61-.01-.09-.02-.17-.04-.27,.02,.09,.03,.18,.04,.27,.17,1.23-.13,2.49-.06,3.76l.04,.11,.29-.16c-.08-1.03-.02-2.08,.25-3.07Z"/>
          </g>
        </g>
        <g class="cls-16">
          <g class="cls-16">
            <path class="cls-5" d="M210.46,222.76c-2.85-4-4.34-8.93-6.69-12.34-.25-.38-.51-.77-.77-1.17l.23,.67c1.71,5.06,4.2,10.49,7.68,14.94,2.24,2.7,5.03,4.95,7.99,7.36,.33,.27,.56,.06,.68-.05-.17-.39-.29-.77-.38-1.12-2.47-1.74-4.79-3.78-6.72-6.28-.58-.85-1.7-1.47-2.02-2.02Z"/>
            <polygon class="cls-7" points="219.27 231.16 219.25 231.09 218.88 230.83 219.27 231.16"/>
            <path class="cls-4" d="M213.61,226.27c-.7-.74-1.36-1.51-1.92-2.35-.51-.44-1.03-.83-1.23-1.17-2.85-4-4.34-8.93-6.69-12.34-.25-.37-.5-.76-.76-1.16l.24,.72c.6,1.76,1.28,3.55,2.07,5.33,.06,.09,.12,.18,.18,.26,.66,.89,.91,1.89,1.38,2.84,1.59,2.54,2.73,4.81,4.7,7.14,.71,.82,1.7,1.48,2.54,2.45,.29,.32,.56,.63,.84,.95,.63,.56,1.27,1.12,1.95,1.66,.65,.57,1.35,1.1,2.04,1.67,.33,.27,.56,.06,.68-.05-.09-.21-.16-.41-.23-.6-1.08-.91-2.16-1.83-3.16-2.87-.95-.82-1.84-1.72-2.69-2.67,.01,.06,.03,.13,.06,.21Z"/>
            <path class="cls-7" d="M213.9,225.87c-.11-.14-.42-.17-.35,.2,.85,.95,1.74,1.85,2.69,2.67-.85-.86-1.64-1.82-2.34-2.87Z"/>
            <path class="cls-8" d="M214.87,225.32c-1.42-1.92-3.05-3.6-3.85-5.45-.44-.95-.74-1.96-.91-2.88-.17-.28-.33-.57-.48-.86-2.03-3.53-3.75-7.27-5.35-11.06-1.59-3.81-3.11-7.65-4.51-11.5-.74-1.92-1.6-3.71-2.51-5.49-.92-1.77-1.87-3.57-2.98-5.42-1.21-2.23-1.96-4.22-3.59-6.32-2.05-2.64-4.92-4.1-7.74-4.97-2.85-.88-5.76-1.22-8.82-1.75-1.66-.28-2.16,.89-1.76,1,5.08,.94,10.01,2.22,13.99,5.01,.98,.7,1.89,1.49,2.7,2.36,.8,.88,1.52,1.85,2.16,2.89,1.29,2.08,2.31,4.39,3.38,6.75,3.33,7.35,6.02,14.43,8.39,21.62,.26,.4,.52,.79,.77,1.17,2.35,3.41,3.84,8.34,6.69,12.34,.32,.55,1.44,1.16,2.02,2.02,1.92,2.5,4.24,4.53,6.72,6.28-.19-.74-.27-1.39-.48-2.06-1.48-1.02-2.81-2.26-3.85-3.67Z"/>
            <path class="cls-6" d="M214.87,225.32c1.04,1.41,2.37,2.66,3.85,3.67-.11-.32-.25-.64-.47-.96-2.62-3.42-5.84-7.03-8.13-11.04,.16,.93,.47,1.93,.91,2.88,.8,1.84,2.43,3.52,3.85,5.45Z"/>
            <path class="cls-4" d="M214.87,225.32c.99,1.35,2.25,2.54,3.65,3.53-.41-.45-.79-.87-1.17-1.29-2.05-2.15-3.96-4.52-5.3-7.18,1.71,2.69,3.66,5.21,5.97,7.35-2.58-3.32-5.68-6.85-7.9-10.73,.16,.92,.47,1.93,.9,2.87,.8,1.84,2.43,3.52,3.85,5.45Z"/>
            <path class="cls-3" d="M211.81,221.5c1.84,3.14,4.19,6.04,7.14,8.27-.04-.19-.08-.38-.14-.57-.1-.12-.2-.23-.3-.35-1.4-.99-2.66-2.18-3.65-3.53-1.42-1.92-3.05-3.6-3.85-5.45-.44-.95-.74-1.95-.9-2.87-.16-.27-.31-.53-.45-.81-2.08-3.6-3.83-7.42-5.46-11.3-1.77-3.23-3.2-6.97-4.42-10.63,.68,1.68,1.39,3.35,2.14,5.01-.73-1.87-1.45-3.75-2.13-5.64-.62-1.63-1.34-3.16-2.1-4.67-.4-.21-.84-.62-1.27-1.46-.67-1.31-1.19-2.67-2.08-3.93-.08-.19,.15-.25-.02-.64,.48,1.07,1,1.88,1.55,2.54-.49-.91-1.01-1.83-1.56-2.76-.95-1.76-1.61-3.35-2.63-4.99l-.41-.47c-.7-.77-1.53-1.43-2.42-1.98,.31,.28,.63,.56,.93,.89-.58-.37-1.2-.95-1.71-1.34,.27,.14,.53,.29,.78,.46-.75-.67-1.51-1.25-2.4-1.83,1.07,.71,2.2,1.4,3.12,2.07-1.82-1.62-3.76-2.67-5.78-3.84l.18,.04c-3.15-1.13-6.37-1.49-9.78-2.08-1.66-.28-2.16,.89-1.76,1,3.56,.66,7,1.48,10.15,2.87,3.14,1.39,5.9,3.41,7.84,6.17-.3-.71-.66-1.42-1.08-2.11-.21-.27-.4-.55-.56-.83,.19,.28,.37,.56,.56,.83,.56,.75,1.22,1.54,1.66,2.45,.03,.2,.34,.71,.66,.8,.56,1.27,1.46,2.67,1.85,4.03,.03,.08,.03,.23,.02,.42,.37,.81,.74,1.62,1.11,2.43,2.07,4.59,3.92,9.09,5.57,13.56-.3-1.12-.57-2.21-.76-3.23-.2-1.41-1.63-4.02-2.67-6.29-.3-.56-.21-.99-.43-1.57,1.44,1.77,2.08,4.54,3.13,6.81,1.34,3.04,2.56,7.56,4.38,10.7,.76,1.29,1.08,2.67,1.33,3.87-.31-.34-.63-1.1-.79-1.48-1.4-3.44-2.7-6.91-4.2-10.33,1.18,3.7,2.7,7.11,3.89,10.82-.94-2.09-1.46-4.27-2.58-6.11,.01,.19,.03,.38,.06,.57,.48,1.41,.96,2.82,1.45,4.25,.26,.4,.52,.78,.76,1.16,2.35,3.41,3.84,8.34,6.69,12.34,.2,.34,.73,.73,1.23,1.17-.91-1.28-1.65-2.64-2.45-3.97,.26,.57,.47,1.15,.63,1.71-.82-1.23-1.13-2.44-1.88-3.7,.46,.65,.84,1.33,1.25,1.99-.42-.9-.82-1.76-1.23-2.64,1.15,1.53,1.44,3.4,2.87,4.79-.23-.34-.45-.68-.64-1.04l.65,1.06-.02-.02c.34,.52,.73,1.01,1.14,1.47,.4,.46,.8,.9,1.21,1.28-1.31-1.69-2.13-3.46-3.2-5.24l-.56-.87c.19,.3,.38,.59,.56,.87,2.54,4.02,5.21,8.04,8.85,11.22l.37,.26c-.04-.16-.08-.33-.12-.49-1.5-1.28-2.89-2.7-4.09-4.26-1.23-1.54-2.3-3.17-3.23-4.85Z"/>
          </g>
        </g>
        <g class="cls-16">
          <g class="cls-16">
            <path class="cls-5" d="M266.96,247.41c-2.79,.03-5.62-.98-8.04-.52-.26,.04-.54,.09-.82,.14l.4,.11c3.01,.85,6.39,1.25,9.57,1.13,1.97-.19,3.94-.76,6.1-.77,.24,0,.26-.31,.26-.47-.22-.19-.42-.4-.59-.62-1.72,.25-3.45,.56-5.25,.54-.59-.04-1.26,.48-1.62,.45Z"/>
            <polygon class="cls-7" points="273.9 246.45 273.86 246.41 273.6 246.45 273.9 246.45"/>
            <path class="cls-4" d="M269.65,247.02c-.58,.08-1.16,.09-1.73,.07-.38,.14-.73,.34-.96,.32-2.79,.03-5.62-.98-8.04-.52-.26,.04-.53,.09-.82,.14l.43,.11c1.04,.29,2.13,.54,3.23,.71l.18-.03c.64-.14,1.2,.15,1.8,.22,.86-.02,1.64,.04,2.43,.08,.78,.05,1.57,.09,2.43,.01,.61-.04,1.25-.4,1.97-.38,.25-.01,.48,0,.71,.02,.94-.14,1.9-.29,2.91-.28,.24,0,.26-.31,.26-.47-.12-.1-.22-.21-.33-.32-.81-.03-1.61,.03-2.44,.01-.71,.09-1.43,.18-2.16,.21,.03,.03,.07,.06,.11,.08Z"/>
            <path class="cls-7" d="M269.58,246.54c-.1,0-.23,.22-.04,.4,.73-.04,1.45-.13,2.16-.21-.69-.01-1.4-.04-2.12-.19Z"/>
            <path class="cls-8" d="M269.69,245.44c-1.39-.15-2.73,.23-3.87-.12-.59-.15-1.17-.43-1.66-.77-.19,0-.38-.02-.57-.02-4.69-.08-9.38-.72-13.79-2.15-2.22-.66-4.43-.7-6.82-1.11-1.38-.36-2.34-1.07-3.54-1.78-1.51-.9-2.99-1.32-4.48-1.8-1.47-.48-3.03-1.05-4.23-2.35-.61-.69-1.77-.24-1.65-.01,.96,1.43,2.21,2.52,3.51,3.38,1.3,.87,2.66,1.53,4.03,2.13,2.72,1.14,5.47,2.16,8.42,2.84,4.55,1.08,8.79,2.13,13.05,3.34,.29-.05,.56-.1,.82-.14,2.42-.46,5.25,.55,8.04,.52,.36,.04,1.03-.48,1.62-.45,1.8,.02,3.53-.3,5.25-.54-.37-.45-.67-.91-1.03-1.23-1.04,.24-2.09,.39-3.11,.26Z"/>
            <path class="cls-6" d="M269.69,245.44c1.02,.13,2.07-.03,3.11-.26-.18-.16-.37-.29-.6-.37-2.55-.64-5.38-.17-8.04-.25,.49,.34,1.07,.62,1.66,.77,1.13,.35,2.48-.04,3.87,.12Z"/>
            <path class="cls-4" d="M269.69,245.44c.97,.12,1.97-.01,2.96-.23-.34-.06-.68-.09-1.02-.1-1.74-.05-3.51,.03-5.22-.37,1.85,.1,3.7,.11,5.56,0-2.49-.54-5.24-.11-7.81-.19,.49,.34,1.06,.62,1.66,.76,1.13,.35,2.48-.04,3.87,.12Z"/>
            <path class="cls-3" d="M266.85,245.58c2.1,.24,4.23,.35,6.36,0-.1-.11-.19-.22-.29-.32-.09-.02-.18-.03-.27-.05-.99,.22-1.99,.35-2.96,.23-1.39-.15-2.73,.23-3.87-.12-.59-.15-1.17-.42-1.66-.76-.18,0-.36-.02-.53-.02-2.39-.05-4.79-.21-7.14-.58-2.11,.05-4.34-.46-6.39-1.24,.99,.25,2,.45,3.02,.59-1.11-.25-2.2-.56-3.28-.91-.94-.27-1.88-.45-2.83-.57-.27,.23-.63,.38-1.17,.31-.84-.11-1.61-.39-2.5-.39-.11-.04-.02-.26-.24-.34,.61,.23,1.17,.24,1.69,.14-.59-.08-1.18-.17-1.77-.25-1.08-.28-1.91-.79-2.8-1.33l-.32-.09c-.53-.16-1.09-.24-1.67-.29,.21,.09,.42,.18,.64,.28-.39,0-.83-.18-1.14-.33,.17,.02,.34,.04,.5,.06-.49-.22-.96-.44-1.47-.69,.62,.31,1.32,.46,1.93,.55-1.21-.44-2.33-.8-3.3-1.56h.1c-1.63-.52-3.4-1.04-4.74-2.49-.61-.69-1.77-.25-1.65,0,1.37,2,3.24,3.3,5.1,4.31,1.88,1.02,3.79,1.74,5.72,2.47-.38-.33-.76-.65-1.13-.96-.18-.11-.34-.23-.48-.39,.16,.13,.32,.26,.48,.39,.48,.3,1.06,.5,1.57,.82,.08,.12,.41,.25,.62,.08,.71,.46,1.7,.58,2.42,1.01,.05,.02,.1,.11,.17,.22,.5,.14,1.01,.27,1.52,.38,2.85,.67,5.57,1.34,8.25,2.04-.62-.28-1.22-.57-1.75-.9-.7-.51-2.43-.56-3.85-.85-.37-.03-.51-.32-.85-.43,1.38-.31,2.82,.53,4.25,.75,1.87,.33,4.4,1.42,6.52,1.23,.87-.07,1.63,.28,2.28,.64-.27,.12-.74,.04-.97,0-2.12-.39-4.2-.77-6.32-1.16,2.12,.77,4.28,.98,6.45,1.66-1.32-.13-2.52-.7-3.79-.56,.09,.08,.19,.15,.28,.22,.84,.22,1.68,.45,2.52,.7,.28-.05,.56-.1,.82-.14,2.42-.46,5.25,.55,8.04,.52,.23,.02,.58-.17,.96-.32-.89-.03-1.77-.19-2.66-.22,.35,.09,.69,.22,1,.4-.85,.01-1.51-.37-2.35-.39,.46-.04,.9-.03,1.35-.01-.53-.14-1.09-.23-1.65-.34,1.11-.18,2.07,.54,3.2,.16-.23,0-.47-.03-.7-.07l.71,.06h-.01c.71,.03,1.43-.12,2.07-.26-1.23,0-2.32-.37-3.51-.41-.2,0-.39,0-.59,0,.2-.01,.4,0,.59,0,2.74,0,5.48,.39,8.24,.43l.26-.04-.24-.3c-2.27,.02-4.58-.18-6.77-.53Z"/>
          </g>
        </g>
        <g class="cls-16">
          <g class="cls-16">
            <path class="cls-5" d="M344.08,237.73c-3.13,.04-6.4-.94-8.9,.07-.27,.1-.55,.19-.82,.32,.14,0,.28,0,.43,0,3.25,.11,6.89,.62,10.55,.45,2.27-.23,4.56-.89,7.06-1.46,.28-.06,.23-.37,.2-.53-.3-.13-.56-.29-.79-.46-1.87,.65-3.86,1.09-5.91,1.12-.68-.02-1.42,.5-1.83,.47Z"/>
            <polygon class="cls-7" points="351.91 236.16 351.86 236.13 351.58 236.22 351.91 236.16"/>
            <path class="cls-4" d="M347.14,237.28c-.66,.13-1.32,.13-1.97,.13-.43,.15-.82,.34-1.08,.33-3.13,.04-6.4-.94-8.9,.07-.27,.1-.55,.19-.81,.32,.15,0,.31,0,.46,.01,1.14,.05,2.29,.11,3.5,.22l.19-.05c.68-.21,1.31,.08,1.96,.12,1.88-.1,3.5,.21,5.47,.02,.7-.05,1.44-.46,2.27-.47,.29-.04,.56-.05,.84-.05,1.18-.28,2.24-.54,3.37-.8,.28-.06,.23-.37,.2-.53-.16-.07-.3-.15-.44-.23-.92,.19-1.82,.36-2.76,.47-.8,.17-1.62,.32-2.45,.38,.03,.03,.08,.05,.13,.07Z"/>
            <path class="cls-7" d="M347.04,236.8c-.12,0-.25,.24-.03,.4,.83-.06,1.65-.21,2.45-.38-.79,.06-1.6,.1-2.42-.02Z"/>
            <path class="cls-8" d="M347.11,235.7c-1.55-.07-3.06,.3-4.36-.03-.68-.15-1.35-.41-1.94-.74-.22,0-.44,0-.66,0-2.74,.06-5.59,.13-8.43,.84-.71,.14-1.4,.42-2.1,.63-.68,.3-1.38,.55-2.03,.91-1.31,.69-2.49,1.53-3.61,2.37-2.2,1.76-3.44,3.89-5.4,5.68-1.25,.97-2.54,1.27-4,1.7-1.84,.49-3.41,1.2-5.08,1.92-1.66,.71-3.42,1.44-5.41,1.78-1.07,.17-1.18,1.44-.91,1.43,3.48-.4,6.82-1,10.04-2.11,3.2-1.09,6.29-2.81,8.78-5.26,1.92-1.85,3.67-3.7,5.72-4.95,2.02-1.28,4.34-1.74,6.64-1.73,.26-.14,.54-.22,.82-.32,2.5-1.01,5.76-.03,8.9-.07,.41,.03,1.16-.48,1.83-.47,2.05-.04,4.04-.47,5.91-1.12-.5-.36-.89-.72-1.33-1-1.08,.38-2.23,.68-3.37,.56Z"/>
            <path class="cls-6" d="M347.11,235.7c1.14,.11,2.29-.19,3.37-.56-.22-.13-.44-.24-.69-.29-2.74-.27-5.87,.09-8.98,.08,.59,.33,1.26,.59,1.94,.74,1.3,.33,2.81-.04,4.36,.03Z"/>
            <path class="cls-4" d="M347.11,235.7c.54,.05,1.09,.02,1.63-.09,.55-.08,1.07-.25,1.59-.43-.37-.01-.74,.02-1.11,.04-1.89,.15-3.86,.22-5.8-.15,2.1,.08,4.17,.1,6.14-.26-2.67-.22-5.72,.12-8.73,.11,.58,.33,1.25,.58,1.93,.73,1.3,.33,2.81-.04,4.36,.03Z"/>
            <path class="cls-3" d="M343.93,235.9c2.37,.22,4.8,.29,7.07-.44-.13-.09-.25-.18-.36-.26-.1,0-.2,0-.3-.01-.52,.18-1.05,.35-1.59,.43-.54,.1-1.09,.14-1.63,.09-1.55-.07-3.06,.3-4.36-.03-.68-.15-1.34-.41-1.93-.73-.21,0-.42,0-.62,0-2.8,.05-5.71,.14-8.61,.86-.61,.23-1.21,.54-1.83,.77-.6,.32-1.23,.57-1.83,.9-1.21,.64-2.35,1.38-3.45,2.11,.95-.78,1.95-1.56,3.06-2.25-1.27,.68-2.43,1.49-3.52,2.31-.93,.74-1.69,1.56-2.41,2.38,.03,.37-.06,.79-.46,1.25-.62,.72-1.34,1.27-1.94,2.04-.11,.07-.22-.13-.44,.01,.6-.4,.98-.89,1.22-1.41-.43,.48-.88,.95-1.37,1.41-.97,.77-2,1.11-3.08,1.44l-.31,.18c-.52,.31-1.03,.66-1.55,1.04,.24-.08,.48-.17,.72-.27-.31,.3-.81,.47-1.18,.6,.15-.11,.31-.22,.46-.33-.57,.21-1.12,.38-1.74,.56,.75-.22,1.45-.62,2.01-.99-1.3,.57-2.52,1.08-3.93,1.23l.09-.07c-1.83,.8-3.75,1.64-5.97,2.03-1.07,.17-1.18,1.44-.9,1.43,4.85-.57,9.49-1.5,13.76-3.73-.56,.1-1.11,.18-1.67,.26-.23,.06-.46,.09-.69,.09,.23-.03,.46-.06,.69-.09,.62-.17,1.24-.5,1.91-.71,.15,0,.53-.17,.55-.46,.91-.31,1.75-1.1,2.61-1.52,.05-.03,.17-.03,.31-.04,.46-.39,.91-.79,1.34-1.21,2.38-2.31,4.57-4.63,7.29-5.75-.69,.17-1.37,.39-2.03,.58-.95,.2-2.23,1.68-3.34,2.84-.26,.32-.6,.3-.91,.57,.6-1.44,2.26-2.36,3.51-3.39,.85-.67,2.03-1.28,3.28-1.67,.61-.24,1.26-.37,1.86-.58,.62-.14,1.21-.37,1.78-.54,.93-.36,1.88-.15,2.65,.07-.28,.15-.8,.19-1.06,.19-1.19,.04-2.36,.21-3.51,.48-1.14,.32-2.26,.74-3.27,1.36,1.15-.47,2.28-.84,3.44-1.13,1.18-.22,2.36-.38,3.59-.25-1.41,.12-2.86,0-4.02,.73,.12,.02,.24,.04,.36,.05,.9-.16,1.8-.23,2.72-.22,.26-.13,.54-.22,.81-.32,2.5-1.01,5.76-.03,8.9-.07,.26,.01,.66-.18,1.08-.33-1.02-.03-2.01-.16-3.02-.2,.4,.09,.78,.21,1.14,.4-.95,.01-1.71-.36-2.65-.35,.51-.05,1.01-.06,1.52-.04-.6-.14-1.24-.21-1.87-.3,1.24-.23,2.35,.49,3.62,.11-.26,0-.53-.02-.79-.06l.81,.05h-.02c.81,.02,1.62-.13,2.35-.29-1.39,.03-2.63-.33-3.99-.37-.22,0-.45,0-.68,.01,.23-.02,.45-.02,.68-.01,3.11-.04,6.22,.44,9.33-.13l.28-.1-.32-.24c-2.51,.53-5.13,.35-7.61,.02Z"/>
          </g>
        </g>
      </g>
    </g>
  </g>
</svg>