<?xml version="1.0" encoding="UTF-8"?>
<svg id="_Слой_2" data-name="Слой 2" xmlns="http://www.w3.org/2000/svg" xmlns:xlink="http://www.w3.org/1999/xlink" viewBox="0 0 345.45 149.42">
  <defs>
    <style>
      .cls-1 {
        fill: none;
      }

      .cls-2 {
        clip-path: url(#clippath);
      }

      .cls-3 {
        fill: #f3f9fb;
      }

      .cls-4 {
        fill: #f7fbfc;
      }

      .cls-5 {
        fill: #f8fcfd;
      }

      .cls-6 {
        fill: #f4fafb;
      }

      .cls-7 {
        fill: #f5fafb;
      }

      .cls-8 {
        fill: #fbfdfe;
      }

      .cls-9 {
        fill: #848179;
      }

      .cls-10 {
        fill: #666361;
      }

      .cls-11 {
        fill: #42413c;
      }

      .cls-12 {
        fill: #a2dbed;
      }

      .cls-13 {
        fill: #6e7c6e;
      }

      .cls-14 {
        opacity: .58;
      }

      .cls-15 {
        opacity: .49;
      }

      .cls-16 {
        opacity: .8;
      }
    </style>
    <clipPath id="clippath">
      <rect class="cls-1" width="345.45" height="149.42"/>
    </clipPath>
  </defs>
  <g id="_камни" data-name="камни">
    <g class="cls-2">
      <g>
        <g>
          <path class="cls-11" d="M78.81,145.28c3.26,10.03,15.17,14.12,25.65,15.35,16.75,1.96,33.71,.21,50.36-2.4,15.94-2.5,31.98-5.86,46.38-13.14s27.16-18.92,32.88-34.01c2.22-5.86,3.3-12.59,.72-18.31-1.52-3.36-4.15-6.06-6.74-8.69-12.65-12.86-26.23-26.26-43.73-30.62-15.71-3.91-32.61,.22-46.64,8.29s-25.59,19.78-36.31,31.9c-12.92,14.6-25.63,32.41-23.01,51.73"/>
          <path class="cls-11" d="M87.48,108.79c3.8-5.77,8.2-11.05,12.66-16.21,1.67-1.91,3.56-3.69,5.03-5.94,.73-1.12,2.8-2.55,4.43-4.24,4.4-4.61,9.15-8.95,14.11-13,4.83-3.94,9.9-7.63,15.44-10.65,2.76-1.47,5.66-2.77,8.6-3.89,2.95-1.1,5.91-2.07,8.81-2.93,5.05-1.5,9.85-1.68,14.86-1.85,5.33-.21,10.95,.57,15.91,2.28,3.62,1.26,7,2.9,10.37,4.56,1.03,.55,2.07,1.02,3.11,1.54,1.02,.56,2.08,1.11,3.14,1.83,1.97,1.33,3.99,3.09,5.94,3.93,.16,.07,.93,.81,1.31,1.2,1.78,1.86,4.11,3.87,5.85,5.11,1.68,1.22,3,2.48,4.38,3.8,1.91,1.8,3.77,3.65,5.62,5.5,1.83,1.87,3.67,3.66,5.49,5.71,1.35,1.54,2.62,3.26,3.6,5.2,.98,1.96,1.59,4.1,1.89,6.22,.6,4.45-.02,9.18-1.49,12.83-1.51,3.64-3.05,7-4.98,10.28-.58,.91-1.24,1.88-1.86,2.81-.65,.91-1.19,1.84-1.51,2.71-.06,.16-.57,.79-.83,1.06-1.07,1.12-2.16,2.2-3.17,3.34-1.07,1.09-2.06,2.24-3.14,3.32-2.11,2.21-4.35,4.33-6.9,6.11-2.61,1.85-5.33,3.61-8.15,5.22-2.81,1.62-5.71,3.13-8.66,4.42-1.58,.7-3.33,1.26-4.67,2.18-.47,.33-2.16,.99-3.02,1.17-4.66,1.07-9.36,2.78-14.11,3.81-5.4,1.19-10.79,2.49-16.33,2.99-2.34,.22-5.51,.62-8.22,1.52-1.25,.42-3.95,.56-5.95,.87-1.64,.26-3.21,.68-4.85,.86-1.39,.16-2.81,.09-4.24,.14-.42,0-.94,.05-1.35,.12-8.02,1.26-16.13,.73-24.27,.35-8.09-.37-16.87-1.64-24.3-6.28-2.04-1.26-3.93-2.94-5.28-4.8-1.35-1.85-2.16-3.86-2.24-5.53-.11-1.5,.37-1.57,1.3,.04,.32,.6,.82,1.16,1.22,1.78,.48,.57,.94,1.18,1.44,1.75,1.6,1.84,3.61,3.28,5.69,4.42,4.39,2.37,9.35,3.31,14.45,4.35,1.59,.32,3.54,.25,4.86,.82,.18,.09,.86,.17,1.18,.16,7.08-.07,14.42,.3,21.63-.21,6.14-.44,11.98-1.66,18.17-2.28,3.3-1.01,7.29-1.53,10.72-1.95,12.09-1.46,23.97-4.54,35.09-9.13,11.27-4.6,21.64-11.63,29.36-20.94,.63-.81,1.18-1.6,1.74-2.42,.53-.85,1.15-1.68,1.89-2.62,1.42-1.76,2.72-4.4,3.81-6.77,.49-1.09,.93-2.25,1.36-3.37,.41-1.13,.76-2.25,1.11-3.3,1.45-4.34,1.75-9.19-.06-13.26-1.8-4.06-5.6-7.26-8.96-10.8-6.78-6.91-13.77-13.69-21.73-18.93-4.84-3.22-10.09-5.58-15.5-7.52-1.16-.38-2.39-.67-3.6-.99-1.23-.24-2.42-.62-3.59-1.02-.33-.12-1.08-.18-1.94-.22-.87,0-1.84,.01-2.62-.05-3.91-.23-7.87-.08-11.78,.49-5.42,.82-10.79,2.27-15.86,4.43-3.1,1.31-6,2.94-8.89,4.65-3.02,1.79-6,3.75-8.88,5.79-3.66,2.59-7.22,5.31-10.59,8.32-3.5,3.12-6.78,6.75-10.03,9.86-6.04,5.83-11.48,12.25-16.44,18.9-4.89,6.62-9.18,13.82-11.48,21.6-1.27,4.39-2.34,8.5-2.26,13-.02,.52-.06,1.09-.13,1.65-.08,.55-.2,1.09-.35,1.55-.29,.91-.67,1.48-.92,1.06-.1-.16-.21-.51-.28-.87-.87-4.52-1.27-9,0-14.26,.9-3.88,2.38-7.57,4.04-11.14,.82-1.8,1.78-3.51,2.72-5.23,1.01-1.68,2-3.37,3.1-4.99Z"/>
        </g>
        <g class="cls-14">
          <path class="cls-12" d="M226.69,117.03c-1.01-.36-2.04-.72-2.87-1.41s-1.41-1.76-1.21-2.81c.33-1.72,2.35-2.42,4-2.99,5.45-1.9,10.14-5.92,12.84-11.02,.44-.83,.86-1.72,1.61-2.29,1.07-.81,2.54-.77,3.88-.7,.79,.04,1.66,.12,2.23,.68,.37,.36,.55,.88,.72,1.37,.99,2.99,1.86,6.24,.89,9.24-.49,1.53-1.44,2.88-2.53,4.06-5.13,5.55-13.05,7.32-20.47,8.77-.27,.05-.56,.11-.83,.02-.92-.3-.64-1.66-.19-2.51"/>
          <path class="cls-12" d="M224.64,116.7c-.56-.29-.99-.6-1.4-.96-.07-.05-.22-.04-.3-.12-.28-.33-.64-.66-.67-1.13-.03-.5-.1-.93-.18-1.39-.08-.45,.09-.88,.27-1.28,.06-.14,.12-.28,.33-.31,.15-.03,.29-.15,.25-.4,0-.05,.07-.06,.11-.08,.05-.02,.15,0,.16-.04,.12-.49,.6-.54,.9-.78,.08-.06,.21-.03,.19-.24,0-.05,.08-.11,.12-.08,.12,.08,.2,.07,.28,.03,.35-.17,.71-.3,1.06-.43,.09-.3,.32-.26,.5-.32,.14-.05,.29-.01,.44-.02,.15,0,.23-.21,.44-.05,.03,.03,.06-.06,.1-.07,.16-.08,.3-.23,.48-.21,.09,0,.19,0,.27-.02,1.02-.44,2.01-.95,2.94-1.55,.08-.05,.18-.07,.19-.25,0-.14,.14-.24,.27-.19,.2,.09,.26-.04,.36-.1,.19-.11,.36-.25,.55-.37,.11-.07,.15-.26,.4-.12,.02,.01,.06-.01,.05-.04-.03-.28,.21-.2,.34-.27,.1-.05,.18-.12,.19-.29,.01-.16,.14-.29,.3-.26,.21,.04,.28-.08,.38-.17,.59-.5,1.15-1.02,1.66-1.59,.24-.28,.32-.68,.62-.9,.07-.05,.06-.19,.25-.13,.04,.01,.07-.06,.05-.11-.06-.18,.05-.21,.13-.29,.33-.38,.74-.73,.9-1.23,.13-.38,.39-.66,.55-1.01,.06-.11,.23-.16,.32-.26,.09-.09,.14-.21,.2-.33,.03-.07,.11-.11,.03-.25-.05-.07-.01-.18,.06-.18,.26-.03,.26-.2,.34-.34,.22-.38,.41-.8,.67-1.2,.06-.1,.05-.27,.29-.23,.03,0,.01-.09,.02-.14,0-.05,0-.14,.04-.14,.41-.07,.52-.41,.79-.61,.65-.46,1.43-.7,2.18-.74,.21,0,.38-.2,.59-.2,.2,0,.39-.01,.59,0,.14,.02,.29-.08,.4,.15,.03,.06,.13,.06,.17,0,.16-.21,.32-.09,.49-.11,.2-.03,.39,.13,.63-.06,.07-.05,.16,.09,.24,.12,.15,.05,.29,.1,.45,.14,.07,.02,.18-.03,.25,0,.61,.17,1.2,.75,1.45,1.29,.27,.56,.37,1.03,.54,1.52,.16,.49,.32,.98,.43,1.49,.04,.19,.26,.36,.01,.6,.22,.13,.15,.32-.02,.51-.02,.03,.07,.06,.11,.1,.11,.11,.43,.18,.13,.39-.01,0,0,.02,0,.04-.02,.13,.33,.15,.15,.34-.11,.12-.03,.26-.02,.39,.01,.13,.01,.27,.06,.4,.04,.14-.09,.3,.17,.4,.04,.02-.12,.14-.11,.2,.09,.31-.13,.63,.18,.94,.07,.07,.06,.19,0,.26-.22,.27-.12,.52-.06,.81,.07,.38,.06,.8-.33,1.09-.08,.06-.14,.08-.05,.18,.06,.07,.03,.15,0,.22-.19,.79-.51,1.55-.89,2.24-.11,.19-.41,.24-.45,.47-.02,.1-.18,.12-.05,.29,.02,.02,0,.06-.01,.07-.34,.09-.22,.49-.46,.64-.05,.03-.12,.05-.17,.08-.05,.03-.14,.04-.14,.1-.03,.49-.47,.67-.69,1.01-.08,.11-.28,.13-.19,.39,.01,.04-.03,.08-.07,.08-.38-.04-.4,.3-.62,.42-.11,.06-.12,.27-.36,.16-.03-.01-.05,.04-.06,.07-.02,.06,0,.15-.05,.18-.12,.09-.32,.09-.37,.23-.05,.18-.19,.25-.3,.35-.07,.06-.2,.02-.29,.05-.08,.03-.14,.1-.21,.15-.1,.07-.17,.18-.29,.21-.13,.03-.05,.29-.26,.23-.16-.05-.11,.22-.19,.3-.04,.04-.11,.05-.17,.06-.05,0-.13-.04-.16-.01-.07,.06-.16,.07-.19,.21-.02,.1-.19,.05-.28,.09-.09,.04-.16,.1-.24,.16s-.19,.07-.24,.16c-.2,.41-.62,.47-.94,.7-.08,.06-.14,.19-.32,.04-.03-.03-.08,0-.1,.03-.19,.43-.64,.39-.94,.64-.21,.17-.41,.38-.67,.46-.25,.08-.52,.15-.72,.34-.16,.16-.33,.31-.54,.33-.21,.02-.23,.5-.55,.23-.19,.08-.38,.15-.58,.2-.17,.04-.3,.19-.53,.05-.08-.05-.19,0-.23,.08-.13,.29-.35,.29-.59,.24-.06-.01-.09,.11-.14,.13-.17,.07-.34,.14-.52,.16-.54,.07-.97,.44-1.49,.59-.09,.03-.15,.22-.25,.2-.58-.14-1.03,.28-1.58,.24-.8-.05-1.51,.28-2.27,.39-.1,.01-.24-.14-.27-.08-.11,.19-.3,.09-.39,.23-.17,.26-.41,.16-.61,.26-.15,.07-.34-.04-.43,.24-.01,.04-.07,.04-.1,.02-.27-.19-.43,.2-.67,.14-.06,.05-.07,.08-.16,.12-.1,.04-.19,.08-.29,.11-.2,.06-.41,.11-.61,.12-.41,.03-.76-.03-1.12-.13-.1-.03-.24-.01-.35-.04-.06-.01-.14-.02-.17-.06-.4-.59-.9-1.07-.93-1.81,0-.24,.09-.48,.14-.71,.05-.23,.03-.48,.27-.67,.08-.05,.08-.18,.09-.28,.06-.54,.54-.55,1.1-.27,.2,.11,.19,.17,.24,.26,.1,.17,.14,.35,.09,.42-.04,.07-.15,.17,.06,.25,.04,.01,.02,.04-.01,.06-.24,.15-.09,.28-.23,.47-.11,.16-.06,.26-.07,.4,0,.12,.16,.11,.05,.36-.04,.1,.2,0,.27,.01,.16,.06,.33,.06,.48,.08,.24,.02,.5-.1,.72-.2,.28-.12,.57-.24,.87-.25,.37-.36,.86-.2,1.25-.43,.47-.27,1-.3,1.49-.48,.1-.04,.18-.05,.29,0,.07,.03,.14,.07,.21,.06,.24-.04,.48-.12,.72-.16,.13-.02,.24-.19,.42,.04,.02,.03,.08,.01,.1-.02,.14-.31,.41-.21,.62-.3,.08-.03,.16-.04,.28,.03,.12,.08,.28,.03,.35-.1,.06-.09,.12-.11,.19-.15,.28-.17,.67,0,.88-.39,.24,.23,.4,.08,.54-.04,.53-.43,1.18-.45,1.76-.71,.14-.06,.32,0,.48-.03,.16-.03,.31-.1,.45-.18,.08-.04,.21,.01,.19-.21,0-.02,0-.03,.02-.03,.1,0,.21,.04,.29-.01,.07-.04,.09-.2,.15-.26,.07-.08,.17-.12,.26-.17,.09-.04,.16-.13,.31,0-.02-.24,.13-.18,.21-.24,.08-.05,.17-.08,.25-.12l.28-.13c.09-.04,.19-.08,.27-.14,.11-.09,.2-.23,.31-.31,.12-.09,.25-.15,.39-.2,.18-.05,.37-.08,.55-.14,.07-.02,.1-.11,.13-.21,.03-.14,.02-.41,.29-.2,.05,.04,.12-.02,.14-.08,.18-.46,.64-.47,.92-.76,.31,.08,.41-.16,.55-.35,.21-.28,.46-.51,.8-.6,.36-.1,.55-.39,.84-.57,.08-.05,.1-.18,.31-.08,.05,.02,.09-.03,.1-.08,.04-.36,.27-.5,.57-.6,.16-.05,.21-.23,.27-.4,.07-.26,.32-.4,.48-.59,.27,.08,.12-.15,.07-.27-.07-.15-.05-.22,0-.29,.06-.09,.17-.15,.09-.34-.04-.1,.05-.18,.16-.18,.15,0,.12-.05,.09-.16-.03-.12,.22-.06,.27-.16,.05-.11,0-.28,.29-.23,.03,0,.04-.03,.03-.05-.14-.32,.31-.31,.3-.56,.56-.44,.52-1.15,.74-1.74,.1-.24,.33-.49,.24-.77-.2-.57-.03-1.12-.11-1.69-.02-.12-.15-.24,.1-.38,.03-.02,.02-.07-.01-.1-.27-.15-.2-.33-.07-.54,.03-.05,.01-.13-.05-.15-.19-.05-.13-.15-.14-.23-.01-.1,.12-.26,.02-.3-.22-.09-.02-.2,0-.3,0-.06-.06-.12-.1-.17-.02-.03-.11-.04-.09-.07,.18-.24-.18-.36-.14-.57,0-.05,0-.09,0-.13,.17-.53,.17-.53-.14-1.06,.27-.25-.25-.3-.07-.54,.07-.09,0-.2-.08-.26-.38-.25-.28-.69-.47-.96-.04-.05,.14-.18-.05-.18-.07,0,.06-.17,.03-.22-.05-.07,0-.22-.22-.15-.08,.03-.07-.05-.11-.07-.05-.02-.05-.12-.2,0-.08,.06-.13,.04-.12-.06,0-.39-.33-.16-.53-.07-.06,.02-.11,.05-.17-.01-.08-.09-.21-.2-.3-.1-.16,.17-.29,.09-.45,.09-.27,0-.52-.04-.77-.02-.28,.03-.56-.06-.8,.14-.13,.11-.27,.21-.46-.04-.02-.03-.04,.14-.08,.15-.27,.07-.49,.17-.69,.26-.05,.02-.25-.18-.16,.04,.11,.22-.23-.12-.08,.14,.02,.04-.01,.06-.05,.06-.43-.02-.47,.44-.72,.74-.07,.08-.02,.23-.27,.19,.11,.36-.52,.37-.27,.83-.17,.15-.08,.46-.43,.49-.06,0-.03,.1-.09,.11-.19,.04,.16,.34-.12,.35-.16,0-.18,.19-.26,.3-.07,.1-.13,.21-.2,.31-.07,.11-.14,.23-.22,.34-.08,.11-.17,.21-.23,.34-.12,.25-.12,.58-.36,.76-.02,.02-.03,.08,0,.12,.24,.3-.01,.29-.16,.3-.12,0-.2,.03-.25,.1-.14,.19-.28,.38-.45,.54-.1,.1-.1,.29-.37,.24-.08-.02-.14,.08-.14,.16-.01,.38-.33,.51-.51,.75-.08,.11-.18,.21-.28,.3-.08,.07-.04,.26-.22,.22-.14,.58-.66,.79-1.02,1.15-.36,.37-.77,.67-1.18,.98-.1,.07-.15,.25-.39,.12-.05-.03-.12,.03-.11,.09,.02,.15,.02,.25-.16,.15-.03-.02-.07,.06-.07,.11-.03,.14-.11,.19-.25,.18-.11-.01-.23,.02-.27,.11-.1,.24-.21,.46-.54,.36-.04-.01-.01,.17-.06,.19-.18,.07-.28,.29-.54,.22-.11-.03-.17,.08-.27,.11-.16,.05-.23,.25-.42,.27-.19,.02-.33,.16-.5,.25-.16,.09-.33,.18-.49,.26l-.5,.25c-.17,.08-.33,.16-.51,.23l-.51,.22c-.17,.07-.34,.15-.52,.21-.12,.04-.25,.06-.4,.01-.4-.12-.76,.05-1.12,.39-.03,.02-.06,.03-.09,.04-.41,.15-.79,.35-1.17,.47-.17,.05-.38,.04-.52,.14-.08,.07-.21,.1-.19,.29,.01,.15-.23,.05-.13,.29,.03,.08-.03,.13-.1,.12-.27-.06-.27,.14-.34,.23-.1,.11-.13,.25-.15,.4,0,.07-.1,.13,.1,.21,.09,.03,.03,.1-.05,.16-.12,.09-.08,.18-.01,.24,.16,.14,.17,.11,.11,.34,0,.03,0,.05,.01,.07,.1,.21,.18,.48,.44,.58,.21,.08,.35,.19,.53,.31,.07,.05,.21,0,.14,.26-.01,.04,.04,.06,.07,.04,.3-.14,.4,.08,.59,.17,.18,.08,.44-.05,.62,.08,.17,.12,.38,.16,.58,.23,.31,.11,.33,.28,.1,.92-.19,.53-.31,.62-.61,.64-.64,.04-1.14-.36-1.61-.52Z"/>
        </g>
        <g>
          <path class="cls-9" d="M207.63,166.29c-11.45-.6-18.88-12.72-20.9-24.01-.82-4.58-1.06-9.49,.85-13.73,3.44-7.63,12.49-10.75,20.68-12.51,14.02-3.03,29.29-4.31,42.16,2.01,12.87,6.33,21.71,22.56,15.59,35.54-3.38,7.15-10.53,11.96-18.12,14.19s-15.63,2.2-23.53,1.88c-6.4-.26-13.24-.87-18.22-4.9"/>
          <path class="cls-9" d="M225.72,168.1c3.63,.13,7.25,.2,10.81-.08,1.32-.1,2.7-.01,4.01-.64,.64-.32,1.98,.04,3.17-.23,3.22-.68,6.38-1.62,9.27-3.13,2.81-1.46,5.28-3.44,7.37-5.68,2.04-2.21,4.01-4.77,4.63-7.61,.5-2.41,1.25-4.57,1.07-7.01-.24-2.56-.89-5.13-1.58-7.58-.55-1.78-1.19-3.56-2.28-5.1-.34-.48-.71-.91-1.08-1.35-.41-.42-.82-.85-1.19-1.36-.33-.49-.7-.99-1.12-1.44-.42-.44-.85-.85-1.41-1.02-.09-.03-.4-.45-.55-.69-.64-1.16-1.91-2.11-2.88-2.58-.98-.4-1.7-.93-2.51-1.43-2.23-1.29-4.72-2.31-7.21-3.19-.95-.3-1.87-.68-2.84-.94l-1.44-.44-1.47-.33c-2.06-.44-4.33-.4-6.27-.78-1.96-.34-3.86-.36-5.8-.28-1.1,.04-2.42-.14-3.28,.49-.08,.06-.49,.08-.69,.06-3.22-.43-6.2,.94-9.38,1.33-3.3,.43-6.63,1.23-9.75,2.21-.84,.25-1.78,.41-2.39,1.06-.21,.24-1.05,.55-1.48,.65-2.39,.44-4.48,1.92-6.27,3.36-1.07,.8-1.9,1.83-2.66,2.87l-.54,.81c-.17,.27-.32,.56-.49,.84-.36,.55-.62,1.14-.94,1.74-.52,1-.92,2.6-.5,4.02,.18,.64-.07,1.96,.05,2.98,.1,.83,.4,1.61,.52,2.43,.1,.7,0,1.44,.06,2.17,.02,.21,.07,.47,.14,.68,.68,1.95,1.21,3.9,1.86,5.84,.62,1.94,1.4,3.86,2.53,5.57,1.11,1.73,2.4,3.33,3.8,4.78,.69,.75,1.46,1.37,2.23,2.02,.81,.56,1.6,1.17,2.48,1.6,1.91,1.02,3.95,1.73,5.44,2.78,.67,.52,.69,1-.39,1.16-.4,.06-.83,.11-1.28,.14-.44,0-.9-.07-1.34-.15-.36-.08-.72-.12-1.07-.22l-1.05-.32c-.35-.11-.71-.2-1.04-.34-.33-.15-.66-.29-.98-.44-2.68-1.24-5.3-2.92-7.09-5.44-.59-.75-1.4-1.54-1.51-2.41-.02-.12-.2-.46-.32-.6-1.38-1.49-2.4-3.31-3.21-5.2-.78-1.91-1.4-3.88-1.92-5.84-.9-3.34-2-6.58-1.72-10.26-.52-2-.08-4.51,.8-6.47,1.52-3.47,3.96-6.44,6.88-8.54,2.89-2.15,6.12-3.61,9.39-4.65,3.33-1.04,6.69-1.75,10.01-2.4,3.34-.64,6.72-1.17,10.13-1.48,1.16-.08,2.14-.5,3.53-.32,.65,.08,1.39,.06,2.15,.02,.77-.02,1.56-.07,2.31-.08,1.38,.04,2.84-.07,4.13,.19,2.68,.45,5.35,.92,8.01,1.51,2.67,.57,5.3,1.39,7.8,2.5,5.04,2.19,9.46,5.73,13.02,9.86,2.18,2.52,4.17,5.31,5.35,8.53,.12,.34,.29,.67,.42,1.02l.37,1.06c.21,.72,.44,1.44,.31,2.21-.08,.43,.66,1.67,.76,2.62,.15,1.17,.3,2.35,.24,3.54-.02,.59,.02,1.19-.06,1.78l-.23,1.78c-.06,.83-.35,1.62-.53,2.43-.11,.4-.19,.81-.34,1.2l-.46,1.16c-.56,1.58-1.38,3.02-2.26,4.42-1.09,1.69-2.24,3.34-3.68,4.76-1.5,1.48-3.21,2.75-5.01,3.79-2.29,1.32-4.74,2.24-7.2,3.05-2.56,.83-5.23,1.67-7.78,1.83-4.71,.28-9.31,.62-13.91,.47-4.53-.2-9.11-.27-13.77-1.13-2.65-.5-4.9-1.73-7.19-3.07-.53-.34-.98-.99-1.14-1.6-.18-.59-.12-1.08,.21-1.1,.12-.01,.32,.03,.49,.12,1.05,.56,2.14,.9,3.26,1.19,1.11,.29,2.25,.6,3.52,.94,3.76,1.08,7.84,1.24,11.96,1.39Z"/>
        </g>
        <g class="cls-15">
          <path class="cls-13" d="M253.35,72.31c-4.87,3.87-12.66,.55-15.59-4.94-2.93-5.49-2.43-12.09-1.85-18.29,.79-8.42,1.57-16.84,2.36-25.26,.18-1.95,.41-4.02,1.62-5.55,1.23-1.56,3.24-2.26,5.14-2.86,8.36-2.63,17.4-4.85,25.77-2.26,10.38,3.22,17.39,13.09,27.36,17.41,5.23,2.27,11.13,2.93,16.02,5.86,9.61,5.76,12.51,18.45,12.03,29.65-.08,1.88-.24,3.81-1.02,5.52-1.59,3.51-5.39,5.41-9.04,6.66-21.84,7.45-45.68,.44-67.64-6.61"/>
          <path class="cls-13" d="M272.85,75.27c4.18,.96,8.38,1.85,12.61,2.23,1.57,.2,3.14,.74,4.84-.04,.83-.36,2.27,.74,3.73,.76,3.91-.05,7.85-.03,11.66-.78,1.87-.26,3.65-.9,5.45-1.38l2.62-.97c.89-.31,1.74-.62,2.52-.97,1.56-.67,3.03-1.36,4.06-2.21,.52-.43,.92-.89,1.17-1.37,.26-.49,.38-.98,.39-1.63,0-1.07,.18-2.46,.33-3.92,.09-.71,.16-1.43,.19-2.14,.05-.72,.02-1.44-.08-2.16-.4-3.07-1.04-6.12-1.52-9.01-.33-2.11-.81-4.25-2.05-5.93-.76-1.06-1.9-1.67-2.71-2.7-.41-.45-.77-1.01-1.24-1.44-.5-.38-1.05-.69-1.79-.54-.12,.03-.44-.42-.59-.69-.67-1.32-2.29-2.01-3.57-1.98-1.25,.02-2.23-.35-3.35-.67-3.06-.88-6.64-1.69-10.14-3.49-2.59-1.31-4.7-3.15-6.8-4.78-2.19-1.71-4.71-3.13-6.26-5.02-1.56-1.9-3.35-3.25-5.2-4.48-.52-.36-1.03-.83-1.59-1.14-.56-.34-1.17-.5-1.86-.24-.13,.05-.52-.17-.66-.35-1.21-1.35-2.86-1.91-4.51-2.04-1.67-.15-3.33,.03-5.03-.19-3.54-.46-7.35,.4-11.08,1.38-1,.26-2.17,.25-2.88,1.27-.25,.36-1.29,.7-1.87,.67-1.59-.07-3.05,.25-3.85,.7-.42,.22-.65,.46-.78,.62-.11,.17-.23,.34-.4,.69-.42,.78-.47,2.46-.65,4.28-.17,1.76-.42,3.53-1,5.26-.49,1.47-.87,3.5-.04,5.39,.38,.87-.24,2.55-.26,3.85-.01,1.07,.35,2.14,.27,3.19-.07,.89-.56,1.75-.83,2.64-.08,.26-.12,.59-.08,.87,.33,2.64-.03,5.17-.34,7.55-.32,2.38-.56,4.73-.03,6.87,.28,1.06,.61,2.06,1.01,2.99,.19,.47,.43,.92,.65,1.35,.12,.18,.23,.36,.33,.55,.12,.18,.27,.35,.39,.53,1.09,1.41,2.71,2.64,4.39,3.22,.93,.33,1.81,.52,2.66,.75,.86,.24,1.73,.5,2.94,.86,1.09,.33,1.87,.94,1.01,2.2-.65,.86-1.72,1.75-2.96,2.01-1.97,.49-4.04,.45-5.91-.02-1.95-.49-3.85-1.24-5.55-2.43-.84-.6-1.65-1.3-2.32-2.14-.33-.43-.67-.85-.92-1.35-.28-.49-.52-.98-.67-1.47-.44-1.19-1.43-2.46-.87-3.69,.08-.17,.01-.67-.11-.88-.62-1.18-1.03-2.46-1.26-3.74-.22-1.28-.28-2.58-.25-3.85,.07-2.54,.48-4.98,.65-7.33,.29-3.99-.43-7.94,.41-11.92-.87-2.31-.44-4.89,.1-7.09,.47-1.94,.82-3.9,1.09-5.86,.14-.96,.25-2.08,.52-3.34,.27-1.25,.72-2.71,1.67-4.11,.96-1.42,2.3-2.45,3.51-3.11,1.22-.67,2.36-1.08,3.37-1.43,1.94-.65,3.88-1.25,5.89-1.74,4.07-.99,8.33-1.83,12.8-1.9,2.23-.04,4.51,.13,6.77,.57,2.25,.44,4.51,1.17,6.55,2.15,1.39,.65,2.86,.75,4.12,2.08,1.17,1.23,3.06,2.13,4.52,3.24,1.34,1.01,2.83,1.9,3.84,3.05,2.1,2.39,4.43,4.4,6.92,5.97,2.52,1.6,5.02,2.64,7.87,3.58,2.82,.97,5.95,1.77,9.15,3.07,3.22,1.26,6.4,3.31,8.95,5.83,1.54,1.55,3.02,3.21,4.17,5.05,.63,.9,1.09,1.87,1.59,2.84,.41,.99,.85,1.99,1.09,3.02,.24,.88,.63,1.73,.85,2.63,.25,.89,.33,1.82,0,2.78-.16,.53,.84,2.03,1.02,3.17,.43,2.81,.46,5.64,.37,8.45-.07,1.89-.16,4.11-1.04,6.56-.9,2.51-2.69,4.58-4.52,6.01-2.25,1.77-4.49,3.16-6.81,4.08-1.19,.42-2.39,.8-3.6,1.16-.6,.19-1.22,.34-1.83,.45l-1.85,.35c-1.56,.32-3.14,.39-4.71,.5-1.57,.15-3.13,.1-4.69,.19-3.22,.13-6.59,.56-9.63-.05-5.61-1.18-11.16-1.57-16.6-2.8-5.39-1.22-10.68-2.71-15.97-4.04-3.01-.76-5.43-2.42-8.3-3.32-1.34-.42-2.37-3.4-1.55-4.04,.15-.12,.43-.22,.66-.21,3.03,.13,5.96-.24,9.12,.8,4.67,1.55,9.42,2.77,14.17,3.85Z"/>
        </g>
        <g>
          <path class="cls-10" d="M253.35,63.02c-4.87,3.87-12.66,.55-15.59-4.94-2.93-5.49-2.43-12.09-1.85-18.29,.79-8.42,1.57-16.84,2.36-25.26,.18-1.95,.41-4.02,1.62-5.55,1.23-1.56,3.24-2.26,5.14-2.86,8.36-2.63,17.4-4.85,25.77-2.26,10.38,3.22,17.39,13.09,27.36,17.41,5.23,2.27,11.13,2.93,16.02,5.86,9.61,5.76,12.51,18.45,12.03,29.65-.08,1.88-.24,3.81-1.02,5.52-1.59,3.51-5.39,5.41-9.04,6.66-21.84,7.45-45.68,.44-67.64-6.61"/>
          <path class="cls-10" d="M272.49,67.54c4.23,.97,8.48,1.83,12.77,2.28,1.59,.22,3.21,.54,4.9,.23,.84-.13,2.34,.43,3.83,.47,4,.01,8.02-.05,11.94-.76,1.93-.24,3.77-.83,5.64-1.27l2.74-.91c.92-.29,1.82-.6,2.67-.96,1.69-.7,3.33-1.51,4.59-2.59,1.27-1.09,2.07-2.4,2.26-3.96,.18-1.34,.3-2.82,.39-4.32,.06-.74,.1-1.48,.1-2.23,.02-.75-.02-1.49-.09-2.25-.3-3.2-.9-6.44-1.63-9.44-.51-2.2-1.21-4.36-2.44-6.22-.75-1.17-1.73-2.03-2.66-3.16-.46-.5-.92-1.06-1.44-1.54-.55-.43-1.1-.85-1.74-.96-.11-.02-.55-.43-.76-.66-1-1.12-2.72-1.87-3.99-2.1-1.24-.22-2.28-.59-3.43-.93-3.13-.93-6.57-1.74-9.83-3.37-2.43-1.19-4.55-2.78-6.62-4.33-2.16-1.62-4.51-3.21-6.23-4.91-1.73-1.71-3.55-3.09-5.46-4.37-.54-.37-1.1-.8-1.69-1.14-.58-.36-1.18-.6-1.77-.59-.11,0-.53-.23-.7-.37-1.48-1.09-3.2-1.73-4.96-2.02-1.77-.29-3.56-.32-5.39-.46-3.79-.28-7.75,.48-11.6,1.46-1.03,.27-2.17,.41-3.01,1.06-.3,.23-1.37,.56-1.92,.63-1.51,.19-3,.55-4.09,1.14-.55,.29-.99,.64-1.33,1.01-.32,.37-.57,.81-.79,1.35-.51,1.23-.56,2.97-.74,4.75-.17,1.77-.37,3.53-.75,5.29-.32,1.48-.6,3.52-.27,5.37,.15,.85-.24,2.55-.31,3.85-.06,1.07,.08,2.11-.01,3.16-.08,.89-.36,1.77-.54,2.67-.05,.27-.09,.6-.08,.87,.05,2.61-.27,5.15-.49,7.63-.22,2.48-.32,4.96,.18,7.3,.26,1.17,.6,2.31,1.04,3.38,.21,.54,.48,1.06,.74,1.57l.42,.7c.15,.23,.33,.44,.49,.66,1.36,1.73,3.3,3.14,5.4,3.81,2.36,.78,4.61,.64,6.56,.39,.91-.08,1.31,.22,.36,1.2-.71,.65-1.73,1.31-2.87,1.51-1.8,.38-3.68,.24-5.37-.25-1.77-.51-3.45-1.32-4.93-2.47-1.48-1.13-2.78-2.69-3.51-4.49-.47-1.07-1.17-2.31-1.01-3.35,.02-.14-.07-.61-.16-.81-.9-2.31-1.14-4.84-1.1-7.28,.05-2.45,.35-4.85,.55-7.2,.33-3.99,.15-7.89,.76-11.89-.33-2.26,0-4.85,.38-7.06,.33-1.96,.59-3.92,.82-5.89,.12-.97,.21-2.03,.45-3.14,.23-1.11,.62-2.32,1.38-3.43,.76-1.12,1.83-1.95,2.87-2.51,1.05-.57,2.09-.94,3.06-1.27,1.92-.62,3.83-1.21,5.8-1.71,3.97-1.01,8.09-1.81,12.34-1.87,4.22-.09,8.64,.69,12.52,2.55,1.32,.61,2.57,.94,3.89,2.02,1.23,1.01,2.97,2.02,4.4,3.1,1.31,.99,2.72,1.96,3.82,3.01,2.28,2.17,4.68,4.17,7.26,5.8,2.59,1.66,5.28,2.86,8.21,3.79,2.9,.96,6.01,1.73,9.07,2.97,3.07,1.2,6,3.12,8.35,5.52,1.42,1.48,2.73,3.08,3.76,4.84,.56,.86,.98,1.79,1.43,2.7,.37,.94,.8,1.88,1.05,2.86,.25,.83,.57,1.66,.77,2.52,.24,.85,.36,1.73,.27,2.6-.03,.49,.58,2,.75,3.09,.38,2.71,.43,5.45,.34,8.16-.06,1.85-.16,3.89-.92,5.98-.76,2.12-2.27,3.88-3.91,5.14-2.01,1.56-4.16,2.7-6.37,3.52-1.15,.38-2.31,.74-3.48,1.09-.58,.19-1.17,.33-1.77,.44l-1.78,.36c-1.5,.34-3.02,.46-4.53,.63-1.51,.21-3.03,.21-4.55,.32-3.14,.18-6.42,.38-9.4,0-5.52-.74-11-1.34-16.38-2.5-5.34-1.16-10.61-2.6-15.84-4.03-2.97-.81-5.52-2.06-8.38-2.96-1.33-.42-2.75-2.2-2.07-2.43,.13-.04,.37-.06,.6-.02,2.91,.51,5.66,.73,8.85,1.74,4.71,1.5,9.48,2.77,14.28,3.87Z"/>
        </g>
        <g>
          <path class="cls-9" d="M71.5,147.14c-11.59,4.27-24.07,6.11-36.4,5.38-4.93-.29-10.41-1.32-13.26-5.35-4.42-6.22,.25-14.74,5.28-20.47,10.49-11.94,23.12-22.01,37.09-29.57,4.1-2.22,8.41-4.26,13.03-4.84,11.96-1.51,22.81,6.77,31.43,15.2,1.36,1.33,2.79,2.85,2.95,4.74,.12,1.43-.5,2.81-1.12,4.11-2.11,4.47-4.22,8.95-6.32,13.42-3.55,7.54-7.36,15.4-14.07,20.36s-17.25,5.78-22.76-.48"/>
          <path class="cls-9" d="M87.32,149.99c3.19-1.81,5.95-4.62,8.14-7.75,.83-1.16,1.81-2.3,2.19-3.83,.18-.76,1.35-1.7,1.96-2.93,1.65-3.27,3.27-6.65,4.83-10.06,1.46-3.33,2.92-6.65,4.38-9.98,.36-.8,.68-1.52,.83-2.14,.15-.63,.14-1.06-.04-1.61-.37-1.1-1.58-2.28-2.92-3.37-2.29-1.87-3.98-3.96-6.24-5.64-2.39-1.77-4.92-3.44-7.32-4.99-1.75-1.13-3.57-2.13-5.54-2.71-.62-.15-1.24-.24-1.85-.34-.62-.08-1.26-.12-1.92-.27-.62-.12-1.28-.23-1.93-.31-.65-.07-1.29,.04-1.83,.29-.09,.04-.64-.07-.93-.1-.67-.1-1.44-.19-2.16-.06-.72,.1-1.4,.31-1.92,.56-1.02,.49-1.96,.76-2.94,1.13-2.68,1.03-5.32,2.42-7.99,3.85-2,1.05-4.04,2.03-5.99,3.19-2.04,1.2-4,2.8-5.94,3.84-1.94,1.05-3.63,2.3-5.33,3.62-.97,.74-2.24,1.45-2.67,2.51-.04,.1-.4,.38-.59,.48-3.14,1.69-5.09,4.68-7.73,7-2.73,2.4-5.23,5.21-7.61,7.98-.61,.72-1.38,1.43-1.57,2.36-.08,.32-.63,1.13-.96,1.48-.93,.93-1.65,2.07-2.19,3.27-.56,1.19-.94,2.44-1.24,3.64-.35,1.37-.38,2.76-.14,4.04,.23,1.29,.82,2.44,1.5,3.62,.59,.97,1.92,2.1,3.47,2.2,.67,.07,1.92,.74,3.01,.92,.88,.16,1.79,.06,2.67,.17,.76,.09,1.52,.35,2.32,.5,.24,.04,.54,.06,.78,.04,4.62-.33,9.22,.31,13.86-.35,4.63-.64,9.3-1.46,13.86-2.62,2.52-.64,5.09-1.31,7.1-1,.91,.15,1.08,.59,.11,1.23-.71,.48-1.55,.97-2.45,1.31-1.43,.55-2.86,1.1-4.28,1.56-2.94,.96-5.89,2.06-9.12,2.34-1,.1-2.13,.5-3.01,.18-.12-.05-.53-.02-.72,.03-4.18,1.18-8.72,.96-13.07,.9-1.86-.04-3.68,.05-5.59-.06-1.89-.1-3.85-.39-5.75-1.19-1.15-.12-2.38-.55-3.51-1.26-1.13-.7-2.12-1.69-2.84-2.72-1.25-1.83-2.05-3.97-2.21-6.11-.18-2.14,.16-4.21,.74-6.11,1.2-3.81,3.23-7.13,5.64-10.05,4.96-5.69,10.18-10.95,15.93-15.73,.98-.81,1.63-1.74,2.94-2.48,1.23-.69,2.55-1.93,3.87-2.89,1.2-.88,2.41-1.88,3.64-2.57,5.12-2.83,9.94-6.12,15.23-8.74,2.65-1.28,5.45-2.41,8.43-3.08,2.98-.69,6.1-.79,9.12-.42,3.69,.44,7.3,1.51,10.52,3.32,1.37,.76,2.94,1.38,3.94,2.65,.29,.34,1.69,.86,2.51,1.43,2.01,1.44,3.9,3.04,5.73,4.67,1.27,1.14,2.49,2.31,3.71,3.51,.62,.62,1.27,1.29,1.87,2.12,.59,.82,1.14,1.82,1.37,3.01,.29,1.48,0,2.92-.35,4.04-.38,1.16-.78,2.05-1.18,2.99-.86,1.95-1.78,3.9-2.73,5.8-1.21,2.42-2.52,4.77-3.72,7.2-1.24,2.52-2.35,5.29-3.9,7.58-2.88,4.21-5.73,8.65-9.97,11.87-2.1,1.62-4.52,2.86-7.05,3.63-2.53,.78-5.2,1.16-7.89,1.03-1.52-.13-2.98-.44-4.33-1.05-.69-.24-1.31-.66-1.97-.98l-.93-.6c-.32-.19-.62-.4-.91-.64-.28-.21-.53-.51-.73-.83-.18-.34-.3-.71-.36-1.03-.13-.65,0-1.12,.34-1.09,.13,.01,.34,.1,.5,.21,1,.81,2.17,1.24,3.29,1.66,1.18,.34,2.36,.65,3.72,.91,4.02,.81,8.43-.17,12.05-2.2Z"/>
        </g>
        <g class="cls-14">
          <path class="cls-12" d="M232.19,28.12c3.6,9.59,13.03,15.18,22.32,17.96,18.64,5.58,39.38,2.56,55.96-8.14,7.04-4.55-.92-19.1,7.02-16.81,5.48,1.58,24.97,15.45,26.62,21.26,1.65,5.82,1.42,12.02,1.17,18.1-.28,6.87-.56,13.74-.83,20.61-.12,2.91-.27,5.94-1.6,8.49-2.17,4.15-6.87,5.88-11.23,6.76-18.61,3.74-37.62-2.03-55.79-7.75-11.04-3.48-22.09-6.95-33.13-10.43-5.89-1.85-12.08-3.9-16.27-8.7-5.02-5.75-6.11-14.53-4.31-22.16s6.11-14.3,10.82-20.34"/>
          <path class="cls-12" d="M237.2,35.4c1.76,1.94,3.43,3.31,5.21,4.51,.28,.19,.65,.3,1.01,.52,1.39,.92,2.97,1.62,4.35,2.46,1.53,.89,3.17,1.6,4.8,2.04,.77,.22,1.54,.44,2.3,.66l2.3,.59c.52,.13,1.03,.25,1.56,.5,.39,.19,1.15,.36,1.75,.29,.12-.01,.34,.07,.51,.13,.18,.06,.39,.18,.53,.19,.8,0,1.58,.08,2.37,.21,.79,.14,1.57,.29,2.37,.32,.39,.02,.82,.15,1.17-.01,.09-.04,.47-.01,.58,.04,.29,.15,.6,.21,.97,.23,1.63,.04,3.25,.19,4.88,.12,.79-.27,1.69-.14,2.54-.19,.64-.04,1.28,0,1.92,.01,.65,0,1.33-.19,1.96-.05,.1,.02,.34-.07,.52-.1,.8-.11,1.63-.29,2.4-.3,.39-.02,.78-.05,1.17-.12,4.99-.81,9.89-2.18,14.57-4.09,.41-.16,.81-.29,1.18-.6,.3-.23,1.01-.58,1.37-.62,.59-.07,1.04-.36,1.54-.58,.93-.38,1.78-.92,2.67-1.36,.53-.27,1.05-.68,1.63-.73,.06,0,.22-.1,.26-.16,.44-.55,1.09-.71,1.67-1.03,.41-.23,.86-.47,1.18-.87,.35-.35,.84-.92,1.21-1.19,.48-.38,.72-.91,.92-1.44,.63-1.57,.77-3.32,.79-5.04,.02-1.74-.13-3.48-.08-5.26,.04-.84,.03-1.7,.38-2.59,.17-.44,.5-.87,.95-1.15,.46-.28,.98-.33,1.45-.31,.44,.03,.93,.02,1.25,.29,.07,.05,.39,.12,.53,.12,.51,0,.92,.24,1.4,.46,2.15,1.04,4.13,2.35,6.14,3.46,1.57,.87,2.99,1.91,4.45,2.91,.49,.33,.9,.78,1.37,1.16,.45,.37,.93,.71,1.4,1.06,.28,.21,.53,.46,.88,.56,.19,.05,.6,.35,.72,.52,.41,.59,1.02,.99,1.57,1.44,1.55,1.3,3.08,2.64,4.52,4.08,.34,.36,.82,.68,.96,1.17,.02,.07,.27,.23,.41,.35,.15,.13,.35,.27,.43,.4,.63,1.2,1.65,2.17,2.17,3.51,.96,3.17,1.35,6.42,1.43,9.67,.02,.91,.22,1.7,.2,2.58,0,.85,0,1.71-.04,2.56-.03,.6,.05,1.24-.19,1.79-.07,.15-.08,.59-.03,.77,.19,.68,.05,1.41,.06,2.11,0,.86-.17,1.74,.03,2.59,.05,.23-.09,.67-.11,1.01-.04,.6-.07,1.21-.09,1.81,0,.29,.06,.58,.06,.87-.03,2.24-.06,4.47-.13,6.71l-.27,6.84c-.1,2.28-.18,4.66-.97,6.96-.27,.85-.58,1.86-1.29,2.42-.32,.79-.88,1.34-1.54,1.69-.1,.05-.21,.31-.34,.45-.39,.46-.68,1.08-1.42,1.18-.03,0-.09,.06-.14,.09-.48,.26-.65,.75-1.38,.9-.44,.09-1.06,.43-1.61,.64-.56,.2-1.13,.4-1.69,.6-.58,.21-1.26,.24-1.75,.61-.08,.06-.56,0-.81,.06-1.32,.33-2.72,.3-3.98,.83-.29,.11-.77,.15-1.1,.12-1.18-.1-2.25,.19-3.44,.3-.78,.09-1.59,.17-2.4,.2-.81,0-1.62-.07-2.39-.23-.33-.07-.47-.12-.8,0-.22,.07-.6,.06-.9,.04-3.42-.1-6.83-.44-10.21-.9-.92-.15-1.73-.53-2.69-.59-.39-.03-.83-.21-1.18-.08-.05,.02-.21,0-.28-.03-1.07-.45-2.26-.33-3.35-.67-.23-.08-.45-.16-.68-.24-.24-.08-.5-.2-.71-.21-1.77-.08-3.46-.75-5.19-1.1-.59-.13-1.19-.43-1.77-.33-.09,.01-.34-.06-.45-.12-.92-.55-2.06-.64-3.07-1.01-.52-.19-1.15-.2-1.55-.57-.05-.05-.27-.09-.4-.11-.23-.04-.48-.03-.7-.1-.6-.19-1.23-.52-1.78-.6-.69-.1-1.3-.33-1.93-.52-.36-.11-.69-.32-1.05-.46-.34-.13-.71-.22-1.06-.33-.51-.16-1.05-.28-1.51-.48-.48-.21-.95-.09-1.45-.43-.38-.26-.94-.19-1.41-.31-.24-.06-.48-.17-.71-.27-.17-.08-.32-.21-.49-.25-.38-.1-.73-.26-1.17-.29-.3-.02-.76-.3-1.16-.45-.4-.14-.81-.26-1.21-.39-.4-.13-.83-.31-1.21-.37-1.69-.26-3.29-.93-4.93-1.41-.42-.12-.93-.19-1.23-.51-.05-.06-.29-.14-.42-.15-1.64-.2-3.18-.94-4.78-1.35-1.14-.29-2.28-.53-3.41-.92-1.1-.37-2.23-.79-3.33-1.03-.91-.2-1.8-.39-2.65-.72-.83-.32-1.77-.16-2.49-.77l-2.58-.82c-.72-.24-1.49-.38-2.13-.81-.23-.16-.73-.31-1.04-.34-.98-.08-1.84-.45-2.71-.9-.21-.1-.52-.11-.76-.2-.76-.28-1.52-.58-2.24-.95-2.15-1.08-4.38-2.07-6.28-3.67-.35-.28-.84-.5-1.1-.82-1.61-1.87-3.27-3.83-4.17-6.11-1.27-3.33-2.17-6.79-2.2-10.31-.02-.46,.18-.94,.13-1.15-.17-.67,.02-1.43-.07-2-.14-1.03,.13-2.01,.24-3,.08-.73,.39-1.46,.3-2.17-.01-.1,.06-.34,.12-.46,.48-.97,.46-2.08,.92-3.05,.39-2,1.4-3.82,2.27-5.65,.13-.27,.2-.56,.31-.83,.06-.14,.11-.31,.18-.41,1.14-1.46,1.92-3.19,3.01-4.68,.36-.49,.76-.94,1.14-1.41,.37-.49,.68-1.04,1.17-1.39,.15-.11,.34-.41,.47-.63,.74-1.2,1.7-1.78,2.21-1.4,.19,.14,.02,.37-.09,.66-.22,.56-.48,1.07-.91,1.63-.34,.42-.74,.87-.85,1.39-.02,.09-.17,.28-.27,.37-.7,.64-1.16,1.6-1.75,2.26-.45,.51-.77,1.05-1.14,1.58-.32,.44-.5,.99-.95,1.36-.15,.12-.27,.68-.44,1.01-.41,.8-.82,1.6-1.23,2.39-1.26,2.42-1.88,5.04-2.6,7.63-.18,1.92-.72,3.84-.66,5.77,.05,2.3,.14,4.6,.67,6.81,.1,.46,.18,.82,.22,1.24,.02,.27,.05,.56,.12,.84,.32,1.04,.71,2.05,1.16,3.04,.23,.54,.66,1.03,.7,1.6,0,.08,.14,.31,.22,.39,.37,.33,.68,.72,.95,1.13,.31,.39,.6,.81,.92,1.17,.27,.27,.5,.54,.72,.9,.25,.38,.77,.87,1.2,1.09,.32,.17,.55,.37,.84,.55,1.15,.77,2.27,1.77,3.64,2.12,.51,.58,1.38,.89,2.07,1.12,2.69,.89,5.35,1.92,8.11,2.74,.67,.2,1.3,.52,1.96,.76,.7,.25,1.41,.46,2.12,.67,.38,.11,.79,.34,1.15,.23,.03,0,.1,0,.14,.02,.39,.16,.78,.36,1.18,.47,.36,.1,.73,.07,1.1,.15,.44,.09,.89,.23,1.34,.37,.43,.13,.9,.23,1.19,.51,.4-.11,.86,.15,1.29,.27,.41,.11,.81,.25,1.21,.38l1.37,.43c.46,.14,.91,.31,1.37,.43,.63,.17,1.26,.28,1.89,.45,.66,.18,1.32,.39,1.97,.62,.81,.3,1.61,.6,2.41,.91,.33,.12,.64,.16,1,.19,.47,.04,1.1-.01,1.58,.46,.09,.09,.5,.2,.73,.23,1.85,.25,3.58,1.07,5.39,1.55,.91,.53,1.9,.69,2.93,.95,1.52,.37,3.11,.83,4.53,1.42,1.5,.62,3.05,.99,4.56,1.5,.42,.15,.92,.19,1.22,.5,.07,.07,.4,.15,.59,.17,1.3,.14,2.5,.55,3.73,1.02,.65,.25,1.43,.38,2.2,.49,1.15,.16,2.34,.56,3.52,.83,.45,.37,.91,.2,1.2,.15,.38-.07,.71-.02,1.13,.07,.53,.12,1.05,.28,1.62,.21,.29-.03,.89,.11,1.16,.25,.37,.2,.53,.17,.9,.16,.44,0,.83,.31,1.37,.38,.57,.08,1.26,.06,1.72,.41,.04,.03,.22,.06,.3,.05,1.1-.09,2.1,.41,3.17,.44,3.13,.68,6.38,.67,9.57,.75,.66,.04,1.32,.08,1.98,.11,.66,0,1.32-.01,1.96-.11,2.7-.39,5.42-.61,8.09-1.14,.56-.12,1.17-.38,1.73-.25,.08,.02,.33-.05,.43-.12,.76-.46,1.54-.63,2.39-.79,.21-.03,.56-.19,.64-.3,.25-.3,.63-.41,.96-.58,.39-.2,.98-.36,1.15-.59,.37-.46,.72-.48,1.09-.72,.21-.16,.41-.37,.57-.59,.08-.1,.13-.27,.2-.31,.75-.47,.99-1.34,1.45-2.01,.09-.15,.19-.32,.27-.47,.53-.85,.73-1.34,.89-1.9,.15-.56,.25-1.22,.32-2.55,.4-.7-.03-1.6,.26-2.4,.1-.29,.11-.87,.06-1.24-.22-1.65,.07-3.32,.06-4.97,0-.34,.22-.6,.07-1.04-.06-.17,.15-.72,.16-1.1,.01-.55,.15-1.11-.04-1.66-.08-.23,.01-.71,0-1.07,0-.5,.1-.99-.06-1.5-.08-.28-.06-.91,.04-1.22,.4-1.27,.13-2.47,.06-3.67-.02-.36-.05-.61,.02-.99,.1-.52,.22-1.23,.14-1.64-.15-.73-.05-1.42-.03-2.13,.03-1.21,.11-2.43,.11-3.63,0-1.37,.09-2.74-.13-4.12-.11-.74-.25-1.7-.03-2.52,.03-.09-.16-.4-.19-.61-.17-1.69-.43-3.36-.81-4.99-.09-.35,.08-.91-.24-1.1-.3-.16-.04-.68-.42-.8-.06-.02-.22-.29-.28-.44-.77-1.73-2.42-3.09-3.81-4.54-.35-.35-.82-.64-.95-1.08-1.09-.63-1.79-1.95-3.01-2.4-.65-.62-1.54-1.04-2.04-1.8-.08-.12-.37-.26-.47-.39-.34-.45-.89-.3-1.28-.88-.23-.33-.85-.7-1.31-1.03l-1.28-.91-1.43-.98c-.48-.33-.95-.66-1.44-.96-1-.6-2.05-1.05-3.03-1.72-.11-.07-.31-.15-.37-.14-.53,.12-.93-.34-1.23-.63-.25-.24-.48-.41-.79-.57-.86-.43-1.76-.84-2.56-1.11-.5-.14-.99-.11-1.35-.31-.06-.03-.15-.01-.25,0-.09,.03-.15,.09-.19,.13-.12,.23-.25,.5-.38,1-.12,.48-.2,1.07-.19,1.67,0,.56,0,1.13,.01,1.69,0,.44,.18,.87,.04,1.32,.35,2.16,.22,4.53-.47,6.92-.34,1.18-.96,2.39-1.91,3.34-.45,.46-1.04,.9-1.52,1.19l-1.43,.85c-.47,.28-.95,.71-1.49,.75-.1,.01-.45,.2-.53,.3-.22,.27-.4,.45-.81,.46-.08,0-.32,.18-.45,.29-.35,.3-.72,.48-1.17,.62-.35,.12-.82,.29-1.12,.48-.81,.53-1.59,1.03-2.57,1.2-.12,.03-.35,.3-.56,.37-.78,.28-1.52,.72-2.36,.84-.34,.05-.78,.3-1.19,.4-.7,.2-1.3,.55-2.05,.72-.75,.19-1.53,.48-2.32,.7l-2.34,.66-2.37,.54c-.79,.19-1.58,.35-2.38,.47l-2.39,.41-2.41,.29c-.56,.05-1.09,.12-1.66,.04-1.47-.17-3.21,.04-5.37,.22-.15,.02-.32,0-.48,0-1.05,.04-2.1-.02-3.15-.06l-1.57-.07c-.52-.05-1.04-.11-1.56-.18-.91-.14-1.82-.28-2.74-.42-.61-.08-1.19-.21-1.82-.14-.53,.05-1.2-.26-1.82-.17-.23,.04-.8-.08-1.07-.21-.89-.44-1.91-.48-2.85-.78-1.08-.33-2.19-.58-3.27-.91-.53-.17-1.04-.39-1.64-.41-.29,0-.91-.29-1.27-.51-.55-.35-1.14-.56-1.71-.74-1.21-.42-1.23-.38-2.3-1.06-.13-.08-.27-.16-.41-.23-1.42-.69-2.75-1.6-4.11-2.32-.56-.32-1.09-.67-1.62-1.02-.51-.37-1.01-.77-1.52-1.16-.39-.33-.9-.65-1.05-1.11-.02-.07-.24-.26-.35-.32-.47-.28-.89-.66-1.28-1.06-.39-.41-.72-.88-1.09-1.29-.36-.41-.71-.8-1.06-1.19-.36-.39-.7-.8-.97-1.3-.54-.9-1.06-1.84-1.55-2.79-.63-1.49-.62-1.87,.02-2.1,.53-.19,.8,.12,1.38,1.19,1.28,2.22,2.62,4.43,4.08,5.92Z"/>
        </g>
        <g class="cls-14">
          <path class="cls-12" d="M45.04,107.03c-1.6,2.12-1.22,5.25,.26,7.46,1.48,2.21,3.82,3.66,6.17,4.9,18.59,9.77,42.18,9.3,60.35-1.23,.59,1.94,2.55,3.07,4.37,3.94,20.02,9.54,43.96,10.5,64.68,2.6,2.05-.78,4.1-1.66,6.28-1.97,2.66-.38,5.36,.09,8.02,.45,9.14,1.24,18.51,1.16,27.5-.92,4.56-1.06,8.99-2.62,13.4-4.19,3.37-1.2,7.39-1.55,7.83-5.09,.54-4.34,4.56-2.81,5.17-4.79,.67-2.16-.2-3.6,1.62-5.04,3.34-2.64,9.36-.28,12.52,1.46,8.87,4.89,16.33,12.3,21.27,21.14,3.19,5.71,5.36,12.1,5.5,18.64,.36,16.88-13.07,31.63-28.71,38-15.64,6.38-33.09,6.09-49.96,5.29-28.9-1.37-57.74-3.95-86.43-7.73,1.39,.97,.52,3.41-1.08,3.99-1.6,.58-3.35-.04-4.95-.63-16.32-6.02-33.57-8.93-50.77-11.02-16.64-2.02-33.16-2.22-48.27-10.38-5.4-2.92-10.64-6.79-13.22-12.36-2.74-5.94-1.87-13.37,2.16-18.52,3.12-3.98,7.72-6.44,11.83-9.4,5.48-3.95,10.36-9.01,16.72-11.3,2.84-1.02,6.04-1.53,8.22-3.62"/>
          <path class="cls-12" d="M52.45,119.34c4.41,2.25,8.25,3.58,12.16,4.54,.61,.14,1.31,.23,2.09,.38,3.08,.64,6.29,1.06,9.3,1.36,3.29,.44,6.63,.34,9.78,.04,1.49-.23,2.97-.36,4.43-.61,1.46-.29,2.93-.46,4.36-.86,.97-.25,1.92-.47,3-.63,.79-.13,2.19-.54,3.15-1.04,.19-.09,.62-.22,.93-.32,.34-.11,.76-.18,.99-.29,.66-.33,1.33-.61,2.01-.91,.67-.32,1.34-.63,2.02-.94,.68-.31,1.38-.58,2.03-.94l.99-.52,1.19-.65c.22-.12,.44-.23,.66-.35l.33-.17,.17-.09c.05-.02,.08,0,.12,.01,.19,.55,.43,1.08,.76,1.46,.16,.19,.52,.58,.65,.76,.28,.43,.71,.79,1.28,1.14,1.25,.75,2.71,1.31,4.09,1.95,1.38,.65,2.83,1.15,4.25,1.71,1.47,.31,3.06,.87,4.57,1.39,1.15,.34,2.28,.72,3.43,1.08,1.15,.38,2.47,.44,3.55,.92,.17,.07,.64,.11,.97,.17,1.5,.25,3.07,.42,4.47,.73,.72,.13,1.45,.25,2.17,.33,4.71,.52,9.45,.66,14.18,.4,4.73-.3,9.43-.98,14.04-2.07,.8-.19,1.58-.34,2.38-.7,.62-.3,2.05-.73,2.71-.8,1.08-.1,1.99-.52,2.95-.85,1.78-.57,3.5-1.32,5.32-1.93,1.07-.35,2.3-.8,3.34-.67,.1,.01,.46-.03,.58-.06,1.26-.35,2.51-.09,3.74,.06,.9,.11,1.8,.24,2.8,.25,.97,.02,2.54,.2,3.41,.41,1.16,.3,2.24,.34,3.35,.41,6.5,.46,13.08,.19,19.47-1.1,3.03-.6,5.89-1.65,8.87-2.53,.71-.21,1.45-.56,2.14-.6,.14,0,.7-.22,.91-.34,.75-.43,1.57-.65,2.48-.97,2.05-.8,4.3-1.14,6.17-2.06,.93-.45,1.72-1.14,2.03-2.05,.31-.82,.22-2.18,1.01-3.18,.6-.9,1.63-1.35,2.5-1.62,.44-.14,.86-.26,1.19-.42,.33-.16,.49-.32,.59-.6,.19-.63,.25-1.33,.29-2.08,.03-.74,.16-1.71,.73-2.45,.81-1.05,2.02-1.52,3.18-1.76,1.14-.23,2.3-.22,3.42-.08,.67,.09,1.31,.28,1.98,.31,.36,.01,1.29,.28,1.63,.47,1.15,.64,2.44,1.13,3.62,1.78,3.32,1.85,6.47,4.02,9.34,6.51,.69,.62,1.55,1.23,2,1.98,.06,.1,.5,.42,.76,.64,.28,.24,.63,.52,.8,.73,1.51,1.96,3.3,3.81,4.79,5.84,3.58,4.91,6.48,10.39,8.02,16.3,.42,1.65,.89,3.08,1.1,4.74,.18,1.6,.33,3.21,.22,4.82-.01,.57-.03,1.16-.04,1.73-.06,.57-.18,1.13-.35,1.64-.1,.28-.2,1.09-.19,1.43,0,.64-.15,1.29-.29,1.95-.15,.66-.3,1.32-.52,1.96-.24,.78-.51,1.56-.78,2.34-.32,.76-.62,1.52-.83,2.3-.09,.44-.6,1.12-.92,1.7l-.82,1.51-.91,1.46c-.29,.47-.5,.97-.8,1.43-2.36,3.53-5.23,6.71-8.47,9.46-3.3,2.8-6.97,5.16-10.86,7.06-3.9,1.89-8,3.3-12.18,4.33-1.58,.35-3.25,.94-4.77,.89-1.42,.48-2.74,.54-4.05,.53-.19,0-.64,.16-.98,.22-1.07,.2-2.06,.65-3.29,.42-.05,0-.19,.02-.29,.02-1,.03-1.66,.45-2.94,.33-.8-.08-2.07,.07-3.13,.09-1.09,.04-2.2,.08-3.28,.11-1.12,.04-2.34-.07-3.4,.16-.17,.04-1-.13-1.48-.12-2.5,.05-5.07-.24-7.54-.03-.57,.05-1.45,0-2.05-.08-2.15-.3-4.17-.28-6.38-.32-2.91-.03-6.03-.17-8.86-.64-.6-.1-.87-.17-1.49-.1-.41,.05-1.11-.01-1.68-.04-6.34-.39-12.68-.83-19.01-1.34-1.72-.14-3.31-.51-5.08-.57-.73-.03-1.58-.22-2.2-.07-.09,.02-.39,0-.53-.02-2.1-.41-4.24-.28-6.33-.57-.45-.07-.88-.14-1.32-.21-.46-.07-.98-.18-1.37-.18-3.26-.02-6.58-.58-9.85-.85-1.12-.1-2.32-.36-3.34-.22-.15,.02-.65-.04-.86-.09-1.88-.5-3.99-.52-5.96-.82-1.01-.16-2.17-.13-3.05-.48-.11-.04-.52-.07-.78-.08-.44-.02-.88,0-1.3-.05-1.17-.16-2.44-.45-3.48-.5-1.29-.06-2.49-.25-3.72-.4-.35-.04-.7-.12-1.05-.19-.28-.06-.57-.13-.86-.19-.24-.04-.48-.08-.72-.1-.18,0-.67-.15-.3,.1,.13,.14,.22,.32,.28,.51,.05,.25,.07,.44-.05,.92-.11,.4-.28,.77-.52,1.08-.34,.44-.68,.83-1.15,1.11-.49,.28-1,.41-1.61,.36-.9-.08-1.93-.07-2.85-.35-.46-.13-.92-.34-1.34-.52-.32-.14-.61-.33-.92-.43-.7-.23-1.36-.52-2.14-.68-.54-.1-1.42-.54-2.17-.8-.74-.27-1.51-.48-2.26-.72-.76-.23-1.56-.54-2.27-.67-3.09-.65-6.17-1.59-9.28-2.29-.8-.17-1.74-.3-2.39-.67-.11-.07-.57-.17-.81-.19-3.02-.35-6.07-1.18-9.12-1.64-2.17-.32-4.32-.55-6.52-.92-2.14-.35-4.36-.73-6.45-.91-1.72-.14-3.42-.28-5.09-.54-1.64-.26-3.26,0-4.83-.55-1.68-.18-3.35-.35-5.02-.53-1.41-.16-2.86-.21-4.22-.57-.49-.13-1.47-.23-2.02-.22-1.79,.02-3.49-.23-5.26-.59-.42-.08-.97-.05-1.45-.11-1.48-.22-2.98-.4-4.44-.71-4.36-.86-8.7-1.62-12.93-3.05-.79-.24-1.69-.42-2.36-.72l-1.53-.67-1.52-.71c-1.03-.44-2.03-.94-3.03-1.45-2.02-.98-3.97-2.09-5.75-3.41-2.62-1.95-5.11-4.16-7.05-6.87-1.96-2.68-3.24-5.94-3.49-9.28-.07-.87,.1-1.78,.07-2.19-.14-1.28,.18-2.72,.31-3.78,.2-1.94,1.03-3.72,1.92-5.39,.67-1.23,1.68-2.35,2.36-3.45,.09-.17,.43-.51,.63-.66,1.59-1.27,2.94-2.75,4.6-3.79,1.43-1.19,2.98-2.21,4.48-3.24,1.51-1.02,2.96-2.09,4.37-3.26,.42-.34,.78-.72,1.18-1.08,.2-.18,.43-.41,.62-.54,2.79-1.85,5.43-4.25,8.61-5.87,1.05-.52,2.12-.94,3.24-1.32,1.12-.4,2.24-.79,3.29-.92,.33-.04,.93-.26,1.35-.44,1.1-.46,2.06-.86,2.77-1.15,.69-.27,1.19-.42,1.43-.2,.17,.15-.21,.54-.62,.94-.81,.78-1.79,1.37-3.05,1.8-.98,.34-2.09,.58-2.88,1.06-.13,.08-.57,.21-.81,.26-1.69,.36-3.39,1.33-4.85,2.05-1.13,.55-2.1,1.21-3.1,1.89-.85,.56-1.61,1.29-2.54,1.76-.31,.16-.99,.92-1.54,1.37-1.3,1.07-2.61,2.15-3.97,3.14-4.11,3.06-8.51,5.63-11.97,9.25-2.23,2.74-3.98,6.11-4.31,9.65-.4,4.23,.48,8.58,2.96,12.02,.51,.7,.91,1.27,1.37,1.9,.29,.41,.62,.85,.98,1.22,1.42,1.46,3.04,2.73,4.72,3.9,.9,.63,2.02,1.16,2.73,1.87,.1,.1,.53,.35,.74,.42,.85,.34,1.71,.71,2.56,1.15,.84,.45,1.71,.87,2.58,1.23,.67,.27,1.29,.58,1.99,.94,.76,.38,2,.9,2.89,1.06,.66,.14,1.23,.32,1.84,.5,2.57,.69,5.19,1.66,7.82,1.85,1.28,.57,2.99,.76,4.36,.94,5.32,.6,10.64,1.34,15.99,1.83,1.29,.12,2.58,.37,3.89,.54,1.38,.15,2.76,.31,4.15,.46,.74,.08,1.58,.28,2.18,.14,.04,0,.18,0,.25,0,.78,.13,1.57,.31,2.34,.39,.69,.08,1.35,.02,2.05,.08,.84,.07,1.72,.19,2.58,.3,.83,.11,1.73,.19,2.37,.48,.68-.13,1.62,.12,2.45,.24,.78,.11,1.57,.25,2.36,.37l2.65,.45c.88,.16,1.77,.31,2.64,.47,1.21,.18,2.4,.33,3.6,.55,1.27,.22,2.55,.5,3.8,.79,1.57,.38,3.12,.8,4.68,1.22,.65,.18,1.21,.26,1.87,.33,.86,.1,1.99,.17,2.99,.75,.2,.11,.96,.31,1.39,.39,3.43,.62,6.77,1.96,10.1,3.05,1.75,.83,3.58,1.56,5.05,1.36,.27-.04,.58-.13,.75-.22,.17-.09,.34-.24,.49-.43,.15-.19,.26-.42,.33-.64l.04-.16v-.08s.01-.04,.01-.04v-.16c-.29-.3-.71-.63-1.05-.95l-2.39-2,1.32,.13,.62,.04c.11,0,.14,0,.16,0h.09c.09,0,.04-.02,.04-.02h-.01s.24,.02,.24,.02l.47,.06,.94,.13c.62,.09,1.23,.18,1.84,.27l.85,.13,.49,.09c2.99,.54,5.95,.82,8.91,1.23,.83,.11,1.75,.13,2.43,.43,.16,.07,.79,.13,1.14,.14,2.44,.06,4.77,.39,7.22,.8,1.29,.22,2.77,.28,4.21,.36,2.17,.1,4.51,.44,6.78,.66,.95,.36,1.75,.17,2.26,.1,.69-.09,1.32-.05,2.12,.02,1.03,.09,2.04,.23,3.07,.15,.53-.04,1.68,.09,2.24,.23,.74,.19,1.02,.16,1.72,.13,.82-.02,1.64,.29,2.66,.37,1.09,.08,2.37,.05,3.31,.4,.08,.03,.42,.06,.57,.05,2.04-.11,4.02,.45,6.04,.48,5.99,.76,12.1,.91,18.13,1.37,2.49,.18,4.99,.53,7.46,.52,5.18,0,10.34,.42,15.49,.43,1.09,0,2.35-.13,3.33,.14,.14,.04,.64,.03,.86-.01,1.63-.26,3.21-.22,4.86-.13,.4,.03,1.14-.01,1.38-.09,.67-.22,1.46-.2,2.19-.24,.88-.05,2.05,0,2.57-.14,1.1-.28,1.74-.16,2.59-.22,.52-.04,1.1-.15,1.64-.26,.26-.05,.56-.18,.71-.19,1.74-.01,3.35-.65,5.04-.88,.36-.05,.74-.15,1.09-.2,2-.29,2.99-.49,4.09-.78,1.11-.27,2.31-.69,4.68-1.6,.7-.09,1.4-.4,2.1-.72,.69-.34,1.38-.72,2.12-.91,.27-.07,.65-.21,1.03-.4,.37-.2,.75-.42,1.04-.6,2.56-1.59,5.27-3.1,7.64-5,.49-.4,1-.53,1.53-1.17,.21-.23,1.09-.79,1.61-1.25,.37-.34,.78-.66,1.15-1.01,.36-.37,.71-.75,.98-1.18,.21-.36,.93-.92,1.33-1.45,.57-.71,1.24-1.35,1.69-2.16,.22-.46,.91-1.39,1.32-1.8,.86-.83,1.41-1.84,1.98-2.79,.53-.98,.9-2.01,1.36-2.99,.24-.61,.38-1.05,.7-1.65,.21-.43,.5-.92,.69-1.42,.18-.5,.34-.98,.41-1.35,.3-1.29,.57-2.5,.86-3.74,.22-1.08,.3-2.18,.47-3.26,.07-1.1,.08-2.2,.1-3.29-.1-2.5-.37-5.01-1.17-7.44-.42-1.31-1.05-2.99-1.32-4.48-.03-.17-.39-.67-.56-1.04-1.23-2.93-2.77-5.75-4.52-8.42-.41-.61-.62-1.45-1.22-1.86-.61-.44-.7-1.35-1.32-1.64-.09-.04-.49-.58-.7-.86-2.16-3.1-5.1-5.67-8.02-8.07-.7-.58-1.6-1.11-2.05-1.73-2.01-1.11-3.96-2.97-6.14-3.61-1.43-.79-3.12-1.21-4.52-1.83-.23-.11-.78-.15-1.04-.23-.93-.27-1.54,.1-2.61-.01-.65-.09-1.73,.34-2.36,.89-.62,.51-.78,.93-.84,1.9-.05,.75-.09,1.66-.38,2.58-.11,.23-.19,.47-.34,.68-.16,.2-.32,.4-.54,.54-.71,.5-1.32,.6-1.82,.77-.51,.15-.94,.31-1.27,.52-.66,.41-.92,1.11-1.02,2.02-.06,1.21-.82,2.83-1.99,3.57-.24,.19-.64,.46-.71,.56-.61,.8-1.9,1.05-2.67,1.17-.66,.11-1.2,.22-1.85,.42-1.7,.52-3.52,1.25-5.31,1.82-1.06,.35-2.17,.85-3.26,.94-.34,.03-1.2,.32-1.67,.51-2.21,.93-4.68,1.4-7.07,1.9-1.08,.23-2.19,.4-3.28,.55-.83,.11-1.65,.38-2.51,.31-4.06,.73-8.3,.62-12.43,.42-2.06-.1-4.12-.28-6.16-.53-2.06-.24-4.05-.62-5.96-.72-.96-.06-1.98,.1-2.82-.03-.16-.03-.83,.09-1.01,.19-.51,.26-.88,.43-1.54,.45-.12,0-.62,.21-.88,.34-.72,.36-1.41,.62-2.25,.85-.66,.18-1.55,.43-2.16,.71-.82,.36-1.62,.73-2.45,1-.83,.26-1.68,.47-2.58,.6-.22,.03-.76,.37-1.15,.47-1.51,.32-3.01,.85-4.56,.97-.64,.03-1.53,.26-2.31,.38-1.33,.23-2.58,.52-3.99,.63-1.43,.14-2.98,.31-4.49,.44-1.5,.16-3.01,.15-4.52,.22-1.51,.08-3.02-.02-4.52-.02-1.51-.03-3.01-.17-4.52-.26-1.5-.13-3-.33-4.5-.5-1.49-.24-2.98-.48-4.46-.74-1.03-.23-1.98-.46-3-.78-1.3-.39-2.71-.9-4.32-1.31-.81-.2-1.63-.49-2.51-.74-.87-.27-1.82-.48-2.77-.81-.28-.09-.56-.21-.84-.32-.91-.36-1.84-.68-2.74-1.06l-2.69-1.19c-.89-.38-1.8-.82-2.7-1.37-.44-.28-.88-.59-1.29-.97-.21-.19-.4-.39-.59-.6-.09-.11-.18-.22-.27-.34-.05-.06-.09-.12-.13-.18l-.05-.08c-.06-.1-.11-.22-.14-.36-.05-.07-.19,.05-.29,.07l-.17,.07-.04,.02-.11,.05-.23,.11c-.61,.3-1.23,.62-1.84,.95-1.04,.49-2.07,.91-3.05,1.53-.82,.53-2.17,.74-3.13,1.37-.35,.23-1.37,.6-1.92,.67-.9,.15-1.79,.39-2.67,.66-.89,.26-1.8,.47-2.69,.68l-1.55,.36-1.56,.27c-1.05,.16-2.08,.41-3.13,.51-1.03,.12-2.07,.16-3.11,.47-.51,.13-1.77,.12-2.54,.08-.59-.04-1.18-.02-1.76-.01-.58,0-1.15,0-1.7,.03-2.38,.11-2.37,.1-4.7-.21-.28-.04-.58-.06-.87-.08-1.45-.13-2.91-.39-4.37-.58-1.44-.28-2.87-.54-4.27-.78-1.16-.25-2.3-.52-3.44-.8-1.12-.33-2.23-.71-3.35-1.07-.9-.26-1.92-.63-2.57-1.14-.09-.08-.58-.27-.81-.33-.97-.22-1.9-.66-2.83-1.11-.93-.46-1.86-.91-2.76-1.43-1.73-.97-3.5-1.86-4.95-3.59-1.35-1.6-2.34-3.76-2.32-6.02,.02-1.73,.59-2.77,.99-3.25,.43-.48,.72-.48,.98-.28,.23,.18,.24,.43,.11,.88-.12,.45-.38,1.14-.42,2.24-.05,2.35,1.11,4.52,2.75,6.04,1.63,1.54,3.57,2.62,5.35,3.45Z"/>
        </g>
        <g class="cls-16">
          <g class="cls-16">
            <path class="cls-5" d="M293.78,50.29c-4.9,1.66-10.32,1.92-14.55,3.12-.47,.13-.95,.25-1.45,.39l.76-.02c2.87,0,5.86-.38,8.83-.9,2.95-.61,5.91-1.37,8.64-2.45,3.37-1.42,6.55-3.31,10.1-5.11,.4-.19,.3-.5,.26-.65-.45,0-.85-.04-1.22-.1-2.74,1.67-5.6,3.15-8.71,4.31-1.04,.33-2.02,1.23-2.66,1.41Z"/>
            <polygon class="cls-7" points="305.27 44.55 305.2 44.53 304.78 44.78 305.27 44.55"/>
            <path class="cls-4" d="M298.3,48.23c-.96,.5-1.96,.86-2.97,1.18-.61,.36-1.15,.77-1.56,.89-4.9,1.66-10.32,1.92-14.55,3.12-.46,.12-.94,.25-1.43,.38l.81-.02c1.99-.01,4.03-.2,6.09-.47,.11-.04,.22-.07,.32-.11,1.1-.44,2.21-.34,3.3-.6,1.56-.43,2.94-.81,4.34-1.19,1.41-.37,2.79-.85,4.26-1.43,1.05-.42,2.01-1.23,3.27-1.68,.42-.17,.82-.33,1.22-.5,.77-.43,1.55-.83,2.35-1.25,.78-.44,1.59-.87,2.43-1.27,.4-.19,.3-.5,.26-.65-.23,0-.45-.01-.66-.03-1.36,.62-2.67,1.33-4.08,1.91-1.16,.64-2.37,1.2-3.61,1.72,.06,0,.13,0,.22,0Z"/>
            <path class="cls-7" d="M298.01,47.83c-.18,.06-.31,.36,.07,.4,1.24-.52,2.45-1.08,3.61-1.72-.59,.25-1.18,.51-1.79,.73-.62,.21-1.25,.41-1.89,.59Z"/>
            <path class="cls-8" d="M297.8,46.73c-2.43,.82-4.64,1.95-6.76,2.25-1.09,.21-2.21,.19-3.2,.13-.34,.09-.68,.17-1.01,.26-8.35,2.09-17.17,2.52-25.53,.93-2.1-.36-4.13-.62-6.18-.95-2.06-.28-4.1-.66-6.22-1.25-2.47-.83-4.23-2.03-6.3-3.44-2.53-1.83-4.89-3.4-7.11-5.28-2.18-1.88-4.31-4.1-5.55-7.13-.64-1.62-1.91-1.57-1.81-1.13,1.73,5.63,5.52,10.09,9.94,13.34,4.45,3.26,9.57,5.49,15.02,6.74,8.44,1.91,16.55,2.63,24.67,2.6,.5-.13,.98-.26,1.45-.39,4.23-1.2,9.66-1.46,14.55-3.12,.64-.18,1.61-1.08,2.66-1.41,3.11-1.17,5.97-2.65,8.71-4.31-.78-.12-1.46-.3-2.18-.31-1.66,.99-3.35,1.95-5.16,2.48Z"/>
            <path class="cls-6" d="M297.8,46.73c1.81-.52,3.5-1.49,5.16-2.48-.35,0-.73,.02-1.14,.11-4.5,1.34-9.24,3.54-13.97,4.74,.99,.07,2.11,.08,3.2-.13,2.11-.3,4.33-1.43,6.76-2.25Z"/>
            <path class="cls-4" d="M297.8,46.73c1.73-.5,3.34-1.41,4.94-2.33-.59,.21-1.18,.41-1.76,.66-1.47,.66-2.98,1.21-4.48,1.78-1.53,.48-3.05,1-4.62,1.26,3.26-.96,6.49-2.1,9.54-3.63-4.37,1.36-8.98,3.48-13.57,4.64,.98,.06,2.1,.08,3.19-.13,2.11-.3,4.33-1.43,6.76-2.25Z"/>
            <path class="cls-3" d="M292.93,48.64c3.75-.99,7.44-2.36,10.87-4.35-.2-.03-.4-.05-.61-.06-.16,.06-.31,.11-.46,.17-1.59,.92-3.21,1.83-4.94,2.33-2.43,.82-4.64,1.95-6.76,2.25-1.09,.21-2.21,.19-3.19,.13-.32,.08-.64,.16-.95,.24-4.27,1.07-8.65,1.72-13.03,1.87-3.8,.52-8.02,.23-11.94-.59,1.86,.29,3.75,.41,5.64,.47-2.08-.16-4.15-.41-6.2-.8-.89-.14-1.76-.28-2.64-.42-.87-.13-1.74-.23-2.61-.38-.41,.2-1.03,.32-2,.17-1.52-.25-2.94-.72-4.51-.96-.2-.08-.08-.29-.48-.45,1.11,.45,2.11,.57,2.99,.59-1.03-.22-2.1-.43-3.15-.74-1.95-.62-3.45-1.54-5.01-2.56l-.54-.26c-.91-.42-1.82-.85-2.78-1.25,.35,.22,.7,.45,1.07,.69-.65-.22-1.37-.69-1.88-1.08,.27,.13,.54,.26,.81,.39-.79-.59-1.59-1.11-2.37-1.8,.48,.42,1.01,.78,1.56,1.08,.53,.32,1.06,.61,1.56,.82-1.98-1.22-3.77-2.45-5.25-4.18,.05,.03,.1,.07,.15,.09-2.46-2.02-4.88-4.39-6.32-7.74-.63-1.62-1.92-1.57-1.8-1.13,.64,1.94,1.48,3.77,2.52,5.46,1.09,1.65,2.27,3.23,3.66,4.58,1.37,1.37,2.85,2.63,4.43,3.71,1.56,1.12,3.24,2.07,4.95,2.93-.7-.53-1.37-1.11-2.07-1.66-.3-.23-.58-.47-.83-.73,.27,.24,.55,.48,.83,.73,.85,.58,1.85,1.12,2.8,1.71,.15,.16,.75,.47,1.08,.36,1.32,.78,3.07,1.27,4.45,1.91,.09,.03,.21,.14,.35,.28,.92,.29,1.86,.51,2.81,.74,5.28,1.2,10.43,1.9,15.53,2.28-.6-.1-1.19-.21-1.79-.31-.58-.14-1.14-.28-1.67-.43-.72-.24-1.86-.33-3.16-.47-.64-.05-1.33-.11-2.02-.17-.69-.09-1.38-.18-2.03-.27-.67-.07-1.02-.35-1.65-.52,1.2-.07,2.51,.09,3.84,.36,1.35,.19,2.72,.51,4.05,.57,3.48,.32,8.44,1,12.23,.23,1.55-.31,3.04-.2,4.34-.08-.44,.22-1.32,.27-1.76,.31-3.94,.31-7.88,.34-11.85,.16,4.1,.58,8.11,.31,12.25,.28-1.21,.13-2.42,.18-3.6,.18-1.18,.02-2.34,.08-3.48,.24,.19,.06,.39,.11,.59,.16,.8,.05,1.61,.03,2.41,.05,.8,0,1.61,.05,2.41,.01,.49-.13,.97-.26,1.43-.38,4.23-1.2,9.66-1.46,14.55-3.12,.41-.11,.95-.53,1.56-.89-1.56,.54-3.17,.85-4.75,1.33,.65-.11,1.29-.18,1.91-.18-1.48,.5-2.8,.47-4.3,.86,.8-.27,1.59-.48,2.39-.68-.99,.12-2.02,.32-3.05,.5,.95-.37,1.91-.5,2.88-.64,.95-.18,1.91-.4,2.84-.88-.41,.12-.83,.23-1.25,.32l1.27-.34h-.02c1.26-.38,2.45-.98,3.52-1.49-1.07,.37-2.11,.65-3.15,.92-1.05,.22-2.09,.44-3.14,.76l-1.05,.3c.36-.1,.71-.2,1.05-.3,4.84-1.46,9.71-2.92,14.31-5.1l.42-.24c-.17-.03-.35-.06-.52-.08-3.76,1.84-7.79,3.26-11.75,4.19Z"/>
          </g>
        </g>
        <g class="cls-16">
          <g class="cls-16">
            <path class="cls-5" d="M320.89,23.42c.35,.76,.37,1.64,.36,2.43-.01,.8-.04,1.53,.23,2.28,.05,.16,.1,.34,.16,.52,.03-.08,.07-.16,.1-.24,.79-1.79,.73-4.15-.34-5.97-.78-1.1-1.97-1.78-3.02-2.63-.12-.1-.31,.15-.4,.28,0,.24-.05,.48-.11,.71,.86,.4,1.72,1.04,2.21,1.95,.12,.31,.76,.45,.82,.67Z"/>
            <polygon class="cls-7" points="317.86 20.75 317.84 20.8 317.97 20.86 317.86 20.75"/>
            <path class="cls-4" d="M319.81,22.2c.25,.24,.43,.53,.55,.84,.23,.13,.5,.25,.53,.39,.35,.76,.37,1.64,.36,2.43-.01,.8-.04,1.53,.23,2.28,.05,.16,.1,.33,.15,.51,.04-.08,.07-.17,.11-.25,.27-.62,.44-1.31,.5-2.02l-.05-.11c-.23-.38,0-.76-.03-1.15-.33-1.03-.38-1.99-1.04-2.93-.23-.34-.76-.5-1-.88-.1-.12-.19-.25-.26-.38-.62-.46-1.04-.78-1.5-1.13-.12-.1-.31,.15-.4,.28,0,.13-.02,.25-.04,.38,.34,.31,.69,.61,.98,.97,.33,.24,.63,.53,.89,.87,.01-.03,.03-.06,.03-.1Z"/>
            <path class="cls-7" d="M319.43,22.48s.26-.01,.35-.19c-.26-.33-.56-.62-.89-.87,.25,.3,.44,.65,.53,1.06Z"/>
            <path class="cls-8" d="M318.46,23.02c.21,.59,.83,1.03,.7,1.65-.05,.31-.22,.63-.49,.9,.02,.08,.04,.16,.05,.24,.56,2.01-.18,4.35-1.75,6.03-.72,.88-.98,2.05-1.57,3.22-.44,.61-1.13,.79-1.81,1.17-1.76,.92-2.03,3.16-2.53,5.04-.13,.53,.99,1.1,1.05,1,.36-1.39,1.32-2.56,2.36-3.63,1.04-1.08,2.23-2.13,3.15-3.52,1.43-2.13,2.85-4.03,4-6.46-.05-.18-.11-.36-.16-.52-.27-.75-.24-1.48-.23-2.28,.01-.79,0-1.67-.36-2.43-.06-.22-.69-.36-.82-.67-.49-.91-1.36-1.54-2.21-1.95-.12,.48-.32,.93-.44,1.29,.45,.16,.92,.44,1.04,.93Z"/>
            <path class="cls-6" d="M318.46,23.02c-.12-.48-.59-.76-1.04-.93-.06,.18-.09,.32-.09,.45,.1,.6,.33,1.01,.61,1.48,.28,.46,.6,.98,.74,1.54,.27-.27,.44-.59,.49-.9,.13-.62-.49-1.06-.7-1.65Z"/>
            <path class="cls-4" d="M318.46,23.02c-.11-.46-.55-.74-.97-.9,.07,.14,.12,.29,.21,.4,.43,.59,.88,1.27,.81,2.08-.23-.76-.61-1.47-1.17-1.95,.11,.56,.35,.96,.63,1.41,.28,.45,.58,.95,.71,1.5,.27-.27,.44-.59,.48-.9,.13-.62-.49-1.06-.7-1.65Z"/>
            <path class="cls-3" d="M319.21,24.14c-.16-1.01-.71-2.02-1.65-2.48-.04,.12-.08,.23-.12,.34,.02,.04,.03,.08,.05,.12,.43,.17,.86,.44,.97,.9,.21,.59,.83,1.03,.7,1.65-.05,.31-.21,.63-.48,.9l.05,.23c.26,1.04,.25,2.12-.08,3.21,.08,1.06-.53,2.09-1.35,2.83,.29-.42,.52-.87,.69-1.34-.28,.47-.61,.92-.99,1.33-.31,.37-.52,.8-.72,1.25,.17,.26,.26,.54,.15,.8-.18,.41-.49,.71-.59,1.23-.05,.04-.21-.13-.3-.04,.26-.23,.32-.55,.29-.89-.12,.29-.25,.59-.39,.88-.35,.48-.85,.69-1.37,.95l-.11,.15c-.18,.24-.3,.55-.4,.88,.09-.08,.19-.16,.29-.25-.04,.24-.23,.41-.37,.54,.03-.1,.06-.19,.09-.29-.22,.2-.43,.39-.67,.61,.29-.27,.46-.64,.6-.96-.48,.53-.85,1.07-1.48,1.49v-.07c-.43,.99-.63,2.12-.92,3.18-.13,.53,.99,1.1,1.05,1,.52-1.97,2.15-3.4,3.65-4.92-.3,.06-.59,.12-.87,.18-.1,.05-.22,.08-.35,.09,.11-.03,.23-.06,.35-.09,.28-.13,.49-.38,.81-.51,.1,.02,.25-.11,.13-.32,.44-.18,.66-.69,1.1-.89,.02-.02,.1,0,.2,.01,.17-.22,.34-.45,.5-.69,.9-1.33,1.78-2.58,2.6-3.91-.3,.28-.61,.52-.95,.69-.51,.2-.71,1.14-1.11,1.83-.07,.2-.33,.14-.46,.28-.11-.92,.75-1.34,1.06-2.06,.22-.45,.62-.93,.94-1.47,.32-.54,.55-1.16,.45-1.75-.09-.48,.24-.84,.54-1.19,.13,.15,.09,.42,.05,.55-.28,1.16-.76,2.23-1.23,3.29,.86-.95,1.12-2.12,1.72-3.33-.09,.79-.64,1.37-.55,2.14,.08-.04,.14-.08,.21-.12,.25-.44,.48-.91,.71-1.39-.05-.18-.11-.35-.15-.51-.27-.75-.24-1.48-.23-2.28,.01-.79,0-1.67-.36-2.43-.04-.13-.3-.25-.53-.39,.2,.48,.25,1,.38,1.48,.03-.22,.07-.43,.19-.66,.19,.47-.05,.94,.06,1.4-.1-.25-.19-.49-.24-.73-.04,.32-.03,.64-.06,.96-.33-.53,.17-1.25-.43-1.71,.05,.12,.08,.25,.09,.38-.02-.13-.06-.26-.09-.38h0c-.14-.36-.44-.67-.74-.89,.33,.58,.22,1.24,.39,1.83,.03,.09,.07,.19,.1,.29-.05-.1-.08-.19-.1-.29-.47-1.31-.83-2.75-1.93-3.83l-.13-.06-.09,.32c.87,.79,1.38,1.92,1.46,3.02Z"/>
          </g>
        </g>
        <g class="cls-16">
          <g class="cls-16">
            <path class="cls-5" d="M300.39,54.58c-2.62,1.38-5.72,1.52-7.94,2.75-.24,.12-.5,.26-.77,.4l.43-.02c3.25-.17,6.8-1.15,9.72-2.91,1.76-1.2,3.22-2.81,4.97-4.26,.2-.16,.01-.42-.08-.54-.3,0-.59-.04-.86-.09-1.22,1.3-2.56,2.57-4.19,3.48-.55,.28-.92,1.05-1.27,1.19Z"/>
            <polygon class="cls-7" points="305.93 49.89 305.88 49.87 305.69 50.07 305.93 49.89"/>
            <path class="cls-4" d="M302.65,52.87c-.47,.4-.99,.7-1.52,.96-.28,.31-.52,.65-.74,.75-2.62,1.38-5.72,1.52-7.94,2.75-.24,.12-.5,.25-.76,.39,.15,0,.31-.02,.46-.02,1.13-.07,2.29-.21,3.44-.47l.17-.1c.57-.4,1.23-.32,1.84-.52,1.65-.76,3.13-1.18,4.67-2.2,.55-.37,.95-1.02,1.6-1.42,.21-.15,.44-.27,.65-.4,.74-.7,1.49-1.39,2.31-2.08,.2-.16,.01-.42-.08-.54-.16,0-.31-.01-.46-.03-.66,.51-1.3,1.05-2.01,1.53-.55,.5-1.14,.97-1.77,1.39,.04,0,.09,.01,.14,0Z"/>
            <path class="cls-7" d="M302.34,52.5c-.09,.05-.09,.31,.17,.36,.63-.42,1.22-.89,1.77-1.39-.59,.41-1.23,.77-1.93,1.03Z"/>
            <path class="cls-8" d="M301.86,51.5c-1.25,.59-2.27,1.57-3.45,1.75-.61,.11-1.24,.12-1.83,0-.18,.07-.35,.14-.53,.2-4.32,1.77-9.13,2.39-13.85,2.08-2.37-.07-4.59,.39-7.07,.64-1.47,.02-2.62-.41-4.04-.71-3.54-.82-6.7,.34-10.38,.57-.99,.06-1.19,1.31-.95,1.33,6.16-.21,11.87,.74,18.04,.61,4.78-.11,9.26-.03,13.86-.25,.27-.14,.53-.27,.77-.4,2.22-1.23,5.32-1.37,7.94-2.75,.35-.15,.72-.92,1.27-1.19,1.64-.91,2.97-2.18,4.19-3.48-.57-.11-1.09-.29-1.57-.34-.68,.8-1.47,1.53-2.41,1.93Z"/>
            <path class="cls-6" d="M301.86,51.5c.94-.41,1.73-1.14,2.41-1.93-.24-.02-.47-.02-.69,.05-2.36,.92-4.53,2.64-7,3.63,.59,.12,1.22,.11,1.83,0,1.18-.18,2.2-1.15,3.45-1.75Z"/>
            <path class="cls-4" d="M301.86,51.5c.9-.39,1.66-1.07,2.32-1.83-.3,.16-.59,.32-.88,.5-1.43,.94-2.93,1.88-4.61,2.29,1.68-.72,3.27-1.64,4.68-2.77-2.26,.95-4.39,2.59-6.78,3.56,.59,.12,1.21,.11,1.82,0,1.18-.18,2.2-1.15,3.45-1.75Z"/>
            <path class="cls-3" d="M299.45,53.01c1.98-.74,3.9-1.81,5.4-3.37-.15-.03-.29-.06-.43-.08-.08,.04-.16,.08-.24,.12-.66,.75-1.42,1.44-2.32,1.83-1.25,.59-2.27,1.57-3.45,1.75-.61,.11-1.23,.12-1.82,0-.17,.06-.33,.13-.49,.19-2.21,.89-4.54,1.52-6.93,1.85-2.03,.68-4.37,.73-6.59,.49,1.05,0,2.09-.06,3.13-.19-1.15,.04-2.31,.02-3.47-.05-1-.03-1.98,.04-2.96,.14-.21,.29-.53,.53-1.08,.59-.86,.1-1.7,.03-2.59,.27-.12-.01-.09-.25-.33-.27,.67,.06,1.23-.08,1.72-.31-.6,.08-1.21,.16-1.83,.22-1.15,.02-2.11-.24-3.16-.5h-.34c-.57,.01-1.16,.11-1.74,.23,.23,.02,.47,.05,.72,.07-.39,.12-.87,.07-1.23,.04,.17-.04,.34-.07,.51-.11-.56-.06-1.1-.11-1.69-.17,.72,.07,1.47-.01,2.1-.11-1.34-.05-2.57-.01-3.87-.3l.1-.04c-1.88,.2-3.76,.62-5.81,.75-.99,.06-1.19,1.31-.95,1.33,4.3-.13,8.39,.26,12.55,.49-.47-.2-.94-.39-1.39-.58-.21-.05-.4-.12-.58-.23,.19,.07,.39,.15,.58,.23,.56,.14,1.18,.15,1.78,.32,.11,.09,.47,.12,.63-.1,.82,.24,1.83,.09,2.65,.32,.05,0,.13,.08,.22,.16,.53,0,1.06,0,1.6-.02,3.04-.04,5.81-.07,8.72-.11-.7-.1-1.36-.22-1.98-.42-.83-.31-2.56,.06-4.04,.14-.37,.06-.59-.19-.95-.21,1.29-.63,2.94-.17,4.41-.32,1.93-.13,4.74,.21,6.77-.61,.82-.34,1.67-.24,2.43-.14-.22,.2-.71,.28-.95,.33-2.18,.35-4.37,.52-6.56,.72,2.31,.19,4.51-.22,6.85-.29-1.34,.3-2.7,.14-3.92,.63,.11,.05,.23,.09,.34,.12,.9-.03,1.81-.05,2.72-.1,.27-.14,.52-.27,.76-.39,2.22-1.23,5.32-1.37,7.94-2.75,.22-.1,.46-.44,.74-.75-.84,.4-1.71,.7-2.57,1.05,.38-.06,.74-.11,1.12-.09-.79,.4-1.58,.35-2.39,.68,.42-.22,.84-.42,1.27-.59-.56,.1-1.12,.27-1.7,.39,.97-.61,2.18-.39,3.06-1.25-.21,.11-.44,.19-.67,.26,.23-.09,.46-.17,.68-.27h-.01c.66-.31,1.25-.79,1.75-1.24-1.1,.63-2.26,.81-3.37,1.29-.18,.09-.36,.17-.55,.26,.18-.1,.36-.18,.55-.26,2.52-1.19,5.13-2.26,7.4-3.99l.18-.2-.38-.08c-1.81,1.45-3.92,2.53-6.05,3.21Z"/>
          </g>
        </g>
        <g class="cls-16">
          <g class="cls-16">
            <path class="cls-5" d="M244.39,96.25c.22,.6,.17,1.29,.1,1.93-.07,.65-.16,1.22,.07,1.87,.04,.14,.08,.29,.12,.44,.04-.06,.07-.12,.11-.18,.44-.67,.72-1.55,.74-2.42,.03-.87-.17-1.7-.48-2.39-.51-.83-1.37-1.38-1.68-2.23-.04-.09-.32,.04-.47,.1-.14,.17-.3,.34-.47,.5,.47,.56,1.03,1.11,1.29,1.84,.06,.24,.64,.37,.67,.54Z"/>
            <polygon class="cls-7" points="242.45 93.84 242.42 93.87 242.49 93.95 242.45 93.84"/>
            <path class="cls-4" d="M243.61,95.27c.18,.2,.27,.43,.33,.67,.19,.11,.43,.21,.45,.31,.22,.6,.17,1.29,.1,1.93-.07,.65-.16,1.22,.07,1.87,.04,.14,.08,.28,.12,.44,.04-.06,.08-.13,.12-.19,.31-.47,.53-1.03,.64-1.62l-.04-.1c-.2-.33,.06-.63,.06-.95-.24-.86-.2-1.59-.62-2.31-.14-.25-.59-.4-.68-.7-.05-.1-.08-.2-.09-.3-.29-.32-.56-.65-.71-1.05-.04-.09-.32,.04-.47,.1-.07,.09-.15,.18-.24,.26,.1,.33,.25,.62,.37,.94,.2,.24,.38,.49,.53,.76,.02-.02,.04-.05,.06-.07Z"/>
            <path class="cls-7" d="M243.18,95.47s.24,0,.38-.13c-.15-.27-.33-.53-.53-.76,.1,.27,.17,.56,.15,.89Z"/>
            <path class="cls-8" d="M242.13,95.83c.06,.54,.6,.9,.4,1.38-.08,.24-.28,.48-.58,.67,.02,.06,.02,.12,.03,.17,.39,1.37-.36,3.01-1.79,4.11-.64,.61-.86,1.61-1.28,2.59-.33,.49-.92,.59-1.48,.85-.71,.29-1.08,.96-1.26,1.58-.19,.6-.31,1.33-.96,1.59-.32,.09-.6,1.3-.48,1.34,.49,.02,.96-.07,1.4-.27,.42-.19,.73-.44,1.01-.67,.56-.48,.95-.95,1.37-1.36,.84-.85,1.69-1.68,2.39-2.7,1.12-1.61,2.48-2.78,3.78-4.61-.04-.16-.08-.31-.12-.44-.22-.65-.14-1.22-.07-1.87,.07-.64,.12-1.33-.1-1.93-.03-.17-.61-.29-.67-.54-.27-.73-.82-1.28-1.29-1.84-.35,.33-.72,.64-.97,.92,.34,.29,.66,.61,.67,1.03Z"/>
            <path class="cls-6" d="M242.13,95.83c0-.42-.33-.73-.67-1.03-.12,.13-.21,.26-.26,.38-.23,1.17,.57,1.86,.75,2.7,.29-.19,.49-.43,.58-.67,.2-.48-.34-.85-.4-1.38Z"/>
            <path class="cls-4" d="M242.13,95.83c0-.4-.3-.71-.62-.98,0,.15,.01,.29,.05,.42,.21,.64,.51,1.25,.34,1.89-.12-.61-.35-1.25-.72-1.87-.16,1.1,.61,1.78,.78,2.59,.29-.19,.49-.43,.57-.66,.2-.48-.34-.85-.4-1.38Z"/>
            <path class="cls-3" d="M242.65,96.79c-.03-.81-.28-1.65-.88-2.32-.09,.09-.17,.17-.25,.25,0,.04,0,.08,0,.12,.33,.28,.62,.59,.62,.98,.06,.54,.6,.9,.4,1.38-.08,.24-.28,.48-.57,.66,.01,.06,.02,.11,.03,.16,.18,.71,.12,1.46-.22,2.2,.05,.82-.55,1.52-1.29,1.98,.26-.3,.48-.62,.64-.96-.26,.32-.57,.62-.92,.89-.27,.26-.47,.58-.64,.95,.16,.25,.26,.52,.17,.73-.14,.33-.4,.56-.44,1-.04,.03-.2-.14-.28-.07,.21-.18,.24-.45,.19-.76-.1,.25-.19,.5-.28,.74-.26,.39-.68,.53-1.12,.7-.03,.04-.05,.08-.08,.12-.13,.19-.19,.45-.24,.72,.07-.06,.14-.12,.22-.19,0,.21-.15,.33-.26,.43,.01-.08,.03-.16,.04-.24-.17,.15-.34,.29-.52,.45,.22-.19,.33-.49,.41-.76-.35,.4-.63,.85-1.12,1.06v-.05c-.25,.65-.31,1.51-1.03,1.81-.31,.1-.61,1.3-.47,1.34,.67,.05,1.37-.22,1.84-.54,.48-.32,.83-.66,1.15-.99l1.76-1.81c-.25,.02-.51,.04-.76,.07-.09,.03-.18,.05-.3,.04,.1-.01,.2-.03,.3-.04,.23-.09,.39-.29,.66-.37,.09,.02,.2-.07,.07-.27,.37-.11,.5-.53,.87-.64,.02-.01,.09,.01,.18,.04,.13-.17,.26-.34,.38-.52,.7-.99,1.49-1.85,2.31-2.77-.28,.17-.58,.3-.9,.37-.47,.06-.66,.8-.99,1.31-.05,.15-.3,.06-.41,.15-.14-.82,.64-1,.93-1.53,.21-.33,.58-.63,.9-1.01,.32-.37,.57-.82,.5-1.3-.06-.39,.28-.61,.6-.85,.12,.14,.06,.34,.02,.44-.34,.88-.85,1.64-1.31,2.41,.82-.6,1.14-1.49,1.8-2.37-.14,.62-.71,1-.66,1.64,.07-.01,.14-.03,.21-.05,.26-.31,.51-.66,.77-1.02-.04-.16-.08-.3-.12-.44-.22-.65-.14-1.22-.07-1.87,.07-.64,.12-1.33-.1-1.93-.02-.1-.26-.2-.45-.31,.09,.38,.09,.78,.16,1.17,.05-.17,.12-.34,.26-.52,.12,.37-.16,.73-.09,1.1-.09-.2-.14-.39-.17-.58-.07,.25-.09,.5-.14,.75-.3-.42,.29-.97-.24-1.35,.03,.1,.04,.19,.03,.3l-.04-.3h0c-.09-.29-.32-.53-.55-.73,.18,.48-.01,1,.08,1.45,.02,.07,.05,.15,.07,.23-.04-.08-.06-.15-.07-.23-.32-1.02-.4-2.18-.77-3.28l-.07-.08-.23,.22c.33,.87,.53,1.82,.46,2.7Z"/>
          </g>
        </g>
        <g class="cls-16">
          <g class="cls-16">
            <path class="cls-5" d="M209.04,129.94c-2.88,.09-5.85-.8-8.33-.24-.27,.05-.55,.11-.84,.17l.42,.09c3.14,.72,6.64,1,9.91,.81,2.03-.24,4.05-.84,6.28-.87,.25,0,.26-.32,.27-.48-.23-.19-.43-.4-.61-.61-1.78,.27-3.57,.61-5.43,.64-.61-.02-1.29,.5-1.66,.48Z"/>
            <polygon class="cls-7" points="216.2 128.86 216.16 128.82 215.89 128.86 216.2 128.86"/>
            <path class="cls-4" d="M211.8,129.49c-.6,.1-1.2,.13-1.79,.11-.39,.15-.75,.35-.98,.34-2.88,.09-5.85-.8-8.33-.24-.26,.05-.54,.11-.83,.17l.45,.1c1.09,.25,2.22,.44,3.37,.59l.19-.04c.66-.17,1.24,.11,1.86,.16,1.77-.1,3.24,.14,5.01-.04,.63-.06,1.29-.43,2.03-.42,.25-.01,.5,0,.74,.01,.97-.17,1.96-.31,3-.33,.25,0,.26-.32,.27-.48-.12-.1-.23-.21-.34-.31-.84-.01-1.67,.04-2.52,.05-.74,.1-1.48,.2-2.23,.25,.03,.03,.07,.05,.12,.08Z"/>
            <path class="cls-7" d="M211.72,129.01c-.11,0-.23,.23-.04,.4,.75-.05,1.5-.15,2.23-.25-.72,0-1.45-.02-2.19-.15Z"/>
            <path class="cls-8" d="M211.82,127.91c-1.45-.12-2.83,.29-4.02-.02-.62-.14-1.23-.39-1.75-.71-.2,0-.4,0-.59,0-4.9,.08-9.72-.34-14.51-1.49-1.27-.23-2.76-.22-4.15,.33-1.36,.54-2.3,1.36-3.33,2.03-1.29,.7-2.52,.82-3.91,1.09-1.75,.3-3.22,.88-4.75,1.48-1.53,.58-3.16,1.17-5,1.26-.98,.03-1.28,1.26-1.03,1.3,3.31,.11,6.43-.35,9.41-1.18,1.49-.42,2.95-.94,4.37-1.55,1.41-.58,2.83-1.39,4.1-2,1.94-.97,4.23-.36,6.5,.04,2.27,.43,4.49,.89,6.72,1.39,.29-.06,.58-.12,.84-.17,2.48-.56,5.45,.33,8.33,.24,.37,.02,1.05-.51,1.66-.48,1.86-.03,3.65-.36,5.43-.64-.39-.44-.7-.89-1.08-1.22-1.08,.23-2.17,.43-3.22,.31Z"/>
            <path class="cls-6" d="M211.82,127.91c1.06,.13,2.15-.08,3.22-.31-.19-.16-.39-.29-.63-.37-2.66-.59-5.61-.06-8.37-.06,.52,.32,1.13,.58,1.75,.71,1.19,.31,2.57-.1,4.02,.02Z"/>
            <path class="cls-4" d="M211.82,127.91c1.01,.12,2.05-.06,3.08-.27-.35-.06-.71-.09-1.06-.09-1.82-.01-3.65,.08-5.43-.25,1.93,.04,3.86,.03,5.79-.12-2.6-.5-5.46,0-8.14,0,.52,.32,1.13,.57,1.75,.71,1.19,.31,2.57-.1,4.02,.02Z"/>
            <path class="cls-3" d="M208.87,128.11c2.18,.19,4.39,.24,6.61-.11-.1-.11-.2-.22-.31-.32-.1-.02-.19-.03-.28-.05-1.03,.22-2.06,.39-3.08,.27-1.45-.12-2.83,.29-4.02-.02-.62-.14-1.23-.39-1.75-.71-.19,0-.37,0-.56,0-2.49,.04-4.99-.04-7.46-.3-2.2,.17-4.5-.25-6.73-.89,1.1,.18,2.12,.33,3.2,.41-1.18-.19-2.28-.44-3.52-.71-1.08-.19-2.29-.22-3.5,.1-.2,.33-.53,.65-1.09,.92-.87,.42-1.66,.8-2.33,1.43-.11,.05-.19-.18-.41-.08,.62-.26,1.05-.65,1.41-1.09-.52,.35-1.04,.71-1.55,1.06-1.01,.55-1.99,.75-3.04,.94l-.31,.14c-.51,.23-1,.54-1.5,.87,.22-.06,.45-.13,.68-.2-.31,.25-.77,.39-1.12,.48,.15-.09,.29-.19,.44-.28-.54,.14-1.05,.28-1.62,.4,.7-.15,1.36-.49,1.89-.81-1.23,.44-2.37,.86-3.66,.9l.09-.06c-1.69,.66-3.46,1.36-5.52,1.48-.98,.03-1.28,1.26-1.03,1.3,4.62,.14,8.88-.8,12.89-2.38-.52,.02-1.04,.04-1.54,.05-.21,.04-.43,.04-.64,.02,.21,0,.42-.01,.64-.02,.58-.09,1.17-.35,1.8-.45,.14,.03,.49-.1,.54-.37,.86-.15,1.71-.76,2.55-.95,.05-.02,.15,0,.28,.04,.47-.25,.92-.48,1.36-.69,1.22-.59,2.55-.59,3.96-.39,1.4,.22,2.85,.5,4.24,.77-.66-.25-1.3-.49-1.87-.8-.76-.44-2.56-.5-3.98-.43-.35,.06-.57-.18-.93-.16,.6-.4,1.39-.43,2.15-.32,.77,.11,1.53,.34,2.27,.4,1.95,.23,4.64,1.16,6.82,.9,.9-.12,1.7,.22,2.39,.54-.27,.13-.76,.07-1.01,.04-2.2-.27-4.38-.6-6.6-.85,2.25,.65,4.49,.75,6.75,1.34-1.37-.09-2.64-.58-3.95-.39,.1,.07,.2,.14,.31,.2,.86,.19,1.73,.38,2.64,.58,.29-.06,.57-.12,.83-.17,2.48-.56,5.45,.33,8.33,.24,.24,.01,.6-.2,.98-.34-.92-.02-1.84-.13-2.76-.15,.37,.09,.72,.2,1.05,.38-.87,.03-1.57-.34-2.44-.32,.47-.06,.93-.07,1.39-.06-.55-.13-1.14-.19-1.72-.29,1.14-.22,2.16,.47,3.32,.07-.24,0-.48-.01-.72-.05l.74,.04h-.01c.74,0,1.48-.15,2.14-.31-1.27,.03-2.41-.31-3.65-.32-.2,0-.41,.01-.62,.02,.21-.02,.41-.02,.62-.02,2.84-.08,5.7,.26,8.55,.26l.27-.04-.25-.3c-2.36,.04-4.75-.1-7.04-.41Z"/>
          </g>
        </g>
        <g class="cls-16">
          <g class="cls-16">
            <path class="cls-5" d="M224.95,133.79c-.79,.64-1.76,1.06-2.67,1.42-.91,.39-1.78,.72-2.47,1.37-.15,.13-.32,.26-.49,.4,.1-.01,.2-.02,.31-.03,2.32-.25,4.74-1.36,6.49-3,1.02-1.12,1.67-2.53,2.7-3.71,.12-.13-.12-.34-.24-.44-.26,0-.51-.03-.76-.08-.6,1.06-1.27,2.15-2.26,2.98-.33,.26-.4,.94-.62,1.09Z"/>
            <polygon class="cls-7" points="227.88 129.71 227.84 129.7 227.74 129.86 227.88 129.71"/>
            <path class="cls-4" d="M226.18,132.24c-.26,.34-.55,.63-.89,.87-.12,.28-.2,.59-.34,.69-.79,.64-1.76,1.06-2.67,1.42-.91,.39-1.78,.72-2.47,1.37-.15,.12-.31,.26-.48,.4,.11-.01,.22-.02,.33-.03,.8-.09,1.61-.29,2.41-.56l.1-.1c.32-.4,.83-.35,1.24-.55,1.04-.76,2.04-1.21,2.94-2.14,.32-.34,.44-.92,.83-1.27,.13-.13,.26-.24,.4-.35,.38-.61,.78-1.19,1.26-1.76,.12-.13-.12-.34-.24-.44-.13,0-.27-.01-.4-.03-.4,.42-.75,.86-1.17,1.27-.28,.43-.61,.83-.96,1.21,.03,0,.07,0,.11,0Z"/>
            <path class="cls-7" d="M225.82,131.92c-.06,.04,.03,.27,.24,.32,.35-.38,.68-.78,.96-1.21-.34,.35-.74,.65-1.2,.89Z"/>
            <path class="cls-8" d="M225.14,131.05c-.78,.49-1.23,1.38-2.04,1.55-.4,.12-.86,.11-1.3,.01-.1,.07-.2,.14-.31,.19-2.52,1.65-5.71,2.5-8.65,1.9-1.47-.22-2.98,.04-4.7,.02-.99-.13-1.68-.67-2.6-1.1-2.31-1.14-4.88-.19-7.27,.59-.66,.22-.48,1.47-.33,1.45,1.8-.61,3.78-.47,5.69-.08,1.92,.37,3.86,.96,5.98,1.18,3.27,.43,6.45,.55,9.7,.2,.17-.14,.34-.28,.49-.4,.69-.65,1.55-.98,2.47-1.37,.92-.37,1.89-.78,2.67-1.42,.22-.15,.29-.83,.62-1.09,.98-.83,1.65-1.92,2.26-2.98-.52-.09-.99-.24-1.4-.28-.31,.63-.69,1.26-1.28,1.61Z"/>
            <path class="cls-6" d="M225.14,131.05c.6-.35,.97-.98,1.28-1.61-.2-.02-.39-.02-.55,.02-.79,.38-1.45,.9-2.07,1.5-.65,.56-1.27,1.21-2,1.66,.44,.1,.9,.11,1.3-.01,.82-.17,1.26-1.06,2.04-1.55Z"/>
            <path class="cls-4" d="M225.14,131.05c.57-.34,.94-.92,1.24-1.53-.2,.12-.38,.25-.54,.41-.83,.77-1.67,1.59-2.77,1.97,.99-.67,1.91-1.45,2.66-2.38-1.48,.75-2.5,2.18-3.92,3.1,.44,.1,.9,.11,1.29-.01,.82-.17,1.26-1.06,2.04-1.55Z"/>
            <path class="cls-3" d="M223.78,132.39c1.24-.68,2.4-1.62,3.12-2.89-.13-.03-.25-.05-.37-.07-.06,.03-.11,.06-.16,.09-.3,.61-.67,1.19-1.24,1.53-.78,.49-1.23,1.38-2.04,1.55-.4,.12-.86,.11-1.29,.01l-.29,.18c-1.3,.84-2.74,1.48-4.26,1.82-1.24,.68-2.81,.72-4.19,.36,.33,.01,.66,.02,.99,.02,.33-.03,.66-.05,.99-.1-.74,0-1.46-.05-2.18-.19-.63-.09-1.25-.09-1.9-.08-.18,.27-.42,.48-.8,.49-.58,.01-1.13-.14-1.77,0-.08-.02-.01-.25-.17-.3,.44,.13,.84,.05,1.2-.13-.41,.02-.83,.03-1.26,.03-.78-.1-1.37-.46-2.04-.81-.08,0-.16-.02-.24-.03-.39-.05-.81,0-1.23,.07,.16,.04,.31,.09,.48,.13-.29,.09-.6,0-.85-.06,.12-.02,.25-.04,.37-.07-.38-.1-.74-.19-1.15-.29,.49,.12,1.03,.09,1.47,.05-.92-.17-1.78-.21-2.69-.53l.08-.03c-1.37,.15-2.73,.62-4.07,1.06-.67,.22-.48,1.47-.33,1.45,1.25-.43,2.61-.48,3.95-.34,1.34,.14,2.68,.46,4.05,.78-.27-.24-.54-.47-.82-.7-.13-.07-.25-.15-.35-.27,.11,.09,.23,.18,.35,.27,.35,.19,.76,.26,1.13,.49,.06,.1,.29,.17,.44-.03,.51,.31,1.21,.28,1.72,.59,.03,0,.07,.09,.12,.18,.36,.06,.72,.1,1.09,.14,2.04,.24,4.06,.44,6.07,.4-.49-.09-.97-.25-1.39-.45-.57-.32-1.75-.04-2.78-.09-.26,.03-.38-.23-.62-.29,.95-.52,2,.06,3.01-.04,.66-.04,1.45,.04,2.27,.02,.81-.04,1.65-.18,2.28-.59,.51-.35,1.11-.26,1.66-.19-.12,.2-.44,.29-.6,.34-1.47,.39-2.96,.6-4.47,.76,1.61,.22,3.1-.23,4.75-.35-.91,.33-1.88,.2-2.69,.69,.08,.05,.17,.09,.26,.12,.63-.05,1.28-.08,1.92-.16,.17-.14,.33-.27,.48-.4,.69-.65,1.55-.98,2.47-1.37,.92-.37,1.89-.78,2.67-1.42,.14-.09,.22-.41,.34-.69-.52,.38-1.09,.66-1.63,1,.25-.08,.52-.12,.81-.11-.48,.38-1.08,.35-1.58,.68,.24-.23,.51-.4,.78-.57-.38,.11-.76,.26-1.14,.4,.53-.6,1.49-.41,1.91-1.21-.13,.1-.28,.18-.43,.25,.14-.09,.29-.16,.43-.26h0c.39-.31,.71-.71,.95-1.13-.64,.57-1.46,.75-2.14,1.21-.11,.09-.22,.17-.33,.25,.11-.09,.22-.17,.33-.25,1.49-1.13,3.17-2.07,4.5-3.5l.09-.16-.34-.07c-1.04,1.17-2.34,2.12-3.71,2.75Z"/>
          </g>
        </g>
        <g class="cls-16">
          <g class="cls-16">
            <path class="cls-5" d="M117.06,127.32c-1.3-.62-2.23-2.05-3.67-2-.15,0-.31,0-.46,.01l.15,.15c1.13,1.18,2.57,2.19,4.07,2.85,.99,.31,2.15,.35,3.07,1,.1,.07,.27-.19,.36-.32,0-.23,.03-.47,.07-.7-.87-.31-1.79-.53-2.61-.99-.25-.18-.81,.1-.96,0Z"/>
            <polygon class="cls-7" points="120.65 128.36 120.65 128.31 120.52 128.26 120.65 128.36"/>
            <path class="cls-4" d="M118.48,127.64c-.31-.07-.58-.21-.82-.37-.24,.03-.5,.12-.6,.05-1.3-.62-2.23-2.05-3.67-2-.15,0-.31,0-.46,.01l.16,.16c.38,.4,.83,.8,1.28,1.16h.1c.38-.01,.51,.36,.76,.54,.84,.3,1.37,.86,2.21,1.17,.3,.11,.77-.04,1.07,.18,.11,.06,.21,.13,.3,.21,.49,.13,.97,.3,1.4,.6,.1,.07,.27-.19,.36-.32,0-.12,.01-.24,.03-.37-.33-.27-.7-.47-1.06-.7-.36-.12-.72-.25-1.07-.4,0,.03,0,.06,.01,.1Z"/>
            <path class="cls-7" d="M118.69,127.21s-.22,.13-.22,.33c.35,.16,.71,.28,1.07,.4-.3-.2-.6-.42-.85-.74Z"/>
            <path class="cls-8" d="M119.29,126.29c-.57-.49-1.39-.49-1.77-1.05-.21-.27-.36-.63-.45-1.04-.09-.05-.18-.09-.27-.14-1.17-.51-2.2-1.08-3.5-1.7-.64-.29-1.37-.58-2.16-.72-.78-.15-1.57-.19-2.33-.15-1.55,.17-2.56,1.21-3.54,2.12-.65,.44-1.36,.43-2.09,.57-.94,.15-1.54,.65-2.15,1.2-.61,.55-1.27,1.19-2.18,1.42-.47,.11-.65,1.35-.52,1.37,1.91-.16,3.47-.78,4.92-1.45,1.45-.68,2.73-1.46,4.01-2.18,1-.56,2.09-.86,3.09-.73,1,.12,1.8,.71,2.57,1.5,.16-.01,.31-.02,.46-.01,1.44-.05,2.37,1.37,3.67,2,.15,.11,.71-.18,.96,0,.82,.46,1.74,.68,2.61,.99,.07-.49,.18-.97,.19-1.36-.57-.12-1.14-.26-1.53-.66Z"/>
            <path class="cls-6" d="M119.29,126.29c.39,.4,.96,.53,1.53,.66,0-.19-.01-.36-.07-.5-.82-1.29-2.4-1.62-3.67-2.24,.08,.4,.24,.76,.45,1.04,.38,.56,1.2,.55,1.77,1.05Z"/>
            <path class="cls-4" d="M119.29,126.29c.38,.38,.91,.52,1.45,.64-.12-.15-.25-.28-.4-.39-.76-.54-1.62-.94-2.25-1.67,.85,.51,1.7,1.03,2.59,1.46-.84-1.19-2.37-1.51-3.61-2.12,.08,.4,.24,.76,.45,1.03,.38,.56,1.2,.55,1.77,1.05Z"/>
            <path class="cls-3" d="M117.9,125.69c.88,.71,1.8,1.36,2.9,1.72,.02-.13,.03-.25,.04-.36-.03-.04-.06-.08-.09-.12-.55-.12-1.08-.26-1.45-.64-.57-.49-1.39-.49-1.77-1.05-.21-.27-.36-.63-.45-1.03-.09-.04-.17-.09-.25-.13-1.2-.52-2.24-1.1-3.58-1.73-1.3-.2-2.74-.57-4.16-.63,.65-.08,1.33-.11,2.03-.07-.76-.15-1.53-.18-2.28-.15-.65,.06-1.22,.3-1.72,.61-.02,.31-.09,.61-.35,.79-.39,.29-.82,.45-1.11,.9-.06,.02-.15-.19-.27-.14,.33-.14,.53-.41,.66-.74-.25,.23-.51,.47-.76,.7-.51,.34-1.06,.41-1.62,.49l-.14,.11c-.23,.17-.43,.42-.61,.69,.11-.05,.22-.09,.33-.14-.1,.21-.33,.31-.49,.38,.05-.08,.11-.16,.16-.24-.26,.1-.51,.2-.78,.31,.33-.12,.6-.4,.81-.66-.57,.33-1.07,.69-1.72,.71l.03-.06c-.67,.59-1.37,1.35-2.39,1.61-.47,.11-.66,1.35-.51,1.37,2.66-.25,4.67-1.31,6.57-2.3-.3-.03-.6-.06-.89-.09-.11,.02-.23,.01-.36-.02,.12,0,.24,.02,.36,.02,.31-.04,.58-.22,.92-.25,.09,.04,.26-.03,.21-.27,.46-.03,.81-.44,1.27-.44,.02,0,.09,.04,.17,.09,.22-.12,.44-.25,.67-.38,1.24-.71,2.66-.97,3.8-.54-.24-.18-.49-.38-.81-.63-.4-.38-1.27,.03-1.91,.32-.16,.11-.33-.1-.51-.05,.42-.84,1.42-.59,2.14-.69,.51-.05,1.12,.14,1.66,.39,.55,.25,1.07,.53,1.66,.59,.49,.04,.72,.49,.9,.9-.19,.06-.39-.08-.49-.15-.9-.63-1.85-1.23-2.92-1.3,1.01,.46,1.96,.83,2.76,1.77-.58-.32-.98-.96-1.65-.85,.02,.07,.05,.14,.07,.2,.33,.23,.63,.51,.94,.83,.15-.01,.31-.02,.46-.01,1.44-.05,2.37,1.37,3.67,2,.1,.07,.36-.02,.6-.05-.39-.26-.74-.57-1.14-.81,.12,.16,.22,.35,.28,.58-.4-.18-.53-.66-.93-.85,.24,.06,.45,.15,.66,.27-.18-.24-.42-.43-.64-.64,.63,.06,.74,.9,1.45,.83-.11-.06-.21-.13-.3-.22l.31,.21h0c.33,.18,.72,.24,1.09,.28-.56-.31-.9-.89-1.45-1.19-.09-.04-.19-.08-.29-.12,.1,.03,.2,.08,.29,.12,1.32,.61,2.38,1.66,3.54,2.53l.13,.05,.05-.33c-.99-.68-1.94-1.46-2.81-2.29Z"/>
          </g>
        </g>
        <g class="cls-16">
          <g class="cls-16">
            <path class="cls-5" d="M54.74,129.33c-1.24-.24-2.43-.8-3.54-1.35-1.12-.54-2.16-1.07-3.29-1.28-.24-.05-.49-.11-.75-.17l.29,.24c2.19,1.87,5.18,3.19,8.11,3.6,1.85,.14,3.7-.21,5.66-.15,.22,0,.24-.31,.25-.46-.2-.2-.36-.42-.51-.64-1.53,.18-3.11,.32-4.7,.04-.51-.12-1.2,.27-1.52,.16Z"/>
            <polygon class="cls-7" points="61.02 129.17 60.99 129.12 60.76 129.15 61.02 129.17"/>
            <path class="cls-4" d="M57.2,129.37c-.53,.03-1.04-.07-1.55-.18-.36,.08-.71,.2-.91,.14-1.24-.24-2.43-.8-3.54-1.35-1.12-.54-2.16-1.07-3.29-1.28-.23-.05-.48-.11-.75-.17l.31,.26c.76,.65,1.62,1.21,2.53,1.72l.17,.03c.62,.03,1,.49,1.53,.7,1.54,.39,2.77,.96,4.36,1.09,.57,.06,1.21-.23,1.86-.11,.23,.01,.44,.05,.65,.09,.88-.06,1.76-.12,2.68-.1,.22,0,.24-.31,.25-.46-.1-.11-.2-.22-.29-.33-.72-.04-1.44-.06-2.17-.12-.64,.02-1.29,.04-1.94-.03,.02,.03,.05,.06,.09,.09Z"/>
            <path class="cls-7" d="M57.2,128.89c-.09-.02-.23,.19-.1,.39,.65,.07,1.3,.05,1.94,.03-.61-.08-1.23-.17-1.84-.42Z"/>
            <path class="cls-8" d="M57.46,127.82c-1.15-.3-2.36-.16-3.23-.72-.46-.27-.86-.65-1.16-1.09-.15-.05-.31-.09-.45-.15-1.87-.6-3.7-1.44-5.3-2.6-1.59-1.14-3.06-2.56-4.01-4.15-.51-.77-1.02-1.45-1.49-2.19-.47-.74-.9-1.58-1.16-2.54-.17-1.17,.28-2.11,.76-3.08,.64-1.2,1.03-2.29,1.61-3.49,.57-1.18,1.37-2.43,2.67-3.31,.69-.45,.37-1.65,.16-1.59-2.62,1.35-4.7,3.36-5.95,5.87-1.23,2.51-1.49,5.54-.46,8.22,.78,2.09,2.07,3.79,3.41,5.3,1.36,1.5,2.77,2.91,4.32,4.23,.26,.06,.52,.11,.75,.17,1.12,.21,2.16,.74,3.29,1.28,1.11,.55,2.3,1.11,3.54,1.35,.31,.1,1-.29,1.52-.16,1.59,.28,3.17,.14,4.7-.04-.31-.46-.55-.92-.84-1.28-.89,.15-1.82,.25-2.66-.03Z"/>
            <path class="cls-6" d="M57.46,127.82c.84,.28,1.77,.18,2.66,.03-.14-.17-.3-.32-.48-.42-2.06-.8-4.43-.75-6.58-1.43,.3,.44,.7,.82,1.16,1.09,.87,.56,2.08,.42,3.23,.72Z"/>
            <path class="cls-4" d="M57.46,127.82c.8,.27,1.68,.19,2.54,.05-.28-.08-.57-.14-.86-.17-1.46-.18-2.97-.37-4.29-1.05,1.5,.42,3.05,.7,4.61,.71-2.01-.72-4.31-.68-6.39-1.35,.3,.44,.7,.82,1.16,1.08,.87,.56,2.08,.42,3.23,.72Z"/>
            <path class="cls-3" d="M55.03,127.52c1.71,.61,3.56,.97,5.42,.75-.08-.12-.15-.23-.23-.34-.08-.02-.15-.05-.22-.07-.85,.14-1.73,.21-2.54-.05-1.15-.3-2.36-.16-3.23-.72-.46-.27-.86-.64-1.16-1.08l-.43-.14c-1.91-.61-3.77-1.48-5.4-2.67-1.64-.71-3.1-2.14-3.96-3.71,.5,.66,1.1,1.28,1.77,1.83-.67-.68-1.26-1.42-1.73-2.19-.42-.61-.82-1.18-1.28-1.85-.32-.02-.66-.15-.88-.53-.34-.61-.45-1.27-.81-1.95,0-.1,.23-.11,.22-.3,.01,.54,.26,.96,.59,1.26-.2-.43-.38-.88-.51-1.36-.14-.91,.12-1.7,.46-2.46l.03-.26c.05-.43,.04-.89,.06-1.38-.08,.17-.14,.34-.21,.53-.05-.33,.1-.69,.23-.95-.01,.14-.02,.28-.02,.42,.17-.41,.37-.78,.62-1.18-.3,.49-.41,1.08-.44,1.57,.3-.96,.67-1.88,1.45-2.56v.08c.58-1.29,1.38-2.74,2.83-3.71,.69-.45,.37-1.66,.15-1.59-1.84,.95-3.38,2.22-4.59,3.75-1.21,1.52-2.05,3.37-2.32,5.32,.23-.41,.48-.81,.75-1.18,.08-.17,.2-.33,.33-.46-.11,.15-.23,.3-.33,.46-.24,.46-.32,1.03-.52,1.56-.09,.09-.15,.43,.08,.58-.24,.75,0,1.66-.08,2.43,0,.05-.05,.13-.12,.24,.11,.48,.24,.96,.43,1.42,1,2.62,2.73,4.6,4.45,6.4-.35-.51-.65-1.03-.86-1.57-.24-.75-1.47-1.67-2.21-2.77-.22-.26-.1-.55-.22-.84,1.06,.7,1.46,2.07,2.4,2.97,1.14,1.19,2.61,3.19,4.42,3.8,.73,.24,1.19,.83,1.61,1.35-.27,.03-.63-.2-.81-.32-1.6-1.05-3.07-2.26-4.5-3.53,1.22,1.62,2.87,2.67,4.41,4.04-1.06-.58-1.79-1.54-2.88-1.94,.04,.1,.08,.2,.13,.3,.58,.55,1.17,1.08,1.78,1.61,.26,.06,.51,.11,.75,.17,1.12,.21,2.16,.74,3.29,1.28,1.11,.55,2.3,1.11,3.54,1.35,.2,.06,.55-.06,.91-.14-.78-.19-1.52-.49-2.29-.73,.28,.17,.55,.36,.78,.61-.75-.18-1.24-.68-1.95-.9,.41,.06,.79,.19,1.18,.3-.43-.24-.88-.47-1.33-.7,.99,.08,1.65,1,2.73,.84-.2-.05-.4-.1-.59-.19,.2,.07,.4,.13,.61,.19h-.01c.62,.16,1.27,.13,1.85,.09-1.07-.19-1.94-.72-2.94-1.03-.17-.04-.34-.08-.51-.12,.17,.04,.34,.07,.51,.12,2.32,.58,4.64,1.33,7.09,1.49l.23-.03-.2-.31c-1.99-.08-3.99-.54-5.76-1.29Z"/>
          </g>
        </g>
        <g class="cls-16">
          <g class="cls-16">
            <path class="cls-5" d="M35.18,112.96c-.24,.8-.64,1.58-.89,2.38-.27,.79-.34,1.62,0,2.33,.06,.16,.15,.31,.24,.47l.06-.23c.49-1.75,1.08-3.5,1.61-5.25,.22-1.11,.3-2.44,1.11-3.48,.09-.11-.16-.31-.29-.41-.24,0-.48-.03-.72-.06-.47,1.03-.76,2.12-1.19,3.15-.19,.33,.17,.91,.07,1.1Z"/>
            <polygon class="cls-7" points="36.35 108.7 36.31 108.69 36.24 108.84 36.35 108.7"/>
            <path class="cls-4" d="M35.43,111.27c-.06,.37-.21,.7-.35,1.02,.05,.27,.17,.54,.11,.67-.24,.8-.64,1.58-.89,2.38-.27,.79-.34,1.62,0,2.33,.06,.16,.15,.31,.23,.46,.02-.08,.04-.16,.06-.25,.19-.66,.37-1.26,.54-1.82l-.03-.11c-.13-.39,.18-.66,.29-.98,.07-.99,.58-1.69,.81-2.66,.1-.34-.08-.85,.15-1.21,.06-.13,.14-.25,.22-.36,.16-.55,.37-1.11,.75-1.59,.09-.11-.16-.31-.29-.41-.12,0-.25-.01-.38-.02-.34,.39-.6,.83-.87,1.28-.16,.46-.32,.89-.46,1.3,.03,0,.07-.01,.1-.03Z"/>
            <path class="cls-7" d="M34.98,111.11c-.03,.06,.14,.23,.35,.2,.14-.4,.3-.84,.46-1.3-.24,.37-.48,.75-.81,1.1Z"/>
            <path class="cls-8" d="M34.01,110.56c-.54,.82-.51,1.81-1.01,2.47-.26,.35-.59,.68-.98,.97-.03,.14-.06,.27-.09,.4-.51,3.36-.28,6.88,1.14,10.15,.79,1.61,2.27,2.48,3.67,3.32,.76,.59,1.1,1.36,1.68,2.12,1.35,1.87,3.89,2.38,6.28,2.64,.66,.06,.96-1.19,.83-1.22-1.65-.06-3.18-1.17-4.59-2.34-1.45-1.2-2.83-2.38-4.18-3.63-1.04-.98-1.81-2.16-2.18-3.44-.38-1.28-.37-2.62-.06-3.87-.08-.15-.17-.31-.24-.47-.34-.71-.27-1.54,0-2.33,.24-.8,.65-1.58,.89-2.38,.1-.19-.26-.77-.07-1.1,.43-1.03,.72-2.12,1.19-3.15-.51-.06-1.01-.16-1.43-.13-.22,.72-.41,1.42-.85,1.98Z"/>
            <path class="cls-6" d="M34.01,110.56c.44-.56,.63-1.26,.85-1.98-.2,.02-.39,.06-.55,.15-1.55,1.22-1.93,3.41-2.3,5.27,.39-.28,.72-.62,.98-.97,.5-.66,.47-1.65,1.01-2.47Z"/>
            <path class="cls-4" d="M34.01,110.56c.42-.54,.61-1.2,.82-1.88-.18,.17-.33,.35-.47,.55-.67,1.03-1.11,2.18-1.81,3.23,.46-1.25,1.03-2.44,1.63-3.62-1.44,1.25-1.8,3.36-2.16,5.16,.39-.28,.72-.62,.98-.97,.5-.66,.47-1.65,1.01-2.47Z"/>
            <path class="cls-3" d="M33.43,112.43c.66-1.29,1.37-2.5,1.94-3.86-.13-.01-.26-.02-.39-.02-.05,.04-.1,.08-.15,.13-.21,.68-.4,1.35-.82,1.88-.54,.82-.51,1.81-1.01,2.47-.26,.35-.59,.68-.98,.97-.03,.13-.06,.25-.09,.38-.26,1.72-.33,3.47-.15,5.21,.53,1.47,.86,3.03,1.38,4.6-.34-.68-.65-1.38-.93-2.1,.22,.82,.49,1.64,.83,2.43,.32,.67,.79,1.23,1.31,1.71,.32-.07,.65-.05,.95,.18,.46,.36,.82,.79,1.43,.99,.05,.06-.12,.22-.02,.34-.3-.33-.66-.48-1.07-.54,.36,.22,.72,.44,1.06,.65,.6,.47,.93,1.04,1.33,1.64l.19,.12c.31,.21,.68,.34,1.06,.45-.11-.1-.22-.21-.34-.31,.28,.04,.5,.25,.67,.41-.11-.03-.23-.06-.34-.1,.27,.24,.52,.48,.81,.73-.35-.31-.79-.51-1.19-.66,.68,.52,1.35,.93,1.93,1.62h-.08c1.19,.48,2.56,.73,3.89,.87,.67,.06,.96-1.18,.83-1.22-1.14-.04-2.26-.61-3.28-1.33-1.01-.73-2.02-1.61-3-2.44,.11,.32,.23,.64,.36,.95,.07,.11,.14,.24,.17,.39-.05-.13-.11-.26-.17-.39-.2-.31-.52-.54-.71-.89,0-.11-.16-.27-.38-.15-.26-.48-.84-.76-1.06-1.26-.02-.02,0-.11,.01-.21-.23-.21-.46-.43-.71-.65-1.29-1.23-2.17-2.77-2.38-4.41-.07,.43-.07,.83-.16,1.26-.08,.3,.09,.66,.32,1.05,.25,.37,.59,.75,.88,1.09,.17,.15,.06,.4,.18,.59-1.02-.26-1.22-1.44-1.63-2.25-.29-.56-.39-1.32-.47-2.06-.07-.75-.12-1.49-.37-2.15-.21-.55,.08-1.08,.39-1.49,.14,.17,.09,.46,.07,.61-.15,1.32-.09,2.71,.38,3.98-.1-1.41-.37-2.73,.11-4.07-.01,.77-.36,1.59,.1,2.28,.05-.07,.09-.14,.13-.21,.04-.51,.09-1.02,.23-1.51-.08-.15-.17-.31-.23-.46-.34-.71-.27-1.54,0-2.33,.24-.8,.65-1.58,.89-2.38,.06-.12-.06-.39-.11-.67-.23,.5-.51,.98-.68,1.52,.14-.19,.32-.36,.54-.48-.13,.5-.58,.8-.67,1.32,0-.29,.04-.57,.13-.83-.21,.28-.34,.62-.5,.95-.09-.75,.74-1.16,.58-1.94-.05,.14-.1,.28-.18,.41,.06-.14,.11-.28,.18-.42h0c.16-.41,.17-.89,.22-1.33-.32,.72-.87,1.28-1.1,2.05-.03,.13-.06,.26-.07,.39,0-.14,.04-.26,.07-.39,.42-1.79,1.55-3.3,2.65-4.68l.07-.16-.34-.04c-.89,1.2-1.75,2.47-2.54,3.78Z"/>
          </g>
        </g>
        <g class="cls-16">
          <g class="cls-16">
            <path class="cls-5" d="M134.87,132.76c-.77-.17-1.33-1.16-2.21-.64-.09,.05-.19,.1-.29,.16l.09,.09c.69,.69,1.52,1.13,2.4,1.28,.59-.02,1.31-.32,1.84,.01,.06,.04,.19-.25,.26-.39,.02-.21,.06-.43,.1-.65-.54-.04-1.11,.02-1.6-.15-.15-.09-.51,.34-.6,.29Z"/>
            <polygon class="cls-7" points="137.07 132.67 137.08 132.62 137 132.62 137.07 132.67"/>
            <path class="cls-4" d="M135.74,132.63c-.19,.02-.35-.02-.5-.1-.15,.1-.32,.26-.38,.23-.77-.17-1.33-1.16-2.21-.64-.09,.05-.19,.1-.28,.16l.1,.1c.24,.24,.5,.45,.77,.62l.06-.03c.23-.14,.3,.16,.45,.24,.5,0,.8,.35,1.3,.37,.18,.01,.48-.26,.66-.16,.07,.02,.12,.06,.18,.1,.3-.03,.59,0,.83,.14,.06,.04,.19-.25,.26-.39,.02-.11,.03-.22,.05-.34-.19-.15-.41-.23-.63-.34-.22,0-.45-.01-.66-.06,0,.03,0,.06,0,.09Z"/>
            <path class="cls-7" d="M135.9,132.18s-.14,.18-.16,.37c.21,.04,.43,.05,.66,.06-.18-.1-.35-.21-.5-.42Z"/>
            <path class="cls-8" d="M136.33,131.17c-.34-.29-.87-.04-1.1-.44-.13-.19-.22-.46-.27-.81-.06-.02-.12-.03-.17-.05-1.47-.24-2.87-.54-4.17-1.24-.68-.28-1.45,.1-2.23,.31-.44,.01-.71-.42-1.09-.71-.95-.81-2.07,.38-3.16,.69-.3,.08-.46,1.33-.39,1.35,1.78-.34,3.31,.48,5.07,.49,1.36,.04,2.57,.55,3.56,1.52,.1-.06,.19-.12,.29-.16,.88-.52,1.44,.47,2.21,.64,.09,.05,.45-.37,.6-.29,.49,.18,1.06,.11,1.6,.15,.09-.46,.19-.93,.22-1.29-.37,.04-.72,.08-.96-.17Z"/>
            <path class="cls-6" d="M136.33,131.17c.24,.25,.59,.21,.96,.17,.02-.18,.01-.33-.02-.43-.47-.96-1.5-.8-2.31-.98,.05,.34,.14,.62,.27,.81,.23,.4,.75,.14,1.1,.44Z"/>
            <path class="cls-4" d="M136.33,131.17c.22,.24,.56,.21,.91,.18-.07-.1-.15-.19-.24-.24-.47-.27-1-.4-1.39-.88,.54,.22,1.06,.44,1.63,.59-.49-.85-1.49-.71-2.27-.89,.05,.34,.14,.62,.27,.8,.23,.4,.75,.14,1.1,.44Z"/>
            <path class="cls-3" d="M135.46,131.03c.54,.38,1.09,.71,1.78,.73,.02-.12,.03-.24,.05-.34-.02-.03-.04-.06-.05-.09-.35,.04-.68,.06-.91-.18-.34-.29-.87-.04-1.1-.44-.13-.18-.22-.46-.27-.8-.06-.02-.11-.03-.16-.04-.75-.12-1.48-.26-2.19-.46-.73,.2-1.36-.09-1.95-.52,.3,.09,.62,.15,.94,.18-.33-.13-.65-.28-.97-.45-.29-.12-.59-.12-.91-.06-.12,.27-.27,.49-.45,.53-.27,.06-.51-.02-.82,.2-.03-.01,.02-.24-.05-.27,.19,.07,.38-.05,.57-.27-.2,.06-.4,.12-.59,.18-.35,0-.59-.25-.86-.51-.04,0-.07,0-.1,0-.17,0-.36,.11-.56,.23,.07,.02,.13,.04,.2,.07-.13,.12-.27,.08-.37,.04l.17-.11c-.16-.05-.31-.1-.48-.15,.21,.06,.44-.02,.64-.12-.39-.05-.77,0-1.12-.27l.04-.04c-.59,.22-1.2,.67-1.81,.84-.3,.08-.46,1.33-.39,1.35,1.24-.24,2.37,.09,3.53,.32-.1-.2-.2-.38-.31-.56-.05-.05-.1-.12-.13-.22,.04,.07,.09,.14,.13,.22,.14,.14,.32,.14,.46,.31,.02,.09,.11,.12,.2-.1,.2,.23,.51,.1,.7,.34,.01,0,.02,.08,.03,.16,.15,.01,.3,.02,.45,.02,.85,.03,1.64,.24,2.36,.63-.14-.19-.28-.41-.39-.66-.14-.4-.7-.21-1.13-.22-.12,.04-.12-.22-.22-.26,.51-.56,.87,.02,1.3,.03,.57,.07,1.16,.85,1.87,.59,.3-.12,.45,.21,.56,.53-.11,.12-.24,.06-.3,.02-.56-.28-1.14-.55-1.76-.65,.54,.49,1.18,.54,1.67,1.13-.37-.09-.61-.56-1.05-.33,.01,.07,.03,.12,.04,.18,.21,.15,.42,.33,.61,.52,.1-.06,.19-.11,.28-.16,.88-.52,1.44,.47,2.21,.64,.06,.03,.22-.13,.38-.23-.23-.11-.44-.3-.68-.39,.07,.11,.13,.25,.15,.44-.24-.05-.31-.43-.55-.48,.15-.02,.28,0,.4,.04-.11-.16-.25-.26-.38-.38,.39-.14,.44,.58,.88,.31-.06-.02-.13-.05-.18-.11l.18,.1h0c.2,.07,.45,0,.68-.07-.34-.12-.53-.54-.87-.65-.06,0-.11-.01-.18-.02,.06,0,.12,0,.18,.02,.82,.15,1.45,.8,2.13,1.27h.08s.06-.31,.06-.31c-.59-.35-1.15-.78-1.68-1.28Z"/>
          </g>
        </g>
        <g class="cls-16">
          <g class="cls-16">
            <path class="cls-5" d="M134.3,138.89c-1.79-.02-3.38-1.14-4.94-.74-.16,.04-.34,.07-.53,.11l.23,.12c1.7,.9,3.82,1.48,5.92,1.38,1.31-.19,2.56-.8,3.95-1.02,.16-.02,.1-.33,.08-.49-.18-.17-.34-.36-.48-.55-.99,.39-2.06,.75-3.18,.74-.36-.03-.8,.47-1.03,.43Z"/>
            <polygon class="cls-7" points="138.56 137.74 138.53 137.71 138.38 137.77 138.56 137.74"/>
            <path class="cls-4" d="M135.99,138.51c-.36,.1-.73,.11-1.08,.08-.24,.13-.47,.33-.61,.31-1.79-.02-3.38-1.14-4.94-.74-.16,.04-.34,.07-.53,.11,.08,.04,.16,.08,.24,.13,.6,.31,1.23,.58,1.9,.8l.12-.02c.42-.13,.73,.19,1.11,.28,1.09,.01,1.99,.33,3.13,.19,.4-.04,.82-.42,1.28-.41,.16-.02,.32-.02,.47,0,.61-.2,1.21-.37,1.86-.49,.16-.02,.1-.33,.07-.49-.09-.09-.18-.18-.27-.28-.5,.05-.99,.15-1.5,.18-.43,.13-.87,.22-1.33,.27,.02,.03,.04,.05,.07,.08Z"/>
            <path class="cls-7" d="M135.94,138.03c-.06,0-.14,.23-.02,.4,.45-.05,.9-.14,1.33-.27-.43,.03-.87,0-1.31-.13Z"/>
            <path class="cls-8" d="M135.98,136.93c-.79-.12-1.59,.24-2.23-.13-.33-.17-.64-.45-.89-.79-.11-.01-.22-.03-.33-.04-2.72-.22-5.56-.95-8.09-2.15-1.3-.54-2.7-.46-4.18-.64-.84-.22-1.34-.82-2.03-1.34-1.66-1.38-3.84-.9-5.96-1.5-.57-.16-1.21,.93-1.09,1,3.49,1.19,6.43,3.09,10,4,2.75,.73,5.22,1.66,7.63,2.93,.19-.04,.37-.08,.53-.11,1.56-.4,3.16,.72,4.94,.74,.23,.03,.66-.46,1.03-.43,1.12,0,2.19-.35,3.18-.74-.3-.4-.55-.84-.8-1.14-.54,.28-1.14,.5-1.73,.36Z"/>
            <path class="cls-6" d="M135.98,136.93c.59,.14,1.19-.08,1.73-.36-.12-.15-.24-.27-.38-.34-1.41-.51-2.91-.08-4.48-.22,.24,.35,.55,.63,.89,.79,.64,.36,1.44,0,2.23,.13Z"/>
            <path class="cls-4" d="M135.98,136.93c.56,.13,1.13-.07,1.65-.32-.19-.03-.39-.06-.58-.05-.96,.03-1.98,.08-2.92-.32,1.04,.12,2.09,.14,3.07-.06-1.36-.43-2.84-.02-4.35-.17,.24,.34,.55,.63,.89,.79,.64,.36,1.44,0,2.23,.13Z"/>
            <path class="cls-3" d="M134.33,137.06c1.21,.27,2.5,.34,3.67-.12-.08-.11-.15-.21-.21-.3-.06-.01-.11-.02-.16-.03-.52,.25-1.09,.45-1.65,.32-.79-.12-1.59,.24-2.23-.13-.33-.17-.64-.45-.89-.79-.1-.01-.21-.03-.31-.04-1.39-.1-2.81-.36-4.2-.73-1.31,.05-2.61-.44-3.78-1.11,.58,.2,1.18,.37,1.8,.5-.65-.23-1.28-.5-1.9-.8-.55-.22-1.12-.35-1.7-.42-.21,.24-.47,.41-.8,.37-.52-.05-.97-.27-1.55-.19-.06-.03,.03-.24-.1-.31,.36,.17,.72,.13,1.07,0-.36-.03-.73-.05-1.1-.1-.66-.17-1.11-.58-1.61-1-.07-.02-.13-.03-.2-.05-.32-.09-.68-.1-1.05-.1,.12,.06,.25,.13,.38,.19-.26,.04-.51-.08-.7-.18,.11,0,.22,0,.33,0-.29-.15-.57-.3-.88-.46,.38,.2,.82,.26,1.21,.28-.73-.28-1.43-.48-2.03-.99h.07c-1.11-.18-2.32-.19-3.5-.51-.57-.16-1.21,.93-1.09,1,2.45,.84,4.6,2,6.91,2.95-.2-.27-.4-.53-.59-.79-.1-.09-.18-.19-.25-.31,.08,.1,.17,.21,.25,.31,.27,.23,.62,.35,.9,.61,.03,.1,.23,.2,.39,.02,.39,.36,1.01,.4,1.4,.75,.03,.01,.05,.09,.07,.19,.3,.09,.6,.18,.91,.26,1.72,.45,3.33,.99,4.88,1.64-.34-.26-.67-.53-.94-.84-.36-.48-1.43-.48-2.29-.68-.23-.01-.27-.29-.47-.37,.93-.37,1.7,.38,2.56,.55,1.11,.28,2.51,1.3,3.84,1.17,.55-.06,.95,.32,1.3,.68-.18,.11-.46,.02-.6-.03-1.23-.41-2.45-.84-3.72-1.16,1.2,.71,2.49,.92,3.71,1.65-.79-.17-1.44-.73-2.25-.6,.04,.07,.09,.14,.14,.21,.48,.22,.96,.46,1.44,.71,.19-.04,.36-.08,.53-.11,1.56-.4,3.16,.72,4.94,.74,.14,.03,.38-.17,.61-.31-.56-.05-1.09-.2-1.64-.27,.21,.1,.41,.24,.59,.43-.53-.01-.91-.41-1.42-.45,.29-.03,.56-.01,.83,.02-.31-.16-.65-.25-.98-.38,.69-.15,1.22,.59,1.95,.24-.14,0-.28-.03-.42-.07l.43,.07h0c.44,.03,.88-.1,1.27-.25-.75,0-1.39-.37-2.1-.45-.12,0-.23,0-.36,0,.12,0,.24,0,.36,0,1.64,.06,3.27,.46,4.96,.29l.15-.06-.2-.27c-1.35,.18-2.74,.03-4-.37Z"/>
          </g>
        </g>
      </g>
    </g>
  </g>
</svg>