<?xml version="1.0" encoding="UTF-8"?>
<svg id="_Слой_2" data-name="Слой 2" xmlns="http://www.w3.org/2000/svg" xmlns:xlink="http://www.w3.org/1999/xlink" viewBox="0 0 321.54 224.17">
  <defs>
    <style>
      .cls-1 {
        fill: none;
      }

      .cls-2 {
        clip-path: url(#clippath);
      }

      .cls-3 {
        fill: #f3f9fb;
      }

      .cls-4 {
        fill: #f7fbfc;
      }

      .cls-5 {
        fill: #f8fcfd;
      }

      .cls-6 {
        fill: #f4fafb;
      }

      .cls-7 {
        fill: #f5fafb;
      }

      .cls-8 {
        fill: #fbfdfe;
      }

      .cls-9 {
        fill: #666361;
      }

      .cls-10 {
        fill: #42413c;
      }

      .cls-11 {
        fill: #a2dbed;
      }

      .cls-12 {
        fill: #6e7c6e;
      }

      .cls-13 {
        fill: #515151;
      }

      .cls-14 {
        opacity: .58;
      }

      .cls-15 {
        opacity: .49;
      }

      .cls-16 {
        opacity: .8;
      }
    </style>
    <clipPath id="clippath">
      <rect class="cls-1" width="321.54" height="224.17"/>
    </clipPath>
  </defs>
  <g id="_камни" data-name="камни">
    <g class="cls-2">
      <g>
        <g class="cls-15">
          <path class="cls-12" d="M113.84,116.46c-28.83-1.39-55.6-15.72-69.07-31.91-13.47-16.19-16.05-33.93-16.56-50.95-.62-20.89,2.1-42.67,21.73-58.32,12.97-10.34,35.36-17.43,58.57-13.58,19.49,3.24,34.91,13.14,48.89,22.48,8.73,5.84,17.56,11.76,23.82,18.52,5.64,6.09,9.01,12.69,11.39,19.25,8.85,24.42,4.26,49.35-12.87,69.89-6.89,8.26-16,15.97-29.03,20.85-13.04,4.88-30.48,6.61-46.56,2.85"/>
          <path class="cls-12" d="M149.94,109.52c7.59-2.88,14.65-7.12,20.55-12.68,2.19-2.06,4.68-4.02,6.02-7.02,.34-.74,1.13-1.53,2.09-2.4,.48-.44,.99-.9,1.49-1.39,.47-.51,.92-1.07,1.31-1.65,.52-.79,1.07-1.57,1.59-2.37l1.46-2.45,.74-1.22,.66-1.26,1.33-2.52c1.6-3.43,3.1-6.94,4.04-10.6,1.03-3.53,1.53-7.17,1.87-10.8l.13-2.73c.02-.45,.06-.91,.06-1.36l-.03-1.37-.04-2.73-.2-2.72c-.07-1.8-.38-3.6-.55-5.42-.09-.91-.3-1.8-.44-2.7-.17-.9-.28-1.81-.51-2.69-.82-3.55-1.91-7.05-3.44-10.19-1.34-2.7-2.47-5.27-3.77-7.72-1.29-2.45-2.76-4.8-4.68-6.88-4.05-4.39-9.16-8.28-13.96-12.23-3.5-2.88-7.08-5.72-11-8.11-2.44-1.49-4.96-2.49-7.53-4.18-2.39-1.55-4.92-3.65-7.59-3.93-.22-.03-1.22-.83-1.72-1.26-2.31-2.12-5.69-3.74-8.18-4.36-2.43-.6-4.38-1.48-6.51-2.26-2.91-1.1-5.89-1.95-8.87-2.75-1.5-.34-2.99-.74-4.51-1.01-.76-.14-1.51-.31-2.27-.44l-2.28-.34c-4.55-.66-9.14-1.25-13.8-1.12-4.87,.13-9.9,1.42-14.35,1.99-4.5,.58-8.63,2.01-12.65,3.8-.57,.26-1.18,.49-1.79,.74-.6,.27-1.2,.55-1.78,.85-1.17,.58-2.15,1.37-2.75,2.34-.11,.18-.92,.63-1.31,.8-.82,.33-1.63,.7-2.4,1.13-.75,.45-1.47,.94-2.18,1.45-.69,.54-1.34,1.14-1.98,1.74-.63,.61-1.31,1.18-1.86,1.87-1.14,1.34-2.3,2.64-3.3,4.07-.51,.71-1.09,1.36-1.58,2.08-.49,.72-1.01,1.42-1.56,2.11-.6,.69-1.04,1.49-1.55,2.24-.49,.77-1.01,1.52-1.41,2.36l-1.27,2.46-1.07,2.57c-1.31,3.48-2.35,7.1-3.01,10.81-.23,.97-.41,2.01-.57,3.01-.16,1.01-.17,2.03,.13,3,.2,.68,0,2.77-.25,3.79-1.49,5.54-.8,11.65-.68,17.51,.06,3.35,.43,6.66,.86,9.94,.46,3.27,.92,6.55,1.39,9.83,.15,1.41,.53,3.03,1.07,4.67,.31,.81,.66,1.62,1.06,2.4,.4,.78,.93,1.5,1.46,2.17,.97,1.23,1.93,4.26,3.2,6.28,.48,.85,1.15,1.56,1.74,2.31l.9,1.11c.31,.36,.61,.73,.89,1.12,.48,.65,.83,1.4,1.25,2.12,.41,.72,.8,1.46,1.25,2.18,.25,.43,.65,.9,1.02,1.22,3.48,3.18,6.86,6.43,10.54,9.49,3.66,3.05,7.57,5.95,11.9,8.15,4.38,2.17,8.88,4.16,13.47,5.92,4.63,1.68,9.34,3.15,14.12,4.29,5.29,1.2,10.72,2.2,14.35,4.35,1.64,1.01,1.63,1.96-.81,2.33-1.79,.28-3.88,.54-5.91,.33-1.63-.14-3.27-.22-4.88-.45-1.61-.22-3.24-.34-4.8-.66-6.53-1.11-13.2-2.27-19.42-5.43-1.89-1.05-4.45-1.55-5.64-3.18-.17-.22-.92-.68-1.32-.81-2.22-.7-4.31-1.74-6.4-2.8-1.03-.56-2.03-1.19-3.04-1.81-.5-.31-1.01-.62-1.5-.95l-1.45-1.04c-3.88-2.74-7.45-5.96-10.85-9.28-1.49-1.37-2.85-2.87-4.28-4.3-.69-.74-1.34-1.5-2.01-2.25-.68-.74-1.31-1.53-1.93-2.33-1.28-1.56-2.41-3.26-3.51-4.97-1.02-1.77-2.01-3.58-2.76-5.52-2.94-3.66-4.58-8.95-5.34-13.48-1.39-8-2.05-15.93-2.33-23.76-.28-7.82-.29-15.81,1.13-23.76,.73-4.02,1.66-8.04,3.09-11.93,1.39-3.9,3.1-7.73,5.33-11.27,1.02-1.83,2.33-3.46,3.52-5.18l2.01-2.4c.34-.4,.67-.8,1.02-1.19l1.1-1.11,2.2-2.21,2.36-2.03,1.18-1.01c.4-.33,.83-.63,1.25-.95,.84-.62,1.67-1.26,2.55-1.81,1.18-.78,2.2-1.63,3.35-2.38,.57-.38,1.16-.78,1.81-1.12,.66-.33,1.37-.64,2.15-.9,.73-.26,1.5-.56,2.3-.88,.8-.32,1.61-.7,2.44-1.07,1.69-.68,3.4-1.5,5.1-2.03,3.08-1.09,6.37-2.14,9.43-2.55,6.34-.79,12.68-1.25,19.06-1.17,6.36,.1,12.77,.81,18.93,2.41,6.12,1.59,12.03,3.89,17.7,6.55,5.66,2.69,11.09,5.74,16.37,8.91,3.23,1.93,6.45,3.83,9.62,5.77,3.16,1.94,6.33,3.95,9.37,6.25,2.58,1.94,5.72,3.57,7.61,6.43,.53,.8,3.39,2.21,4.98,3.71,3.98,3.67,7.4,8.13,10.06,12.88,1.87,3.3,3.37,6.77,4.62,10.26,.56,1.77,1.19,3.52,1.7,5.31l.72,2.7c.25,.9,.48,1.8,.65,2.72,.23,1.11,.48,2.22,.74,3.33,.23,1.11,.4,2.24,.61,3.36l.3,1.69,.19,1.7c.11,1.14,.24,2.28,.3,3.43,.17,4.82-.26,9.7-1.21,14.43-1.24,6-3.52,11.67-6.17,17.08-2.72,5.61-5.86,11.4-9.93,15.77-3.7,4.1-7.62,7.99-11.86,11.52-4.24,3.53-8.88,6.63-13.87,9.01-4.94,2.38-10.17,4.17-15.48,5.43-2.65,.66-5.33,1.11-8.01,1.55-2.69,.36-5.38,.71-8.09,.86-3.08,.21-6.03,.03-8.94-.33-2.91-.33-5.76-.86-8.72-1.31-1.38-.22-2.89-1.13-3.84-2.11-.95-.96-1.37-1.91-.73-2.21,.24-.12,.71-.2,1.15-.17,5.66,.39,10.78-.33,17.03-.22,9.26,.05,18.62-1.55,27.2-4.79Z"/>
        </g>
        <g class="cls-15">
          <path class="cls-12" d="M143.29,151.17c-17.16-2.57-30.65-13.71-34.8-26.27-4.15-12.56,.13-26.1,9.04-37.23s22.11-20.08,36.32-27.63c7.09-3.76,14.6-7.26,22.96-9.08,20.52-4.48,43.27,2.02,58.63,13.02,15.36,11,24.49,25.85,31.66,40.74,5.38,11.17,9.72,23.93,2.5,34.52-8.49,12.45-29.48,16.91-48.3,18.04-26.3,1.58-53.02-.82-78.05-6.99"/>
          <path class="cls-12" d="M182.84,153.53c7,.6,14.03,.99,21.05,.94,2.61,0,5.29,.39,7.99-.57,1.34-.51,3.89,.54,6.31,.35,6.53-.41,13.02-.87,19.34-2.16,3.07-.63,6.08-1.43,8.98-2.44,2.92-.97,5.72-2.16,8.39-3.48,2.66-1.28,5.21-2.76,7.41-4.53,2.18-1.77,4.03-3.88,4.96-6.23,.8-2.03,1.48-3.92,1.9-5.96,.41-2.03,.58-4.2,.15-6.44-.88-4.74-2.83-9.62-4.58-14.44-1.3-3.51-2.67-7.1-4.62-10.3-1.23-2.01-2.78-3.63-4.07-5.8-1.2-2.01-2.28-4.52-4.34-5.54-.17-.09-.61-1.05-.81-1.57-.94-2.42-2.9-4.85-4.66-6.07-.84-.62-1.55-1.26-2.24-1.9-.68-.64-1.29-1.33-1.98-1.97-3.7-3.57-7.76-6.83-11.97-9.67-3.19-2.11-6.4-4.26-9.93-5.92-.93-.41-1.87-.83-2.84-1.17-.98-.33-1.96-.67-2.93-1-1.97-.59-3.88-1.22-5.63-1.92-1.75-.77-3.54-1.22-5.33-1.66-1.8-.34-3.61-.67-5.45-.83-.52-.06-1.06-.15-1.61-.24-.55-.08-1.1-.12-1.65-.15-1.09-.03-2.15,0-3.01,.57-.16,.1-.94,.09-1.29,0-2.97-.75-5.95-.36-8.83,.26-1.43,.35-2.84,.78-4.26,1.17-1.41,.41-2.82,.86-4.28,1.2-6.03,1.45-11.83,4.45-17.55,7.55-1.53,.83-3.31,1.45-4.32,2.91-.36,.51-1.9,1.45-2.76,1.72-4.67,1.51-8.57,4.81-12.57,7.55-4.59,3.16-8.43,7.11-12.75,10.59-1.86,1.45-4.06,3.86-4.8,6.69-.37,1.26-2.1,3.23-2.94,5-.33,.73-.54,1.5-.77,2.24-.2,.76-.38,1.51-.68,2.22-.45,1.22-1.28,2.32-1.82,3.57-.18,.36-.31,.83-.33,1.23-.32,3.79-.73,7.39-.45,11.04,.08,1.83,.43,3.63,.89,5.42,.55,1.73,1.22,3.47,2.27,5.03,4.03,6.36,10.26,11.57,17.3,14.99,3.91,1.91,8.07,3.36,10.79,5.77,1.23,1.12,1.15,2.07-.96,2.25-1.55,.18-3.32,.1-5.04-.22-2.7-.67-5.44-1.35-7.97-2.42-1.34-.49-2.63-1.12-3.95-1.69-.65-.31-1.29-.65-1.93-.98-.65-.32-1.29-.68-1.9-1.07-2.52-1.48-4.84-3.4-6.78-5.75-1.19-1.45-3.01-2.87-3.22-4.66-.02-.25-.41-.92-.66-1.19-2.79-2.94-4.76-6.92-5.6-11.06-.9-4.16-.85-8.44-.4-12.55,.4-3.5,1.02-6.92,2.06-10.24,1.04-3.31,2.52-6.5,4.6-9.33,.57-1.92,1.63-3.78,2.89-5.48,.63-.85,1.34-1.62,2.03-2.39,.71-.74,1.45-1.43,2.15-2.1,5.07-4.55,10.26-8.73,15.65-12.58,5.39-3.85,10.96-7.38,16.75-10.43,5.84-3.08,11.9-6.1,18.4-8.3,3.24-1.1,6.6-2.02,10.02-2.57,1.7-.36,3.42-.48,5.14-.71,1.72-.14,3.44-.24,5.16-.28,1.17,0,2.26-.15,3.41-.24,1.14-.05,2.34,0,3.69,.3,1.27,.29,2.71,.52,4.23,.65,1.51,.16,3.08,.36,4.55,.59,1.34,.26,2.72,.52,4.07,.78,1.34,.32,2.65,.69,3.86,1.15,4.95,2.03,9.85,4.07,14.61,6.47,4.75,2.38,9.39,5.23,13.49,8.62,8.21,6.73,14.99,15.03,20.71,23.73,3.53,5.3,6.97,10.63,9.5,16.5,1.07,2.51,2.78,5.02,2.76,7.99,0,.42,.38,1.19,.84,2.07,.43,.9,.96,1.92,1.2,2.82,.62,2.22,1.01,4.56,1.22,6.95,.15,2.41,.05,4.87-.36,7.32-.59,3.41-1.96,6.75-3.9,9.61-1.96,2.85-4.36,5.26-6.94,7.34-3.18,2.46-6.45,4.66-10.01,6.27-3.72,1.67-7.6,2.89-11.48,3.7-4.92,1.06-9.85,1.49-14.75,1.93-5.09,.48-10.34,1.22-15.16,.91-8.98-.56-17.89-.28-26.81-.97-8.85-.68-17.68-1.8-26.45-3.04-4.99-.72-9.32-2.47-14.1-3.53-2.24-.53-4.63-3.68-3.51-4.3,.21-.12,.61-.2,.99-.18,4.79,.35,9.27,.01,14.55,1.08,7.81,1.53,15.73,2.51,23.66,3.19Z"/>
        </g>
        <g class="cls-15">
          <path class="cls-12" d="M162.48,173.07c4.55-8.57,9.49-17.61,16.78-23.33,5.36-4.2,11.35-6.09,17.15-7.87,4.5-1.38,8.99-2.76,13.49-4.15,4.66-1.43,9.4-2.87,13.8-2.67,8.34,.39,14.44,6.93,16.55,15.63s.6,19.25-2.85,29.3c-1.46,4.25-3.35,8.62-6.36,12.04-5.25,5.97-12.54,7.62-18.81,7.76-16.22,.37-30.15-6.29-43.24-13.59-4.22-2.35-8.83-6.63-6.39-12.76"/>
          <path class="cls-12" d="M174.76,185.67c3.19,1.7,6.39,3.37,9.7,4.71,1.22,.51,2.32,1.42,3.93,1.08,.8-.2,1.59,1.29,2.77,1.63,3.15,.96,6.28,2,9.5,2.48,3.14,.47,6.29,.42,9.4,.37,.77-.03,1.56,0,2.32,0,.75,0,1.51,0,2.25-.06,1.48-.1,2.93-.37,4.17-.98,1.08-.52,2.12-.81,3.16-1.12,1.04-.3,2.05-.7,2.9-1.38,1.79-1.48,3.28-3.18,4.9-4.9,1.2-1.25,2.38-2.69,2.94-4.46,.35-1.1,.24-2.3,.7-3.49,.43-1.1,1.3-2.27,.57-3.58-.06-.11,.28-.56,.5-.78,1.03-1.04,1.39-2.6,1.17-3.74-.23-1.12,.03-1.99,.17-2.94,.42-2.59,.7-5.18,.89-7.73,.15-1.91,.48-3.81,.37-5.7-.13-1.99-1.03-3.87-1.11-5.63-.08-1.82-.87-3.38-1.8-4.77-.27-.4-.46-.9-.8-1.27-.31-.39-.75-.64-1.4-.53-.12,.02-.34-.24-.39-.41-.43-1.41-1.63-2.14-2.84-2.5-1.24-.39-2.47-.41-3.64-.78-2.43-.84-5.49-.15-8.55,.66-.82,.21-1.81,.16-2.37,1.14-.2,.34-1.07,.64-1.57,.58-2.71-.3-5.09,1.12-7.63,1.71-2.89,.67-5.6,2.03-8.69,2.1-1.29,.03-2.98,.36-4.01,1.8-.46,.66-1.91,.68-2.8,1.18-.74,.4-1.26,1.14-1.96,1.49-.59,.31-1.37,.25-2.07,.42-.21,.04-.42,.17-.56,.32-1.38,1.46-2.88,2.45-4.45,3.57-1.55,1.11-3.14,2.36-4.3,4.03-2.32,3.34-4.66,6.84-6.92,10.5-1.24,2.02-2.69,4.04-5.19,4.58-1.13,.24-1.97-.2-1.97-1.38,0-.86,.07-1.82,.39-2.63,.52-1.31,.99-2.65,1.53-3.92,1.12-2.63,1.85-5.59,4-7.83,.65-.69,.91-1.9,2.08-2,.16-.01,.45-.28,.52-.46,.72-2.01,2.03-3.72,3.61-5.19,1.58-1.47,3.39-2.73,5.15-3.98,2.96-2.12,5.78-4.63,9.34-5.45,1.48-1.7,3.76-2.23,5.66-2.48,3.36-.43,6.55-1.32,9.73-2.32,3.19-.99,6.24-2.16,9.66-3.01,3.45-.81,7.19-1.65,11.37-1.21,2.06,.22,4.12,.75,6.02,1.61,1.9,.87,3.64,2.05,5.14,3.42,.52,.46,1.08,.81,1.6,1.25,.55,.42,1.01,.96,1.33,1.73,.54,1.46,1.88,2.86,2.6,4.42,.7,1.39,1.48,2.86,1.65,4.33,.31,3.04,.61,5.87,.78,8.73,.17,2.85,.19,5.69-.19,8.47-.75,5.52-2.21,10.83-3.73,16.07-.94,3.19-1.73,6.68-3.92,9.69-.9,1.24-1.51,3.01-3.35,3.48-.49,.13-1,1.73-1.79,2.44-1.94,1.74-4.24,3.06-6.59,4.05-3.29,1.37-6.74,1.99-10.1,2.36-2.07,.22-4.03,.61-6.05,.66-2.11,.02-4.23-.18-6.3-.57-2.62-.51-5.12-1.38-7.62-2.15-2.58-.79-5.43-1.2-7.66-2.55-4.15-2.47-8.56-4.02-12.66-6.25-2.03-1.1-4.04-2.23-6.04-3.35l-.76-.42-.84-.48c-.55-.34-1.1-.69-1.64-1.07-1.08-.76-2.12-1.63-3.1-2.66-1.11-1.17-1.86-2.7-2.22-4.33-.36-1.63-.33-3.31-.12-4.92,.12-.75,.92-1.48,1.81-1.73,.87-.28,1.73-.18,2.06,.19,.13,.14,.24,.36,.24,.54,.03,1.15,.41,2.15,.91,2.9,.49,.77,.99,1.33,1.46,2.15,.72,1.22,1.99,2.4,3.49,3.34,.37,.25,.75,.45,1.17,.69l1.36,.74,2.72,1.46Z"/>
        </g>
        <g>
          <path class="cls-10" d="M116.24,107.46c-28.83-1.39-55.6-15.72-69.07-31.91-13.47-16.19-16.05-33.93-16.56-50.95-.62-20.89,2.1-42.67,21.73-58.32,12.97-10.34,35.36-17.43,58.57-13.58,19.49,3.24,34.91,13.14,48.89,22.48,8.73,5.84,17.56,11.76,23.82,18.52,5.64,6.09,9.01,12.69,11.39,19.25,8.85,24.42,4.26,49.35-12.87,69.89-6.89,8.26-16,15.97-29.03,20.85-13.04,4.88-30.48,6.61-46.56,2.85"/>
          <path class="cls-10" d="M152.9,102.03c7.77-2.95,15-7.33,21.08-12.99,2.26-2.1,4.62-4.25,6.36-7.01,.44-.68,1.18-1.55,2.08-2.5,.44-.48,.91-1,1.39-1.52,.45-.55,.88-1.13,1.28-1.73,.54-.81,1.11-1.6,1.63-2.41l1.5-2.5,.75-1.25,.68-1.29,1.35-2.58c1.64-3.52,3.16-7.1,4.15-10.85,1.08-3.61,1.66-7.34,2.07-11.06l.18-2.81c.03-.47,.07-.93,.08-1.4v-1.41s0-2.81,0-2.81l-.18-2.81c-.06-1.86-.38-3.71-.57-5.58-.1-.93-.32-1.85-.47-2.78-.19-.92-.3-1.86-.54-2.76-.87-3.65-1.97-7.22-3.41-10.5-2.51-5.64-4.94-10.68-8.86-15.11-4.14-4.65-9.35-8.7-14.31-12.52-3.63-2.79-7.32-5.48-11.19-7.95-2.41-1.54-4.79-2.77-7.4-4.46-2.42-1.55-5.09-3.46-7.53-4.23-.2-.07-1.27-.79-1.8-1.16-2.52-1.83-5.92-3.5-8.36-4.36-2.38-.83-4.39-1.71-6.57-2.51-2.97-1.14-6.03-2.03-9.09-2.85-1.55-.35-3.08-.76-4.64-1.03-.78-.14-1.55-.32-2.34-.44l-2.35-.34c-4.7-.64-9.42-1.03-14.19-.84-4.98,.19-10.19,1.26-14.69,2.11-4.54,.86-8.75,2.3-12.87,4.13-.59,.26-1.2,.52-1.82,.79-.6,.3-1.21,.6-1.81,.9-1.2,.59-2.25,1.33-3.02,2.08-.14,.14-.98,.61-1.35,.83-.8,.43-1.6,.86-2.37,1.34-.75,.51-1.48,1.03-2.21,1.56-.71,.56-1.38,1.18-2.05,1.77-.66,.62-1.38,1.18-1.97,1.87-1.22,1.33-2.49,2.62-3.56,4.08-.55,.72-1.16,1.39-1.68,2.13-.52,.74-1.05,1.48-1.61,2.21-4.42,6.13-7.13,13.59-8.57,21.17-.24,1-.39,2.06-.56,3.1-.17,1.03-.24,2.06-.14,3.03,.06,.68-.17,2.83-.31,3.88-.96,5.69-.6,11.84-.39,17.78,.11,3.39,.45,6.75,.9,10.1,.44,3.35,1.01,6.67,1.68,9.99,.52,2.81,1.62,6.62,3.46,9.55,.78,1.37,1.99,4.39,3.25,6.5,.48,.89,1.1,1.66,1.66,2.47l.85,1.2c.3,.39,.6,.78,.88,1.19,.49,.68,.9,1.42,1.38,2.12,.48,.71,.96,1.41,1.44,2.13,.28,.43,.69,.9,1.05,1.25,3.37,3.5,6.91,6.83,10.74,9.87,3.82,3.04,7.88,5.86,12.26,8.18,4.42,2.29,9,4.33,13.69,6.12,4.72,1.71,9.53,3.17,14.41,4.29,5.4,1.18,10.99,2.03,14.71,3.21,1.68,.57,1.68,1.04-.74,1.14-1.77,.07-3.82,.14-5.83-.12-1.61-.17-3.23-.3-4.81-.58-1.59-.27-3.18-.43-4.72-.79-6.43-1.26-12.85-2.81-19.07-5.72-1.89-.97-4.31-1.69-5.66-2.91-.19-.16-.95-.59-1.33-.75-2.12-.84-4.13-1.95-6.17-3.04-1-.58-1.98-1.2-2.96-1.82-.49-.31-.99-.62-1.47-.94l-1.42-1.02c-3.83-2.68-7.39-5.77-10.7-9.04-1.45-1.35-2.75-2.84-4.11-4.27-.65-.74-1.26-1.5-1.9-2.25-.65-.74-1.24-1.52-1.82-2.32-1.21-1.55-2.26-3.22-3.32-4.9-.97-1.73-1.94-3.48-2.72-5.34-2.39-3.77-4.05-8.82-4.94-13.2-1.62-7.73-2.33-15.54-2.59-23.3-.26-7.75-.19-15.61,1.16-23.38,.7-3.93,1.6-7.85,2.98-11.63,1.35-3.78,3-7.49,5.16-10.91,.98-1.77,2.26-3.35,3.41-5l1.95-2.32,.98-1.15,1.06-1.08,2.13-2.14,2.29-1.97,1.14-.98c.39-.32,.81-.61,1.21-.91,.81-.6,1.61-1.22,2.46-1.76,1.14-.76,2.17-1.53,3.31-2.21,.57-.35,1.14-.72,1.77-1.06,.64-.32,1.32-.64,2.05-.95,.69-.3,1.43-.62,2.2-.94,.77-.34,1.57-.69,2.38-1.05,1.65-.65,3.34-1.41,5-1.93,3.01-1.06,6.25-1.99,9.21-2.51,6.15-1.04,12.39-1.55,18.64-1.46,6.25,.1,12.52,.87,18.56,2.41,6.02,1.53,11.84,3.76,17.44,6.39,5.59,2.65,10.95,5.69,16.16,8.9,3.18,1.95,6.34,3.92,9.46,5.92,3.12,2,6.25,4.04,9.3,6.27,2.59,1.89,5.51,3.71,7.67,6.14,.61,.68,3.17,2.35,4.7,3.82,3.83,3.59,7.13,7.86,9.72,12.46,3.59,6.42,5.92,13.35,7.47,20.45,.22,1.09,.45,2.17,.67,3.25,.2,1.09,.34,2.18,.51,3.28l.25,1.64,.14,1.66c.08,1.11,.19,2.22,.23,3.33,.12,4.67-.31,9.39-1.17,13.98-1.14,5.82-3.19,11.38-5.73,16.68-2.62,5.5-5.86,11.02-9.65,15.43-6.93,8.24-15.2,15.57-24.97,20.26-4.82,2.35-9.93,4.12-15.14,5.36-2.6,.65-5.23,1.09-7.87,1.51-2.65,.35-5.3,.67-7.96,.8-3.02,.18-5.92,.09-8.78-.17-2.86-.23-5.69-.65-8.6-1.09-1.36-.22-2.9-.81-3.91-1.43-1.02-.59-1.54-1.14-.95-1.23,.22-.04,.68-.03,1.12,.03,5.61,.79,10.79,.71,17.18,.77,9.44-.01,18.96-1.59,27.76-4.91Z"/>
        </g>
        <g>
          <path class="cls-13" d="M145.68,142.17c-17.16-2.57-30.65-13.71-34.8-26.27-4.15-12.56,.13-26.1,9.04-37.23,8.9-11.13,22.11-20.08,36.32-27.63,7.09-3.76,14.6-7.26,22.96-9.08,20.52-4.48,43.27,2.02,58.63,13.02,15.36,11,24.49,25.85,31.66,40.74,5.38,11.17,9.72,23.93,2.5,34.52-8.49,12.45-29.48,16.91-48.3,18.04-26.3,1.58-53.02-.82-78.05-6.99"/>
          <path class="cls-13" d="M185.09,146.14c7.04,.61,14.12,.97,21.18,.96,2.63,.01,5.32,.19,8.05-.32,1.35-.29,3.91,.22,6.34,.06,6.57-.35,13.14-.9,19.56-2.15,3.12-.61,6.2-1.36,9.19-2.34,3.01-.93,5.92-2.09,8.71-3.45,2.78-1.31,5.45-2.91,7.78-4.83,2.32-1.91,4.33-4.18,5.52-6.72,1.03-2.19,1.74-4.37,2.13-6.63,.38-2.26,.46-4.59,.06-6.98-.81-5.06-2.79-10.15-4.76-14.96-1.46-3.51-3-7.02-4.89-10.31-1.19-2.05-2.52-3.84-3.85-6.04-1.24-2.03-2.53-4.45-4.18-5.81-.14-.11-.67-1.04-.93-1.52-1.26-2.26-3.22-4.73-4.84-6.16-.77-.71-1.46-1.41-2.15-2.08-.68-.68-1.31-1.38-2.02-2.04-3.79-3.7-7.94-7.06-12.34-9.97-3.32-2.15-6.73-4.17-10.36-5.82-3.78-1.74-8.07-2.93-11.71-4.12-1.82-.66-3.67-1.05-5.5-1.47-1.85-.32-3.69-.66-5.57-.83-.53-.07-1.09-.14-1.65-.21-.56-.07-1.13-.1-1.69-.13-1.12-.04-2.19-.08-3.07,.22-.16,.05-.96,.04-1.33,0-3.05-.39-6.09-.05-9.08,.45-1.49,.3-2.96,.66-4.44,1.01-1.47,.38-2.94,.81-4.43,1.21-6.15,1.67-12.1,4.61-17.89,7.73-1.54,.83-3.27,1.59-4.48,2.73-.43,.39-2,1.33-2.83,1.69-4.45,2-8.57,5.06-12.59,7.92-4.59,3.29-8.7,7.15-12.82,11.02-1.77,1.61-3.93,4.12-5.13,6.74-.59,1.17-2.19,3.36-3.1,5.17-.37,.75-.65,1.52-.95,2.27-.28,.76-.52,1.53-.84,2.28-.48,1.29-1.15,2.53-1.61,3.86-.15,.39-.29,.89-.34,1.3-.65,3.93-1.04,7.85-.63,11.75,.15,1.96,.59,3.88,1.13,5.77,.64,1.85,1.37,3.7,2.45,5.37,4.15,6.87,10.77,12.29,18.15,15.77,4.09,1.95,8.52,3.3,11.46,4.75,1.32,.69,1.29,1.16-.75,1.08-1.5-.02-3.2-.28-4.87-.65-2.63-.73-5.27-1.5-7.71-2.62-1.3-.51-2.52-1.18-3.78-1.78-.62-.33-1.22-.69-1.83-1.03-.62-.34-1.22-.7-1.8-1.11-2.39-1.51-4.58-3.4-6.53-5.58-1.2-1.35-2.76-2.86-3.28-4.35-.07-.21-.46-.84-.69-1.11-2.43-3.02-4.23-6.78-5.06-10.73-.87-3.95-.92-8.05-.47-11.99,.81-6.7,2.89-13.13,6.73-18.75,1.53-3.45,4.38-6.89,7.06-9.49,9.48-9.2,20.29-16.69,31.72-22.82,5.78-3.1,11.74-6.06,18.09-8.2,3.17-1.07,6.42-1.96,9.75-2.49,1.65-.35,3.33-.46,4.99-.69,1.67-.14,3.35-.24,5.02-.28,1.14,0,2.2-.07,3.32-.12,1.11,0,2.27,.06,3.6,.24,1.24,.18,2.66,.4,4.14,.53,1.48,.17,3,.41,4.44,.63,1.31,.26,2.65,.54,3.97,.8,1.31,.33,2.59,.68,3.79,1.07,4.92,1.72,9.77,3.68,14.44,6.05,4.67,2.35,9.15,5.18,13.19,8.48,8.09,6.56,14.8,14.68,20.34,23.35,3.41,5.28,6.57,10.68,9.17,16.44,1.1,2.46,2.51,5.01,2.94,7.73,.05,.39,.38,1.15,.76,2.04,.35,.9,.77,1.91,.99,2.78,.58,2.14,.94,4.37,1.14,6.62,.14,2.27,.05,4.57-.33,6.85-.55,3.17-1.8,6.24-3.6,8.9-1.82,2.65-4.07,4.92-6.53,6.87-3.03,2.32-6.27,4.25-9.71,5.76-3.6,1.56-7.37,2.76-11.15,3.59-4.79,1.09-9.61,1.69-14.44,2.18-5.01,.53-10.23,1.03-15.01,.95-8.91-.13-17.78-.07-26.64-.7-8.8-.62-17.59-1.7-26.29-3.04-4.95-.77-9.33-2.1-14.09-3.15-2.22-.52-4.9-2.45-3.89-2.66,.19-.04,.57-.04,.94,.02,4.71,.74,9.09,1.01,14.41,2.05,7.87,1.47,15.83,2.51,23.81,3.19Z"/>
        </g>
        <g>
          <path class="cls-9" d="M164.87,164.07c4.55-8.57,9.49-17.61,16.78-23.33,5.36-4.2,11.35-6.09,17.15-7.87,4.5-1.38,8.99-2.76,13.49-4.15,4.66-1.43,9.4-2.87,13.8-2.67,8.34,.39,14.44,6.93,16.55,15.63,2.11,8.7,.6,19.25-2.85,29.3-1.46,4.25-3.35,8.62-6.36,12.04-5.25,5.97-12.54,7.62-18.81,7.76-16.22,.37-30.15-6.29-43.24-13.59-4.22-2.35-8.83-6.63-6.39-12.76"/>
          <path class="cls-9" d="M176.39,178.09c3.22,1.72,6.47,3.38,9.81,4.78,1.23,.54,2.44,1.25,3.9,1.34,.73,.02,1.74,1.01,2.93,1.38,3.19,1.04,6.42,2.02,9.72,2.57,3.21,.54,6.45,.68,9.67,.69,3.2,.04,6.46,0,9.28-1.02,2.38-.88,4.65-1.41,6.61-2.84,2.06-1.52,3.83-3.42,5.4-5.43,1.16-1.45,2.21-3.06,2.88-4.85,.42-1.12,.58-2.26,1.04-3.49,.42-1.14,1.09-2.4,.88-3.58-.02-.1,.23-.59,.39-.84,.71-1.17,1.09-2.75,1.11-3.88,0-1.1,.24-2.01,.4-2.99,.47-2.68,.78-5.38,.92-8.07,.11-2.01,.24-4.01,.06-6.01-.19-2.09-.89-4.18-1.27-6.02-.38-1.88-1.2-3.53-2.22-5.06-.29-.43-.56-.94-.92-1.35-.33-.43-.75-.77-1.23-.88-.09-.02-.34-.31-.44-.46-.8-1.27-2.05-2.11-3.37-2.67-1.33-.58-2.72-.86-4.12-1.18-2.89-.73-6.18-.09-9.37,.73-.85,.22-1.82,.32-2.5,.93-.24,.21-1.14,.5-1.61,.54-2.57,.22-5.04,1.33-7.55,2-2.86,.77-5.64,1.88-8.61,2.36-1.25,.2-2.92,.63-4.15,1.6-.56,.45-1.97,.71-2.91,1.17-.78,.37-1.44,.92-2.19,1.29-.63,.32-1.36,.46-2.04,.73-.21,.07-.43,.21-.6,.34-1.63,1.27-3.25,2.41-4.85,3.69-1.59,1.28-3.13,2.69-4.39,4.37-2.54,3.37-4.9,7.01-7.12,10.76-1.22,2.07-2.53,4.18-4.17,5.18-.74,.45-1.16,.23-.92-.81,.17-.77,.42-1.63,.79-2.42,.59-1.26,1.16-2.54,1.76-3.76,1.26-2.54,2.34-5.21,4.25-7.53,.58-.72,1.03-1.75,1.84-2.1,.11-.05,.37-.33,.46-.49,1.9-3.56,5.25-6.33,8.63-8.67,2.87-2,5.76-3.95,9.13-4.95,1.61-1.17,3.79-1.78,5.65-2.17,3.26-.7,6.45-1.63,9.63-2.63,3.19-.98,6.29-2.08,9.61-2.94,3.35-.83,6.91-1.6,10.68-1.19,1.87,.2,3.72,.69,5.44,1.46,1.72,.79,3.29,1.86,4.67,3.11,.48,.42,.94,.78,1.4,1.21,.47,.41,.88,.91,1.25,1.56,.65,1.23,1.77,2.62,2.44,4.07,.65,1.3,1.29,2.7,1.56,4.04,1.03,5.53,1.47,11.04,.81,16.48-.68,5.38-2.06,10.61-3.68,15.72-1,3.11-2.01,6.33-3.98,9.2-.82,1.2-1.56,2.67-2.96,3.4-.37,.21-1.08,1.47-1.82,2.11-1.81,1.58-3.92,2.81-6.11,3.74-3.06,1.28-6.31,1.9-9.51,2.2-1.97,.18-3.87,.36-5.82,.36-2.03-.03-4.08-.22-6.08-.55-2.54-.43-5-1.11-7.45-1.81-2.53-.72-5.23-1.33-7.5-2.44-4.22-2.03-8.5-3.76-12.57-5.93-2.03-1.07-4.03-2.18-6.02-3.28-2.04-1.08-4.16-2.48-5.87-4.35-1.99-2.14-2.74-5.19-2.32-8.03,.11-.67,.58-1.37,1.11-1.72,.51-.37,.98-.45,1.11-.15,.05,.11,.07,.32,.05,.5-.18,1.16-.09,2.25,.23,3.24,.31,.99,.77,1.89,1.38,2.9,.94,1.48,2.37,2.77,4,3.8,.4,.27,.82,.5,1.26,.75l1.36,.75,2.73,1.48Z"/>
        </g>
        <g class="cls-14">
          <path class="cls-11" d="M41.28,43.52c7.49,6.29,16.64,10.21,25.65,14.04,15.94,6.78,31.89,13.57,47.83,20.35,.75,.32,1.55,.68,1.96,1.39,.34,.6,.33,1.32,.35,2.01,.28,11.25,9.58,20.07,18.89,26.39,10.12,6.87,21.1,12.47,32.6,16.64,5.45,1.97,11.62,2.9,16.82,5.32,5.26,2.45,8.56,7.45,12.48,11.5,2.98,3.08,6.45,5.72,10.35,7.48,9.18,4.16,20.57,2.93,28.67-3.07,3.93-2.92,6.93-7.03,5.42-11.69,8.68-4.06,13.11-7.55,17.74-13.43,4.92-6.25,6.36-13.78,7.51-21.18,1.52-9.73,1.41-17.47-2.65-26.87-3.62-8.39-9.47-15.65-15.26-22.63-4.83-5.83-10.19-5.21-17.49-7.21-12.4-3.4-23.79-2.71-38.21-4.42,3.86-10.5,4.84-24.28-.12-34.3,11.39-3.55,22.09,2.93,32.78,8.23,20.25,10.03,40.37,20.43,59.29,32.79,9.33,6.09,18.55,12.86,24.76,22.11,5.35,7.98,8.17,17.44,9.35,26.98,3.5,28.26-6.94,56.53-21.03,81.28-4.81,8.45-10.2,16.79-17.67,23.02-5.36,4.46-11.62,7.7-17.9,10.72-15.15,7.28-31.06,13.62-47.79,15.23-15.6,1.49-31.58-1.27-45.77-7.92-16.97-7.95-31.99-22.86-34.45-41.43-.68-5.12-.7-11-4.6-14.38-6.47-5.59-17.56,.62-24.71-4.07,.24,1.52-1.46,2.62-2.96,2.9-6.23,1.18-11.85-4.06-15.06-9.52-3.21-5.47-5.45-11.83-10.47-15.7-3.44-2.65-7.79-3.79-12-4.86-16.13-4.1-32.26-8.2-48.38-12.31,.03,3.13,.07,6.26,.1,9.39-.21-9.24,3.72-18.5,10.51-24.77-.92-3.95-3.99-7.33-7.83-8.63,1.83-.08,3.65-.17,5.48-.25-5.71-12.99-9.53-26.8-11.32-40.88-.95-7.52-1.31-15.29,.87-22.56s5.66-13.99,12.83-16.47c1.01,13.95,3.53,22.81,13.44,30.79Z"/>
          <path class="cls-11" d="M67.87,57.46c8.26,3.51,15.01,6.37,21.74,9.23,1.05,.44,2.27,.82,3.59,1.38,5.26,2.25,10.72,4.44,15.73,6.73,1.37,.62,2.74,1.24,4.11,1.85l2.06,.91c.68,.31,1.49,.68,1.98,1.48,.47,.82,.39,1.68,.44,2.38,.07,.72,.09,1.44,.19,2.15,.23,1.42,.57,2.81,1.06,4.12,1.87,5.02,5.24,9.27,9.13,12.89,1.35,1.19,2.66,2.35,4.13,3.65,1.05,.98,3.18,2.52,4.9,3.44,.33,.18,.99,.67,1.48,1,.53,.36,1.12,.84,1.53,1.08,4.61,2.58,9.29,5.46,14.13,7.76,1.21,.57,2.49,1.27,3.61,1.57,.28,.08,1.48,.6,1.81,.8,.88,.53,1.84,.95,3.02,1.45,2.54,1.04,5.13,2.06,7.72,2.93,2.6,.85,5.29,1.5,7.97,2.25,2.69,.49,5.64,1.49,8.32,2.88,2.02,1.07,3.71,2.59,5.24,4.17,1.55,1.61,3.2,3.31,4.42,5.02,.19,.27,.8,.86,1.22,1.3,1.85,2.01,4.01,3.83,6.04,5.37,1.04,.79,2.13,1.52,3.29,2.13,7.44,4.01,16.72,4.24,24.46,.89,1.94-.83,3.78-1.89,5.47-3.13,1.68-1.26,3.2-2.75,4.27-4.51,.53-.88,.93-1.83,1.13-2.82,.1-.5,.15-1,.15-1.5-.02-.25-.01-.5-.04-.75-.05-.27-.05-.44-.14-.84l-.26-1.02c-.07-.11,.09-.11,.15-.16l.24-.11,.47-.23,1.57-.76c.95-.48,1.9-.97,2.83-1.49,1.29-.72,2.52-1.43,3.73-2.43,.96-.76,3.03-2.4,3.96-3.13,1.52-1.14,2.7-2.51,3.87-3.89,2.21-2.54,3.95-5.42,5.19-8.53,.76-1.84,1.26-4,1.92-5.64,.06-.16,.21-.78,.24-1,.25-2.22,.82-4.3,1.2-6.51,.28-1.6,.51-3.21,.57-4.98,.09-1.71,.23-4.56,.31-6.14,.14-2.12-.06-4.07-.38-6.02-.92-5.79-3.21-11.29-6.17-16.34-2.98-5.06-6.6-9.72-10.34-14.27-.89-1.07-1.77-2.16-2.71-3.13-.97-.96-2.06-1.76-3.25-2.39-2.38-1.28-5.1-1.77-7.85-2.36-1.31-.27-2.78-.48-3.92-.94-.23-.1-1.29-.35-1.71-.41-1.51-.24-2.97-.64-4.67-.99-7.66-1.55-15.65-1.91-23.35-2.32-1.5-.08-2.99-.18-4.48-.29l-2.23-.2-2.61-.27-.77-.08-.38-.04s-.05-.02-.03-.05l.03-.09,.06-.18,.48-1.4c.37-1.04,.52-1.63,.74-2.35,.41-1.4,.75-2.83,1.03-4.27,.38-1.91,.79-3.86,.99-5.84,.23-1.92,.23-3.89,.2-5.83-.07-1.15-.06-2.32-.34-3.43-.11-.6-.4-2.23-.45-2.9-.13-1.12-.32-2.28-.66-3.41-.16-.57-.32-1.14-.54-1.69l-.31-.83-.15-.41-.22-.5c-.28-.9-1.51-2.25,.18-2.2l1.55-.4c.46-.09,.86-.14,1.3-.21,1.71-.3,3.45-.29,5.18-.22,3.45,.25,6.8,1.17,10,2.37,1.57,.59,3.33,1.24,4.61,2.07,.17,.11,1.07,.46,1.64,.7,.6,.26,1.35,.56,1.77,.8,3.81,2.23,8,4.16,12.03,6.17,9.73,4.9,19.45,9.86,28.96,15.19,2.66,1.49,5.07,2.65,7.63,4.14,2.47,1.44,4.95,2.89,7.38,4.39,1.72,1.06,3.6,2.1,5.08,3.3,.41,.32,1.65,1.1,2.18,1.38,2.02,1.03,4.04,2.48,6.03,3.79,2.43,1.6,4.78,3.45,7.18,5.02,.65,.43,1.75,1.45,2.64,2.22,1.55,1.33,3.09,2.7,4.55,4.15,.71,.68,1.42,1.33,2.11,2.04,2.59,2.78,4.95,5.81,6.88,9.11,1.95,3.29,3.5,6.8,4.72,10.41,1.23,3.69,2.13,7.48,2.73,11.31,.16,.96,.28,1.92,.41,2.88l.27,2.89c.08,.97,.21,1.93,.24,2.9l.1,2.9c.22,7.74-.51,15.5-2.02,23.07-.3,1.42-.61,2.9-.92,4.35-.3,1.45-.76,2.84-1.23,4.1-.24,1.32-.56,2.53-.96,3.67-.39,1.15-.8,2.24-1.24,3.32-.13,.31-.33,1.13-.51,1.73-.57,1.87-.87,3.74-1.99,5.62-.04,.07-.12,.33-.19,.49-.35,.83-.55,1.56-.8,2.35-.26,.78-.58,1.6-1.12,2.61-.33,.63-.71,1.48-1.1,2.39-.41,.9-.85,1.86-1.25,2.72-.81,1.79-1.71,3.57-2.55,5.33-.84,1.83-2.03,3.69-2.69,5.49-.1,.29-.95,1.52-1.38,2.29-2.11,3.98-4.61,7.88-6.8,11.76-.5,.89-1.41,2.22-2.09,3.07-2.45,3.05-4.66,5.98-7.47,8.89-3.66,3.86-8.42,7.18-13.08,9.4-.99,.48-1.44,.66-2.37,1.28-.61,.4-1.75,.97-2.67,1.43-10.27,5.05-20.78,9.76-31.81,13-3.01,.87-5.88,1.39-9,2.11-1.28,.33-2.84,.45-3.88,.86-.14,.06-.69,.16-.94,.18-3.83,.37-7.62,1.08-11.47,1.08-.82-.02-1.61-.04-2.42-.06-.83,0-1.8-.11-2.51-.09-5.9,.14-11.94-.86-17.75-2.14-1.99-.43-4.1-1.14-5.9-1.43-.27-.03-1.13-.31-1.49-.47-3.22-1.35-6.86-2.52-10.1-4.12-1.64-.86-3.59-1.62-4.91-2.68-.17-.13-.83-.47-1.24-.68-.7-.38-1.4-.74-2.06-1.15-.92-.56-1.82-1.22-2.7-1.87-.89-.63-1.74-1.26-2.5-1.82-.95-.68-1.88-1.34-2.72-2.09-.85-.74-1.72-1.44-2.51-2.23-.92-.89-1.8-1.83-2.66-2.83-.83-.92-1.72-1.83-2.5-2.83-1.18-1.36-2.29-2.87-3.25-4.29-.46-.75-.92-1.41-1.39-2.08-.23-.34-.47-.68-.69-1.06-.2-.38-.41-.8-.6-1.25-.28-.7-.72-1.38-1.1-2.11-.38-.74-.78-1.49-1.14-2.26-.37-.75-.59-1.63-.86-2.43-.18-.62-.35-1.21-.5-1.78-.17-.65-.34-1.29-.52-1.95-.19-.65-.37-1.31-.53-2.02-.24-.97-.45-2.75-.56-4.17-.14-1.41-.3-2.84-.52-4.23-.21-1.39-.5-2.89-.99-4.05-.53-1.27-1.23-2.46-2.15-3.43-.92-.98-2.11-1.67-3.35-2.18-1.27-.48-2.66-.68-4.05-.79-1.41-.06-2.83-.04-4.26,.06-1.46,.09-3.18,.29-4.48,.1-.23-.04-1.08-.01-1.53-.01-.68,0-1.37,.03-2.07-.05-.35-.03-.7-.05-1.05-.11l-1.04-.22c-.35-.06-.69-.17-1.03-.3l-.94-.34-.53-.29-.26-.15c0,.09,.01,.2,0,.29-.01,.1-.04,.2-.09,.3-.06,.11-.06,.13-.23,.35-.27,.35-.6,.62-.94,.85-.68,.44-1.46,.73-2.23,.82-1.49,.25-3.04,.16-4.48-.23-4.07-1.12-7.26-3.98-9.67-7.32-2.33-3.33-3.86-7.11-5.82-10.3-1.58-2.63-3.35-5.05-5.54-6.92-2.16-1.88-4.89-2.56-7.47-3.77-2.84-.88-5.83-1.55-8.75-2.33-2.47-.64-5.02-1.19-7.38-2.01-.86-.3-2.57-.73-3.54-.9-3.15-.57-6.12-1.39-9.22-2.3-.73-.21-1.69-.35-2.55-.56-2.6-.65-5.22-1.29-7.79-1.98-2.31-.62-4.61-1.2-6.91-1.77l-3.45-.84-1.62-.39-.6-.13,.02,.42,.02,.66,.05,2.34c.03,1.56,.05,3.13,.08,4.7l-2.12,.04v-.05c0-1.51-.13-3.19,.1-4.51,.6-4.03,1.82-7.99,3.67-11.64,.93-1.82,1.99-3.58,3.24-5.19,.63-.8,1.27-1.59,1.97-2.32,.34-.37,.69-.74,1.06-1.08l.18-.17,.08-.07s.06-.05,.08-.08l-.02-.11c-.02-.08-.01-.09-.06-.24-.06-.19-.11-.38-.19-.56-.14-.37-.3-.73-.47-1.09-.36-.71-.8-1.38-1.3-2-.25-.31-.52-.6-.8-.89l-.5-.46c-.28-.22-.58-.44-.87-.65-.24-.22-.73-.42-1.11-.63l-.62-.31-.87-.35-3.84-1.53,.49-.1,.24-.05,.05-.03,.1-.07,.03-.02h.21s.41-.03,.41-.03l3.29-.15,3.29-.15-.44-1.01-.73-1.76c-.55-1.33-1.06-2.67-1.57-4.02-1.02-2.69-1.93-5.43-2.76-8.18-.44-1.43-.69-3-.94-3.67-.75-2.08-1.24-4.56-1.77-6.33-.97-3.19-1.46-6.45-2.05-9.66-.41-2.35-.63-4.9-1.12-7.06-.07-.31-.16-1.13-.17-1.57-.11-3.52-.61-7.01-.28-10.56,.06-3.35,.61-6.81,1.7-10.07,1.05-3.24,2.39-6.47,4.38-9.39,.3-.43,.59-.85,.88-1.26,.32-.4,.63-.82,.97-1.21,.37-.38,.76-.88,1.12-1.15,.32-.25,.64-.52,.97-.76l1.02-.7,1.07-.63c.18-.11,.36-.2,.55-.29l.78-.38c.65-.3,1.31-.52,1.97-.79l.99-.39,.25-.1c.06-.04,.05,.02,.05,.06v.12s.06,.48,.06,.48c.12,1.26,.24,2.51,.36,3.77,.29,3.02,.73,6.01,1.34,8.91,.43,1.9,.88,3.76,1.56,5.58,.71,1.83,1.69,3.57,2.53,5.22,.29,.5,.93,1.43,1.48,2.06,2.88,3.46,5.44,5.76,5.07,6.34-.12,.2-.87-.42-1.7-1.01-1.55-1.19-3.06-2.47-4.52-4.38-1.15-1.47-2.2-3.22-3.14-4.6-.16-.23-.57-.99-.7-1.42-1.16-2.98-2.28-6.41-2.69-9.4-.3-2.29-.62-4.39-.78-6.58-.07-.81-.15-1.64-.22-2.47,.11-.63-.4-.23-.72-.16-.37,.11-.69,.26-1.11,.41-.6,.19-2.03,1.29-2.96,2.15-2.26,1.95-3.94,4.54-5.25,7.22-1.96,4.12-3.2,8.56-3.59,13.07-.4,4.51-.12,9.05,.35,13.6,1.01,6.45,1.98,13.18,3.72,19.47,1.04,3.8,2.18,7.57,3.46,11.28,.64,1.86,1.3,3.71,2.02,5.53,.35,.92,.72,1.83,1.1,2.73l.62,1.47,.83,1.9c.18,.41,.35,.8,.49,1.13-.94,.04-1.81,.07-2.67,.11l-.59,.02h-.12s-.29-.03-.29-.03c-.18-.02-.4-.03-.64-.04h-.18s-.09,0-.09,0c0,0,.05,.02,.07,.03,.12,.05,.25,.09,.39,.16l.27,.13c.49,.24,.96,.54,1.39,.88,.11,.09,.22,.17,.32,.27,.17,.16,.35,.31,.51,.48,.33,.33,.65,.68,.95,1.04,.59,.73,1.1,1.52,1.52,2.37,.42,.86,.71,1.63,1.03,2.94-.43,.43-.87,.87-1.32,1.31-.35,.37-.69,.76-1.03,1.13-.67,.77-1.32,1.5-1.94,2.14-.18,.17-.7,.89-.88,1.25-1.58,2.83-3.23,5.95-4.13,9.22-.17,.62-.34,1.23-.48,1.86-.17,.63-.31,1.27-.47,1.95-.36,1.48-.56,3.89-.41,5.48,0,.09,0,.17,.01,.24l-.98,.02c-.07-1.12-.09-2.13-.12-3.21-.02-1.02-.03-2.05-.05-3.08,0-1.28-.01-2.55-.02-3.83,.93,.24,1.85,.48,2.77,.72,.69,.17,1.37,.34,2.05,.51,1.37,.33,2.73,.63,4.07,.88,2.34,.89,5.35,1.56,7.81,2.11,9.44,2.13,18.8,4.71,28.2,7.05,2.27,.57,4.52,1.25,6.82,1.89,2.41,.69,4.86,1.47,7.13,2.69,1.22,.63,2.46,1.65,3.4,2.21,.08,.04,.26,.2,.36,.3,1.07,1.03,1.98,2.22,2.82,3.37,.75,1.03,1.5,1.96,2.18,3.06,.81,1.31,1.55,2.74,2.27,4.12,.7,1.34,1.48,2.73,1.92,3.86,.77,.89,1.57,2.36,2.51,3.49,.86,1.06,1.81,2.08,2.85,2.96,1.17,1,2.45,1.84,3.83,2.42,1.38,.58,2.87,.89,4.31,.76,.38-.06,.8-.1,1.15-.18,.34-.09,.68-.22,.98-.39,.3-.17,.57-.38,.75-.6,.05-.05,.09-.11,.12-.16,0-.03,.05-.02,.08-.19v-.36c.02-.49-.03-1.19-.07-1.86,.14,.04,.36,.11,.39,.09h.11s.24,.13,.24,.13l.99,.53c.44,.23,.83,.47,1.31,.69l.74,.26c.48,.21,1.03,.28,1.55,.41,1.06,.22,2.16,.29,3.28,.34,2.81,.07,5.68-.21,8.65-.19,1.23,.03,2.29,.01,3.54,.13,.41,.05,.85,.09,1.32,.16,.46,.11,.95,.24,1.45,.38,.49,.19,.97,.44,1.46,.7,.47,.29,.89,.69,1.29,1.07,.18,.14,.51,.51,.92,.89,.36,.42,.77,.87,1.02,1.23,1.05,1.37,1.69,2.97,2.11,4.57,.43,1.6,.65,3.22,.83,4.81,.19,1.58,.28,3.16,.57,4.66l.39,2.26c.18,.74,.4,1.48,.6,2.21,.69,3.3,2.03,6.34,3.81,9.35,.59,1.14,1.37,2.2,2.06,3.31,.72,1.1,1.55,2.13,2.31,3.21,.85,1.01,1.66,2.05,2.51,3.04,.9,.95,1.71,1.96,2.62,2.84,3.74,3.87,8.02,7.03,12.53,9.82,1.27,.79,2.74,1.48,3.75,2.28,.24,.17,1.26,.67,1.83,.91,3.98,1.7,7.86,3.31,12.03,4.77,2.21,.74,4.77,1.38,7.31,1.83,3.8,.71,7.95,1.44,12,1.76,1.73,.39,3.12,.2,4.02,.11,1.21-.13,2.32-.11,3.75-.14,.92,0,1.83-.01,2.73-.07,.91-.05,1.81-.11,2.7-.28,.46-.08,1.2-.15,1.95-.21,.75-.08,1.52-.14,2.02-.15,1.34-.02,1.83-.18,3.03-.43,1.41-.3,2.93-.34,4.71-.71,1.9-.4,4.08-1.06,5.81-1.22,.15-.02,.73-.18,.99-.27,3.41-1.22,6.95-1.92,10.31-3.26,5.12-1.69,10.16-3.79,15.11-6.06,4.94-2.31,9.89-4.65,14.58-7.29,3.86-2.18,7.69-4.58,10.77-7.69,6.49-6.48,11.55-14.33,16.03-22.46,.95-1.72,1.94-3.76,2.98-5.21,.15-.2,.56-1,.72-1.37,.59-1.35,1.17-2.68,1.83-3.98,.67-1.29,1.34-2.58,2.02-3.89,.34-.64,.89-1.86,1.01-2.28,.36-1.19,.95-2.49,1.48-3.69,.65-1.45,1.56-3.35,1.81-4.28,.55-1.96,1.17-2.94,1.7-4.39,.33-.89,.63-1.9,.93-2.84,.15-.45,.24-1.03,.34-1.29,.56-1.45,1-2.94,1.41-4.42,.35-1.5,.69-3,1.13-4.47,.2-.63,.32-1.32,.5-1.94,.45-1.76,.84-3.08,1.08-4.22,.24-1.14,.43-2.09,.62-3.11,.09-.51,.18-1.03,.28-1.6,.07-.57,.14-1.19,.22-1.89,.15-1.4,.4-3.11,.49-5.4,.23-1.24,.37-2.61,.33-4-.02-1.4-.05-2.82,.11-4.18,.07-1-.03-2.92-.13-4.16-.08-1.36-.31-2.73-.44-4.1-.14-1.37-.27-2.75-.47-4.12-.39-2.74-.9-5.47-1.64-8.11-.31-1.1-.33-2-.95-3.34-.22-.5-.64-2.34-1.12-3.5-.67-1.68-1.33-3.49-2.35-4.99-.4-.62-1.12-2.07-1.76-3.08-.88-1.39-1.73-2.8-2.88-4.02-.61-.67-1.93-2.29-2.57-3.11-2.58-3.44-5.76-5.87-8.93-8.26-.96-.72-1.65-1.21-2.62-2.01-1.37-1.11-3.24-2.57-4.43-3.25-2.1-1.22-4-2.57-6-3.83-3.44-2.21-6.92-4.39-10.44-6.47-4.02-2.38-8-4.77-12.22-6.92-2.26-1.16-5.25-2.69-7.54-4.25-.25-.17-1.31-.56-1.97-.91-5.2-2.75-10.44-5.45-15.68-8.12-1.21-.62-2.41-1.54-3.63-1.89-1.3-.38-2.37-1.45-3.49-1.68-.16-.03-1.27-.59-1.82-.9-6.09-3.32-12.38-6.65-18.89-8.57-1.57-.43-3.38-.71-4.62-1.06-1.02-.08-2.06-.07-3.12-.1-1.05,.06-2.12,.06-3.18,.24l-.79,.11c-.22,.03-.27,.05-.41,.08l-.36,.09-.18,.05-.09,.02s.02,.06,.03,.08c.11,.23,.23,.46,.35,.67,.04,.04,.17,.34,.28,.59,.12,.25,.23,.5,.34,.74,1,3,1.87,6.3,1.83,9.33,.01,.49,.12,1.55,.11,2.11-.08,1.89,.35,3.09,0,5.38-.23,1.31-.38,3.79-.76,5.72-.31,1.79-.72,3.57-1.19,5.32l-.43,1.44-.19,.62-.1,.29-.1,.29c-.03,.09-.11,.22,.02,.2l.47,.05,2.82,.29c.97,.1,1.95,.17,2.92,.24,3.94,.27,7.81,.3,11.87,.67,.43,.04,1.19,.07,1.36,.03,1.4-.27,3.42,.12,4.78,.39,1.14,.21,2.12,.39,3.37,.56,3.39,.46,6.82,1.19,10.09,2.1,1.89,.51,3.99,.77,5.84,1.39,.57,.19,2.18,.52,3.11,.74,2.15,.48,4.38,1.44,6.19,2.97,.47,.35,.87,.79,1.3,1.19,.39,.42,.79,.87,1.15,1.29,.69,.84,1.39,1.68,2.08,2.52,1.25,1.51,2.49,3.07,3.68,4.65,.91,1.19,1.93,2.32,2.68,3.64,4.49,5.82,8.05,12.77,9.71,20.2,.83,3.69,1.1,7.51,.91,11.26-.16,3.75-.74,7.44-1.37,11.07-.32,1.82-.62,3.9-1.27,5.45-.13,.3-.46,1.6-.54,2-.18,1.09-.37,1.91-.98,3.01-.1,.21-.46,1.18-.65,1.71-.54,1.46-1.2,2.71-2.13,4.05-.74,1.02-1.78,2.4-2.52,3.35-1.94,2.6-4.09,4.95-6.87,6.74-.34,.21-1.14,1.02-1.76,1.41-2.35,1.56-4.81,3.04-7.39,4.08-.11,.04-.23,.09-.35,.14l-.11,.04c-.07,.03-.17,.05-.11,.15,0-.15,.22,1.1,.19,1.82-.08,2.77-1.26,5.24-3.1,7.21-1.88,2-4.21,3.75-6.68,5.07-2.47,1.31-5.11,2.26-7.84,2.85-2.72,.58-5.52,.79-8.3,.63-2.78-.17-5.54-.72-8.18-1.66-2.64-.95-5.1-2.29-7.36-3.9-2.26-1.6-4.32-3.48-6.17-5.5-1.29-1.41-2.4-2.76-3.56-4.21-1.5-1.85-3.26-3.8-5.63-5.36-2.34-1.53-5.45-2.49-8.87-3.36-.49-.14-1.02-.28-1.54-.42-3.33-.89-6.81-1.78-10.09-3.08-3.29-1.23-6.52-2.59-9.68-4.07-2.77-1.31-5.47-2.77-8.25-4.24-1.82-.95-3.52-1.98-5.37-2.87-1.53-.76-3.46-2.19-5.24-3.09-.66-.32-2.27-1.39-3.02-2-2.53-2.02-5.29-3.98-7.73-6.24-2.81-2.58-5.37-5.49-7.44-8.77-.96-1.65-1.79-3.36-2.59-5.17-.24-.43-.44-1.24-.66-2.09-.23-.85-.29-1.81-.39-2.51-.04-1.06-.09-2.11-.13-3.15-.04-.42-.13-.66-.3-.84-.18-.2-.5-.39-.9-.56-3.84-1.53-3.88-1.51-7.63-3.26-.45-.21-.94-.42-1.42-.62-4.77-2.03-9.6-4.19-14.28-6.05-3.9-1.55-7.68-3.15-11.51-4.77-1.52-.64-3.33-1.29-4.51-2.07-.17-.11-1.04-.48-1.42-.6-3.3-1.11-6.7-2.71-10.02-4.12-3.22-1.38-6.27-2.48-9.49-4.13-3.01-1.56-6.09-3.19-8.98-5.12-2.19-1.47-3.43-2.49-4.09-3.17-.65-.69-.73-1.02-.51-1.28,.4-.45,1.4,.39,4.84,2.65,7.36,4.69,15.48,8.18,22.05,10.92Z"/>
        </g>
        <g class="cls-16">
          <g class="cls-16">
            <path class="cls-5" d="M118.43,127.39c-1.56-.78-2.94-1.96-4.15-3.17-1.22-1.21-2.26-2.44-3.42-3.45-.25-.24-.52-.47-.76-.71,.07,.16,.15,.31,.23,.47,.89,1.78,2.18,3.48,3.73,4.9,1.55,1.43,3.38,2.57,5.27,3.35,2.41,.86,4.99,1.04,7.68,1.34,.3,.04,.36-.27,.39-.43-.25-.22-.46-.46-.64-.7-2.11,0-4.27-.3-6.33-1.16-.65-.32-1.62-.2-2-.44Z"/>
            <polygon class="cls-7" points="126.84 129.03 126.8 128.99 126.48 128.99 126.84 129.03"/>
            <path class="cls-4" d="M121.64,128.36c-.71-.16-1.38-.41-2.01-.74-.48-.06-.97-.08-1.21-.23-1.56-.78-2.94-1.96-4.15-3.17-1.22-1.21-2.26-2.44-3.42-3.45-.24-.23-.51-.46-.75-.71,.08,.17,.16,.34,.25,.5,.61,1.24,1.43,2.42,2.38,3.51l.2,.13c.72,.42,1.09,1.11,1.68,1.61,1.82,1.23,3.29,2.4,5.39,3.12,.75,.26,1.64,.2,2.5,.5,.3,.08,.59,.17,.87,.27,1.2,.15,2.41,.29,3.68,.41,.3,.04,.36-.27,.39-.43-.13-.12-.25-.24-.36-.36-.98-.13-1.97-.27-2.95-.52-.87-.11-1.74-.31-2.6-.57,.02,.04,.06,.08,.11,.12Z"/>
            <path class="cls-7" d="M121.72,127.88c-.11-.04-.34,.12-.19,.36,.86,.26,1.73,.46,2.6,.57-.82-.21-1.64-.5-2.41-.93Z"/>
            <path class="cls-8" d="M122.22,126.89c-1.47-.67-3.05-1.02-4.04-2-.52-.49-.95-1.07-1.21-1.68-.17-.13-.34-.26-.51-.39-2.13-1.63-3.83-3.69-5.05-6.17-1.25-2.45-2.24-5.23-3.62-7.89-1.43-2.63-3.53-4.56-5.8-6.5-1.29-1.21-2.03-2.48-3.24-3.77-1.47-1.65-3.27-2.73-5.16-3.53-1.91-.8-3.92-1.33-6-1.95-1.13-.34-1.71,.8-1.45,.91,1.68,.51,3.29,1.19,4.82,1.98,1.52,.82,2.97,1.75,4.34,2.78,2.73,2.08,5.17,4.49,7.49,7.16,1.8,2.07,3.21,4.37,4.28,6.76,1.07,2.41,1.82,4.94,3.02,7.47,.25,.25,.52,.48,.76,.71,1.16,1.01,2.21,2.24,3.42,3.45,1.21,1.21,2.59,2.38,4.15,3.17,.39,.24,1.35,.13,2,.44,2.05,.85,4.22,1.15,6.33,1.16-.38-.49-.65-1.01-1-1.41-1.22,0-2.47-.14-3.54-.69Z"/>
            <path class="cls-6" d="M122.22,126.89c1.07,.55,2.32,.68,3.54,.69-.17-.2-.36-.35-.59-.5-1.34-.62-2.75-1.11-4.16-1.7-1.41-.59-2.82-1.27-4.03-2.17,.26,.61,.69,1.19,1.21,1.68,.98,.97,2.57,1.33,4.04,2Z"/>
            <path class="cls-4" d="M122.22,126.89c1.02,.53,2.21,.66,3.37,.69-.38-.11-.74-.26-1.13-.35-1.93-.52-3.87-1.24-5.41-2.51,1.81,1.08,3.8,1.9,5.88,2.24-1.31-.58-2.68-1.06-4.05-1.63-1.37-.57-2.73-1.25-3.91-2.11,.26,.61,.69,1.19,1.21,1.67,.98,.97,2.57,1.33,4.04,2Z"/>
            <path class="cls-3" d="M119.12,125.69c2.06,1.36,4.51,2.28,7.04,2.38-.09-.13-.18-.26-.28-.38-.1-.04-.2-.07-.29-.1-1.16-.03-2.35-.16-3.37-.69-1.47-.67-3.05-1.02-4.04-2-.52-.49-.95-1.06-1.21-1.67l-.48-.37c-2.18-1.66-3.91-3.77-5.14-6.31-1.46-2.03-2.38-4.7-3.54-7.25,.62,1.14,1.25,2.3,1.83,3.45-.55-1.3-1.17-2.64-1.82-3.93-.59-1.12-1.33-2.11-2.14-3.02-.39-.03-.82-.2-1.27-.69-.74-.74-1.35-1.56-2.27-2.16-.09-.11,.1-.25-.08-.47,.51,.63,1.09,1.01,1.64,1.32-.53-.51-1.12-.97-1.67-1.47-.51-.48-.93-.96-1.32-1.46-.41-.48-.78-.98-1.19-1.49l-.33-.25c-.55-.42-1.16-.79-1.81-1.09,.21,.18,.43,.37,.66,.56-.44-.18-.89-.55-1.22-.83,.19,.09,.38,.18,.56,.27-.52-.44-1.02-.86-1.6-1.29,.71,.52,1.48,.98,2.16,1.35-1.29-1-2.54-1.79-3.78-2.82l.12,.03c-2.09-.96-4.31-1.55-6.63-2.25-1.13-.34-1.71,.79-1.45,.91,4.73,1.41,8.76,4.16,12.27,7.4-.27-.51-.59-.97-.9-1.46-.16-.19-.29-.39-.41-.6,.15,.19,.27,.4,.41,.6,.43,.51,1,.96,1.4,1.56,.04,.15,.33,.45,.62,.4,.55,.82,1.49,1.51,1.97,2.38,.04,.04,.05,.16,.06,.3,.42,.44,.8,.91,1.22,1.37,2.24,2.61,3.88,5.51,5.03,8.59-.19-.78-.36-1.55-.47-2.27-.05-.51-.41-1.17-.84-1.89-.48-.7-1.02-1.47-1.55-2.15-.29-.32-.22-.68-.45-1.04,1.4,.88,2.06,2.8,2.92,4.3,1.14,2.01,1.78,5.29,3.45,7.25,.69,.79,.99,1.73,1.3,2.56-.31-.15-.64-.64-.79-.89-1.42-2.23-2.31-4.67-3.46-6.98,.83,2.57,1.92,4.93,3.19,7.45-.99-1.36-1.37-2.93-2.32-4.13,0,.14,0,.28,.02,.42,.38,.99,.78,1.99,1.26,2.99,.24,.24,.51,.47,.75,.71,1.16,1.01,2.21,2.24,3.42,3.45,1.21,1.21,2.59,2.38,4.15,3.17,.24,.15,.72,.17,1.21,.23-.99-.49-1.89-1.14-2.8-1.75,.32,.32,.63,.62,.87,.98-.93-.52-1.44-1.28-2.27-1.9,.48,.3,.95,.59,1.39,.91-.48-.47-1.01-.92-1.5-1.42,1.18,.64,1.84,1.88,3.24,2.2-.25-.13-.5-.28-.72-.46,.24,.17,.48,.32,.74,.47h-.02c.77,.41,1.62,.66,2.4,.81-1.39-.56-2.4-1.48-3.6-2.26l-.6-.38c.21,.12,.41,.25,.6,.38,2.78,1.71,5.78,3.25,9.11,3.78h.32s-.24-.33-.24-.33c-2.7-.38-5.32-1.44-7.44-2.97Z"/>
          </g>
        </g>
        <g class="cls-16">
          <g class="cls-16">
            <path class="cls-5" d="M290.78,89.19c.37,.96-.16,2.13,.74,2.83,.09,.08,.18,.17,.28,.25l.03-.16c.26-1.19,.13-2.46-.36-3.54-.42-.64-1.16-1.15-1.33-1.92-.02-.09-.32,.01-.47,.06-.16,.14-.35,.28-.54,.41,.37,.52,.82,1.03,1.01,1.64,.03,.21,.6,.3,.62,.43Z"/>
            <polygon class="cls-7" points="289.18 87.08 289.14 87.11 289.19 87.18 289.18 87.08"/>
            <path class="cls-4" d="M290.1,88.38c.15,.17,.22,.37,.26,.57,.18,.09,.41,.16,.42,.24,.37,.96-.16,2.13,.74,2.83,.09,.08,.18,.16,.28,.25,.01-.06,.02-.11,.04-.17,.09-.41,.13-.83,.13-1.25l-.06-.06c-.25-.18-.04-.44-.06-.67-.3-.57-.22-1.14-.55-1.7-.11-.2-.53-.32-.58-.58-.03-.08-.05-.17-.05-.26-.23-.29-.44-.58-.52-.94-.02-.09-.32,.01-.47,.06-.09,.07-.18,.15-.27,.22,.04,.29,.14,.56,.21,.85,.15,.22,.3,.44,.41,.68,.02-.02,.05-.04,.06-.06Z"/>
            <path class="cls-7" d="M289.65,88.54s.24,.01,.39-.1c-.12-.24-.26-.46-.41-.68,.05,.24,.09,.5,.03,.78Z"/>
            <path class="cls-8" d="M288.58,88.82c0,.5,.53,.84,.34,1.3-.08,.23-.25,.49-.51,.73,.02,.06,.04,.13,.05,.19,.61,1.5,.93,3.12,.65,4.72-.07,.79,.49,1.51,.83,2.35,.09,.5-.31,.88-.56,1.33-.35,.55-.25,1.09-.02,1.67l2.39,.21c-.28-.6-.71-1.22-.9-1.87-.1-.34-1.36-.44-1.37-.36,.15,.73,.17,1.44,.14,2.14l1.85,.16c.17-1.39,.42-2.77,.17-4.21-.26-1.68-.22-3.23,.15-4.91-.1-.08-.2-.17-.28-.25-.9-.7-.37-1.87-.74-2.83-.02-.13-.59-.22-.62-.43-.19-.62-.65-1.12-1.01-1.64-.39,.27-.8,.52-1.09,.75,.3,.28,.56,.58,.52,.96Z"/>
            <path class="cls-6" d="M288.58,88.82c.03-.38-.23-.68-.52-.96-.14,.11-.25,.22-.31,.32-.4,1.04,.36,1.8,.66,2.67,.26-.24,.43-.49,.51-.73,.19-.46-.34-.8-.34-1.3Z"/>
            <path class="cls-4" d="M288.58,88.82c.03-.36-.2-.65-.48-.92-.03,.13-.03,.26,0,.37,.11,.59,.36,1.16,.2,1.81-.14-.62-.31-1.23-.58-1.81-.31,.99,.41,1.73,.7,2.57,.26-.24,.43-.49,.51-.72,.19-.46-.34-.8-.34-1.3Z"/>
            <path class="cls-3" d="M289.03,89.72c-.03-.75-.15-1.5-.63-2.12-.1,.07-.2,.14-.28,.2,0,.04-.02,.07-.03,.11,.28,.27,.51,.56,.48,.92,0,.5,.53,.84,.34,1.3-.08,.23-.25,.48-.51,.72,.02,.06,.03,.12,.05,.18,.31,.77,.54,1.56,.67,2.37,.48,.65,.47,1.46,.23,2.22,0-.35-.05-.7-.14-1.05,0,.39-.03,.78-.1,1.17-.02,.34,.05,.66,.19,.98,.3,.06,.54,.16,.62,.35,.12,.29,.09,.57,.36,.88,0,.04-.24,.03-.25,.11,.03-.23-.12-.42-.37-.58,.1,.2,.2,.4,.28,.61,.07,.39-.16,.71-.38,1.05,0,.04,.01,.08,.02,.12,.03,.19,.14,.39,.27,.6,.02-.08,.03-.16,.05-.24,.13,.14,.1,.3,.07,.42l-.12-.18c-.04,.19-.07,.36-.13,.56,.06-.24-.05-.5-.16-.72-.01,.44,.04,.86-.22,1.27l-.04-.04c.02,.06,.04,.11,.07,.17l2.38,.21c-.28-.6-.71-1.21-.9-1.86-.1-.34-1.36-.44-1.37-.36,.15,.72,.17,1.43,.14,2.13l1.85,.16c.09-.76,.21-1.51,.26-2.28-.18,.16-.36,.32-.53,.47-.05,.07-.11,.14-.21,.19,.07-.06,.14-.13,.21-.19,.13-.19,.11-.41,.26-.62,.09-.04,.11-.16-.12-.23,.21-.29,.02-.64,.22-.93,0-.02,.07-.05,.16-.08-.02-.19-.04-.38-.08-.56-.17-1.05-.2-2.05-.13-3.06-.13,.25-.27,.5-.47,.73-.33,.31,.04,.89,.14,1.4,.07,.13-.18,.21-.19,.34-.67-.42-.23-1.01-.36-1.51-.12-.66,.37-1.68-.21-2.34-.24-.27-.02-.59,.2-.88,.16,.06,.17,.23,.18,.32,.03,.77,.04,1.53,.17,2.29,.26-.83,.01-1.58,.29-2.44,.09,.47-.2,.98,.19,1.37,.05-.04,.1-.09,.15-.13,.05-.32,.1-.65,.18-.98-.1-.08-.19-.16-.28-.25-.9-.7-.37-1.87-.74-2.83-.01-.08-.25-.15-.42-.24,.07,.32,.05,.65,.12,.96,.04-.14,.12-.29,.26-.44,.11,.29-.16,.61-.05,.89-.11-.14-.17-.29-.21-.45-.07,.21-.06,.42-.09,.63-.34-.32,.22-.82-.28-1.11,.03,.08,.03,.16,.03,.25l-.03-.25h0c-.08-.24-.29-.44-.5-.62,.13,.42-.08,.88,.03,1.28,.03,.06,.06,.12,.09,.19-.04-.06-.07-.13-.09-.19-.36-.9-.27-1.93-.45-2.91l-.06-.08-.27,.18c.19,.78,.23,1.62,.16,2.43Z"/>
          </g>
        </g>
        <g class="cls-16">
          <g class="cls-16">
            <path class="cls-5" d="M261.03,171.73c-2.37,1.66-5,3.06-7.57,4.3-2.58,1.22-5.06,2.36-7.23,3.57-.48,.27-.97,.54-1.48,.82l.82-.25c6.21-1.79,12.62-5.03,17.85-9.11,3.18-2.62,5.96-5.73,9.12-8.91,.36-.35,.17-.61,.08-.74-.46,.18-.88,.3-1.28,.39-2.38,2.71-4.89,5.33-7.87,7.59-1.01,.7-1.81,1.92-2.44,2.34Z"/>
            <polygon class="cls-7" points="271.47 161.72 271.39 161.73 271.03 162.14 271.47 161.72"/>
            <path class="cls-4" d="M265.25,168.05c-.9,.82-1.82,1.59-2.81,2.25-.55,.57-1.01,1.17-1.41,1.43-2.37,1.66-5,3.06-7.57,4.3-2.58,1.22-5.06,2.36-7.23,3.57-.47,.26-.96,.53-1.46,.81l.88-.27c1.07-.33,2.16-.65,3.23-1.07,1.08-.39,2.16-.81,3.23-1.3,.11-.07,.22-.14,.32-.21,1.09-.74,2.26-1.11,3.38-1.67,3.03-1.89,5.66-3.34,8.44-5.61,.96-.84,1.82-1.91,2.96-2.88,.38-.34,.77-.65,1.15-.95,1.41-1.45,2.79-2.87,4.24-4.37,.36-.35,.17-.61,.08-.75-.24,.09-.47,.17-.69,.24-.6,.59-1.2,1.18-1.8,1.77-.62,.57-1.24,1.15-1.87,1.73-.51,.54-1.07,1.04-1.61,1.56-.54,.52-1.1,1.03-1.69,1.5,.07-.02,.14-.04,.24-.08Z"/>
            <path class="cls-7" d="M264.83,167.77c-.17,.13-.23,.47,.18,.37,.59-.47,1.15-.98,1.69-1.5,.54-.52,1.1-1.01,1.61-1.56-1.09,.94-2.21,1.88-3.48,2.69Z"/>
            <path class="cls-8" d="M264.32,166.77c-2.32,1.71-4.37,3.61-6.53,4.65-1.12,.55-2.3,.96-3.37,1.23-.35,.19-.69,.38-1.03,.57-8.38,4.86-17.95,7.77-27.5,8.09-4.77,.21-9.23,.6-14.2,.32-2.93-.34-5.19-1.12-7.9-2.06-3.36-1.2-6.53-2.09-9.74-3.1-3.19-1.03-6.43-2.17-9.69-3.92-1.75-.95-2.67-.05-2.25,.23,2.73,1.6,5.48,3.06,8.26,4.38,2.8,1.28,5.64,2.42,8.54,3.4,2.91,.94,5.87,1.73,8.89,2.31,3.03,.54,6.12,.91,9.25,1.01,9.74,.28,18.88-.98,27.69-3.44,.5-.28,1-.55,1.48-.82,2.17-1.21,4.65-2.35,7.23-3.57,2.57-1.24,5.2-2.64,7.57-4.3,.62-.42,1.42-1.64,2.44-2.34,2.98-2.26,5.5-4.89,7.87-7.59-.84,.19-1.57,.29-2.33,.55-1.43,1.63-2.95,3.21-4.69,4.42Z"/>
            <path class="cls-6" d="M264.32,166.77c1.74-1.21,3.25-2.79,4.69-4.42-.38,.12-.76,.3-1.16,.55-4.26,3.1-8.69,6.96-13.43,9.76,1.07-.27,2.24-.68,3.37-1.23,2.15-1.04,4.21-2.94,6.53-4.65Z"/>
            <path class="cls-4" d="M264.32,166.77c1.65-1.15,3.12-2.64,4.49-4.2-.56,.43-1.1,.88-1.63,1.35-2.73,2.36-5.59,4.66-8.73,6.34,3.21-2.08,6.26-4.44,9.03-7.11-4.12,3.07-8.45,6.78-13.04,9.49,1.06-.27,2.24-.68,3.36-1.23,2.15-1.04,4.21-2.94,6.53-4.65Z"/>
            <path class="cls-3" d="M259.71,170.41c3.71-2.29,7.21-5.03,10.18-8.36-.22,.05-.43,.11-.64,.18-.15,.11-.3,.22-.44,.33-1.37,1.56-2.83,3.04-4.49,4.2-2.32,1.71-4.37,3.61-6.53,4.65-1.12,.55-2.29,.96-3.36,1.23-.32,.18-.65,.36-.97,.53-4.29,2.47-8.85,4.48-13.6,5.85-4.01,1.58-8.71,2.38-13.21,2.47,2.11-.18,4.22-.46,6.3-.89-1.15,.22-2.33,.31-3.49,.47-1.17,.1-2.33,.18-3.5,.23-1.01,.03-2.01,.11-3,.16-.98,.05-1.96,.1-2.96,.15-.41,.28-1.06,.51-2.17,.55-1.73,.02-3.42-.13-5.21-.09-.24-.03-.16-.26-.64-.33,1.34,.2,2.47,.18,3.45-.01-1.2,.03-2.42-.04-3.66-.1-1.15-.11-2.2-.35-3.21-.58-1.01-.26-1.98-.59-3-.9-.23-.03-.45-.09-.67-.14-1.11-.26-2.27-.37-3.42-.59,.45,.14,.9,.3,1.38,.43-.78-.04-1.7-.37-2.39-.59,.34,.05,.68,.11,1.01,.16-1.07-.35-2.1-.67-3.22-1.11,1.35,.54,2.83,.8,4.05,1.05-2.56-.74-4.95-1.38-7.29-2.6l.2,.03c-3.55-1.11-7.15-2.29-10.78-4.24-1.75-.95-2.67-.05-2.25,.23,7.6,4.48,15.45,7.83,23.84,9.67-.91-.35-1.81-.76-2.72-1.16-.4-.14-.78-.3-1.12-.49l1.12,.49c.54,.19,1.12,.37,1.72,.54,.6,.15,1.21,.31,1.8,.51,.21,.13,.94,.3,1.27,.13,.82,.23,1.74,.39,2.66,.54,.92,.14,1.85,.23,2.68,.44,.1,.01,.26,.1,.45,.21,1.08,.08,2.16,.13,3.25,.19,3.04,.06,6.03,.02,8.96-.18,2.93-.24,5.82-.53,8.66-1.04-.68,.05-1.36,.1-2.04,.14-.67,.02-1.32,0-1.94,0-1.68-.07-5.16,.57-8.16,.73-.76,.07-1.2-.17-1.94-.18,2.6-.63,5.95-.35,8.91-.8,3.9-.52,9.49-1.18,13.42-3.03,.81-.36,1.62-.63,2.41-.86,.79-.23,1.57-.35,2.27-.52-.42,.36-1.36,.67-1.83,.84-4.19,1.5-8.5,2.6-12.89,3.44,4.64-.49,8.95-1.85,13.43-3.13-2.55,1.05-5.22,1.45-7.59,2.47,.22,0,.45,0,.68-.02,1.77-.38,3.52-.85,5.26-1.31,.5-.28,.98-.55,1.46-.81,2.17-1.21,4.65-2.35,7.23-3.57,2.57-1.24,5.2-2.64,7.57-4.3,.4-.26,.86-.86,1.41-1.43-1.51,1.08-3.11,2-4.69,2.98,.69-.3,1.33-.62,1.98-.83-1.44,1.02-2.86,1.42-4.35,2.33,.79-.52,1.57-1.03,2.37-1.5-1.02,.46-2.04,1.06-3.12,1.53,1.86-1.31,3.99-1.84,5.69-3.47-.4,.27-.82,.53-1.23,.76l1.26-.78-.02,.02c1.22-.85,2.34-1.82,3.3-2.76-.99,.8-2.05,1.4-3.06,2.05-1.05,.59-2.08,1.2-3.14,1.85l-1.04,.66c.35-.23,.69-.45,1.04-.66,2.38-1.57,4.77-3.11,7.05-4.84,1.17-.82,2.25-1.75,3.38-2.63,1.07-.94,2.18-1.85,3.19-2.87l.36-.41c-.19,.04-.37,.08-.55,.12-3.36,3.31-7.17,6.26-11.13,8.55Z"/>
          </g>
        </g>
        <g class="cls-16">
          <g class="cls-16">
            <path class="cls-5" d="M145.79,140.79c-3.08-.62-6.54-1.47-9.37-.78-.3,.07-.63,.14-.96,.22l.48,.07c3.67,.53,7.53,.81,10.83,1.62,2.04,.38,4.28,.92,5.88,2.69,.18,.19,.44,0,.56-.1-.03-.3-.02-.6,0-.9-1.61-1.35-3.53-2.12-5.51-2.77-.65-.27-1.53,.07-1.91-.05Z"/>
            <polygon class="cls-7" points="153.24 143.7 153.25 143.64 153 143.44 153.24 143.7"/>
            <path class="cls-4" d="M148.85,141.32c-.64-.22-1.3-.35-1.91-.6-.46,.03-.9,.14-1.15,.06-3.08-.62-6.54-1.47-9.37-.78-.3,.07-.62,.14-.95,.22l.52,.07c1.27,.19,2.56,.33,3.84,.49l.21-.04c.74-.18,1.37,.16,2.06,.24,1.95,.05,3.47,.55,5.26,.98,.65,.13,1.4,.11,2.11,.46,.23,.13,.44,.27,.65,.42,.95,.38,1.83,.98,2.57,1.79,.18,.19,.44,0,.57-.09-.01-.16-.02-.32-.02-.47-.32-.34-.63-.71-1-1-.38-.29-.75-.59-1.15-.87-.38-.18-.77-.36-1.15-.54-.39-.16-.79-.3-1.18-.46,.02,.04,.05,.08,.09,.13Z"/>
            <path class="cls-7" d="M148.96,140.85c-.11-.05-.33,.1-.2,.35,.39,.16,.8,.29,1.18,.46,.38,.18,.76,.36,1.15,.54-.35-.21-.69-.43-1.04-.67-.35-.23-.73-.42-1.09-.67Z"/>
            <path class="cls-8" d="M149.52,139.89c-1.63-.84-3.4-.88-4.76-1.39-.73-.29-1.44-.57-2.06-.97-.24-.02-.49-.04-.73-.05-3-.14-5.91-.04-8.76-.11-2.86-.06-5.62-.3-8.24-1.07-2.64-.68-5.21-.97-7.97-1.84-1.59-.63-2.61-1.63-3.88-2.67-1.56-1.35-3.14-2.35-4.79-3.39-1.65-1.03-3.32-2.15-4.85-3.69-.81-.83-1.91-.2-1.74,.03,2.49,2.81,5.07,5.35,7.98,7.49,2.88,2.17,6.1,3.92,9.63,5.04,2.74,.86,5.45,1.49,8.15,1.92,2.71,.44,5.37,.67,7.97,1.04,.33-.08,.65-.15,.96-.22,2.83-.7,6.29,.16,9.37,.78,.38,.12,1.26-.23,1.91,.05,1.97,.65,3.89,1.43,5.51,2.77,.01-.61,.1-1.25-.07-1.78-.62-.35-1.21-.72-1.83-1-.31-.15-.6-.32-.9-.48-.3-.14-.6-.29-.89-.46Z"/>
            <path class="cls-6" d="M149.52,139.89c.29,.17,.58,.32,.89,.46,.3,.16,.59,.33,.9,.48,.63,.28,1.21,.65,1.83,1-.08-.27-.2-.54-.4-.79-1.22-1.31-2.96-2.25-4.74-2.71-1.79-.49-3.61-.65-5.3-.79,.63,.4,1.34,.69,2.06,.97,1.36,.5,3.13,.55,4.76,1.39Z"/>
            <path class="cls-4" d="M149.52,139.89c.27,.16,.56,.31,.85,.44,.28,.15,.56,.3,.85,.45,.6,.27,1.17,.6,1.75,.94-.32-.32-.65-.66-1.03-.91-1.95-1.35-4.22-2.03-6.35-2.78,2.37,.49,4.78,1.32,6.94,2.75-1.26-1.22-2.96-2.07-4.69-2.52-1.74-.45-3.5-.61-5.14-.74,.63,.4,1.33,.68,2.06,.97,1.36,.5,3.13,.55,4.76,1.39Z"/>
            <path class="cls-3" d="M146.01,138.96c2.55,.77,5.03,1.86,7.27,3.52,0-.17-.02-.34-.06-.49-.08-.09-.16-.18-.24-.26-.58-.34-1.15-.67-1.75-.94-.29-.16-.57-.3-.85-.45-.29-.13-.57-.28-.85-.44-1.63-.84-3.4-.88-4.76-1.39-.73-.28-1.43-.57-2.06-.97-.23-.02-.46-.04-.68-.05-3.06-.15-6.04-.04-8.95-.12-2.54,.33-5.27,.07-7.74-.73,.6,.1,1.19,.2,1.79,.3,.6,.05,1.21,.1,1.82,.16-.66-.1-1.33-.19-1.99-.32-.65-.15-1.31-.28-1.95-.47-1.12-.28-2.22-.51-3.34-.72-.31,.2-.73,.32-1.37,.19-.98-.22-1.88-.61-2.93-.78-.13-.06,0-.27-.25-.39,.7,.37,1.36,.46,1.97,.43-.68-.15-1.36-.33-2.05-.56-.63-.23-1.16-.55-1.66-.9-.51-.33-.96-.71-1.43-1.11l-.35-.18c-.59-.29-1.2-.57-1.85-.81,.22,.16,.44,.32,.68,.48-.44-.13-.91-.44-1.24-.71,.18,.08,.37,.15,.56,.22-.53-.38-1.01-.79-1.55-1.21,.66,.52,1.42,.94,2.09,1.21-1.3-.82-2.48-1.62-3.5-2.74l.12,.04c-1.81-1.15-3.71-2.32-5.4-4.04-.81-.83-1.92-.2-1.74,.04,3.45,3.93,7.18,7.3,11.57,9.84-.41-.44-.81-.88-1.21-1.31-.19-.17-.35-.35-.49-.55,.16,.18,.32,.37,.49,.55,.51,.46,1.18,.8,1.74,1.3,.08,.14,.46,.35,.72,.23,.79,.66,1.96,.98,2.79,1.57,.05,.03,.12,.13,.2,.25,.6,.21,1.2,.44,1.81,.63,3.43,1.06,6.8,1.8,10.17,2.21-.8-.19-1.57-.47-2.25-.77-.92-.46-2.99-.51-4.72-.89-.44-.06-.63-.37-1.04-.5,1.64-.19,3.41,.71,5.15,.88,2.27,.3,5.5,1.01,8.01,.59,1.04-.18,2.01,.11,2.83,.41-.31,.13-.88,.1-1.17,.09-2.57-.16-5.15-.26-7.76-.45,2.68,.59,5.32,.45,7.98,.94-1.58-.02-3.11-.41-4.61-.12,.12,.07,.25,.12,.38,.18,1.02,.13,2.05,.26,3.11,.39,.33-.08,.64-.15,.95-.22,2.83-.7,6.29,.16,9.37,.78,.25,.07,.68-.03,1.15-.06-.49-.15-.99-.3-1.49-.45-.51-.12-1.02-.24-1.54-.34,.4,.15,.78,.33,1.11,.57-.96-.15-1.71-.59-2.7-.67,.54,0,1.07,.04,1.59,.11-.61-.19-1.27-.34-1.94-.47,.67-.08,1.28,.12,1.89,.28,.6,.19,1.2,.35,1.89,.3-.27-.07-.54-.12-.81-.2,.27,.07,.56,.11,.83,.2h-.02c.41,.1,.83,.16,1.25,.21,.39,.06,.81,.12,1.21,.19-1.38-.51-2.64-1.09-4.09-1.33-.24-.03-.49-.04-.73-.06,.25,0,.49,.02,.73,.06,1.67,.2,3.33,.67,4.85,1.39,1.54,.7,2.88,1.77,4.03,2.94l.24,.2,.02-.42c-1.94-2.05-4.62-3.36-7.26-4.26Z"/>
          </g>
        </g>
        <g class="cls-16">
          <g class="cls-16">
            <path class="cls-5" d="M169.05,164.08c-.86-.78-1.12-2.19-2.35-2.4-.13-.03-.26-.06-.4-.08,.02,.05,.05,.11,.07,.16,.53,1.25,1.36,2.38,2.37,3.23,.72,.44,1.67,.68,2.2,1.41,.06,.08,.3-.12,.42-.22,.09-.2,.2-.4,.32-.6-.62-.42-1.31-.78-1.83-1.32-.15-.2-.72-.05-.81-.17Z"/>
            <path class="cls-7" d="M171.67,165.62s.02-.03,.02-.04c-.03-.02-.06-.04-.09-.06,.02,.03,.05,.07,.07,.1Z"/>
            <path class="cls-4" d="M170.12,164.61c-.23-.12-.4-.29-.55-.47-.21-.02-.46,.02-.52-.06-.86-.78-1.12-2.19-2.35-2.4-.13-.03-.26-.06-.4-.08,.03,.06,.05,.12,.08,.18,.18,.43,.4,.85,.65,1.25,.03,0,.06,.02,.09,.02,.33,.05,.3,.4,.44,.6,.6,.41,.83,1,1.43,1.41,.21,.15,.66,.1,.84,.34,.07,.07,.13,.15,.18,.24,.37,.2,.71,.43,.95,.77,.06,.08,.3-.12,.42-.22,.05-.11,.1-.21,.16-.32-.18-.29-.42-.53-.63-.81-.26-.17-.52-.34-.75-.54-.01,.03-.02,.06-.03,.09Z"/>
            <path class="cls-7" d="M170.46,164.27s-.23,.08-.31,.26c.23,.2,.49,.37,.75,.54-.18-.23-.34-.48-.44-.8Z"/>
            <path class="cls-8" d="M171.3,163.56c-.29-.53-.98-.67-1.1-1.23-.08-.28-.07-.62,0-.99-.06-.06-.12-.11-.17-.17-1.55-1.31-2.97-2.72-4.03-4.43-.59-.81-1.61-1.13-2.56-1.63-.48-.38-.53-.99-.76-1.57-.53-1.51-2.37-1.55-3.69-2.38-.36-.22-1.32,.59-1.26,.67,2.08,1.51,3.26,3.65,5.23,5.26,1.5,1.27,2.6,2.75,3.36,4.51,.14,.02,.27,.05,.4,.08,1.23,.21,1.48,1.62,2.35,2.4,.09,.12,.66-.03,.81,.17,.52,.55,1.21,.9,1.83,1.32,.24-.42,.51-.82,.66-1.17-.44-.21-.86-.43-1.04-.84Z"/>
            <path class="cls-6" d="M171.3,163.56c.18,.42,.61,.64,1.04,.84,.07-.17,.12-.32,.12-.45-.21-1.28-1.42-1.84-2.26-2.61-.08,.37-.08,.71,0,.99,.11,.55,.8,.7,1.1,1.23Z"/>
            <path class="cls-4" d="M171.3,163.56c.18,.4,.57,.62,.98,.81-.04-.15-.11-.29-.2-.41-.44-.6-1.01-1.11-1.27-1.86,.52,.6,1.04,1.2,1.64,1.74-.27-1.2-1.44-1.74-2.24-2.49-.08,.37-.08,.71,0,.99,.11,.55,.8,.7,1.1,1.23Z"/>
            <path class="cls-3" d="M170.35,162.8c.48,.78,1.01,1.5,1.8,2.02,.06-.11,.12-.21,.17-.31,0-.04-.02-.08-.03-.12-.41-.2-.81-.42-.98-.81-.29-.53-.98-.67-1.1-1.23-.08-.28-.07-.62,0-.99-.06-.05-.11-.11-.16-.16-.79-.67-1.55-1.36-2.24-2.11-.89-.39-1.46-1.17-1.89-2.05,.29,.33,.6,.64,.93,.93-.3-.39-.58-.79-.84-1.2-.25-.34-.58-.6-.94-.81-.27,.14-.55,.21-.76,.09-.33-.18-.54-.46-.98-.54-.03-.04,.15-.19,.09-.27,.17,.23,.44,.29,.76,.27-.24-.11-.48-.23-.72-.36-.37-.3-.49-.74-.63-1.2-.04-.03-.08-.06-.11-.09-.18-.15-.44-.24-.72-.31,.06,.08,.12,.16,.18,.24-.21-.02-.33-.18-.42-.3,.08,.02,.16,.04,.24,.06-.14-.19-.27-.37-.42-.57,.18,.24,.48,.38,.74,.48-.39-.39-.8-.7-1.01-1.24,.02,0,.04,0,.06,0-.74-.36-1.64-.58-2.38-1.03-.36-.22-1.32,.59-1.26,.67,1.45,1.05,2.47,2.42,3.62,3.69,0-.26,0-.52-.02-.77-.03-.09-.04-.19-.02-.31,0,.1,.02,.21,.02,.31,.07,.25,.27,.42,.33,.7-.03,.09,.06,.21,.27,.1,.09,.38,.5,.55,.59,.94,.01,.02-.02,.09-.05,.17,.16,.15,.32,.29,.49,.43,.94,.79,1.72,1.67,2.36,2.65-.08-.31-.13-.62-.14-.95,.03-.48-.68-.8-1.16-1.18-.15-.07-.03-.3-.12-.42,.84-.05,.95,.77,1.43,1.15,.59,.54,.91,1.77,1.84,2.11,.39,.13,.41,.56,.41,.96-.18,.02-.3-.14-.36-.22-.53-.73-1.07-1.45-1.72-2.08,.38,.92,1.1,1.49,1.42,2.46-.39-.39-.47-1.04-1.07-1.19-.02,.07-.03,.14-.03,.21,.18,.33,.34,.66,.49,1.01,.14,.02,.27,.05,.4,.08,1.23,.21,1.48,1.62,2.35,2.4,.06,.08,.31,.04,.52,.06-.23-.29-.41-.63-.66-.91,.04,.16,.06,.34,.02,.56-.27-.23-.2-.68-.47-.91,.18,.09,.33,.21,.45,.35-.06-.24-.19-.45-.3-.67,.51,.16,.29,.92,.91,.99-.07-.07-.13-.15-.17-.24,.06,.08,.12,.16,.18,.24,0,0,0,0,0,0,.21,.21,.52,.34,.81,.43-.36-.37-.43-.94-.78-1.3-.06-.05-.13-.11-.2-.16,.08,.05,.14,.1,.2,.16,.88,.76,1.39,1.88,2.04,2.84,.03,.02,.06,.04,.09,.06,.05-.09,.11-.19,.16-.28-.58-.77-1.09-1.62-1.51-2.5Z"/>
          </g>
        </g>
      </g>
    </g>
  </g>
</svg>